# MagicaVoxel @ Ephtracy

# group
o trunk

# material
mtllib tree-small-1-trunk.mtl
usemtl palette

# normals
vn -1 0 0
vn 1 0 0
vn 0 0 1
vn 0 0 -1
vn 0 -1 0
vn 0 1 0

# texcoords
vt 0.267578 0.5
vt 0.271484 0.5
vt 0.275391 0.5
vt 0.279297 0.5

# verts
v -0.2 0 0.1
v -0.2 0 7.45058e-009
v -0.2 0 -0.1
v -0.2 0.1 0.1
v -0.2 0.1 7.45058e-009
v -0.2 0.1 -0.1
v -0.2 0.2 0.1
v -0.2 0.2 7.45058e-009
v -0.1 0 0.2
v -0.1 0 0.1
v -0.1 0 -0.1
v -0.1 0 -0.2
v -0.1 0.1 0.2
v -0.1 0.1 0.1
v -0.1 0.1 7.45058e-009
v -0.1 0.1 -0.1
v -0.1 0.2 0.1
v -0.1 0.2 7.45058e-009
v -0.1 0.2 -0.1
v -0.1 0.2 -0.2
v -0.1 0.4 7.45058e-009
v -0.1 0.4 -0.1
v -0.1 0.5 0.1
v -0.1 0.5 -0.1
v -0.1 0.6 0.2
v -0.1 0.6 0.1
v -0.1 0.6 7.45058e-009
v -0.1 0.6 -0.1
v -0.1 0.7 0.2
v -0.1 0.7 0.1
v -0.1 0.7 7.45058e-009
v -0.1 0.8 0.2
v -0.1 0.8 0.1
v -0.1 0.8 7.45058e-009
v -0.1 0.8 -0.1
v -0.1 0.9 0.1
v -0.1 0.9 7.45058e-009
v -0.1 0.9 -0.1
v -0.1 1 0.1
v -0.1 1 7.45058e-009
v -0.1 1 -0.1
v -0.1 1.1 0.2
v -0.1 1.1 0.1
v -0.1 1.1 7.45058e-009
v -0.1 1.2 0.1
v -0.1 1.2 7.45058e-009
v -0.1 1.4 0.2
v -0.1 1.4 0.1
v -0.1 1.4 7.45058e-009
v -0.1 1.5 0.2
v -0.1 1.5 0.1
v -0.1 1.6 0.2
v -0.1 1.6 0.1
v -0.1 1.6 7.45058e-009
v -0.1 1.7 0.2
v -0.1 1.7 0.1
v -0.1 1.7 7.45058e-009
v -0.1 1.8 0.2
v -0.1 1.8 7.45058e-009
v -7.45058e-009 0.1 -0.1
v -7.45058e-009 0.1 -0.2
v -7.45058e-009 0.2 -0.1
v -7.45058e-009 0.2 -0.2
v -7.45058e-009 0.6 0.2
v -7.45058e-009 0.6 0.1
v -7.45058e-009 0.6 7.45058e-009
v -7.45058e-009 0.6 -0.1
v -7.45058e-009 0.7 0.2
v -7.45058e-009 0.7 0.1
v -7.45058e-009 0.7 7.45058e-009
v -7.45058e-009 0.8 0.2
v -7.45058e-009 0.8 0.1
v -7.45058e-009 0.8 7.45058e-009
v -7.45058e-009 0.8 -0.1
v -7.45058e-009 0.9 7.45058e-009
v -7.45058e-009 0.9 -0.1
v -7.45058e-009 1 7.45058e-009
v -7.45058e-009 1 -0.1
v 0.1 0 0.2
v 0.1 0 7.45058e-009
v 0.1 0 -0.1
v 0.1 0 -0.2
v 0.1 0.1 0.2
v 0.1 0.1 0.1
v 0.1 0.1 7.45058e-009
v 0.1 0.1 -0.1
v 0.1 0.1 -0.2
v 0.1 0.2 7.45058e-009
v 0.1 0.2 -0.1
v 0.1 0.3 0.1
v 0.1 0.3 7.45058e-009
v 0.1 0.4 7.45058e-009
v 0.1 0.4 -0.1
v 0.1 0.5 0.1
v 0.1 0.5 7.45058e-009
v 0.1 0.5 -0.1
v 0.1 0.6 0.1
v 0.1 0.6 7.45058e-009
v 0.1 0.6 -0.1
v 0.1 0.7 0.1
v 0.1 0.7 7.45058e-009
v 0.1 0.8 0.2
v 0.1 0.8 0.1
v 0.1 0.8 7.45058e-009
v 0.1 0.9 0.2
v 0.1 0.9 0.1
v 0.1 0.9 7.45058e-009
v 0.1 1 0.2
v 0.1 1 0.1
v 0.1 1.1 0.2
v 0.1 1.1 0.1
v 0.1 1.2 0.2
v 0.1 1.2 0.1
v 0.1 1.2 7.45058e-009
v 0.1 1.3 0.2
v 0.1 1.3 0.1
v 0.1 1.3 7.45058e-009
v 0.1 1.4 0.2
v 0.1 1.4 0.1
v 0.1 1.4 7.45058e-009
v 0.1 1.5 0.2
v 0.1 1.5 0.1
v 0.1 1.5 7.45058e-009
v 0.1 1.6 0.1
v 0.1 1.6 7.45058e-009
v 0.1 1.7 0.1
v 0.1 1.7 7.45058e-009
v 0.1 1.8 0.2
v 0.1 1.8 0.1
v 0.1 1.8 7.45058e-009
v 0.2 0 7.45058e-009
v 0.2 0 -0.1
v 0.2 0.1 7.45058e-009
v 0.2 0.1 -0.1
v -0.1 0 0.2
v -0.1 0.1 0.2
v -0.1 0.6 0.2
v -0.1 0.7 0.2
v -0.1 0.8 0.2
v -0.1 1.1 0.2
v -0.1 1.4 0.2
v -0.1 1.5 0.2
v -0.1 1.6 0.2
v -0.1 1.7 0.2
v -0.1 1.8 0.2
v -7.45058e-009 0.6 0.2
v -7.45058e-009 0.7 0.2
v -7.45058e-009 0.8 0.2
v -7.45058e-009 0.9 0.2
v -7.45058e-009 1 0.2
v -7.45058e-009 1.2 0.2
v -7.45058e-009 1.3 0.2
v -7.45058e-009 1.4 0.2
v -7.45058e-009 1.5 0.2
v -7.45058e-009 1.6 0.2
v -7.45058e-009 1.7 0.2
v 0.1 0 0.2
v 0.1 0.1 0.2
v 0.1 0.8 0.2
v 0.1 0.9 0.2
v 0.1 1 0.2
v 0.1 1.1 0.2
v 0.1 1.2 0.2
v 0.1 1.3 0.2
v 0.1 1.4 0.2
v 0.1 1.5 0.2
v 0.1 1.8 0.2
v -0.2 0 0.1
v -0.2 0.1 0.1
v -0.2 0.2 0.1
v -0.1 0 0.1
v -0.1 0.1 0.1
v -0.1 0.2 0.1
v -0.1 0.5 0.1
v -0.1 0.6 0.1
v -7.45058e-009 0.1 0.1
v -7.45058e-009 0.2 0.1
v -7.45058e-009 0.3 0.1
v -7.45058e-009 0.5 0.1
v -7.45058e-009 0.6 0.1
v -7.45058e-009 0.7 0.1
v -7.45058e-009 0.8 0.1
v 0.1 0.1 0.1
v 0.1 0.3 0.1
v 0.1 0.5 0.1
v 0.1 0.6 0.1
v 0.1 0.7 0.1
v 0.1 0.8 0.1
v 0.1 0 7.45058e-009
v 0.1 0.1 7.45058e-009
v 0.2 0 7.45058e-009
v 0.2 0.1 7.45058e-009
v -0.2 0.1 7.45058e-009
v -0.2 0.2 7.45058e-009
v -0.1 0.1 7.45058e-009
v -0.1 0.2 7.45058e-009
v -0.1 1 7.45058e-009
v -0.1 1.1 7.45058e-009
v -0.1 1.2 7.45058e-009
v -0.1 1.4 7.45058e-009
v -0.1 1.6 7.45058e-009
v -0.1 1.7 7.45058e-009
v -0.1 1.8 7.45058e-009
v -7.45058e-009 0.6 7.45058e-009
v -7.45058e-009 0.7 7.45058e-009
v -7.45058e-009 0.8 7.45058e-009
v -7.45058e-009 0.9 7.45058e-009
v -7.45058e-009 1 7.45058e-009
v -7.45058e-009 1.1 7.45058e-009
v -7.45058e-009 1.2 7.45058e-009
v -7.45058e-009 1.3 7.45058e-009
v -7.45058e-009 1.5 7.45058e-009
v -7.45058e-009 1.6 7.45058e-009
v -7.45058e-009 1.7 7.45058e-009
v -7.45058e-009 1.8 7.45058e-009
v 0.1 0.6 7.45058e-009
v 0.1 0.7 7.45058e-009
v 0.1 0.8 7.45058e-009
v 0.1 0.9 7.45058e-009
v 0.1 1.2 7.45058e-009
v 0.1 1.3 7.45058e-009
v 0.1 1.4 7.45058e-009
v 0.1 1.5 7.45058e-009
v 0.1 1.6 7.45058e-009
v 0.1 1.7 7.45058e-009
v 0.1 1.8 7.45058e-009
v -0.2 0 -0.1
v -0.2 0.1 -0.1
v -0.1 0 -0.1
v -0.1 0.1 -0.1
v -0.1 0.2 -0.1
v -0.1 0.4 -0.1
v -0.1 0.5 -0.1
v -0.1 0.6 -0.1
v -0.1 0.8 -0.1
v -0.1 0.9 -0.1
v -0.1 1 -0.1
v -7.45058e-009 0.1 -0.1
v -7.45058e-009 0.2 -0.1
v -7.45058e-009 0.4 -0.1
v -7.45058e-009 0.5 -0.1
v -7.45058e-009 0.6 -0.1
v -7.45058e-009 0.8 -0.1
v -7.45058e-009 0.9 -0.1
v -7.45058e-009 1 -0.1
v 0.1 0 -0.1
v 0.1 0.1 -0.1
v 0.1 0.2 -0.1
v 0.1 0.4 -0.1
v 0.1 0.5 -0.1
v 0.1 0.6 -0.1
v 0.2 0 -0.1
v 0.2 0.1 -0.1
v -0.1 0 -0.2
v -0.1 0.2 -0.2
v -7.45058e-009 0 -0.2
v -7.45058e-009 0.1 -0.2
v -7.45058e-009 0.2 -0.2
v 0.1 0 -0.2
v 0.1 0.1 -0.2
v -0.1 0 0.2
v 0.1 0 0.2
v -0.2 0 0.1
v -0.1 0 0.1
v -7.45058e-009 0 0.1
v -0.2 0 7.45058e-009
v -0.1 0 7.45058e-009
v -7.45058e-009 0 7.45058e-009
v 0.1 0 7.45058e-009
v 0.2 0 7.45058e-009
v -0.2 0 -0.1
v -0.1 0 -0.1
v -7.45058e-009 0 -0.1
v 0.1 0 -0.1
v 0.2 0 -0.1
v -0.1 0 -0.2
v -7.45058e-009 0 -0.2
v 0.1 0 -0.2
v -0.1 0.6 0.2
v -7.45058e-009 0.6 0.2
v -0.1 0.6 0.1
v -7.45058e-009 0.6 0.1
v -7.45058e-009 0.8 0.2
v 0.1 0.8 0.2
v -7.45058e-009 0.8 0.1
v 0.1 0.8 0.1
v -0.1 0.1 0.2
v 0.1 0.1 0.2
v -0.1 0.1 0.1
v -7.45058e-009 0.1 0.1
v 0.1 0.1 0.1
v -0.2 0.1 7.45058e-009
v -0.1 0.1 7.45058e-009
v 0.1 0.1 7.45058e-009
v 0.2 0.1 7.45058e-009
v -0.2 0.1 -0.1
v -0.1 0.1 -0.1
v -7.45058e-009 0.1 -0.1
v 0.1 0.1 -0.1
v 0.2 0.1 -0.1
v -7.45058e-009 0.1 -0.2
v 0.1 0.1 -0.2
v -0.2 0.2 0.1
v -0.1 0.2 0.1
v -0.2 0.2 7.45058e-009
v -0.1 0.2 7.45058e-009
v -0.1 0.2 -0.1
v -7.45058e-009 0.2 -0.1
v -0.1 0.2 -0.2
v -7.45058e-009 0.2 -0.2
v -7.45058e-009 0.6 7.45058e-009
v 0.1 0.6 7.45058e-009
v -7.45058e-009 0.6 -0.1
v 0.1 0.6 -0.1
v -0.1 1 7.45058e-009
v -7.45058e-009 1 7.45058e-009
v -0.1 1 -0.1
v -7.45058e-009 1 -0.1
v -0.1 1.8 0.2
v 0.1 1.8 0.2
v -7.45058e-009 1.8 0.1
v 0.1 1.8 0.1
v -0.1 1.8 7.45058e-009
v -7.45058e-009 1.8 7.45058e-009
v 0.1 1.8 7.45058e-009

# faces
f 4/2/1 2/2/1 1/2/1
f 5/1/1 3/1/1 2/1/1
f 5/2/1 2/2/1 4/2/1
f 6/1/1 3/1/1 5/1/1
f 7/4/1 5/4/1 4/4/1
f 8/4/1 5/4/1 7/4/1
f 13/4/1 10/4/1 9/4/1
f 14/4/1 10/4/1 13/4/1
f 16/1/1 12/1/1 11/1/1
f 18/1/1 16/1/1 15/1/1
f 19/1/1 12/1/1 16/1/1
f 19/1/1 16/1/1 18/1/1
f 20/1/1 12/1/1 19/1/1
f 21/4/1 18/4/1 17/4/1
f 21/3/1 19/3/1 18/3/1
f 22/3/1 19/3/1 21/3/1
f 23/4/1 21/4/1 17/4/1
f 23/4/1 22/4/1 21/4/1
f 24/4/1 22/4/1 23/4/1
f 26/1/1 24/1/1 23/1/1
f 27/1/1 24/1/1 26/1/1
f 28/1/1 24/1/1 27/1/1
f 29/1/1 26/1/1 25/1/1
f 29/1/1 27/1/1 26/1/1
f 30/1/1 27/1/1 29/1/1
f 31/2/1 28/2/1 27/2/1
f 31/1/1 27/1/1 30/1/1
f 32/2/1 30/2/1 29/2/1
f 33/4/1 31/4/1 30/4/1
f 33/2/1 30/2/1 32/2/1
f 34/2/1 28/2/1 31/2/1
f 34/4/1 31/4/1 33/4/1
f 35/2/1 28/2/1 34/2/1
f 36/4/1 33/4/1 32/4/1
f 36/1/1 34/1/1 33/1/1
f 37/3/1 35/3/1 34/3/1
f 37/1/1 34/1/1 36/1/1
f 38/3/1 35/3/1 37/3/1
f 39/4/1 36/4/1 32/4/1
f 39/4/1 37/4/1 36/4/1
f 39/4/1 38/4/1 37/4/1
f 40/4/1 38/4/1 39/4/1
f 41/4/1 38/4/1 40/4/1
f 42/4/1 39/4/1 32/4/1
f 43/1/1 40/1/1 39/1/1
f 43/4/1 39/4/1 42/4/1
f 44/1/1 40/1/1 43/1/1
f 45/1/1 43/1/1 42/1/1
f 45/3/1 44/3/1 43/3/1
f 46/3/1 44/3/1 45/3/1
f 47/1/1 45/1/1 42/1/1
f 48/4/1 46/4/1 45/4/1
f 48/1/1 45/1/1 47/1/1
f 49/4/1 46/4/1 48/4/1
f 50/3/1 48/3/1 47/3/1
f 51/1/1 49/1/1 48/1/1
f 51/3/1 48/3/1 50/3/1
f 52/4/1 51/4/1 50/4/1
f 53/1/1 49/1/1 51/1/1
f 53/4/1 51/4/1 52/4/1
f 54/1/1 49/1/1 53/1/1
f 55/2/1 53/2/1 52/2/1
f 56/3/1 54/3/1 53/3/1
f 56/2/1 53/2/1 55/2/1
f 57/3/1 54/3/1 56/3/1
f 58/4/1 56/4/1 55/4/1
f 58/4/1 57/4/1 56/4/1
f 59/4/1 57/4/1 58/4/1
f 60/1/2 61/1/2 62/1/2
f 62/1/2 61/1/2 63/1/2
f 64/1/2 65/1/2 68/1/2
f 68/1/2 65/1/2 69/1/2
f 66/2/2 67/2/2 70/2/2
f 68/2/2 69/2/2 71/2/2
f 71/2/2 69/2/2 72/2/2
f 70/2/2 67/2/2 73/2/2
f 73/2/2 67/2/2 74/2/2
f 73/3/2 74/3/2 75/3/2
f 75/3/2 74/3/2 76/3/2
f 75/4/2 76/4/2 77/4/2
f 77/4/2 76/4/2 78/4/2
f 79/4/2 80/4/2 83/4/2
f 83/4/2 80/4/2 84/4/2
f 84/4/2 80/4/2 85/4/2
f 81/4/2 82/4/2 86/4/2
f 86/4/2 82/4/2 87/4/2
f 84/3/2 85/3/2 88/3/2
f 85/2/2 86/2/2 88/2/2
f 88/2/2 86/2/2 89/2/2
f 84/3/2 88/3/2 90/3/2
f 88/3/2 89/3/2 90/3/2
f 90/3/2 89/3/2 91/3/2
f 90/4/2 91/4/2 92/4/2
f 91/3/2 89/3/2 92/3/2
f 92/3/2 89/3/2 93/3/2
f 90/4/2 92/4/2 94/4/2
f 92/1/2 93/1/2 95/1/2
f 94/4/2 92/4/2 95/4/2
f 95/1/2 93/1/2 96/1/2
f 94/2/2 95/2/2 97/2/2
f 95/4/2 96/4/2 98/4/2
f 97/2/2 95/2/2 98/2/2
f 98/4/2 96/4/2 99/4/2
f 97/1/2 98/1/2 100/1/2
f 100/1/2 98/1/2 101/1/2
f 100/4/2 101/4/2 103/4/2
f 103/4/2 101/4/2 104/4/2
f 102/4/2 103/4/2 105/4/2
f 103/3/2 104/3/2 106/3/2
f 105/4/2 103/4/2 106/4/2
f 106/3/2 104/3/2 107/3/2
f 105/1/2 106/1/2 108/1/2
f 106/4/2 107/4/2 109/4/2
f 108/1/2 106/1/2 109/1/2
f 108/4/2 109/4/2 110/4/2
f 109/4/2 107/4/2 111/4/2
f 110/4/2 109/4/2 111/4/2
f 110/1/2 111/1/2 112/1/2
f 111/4/2 107/4/2 113/4/2
f 112/1/2 111/1/2 113/1/2
f 113/4/2 107/4/2 114/4/2
f 112/3/2 113/3/2 115/3/2
f 113/1/2 114/1/2 116/1/2
f 115/3/2 113/3/2 116/3/2
f 116/1/2 114/1/2 117/1/2
f 115/2/2 116/2/2 118/2/2
f 116/4/2 117/4/2 119/4/2
f 118/2/2 116/2/2 119/2/2
f 119/4/2 117/4/2 120/4/2
f 118/1/2 119/1/2 121/1/2
f 119/1/2 120/1/2 121/1/2
f 121/1/2 120/1/2 122/1/2
f 122/1/2 120/1/2 123/1/2
f 121/4/2 122/4/2 124/4/2
f 122/3/2 123/3/2 124/3/2
f 124/3/2 123/3/2 125/3/2
f 121/4/2 124/4/2 126/4/2
f 124/2/2 125/2/2 126/2/2
f 126/2/2 125/2/2 127/2/2
f 121/4/2 126/4/2 128/4/2
f 126/1/2 127/1/2 129/1/2
f 128/4/2 126/4/2 129/4/2
f 129/1/2 127/1/2 130/1/2
f 131/1/2 132/1/2 133/1/2
f 133/1/2 132/1/2 134/1/2
f 146/1/3 138/1/3 137/1/3
f 147/2/3 139/2/3 138/2/3
f 147/1/3 138/1/3 146/1/3
f 148/4/3 140/4/3 139/4/3
f 148/2/3 139/2/3 147/2/3
f 149/4/3 140/4/3 148/4/3
f 150/4/3 140/4/3 149/4/3
f 151/1/3 141/1/3 140/1/3
f 152/1/3 141/1/3 151/1/3
f 153/3/3 142/3/3 141/3/3
f 153/1/3 141/1/3 152/1/3
f 154/4/3 143/4/3 142/4/3
f 154/3/3 142/3/3 153/3/3
f 155/2/3 144/2/3 143/2/3
f 155/4/3 143/4/3 154/4/3
f 156/4/3 145/4/3 144/4/3
f 156/2/3 144/2/3 155/2/3
f 157/4/3 136/4/3 135/4/3
f 158/4/3 136/4/3 157/4/3
f 159/4/3 149/4/3 148/4/3
f 160/1/3 150/1/3 149/1/3
f 160/4/3 149/4/3 159/4/3
f 161/4/3 140/4/3 150/4/3
f 161/1/3 150/1/3 160/1/3
f 162/1/3 151/1/3 140/1/3
f 162/4/3 140/4/3 161/4/3
f 163/3/3 152/3/3 151/3/3
f 163/1/3 151/1/3 162/1/3
f 164/2/3 153/2/3 152/2/3
f 164/3/3 152/3/3 163/3/3
f 165/1/3 154/1/3 153/1/3
f 165/2/3 153/2/3 164/2/3
f 166/4/3 155/4/3 154/4/3
f 166/1/3 154/1/3 165/1/3
f 166/4/3 156/4/3 155/4/3
f 167/4/3 145/4/3 156/4/3
f 167/4/3 156/4/3 166/4/3
f 171/2/3 169/2/3 168/2/3
f 172/4/3 170/4/3 169/4/3
f 172/2/3 169/2/3 171/2/3
f 173/4/3 170/4/3 172/4/3
f 176/1/3 173/1/3 172/1/3
f 177/4/3 174/4/3 173/4/3
f 177/1/3 173/1/3 176/1/3
f 178/4/3 174/4/3 177/4/3
f 179/1/3 175/1/3 174/1/3
f 179/4/3 174/4/3 178/4/3
f 180/1/3 175/1/3 179/1/3
f 183/3/3 178/3/3 177/3/3
f 183/3/3 177/3/3 176/3/3
f 184/4/3 179/4/3 178/4/3
f 184/3/3 178/3/3 183/3/3
f 185/2/3 180/2/3 179/2/3
f 185/4/3 179/4/3 184/4/3
f 186/1/3 181/1/3 180/1/3
f 186/2/3 180/2/3 185/2/3
f 187/4/3 182/4/3 181/4/3
f 187/1/3 181/1/3 186/1/3
f 188/4/3 182/4/3 187/4/3
f 191/1/3 190/1/3 189/1/3
f 192/1/3 190/1/3 191/1/3
f 193/4/4 194/4/4 195/4/4
f 195/4/4 194/4/4 196/4/4
f 197/1/4 198/1/4 208/1/4
f 198/3/4 199/3/4 209/3/4
f 208/1/4 198/1/4 209/1/4
f 199/4/4 200/4/4 210/4/4
f 209/3/4 199/3/4 210/3/4
f 210/4/4 200/4/4 211/4/4
f 200/1/4 201/1/4 212/1/4
f 201/3/4 202/3/4 213/3/4
f 212/1/4 201/1/4 213/1/4
f 202/4/4 203/4/4 214/4/4
f 213/3/4 202/3/4 214/3/4
f 214/4/4 203/4/4 215/4/4
f 204/1/4 205/1/4 216/1/4
f 205/4/4 206/4/4 217/4/4
f 216/1/4 205/1/4 217/1/4
f 206/3/4 207/3/4 218/3/4
f 217/4/4 206/4/4 218/4/4
f 207/4/4 208/4/4 219/4/4
f 218/3/4 207/3/4 219/3/4
f 208/4/4 209/4/4 219/4/4
f 209/4/4 210/4/4 219/4/4
f 210/1/4 211/1/4 220/1/4
f 219/4/4 210/4/4 220/4/4
f 211/4/4 200/4/4 221/4/4
f 220/1/4 211/1/4 221/1/4
f 200/1/4 212/1/4 222/1/4
f 221/4/4 200/4/4 222/4/4
f 212/3/4 213/3/4 223/3/4
f 222/1/4 212/1/4 223/1/4
f 213/2/4 214/2/4 224/2/4
f 223/3/4 213/3/4 224/3/4
f 214/1/4 215/1/4 225/1/4
f 224/2/4 214/2/4 225/2/4
f 225/1/4 215/1/4 226/1/4
f 227/1/4 228/1/4 229/1/4
f 229/1/4 228/1/4 230/1/4
f 231/3/4 232/3/4 239/3/4
f 232/4/4 233/4/4 240/4/4
f 239/3/4 232/3/4 240/3/4
f 233/1/4 234/1/4 241/1/4
f 240/4/4 233/4/4 241/4/4
f 234/2/4 235/2/4 242/2/4
f 241/1/4 234/1/4 242/1/4
f 235/3/4 236/3/4 243/3/4
f 242/2/4 235/2/4 243/2/4
f 236/4/4 237/4/4 244/4/4
f 243/3/4 236/3/4 244/3/4
f 244/4/4 237/4/4 245/4/4
f 238/2/4 239/2/4 247/2/4
f 239/3/4 240/3/4 248/3/4
f 247/2/4 239/2/4 248/2/4
f 240/1/4 241/1/4 249/1/4
f 248/3/4 240/3/4 249/3/4
f 241/4/4 242/4/4 250/4/4
f 249/1/4 241/1/4 250/1/4
f 250/4/4 242/4/4 251/4/4
f 246/1/4 247/1/4 252/1/4
f 252/1/4 247/1/4 253/1/4
f 254/1/4 255/1/4 256/1/4
f 256/1/4 255/1/4 257/1/4
f 257/1/4 255/1/4 258/1/4
f 256/4/4 257/4/4 259/4/4
f 259/4/4 257/4/4 260/4/4
f 264/4/5 262/4/5 261/4/5
f 265/4/5 262/4/5 264/4/5
f 266/2/5 264/2/5 263/2/5
f 267/1/5 265/1/5 264/1/5
f 267/2/5 264/2/5 266/2/5
f 268/4/5 262/4/5 265/4/5
f 268/1/5 265/1/5 267/1/5
f 269/4/5 262/4/5 268/4/5
f 271/1/5 267/1/5 266/1/5
f 272/4/5 268/4/5 267/4/5
f 272/1/5 267/1/5 271/1/5
f 272/4/5 269/4/5 268/4/5
f 273/4/5 269/4/5 272/4/5
f 274/1/5 270/1/5 269/1/5
f 274/4/5 269/4/5 273/4/5
f 275/1/5 270/1/5 274/1/5
f 276/1/5 273/1/5 272/1/5
f 277/4/5 274/4/5 273/4/5
f 277/1/5 273/1/5 276/1/5
f 278/4/5 274/4/5 277/4/5
f 281/1/5 280/1/5 279/1/5
f 282/1/5 280/1/5 281/1/5
f 285/4/5 284/4/5 283/4/5
f 286/4/5 284/4/5 285/4/5
f 287/4/6 288/4/6 289/4/6
f 289/4/6 288/4/6 290/4/6
f 290/4/6 288/4/6 291/4/6
f 292/1/6 293/1/6 296/1/6
f 296/1/6 293/1/6 297/1/6
f 294/1/6 295/1/6 299/1/6
f 299/1/6 295/1/6 300/1/6
f 298/4/6 299/4/6 301/4/6
f 301/4/6 299/4/6 302/4/6
f 303/4/6 304/4/6 305/4/6
f 305/4/6 304/4/6 306/4/6
f 307/1/6 308/1/6 309/1/6
f 309/1/6 308/1/6 310/1/6
f 311/4/6 312/4/6 313/4/6
f 313/4/6 312/4/6 314/4/6
f 315/4/6 316/4/6 317/4/6
f 317/4/6 316/4/6 318/4/6
f 319/4/6 320/4/6 321/4/6
f 321/4/6 320/4/6 322/4/6
f 319/4/6 321/4/6 323/4/6
f 321/1/6 322/1/6 324/1/6
f 323/4/6 321/4/6 324/4/6
f 324/1/6 322/1/6 325/1/6
