# MagicaVoxel @ Ephtracy

# group
o trunk

# material
mtllib tree-large-3-trunk.mtl
usemtl palette

# normals
vn -1 0 0
vn 1 0 0
vn 0 0 1
vn 0 0 -1
vn 0 -1 0
vn 0 1 0

# texcoords
vt 0.267578 0.5
vt 0.271484 0.5
vt 0.275391 0.5
vt 0.279297 0.5

# verts
v -0.4 0 0.3
v -0.4 0 0.1
v -0.4 0 1.49012e-008
v -0.4 0 -0.1
v -0.4 0 -0.2
v -0.4 0 -0.4
v -0.4 0.1 0.3
v -0.4 0.1 0.2
v -0.4 0.3 -0.3
v -0.4 0.3 -0.4
v -0.4 0.5 0.2
v -0.4 0.5 0.1
v -0.4 0.6 0.2
v -0.4 0.6 0.1
v -0.4 0.6 -0.2
v -0.4 0.6 -0.3
v -0.4 0.7 0.1
v -0.4 0.7 1.49012e-008
v -0.4 0.7 -0.1
v -0.4 0.8 -0.1
v -0.4 0.8 -0.2
v -0.4 1 1.49012e-008
v -0.4 1 -0.1
v -0.4 1.8 1.49012e-008
v -0.4 1.8 -0.1
v -0.3 0 0.4
v -0.3 0 0.3
v -0.3 0.1 0.4
v -0.3 0.1 0.3
v -0.3 0.1 0.2
v -0.3 0.3 -0.3
v -0.3 0.3 -0.4
v -0.3 0.5 0.2
v -0.3 0.6 0.3
v -0.3 0.6 0.2
v -0.3 0.6 0.1
v -0.3 0.6 -0.2
v -0.3 0.6 -0.3
v -0.3 0.6 -0.4
v -0.3 0.7 0.1
v -0.3 0.7 1.49012e-008
v -0.3 0.8 0.2
v -0.3 0.8 0.1
v -0.3 0.8 1.49012e-008
v -0.3 0.8 -0.1
v -0.3 0.8 -0.2
v -0.3 0.9 0.2
v -0.3 0.9 0.1
v -0.3 0.9 1.49012e-008
v -0.3 1 1.49012e-008
v -0.3 1 -0.1
v -0.3 1 -0.2
v -0.3 1.1 0.1
v -0.3 1.1 1.49012e-008
v -0.3 1.1 -0.2
v -0.3 1.1 -0.3
v -0.3 1.3 -0.1
v -0.3 1.3 -0.2
v -0.3 1.8 1.49012e-008
v -0.3 1.8 -0.1
v -0.3 1.9 0.1
v -0.3 1.9 1.49012e-008
v -0.3 1.9 -0.1
v -0.3 1.9 -0.2
v -0.3 1.9 -0.3
v -0.3 2.1 0.1
v -0.3 2.1 1.49012e-008
v -0.3 2.2 -0.2
v -0.3 2.2 -0.3
v -0.3 2.3 0.1
v -0.3 2.3 1.49012e-008
v -0.3 2.4 -0.1
v -0.3 2.4 -0.2
v -0.3 2.5 0.1
v -0.3 2.5 1.49012e-008
v -0.3 2.7 1.49012e-008
v -0.3 2.7 -0.1
v -0.3 2.7 -0.2
v -0.3 2.7 -0.3
v -0.3 2.9 1.49012e-008
v -0.3 2.9 -0.1
v -0.3 3.2 1.49012e-008
v -0.3 3.2 -0.1
v -0.3 3.2 -0.2
v -0.3 3.2 -0.3
v -0.3 3.3 0.1
v -0.3 3.3 1.49012e-008
v -0.3 3.4 0.2
v -0.3 3.4 0.1
v -0.3 3.4 1.49012e-008
v -0.3 3.4 -0.1
v -0.3 3.5 0.2
v -0.3 3.5 0.1
v -0.3 3.5 1.49012e-008
v -0.3 3.6 0.2
v -0.3 3.6 0.1
v -0.3 3.6 -0.3
v -0.2 0.1 0.4
v -0.2 0.1 0.3
v -0.2 0.5 0.4
v -0.2 0.5 0.3
v -0.2 0.6 0.3
v -0.2 0.6 0.2
v -0.2 0.6 -0.3
v -0.2 0.6 -0.4
v -0.2 0.8 0.3
v -0.2 0.8 0.2
v -0.2 0.9 0.2
v -0.2 0.9 0.1
v -0.2 1.1 0.1
v -0.2 1.1 -0.3
v -0.2 1.2 0.2
v -0.2 1.2 0.1
v -0.2 1.3 -0.3
v -0.2 1.3 -0.4
v -0.2 1.8 -0.3
v -0.2 1.8 -0.4
v -0.2 1.9 0.1
v -0.2 1.9 -0.3
v -0.2 2.1 0.2
v -0.2 2.1 0.1
v -0.2 2.2 -0.3
v -0.2 2.3 0.1
v -0.2 2.5 0.1
v -0.2 2.6 0.2
v -0.2 2.6 0.1
v -0.2 2.6 -0.3
v -0.2 2.6 -0.4
v -0.2 2.7 -0.3
v -0.2 2.9 0.2
v -0.2 2.9 0.1
v -0.2 3.2 -0.3
v -0.2 3.3 0.2
v -0.2 3.3 0.1
v -0.2 3.3 -0.3
v -0.2 3.3 -0.4
v -0.2 3.4 0.2
v -0.2 3.4 0.1
v -0.1 0 0.5
v -0.1 0 0.4
v -0.1 0.1 0.5
v -0.1 0.1 0.4
v -0.1 0.5 0.4
v -0.1 0.5 0.3
v -0.1 0.7 0.4
v -0.1 0.7 0.3
v -0.1 0.8 0.3
v -0.1 0.8 0.2
v -0.1 1.2 0.2
v -0.1 1.6 0.3
v -0.1 1.6 0.2
v -0.1 1.7 0.3
v -0.1 1.7 0.2
v -0.1 2.1 0.2
v -0.1 2.4 0.3
v -0.1 2.4 0.2
v -0.1 2.6 0.3
v -0.1 2.6 0.2
v -0.1 3.3 -0.3
v -0.1 3.3 -0.4
v -0.1 3.6 -0.3
v -0.1 3.6 -0.4
v 7.45058e-009 0 0.5
v 7.45058e-009 0 0.4
v 7.45058e-009 0.1 0.5
v 7.45058e-009 0.1 0.4
v 7.45058e-009 0.6 0.4
v 7.45058e-009 0.6 0.3
v 7.45058e-009 0.6 -0.3
v 7.45058e-009 0.6 -0.4
v 7.45058e-009 0.7 0.4
v 7.45058e-009 0.7 0.3
v 7.45058e-009 1.1 -0.3
v 7.45058e-009 1.1 -0.4
v 7.45058e-009 1.4 -0.3
v 7.45058e-009 1.4 -0.4
v 7.45058e-009 1.6 -0.3
v 7.45058e-009 1.6 -0.4
v 7.45058e-009 1.8 -0.3
v 7.45058e-009 1.9 0.3
v 7.45058e-009 1.9 0.2
v 7.45058e-009 2 0.2
v 7.45058e-009 2.3 0.2
v 7.45058e-009 2.4 0.3
v 7.45058e-009 2.4 0.2
v 7.45058e-009 2.5 -0.3
v 7.45058e-009 2.5 -0.4
v 7.45058e-009 2.6 0.3
v 7.45058e-009 2.6 0.2
v 7.45058e-009 2.8 -0.3
v 7.45058e-009 2.8 -0.4
v 7.45058e-009 2.9 -0.3
v 7.45058e-009 3.3 -0.3
v 7.45058e-009 3.3 -0.4
v 7.45058e-009 3.6 -0.3
v 7.45058e-009 3.6 -0.4
v 0.1 0.1 0.4
v 0.1 0.1 0.3
v 0.1 0.4 -0.3
v 0.1 0.4 -0.4
v 0.1 0.6 0.4
v 0.1 0.6 0.3
v 0.1 0.6 -0.3
v 0.1 0.6 -0.4
v 0.1 0.7 0.3
v 0.1 0.7 0.2
v 0.1 0.7 -0.2
v 0.1 0.7 -0.3
v 0.1 1 0.2
v 0.1 1.6 0.3
v 0.1 1.6 0.2
v 0.1 1.7 0.2
v 0.1 1.8 0.3
v 0.1 1.8 0.2
v 0.1 1.8 -0.2
v 0.1 1.8 -0.3
v 0.1 1.9 0.3
v 0.1 1.9 0.2
v 0.1 2.7 -0.2
v 0.1 2.8 -0.2
v 0.1 2.8 -0.3
v 0.1 2.9 -0.2
v 0.1 2.9 -0.3
v 0.1 3.1 -0.2
v 0.1 3.5 -0.2
v 0.1 3.6 -0.2
v 0.1 3.6 -0.3
v 0.2 0 0.4
v 0.2 0 0.3
v 0.2 0 -0.3
v 0.2 0 -0.4
v 0.2 0.1 0.4
v 0.2 0.1 0.3
v 0.2 0.3 -0.3
v 0.2 0.3 -0.4
v 0.2 0.4 0.3
v 0.2 0.4 0.2
v 0.2 0.4 -0.3
v 0.2 0.4 -0.4
v 0.2 0.5 -0.2
v 0.2 0.5 -0.3
v 0.2 0.7 0.3
v 0.2 0.7 0.2
v 0.2 0.7 -0.1
v 0.2 0.7 -0.2
v 0.2 0.7 -0.3
v 0.2 0.8 0.2
v 0.2 0.8 0.1
v 0.2 1 0.2
v 0.2 1 0.1
v 0.2 1.3 0.1
v 0.2 1.5 0.1
v 0.2 1.7 0.2
v 0.2 1.7 0.1
v 0.2 1.7 1.49012e-008
v 0.2 1.7 -0.1
v 0.2 2 0.1
v 0.2 2 1.49012e-008
v 0.2 2.2 0.2
v 0.2 2.2 0.1
v 0.2 2.2 1.49012e-008
v 0.2 2.4 1.49012e-008
v 0.2 2.4 -0.1
v 0.2 2.7 1.49012e-008
v 0.2 2.7 -0.1
v 0.2 2.7 -0.2
v 0.2 2.8 0.1
v 0.2 2.8 1.49012e-008
v 0.2 2.8 -0.1
v 0.2 2.8 -0.2
v 0.2 2.9 1.49012e-008
v 0.2 2.9 -0.1
v 0.2 3.1 1.49012e-008
v 0.2 3.1 -0.1
v 0.2 3.1 -0.2
v 0.2 3.3 0.2
v 0.2 3.3 0.1
v 0.2 3.3 1.49012e-008
v 0.2 3.3 -0.1
v 0.2 3.5 1.49012e-008
v 0.2 3.5 -0.2
v 0.2 3.6 0.2
v 0.2 3.6 -0.2
v 0.3 0 0.3
v 0.3 0 0.2
v 0.3 0 -0.2
v 0.3 0 -0.3
v 0.3 0.1 0.3
v 0.3 0.1 0.2
v 0.3 0.1 0.1
v 0.3 0.1 -0.1
v 0.3 0.1 -0.2
v 0.3 0.2 -0.1
v 0.3 0.2 -0.2
v 0.3 0.3 0.3
v 0.3 0.3 0.2
v 0.3 0.3 0.1
v 0.3 0.3 1.49012e-008
v 0.3 0.4 0.3
v 0.3 0.4 0.2
v 0.3 0.4 1.49012e-008
v 0.3 0.4 -0.1
v 0.3 0.5 0.1
v 0.3 0.5 1.49012e-008
v 0.3 0.5 -0.2
v 0.3 0.5 -0.3
v 0.3 0.6 0.1
v 0.3 0.6 1.49012e-008
v 0.3 0.7 1.49012e-008
v 0.3 0.7 -0.1
v 0.3 0.7 -0.2
v 0.3 0.8 0.2
v 0.3 0.8 0.1
v 0.3 1.3 0.1
v 0.3 1.3 1.49012e-008
v 0.3 1.5 0.1
v 0.3 1.5 1.49012e-008
v 0.3 1.7 1.49012e-008
v 0.3 1.7 -0.1
v 0.3 2 0.1
v 0.3 2 1.49012e-008
v 0.3 2.2 0.1
v 0.3 2.2 1.49012e-008
v 0.3 2.7 1.49012e-008
v 0.3 2.7 -0.1
v 0.3 2.8 0.1
v 0.3 2.8 1.49012e-008
v 0.3 2.8 -0.1
v 0.3 2.8 -0.2
v 0.3 2.9 1.49012e-008
v 0.3 2.9 -0.1
v 0.3 3.1 1.49012e-008
v 0.3 3.1 -0.1
v 0.3 3.1 -0.2
v 0.3 3.3 0.1
v 0.3 3.3 1.49012e-008
v 0.3 3.3 -0.1
v 0.4 0 0.2
v 0.4 0 0.1
v 0.4 0 -0.1
v 0.4 0 -0.2
v 0.4 0.1 0.2
v 0.4 0.1 0.1
v 0.4 0.1 1.49012e-008
v 0.4 0.1 -0.1
v 0.4 0.1 -0.2
v 0.4 0.2 1.49012e-008
v 0.4 0.2 -0.1
v 0.4 0.3 0.1
v 0.4 0.3 1.49012e-008
v 0.4 0.4 1.49012e-008
v 0.4 0.4 -0.1
v 0.5 0 0.1
v 0.5 0 1.49012e-008
v 0.5 0 -0.1
v 0.5 0.1 0.1
v 0.5 0.1 1.49012e-008
v 0.5 0.2 1.49012e-008
v 0.5 0.2 -0.1
v -0.1 0 0.5
v -0.1 0.1 0.5
v 7.45058e-009 0 0.5
v 7.45058e-009 0.1 0.5
v -0.3 0 0.4
v -0.3 0.1 0.4
v -0.2 0 0.4
v -0.2 0.1 0.4
v -0.2 0.5 0.4
v -0.1 0 0.4
v -0.1 0.1 0.4
v -0.1 0.2 0.4
v -0.1 0.5 0.4
v -0.1 0.7 0.4
v 7.45058e-009 0 0.4
v 7.45058e-009 0.1 0.4
v 7.45058e-009 0.2 0.4
v 7.45058e-009 0.6 0.4
v 7.45058e-009 0.7 0.4
v 0.1 0.1 0.4
v 0.1 0.6 0.4
v 0.2 0 0.4
v 0.2 0.1 0.4
v -0.4 0 0.3
v -0.4 0.1 0.3
v -0.3 0 0.3
v -0.3 0.1 0.3
v -0.3 0.6 0.3
v -0.2 0.1 0.3
v -0.2 0.5 0.3
v -0.2 0.6 0.3
v -0.2 0.8 0.3
v -0.1 0.5 0.3
v -0.1 0.7 0.3
v -0.1 0.8 0.3
v -0.1 1.6 0.3
v -0.1 1.7 0.3
v -0.1 2.4 0.3
v -0.1 2.6 0.3
v 7.45058e-009 0.6 0.3
v 7.45058e-009 0.7 0.3
v 7.45058e-009 1.6 0.3
v 7.45058e-009 1.7 0.3
v 7.45058e-009 1.8 0.3
v 7.45058e-009 1.9 0.3
v 7.45058e-009 2.4 0.3
v 7.45058e-009 2.6 0.3
v 0.1 0.1 0.3
v 0.1 0.6 0.3
v 0.1 0.7 0.3
v 0.1 1.6 0.3
v 0.1 1.8 0.3
v 0.1 1.9 0.3
v 0.2 0 0.3
v 0.2 0.1 0.3
v 0.2 0.3 0.3
v 0.2 0.4 0.3
v 0.2 0.7 0.3
v 0.3 0 0.3
v 0.3 0.1 0.3
v 0.3 0.3 0.3
v 0.3 0.4 0.3
v -0.4 0.1 0.2
v -0.4 0.5 0.2
v -0.4 0.6 0.2
v -0.3 0.1 0.2
v -0.3 0.5 0.2
v -0.3 0.6 0.2
v -0.3 0.8 0.2
v -0.3 0.9 0.2
v -0.3 3.4 0.2
v -0.3 3.5 0.2
v -0.3 3.6 0.2
v -0.2 0.6 0.2
v -0.2 0.8 0.2
v -0.2 0.9 0.2
v -0.2 1.2 0.2
v -0.2 2.1 0.2
v -0.2 2.6 0.2
v -0.2 2.9 0.2
v -0.2 3.3 0.2
v -0.2 3.4 0.2
v -0.2 3.5 0.2
v -0.2 3.6 0.2
v -0.1 0.8 0.2
v -0.1 1.2 0.2
v -0.1 1.6 0.2
v -0.1 1.7 0.2
v -0.1 2.1 0.2
v -0.1 2.4 0.2
v -0.1 2.6 0.2
v -0.1 2.7 0.2
v -0.1 2.9 0.2
v -0.1 3.3 0.2
v -0.1 3.4 0.2
v -0.1 3.5 0.2
v 7.45058e-009 1.9 0.2
v 7.45058e-009 2 0.2
v 7.45058e-009 2.3 0.2
v 7.45058e-009 2.4 0.2
v 7.45058e-009 2.6 0.2
v 7.45058e-009 2.7 0.2
v 7.45058e-009 2.9 0.2
v 7.45058e-009 3.3 0.2
v 7.45058e-009 3.6 0.2
v 0.1 0.7 0.2
v 0.1 1 0.2
v 0.1 1.6 0.2
v 0.1 1.7 0.2
v 0.1 1.8 0.2
v 0.1 1.9 0.2
v 0.1 2 0.2
v 0.1 2.2 0.2
v 0.1 2.3 0.2
v 0.1 2.4 0.2
v 0.1 2.6 0.2
v 0.1 3.3 0.2
v 0.1 3.6 0.2
v 0.2 0.4 0.2
v 0.2 0.7 0.2
v 0.2 0.8 0.2
v 0.2 1 0.2
v 0.2 1.7 0.2
v 0.2 2.2 0.2
v 0.2 3.3 0.2
v 0.2 3.6 0.2
v 0.3 0 0.2
v 0.3 0.1 0.2
v 0.3 0.4 0.2
v 0.3 0.8 0.2
v 0.4 0 0.2
v 0.4 0.1 0.2
v -0.4 0.6 0.1
v -0.4 0.7 0.1
v -0.3 0.6 0.1
v -0.3 0.7 0.1
v -0.3 0.9 0.1
v -0.3 1.1 0.1
v -0.3 1.9 0.1
v -0.3 2.1 0.1
v -0.3 2.3 0.1
v -0.3 2.5 0.1
v -0.3 3.3 0.1
v -0.3 3.4 0.1
v -0.2 0.9 0.1
v -0.2 1.1 0.1
v -0.2 1.2 0.1
v -0.2 1.9 0.1
v -0.2 2.1 0.1
v -0.2 2.3 0.1
v -0.2 2.5 0.1
v -0.2 2.6 0.1
v -0.2 2.9 0.1
v -0.2 3.3 0.1
v -0.2 3.4 0.1
v 0.2 0.8 0.1
v 0.2 1 0.1
v 0.2 1.3 0.1
v 0.2 1.5 0.1
v 0.2 1.7 0.1
v 0.2 2 0.1
v 0.2 2.2 0.1
v 0.2 2.8 0.1
v 0.2 3.3 0.1
v 0.3 0.1 0.1
v 0.3 0.3 0.1
v 0.3 0.8 0.1
v 0.3 1.3 0.1
v 0.3 1.5 0.1
v 0.3 2 0.1
v 0.3 2.2 0.1
v 0.3 2.8 0.1
v 0.3 3.3 0.1
v 0.4 0 0.1
v 0.4 0.1 0.1
v 0.4 0.3 0.1
v 0.5 0 0.1
v 0.5 0.1 0.1
v -0.4 0.7 1.49012e-008
v -0.4 1 1.49012e-008
v -0.4 1.8 1.49012e-008
v -0.3 0.7 1.49012e-008
v -0.3 0.8 1.49012e-008
v -0.3 0.9 1.49012e-008
v -0.3 1 1.49012e-008
v -0.3 1.1 1.49012e-008
v -0.3 1.8 1.49012e-008
v 0.2 2.7 1.49012e-008
v 0.2 2.8 1.49012e-008
v 0.3 0.3 1.49012e-008
v 0.3 0.4 1.49012e-008
v 0.3 2.7 1.49012e-008
v 0.3 2.8 1.49012e-008
v 0.4 0.1 1.49012e-008
v 0.4 0.2 1.49012e-008
v 0.4 0.3 1.49012e-008
v 0.4 0.4 1.49012e-008
v 0.5 0.1 1.49012e-008
v 0.5 0.2 1.49012e-008
v 0.2 2.9 -0.1
v 0.2 3.1 -0.1
v 0.3 2.9 -0.1
v 0.3 3.1 -0.1
v 0.2 1.7 1.49012e-008
v 0.2 2 1.49012e-008
v 0.2 2.2 1.49012e-008
v 0.2 2.9 1.49012e-008
v 0.2 3.1 1.49012e-008
v 0.3 1.7 1.49012e-008
v 0.3 2 1.49012e-008
v 0.3 2.2 1.49012e-008
v 0.3 2.9 1.49012e-008
v 0.3 3.1 1.49012e-008
v -0.4 0.8 -0.1
v -0.4 1 -0.1
v -0.4 1.8 -0.1
v -0.3 0.8 -0.1
v -0.3 1 -0.1
v -0.3 1.3 -0.1
v -0.3 1.8 -0.1
v 0.2 0.7 -0.1
v 0.2 1.7 -0.1
v 0.2 2.7 -0.1
v 0.2 2.8 -0.1
v 0.2 3.1 -0.1
v 0.2 3.3 -0.1
v 0.3 0.1 -0.1
v 0.3 0.2 -0.1
v 0.3 0.4 -0.1
v 0.3 0.7 -0.1
v 0.3 1.7 -0.1
v 0.3 2.7 -0.1
v 0.3 2.8 -0.1
v 0.3 3.1 -0.1
v 0.3 3.3 -0.1
v 0.4 0 -0.1
v 0.4 0.1 -0.1
v 0.4 0.2 -0.1
v 0.4 0.4 -0.1
v 0.5 0 -0.1
v 0.5 0.2 -0.1
v -0.4 0.6 -0.2
v -0.4 0.8 -0.2
v -0.3 0.6 -0.2
v -0.3 0.8 -0.2
v 0.1 0.7 -0.2
v 0.1 1.8 -0.2
v 0.1 2.7 -0.2
v 0.1 2.8 -0.2
v 0.1 2.9 -0.2
v 0.1 3.1 -0.2
v 0.1 3.5 -0.2
v 0.1 3.6 -0.2
v 0.2 0.5 -0.2
v 0.2 0.7 -0.2
v 0.2 2.7 -0.2
v 0.2 2.8 -0.2
v 0.2 3.1 -0.2
v 0.2 3.5 -0.2
v 0.2 3.6 -0.2
v 0.3 0 -0.2
v 0.3 0.1 -0.2
v 0.3 0.5 -0.2
v 0.3 0.7 -0.2
v 0.3 2.8 -0.2
v 0.3 3.1 -0.2
v 0.4 0 -0.2
v 0.4 0.1 -0.2
v -0.4 0.3 -0.3
v -0.4 0.6 -0.3
v -0.3 0.3 -0.3
v -0.3 0.6 -0.3
v -0.3 1.1 -0.3
v -0.3 1.9 -0.3
v -0.3 2.2 -0.3
v -0.3 2.7 -0.3
v -0.3 3.2 -0.3
v -0.3 3.6 -0.3
v -0.2 0.6 -0.3
v -0.2 1.1 -0.3
v -0.2 1.3 -0.3
v -0.2 1.8 -0.3
v -0.2 1.9 -0.3
v -0.2 2.2 -0.3
v -0.2 2.6 -0.3
v -0.2 2.7 -0.3
v -0.2 3.2 -0.3
v -0.2 3.3 -0.3
v -0.1 3.3 -0.3
v -0.1 3.6 -0.3
v 7.45058e-009 0.6 -0.3
v 7.45058e-009 1.1 -0.3
v 7.45058e-009 1.4 -0.3
v 7.45058e-009 1.6 -0.3
v 7.45058e-009 1.8 -0.3
v 7.45058e-009 2.5 -0.3
v 7.45058e-009 2.8 -0.3
v 7.45058e-009 2.9 -0.3
v 7.45058e-009 3.3 -0.3
v 7.45058e-009 3.6 -0.3
v 0.1 0.4 -0.3
v 0.1 0.6 -0.3
v 0.1 0.7 -0.3
v 0.1 1.8 -0.3
v 0.1 2.8 -0.3
v 0.1 2.9 -0.3
v 0.1 3.6 -0.3
v 0.2 0 -0.3
v 0.2 0.3 -0.3
v 0.2 0.4 -0.3
v 0.2 0.5 -0.3
v 0.2 0.7 -0.3
v 0.3 0 -0.3
v 0.3 0.5 -0.3
v -0.4 0 -0.4
v -0.4 0.3 -0.4
v -0.3 0.1 -0.4
v -0.3 0.2 -0.4
v -0.3 0.3 -0.4
v -0.3 0.6 -0.4
v -0.2 0.1 -0.4
v -0.2 0.2 -0.4
v -0.2 0.6 -0.4
v -0.2 1.3 -0.4
v -0.2 1.8 -0.4
v -0.2 2.6 -0.4
v -0.2 3.3 -0.4
v -0.1 0.3 -0.4
v -0.1 0.5 -0.4
v -0.1 0.6 -0.4
v -0.1 1.1 -0.4
v -0.1 1.3 -0.4
v -0.1 1.4 -0.4
v -0.1 1.6 -0.4
v -0.1 1.8 -0.4
v -0.1 2.5 -0.4
v -0.1 2.6 -0.4
v -0.1 2.8 -0.4
v -0.1 3.3 -0.4
v -0.1 3.6 -0.4
v 7.45058e-009 0 -0.4
v 7.45058e-009 0.3 -0.4
v 7.45058e-009 0.5 -0.4
v 7.45058e-009 0.6 -0.4
v 7.45058e-009 1.1 -0.4
v 7.45058e-009 1.4 -0.4
v 7.45058e-009 1.6 -0.4
v 7.45058e-009 2.5 -0.4
v 7.45058e-009 2.8 -0.4
v 7.45058e-009 3.3 -0.4
v 7.45058e-009 3.6 -0.4
v 0.1 0 -0.4
v 0.1 0.3 -0.4
v 0.1 0.4 -0.4
v 0.1 0.6 -0.4
v 0.2 0 -0.4
v 0.2 0.3 -0.4
v 0.2 0.4 -0.4
v -0.1 0 0.5
v 7.45058e-009 0 0.5
v -0.3 0 0.4
v -0.2 0 0.4
v -0.1 0 0.4
v 7.45058e-009 0 0.4
v 0.2 0 0.4
v -0.4 0 0.3
v -0.3 0 0.3
v -0.2 0 0.3
v -0.1 0 0.3
v 0.2 0 0.3
v 0.3 0 0.3
v 0.3 0 0.2
v 0.4 0 0.2
v -0.4 0 0.1
v -0.3 0 0.1
v 0.4 0 0.1
v 0.5 0 0.1
v -0.4 0 1.49012e-008
v -0.3 0 1.49012e-008
v 0.4 0 1.49012e-008
v 0.5 0 1.49012e-008
v -0.4 0 -0.1
v -0.3 0 -0.1
v 0.3 0 -0.1
v 0.4 0 -0.1
v 0.5 0 -0.1
v -0.4 0 -0.2
v -0.3 0 -0.2
v 0.3 0 -0.2
v 0.4 0 -0.2
v 7.45058e-009 0 -0.3
v 0.1 0 -0.3
v 0.2 0 -0.3
v 0.3 0 -0.3
v -0.4 0 -0.4
v 7.45058e-009 0 -0.4
v 0.1 0 -0.4
v 0.2 0 -0.4
v 0.2 2.7 1.49012e-008
v 0.3 2.7 1.49012e-008
v 0.2 2.7 -0.1
v 0.3 2.7 -0.1
v 0.2 2.8 0.1
v 0.3 2.8 0.1
v 0.2 2.8 1.49012e-008
v 0.3 2.8 1.49012e-008
v 0.2 2.8 -0.1
v 0.3 2.8 -0.1
v 0.2 2.8 -0.2
v 0.3 2.8 -0.2
v 0.2 3.1 1.49012e-008
v 0.3 3.1 1.49012e-008
v 0.2 3.1 -0.1
v 0.3 3.1 -0.1
v -0.3 3.4 0.2
v -0.2 3.4 0.2
v -0.3 3.4 0.1
v -0.2 3.4 0.1
v -0.1 0.1 0.5
v 7.45058e-009 0.1 0.5
v -0.3 0.1 0.4
v -0.2 0.1 0.4
v -0.1 0.1 0.4
v 7.45058e-009 0.1 0.4
v 0.1 0.1 0.4
v 0.2 0.1 0.4
v -0.4 0.1 0.3
v -0.3 0.1 0.3
v -0.2 0.1 0.3
v 0.1 0.1 0.3
v 0.2 0.1 0.3
v -0.4 0.1 0.2
v -0.3 0.1 0.2
v 0.3 0.1 0.2
v 0.4 0.1 0.2
v 0.3 0.1 0.1
v 0.4 0.1 0.1
v 0.5 0.1 0.1
v 0.4 0.1 1.49012e-008
v 0.5 0.1 1.49012e-008
v 0.3 0.1 -0.1
v 0.4 0.1 -0.1
v 0.3 0.1 -0.2
v 0.4 0.1 -0.2
v 0.4 0.2 1.49012e-008
v 0.5 0.2 1.49012e-008
v 0.4 0.2 -0.1
v 0.5 0.2 -0.1
v 0.3 0.3 0.1
v 0.4 0.3 0.1
v 0.3 0.3 1.49012e-008
v 0.4 0.3 1.49012e-008
v -0.4 0.3 -0.3
v -0.3 0.3 -0.3
v -0.4 0.3 -0.4
v -0.3 0.3 -0.4
v 0.2 0.4 0.3
v 0.3 0.4 0.3
v 0.2 0.4 0.2
v 0.3 0.4 0.2
v 0.3 0.4 1.49012e-008
v 0.4 0.4 1.49012e-008
v 0.3 0.4 -0.1
v 0.4 0.4 -0.1
v 0.1 0.4 -0.3
v 0.2 0.4 -0.3
v 0.1 0.4 -0.4
v 0.2 0.4 -0.4
v -0.2 0.5 0.4
v -0.1 0.5 0.4
v -0.2 0.5 0.3
v -0.1 0.5 0.3
v 0.2 0.5 -0.2
v 0.3 0.5 -0.2
v 0.2 0.5 -0.3
v 0.3 0.5 -0.3
v 7.45058e-009 0.6 0.4
v 0.1 0.6 0.4
v -0.3 0.6 0.3
v -0.2 0.6 0.3
v 7.45058e-009 0.6 0.3
v 0.1 0.6 0.3
v -0.4 0.6 0.2
v -0.3 0.6 0.2
v -0.2 0.6 0.2
v -0.4 0.6 0.1
v -0.3 0.6 0.1
v -0.4 0.6 -0.2
v -0.3 0.6 -0.2
v -0.4 0.6 -0.3
v -0.3 0.6 -0.3
v -0.2 0.6 -0.3
v 7.45058e-009 0.6 -0.3
v 0.1 0.6 -0.3
v -0.3 0.6 -0.4
v -0.2 0.6 -0.4
v 7.45058e-009 0.6 -0.4
v 0.1 0.6 -0.4
v -0.1 0.7 0.4
v 7.45058e-009 0.7 0.4
v -0.1 0.7 0.3
v 7.45058e-009 0.7 0.3
v 0.1 0.7 0.3
v 0.2 0.7 0.3
v 0.1 0.7 0.2
v 0.2 0.7 0.2
v -0.4 0.7 0.1
v -0.3 0.7 0.1
v -0.4 0.7 1.49012e-008
v -0.3 0.7 1.49012e-008
v 0.2 0.7 -0.1
v 0.3 0.7 -0.1
v 0.1 0.7 -0.2
v 0.2 0.7 -0.2
v 0.3 0.7 -0.2
v 0.1 0.7 -0.3
v 0.2 0.7 -0.3
v -0.2 0.8 0.3
v -0.1 0.8 0.3
v -0.2 0.8 0.2
v -0.1 0.8 0.2
v 0.2 0.8 0.2
v 0.3 0.8 0.2
v 0.2 0.8 0.1
v 0.3 0.8 0.1
v -0.4 0.8 -0.1
v -0.3 0.8 -0.1
v -0.4 0.8 -0.2
v -0.3 0.8 -0.2
v -0.3 0.9 0.2
v -0.2 0.9 0.2
v -0.3 0.9 0.1
v -0.2 0.9 0.1
v 0.2 1.7 1.49012e-008
v 0.3 1.7 1.49012e-008
v 0.2 1.7 -0.1
v 0.3 1.7 -0.1
v -0.4 1.8 1.49012e-008
v -0.3 1.8 1.49012e-008
v -0.4 1.8 -0.1
v -0.3 1.8 -0.1
v 7.45058e-009 1.9 0.3
v 0.1 1.9 0.3
v 7.45058e-009 1.9 0.2
v 0.1 1.9 0.2
v 0.2 2.2 0.1
v 0.3 2.2 0.1
v 0.2 2.2 1.49012e-008
v 0.3 2.2 1.49012e-008
v -0.1 2.6 0.3
v 7.45058e-009 2.6 0.3
v -0.1 2.6 0.2
v 7.45058e-009 2.6 0.2
v 0.2 2.9 1.49012e-008
v 0.3 2.9 1.49012e-008
v 0.2 2.9 -0.1
v 0.3 2.9 -0.1
v 0.2 3.1 -0.1
v 0.3 3.1 -0.1
v 0.2 3.1 -0.2
v 0.3 3.1 -0.2
v 0.2 3.3 0.1
v 0.3 3.3 0.1
v 0.2 3.3 1.49012e-008
v 0.3 3.3 1.49012e-008
v 0.2 3.3 -0.1
v 0.3 3.3 -0.1
v -0.2 3.3 -0.3
v -0.1 3.3 -0.3
v -0.2 3.3 -0.4
v -0.1 3.3 -0.4
v -0.3 3.6 0.2
v -0.2 3.6 0.2
v 7.45058e-009 3.6 0.2
v 0.1 3.6 0.2
v 0.2 3.6 0.2
v -0.3 3.6 0.1
v -0.2 3.6 0.1
v 7.45058e-009 3.6 0.1
v 0.1 3.6 0.1
v 7.45058e-009 3.6 -0.2
v 0.1 3.6 -0.2
v 0.2 3.6 -0.2
v -0.3 3.6 -0.3
v -0.1 3.6 -0.3
v 7.45058e-009 3.6 -0.3
v 0.1 3.6 -0.3
v -0.1 3.6 -0.4
v 7.45058e-009 3.6 -0.4

# faces
f 7/1/1 2/1/1 1/1/1
f 8/1/1 2/1/1 7/1/1
f 9/1/1 6/1/1 5/1/1
f 10/1/1 6/1/1 9/1/1
f 11/1/1 2/1/1 8/1/1
f 12/2/1 3/2/1 2/2/1
f 12/1/1 2/1/1 11/1/1
f 13/4/1 12/4/1 11/4/1
f 14/2/1 3/2/1 12/2/1
f 14/4/1 12/4/1 13/4/1
f 15/4/1 5/4/1 4/4/1
f 15/1/1 9/1/1 5/1/1
f 16/1/1 9/1/1 15/1/1
f 17/2/1 3/2/1 14/2/1
f 18/1/1 4/1/1 3/1/1
f 18/2/1 3/2/1 17/2/1
f 19/4/1 15/4/1 4/4/1
f 19/1/1 4/1/1 18/1/1
f 20/4/1 15/4/1 19/4/1
f 20/2/1 19/2/1 18/2/1
f 21/4/1 15/4/1 20/4/1
f 22/2/1 20/2/1 18/2/1
f 23/2/1 20/2/1 22/2/1
f 24/1/1 23/1/1 22/1/1
f 25/1/1 23/1/1 24/1/1
f 28/1/1 27/1/1 26/1/1
f 29/1/1 27/1/1 28/1/1
f 33/1/1 30/1/1 29/1/1
f 34/1/1 33/1/1 29/1/1
f 35/1/1 33/1/1 34/1/1
f 38/1/1 32/1/1 31/1/1
f 39/1/1 32/1/1 38/1/1
f 40/1/1 36/1/1 35/1/1
f 42/1/1 40/1/1 35/1/1
f 43/4/1 41/4/1 40/4/1
f 43/1/1 40/1/1 42/1/1
f 44/4/1 41/4/1 43/4/1
f 46/1/1 38/1/1 37/1/1
f 47/4/1 43/4/1 42/4/1
f 48/1/1 44/1/1 43/1/1
f 48/4/1 43/4/1 47/4/1
f 49/1/1 44/1/1 48/1/1
f 50/4/1 49/4/1 48/4/1
f 51/4/1 46/4/1 45/4/1
f 52/1/1 38/1/1 46/1/1
f 52/4/1 46/4/1 51/4/1
f 53/4/1 50/4/1 48/4/1
f 54/4/1 50/4/1 53/4/1
f 55/1/1 38/1/1 52/1/1
f 55/1/1 52/1/1 51/1/1
f 56/1/1 38/1/1 55/1/1
f 57/1/1 55/1/1 51/1/1
f 58/4/1 56/4/1 55/4/1
f 58/1/1 55/1/1 57/1/1
f 59/2/1 54/2/1 53/2/1
f 60/3/1 58/3/1 57/3/1
f 61/2/1 59/2/1 53/2/1
f 62/1/1 60/1/1 59/1/1
f 62/2/1 59/2/1 61/2/1
f 63/3/1 58/3/1 60/3/1
f 63/1/1 60/1/1 62/1/1
f 64/4/1 56/4/1 58/4/1
f 64/3/1 58/3/1 63/3/1
f 65/4/1 56/4/1 64/4/1
f 66/1/1 63/1/1 62/1/1
f 66/1/1 62/1/1 61/1/1
f 67/1/1 63/1/1 66/1/1
f 68/1/1 65/1/1 64/1/1
f 68/4/1 64/4/1 63/4/1
f 69/1/1 65/1/1 68/1/1
f 70/4/1 67/4/1 66/4/1
f 71/1/1 63/1/1 67/1/1
f 71/4/1 67/4/1 70/4/1
f 72/4/1 68/4/1 63/4/1
f 72/1/1 63/1/1 71/1/1
f 72/1/1 71/1/1 70/1/1
f 73/2/1 69/2/1 68/2/1
f 73/4/1 68/4/1 72/4/1
f 74/1/1 72/1/1 70/1/1
f 74/1/1 73/1/1 72/1/1
f 75/1/1 73/1/1 74/1/1
f 76/3/1 75/3/1 74/3/1
f 76/1/1 73/1/1 75/1/1
f 77/1/1 73/1/1 76/1/1
f 78/2/1 69/2/1 73/2/1
f 78/1/1 73/1/1 77/1/1
f 79/2/1 69/2/1 78/2/1
f 80/4/1 77/4/1 76/4/1
f 80/3/1 76/3/1 74/3/1
f 81/1/1 78/1/1 77/1/1
f 81/4/1 77/4/1 80/4/1
f 82/3/1 80/3/1 74/3/1
f 82/1/1 81/1/1 80/1/1
f 83/1/1 78/1/1 81/1/1
f 83/1/1 81/1/1 82/1/1
f 84/4/1 79/4/1 78/4/1
f 84/1/1 78/1/1 83/1/1
f 85/4/1 79/4/1 84/4/1
f 86/3/1 82/3/1 74/3/1
f 87/2/1 83/2/1 82/2/1
f 87/3/1 82/3/1 86/3/1
f 89/1/1 87/1/1 86/1/1
f 90/2/1 83/2/1 87/2/1
f 90/1/1 87/1/1 89/1/1
f 91/1/1 84/1/1 83/1/1
f 91/2/1 83/2/1 90/2/1
f 91/1/1 85/1/1 84/1/1
f 92/1/1 89/1/1 88/1/1
f 93/2/1 90/2/1 89/2/1
f 93/1/1 89/1/1 92/1/1
f 94/1/1 91/1/1 90/1/1
f 94/2/1 90/2/1 93/2/1
f 95/2/1 93/2/1 92/2/1
f 96/1/1 94/1/1 93/1/1
f 96/2/1 93/2/1 95/2/1
f 97/1/1 85/1/1 91/1/1
f 97/1/1 94/1/1 96/1/1
f 97/1/1 91/1/1 94/1/1
f 100/2/1 99/2/1 98/2/1
f 101/2/1 99/2/1 100/2/1
f 106/2/1 103/2/1 102/2/1
f 107/2/1 103/2/1 106/2/1
f 110/1/1 109/1/1 108/1/1
f 111/4/1 105/4/1 104/4/1
f 112/1/1 110/1/1 108/1/1
f 113/1/1 110/1/1 112/1/1
f 114/4/1 105/4/1 111/4/1
f 115/4/1 105/4/1 114/4/1
f 116/1/1 115/1/1 114/1/1
f 117/1/1 115/1/1 116/1/1
f 118/4/1 113/4/1 112/4/1
f 119/4/1 117/4/1 116/4/1
f 120/4/1 118/4/1 112/4/1
f 121/4/1 118/4/1 120/4/1
f 122/4/1 117/4/1 119/4/1
f 123/2/1 121/2/1 120/2/1
f 124/2/1 123/2/1 120/2/1
f 125/2/1 124/2/1 120/2/1
f 126/2/1 124/2/1 125/2/1
f 127/4/1 117/4/1 122/4/1
f 128/4/1 117/4/1 127/4/1
f 129/1/1 128/1/1 127/1/1
f 130/1/1 126/1/1 125/1/1
f 131/1/1 126/1/1 130/1/1
f 132/1/1 128/1/1 129/1/1
f 133/4/1 131/4/1 130/4/1
f 134/4/1 131/4/1 133/4/1
f 135/1/1 128/1/1 132/1/1
f 136/1/1 128/1/1 135/1/1
f 137/1/1 134/1/1 133/1/1
f 138/1/1 134/1/1 137/1/1
f 141/1/1 140/1/1 139/1/1
f 142/1/1 140/1/1 141/1/1
f 145/4/1 144/4/1 143/4/1
f 146/4/1 144/4/1 145/4/1
f 149/4/1 148/4/1 147/4/1
f 150/4/1 149/4/1 147/4/1
f 151/4/1 149/4/1 150/4/1
f 152/1/1 151/1/1 150/1/1
f 153/1/1 151/1/1 152/1/1
f 154/3/1 153/3/1 152/3/1
f 155/3/1 154/3/1 152/3/1
f 156/3/1 154/3/1 155/3/1
f 157/2/1 156/2/1 155/2/1
f 158/2/1 156/2/1 157/2/1
f 161/1/1 160/1/1 159/1/1
f 162/1/1 160/1/1 161/1/1
f 163/1/2 164/1/2 165/1/2
f 165/1/2 164/1/2 166/1/2
f 167/4/2 168/4/2 171/4/2
f 171/4/2 168/4/2 172/4/2
f 169/1/2 170/1/2 173/1/2
f 173/1/2 170/1/2 174/1/2
f 173/2/2 174/2/2 175/2/2
f 175/2/2 174/2/2 176/2/2
f 175/1/2 176/1/2 177/1/2
f 177/1/2 176/1/2 178/1/2
f 177/3/2 178/3/2 179/3/2
f 180/3/2 181/3/2 182/3/2
f 180/3/2 182/3/2 183/3/2
f 180/3/2 183/3/2 184/3/2
f 184/3/2 183/3/2 185/3/2
f 179/3/2 178/3/2 186/3/2
f 186/3/2 178/3/2 187/3/2
f 184/2/2 185/2/2 188/2/2
f 188/2/2 185/2/2 189/2/2
f 186/1/2 187/1/2 190/1/2
f 190/1/2 187/1/2 191/1/2
f 190/4/2 191/4/2 192/4/2
f 192/4/2 191/4/2 193/4/2
f 193/4/2 191/4/2 194/4/2
f 193/1/2 194/1/2 195/1/2
f 195/1/2 194/1/2 196/1/2
f 197/1/2 198/1/2 201/1/2
f 201/1/2 198/1/2 202/1/2
f 199/4/2 200/4/2 203/4/2
f 203/4/2 200/4/2 204/4/2
f 205/1/2 206/1/2 209/1/2
f 205/1/2 209/1/2 210/1/2
f 210/1/2 209/1/2 211/1/2
f 210/3/2 211/3/2 212/3/2
f 210/3/2 212/3/2 213/3/2
f 213/3/2 212/3/2 214/3/2
f 207/1/2 208/1/2 215/1/2
f 215/1/2 208/1/2 216/1/2
f 213/4/2 214/4/2 217/4/2
f 217/4/2 214/4/2 218/4/2
f 215/2/2 216/2/2 219/2/2
f 219/2/2 216/2/2 220/2/2
f 220/2/2 216/2/2 221/2/2
f 220/1/2 221/1/2 222/1/2
f 222/1/2 221/1/2 223/1/2
f 222/4/2 223/4/2 224/4/2
f 224/4/2 223/4/2 225/4/2
f 225/4/2 223/4/2 226/4/2
f 226/4/2 223/4/2 227/4/2
f 228/1/2 229/1/2 232/1/2
f 232/1/2 229/1/2 233/1/2
f 230/4/2 231/4/2 234/4/2
f 234/4/2 231/4/2 235/4/2
f 234/1/2 235/1/2 238/1/2
f 238/1/2 235/1/2 239/1/2
f 236/1/2 237/1/2 242/1/2
f 242/1/2 237/1/2 243/1/2
f 240/1/2 241/1/2 245/1/2
f 245/1/2 241/1/2 246/1/2
f 247/1/2 248/1/2 249/1/2
f 249/1/2 248/1/2 250/1/2
f 249/2/2 250/2/2 251/2/2
f 249/2/2 251/2/2 252/2/2
f 249/2/2 252/2/2 253/2/2
f 253/2/2 252/2/2 254/2/2
f 244/1/2 245/1/2 256/1/2
f 253/3/2 254/3/2 257/3/2
f 255/4/2 256/4/2 258/4/2
f 253/3/2 257/3/2 259/3/2
f 259/3/2 257/3/2 260/3/2
f 258/4/2 256/4/2 261/4/2
f 261/4/2 256/4/2 262/4/2
f 260/1/2 261/1/2 262/1/2
f 256/1/2 245/1/2 263/1/2
f 262/4/2 256/4/2 263/4/2
f 260/1/2 262/1/2 264/1/2
f 262/2/2 263/2/2 264/2/2
f 263/1/2 245/1/2 265/1/2
f 264/2/2 263/2/2 265/2/2
f 265/1/2 245/1/2 266/1/2
f 259/4/2 260/4/2 267/4/2
f 260/1/2 264/1/2 267/1/2
f 267/1/2 264/1/2 268/1/2
f 265/4/2 266/4/2 269/4/2
f 269/4/2 266/4/2 270/4/2
f 271/4/2 272/4/2 273/4/2
f 273/4/2 272/4/2 274/4/2
f 259/4/2 267/4/2 276/4/2
f 276/4/2 267/4/2 277/4/2
f 274/4/2 275/4/2 279/4/2
f 277/1/2 278/1/2 280/1/2
f 278/4/2 279/4/2 280/4/2
f 276/1/2 277/1/2 280/1/2
f 279/4/2 275/4/2 281/4/2
f 280/4/2 279/4/2 281/4/2
f 276/1/2 280/1/2 282/1/2
f 280/1/2 281/1/2 282/1/2
f 282/1/2 281/1/2 283/1/2
f 284/1/2 285/1/2 288/1/2
f 288/1/2 285/1/2 289/1/2
f 286/1/2 287/1/2 292/1/2
f 291/4/2 292/4/2 293/4/2
f 292/1/2 287/1/2 294/1/2
f 293/4/2 292/4/2 294/4/2
f 288/4/2 289/4/2 295/4/2
f 289/1/2 290/1/2 296/1/2
f 295/4/2 289/4/2 296/4/2
f 296/1/2 290/1/2 297/1/2
f 295/1/2 296/1/2 299/1/2
f 296/1/2 297/1/2 299/1/2
f 299/1/2 297/1/2 300/1/2
f 297/4/2 298/4/2 301/4/2
f 293/1/2 294/1/2 302/1/2
f 297/4/2 301/4/2 303/4/2
f 300/1/2 297/1/2 303/1/2
f 301/1/2 302/1/2 304/1/2
f 303/4/2 301/4/2 304/4/2
f 294/1/2 287/1/2 305/1/2
f 304/1/2 302/1/2 305/1/2
f 302/1/2 294/1/2 305/1/2
f 305/1/2 287/1/2 306/1/2
f 303/1/2 304/1/2 307/1/2
f 300/1/2 303/1/2 307/1/2
f 304/1/2 305/1/2 307/1/2
f 307/1/2 305/1/2 308/1/2
f 307/2/2 308/2/2 309/2/2
f 308/1/2 305/1/2 309/1/2
f 309/1/2 305/1/2 310/1/2
f 310/1/2 305/1/2 311/1/2
f 300/1/2 307/1/2 312/1/2
f 307/2/2 309/2/2 313/2/2
f 312/1/2 307/1/2 313/1/2
f 313/2/2 309/2/2 314/2/2
f 309/4/2 310/4/2 315/4/2
f 314/2/2 309/2/2 315/2/2
f 314/1/2 315/1/2 316/1/2
f 315/4/2 310/4/2 317/4/2
f 316/1/2 315/1/2 317/1/2
f 316/4/2 317/4/2 318/4/2
f 317/4/2 310/4/2 318/4/2
f 318/4/2 310/4/2 319/4/2
f 316/4/2 318/4/2 320/4/2
f 320/4/2 318/4/2 321/4/2
f 320/1/2 321/1/2 322/1/2
f 322/1/2 321/1/2 323/1/2
f 324/1/2 325/1/2 327/1/2
f 327/1/2 325/1/2 328/1/2
f 327/4/2 328/4/2 330/4/2
f 328/4/2 329/4/2 330/4/2
f 326/1/2 327/1/2 330/1/2
f 330/4/2 329/4/2 331/4/2
f 326/1/2 330/1/2 332/1/2
f 331/4/2 329/4/2 333/4/2
f 333/4/2 329/4/2 334/4/2
f 326/1/2 332/1/2 335/1/2
f 332/4/2 333/4/2 336/4/2
f 335/1/2 332/1/2 336/1/2
f 336/4/2 333/4/2 337/4/2
f 338/1/2 339/1/2 342/1/2
f 342/1/2 339/1/2 343/1/2
f 340/4/2 341/4/2 345/4/2
f 345/4/2 341/4/2 346/4/2
f 343/4/2 344/4/2 347/4/2
f 343/4/2 347/4/2 349/4/2
f 347/1/2 348/1/2 350/1/2
f 349/4/2 347/4/2 350/4/2
f 350/1/2 348/1/2 351/1/2
f 351/1/2 348/1/2 352/1/2
f 353/4/2 354/4/2 356/4/2
f 354/1/2 355/1/2 357/1/2
f 356/4/2 354/4/2 357/4/2
f 357/1/2 355/1/2 358/1/2
f 358/1/2 355/1/2 359/1/2
f 362/1/3 361/1/3 360/1/3
f 363/1/3 361/1/3 362/1/3
f 366/1/3 365/1/3 364/1/3
f 367/1/3 365/1/3 366/1/3
f 369/2/3 367/2/3 366/2/3
f 369/2/3 368/2/3 367/2/3
f 370/2/3 368/2/3 369/2/3
f 371/2/3 368/2/3 370/2/3
f 372/2/3 368/2/3 371/2/3
f 375/1/3 371/1/3 370/1/3
f 376/4/3 373/4/3 372/4/3
f 376/4/3 372/4/3 371/4/3
f 376/1/3 371/1/3 375/1/3
f 377/4/3 373/4/3 376/4/3
f 378/4/3 373/4/3 377/4/3
f 379/1/3 375/1/3 374/1/3
f 379/1/3 376/1/3 375/1/3
f 379/1/3 377/1/3 376/1/3
f 380/1/3 377/1/3 379/1/3
f 381/1/3 379/1/3 374/1/3
f 382/1/3 379/1/3 381/1/3
f 385/1/3 384/1/3 383/1/3
f 386/1/3 384/1/3 385/1/3
f 388/1/3 387/1/3 386/1/3
f 389/1/3 387/1/3 388/1/3
f 390/1/3 387/1/3 389/1/3
f 392/2/3 391/2/3 390/2/3
f 392/2/3 390/2/3 389/2/3
f 393/2/3 391/2/3 392/2/3
f 394/2/3 391/2/3 393/2/3
f 400/4/3 394/4/3 393/4/3
f 400/4/3 395/4/3 394/4/3
f 401/1/3 396/1/3 395/1/3
f 401/4/3 395/4/3 400/4/3
f 402/3/3 397/3/3 396/3/3
f 402/1/3 396/1/3 401/1/3
f 403/3/3 397/3/3 402/3/3
f 404/3/3 397/3/3 403/3/3
f 405/2/3 398/2/3 397/2/3
f 405/3/3 397/3/3 404/3/3
f 406/2/3 398/2/3 405/2/3
f 408/1/3 401/1/3 400/1/3
f 408/1/3 400/1/3 399/1/3
f 409/1/3 401/1/3 408/1/3
f 410/3/3 403/3/3 402/3/3
f 410/1/3 401/1/3 409/1/3
f 410/3/3 402/3/3 401/3/3
f 411/4/3 404/4/3 403/4/3
f 411/3/3 403/3/3 410/3/3
f 412/4/3 404/4/3 411/4/3
f 414/1/3 409/1/3 408/1/3
f 414/1/3 408/1/3 407/1/3
f 415/1/3 409/1/3 414/1/3
f 416/1/3 409/1/3 415/1/3
f 417/1/3 409/1/3 416/1/3
f 418/1/3 414/1/3 413/1/3
f 419/4/3 415/4/3 414/4/3
f 419/1/3 414/1/3 418/1/3
f 420/1/3 416/1/3 415/1/3
f 420/4/3 415/4/3 419/4/3
f 421/1/3 416/1/3 420/1/3
f 425/1/3 423/1/3 422/1/3
f 426/4/3 424/4/3 423/4/3
f 426/1/3 423/1/3 425/1/3
f 427/4/3 424/4/3 426/4/3
f 433/1/3 428/1/3 427/1/3
f 434/4/3 429/4/3 428/4/3
f 434/1/3 428/1/3 433/1/3
f 435/4/3 429/4/3 434/4/3
f 441/1/3 431/1/3 430/1/3
f 442/2/3 432/2/3 431/2/3
f 442/1/3 431/1/3 441/1/3
f 443/2/3 432/2/3 442/2/3
f 444/1/3 435/1/3 434/1/3
f 444/1/3 436/1/3 435/1/3
f 445/4/3 437/4/3 436/4/3
f 445/1/3 436/1/3 444/1/3
f 446/4/3 437/4/3 445/4/3
f 447/4/3 437/4/3 446/4/3
f 448/2/3 438/2/3 437/2/3
f 448/4/3 437/4/3 447/4/3
f 449/2/3 438/2/3 448/2/3
f 450/1/3 439/1/3 438/1/3
f 450/2/3 438/2/3 449/2/3
f 451/1/3 439/1/3 450/1/3
f 452/4/3 440/4/3 439/4/3
f 452/1/3 439/1/3 451/1/3
f 453/1/3 441/1/3 440/1/3
f 453/4/3 440/4/3 452/4/3
f 454/2/3 442/2/3 441/2/3
f 454/1/3 441/1/3 453/1/3
f 455/1/3 443/1/3 442/1/3
f 455/2/3 442/2/3 454/2/3
f 460/2/3 451/2/3 450/2/3
f 461/4/3 452/4/3 451/4/3
f 461/2/3 451/2/3 460/2/3
f 462/1/3 454/1/3 453/1/3
f 462/4/3 452/4/3 461/4/3
f 462/1/3 453/1/3 452/1/3
f 462/1/3 455/1/3 454/1/3
f 463/1/3 455/1/3 462/1/3
f 464/1/3 443/1/3 455/1/3
f 464/1/3 455/1/3 463/1/3
f 470/4/3 457/4/3 456/4/3
f 471/1/3 458/1/3 457/1/3
f 471/4/3 457/4/3 470/4/3
f 472/1/3 458/1/3 471/1/3
f 473/2/3 459/2/3 458/2/3
f 473/1/3 458/1/3 472/1/3
f 474/1/3 460/1/3 459/1/3
f 474/2/3 459/2/3 473/2/3
f 475/3/3 461/3/3 460/3/3
f 475/1/3 460/1/3 474/1/3
f 475/3/3 463/3/3 462/3/3
f 475/3/3 462/3/3 461/3/3
f 476/4/3 464/4/3 463/4/3
f 476/3/3 463/3/3 475/3/3
f 477/4/3 464/4/3 476/4/3
f 479/1/3 466/1/3 465/1/3
f 480/1/3 466/1/3 479/1/3
f 481/2/3 467/2/3 466/2/3
f 481/1/3 466/1/3 480/1/3
f 481/2/3 468/2/3 467/2/3
f 482/3/3 472/3/3 471/3/3
f 482/2/3 468/2/3 481/2/3
f 482/3/3 471/3/3 470/3/3
f 482/3/3 470/3/3 469/3/3
f 482/3/3 469/3/3 468/3/3
f 483/4/3 473/4/3 472/4/3
f 483/3/3 472/3/3 482/3/3
f 483/4/3 474/4/3 473/4/3
f 483/4/3 476/4/3 475/4/3
f 483/4/3 475/4/3 474/4/3
f 484/1/3 477/1/3 476/1/3
f 484/4/3 476/4/3 483/4/3
f 485/1/3 477/1/3 484/1/3
f 488/1/3 479/1/3 478/1/3
f 488/1/3 480/1/3 479/1/3
f 489/1/3 480/1/3 488/1/3
f 490/1/3 487/1/3 486/1/3
f 491/1/3 487/1/3 490/1/3
f 494/2/3 493/2/3 492/2/3
f 495/2/3 493/2/3 494/2/3
f 504/4/3 497/4/3 496/4/3
f 505/2/3 498/2/3 497/2/3
f 505/4/3 497/4/3 504/4/3
f 506/2/3 498/2/3 505/2/3
f 507/1/3 499/1/3 498/1/3
f 507/2/3 498/2/3 506/2/3
f 508/4/3 500/4/3 499/4/3
f 508/1/3 499/1/3 507/1/3
f 509/1/3 501/1/3 500/1/3
f 509/4/3 500/4/3 508/4/3
f 510/3/3 502/3/3 501/3/3
f 510/1/3 501/1/3 509/1/3
f 511/3/3 502/3/3 510/3/3
f 512/3/3 502/3/3 511/3/3
f 513/1/3 503/1/3 502/1/3
f 513/3/3 502/3/3 512/3/3
f 514/1/3 503/1/3 513/1/3
f 526/2/3 516/2/3 515/2/3
f 526/2/3 517/2/3 516/2/3
f 527/1/3 518/1/3 517/1/3
f 527/2/3 517/2/3 526/2/3
f 528/4/3 519/4/3 518/4/3
f 528/1/3 518/1/3 527/1/3
f 528/4/3 520/4/3 519/4/3
f 529/1/3 521/1/3 520/1/3
f 529/4/3 520/4/3 528/4/3
f 530/1/3 521/1/3 529/1/3
f 531/1/3 523/1/3 522/1/3
f 532/1/3 523/1/3 531/1/3
f 534/4/3 525/4/3 524/4/3
f 535/4/3 525/4/3 534/4/3
f 536/4/3 534/4/3 533/4/3
f 537/4/3 534/4/3 536/4/3
f 541/2/3 539/2/3 538/2/3
f 542/2/3 539/2/3 541/2/3
f 543/2/3 539/2/3 542/2/3
f 544/1/3 540/1/3 539/1/3
f 544/2/3 539/2/3 543/2/3
f 545/1/3 540/1/3 544/1/3
f 546/1/3 540/1/3 545/1/3
f 551/1/3 548/1/3 547/1/3
f 552/1/3 548/1/3 551/1/3
f 555/1/3 550/1/3 549/1/3
f 556/1/3 550/1/3 555/1/3
f 557/1/3 554/1/3 553/1/3
f 558/1/3 554/1/3 557/1/3
f 561/4/3 560/4/3 559/4/3
f 562/4/3 560/4/3 561/4/3
f 563/4/4 564/4/4 568/4/4
f 564/1/4 565/1/4 569/1/4
f 568/4/4 564/4/4 569/4/4
f 569/1/4 565/1/4 570/1/4
f 566/1/4 567/1/4 571/1/4
f 571/1/4 567/1/4 572/1/4
f 573/2/4 574/2/4 576/2/4
f 574/1/4 575/1/4 577/1/4
f 576/2/4 574/2/4 577/2/4
f 577/1/4 575/1/4 578/1/4
f 578/1/4 575/1/4 579/1/4
f 580/4/4 581/4/4 589/4/4
f 589/4/4 581/4/4 590/4/4
f 582/1/4 583/1/4 591/1/4
f 591/1/4 583/1/4 592/1/4
f 584/4/4 585/4/4 593/4/4
f 593/4/4 585/4/4 594/4/4
f 587/1/4 588/1/4 596/1/4
f 586/1/4 587/1/4 596/1/4
f 596/1/4 588/1/4 597/1/4
f 597/1/4 588/1/4 598/1/4
f 595/1/4 596/1/4 599/1/4
f 596/1/4 597/1/4 599/1/4
f 599/1/4 597/1/4 600/1/4
f 601/4/4 602/4/4 603/4/4
f 603/4/4 602/4/4 604/4/4
f 605/1/4 606/1/4 614/1/4
f 606/1/4 607/1/4 614/1/4
f 607/4/4 608/4/4 615/4/4
f 614/1/4 607/1/4 615/1/4
f 608/1/4 609/1/4 616/1/4
f 615/4/4 608/4/4 616/4/4
f 609/1/4 610/1/4 616/1/4
f 610/4/4 611/4/4 617/4/4
f 616/1/4 610/1/4 617/1/4
f 611/1/4 612/1/4 618/1/4
f 617/4/4 611/4/4 618/4/4
f 618/1/4 612/1/4 619/1/4
f 613/1/4 614/1/4 622/1/4
f 622/1/4 614/1/4 623/1/4
f 616/4/4 617/4/4 624/4/4
f 624/4/4 617/4/4 625/4/4
f 620/4/4 621/4/4 626/4/4
f 626/4/4 621/4/4 627/4/4
f 628/1/4 629/1/4 630/1/4
f 630/1/4 629/1/4 631/1/4
f 631/1/4 632/1/4 638/1/4
f 632/4/4 633/4/4 639/4/4
f 638/1/4 632/1/4 639/1/4
f 639/4/4 633/4/4 640/4/4
f 640/4/4 633/4/4 641/4/4
f 633/1/4 634/1/4 642/1/4
f 641/4/4 633/4/4 642/4/4
f 634/2/4 635/2/4 643/2/4
f 642/1/4 634/1/4 643/1/4
f 643/2/4 635/2/4 644/2/4
f 635/4/4 636/4/4 645/4/4
f 644/2/4 635/2/4 645/2/4
f 636/1/4 637/1/4 646/1/4
f 645/4/4 636/4/4 646/4/4
f 646/1/4 637/1/4 647/1/4
f 647/1/4 637/1/4 648/1/4
f 648/1/4 637/1/4 649/1/4
f 650/1/4 651/1/4 661/1/4
f 651/1/4 652/1/4 661/1/4
f 652/1/4 653/1/4 661/1/4
f 653/1/4 654/1/4 661/1/4
f 661/1/4 654/1/4 662/1/4
f 655/2/4 656/2/4 663/2/4
f 662/1/4 654/1/4 663/1/4
f 654/2/4 655/2/4 663/2/4
f 656/1/4 657/1/4 664/1/4
f 663/2/4 656/2/4 664/2/4
f 658/4/4 659/4/4 665/4/4
f 664/1/4 657/1/4 665/1/4
f 657/4/4 658/4/4 665/4/4
f 665/4/4 659/4/4 666/4/4
f 660/1/4 661/1/4 669/1/4
f 661/1/4 662/1/4 669/1/4
f 669/1/4 662/1/4 670/1/4
f 670/1/4 662/1/4 671/1/4
f 667/1/4 668/1/4 672/1/4
f 668/1/4 669/1/4 672/1/4
f 669/1/4 670/1/4 672/1/4
f 672/1/4 670/1/4 673/1/4
f 674/1/4 675/1/4 676/1/4
f 676/1/4 675/1/4 677/1/4
f 677/1/4 675/1/4 678/1/4
f 674/1/4 676/1/4 680/1/4
f 676/4/4 677/4/4 680/4/4
f 678/1/4 679/1/4 681/1/4
f 680/4/4 677/4/4 681/4/4
f 677/1/4 678/1/4 681/1/4
f 681/1/4 679/1/4 682/1/4
f 680/1/4 681/1/4 687/1/4
f 681/1/4 682/1/4 687/1/4
f 687/1/4 682/1/4 688/1/4
f 682/4/4 683/4/4 689/4/4
f 688/1/4 682/1/4 689/1/4
f 689/4/4 683/4/4 690/4/4
f 683/1/4 684/1/4 691/1/4
f 690/4/4 683/4/4 691/4/4
f 691/1/4 684/1/4 692/1/4
f 692/1/4 684/1/4 693/1/4
f 684/4/4 685/4/4 694/4/4
f 693/1/4 684/1/4 694/1/4
f 694/4/4 685/4/4 695/4/4
f 685/1/4 686/1/4 696/1/4
f 695/4/4 685/4/4 696/4/4
f 696/1/4 686/1/4 697/1/4
f 697/1/4 686/1/4 698/1/4
f 674/1/4 680/1/4 700/1/4
f 680/1/4 687/1/4 700/1/4
f 687/4/4 688/4/4 701/4/4
f 700/1/4 687/1/4 701/1/4
f 689/1/4 690/1/4 702/1/4
f 701/4/4 688/4/4 702/4/4
f 688/1/4 689/1/4 702/1/4
f 702/1/4 690/1/4 703/1/4
f 690/2/4 691/2/4 704/2/4
f 703/1/4 690/1/4 704/1/4
f 691/2/4 692/2/4 704/2/4
f 692/1/4 693/1/4 705/1/4
f 704/2/4 692/2/4 705/2/4
f 694/3/4 695/3/4 706/3/4
f 705/1/4 693/1/4 706/1/4
f 693/3/4 694/3/4 706/3/4
f 696/1/4 697/1/4 707/1/4
f 706/3/4 695/3/4 707/3/4
f 695/1/4 696/1/4 707/1/4
f 697/4/4 698/4/4 708/4/4
f 707/1/4 697/1/4 708/1/4
f 698/1/4 699/1/4 709/1/4
f 708/4/4 698/4/4 709/4/4
f 709/1/4 699/1/4 710/1/4
f 700/3/4 701/3/4 711/3/4
f 701/4/4 702/4/4 712/4/4
f 711/3/4 701/3/4 712/3/4
f 702/4/4 703/4/4 712/4/4
f 712/4/4 703/4/4 713/4/4
f 713/4/4 703/4/4 714/4/4
f 711/4/4 712/4/4 715/4/4
f 712/1/4 713/1/4 716/1/4
f 715/4/4 712/4/4 716/4/4
f 716/1/4 713/1/4 717/1/4
f 722/1/5 719/1/5 718/1/5
f 723/1/5 719/1/5 722/1/5
f 726/1/5 721/1/5 720/1/5
f 727/2/5 722/2/5 721/2/5
f 727/1/5 721/1/5 726/1/5
f 728/1/5 724/1/5 723/1/5
f 728/2/5 722/2/5 727/2/5
f 728/1/5 723/1/5 722/1/5
f 729/1/5 724/1/5 728/1/5
f 731/1/5 727/1/5 726/1/5
f 731/1/5 730/1/5 729/1/5
f 731/1/5 729/1/5 728/1/5
f 731/1/5 728/1/5 727/1/5
f 731/1/5 726/1/5 725/1/5
f 733/1/5 731/1/5 725/1/5
f 733/1/5 732/1/5 731/1/5
f 734/1/5 732/1/5 733/1/5
f 735/1/5 732/1/5 734/1/5
f 737/2/5 734/2/5 733/2/5
f 738/1/5 735/1/5 734/1/5
f 738/2/5 734/2/5 737/2/5
f 739/4/5 736/4/5 735/4/5
f 739/1/5 735/1/5 738/1/5
f 740/4/5 736/4/5 739/4/5
f 741/1/5 738/1/5 737/1/5
f 741/1/5 739/1/5 738/1/5
f 741/1/5 740/1/5 739/1/5
f 742/1/5 740/1/5 741/1/5
f 743/1/5 740/1/5 742/1/5
f 744/1/5 740/1/5 743/1/5
f 745/1/5 740/1/5 744/1/5
f 746/4/5 742/4/5 741/4/5
f 747/1/5 743/1/5 742/1/5
f 747/4/5 742/4/5 746/4/5
f 748/4/5 744/4/5 743/4/5
f 748/1/5 743/1/5 747/1/5
f 749/4/5 744/4/5 748/4/5
f 750/1/5 747/1/5 746/1/5
f 750/1/5 748/1/5 747/1/5
f 751/1/5 748/1/5 750/1/5
f 752/1/5 748/1/5 751/1/5
f 753/1/5 748/1/5 752/1/5
f 754/1/5 750/1/5 746/1/5
f 755/3/5 751/3/5 750/3/5
f 755/1/5 750/1/5 754/1/5
f 756/4/5 752/4/5 751/4/5
f 756/3/5 751/3/5 755/3/5
f 757/4/5 752/4/5 756/4/5
f 760/1/5 759/1/5 758/1/5
f 761/1/5 759/1/5 760/1/5
f 764/1/5 763/1/5 762/1/5
f 765/1/5 763/1/5 764/1/5
f 768/4/5 767/4/5 766/4/5
f 769/4/5 767/4/5 768/4/5
f 772/4/5 771/4/5 770/4/5
f 773/4/5 771/4/5 772/4/5
f 776/1/5 775/1/5 774/1/5
f 777/1/5 775/1/5 776/1/5
f 778/1/6 779/1/6 782/1/6
f 782/1/6 779/1/6 783/1/6
f 780/1/6 781/1/6 787/1/6
f 787/1/6 781/1/6 788/1/6
f 784/1/6 785/1/6 789/1/6
f 789/1/6 785/1/6 790/1/6
f 786/1/6 787/1/6 791/1/6
f 791/1/6 787/1/6 792/1/6
f 793/1/6 794/1/6 795/1/6
f 795/1/6 794/1/6 796/1/6
f 796/4/6 797/4/6 798/4/6
f 798/4/6 797/4/6 799/4/6
f 800/4/6 801/4/6 802/4/6
f 802/4/6 801/4/6 803/4/6
f 804/1/6 805/1/6 806/1/6
f 806/1/6 805/1/6 807/1/6
f 808/4/6 809/4/6 810/4/6
f 810/4/6 809/4/6 811/4/6
f 812/1/6 813/1/6 814/1/6
f 814/1/6 813/1/6 815/1/6
f 816/1/6 817/1/6 818/1/6
f 818/1/6 817/1/6 819/1/6
f 820/1/6 821/1/6 822/1/6
f 822/1/6 821/1/6 823/1/6
f 824/1/6 825/1/6 826/1/6
f 826/1/6 825/1/6 827/1/6
f 828/2/6 829/2/6 830/2/6
f 830/2/6 829/2/6 831/2/6
f 832/1/6 833/1/6 834/1/6
f 834/1/6 833/1/6 835/1/6
f 836/1/6 837/1/6 840/1/6
f 840/1/6 837/1/6 841/1/6
f 838/1/6 839/1/6 843/1/6
f 843/1/6 839/1/6 844/1/6
f 842/4/6 843/4/6 845/4/6
f 845/4/6 843/4/6 846/4/6
f 847/1/6 848/1/6 849/1/6
f 849/1/6 848/1/6 850/1/6
f 850/1/6 851/1/6 854/1/6
f 854/1/6 851/1/6 855/1/6
f 852/4/6 853/4/6 856/4/6
f 856/4/6 853/4/6 857/4/6
f 858/4/6 859/4/6 860/4/6
f 860/4/6 859/4/6 861/4/6
f 862/1/6 863/1/6 864/1/6
f 864/1/6 863/1/6 865/1/6
f 866/2/6 867/2/6 868/2/6
f 868/2/6 867/2/6 869/2/6
f 870/1/6 871/1/6 873/1/6
f 873/1/6 871/1/6 874/1/6
f 872/1/6 873/1/6 875/1/6
f 875/1/6 873/1/6 876/1/6
f 877/2/6 878/2/6 879/2/6
f 879/2/6 878/2/6 880/2/6
f 881/1/6 882/1/6 883/1/6
f 883/1/6 882/1/6 884/1/6
f 885/4/6 886/4/6 887/4/6
f 887/4/6 886/4/6 888/4/6
f 889/4/6 890/4/6 891/4/6
f 891/4/6 890/4/6 892/4/6
f 893/4/6 894/4/6 895/4/6
f 895/4/6 894/4/6 896/4/6
f 897/1/6 898/1/6 899/1/6
f 899/1/6 898/1/6 900/1/6
f 901/4/6 902/4/6 903/4/6
f 903/4/6 902/4/6 904/4/6
f 905/1/6 906/1/6 907/1/6
f 907/1/6 906/1/6 908/1/6
f 909/2/6 910/2/6 911/2/6
f 911/2/6 910/2/6 912/2/6
f 913/4/6 914/4/6 915/4/6
f 915/4/6 914/4/6 916/4/6
f 917/4/6 918/4/6 919/4/6
f 919/4/6 918/4/6 920/4/6
f 921/1/6 922/1/6 923/1/6
f 923/1/6 922/1/6 924/1/6
f 923/4/6 924/4/6 925/4/6
f 925/4/6 924/4/6 926/4/6
f 927/1/6 928/1/6 929/1/6
f 929/1/6 928/1/6 930/1/6
f 931/2/6 932/2/6 936/2/6
f 932/1/6 933/1/6 937/1/6
f 936/2/6 932/2/6 937/2/6
f 933/4/6 934/4/6 938/4/6
f 937/1/6 933/1/6 938/1/6
f 934/1/6 935/1/6 939/1/6
f 938/4/6 934/4/6 939/4/6
f 937/1/6 938/1/6 940/1/6
f 936/1/6 937/1/6 940/1/6
f 938/1/6 939/1/6 940/1/6
f 939/1/6 935/1/6 941/1/6
f 940/1/6 939/1/6 941/1/6
f 941/1/6 935/1/6 942/1/6
f 936/1/6 940/1/6 943/1/6
f 943/1/6 940/1/6 944/1/6
f 940/4/6 941/4/6 945/4/6
f 944/1/6 940/1/6 945/1/6
f 945/4/6 941/4/6 946/4/6
f 944/1/6 945/1/6 947/1/6
f 947/1/6 945/1/6 948/1/6
