# MagicaVoxel @ Ephtracy

# group
o trunk

# material
mtllib tree-small-variant-1-trunk.mtl
usemtl palette

# normals
vn -1 0 0
vn 1 0 0
vn 0 0 1
vn 0 0 -1
vn 0 -1 0
vn 0 1 0

# texcoords
vt 0.267578 0.5
vt 0.271484 0.5

# verts
v -0.3 0 -7.45058e-009
v -0.3 0 -0.1
v -0.3 0.1 -7.45058e-009
v -0.3 0.1 -0.1
v -0.2 0 0.2
v -0.2 0 -7.45058e-009
v -0.2 0 -0.1
v -0.2 0 -0.4
v -0.2 0.1 0.2
v -0.2 0.1 0.1
v -0.2 0.1 -7.45058e-009
v -0.2 0.1 -0.1
v -0.2 0.1 -0.2
v -0.2 0.1 -0.4
v -0.2 0.2 0.1
v -0.2 0.2 -0.2
v -0.1 0.2 0.1
v -0.1 0.2 -7.45058e-009
v -0.1 0.2 -0.2
v -0.1 0.4 -7.45058e-009
v -0.1 0.4 -0.1
v -0.1 0.4 -0.2
v -0.1 0.5 0.1
v -0.1 0.5 -7.45058e-009
v -0.1 0.7 -7.45058e-009
v -0.1 0.7 -0.1
v -0.1 0.9 -7.45058e-009
v -0.1 0.9 -0.1
v -0.1 1 0.1
v -0.1 1 -7.45058e-009
v -0.1 1.1 -7.45058e-009
v -0.1 1.1 -0.1
v -0.1 1.5 0.1
v -0.1 1.5 -7.45058e-009
v -0.1 2 0.1
v -0.1 2 -0.1
v 0 0 0.4
v 0 0 0.3
v 0 0 0.2
v 0 0.1 0.4
v 0 0.1 0.3
v 0 0.1 0.2
v 0 0.1 0.1
v 0 0.2 0.1
v 0 0.3 0.2
v 0 0.3 0.1
v 0 0.5 0.1
v 0 0.6 0.2
v 0 0.6 0.1
v 0 0.9 0.2
v 0 0.9 0.1
v 0.1 0 -0.2
v 0.1 0 -0.3
v 0.1 0.1 -0.2
v 0.1 0.1 -0.3
v -0.1 0 -0.3
v -0.1 0 -0.4
v -0.1 0.1 -0.3
v -0.1 0.1 -0.4
v 0 0 -0.2
v 0 0 -0.3
v 0 0.1 -0.1
v 0 0.1 -0.2
v 0 0.1 -0.3
v 0 0.4 -0.1
v 0 0.4 -0.2
v 0.1 0 0.4
v 0.1 0 0.3
v 0.1 0.1 0.4
v 0.1 0.1 0.3
v 0.1 0.2 0.2
v 0.1 0.2 0.1
v 0.1 0.3 0.2
v 0.1 0.3 0.1
v 0.1 0.4 0.1
v 0.1 0.4 -7.45058e-009
v 0.1 0.4 -0.1
v 0.1 0.6 0.2
v 0.1 0.6 0.1
v 0.1 0.6 -7.45058e-009
v 0.1 0.6 -0.1
v 0.1 0.9 0.2
v 0.1 0.9 0.1
v 0.1 0.9 -7.45058e-009
v 0.1 0.9 -0.1
v 0.1 1.7 0.1
v 0.1 1.7 -7.45058e-009
v 0.1 1.8 -7.45058e-009
v 0.1 1.8 -0.1
v 0.1 1.9 0.1
v 0.1 1.9 -7.45058e-009
v 0.1 2 0.1
v 0.1 2 -0.1
v 0.2 0 0.3
v 0.2 0 0.2
v 0.2 0 0.1
v 0.2 0 -0.1
v 0.2 0 -0.2
v 0.2 0.1 0.3
v 0.2 0.1 0.2
v 0.2 0.1 0.1
v 0.2 0.1 -0.1
v 0.2 0.1 -0.2
v 0.2 0.2 0.2
v 0.2 0.2 0.1
v 0.2 0.2 -0.1
v 0.2 0.3 0.1
v 0.2 0.3 -7.45058e-009
v 0.2 0.4 0.1
v 0.2 0.4 -7.45058e-009
v 0.2 0.4 -0.1
v 0.2 0.6 0.1
v 0.2 0.6 -7.45058e-009
v 0.3 0 -7.45058e-009
v 0.3 0 -0.1
v 0.3 0 -0.2
v 0.3 0 -0.3
v 0.3 0.1 0.1
v 0.3 0.1 -7.45058e-009
v 0.3 0.1 -0.2
v 0.3 0.1 -0.3
v 0.3 0.2 0.1
v 0.3 0.2 -0.1
v 0.4 0 0.1
v 0.4 0 -7.45058e-009
v 0.4 0.1 0.1
v 0.4 0.1 -7.45058e-009
v 0 0 0.4
v 0 0.1 0.4
v 0.1 0 0.4
v 0.1 0.1 0.4
v 0.1 0 0.3
v 0.1 0.1 0.3
v 0.2 0 0.3
v 0.2 0.1 0.3
v -0.2 0 0.2
v -0.2 0.1 0.2
v -0.1 0 0.2
v -0.1 0.1 0.2
v 0 0 0.2
v 0 0.1 0.2
v 0 0.3 0.2
v 0 0.6 0.2
v 0 0.9 0.2
v 0.1 0.1 0.2
v 0.1 0.2 0.2
v 0.1 0.3 0.2
v 0.1 0.6 0.2
v 0.1 0.9 0.2
v 0.2 0.1 0.2
v 0.2 0.2 0.2
v -0.2 0.1 0.1
v -0.2 0.2 0.1
v -0.1 0.1 0.1
v -0.1 0.2 0.1
v -0.1 0.5 0.1
v -0.1 1 0.1
v -0.1 1.5 0.1
v -0.1 2 0.1
v 0 0.1 0.1
v 0 0.2 0.1
v 0 0.3 0.1
v 0 0.5 0.1
v 0 0.6 0.1
v 0 0.9 0.1
v 0 1 0.1
v 0 1.5 0.1
v 0 1.7 0.1
v 0 1.9 0.1
v 0.1 0.2 0.1
v 0.1 0.3 0.1
v 0.1 0.4 0.1
v 0.1 0.6 0.1
v 0.1 0.9 0.1
v 0.1 1.7 0.1
v 0.1 1.9 0.1
v 0.1 2 0.1
v 0.2 0 0.1
v 0.2 0.1 0.1
v 0.2 0.2 0.1
v 0.2 0.3 0.1
v 0.2 0.4 0.1
v 0.2 0.6 0.1
v 0.3 0.1 0.1
v 0.3 0.2 0.1
v 0.4 0 0.1
v 0.4 0.1 0.1
v -0.3 0 -7.45058e-009
v -0.3 0.1 -7.45058e-009
v -0.2 0 -7.45058e-009
v -0.2 0.1 -7.45058e-009
v 0.2 0 -0.2
v 0.2 0.1 -0.2
v 0.3 0 -0.2
v 0.3 0.1 -0.2
v 0.1 0.4 -7.45058e-009
v 0.1 0.6 -7.45058e-009
v 0.2 0.4 -7.45058e-009
v 0.2 0.6 -7.45058e-009
v 0.3 0 -7.45058e-009
v 0.3 0.1 -7.45058e-009
v 0.4 0 -7.45058e-009
v 0.4 0.1 -7.45058e-009
v -0.3 0 -0.1
v -0.3 0.1 -0.1
v -0.2 0 -0.1
v -0.2 0.1 -0.1
v -0.1 0.4 -0.1
v -0.1 0.7 -0.1
v -0.1 0.9 -0.1
v -0.1 1.1 -0.1
v -0.1 2 -0.1
v 0 0.1 -0.1
v 0 0.4 -0.1
v 0 0.6 -0.1
v 0 0.7 -0.1
v 0 1.1 -0.1
v 0 1.8 -0.1
v 0.1 0.2 -0.1
v 0.1 0.4 -0.1
v 0.1 0.6 -0.1
v 0.1 0.9 -0.1
v 0.1 1.8 -0.1
v 0.1 2 -0.1
v 0.2 0 -0.1
v 0.2 0.1 -0.1
v 0.2 0.2 -0.1
v 0.2 0.4 -0.1
v 0.3 0 -0.1
v 0.3 0.2 -0.1
v -0.2 0.1 -0.2
v -0.2 0.2 -0.2
v -0.1 0.2 -0.2
v -0.1 0.4 -0.2
v 0 0 -0.2
v 0 0.1 -0.2
v 0 0.4 -0.2
v 0.1 0 -0.2
v 0.1 0.1 -0.2
v -0.1 0 -0.3
v -0.1 0.1 -0.3
v 0 0 -0.3
v 0 0.1 -0.3
v 0.1 0 -0.3
v 0.1 0.1 -0.3
v 0.3 0 -0.3
v 0.3 0.1 -0.3
v -0.2 0 -0.4
v -0.2 0.1 -0.4
v -0.1 0 -0.4
v -0.1 0.1 -0.4
v 0 0 0.4
v 0.1 0 0.4
v 0 0 0.3
v 0.1 0 0.3
v 0.2 0 0.3
v -0.2 0 0.2
v -0.1 0 0.2
v 0 0 0.2
v 0.1 0 0.2
v 0.2 0 0.2
v -0.1 0 0.1
v 0 0 0.1
v 0.2 0 0.1
v 0.4 0 0.1
v -0.3 0 -7.45058e-009
v -0.2 0 -7.45058e-009
v 0.3 0 -7.45058e-009
v 0.4 0 -7.45058e-009
v -0.3 0 -0.1
v -0.2 0 -0.1
v 0.2 0 -0.1
v 0.3 0 -0.1
v 0 0 -0.2
v 0.1 0 -0.2
v 0.2 0 -0.2
v 0.3 0 -0.2
v -0.1 0 -0.3
v 0 0 -0.3
v 0.1 0 -0.3
v 0.3 0 -0.3
v -0.2 0 -0.4
v -0.1 0 -0.4
v 0 0.1 0.4
v 0.1 0.1 0.4
v 0 0.1 0.3
v 0.1 0.1 0.3
v 0.2 0.1 0.3
v -0.2 0.1 0.2
v -0.1 0.1 0.2
v 0 0.1 0.2
v 0.1 0.1 0.2
v 0.2 0.1 0.2
v -0.2 0.1 0.1
v -0.1 0.1 0.1
v 0 0.1 0.1
v 0.3 0.1 0.1
v 0.4 0.1 0.1
v -0.3 0.1 -7.45058e-009
v -0.2 0.1 -7.45058e-009
v 0.3 0.1 -7.45058e-009
v 0.4 0.1 -7.45058e-009
v -0.3 0.1 -0.1
v -0.2 0.1 -0.1
v 0 0.1 -0.1
v 0.2 0.1 -0.1
v -0.2 0.1 -0.2
v 0 0.1 -0.2
v 0.1 0.1 -0.2
v 0.2 0.1 -0.2
v 0.3 0.1 -0.2
v -0.1 0.1 -0.3
v 0 0.1 -0.3
v 0.1 0.1 -0.3
v 0.3 0.1 -0.3
v -0.2 0.1 -0.4
v -0.1 0.1 -0.4
v 0.1 0.2 0.2
v 0.2 0.2 0.2
v -0.2 0.2 0.1
v -0.1 0.2 0.1
v 0.1 0.2 0.1
v 0.2 0.2 0.1
v 0.3 0.2 0.1
v -0.1 0.2 -7.45058e-009
v 0.2 0.2 -0.1
v 0.3 0.2 -0.1
v -0.2 0.2 -0.2
v -0.1 0.2 -0.2
v 0.1 0.4 -7.45058e-009
v 0.2 0.4 -7.45058e-009
v -0.1 0.4 -0.1
v 0 0.4 -0.1
v 0.1 0.4 -0.1
v 0.2 0.4 -0.1
v -0.1 0.4 -0.2
v 0 0.4 -0.2
v 0.1 0.6 0.1
v 0.2 0.6 0.1
v 0.1 0.6 -7.45058e-009
v 0.2 0.6 -7.45058e-009
v 0 0.9 0.2
v 0.1 0.9 0.2
v 0 0.9 0.1
v 0.1 0.9 0.1
v -0.1 2 0.1
v 0.1 2 0.1
v -0.1 2 -0.1
v 0.1 2 -0.1

# faces
f 3/2/1 2/2/1 1/2/1
f 4/2/1 2/2/1 3/2/1
f 9/2/1 6/2/1 5/2/1
f 10/2/1 6/2/1 9/2/1
f 11/2/1 6/2/1 10/2/1
f 12/2/1 8/2/1 7/2/1
f 13/2/1 8/2/1 12/2/1
f 14/2/1 8/2/1 13/2/1
f 15/2/1 11/2/1 10/2/1
f 15/2/1 13/2/1 12/2/1
f 15/2/1 12/2/1 11/2/1
f 16/2/1 13/2/1 15/2/1
f 20/1/1 18/1/1 17/1/1
f 20/2/1 19/2/1 18/2/1
f 21/2/1 19/2/1 20/2/1
f 22/2/1 19/2/1 21/2/1
f 23/1/1 20/1/1 17/1/1
f 23/1/1 21/1/1 20/1/1
f 24/1/1 21/1/1 23/1/1
f 25/2/1 24/2/1 23/2/1
f 25/1/1 21/1/1 24/1/1
f 26/1/1 21/1/1 25/1/1
f 27/2/1 25/2/1 23/2/1
f 27/2/1 26/2/1 25/2/1
f 28/2/1 26/2/1 27/2/1
f 29/2/1 27/2/1 23/2/1
f 30/1/1 28/1/1 27/1/1
f 30/2/1 27/2/1 29/2/1
f 31/1/1 30/1/1 29/1/1
f 31/1/1 28/1/1 30/1/1
f 32/1/1 28/1/1 31/1/1
f 33/1/1 31/1/1 29/1/1
f 34/2/1 32/2/1 31/2/1
f 34/1/1 31/1/1 33/1/1
f 35/2/1 34/2/1 33/2/1
f 36/2/1 32/2/1 34/2/1
f 36/2/1 34/2/1 35/2/1
f 40/1/1 38/1/1 37/1/1
f 41/2/1 39/2/1 38/2/1
f 41/1/1 38/1/1 40/1/1
f 42/2/1 39/2/1 41/2/1
f 44/1/1 43/1/1 42/1/1
f 45/1/1 44/1/1 42/1/1
f 46/1/1 44/1/1 45/1/1
f 47/2/1 46/2/1 45/2/1
f 48/2/1 47/2/1 45/2/1
f 49/2/1 47/2/1 48/2/1
f 50/1/1 49/1/1 48/1/1
f 51/1/1 49/1/1 50/1/1
f 54/2/1 53/2/1 52/2/1
f 55/2/1 53/2/1 54/2/1
f 56/2/2 57/2/2 58/2/2
f 58/2/2 57/2/2 59/2/2
f 60/2/2 61/2/2 63/2/2
f 63/2/2 61/2/2 64/2/2
f 62/2/2 63/2/2 65/2/2
f 65/2/2 63/2/2 66/2/2
f 67/1/2 68/1/2 69/1/2
f 69/1/2 68/1/2 70/1/2
f 71/1/2 72/1/2 73/1/2
f 73/1/2 72/1/2 74/1/2
f 73/2/2 74/2/2 75/2/2
f 73/2/2 75/2/2 78/2/2
f 78/2/2 75/2/2 79/2/2
f 76/1/2 77/1/2 80/1/2
f 80/1/2 77/1/2 81/1/2
f 78/1/2 79/1/2 82/1/2
f 79/1/2 80/1/2 82/1/2
f 82/1/2 80/1/2 83/1/2
f 80/2/2 81/2/2 84/2/2
f 83/1/2 80/1/2 84/1/2
f 84/2/2 81/2/2 85/2/2
f 83/2/2 84/2/2 86/2/2
f 84/1/2 85/1/2 87/1/2
f 86/2/2 84/2/2 87/2/2
f 86/1/2 87/1/2 88/1/2
f 87/1/2 85/1/2 88/1/2
f 88/1/2 85/1/2 89/1/2
f 86/1/2 88/1/2 90/1/2
f 88/2/2 89/2/2 91/2/2
f 90/1/2 88/1/2 91/1/2
f 90/2/2 91/2/2 92/2/2
f 91/2/2 89/2/2 93/2/2
f 92/2/2 91/2/2 93/2/2
f 94/1/2 95/1/2 99/1/2
f 95/2/2 96/2/2 100/2/2
f 99/1/2 95/1/2 100/1/2
f 100/2/2 96/2/2 101/2/2
f 97/2/2 98/2/2 102/2/2
f 102/2/2 98/2/2 103/2/2
f 100/1/2 101/1/2 104/1/2
f 104/1/2 101/1/2 105/1/2
f 105/1/2 106/1/2 107/1/2
f 107/1/2 106/1/2 108/1/2
f 107/2/2 108/2/2 109/2/2
f 108/1/2 106/1/2 110/1/2
f 109/2/2 108/2/2 110/2/2
f 110/1/2 106/1/2 111/1/2
f 109/1/2 110/1/2 112/1/2
f 112/1/2 110/1/2 113/1/2
f 114/2/2 115/2/2 119/2/2
f 116/2/2 117/2/2 120/2/2
f 120/2/2 117/2/2 121/2/2
f 118/2/2 119/2/2 122/2/2
f 119/2/2 115/2/2 123/2/2
f 122/2/2 119/2/2 123/2/2
f 124/2/2 125/2/2 126/2/2
f 126/2/2 125/2/2 127/2/2
f 130/1/3 129/1/3 128/1/3
f 131/1/3 129/1/3 130/1/3
f 134/1/3 133/1/3 132/1/3
f 135/1/3 133/1/3 134/1/3
f 138/2/3 137/2/3 136/2/3
f 139/2/3 137/2/3 138/2/3
f 140/1/3 139/1/3 138/1/3
f 141/1/3 139/1/3 140/1/3
f 145/1/3 142/1/3 141/1/3
f 146/1/3 142/1/3 145/1/3
f 147/2/3 143/2/3 142/2/3
f 147/1/3 142/1/3 146/1/3
f 148/1/3 144/1/3 143/1/3
f 148/2/3 143/2/3 147/2/3
f 149/1/3 144/1/3 148/1/3
f 150/1/3 146/1/3 145/1/3
f 151/1/3 146/1/3 150/1/3
f 154/2/3 153/2/3 152/2/3
f 155/2/3 153/2/3 154/2/3
f 160/2/3 155/2/3 154/2/3
f 161/1/3 156/1/3 155/1/3
f 161/2/3 155/2/3 160/2/3
f 162/1/3 156/1/3 161/1/3
f 163/2/3 157/2/3 156/2/3
f 163/1/3 156/1/3 162/1/3
f 164/2/3 157/2/3 163/2/3
f 165/2/3 157/2/3 164/2/3
f 166/1/3 158/1/3 157/1/3
f 166/2/3 157/2/3 165/2/3
f 167/2/3 159/2/3 158/2/3
f 167/1/3 158/1/3 166/1/3
f 168/2/3 159/2/3 167/2/3
f 169/2/3 159/2/3 168/2/3
f 174/2/3 166/2/3 165/2/3
f 174/2/3 168/2/3 167/2/3
f 174/2/3 167/2/3 166/2/3
f 175/1/3 169/1/3 168/1/3
f 175/2/3 168/2/3 174/2/3
f 176/2/3 159/2/3 169/2/3
f 176/1/3 169/1/3 175/1/3
f 177/2/3 159/2/3 176/2/3
f 180/1/3 171/1/3 170/1/3
f 181/2/3 172/2/3 171/2/3
f 181/1/3 171/1/3 180/1/3
f 182/1/3 173/1/3 172/1/3
f 182/2/3 172/2/3 181/2/3
f 183/1/3 173/1/3 182/1/3
f 184/2/3 180/2/3 179/2/3
f 184/2/3 179/2/3 178/2/3
f 185/2/3 180/2/3 184/2/3
f 186/2/3 184/2/3 178/2/3
f 187/2/3 184/2/3 186/2/3
f 190/2/3 189/2/3 188/2/3
f 191/2/3 189/2/3 190/2/3
f 194/2/3 193/2/3 192/2/3
f 195/2/3 193/2/3 194/2/3
f 196/1/4 197/1/4 198/1/4
f 198/1/4 197/1/4 199/1/4
f 200/2/4 201/2/4 202/2/4
f 202/2/4 201/2/4 203/2/4
f 204/2/4 205/2/4 206/2/4
f 206/2/4 205/2/4 207/2/4
f 208/1/4 209/1/4 214/1/4
f 214/1/4 209/1/4 215/1/4
f 209/2/4 210/2/4 216/2/4
f 215/1/4 209/1/4 216/1/4
f 211/2/4 212/2/4 217/2/4
f 210/1/4 211/1/4 217/1/4
f 217/2/4 212/2/4 218/2/4
f 213/2/4 214/2/4 219/2/4
f 214/1/4 215/1/4 220/1/4
f 219/2/4 214/2/4 220/2/4
f 215/2/4 216/2/4 221/2/4
f 220/1/4 215/1/4 221/1/4
f 216/2/4 210/2/4 222/2/4
f 221/2/4 216/2/4 222/2/4
f 210/1/4 217/1/4 222/1/4
f 217/1/4 218/1/4 222/1/4
f 218/2/4 212/2/4 223/2/4
f 222/1/4 218/1/4 223/1/4
f 223/2/4 212/2/4 224/2/4
f 213/2/4 219/2/4 226/2/4
f 219/1/4 220/1/4 227/1/4
f 226/2/4 219/2/4 227/2/4
f 227/1/4 220/1/4 228/1/4
f 225/2/4 226/2/4 229/2/4
f 226/2/4 227/2/4 229/2/4
f 229/2/4 227/2/4 230/2/4
f 231/2/4 232/2/4 233/2/4
f 231/2/4 233/2/4 236/2/4
f 233/2/4 234/2/4 236/2/4
f 236/2/4 234/2/4 237/2/4
f 235/2/4 236/2/4 238/2/4
f 238/2/4 236/2/4 239/2/4
f 240/2/4 241/2/4 242/2/4
f 242/2/4 241/2/4 243/2/4
f 244/2/4 245/2/4 246/2/4
f 246/2/4 245/2/4 247/2/4
f 248/2/4 249/2/4 250/2/4
f 250/2/4 249/2/4 251/2/4
f 254/1/5 253/1/5 252/1/5
f 255/1/5 253/1/5 254/1/5
f 259/2/5 255/2/5 254/2/5
f 260/1/5 256/1/5 255/1/5
f 260/2/5 255/2/5 259/2/5
f 261/1/5 256/1/5 260/1/5
f 262/2/5 258/2/5 257/2/5
f 262/1/5 259/1/5 258/1/5
f 263/2/5 261/2/5 260/2/5
f 263/1/5 259/1/5 262/1/5
f 263/2/5 260/2/5 259/2/5
f 264/2/5 261/2/5 263/2/5
f 267/2/5 264/2/5 263/2/5
f 267/2/5 265/2/5 264/2/5
f 267/2/5 263/2/5 262/2/5
f 267/2/5 262/2/5 257/2/5
f 268/2/5 265/2/5 267/2/5
f 269/2/5 265/2/5 268/2/5
f 270/2/5 267/2/5 266/2/5
f 270/2/5 268/2/5 267/2/5
f 271/2/5 268/2/5 270/2/5
f 272/2/5 268/2/5 271/2/5
f 273/2/5 268/2/5 272/2/5
f 274/2/5 272/2/5 271/2/5
f 275/2/5 272/2/5 274/2/5
f 276/2/5 272/2/5 275/2/5
f 278/2/5 274/2/5 271/2/5
f 279/2/5 274/2/5 278/2/5
f 280/2/5 277/2/5 276/2/5
f 280/2/5 276/2/5 275/2/5
f 281/2/5 277/2/5 280/2/5
f 282/2/5 278/2/5 271/2/5
f 283/2/5 278/2/5 282/2/5
f 284/1/6 285/1/6 286/1/6
f 286/1/6 285/1/6 287/1/6
f 286/2/6 287/2/6 291/2/6
f 287/1/6 288/1/6 292/1/6
f 291/2/6 287/2/6 292/2/6
f 292/1/6 288/1/6 293/1/6
f 289/2/6 290/2/6 294/2/6
f 290/1/6 291/1/6 295/1/6
f 294/2/6 290/2/6 295/2/6
f 295/1/6 291/1/6 296/1/6
f 297/2/6 298/2/6 301/2/6
f 301/2/6 298/2/6 302/2/6
f 299/2/6 300/2/6 303/2/6
f 303/2/6 300/2/6 304/2/6
f 305/2/6 306/2/6 308/2/6
f 308/2/6 306/2/6 309/2/6
f 309/2/6 306/2/6 310/2/6
f 307/2/6 308/2/6 312/2/6
f 312/2/6 308/2/6 313/2/6
f 310/2/6 311/2/6 314/2/6
f 309/2/6 310/2/6 314/2/6
f 314/2/6 311/2/6 315/2/6
f 307/2/6 312/2/6 316/2/6
f 316/2/6 312/2/6 317/2/6
f 318/1/6 319/1/6 322/1/6
f 322/1/6 319/1/6 323/1/6
f 320/2/6 321/2/6 325/2/6
f 323/2/6 324/2/6 326/2/6
f 326/2/6 324/2/6 327/2/6
f 320/2/6 325/2/6 328/2/6
f 328/2/6 325/2/6 329/2/6
f 330/1/6 331/1/6 334/1/6
f 334/1/6 331/1/6 335/1/6
f 332/2/6 333/2/6 336/2/6
f 336/2/6 333/2/6 337/2/6
f 338/1/6 339/1/6 340/1/6
f 340/1/6 339/1/6 341/1/6
f 342/1/6 343/1/6 344/1/6
f 344/1/6 343/1/6 345/1/6
f 346/2/6 347/2/6 348/2/6
f 348/2/6 347/2/6 349/2/6
