# MagicaVoxel @ Ephtracy

# group
o 

# material
mtllib ivan_parts-4.mtl
usemtl palette

# normals
vn -1 0 0
vn 1 0 0
vn 0 0 1
vn 0 0 -1
vn 0 -1 0
vn 0 1 0

# texcoords
vt 0.689453 0.5
vt 0.751953 0.5
vt 0.962891 0.5

# verts
v -0.1 -0.6 0.2
v -0.1 -0.6 -0.1
v -0.1 -0.4 0.2
v -0.1 -0.4 -0.1
v -0.1 -0.3 0.2
v -0.1 -0.3 -0.1
v -0.1 -0.1 0.2
v -0.1 -0.1 -0.1
v -0.1 0.6 0.2
v -0.1 0.6 -0.1
v 0.2 -0.6 0.2
v 0.2 -0.6 -0.1
v 0.2 -0.4 0.2
v 0.2 -0.4 -0.1
v 0.2 -0.3 0.2
v 0.2 -0.3 -0.1
v 0.2 -0.1 0.2
v 0.2 -0.1 -0.1
v 0.2 0.6 0.2
v 0.2 0.6 -0.1
v -0.1 -0.6 0.2
v -0.1 -0.4 0.2
v -0.1 -0.3 0.2
v -0.1 -0.1 0.2
v -0.1 0.6 0.2
v 0.2 -0.6 0.2
v 0.2 -0.4 0.2
v 0.2 -0.3 0.2
v 0.2 -0.1 0.2
v 0.2 0.6 0.2
v -0.1 -0.6 -0.1
v -0.1 -0.4 -0.1
v -0.1 -0.3 -0.1
v -0.1 -0.1 -0.1
v -0.1 0.6 -0.1
v 0.2 -0.6 -0.1
v 0.2 -0.4 -0.1
v 0.2 -0.3 -0.1
v 0.2 -0.1 -0.1
v 0.2 0.6 -0.1
v -0.1 -0.6 0.2
v 0.2 -0.6 0.2
v -0.1 -0.6 -0.1
v 0.2 -0.6 -0.1
v -0.1 0.6 0.2
v 0.2 0.6 0.2
v 0 0.6 0.1
v 0.1 0.6 0.1
v 0 0.6 0
v 0.1 0.6 0
v -0.1 0.6 -0.1
v 0.2 0.6 -0.1

# faces
f 3/1/1 2/1/1 1/1/1
f 4/1/1 2/1/1 3/1/1
f 5/2/1 4/2/1 3/2/1
f 6/2/1 4/2/1 5/2/1
f 7/1/1 6/1/1 5/1/1
f 8/1/1 6/1/1 7/1/1
f 9/2/1 8/2/1 7/2/1
f 10/2/1 8/2/1 9/2/1
f 11/1/2 12/1/2 13/1/2
f 13/1/2 12/1/2 14/1/2
f 13/2/2 14/2/2 15/2/2
f 15/2/2 14/2/2 16/2/2
f 15/1/2 16/1/2 17/1/2
f 17/1/2 16/1/2 18/1/2
f 17/2/2 18/2/2 19/2/2
f 19/2/2 18/2/2 20/2/2
f 26/1/3 22/1/3 21/1/3
f 27/2/3 23/2/3 22/2/3
f 27/1/3 22/1/3 26/1/3
f 28/1/3 24/1/3 23/1/3
f 28/2/3 23/2/3 27/2/3
f 29/2/3 25/2/3 24/2/3
f 29/1/3 24/1/3 28/1/3
f 30/2/3 25/2/3 29/2/3
f 31/1/4 32/1/4 36/1/4
f 32/2/4 33/2/4 37/2/4
f 36/1/4 32/1/4 37/1/4
f 33/1/4 34/1/4 38/1/4
f 37/2/4 33/2/4 38/2/4
f 34/2/4 35/2/4 39/2/4
f 38/1/4 34/1/4 39/1/4
f 39/2/4 35/2/4 40/2/4
f 43/1/5 42/1/5 41/1/5
f 44/1/5 42/1/5 43/1/5
f 45/2/6 46/2/6 47/2/6
f 47/2/6 46/2/6 48/2/6
f 45/2/6 47/2/6 49/2/6
f 47/3/6 48/3/6 49/3/6
f 48/2/6 46/2/6 50/2/6
f 49/3/6 48/3/6 50/3/6
f 45/2/6 49/2/6 51/2/6
f 49/2/6 50/2/6 51/2/6
f 50/2/6 46/2/6 52/2/6
f 51/2/6 50/2/6 52/2/6
