# MagicaVoxel @ Ephtracy

# group
o base

# material
mtllib portal_cubebutton-0-base.mtl
usemtl palette

# normals
vn -1 0 0
vn 1 0 0
vn 0 0 1
vn 0 0 -1
vn 0 -1 0
vn 0 1 0

# texcoords
vt 0.533203 0.5
vt 0.564453 0.5
vt 0.576172 0.5
vt 0.611328 0.5

# verts
v -1.7 0 0.0999999
v -1.7 0 -0.1
v -1.7 0.1 0.0999999
v -1.7 0.1 -0.1
v -1.6 0 0.2
v -1.6 0 0.0999999
v -1.6 0 -0.1
v -1.6 0 -0.2
v -1.6 0.1 0.2
v -1.6 0.1 0.0999999
v -1.6 0.1 -0.1
v -1.6 0.1 -0.2
v -1.6 0.2 0.0999999
v -1.6 0.2 -0.1
v -1.5 0.1 0.2
v -1.5 0.1 0.0999999
v -1.5 0.1 -0.1
v -1.5 0.1 -0.2
v -1.5 0.2 0.2
v -1.5 0.2 0.0999999
v -1.5 0.2 -0.1
v -1.5 0.2 -0.2
v -1.5 0.3 0.0999999
v -1.5 0.3 -0.1
v -1.3 0 0.4
v -1.3 0 0.2
v -1.3 0 -0.2
v -1.3 0 -0.4
v -1.3 0.2 0.4
v -1.3 0.2 0.2
v -1.3 0.2 0.0999999
v -1.3 0.2 -0.1
v -1.3 0.2 -0.2
v -1.3 0.2 -0.4
v -1.3 0.3 0.2
v -1.3 0.3 0.0999999
v -1.3 0.3 -0.1
v -1.3 0.3 -0.2
v -1.2 0 0.7
v -1.2 0 0.4
v -1.2 0 -0.4
v -1.2 0 -0.7
v -1.2 0.1 0.7
v -1.2 0.1 0.5
v -1.2 0.1 -0.5
v -1.2 0.1 -0.7
v -1.2 0.2 0.7
v -1.2 0.2 0.5
v -1.2 0.2 0.4
v -1.2 0.2 0.2
v -1.2 0.2 -0.2
v -1.2 0.2 -0.4
v -1.2 0.2 -0.5
v -1.2 0.2 -0.7
v -1.2 0.3 0.4
v -1.2 0.3 0.2
v -1.2 0.3 -0.2
v -1.2 0.3 -0.4
v -1.1 0 0.8
v -1.1 0 0.7
v -1.1 0 -0.7
v -1.1 0 -0.8
v -1.1 0.1 0.8
v -1.1 0.1 0.7
v -1.1 0.1 -0.7
v -1.1 0.1 -0.8
v -1.1 0.2 0.8
v -1.1 0.2 0.7
v -1.1 0.2 0.5
v -1.1 0.2 0.4
v -1.1 0.2 -0.4
v -1.1 0.2 -0.5
v -1.1 0.2 -0.7
v -1.1 0.2 -0.8
v -1.1 0.3 0.7
v -1.1 0.3 0.4
v -1.1 0.3 -0.4
v -1.1 0.3 -0.7
v -1 0 1
v -1 0 0.8
v -1 0 -0.8
v -1 0 -1
v -1 0.1 0.9
v -1 0.1 0.8
v -1 0.1 -0.8
v -1 0.1 -0.9
v -1 0.2 1
v -1 0.2 0.9
v -1 0.2 0.8
v -1 0.2 0.7
v -1 0.2 -0.7
v -1 0.2 -0.8
v -1 0.2 -0.9
v -1 0.2 -1
v -1 0.3 0.8
v -1 0.3 0.7
v -1 0.3 -0.7
v -1 0.3 -0.8
v -0.9 0.2 0.9
v -0.9 0.2 0.8
v -0.9 0.2 -0.8
v -0.9 0.2 -0.9
v -0.9 0.3 0.9
v -0.9 0.3 0.8
v -0.9 0.3 -0.8
v -0.9 0.3 -0.9
v -0.8 0 1.1
v -0.8 0 1
v -0.8 0 -1
v -0.8 0 -1.1
v -0.8 0.1 1.1
v -0.8 0.1 1
v -0.8 0.1 -1
v -0.8 0.1 -1.1
v -0.8 0.2 1.1
v -0.8 0.2 1
v -0.8 0.2 0.9
v -0.8 0.2 -0.9
v -0.8 0.2 -1
v -0.8 0.2 -1.1
v -0.8 0.3 1
v -0.8 0.3 0.9
v -0.8 0.3 -0.9
v -0.8 0.3 -1
v -0.7 0 1.2
v -0.7 0 1.1
v -0.7 0 -1.1
v -0.7 0 -1.2
v -0.7 0.1 1.2
v -0.7 0.1 1.1
v -0.7 0.1 -1.1
v -0.7 0.1 -1.2
v -0.7 0.2 1.2
v -0.7 0.2 1.1
v -0.7 0.2 1
v -0.7 0.2 -1
v -0.7 0.2 -1.1
v -0.7 0.2 -1.2
v -0.7 0.3 1.1
v -0.7 0.3 1
v -0.7 0.3 -1
v -0.7 0.3 -1.1
v -0.4 0 1.3
v -0.4 0 1.2
v -0.4 0 -1.2
v -0.4 0 -1.3
v -0.4 0.2 1.3
v -0.4 0.2 1.2
v -0.4 0.2 1.1
v -0.4 0.2 -1.1
v -0.4 0.2 -1.2
v -0.4 0.2 -1.3
v -0.4 0.3 1.2
v -0.4 0.3 1.1
v -0.4 0.3 -1.1
v -0.4 0.3 -1.2
v -0.2 0 1.6
v -0.2 0 1.3
v -0.2 0 -1.3
v -0.2 0 -1.6
v -0.2 0.1 1.6
v -0.2 0.1 1.5
v -0.2 0.1 -1.5
v -0.2 0.1 -1.6
v -0.2 0.2 1.5
v -0.2 0.2 1.3
v -0.2 0.2 1.2
v -0.2 0.2 -1.2
v -0.2 0.2 -1.3
v -0.2 0.2 -1.5
v -0.2 0.3 1.3
v -0.2 0.3 1.2
v -0.2 0.3 -1.2
v -0.2 0.3 -1.3
v -0.0999999 0 1.7
v -0.0999999 0 1.6
v -0.0999999 0 1
v -0.0999999 0 0.0999999
v -0.0999999 0 -0.1
v -0.0999999 0 -1
v -0.0999999 0 -1.6
v -0.0999999 0 -1.7
v -0.0999999 0.1 1.7
v -0.0999999 0.1 1.6
v -0.0999999 0.1 1.5
v -0.0999999 0.1 1
v -0.0999999 0.1 0.0999999
v -0.0999999 0.1 -0.1
v -0.0999999 0.1 -1
v -0.0999999 0.1 -1.5
v -0.0999999 0.1 -1.6
v -0.0999999 0.1 -1.7
v -0.0999999 0.2 1.6
v -0.0999999 0.2 1.5
v -0.0999999 0.2 1.3
v -0.0999999 0.2 -1.3
v -0.0999999 0.2 -1.5
v -0.0999999 0.2 -1.6
v -0.0999999 0.3 1.5
v -0.0999999 0.3 1.3
v -0.0999999 0.3 -1.3
v -0.0999999 0.3 -1.5
v 0.3 0 1
v 0.3 0 0.9
v 0.3 0 -0.9
v 0.3 0 -1
v 0.3 0.3 1
v 0.3 0.3 0.9
v 0.3 0.3 -0.9
v 0.3 0.3 -1
v 0.5 0 0.9
v 0.5 0 0.8
v 0.5 0 -0.8
v 0.5 0 -0.9
v 0.5 0.3 0.9
v 0.5 0.3 0.8
v 0.5 0.3 -0.8
v 0.5 0.3 -0.9
v 0.7 0 0.8
v 0.7 0 0.7
v 0.7 0 -0.7
v 0.7 0 -0.8
v 0.7 0.3 0.8
v 0.7 0.3 0.7
v 0.7 0.3 -0.7
v 0.7 0.3 -0.8
v 0.8 0 0.7
v 0.8 0 0.5
v 0.8 0 -0.5
v 0.8 0 -0.7
v 0.8 0.3 0.7
v 0.8 0.3 0.5
v 0.8 0.3 -0.5
v 0.8 0.3 -0.7
v 0.9 0 0.5
v 0.9 0 0.3
v 0.9 0 -0.3
v 0.9 0 -0.5
v 0.9 0.3 0.5
v 0.9 0.3 0.3
v 0.9 0.3 -0.3
v 0.9 0.3 -0.5
v 1 0 0.3
v 1 0 0.0999999
v 1 0 -0.1
v 1 0 -0.3
v 1 0.1 0.0999999
v 1 0.1 -0.1
v 1 0.3 0.3
v 1 0.3 -0.3
v -1 0 0.3
v -1 0 0.0999999
v -1 0 -0.1
v -1 0 -0.3
v -1 0.1 0.0999999
v -1 0.1 -0.1
v -1 0.3 0.3
v -1 0.3 -0.3
v -0.9 0 0.5
v -0.9 0 0.3
v -0.9 0 -0.3
v -0.9 0 -0.5
v -0.9 0.3 0.5
v -0.9 0.3 0.3
v -0.9 0.3 -0.3
v -0.9 0.3 -0.5
v -0.8 0 0.7
v -0.8 0 0.5
v -0.8 0 -0.5
v -0.8 0 -0.7
v -0.8 0.3 0.7
v -0.8 0.3 0.5
v -0.8 0.3 -0.5
v -0.8 0.3 -0.7
v -0.7 0 0.8
v -0.7 0 0.7
v -0.7 0 -0.7
v -0.7 0 -0.8
v -0.7 0.3 0.8
v -0.7 0.3 0.7
v -0.7 0.3 -0.7
v -0.7 0.3 -0.8
v -0.5 0 0.9
v -0.5 0 0.8
v -0.5 0 -0.8
v -0.5 0 -0.9
v -0.5 0.3 0.9
v -0.5 0.3 0.8
v -0.5 0.3 -0.8
v -0.5 0.3 -0.9
v -0.3 0 1
v -0.3 0 0.9
v -0.3 0 -0.9
v -0.3 0 -1
v -0.3 0.3 1
v -0.3 0.3 0.9
v -0.3 0.3 -0.9
v -0.3 0.3 -1
v 0.1 0 1.7
v 0.1 0 1.6
v 0.1 0 1
v 0.1 0 0.0999999
v 0.1 0 -0.1
v 0.1 0 -1
v 0.1 0 -1.6
v 0.1 0 -1.7
v 0.1 0.1 1.7
v 0.1 0.1 1.6
v 0.1 0.1 1.5
v 0.1 0.1 1
v 0.1 0.1 0.0999999
v 0.1 0.1 -0.1
v 0.1 0.1 -1
v 0.1 0.1 -1.5
v 0.1 0.1 -1.6
v 0.1 0.1 -1.7
v 0.1 0.2 1.6
v 0.1 0.2 1.5
v 0.1 0.2 1.3
v 0.1 0.2 -1.3
v 0.1 0.2 -1.5
v 0.1 0.2 -1.6
v 0.1 0.3 1.5
v 0.1 0.3 1.3
v 0.1 0.3 -1.3
v 0.1 0.3 -1.5
v 0.2 0 1.6
v 0.2 0 1.3
v 0.2 0 -1.3
v 0.2 0 -1.6
v 0.2 0.1 1.6
v 0.2 0.1 1.5
v 0.2 0.1 -1.5
v 0.2 0.1 -1.6
v 0.2 0.2 1.5
v 0.2 0.2 1.3
v 0.2 0.2 1.2
v 0.2 0.2 -1.2
v 0.2 0.2 -1.3
v 0.2 0.2 -1.5
v 0.2 0.3 1.3
v 0.2 0.3 1.2
v 0.2 0.3 -1.2
v 0.2 0.3 -1.3
v 0.4 0 1.3
v 0.4 0 1.2
v 0.4 0 -1.2
v 0.4 0 -1.3
v 0.4 0.2 1.3
v 0.4 0.2 1.2
v 0.4 0.2 1.1
v 0.4 0.2 -1.1
v 0.4 0.2 -1.2
v 0.4 0.2 -1.3
v 0.4 0.3 1.2
v 0.4 0.3 1.1
v 0.4 0.3 -1.1
v 0.4 0.3 -1.2
v 0.7 0 1.2
v 0.7 0 1.1
v 0.7 0 -1.1
v 0.7 0 -1.2
v 0.7 0.1 1.2
v 0.7 0.1 1.1
v 0.7 0.1 -1.1
v 0.7 0.1 -1.2
v 0.7 0.2 1.2
v 0.7 0.2 1.1
v 0.7 0.2 1
v 0.7 0.2 -1
v 0.7 0.2 -1.1
v 0.7 0.2 -1.2
v 0.7 0.3 1.1
v 0.7 0.3 1
v 0.7 0.3 -1
v 0.7 0.3 -1.1
v 0.8 0 1.1
v 0.8 0 1
v 0.8 0 -1
v 0.8 0 -1.1
v 0.8 0.1 1.1
v 0.8 0.1 1
v 0.8 0.1 -1
v 0.8 0.1 -1.1
v 0.8 0.2 1.1
v 0.8 0.2 1
v 0.8 0.2 0.9
v 0.8 0.2 -0.9
v 0.8 0.2 -1
v 0.8 0.2 -1.1
v 0.8 0.3 1
v 0.8 0.3 0.9
v 0.8 0.3 -0.9
v 0.8 0.3 -1
v 0.9 0.2 0.9
v 0.9 0.2 0.8
v 0.9 0.2 -0.8
v 0.9 0.2 -0.9
v 0.9 0.3 0.9
v 0.9 0.3 0.8
v 0.9 0.3 -0.8
v 0.9 0.3 -0.9
v 1 0 1
v 1 0 0.8
v 1 0 -0.8
v 1 0 -1
v 1 0.1 0.9
v 1 0.1 0.8
v 1 0.1 -0.8
v 1 0.1 -0.9
v 1 0.2 1
v 1 0.2 0.9
v 1 0.2 0.8
v 1 0.2 0.7
v 1 0.2 -0.7
v 1 0.2 -0.8
v 1 0.2 -0.9
v 1 0.2 -1
v 1 0.3 0.8
v 1 0.3 0.7
v 1 0.3 -0.7
v 1 0.3 -0.8
v 1.1 0 0.8
v 1.1 0 0.7
v 1.1 0 -0.7
v 1.1 0 -0.8
v 1.1 0.1 0.8
v 1.1 0.1 0.7
v 1.1 0.1 -0.7
v 1.1 0.1 -0.8
v 1.1 0.2 0.8
v 1.1 0.2 0.7
v 1.1 0.2 0.5
v 1.1 0.2 0.4
v 1.1 0.2 -0.4
v 1.1 0.2 -0.5
v 1.1 0.2 -0.7
v 1.1 0.2 -0.8
v 1.1 0.3 0.7
v 1.1 0.3 0.4
v 1.1 0.3 -0.4
v 1.1 0.3 -0.7
v 1.2 0 0.7
v 1.2 0 0.4
v 1.2 0 -0.4
v 1.2 0 -0.7
v 1.2 0.1 0.7
v 1.2 0.1 0.5
v 1.2 0.1 -0.5
v 1.2 0.1 -0.7
v 1.2 0.2 0.7
v 1.2 0.2 0.5
v 1.2 0.2 0.4
v 1.2 0.2 0.2
v 1.2 0.2 -0.2
v 1.2 0.2 -0.4
v 1.2 0.2 -0.5
v 1.2 0.2 -0.7
v 1.2 0.3 0.4
v 1.2 0.3 0.2
v 1.2 0.3 -0.2
v 1.2 0.3 -0.4
v 1.3 0 0.4
v 1.3 0 0.2
v 1.3 0 -0.2
v 1.3 0 -0.4
v 1.3 0.2 0.4
v 1.3 0.2 0.2
v 1.3 0.2 0.0999999
v 1.3 0.2 -0.1
v 1.3 0.2 -0.2
v 1.3 0.2 -0.4
v 1.3 0.3 0.2
v 1.3 0.3 0.0999999
v 1.3 0.3 -0.1
v 1.3 0.3 -0.2
v 1.5 0.1 0.2
v 1.5 0.1 0.0999999
v 1.5 0.1 -0.1
v 1.5 0.1 -0.2
v 1.5 0.2 0.2
v 1.5 0.2 0.0999999
v 1.5 0.2 -0.1
v 1.5 0.2 -0.2
v 1.5 0.3 0.0999999
v 1.5 0.3 -0.1
v 1.6 0 0.2
v 1.6 0 0.0999999
v 1.6 0 -0.1
v 1.6 0 -0.2
v 1.6 0.1 0.2
v 1.6 0.1 0.0999999
v 1.6 0.1 -0.1
v 1.6 0.1 -0.2
v 1.6 0.2 0.0999999
v 1.6 0.2 -0.1
v 1.7 0 0.0999999
v 1.7 0 -0.1
v 1.7 0.1 0.0999999
v 1.7 0.1 -0.1
v -0.0999999 0 1.7
v -0.0999999 0.1 1.7
v 0.1 0 1.7
v 0.1 0.1 1.7
v -0.2 0 1.6
v -0.2 0.1 1.6
v -0.0999999 0 1.6
v -0.0999999 0.1 1.6
v -0.0999999 0.2 1.6
v 0.1 0 1.6
v 0.1 0.1 1.6
v 0.1 0.2 1.6
v 0.2 0 1.6
v 0.2 0.1 1.6
v -0.2 0.1 1.5
v -0.2 0.2 1.5
v -0.0999999 0.1 1.5
v -0.0999999 0.2 1.5
v -0.0999999 0.3 1.5
v 0.1 0.1 1.5
v 0.1 0.2 1.5
v 0.1 0.3 1.5
v 0.2 0.1 1.5
v 0.2 0.2 1.5
v -0.4 0 1.3
v -0.4 0.2 1.3
v -0.2 0 1.3
v -0.2 0.2 1.3
v -0.2 0.3 1.3
v -0.0999999 0.2 1.3
v -0.0999999 0.3 1.3
v 0.1 0.2 1.3
v 0.1 0.3 1.3
v 0.2 0 1.3
v 0.2 0.2 1.3
v 0.2 0.3 1.3
v 0.4 0 1.3
v 0.4 0.2 1.3
v -0.7 0 1.2
v -0.7 0.1 1.2
v -0.7 0.2 1.2
v -0.5 0.1 1.2
v -0.5 0.2 1.2
v -0.4 0 1.2
v -0.4 0.2 1.2
v -0.4 0.3 1.2
v -0.2 0.2 1.2
v -0.2 0.3 1.2
v 0.2 0.2 1.2
v 0.2 0.3 1.2
v 0.4 0 1.2
v 0.4 0.2 1.2
v 0.4 0.3 1.2
v 0.5 0.1 1.2
v 0.5 0.2 1.2
v 0.7 0 1.2
v 0.7 0.1 1.2
v 0.7 0.2 1.2
v -0.8 0 1.1
v -0.8 0.1 1.1
v -0.8 0.2 1.1
v -0.7 0 1.1
v -0.7 0.1 1.1
v -0.7 0.2 1.1
v -0.7 0.3 1.1
v -0.5 0.2 1.1
v -0.4 0.2 1.1
v -0.4 0.3 1.1
v 0.4 0.2 1.1
v 0.4 0.3 1.1
v 0.5 0.2 1.1
v 0.7 0 1.1
v 0.7 0.1 1.1
v 0.7 0.2 1.1
v 0.7 0.3 1.1
v 0.8 0 1.1
v 0.8 0.1 1.1
v 0.8 0.2 1.1
v -1 0 1
v -1 0.2 1
v -0.9 0.1 1
v -0.9 0.2 1
v -0.8 0 1
v -0.8 0.1 1
v -0.8 0.2 1
v -0.8 0.3 1
v -0.7 0.2 1
v -0.7 0.3 1
v 0.7 0.2 1
v 0.7 0.3 1
v 0.8 0 1
v 0.8 0.1 1
v 0.8 0.2 1
v 0.8 0.3 1
v 0.9 0.1 1
v 0.9 0.2 1
v 1 0 1
v 1 0.2 1
v -0.9 0.2 0.9
v -0.9 0.3 0.9
v -0.8 0.2 0.9
v -0.8 0.3 0.9
v 0.8 0.2 0.9
v 0.8 0.3 0.9
v 0.9 0.2 0.9
v 0.9 0.3 0.9
v -1.1 0 0.8
v -1.1 0.1 0.8
v -1.1 0.2 0.8
v -1 0 0.8
v -1 0.1 0.8
v -1 0.2 0.8
v -1 0.3 0.8
v -0.9 0.2 0.8
v -0.9 0.3 0.8
v 0.9 0.2 0.8
v 0.9 0.3 0.8
v 1 0 0.8
v 1 0.1 0.8
v 1 0.2 0.8
v 1 0.3 0.8
v 1.1 0 0.8
v 1.1 0.1 0.8
v 1.1 0.2 0.8
v -1.2 0 0.7
v -1.2 0.1 0.7
v -1.2 0.2 0.7
v -1.1 0 0.7
v -1.1 0.1 0.7
v -1.1 0.2 0.7
v -1.1 0.3 0.7
v -1 0.2 0.7
v -1 0.3 0.7
v 1 0.2 0.7
v 1 0.3 0.7
v 1.1 0 0.7
v 1.1 0.1 0.7
v 1.1 0.2 0.7
v 1.1 0.3 0.7
v 1.2 0 0.7
v 1.2 0.1 0.7
v 1.2 0.2 0.7
v -1.3 0 0.4
v -1.3 0.2 0.4
v -1.2 0 0.4
v -1.2 0.2 0.4
v -1.2 0.3 0.4
v -1.1 0.2 0.4
v -1.1 0.3 0.4
v 1.1 0.2 0.4
v 1.1 0.3 0.4
v 1.2 0 0.4
v 1.2 0.2 0.4
v 1.2 0.3 0.4
v 1.3 0 0.4
v 1.3 0.2 0.4
v -1.6 0 0.2
v -1.6 0.1 0.2
v -1.5 0.1 0.2
v -1.5 0.2 0.2
v -1.3 0 0.2
v -1.3 0.2 0.2
v -1.3 0.3 0.2
v -1.2 0.2 0.2
v -1.2 0.3 0.2
v 1.2 0.2 0.2
v 1.2 0.3 0.2
v 1.3 0 0.2
v 1.3 0.2 0.2
v 1.3 0.3 0.2
v 1.5 0.1 0.2
v 1.5 0.2 0.2
v 1.6 0 0.2
v 1.6 0.1 0.2
v -1.7 0 0.0999999
v -1.7 0.1 0.0999999
v -1.6 0 0.0999999
v -1.6 0.1 0.0999999
v -1.6 0.2 0.0999999
v -1.5 0.1 0.0999999
v -1.5 0.2 0.0999999
v -1.5 0.3 0.0999999
v -1.3 0.2 0.0999999
v -1.3 0.3 0.0999999
v -1 0 0.0999999
v -1 0.1 0.0999999
v -0.0999999 0 0.0999999
v -0.0999999 0.1 0.0999999
v 0.1 0 0.0999999
v 0.1 0.1 0.0999999
v 1 0 0.0999999
v 1 0.1 0.0999999
v 1.3 0.2 0.0999999
v 1.3 0.3 0.0999999
v 1.5 0.1 0.0999999
v 1.5 0.2 0.0999999
v 1.5 0.3 0.0999999
v 1.6 0 0.0999999
v 1.6 0.1 0.0999999
v 1.6 0.2 0.0999999
v 1.7 0 0.0999999
v 1.7 0.1 0.0999999
v -1 0 -0.3
v -1 0.3 -0.3
v -0.9 0 -0.3
v -0.9 0.3 -0.3
v 0.9 0 -0.3
v 0.9 0.3 -0.3
v 1 0 -0.3
v 1 0.3 -0.3
v -0.9 0 -0.5
v -0.9 0.3 -0.5
v -0.8 0 -0.5
v -0.8 0.3 -0.5
v 0.8 0 -0.5
v 0.8 0.3 -0.5
v 0.9 0 -0.5
v 0.9 0.3 -0.5
v -0.8 0 -0.7
v -0.8 0.3 -0.7
v -0.7 0 -0.7
v -0.7 0.3 -0.7
v 0.7 0 -0.7
v 0.7 0.3 -0.7
v 0.8 0 -0.7
v 0.8 0.3 -0.7
v -0.7 0 -0.8
v -0.7 0.3 -0.8
v -0.5 0 -0.8
v -0.5 0.3 -0.8
v 0.5 0 -0.8
v 0.5 0.3 -0.8
v 0.7 0 -0.8
v 0.7 0.3 -0.8
v -0.5 0 -0.9
v -0.5 0.3 -0.9
v -0.3 0 -0.9
v -0.3 0.3 -0.9
v 0.3 0 -0.9
v 0.3 0.3 -0.9
v 0.5 0 -0.9
v 0.5 0.3 -0.9
v -0.3 0 -1
v -0.3 0.3 -1
v -0.0999999 0 -1
v -0.0999999 0.1 -1
v 0.1 0 -1
v 0.1 0.1 -1
v 0.3 0 -1
v 0.3 0.3 -1
v -0.3 0 1
v -0.3 0.3 1
v -0.0999999 0 1
v -0.0999999 0.1 1
v 0.1 0 1
v 0.1 0.1 1
v 0.3 0 1
v 0.3 0.3 1
v -0.5 0 0.9
v -0.5 0.3 0.9
v -0.3 0 0.9
v -0.3 0.3 0.9
v 0.3 0 0.9
v 0.3 0.3 0.9
v 0.5 0 0.9
v 0.5 0.3 0.9
v -0.7 0 0.8
v -0.7 0.3 0.8
v -0.5 0 0.8
v -0.5 0.3 0.8
v 0.5 0 0.8
v 0.5 0.3 0.8
v 0.7 0 0.8
v 0.7 0.3 0.8
v -0.8 0 0.7
v -0.8 0.3 0.7
v -0.7 0 0.7
v -0.7 0.3 0.7
v 0.7 0 0.7
v 0.7 0.3 0.7
v 0.8 0 0.7
v 0.8 0.3 0.7
v -0.9 0 0.5
v -0.9 0.3 0.5
v -0.8 0 0.5
v -0.8 0.3 0.5
v 0.8 0 0.5
v 0.8 0.3 0.5
v 0.9 0 0.5
v 0.9 0.3 0.5
v -1 0 0.3
v -1 0.3 0.3
v -0.9 0 0.3
v -0.9 0.3 0.3
v 0.9 0 0.3
v 0.9 0.3 0.3
v 1 0 0.3
v 1 0.3 0.3
v -1.7 0 -0.1
v -1.7 0.1 -0.1
v -1.6 0 -0.1
v -1.6 0.1 -0.1
v -1.6 0.2 -0.1
v -1.5 0.1 -0.1
v -1.5 0.2 -0.1
v -1.5 0.3 -0.1
v -1.3 0.2 -0.1
v -1.3 0.3 -0.1
v -1 0 -0.1
v -1 0.1 -0.1
v -0.0999999 0 -0.1
v -0.0999999 0.1 -0.1
v 0.1 0 -0.1
v 0.1 0.1 -0.1
v 1 0 -0.1
v 1 0.1 -0.1
v 1.3 0.2 -0.1
v 1.3 0.3 -0.1
v 1.5 0.1 -0.1
v 1.5 0.2 -0.1
v 1.5 0.3 -0.1
v 1.6 0 -0.1
v 1.6 0.1 -0.1
v 1.6 0.2 -0.1
v 1.7 0 -0.1
v 1.7 0.1 -0.1
v -1.6 0 -0.2
v -1.6 0.1 -0.2
v -1.5 0.1 -0.2
v -1.5 0.2 -0.2
v -1.3 0 -0.2
v -1.3 0.2 -0.2
v -1.3 0.3 -0.2
v -1.2 0.2 -0.2
v -1.2 0.3 -0.2
v 1.2 0.2 -0.2
v 1.2 0.3 -0.2
v 1.3 0 -0.2
v 1.3 0.2 -0.2
v 1.3 0.3 -0.2
v 1.5 0.1 -0.2
v 1.5 0.2 -0.2
v 1.6 0 -0.2
v 1.6 0.1 -0.2
v -1.3 0 -0.4
v -1.3 0.2 -0.4
v -1.2 0 -0.4
v -1.2 0.2 -0.4
v -1.2 0.3 -0.4
v -1.1 0.2 -0.4
v -1.1 0.3 -0.4
v 1.1 0.2 -0.4
v 1.1 0.3 -0.4
v 1.2 0 -0.4
v 1.2 0.2 -0.4
v 1.2 0.3 -0.4
v 1.3 0 -0.4
v 1.3 0.2 -0.4
v -1.2 0 -0.7
v -1.2 0.1 -0.7
v -1.2 0.2 -0.7
v -1.1 0 -0.7
v -1.1 0.1 -0.7
v -1.1 0.2 -0.7
v -1.1 0.3 -0.7
v -1 0.2 -0.7
v -1 0.3 -0.7
v 1 0.2 -0.7
v 1 0.3 -0.7
v 1.1 0 -0.7
v 1.1 0.1 -0.7
v 1.1 0.2 -0.7
v 1.1 0.3 -0.7
v 1.2 0 -0.7
v 1.2 0.1 -0.7
v 1.2 0.2 -0.7
v -1.1 0 -0.8
v -1.1 0.1 -0.8
v -1.1 0.2 -0.8
v -1 0 -0.8
v -1 0.1 -0.8
v -1 0.2 -0.8
v -1 0.3 -0.8
v -0.9 0.2 -0.8
v -0.9 0.3 -0.8
v 0.9 0.2 -0.8
v 0.9 0.3 -0.8
v 1 0 -0.8
v 1 0.1 -0.8
v 1 0.2 -0.8
v 1 0.3 -0.8
v 1.1 0 -0.8
v 1.1 0.1 -0.8
v 1.1 0.2 -0.8
v -0.9 0.2 -0.9
v -0.9 0.3 -0.9
v -0.8 0.2 -0.9
v -0.8 0.3 -0.9
v 0.8 0.2 -0.9
v 0.8 0.3 -0.9
v 0.9 0.2 -0.9
v 0.9 0.3 -0.9
v -1 0 -1
v -1 0.2 -1
v -0.9 0.1 -1
v -0.9 0.2 -1
v -0.8 0 -1
v -0.8 0.1 -1
v -0.8 0.2 -1
v -0.8 0.3 -1
v -0.7 0.2 -1
v -0.7 0.3 -1
v 0.7 0.2 -1
v 0.7 0.3 -1
v 0.8 0 -1
v 0.8 0.1 -1
v 0.8 0.2 -1
v 0.8 0.3 -1
v 0.9 0.1 -1
v 0.9 0.2 -1
v 1 0 -1
v 1 0.2 -1
v -0.8 0 -1.1
v -0.8 0.1 -1.1
v -0.8 0.2 -1.1
v -0.7 0 -1.1
v -0.7 0.1 -1.1
v -0.7 0.2 -1.1
v -0.7 0.3 -1.1
v -0.5 0.2 -1.1
v -0.4 0.2 -1.1
v -0.4 0.3 -1.1
v 0.4 0.2 -1.1
v 0.4 0.3 -1.1
v 0.5 0.2 -1.1
v 0.7 0 -1.1
v 0.7 0.1 -1.1
v 0.7 0.2 -1.1
v 0.7 0.3 -1.1
v 0.8 0 -1.1
v 0.8 0.1 -1.1
v 0.8 0.2 -1.1
v -0.7 0 -1.2
v -0.7 0.1 -1.2
v -0.7 0.2 -1.2
v -0.5 0.1 -1.2
v -0.5 0.2 -1.2
v -0.4 0 -1.2
v -0.4 0.2 -1.2
v -0.4 0.3 -1.2
v -0.2 0.2 -1.2
v -0.2 0.3 -1.2
v 0.2 0.2 -1.2
v 0.2 0.3 -1.2
v 0.4 0 -1.2
v 0.4 0.2 -1.2
v 0.4 0.3 -1.2
v 0.5 0.1 -1.2
v 0.5 0.2 -1.2
v 0.7 0 -1.2
v 0.7 0.1 -1.2
v 0.7 0.2 -1.2
v -0.4 0 -1.3
v -0.4 0.2 -1.3
v -0.2 0 -1.3
v -0.2 0.2 -1.3
v -0.2 0.3 -1.3
v -0.0999999 0.2 -1.3
v -0.0999999 0.3 -1.3
v 0.1 0.2 -1.3
v 0.1 0.3 -1.3
v 0.2 0 -1.3
v 0.2 0.2 -1.3
v 0.2 0.3 -1.3
v 0.4 0 -1.3
v 0.4 0.2 -1.3
v -0.2 0.1 -1.5
v -0.2 0.2 -1.5
v -0.0999999 0.1 -1.5
v -0.0999999 0.2 -1.5
v -0.0999999 0.3 -1.5
v 0.1 0.1 -1.5
v 0.1 0.2 -1.5
v 0.1 0.3 -1.5
v 0.2 0.1 -1.5
v 0.2 0.2 -1.5
v -0.2 0 -1.6
v -0.2 0.1 -1.6
v -0.0999999 0 -1.6
v -0.0999999 0.1 -1.6
v -0.0999999 0.2 -1.6
v 0.1 0 -1.6
v 0.1 0.1 -1.6
v 0.1 0.2 -1.6
v 0.2 0 -1.6
v 0.2 0.1 -1.6
v -0.0999999 0 -1.7
v -0.0999999 0.1 -1.7
v 0.1 0 -1.7
v 0.1 0.1 -1.7
v -0.0999999 0 1.7
v 0.1 0 1.7
v -0.2 0 1.6
v -0.0999999 0 1.6
v 0.1 0 1.6
v 0.2 0 1.6
v -0.4 0 1.3
v -0.2 0 1.3
v 0.2 0 1.3
v 0.4 0 1.3
v -0.7 0 1.2
v -0.4 0 1.2
v 0.4 0 1.2
v 0.7 0 1.2
v -0.8 0 1.1
v -0.7 0 1.1
v -0.3 0 1.1
v 0.3 0 1.1
v 0.7 0 1.1
v 0.8 0 1.1
v -1 0 1
v -0.8 0 1
v -0.5 0 1
v -0.3 0 1
v -0.0999999 0 1
v 0.1 0 1
v 0.3 0 1
v 0.5 0 1
v 0.8 0 1
v 1 0 1
v -0.7 0 0.9
v -0.5 0 0.9
v -0.3 0 0.9
v 0.3 0 0.9
v 0.5 0 0.9
v 0.7 0 0.9
v -1.1 0 0.8
v -1 0 0.8
v -0.8 0 0.8
v -0.7 0 0.8
v -0.5 0 0.8
v 0.5 0 0.8
v 0.7 0 0.8
v 0.8 0 0.8
v 1 0 0.8
v 1.1 0 0.8
v -1.2 0 0.7
v -1.1 0 0.7
v -0.9 0 0.7
v -0.8 0 0.7
v -0.7 0 0.7
v 0.7 0 0.7
v 0.8 0 0.7
v 0.9 0 0.7
v 1.1 0 0.7
v 1.2 0 0.7
v -1 0 0.5
v -0.9 0 0.5
v -0.8 0 0.5
v 0.8 0 0.5
v 0.9 0 0.5
v 1 0 0.5
v -1.3 0 0.4
v -1.2 0 0.4
v 1.2 0 0.4
v 1.3 0 0.4
v -1.1 0 0.3
v -1 0 0.3
v -0.9 0 0.3
v 0.9 0 0.3
v 1 0 0.3
v 1.1 0 0.3
v -1.6 0 0.2
v -1.3 0 0.2
v 1.3 0 0.2
v 1.6 0 0.2
v -1.7 0 0.0999999
v -1.6 0 0.0999999
v -1 0 0.0999999
v -0.0999999 0 0.0999999
v 0.1 0 0.0999999
v 1 0 0.0999999
v 1.6 0 0.0999999
v 1.7 0 0.0999999
v -1.7 0 -0.1
v -1.6 0 -0.1
v -1 0 -0.1
v -0.0999999 0 -0.1
v 0.1 0 -0.1
v 1 0 -0.1
v 1.6 0 -0.1
v 1.7 0 -0.1
v -1.6 0 -0.2
v -1.3 0 -0.2
v 1.3 0 -0.2
v 1.6 0 -0.2
v -1.1 0 -0.3
v -1 0 -0.3
v -0.9 0 -0.3
v 0.9 0 -0.3
v 1 0 -0.3
v 1.1 0 -0.3
v -1.3 0 -0.4
v -1.2 0 -0.4
v 1.2 0 -0.4
v 1.3 0 -0.4
v -1 0 -0.5
v -0.9 0 -0.5
v -0.8 0 -0.5
v 0.8 0 -0.5
v 0.9 0 -0.5
v 1 0 -0.5
v -1.2 0 -0.7
v -1.1 0 -0.7
v -0.9 0 -0.7
v -0.8 0 -0.7
v -0.7 0 -0.7
v 0.7 0 -0.7
v 0.8 0 -0.7
v 0.9 0 -0.7
v 1.1 0 -0.7
v 1.2 0 -0.7
v -1.1 0 -0.8
v -1 0 -0.8
v -0.8 0 -0.8
v -0.7 0 -0.8
v -0.5 0 -0.8
v 0.5 0 -0.8
v 0.7 0 -0.8
v 0.8 0 -0.8
v 1 0 -0.8
v 1.1 0 -0.8
v -0.7 0 -0.9
v -0.5 0 -0.9
v -0.3 0 -0.9
v 0.3 0 -0.9
v 0.5 0 -0.9
v 0.7 0 -0.9
v -1 0 -1
v -0.8 0 -1
v -0.5 0 -1
v -0.3 0 -1
v -0.0999999 0 -1
v 0.1 0 -1
v 0.3 0 -1
v 0.5 0 -1
v 0.8 0 -1
v 1 0 -1
v -0.8 0 -1.1
v -0.7 0 -1.1
v -0.3 0 -1.1
v 0.3 0 -1.1
v 0.7 0 -1.1
v 0.8 0 -1.1
v -0.7 0 -1.2
v -0.4 0 -1.2
v 0.4 0 -1.2
v 0.7 0 -1.2
v -0.4 0 -1.3
v -0.2 0 -1.3
v 0.2 0 -1.3
v 0.4 0 -1.3
v -0.2 0 -1.6
v -0.0999999 0 -1.6
v 0.1 0 -1.6
v 0.2 0 -1.6
v -0.0999999 0 -1.7
v 0.1 0 -1.7
v -0.0999999 0.1 1.7
v 0.1 0.1 1.7
v -0.2 0.1 1.6
v -0.0999999 0.1 1.6
v 0.1 0.1 1.6
v 0.2 0.1 1.6
v -0.2 0.1 1.5
v -0.0999999 0.1 1.5
v 0.1 0.1 1.5
v 0.2 0.1 1.5
v -0.0999999 0.1 1
v 0.1 0.1 1
v -1.6 0.1 0.2
v -1.5 0.1 0.2
v 1.5 0.1 0.2
v 1.6 0.1 0.2
v -1.7 0.1 0.0999999
v -1.6 0.1 0.0999999
v -1.5 0.1 0.0999999
v -1 0.1 0.0999999
v -0.0999999 0.1 0.0999999
v 0.1 0.1 0.0999999
v 1 0.1 0.0999999
v 1.5 0.1 0.0999999
v 1.6 0.1 0.0999999
v 1.7 0.1 0.0999999
v -1.7 0.1 -0.1
v -1.6 0.1 -0.1
v -1.5 0.1 -0.1
v -1 0.1 -0.1
v -0.0999999 0.1 -0.1
v 0.1 0.1 -0.1
v 1 0.1 -0.1
v 1.5 0.1 -0.1
v 1.6 0.1 -0.1
v 1.7 0.1 -0.1
v -1.6 0.1 -0.2
v -1.5 0.1 -0.2
v 1.5 0.1 -0.2
v 1.6 0.1 -0.2
v -0.0999999 0.1 -1
v 0.1 0.1 -1
v -0.2 0.1 -1.5
v -0.0999999 0.1 -1.5
v 0.1 0.1 -1.5
v 0.2 0.1 -1.5
v -0.2 0.1 -1.6
v -0.0999999 0.1 -1.6
v 0.1 0.1 -1.6
v 0.2 0.1 -1.6
v -0.0999999 0.1 -1.7
v 0.1 0.1 -1.7
v -0.0999999 0.2 1.6
v 0.1 0.2 1.6
v -0.2 0.2 1.5
v -0.0999999 0.2 1.5
v 0.1 0.2 1.5
v 0.2 0.2 1.5
v -0.4 0.2 1.3
v -0.2 0.2 1.3
v -0.0999999 0.2 1.3
v 0.1 0.2 1.3
v 0.2 0.2 1.3
v 0.4 0.2 1.3
v -0.7 0.2 1.2
v -0.5 0.2 1.2
v -0.4 0.2 1.2
v -0.2 0.2 1.2
v 0.2 0.2 1.2
v 0.4 0.2 1.2
v 0.5 0.2 1.2
v 0.7 0.2 1.2
v -0.8 0.2 1.1
v -0.7 0.2 1.1
v -0.5 0.2 1.1
v -0.4 0.2 1.1
v 0.4 0.2 1.1
v 0.5 0.2 1.1
v 0.7 0.2 1.1
v 0.8 0.2 1.1
v -1 0.2 1
v -0.9 0.2 1
v -0.8 0.2 1
v -0.7 0.2 1
v 0.7 0.2 1
v 0.8 0.2 1
v 0.9 0.2 1
v 1 0.2 1
v -1 0.2 0.9
v -0.9 0.2 0.9
v -0.8 0.2 0.9
v 0.8 0.2 0.9
v 0.9 0.2 0.9
v 1 0.2 0.9
v -1.1 0.2 0.8
v -1 0.2 0.8
v -0.9 0.2 0.8
v 0.9 0.2 0.8
v 1 0.2 0.8
v 1.1 0.2 0.8
v -1.2 0.2 0.7
v -1.1 0.2 0.7
v -1 0.2 0.7
v 1 0.2 0.7
v 1.1 0.2 0.7
v 1.2 0.2 0.7
v -1.2 0.2 0.5
v -1.1 0.2 0.5
v 1.1 0.2 0.5
v 1.2 0.2 0.5
v -1.3 0.2 0.4
v -1.2 0.2 0.4
v -1.1 0.2 0.4
v 1.1 0.2 0.4
v 1.2 0.2 0.4
v 1.3 0.2 0.4
v -1.5 0.2 0.2
v -1.3 0.2 0.2
v -1.2 0.2 0.2
v 1.2 0.2 0.2
v 1.3 0.2 0.2
v 1.5 0.2 0.2
v -1.6 0.2 0.0999999
v -1.5 0.2 0.0999999
v -1.3 0.2 0.0999999
v 1.3 0.2 0.0999999
v 1.5 0.2 0.0999999
v 1.6 0.2 0.0999999
v -1.6 0.2 -0.1
v -1.5 0.2 -0.1
v -1.3 0.2 -0.1
v 1.3 0.2 -0.1
v 1.5 0.2 -0.1
v 1.6 0.2 -0.1
v -1.5 0.2 -0.2
v -1.3 0.2 -0.2
v -1.2 0.2 -0.2
v 1.2 0.2 -0.2
v 1.3 0.2 -0.2
v 1.5 0.2 -0.2
v -1.3 0.2 -0.4
v -1.2 0.2 -0.4
v -1.1 0.2 -0.4
v 1.1 0.2 -0.4
v 1.2 0.2 -0.4
v 1.3 0.2 -0.4
v -1.2 0.2 -0.5
v -1.1 0.2 -0.5
v 1.1 0.2 -0.5
v 1.2 0.2 -0.5
v -1.2 0.2 -0.7
v -1.1 0.2 -0.7
v -1 0.2 -0.7
v 1 0.2 -0.7
v 1.1 0.2 -0.7
v 1.2 0.2 -0.7
v -1.1 0.2 -0.8
v -1 0.2 -0.8
v -0.9 0.2 -0.8
v 0.9 0.2 -0.8
v 1 0.2 -0.8
v 1.1 0.2 -0.8
v -1 0.2 -0.9
v -0.9 0.2 -0.9
v -0.8 0.2 -0.9
v 0.8 0.2 -0.9
v 0.9 0.2 -0.9
v 1 0.2 -0.9
v -1 0.2 -1
v -0.9 0.2 -1
v -0.8 0.2 -1
v -0.7 0.2 -1
v 0.7 0.2 -1
v 0.8 0.2 -1
v 0.9 0.2 -1
v 1 0.2 -1
v -0.8 0.2 -1.1
v -0.7 0.2 -1.1
v -0.5 0.2 -1.1
v -0.4 0.2 -1.1
v 0.4 0.2 -1.1
v 0.5 0.2 -1.1
v 0.7 0.2 -1.1
v 0.8 0.2 -1.1
v -0.7 0.2 -1.2
v -0.5 0.2 -1.2
v -0.4 0.2 -1.2
v -0.2 0.2 -1.2
v 0.2 0.2 -1.2
v 0.4 0.2 -1.2
v 0.5 0.2 -1.2
v 0.7 0.2 -1.2
v -0.4 0.2 -1.3
v -0.2 0.2 -1.3
v -0.0999999 0.2 -1.3
v 0.1 0.2 -1.3
v 0.2 0.2 -1.3
v 0.4 0.2 -1.3
v -0.2 0.2 -1.5
v -0.0999999 0.2 -1.5
v 0.1 0.2 -1.5
v 0.2 0.2 -1.5
v -0.0999999 0.2 -1.6
v 0.1 0.2 -1.6
v -0.0999999 0.3 1.5
v 0.1 0.3 1.5
v -0.2 0.3 1.3
v -0.0999999 0.3 1.3
v 0.1 0.3 1.3
v 0.2 0.3 1.3
v -0.4 0.3 1.2
v -0.2 0.3 1.2
v 0.2 0.3 1.2
v 0.4 0.3 1.2
v -0.7 0.3 1.1
v -0.4 0.3 1.1
v -0.3 0.3 1.1
v 0.3 0.3 1.1
v 0.4 0.3 1.1
v 0.7 0.3 1.1
v -0.8 0.3 1
v -0.7 0.3 1
v -0.5 0.3 1
v -0.3 0.3 1
v 0.3 0.3 1
v 0.5 0.3 1
v 0.7 0.3 1
v 0.8 0.3 1
v -0.9 0.3 0.9
v -0.8 0.3 0.9
v -0.7 0.3 0.9
v -0.5 0.3 0.9
v -0.3 0.3 0.9
v 0.3 0.3 0.9
v 0.5 0.3 0.9
v 0.7 0.3 0.9
v 0.8 0.3 0.9
v 0.9 0.3 0.9
v -1 0.3 0.8
v -0.9 0.3 0.8
v -0.8 0.3 0.8
v -0.7 0.3 0.8
v -0.5 0.3 0.8
v 0.5 0.3 0.8
v 0.7 0.3 0.8
v 0.8 0.3 0.8
v 0.9 0.3 0.8
v 1 0.3 0.8
v -1.1 0.3 0.7
v -1 0.3 0.7
v -0.9 0.3 0.7
v -0.8 0.3 0.7
v -0.7 0.3 0.7
v 0.7 0.3 0.7
v 0.8 0.3 0.7
v 0.9 0.3 0.7
v 1 0.3 0.7
v 1.1 0.3 0.7
v -1 0.3 0.5
v -0.9 0.3 0.5
v -0.8 0.3 0.5
v 0.8 0.3 0.5
v 0.9 0.3 0.5
v 1 0.3 0.5
v -1.2 0.3 0.4
v -1.1 0.3 0.4
v 1.1 0.3 0.4
v 1.2 0.3 0.4
v -1.1 0.3 0.3
v -1 0.3 0.3
v -0.9 0.3 0.3
v 0.9 0.3 0.3
v 1 0.3 0.3
v 1.1 0.3 0.3
v -1.3 0.3 0.2
v -1.2 0.3 0.2
v 1.2 0.3 0.2
v 1.3 0.3 0.2
v -1.5 0.3 0.0999999
v -1.3 0.3 0.0999999
v 1.3 0.3 0.0999999
v 1.5 0.3 0.0999999
v -1.5 0.3 -0.1
v -1.3 0.3 -0.1
v 1.3 0.3 -0.1
v 1.5 0.3 -0.1
v -1.3 0.3 -0.2
v -1.2 0.3 -0.2
v 1.2 0.3 -0.2
v 1.3 0.3 -0.2
v -1.1 0.3 -0.3
v -1 0.3 -0.3
v -0.9 0.3 -0.3
v 0.9 0.3 -0.3
v 1 0.3 -0.3
v 1.1 0.3 -0.3
v -1.2 0.3 -0.4
v -1.1 0.3 -0.4
v 1.1 0.3 -0.4
v 1.2 0.3 -0.4
v -1 0.3 -0.5
v -0.9 0.3 -0.5
v -0.8 0.3 -0.5
v 0.8 0.3 -0.5
v 0.9 0.3 -0.5
v 1 0.3 -0.5
v -1.1 0.3 -0.7
v -1 0.3 -0.7
v -0.9 0.3 -0.7
v -0.8 0.3 -0.7
v -0.7 0.3 -0.7
v 0.7 0.3 -0.7
v 0.8 0.3 -0.7
v 0.9 0.3 -0.7
v 1 0.3 -0.7
v 1.1 0.3 -0.7
v -1 0.3 -0.8
v -0.9 0.3 -0.8
v -0.8 0.3 -0.8
v -0.7 0.3 -0.8
v -0.5 0.3 -0.8
v 0.5 0.3 -0.8
v 0.7 0.3 -0.8
v 0.8 0.3 -0.8
v 0.9 0.3 -0.8
v 1 0.3 -0.8
v -0.9 0.3 -0.9
v -0.8 0.3 -0.9
v -0.7 0.3 -0.9
v -0.5 0.3 -0.9
v -0.3 0.3 -0.9
v 0.3 0.3 -0.9
v 0.5 0.3 -0.9
v 0.7 0.3 -0.9
v 0.8 0.3 -0.9
v 0.9 0.3 -0.9
v -0.8 0.3 -1
v -0.7 0.3 -1
v -0.5 0.3 -1
v -0.3 0.3 -1
v 0.3 0.3 -1
v 0.5 0.3 -1
v 0.7 0.3 -1
v 0.8 0.3 -1
v -0.7 0.3 -1.1
v -0.4 0.3 -1.1
v -0.3 0.3 -1.1
v 0.3 0.3 -1.1
v 0.4 0.3 -1.1
v 0.7 0.3 -1.1
v -0.4 0.3 -1.2
v -0.2 0.3 -1.2
v 0.2 0.3 -1.2
v 0.4 0.3 -1.2
v -0.2 0.3 -1.3
v -0.0999999 0.3 -1.3
v 0.1 0.3 -1.3
v 0.2 0.3 -1.3
v -0.0999999 0.3 -1.5
v 0.1 0.3 -1.5

# faces
f 3/3/1 2/3/1 1/3/1
f 4/3/1 2/3/1 3/3/1
f 9/3/1 6/3/1 5/3/1
f 10/3/1 6/3/1 9/3/1
f 11/3/1 8/3/1 7/3/1
f 12/3/1 8/3/1 11/3/1
f 13/3/1 11/3/1 10/3/1
f 14/3/1 11/3/1 13/3/1
f 19/3/1 16/3/1 15/3/1
f 20/3/1 16/3/1 19/3/1
f 21/3/1 18/3/1 17/3/1
f 22/3/1 18/3/1 21/3/1
f 23/3/1 21/3/1 20/3/1
f 24/3/1 21/3/1 23/3/1
f 29/1/1 26/1/1 25/1/1
f 30/1/1 26/1/1 29/1/1
f 33/1/1 28/1/1 27/1/1
f 34/1/1 28/1/1 33/1/1
f 35/3/1 31/3/1 30/3/1
f 36/3/1 31/3/1 35/3/1
f 37/3/1 33/3/1 32/3/1
f 38/3/1 33/3/1 37/3/1
f 43/1/1 40/1/1 39/1/1
f 44/1/1 40/1/1 43/1/1
f 45/1/1 42/1/1 41/1/1
f 46/1/1 42/1/1 45/1/1
f 47/4/1 44/4/1 43/4/1
f 48/1/1 40/1/1 44/1/1
f 48/4/1 44/4/1 47/4/1
f 49/1/1 40/1/1 48/1/1
f 52/1/1 45/1/1 41/1/1
f 53/4/1 46/4/1 45/4/1
f 53/1/1 45/1/1 52/1/1
f 54/4/1 46/4/1 53/4/1
f 55/1/1 50/1/1 49/1/1
f 56/1/1 50/1/1 55/1/1
f 57/1/1 52/1/1 51/1/1
f 58/1/1 52/1/1 57/1/1
f 63/1/1 60/1/1 59/1/1
f 64/1/1 60/1/1 63/1/1
f 65/1/1 62/1/1 61/1/1
f 66/1/1 62/1/1 65/1/1
f 67/4/1 64/4/1 63/4/1
f 68/4/1 64/4/1 67/4/1
f 73/4/1 66/4/1 65/4/1
f 74/4/1 66/4/1 73/4/1
f 75/1/1 69/1/1 68/1/1
f 75/1/1 70/1/1 69/1/1
f 76/1/1 70/1/1 75/1/1
f 77/1/1 72/1/1 71/1/1
f 77/1/1 73/1/1 72/1/1
f 78/1/1 73/1/1 77/1/1
f 83/1/1 80/1/1 79/1/1
f 84/1/1 80/1/1 83/1/1
f 85/1/1 82/1/1 81/1/1
f 86/1/1 82/1/1 85/1/1
f 87/1/1 83/1/1 79/1/1
f 88/4/1 84/4/1 83/4/1
f 88/1/1 83/1/1 87/1/1
f 89/4/1 84/4/1 88/4/1
f 92/4/1 86/4/1 85/4/1
f 93/1/1 82/1/1 86/1/1
f 93/4/1 86/4/1 92/4/1
f 94/1/1 82/1/1 93/1/1
f 95/1/1 90/1/1 89/1/1
f 96/1/1 90/1/1 95/1/1
f 97/1/1 92/1/1 91/1/1
f 98/1/1 92/1/1 97/1/1
f 103/1/1 100/1/1 99/1/1
f 104/1/1 100/1/1 103/1/1
f 105/1/1 102/1/1 101/1/1
f 106/1/1 102/1/1 105/1/1
f 111/1/1 108/1/1 107/1/1
f 112/1/1 108/1/1 111/1/1
f 113/1/1 110/1/1 109/1/1
f 114/1/1 110/1/1 113/1/1
f 115/4/1 112/4/1 111/4/1
f 116/4/1 112/4/1 115/4/1
f 119/4/1 114/4/1 113/4/1
f 120/4/1 114/4/1 119/4/1
f 121/1/1 117/1/1 116/1/1
f 122/1/1 117/1/1 121/1/1
f 123/1/1 119/1/1 118/1/1
f 124/1/1 119/1/1 123/1/1
f 129/1/1 126/1/1 125/1/1
f 130/1/1 126/1/1 129/1/1
f 131/1/1 128/1/1 127/1/1
f 132/1/1 128/1/1 131/1/1
f 133/4/1 130/4/1 129/4/1
f 134/4/1 130/4/1 133/4/1
f 137/4/1 132/4/1 131/4/1
f 138/4/1 132/4/1 137/4/1
f 139/1/1 135/1/1 134/1/1
f 140/1/1 135/1/1 139/1/1
f 141/1/1 137/1/1 136/1/1
f 142/1/1 137/1/1 141/1/1
f 147/1/1 144/1/1 143/1/1
f 148/1/1 144/1/1 147/1/1
f 151/1/1 146/1/1 145/1/1
f 152/1/1 146/1/1 151/1/1
f 153/1/1 149/1/1 148/1/1
f 154/1/1 149/1/1 153/1/1
f 155/1/1 151/1/1 150/1/1
f 156/1/1 151/1/1 155/1/1
f 161/3/1 158/3/1 157/3/1
f 162/3/1 158/3/1 161/3/1
f 163/3/1 160/3/1 159/3/1
f 164/3/1 160/3/1 163/3/1
f 165/3/1 158/3/1 162/3/1
f 166/3/1 158/3/1 165/3/1
f 169/3/1 163/3/1 159/3/1
f 170/3/1 163/3/1 169/3/1
f 171/3/1 167/3/1 166/3/1
f 172/3/1 167/3/1 171/3/1
f 173/3/1 169/3/1 168/3/1
f 174/3/1 169/3/1 173/3/1
f 183/3/1 176/3/1 175/3/1
f 184/3/1 176/3/1 183/3/1
f 186/3/1 178/3/1 177/3/1
f 187/3/1 178/3/1 186/3/1
f 188/3/1 180/3/1 179/3/1
f 189/3/1 180/3/1 188/3/1
f 191/3/1 182/3/1 181/3/1
f 192/3/1 182/3/1 191/3/1
f 193/3/1 185/3/1 184/3/1
f 194/3/1 185/3/1 193/3/1
f 197/3/1 191/3/1 190/3/1
f 198/3/1 191/3/1 197/3/1
f 199/3/1 195/3/1 194/3/1
f 200/3/1 195/3/1 199/3/1
f 201/3/1 197/3/1 196/3/1
f 202/3/1 197/3/1 201/3/1
f 207/2/1 204/2/1 203/2/1
f 208/2/1 204/2/1 207/2/1
f 209/2/1 206/2/1 205/2/1
f 210/2/1 206/2/1 209/2/1
f 215/2/1 212/2/1 211/2/1
f 216/2/1 212/2/1 215/2/1
f 217/2/1 214/2/1 213/2/1
f 218/2/1 214/2/1 217/2/1
f 223/2/1 220/2/1 219/2/1
f 224/2/1 220/2/1 223/2/1
f 225/2/1 222/2/1 221/2/1
f 226/2/1 222/2/1 225/2/1
f 231/2/1 228/2/1 227/2/1
f 232/2/1 228/2/1 231/2/1
f 233/2/1 230/2/1 229/2/1
f 234/2/1 230/2/1 233/2/1
f 239/2/1 236/2/1 235/2/1
f 240/2/1 236/2/1 239/2/1
f 241/2/1 238/2/1 237/2/1
f 242/2/1 238/2/1 241/2/1
f 247/2/1 244/2/1 243/2/1
f 248/2/1 246/2/1 245/2/1
f 249/2/1 247/2/1 243/2/1
f 249/2/1 248/2/1 247/2/1
f 250/2/1 246/2/1 248/2/1
f 250/2/1 248/2/1 249/2/1
f 251/2/2 252/2/2 255/2/2
f 253/2/2 254/2/2 256/2/2
f 251/2/2 255/2/2 257/2/2
f 255/2/2 256/2/2 257/2/2
f 256/2/2 254/2/2 258/2/2
f 257/2/2 256/2/2 258/2/2
f 259/2/2 260/2/2 263/2/2
f 263/2/2 260/2/2 264/2/2
f 261/2/2 262/2/2 265/2/2
f 265/2/2 262/2/2 266/2/2
f 267/2/2 268/2/2 271/2/2
f 271/2/2 268/2/2 272/2/2
f 269/2/2 270/2/2 273/2/2
f 273/2/2 270/2/2 274/2/2
f 275/2/2 276/2/2 279/2/2
f 279/2/2 276/2/2 280/2/2
f 277/2/2 278/2/2 281/2/2
f 281/2/2 278/2/2 282/2/2
f 283/2/2 284/2/2 287/2/2
f 287/2/2 284/2/2 288/2/2
f 285/2/2 286/2/2 289/2/2
f 289/2/2 286/2/2 290/2/2
f 291/2/2 292/2/2 295/2/2
f 295/2/2 292/2/2 296/2/2
f 293/2/2 294/2/2 297/2/2
f 297/2/2 294/2/2 298/2/2
f 299/3/2 300/3/2 307/3/2
f 307/3/2 300/3/2 308/3/2
f 301/3/2 302/3/2 310/3/2
f 310/3/2 302/3/2 311/3/2
f 303/3/2 304/3/2 312/3/2
f 312/3/2 304/3/2 313/3/2
f 305/3/2 306/3/2 315/3/2
f 315/3/2 306/3/2 316/3/2
f 308/3/2 309/3/2 317/3/2
f 317/3/2 309/3/2 318/3/2
f 314/3/2 315/3/2 321/3/2
f 321/3/2 315/3/2 322/3/2
f 318/3/2 319/3/2 323/3/2
f 323/3/2 319/3/2 324/3/2
f 320/3/2 321/3/2 325/3/2
f 325/3/2 321/3/2 326/3/2
f 327/3/2 328/3/2 331/3/2
f 331/3/2 328/3/2 332/3/2
f 329/3/2 330/3/2 333/3/2
f 333/3/2 330/3/2 334/3/2
f 332/3/2 328/3/2 335/3/2
f 335/3/2 328/3/2 336/3/2
f 329/3/2 333/3/2 339/3/2
f 339/3/2 333/3/2 340/3/2
f 336/3/2 337/3/2 341/3/2
f 341/3/2 337/3/2 342/3/2
f 338/3/2 339/3/2 343/3/2
f 343/3/2 339/3/2 344/3/2
f 345/1/2 346/1/2 349/1/2
f 349/1/2 346/1/2 350/1/2
f 347/1/2 348/1/2 353/1/2
f 353/1/2 348/1/2 354/1/2
f 350/1/2 351/1/2 355/1/2
f 355/1/2 351/1/2 356/1/2
f 352/1/2 353/1/2 357/1/2
f 357/1/2 353/1/2 358/1/2
f 359/1/2 360/1/2 363/1/2
f 363/1/2 360/1/2 364/1/2
f 361/1/2 362/1/2 365/1/2
f 365/1/2 362/1/2 366/1/2
f 363/4/2 364/4/2 367/4/2
f 367/4/2 364/4/2 368/4/2
f 365/4/2 366/4/2 371/4/2
f 371/4/2 366/4/2 372/4/2
f 368/1/2 369/1/2 373/1/2
f 373/1/2 369/1/2 374/1/2
f 370/1/2 371/1/2 375/1/2
f 375/1/2 371/1/2 376/1/2
f 377/1/2 378/1/2 381/1/2
f 381/1/2 378/1/2 382/1/2
f 379/1/2 380/1/2 383/1/2
f 383/1/2 380/1/2 384/1/2
f 381/4/2 382/4/2 385/4/2
f 385/4/2 382/4/2 386/4/2
f 383/4/2 384/4/2 389/4/2
f 389/4/2 384/4/2 390/4/2
f 386/1/2 387/1/2 391/1/2
f 391/1/2 387/1/2 392/1/2
f 388/1/2 389/1/2 393/1/2
f 393/1/2 389/1/2 394/1/2
f 395/1/2 396/1/2 399/1/2
f 399/1/2 396/1/2 400/1/2
f 397/1/2 398/1/2 401/1/2
f 401/1/2 398/1/2 402/1/2
f 403/1/2 404/1/2 407/1/2
f 407/1/2 404/1/2 408/1/2
f 405/1/2 406/1/2 409/1/2
f 409/1/2 406/1/2 410/1/2
f 403/1/2 407/1/2 411/1/2
f 407/4/2 408/4/2 412/4/2
f 411/1/2 407/1/2 412/1/2
f 412/4/2 408/4/2 413/4/2
f 409/4/2 410/4/2 416/4/2
f 410/1/2 406/1/2 417/1/2
f 416/4/2 410/4/2 417/4/2
f 417/1/2 406/1/2 418/1/2
f 413/1/2 414/1/2 419/1/2
f 419/1/2 414/1/2 420/1/2
f 415/1/2 416/1/2 421/1/2
f 421/1/2 416/1/2 422/1/2
f 423/1/2 424/1/2 427/1/2
f 427/1/2 424/1/2 428/1/2
f 425/1/2 426/1/2 429/1/2
f 429/1/2 426/1/2 430/1/2
f 427/4/2 428/4/2 431/4/2
f 431/4/2 428/4/2 432/4/2
f 429/4/2 430/4/2 437/4/2
f 437/4/2 430/4/2 438/4/2
f 432/1/2 433/1/2 439/1/2
f 433/1/2 434/1/2 439/1/2
f 439/1/2 434/1/2 440/1/2
f 435/1/2 436/1/2 441/1/2
f 436/1/2 437/1/2 441/1/2
f 441/1/2 437/1/2 442/1/2
f 443/1/2 444/1/2 447/1/2
f 447/1/2 444/1/2 448/1/2
f 445/1/2 446/1/2 449/1/2
f 449/1/2 446/1/2 450/1/2
f 447/4/2 448/4/2 451/4/2
f 448/1/2 444/1/2 452/1/2
f 451/4/2 448/4/2 452/4/2
f 452/1/2 444/1/2 453/1/2
f 445/1/2 449/1/2 456/1/2
f 449/4/2 450/4/2 457/4/2
f 456/1/2 449/1/2 457/1/2
f 457/4/2 450/4/2 458/4/2
f 453/1/2 454/1/2 459/1/2
f 459/1/2 454/1/2 460/1/2
f 455/1/2 456/1/2 461/1/2
f 461/1/2 456/1/2 462/1/2
f 463/1/2 464/1/2 467/1/2
f 467/1/2 464/1/2 468/1/2
f 465/1/2 466/1/2 471/1/2
f 471/1/2 466/1/2 472/1/2
f 468/3/2 469/3/2 473/3/2
f 473/3/2 469/3/2 474/3/2
f 470/3/2 471/3/2 475/3/2
f 475/3/2 471/3/2 476/3/2
f 477/3/2 478/3/2 481/3/2
f 481/3/2 478/3/2 482/3/2
f 479/3/2 480/3/2 483/3/2
f 483/3/2 480/3/2 484/3/2
f 482/3/2 483/3/2 485/3/2
f 485/3/2 483/3/2 486/3/2
f 487/3/2 488/3/2 491/3/2
f 491/3/2 488/3/2 492/3/2
f 489/3/2 490/3/2 493/3/2
f 493/3/2 490/3/2 494/3/2
f 492/3/2 493/3/2 495/3/2
f 495/3/2 493/3/2 496/3/2
f 497/3/2 498/3/2 499/3/2
f 499/3/2 498/3/2 500/3/2
f 503/3/3 502/3/3 501/3/3
f 504/3/3 502/3/3 503/3/3
f 507/3/3 506/3/3 505/3/3
f 508/3/3 506/3/3 507/3/3
f 511/3/3 509/3/3 508/3/3
f 512/3/3 509/3/3 511/3/3
f 513/3/3 511/3/3 510/3/3
f 514/3/3 511/3/3 513/3/3
f 517/3/3 516/3/3 515/3/3
f 518/3/3 516/3/3 517/3/3
f 521/3/3 519/3/3 518/3/3
f 522/3/3 519/3/3 521/3/3
f 523/3/3 521/3/3 520/3/3
f 524/3/3 521/3/3 523/3/3
f 527/1/3 526/1/3 525/1/3
f 528/1/3 526/1/3 527/1/3
f 530/3/3 529/3/3 528/3/3
f 531/3/3 529/3/3 530/3/3
f 535/3/3 533/3/3 532/3/3
f 536/3/3 533/3/3 535/3/3
f 537/1/3 535/1/3 534/1/3
f 538/1/3 535/1/3 537/1/3
f 542/1/3 540/1/3 539/1/3
f 542/4/3 541/4/3 540/4/3
f 543/4/3 541/4/3 542/4/3
f 544/1/3 542/1/3 539/1/3
f 544/1/3 543/1/3 542/1/3
f 545/1/3 543/1/3 544/1/3
f 547/1/3 546/1/3 545/1/3
f 548/1/3 546/1/3 547/1/3
f 552/1/3 550/1/3 549/1/3
f 553/1/3 550/1/3 552/1/3
f 554/1/3 552/1/3 551/1/3
f 555/1/3 552/1/3 554/1/3
f 556/1/3 554/1/3 551/1/3
f 557/4/3 555/4/3 554/4/3
f 557/1/3 554/1/3 556/1/3
f 558/4/3 555/4/3 557/4/3
f 562/1/3 560/1/3 559/1/3
f 563/4/3 561/4/3 560/4/3
f 563/1/3 560/1/3 562/1/3
f 564/4/3 561/4/3 563/4/3
f 566/1/3 565/1/3 564/1/3
f 567/1/3 565/1/3 566/1/3
f 568/1/3 565/1/3 567/1/3
f 571/1/3 570/1/3 569/1/3
f 574/1/3 570/1/3 571/1/3
f 575/1/3 570/1/3 574/1/3
f 576/1/3 573/1/3 572/1/3
f 577/4/3 574/4/3 573/4/3
f 577/1/3 573/1/3 576/1/3
f 578/4/3 574/4/3 577/4/3
f 581/1/3 580/1/3 579/1/3
f 582/1/3 580/1/3 581/1/3
f 583/1/3 581/1/3 579/1/3
f 584/4/3 582/4/3 581/4/3
f 584/1/3 581/1/3 583/1/3
f 585/4/3 582/4/3 584/4/3
f 587/1/3 586/1/3 585/1/3
f 588/1/3 586/1/3 587/1/3
f 593/1/3 590/1/3 589/1/3
f 594/1/3 590/1/3 593/1/3
f 595/1/3 592/1/3 591/1/3
f 595/4/3 593/4/3 592/4/3
f 596/4/3 593/4/3 595/4/3
f 597/1/3 595/1/3 591/1/3
f 597/1/3 596/1/3 595/1/3
f 598/1/3 596/1/3 597/1/3
f 601/1/3 600/1/3 599/1/3
f 602/1/3 600/1/3 601/1/3
f 605/1/3 604/1/3 603/1/3
f 606/1/3 604/1/3 605/1/3
f 610/1/3 608/1/3 607/1/3
f 611/4/3 609/4/3 608/4/3
f 611/1/3 608/1/3 610/1/3
f 612/4/3 609/4/3 611/4/3
f 614/1/3 613/1/3 612/1/3
f 615/1/3 613/1/3 614/1/3
f 620/1/3 617/1/3 616/1/3
f 621/1/3 617/1/3 620/1/3
f 622/1/3 619/1/3 618/1/3
f 623/4/3 620/4/3 619/4/3
f 623/1/3 619/1/3 622/1/3
f 624/4/3 620/4/3 623/4/3
f 628/1/3 626/1/3 625/1/3
f 629/4/3 627/4/3 626/4/3
f 629/1/3 626/1/3 628/1/3
f 630/4/3 627/4/3 629/4/3
f 632/1/3 631/1/3 630/1/3
f 633/1/3 631/1/3 632/1/3
f 638/1/3 635/1/3 634/1/3
f 639/1/3 635/1/3 638/1/3
f 640/1/3 637/1/3 636/1/3
f 641/4/3 638/4/3 637/4/3
f 641/1/3 637/1/3 640/1/3
f 642/4/3 638/4/3 641/4/3
f 645/1/3 644/1/3 643/1/3
f 646/1/3 644/1/3 645/1/3
f 648/1/3 647/1/3 646/1/3
f 649/1/3 647/1/3 648/1/3
f 653/1/3 651/1/3 650/1/3
f 654/1/3 651/1/3 653/1/3
f 655/1/3 653/1/3 652/1/3
f 656/1/3 653/1/3 655/1/3
f 659/3/3 658/3/3 657/3/3
f 661/3/3 659/3/3 657/3/3
f 661/3/3 660/3/3 659/3/3
f 662/3/3 660/3/3 661/3/3
f 664/3/3 663/3/3 662/3/3
f 665/3/3 663/3/3 664/3/3
f 669/3/3 667/3/3 666/3/3
f 670/3/3 667/3/3 669/3/3
f 671/3/3 669/3/3 668/3/3
f 672/3/3 669/3/3 671/3/3
f 673/3/3 671/3/3 668/3/3
f 674/3/3 671/3/3 673/3/3
f 677/3/3 676/3/3 675/3/3
f 678/3/3 676/3/3 677/3/3
f 680/3/3 679/3/3 678/3/3
f 681/3/3 679/3/3 680/3/3
f 683/3/3 682/3/3 681/3/3
f 684/3/3 682/3/3 683/3/3
f 687/3/3 686/3/3 685/3/3
f 688/3/3 686/3/3 687/3/3
f 691/3/3 690/3/3 689/3/3
f 692/3/3 690/3/3 691/3/3
f 696/3/3 694/3/3 693/3/3
f 697/3/3 694/3/3 696/3/3
f 699/3/3 696/3/3 695/3/3
f 700/3/3 696/3/3 699/3/3
f 701/3/3 699/3/3 698/3/3
f 702/3/3 699/3/3 701/3/3
f 705/2/3 704/2/3 703/2/3
f 706/2/3 704/2/3 705/2/3
f 709/2/3 708/2/3 707/2/3
f 710/2/3 708/2/3 709/2/3
f 713/2/3 712/2/3 711/2/3
f 714/2/3 712/2/3 713/2/3
f 717/2/3 716/2/3 715/2/3
f 718/2/3 716/2/3 717/2/3
f 721/2/3 720/2/3 719/2/3
f 722/2/3 720/2/3 721/2/3
f 725/2/3 724/2/3 723/2/3
f 726/2/3 724/2/3 725/2/3
f 729/2/3 728/2/3 727/2/3
f 730/2/3 728/2/3 729/2/3
f 733/2/3 732/2/3 731/2/3
f 734/2/3 732/2/3 733/2/3
f 737/2/3 736/2/3 735/2/3
f 738/2/3 736/2/3 737/2/3
f 741/2/3 740/2/3 739/2/3
f 742/2/3 740/2/3 741/2/3
f 745/2/3 744/2/3 743/2/3
f 746/2/3 744/2/3 745/2/3
f 748/2/3 744/2/3 746/2/3
f 749/2/3 748/2/3 747/2/3
f 750/2/3 744/2/3 748/2/3
f 750/2/3 748/2/3 749/2/3
f 751/2/4 752/2/4 753/2/4
f 753/2/4 752/2/4 754/2/4
f 754/2/4 752/2/4 756/2/4
f 755/2/4 756/2/4 757/2/4
f 756/2/4 752/2/4 758/2/4
f 757/2/4 756/2/4 758/2/4
f 759/2/4 760/2/4 761/2/4
f 761/2/4 760/2/4 762/2/4
f 763/2/4 764/2/4 765/2/4
f 765/2/4 764/2/4 766/2/4
f 767/2/4 768/2/4 769/2/4
f 769/2/4 768/2/4 770/2/4
f 771/2/4 772/2/4 773/2/4
f 773/2/4 772/2/4 774/2/4
f 775/2/4 776/2/4 777/2/4
f 777/2/4 776/2/4 778/2/4
f 779/2/4 780/2/4 781/2/4
f 781/2/4 780/2/4 782/2/4
f 783/2/4 784/2/4 785/2/4
f 785/2/4 784/2/4 786/2/4
f 787/2/4 788/2/4 789/2/4
f 789/2/4 788/2/4 790/2/4
f 791/2/4 792/2/4 793/2/4
f 793/2/4 792/2/4 794/2/4
f 795/2/4 796/2/4 797/2/4
f 797/2/4 796/2/4 798/2/4
f 799/3/4 800/3/4 801/3/4
f 801/3/4 800/3/4 802/3/4
f 802/3/4 803/3/4 804/3/4
f 804/3/4 803/3/4 805/3/4
f 805/3/4 806/3/4 807/3/4
f 807/3/4 806/3/4 808/3/4
f 809/3/4 810/3/4 811/3/4
f 811/3/4 810/3/4 812/3/4
f 813/3/4 814/3/4 815/3/4
f 815/3/4 814/3/4 816/3/4
f 817/3/4 818/3/4 820/3/4
f 820/3/4 818/3/4 821/3/4
f 819/3/4 820/3/4 823/3/4
f 823/3/4 820/3/4 824/3/4
f 822/3/4 823/3/4 825/3/4
f 825/3/4 823/3/4 826/3/4
f 827/3/4 828/3/4 829/3/4
f 827/3/4 829/3/4 831/3/4
f 829/3/4 830/3/4 831/3/4
f 831/3/4 830/3/4 832/3/4
f 832/3/4 833/3/4 834/3/4
f 834/3/4 833/3/4 835/3/4
f 836/3/4 837/3/4 839/3/4
f 839/3/4 837/3/4 840/3/4
f 838/3/4 839/3/4 841/3/4
f 841/3/4 839/3/4 842/3/4
f 838/3/4 841/3/4 843/3/4
f 843/3/4 841/3/4 844/3/4
f 845/1/4 846/1/4 847/1/4
f 847/1/4 846/1/4 848/1/4
f 848/1/4 849/1/4 850/1/4
f 850/1/4 849/1/4 851/1/4
f 852/1/4 853/1/4 855/1/4
f 855/1/4 853/1/4 856/1/4
f 854/1/4 855/1/4 857/1/4
f 857/1/4 855/1/4 858/1/4
f 859/1/4 860/1/4 862/1/4
f 860/4/4 861/4/4 863/4/4
f 862/1/4 860/1/4 863/1/4
f 863/4/4 861/4/4 864/4/4
f 864/1/4 865/1/4 866/1/4
f 866/1/4 865/1/4 867/1/4
f 868/1/4 869/1/4 872/1/4
f 872/1/4 869/1/4 873/1/4
f 870/1/4 871/1/4 874/1/4
f 871/4/4 872/4/4 875/4/4
f 874/1/4 871/1/4 875/1/4
f 875/4/4 872/4/4 876/4/4
f 877/1/4 878/1/4 880/1/4
f 878/4/4 879/4/4 881/4/4
f 880/1/4 878/1/4 881/1/4
f 881/4/4 879/4/4 882/4/4
f 882/1/4 883/1/4 884/1/4
f 884/1/4 883/1/4 885/1/4
f 886/1/4 887/1/4 890/1/4
f 890/1/4 887/1/4 891/1/4
f 888/1/4 889/1/4 892/1/4
f 889/4/4 890/4/4 893/4/4
f 892/1/4 889/1/4 893/1/4
f 893/4/4 890/4/4 894/4/4
f 895/1/4 896/1/4 897/1/4
f 897/1/4 896/1/4 898/1/4
f 899/1/4 900/1/4 901/1/4
f 901/1/4 900/1/4 902/1/4
f 903/1/4 904/1/4 905/1/4
f 905/1/4 904/1/4 906/1/4
f 903/1/4 905/1/4 907/1/4
f 905/4/4 906/4/4 908/4/4
f 907/1/4 905/1/4 908/1/4
f 908/4/4 906/4/4 909/4/4
f 909/1/4 910/1/4 911/1/4
f 911/1/4 910/1/4 912/1/4
f 913/1/4 914/1/4 917/1/4
f 917/1/4 914/1/4 918/1/4
f 915/1/4 916/1/4 919/1/4
f 916/4/4 917/4/4 919/4/4
f 919/4/4 917/4/4 920/4/4
f 915/1/4 919/1/4 921/1/4
f 919/1/4 920/1/4 921/1/4
f 921/1/4 920/1/4 922/1/4
f 923/1/4 924/1/4 926/1/4
f 924/4/4 925/4/4 927/4/4
f 926/1/4 924/1/4 927/1/4
f 927/4/4 925/4/4 928/4/4
f 928/1/4 929/1/4 930/1/4
f 930/1/4 929/1/4 931/1/4
f 931/1/4 929/1/4 932/1/4
f 933/1/4 934/1/4 935/1/4
f 935/1/4 934/1/4 938/1/4
f 938/1/4 934/1/4 939/1/4
f 936/1/4 937/1/4 940/1/4
f 937/4/4 938/4/4 941/4/4
f 940/1/4 937/1/4 941/1/4
f 941/4/4 938/4/4 942/4/4
f 943/1/4 944/1/4 946/1/4
f 944/4/4 945/4/4 946/4/4
f 946/4/4 945/4/4 947/4/4
f 943/1/4 946/1/4 948/1/4
f 946/1/4 947/1/4 948/1/4
f 948/1/4 947/1/4 949/1/4
f 949/1/4 950/1/4 951/1/4
f 951/1/4 950/1/4 952/1/4
f 953/1/4 954/1/4 956/1/4
f 956/1/4 954/1/4 957/1/4
f 955/1/4 956/1/4 958/1/4
f 958/1/4 956/1/4 959/1/4
f 955/1/4 958/1/4 960/1/4
f 958/4/4 959/4/4 961/4/4
f 960/1/4 958/1/4 961/1/4
f 961/4/4 959/4/4 962/4/4
f 963/1/4 964/1/4 965/1/4
f 965/1/4 964/1/4 966/1/4
f 966/3/4 967/3/4 968/3/4
f 968/3/4 967/3/4 969/3/4
f 970/3/4 971/3/4 973/3/4
f 973/3/4 971/3/4 974/3/4
f 972/1/4 973/1/4 975/1/4
f 975/1/4 973/1/4 976/1/4
f 977/3/4 978/3/4 979/3/4
f 979/3/4 978/3/4 980/3/4
f 980/3/4 981/3/4 983/3/4
f 983/3/4 981/3/4 984/3/4
f 982/3/4 983/3/4 985/3/4
f 985/3/4 983/3/4 986/3/4
f 987/3/4 988/3/4 989/3/4
f 989/3/4 988/3/4 990/3/4
f 990/3/4 991/3/4 993/3/4
f 993/3/4 991/3/4 994/3/4
f 992/3/4 993/3/4 995/3/4
f 995/3/4 993/3/4 996/3/4
f 997/3/4 998/3/4 999/3/4
f 999/3/4 998/3/4 1000/3/4
f 1004/3/5 1002/3/5 1001/3/5
f 1005/3/5 1002/3/5 1004/3/5
f 1008/3/5 1004/3/5 1003/3/5
f 1008/3/5 1006/3/5 1005/3/5
f 1008/3/5 1005/3/5 1004/3/5
f 1009/3/5 1006/3/5 1008/3/5
f 1012/1/5 1008/1/5 1007/1/5
f 1012/1/5 1010/1/5 1009/1/5
f 1012/1/5 1009/1/5 1008/1/5
f 1013/1/5 1010/1/5 1012/1/5
f 1016/1/5 1012/1/5 1011/1/5
f 1016/1/5 1014/1/5 1013/1/5
f 1016/1/5 1013/1/5 1012/1/5
f 1017/1/5 1014/1/5 1016/1/5
f 1018/1/5 1014/1/5 1017/1/5
f 1019/1/5 1014/1/5 1018/1/5
f 1022/1/5 1016/1/5 1015/1/5
f 1022/1/5 1017/1/5 1016/1/5
f 1023/1/5 1017/1/5 1022/1/5
f 1024/2/5 1018/2/5 1017/2/5
f 1024/1/5 1017/1/5 1023/1/5
f 1025/2/5 1018/2/5 1024/2/5
f 1026/2/5 1018/2/5 1025/2/5
f 1027/1/5 1020/1/5 1019/1/5
f 1027/2/5 1018/2/5 1026/2/5
f 1027/1/5 1019/1/5 1018/1/5
f 1028/1/5 1020/1/5 1027/1/5
f 1029/1/5 1020/1/5 1028/1/5
f 1031/1/5 1023/1/5 1022/1/5
f 1031/1/5 1022/1/5 1021/1/5
f 1032/2/5 1024/2/5 1023/2/5
f 1032/1/5 1023/1/5 1031/1/5
f 1033/2/5 1024/2/5 1032/2/5
f 1034/2/5 1028/2/5 1027/2/5
f 1035/1/5 1030/1/5 1029/1/5
f 1035/2/5 1028/2/5 1034/2/5
f 1035/1/5 1029/1/5 1028/1/5
f 1036/1/5 1030/1/5 1035/1/5
f 1038/1/5 1031/1/5 1021/1/5
f 1039/1/5 1031/1/5 1038/1/5
f 1040/2/5 1032/2/5 1031/2/5
f 1040/1/5 1031/1/5 1039/1/5
f 1041/2/5 1032/2/5 1040/2/5
f 1042/2/5 1036/2/5 1035/2/5
f 1043/1/5 1030/1/5 1036/1/5
f 1043/2/5 1036/2/5 1042/2/5
f 1044/1/5 1030/1/5 1043/1/5
f 1045/1/5 1030/1/5 1044/1/5
f 1048/1/5 1039/1/5 1038/1/5
f 1048/1/5 1038/1/5 1037/1/5
f 1049/1/5 1039/1/5 1048/1/5
f 1050/2/5 1040/2/5 1039/2/5
f 1050/1/5 1039/1/5 1049/1/5
f 1051/2/5 1040/2/5 1050/2/5
f 1052/2/5 1044/2/5 1043/2/5
f 1053/1/5 1046/1/5 1045/1/5
f 1053/2/5 1044/2/5 1052/2/5
f 1053/1/5 1045/1/5 1044/1/5
f 1054/1/5 1046/1/5 1053/1/5
f 1055/1/5 1046/1/5 1054/1/5
f 1057/1/5 1049/1/5 1048/1/5
f 1057/1/5 1048/1/5 1047/1/5
f 1058/2/5 1050/2/5 1049/2/5
f 1058/1/5 1049/1/5 1057/1/5
f 1059/2/5 1050/2/5 1058/2/5
f 1060/2/5 1054/2/5 1053/2/5
f 1061/1/5 1056/1/5 1055/1/5
f 1061/2/5 1054/2/5 1060/2/5
f 1061/1/5 1055/1/5 1054/1/5
f 1062/1/5 1056/1/5 1061/1/5
f 1064/1/5 1057/1/5 1047/1/5
f 1065/1/5 1056/1/5 1062/1/5
f 1067/1/5 1064/1/5 1063/1/5
f 1067/1/5 1057/1/5 1064/1/5
f 1068/2/5 1058/2/5 1057/2/5
f 1068/1/5 1057/1/5 1067/1/5
f 1069/2/5 1058/2/5 1068/2/5
f 1070/2/5 1062/2/5 1061/2/5
f 1071/1/5 1066/1/5 1065/1/5
f 1071/2/5 1062/2/5 1070/2/5
f 1071/1/5 1065/1/5 1062/1/5
f 1072/1/5 1066/1/5 1071/1/5
f 1074/1/5 1067/1/5 1063/1/5
f 1075/1/5 1066/1/5 1072/1/5
f 1078/3/5 1074/3/5 1073/3/5
f 1079/2/5 1068/2/5 1067/2/5
f 1080/3/5 1026/3/5 1025/3/5
f 1081/3/5 1026/3/5 1080/3/5
f 1082/2/5 1072/2/5 1071/2/5
f 1083/3/5 1076/3/5 1075/3/5
f 1085/3/5 1078/3/5 1077/3/5
f 1086/3/5 1074/3/5 1078/3/5
f 1086/3/5 1078/3/5 1085/3/5
f 1087/2/5 1079/2/5 1067/2/5
f 1087/3/5 1082/3/5 1081/3/5
f 1087/3/5 1081/3/5 1080/3/5
f 1087/3/5 1080/3/5 1079/3/5
f 1088/3/5 1082/3/5 1087/3/5
f 1089/3/5 1082/3/5 1088/3/5
f 1090/2/5 1072/2/5 1082/2/5
f 1090/3/5 1082/3/5 1089/3/5
f 1091/3/5 1083/3/5 1075/3/5
f 1091/3/5 1084/3/5 1083/3/5
f 1092/3/5 1084/3/5 1091/3/5
f 1093/3/5 1074/3/5 1086/3/5
f 1094/1/5 1067/1/5 1074/1/5
f 1094/3/5 1074/3/5 1093/3/5
f 1095/3/5 1091/3/5 1075/3/5
f 1095/1/5 1075/1/5 1072/1/5
f 1096/3/5 1091/3/5 1095/3/5
f 1097/1/5 1067/1/5 1094/1/5
f 1097/2/5 1087/2/5 1067/2/5
f 1098/2/5 1087/2/5 1097/2/5
f 1101/2/5 1072/2/5 1090/2/5
f 1102/1/5 1095/1/5 1072/1/5
f 1102/2/5 1072/2/5 1101/2/5
f 1103/1/5 1097/1/5 1094/1/5
f 1103/1/5 1098/1/5 1097/1/5
f 1104/1/5 1098/1/5 1103/1/5
f 1105/1/5 1095/1/5 1102/1/5
f 1105/1/5 1102/1/5 1101/1/5
f 1106/1/5 1095/1/5 1105/1/5
f 1107/2/5 1099/2/5 1098/2/5
f 1107/1/5 1098/1/5 1104/1/5
f 1108/2/5 1099/2/5 1107/2/5
f 1111/2/5 1101/2/5 1100/2/5
f 1112/1/5 1105/1/5 1101/1/5
f 1112/2/5 1101/2/5 1111/2/5
f 1113/1/5 1107/1/5 1104/1/5
f 1113/1/5 1108/1/5 1107/1/5
f 1114/1/5 1108/1/5 1113/1/5
f 1115/2/5 1109/2/5 1108/2/5
f 1115/1/5 1108/1/5 1114/1/5
f 1116/2/5 1109/2/5 1115/2/5
f 1119/2/5 1111/2/5 1110/2/5
f 1120/1/5 1112/1/5 1111/1/5
f 1120/2/5 1111/2/5 1119/2/5
f 1121/1/5 1105/1/5 1112/1/5
f 1121/1/5 1112/1/5 1120/1/5
f 1122/1/5 1105/1/5 1121/1/5
f 1123/1/5 1115/1/5 1114/1/5
f 1123/1/5 1116/1/5 1115/1/5
f 1124/1/5 1116/1/5 1123/1/5
f 1125/2/5 1117/2/5 1116/2/5
f 1125/1/5 1116/1/5 1124/1/5
f 1126/2/5 1117/2/5 1125/2/5
f 1129/2/5 1119/2/5 1118/2/5
f 1130/1/5 1120/1/5 1119/1/5
f 1130/1/5 1121/1/5 1120/1/5
f 1130/2/5 1119/2/5 1129/2/5
f 1131/1/5 1121/1/5 1130/1/5
f 1132/1/5 1121/1/5 1131/1/5
f 1133/2/5 1127/2/5 1126/2/5
f 1133/1/5 1125/1/5 1124/1/5
f 1133/1/5 1126/1/5 1125/1/5
f 1134/2/5 1127/2/5 1133/2/5
f 1137/2/5 1129/2/5 1128/2/5
f 1138/1/5 1131/1/5 1130/1/5
f 1138/1/5 1130/1/5 1129/1/5
f 1138/2/5 1129/2/5 1137/2/5
f 1139/1/5 1133/1/5 1124/1/5
f 1139/1/5 1134/1/5 1133/1/5
f 1140/1/5 1134/1/5 1139/1/5
f 1141/2/5 1135/2/5 1134/2/5
f 1141/1/5 1134/1/5 1140/1/5
f 1142/2/5 1135/2/5 1141/2/5
f 1143/3/5 1089/3/5 1088/3/5
f 1144/3/5 1089/3/5 1143/3/5
f 1145/2/5 1137/2/5 1136/2/5
f 1146/1/5 1138/1/5 1137/1/5
f 1146/2/5 1137/2/5 1145/2/5
f 1147/1/5 1131/1/5 1138/1/5
f 1147/1/5 1138/1/5 1146/1/5
f 1148/1/5 1131/1/5 1147/1/5
f 1149/1/5 1142/1/5 1141/1/5
f 1149/1/5 1141/1/5 1140/1/5
f 1150/1/5 1142/1/5 1149/1/5
f 1151/2/5 1144/2/5 1143/2/5
f 1151/1/5 1142/1/5 1150/1/5
f 1151/2/5 1145/2/5 1144/2/5
f 1151/2/5 1143/2/5 1142/2/5
f 1152/1/5 1147/1/5 1146/1/5
f 1152/2/5 1145/2/5 1151/2/5
f 1152/1/5 1146/1/5 1145/1/5
f 1153/1/5 1147/1/5 1152/1/5
f 1154/1/5 1147/1/5 1153/1/5
f 1155/1/5 1151/1/5 1150/1/5
f 1155/1/5 1153/1/5 1152/1/5
f 1155/1/5 1152/1/5 1151/1/5
f 1156/1/5 1153/1/5 1155/1/5
f 1157/1/5 1153/1/5 1156/1/5
f 1158/1/5 1153/1/5 1157/1/5
f 1159/1/5 1157/1/5 1156/1/5
f 1160/1/5 1157/1/5 1159/1/5
f 1161/1/5 1157/1/5 1160/1/5
f 1162/1/5 1157/1/5 1161/1/5
f 1163/3/5 1161/3/5 1160/3/5
f 1164/3/5 1161/3/5 1163/3/5
f 1165/3/5 1161/3/5 1164/3/5
f 1166/3/5 1161/3/5 1165/3/5
f 1167/3/5 1165/3/5 1164/3/5
f 1168/3/5 1165/3/5 1167/3/5
f 1169/3/6 1170/3/6 1172/3/6
f 1172/3/6 1170/3/6 1173/3/6
f 1171/3/6 1172/3/6 1175/3/6
f 1175/3/6 1172/3/6 1176/3/6
f 1173/3/6 1174/3/6 1177/3/6
f 1177/3/6 1174/3/6 1178/3/6
f 1181/3/6 1182/3/6 1186/3/6
f 1186/3/6 1182/3/6 1187/3/6
f 1179/3/6 1180/3/6 1189/3/6
f 1189/3/6 1180/3/6 1190/3/6
f 1183/3/6 1184/3/6 1192/3/6
f 1192/3/6 1184/3/6 1193/3/6
f 1185/3/6 1186/3/6 1195/3/6
f 1195/3/6 1186/3/6 1196/3/6
f 1190/3/6 1191/3/6 1198/3/6
f 1188/3/6 1189/3/6 1198/3/6
f 1189/3/6 1190/3/6 1198/3/6
f 1198/3/6 1191/3/6 1199/3/6
f 1199/3/6 1191/3/6 1200/3/6
f 1200/3/6 1191/3/6 1201/3/6
f 1193/3/6 1194/3/6 1203/3/6
f 1203/3/6 1194/3/6 1204/3/6
f 1196/3/6 1197/3/6 1205/3/6
f 1205/3/6 1197/3/6 1206/3/6
f 1202/3/6 1203/3/6 1207/3/6
f 1207/3/6 1203/3/6 1208/3/6
f 1199/3/6 1200/3/6 1209/3/6
f 1209/3/6 1200/3/6 1210/3/6
f 1211/3/6 1212/3/6 1215/3/6
f 1215/3/6 1212/3/6 1216/3/6
f 1213/3/6 1214/3/6 1217/3/6
f 1217/3/6 1214/3/6 1218/3/6
f 1216/3/6 1217/3/6 1219/3/6
f 1219/3/6 1217/3/6 1220/3/6
f 1221/3/6 1222/3/6 1224/3/6
f 1224/3/6 1222/3/6 1225/3/6
f 1223/3/6 1224/3/6 1228/3/6
f 1228/3/6 1224/3/6 1229/3/6
f 1225/3/6 1226/3/6 1230/3/6
f 1230/3/6 1226/3/6 1231/3/6
f 1227/1/6 1228/1/6 1235/1/6
f 1235/1/6 1228/1/6 1236/1/6
f 1231/1/6 1232/1/6 1237/1/6
f 1237/1/6 1232/1/6 1238/1/6
f 1233/4/6 1234/4/6 1242/4/6
f 1234/1/6 1235/1/6 1243/1/6
f 1242/4/6 1234/4/6 1243/4/6
f 1243/1/6 1235/1/6 1244/1/6
f 1238/1/6 1239/1/6 1245/1/6
f 1239/4/6 1240/4/6 1246/4/6
f 1245/1/6 1239/1/6 1246/1/6
f 1246/4/6 1240/4/6 1247/4/6
f 1241/4/6 1242/4/6 1251/4/6
f 1251/4/6 1242/4/6 1252/4/6
f 1247/4/6 1248/4/6 1253/4/6
f 1253/4/6 1248/4/6 1254/4/6
f 1249/1/6 1250/1/6 1257/1/6
f 1250/4/6 1251/4/6 1258/4/6
f 1257/1/6 1250/1/6 1258/1/6
f 1258/4/6 1251/4/6 1259/4/6
f 1254/4/6 1255/4/6 1260/4/6
f 1255/1/6 1256/1/6 1261/1/6
f 1260/4/6 1255/4/6 1261/4/6
f 1261/1/6 1256/1/6 1262/1/6
f 1257/4/6 1258/4/6 1264/4/6
f 1264/4/6 1258/4/6 1265/4/6
f 1261/4/6 1262/4/6 1266/4/6
f 1266/4/6 1262/4/6 1267/4/6
f 1263/4/6 1264/4/6 1270/4/6
f 1270/4/6 1264/4/6 1271/4/6
f 1267/4/6 1268/4/6 1272/4/6
f 1272/4/6 1268/4/6 1273/4/6
f 1269/4/6 1270/4/6 1275/4/6
f 1275/4/6 1270/4/6 1276/4/6
f 1273/4/6 1274/4/6 1277/4/6
f 1277/4/6 1274/4/6 1278/4/6
f 1275/1/6 1276/1/6 1280/1/6
f 1280/1/6 1276/1/6 1281/1/6
f 1277/1/6 1278/1/6 1282/1/6
f 1282/1/6 1278/1/6 1283/1/6
f 1279/1/6 1280/1/6 1286/1/6
f 1286/1/6 1280/1/6 1287/1/6
f 1283/1/6 1284/1/6 1288/1/6
f 1288/1/6 1284/1/6 1289/1/6
f 1285/3/6 1286/3/6 1292/3/6
f 1292/3/6 1286/3/6 1293/3/6
f 1289/3/6 1290/3/6 1294/3/6
f 1294/3/6 1290/3/6 1295/3/6
f 1291/3/6 1292/3/6 1297/3/6
f 1297/3/6 1292/3/6 1298/3/6
f 1295/3/6 1296/3/6 1301/3/6
f 1301/3/6 1296/3/6 1302/3/6
f 1298/3/6 1299/3/6 1303/3/6
f 1303/3/6 1299/3/6 1304/3/6
f 1300/3/6 1301/3/6 1307/3/6
f 1307/3/6 1301/3/6 1308/3/6
f 1304/1/6 1305/1/6 1309/1/6
f 1309/1/6 1305/1/6 1310/1/6
f 1306/1/6 1307/1/6 1313/1/6
f 1313/1/6 1307/1/6 1314/1/6
f 1310/1/6 1311/1/6 1315/1/6
f 1315/1/6 1311/1/6 1316/1/6
f 1312/1/6 1313/1/6 1317/1/6
f 1317/1/6 1313/1/6 1318/1/6
f 1315/4/6 1316/4/6 1319/4/6
f 1319/4/6 1316/4/6 1320/4/6
f 1317/4/6 1318/4/6 1323/4/6
f 1323/4/6 1318/4/6 1324/4/6
f 1320/4/6 1321/4/6 1325/4/6
f 1325/4/6 1321/4/6 1326/4/6
f 1322/4/6 1323/4/6 1329/4/6
f 1329/4/6 1323/4/6 1330/4/6
f 1326/4/6 1327/4/6 1331/4/6
f 1331/4/6 1327/4/6 1332/4/6
f 1328/4/6 1329/4/6 1335/4/6
f 1335/4/6 1329/4/6 1336/4/6
f 1331/1/6 1332/1/6 1337/1/6
f 1332/4/6 1333/4/6 1338/4/6
f 1337/1/6 1332/1/6 1338/1/6
f 1338/4/6 1333/4/6 1339/4/6
f 1334/4/6 1335/4/6 1342/4/6
f 1335/1/6 1336/1/6 1343/1/6
f 1342/4/6 1335/4/6 1343/4/6
f 1343/1/6 1336/1/6 1344/1/6
f 1339/4/6 1340/4/6 1345/4/6
f 1345/4/6 1340/4/6 1346/4/6
f 1341/4/6 1342/4/6 1351/4/6
f 1351/4/6 1342/4/6 1352/4/6
f 1346/4/6 1347/4/6 1353/4/6
f 1347/1/6 1348/1/6 1354/1/6
f 1353/4/6 1347/4/6 1354/4/6
f 1354/1/6 1348/1/6 1355/1/6
f 1349/1/6 1350/1/6 1358/1/6
f 1350/4/6 1351/4/6 1359/4/6
f 1358/1/6 1350/1/6 1359/1/6
f 1359/4/6 1351/4/6 1360/4/6
f 1355/1/6 1356/1/6 1361/1/6
f 1361/1/6 1356/1/6 1362/1/6
f 1357/1/6 1358/1/6 1365/1/6
f 1365/1/6 1358/1/6 1366/1/6
f 1362/3/6 1363/3/6 1367/3/6
f 1367/3/6 1363/3/6 1368/3/6
f 1364/3/6 1365/3/6 1369/3/6
f 1369/3/6 1365/3/6 1370/3/6
f 1368/3/6 1369/3/6 1371/3/6
f 1371/3/6 1369/3/6 1372/3/6
f 1373/3/6 1374/3/6 1376/3/6
f 1376/3/6 1374/3/6 1377/3/6
f 1375/3/6 1376/3/6 1380/3/6
f 1377/3/6 1378/3/6 1380/3/6
f 1376/3/6 1377/3/6 1380/3/6
f 1380/3/6 1378/3/6 1381/3/6
f 1379/1/6 1380/1/6 1384/1/6
f 1381/1/6 1382/1/6 1384/1/6
f 1380/1/6 1381/1/6 1384/1/6
f 1384/1/6 1382/1/6 1385/1/6
f 1385/1/6 1382/1/6 1386/1/6
f 1386/1/6 1382/1/6 1387/1/6
f 1383/1/6 1384/1/6 1390/1/6
f 1384/1/6 1385/1/6 1390/1/6
f 1390/1/6 1385/1/6 1391/1/6
f 1385/2/6 1386/2/6 1392/2/6
f 1391/1/6 1385/1/6 1392/1/6
f 1387/1/6 1388/1/6 1393/1/6
f 1392/2/6 1386/2/6 1393/2/6
f 1386/1/6 1387/1/6 1393/1/6
f 1393/1/6 1388/1/6 1394/1/6
f 1394/1/6 1388/1/6 1395/1/6
f 1389/1/6 1390/1/6 1398/1/6
f 1390/1/6 1391/1/6 1398/1/6
f 1398/1/6 1391/1/6 1399/1/6
f 1391/2/6 1392/2/6 1400/2/6
f 1399/1/6 1391/1/6 1400/1/6
f 1400/2/6 1392/2/6 1401/2/6
f 1393/2/6 1394/2/6 1402/2/6
f 1394/1/6 1395/1/6 1403/1/6
f 1402/2/6 1394/2/6 1403/2/6
f 1395/1/6 1396/1/6 1403/1/6
f 1403/1/6 1396/1/6 1404/1/6
f 1404/1/6 1396/1/6 1405/1/6
f 1398/1/6 1399/1/6 1408/1/6
f 1397/1/6 1398/1/6 1408/1/6
f 1408/1/6 1399/1/6 1409/1/6
f 1399/2/6 1400/2/6 1410/2/6
f 1409/1/6 1399/1/6 1410/1/6
f 1410/2/6 1400/2/6 1411/2/6
f 1403/2/6 1404/2/6 1412/2/6
f 1405/1/6 1406/1/6 1413/1/6
f 1412/2/6 1404/2/6 1413/2/6
f 1404/1/6 1405/1/6 1413/1/6
f 1413/1/6 1406/1/6 1414/1/6
f 1414/1/6 1406/1/6 1415/1/6
f 1408/1/6 1409/1/6 1418/1/6
f 1407/1/6 1408/1/6 1418/1/6
f 1418/1/6 1409/1/6 1419/1/6
f 1409/2/6 1410/2/6 1420/2/6
f 1419/1/6 1409/1/6 1420/1/6
f 1420/2/6 1410/2/6 1421/2/6
f 1413/2/6 1414/2/6 1422/2/6
f 1415/1/6 1416/1/6 1423/1/6
f 1422/2/6 1414/2/6 1423/2/6
f 1414/1/6 1415/1/6 1423/1/6
f 1423/1/6 1416/1/6 1424/1/6
f 1424/1/6 1416/1/6 1425/1/6
f 1418/1/6 1419/1/6 1427/1/6
f 1417/1/6 1418/1/6 1427/1/6
f 1419/2/6 1420/2/6 1428/2/6
f 1427/1/6 1419/1/6 1428/1/6
f 1428/2/6 1420/2/6 1429/2/6
f 1423/2/6 1424/2/6 1430/2/6
f 1425/1/6 1426/1/6 1431/1/6
f 1430/2/6 1424/2/6 1431/2/6
f 1424/1/6 1425/1/6 1431/1/6
f 1431/1/6 1426/1/6 1432/1/6
f 1417/1/6 1427/1/6 1434/1/6
f 1432/1/6 1426/1/6 1435/1/6
f 1433/1/6 1434/1/6 1437/1/6
f 1434/1/6 1427/1/6 1437/1/6
f 1427/2/6 1428/2/6 1438/2/6
f 1437/1/6 1427/1/6 1438/1/6
f 1438/2/6 1428/2/6 1439/2/6
f 1431/2/6 1432/2/6 1440/2/6
f 1435/1/6 1436/1/6 1441/1/6
f 1440/2/6 1432/2/6 1441/2/6
f 1432/1/6 1435/1/6 1441/1/6
f 1441/1/6 1436/1/6 1442/1/6
f 1433/1/6 1437/1/6 1444/1/6
f 1442/1/6 1436/1/6 1445/1/6
f 1443/3/6 1444/3/6 1448/3/6
f 1445/3/6 1446/3/6 1449/3/6
f 1447/3/6 1448/3/6 1451/3/6
f 1448/3/6 1444/3/6 1452/3/6
f 1451/3/6 1448/3/6 1452/3/6
f 1449/3/6 1450/3/6 1453/3/6
f 1445/3/6 1449/3/6 1453/3/6
f 1453/3/6 1450/3/6 1454/3/6
f 1452/3/6 1444/3/6 1455/3/6
f 1444/1/6 1437/1/6 1456/1/6
f 1455/3/6 1444/3/6 1456/3/6
f 1442/1/6 1445/1/6 1457/1/6
f 1445/3/6 1453/3/6 1457/3/6
f 1457/3/6 1453/3/6 1458/3/6
f 1437/2/6 1438/2/6 1459/2/6
f 1456/1/6 1437/1/6 1459/1/6
f 1459/2/6 1438/2/6 1460/2/6
f 1441/2/6 1442/2/6 1463/2/6
f 1442/1/6 1457/1/6 1464/1/6
f 1463/2/6 1442/2/6 1464/2/6
f 1456/1/6 1459/1/6 1465/1/6
f 1459/1/6 1460/1/6 1465/1/6
f 1465/1/6 1460/1/6 1466/1/6
f 1464/1/6 1457/1/6 1467/1/6
f 1463/1/6 1464/1/6 1467/1/6
f 1467/1/6 1457/1/6 1468/1/6
f 1460/2/6 1461/2/6 1469/2/6
f 1466/1/6 1460/1/6 1469/1/6
f 1469/2/6 1461/2/6 1470/2/6
f 1462/2/6 1463/2/6 1473/2/6
f 1463/1/6 1467/1/6 1474/1/6
f 1473/2/6 1463/2/6 1474/2/6
f 1466/1/6 1469/1/6 1475/1/6
f 1469/1/6 1470/1/6 1475/1/6
f 1475/1/6 1470/1/6 1476/1/6
f 1470/2/6 1471/2/6 1477/2/6
f 1476/1/6 1470/1/6 1477/1/6
f 1477/2/6 1471/2/6 1478/2/6
f 1472/2/6 1473/2/6 1481/2/6
f 1473/1/6 1474/1/6 1482/1/6
f 1481/2/6 1473/2/6 1482/2/6
f 1474/1/6 1467/1/6 1483/1/6
f 1482/1/6 1474/1/6 1483/1/6
f 1483/1/6 1467/1/6 1484/1/6
f 1476/1/6 1477/1/6 1485/1/6
f 1477/1/6 1478/1/6 1485/1/6
f 1485/1/6 1478/1/6 1486/1/6
f 1478/2/6 1479/2/6 1487/2/6
f 1486/1/6 1478/1/6 1487/1/6
f 1487/2/6 1479/2/6 1488/2/6
f 1480/2/6 1481/2/6 1491/2/6
f 1481/1/6 1482/1/6 1492/1/6
f 1482/1/6 1483/1/6 1492/1/6
f 1491/2/6 1481/2/6 1492/2/6
f 1492/1/6 1483/1/6 1493/1/6
f 1493/1/6 1483/1/6 1494/1/6
f 1486/1/6 1487/1/6 1495/1/6
f 1487/1/6 1488/1/6 1495/1/6
f 1495/1/6 1488/1/6 1496/1/6
f 1488/2/6 1489/2/6 1497/2/6
f 1496/1/6 1488/1/6 1497/1/6
f 1497/2/6 1489/2/6 1498/2/6
f 1490/2/6 1491/2/6 1501/2/6
f 1492/1/6 1493/1/6 1502/1/6
f 1491/1/6 1492/1/6 1502/1/6
f 1501/2/6 1491/2/6 1502/2/6
f 1502/1/6 1493/1/6 1503/1/6
f 1503/1/6 1493/1/6 1504/1/6
f 1496/1/6 1497/1/6 1505/1/6
f 1497/1/6 1498/1/6 1505/1/6
f 1505/1/6 1498/1/6 1506/1/6
f 1498/2/6 1499/2/6 1507/2/6
f 1506/1/6 1498/1/6 1507/1/6
f 1507/2/6 1499/2/6 1508/2/6
f 1500/2/6 1501/2/6 1509/2/6
f 1502/1/6 1503/1/6 1510/1/6
f 1501/1/6 1502/1/6 1510/1/6
f 1509/2/6 1501/2/6 1510/2/6
f 1510/1/6 1503/1/6 1511/1/6
f 1511/1/6 1503/1/6 1512/1/6
f 1507/1/6 1508/1/6 1513/1/6
f 1506/1/6 1507/1/6 1513/1/6
f 1513/1/6 1508/1/6 1514/1/6
f 1508/2/6 1509/2/6 1515/2/6
f 1514/1/6 1508/1/6 1515/1/6
f 1510/1/6 1511/1/6 1516/1/6
f 1515/2/6 1509/2/6 1516/2/6
f 1509/1/6 1510/1/6 1516/1/6
f 1516/1/6 1511/1/6 1517/1/6
f 1517/1/6 1511/1/6 1518/1/6
f 1514/1/6 1515/1/6 1519/1/6
f 1516/1/6 1517/1/6 1519/1/6
f 1515/1/6 1516/1/6 1519/1/6
f 1519/1/6 1517/1/6 1520/1/6
f 1520/1/6 1517/1/6 1521/1/6
f 1521/1/6 1517/1/6 1522/1/6
f 1520/3/6 1521/3/6 1523/3/6
f 1523/3/6 1521/3/6 1524/3/6
f 1524/3/6 1521/3/6 1525/3/6
f 1525/3/6 1521/3/6 1526/3/6
f 1524/3/6 1525/3/6 1527/3/6
f 1527/3/6 1525/3/6 1528/3/6
