# MagicaVoxel @ Ephtracy

# group
o 

# material
mtllib Barrel_3.mtl
usemtl palette

# normals
vn -1 0 0
vn 1 0 0
vn 0 0 1
vn 0 0 -1
vn 0 -1 0
vn 0 1 0

# texcoords
vt 0.0253906 0.5
vt 0.146484 0.5
vt 0.310547 0.5

# verts
v 0 0.6 -0.3
v 0 0.6 -0.8
v 0 0.7 -0.3
v 0 0.7 -0.8
v 0 1.8 -0.3
v 0 1.8 -0.8
v 0 1.9 -0.3
v 0 1.9 -0.8
v 0.1 0.6 -0.2
v 0.1 0.6 -0.3
v 0.1 0.6 -0.8
v 0.1 0.6 -0.9
v 0.1 0.7 -0.2
v 0.1 0.7 -0.3
v 0.1 0.7 -0.8
v 0.1 0.7 -0.9
v 0.1 1 -0.3
v 0.1 1 -0.8
v 0.1 1.1 -0.3
v 0.1 1.1 -0.8
v 0.1 1.4 -0.3
v 0.1 1.4 -0.8
v 0.1 1.5 -0.3
v 0.1 1.5 -0.8
v 0.1 1.8 -0.2
v 0.1 1.8 -0.3
v 0.1 1.8 -0.8
v 0.1 1.8 -0.9
v 0.1 1.9 -0.2
v 0.1 1.9 -0.3
v 0.1 1.9 -0.8
v 0.1 1.9 -0.9
v 0.2 0.6 -0.1
v 0.2 0.6 -0.2
v 0.2 0.6 -0.9
v 0.2 0.6 -1
v 0.2 0.7 -0.1
v 0.2 0.7 -0.2
v 0.2 0.7 -0.3
v 0.2 0.7 -0.8
v 0.2 0.7 -0.9
v 0.2 0.7 -1
v 0.2 1 -0.2
v 0.2 1 -0.3
v 0.2 1 -0.8
v 0.2 1 -0.9
v 0.2 1.1 -0.2
v 0.2 1.1 -0.3
v 0.2 1.1 -0.8
v 0.2 1.1 -0.9
v 0.2 1.4 -0.2
v 0.2 1.4 -0.3
v 0.2 1.4 -0.8
v 0.2 1.4 -0.9
v 0.2 1.5 -0.2
v 0.2 1.5 -0.3
v 0.2 1.5 -0.8
v 0.2 1.5 -0.9
v 0.2 1.8 -0.1
v 0.2 1.8 -0.2
v 0.2 1.8 -0.3
v 0.2 1.8 -0.8
v 0.2 1.8 -0.9
v 0.2 1.8 -1
v 0.2 1.9 -0.1
v 0.2 1.9 -0.2
v 0.2 1.9 -0.9
v 0.2 1.9 -1
v 0.3 0.6 0
v 0.3 0.6 -0.1
v 0.3 0.6 -1
v 0.3 0.6 -1.1
v 0.3 0.7 0
v 0.3 0.7 -0.1
v 0.3 0.7 -0.2
v 0.3 0.7 -0.9
v 0.3 0.7 -1
v 0.3 0.7 -1.1
v 0.3 1 -0.1
v 0.3 1 -0.2
v 0.3 1 -0.9
v 0.3 1 -1
v 0.3 1.1 -0.1
v 0.3 1.1 -0.2
v 0.3 1.1 -0.9
v 0.3 1.1 -1
v 0.3 1.4 -0.1
v 0.3 1.4 -0.2
v 0.3 1.4 -0.9
v 0.3 1.4 -1
v 0.3 1.5 -0.1
v 0.3 1.5 -0.2
v 0.3 1.5 -0.9
v 0.3 1.5 -1
v 0.3 1.8 0
v 0.3 1.8 -0.1
v 0.3 1.8 -0.2
v 0.3 1.8 -0.9
v 0.3 1.8 -1
v 0.3 1.8 -1.1
v 0.3 1.9 0
v 0.3 1.9 -0.1
v 0.3 1.9 -1
v 0.3 1.9 -1.1
v 0.8 0.7 -0.2
v 0.8 0.7 -0.3
v 0.8 0.7 -0.8
v 0.8 0.7 -0.9
v 0.8 1 -0.2
v 0.8 1 -0.3
v 0.8 1 -0.8
v 0.8 1 -0.9
v 0.8 1.1 -0.2
v 0.8 1.1 -0.3
v 0.8 1.1 -0.8
v 0.8 1.1 -0.9
v 0.8 1.4 -0.2
v 0.8 1.4 -0.3
v 0.8 1.4 -0.8
v 0.8 1.4 -0.9
v 0.8 1.5 -0.2
v 0.8 1.5 -0.3
v 0.8 1.5 -0.8
v 0.8 1.5 -0.9
v 0.8 1.8 -0.2
v 0.8 1.8 -0.3
v 0.8 1.8 -0.8
v 0.8 1.8 -0.9
v 0.9 0.7 -0.3
v 0.9 0.7 -0.8
v 0.9 1 -0.3
v 0.9 1 -0.8
v 0.9 1.1 -0.3
v 0.9 1.1 -0.8
v 0.9 1.4 -0.3
v 0.9 1.4 -0.8
v 0.9 1.5 -0.3
v 0.9 1.5 -0.8
v 0.9 1.8 -0.3
v 0.9 1.8 -0.8
v 0.2 0.7 -0.3
v 0.2 0.7 -0.8
v 0.2 1 -0.3
v 0.2 1 -0.8
v 0.2 1.1 -0.3
v 0.2 1.1 -0.8
v 0.2 1.4 -0.3
v 0.2 1.4 -0.8
v 0.2 1.5 -0.3
v 0.2 1.5 -0.8
v 0.2 1.8 -0.3
v 0.2 1.8 -0.8
v 0.3 0.7 -0.2
v 0.3 0.7 -0.3
v 0.3 0.7 -0.8
v 0.3 0.7 -0.9
v 0.3 1 -0.2
v 0.3 1 -0.3
v 0.3 1 -0.8
v 0.3 1 -0.9
v 0.3 1.1 -0.2
v 0.3 1.1 -0.3
v 0.3 1.1 -0.8
v 0.3 1.1 -0.9
v 0.3 1.4 -0.2
v 0.3 1.4 -0.3
v 0.3 1.4 -0.8
v 0.3 1.4 -0.9
v 0.3 1.5 -0.2
v 0.3 1.5 -0.3
v 0.3 1.5 -0.8
v 0.3 1.5 -0.9
v 0.3 1.8 -0.2
v 0.3 1.8 -0.3
v 0.3 1.8 -0.8
v 0.3 1.8 -0.9
v 0.8 0.6 0
v 0.8 0.6 -0.1
v 0.8 0.6 -1
v 0.8 0.6 -1.1
v 0.8 0.7 0
v 0.8 0.7 -0.1
v 0.8 0.7 -0.2
v 0.8 0.7 -0.9
v 0.8 0.7 -1
v 0.8 0.7 -1.1
v 0.8 1 -0.1
v 0.8 1 -0.2
v 0.8 1 -0.9
v 0.8 1 -1
v 0.8 1.1 -0.1
v 0.8 1.1 -0.2
v 0.8 1.1 -0.9
v 0.8 1.1 -1
v 0.8 1.4 -0.1
v 0.8 1.4 -0.2
v 0.8 1.4 -0.9
v 0.8 1.4 -1
v 0.8 1.5 -0.1
v 0.8 1.5 -0.2
v 0.8 1.5 -0.9
v 0.8 1.5 -1
v 0.8 1.8 0
v 0.8 1.8 -0.1
v 0.8 1.8 -0.2
v 0.8 1.8 -0.9
v 0.8 1.8 -1
v 0.8 1.8 -1.1
v 0.8 1.9 0
v 0.8 1.9 -0.1
v 0.8 1.9 -1
v 0.8 1.9 -1.1
v 0.9 0.6 -0.1
v 0.9 0.6 -0.2
v 0.9 0.6 -0.9
v 0.9 0.6 -1
v 0.9 0.7 -0.1
v 0.9 0.7 -0.2
v 0.9 0.7 -0.3
v 0.9 0.7 -0.8
v 0.9 0.7 -0.9
v 0.9 0.7 -1
v 0.9 1 -0.2
v 0.9 1 -0.3
v 0.9 1 -0.8
v 0.9 1 -0.9
v 0.9 1.1 -0.2
v 0.9 1.1 -0.3
v 0.9 1.1 -0.8
v 0.9 1.1 -0.9
v 0.9 1.4 -0.2
v 0.9 1.4 -0.3
v 0.9 1.4 -0.8
v 0.9 1.4 -0.9
v 0.9 1.5 -0.2
v 0.9 1.5 -0.3
v 0.9 1.5 -0.8
v 0.9 1.5 -0.9
v 0.9 1.8 -0.1
v 0.9 1.8 -0.2
v 0.9 1.8 -0.3
v 0.9 1.8 -0.8
v 0.9 1.8 -0.9
v 0.9 1.8 -1
v 0.9 1.9 -0.1
v 0.9 1.9 -0.2
v 0.9 1.9 -0.9
v 0.9 1.9 -1
v 1 0.6 -0.2
v 1 0.6 -0.3
v 1 0.6 -0.8
v 1 0.6 -0.9
v 1 0.7 -0.2
v 1 0.7 -0.3
v 1 0.7 -0.8
v 1 0.7 -0.9
v 1 1 -0.3
v 1 1 -0.8
v 1 1.1 -0.3
v 1 1.1 -0.8
v 1 1.4 -0.3
v 1 1.4 -0.8
v 1 1.5 -0.3
v 1 1.5 -0.8
v 1 1.8 -0.2
v 1 1.8 -0.3
v 1 1.8 -0.8
v 1 1.8 -0.9
v 1 1.9 -0.2
v 1 1.9 -0.3
v 1 1.9 -0.8
v 1 1.9 -0.9
v 1.1 0.6 -0.3
v 1.1 0.6 -0.8
v 1.1 0.7 -0.3
v 1.1 0.7 -0.8
v 1.1 1.8 -0.3
v 1.1 1.8 -0.8
v 1.1 1.9 -0.3
v 1.1 1.9 -0.8
v 0.3 0.6 0
v 0.3 0.7 0
v 0.3 1.8 0
v 0.3 1.9 0
v 0.8 0.6 0
v 0.8 0.7 0
v 0.8 1.8 0
v 0.8 1.9 0
v 0.2 0.6 -0.1
v 0.2 0.7 -0.1
v 0.2 1.8 -0.1
v 0.2 1.9 -0.1
v 0.3 0.6 -0.1
v 0.3 0.7 -0.1
v 0.3 1 -0.1
v 0.3 1.1 -0.1
v 0.3 1.4 -0.1
v 0.3 1.5 -0.1
v 0.3 1.8 -0.1
v 0.3 1.9 -0.1
v 0.8 0.6 -0.1
v 0.8 0.7 -0.1
v 0.8 1 -0.1
v 0.8 1.1 -0.1
v 0.8 1.4 -0.1
v 0.8 1.5 -0.1
v 0.8 1.8 -0.1
v 0.8 1.9 -0.1
v 0.9 0.6 -0.1
v 0.9 0.7 -0.1
v 0.9 1.8 -0.1
v 0.9 1.9 -0.1
v 0.1 0.6 -0.2
v 0.1 0.7 -0.2
v 0.1 1.8 -0.2
v 0.1 1.9 -0.2
v 0.2 0.6 -0.2
v 0.2 0.7 -0.2
v 0.2 1 -0.2
v 0.2 1.1 -0.2
v 0.2 1.4 -0.2
v 0.2 1.5 -0.2
v 0.2 1.8 -0.2
v 0.2 1.9 -0.2
v 0.3 0.7 -0.2
v 0.3 1 -0.2
v 0.3 1.1 -0.2
v 0.3 1.4 -0.2
v 0.3 1.5 -0.2
v 0.3 1.8 -0.2
v 0.8 0.7 -0.2
v 0.8 1 -0.2
v 0.8 1.1 -0.2
v 0.8 1.4 -0.2
v 0.8 1.5 -0.2
v 0.8 1.8 -0.2
v 0.9 0.6 -0.2
v 0.9 0.7 -0.2
v 0.9 1 -0.2
v 0.9 1.1 -0.2
v 0.9 1.4 -0.2
v 0.9 1.5 -0.2
v 0.9 1.8 -0.2
v 0.9 1.9 -0.2
v 1 0.6 -0.2
v 1 0.7 -0.2
v 1 1.8 -0.2
v 1 1.9 -0.2
v 0 0.6 -0.3
v 0 0.7 -0.3
v 0 1.8 -0.3
v 0 1.9 -0.3
v 0.1 0.6 -0.3
v 0.1 0.7 -0.3
v 0.1 1 -0.3
v 0.1 1.1 -0.3
v 0.1 1.4 -0.3
v 0.1 1.5 -0.3
v 0.1 1.8 -0.3
v 0.1 1.9 -0.3
v 0.2 0.7 -0.3
v 0.2 1 -0.3
v 0.2 1.1 -0.3
v 0.2 1.4 -0.3
v 0.2 1.5 -0.3
v 0.2 1.8 -0.3
v 0.9 0.7 -0.3
v 0.9 1 -0.3
v 0.9 1.1 -0.3
v 0.9 1.4 -0.3
v 0.9 1.5 -0.3
v 0.9 1.8 -0.3
v 1 0.6 -0.3
v 1 0.7 -0.3
v 1 1 -0.3
v 1 1.1 -0.3
v 1 1.4 -0.3
v 1 1.5 -0.3
v 1 1.8 -0.3
v 1 1.9 -0.3
v 1.1 0.6 -0.3
v 1.1 0.7 -0.3
v 1.1 1.8 -0.3
v 1.1 1.9 -0.3
v 0.2 0.7 -0.8
v 0.2 1 -0.8
v 0.2 1.1 -0.8
v 0.2 1.4 -0.8
v 0.2 1.5 -0.8
v 0.2 1.8 -0.8
v 0.3 0.7 -0.8
v 0.3 1 -0.8
v 0.3 1.1 -0.8
v 0.3 1.4 -0.8
v 0.3 1.5 -0.8
v 0.3 1.8 -0.8
v 0.8 0.7 -0.8
v 0.8 1 -0.8
v 0.8 1.1 -0.8
v 0.8 1.4 -0.8
v 0.8 1.5 -0.8
v 0.8 1.8 -0.8
v 0.9 0.7 -0.8
v 0.9 1 -0.8
v 0.9 1.1 -0.8
v 0.9 1.4 -0.8
v 0.9 1.5 -0.8
v 0.9 1.8 -0.8
v 0.3 0.7 -0.9
v 0.3 1 -0.9
v 0.3 1.1 -0.9
v 0.3 1.4 -0.9
v 0.3 1.5 -0.9
v 0.3 1.8 -0.9
v 0.6 1.8 -0.9
v 0.7 1.8 -0.9
v 0.8 0.7 -0.9
v 0.8 1 -0.9
v 0.8 1.1 -0.9
v 0.8 1.4 -0.9
v 0.8 1.5 -0.9
v 0.8 1.8 -0.9
v 0.3 0.7 -0.2
v 0.3 1 -0.2
v 0.3 1.1 -0.2
v 0.3 1.4 -0.2
v 0.3 1.5 -0.2
v 0.3 1.8 -0.2
v 0.8 0.7 -0.2
v 0.8 1 -0.2
v 0.8 1.1 -0.2
v 0.8 1.4 -0.2
v 0.8 1.5 -0.2
v 0.8 1.8 -0.2
v 0.2 0.7 -0.3
v 0.2 1 -0.3
v 0.2 1.1 -0.3
v 0.2 1.4 -0.3
v 0.2 1.5 -0.3
v 0.2 1.8 -0.3
v 0.3 0.7 -0.3
v 0.3 1 -0.3
v 0.3 1.1 -0.3
v 0.3 1.4 -0.3
v 0.3 1.5 -0.3
v 0.3 1.8 -0.3
v 0.8 0.7 -0.3
v 0.8 1 -0.3
v 0.8 1.1 -0.3
v 0.8 1.4 -0.3
v 0.8 1.5 -0.3
v 0.8 1.8 -0.3
v 0.9 0.7 -0.3
v 0.9 1 -0.3
v 0.9 1.1 -0.3
v 0.9 1.4 -0.3
v 0.9 1.5 -0.3
v 0.9 1.8 -0.3
v 0 0.6 -0.8
v 0 0.7 -0.8
v 0 1.8 -0.8
v 0 1.9 -0.8
v 0.1 0.6 -0.8
v 0.1 0.7 -0.8
v 0.1 1 -0.8
v 0.1 1.1 -0.8
v 0.1 1.4 -0.8
v 0.1 1.5 -0.8
v 0.1 1.8 -0.8
v 0.1 1.9 -0.8
v 0.2 0.7 -0.8
v 0.2 1 -0.8
v 0.2 1.1 -0.8
v 0.2 1.4 -0.8
v 0.2 1.5 -0.8
v 0.2 1.8 -0.8
v 0.9 0.7 -0.8
v 0.9 1 -0.8
v 0.9 1.1 -0.8
v 0.9 1.4 -0.8
v 0.9 1.5 -0.8
v 0.9 1.8 -0.8
v 1 0.6 -0.8
v 1 0.7 -0.8
v 1 1 -0.8
v 1 1.1 -0.8
v 1 1.4 -0.8
v 1 1.5 -0.8
v 1 1.8 -0.8
v 1 1.9 -0.8
v 1.1 0.6 -0.8
v 1.1 0.7 -0.8
v 1.1 1.8 -0.8
v 1.1 1.9 -0.8
v 0.1 0.6 -0.9
v 0.1 0.7 -0.9
v 0.1 1.8 -0.9
v 0.1 1.9 -0.9
v 0.2 0.6 -0.9
v 0.2 0.7 -0.9
v 0.2 1 -0.9
v 0.2 1.1 -0.9
v 0.2 1.4 -0.9
v 0.2 1.5 -0.9
v 0.2 1.8 -0.9
v 0.2 1.9 -0.9
v 0.3 0.7 -0.9
v 0.3 1 -0.9
v 0.3 1.1 -0.9
v 0.3 1.4 -0.9
v 0.3 1.5 -0.9
v 0.3 1.8 -0.9
v 0.8 0.7 -0.9
v 0.8 1 -0.9
v 0.8 1.1 -0.9
v 0.8 1.4 -0.9
v 0.8 1.5 -0.9
v 0.8 1.8 -0.9
v 0.9 0.6 -0.9
v 0.9 0.7 -0.9
v 0.9 1 -0.9
v 0.9 1.1 -0.9
v 0.9 1.4 -0.9
v 0.9 1.5 -0.9
v 0.9 1.8 -0.9
v 0.9 1.9 -0.9
v 1 0.6 -0.9
v 1 0.7 -0.9
v 1 1.8 -0.9
v 1 1.9 -0.9
v 0.2 0.6 -1
v 0.2 0.7 -1
v 0.2 1.8 -1
v 0.2 1.9 -1
v 0.3 0.6 -1
v 0.3 0.7 -1
v 0.3 1 -1
v 0.3 1.1 -1
v 0.3 1.4 -1
v 0.3 1.5 -1
v 0.3 1.8 -1
v 0.3 1.9 -1
v 0.8 0.6 -1
v 0.8 0.7 -1
v 0.8 1 -1
v 0.8 1.1 -1
v 0.8 1.4 -1
v 0.8 1.5 -1
v 0.8 1.8 -1
v 0.8 1.9 -1
v 0.9 0.6 -1
v 0.9 0.7 -1
v 0.9 1.8 -1
v 0.9 1.9 -1
v 0.3 0.6 -1.1
v 0.3 0.7 -1.1
v 0.3 1.8 -1.1
v 0.3 1.9 -1.1
v 0.8 0.6 -1.1
v 0.8 0.7 -1.1
v 0.8 1.8 -1.1
v 0.8 1.9 -1.1
v 0.3 0.6 0
v 0.8 0.6 0
v 0.2 0.6 -0.1
v 0.3 0.6 -0.1
v 0.8 0.6 -0.1
v 0.9 0.6 -0.1
v 0.1 0.6 -0.2
v 0.2 0.6 -0.2
v 0.3 0.6 -0.2
v 0.8 0.6 -0.2
v 0.9 0.6 -0.2
v 1 0.6 -0.2
v 0 0.6 -0.3
v 0.1 0.6 -0.3
v 0.2 0.6 -0.3
v 0.9 0.6 -0.3
v 1 0.6 -0.3
v 1.1 0.6 -0.3
v 0 0.6 -0.8
v 0.1 0.6 -0.8
v 0.2 0.6 -0.8
v 0.9 0.6 -0.8
v 1 0.6 -0.8
v 1.1 0.6 -0.8
v 0.1 0.6 -0.9
v 0.2 0.6 -0.9
v 0.3 0.6 -0.9
v 0.8 0.6 -0.9
v 0.9 0.6 -0.9
v 1 0.6 -0.9
v 0.2 0.6 -1
v 0.3 0.6 -1
v 0.8 0.6 -1
v 0.9 0.6 -1
v 0.3 0.6 -1.1
v 0.8 0.6 -1.1
v 0.3 1.8 0
v 0.8 1.8 0
v 0.2 1.8 -0.1
v 0.3 1.8 -0.1
v 0.8 1.8 -0.1
v 0.9 1.8 -0.1
v 0.1 1.8 -0.2
v 0.2 1.8 -0.2
v 0.3 1.8 -0.2
v 0.8 1.8 -0.2
v 0.9 1.8 -0.2
v 1 1.8 -0.2
v 0 1.8 -0.3
v 0.1 1.8 -0.3
v 0.2 1.8 -0.3
v 0.3 1.8 -0.3
v 0.8 1.8 -0.3
v 0.9 1.8 -0.3
v 1 1.8 -0.3
v 1.1 1.8 -0.3
v 0 1.8 -0.8
v 0.1 1.8 -0.8
v 0.2 1.8 -0.8
v 0.3 1.8 -0.8
v 0.6 1.8 -0.8
v 0.7 1.8 -0.8
v 0.8 1.8 -0.8
v 0.9 1.8 -0.8
v 1 1.8 -0.8
v 1.1 1.8 -0.8
v 0.1 1.8 -0.9
v 0.2 1.8 -0.9
v 0.3 1.8 -0.9
v 0.6 1.8 -0.9
v 0.7 1.8 -0.9
v 0.8 1.8 -0.9
v 0.9 1.8 -0.9
v 1 1.8 -0.9
v 0.2 1.8 -1
v 0.3 1.8 -1
v 0.8 1.8 -1
v 0.9 1.8 -1
v 0.3 1.8 -1.1
v 0.8 1.8 -1.1
v 0.3 0.7 0
v 0.8 0.7 0
v 0.2 0.7 -0.1
v 0.3 0.7 -0.1
v 0.8 0.7 -0.1
v 0.9 0.7 -0.1
v 0.1 0.7 -0.2
v 0.2 0.7 -0.2
v 0.3 0.7 -0.2
v 0.8 0.7 -0.2
v 0.9 0.7 -0.2
v 1 0.7 -0.2
v 0 0.7 -0.3
v 0.1 0.7 -0.3
v 0.2 0.7 -0.3
v 0.3 0.7 -0.3
v 0.8 0.7 -0.3
v 0.9 0.7 -0.3
v 1 0.7 -0.3
v 1.1 0.7 -0.3
v 0 0.7 -0.8
v 0.1 0.7 -0.8
v 0.2 0.7 -0.8
v 0.3 0.7 -0.8
v 0.8 0.7 -0.8
v 0.9 0.7 -0.8
v 1 0.7 -0.8
v 1.1 0.7 -0.8
v 0.1 0.7 -0.9
v 0.2 0.7 -0.9
v 0.3 0.7 -0.9
v 0.8 0.7 -0.9
v 0.9 0.7 -0.9
v 1 0.7 -0.9
v 0.2 0.7 -1
v 0.3 0.7 -1
v 0.8 0.7 -1
v 0.9 0.7 -1
v 0.3 0.7 -1.1
v 0.8 0.7 -1.1
v 0.3 1.9 0
v 0.8 1.9 0
v 0.2 1.9 -0.1
v 0.3 1.9 -0.1
v 0.8 1.9 -0.1
v 0.9 1.9 -0.1
v 0.1 1.9 -0.2
v 0.2 1.9 -0.2
v 0.3 1.9 -0.2
v 0.8 1.9 -0.2
v 0.9 1.9 -0.2
v 1 1.9 -0.2
v 0 1.9 -0.3
v 0.1 1.9 -0.3
v 0.2 1.9 -0.3
v 0.9 1.9 -0.3
v 1 1.9 -0.3
v 1.1 1.9 -0.3
v 0 1.9 -0.8
v 0.1 1.9 -0.8
v 0.2 1.9 -0.8
v 0.6 1.9 -0.8
v 0.7 1.9 -0.8
v 0.9 1.9 -0.8
v 1 1.9 -0.8
v 1.1 1.9 -0.8
v 0.1 1.9 -0.9
v 0.2 1.9 -0.9
v 0.3 1.9 -0.9
v 0.6 1.9 -0.9
v 0.7 1.9 -0.9
v 0.8 1.9 -0.9
v 0.9 1.9 -0.9
v 1 1.9 -0.9
v 0.2 1.9 -1
v 0.3 1.9 -1
v 0.8 1.9 -1
v 0.9 1.9 -1
v 0.3 1.9 -1.1
v 0.8 1.9 -1.1

# faces
f 3/1/1 2/1/1 1/1/1
f 4/1/1 2/1/1 3/1/1
f 7/1/1 6/1/1 5/1/1
f 8/1/1 6/1/1 7/1/1
f 13/1/1 10/1/1 9/1/1
f 14/1/1 10/1/1 13/1/1
f 15/1/1 12/1/1 11/1/1
f 16/1/1 12/1/1 15/1/1
f 17/2/1 15/2/1 14/2/1
f 18/2/1 15/2/1 17/2/1
f 19/1/1 18/1/1 17/1/1
f 20/1/1 18/1/1 19/1/1
f 21/2/1 20/2/1 19/2/1
f 22/2/1 20/2/1 21/2/1
f 23/1/1 22/1/1 21/1/1
f 24/1/1 22/1/1 23/1/1
f 26/2/1 24/2/1 23/2/1
f 27/2/1 24/2/1 26/2/1
f 29/1/1 26/1/1 25/1/1
f 30/1/1 26/1/1 29/1/1
f 31/1/1 28/1/1 27/1/1
f 32/1/1 28/1/1 31/1/1
f 37/1/1 34/1/1 33/1/1
f 38/1/1 34/1/1 37/1/1
f 41/1/1 36/1/1 35/1/1
f 42/1/1 36/1/1 41/1/1
f 43/2/1 39/2/1 38/2/1
f 44/2/1 39/2/1 43/2/1
f 45/2/1 41/2/1 40/2/1
f 46/2/1 41/2/1 45/2/1
f 47/1/1 44/1/1 43/1/1
f 48/1/1 44/1/1 47/1/1
f 49/1/1 46/1/1 45/1/1
f 50/1/1 46/1/1 49/1/1
f 51/2/1 48/2/1 47/2/1
f 52/2/1 48/2/1 51/2/1
f 53/2/1 50/2/1 49/2/1
f 54/2/1 50/2/1 53/2/1
f 55/1/1 52/1/1 51/1/1
f 56/1/1 52/1/1 55/1/1
f 57/1/1 54/1/1 53/1/1
f 58/1/1 54/1/1 57/1/1
f 60/2/1 56/2/1 55/2/1
f 61/2/1 56/2/1 60/2/1
f 62/2/1 58/2/1 57/2/1
f 63/2/1 58/2/1 62/2/1
f 65/1/1 60/1/1 59/1/1
f 66/1/1 60/1/1 65/1/1
f 67/1/1 64/1/1 63/1/1
f 68/1/1 64/1/1 67/1/1
f 73/1/1 70/1/1 69/1/1
f 74/1/1 70/1/1 73/1/1
f 77/1/1 72/1/1 71/1/1
f 78/1/1 72/1/1 77/1/1
f 79/2/1 75/2/1 74/2/1
f 80/2/1 75/2/1 79/2/1
f 81/2/1 77/2/1 76/2/1
f 82/2/1 77/2/1 81/2/1
f 83/1/1 80/1/1 79/1/1
f 84/1/1 80/1/1 83/1/1
f 85/1/1 82/1/1 81/1/1
f 86/1/1 82/1/1 85/1/1
f 87/2/1 84/2/1 83/2/1
f 88/2/1 84/2/1 87/2/1
f 89/2/1 86/2/1 85/2/1
f 90/2/1 86/2/1 89/2/1
f 91/1/1 88/1/1 87/1/1
f 92/1/1 88/1/1 91/1/1
f 93/1/1 90/1/1 89/1/1
f 94/1/1 90/1/1 93/1/1
f 96/2/1 92/2/1 91/2/1
f 97/2/1 92/2/1 96/2/1
f 98/2/1 94/2/1 93/2/1
f 99/2/1 94/2/1 98/2/1
f 101/1/1 96/1/1 95/1/1
f 102/1/1 96/1/1 101/1/1
f 103/1/1 100/1/1 99/1/1
f 104/1/1 100/1/1 103/1/1
f 109/2/1 106/2/1 105/2/1
f 110/2/1 106/2/1 109/2/1
f 111/2/1 108/2/1 107/2/1
f 112/2/1 108/2/1 111/2/1
f 113/1/1 110/1/1 109/1/1
f 114/1/1 110/1/1 113/1/1
f 115/1/1 112/1/1 111/1/1
f 116/1/1 112/1/1 115/1/1
f 117/2/1 114/2/1 113/2/1
f 118/2/1 114/2/1 117/2/1
f 119/2/1 116/2/1 115/2/1
f 120/2/1 116/2/1 119/2/1
f 121/1/1 118/1/1 117/1/1
f 122/1/1 118/1/1 121/1/1
f 123/1/1 120/1/1 119/1/1
f 124/1/1 120/1/1 123/1/1
f 125/2/1 122/2/1 121/2/1
f 126/2/1 122/2/1 125/2/1
f 127/2/1 124/2/1 123/2/1
f 128/2/1 124/2/1 127/2/1
f 131/2/1 130/2/1 129/2/1
f 132/2/1 130/2/1 131/2/1
f 133/1/1 132/1/1 131/1/1
f 134/1/1 132/1/1 133/1/1
f 135/2/1 134/2/1 133/2/1
f 136/2/1 134/2/1 135/2/1
f 137/1/1 136/1/1 135/1/1
f 138/1/1 136/1/1 137/1/1
f 139/2/1 138/2/1 137/2/1
f 140/2/1 138/2/1 139/2/1
f 141/2/2 142/2/2 143/2/2
f 143/2/2 142/2/2 144/2/2
f 143/1/2 144/1/2 145/1/2
f 145/1/2 144/1/2 146/1/2
f 145/2/2 146/2/2 147/2/2
f 147/2/2 146/2/2 148/2/2
f 147/1/2 148/1/2 149/1/2
f 149/1/2 148/1/2 150/1/2
f 149/2/2 150/2/2 151/2/2
f 151/2/2 150/2/2 152/2/2
f 153/2/2 154/2/2 157/2/2
f 157/2/2 154/2/2 158/2/2
f 155/2/2 156/2/2 159/2/2
f 159/2/2 156/2/2 160/2/2
f 157/1/2 158/1/2 161/1/2
f 161/1/2 158/1/2 162/1/2
f 159/1/2 160/1/2 163/1/2
f 163/1/2 160/1/2 164/1/2
f 161/2/2 162/2/2 165/2/2
f 165/2/2 162/2/2 166/2/2
f 163/2/2 164/2/2 167/2/2
f 167/2/2 164/2/2 168/2/2
f 165/1/2 166/1/2 169/1/2
f 169/1/2 166/1/2 170/1/2
f 167/1/2 168/1/2 171/1/2
f 171/1/2 168/1/2 172/1/2
f 169/2/2 170/2/2 173/2/2
f 173/2/2 170/2/2 174/2/2
f 171/2/2 172/2/2 175/2/2
f 175/2/2 172/2/2 176/2/2
f 177/1/2 178/1/2 181/1/2
f 181/1/2 178/1/2 182/1/2
f 179/1/2 180/1/2 185/1/2
f 185/1/2 180/1/2 186/1/2
f 182/2/2 183/2/2 187/2/2
f 187/2/2 183/2/2 188/2/2
f 184/2/2 185/2/2 189/2/2
f 189/2/2 185/2/2 190/2/2
f 187/1/2 188/1/2 191/1/2
f 191/1/2 188/1/2 192/1/2
f 189/1/2 190/1/2 193/1/2
f 193/1/2 190/1/2 194/1/2
f 191/2/2 192/2/2 195/2/2
f 195/2/2 192/2/2 196/2/2
f 193/2/2 194/2/2 197/2/2
f 197/2/2 194/2/2 198/2/2
f 195/1/2 196/1/2 199/1/2
f 199/1/2 196/1/2 200/1/2
f 197/1/2 198/1/2 201/1/2
f 201/1/2 198/1/2 202/1/2
f 199/2/2 200/2/2 204/2/2
f 204/2/2 200/2/2 205/2/2
f 201/2/2 202/2/2 206/2/2
f 206/2/2 202/2/2 207/2/2
f 203/1/2 204/1/2 209/1/2
f 209/1/2 204/1/2 210/1/2
f 207/1/2 208/1/2 211/1/2
f 211/1/2 208/1/2 212/1/2
f 213/1/2 214/1/2 217/1/2
f 217/1/2 214/1/2 218/1/2
f 215/1/2 216/1/2 221/1/2
f 221/1/2 216/1/2 222/1/2
f 218/2/2 219/2/2 223/2/2
f 223/2/2 219/2/2 224/2/2
f 220/2/2 221/2/2 225/2/2
f 225/2/2 221/2/2 226/2/2
f 223/1/2 224/1/2 227/1/2
f 227/1/2 224/1/2 228/1/2
f 225/1/2 226/1/2 229/1/2
f 229/1/2 226/1/2 230/1/2
f 227/2/2 228/2/2 231/2/2
f 231/2/2 228/2/2 232/2/2
f 229/2/2 230/2/2 233/2/2
f 233/2/2 230/2/2 234/2/2
f 231/1/2 232/1/2 235/1/2
f 235/1/2 232/1/2 236/1/2
f 233/1/2 234/1/2 237/1/2
f 237/1/2 234/1/2 238/1/2
f 235/2/2 236/2/2 240/2/2
f 240/2/2 236/2/2 241/2/2
f 237/2/2 238/2/2 242/2/2
f 242/2/2 238/2/2 243/2/2
f 239/1/2 240/1/2 245/1/2
f 245/1/2 240/1/2 246/1/2
f 243/1/2 244/1/2 247/1/2
f 247/1/2 244/1/2 248/1/2
f 249/1/2 250/1/2 253/1/2
f 253/1/2 250/1/2 254/1/2
f 251/1/2 252/1/2 255/1/2
f 255/1/2 252/1/2 256/1/2
f 254/2/2 255/2/2 257/2/2
f 257/2/2 255/2/2 258/2/2
f 257/1/2 258/1/2 259/1/2
f 259/1/2 258/1/2 260/1/2
f 259/2/2 260/2/2 261/2/2
f 261/2/2 260/2/2 262/2/2
f 261/1/2 262/1/2 263/1/2
f 263/1/2 262/1/2 264/1/2
f 263/2/2 264/2/2 266/2/2
f 266/2/2 264/2/2 267/2/2
f 265/1/2 266/1/2 269/1/2
f 269/1/2 266/1/2 270/1/2
f 267/1/2 268/1/2 271/1/2
f 271/1/2 268/1/2 272/1/2
f 273/1/2 274/1/2 275/1/2
f 275/1/2 274/1/2 276/1/2
f 277/1/2 278/1/2 279/1/2
f 279/1/2 278/1/2 280/1/2
f 285/1/3 282/1/3 281/1/3
f 286/1/3 282/1/3 285/1/3
f 287/1/3 284/1/3 283/1/3
f 288/1/3 284/1/3 287/1/3
f 293/1/3 290/1/3 289/1/3
f 294/1/3 290/1/3 293/1/3
f 299/1/3 292/1/3 291/1/3
f 300/1/3 292/1/3 299/1/3
f 302/2/3 295/2/3 294/2/3
f 303/1/3 296/1/3 295/1/3
f 303/2/3 295/2/3 302/2/3
f 304/2/3 297/2/3 296/2/3
f 304/1/3 296/1/3 303/1/3
f 305/1/3 298/1/3 297/1/3
f 305/2/3 297/2/3 304/2/3
f 306/2/3 299/2/3 298/2/3
f 306/1/3 298/1/3 305/1/3
f 307/2/3 299/2/3 306/2/3
f 309/1/3 302/1/3 301/1/3
f 310/1/3 302/1/3 309/1/3
f 311/1/3 308/1/3 307/1/3
f 312/1/3 308/1/3 311/1/3
f 317/1/3 314/1/3 313/1/3
f 318/1/3 314/1/3 317/1/3
f 323/1/3 316/1/3 315/1/3
f 324/1/3 316/1/3 323/1/3
f 325/2/3 319/2/3 318/2/3
f 326/1/3 320/1/3 319/1/3
f 326/2/3 319/2/3 325/2/3
f 327/2/3 321/2/3 320/2/3
f 327/1/3 320/1/3 326/1/3
f 328/1/3 322/1/3 321/1/3
f 328/2/3 321/2/3 327/2/3
f 329/2/3 323/2/3 322/2/3
f 329/1/3 322/1/3 328/1/3
f 330/2/3 323/2/3 329/2/3
f 338/2/3 332/2/3 331/2/3
f 339/1/3 333/1/3 332/1/3
f 339/2/3 332/2/3 338/2/3
f 340/2/3 334/2/3 333/2/3
f 340/1/3 333/1/3 339/1/3
f 341/1/3 335/1/3 334/1/3
f 341/2/3 334/2/3 340/2/3
f 342/2/3 336/2/3 335/2/3
f 342/1/3 335/1/3 341/1/3
f 343/2/3 336/2/3 342/2/3
f 345/1/3 338/1/3 337/1/3
f 346/1/3 338/1/3 345/1/3
f 347/1/3 344/1/3 343/1/3
f 348/1/3 344/1/3 347/1/3
f 353/1/3 350/1/3 349/1/3
f 354/1/3 350/1/3 353/1/3
f 359/1/3 352/1/3 351/1/3
f 360/1/3 352/1/3 359/1/3
f 361/2/3 355/2/3 354/2/3
f 362/1/3 356/1/3 355/1/3
f 362/2/3 355/2/3 361/2/3
f 363/2/3 357/2/3 356/2/3
f 363/1/3 356/1/3 362/1/3
f 364/1/3 358/1/3 357/1/3
f 364/2/3 357/2/3 363/2/3
f 365/2/3 359/2/3 358/2/3
f 365/1/3 358/1/3 364/1/3
f 366/2/3 359/2/3 365/2/3
f 374/2/3 368/2/3 367/2/3
f 375/1/3 369/1/3 368/1/3
f 375/2/3 368/2/3 374/2/3
f 376/2/3 370/2/3 369/2/3
f 376/1/3 369/1/3 375/1/3
f 377/1/3 371/1/3 370/1/3
f 377/2/3 370/2/3 376/2/3
f 378/2/3 372/2/3 371/2/3
f 378/1/3 371/1/3 377/1/3
f 379/2/3 372/2/3 378/2/3
f 381/1/3 374/1/3 373/1/3
f 382/1/3 374/1/3 381/1/3
f 383/1/3 380/1/3 379/1/3
f 384/1/3 380/1/3 383/1/3
f 391/2/3 386/2/3 385/2/3
f 392/1/3 387/1/3 386/1/3
f 392/2/3 386/2/3 391/2/3
f 393/2/3 388/2/3 387/2/3
f 393/1/3 387/1/3 392/1/3
f 394/1/3 389/1/3 388/1/3
f 394/2/3 388/2/3 393/2/3
f 395/2/3 390/2/3 389/2/3
f 395/1/3 389/1/3 394/1/3
f 396/2/3 390/2/3 395/2/3
f 403/2/3 398/2/3 397/2/3
f 404/1/3 399/1/3 398/1/3
f 404/2/3 398/2/3 403/2/3
f 405/2/3 400/2/3 399/2/3
f 405/1/3 399/1/3 404/1/3
f 406/1/3 401/1/3 400/1/3
f 406/2/3 400/2/3 405/2/3
f 407/2/3 402/2/3 401/2/3
f 407/1/3 401/1/3 406/1/3
f 408/2/3 402/2/3 407/2/3
f 415/2/3 414/2/3 413/2/3
f 416/2/3 415/2/3 413/2/3
f 417/2/3 410/2/3 409/2/3
f 418/1/3 411/1/3 410/1/3
f 418/2/3 410/2/3 417/2/3
f 419/2/3 412/2/3 411/2/3
f 419/1/3 411/1/3 418/1/3
f 420/1/3 413/1/3 412/1/3
f 420/2/3 412/2/3 419/2/3
f 421/2/3 416/2/3 413/2/3
f 421/1/3 413/1/3 420/1/3
f 422/2/3 416/2/3 421/2/3
f 423/2/4 424/2/4 429/2/4
f 424/1/4 425/1/4 430/1/4
f 429/2/4 424/2/4 430/2/4
f 425/2/4 426/2/4 431/2/4
f 430/1/4 425/1/4 431/1/4
f 426/1/4 427/1/4 432/1/4
f 431/2/4 426/2/4 432/2/4
f 427/2/4 428/2/4 433/2/4
f 432/1/4 427/1/4 433/1/4
f 433/2/4 428/2/4 434/2/4
f 435/2/4 436/2/4 441/2/4
f 436/1/4 437/1/4 442/1/4
f 441/2/4 436/2/4 442/2/4
f 437/2/4 438/2/4 443/2/4
f 442/1/4 437/1/4 443/1/4
f 438/1/4 439/1/4 444/1/4
f 443/2/4 438/2/4 444/2/4
f 439/2/4 440/2/4 445/2/4
f 444/1/4 439/1/4 445/1/4
f 445/2/4 440/2/4 446/2/4
f 447/2/4 448/2/4 453/2/4
f 448/1/4 449/1/4 454/1/4
f 453/2/4 448/2/4 454/2/4
f 449/2/4 450/2/4 455/2/4
f 454/1/4 449/1/4 455/1/4
f 450/1/4 451/1/4 456/1/4
f 455/2/4 450/2/4 456/2/4
f 451/2/4 452/2/4 457/2/4
f 456/1/4 451/1/4 457/1/4
f 457/2/4 452/2/4 458/2/4
f 459/1/4 460/1/4 463/1/4
f 463/1/4 460/1/4 464/1/4
f 461/1/4 462/1/4 469/1/4
f 469/1/4 462/1/4 470/1/4
f 464/2/4 465/2/4 471/2/4
f 465/1/4 466/1/4 472/1/4
f 471/2/4 465/2/4 472/2/4
f 466/2/4 467/2/4 473/2/4
f 472/1/4 466/1/4 473/1/4
f 467/1/4 468/1/4 474/1/4
f 473/2/4 467/2/4 474/2/4
f 468/2/4 469/2/4 475/2/4
f 474/1/4 468/1/4 475/1/4
f 475/2/4 469/2/4 476/2/4
f 477/2/4 478/2/4 484/2/4
f 478/1/4 479/1/4 485/1/4
f 484/2/4 478/2/4 485/2/4
f 479/2/4 480/2/4 486/2/4
f 485/1/4 479/1/4 486/1/4
f 480/1/4 481/1/4 487/1/4
f 486/2/4 480/2/4 487/2/4
f 481/2/4 482/2/4 488/2/4
f 487/1/4 481/1/4 488/1/4
f 488/2/4 482/2/4 489/2/4
f 483/1/4 484/1/4 491/1/4
f 491/1/4 484/1/4 492/1/4
f 489/1/4 490/1/4 493/1/4
f 493/1/4 490/1/4 494/1/4
f 495/1/4 496/1/4 499/1/4
f 499/1/4 496/1/4 500/1/4
f 497/1/4 498/1/4 505/1/4
f 505/1/4 498/1/4 506/1/4
f 500/2/4 501/2/4 507/2/4
f 501/1/4 502/1/4 508/1/4
f 507/2/4 501/2/4 508/2/4
f 502/2/4 503/2/4 509/2/4
f 508/1/4 502/1/4 509/1/4
f 503/1/4 504/1/4 510/1/4
f 509/2/4 503/2/4 510/2/4
f 504/2/4 505/2/4 511/2/4
f 510/1/4 504/1/4 511/1/4
f 511/2/4 505/2/4 512/2/4
f 513/2/4 514/2/4 520/2/4
f 514/1/4 515/1/4 521/1/4
f 520/2/4 514/2/4 521/2/4
f 515/2/4 516/2/4 522/2/4
f 521/1/4 515/1/4 522/1/4
f 516/1/4 517/1/4 523/1/4
f 522/2/4 516/2/4 523/2/4
f 517/2/4 518/2/4 524/2/4
f 523/1/4 517/1/4 524/1/4
f 524/2/4 518/2/4 525/2/4
f 519/1/4 520/1/4 527/1/4
f 527/1/4 520/1/4 528/1/4
f 525/1/4 526/1/4 529/1/4
f 529/1/4 526/1/4 530/1/4
f 531/1/4 532/1/4 535/1/4
f 535/1/4 532/1/4 536/1/4
f 533/1/4 534/1/4 541/1/4
f 541/1/4 534/1/4 542/1/4
f 536/2/4 537/2/4 544/2/4
f 537/1/4 538/1/4 545/1/4
f 544/2/4 537/2/4 545/2/4
f 538/2/4 539/2/4 546/2/4
f 545/1/4 538/1/4 546/1/4
f 539/1/4 540/1/4 547/1/4
f 546/2/4 539/2/4 547/2/4
f 540/2/4 541/2/4 548/2/4
f 547/1/4 540/1/4 548/1/4
f 548/2/4 541/2/4 549/2/4
f 543/1/4 544/1/4 551/1/4
f 551/1/4 544/1/4 552/1/4
f 549/1/4 550/1/4 553/1/4
f 553/1/4 550/1/4 554/1/4
f 555/1/4 556/1/4 559/1/4
f 559/1/4 556/1/4 560/1/4
f 557/1/4 558/1/4 561/1/4
f 561/1/4 558/1/4 562/1/4
f 566/1/5 564/1/5 563/1/5
f 567/1/5 564/1/5 566/1/5
f 570/1/5 566/1/5 565/1/5
f 571/2/5 567/2/5 566/2/5
f 571/1/5 566/1/5 570/1/5
f 572/1/5 568/1/5 567/1/5
f 572/2/5 567/2/5 571/2/5
f 573/1/5 568/1/5 572/1/5
f 576/1/5 570/1/5 569/1/5
f 577/2/5 571/2/5 570/2/5
f 577/2/5 572/2/5 571/2/5
f 577/1/5 570/1/5 576/1/5
f 577/2/5 573/2/5 572/2/5
f 578/1/5 574/1/5 573/1/5
f 578/2/5 573/2/5 577/2/5
f 579/1/5 574/1/5 578/1/5
f 581/1/5 576/1/5 575/1/5
f 582/2/5 577/2/5 576/2/5
f 582/1/5 576/1/5 581/1/5
f 582/2/5 578/2/5 577/2/5
f 582/2/5 579/2/5 578/2/5
f 583/2/5 579/2/5 582/2/5
f 584/2/5 579/2/5 583/2/5
f 585/1/5 580/1/5 579/1/5
f 585/2/5 579/2/5 584/2/5
f 586/1/5 580/1/5 585/1/5
f 587/1/5 583/1/5 582/1/5
f 588/2/5 584/2/5 583/2/5
f 588/1/5 583/1/5 587/1/5
f 589/2/5 584/2/5 588/2/5
f 590/2/5 584/2/5 589/2/5
f 591/1/5 585/1/5 584/1/5
f 591/2/5 584/2/5 590/2/5
f 592/1/5 585/1/5 591/1/5
f 593/1/5 589/1/5 588/1/5
f 594/2/5 590/2/5 589/2/5
f 594/1/5 589/1/5 593/1/5
f 595/1/5 591/1/5 590/1/5
f 595/2/5 590/2/5 594/2/5
f 596/1/5 591/1/5 595/1/5
f 597/1/5 595/1/5 594/1/5
f 598/1/5 595/1/5 597/1/5
f 602/1/5 600/1/5 599/1/5
f 603/1/5 600/1/5 602/1/5
f 606/1/5 602/1/5 601/1/5
f 607/1/5 602/1/5 606/1/5
f 608/1/5 604/1/5 603/1/5
f 609/1/5 604/1/5 608/1/5
f 612/1/5 606/1/5 605/1/5
f 613/1/5 606/1/5 612/1/5
f 614/2/5 608/2/5 607/2/5
f 615/2/5 608/2/5 614/2/5
f 616/1/5 610/1/5 609/1/5
f 617/1/5 610/1/5 616/1/5
f 619/1/5 612/1/5 611/1/5
f 620/1/5 612/1/5 619/1/5
f 621/2/5 615/2/5 614/2/5
f 621/2/5 616/2/5 615/2/5
f 621/2/5 614/2/5 613/2/5
f 622/2/5 616/2/5 621/2/5
f 623/2/5 616/2/5 622/2/5
f 624/2/5 616/2/5 623/2/5
f 625/2/5 616/2/5 624/2/5
f 626/2/5 616/2/5 625/2/5
f 627/1/5 618/1/5 617/1/5
f 628/1/5 618/1/5 627/1/5
f 629/1/5 621/1/5 620/1/5
f 630/1/5 621/1/5 629/1/5
f 631/2/5 623/2/5 622/2/5
f 632/3/5 624/3/5 623/3/5
f 632/2/5 623/2/5 631/2/5
f 633/2/5 625/2/5 624/2/5
f 633/3/5 624/3/5 632/3/5
f 634/2/5 625/2/5 633/2/5
f 635/1/5 627/1/5 626/1/5
f 636/1/5 627/1/5 635/1/5
f 637/1/5 631/1/5 630/1/5
f 638/1/5 631/1/5 637/1/5
f 639/1/5 635/1/5 634/1/5
f 640/1/5 635/1/5 639/1/5
f 641/1/5 639/1/5 638/1/5
f 642/1/5 639/1/5 641/1/5
f 643/1/6 644/1/6 646/1/6
f 646/1/6 644/1/6 647/1/6
f 645/1/6 646/1/6 650/1/6
f 650/1/6 646/1/6 651/1/6
f 647/1/6 648/1/6 652/1/6
f 652/1/6 648/1/6 653/1/6
f 649/1/6 650/1/6 656/1/6
f 656/1/6 650/1/6 657/1/6
f 651/2/6 652/2/6 658/2/6
f 658/2/6 652/2/6 659/2/6
f 653/1/6 654/1/6 660/1/6
f 660/1/6 654/1/6 661/1/6
f 655/1/6 656/1/6 663/1/6
f 663/1/6 656/1/6 664/1/6
f 658/2/6 659/2/6 665/2/6
f 659/2/6 660/2/6 665/2/6
f 657/2/6 658/2/6 665/2/6
f 665/2/6 660/2/6 666/2/6
f 666/2/6 660/2/6 667/2/6
f 667/2/6 660/2/6 668/2/6
f 661/1/6 662/1/6 669/1/6
f 669/1/6 662/1/6 670/1/6
f 664/1/6 665/1/6 671/1/6
f 671/1/6 665/1/6 672/1/6
f 666/2/6 667/2/6 673/2/6
f 673/2/6 667/2/6 674/2/6
f 668/1/6 669/1/6 675/1/6
f 675/1/6 669/1/6 676/1/6
f 672/1/6 673/1/6 677/1/6
f 677/1/6 673/1/6 678/1/6
f 674/1/6 675/1/6 679/1/6
f 679/1/6 675/1/6 680/1/6
f 678/1/6 679/1/6 681/1/6
f 681/1/6 679/1/6 682/1/6
f 683/1/6 684/1/6 686/1/6
f 686/1/6 684/1/6 687/1/6
f 685/1/6 686/1/6 690/1/6
f 686/2/6 687/2/6 691/2/6
f 690/1/6 686/1/6 691/1/6
f 687/1/6 688/1/6 692/1/6
f 691/2/6 687/2/6 692/2/6
f 692/1/6 688/1/6 693/1/6
f 689/1/6 690/1/6 696/1/6
f 690/2/6 691/2/6 697/2/6
f 691/2/6 692/2/6 697/2/6
f 696/1/6 690/1/6 697/1/6
f 692/2/6 693/2/6 697/2/6
f 693/1/6 694/1/6 698/1/6
f 697/2/6 693/2/6 698/2/6
f 698/1/6 694/1/6 699/1/6
f 695/1/6 696/1/6 701/1/6
f 696/2/6 697/2/6 702/2/6
f 701/1/6 696/1/6 702/1/6
f 697/2/6 698/2/6 702/2/6
f 698/2/6 699/2/6 702/2/6
f 702/2/6 699/2/6 703/2/6
f 703/2/6 699/2/6 704/2/6
f 704/2/6 699/2/6 705/2/6
f 705/2/6 699/2/6 706/2/6
f 699/1/6 700/1/6 707/1/6
f 706/2/6 699/2/6 707/2/6
f 707/1/6 700/1/6 708/1/6
f 702/1/6 703/1/6 709/1/6
f 703/2/6 704/2/6 710/2/6
f 709/1/6 703/1/6 710/1/6
f 710/2/6 704/2/6 711/2/6
f 704/3/6 705/3/6 712/3/6
f 711/2/6 704/2/6 712/2/6
f 705/2/6 706/2/6 713/2/6
f 712/3/6 705/3/6 713/3/6
f 713/2/6 706/2/6 714/2/6
f 706/1/6 707/1/6 715/1/6
f 714/2/6 706/2/6 715/2/6
f 715/1/6 707/1/6 716/1/6
f 710/1/6 711/1/6 717/1/6
f 711/2/6 712/2/6 718/2/6
f 717/1/6 711/1/6 718/1/6
f 713/2/6 714/2/6 718/2/6
f 712/2/6 713/2/6 718/2/6
f 714/1/6 715/1/6 719/1/6
f 718/2/6 714/2/6 719/2/6
f 719/1/6 715/1/6 720/1/6
f 718/1/6 719/1/6 721/1/6
f 721/1/6 719/1/6 722/1/6
