# MagicaVoxel @ Ephtracy

# group
o 

# material
mtllib Board.mtl
usemtl palette

# normals
vn -1 0 0
vn 1 0 0
vn 0 0 1
vn 0 0 -1
vn 0 -1 0
vn 0 1 0

# texcoords
vt 0.154297 0.5
vt 0.271484 0.5

# verts
v 0 0.1 0
v 0 0.1 -0.2
v 0 0.1 -0.6
v 0 0.1 -0.8
v 0 0.1 -1.2
v 0 0.1 -1.4
v 0 0.2 0
v 0 0.2 -0.2
v 0 0.2 -0.6
v 0 0.2 -0.8
v 0 0.2 -1.2
v 0 0.2 -1.4
v 0 0.3 0
v 0 0.3 -1.4
v 0.3 0.2 0
v 0.3 0.2 -0.2
v 0.3 0.2 -0.6
v 0.3 0.2 -0.8
v 0.3 0.2 -1.2
v 0.3 0.2 -1.4
v 0.3 0.3 0
v 0.3 0.3 -1.4
v 0.6 0.2 0
v 0.6 0.2 -0.2
v 0.6 0.2 -0.6
v 0.6 0.2 -0.8
v 0.6 0.2 -1.2
v 0.6 0.2 -1.4
v 0.6 0.3 0
v 0.6 0.3 -1.4
v 0.9 0.2 0
v 0.9 0.2 -0.2
v 0.9 0.2 -0.6
v 0.9 0.2 -0.8
v 0.9 0.2 -1.2
v 0.9 0.2 -1.4
v 0.9 0.3 0
v 0.9 0.3 -1.4
v 1.2 0.2 0
v 1.2 0.2 -0.2
v 1.2 0.2 -0.6
v 1.2 0.2 -0.8
v 1.2 0.2 -1.2
v 1.2 0.2 -1.4
v 1.2 0.3 0
v 1.2 0.3 -1.4
v 1.5 0.2 0
v 1.5 0.2 -0.2
v 1.5 0.2 -0.6
v 1.5 0.2 -0.8
v 1.5 0.2 -1.2
v 1.5 0.2 -1.4
v 1.5 0.3 0
v 1.5 0.3 -1.4
v 1.8 0.2 0
v 1.8 0.2 -0.2
v 1.8 0.2 -0.6
v 1.8 0.2 -0.8
v 1.8 0.2 -1.2
v 1.8 0.2 -1.4
v 1.8 0.3 0
v 1.8 0.3 -1.4
v 0.2 0.2 0
v 0.2 0.2 -0.2
v 0.2 0.2 -0.6
v 0.2 0.2 -0.8
v 0.2 0.2 -1.2
v 0.2 0.2 -1.4
v 0.2 0.3 0
v 0.2 0.3 -1.4
v 0.5 0.2 0
v 0.5 0.2 -0.2
v 0.5 0.2 -0.6
v 0.5 0.2 -0.8
v 0.5 0.2 -1.2
v 0.5 0.2 -1.4
v 0.5 0.3 0
v 0.5 0.3 -1.4
v 0.8 0.2 0
v 0.8 0.2 -0.2
v 0.8 0.2 -0.6
v 0.8 0.2 -0.8
v 0.8 0.2 -1.2
v 0.8 0.2 -1.4
v 0.8 0.3 0
v 0.8 0.3 -1.4
v 1.1 0.2 0
v 1.1 0.2 -0.2
v 1.1 0.2 -0.6
v 1.1 0.2 -0.8
v 1.1 0.2 -1.2
v 1.1 0.2 -1.4
v 1.1 0.3 0
v 1.1 0.3 -1.4
v 1.4 0.2 0
v 1.4 0.2 -0.2
v 1.4 0.2 -0.6
v 1.4 0.2 -0.8
v 1.4 0.2 -1.2
v 1.4 0.2 -1.4
v 1.4 0.3 0
v 1.4 0.3 -1.4
v 1.7 0.2 0
v 1.7 0.2 -0.2
v 1.7 0.2 -0.6
v 1.7 0.2 -0.8
v 1.7 0.2 -1.2
v 1.7 0.2 -1.4
v 1.7 0.3 0
v 1.7 0.3 -1.4
v 2 0.1 0
v 2 0.1 -0.2
v 2 0.1 -0.6
v 2 0.1 -0.8
v 2 0.1 -1.2
v 2 0.1 -1.4
v 2 0.2 0
v 2 0.2 -0.2
v 2 0.2 -0.6
v 2 0.2 -0.8
v 2 0.2 -1.2
v 2 0.2 -1.4
v 2 0.3 0
v 2 0.3 -1.4
v 0 0.1 0
v 0 0.2 0
v 0 0.3 0
v 0.2 0.2 0
v 0.2 0.3 0
v 0.3 0.2 0
v 0.3 0.3 0
v 0.5 0.2 0
v 0.5 0.3 0
v 0.6 0.2 0
v 0.6 0.3 0
v 0.8 0.2 0
v 0.8 0.3 0
v 0.9 0.2 0
v 0.9 0.3 0
v 1.1 0.2 0
v 1.1 0.3 0
v 1.2 0.2 0
v 1.2 0.3 0
v 1.4 0.2 0
v 1.4 0.3 0
v 1.5 0.2 0
v 1.5 0.3 0
v 1.7 0.2 0
v 1.7 0.3 0
v 1.8 0.2 0
v 1.8 0.3 0
v 2 0.1 0
v 2 0.2 0
v 2 0.3 0
v 0 0.1 -0.6
v 0 0.2 -0.6
v 0.2 0.2 -0.6
v 0.3 0.2 -0.6
v 0.5 0.2 -0.6
v 0.6 0.2 -0.6
v 0.8 0.2 -0.6
v 0.9 0.2 -0.6
v 1.1 0.2 -0.6
v 1.2 0.2 -0.6
v 1.4 0.2 -0.6
v 1.5 0.2 -0.6
v 1.7 0.2 -0.6
v 1.8 0.2 -0.6
v 2 0.1 -0.6
v 2 0.2 -0.6
v 0 0.1 -1.2
v 0 0.2 -1.2
v 0.2 0.2 -1.2
v 0.3 0.2 -1.2
v 0.5 0.2 -1.2
v 0.6 0.2 -1.2
v 0.8 0.2 -1.2
v 0.9 0.2 -1.2
v 1.1 0.2 -1.2
v 1.2 0.2 -1.2
v 1.4 0.2 -1.2
v 1.5 0.2 -1.2
v 1.7 0.2 -1.2
v 1.8 0.2 -1.2
v 2 0.1 -1.2
v 2 0.2 -1.2
v 0 0.1 -0.2
v 0 0.2 -0.2
v 0.2 0.2 -0.2
v 0.3 0.2 -0.2
v 0.5 0.2 -0.2
v 0.6 0.2 -0.2
v 0.8 0.2 -0.2
v 0.9 0.2 -0.2
v 1.1 0.2 -0.2
v 1.2 0.2 -0.2
v 1.4 0.2 -0.2
v 1.5 0.2 -0.2
v 1.7 0.2 -0.2
v 1.8 0.2 -0.2
v 2 0.1 -0.2
v 2 0.2 -0.2
v 0 0.1 -0.8
v 0 0.2 -0.8
v 0.2 0.2 -0.8
v 0.3 0.2 -0.8
v 0.5 0.2 -0.8
v 0.6 0.2 -0.8
v 0.8 0.2 -0.8
v 0.9 0.2 -0.8
v 1.1 0.2 -0.8
v 1.2 0.2 -0.8
v 1.4 0.2 -0.8
v 1.5 0.2 -0.8
v 1.7 0.2 -0.8
v 1.8 0.2 -0.8
v 2 0.1 -0.8
v 2 0.2 -0.8
v 0 0.1 -1.4
v 0 0.2 -1.4
v 0 0.3 -1.4
v 0.2 0.2 -1.4
v 0.2 0.3 -1.4
v 0.3 0.2 -1.4
v 0.3 0.3 -1.4
v 0.5 0.2 -1.4
v 0.5 0.3 -1.4
v 0.6 0.2 -1.4
v 0.6 0.3 -1.4
v 0.8 0.2 -1.4
v 0.8 0.3 -1.4
v 0.9 0.2 -1.4
v 0.9 0.3 -1.4
v 1.1 0.2 -1.4
v 1.1 0.3 -1.4
v 1.2 0.2 -1.4
v 1.2 0.3 -1.4
v 1.4 0.2 -1.4
v 1.4 0.3 -1.4
v 1.5 0.2 -1.4
v 1.5 0.3 -1.4
v 1.7 0.2 -1.4
v 1.7 0.3 -1.4
v 1.8 0.2 -1.4
v 1.8 0.3 -1.4
v 2 0.1 -1.4
v 2 0.2 -1.4
v 2 0.3 -1.4
v 0 0.1 0
v 2 0.1 0
v 0 0.1 -0.2
v 2 0.1 -0.2
v 0 0.1 -0.6
v 2 0.1 -0.6
v 0 0.1 -0.8
v 2 0.1 -0.8
v 0 0.1 -1.2
v 2 0.1 -1.2
v 0 0.1 -1.4
v 2 0.1 -1.4
v 0 0.2 -0.2
v 0.2 0.2 -0.2
v 0.3 0.2 -0.2
v 0.5 0.2 -0.2
v 0.6 0.2 -0.2
v 0.8 0.2 -0.2
v 0.9 0.2 -0.2
v 1.1 0.2 -0.2
v 1.2 0.2 -0.2
v 1.4 0.2 -0.2
v 1.5 0.2 -0.2
v 1.7 0.2 -0.2
v 1.8 0.2 -0.2
v 2 0.2 -0.2
v 0 0.2 -0.6
v 0.2 0.2 -0.6
v 0.3 0.2 -0.6
v 0.5 0.2 -0.6
v 0.6 0.2 -0.6
v 0.8 0.2 -0.6
v 0.9 0.2 -0.6
v 1.1 0.2 -0.6
v 1.2 0.2 -0.6
v 1.4 0.2 -0.6
v 1.5 0.2 -0.6
v 1.7 0.2 -0.6
v 1.8 0.2 -0.6
v 2 0.2 -0.6
v 0 0.2 -0.8
v 0.2 0.2 -0.8
v 0.3 0.2 -0.8
v 0.5 0.2 -0.8
v 0.6 0.2 -0.8
v 0.8 0.2 -0.8
v 0.9 0.2 -0.8
v 1.1 0.2 -0.8
v 1.2 0.2 -0.8
v 1.4 0.2 -0.8
v 1.5 0.2 -0.8
v 1.7 0.2 -0.8
v 1.8 0.2 -0.8
v 2 0.2 -0.8
v 0 0.2 -1.2
v 0.2 0.2 -1.2
v 0.3 0.2 -1.2
v 0.5 0.2 -1.2
v 0.6 0.2 -1.2
v 0.8 0.2 -1.2
v 0.9 0.2 -1.2
v 1.1 0.2 -1.2
v 1.2 0.2 -1.2
v 1.4 0.2 -1.2
v 1.5 0.2 -1.2
v 1.7 0.2 -1.2
v 1.8 0.2 -1.2
v 2 0.2 -1.2
v 0.2 0.2 0
v 0.3 0.2 0
v 0.5 0.2 0
v 0.6 0.2 0
v 0.8 0.2 0
v 0.9 0.2 0
v 1.1 0.2 0
v 1.2 0.2 0
v 1.4 0.2 0
v 1.5 0.2 0
v 1.7 0.2 0
v 1.8 0.2 0
v 0.2 0.2 -0.2
v 0.3 0.2 -0.2
v 0.5 0.2 -0.2
v 0.6 0.2 -0.2
v 0.8 0.2 -0.2
v 0.9 0.2 -0.2
v 1.1 0.2 -0.2
v 1.2 0.2 -0.2
v 1.4 0.2 -0.2
v 1.5 0.2 -0.2
v 1.7 0.2 -0.2
v 1.8 0.2 -0.2
v 0.2 0.2 -0.6
v 0.3 0.2 -0.6
v 0.5 0.2 -0.6
v 0.6 0.2 -0.6
v 0.8 0.2 -0.6
v 0.9 0.2 -0.6
v 1.1 0.2 -0.6
v 1.2 0.2 -0.6
v 1.4 0.2 -0.6
v 1.5 0.2 -0.6
v 1.7 0.2 -0.6
v 1.8 0.2 -0.6
v 0.2 0.2 -0.8
v 0.3 0.2 -0.8
v 0.5 0.2 -0.8
v 0.6 0.2 -0.8
v 0.8 0.2 -0.8
v 0.9 0.2 -0.8
v 1.1 0.2 -0.8
v 1.2 0.2 -0.8
v 1.4 0.2 -0.8
v 1.5 0.2 -0.8
v 1.7 0.2 -0.8
v 1.8 0.2 -0.8
v 0.2 0.2 -1.2
v 0.3 0.2 -1.2
v 0.5 0.2 -1.2
v 0.6 0.2 -1.2
v 0.8 0.2 -1.2
v 0.9 0.2 -1.2
v 1.1 0.2 -1.2
v 1.2 0.2 -1.2
v 1.4 0.2 -1.2
v 1.5 0.2 -1.2
v 1.7 0.2 -1.2
v 1.8 0.2 -1.2
v 0.2 0.2 -1.4
v 0.3 0.2 -1.4
v 0.5 0.2 -1.4
v 0.6 0.2 -1.4
v 0.8 0.2 -1.4
v 0.9 0.2 -1.4
v 1.1 0.2 -1.4
v 1.2 0.2 -1.4
v 1.4 0.2 -1.4
v 1.5 0.2 -1.4
v 1.7 0.2 -1.4
v 1.8 0.2 -1.4
v 0 0.3 0
v 0.2 0.3 0
v 0.3 0.3 0
v 0.5 0.3 0
v 0.6 0.3 0
v 0.8 0.3 0
v 0.9 0.3 0
v 1.1 0.3 0
v 1.2 0.3 0
v 1.4 0.3 0
v 1.5 0.3 0
v 1.7 0.3 0
v 1.8 0.3 0
v 2 0.3 0
v 0 0.3 -1.4
v 0.2 0.3 -1.4
v 0.3 0.3 -1.4
v 0.5 0.3 -1.4
v 0.6 0.3 -1.4
v 0.8 0.3 -1.4
v 0.9 0.3 -1.4
v 1.1 0.3 -1.4
v 1.2 0.3 -1.4
v 1.4 0.3 -1.4
v 1.5 0.3 -1.4
v 1.7 0.3 -1.4
v 1.8 0.3 -1.4
v 2 0.3 -1.4

# faces
f 7/1/1 2/1/1 1/1/1
f 8/1/1 2/1/1 7/1/1
f 9/1/1 4/1/1 3/1/1
f 10/1/1 4/1/1 9/1/1
f 11/1/1 6/1/1 5/1/1
f 12/1/1 6/1/1 11/1/1
f 13/2/1 10/2/1 9/2/1
f 13/2/1 8/2/1 7/2/1
f 13/2/1 12/2/1 11/2/1
f 13/2/1 11/2/1 10/2/1
f 13/2/1 9/2/1 8/2/1
f 14/2/1 12/2/1 13/2/1
f 21/2/1 16/2/1 15/2/1
f 21/2/1 20/2/1 19/2/1
f 21/2/1 19/2/1 18/2/1
f 21/2/1 18/2/1 17/2/1
f 21/2/1 17/2/1 16/2/1
f 22/2/1 20/2/1 21/2/1
f 29/2/1 24/2/1 23/2/1
f 29/2/1 28/2/1 27/2/1
f 29/2/1 27/2/1 26/2/1
f 29/2/1 26/2/1 25/2/1
f 29/2/1 25/2/1 24/2/1
f 30/2/1 28/2/1 29/2/1
f 37/2/1 32/2/1 31/2/1
f 37/2/1 36/2/1 35/2/1
f 37/2/1 35/2/1 34/2/1
f 37/2/1 34/2/1 33/2/1
f 37/2/1 33/2/1 32/2/1
f 38/2/1 36/2/1 37/2/1
f 45/2/1 40/2/1 39/2/1
f 45/2/1 44/2/1 43/2/1
f 45/2/1 43/2/1 42/2/1
f 45/2/1 42/2/1 41/2/1
f 45/2/1 41/2/1 40/2/1
f 46/2/1 44/2/1 45/2/1
f 53/2/1 48/2/1 47/2/1
f 53/2/1 52/2/1 51/2/1
f 53/2/1 51/2/1 50/2/1
f 53/2/1 50/2/1 49/2/1
f 53/2/1 49/2/1 48/2/1
f 54/2/1 52/2/1 53/2/1
f 61/2/1 56/2/1 55/2/1
f 61/2/1 60/2/1 59/2/1
f 61/2/1 59/2/1 58/2/1
f 61/2/1 58/2/1 57/2/1
f 61/2/1 57/2/1 56/2/1
f 62/2/1 60/2/1 61/2/1
f 63/2/2 64/2/2 69/2/2
f 67/2/2 68/2/2 69/2/2
f 66/2/2 67/2/2 69/2/2
f 65/2/2 66/2/2 69/2/2
f 64/2/2 65/2/2 69/2/2
f 69/2/2 68/2/2 70/2/2
f 71/2/2 72/2/2 77/2/2
f 75/2/2 76/2/2 77/2/2
f 74/2/2 75/2/2 77/2/2
f 73/2/2 74/2/2 77/2/2
f 72/2/2 73/2/2 77/2/2
f 77/2/2 76/2/2 78/2/2
f 79/2/2 80/2/2 85/2/2
f 83/2/2 84/2/2 85/2/2
f 82/2/2 83/2/2 85/2/2
f 81/2/2 82/2/2 85/2/2
f 80/2/2 81/2/2 85/2/2
f 85/2/2 84/2/2 86/2/2
f 87/2/2 88/2/2 93/2/2
f 91/2/2 92/2/2 93/2/2
f 90/2/2 91/2/2 93/2/2
f 89/2/2 90/2/2 93/2/2
f 88/2/2 89/2/2 93/2/2
f 93/2/2 92/2/2 94/2/2
f 95/2/2 96/2/2 101/2/2
f 99/2/2 100/2/2 101/2/2
f 98/2/2 99/2/2 101/2/2
f 97/2/2 98/2/2 101/2/2
f 96/2/2 97/2/2 101/2/2
f 101/2/2 100/2/2 102/2/2
f 103/2/2 104/2/2 109/2/2
f 107/2/2 108/2/2 109/2/2
f 106/2/2 107/2/2 109/2/2
f 105/2/2 106/2/2 109/2/2
f 104/2/2 105/2/2 109/2/2
f 109/2/2 108/2/2 110/2/2
f 111/1/2 112/1/2 117/1/2
f 117/1/2 112/1/2 118/1/2
f 113/1/2 114/1/2 119/1/2
f 119/1/2 114/1/2 120/1/2
f 115/1/2 116/1/2 121/1/2
f 121/1/2 116/1/2 122/1/2
f 119/2/2 120/2/2 123/2/2
f 117/2/2 118/2/2 123/2/2
f 121/2/2 122/2/2 123/2/2
f 120/2/2 121/2/2 123/2/2
f 118/2/2 119/2/2 123/2/2
f 123/2/2 122/2/2 124/2/2
f 128/1/3 126/1/3 125/1/3
f 128/2/3 127/2/3 126/2/3
f 129/2/3 127/2/3 128/2/3
f 130/1/3 128/1/3 125/1/3
f 132/1/3 130/1/3 125/1/3
f 132/2/3 131/2/3 130/2/3
f 133/2/3 131/2/3 132/2/3
f 134/1/3 132/1/3 125/1/3
f 136/1/3 134/1/3 125/1/3
f 136/2/3 135/2/3 134/2/3
f 137/2/3 135/2/3 136/2/3
f 138/1/3 136/1/3 125/1/3
f 140/1/3 138/1/3 125/1/3
f 140/2/3 139/2/3 138/2/3
f 141/2/3 139/2/3 140/2/3
f 142/1/3 140/1/3 125/1/3
f 144/1/3 142/1/3 125/1/3
f 144/2/3 143/2/3 142/2/3
f 145/2/3 143/2/3 144/2/3
f 146/1/3 144/1/3 125/1/3
f 148/1/3 146/1/3 125/1/3
f 148/2/3 147/2/3 146/2/3
f 149/2/3 147/2/3 148/2/3
f 150/1/3 148/1/3 125/1/3
f 152/1/3 150/1/3 125/1/3
f 153/2/3 151/2/3 150/2/3
f 153/1/3 150/1/3 152/1/3
f 154/2/3 151/2/3 153/2/3
f 157/1/3 156/1/3 155/1/3
f 158/1/3 157/1/3 155/1/3
f 159/1/3 158/1/3 155/1/3
f 160/1/3 159/1/3 155/1/3
f 161/1/3 160/1/3 155/1/3
f 162/1/3 161/1/3 155/1/3
f 163/1/3 162/1/3 155/1/3
f 164/1/3 163/1/3 155/1/3
f 165/1/3 164/1/3 155/1/3
f 166/1/3 165/1/3 155/1/3
f 167/1/3 166/1/3 155/1/3
f 168/1/3 167/1/3 155/1/3
f 169/1/3 168/1/3 155/1/3
f 170/1/3 168/1/3 169/1/3
f 173/1/3 172/1/3 171/1/3
f 174/1/3 173/1/3 171/1/3
f 175/1/3 174/1/3 171/1/3
f 176/1/3 175/1/3 171/1/3
f 177/1/3 176/1/3 171/1/3
f 178/1/3 177/1/3 171/1/3
f 179/1/3 178/1/3 171/1/3
f 180/1/3 179/1/3 171/1/3
f 181/1/3 180/1/3 171/1/3
f 182/1/3 181/1/3 171/1/3
f 183/1/3 182/1/3 171/1/3
f 184/1/3 183/1/3 171/1/3
f 185/1/3 184/1/3 171/1/3
f 186/1/3 184/1/3 185/1/3
f 187/1/4 188/1/4 189/1/4
f 187/1/4 189/1/4 190/1/4
f 187/1/4 190/1/4 191/1/4
f 187/1/4 191/1/4 192/1/4
f 187/1/4 192/1/4 193/1/4
f 187/1/4 193/1/4 194/1/4
f 187/1/4 194/1/4 195/1/4
f 187/1/4 195/1/4 196/1/4
f 187/1/4 196/1/4 197/1/4
f 187/1/4 197/1/4 198/1/4
f 187/1/4 198/1/4 199/1/4
f 187/1/4 199/1/4 200/1/4
f 187/1/4 200/1/4 201/1/4
f 201/1/4 200/1/4 202/1/4
f 203/1/4 204/1/4 205/1/4
f 203/1/4 205/1/4 206/1/4
f 203/1/4 206/1/4 207/1/4
f 203/1/4 207/1/4 208/1/4
f 203/1/4 208/1/4 209/1/4
f 203/1/4 209/1/4 210/1/4
f 203/1/4 210/1/4 211/1/4
f 203/1/4 211/1/4 212/1/4
f 203/1/4 212/1/4 213/1/4
f 203/1/4 213/1/4 214/1/4
f 203/1/4 214/1/4 215/1/4
f 203/1/4 215/1/4 216/1/4
f 203/1/4 216/1/4 217/1/4
f 217/1/4 216/1/4 218/1/4
f 219/1/4 220/1/4 222/1/4
f 220/2/4 221/2/4 222/2/4
f 222/2/4 221/2/4 223/2/4
f 219/1/4 222/1/4 224/1/4
f 219/1/4 224/1/4 226/1/4
f 224/2/4 225/2/4 226/2/4
f 226/2/4 225/2/4 227/2/4
f 219/1/4 226/1/4 228/1/4
f 219/1/4 228/1/4 230/1/4
f 228/2/4 229/2/4 230/2/4
f 230/2/4 229/2/4 231/2/4
f 219/1/4 230/1/4 232/1/4
f 219/1/4 232/1/4 234/1/4
f 232/2/4 233/2/4 234/2/4
f 234/2/4 233/2/4 235/2/4
f 219/1/4 234/1/4 236/1/4
f 219/1/4 236/1/4 238/1/4
f 236/2/4 237/2/4 238/2/4
f 238/2/4 237/2/4 239/2/4
f 219/1/4 238/1/4 240/1/4
f 219/1/4 240/1/4 242/1/4
f 240/2/4 241/2/4 242/2/4
f 242/2/4 241/2/4 243/2/4
f 219/1/4 242/1/4 244/1/4
f 219/1/4 244/1/4 246/1/4
f 244/2/4 245/2/4 247/2/4
f 246/1/4 244/1/4 247/1/4
f 247/2/4 245/2/4 248/2/4
f 251/1/5 250/1/5 249/1/5
f 252/1/5 250/1/5 251/1/5
f 255/1/5 254/1/5 253/1/5
f 256/1/5 254/1/5 255/1/5
f 259/1/5 258/1/5 257/1/5
f 260/1/5 258/1/5 259/1/5
f 275/2/5 262/2/5 261/2/5
f 276/2/5 262/2/5 275/2/5
f 277/2/5 264/2/5 263/2/5
f 278/2/5 264/2/5 277/2/5
f 279/2/5 266/2/5 265/2/5
f 280/2/5 266/2/5 279/2/5
f 281/2/5 268/2/5 267/2/5
f 282/2/5 268/2/5 281/2/5
f 283/2/5 270/2/5 269/2/5
f 284/2/5 270/2/5 283/2/5
f 285/2/5 272/2/5 271/2/5
f 286/2/5 272/2/5 285/2/5
f 287/2/5 274/2/5 273/2/5
f 288/2/5 274/2/5 287/2/5
f 303/2/5 290/2/5 289/2/5
f 304/2/5 290/2/5 303/2/5
f 305/2/5 292/2/5 291/2/5
f 306/2/5 292/2/5 305/2/5
f 307/2/5 294/2/5 293/2/5
f 308/2/5 294/2/5 307/2/5
f 309/2/5 296/2/5 295/2/5
f 310/2/5 296/2/5 309/2/5
f 311/2/5 298/2/5 297/2/5
f 312/2/5 298/2/5 311/2/5
f 313/2/5 300/2/5 299/2/5
f 314/2/5 300/2/5 313/2/5
f 315/2/5 302/2/5 301/2/5
f 316/2/5 302/2/5 315/2/5
f 317/1/6 318/1/6 329/1/6
f 329/1/6 318/1/6 330/1/6
f 319/1/6 320/1/6 331/1/6
f 331/1/6 320/1/6 332/1/6
f 321/1/6 322/1/6 333/1/6
f 333/1/6 322/1/6 334/1/6
f 323/1/6 324/1/6 335/1/6
f 335/1/6 324/1/6 336/1/6
f 325/1/6 326/1/6 337/1/6
f 337/1/6 326/1/6 338/1/6
f 327/1/6 328/1/6 339/1/6
f 339/1/6 328/1/6 340/1/6
f 341/1/6 342/1/6 353/1/6
f 353/1/6 342/1/6 354/1/6
f 343/1/6 344/1/6 355/1/6
f 355/1/6 344/1/6 356/1/6
f 345/1/6 346/1/6 357/1/6
f 357/1/6 346/1/6 358/1/6
f 347/1/6 348/1/6 359/1/6
f 359/1/6 348/1/6 360/1/6
f 349/1/6 350/1/6 361/1/6
f 361/1/6 350/1/6 362/1/6
f 351/1/6 352/1/6 363/1/6
f 363/1/6 352/1/6 364/1/6
f 365/1/6 366/1/6 377/1/6
f 377/1/6 366/1/6 378/1/6
f 367/1/6 368/1/6 379/1/6
f 379/1/6 368/1/6 380/1/6
f 369/1/6 370/1/6 381/1/6
f 381/1/6 370/1/6 382/1/6
f 371/1/6 372/1/6 383/1/6
f 383/1/6 372/1/6 384/1/6
f 373/1/6 374/1/6 385/1/6
f 385/1/6 374/1/6 386/1/6
f 375/1/6 376/1/6 387/1/6
f 387/1/6 376/1/6 388/1/6
f 389/2/6 390/2/6 403/2/6
f 403/2/6 390/2/6 404/2/6
f 391/2/6 392/2/6 405/2/6
f 405/2/6 392/2/6 406/2/6
f 393/2/6 394/2/6 407/2/6
f 407/2/6 394/2/6 408/2/6
f 395/2/6 396/2/6 409/2/6
f 409/2/6 396/2/6 410/2/6
f 397/2/6 398/2/6 411/2/6
f 411/2/6 398/2/6 412/2/6
f 399/2/6 400/2/6 413/2/6
f 413/2/6 400/2/6 414/2/6
f 401/2/6 402/2/6 415/2/6
f 415/2/6 402/2/6 416/2/6
