# MagicaVoxel @ Ephtracy

# group
o container-blue

# material
mtllib container_2.mtl
usemtl palette

# normals
vn -1 0 0
vn 1 0 0
vn 0 0 1
vn 0 0 -1
vn 0 -1 0
vn 0 1 0

# texcoords
vt 0.427734 0.5
vt 0.431641 0.5
vt 0.458984 0.5
vt 0.470703 0.5
vt 0.771484 0.5

# verts
v 0 1.3 0
v 0 1.3 -2.4
v 0 1.5 -0.2
v 0 1.5 -0.3
v 0 1.5 -0.5
v 0 1.5 -0.7
v 0 1.5 -0.9
v 0 1.5 -1.1
v 0 1.5 -1.3
v 0 1.5 -1.5
v 0 1.5 -1.7
v 0 1.5 -1.9
v 0 1.5 -2.1
v 0 1.5 -2.2
v 0 3.7 -0.2
v 0 3.7 -0.3
v 0 3.7 -0.5
v 0 3.7 -0.7
v 0 3.7 -0.9
v 0 3.7 -1.1
v 0 3.7 -1.3
v 0 3.7 -1.5
v 0 3.7 -1.7
v 0 3.7 -1.9
v 0 3.7 -2.1
v 0 3.7 -2.2
v 0 3.9 0
v 0 3.9 -2.4
v 0.1 1.5 -0.2
v 0.1 1.5 -0.3
v 0.1 1.5 -0.5
v 0.1 1.5 -0.7
v 0.1 1.5 -0.9
v 0.1 1.5 -1.1
v 0.1 1.5 -1.3
v 0.1 1.5 -1.5
v 0.1 1.5 -1.7
v 0.1 1.5 -1.9
v 0.1 1.5 -2.1
v 0.1 1.5 -2.2
v 0.1 3.7 -0.2
v 0.1 3.7 -0.3
v 0.1 3.7 -0.5
v 0.1 3.7 -0.7
v 0.1 3.7 -0.9
v 0.1 3.7 -1.1
v 0.1 3.7 -1.3
v 0.1 3.7 -1.5
v 0.1 3.7 -1.7
v 0.1 3.7 -1.9
v 0.1 3.7 -2.1
v 0.1 3.7 -2.2
v 0.3 1.5 0
v 0.3 1.5 -0.1
v 0.3 1.5 -2.3
v 0.3 1.5 -2.4
v 0.3 3.7 0
v 0.3 3.7 -0.1
v 0.3 3.7 -2.3
v 0.3 3.7 -2.4
v 0.3 3.8 -0.2
v 0.3 3.8 -2.2
v 0.3 3.9 -0.2
v 0.3 3.9 -2.2
v 0.7 1.5 0
v 0.7 1.5 -0.1
v 0.7 1.5 -2.3
v 0.7 1.5 -2.4
v 0.7 3.7 0
v 0.7 3.7 -0.1
v 0.7 3.7 -2.3
v 0.7 3.7 -2.4
v 0.7 3.8 -0.2
v 0.7 3.8 -2.2
v 0.7 3.9 -0.2
v 0.7 3.9 -2.2
v 1.1 1.5 0
v 1.1 1.5 -0.1
v 1.1 1.5 -2.3
v 1.1 1.5 -2.4
v 1.1 3.7 0
v 1.1 3.7 -0.1
v 1.1 3.7 -2.3
v 1.1 3.7 -2.4
v 1.1 3.8 -0.2
v 1.1 3.8 -2.2
v 1.1 3.9 -0.2
v 1.1 3.9 -2.2
v 1.5 1.5 0
v 1.5 1.5 -0.1
v 1.5 1.5 -2.3
v 1.5 1.5 -2.4
v 1.5 3.7 0
v 1.5 3.7 -0.1
v 1.5 3.7 -2.3
v 1.5 3.7 -2.4
v 1.5 3.8 -0.2
v 1.5 3.8 -2.2
v 1.5 3.9 -0.2
v 1.5 3.9 -2.2
v 1.9 1.5 0
v 1.9 1.5 -0.1
v 1.9 1.5 -2.3
v 1.9 1.5 -2.4
v 1.9 3.7 0
v 1.9 3.7 -0.1
v 1.9 3.7 -2.3
v 1.9 3.7 -2.4
v 1.9 3.8 -0.2
v 1.9 3.8 -2.2
v 1.9 3.9 -0.2
v 1.9 3.9 -2.2
v 2.3 1.5 0
v 2.3 1.5 -0.1
v 2.3 1.5 -2.3
v 2.3 1.5 -2.4
v 2.3 3.7 0
v 2.3 3.7 -0.1
v 2.3 3.7 -2.3
v 2.3 3.7 -2.4
v 2.3 3.8 -0.2
v 2.3 3.8 -2.2
v 2.3 3.9 -0.2
v 2.3 3.9 -2.2
v 2.7 1.5 0
v 2.7 1.5 -0.1
v 2.7 1.5 -2.3
v 2.7 1.5 -2.4
v 2.7 3.7 0
v 2.7 3.7 -0.1
v 2.7 3.7 -2.3
v 2.7 3.7 -2.4
v 2.7 3.8 -0.2
v 2.7 3.8 -2.2
v 2.7 3.9 -0.2
v 2.7 3.9 -2.2
v 3.1 1.5 0
v 3.1 1.5 -0.1
v 3.1 1.5 -2.3
v 3.1 1.5 -2.4
v 3.1 3.7 0
v 3.1 3.7 -0.1
v 3.1 3.7 -2.3
v 3.1 3.7 -2.4
v 3.1 3.8 -0.2
v 3.1 3.8 -2.2
v 3.1 3.9 -0.2
v 3.1 3.9 -2.2
v 3.5 1.5 0
v 3.5 1.5 -0.1
v 3.5 1.5 -2.3
v 3.5 1.5 -2.4
v 3.5 3.7 0
v 3.5 3.7 -0.1
v 3.5 3.7 -2.3
v 3.5 3.7 -2.4
v 3.5 3.8 -0.2
v 3.5 3.8 -2.2
v 3.5 3.9 -0.2
v 3.5 3.9 -2.2
v 3.9 1.5 0
v 3.9 1.5 -0.1
v 3.9 1.5 -2.3
v 3.9 1.5 -2.4
v 3.9 3.7 0
v 3.9 3.7 -0.1
v 3.9 3.7 -2.3
v 3.9 3.7 -2.4
v 3.9 3.8 -0.2
v 3.9 3.8 -2.2
v 3.9 3.9 -0.2
v 3.9 3.9 -2.2
v 4.3 1.5 0
v 4.3 1.5 -0.1
v 4.3 1.5 -2.3
v 4.3 1.5 -2.4
v 4.3 3.7 0
v 4.3 3.7 -0.1
v 4.3 3.7 -2.3
v 4.3 3.7 -2.4
v 4.3 3.8 -0.2
v 4.3 3.8 -2.2
v 4.3 3.9 -0.2
v 4.3 3.9 -2.2
v 4.7 1.5 0
v 4.7 1.5 -0.1
v 4.7 1.5 -2.3
v 4.7 1.5 -2.4
v 4.7 3.7 0
v 4.7 3.7 -0.1
v 4.7 3.7 -2.3
v 4.7 3.7 -2.4
v 4.7 3.8 -0.2
v 4.7 3.8 -2.2
v 4.7 3.9 -0.2
v 4.7 3.9 -2.2
v 5.1 1.5 0
v 5.1 1.5 -0.1
v 5.1 1.5 -2.3
v 5.1 1.5 -2.4
v 5.1 3.7 0
v 5.1 3.7 -0.1
v 5.1 3.7 -2.3
v 5.1 3.7 -2.4
v 5.1 3.8 -0.2
v 5.1 3.8 -2.2
v 5.1 3.9 -0.2
v 5.1 3.9 -2.2
v 5.5 1.5 0
v 5.5 1.5 -0.1
v 5.5 1.5 -2.3
v 5.5 1.5 -2.4
v 5.5 3.7 0
v 5.5 3.7 -0.1
v 5.5 3.7 -2.3
v 5.5 3.7 -2.4
v 5.5 3.8 -0.2
v 5.5 3.8 -2.2
v 5.5 3.9 -0.2
v 5.5 3.9 -2.2
v 5.7 1.5 -0.2
v 5.7 1.5 -2.2
v 5.7 3.7 -0.2
v 5.7 3.7 -2.2
v 0.2 1.5 0
v 0.2 1.5 -0.1
v 0.2 1.5 -0.2
v 0.2 1.5 -2.2
v 0.2 1.5 -2.3
v 0.2 1.5 -2.4
v 0.2 3.7 0
v 0.2 3.7 -0.1
v 0.2 3.7 -0.2
v 0.2 3.7 -2.2
v 0.2 3.7 -2.3
v 0.2 3.7 -2.4
v 0.2 3.8 -0.2
v 0.2 3.8 -2.2
v 0.2 3.9 -0.2
v 0.2 3.9 -2.2
v 0.5 1.5 0
v 0.5 1.5 -0.1
v 0.5 1.5 -2.3
v 0.5 1.5 -2.4
v 0.5 3.7 0
v 0.5 3.7 -0.1
v 0.5 3.7 -2.3
v 0.5 3.7 -2.4
v 0.5 3.8 -0.2
v 0.5 3.8 -2.2
v 0.5 3.9 -0.2
v 0.5 3.9 -2.2
v 0.9 1.5 0
v 0.9 1.5 -0.1
v 0.9 1.5 -2.3
v 0.9 1.5 -2.4
v 0.9 3.7 0
v 0.9 3.7 -0.1
v 0.9 3.7 -2.3
v 0.9 3.7 -2.4
v 0.9 3.8 -0.2
v 0.9 3.8 -2.2
v 0.9 3.9 -0.2
v 0.9 3.9 -2.2
v 1.3 1.5 0
v 1.3 1.5 -0.1
v 1.3 1.5 -2.3
v 1.3 1.5 -2.4
v 1.3 3.7 0
v 1.3 3.7 -0.1
v 1.3 3.7 -2.3
v 1.3 3.7 -2.4
v 1.3 3.8 -0.2
v 1.3 3.8 -2.2
v 1.3 3.9 -0.2
v 1.3 3.9 -2.2
v 1.7 1.5 0
v 1.7 1.5 -0.1
v 1.7 1.5 -2.3
v 1.7 1.5 -2.4
v 1.7 3.7 0
v 1.7 3.7 -0.1
v 1.7 3.7 -2.3
v 1.7 3.7 -2.4
v 1.7 3.8 -0.2
v 1.7 3.8 -2.2
v 1.7 3.9 -0.2
v 1.7 3.9 -2.2
v 2.1 1.5 0
v 2.1 1.5 -0.1
v 2.1 1.5 -2.3
v 2.1 1.5 -2.4
v 2.1 3.7 0
v 2.1 3.7 -0.1
v 2.1 3.7 -2.3
v 2.1 3.7 -2.4
v 2.1 3.8 -0.2
v 2.1 3.8 -2.2
v 2.1 3.9 -0.2
v 2.1 3.9 -2.2
v 2.5 1.5 0
v 2.5 1.5 -0.1
v 2.5 1.5 -2.3
v 2.5 1.5 -2.4
v 2.5 3.7 0
v 2.5 3.7 -0.1
v 2.5 3.7 -2.3
v 2.5 3.7 -2.4
v 2.5 3.8 -0.2
v 2.5 3.8 -2.2
v 2.5 3.9 -0.2
v 2.5 3.9 -2.2
v 2.9 1.5 0
v 2.9 1.5 -0.1
v 2.9 1.5 -2.3
v 2.9 1.5 -2.4
v 2.9 3.7 0
v 2.9 3.7 -0.1
v 2.9 3.7 -2.3
v 2.9 3.7 -2.4
v 2.9 3.8 -0.2
v 2.9 3.8 -2.2
v 2.9 3.9 -0.2
v 2.9 3.9 -2.2
v 3.3 1.5 0
v 3.3 1.5 -0.1
v 3.3 1.5 -2.3
v 3.3 1.5 -2.4
v 3.3 3.7 0
v 3.3 3.7 -0.1
v 3.3 3.7 -2.3
v 3.3 3.7 -2.4
v 3.3 3.8 -0.2
v 3.3 3.8 -2.2
v 3.3 3.9 -0.2
v 3.3 3.9 -2.2
v 3.7 1.5 0
v 3.7 1.5 -0.1
v 3.7 1.5 -2.3
v 3.7 1.5 -2.4
v 3.7 3.7 0
v 3.7 3.7 -0.1
v 3.7 3.7 -2.3
v 3.7 3.7 -2.4
v 3.7 3.8 -0.2
v 3.7 3.8 -2.2
v 3.7 3.9 -0.2
v 3.7 3.9 -2.2
v 4.1 1.5 0
v 4.1 1.5 -0.1
v 4.1 1.5 -2.3
v 4.1 1.5 -2.4
v 4.1 3.7 0
v 4.1 3.7 -0.1
v 4.1 3.7 -2.3
v 4.1 3.7 -2.4
v 4.1 3.8 -0.2
v 4.1 3.8 -2.2
v 4.1 3.9 -0.2
v 4.1 3.9 -2.2
v 4.5 1.5 0
v 4.5 1.5 -0.1
v 4.5 1.5 -2.3
v 4.5 1.5 -2.4
v 4.5 3.7 0
v 4.5 3.7 -0.1
v 4.5 3.7 -2.3
v 4.5 3.7 -2.4
v 4.5 3.8 -0.2
v 4.5 3.8 -2.2
v 4.5 3.9 -0.2
v 4.5 3.9 -2.2
v 4.9 1.5 0
v 4.9 1.5 -0.1
v 4.9 1.5 -2.3
v 4.9 1.5 -2.4
v 4.9 3.7 0
v 4.9 3.7 -0.1
v 4.9 3.7 -2.3
v 4.9 3.7 -2.4
v 4.9 3.8 -0.2
v 4.9 3.8 -2.2
v 4.9 3.9 -0.2
v 4.9 3.9 -2.2
v 5.3 1.5 0
v 5.3 1.5 -0.1
v 5.3 1.5 -2.3
v 5.3 1.5 -2.4
v 5.3 3.7 0
v 5.3 3.7 -0.1
v 5.3 3.7 -2.3
v 5.3 3.7 -2.4
v 5.3 3.8 -0.2
v 5.3 3.8 -2.2
v 5.3 3.9 -0.2
v 5.3 3.9 -2.2
v 5.8 1.4 -0.2
v 5.8 1.4 -0.3
v 5.8 1.4 -0.5
v 5.8 1.4 -0.7
v 5.8 1.4 -0.9
v 5.8 1.4 -1.1
v 5.8 1.4 -1.3
v 5.8 1.4 -1.5
v 5.8 1.4 -1.7
v 5.8 1.4 -1.9
v 5.8 1.4 -2.1
v 5.8 1.4 -2.2
v 5.8 3.7 -0.2
v 5.8 3.7 -0.3
v 5.8 3.7 -0.5
v 5.8 3.7 -0.7
v 5.8 3.7 -0.9
v 5.8 3.7 -1.1
v 5.8 3.7 -1.3
v 5.8 3.7 -1.5
v 5.8 3.7 -1.7
v 5.8 3.7 -1.9
v 5.8 3.7 -2.1
v 5.8 3.7 -2.2
v 5.9 1.3 0
v 5.9 1.3 -2.4
v 5.9 1.4 -0.2
v 5.9 1.4 -0.3
v 5.9 1.4 -0.5
v 5.9 1.4 -0.7
v 5.9 1.4 -0.9
v 5.9 1.4 -1.1
v 5.9 1.4 -1.3
v 5.9 1.4 -1.5
v 5.9 1.4 -1.7
v 5.9 1.4 -1.9
v 5.9 1.4 -2.1
v 5.9 1.4 -2.2
v 5.9 3.7 -0.2
v 5.9 3.7 -0.3
v 5.9 3.7 -0.5
v 5.9 3.7 -0.7
v 5.9 3.7 -0.9
v 5.9 3.7 -1.1
v 5.9 3.7 -1.3
v 5.9 3.7 -1.5
v 5.9 3.7 -1.7
v 5.9 3.7 -1.9
v 5.9 3.7 -2.1
v 5.9 3.7 -2.2
v 5.9 3.9 0
v 5.9 3.9 -2.4
v 0 1.3 0
v 0 3.9 0
v 0.2 1.5 0
v 0.2 3.7 0
v 0.3 1.5 0
v 0.3 3.7 0
v 0.5 1.5 0
v 0.5 3.7 0
v 0.7 1.5 0
v 0.7 3.7 0
v 0.9 1.5 0
v 0.9 3.7 0
v 1.1 1.5 0
v 1.1 3.7 0
v 1.3 1.5 0
v 1.3 3.7 0
v 1.5 1.5 0
v 1.5 3.7 0
v 1.7 1.5 0
v 1.7 3.7 0
v 1.9 1.5 0
v 1.9 3.7 0
v 2.1 1.5 0
v 2.1 3.7 0
v 2.3 1.5 0
v 2.3 3.7 0
v 2.5 1.5 0
v 2.5 3.7 0
v 2.7 1.5 0
v 2.7 3.7 0
v 2.9 1.5 0
v 2.9 3.7 0
v 3.1 1.5 0
v 3.1 3.7 0
v 3.3 1.5 0
v 3.3 3.7 0
v 3.5 1.5 0
v 3.5 3.7 0
v 3.7 1.5 0
v 3.7 3.7 0
v 3.9 1.5 0
v 3.9 3.7 0
v 4.1 1.5 0
v 4.1 3.7 0
v 4.3 1.5 0
v 4.3 3.7 0
v 4.5 1.5 0
v 4.5 3.7 0
v 4.7 1.5 0
v 4.7 3.7 0
v 4.9 1.5 0
v 4.9 3.7 0
v 5.1 1.5 0
v 5.1 3.7 0
v 5.3 1.5 0
v 5.3 3.7 0
v 5.5 1.5 0
v 5.5 3.7 0
v 5.7 1.5 0
v 5.7 3.7 0
v 5.9 1.3 0
v 5.9 3.9 0
v 0.2 1.5 -0.1
v 0.2 3.7 -0.1
v 0.3 1.5 -0.1
v 0.3 3.7 -0.1
v 0.5 1.5 -0.1
v 0.5 3.7 -0.1
v 0.7 1.5 -0.1
v 0.7 3.7 -0.1
v 0.9 1.5 -0.1
v 0.9 3.7 -0.1
v 1.1 1.5 -0.1
v 1.1 3.7 -0.1
v 1.3 1.5 -0.1
v 1.3 3.7 -0.1
v 1.5 1.5 -0.1
v 1.5 3.7 -0.1
v 1.7 1.5 -0.1
v 1.7 3.7 -0.1
v 1.9 1.5 -0.1
v 1.9 3.7 -0.1
v 2.1 1.5 -0.1
v 2.1 3.7 -0.1
v 2.3 1.5 -0.1
v 2.3 3.7 -0.1
v 2.5 1.5 -0.1
v 2.5 3.7 -0.1
v 2.7 1.5 -0.1
v 2.7 3.7 -0.1
v 2.9 1.5 -0.1
v 2.9 3.7 -0.1
v 3.1 1.5 -0.1
v 3.1 3.7 -0.1
v 3.3 1.5 -0.1
v 3.3 3.7 -0.1
v 3.5 1.5 -0.1
v 3.5 3.7 -0.1
v 3.7 1.5 -0.1
v 3.7 3.7 -0.1
v 3.9 1.5 -0.1
v 3.9 3.7 -0.1
v 4.1 1.5 -0.1
v 4.1 3.7 -0.1
v 4.3 1.5 -0.1
v 4.3 3.7 -0.1
v 4.5 1.5 -0.1
v 4.5 3.7 -0.1
v 4.7 1.5 -0.1
v 4.7 3.7 -0.1
v 4.9 1.5 -0.1
v 4.9 3.7 -0.1
v 5.1 1.5 -0.1
v 5.1 3.7 -0.1
v 5.3 1.5 -0.1
v 5.3 3.7 -0.1
v 5.5 1.5 -0.1
v 5.5 3.7 -0.1
v 0 1.5 -0.3
v 0 3.7 -0.3
v 0.1 1.5 -0.3
v 0.1 3.7 -0.3
v 5.8 1.4 -0.3
v 5.8 3.7 -0.3
v 5.9 1.4 -0.3
v 5.9 3.7 -0.3
v 0 1.5 -0.7
v 0 3.7 -0.7
v 0.1 1.5 -0.7
v 0.1 3.7 -0.7
v 5.8 1.4 -0.7
v 5.8 3.7 -0.7
v 5.9 1.4 -0.7
v 5.9 3.7 -0.7
v 0 1.5 -1.1
v 0 3.7 -1.1
v 0.1 1.5 -1.1
v 0.1 3.7 -1.1
v 5.8 1.4 -1.1
v 5.8 3.7 -1.1
v 5.9 1.4 -1.1
v 5.9 3.7 -1.1
v 0 1.5 -1.5
v 0 3.7 -1.5
v 0.1 1.5 -1.5
v 0.1 3.7 -1.5
v 5.8 1.4 -1.5
v 5.8 3.7 -1.5
v 5.9 1.4 -1.5
v 5.9 3.7 -1.5
v 0 1.5 -1.9
v 0 3.7 -1.9
v 0.1 1.5 -1.9
v 0.1 3.7 -1.9
v 5.8 1.4 -1.9
v 5.8 3.7 -1.9
v 5.9 1.4 -1.9
v 5.9 3.7 -1.9
v 0 1.5 -2.2
v 0 3.7 -2.2
v 0.1 1.5 -2.2
v 0.1 3.7 -2.2
v 0.2 1.5 -2.2
v 0.2 3.7 -2.2
v 0.2 3.8 -2.2
v 0.2 3.9 -2.2
v 0.3 3.8 -2.2
v 0.3 3.9 -2.2
v 0.5 3.8 -2.2
v 0.5 3.9 -2.2
v 0.7 3.8 -2.2
v 0.7 3.9 -2.2
v 0.9 3.8 -2.2
v 0.9 3.9 -2.2
v 1.1 3.8 -2.2
v 1.1 3.9 -2.2
v 1.3 3.8 -2.2
v 1.3 3.9 -2.2
v 1.5 3.8 -2.2
v 1.5 3.9 -2.2
v 1.7 3.8 -2.2
v 1.7 3.9 -2.2
v 1.9 3.8 -2.2
v 1.9 3.9 -2.2
v 2.1 3.8 -2.2
v 2.1 3.9 -2.2
v 2.3 3.8 -2.2
v 2.3 3.9 -2.2
v 2.5 3.8 -2.2
v 2.5 3.9 -2.2
v 2.7 3.8 -2.2
v 2.7 3.9 -2.2
v 2.9 3.8 -2.2
v 2.9 3.9 -2.2
v 3.1 3.8 -2.2
v 3.1 3.9 -2.2
v 3.3 3.8 -2.2
v 3.3 3.9 -2.2
v 3.5 3.8 -2.2
v 3.5 3.9 -2.2
v 3.7 3.8 -2.2
v 3.7 3.9 -2.2
v 3.9 3.8 -2.2
v 3.9 3.9 -2.2
v 4.1 3.8 -2.2
v 4.1 3.9 -2.2
v 4.3 3.8 -2.2
v 4.3 3.9 -2.2
v 4.5 3.8 -2.2
v 4.5 3.9 -2.2
v 4.7 3.8 -2.2
v 4.7 3.9 -2.2
v 4.9 3.8 -2.2
v 4.9 3.9 -2.2
v 5.1 3.8 -2.2
v 5.1 3.9 -2.2
v 5.3 3.8 -2.2
v 5.3 3.9 -2.2
v 5.5 3.8 -2.2
v 5.5 3.9 -2.2
v 5.6 1.5 -2.2
v 5.7 1.5 -2.2
v 5.7 3.7 -2.2
v 5.8 1.4 -2.2
v 5.8 3.7 -2.2
v 5.9 1.4 -2.2
v 5.9 3.7 -2.2
v 0 1.5 -0.2
v 0 3.7 -0.2
v 0.1 1.5 -0.2
v 0.1 3.7 -0.2
v 0.2 1.5 -0.2
v 0.2 3.7 -0.2
v 0.2 3.8 -0.2
v 0.2 3.9 -0.2
v 0.3 3.8 -0.2
v 0.3 3.9 -0.2
v 0.5 3.8 -0.2
v 0.5 3.9 -0.2
v 0.7 3.8 -0.2
v 0.7 3.9 -0.2
v 0.9 3.8 -0.2
v 0.9 3.9 -0.2
v 1.1 3.8 -0.2
v 1.1 3.9 -0.2
v 1.3 3.8 -0.2
v 1.3 3.9 -0.2
v 1.5 3.8 -0.2
v 1.5 3.9 -0.2
v 1.7 3.8 -0.2
v 1.7 3.9 -0.2
v 1.9 3.8 -0.2
v 1.9 3.9 -0.2
v 2.1 3.8 -0.2
v 2.1 3.9 -0.2
v 2.3 3.8 -0.2
v 2.3 3.9 -0.2
v 2.5 3.8 -0.2
v 2.5 3.9 -0.2
v 2.7 3.8 -0.2
v 2.7 3.9 -0.2
v 2.9 3.8 -0.2
v 2.9 3.9 -0.2
v 3.1 3.8 -0.2
v 3.1 3.9 -0.2
v 3.3 3.8 -0.2
v 3.3 3.9 -0.2
v 3.5 3.8 -0.2
v 3.5 3.9 -0.2
v 3.7 3.8 -0.2
v 3.7 3.9 -0.2
v 3.9 3.8 -0.2
v 3.9 3.9 -0.2
v 4.1 3.8 -0.2
v 4.1 3.9 -0.2
v 4.3 3.8 -0.2
v 4.3 3.9 -0.2
v 4.5 3.8 -0.2
v 4.5 3.9 -0.2
v 4.7 3.8 -0.2
v 4.7 3.9 -0.2
v 4.9 3.8 -0.2
v 4.9 3.9 -0.2
v 5.1 3.8 -0.2
v 5.1 3.9 -0.2
v 5.3 3.8 -0.2
v 5.3 3.9 -0.2
v 5.5 3.8 -0.2
v 5.5 3.9 -0.2
v 5.6 1.5 -0.2
v 5.7 1.5 -0.2
v 5.7 3.7 -0.2
v 5.8 1.4 -0.2
v 5.8 3.7 -0.2
v 5.9 1.4 -0.2
v 5.9 3.7 -0.2
v 0 1.5 -0.5
v 0 3.7 -0.5
v 0.1 1.5 -0.5
v 0.1 3.7 -0.5
v 5.8 1.4 -0.5
v 5.8 3.7 -0.5
v 5.9 1.4 -0.5
v 5.9 3.7 -0.5
v 0 1.5 -0.9
v 0 3.7 -0.9
v 0.1 1.5 -0.9
v 0.1 3.7 -0.9
v 5.8 1.4 -0.9
v 5.8 3.7 -0.9
v 5.9 1.4 -0.9
v 5.9 3.7 -0.9
v 0 1.5 -1.3
v 0 3.7 -1.3
v 0.1 1.5 -1.3
v 0.1 3.7 -1.3
v 5.8 1.4 -1.3
v 5.8 3.7 -1.3
v 5.9 1.4 -1.3
v 5.9 3.7 -1.3
v 0 1.5 -1.7
v 0 3.7 -1.7
v 0.1 1.5 -1.7
v 0.1 3.7 -1.7
v 5.8 1.4 -1.7
v 5.8 3.7 -1.7
v 5.9 1.4 -1.7
v 5.9 3.7 -1.7
v 0 1.5 -2.1
v 0 3.7 -2.1
v 0.1 1.5 -2.1
v 0.1 3.7 -2.1
v 5.8 1.4 -2.1
v 5.8 3.7 -2.1
v 5.9 1.4 -2.1
v 5.9 3.7 -2.1
v 0.2 1.5 -2.3
v 0.2 3.7 -2.3
v 0.3 1.5 -2.3
v 0.3 3.7 -2.3
v 0.5 1.5 -2.3
v 0.5 3.7 -2.3
v 0.7 1.5 -2.3
v 0.7 3.7 -2.3
v 0.9 1.5 -2.3
v 0.9 3.7 -2.3
v 1.1 1.5 -2.3
v 1.1 3.7 -2.3
v 1.3 1.5 -2.3
v 1.3 3.7 -2.3
v 1.5 1.5 -2.3
v 1.5 3.7 -2.3
v 1.7 1.5 -2.3
v 1.7 3.7 -2.3
v 1.9 1.5 -2.3
v 1.9 3.7 -2.3
v 2.1 1.5 -2.3
v 2.1 3.7 -2.3
v 2.3 1.5 -2.3
v 2.3 3.7 -2.3
v 2.5 1.5 -2.3
v 2.5 3.7 -2.3
v 2.7 1.5 -2.3
v 2.7 3.7 -2.3
v 2.9 1.5 -2.3
v 2.9 3.7 -2.3
v 3.1 1.5 -2.3
v 3.1 3.7 -2.3
v 3.3 1.5 -2.3
v 3.3 3.7 -2.3
v 3.5 1.5 -2.3
v 3.5 3.7 -2.3
v 3.7 1.5 -2.3
v 3.7 3.7 -2.3
v 3.9 1.5 -2.3
v 3.9 3.7 -2.3
v 4.1 1.5 -2.3
v 4.1 3.7 -2.3
v 4.3 1.5 -2.3
v 4.3 3.7 -2.3
v 4.5 1.5 -2.3
v 4.5 3.7 -2.3
v 4.7 1.5 -2.3
v 4.7 3.7 -2.3
v 4.9 1.5 -2.3
v 4.9 3.7 -2.3
v 5.1 1.5 -2.3
v 5.1 3.7 -2.3
v 5.3 1.5 -2.3
v 5.3 3.7 -2.3
v 5.5 1.5 -2.3
v 5.5 3.7 -2.3
v 0 1.3 -2.4
v 0 3.9 -2.4
v 0.2 1.5 -2.4
v 0.2 3.7 -2.4
v 0.3 1.5 -2.4
v 0.3 3.7 -2.4
v 0.5 1.5 -2.4
v 0.5 3.7 -2.4
v 0.7 1.5 -2.4
v 0.7 3.7 -2.4
v 0.9 1.5 -2.4
v 0.9 3.7 -2.4
v 1.1 1.5 -2.4
v 1.1 3.7 -2.4
v 1.3 1.5 -2.4
v 1.3 3.7 -2.4
v 1.5 1.5 -2.4
v 1.5 3.7 -2.4
v 1.7 1.5 -2.4
v 1.7 3.7 -2.4
v 1.9 1.5 -2.4
v 1.9 3.7 -2.4
v 2.1 1.5 -2.4
v 2.1 3.7 -2.4
v 2.3 1.5 -2.4
v 2.3 3.7 -2.4
v 2.5 1.5 -2.4
v 2.5 3.7 -2.4
v 2.7 1.5 -2.4
v 2.7 3.7 -2.4
v 2.9 1.5 -2.4
v 2.9 3.7 -2.4
v 3.1 1.5 -2.4
v 3.1 3.7 -2.4
v 3.3 1.5 -2.4
v 3.3 3.7 -2.4
v 3.5 1.5 -2.4
v 3.5 3.7 -2.4
v 3.7 1.5 -2.4
v 3.7 3.7 -2.4
v 3.9 1.5 -2.4
v 3.9 3.7 -2.4
v 4.1 1.5 -2.4
v 4.1 3.7 -2.4
v 4.3 1.5 -2.4
v 4.3 3.7 -2.4
v 4.5 1.5 -2.4
v 4.5 3.7 -2.4
v 4.7 1.5 -2.4
v 4.7 3.7 -2.4
v 4.9 1.5 -2.4
v 4.9 3.7 -2.4
v 5.1 1.5 -2.4
v 5.1 3.7 -2.4
v 5.3 1.5 -2.4
v 5.3 3.7 -2.4
v 5.5 1.5 -2.4
v 5.5 3.7 -2.4
v 5.7 1.5 -2.4
v 5.7 3.7 -2.4
v 5.9 1.3 -2.4
v 5.9 3.9 -2.4
v 0 1.3 0
v 5.9 1.3 0
v 0 1.3 -2.4
v 5.9 1.3 -2.4
v 0.2 3.7 0
v 0.3 3.7 0
v 0.5 3.7 0
v 0.7 3.7 0
v 0.9 3.7 0
v 1.1 3.7 0
v 1.3 3.7 0
v 1.5 3.7 0
v 1.7 3.7 0
v 1.9 3.7 0
v 2.1 3.7 0
v 2.3 3.7 0
v 2.5 3.7 0
v 2.7 3.7 0
v 2.9 3.7 0
v 3.1 3.7 0
v 3.3 3.7 0
v 3.5 3.7 0
v 3.7 3.7 0
v 3.9 3.7 0
v 4.1 3.7 0
v 4.3 3.7 0
v 4.5 3.7 0
v 4.7 3.7 0
v 4.9 3.7 0
v 5.1 3.7 0
v 5.3 3.7 0
v 5.5 3.7 0
v 0.2 3.7 -0.1
v 0.3 3.7 -0.1
v 0.5 3.7 -0.1
v 0.7 3.7 -0.1
v 0.9 3.7 -0.1
v 1.1 3.7 -0.1
v 1.3 3.7 -0.1
v 1.5 3.7 -0.1
v 1.7 3.7 -0.1
v 1.9 3.7 -0.1
v 2.1 3.7 -0.1
v 2.3 3.7 -0.1
v 2.5 3.7 -0.1
v 2.7 3.7 -0.1
v 2.9 3.7 -0.1
v 3.1 3.7 -0.1
v 3.3 3.7 -0.1
v 3.5 3.7 -0.1
v 3.7 3.7 -0.1
v 3.9 3.7 -0.1
v 4.1 3.7 -0.1
v 4.3 3.7 -0.1
v 4.5 3.7 -0.1
v 4.7 3.7 -0.1
v 4.9 3.7 -0.1
v 5.1 3.7 -0.1
v 5.3 3.7 -0.1
v 5.5 3.7 -0.1
v 0 3.7 -0.2
v 0.1 3.7 -0.2
v 0.2 3.7 -0.2
v 5.7 3.7 -0.2
v 5.8 3.7 -0.2
v 5.9 3.7 -0.2
v 0 3.7 -0.3
v 0.1 3.7 -0.3
v 5.8 3.7 -0.3
v 5.9 3.7 -0.3
v 0 3.7 -0.5
v 0.1 3.7 -0.5
v 5.8 3.7 -0.5
v 5.9 3.7 -0.5
v 0 3.7 -0.7
v 0.1 3.7 -0.7
v 5.8 3.7 -0.7
v 5.9 3.7 -0.7
v 0 3.7 -0.9
v 0.1 3.7 -0.9
v 5.8 3.7 -0.9
v 5.9 3.7 -0.9
v 0 3.7 -1.1
v 0.1 3.7 -1.1
v 5.8 3.7 -1.1
v 5.9 3.7 -1.1
v 0 3.7 -1.3
v 0.1 3.7 -1.3
v 5.8 3.7 -1.3
v 5.9 3.7 -1.3
v 0 3.7 -1.5
v 0.1 3.7 -1.5
v 5.8 3.7 -1.5
v 5.9 3.7 -1.5
v 0 3.7 -1.7
v 0.1 3.7 -1.7
v 5.8 3.7 -1.7
v 5.9 3.7 -1.7
v 0 3.7 -1.9
v 0.1 3.7 -1.9
v 5.8 3.7 -1.9
v 5.9 3.7 -1.9
v 0 3.7 -2.1
v 0.1 3.7 -2.1
v 5.8 3.7 -2.1
v 5.9 3.7 -2.1
v 0 3.7 -2.2
v 0.1 3.7 -2.2
v 0.2 3.7 -2.2
v 5.7 3.7 -2.2
v 5.8 3.7 -2.2
v 5.9 3.7 -2.2
v 0.2 3.7 -2.3
v 0.3 3.7 -2.3
v 0.5 3.7 -2.3
v 0.7 3.7 -2.3
v 0.9 3.7 -2.3
v 1.1 3.7 -2.3
v 1.3 3.7 -2.3
v 1.5 3.7 -2.3
v 1.7 3.7 -2.3
v 1.9 3.7 -2.3
v 2.1 3.7 -2.3
v 2.3 3.7 -2.3
v 2.5 3.7 -2.3
v 2.7 3.7 -2.3
v 2.9 3.7 -2.3
v 3.1 3.7 -2.3
v 3.3 3.7 -2.3
v 3.5 3.7 -2.3
v 3.7 3.7 -2.3
v 3.9 3.7 -2.3
v 4.1 3.7 -2.3
v 4.3 3.7 -2.3
v 4.5 3.7 -2.3
v 4.7 3.7 -2.3
v 4.9 3.7 -2.3
v 5.1 3.7 -2.3
v 5.3 3.7 -2.3
v 5.5 3.7 -2.3
v 0.2 3.7 -2.4
v 0.3 3.7 -2.4
v 0.5 3.7 -2.4
v 0.7 3.7 -2.4
v 0.9 3.7 -2.4
v 1.1 3.7 -2.4
v 1.3 3.7 -2.4
v 1.5 3.7 -2.4
v 1.7 3.7 -2.4
v 1.9 3.7 -2.4
v 2.1 3.7 -2.4
v 2.3 3.7 -2.4
v 2.5 3.7 -2.4
v 2.7 3.7 -2.4
v 2.9 3.7 -2.4
v 3.1 3.7 -2.4
v 3.3 3.7 -2.4
v 3.5 3.7 -2.4
v 3.7 3.7 -2.4
v 3.9 3.7 -2.4
v 4.1 3.7 -2.4
v 4.3 3.7 -2.4
v 4.5 3.7 -2.4
v 4.7 3.7 -2.4
v 4.9 3.7 -2.4
v 5.1 3.7 -2.4
v 5.3 3.7 -2.4
v 5.5 3.7 -2.4
v 5.8 1.4 -0.2
v 5.9 1.4 -0.2
v 5.8 1.4 -0.3
v 5.9 1.4 -0.3
v 5.8 1.4 -0.5
v 5.9 1.4 -0.5
v 5.8 1.4 -0.7
v 5.9 1.4 -0.7
v 5.8 1.4 -0.9
v 5.9 1.4 -0.9
v 5.8 1.4 -1.1
v 5.9 1.4 -1.1
v 5.8 1.4 -1.3
v 5.9 1.4 -1.3
v 5.8 1.4 -1.5
v 5.9 1.4 -1.5
v 5.8 1.4 -1.7
v 5.9 1.4 -1.7
v 5.8 1.4 -1.9
v 5.9 1.4 -1.9
v 5.8 1.4 -2.1
v 5.9 1.4 -2.1
v 5.8 1.4 -2.2
v 5.9 1.4 -2.2
v 0.2 1.5 0
v 0.3 1.5 0
v 0.5 1.5 0
v 0.7 1.5 0
v 0.9 1.5 0
v 1.1 1.5 0
v 1.3 1.5 0
v 1.5 1.5 0
v 1.7 1.5 0
v 1.9 1.5 0
v 2.1 1.5 0
v 2.3 1.5 0
v 2.5 1.5 0
v 2.7 1.5 0
v 2.9 1.5 0
v 3.1 1.5 0
v 3.3 1.5 0
v 3.5 1.5 0
v 3.7 1.5 0
v 3.9 1.5 0
v 4.1 1.5 0
v 4.3 1.5 0
v 4.5 1.5 0
v 4.7 1.5 0
v 4.9 1.5 0
v 5.1 1.5 0
v 5.3 1.5 0
v 5.5 1.5 0
v 0.2 1.5 -0.1
v 0.3 1.5 -0.1
v 0.5 1.5 -0.1
v 0.7 1.5 -0.1
v 0.9 1.5 -0.1
v 1.1 1.5 -0.1
v 1.3 1.5 -0.1
v 1.5 1.5 -0.1
v 1.7 1.5 -0.1
v 1.9 1.5 -0.1
v 2.1 1.5 -0.1
v 2.3 1.5 -0.1
v 2.5 1.5 -0.1
v 2.7 1.5 -0.1
v 2.9 1.5 -0.1
v 3.1 1.5 -0.1
v 3.3 1.5 -0.1
v 3.5 1.5 -0.1
v 3.7 1.5 -0.1
v 3.9 1.5 -0.1
v 4.1 1.5 -0.1
v 4.3 1.5 -0.1
v 4.5 1.5 -0.1
v 4.7 1.5 -0.1
v 4.9 1.5 -0.1
v 5.1 1.5 -0.1
v 5.3 1.5 -0.1
v 5.5 1.5 -0.1
v 0 1.5 -0.2
v 0.1 1.5 -0.2
v 0.2 1.5 -0.2
v 5.6 1.5 -0.2
v 5.7 1.5 -0.2
v 0 1.5 -0.3
v 0.1 1.5 -0.3
v 0 1.5 -0.5
v 0.1 1.5 -0.5
v 0 1.5 -0.7
v 0.1 1.5 -0.7
v 0 1.5 -0.9
v 0.1 1.5 -0.9
v 0 1.5 -1.1
v 0.1 1.5 -1.1
v 0 1.5 -1.3
v 0.1 1.5 -1.3
v 0 1.5 -1.5
v 0.1 1.5 -1.5
v 0 1.5 -1.7
v 0.1 1.5 -1.7
v 0 1.5 -1.9
v 0.1 1.5 -1.9
v 0 1.5 -2.1
v 0.1 1.5 -2.1
v 0 1.5 -2.2
v 0.1 1.5 -2.2
v 0.2 1.5 -2.2
v 5.6 1.5 -2.2
v 5.7 1.5 -2.2
v 0.2 1.5 -2.3
v 0.3 1.5 -2.3
v 0.5 1.5 -2.3
v 0.7 1.5 -2.3
v 0.9 1.5 -2.3
v 1.1 1.5 -2.3
v 1.3 1.5 -2.3
v 1.5 1.5 -2.3
v 1.7 1.5 -2.3
v 1.9 1.5 -2.3
v 2.1 1.5 -2.3
v 2.3 1.5 -2.3
v 2.5 1.5 -2.3
v 2.7 1.5 -2.3
v 2.9 1.5 -2.3
v 3.1 1.5 -2.3
v 3.3 1.5 -2.3
v 3.5 1.5 -2.3
v 3.7 1.5 -2.3
v 3.9 1.5 -2.3
v 4.1 1.5 -2.3
v 4.3 1.5 -2.3
v 4.5 1.5 -2.3
v 4.7 1.5 -2.3
v 4.9 1.5 -2.3
v 5.1 1.5 -2.3
v 5.3 1.5 -2.3
v 5.5 1.5 -2.3
v 0.2 1.5 -2.4
v 0.3 1.5 -2.4
v 0.5 1.5 -2.4
v 0.7 1.5 -2.4
v 0.9 1.5 -2.4
v 1.1 1.5 -2.4
v 1.3 1.5 -2.4
v 1.5 1.5 -2.4
v 1.7 1.5 -2.4
v 1.9 1.5 -2.4
v 2.1 1.5 -2.4
v 2.3 1.5 -2.4
v 2.5 1.5 -2.4
v 2.7 1.5 -2.4
v 2.9 1.5 -2.4
v 3.1 1.5 -2.4
v 3.3 1.5 -2.4
v 3.5 1.5 -2.4
v 3.7 1.5 -2.4
v 3.9 1.5 -2.4
v 4.1 1.5 -2.4
v 4.3 1.5 -2.4
v 4.5 1.5 -2.4
v 4.7 1.5 -2.4
v 4.9 1.5 -2.4
v 5.1 1.5 -2.4
v 5.3 1.5 -2.4
v 5.5 1.5 -2.4
v 0.2 3.8 -0.2
v 0.3 3.8 -0.2
v 0.5 3.8 -0.2
v 0.7 3.8 -0.2
v 0.9 3.8 -0.2
v 1.1 3.8 -0.2
v 1.3 3.8 -0.2
v 1.5 3.8 -0.2
v 1.7 3.8 -0.2
v 1.9 3.8 -0.2
v 2.1 3.8 -0.2
v 2.3 3.8 -0.2
v 2.5 3.8 -0.2
v 2.7 3.8 -0.2
v 2.9 3.8 -0.2
v 3.1 3.8 -0.2
v 3.3 3.8 -0.2
v 3.5 3.8 -0.2
v 3.7 3.8 -0.2
v 3.9 3.8 -0.2
v 4.1 3.8 -0.2
v 4.3 3.8 -0.2
v 4.5 3.8 -0.2
v 4.7 3.8 -0.2
v 4.9 3.8 -0.2
v 5.1 3.8 -0.2
v 5.3 3.8 -0.2
v 5.5 3.8 -0.2
v 0.2 3.8 -2.2
v 0.3 3.8 -2.2
v 0.5 3.8 -2.2
v 0.7 3.8 -2.2
v 0.9 3.8 -2.2
v 1.1 3.8 -2.2
v 1.3 3.8 -2.2
v 1.5 3.8 -2.2
v 1.7 3.8 -2.2
v 1.9 3.8 -2.2
v 2.1 3.8 -2.2
v 2.3 3.8 -2.2
v 2.5 3.8 -2.2
v 2.7 3.8 -2.2
v 2.9 3.8 -2.2
v 3.1 3.8 -2.2
v 3.3 3.8 -2.2
v 3.5 3.8 -2.2
v 3.7 3.8 -2.2
v 3.9 3.8 -2.2
v 4.1 3.8 -2.2
v 4.3 3.8 -2.2
v 4.5 3.8 -2.2
v 4.7 3.8 -2.2
v 4.9 3.8 -2.2
v 5.1 3.8 -2.2
v 5.3 3.8 -2.2
v 5.5 3.8 -2.2
v 0 3.9 0
v 5.9 3.9 0
v 0.2 3.9 -0.2
v 0.3 3.9 -0.2
v 0.5 3.9 -0.2
v 0.7 3.9 -0.2
v 0.9 3.9 -0.2
v 1.1 3.9 -0.2
v 1.3 3.9 -0.2
v 1.5 3.9 -0.2
v 1.7 3.9 -0.2
v 1.9 3.9 -0.2
v 2.1 3.9 -0.2
v 2.3 3.9 -0.2
v 2.5 3.9 -0.2
v 2.7 3.9 -0.2
v 2.9 3.9 -0.2
v 3.1 3.9 -0.2
v 3.3 3.9 -0.2
v 3.5 3.9 -0.2
v 3.7 3.9 -0.2
v 3.9 3.9 -0.2
v 4.1 3.9 -0.2
v 4.3 3.9 -0.2
v 4.5 3.9 -0.2
v 4.7 3.9 -0.2
v 4.9 3.9 -0.2
v 5.1 3.9 -0.2
v 5.3 3.9 -0.2
v 5.5 3.9 -0.2
v 5.7 3.9 -0.2
v 5.8 3.9 -0.2
v 0.2 3.9 -2.2
v 0.3 3.9 -2.2
v 0.5 3.9 -2.2
v 0.7 3.9 -2.2
v 0.9 3.9 -2.2
v 1.1 3.9 -2.2
v 1.3 3.9 -2.2
v 1.5 3.9 -2.2
v 1.7 3.9 -2.2
v 1.9 3.9 -2.2
v 2.1 3.9 -2.2
v 2.3 3.9 -2.2
v 2.5 3.9 -2.2
v 2.7 3.9 -2.2
v 2.9 3.9 -2.2
v 3.1 3.9 -2.2
v 3.3 3.9 -2.2
v 3.5 3.9 -2.2
v 3.7 3.9 -2.2
v 3.9 3.9 -2.2
v 4.1 3.9 -2.2
v 4.3 3.9 -2.2
v 4.5 3.9 -2.2
v 4.7 3.9 -2.2
v 4.9 3.9 -2.2
v 5.1 3.9 -2.2
v 5.3 3.9 -2.2
v 5.5 3.9 -2.2
v 5.7 3.9 -2.2
v 5.8 3.9 -2.2
v 0 3.9 -2.4
v 5.9 3.9 -2.4

# faces
f 3/2/1 2/2/1 1/2/1
f 4/2/1 2/2/1 3/2/1
f 5/2/1 2/2/1 4/2/1
f 6/2/1 2/2/1 5/2/1
f 7/2/1 2/2/1 6/2/1
f 8/2/1 2/2/1 7/2/1
f 9/2/1 2/2/1 8/2/1
f 10/2/1 2/2/1 9/2/1
f 11/2/1 2/2/1 10/2/1
f 12/2/1 2/2/1 11/2/1
f 13/2/1 2/2/1 12/2/1
f 14/2/1 2/2/1 13/2/1
f 15/2/1 3/2/1 1/2/1
f 16/3/1 5/3/1 4/3/1
f 17/3/1 5/3/1 16/3/1
f 18/3/1 7/3/1 6/3/1
f 19/3/1 7/3/1 18/3/1
f 20/3/1 9/3/1 8/3/1
f 21/3/1 9/3/1 20/3/1
f 22/3/1 11/3/1 10/3/1
f 23/3/1 11/3/1 22/3/1
f 24/3/1 13/3/1 12/3/1
f 25/3/1 13/3/1 24/3/1
f 26/2/1 2/2/1 14/2/1
f 27/2/1 25/2/1 24/2/1
f 27/2/1 26/2/1 25/2/1
f 27/2/1 23/2/1 22/2/1
f 27/2/1 15/2/1 1/2/1
f 27/2/1 24/2/1 23/2/1
f 27/2/1 21/2/1 20/2/1
f 27/2/1 22/2/1 21/2/1
f 27/2/1 17/2/1 16/2/1
f 27/2/1 20/2/1 19/2/1
f 27/2/1 19/2/1 18/2/1
f 27/2/1 18/2/1 17/2/1
f 27/2/1 16/2/1 15/2/1
f 28/2/1 2/2/1 26/2/1
f 28/2/1 26/2/1 27/2/1
f 41/3/1 30/3/1 29/3/1
f 42/3/1 30/3/1 41/3/1
f 43/3/1 32/3/1 31/3/1
f 44/3/1 32/3/1 43/3/1
f 45/3/1 34/3/1 33/3/1
f 46/3/1 34/3/1 45/3/1
f 47/3/1 36/3/1 35/3/1
f 48/3/1 36/3/1 47/3/1
f 49/3/1 38/3/1 37/3/1
f 50/3/1 38/3/1 49/3/1
f 51/3/1 40/3/1 39/3/1
f 52/3/1 40/3/1 51/3/1
f 57/3/1 54/3/1 53/3/1
f 58/3/1 54/3/1 57/3/1
f 59/3/1 56/3/1 55/3/1
f 60/3/1 56/3/1 59/3/1
f 63/3/1 62/3/1 61/3/1
f 64/3/1 62/3/1 63/3/1
f 69/3/1 66/3/1 65/3/1
f 70/3/1 66/3/1 69/3/1
f 71/3/1 68/3/1 67/3/1
f 72/3/1 68/3/1 71/3/1
f 75/3/1 74/3/1 73/3/1
f 76/3/1 74/3/1 75/3/1
f 81/3/1 78/3/1 77/3/1
f 82/3/1 78/3/1 81/3/1
f 83/3/1 80/3/1 79/3/1
f 84/3/1 80/3/1 83/3/1
f 87/3/1 86/3/1 85/3/1
f 88/3/1 86/3/1 87/3/1
f 93/3/1 90/3/1 89/3/1
f 94/3/1 90/3/1 93/3/1
f 95/3/1 92/3/1 91/3/1
f 96/3/1 92/3/1 95/3/1
f 99/3/1 98/3/1 97/3/1
f 100/3/1 98/3/1 99/3/1
f 105/3/1 102/3/1 101/3/1
f 106/3/1 102/3/1 105/3/1
f 107/3/1 104/3/1 103/3/1
f 108/3/1 104/3/1 107/3/1
f 111/3/1 110/3/1 109/3/1
f 112/3/1 110/3/1 111/3/1
f 117/3/1 114/3/1 113/3/1
f 118/3/1 114/3/1 117/3/1
f 119/3/1 116/3/1 115/3/1
f 120/3/1 116/3/1 119/3/1
f 123/3/1 122/3/1 121/3/1
f 124/3/1 122/3/1 123/3/1
f 129/3/1 126/3/1 125/3/1
f 130/3/1 126/3/1 129/3/1
f 131/3/1 128/3/1 127/3/1
f 132/3/1 128/3/1 131/3/1
f 135/3/1 134/3/1 133/3/1
f 136/3/1 134/3/1 135/3/1
f 141/3/1 138/3/1 137/3/1
f 142/3/1 138/3/1 141/3/1
f 143/3/1 140/3/1 139/3/1
f 144/3/1 140/3/1 143/3/1
f 147/3/1 146/3/1 145/3/1
f 148/3/1 146/3/1 147/3/1
f 153/3/1 150/3/1 149/3/1
f 154/3/1 150/3/1 153/3/1
f 155/3/1 152/3/1 151/3/1
f 156/3/1 152/3/1 155/3/1
f 159/3/1 158/3/1 157/3/1
f 160/3/1 158/3/1 159/3/1
f 165/3/1 162/3/1 161/3/1
f 166/3/1 162/3/1 165/3/1
f 167/3/1 164/3/1 163/3/1
f 168/3/1 164/3/1 167/3/1
f 171/3/1 170/3/1 169/3/1
f 172/3/1 170/3/1 171/3/1
f 177/3/1 174/3/1 173/3/1
f 178/3/1 174/3/1 177/3/1
f 179/3/1 176/3/1 175/3/1
f 180/3/1 176/3/1 179/3/1
f 183/3/1 182/3/1 181/3/1
f 184/3/1 182/3/1 183/3/1
f 189/3/1 186/3/1 185/3/1
f 190/3/1 186/3/1 189/3/1
f 191/3/1 188/3/1 187/3/1
f 192/3/1 188/3/1 191/3/1
f 195/3/1 194/3/1 193/3/1
f 196/3/1 194/3/1 195/3/1
f 201/3/1 198/3/1 197/3/1
f 202/3/1 198/3/1 201/3/1
f 203/3/1 200/3/1 199/3/1
f 204/3/1 200/3/1 203/3/1
f 207/3/1 206/3/1 205/3/1
f 208/3/1 206/3/1 207/3/1
f 213/3/1 210/3/1 209/3/1
f 214/3/1 210/3/1 213/3/1
f 215/3/1 212/3/1 211/3/1
f 216/3/1 212/3/1 215/3/1
f 219/3/1 218/3/1 217/3/1
f 220/3/1 218/3/1 219/3/1
f 223/3/1 222/3/1 221/3/1
f 224/3/1 222/3/1 223/3/1
f 225/2/2 226/2/2 231/2/2
f 231/2/2 226/2/2 232/2/2
f 227/3/2 228/3/2 233/3/2
f 233/3/2 228/3/2 234/3/2
f 229/2/2 230/2/2 235/2/2
f 235/2/2 230/2/2 236/2/2
f 237/2/2 238/2/2 239/2/2
f 239/2/2 238/2/2 240/2/2
f 241/3/2 242/3/2 245/3/2
f 245/3/2 242/3/2 246/3/2
f 243/3/2 244/3/2 247/3/2
f 247/3/2 244/3/2 248/3/2
f 249/3/2 250/3/2 251/3/2
f 251/3/2 250/3/2 252/3/2
f 253/3/2 254/3/2 257/3/2
f 257/3/2 254/3/2 258/3/2
f 255/3/2 256/3/2 259/3/2
f 259/3/2 256/3/2 260/3/2
f 261/3/2 262/3/2 263/3/2
f 263/3/2 262/3/2 264/3/2
f 265/3/2 266/3/2 269/3/2
f 269/3/2 266/3/2 270/3/2
f 267/3/2 268/3/2 271/3/2
f 271/3/2 268/3/2 272/3/2
f 273/3/2 274/3/2 275/3/2
f 275/3/2 274/3/2 276/3/2
f 277/3/2 278/3/2 281/3/2
f 281/3/2 278/3/2 282/3/2
f 279/3/2 280/3/2 283/3/2
f 283/3/2 280/3/2 284/3/2
f 285/3/2 286/3/2 287/3/2
f 287/3/2 286/3/2 288/3/2
f 289/3/2 290/3/2 293/3/2
f 293/3/2 290/3/2 294/3/2
f 291/3/2 292/3/2 295/3/2
f 295/3/2 292/3/2 296/3/2
f 297/3/2 298/3/2 299/3/2
f 299/3/2 298/3/2 300/3/2
f 301/3/2 302/3/2 305/3/2
f 305/3/2 302/3/2 306/3/2
f 303/3/2 304/3/2 307/3/2
f 307/3/2 304/3/2 308/3/2
f 309/3/2 310/3/2 311/3/2
f 311/3/2 310/3/2 312/3/2
f 313/3/2 314/3/2 317/3/2
f 317/3/2 314/3/2 318/3/2
f 315/3/2 316/3/2 319/3/2
f 319/3/2 316/3/2 320/3/2
f 321/3/2 322/3/2 323/3/2
f 323/3/2 322/3/2 324/3/2
f 325/3/2 326/3/2 329/3/2
f 329/3/2 326/3/2 330/3/2
f 327/3/2 328/3/2 331/3/2
f 331/3/2 328/3/2 332/3/2
f 333/3/2 334/3/2 335/3/2
f 335/3/2 334/3/2 336/3/2
f 337/3/2 338/3/2 341/3/2
f 341/3/2 338/3/2 342/3/2
f 339/3/2 340/3/2 343/3/2
f 343/3/2 340/3/2 344/3/2
f 345/3/2 346/3/2 347/3/2
f 347/3/2 346/3/2 348/3/2
f 349/3/2 350/3/2 353/3/2
f 353/3/2 350/3/2 354/3/2
f 351/3/2 352/3/2 355/3/2
f 355/3/2 352/3/2 356/3/2
f 357/3/2 358/3/2 359/3/2
f 359/3/2 358/3/2 360/3/2
f 361/3/2 362/3/2 365/3/2
f 365/3/2 362/3/2 366/3/2
f 363/3/2 364/3/2 367/3/2
f 367/3/2 364/3/2 368/3/2
f 369/3/2 370/3/2 371/3/2
f 371/3/2 370/3/2 372/3/2
f 373/3/2 374/3/2 377/3/2
f 377/3/2 374/3/2 378/3/2
f 375/3/2 376/3/2 379/3/2
f 379/3/2 376/3/2 380/3/2
f 381/3/2 382/3/2 383/3/2
f 383/3/2 382/3/2 384/3/2
f 385/3/2 386/3/2 389/3/2
f 389/3/2 386/3/2 390/3/2
f 387/3/2 388/3/2 391/3/2
f 391/3/2 388/3/2 392/3/2
f 393/3/2 394/3/2 395/3/2
f 395/3/2 394/3/2 396/3/2
f 397/3/2 398/3/2 409/3/2
f 409/3/2 398/3/2 410/3/2
f 399/3/2 400/3/2 411/3/2
f 411/3/2 400/3/2 412/3/2
f 401/3/2 402/3/2 413/3/2
f 413/3/2 402/3/2 414/3/2
f 403/3/2 404/3/2 415/3/2
f 415/3/2 404/3/2 416/3/2
f 405/3/2 406/3/2 417/3/2
f 417/3/2 406/3/2 418/3/2
f 407/3/2 408/3/2 419/3/2
f 419/3/2 408/3/2 420/3/2
f 421/2/2 422/2/2 423/2/2
f 423/2/2 422/2/2 424/2/2
f 424/2/2 422/2/2 425/2/2
f 425/2/2 422/2/2 426/2/2
f 426/2/2 422/2/2 427/2/2
f 427/2/2 422/2/2 428/2/2
f 428/2/2 422/2/2 429/2/2
f 429/2/2 422/2/2 430/2/2
f 430/2/2 422/2/2 431/2/2
f 431/2/2 422/2/2 432/2/2
f 432/2/2 422/2/2 433/2/2
f 433/2/2 422/2/2 434/2/2
f 421/2/2 423/2/2 435/2/2
f 424/3/2 425/3/2 436/3/2
f 436/3/2 425/3/2 437/3/2
f 426/3/2 427/3/2 438/3/2
f 438/3/2 427/3/2 439/3/2
f 428/3/2 429/3/2 440/3/2
f 440/3/2 429/3/2 441/3/2
f 430/3/2 431/3/2 442/3/2
f 442/3/2 431/3/2 443/3/2
f 432/3/2 433/3/2 444/3/2
f 444/3/2 433/3/2 445/3/2
f 434/2/2 422/2/2 446/2/2
f 444/2/2 445/2/2 447/2/2
f 445/2/2 446/2/2 447/2/2
f 442/2/2 443/2/2 447/2/2
f 421/2/2 435/2/2 447/2/2
f 443/2/2 444/2/2 447/2/2
f 440/2/2 441/2/2 447/2/2
f 441/2/2 442/2/2 447/2/2
f 436/2/2 437/2/2 447/2/2
f 439/2/2 440/2/2 447/2/2
f 438/2/2 439/2/2 447/2/2
f 437/2/2 438/2/2 447/2/2
f 435/2/2 436/2/2 447/2/2
f 446/2/2 422/2/2 448/2/2
f 447/2/2 446/2/2 448/2/2
f 451/2/3 450/2/3 449/2/3
f 452/2/3 450/2/3 451/2/3
f 453/2/3 451/2/3 449/2/3
f 454/2/3 450/2/3 452/2/3
f 455/2/3 453/2/3 449/2/3
f 455/3/3 454/3/3 453/3/3
f 456/2/3 450/2/3 454/2/3
f 456/3/3 454/3/3 455/3/3
f 457/2/3 455/2/3 449/2/3
f 458/2/3 450/2/3 456/2/3
f 459/2/3 457/2/3 449/2/3
f 459/3/3 458/3/3 457/3/3
f 460/2/3 450/2/3 458/2/3
f 460/3/3 458/3/3 459/3/3
f 461/2/3 459/2/3 449/2/3
f 462/2/3 450/2/3 460/2/3
f 463/2/3 461/2/3 449/2/3
f 463/3/3 462/3/3 461/3/3
f 464/2/3 450/2/3 462/2/3
f 464/3/3 462/3/3 463/3/3
f 465/2/3 463/2/3 449/2/3
f 466/2/3 450/2/3 464/2/3
f 467/2/3 465/2/3 449/2/3
f 467/3/3 466/3/3 465/3/3
f 468/2/3 450/2/3 466/2/3
f 468/3/3 466/3/3 467/3/3
f 469/2/3 467/2/3 449/2/3
f 470/2/3 450/2/3 468/2/3
f 471/2/3 469/2/3 449/2/3
f 471/3/3 470/3/3 469/3/3
f 472/2/3 450/2/3 470/2/3
f 472/3/3 470/3/3 471/3/3
f 473/2/3 471/2/3 449/2/3
f 474/2/3 450/2/3 472/2/3
f 475/2/3 473/2/3 449/2/3
f 475/3/3 474/3/3 473/3/3
f 476/2/3 450/2/3 474/2/3
f 476/3/3 474/3/3 475/3/3
f 477/2/3 475/2/3 449/2/3
f 478/2/3 450/2/3 476/2/3
f 479/2/3 477/2/3 449/2/3
f 479/3/3 478/3/3 477/3/3
f 480/2/3 450/2/3 478/2/3
f 480/3/3 478/3/3 479/3/3
f 481/2/3 479/2/3 449/2/3
f 482/2/3 450/2/3 480/2/3
f 483/2/3 481/2/3 449/2/3
f 483/3/3 482/3/3 481/3/3
f 484/2/3 450/2/3 482/2/3
f 484/3/3 482/3/3 483/3/3
f 485/2/3 483/2/3 449/2/3
f 486/2/3 450/2/3 484/2/3
f 487/2/3 485/2/3 449/2/3
f 487/3/3 486/3/3 485/3/3
f 488/2/3 450/2/3 486/2/3
f 488/3/3 486/3/3 487/3/3
f 489/2/3 487/2/3 449/2/3
f 490/2/3 450/2/3 488/2/3
f 491/2/3 489/2/3 449/2/3
f 491/3/3 490/3/3 489/3/3
f 492/2/3 450/2/3 490/2/3
f 492/3/3 490/3/3 491/3/3
f 493/2/3 491/2/3 449/2/3
f 494/2/3 450/2/3 492/2/3
f 495/2/3 493/2/3 449/2/3
f 495/3/3 494/3/3 493/3/3
f 496/2/3 450/2/3 494/2/3
f 496/3/3 494/3/3 495/3/3
f 497/2/3 495/2/3 449/2/3
f 498/2/3 450/2/3 496/2/3
f 499/2/3 497/2/3 449/2/3
f 499/3/3 498/3/3 497/3/3
f 500/2/3 450/2/3 498/2/3
f 500/3/3 498/3/3 499/3/3
f 501/2/3 499/2/3 449/2/3
f 502/2/3 450/2/3 500/2/3
f 503/2/3 501/2/3 449/2/3
f 503/3/3 502/3/3 501/3/3
f 504/2/3 450/2/3 502/2/3
f 504/3/3 502/3/3 503/3/3
f 505/2/3 503/2/3 449/2/3
f 506/2/3 450/2/3 504/2/3
f 507/2/3 505/2/3 449/2/3
f 507/3/3 506/3/3 505/3/3
f 508/2/3 450/2/3 506/2/3
f 508/3/3 506/3/3 507/3/3
f 509/2/3 507/2/3 449/2/3
f 509/2/3 508/2/3 507/2/3
f 510/2/3 450/2/3 508/2/3
f 510/2/3 508/2/3 509/2/3
f 513/3/3 512/3/3 511/3/3
f 514/3/3 512/3/3 513/3/3
f 517/3/3 516/3/3 515/3/3
f 518/3/3 516/3/3 517/3/3
f 521/3/3 520/3/3 519/3/3
f 522/3/3 520/3/3 521/3/3
f 525/3/3 524/3/3 523/3/3
f 526/3/3 524/3/3 525/3/3
f 529/3/3 528/3/3 527/3/3
f 530/3/3 528/3/3 529/3/3
f 533/3/3 532/3/3 531/3/3
f 534/3/3 532/3/3 533/3/3
f 537/3/3 536/3/3 535/3/3
f 538/3/3 536/3/3 537/3/3
f 541/3/3 540/3/3 539/3/3
f 542/3/3 540/3/3 541/3/3
f 545/3/3 544/3/3 543/3/3
f 546/3/3 544/3/3 545/3/3
f 549/3/3 548/3/3 547/3/3
f 550/3/3 548/3/3 549/3/3
f 553/3/3 552/3/3 551/3/3
f 554/3/3 552/3/3 553/3/3
f 557/3/3 556/3/3 555/3/3
f 558/3/3 556/3/3 557/3/3
f 561/3/3 560/3/3 559/3/3
f 562/3/3 560/3/3 561/3/3
f 565/3/3 564/3/3 563/3/3
f 566/3/3 564/3/3 565/3/3
f 569/3/3 568/3/3 567/3/3
f 570/3/3 568/3/3 569/3/3
f 573/3/3 572/3/3 571/3/3
f 574/3/3 572/3/3 573/3/3
f 577/3/3 576/3/3 575/3/3
f 578/3/3 576/3/3 577/3/3
f 581/3/3 580/3/3 579/3/3
f 582/3/3 580/3/3 581/3/3
f 585/3/3 584/3/3 583/3/3
f 586/3/3 584/3/3 585/3/3
f 589/3/3 588/3/3 587/3/3
f 590/3/3 588/3/3 589/3/3
f 593/3/3 592/3/3 591/3/3
f 594/3/3 592/3/3 593/3/3
f 597/3/3 596/3/3 595/3/3
f 598/3/3 596/3/3 597/3/3
f 601/3/3 600/3/3 599/3/3
f 602/3/3 600/3/3 601/3/3
f 605/3/3 604/3/3 603/3/3
f 606/3/3 604/3/3 605/3/3
f 609/2/3 608/2/3 607/2/3
f 610/2/3 608/2/3 609/2/3
f 615/2/3 614/2/3 613/2/3
f 616/2/3 614/2/3 615/2/3
f 619/2/3 618/2/3 617/2/3
f 620/2/3 618/2/3 619/2/3
f 623/2/3 622/2/3 621/2/3
f 624/2/3 622/2/3 623/2/3
f 627/2/3 626/2/3 625/2/3
f 628/2/3 626/2/3 627/2/3
f 631/2/3 630/2/3 629/2/3
f 632/2/3 630/2/3 631/2/3
f 635/2/3 634/2/3 633/2/3
f 636/2/3 634/2/3 635/2/3
f 639/2/3 638/2/3 637/2/3
f 640/2/3 638/2/3 639/2/3
f 643/2/3 642/2/3 641/2/3
f 644/2/3 642/2/3 643/2/3
f 647/2/3 646/2/3 645/2/3
f 648/2/3 646/2/3 647/2/3
f 651/2/3 650/2/3 649/2/3
f 652/2/3 650/2/3 651/2/3
f 655/2/3 654/2/3 653/2/3
f 656/2/3 654/2/3 655/2/3
f 659/2/3 658/2/3 657/2/3
f 660/2/3 658/2/3 659/2/3
f 663/2/3 662/2/3 661/2/3
f 664/2/3 662/2/3 663/2/3
f 667/2/3 666/2/3 665/2/3
f 668/2/3 666/2/3 667/2/3
f 669/3/3 612/3/3 611/3/3
f 670/3/3 612/3/3 669/3/3
f 671/3/3 612/3/3 670/3/3
f 674/2/3 673/2/3 672/2/3
f 675/2/3 673/2/3 674/2/3
f 676/2/4 677/2/4 678/2/4
f 678/2/4 677/2/4 679/2/4
f 682/2/4 683/2/4 684/2/4
f 684/2/4 683/2/4 685/2/4
f 686/2/4 687/2/4 688/2/4
f 688/2/4 687/2/4 689/2/4
f 690/2/4 691/2/4 692/2/4
f 692/2/4 691/2/4 693/2/4
f 694/2/4 695/2/4 696/2/4
f 696/2/4 695/2/4 697/2/4
f 698/2/4 699/2/4 700/2/4
f 700/2/4 699/2/4 701/2/4
f 702/2/4 703/2/4 704/2/4
f 704/2/4 703/2/4 705/2/4
f 706/2/4 707/2/4 708/2/4
f 708/2/4 707/2/4 709/2/4
f 710/2/4 711/2/4 712/2/4
f 712/2/4 711/2/4 713/2/4
f 714/2/4 715/2/4 716/2/4
f 716/2/4 715/2/4 717/2/4
f 718/2/4 719/2/4 720/2/4
f 720/2/4 719/2/4 721/2/4
f 722/2/4 723/2/4 724/2/4
f 724/2/4 723/2/4 725/2/4
f 726/2/4 727/2/4 728/2/4
f 728/2/4 727/2/4 729/2/4
f 730/2/4 731/2/4 732/2/4
f 732/2/4 731/2/4 733/2/4
f 734/2/4 735/2/4 736/2/4
f 736/2/4 735/2/4 737/2/4
f 680/3/4 681/3/4 738/3/4
f 738/3/4 681/3/4 739/3/4
f 739/3/4 681/3/4 740/3/4
f 741/2/4 742/2/4 743/2/4
f 743/2/4 742/2/4 744/2/4
f 745/3/4 746/3/4 747/3/4
f 747/3/4 746/3/4 748/3/4
f 749/3/4 750/3/4 751/3/4
f 751/3/4 750/3/4 752/3/4
f 753/3/4 754/3/4 755/3/4
f 755/3/4 754/3/4 756/3/4
f 757/3/4 758/3/4 759/3/4
f 759/3/4 758/3/4 760/3/4
f 761/3/4 762/3/4 763/3/4
f 763/3/4 762/3/4 764/3/4
f 765/3/4 766/3/4 767/3/4
f 767/3/4 766/3/4 768/3/4
f 769/3/4 770/3/4 771/3/4
f 771/3/4 770/3/4 772/3/4
f 773/3/4 774/3/4 775/3/4
f 775/3/4 774/3/4 776/3/4
f 777/3/4 778/3/4 779/3/4
f 779/3/4 778/3/4 780/3/4
f 781/3/4 782/3/4 783/3/4
f 783/3/4 782/3/4 784/3/4
f 785/3/4 786/3/4 787/3/4
f 787/3/4 786/3/4 788/3/4
f 789/3/4 790/3/4 791/3/4
f 791/3/4 790/3/4 792/3/4
f 793/3/4 794/3/4 795/3/4
f 795/3/4 794/3/4 796/3/4
f 797/3/4 798/3/4 799/3/4
f 799/3/4 798/3/4 800/3/4
f 801/3/4 802/3/4 803/3/4
f 803/3/4 802/3/4 804/3/4
f 805/3/4 806/3/4 807/3/4
f 807/3/4 806/3/4 808/3/4
f 809/3/4 810/3/4 811/3/4
f 811/3/4 810/3/4 812/3/4
f 813/3/4 814/3/4 815/3/4
f 815/3/4 814/3/4 816/3/4
f 817/3/4 818/3/4 819/3/4
f 819/3/4 818/3/4 820/3/4
f 821/3/4 822/3/4 823/3/4
f 823/3/4 822/3/4 824/3/4
f 825/3/4 826/3/4 827/3/4
f 827/3/4 826/3/4 828/3/4
f 829/3/4 830/3/4 831/3/4
f 831/3/4 830/3/4 832/3/4
f 833/3/4 834/3/4 835/3/4
f 835/3/4 834/3/4 836/3/4
f 837/3/4 838/3/4 839/3/4
f 839/3/4 838/3/4 840/3/4
f 841/2/4 842/2/4 843/2/4
f 843/2/4 842/2/4 844/2/4
f 841/2/4 843/2/4 845/2/4
f 844/2/4 842/2/4 846/2/4
f 841/2/4 845/2/4 847/2/4
f 845/3/4 846/3/4 847/3/4
f 846/2/4 842/2/4 848/2/4
f 847/3/4 846/3/4 848/3/4
f 841/2/4 847/2/4 849/2/4
f 848/2/4 842/2/4 850/2/4
f 841/2/4 849/2/4 851/2/4
f 849/3/4 850/3/4 851/3/4
f 850/2/4 842/2/4 852/2/4
f 851/3/4 850/3/4 852/3/4
f 841/2/4 851/2/4 853/2/4
f 852/2/4 842/2/4 854/2/4
f 841/2/4 853/2/4 855/2/4
f 853/3/4 854/3/4 855/3/4
f 854/2/4 842/2/4 856/2/4
f 855/3/4 854/3/4 856/3/4
f 841/2/4 855/2/4 857/2/4
f 856/2/4 842/2/4 858/2/4
f 841/2/4 857/2/4 859/2/4
f 857/3/4 858/3/4 859/3/4
f 858/2/4 842/2/4 860/2/4
f 859/3/4 858/3/4 860/3/4
f 841/2/4 859/2/4 861/2/4
f 860/2/4 842/2/4 862/2/4
f 841/2/4 861/2/4 863/2/4
f 861/3/4 862/3/4 863/3/4
f 862/2/4 842/2/4 864/2/4
f 863/3/4 862/3/4 864/3/4
f 841/2/4 863/2/4 865/2/4
f 864/2/4 842/2/4 866/2/4
f 841/2/4 865/2/4 867/2/4
f 865/3/4 866/3/4 867/3/4
f 866/2/4 842/2/4 868/2/4
f 867/3/4 866/3/4 868/3/4
f 841/2/4 867/2/4 869/2/4
f 868/2/4 842/2/4 870/2/4
f 841/2/4 869/2/4 871/2/4
f 869/3/4 870/3/4 871/3/4
f 870/2/4 842/2/4 872/2/4
f 871/3/4 870/3/4 872/3/4
f 841/2/4 871/2/4 873/2/4
f 872/2/4 842/2/4 874/2/4
f 841/2/4 873/2/4 875/2/4
f 873/3/4 874/3/4 875/3/4
f 874/2/4 842/2/4 876/2/4
f 875/3/4 874/3/4 876/3/4
f 841/2/4 875/2/4 877/2/4
f 876/2/4 842/2/4 878/2/4
f 841/2/4 877/2/4 879/2/4
f 877/3/4 878/3/4 879/3/4
f 878/2/4 842/2/4 880/2/4
f 879/3/4 878/3/4 880/3/4
f 841/2/4 879/2/4 881/2/4
f 880/2/4 842/2/4 882/2/4
f 841/2/4 881/2/4 883/2/4
f 881/3/4 882/3/4 883/3/4
f 882/2/4 842/2/4 884/2/4
f 883/3/4 882/3/4 884/3/4
f 841/2/4 883/2/4 885/2/4
f 884/2/4 842/2/4 886/2/4
f 841/2/4 885/2/4 887/2/4
f 885/3/4 886/3/4 887/3/4
f 886/2/4 842/2/4 888/2/4
f 887/3/4 886/3/4 888/3/4
f 841/2/4 887/2/4 889/2/4
f 888/2/4 842/2/4 890/2/4
f 841/2/4 889/2/4 891/2/4
f 889/3/4 890/3/4 891/3/4
f 890/2/4 842/2/4 892/2/4
f 891/3/4 890/3/4 892/3/4
f 841/2/4 891/2/4 893/2/4
f 892/2/4 842/2/4 894/2/4
f 841/2/4 893/2/4 895/2/4
f 893/3/4 894/3/4 895/3/4
f 894/2/4 842/2/4 896/2/4
f 895/3/4 894/3/4 896/3/4
f 841/2/4 895/2/4 897/2/4
f 896/2/4 842/2/4 898/2/4
f 841/2/4 897/2/4 899/2/4
f 897/3/4 898/3/4 899/3/4
f 898/2/4 842/2/4 900/2/4
f 899/3/4 898/3/4 900/3/4
f 841/2/4 899/2/4 901/2/4
f 899/2/4 900/2/4 901/2/4
f 900/2/4 842/2/4 902/2/4
f 901/2/4 900/2/4 902/2/4
f 905/2/5 904/2/5 903/2/5
f 906/2/5 904/2/5 905/2/5
f 935/2/5 908/2/5 907/2/5
f 936/2/5 908/2/5 935/2/5
f 937/2/5 910/2/5 909/2/5
f 938/2/5 910/2/5 937/2/5
f 939/2/5 912/2/5 911/2/5
f 940/2/5 912/2/5 939/2/5
f 941/2/5 914/2/5 913/2/5
f 942/2/5 914/2/5 941/2/5
f 943/2/5 916/2/5 915/2/5
f 944/2/5 916/2/5 943/2/5
f 945/2/5 918/2/5 917/2/5
f 946/2/5 918/2/5 945/2/5
f 947/2/5 920/2/5 919/2/5
f 948/2/5 920/2/5 947/2/5
f 949/2/5 922/2/5 921/2/5
f 950/2/5 922/2/5 949/2/5
f 951/2/5 924/2/5 923/2/5
f 952/2/5 924/2/5 951/2/5
f 953/2/5 926/2/5 925/2/5
f 954/2/5 926/2/5 953/2/5
f 955/2/5 928/2/5 927/2/5
f 956/2/5 928/2/5 955/2/5
f 957/2/5 930/2/5 929/2/5
f 958/2/5 930/2/5 957/2/5
f 959/2/5 932/2/5 931/2/5
f 960/2/5 932/2/5 959/2/5
f 961/2/5 934/2/5 933/2/5
f 962/2/5 934/2/5 961/2/5
f 969/2/5 964/2/5 963/2/5
f 970/2/5 964/2/5 969/2/5
f 971/2/5 968/2/5 967/2/5
f 972/2/5 968/2/5 971/2/5
f 977/2/5 974/2/5 973/2/5
f 978/2/5 974/2/5 977/2/5
f 979/2/5 976/2/5 975/2/5
f 980/2/5 976/2/5 979/2/5
f 985/2/5 982/2/5 981/2/5
f 986/2/5 982/2/5 985/2/5
f 987/2/5 984/2/5 983/2/5
f 988/2/5 984/2/5 987/2/5
f 993/2/5 990/2/5 989/2/5
f 994/2/5 990/2/5 993/2/5
f 995/2/5 992/2/5 991/2/5
f 996/2/5 992/2/5 995/2/5
f 1001/2/5 998/2/5 997/2/5
f 1002/2/5 998/2/5 1001/2/5
f 1003/2/5 1000/2/5 999/2/5
f 1004/2/5 1000/2/5 1003/2/5
f 1009/2/5 1006/2/5 1005/2/5
f 1010/2/5 1006/2/5 1009/2/5
f 1011/3/5 966/3/5 965/3/5
f 1012/3/5 966/3/5 1011/3/5
f 1013/2/5 1008/2/5 1007/2/5
f 1014/2/5 1008/2/5 1013/2/5
f 1043/2/5 1016/2/5 1015/2/5
f 1044/2/5 1016/2/5 1043/2/5
f 1045/2/5 1018/2/5 1017/2/5
f 1046/2/5 1018/2/5 1045/2/5
f 1047/2/5 1020/2/5 1019/2/5
f 1048/2/5 1020/2/5 1047/2/5
f 1049/2/5 1022/2/5 1021/2/5
f 1050/2/5 1022/2/5 1049/2/5
f 1051/2/5 1024/2/5 1023/2/5
f 1052/2/5 1024/2/5 1051/2/5
f 1053/2/5 1026/2/5 1025/2/5
f 1054/2/5 1026/2/5 1053/2/5
f 1055/2/5 1028/2/5 1027/2/5
f 1056/2/5 1028/2/5 1055/2/5
f 1057/2/5 1030/2/5 1029/2/5
f 1058/2/5 1030/2/5 1057/2/5
f 1059/2/5 1032/2/5 1031/2/5
f 1060/2/5 1032/2/5 1059/2/5
f 1061/2/5 1034/2/5 1033/2/5
f 1062/2/5 1034/2/5 1061/2/5
f 1063/2/5 1036/2/5 1035/2/5
f 1064/2/5 1036/2/5 1063/2/5
f 1065/2/5 1038/2/5 1037/2/5
f 1066/2/5 1038/2/5 1065/2/5
f 1067/2/5 1040/2/5 1039/2/5
f 1068/2/5 1040/2/5 1067/2/5
f 1069/2/5 1042/2/5 1041/2/5
f 1070/2/5 1042/2/5 1069/2/5
f 1071/2/6 1072/2/6 1073/2/6
f 1073/2/6 1072/2/6 1074/2/6
f 1075/2/6 1076/2/6 1077/2/6
f 1077/2/6 1076/2/6 1078/2/6
f 1079/2/6 1080/2/6 1081/2/6
f 1081/2/6 1080/2/6 1082/2/6
f 1083/2/6 1084/2/6 1085/2/6
f 1085/2/6 1084/2/6 1086/2/6
f 1087/2/6 1088/2/6 1089/2/6
f 1089/2/6 1088/2/6 1090/2/6
f 1091/2/6 1092/2/6 1093/2/6
f 1093/2/6 1092/2/6 1094/2/6
f 1095/2/6 1096/2/6 1123/2/6
f 1123/2/6 1096/2/6 1124/2/6
f 1097/2/6 1098/2/6 1125/2/6
f 1125/2/6 1098/2/6 1126/2/6
f 1099/2/6 1100/2/6 1127/2/6
f 1127/2/6 1100/2/6 1128/2/6
f 1101/2/6 1102/2/6 1129/2/6
f 1129/2/6 1102/2/6 1130/2/6
f 1103/2/6 1104/2/6 1131/2/6
f 1131/2/6 1104/2/6 1132/2/6
f 1105/2/6 1106/2/6 1133/2/6
f 1133/2/6 1106/2/6 1134/2/6
f 1107/2/6 1108/2/6 1135/2/6
f 1135/2/6 1108/2/6 1136/2/6
f 1109/2/6 1110/2/6 1137/2/6
f 1137/2/6 1110/2/6 1138/2/6
f 1111/2/6 1112/2/6 1139/2/6
f 1139/2/6 1112/2/6 1140/2/6
f 1113/2/6 1114/2/6 1141/2/6
f 1141/2/6 1114/2/6 1142/2/6
f 1115/2/6 1116/2/6 1143/2/6
f 1143/2/6 1116/2/6 1144/2/6
f 1117/2/6 1118/2/6 1145/2/6
f 1145/2/6 1118/2/6 1146/2/6
f 1119/2/6 1120/2/6 1147/2/6
f 1147/2/6 1120/2/6 1148/2/6
f 1121/2/6 1122/2/6 1149/2/6
f 1149/2/6 1122/2/6 1150/2/6
f 1151/2/6 1152/2/6 1156/2/6
f 1156/2/6 1152/2/6 1157/2/6
f 1158/2/6 1159/2/6 1160/2/6
f 1160/2/6 1159/2/6 1161/2/6
f 1162/2/6 1163/2/6 1164/2/6
f 1164/2/6 1163/2/6 1165/2/6
f 1166/2/6 1167/2/6 1168/2/6
f 1168/2/6 1167/2/6 1169/2/6
f 1170/2/6 1171/2/6 1172/2/6
f 1172/2/6 1171/2/6 1173/2/6
f 1174/2/6 1175/2/6 1176/2/6
f 1176/2/6 1175/2/6 1177/2/6
f 1153/2/6 1154/2/6 1178/2/6
f 1154/5/6 1155/5/6 1179/5/6
f 1178/2/6 1154/2/6 1179/2/6
f 1179/5/6 1155/5/6 1180/5/6
f 1181/2/6 1182/2/6 1209/2/6
f 1209/2/6 1182/2/6 1210/2/6
f 1183/2/6 1184/2/6 1211/2/6
f 1211/2/6 1184/2/6 1212/2/6
f 1185/2/6 1186/2/6 1213/2/6
f 1213/2/6 1186/2/6 1214/2/6
f 1187/2/6 1188/2/6 1215/2/6
f 1215/2/6 1188/2/6 1216/2/6
f 1189/2/6 1190/2/6 1217/2/6
f 1217/2/6 1190/2/6 1218/2/6
f 1191/2/6 1192/2/6 1219/2/6
f 1219/2/6 1192/2/6 1220/2/6
f 1193/2/6 1194/2/6 1221/2/6
f 1221/2/6 1194/2/6 1222/2/6
f 1195/2/6 1196/2/6 1223/2/6
f 1223/2/6 1196/2/6 1224/2/6
f 1197/2/6 1198/2/6 1225/2/6
f 1225/2/6 1198/2/6 1226/2/6
f 1199/2/6 1200/2/6 1227/2/6
f 1227/2/6 1200/2/6 1228/2/6
f 1201/2/6 1202/2/6 1229/2/6
f 1229/2/6 1202/2/6 1230/2/6
f 1203/2/6 1204/2/6 1231/2/6
f 1231/2/6 1204/2/6 1232/2/6
f 1205/2/6 1206/2/6 1233/2/6
f 1233/2/6 1206/2/6 1234/2/6
f 1207/2/6 1208/2/6 1235/2/6
f 1235/2/6 1208/2/6 1236/2/6
f 1237/3/6 1238/3/6 1265/3/6
f 1265/3/6 1238/3/6 1266/3/6
f 1239/3/6 1240/3/6 1267/3/6
f 1267/3/6 1240/3/6 1268/3/6
f 1241/3/6 1242/3/6 1269/3/6
f 1269/3/6 1242/3/6 1270/3/6
f 1243/3/6 1244/3/6 1271/3/6
f 1271/3/6 1244/3/6 1272/3/6
f 1245/3/6 1246/3/6 1273/3/6
f 1273/3/6 1246/3/6 1274/3/6
f 1247/3/6 1248/3/6 1275/3/6
f 1275/3/6 1248/3/6 1276/3/6
f 1249/3/6 1250/3/6 1277/3/6
f 1277/3/6 1250/3/6 1278/3/6
f 1251/3/6 1252/3/6 1279/3/6
f 1279/3/6 1252/3/6 1280/3/6
f 1253/3/6 1254/3/6 1281/3/6
f 1281/3/6 1254/3/6 1282/3/6
f 1255/3/6 1256/3/6 1283/3/6
f 1283/3/6 1256/3/6 1284/3/6
f 1257/3/6 1258/3/6 1285/3/6
f 1285/3/6 1258/3/6 1286/3/6
f 1259/3/6 1260/3/6 1287/3/6
f 1287/3/6 1260/3/6 1288/3/6
f 1261/3/6 1262/3/6 1289/3/6
f 1289/3/6 1262/3/6 1290/3/6
f 1263/3/6 1264/3/6 1291/3/6
f 1291/3/6 1264/3/6 1292/3/6
f 1293/2/6 1294/2/6 1295/2/6
f 1295/2/6 1294/2/6 1296/2/6
f 1296/2/6 1294/2/6 1297/2/6
f 1297/2/6 1294/2/6 1298/2/6
f 1298/2/6 1294/2/6 1299/2/6
f 1299/2/6 1294/2/6 1300/2/6
f 1300/2/6 1294/2/6 1301/2/6
f 1301/2/6 1294/2/6 1302/2/6
f 1302/2/6 1294/2/6 1303/2/6
f 1303/2/6 1294/2/6 1304/2/6
f 1304/2/6 1294/2/6 1305/2/6
f 1305/2/6 1294/2/6 1306/2/6
f 1306/2/6 1294/2/6 1307/2/6
f 1307/2/6 1294/2/6 1308/2/6
f 1308/2/6 1294/2/6 1309/2/6
f 1309/2/6 1294/2/6 1310/2/6
f 1310/2/6 1294/2/6 1311/2/6
f 1311/2/6 1294/2/6 1312/2/6
f 1312/2/6 1294/2/6 1313/2/6
f 1313/2/6 1294/2/6 1314/2/6
f 1314/2/6 1294/2/6 1315/2/6
f 1315/2/6 1294/2/6 1316/2/6
f 1316/2/6 1294/2/6 1317/2/6
f 1317/2/6 1294/2/6 1318/2/6
f 1318/2/6 1294/2/6 1319/2/6
f 1319/2/6 1294/2/6 1320/2/6
f 1320/2/6 1294/2/6 1321/2/6
f 1321/2/6 1294/2/6 1322/2/6
f 1322/2/6 1294/2/6 1323/2/6
f 1323/2/6 1294/2/6 1324/2/6
f 1293/2/6 1295/2/6 1325/2/6
f 1296/3/6 1297/3/6 1326/3/6
f 1326/3/6 1297/3/6 1327/3/6
f 1298/3/6 1299/3/6 1328/3/6
f 1328/3/6 1299/3/6 1329/3/6
f 1300/3/6 1301/3/6 1330/3/6
f 1330/3/6 1301/3/6 1331/3/6
f 1302/3/6 1303/3/6 1332/3/6
f 1332/3/6 1303/3/6 1333/3/6
f 1304/3/6 1305/3/6 1334/3/6
f 1334/3/6 1305/3/6 1335/3/6
f 1306/3/6 1307/3/6 1336/3/6
f 1336/3/6 1307/3/6 1337/3/6
f 1308/3/6 1309/3/6 1338/3/6
f 1338/3/6 1309/3/6 1339/3/6
f 1310/3/6 1311/3/6 1340/3/6
f 1340/3/6 1311/3/6 1341/3/6
f 1312/3/6 1313/3/6 1342/3/6
f 1342/3/6 1313/3/6 1343/3/6
f 1314/3/6 1315/3/6 1344/3/6
f 1344/3/6 1315/3/6 1345/3/6
f 1316/3/6 1317/3/6 1346/3/6
f 1346/3/6 1317/3/6 1347/3/6
f 1318/3/6 1319/3/6 1348/3/6
f 1348/3/6 1319/3/6 1349/3/6
f 1320/3/6 1321/3/6 1350/3/6
f 1350/3/6 1321/3/6 1351/3/6
f 1322/3/6 1323/3/6 1352/3/6
f 1323/1/6 1324/1/6 1353/1/6
f 1352/3/6 1323/3/6 1353/3/6
f 1324/2/6 1294/2/6 1354/2/6
f 1353/1/6 1324/1/6 1354/1/6
f 1352/2/6 1353/2/6 1355/2/6
f 1351/2/6 1352/2/6 1355/2/6
f 1353/2/6 1354/2/6 1355/2/6
f 1293/2/6 1325/2/6 1355/2/6
f 1349/2/6 1350/2/6 1355/2/6
f 1350/2/6 1351/2/6 1355/2/6
f 1347/2/6 1348/2/6 1355/2/6
f 1326/2/6 1327/2/6 1355/2/6
f 1345/2/6 1346/2/6 1355/2/6
f 1348/2/6 1349/2/6 1355/2/6
f 1343/2/6 1344/2/6 1355/2/6
f 1328/2/6 1329/2/6 1355/2/6
f 1341/2/6 1342/2/6 1355/2/6
f 1346/2/6 1347/2/6 1355/2/6
f 1339/2/6 1340/2/6 1355/2/6
f 1330/2/6 1331/2/6 1355/2/6
f 1337/2/6 1338/2/6 1355/2/6
f 1344/2/6 1345/2/6 1355/2/6
f 1335/2/6 1336/2/6 1355/2/6
f 1332/2/6 1333/2/6 1355/2/6
f 1333/2/6 1334/2/6 1355/2/6
f 1342/2/6 1343/2/6 1355/2/6
f 1331/2/6 1332/2/6 1355/2/6
f 1334/2/6 1335/2/6 1355/2/6
f 1329/2/6 1330/2/6 1355/2/6
f 1340/2/6 1341/2/6 1355/2/6
f 1327/2/6 1328/2/6 1355/2/6
f 1336/2/6 1337/2/6 1355/2/6
f 1325/2/6 1326/2/6 1355/2/6
f 1338/2/6 1339/2/6 1355/2/6
f 1354/2/6 1294/2/6 1356/2/6
f 1355/2/6 1354/2/6 1356/2/6
