# MagicaVoxel @ Ephtracy

# group
o 

# material
mtllib door.mtl
usemtl palette

# normals
vn -1 0 0
vn 1 0 0
vn 0 0 1
vn 0 0 -1
vn 0 -1 0
vn 0 1 0

# texcoords
vt 0.0371094 0.5
vt 0.248047 0.5
vt 0.255859 0.5
vt 0.263672 0.5

# verts
v 0 1.1 0
v 0 1.1 -0.1
v 0 1.3 0
v 0 1.3 -0.1
v 0 1.4 0
v 0 1.4 -0.1
v 0 1.5 0
v 0 1.5 -0.1
v 0 1.6 0
v 0 1.6 -0.1
v 0 1.9 0
v 0 1.9 -0.1
v 0 2 0
v 0 2 -0.1
v 0 2.1 0
v 0 2.1 -0.1
v 0 2.2 0
v 0 2.2 -0.1
v 0 2.3 0
v 0 2.3 -0.1
v 0 2.4 0
v 0 2.4 -0.1
v 0 2.5 0
v 0 2.5 -0.1
v 0 2.6 0
v 0 2.6 -0.1
v 0 2.7 0
v 0 2.7 -0.1
v 0 2.8 0
v 0 2.8 -0.1
v 0 3 0
v 0 3 -0.1
v 0 3.1 0
v 0 3.1 -0.1
v 0 3.2 0
v 0 3.2 -0.1
v 0 3.4 0
v 0 3.4 -0.1
v 0.9 2.2 0.1
v 0.9 2.2 0
v 0.9 2.2 -0.1
v 0.9 2.2 -0.2
v 0.9 2.3 0.1
v 0.9 2.3 0
v 0.9 2.3 -0.1
v 0.9 2.3 -0.2
v 1.1 2.2 0.1
v 1.1 2.2 0
v 1.1 2.2 -0.1
v 1.1 2.2 -0.2
v 1.1 2.3 0.1
v 1.1 2.3 0
v 1.1 2.3 -0.1
v 1.1 2.3 -0.2
v 1.2 1.1 0
v 1.2 1.1 -0.1
v 1.2 1.2 0
v 1.2 1.2 -0.1
v 1.2 1.3 0
v 1.2 1.3 -0.1
v 1.2 1.4 0
v 1.2 1.4 -0.1
v 1.2 1.5 0
v 1.2 1.5 -0.1
v 1.2 1.6 0
v 1.2 1.6 -0.1
v 1.2 1.8 0
v 1.2 1.8 -0.1
v 1.2 2.1 0
v 1.2 2.1 -0.1
v 1.2 2.2 0
v 1.2 2.2 -0.1
v 1.2 2.3 0
v 1.2 2.3 -0.1
v 1.2 2.5 0
v 1.2 2.5 -0.1
v 1.2 2.6 0
v 1.2 2.6 -0.1
v 1.2 2.7 0
v 1.2 2.7 -0.1
v 1.2 2.8 0
v 1.2 2.8 -0.1
v 1.2 2.9 0
v 1.2 2.9 -0.1
v 1.2 3.1 0
v 1.2 3.1 -0.1
v 1.2 3.2 0
v 1.2 3.2 -0.1
v 1.2 3.3 0
v 1.2 3.3 -0.1
v 1.2 3.4 0
v 1.2 3.4 -0.1
v 0.9 2.2 0.1
v 0.9 2.3 0.1
v 1.1 2.2 0.1
v 1.1 2.3 0.1
v 0 1.1 0
v 0 1.3 0
v 0 1.4 0
v 0 1.5 0
v 0 1.6 0
v 0 1.9 0
v 0 2 0
v 0 2.1 0
v 0 2.2 0
v 0 2.3 0
v 0 2.4 0
v 0 2.5 0
v 0 2.6 0
v 0 2.7 0
v 0 2.8 0
v 0 3 0
v 0 3.1 0
v 0 3.2 0
v 0 3.4 0
v 0.1 1.1 0
v 0.1 1.2 0
v 0.1 1.3 0
v 0.1 1.4 0
v 0.1 1.5 0
v 0.1 1.6 0
v 0.1 1.9 0
v 0.1 2 0
v 0.1 2.1 0
v 0.1 2.2 0
v 0.1 2.3 0
v 0.1 2.4 0
v 0.1 2.5 0
v 0.1 2.6 0
v 0.1 2.7 0
v 0.1 2.8 0
v 0.1 3 0
v 0.1 3.1 0
v 0.1 3.2 0
v 0.1 3.3 0
v 0.1 3.4 0
v 0.2 1.3 0
v 0.2 2 0
v 0.2 2.1 0
v 0.2 2.2 0
v 0.2 2.3 0
v 0.2 2.4 0
v 0.2 2.5 0
v 0.2 3.2 0
v 0.3 2.1 0
v 0.3 2.2 0
v 0.3 2.3 0
v 0.3 2.4 0
v 0.3 3.3 0
v 0.3 3.4 0
v 0.4 1.1 0
v 0.4 1.2 0
v 0.4 2.1 0
v 0.4 2.2 0
v 0.4 2.3 0
v 0.4 2.4 0
v 0.4 3.3 0
v 0.4 3.4 0
v 0.5 2.2 0
v 0.5 2.3 0
v 0.5 3.3 0
v 0.5 3.4 0
v 0.6 1.1 0
v 0.6 1.2 0
v 0.6 2.1 0
v 0.6 2.2 0
v 0.6 2.3 0
v 0.6 2.4 0
v 0.6 3.3 0
v 0.6 3.4 0
v 0.7 1.1 0
v 0.7 1.2 0
v 0.7 2.2 0
v 0.7 2.3 0
v 0.8 2.1 0
v 0.8 2.2 0
v 0.8 2.3 0
v 0.8 2.4 0
v 0.8 3.3 0
v 0.8 3.4 0
v 0.9 1.1 0
v 0.9 1.2 0
v 0.9 2.2 0
v 0.9 2.3 0
v 0.9 3.3 0
v 0.9 3.4 0
v 1 1.1 0
v 1 1.2 0
v 1 1.3 0
v 1 2 0
v 1 2.1 0
v 1 2.2 0
v 1 2.3 0
v 1 2.4 0
v 1 2.5 0
v 1 3.2 0
v 1 3.3 0
v 1 3.4 0
v 1.1 1.3 0
v 1.1 1.4 0
v 1.1 1.5 0
v 1.1 1.6 0
v 1.1 1.8 0
v 1.1 2.1 0
v 1.1 2.2 0
v 1.1 2.3 0
v 1.1 2.5 0
v 1.1 2.6 0
v 1.1 2.7 0
v 1.1 2.8 0
v 1.1 2.9 0
v 1.1 3.1 0
v 1.1 3.2 0
v 1.2 1.1 0
v 1.2 1.2 0
v 1.2 1.3 0
v 1.2 1.4 0
v 1.2 1.5 0
v 1.2 1.6 0
v 1.2 1.8 0
v 1.2 2.1 0
v 1.2 2.2 0
v 1.2 2.3 0
v 1.2 2.5 0
v 1.2 2.6 0
v 1.2 2.7 0
v 1.2 2.8 0
v 1.2 2.9 0
v 1.2 3.1 0
v 1.2 3.2 0
v 1.2 3.3 0
v 1.2 3.4 0
v 0 1.1 -0.1
v 0 1.3 -0.1
v 0 1.4 -0.1
v 0 1.5 -0.1
v 0 1.6 -0.1
v 0 1.9 -0.1
v 0 2 -0.1
v 0 2.1 -0.1
v 0 2.2 -0.1
v 0 2.3 -0.1
v 0 2.4 -0.1
v 0 2.5 -0.1
v 0 2.6 -0.1
v 0 2.7 -0.1
v 0 2.8 -0.1
v 0 3 -0.1
v 0 3.1 -0.1
v 0 3.2 -0.1
v 0 3.4 -0.1
v 0.1 1.1 -0.1
v 0.1 1.2 -0.1
v 0.1 1.3 -0.1
v 0.1 1.4 -0.1
v 0.1 1.5 -0.1
v 0.1 1.6 -0.1
v 0.1 1.9 -0.1
v 0.1 2 -0.1
v 0.1 2.1 -0.1
v 0.1 2.2 -0.1
v 0.1 2.3 -0.1
v 0.1 2.4 -0.1
v 0.1 2.5 -0.1
v 0.1 2.6 -0.1
v 0.1 2.7 -0.1
v 0.1 2.8 -0.1
v 0.1 3 -0.1
v 0.1 3.1 -0.1
v 0.1 3.2 -0.1
v 0.1 3.3 -0.1
v 0.1 3.4 -0.1
v 0.2 1.3 -0.1
v 0.2 2 -0.1
v 0.2 2.1 -0.1
v 0.2 2.2 -0.1
v 0.2 2.3 -0.1
v 0.2 2.4 -0.1
v 0.2 2.5 -0.1
v 0.2 3.2 -0.1
v 0.3 2.1 -0.1
v 0.3 2.2 -0.1
v 0.3 2.3 -0.1
v 0.3 2.4 -0.1
v 0.3 3.3 -0.1
v 0.3 3.4 -0.1
v 0.4 1.1 -0.1
v 0.4 1.2 -0.1
v 0.4 2.1 -0.1
v 0.4 2.2 -0.1
v 0.4 2.3 -0.1
v 0.4 2.4 -0.1
v 0.4 3.3 -0.1
v 0.4 3.4 -0.1
v 0.5 2.2 -0.1
v 0.5 2.3 -0.1
v 0.5 3.3 -0.1
v 0.5 3.4 -0.1
v 0.6 1.1 -0.1
v 0.6 1.2 -0.1
v 0.6 2.1 -0.1
v 0.6 2.2 -0.1
v 0.6 2.3 -0.1
v 0.6 2.4 -0.1
v 0.6 3.3 -0.1
v 0.6 3.4 -0.1
v 0.7 1.1 -0.1
v 0.7 1.2 -0.1
v 0.7 2.2 -0.1
v 0.7 2.3 -0.1
v 0.8 2.1 -0.1
v 0.8 2.2 -0.1
v 0.8 2.3 -0.1
v 0.8 2.4 -0.1
v 0.8 3.3 -0.1
v 0.8 3.4 -0.1
v 0.9 1.1 -0.1
v 0.9 1.2 -0.1
v 0.9 2.2 -0.1
v 0.9 2.3 -0.1
v 0.9 3.3 -0.1
v 0.9 3.4 -0.1
v 1 1.1 -0.1
v 1 1.2 -0.1
v 1 1.3 -0.1
v 1 2 -0.1
v 1 2.1 -0.1
v 1 2.2 -0.1
v 1 2.3 -0.1
v 1 2.4 -0.1
v 1 2.5 -0.1
v 1 3.2 -0.1
v 1 3.3 -0.1
v 1 3.4 -0.1
v 1.1 1.3 -0.1
v 1.1 1.4 -0.1
v 1.1 1.5 -0.1
v 1.1 1.6 -0.1
v 1.1 1.8 -0.1
v 1.1 2.1 -0.1
v 1.1 2.2 -0.1
v 1.1 2.3 -0.1
v 1.1 2.5 -0.1
v 1.1 2.6 -0.1
v 1.1 2.7 -0.1
v 1.1 2.8 -0.1
v 1.1 2.9 -0.1
v 1.1 3.1 -0.1
v 1.1 3.2 -0.1
v 1.2 1.1 -0.1
v 1.2 1.2 -0.1
v 1.2 1.3 -0.1
v 1.2 1.4 -0.1
v 1.2 1.5 -0.1
v 1.2 1.6 -0.1
v 1.2 1.8 -0.1
v 1.2 2.1 -0.1
v 1.2 2.2 -0.1
v 1.2 2.3 -0.1
v 1.2 2.5 -0.1
v 1.2 2.6 -0.1
v 1.2 2.7 -0.1
v 1.2 2.8 -0.1
v 1.2 2.9 -0.1
v 1.2 3.1 -0.1
v 1.2 3.2 -0.1
v 1.2 3.3 -0.1
v 1.2 3.4 -0.1
v 0.9 2.2 -0.2
v 0.9 2.3 -0.2
v 1.1 2.2 -0.2
v 1.1 2.3 -0.2
v 0 1.1 0
v 0.1 1.1 0
v 0.4 1.1 0
v 0.6 1.1 0
v 0.7 1.1 0
v 0.9 1.1 0
v 1 1.1 0
v 1.2 1.1 0
v 0 1.1 -0.1
v 0.1 1.1 -0.1
v 0.4 1.1 -0.1
v 0.6 1.1 -0.1
v 0.7 1.1 -0.1
v 0.9 1.1 -0.1
v 1 1.1 -0.1
v 1.2 1.1 -0.1
v 0.9 2.2 0.1
v 1.1 2.2 0.1
v 0.9 2.2 0
v 1 2.2 0
v 1.1 2.2 0
v 0.9 2.2 -0.1
v 1 2.2 -0.1
v 1.1 2.2 -0.1
v 0.9 2.2 -0.2
v 1.1 2.2 -0.2
v 0.9 2.3 0.1
v 1.1 2.3 0.1
v 0.9 2.3 0
v 1 2.3 0
v 1.1 2.3 0
v 0.9 2.3 -0.1
v 1 2.3 -0.1
v 1.1 2.3 -0.1
v 0.9 2.3 -0.2
v 1.1 2.3 -0.2
v 0 3.4 0
v 0.1 3.4 0
v 0.3 3.4 0
v 0.4 3.4 0
v 0.5 3.4 0
v 0.6 3.4 0
v 0.8 3.4 0
v 0.9 3.4 0
v 1 3.4 0
v 1.2 3.4 0
v 0 3.4 -0.1
v 0.1 3.4 -0.1
v 0.3 3.4 -0.1
v 0.4 3.4 -0.1
v 0.5 3.4 -0.1
v 0.6 3.4 -0.1
v 0.8 3.4 -0.1
v 0.9 3.4 -0.1
v 1 3.4 -0.1
v 1.2 3.4 -0.1

# faces
f 3/3/1 2/3/1 1/3/1
f 4/3/1 2/3/1 3/3/1
f 5/4/1 4/4/1 3/4/1
f 6/4/1 4/4/1 5/4/1
f 7/2/1 6/2/1 5/2/1
f 8/2/1 6/2/1 7/2/1
f 9/3/1 8/3/1 7/3/1
f 10/3/1 8/3/1 9/3/1
f 11/4/1 10/4/1 9/4/1
f 12/4/1 10/4/1 11/4/1
f 13/3/1 12/3/1 11/3/1
f 14/3/1 12/3/1 13/3/1
f 15/4/1 14/4/1 13/4/1
f 16/4/1 14/4/1 15/4/1
f 17/2/1 16/2/1 15/2/1
f 18/2/1 16/2/1 17/2/1
f 19/4/1 18/4/1 17/4/1
f 20/4/1 18/4/1 19/4/1
f 21/3/1 20/3/1 19/3/1
f 22/3/1 20/3/1 21/3/1
f 23/2/1 22/2/1 21/2/1
f 24/2/1 22/2/1 23/2/1
f 25/3/1 24/3/1 23/3/1
f 26/3/1 24/3/1 25/3/1
f 27/2/1 26/2/1 25/2/1
f 28/2/1 26/2/1 27/2/1
f 29/3/1 28/3/1 27/3/1
f 30/3/1 28/3/1 29/3/1
f 31/4/1 30/4/1 29/4/1
f 32/4/1 30/4/1 31/4/1
f 33/3/1 32/3/1 31/3/1
f 34/3/1 32/3/1 33/3/1
f 35/2/1 34/2/1 33/2/1
f 36/2/1 34/2/1 35/2/1
f 37/4/1 36/4/1 35/4/1
f 38/4/1 36/4/1 37/4/1
f 43/1/1 40/1/1 39/1/1
f 44/1/1 40/1/1 43/1/1
f 45/1/1 42/1/1 41/1/1
f 46/1/1 42/1/1 45/1/1
f 47/1/2 48/1/2 51/1/2
f 51/1/2 48/1/2 52/1/2
f 49/1/2 50/1/2 53/1/2
f 53/1/2 50/1/2 54/1/2
f 55/3/2 56/3/2 57/3/2
f 57/3/2 56/3/2 58/3/2
f 57/4/2 58/4/2 59/4/2
f 59/4/2 58/4/2 60/4/2
f 59/3/2 60/3/2 61/3/2
f 61/3/2 60/3/2 62/3/2
f 61/2/2 62/2/2 63/2/2
f 63/2/2 62/2/2 64/2/2
f 63/3/2 64/3/2 65/3/2
f 65/3/2 64/3/2 66/3/2
f 65/2/2 66/2/2 67/2/2
f 67/2/2 66/2/2 68/2/2
f 67/3/2 68/3/2 69/3/2
f 69/3/2 68/3/2 70/3/2
f 69/2/2 70/2/2 71/2/2
f 71/2/2 70/2/2 72/2/2
f 71/4/2 72/4/2 73/4/2
f 73/4/2 72/4/2 74/4/2
f 73/2/2 74/2/2 75/2/2
f 75/2/2 74/2/2 76/2/2
f 75/3/2 76/3/2 77/3/2
f 77/3/2 76/3/2 78/3/2
f 77/4/2 78/4/2 79/4/2
f 79/4/2 78/4/2 80/4/2
f 79/3/2 80/3/2 81/3/2
f 81/3/2 80/3/2 82/3/2
f 81/2/2 82/2/2 83/2/2
f 83/2/2 82/2/2 84/2/2
f 83/4/2 84/4/2 85/4/2
f 85/4/2 84/4/2 86/4/2
f 85/2/2 86/2/2 87/2/2
f 87/2/2 86/2/2 88/2/2
f 87/4/2 88/4/2 89/4/2
f 89/4/2 88/4/2 90/4/2
f 89/2/2 90/2/2 91/2/2
f 91/2/2 90/2/2 92/2/2
f 95/1/3 94/1/3 93/1/3
f 96/1/3 94/1/3 95/1/3
f 116/3/3 98/3/3 97/3/3
f 117/3/3 98/3/3 116/3/3
f 118/4/3 99/4/3 98/4/3
f 118/3/3 98/3/3 117/3/3
f 119/2/3 100/2/3 99/2/3
f 119/4/3 99/4/3 118/4/3
f 120/3/3 101/3/3 100/3/3
f 120/2/3 100/2/3 119/2/3
f 121/4/3 102/4/3 101/4/3
f 121/3/3 101/3/3 120/3/3
f 122/3/3 103/3/3 102/3/3
f 122/4/3 102/4/3 121/4/3
f 123/4/3 104/4/3 103/4/3
f 123/3/3 103/3/3 122/3/3
f 124/2/3 105/2/3 104/2/3
f 124/4/3 104/4/3 123/4/3
f 125/4/3 106/4/3 105/4/3
f 125/2/3 105/2/3 124/2/3
f 126/3/3 107/3/3 106/3/3
f 126/4/3 106/4/3 125/4/3
f 127/2/3 108/2/3 107/2/3
f 127/3/3 107/3/3 126/3/3
f 128/3/3 109/3/3 108/3/3
f 128/2/3 108/2/3 127/2/3
f 129/2/3 110/2/3 109/2/3
f 129/3/3 109/3/3 128/3/3
f 130/3/3 111/3/3 110/3/3
f 130/2/3 110/2/3 129/2/3
f 131/4/3 112/4/3 111/4/3
f 131/3/3 111/3/3 130/3/3
f 132/3/3 113/3/3 112/3/3
f 132/4/3 112/4/3 131/4/3
f 133/2/3 114/2/3 113/2/3
f 133/3/3 113/3/3 132/3/3
f 134/4/3 115/4/3 114/4/3
f 134/2/3 114/2/3 133/2/3
f 135/4/3 115/4/3 134/4/3
f 136/4/3 115/4/3 135/4/3
f 137/4/3 118/4/3 117/4/3
f 137/4/3 119/4/3 118/4/3
f 137/4/3 120/4/3 119/4/3
f 137/4/3 121/4/3 120/4/3
f 137/4/3 122/4/3 121/4/3
f 137/4/3 123/4/3 122/4/3
f 137/4/3 124/4/3 123/4/3
f 137/4/3 125/4/3 124/4/3
f 138/4/3 125/4/3 137/4/3
f 139/4/3 125/4/3 138/4/3
f 140/3/3 126/3/3 125/3/3
f 140/4/3 125/4/3 139/4/3
f 141/2/3 127/2/3 126/2/3
f 141/3/3 126/3/3 140/3/3
f 142/4/3 133/4/3 132/4/3
f 142/2/3 127/2/3 141/2/3
f 142/4/3 135/4/3 134/4/3
f 142/4/3 134/4/3 133/4/3
f 142/4/3 132/4/3 131/4/3
f 142/4/3 129/4/3 128/4/3
f 142/4/3 128/4/3 127/4/3
f 142/4/3 131/4/3 130/4/3
f 142/4/3 130/4/3 129/4/3
f 143/4/3 135/4/3 142/4/3
f 144/4/3 135/4/3 143/4/3
f 145/2/3 140/2/3 139/2/3
f 145/4/3 139/4/3 138/4/3
f 146/4/3 141/4/3 140/4/3
f 146/2/3 140/2/3 145/2/3
f 147/3/3 142/3/3 141/3/3
f 147/4/3 141/4/3 146/4/3
f 148/4/3 143/4/3 142/4/3
f 148/3/3 142/3/3 147/3/3
f 149/2/3 136/2/3 135/2/3
f 149/4/3 135/4/3 144/4/3
f 150/2/3 136/2/3 149/2/3
f 151/2/3 117/2/3 116/2/3
f 152/4/3 137/4/3 117/4/3
f 152/2/3 117/2/3 151/2/3
f 153/4/3 145/4/3 138/4/3
f 153/3/3 146/3/3 145/3/3
f 153/3/3 147/3/3 146/3/3
f 154/3/3 147/3/3 153/3/3
f 155/4/3 148/4/3 147/4/3
f 155/3/3 147/3/3 154/3/3
f 156/4/3 143/4/3 148/4/3
f 156/4/3 148/4/3 155/4/3
f 157/3/3 150/3/3 149/3/3
f 157/4/3 149/4/3 144/4/3
f 158/3/3 150/3/3 157/3/3
f 159/3/3 155/3/3 154/3/3
f 159/2/3 154/2/3 153/2/3
f 159/3/3 156/3/3 155/3/3
f 160/3/3 156/3/3 159/3/3
f 161/4/3 158/4/3 157/4/3
f 161/4/3 157/4/3 144/4/3
f 162/4/3 158/4/3 161/4/3
f 163/3/3 152/3/3 151/3/3
f 164/4/3 137/4/3 152/4/3
f 164/3/3 152/3/3 163/3/3
f 165/4/3 153/4/3 138/4/3
f 165/2/3 159/2/3 153/2/3
f 166/4/3 160/4/3 159/4/3
f 166/2/3 159/2/3 165/2/3
f 167/3/3 156/3/3 160/3/3
f 167/4/3 160/4/3 166/4/3
f 168/4/3 143/4/3 156/4/3
f 168/3/3 156/3/3 167/3/3
f 169/4/3 161/4/3 144/4/3
f 169/3/3 162/3/3 161/3/3
f 170/3/3 162/3/3 169/3/3
f 171/2/3 164/2/3 163/2/3
f 172/4/3 137/4/3 164/4/3
f 172/2/3 164/2/3 171/2/3
f 173/3/3 166/3/3 165/3/3
f 173/4/3 167/4/3 166/4/3
f 174/2/3 168/2/3 167/2/3
f 174/4/3 167/4/3 173/4/3
f 175/4/3 165/4/3 138/4/3
f 175/3/3 173/3/3 165/3/3
f 175/3/3 174/3/3 173/3/3
f 176/3/3 174/3/3 175/3/3
f 177/2/3 168/2/3 174/2/3
f 177/3/3 174/3/3 176/3/3
f 178/4/3 143/4/3 168/4/3
f 178/2/3 168/2/3 177/2/3
f 179/4/3 170/4/3 169/4/3
f 179/4/3 169/4/3 144/4/3
f 180/4/3 170/4/3 179/4/3
f 181/3/3 172/3/3 171/3/3
f 182/4/3 137/4/3 172/4/3
f 182/3/3 172/3/3 181/3/3
f 183/4/3 176/4/3 175/4/3
f 183/3/3 177/3/3 176/3/3
f 183/3/3 178/3/3 177/3/3
f 184/3/3 178/3/3 183/3/3
f 185/2/3 180/2/3 179/2/3
f 185/4/3 179/4/3 144/4/3
f 186/2/3 180/2/3 185/2/3
f 187/2/3 182/2/3 181/2/3
f 188/4/3 137/4/3 182/4/3
f 188/2/3 182/2/3 187/2/3
f 189/3/3 138/3/3 137/3/3
f 189/4/3 137/4/3 188/4/3
f 190/4/3 175/4/3 138/4/3
f 190/3/3 138/3/3 189/3/3
f 190/4/3 183/4/3 175/4/3
f 191/4/3 183/4/3 190/4/3
f 192/4/3 183/4/3 191/4/3
f 193/3/3 178/3/3 184/3/3
f 194/4/3 143/4/3 178/4/3
f 194/3/3 178/3/3 193/3/3
f 195/3/3 144/3/3 143/3/3
f 195/4/3 143/4/3 194/4/3
f 196/4/3 185/4/3 144/4/3
f 196/3/3 144/3/3 195/3/3
f 197/3/3 186/3/3 185/3/3
f 197/4/3 185/4/3 196/4/3
f 198/3/3 186/3/3 197/3/3
f 199/4/3 189/4/3 188/4/3
f 199/4/3 190/4/3 189/4/3
f 199/4/3 191/4/3 190/4/3
f 200/4/3 191/4/3 199/4/3
f 201/4/3 191/4/3 200/4/3
f 202/4/3 191/4/3 201/4/3
f 203/4/3 191/4/3 202/4/3
f 204/3/3 192/3/3 191/3/3
f 204/4/3 191/4/3 203/4/3
f 205/3/3 192/3/3 204/3/3
f 206/4/3 194/4/3 193/4/3
f 206/4/3 196/4/3 195/4/3
f 206/4/3 195/4/3 194/4/3
f 206/4/3 197/4/3 196/4/3
f 207/4/3 197/4/3 206/4/3
f 208/4/3 197/4/3 207/4/3
f 209/4/3 197/4/3 208/4/3
f 210/4/3 197/4/3 209/4/3
f 211/4/3 197/4/3 210/4/3
f 212/4/3 197/4/3 211/4/3
f 213/4/3 197/4/3 212/4/3
f 214/3/3 188/3/3 187/3/3
f 215/4/3 199/4/3 188/4/3
f 215/3/3 188/3/3 214/3/3
f 216/3/3 200/3/3 199/3/3
f 216/4/3 199/4/3 215/4/3
f 217/2/3 201/2/3 200/2/3
f 217/3/3 200/3/3 216/3/3
f 218/3/3 202/3/3 201/3/3
f 218/2/3 201/2/3 217/2/3
f 219/2/3 203/2/3 202/2/3
f 219/3/3 202/3/3 218/3/3
f 220/3/3 204/3/3 203/3/3
f 220/2/3 203/2/3 219/2/3
f 221/2/3 205/2/3 204/2/3
f 221/3/3 204/3/3 220/3/3
f 222/4/3 206/4/3 205/4/3
f 222/2/3 205/2/3 221/2/3
f 223/2/3 207/2/3 206/2/3
f 223/4/3 206/4/3 222/4/3
f 224/3/3 208/3/3 207/3/3
f 224/2/3 207/2/3 223/2/3
f 225/4/3 209/4/3 208/4/3
f 225/3/3 208/3/3 224/3/3
f 226/3/3 210/3/3 209/3/3
f 226/4/3 209/4/3 225/4/3
f 227/2/3 211/2/3 210/2/3
f 227/3/3 210/3/3 226/3/3
f 228/4/3 212/4/3 211/4/3
f 228/2/3 211/2/3 227/2/3
f 229/2/3 213/2/3 212/2/3
f 229/4/3 212/4/3 228/4/3
f 230/4/3 197/4/3 213/4/3
f 230/2/3 213/2/3 229/2/3
f 231/2/3 198/2/3 197/2/3
f 231/4/3 197/4/3 230/4/3
f 232/2/3 198/2/3 231/2/3
f 233/3/4 234/3/4 252/3/4
f 252/3/4 234/3/4 253/3/4
f 234/4/4 235/4/4 254/4/4
f 253/3/4 234/3/4 254/3/4
f 235/2/4 236/2/4 255/2/4
f 254/4/4 235/4/4 255/4/4
f 236/3/4 237/3/4 256/3/4
f 255/2/4 236/2/4 256/2/4
f 237/4/4 238/4/4 257/4/4
f 256/3/4 237/3/4 257/3/4
f 238/3/4 239/3/4 258/3/4
f 257/4/4 238/4/4 258/4/4
f 239/4/4 240/4/4 259/4/4
f 258/3/4 239/3/4 259/3/4
f 240/2/4 241/2/4 260/2/4
f 259/4/4 240/4/4 260/4/4
f 241/4/4 242/4/4 261/4/4
f 260/2/4 241/2/4 261/2/4
f 242/3/4 243/3/4 262/3/4
f 261/4/4 242/4/4 262/4/4
f 243/2/4 244/2/4 263/2/4
f 262/3/4 243/3/4 263/3/4
f 244/3/4 245/3/4 264/3/4
f 263/2/4 244/2/4 264/2/4
f 245/2/4 246/2/4 265/2/4
f 264/3/4 245/3/4 265/3/4
f 246/3/4 247/3/4 266/3/4
f 265/2/4 246/2/4 266/2/4
f 247/4/4 248/4/4 267/4/4
f 266/3/4 247/3/4 267/3/4
f 248/3/4 249/3/4 268/3/4
f 267/4/4 248/4/4 268/4/4
f 249/2/4 250/2/4 269/2/4
f 268/3/4 249/3/4 269/3/4
f 250/4/4 251/4/4 270/4/4
f 269/2/4 250/2/4 270/2/4
f 270/4/4 251/4/4 271/4/4
f 271/4/4 251/4/4 272/4/4
f 253/4/4 254/4/4 273/4/4
f 254/4/4 255/4/4 273/4/4
f 255/4/4 256/4/4 273/4/4
f 256/4/4 257/4/4 273/4/4
f 257/4/4 258/4/4 273/4/4
f 258/4/4 259/4/4 273/4/4
f 259/4/4 260/4/4 273/4/4
f 260/4/4 261/4/4 273/4/4
f 273/4/4 261/4/4 274/4/4
f 274/4/4 261/4/4 275/4/4
f 261/3/4 262/3/4 276/3/4
f 275/4/4 261/4/4 276/4/4
f 262/2/4 263/2/4 277/2/4
f 276/3/4 262/3/4 277/3/4
f 268/4/4 269/4/4 278/4/4
f 277/2/4 263/2/4 278/2/4
f 270/4/4 271/4/4 278/4/4
f 269/4/4 270/4/4 278/4/4
f 267/4/4 268/4/4 278/4/4
f 264/4/4 265/4/4 278/4/4
f 263/4/4 264/4/4 278/4/4
f 266/4/4 267/4/4 278/4/4
f 265/4/4 266/4/4 278/4/4
f 278/4/4 271/4/4 279/4/4
f 279/4/4 271/4/4 280/4/4
f 275/2/4 276/2/4 281/2/4
f 274/4/4 275/4/4 281/4/4
f 276/4/4 277/4/4 282/4/4
f 281/2/4 276/2/4 282/2/4
f 277/3/4 278/3/4 283/3/4
f 282/4/4 277/4/4 283/4/4
f 278/4/4 279/4/4 284/4/4
f 283/3/4 278/3/4 284/3/4
f 271/2/4 272/2/4 285/2/4
f 280/4/4 271/4/4 285/4/4
f 285/2/4 272/2/4 286/2/4
f 252/2/4 253/2/4 287/2/4
f 253/4/4 273/4/4 288/4/4
f 287/2/4 253/2/4 288/2/4
f 274/4/4 281/4/4 289/4/4
f 281/3/4 282/3/4 289/3/4
f 282/3/4 283/3/4 289/3/4
f 289/3/4 283/3/4 290/3/4
f 283/4/4 284/4/4 291/4/4
f 290/3/4 283/3/4 291/3/4
f 284/4/4 279/4/4 292/4/4
f 291/4/4 284/4/4 292/4/4
f 285/3/4 286/3/4 293/3/4
f 280/4/4 285/4/4 293/4/4
f 293/3/4 286/3/4 294/3/4
f 290/3/4 291/3/4 295/3/4
f 289/2/4 290/2/4 295/2/4
f 291/3/4 292/3/4 295/3/4
f 295/3/4 292/3/4 296/3/4
f 293/4/4 294/4/4 297/4/4
f 280/4/4 293/4/4 297/4/4
f 297/4/4 294/4/4 298/4/4
f 287/3/4 288/3/4 299/3/4
f 288/4/4 273/4/4 300/4/4
f 299/3/4 288/3/4 300/3/4
f 274/4/4 289/4/4 301/4/4
f 289/2/4 295/2/4 301/2/4
f 295/4/4 296/4/4 302/4/4
f 301/2/4 295/2/4 302/2/4
f 296/3/4 292/3/4 303/3/4
f 302/4/4 296/4/4 303/4/4
f 292/4/4 279/4/4 304/4/4
f 303/3/4 292/3/4 304/3/4
f 280/4/4 297/4/4 305/4/4
f 297/3/4 298/3/4 305/3/4
f 305/3/4 298/3/4 306/3/4
f 299/2/4 300/2/4 307/2/4
f 300/4/4 273/4/4 308/4/4
f 307/2/4 300/2/4 308/2/4
f 301/3/4 302/3/4 309/3/4
f 302/4/4 303/4/4 309/4/4
f 303/2/4 304/2/4 310/2/4
f 309/4/4 303/4/4 310/4/4
f 274/4/4 301/4/4 311/4/4
f 301/3/4 309/3/4 311/3/4
f 309/3/4 310/3/4 311/3/4
f 311/3/4 310/3/4 312/3/4
f 310/2/4 304/2/4 313/2/4
f 312/3/4 310/3/4 313/3/4
f 304/4/4 279/4/4 314/4/4
f 313/2/4 304/2/4 314/2/4
f 305/4/4 306/4/4 315/4/4
f 280/4/4 305/4/4 315/4/4
f 315/4/4 306/4/4 316/4/4
f 307/3/4 308/3/4 317/3/4
f 308/4/4 273/4/4 318/4/4
f 317/3/4 308/3/4 318/3/4
f 311/4/4 312/4/4 319/4/4
f 312/3/4 313/3/4 319/3/4
f 313/3/4 314/3/4 319/3/4
f 319/3/4 314/3/4 320/3/4
f 315/2/4 316/2/4 321/2/4
f 280/4/4 315/4/4 321/4/4
f 321/2/4 316/2/4 322/2/4
f 317/2/4 318/2/4 323/2/4
f 318/4/4 273/4/4 324/4/4
f 323/2/4 318/2/4 324/2/4
f 273/3/4 274/3/4 325/3/4
f 324/4/4 273/4/4 325/4/4
f 274/4/4 311/4/4 326/4/4
f 325/3/4 274/3/4 326/3/4
f 311/4/4 319/4/4 326/4/4
f 326/4/4 319/4/4 327/4/4
f 327/4/4 319/4/4 328/4/4
f 320/3/4 314/3/4 329/3/4
f 314/4/4 279/4/4 330/4/4
f 329/3/4 314/3/4 330/3/4
f 279/3/4 280/3/4 331/3/4
f 330/4/4 279/4/4 331/4/4
f 280/4/4 321/4/4 332/4/4
f 331/3/4 280/3/4 332/3/4
f 321/3/4 322/3/4 333/3/4
f 332/4/4 321/4/4 333/4/4
f 333/3/4 322/3/4 334/3/4
f 324/4/4 325/4/4 335/4/4
f 325/4/4 326/4/4 335/4/4
f 326/4/4 327/4/4 335/4/4
f 335/4/4 327/4/4 336/4/4
f 336/4/4 327/4/4 337/4/4
f 337/4/4 327/4/4 338/4/4
f 338/4/4 327/4/4 339/4/4
f 327/3/4 328/3/4 340/3/4
f 339/4/4 327/4/4 340/4/4
f 340/3/4 328/3/4 341/3/4
f 329/4/4 330/4/4 342/4/4
f 331/4/4 332/4/4 342/4/4
f 330/4/4 331/4/4 342/4/4
f 332/4/4 333/4/4 342/4/4
f 342/4/4 333/4/4 343/4/4
f 343/4/4 333/4/4 344/4/4
f 344/4/4 333/4/4 345/4/4
f 345/4/4 333/4/4 346/4/4
f 346/4/4 333/4/4 347/4/4
f 347/4/4 333/4/4 348/4/4
f 348/4/4 333/4/4 349/4/4
f 323/3/4 324/3/4 350/3/4
f 324/4/4 335/4/4 351/4/4
f 350/3/4 324/3/4 351/3/4
f 335/3/4 336/3/4 352/3/4
f 351/4/4 335/4/4 352/4/4
f 336/2/4 337/2/4 353/2/4
f 352/3/4 336/3/4 353/3/4
f 337/3/4 338/3/4 354/3/4
f 353/2/4 337/2/4 354/2/4
f 338/2/4 339/2/4 355/2/4
f 354/3/4 338/3/4 355/3/4
f 339/3/4 340/3/4 356/3/4
f 355/2/4 339/2/4 356/2/4
f 340/2/4 341/2/4 357/2/4
f 356/3/4 340/3/4 357/3/4
f 341/4/4 342/4/4 358/4/4
f 357/2/4 341/2/4 358/2/4
f 342/2/4 343/2/4 359/2/4
f 358/4/4 342/4/4 359/4/4
f 343/3/4 344/3/4 360/3/4
f 359/2/4 343/2/4 360/2/4
f 344/4/4 345/4/4 361/4/4
f 360/3/4 344/3/4 361/3/4
f 345/3/4 346/3/4 362/3/4
f 361/4/4 345/4/4 362/4/4
f 346/2/4 347/2/4 363/2/4
f 362/3/4 346/3/4 363/3/4
f 347/4/4 348/4/4 364/4/4
f 363/2/4 347/2/4 364/2/4
f 348/2/4 349/2/4 365/2/4
f 364/4/4 348/4/4 365/4/4
f 349/4/4 333/4/4 366/4/4
f 365/2/4 349/2/4 366/2/4
f 333/2/4 334/2/4 367/2/4
f 366/4/4 333/4/4 367/4/4
f 367/2/4 334/2/4 368/2/4
f 369/1/4 370/1/4 371/1/4
f 371/1/4 370/1/4 372/1/4
f 381/3/5 374/3/5 373/3/5
f 382/2/5 375/2/5 374/2/5
f 382/3/5 374/3/5 381/3/5
f 383/3/5 376/3/5 375/3/5
f 383/2/5 375/2/5 382/2/5
f 384/2/5 377/2/5 376/2/5
f 384/3/5 376/3/5 383/3/5
f 385/3/5 378/3/5 377/3/5
f 385/2/5 377/2/5 384/2/5
f 386/2/5 379/2/5 378/2/5
f 386/3/5 378/3/5 385/3/5
f 387/3/5 380/3/5 379/3/5
f 387/2/5 379/2/5 386/2/5
f 388/3/5 380/3/5 387/3/5
f 391/1/5 390/1/5 389/1/5
f 392/1/5 390/1/5 391/1/5
f 393/1/5 390/1/5 392/1/5
f 397/1/5 395/1/5 394/1/5
f 397/1/5 396/1/5 395/1/5
f 398/1/5 396/1/5 397/1/5
f 399/1/6 400/1/6 401/1/6
f 401/1/6 400/1/6 402/1/6
f 402/1/6 400/1/6 403/1/6
f 404/1/6 405/1/6 407/1/6
f 405/1/6 406/1/6 407/1/6
f 407/1/6 406/1/6 408/1/6
f 409/4/6 410/4/6 419/4/6
f 410/2/6 411/2/6 420/2/6
f 419/4/6 410/4/6 420/4/6
f 411/3/6 412/3/6 421/3/6
f 420/2/6 411/2/6 421/2/6
f 412/4/6 413/4/6 422/4/6
f 421/3/6 412/3/6 422/3/6
f 413/3/6 414/3/6 423/3/6
f 422/4/6 413/4/6 423/4/6
f 414/4/6 415/4/6 424/4/6
f 423/3/6 414/3/6 424/3/6
f 415/2/6 416/2/6 425/2/6
f 424/4/6 415/4/6 425/4/6
f 416/3/6 417/3/6 426/3/6
f 425/2/6 416/2/6 426/2/6
f 417/2/6 418/2/6 427/2/6
f 426/3/6 417/3/6 427/3/6
f 427/2/6 418/2/6 428/2/6
