# MagicaVoxel @ Ephtracy

# group
o 

# material
mtllib untitled.mtl
usemtl palette

# normals
vn -1 0 0
vn 1 0 0
vn 0 0 1
vn 0 0 -1
vn 0 -1 0
vn 0 1 0

# texcoords
vt 0.271484 0.5
vt 0.275391 0.5
vt 0.322266 0.5
vt 0.337891 0.5
vt 0.365234 0.5
vt 0.380859 0.5
vt 0.384766 0.5
vt 0.529297 0.5
vt 0.533203 0.5
vt 0.603516 0.5
vt 0.654297 0.5
vt 0.763672 0.5
vt 0.994141 0.5

# verts
v 0.9 4.3 -1.9
v 0.9 4.3 -2
v 0.9 4.4 -1.9
v 0.9 4.4 -2
v 0.9 4.6 -2
v 0.9 4.6 -2.1
v 0.9 4.7 -2
v 0.9 4.7 -2.1
v 1 4.3 -1.8
v 1 4.3 -1.9
v 1 4.3 -2
v 1 4.3 -2.1
v 1 4.4 -1.9
v 1 4.4 -2
v 1 4.6 -2
v 1 4.6 -2.1
v 1 4.7 -2
v 1 4.7 -2.1
v 1 4.8 -1.7
v 1 4.8 -1.8
v 1 4.9 -1.7
v 1 4.9 -1.8
v 1 5 -1.8
v 1 5 -1.9
v 1 5 -2
v 1 5 -2.1
v 1 5.1 -1.9
v 1 5.1 -2
v 1.1 4.1 -2
v 1.1 4.1 -2.1
v 1.1 4.2 -1.8
v 1.1 4.2 -2
v 1.1 4.2 -2.1
v 1.1 4.3 -1.8
v 1.1 4.3 -2.1
v 1.1 4.5 -1.7
v 1.1 4.5 -1.8
v 1.1 4.6 -1.7
v 1.1 4.6 -1.8
v 1.1 4.8 -2.1
v 1.1 4.8 -2.2
v 1.1 4.9 -2.1
v 1.1 4.9 -2.2
v 1.1 5 -1.8
v 1.1 5 -1.9
v 1.1 5 -2
v 1.1 5 -2.1
v 1.1 5.1 -1.8
v 1.1 5.1 -1.9
v 1.1 5.1 -2
v 1.1 5.1 -2.1
v 1.1 5.2 -1.9
v 1.1 5.2 -2
v 1.3 2.2 -1.5
v 1.3 2.2 -1.8
v 1.3 2.2 -2.1
v 1.3 2.2 -2.4
v 1.3 2.3 -1.6
v 1.3 2.3 -1.7
v 1.3 2.3 -2.2
v 1.3 2.3 -2.3
v 1.3 2.4 -1.6
v 1.3 2.4 -1.7
v 1.3 2.4 -2.2
v 1.3 2.4 -2.3
v 1.3 2.5 -1.5
v 1.3 2.5 -1.8
v 1.3 2.5 -2.1
v 1.3 2.5 -2.4
v 1.3 4.4 -1.7
v 1.3 4.4 -1.8
v 1.3 4.4 -2.1
v 1.3 4.4 -2.2
v 1.3 4.5 -1.7
v 1.3 4.5 -1.8
v 1.3 4.5 -2.1
v 1.3 4.5 -2.2
v 1.4 4.1 -1.9
v 1.4 4.1 -2
v 1.4 4.2 -1.9
v 1.4 4.2 -2
v 1.5 3.2 -1.4
v 1.5 3.2 -2.5
v 1.5 3.4 -1.4
v 1.5 3.4 -2.5
v 1.5 3.5 -1.4
v 1.5 3.5 -2.5
v 1.6 2.3 -1.5
v 1.6 2.3 -1.6
v 1.6 2.3 -1.7
v 1.6 2.3 -2.2
v 1.6 2.3 -2.3
v 1.6 2.3 -2.4
v 1.6 2.4 -1.5
v 1.6 2.4 -1.6
v 1.6 2.4 -1.7
v 1.6 2.4 -2.2
v 1.6 2.4 -2.3
v 1.6 2.4 -2.4
v 1.6 2.5 -1.5
v 1.6 2.5 -2.4
v 1.6 2.7 -1.5
v 1.6 2.7 -2.4
v 1.6 2.8 -1.5
v 1.6 2.8 -2.4
v 1.6 3 -1.5
v 1.6 3 -2.4
v 1.6 3.1 -1.5
v 1.6 3.1 -2.4
v 1.6 3.2 -1.5
v 1.6 3.2 -2.4
v 1.6 3.6 -2.2
v 1.6 3.6 -2.3
v 1.6 3.7 -2.2
v 1.6 3.7 -2.3
v 1.6 3.8 -1.8
v 1.6 3.8 -1.9
v 1.6 3.9 -1.8
v 1.6 3.9 -1.9
v 1.6 4.5 -1.9
v 1.6 4.5 -2
v 1.6 4.6 -1.9
v 1.6 4.6 -2
v 1.6 4.7 -1.5
v 1.6 4.7 -1.7
v 1.6 4.8 -1.8
v 1.6 4.8 -1.9
v 1.6 4.9 -1.8
v 1.6 4.9 -1.9
v 1.6 5 -1.5
v 1.6 5 -1.7
v 1.6 5 -2.1
v 1.6 5 -2.2
v 1.6 5.1 -1.9
v 1.6 5.1 -2
v 1.6 5.1 -2.1
v 1.6 5.1 -2.2
v 1.6 5.2 -1.6
v 1.6 5.2 -1.8
v 1.6 5.2 -1.9
v 1.6 5.2 -2
v 1.6 5.2 -2.2
v 1.6 5.2 -2.3
v 1.6 5.3 -1.6
v 1.6 5.3 -1.8
v 1.6 5.3 -1.9
v 1.6 5.3 -2
v 1.6 5.3 -2.1
v 1.6 5.3 -2.2
v 1.6 5.3 -2.3
v 1.6 5.4 -1.8
v 1.6 5.4 -1.9
v 1.6 5.4 -2
v 1.6 5.4 -2.1
v 1.7 3.4 -1.7
v 1.7 3.4 -2.2
v 1.7 3.5 -1.6
v 1.7 3.5 -1.7
v 1.7 3.5 -2.2
v 1.7 3.5 -2.3
v 1.7 3.6 -2.2
v 1.7 3.6 -2.3
v 1.7 3.7 -2.2
v 1.7 3.7 -2.3
v 1.7 3.8 -1.5
v 1.7 3.8 -1.6
v 1.7 3.8 -1.8
v 1.7 3.8 -1.9
v 1.7 3.9 -1.5
v 1.7 3.9 -1.6
v 1.7 3.9 -1.8
v 1.7 3.9 -1.9
v 1.7 4.2 -1.6
v 1.7 4.2 -1.8
v 1.7 4.2 -2.1
v 1.7 4.2 -2.3
v 1.7 4.5 -1.8
v 1.7 4.5 -1.9
v 1.7 4.5 -2
v 1.7 4.5 -2.1
v 1.7 4.6 -1.9
v 1.7 4.6 -2
v 1.7 4.6 -2.3
v 1.7 4.6 -2.4
v 1.7 4.7 -1.6
v 1.7 4.7 -1.7
v 1.7 4.7 -2.3
v 1.7 4.7 -2.4
v 1.7 4.8 -1.8
v 1.7 4.8 -1.9
v 1.7 4.9 -1.8
v 1.7 4.9 -1.9
v 1.7 5 -1.6
v 1.7 5 -1.7
v 1.7 5 -2.1
v 1.7 5 -2.2
v 1.7 5.1 -1.6
v 1.7 5.1 -1.7
v 1.7 5.1 -1.9
v 1.7 5.1 -2
v 1.7 5.1 -2.1
v 1.7 5.1 -2.2
v 1.7 5.1 -2.3
v 1.7 5.2 -1.5
v 1.7 5.2 -1.6
v 1.7 5.2 -1.7
v 1.7 5.2 -1.8
v 1.7 5.2 -1.9
v 1.7 5.2 -2
v 1.7 5.2 -2.1
v 1.7 5.2 -2.2
v 1.7 5.3 -1.6
v 1.7 5.3 -1.8
v 1.7 5.3 -1.9
v 1.7 5.3 -2
v 1.7 5.3 -2.1
v 1.7 5.3 -2.2
v 1.7 5.3 -2.3
v 1.7 5.4 -1.5
v 1.7 5.4 -1.6
v 1.7 5.4 -1.7
v 1.7 5.4 -1.8
v 1.7 5.4 -1.9
v 1.7 5.4 -2
v 1.7 5.4 -2.1
v 1.7 5.4 -2.3
v 1.7 5.5 -1.6
v 1.7 5.5 -1.7
v 1.8 3.4 -1.6
v 1.8 3.4 -1.7
v 1.8 3.4 -2.2
v 1.8 3.4 -2.3
v 1.8 3.5 -1.6
v 1.8 3.5 -1.7
v 1.8 3.5 -2.2
v 1.8 3.5 -2.3
v 1.8 3.5 -2.4
v 1.8 3.6 -2.3
v 1.8 3.6 -2.4
v 1.8 4 -2.3
v 1.8 4 -2.4
v 1.8 4.1 -2.3
v 1.8 4.1 -2.4
v 1.8 4.3 -1.5
v 1.8 4.3 -1.6
v 1.8 4.3 -2.3
v 1.8 4.3 -2.4
v 1.8 4.4 -1.5
v 1.8 4.4 -1.6
v 1.8 4.4 -2.3
v 1.8 4.4 -2.4
v 1.8 5.1 -1.6
v 1.8 5.1 -1.7
v 1.8 5.1 -2.2
v 1.8 5.1 -2.3
v 1.8 5.2 -1.6
v 1.8 5.2 -1.7
v 1.8 5.2 -2.2
v 1.8 5.2 -2.3
v 1.8 5.2 -2.4
v 1.8 5.3 -2.3
v 1.8 5.3 -2.4
v 1.8 5.4 -1.7
v 1.8 5.4 -1.8
v 1.8 5.4 -1.9
v 1.8 5.4 -2
v 1.8 5.4 -2.1
v 1.8 5.4 -2.2
v 1.8 5.5 -1.7
v 1.8 5.5 -1.8
v 1.8 5.5 -1.9
v 1.8 5.5 -2
v 1.8 5.5 -2.1
v 1.8 5.5 -2.2
v 1.9 3.6 -1.5
v 1.9 3.6 -1.6
v 1.9 3.7 -1.5
v 1.9 3.7 -1.6
v 1.9 4.2 -1.5
v 1.9 4.2 -1.6
v 1.9 4.3 -1.5
v 1.9 4.3 -1.6
v 1.9 4.5 -1.5
v 1.9 4.5 -1.6
v 1.9 4.6 -1.5
v 1.9 4.6 -1.6
v 1.9 5 -2.3
v 1.9 5 -2.4
v 1.9 5.1 -2.3
v 1.9 5.1 -2.4
v 1.9 5.2 -1.5
v 1.9 5.2 -1.6
v 1.9 5.3 -1.5
v 1.9 5.3 -1.6
v 1.9 5.4 -2
v 1.9 5.4 -2.1
v 1.9 5.5 -2
v 1.9 5.5 -2.1
v 2 5.4 -1.6
v 2 5.4 -1.7
v 2 5.5 -1.6
v 2 5.5 -1.7
v 2.1 3.5 -1.5
v 2.1 3.5 -1.6
v 2.1 3.6 -1.5
v 2.1 3.6 -1.6
v 2.1 3.8 -2.3
v 2.1 3.8 -2.4
v 2.1 3.9 -2.3
v 2.1 3.9 -2.4
v 2.1 4.5 -2.3
v 2.1 4.5 -2.4
v 2.1 4.6 -2.3
v 2.1 4.6 -2.4
v 2.1 4.8 -2.3
v 2.1 4.8 -2.4
v 2.1 4.9 -2.3
v 2.1 4.9 -2.4
v 2.1 5 -1.5
v 2.1 5 -1.6
v 2.1 5.1 -1.5
v 2.1 5.1 -1.6
v 2.1 5.3 -1.5
v 2.1 5.3 -1.6
v 2.1 5.3 -2.3
v 2.1 5.3 -2.4
v 2.1 5.4 -1.5
v 2.1 5.4 -1.6
v 2.1 5.4 -1.7
v 2.1 5.4 -1.8
v 2.1 5.4 -2.1
v 2.1 5.4 -2.2
v 2.1 5.4 -2.3
v 2.1 5.4 -2.4
v 2.1 5.5 -1.7
v 2.1 5.5 -1.8
v 2.1 5.5 -2.1
v 2.1 5.5 -2.2
v 2.2 3.6 -2.3
v 2.2 3.6 -2.4
v 2.2 3.7 -2.3
v 2.2 3.7 -2.4
v 2.2 3.9 -1.5
v 2.2 3.9 -1.6
v 2.2 4 -1.5
v 2.2 4 -1.6
v 2.2 4.2 -2.3
v 2.2 4.2 -2.4
v 2.2 4.3 -1.5
v 2.2 4.3 -1.6
v 2.2 4.3 -2.3
v 2.2 4.3 -2.4
v 2.2 4.4 -1.5
v 2.2 4.4 -1.6
v 2.2 4.7 -1.5
v 2.2 4.7 -1.6
v 2.2 5 -1.5
v 2.2 5 -1.6
v 2.2 5.2 -2.3
v 2.2 5.2 -2.4
v 2.2 5.3 -2.3
v 2.2 5.3 -2.4
v 2.2 5.4 -1.6
v 2.2 5.4 -1.7
v 2.2 5.4 -2
v 2.2 5.4 -2.1
v 2.2 5.5 -1.6
v 2.2 5.5 -1.7
v 2.2 5.5 -2
v 2.2 5.5 -2.1
v 2.3 5 -2.3
v 2.3 5 -2.4
v 2.3 5.1 -2.3
v 2.3 5.1 -2.4
v 2.3 5.2 -1.5
v 2.3 5.2 -1.6
v 2.3 5.3 -1.5
v 2.3 5.3 -1.6
v 2.3 5.3 -2.3
v 2.3 5.3 -2.4
v 2.3 5.4 -1.5
v 2.3 5.4 -1.6
v 2.3 5.4 -1.8
v 2.3 5.4 -1.9
v 2.3 5.4 -2.3
v 2.3 5.4 -2.4
v 2.3 5.5 -1.5
v 2.3 5.5 -1.6
v 2.3 5.5 -1.8
v 2.3 5.5 -1.9
v 2.4 5.4 -2
v 2.4 5.4 -2.1
v 2.4 5.5 -2
v 2.4 5.5 -2.1
v 2.5 3.4 -1.5
v 2.5 3.4 -2.4
v 2.5 3.5 -1.5
v 2.5 3.5 -2.4
v 2.5 3.7 -2.1
v 2.5 3.7 -2.2
v 2.5 3.8 -2.1
v 2.5 3.8 -2.2
v 2.6 2.2 -1.5
v 2.6 2.2 -1.8
v 2.6 2.2 -2.1
v 2.6 2.2 -2.4
v 2.6 2.3 -1.6
v 2.6 2.3 -1.7
v 2.6 2.3 -2.2
v 2.6 2.3 -2.3
v 2.6 2.4 -1.6
v 2.6 2.4 -1.7
v 2.6 2.4 -2.2
v 2.6 2.4 -2.3
v 2.6 2.5 -1.5
v 2.6 2.5 -1.8
v 2.6 2.5 -2.1
v 2.6 2.5 -2.4
v 2.6 3.7 -1.7
v 2.6 3.7 -1.8
v 2.6 3.8 -1.7
v 2.6 3.8 -1.8
v 2.7 4 -1.8
v 2.7 4 -2.1
v 2.7 4.1 -1.8
v 2.7 4.1 -2.1
v 2.8 3.6 -2
v 2.8 3.6 -2.1
v 2.8 3.7 -2
v 2.8 3.7 -2.1
v 2.8 4.1 -1.8
v 2.8 4.1 -2.1
v 2.8 4.5 -1.8
v 2.8 4.5 -1.9
v 2.8 4.5 -2
v 2.8 4.5 -2.1
v 2.8 4.6 -1.9
v 2.8 4.6 -2
v 2.9 4.2 -1.7
v 2.9 4.2 -1.8
v 2.9 4.3 -1.7
v 2.9 4.3 -1.8
v 2.9 4.5 -1.8
v 2.9 4.5 -1.9
v 2.9 4.5 -2
v 2.9 4.5 -2.1
v 2.9 4.6 -1.8
v 2.9 4.6 -1.9
v 2.9 4.6 -2
v 2.9 4.6 -2.1
v 2.9 4.7 -1.9
v 2.9 4.7 -2
v 1.1 4.8 -1.7
v 1.1 4.8 -1.8
v 1.1 4.9 -1.7
v 1.1 4.9 -1.8
v 1.2 4.1 -2
v 1.2 4.1 -2.1
v 1.2 4.2 -2
v 1.2 4.2 -2.1
v 1.2 4.5 -1.7
v 1.2 4.5 -1.8
v 1.2 4.6 -1.7
v 1.2 4.6 -1.8
v 1.2 4.8 -2.1
v 1.2 4.8 -2.2
v 1.2 4.9 -2.1
v 1.2 4.9 -2.2
v 1.2 5 -1.8
v 1.2 5 -1.9
v 1.2 5 -2
v 1.2 5 -2.1
v 1.2 5.1 -1.8
v 1.2 5.1 -1.9
v 1.2 5.1 -2
v 1.2 5.1 -2.1
v 1.2 5.2 -1.9
v 1.2 5.2 -2
v 1.3 4.6 -1.8
v 1.3 4.6 -2.1
v 1.3 4.7 -1.9
v 1.3 4.7 -2
v 1.3 4.8 -1.9
v 1.3 4.8 -2
v 1.3 5 -1.8
v 1.3 5 -1.9
v 1.3 5 -2
v 1.3 5 -2.1
v 1.3 5.1 -1.9
v 1.3 5.1 -2
v 1.4 4.4 -1.7
v 1.4 4.4 -1.8
v 1.4 4.4 -2.1
v 1.4 4.4 -2.2
v 1.4 4.5 -1.7
v 1.4 4.5 -1.8
v 1.4 4.5 -2.1
v 1.4 4.5 -2.2
v 1.4 4.6 -1.8
v 1.4 4.6 -2.1
v 1.4 4.7 -1.9
v 1.4 4.7 -2
v 1.4 4.8 -1.9
v 1.4 4.8 -2
v 1.5 2.2 -1.5
v 1.5 2.2 -1.8
v 1.5 2.2 -2.1
v 1.5 2.2 -2.4
v 1.5 2.3 -1.6
v 1.5 2.3 -1.7
v 1.5 2.3 -2.2
v 1.5 2.3 -2.3
v 1.5 2.4 -1.6
v 1.5 2.4 -1.7
v 1.5 2.4 -2.2
v 1.5 2.4 -2.3
v 1.5 2.5 -1.5
v 1.5 2.5 -1.8
v 1.5 2.5 -2.1
v 1.5 2.5 -2.4
v 1.5 4.1 -1.9
v 1.5 4.1 -2
v 1.5 4.2 -1.9
v 1.5 4.2 -2
v 1.6 3.4 -1.5
v 1.6 3.4 -2.4
v 1.6 3.5 -1.5
v 1.6 3.5 -2.4
v 1.8 3.8 -1.5
v 1.8 3.8 -1.6
v 1.8 3.9 -1.5
v 1.8 3.9 -1.6
v 1.8 4.6 -2.3
v 1.8 4.6 -2.4
v 1.8 4.7 -2.3
v 1.8 4.7 -2.4
v 1.8 5.2 -1.5
v 1.8 5.2 -1.6
v 1.8 5.3 -1.5
v 1.8 5.3 -1.6
v 1.8 5.4 -1.6
v 1.8 5.4 -1.7
v 1.8 5.5 -1.6
v 1.8 5.5 -1.7
v 1.9 3.5 -2.3
v 1.9 3.5 -2.4
v 1.9 3.6 -2.3
v 1.9 3.6 -2.4
v 1.9 4 -2.3
v 1.9 4 -2.4
v 1.9 4.1 -2.3
v 1.9 4.1 -2.4
v 1.9 4.3 -1.5
v 1.9 4.3 -1.6
v 1.9 4.3 -2.3
v 1.9 4.3 -2.4
v 1.9 4.4 -1.5
v 1.9 4.4 -1.6
v 1.9 4.4 -2.3
v 1.9 4.4 -2.4
v 1.9 4.7 -1.5
v 1.9 4.7 -1.6
v 1.9 5 -1.5
v 1.9 5 -1.6
v 1.9 5.2 -2.3
v 1.9 5.2 -2.4
v 1.9 5.3 -1.5
v 1.9 5.3 -1.6
v 1.9 5.3 -2.3
v 1.9 5.3 -2.4
v 1.9 5.4 -1.5
v 1.9 5.4 -1.6
v 1.9 5.4 -1.7
v 1.9 5.4 -1.8
v 1.9 5.4 -2.1
v 1.9 5.4 -2.2
v 1.9 5.5 -1.7
v 1.9 5.5 -1.8
v 1.9 5.5 -2.1
v 1.9 5.5 -2.2
v 2 3.6 -1.5
v 2 3.6 -1.6
v 2 3.7 -1.5
v 2 3.7 -1.6
v 2 4.5 -1.5
v 2 4.5 -1.6
v 2 4.6 -1.5
v 2 4.6 -1.6
v 2 5 -2.3
v 2 5 -2.4
v 2 5.1 -2.3
v 2 5.1 -2.4
v 2 5.2 -1.5
v 2 5.2 -1.6
v 2 5.3 -1.5
v 2 5.3 -1.6
v 2.1 5.4 -1.6
v 2.1 5.4 -1.7
v 2.1 5.4 -1.9
v 2.1 5.4 -2.1
v 2.1 5.5 -1.6
v 2.1 5.5 -1.7
v 2.1 5.5 -1.9
v 2.1 5.5 -2.1
v 2.2 3.5 -1.5
v 2.2 3.5 -1.6
v 2.2 3.6 -1.5
v 2.2 3.6 -1.6
v 2.2 3.8 -2.3
v 2.2 3.8 -2.4
v 2.2 3.9 -2.3
v 2.2 3.9 -2.4
v 2.2 4.2 -1.5
v 2.2 4.2 -1.6
v 2.2 4.3 -1.5
v 2.2 4.3 -1.6
v 2.2 4.5 -2.3
v 2.2 4.5 -2.4
v 2.2 4.6 -2.3
v 2.2 4.6 -2.4
v 2.2 4.8 -2.3
v 2.2 4.8 -2.4
v 2.2 4.9 -2.3
v 2.2 4.9 -2.4
v 2.2 5 -1.5
v 2.2 5 -1.6
v 2.2 5.1 -1.5
v 2.2 5.1 -1.6
v 2.2 5.3 -1.5
v 2.2 5.3 -1.6
v 2.2 5.3 -2.3
v 2.2 5.3 -2.4
v 2.2 5.4 -1.5
v 2.2 5.4 -1.6
v 2.2 5.4 -2.1
v 2.2 5.4 -2.2
v 2.2 5.4 -2.3
v 2.2 5.4 -2.4
v 2.2 5.5 -2.1
v 2.2 5.5 -2.2
v 2.3 3.4 -1.6
v 2.3 3.4 -1.7
v 2.3 3.4 -2.2
v 2.3 3.4 -2.3
v 2.3 3.5 -1.6
v 2.3 3.5 -1.7
v 2.3 3.5 -2.2
v 2.3 3.5 -2.3
v 2.3 3.6 -2.3
v 2.3 3.6 -2.4
v 2.3 3.7 -2.3
v 2.3 3.7 -2.4
v 2.3 3.9 -1.5
v 2.3 3.9 -1.6
v 2.3 4 -1.5
v 2.3 4 -1.6
v 2.3 4.2 -2.3
v 2.3 4.2 -2.4
v 2.3 4.3 -1.5
v 2.3 4.3 -1.6
v 2.3 4.3 -2.3
v 2.3 4.3 -2.4
v 2.3 4.4 -1.5
v 2.3 4.4 -1.6
v 2.3 5.1 -1.6
v 2.3 5.1 -1.7
v 2.3 5.1 -2.2
v 2.3 5.1 -2.3
v 2.3 5.2 -1.6
v 2.3 5.2 -1.7
v 2.3 5.2 -2.2
v 2.3 5.2 -2.3
v 2.3 5.2 -2.4
v 2.3 5.3 -2.3
v 2.3 5.3 -2.4
v 2.3 5.4 -1.7
v 2.3 5.4 -1.8
v 2.3 5.4 -2
v 2.3 5.4 -2.1
v 2.3 5.5 -1.7
v 2.3 5.5 -1.8
v 2.3 5.5 -2
v 2.3 5.5 -2.1
v 2.4 3.4 -1.7
v 2.4 3.4 -2.2
v 2.4 3.5 -1.6
v 2.4 3.5 -1.7
v 2.4 3.5 -2.2
v 2.4 3.5 -2.3
v 2.4 3.6 -2
v 2.4 3.6 -2.1
v 2.4 3.7 -1.8
v 2.4 3.7 -2
v 2.4 3.7 -2.1
v 2.4 3.9 -1.6
v 2.4 3.9 -1.7
v 2.4 4 -1.6
v 2.4 4 -1.7
v 2.4 4 -1.8
v 2.4 4 -2.1
v 2.4 4.2 -1.6
v 2.4 4.2 -2.1
v 2.4 4.2 -2.2
v 2.4 4.2 -2.3
v 2.4 4.3 -2.1
v 2.4 4.3 -2.2
v 2.4 4.6 -1.7
v 2.4 4.6 -1.8
v 2.4 4.7 -1.6
v 2.4 4.7 -1.7
v 2.4 4.7 -1.8
v 2.4 4.7 -2.1
v 2.4 4.7 -2.2
v 2.4 4.8 -2.1
v 2.4 4.8 -2.2
v 2.4 4.9 -1.8
v 2.4 4.9 -1.9
v 2.4 5 -1.7
v 2.4 5 -1.8
v 2.4 5 -1.9
v 2.4 5 -2
v 2.4 5 -2.1
v 2.4 5 -2.3
v 2.4 5 -2.4
v 2.4 5.1 -1.7
v 2.4 5.1 -2
v 2.4 5.1 -2.1
v 2.4 5.1 -2.2
v 2.4 5.1 -2.3
v 2.4 5.1 -2.4
v 2.4 5.2 -1.5
v 2.4 5.2 -1.7
v 2.4 5.2 -1.8
v 2.4 5.2 -2.2
v 2.4 5.2 -2.3
v 2.4 5.3 -1.5
v 2.4 5.3 -1.6
v 2.4 5.3 -1.7
v 2.4 5.3 -1.8
v 2.4 5.3 -2.1
v 2.4 5.3 -2.3
v 2.4 5.3 -2.4
v 2.4 5.4 -1.5
v 2.4 5.4 -1.6
v 2.4 5.4 -1.7
v 2.4 5.4 -1.8
v 2.4 5.4 -1.9
v 2.4 5.4 -2.1
v 2.4 5.4 -2.4
v 2.4 5.5 -1.5
v 2.4 5.5 -1.7
v 2.4 5.5 -1.8
v 2.4 5.5 -1.9
v 2.5 2.3 -1.5
v 2.5 2.3 -1.6
v 2.5 2.3 -1.7
v 2.5 2.3 -2.2
v 2.5 2.3 -2.3
v 2.5 2.3 -2.4
v 2.5 2.4 -1.5
v 2.5 2.4 -1.6
v 2.5 2.4 -1.7
v 2.5 2.4 -2.2
v 2.5 2.4 -2.3
v 2.5 2.4 -2.4
v 2.5 2.5 -1.5
v 2.5 2.5 -2.4
v 2.5 2.7 -1.5
v 2.5 2.7 -2.4
v 2.5 2.8 -1.5
v 2.5 2.8 -2.4
v 2.5 3 -1.5
v 2.5 3 -2.4
v 2.5 3.1 -1.5
v 2.5 3.1 -2.4
v 2.5 3.2 -1.5
v 2.5 3.2 -2.4
v 2.5 3.6 -2
v 2.5 3.6 -2.1
v 2.5 3.7 -2
v 2.5 3.7 -2.1
v 2.5 3.9 -1.6
v 2.5 3.9 -1.7
v 2.5 4 -1.6
v 2.5 4 -1.7
v 2.5 4.2 -2.1
v 2.5 4.2 -2.2
v 2.5 4.3 -2.1
v 2.5 4.3 -2.2
v 2.5 4.6 -1.7
v 2.5 4.6 -1.8
v 2.5 4.7 -1.5
v 2.5 4.7 -1.7
v 2.5 4.7 -1.8
v 2.5 4.7 -2.1
v 2.5 4.7 -2.2
v 2.5 4.8 -2.1
v 2.5 4.8 -2.2
v 2.5 4.9 -1.8
v 2.5 4.9 -1.9
v 2.5 5 -1.5
v 2.5 5 -1.6
v 2.5 5 -1.7
v 2.5 5 -1.8
v 2.5 5 -1.9
v 2.5 5 -2
v 2.5 5 -2.1
v 2.5 5.1 -1.6
v 2.5 5.1 -1.7
v 2.5 5.1 -2
v 2.5 5.1 -2.1
v 2.5 5.3 -1.6
v 2.5 5.3 -1.7
v 2.5 5.3 -1.8
v 2.5 5.3 -2.1
v 2.5 5.4 -1.6
v 2.5 5.4 -1.7
v 2.5 5.4 -1.8
v 2.5 5.4 -2
v 2.5 5.5 -2
v 2.5 5.5 -2.1
v 2.6 3.2 -1.4
v 2.6 3.2 -2.5
v 2.6 3.4 -1.4
v 2.6 3.4 -2.5
v 2.6 3.5 -1.4
v 2.6 3.5 -2.5
v 2.6 3.7 -2.1
v 2.6 3.7 -2.2
v 2.6 3.8 -2.1
v 2.6 3.8 -2.2
v 2.7 3.7 -1.7
v 2.7 3.7 -1.8
v 2.7 3.8 -1.7
v 2.7 3.8 -1.8
v 2.8 2.2 -1.5
v 2.8 2.2 -1.8
v 2.8 2.2 -2.1
v 2.8 2.2 -2.4
v 2.8 2.3 -1.6
v 2.8 2.3 -1.7
v 2.8 2.3 -2.2
v 2.8 2.3 -2.3
v 2.8 2.4 -1.6
v 2.8 2.4 -1.7
v 2.8 2.4 -2.2
v 2.8 2.4 -2.3
v 2.8 2.5 -1.5
v 2.8 2.5 -1.8
v 2.8 2.5 -2.1
v 2.8 2.5 -2.4
v 2.9 3.6 -2
v 2.9 3.6 -2.1
v 2.9 3.7 -2
v 2.9 3.7 -2.1
v 3 3.7 -1.8
v 3 3.7 -2.1
v 3 3.8 -1.8
v 3 3.8 -2.1
v 3 4.2 -1.7
v 3 4.2 -1.8
v 3 4.3 -1.7
v 3 4.3 -1.8
v 3 4.5 -1.8
v 3 4.5 -1.9
v 3 4.5 -2
v 3 4.5 -2.1
v 3 4.6 -1.8
v 3 4.6 -1.9
v 3 4.6 -2
v 3 4.6 -2.1
v 3 4.7 -1.9
v 3 4.7 -2
v 3.1 3.8 -1.8
v 3.1 3.8 -2.1
v 3.1 3.9 -1.9
v 3.1 3.9 -2
v 3.1 4 -1.9
v 3.1 4 -2
v 3.1 4.2 -1.8
v 3.1 4.2 -1.9
v 3.1 4.3 -1.8
v 3.1 4.3 -1.9
v 3.1 4.5 -1.8
v 3.1 4.5 -1.9
v 3.1 4.5 -2
v 3.1 4.5 -2.1
v 3.1 4.6 -1.9
v 3.1 4.6 -2
v 3.2 3.9 -1.9
v 3.2 3.9 -2
v 3.2 4 -1.9
v 3.2 4 -2
v 3.2 4.2 -1.8
v 3.2 4.2 -1.9
v 3.2 4.3 -1.8
v 3.2 4.3 -1.9
v 1.5 3.2 -1.4
v 1.5 3.4 -1.4
v 1.5 3.5 -1.4
v 2.6 3.2 -1.4
v 2.6 3.4 -1.4
v 2.6 3.5 -1.4
v 1.3 2.2 -1.5
v 1.3 2.5 -1.5
v 1.5 2.2 -1.5
v 1.5 2.5 -1.5
v 1.6 2.3 -1.5
v 1.6 2.4 -1.5
v 1.6 2.5 -1.5
v 1.6 2.7 -1.5
v 1.6 2.8 -1.5
v 1.6 3 -1.5
v 1.6 3.1 -1.5
v 1.6 3.2 -1.5
v 1.6 4.7 -1.5
v 1.6 5 -1.5
v 1.7 3.8 -1.5
v 1.7 3.9 -1.5
v 1.7 4.8 -1.5
v 1.7 4.9 -1.5
v 1.7 5.2 -1.5
v 1.7 5.4 -1.5
v 1.8 3.8 -1.5
v 1.8 3.9 -1.5
v 1.8 4.3 -1.5
v 1.8 4.4 -1.5
v 1.8 4.8 -1.5
v 1.8 4.9 -1.5
v 1.8 5.2 -1.5
v 1.8 5.3 -1.5
v 1.9 3.6 -1.5
v 1.9 3.7 -1.5
v 1.9 4.2 -1.5
v 1.9 4.3 -1.5
v 1.9 4.4 -1.5
v 1.9 4.5 -1.5
v 1.9 4.6 -1.5
v 1.9 4.7 -1.5
v 1.9 5 -1.5
v 1.9 5.2 -1.5
v 1.9 5.3 -1.5
v 1.9 5.4 -1.5
v 2 3.6 -1.5
v 2 3.7 -1.5
v 2 4.5 -1.5
v 2 4.6 -1.5
v 2 5.2 -1.5
v 2 5.3 -1.5
v 2.1 3.5 -1.5
v 2.1 3.6 -1.5
v 2.1 5 -1.5
v 2.1 5.1 -1.5
v 2.1 5.3 -1.5
v 2.1 5.4 -1.5
v 2.2 3.5 -1.5
v 2.2 3.6 -1.5
v 2.2 3.9 -1.5
v 2.2 4 -1.5
v 2.2 4.2 -1.5
v 2.2 4.3 -1.5
v 2.2 4.4 -1.5
v 2.2 4.7 -1.5
v 2.2 5 -1.5
v 2.2 5.1 -1.5
v 2.2 5.3 -1.5
v 2.2 5.4 -1.5
v 2.3 3.9 -1.5
v 2.3 4 -1.5
v 2.3 4.3 -1.5
v 2.3 4.4 -1.5
v 2.3 4.8 -1.5
v 2.3 4.9 -1.5
v 2.3 5.2 -1.5
v 2.3 5.3 -1.5
v 2.3 5.4 -1.5
v 2.3 5.5 -1.5
v 2.4 4.8 -1.5
v 2.4 4.9 -1.5
v 2.4 5.2 -1.5
v 2.4 5.3 -1.5
v 2.4 5.4 -1.5
v 2.4 5.5 -1.5
v 2.5 2.3 -1.5
v 2.5 2.4 -1.5
v 2.5 2.5 -1.5
v 2.5 2.7 -1.5
v 2.5 2.8 -1.5
v 2.5 3 -1.5
v 2.5 3.1 -1.5
v 2.5 3.2 -1.5
v 2.5 4.7 -1.5
v 2.5 5 -1.5
v 2.6 2.2 -1.5
v 2.6 2.5 -1.5
v 2.8 2.2 -1.5
v 2.8 2.5 -1.5
v 1.5 2.3 -1.6
v 1.5 2.4 -1.6
v 1.6 2.3 -1.6
v 1.6 2.4 -1.6
v 1.6 5.2 -1.6
v 1.6 5.3 -1.6
v 1.7 3.5 -1.6
v 1.7 3.8 -1.6
v 1.7 3.9 -1.6
v 1.7 4.2 -1.6
v 1.7 4.7 -1.6
v 1.7 5 -1.6
v 1.7 5.1 -1.6
v 1.7 5.2 -1.6
v 1.7 5.3 -1.6
v 1.7 5.4 -1.6
v 1.7 5.5 -1.6
v 1.8 3.4 -1.6
v 1.8 3.5 -1.6
v 1.8 3.8 -1.6
v 1.8 3.9 -1.6
v 1.8 4.3 -1.6
v 1.8 4.4 -1.6
v 1.8 5.1 -1.6
v 1.8 5.2 -1.6
v 1.8 5.3 -1.6
v 1.8 5.4 -1.6
v 1.8 5.5 -1.6
v 1.9 3.5 -1.6
v 1.9 3.6 -1.6
v 1.9 3.7 -1.6
v 1.9 4.2 -1.6
v 1.9 4.3 -1.6
v 1.9 4.4 -1.6
v 1.9 4.5 -1.6
v 1.9 4.6 -1.6
v 1.9 4.7 -1.6
v 1.9 5 -1.6
v 1.9 5.2 -1.6
v 1.9 5.3 -1.6
v 1.9 5.4 -1.6
v 2 3.6 -1.6
v 2 3.7 -1.6
v 2 4.5 -1.6
v 2 4.6 -1.6
v 2 5.2 -1.6
v 2 5.3 -1.6
v 2 5.4 -1.6
v 2 5.5 -1.6
v 2.1 3.5 -1.6
v 2.1 3.6 -1.6
v 2.1 5 -1.6
v 2.1 5.1 -1.6
v 2.1 5.3 -1.6
v 2.1 5.4 -1.6
v 2.1 5.5 -1.6
v 2.2 3.5 -1.6
v 2.2 3.6 -1.6
v 2.2 3.9 -1.6
v 2.2 4 -1.6
v 2.2 4.2 -1.6
v 2.2 4.3 -1.6
v 2.2 4.4 -1.6
v 2.2 4.7 -1.6
v 2.2 5 -1.6
v 2.2 5.1 -1.6
v 2.2 5.3 -1.6
v 2.2 5.4 -1.6
v 2.2 5.5 -1.6
v 2.3 3.4 -1.6
v 2.3 3.5 -1.6
v 2.3 3.9 -1.6
v 2.3 4 -1.6
v 2.3 4.3 -1.6
v 2.3 4.4 -1.6
v 2.3 5.1 -1.6
v 2.3 5.2 -1.6
v 2.3 5.3 -1.6
v 2.3 5.4 -1.6
v 2.3 5.5 -1.6
v 2.4 3.5 -1.6
v 2.4 3.9 -1.6
v 2.4 4 -1.6
v 2.4 4.2 -1.6
v 2.4 4.7 -1.6
v 2.4 5 -1.6
v 2.4 5.1 -1.6
v 2.4 5.3 -1.6
v 2.4 5.4 -1.6
v 2.5 2.3 -1.6
v 2.5 2.4 -1.6
v 2.5 3.9 -1.6
v 2.5 4 -1.6
v 2.5 5 -1.6
v 2.5 5.1 -1.6
v 2.5 5.3 -1.6
v 2.5 5.4 -1.6
v 2.6 2.3 -1.6
v 2.6 2.4 -1.6
v 1 4.8 -1.7
v 1 4.9 -1.7
v 1.1 4.5 -1.7
v 1.1 4.6 -1.7
v 1.1 4.8 -1.7
v 1.1 4.9 -1.7
v 1.2 4.5 -1.7
v 1.2 4.6 -1.7
v 1.3 4.4 -1.7
v 1.3 4.5 -1.7
v 1.4 4.4 -1.7
v 1.4 4.5 -1.7
v 1.7 3.4 -1.7
v 1.7 3.5 -1.7
v 1.7 5.1 -1.7
v 1.7 5.2 -1.7
v 1.8 3.4 -1.7
v 1.8 3.5 -1.7
v 1.8 5.1 -1.7
v 1.8 5.2 -1.7
v 1.8 5.4 -1.7
v 1.8 5.5 -1.7
v 1.9 5.4 -1.7
v 1.9 5.5 -1.7
v 2.1 5.4 -1.7
v 2.1 5.5 -1.7
v 2.2 5.4 -1.7
v 2.2 5.5 -1.7
v 2.3 3.4 -1.7
v 2.3 3.5 -1.7
v 2.3 5.1 -1.7
v 2.3 5.2 -1.7
v 2.4 3.4 -1.7
v 2.4 3.5 -1.7
v 2.4 4.6 -1.7
v 2.4 4.7 -1.7
v 2.4 5.1 -1.7
v 2.4 5.2 -1.7
v 2.5 4.6 -1.7
v 2.5 4.7 -1.7
v 2.6 3.7 -1.7
v 2.6 3.8 -1.7
v 2.7 3.7 -1.7
v 2.7 3.8 -1.7
v 2.9 4.2 -1.7
v 2.9 4.3 -1.7
v 3 4.2 -1.7
v 3 4.3 -1.7
v 1 4.3 -1.8
v 1 4.8 -1.8
v 1 4.9 -1.8
v 1 5 -1.8
v 1.1 4.2 -1.8
v 1.1 4.3 -1.8
v 1.1 4.5 -1.8
v 1.1 4.6 -1.8
v 1.1 4.8 -1.8
v 1.1 4.9 -1.8
v 1.1 5 -1.8
v 1.1 5.1 -1.8
v 1.2 4.5 -1.8
v 1.2 4.6 -1.8
v 1.2 5 -1.8
v 1.2 5.1 -1.8
v 1.3 4.4 -1.8
v 1.3 4.5 -1.8
v 1.3 4.6 -1.8
v 1.3 5 -1.8
v 1.4 4.2 -1.8
v 1.4 4.4 -1.8
v 1.4 4.5 -1.8
v 1.4 4.6 -1.8
v 1.6 3.8 -1.8
v 1.6 3.9 -1.8
v 1.6 4.8 -1.8
v 1.6 4.9 -1.8
v 1.6 5.3 -1.8
v 1.6 5.4 -1.8
v 1.7 3.8 -1.8
v 1.7 3.9 -1.8
v 1.7 4.2 -1.8
v 1.7 4.5 -1.8
v 1.7 4.8 -1.8
v 1.7 4.9 -1.8
v 1.7 5.3 -1.8
v 1.7 5.4 -1.8
v 2.3 5.4 -1.8
v 2.3 5.5 -1.8
v 2.4 3.7 -1.8
v 2.4 4 -1.8
v 2.4 5.3 -1.8
v 2.4 5.4 -1.8
v 2.4 5.5 -1.8
v 2.5 5.3 -1.8
v 2.5 5.4 -1.8
v 2.6 3.7 -1.8
v 2.6 3.8 -1.8
v 2.7 3.7 -1.8
v 2.7 3.8 -1.8
v 2.7 4 -1.8
v 2.7 4.1 -1.8
v 2.8 4.1 -1.8
v 2.8 4.5 -1.8
v 2.9 4.2 -1.8
v 2.9 4.3 -1.8
v 2.9 4.5 -1.8
v 2.9 4.6 -1.8
v 3 3.7 -1.8
v 3 3.8 -1.8
v 3 4.2 -1.8
v 3 4.3 -1.8
v 3 4.5 -1.8
v 3 4.6 -1.8
v 3.1 3.8 -1.8
v 3.1 4.2 -1.8
v 3.1 4.3 -1.8
v 3.1 4.5 -1.8
v 3.2 4.2 -1.8
v 3.2 4.3 -1.8
v 0.9 4.3 -1.9
v 0.9 4.4 -1.9
v 1 4.3 -1.9
v 1 4.4 -1.9
v 1 5 -1.9
v 1 5.1 -1.9
v 1.1 5 -1.9
v 1.1 5.1 -1.9
v 1.1 5.2 -1.9
v 1.2 5 -1.9
v 1.2 5.1 -1.9
v 1.2 5.2 -1.9
v 1.3 4.7 -1.9
v 1.3 4.8 -1.9
v 1.3 5 -1.9
v 1.3 5.1 -1.9
v 1.4 4.1 -1.9
v 1.4 4.2 -1.9
v 1.4 4.7 -1.9
v 1.4 4.8 -1.9
v 1.5 4.1 -1.9
v 1.5 4.2 -1.9
v 1.6 4.5 -1.9
v 1.6 4.6 -1.9
v 1.6 5.1 -1.9
v 1.6 5.2 -1.9
v 1.6 5.3 -1.9
v 1.7 4.5 -1.9
v 1.7 4.6 -1.9
v 1.7 5.1 -1.9
v 1.7 5.2 -1.9
v 1.7 5.3 -1.9
v 1.8 5.4 -1.9
v 1.8 5.5 -1.9
v 2.1 5.4 -1.9
v 2.1 5.5 -1.9
v 2.8 4.5 -1.9
v 2.8 4.6 -1.9
v 2.9 4.5 -1.9
v 2.9 4.6 -1.9
v 2.9 4.7 -1.9
v 3 4.5 -1.9
v 3 4.6 -1.9
v 3 4.7 -1.9
v 3.1 3.9 -1.9
v 3.1 4 -1.9
v 3.1 4.5 -1.9
v 3.1 4.6 -1.9
v 3.2 3.9 -1.9
v 3.2 4 -1.9
v 0.9 4.6 -2
v 0.9 4.7 -2
v 1 4.6 -2
v 1 4.7 -2
v 1.1 4.1 -2
v 1.1 4.2 -2
v 1.2 4.1 -2
v 1.2 4.2 -2
v 1.6 5.3 -2
v 1.6 5.4 -2
v 1.7 5.3 -2
v 1.7 5.4 -2
v 2.2 5.4 -2
v 2.2 5.5 -2
v 2.3 5.4 -2
v 2.3 5.5 -2
v 2.4 3.6 -2
v 2.4 3.7 -2
v 2.4 5 -2
v 2.4 5.1 -2
v 2.4 5.4 -2
v 2.4 5.5 -2
v 2.5 3.6 -2
v 2.5 3.7 -2
v 2.5 5 -2
v 2.5 5.1 -2
v 2.5 5.4 -2
v 2.5 5.5 -2
v 2.8 3.6 -2
v 2.8 3.7 -2
v 2.9 3.6 -2
v 2.9 3.7 -2
v 1.3 2.2 -2.1
v 1.3 2.5 -2.1
v 1.5 2.2 -2.1
v 1.5 2.5 -2.1
v 1.6 5 -2.1
v 1.6 5.1 -2.1
v 1.7 5 -2.1
v 1.7 5.1 -2.1
v 1.8 5.4 -2.1
v 1.8 5.5 -2.1
v 1.9 5.4 -2.1
v 1.9 5.5 -2.1
v 2.1 5.4 -2.1
v 2.1 5.5 -2.1
v 2.2 5.4 -2.1
v 2.2 5.5 -2.1
v 2.4 4.2 -2.1
v 2.4 4.3 -2.1
v 2.4 4.7 -2.1
v 2.4 4.8 -2.1
v 2.5 4.2 -2.1
v 2.5 4.3 -2.1
v 2.5 4.7 -2.1
v 2.5 4.8 -2.1
v 2.6 2.2 -2.1
v 2.6 2.5 -2.1
v 2.8 2.2 -2.1
v 2.8 2.5 -2.1
v 1.5 2.3 -2.2
v 1.5 2.4 -2.2
v 1.6 2.3 -2.2
v 1.6 2.4 -2.2
v 1.6 3.6 -2.2
v 1.6 3.7 -2.2
v 1.6 5.2 -2.2
v 1.6 5.3 -2.2
v 1.7 3.6 -2.2
v 1.7 3.7 -2.2
v 1.7 5.2 -2.2
v 1.7 5.3 -2.2
v 2.5 2.3 -2.2
v 2.5 2.4 -2.2
v 2.6 2.3 -2.2
v 2.6 2.4 -2.2
v 1.6 3.4 -2.4
v 1.6 3.5 -2.4
v 1.8 3.5 -2.4
v 1.9 3.5 -2.4
v 2.5 3.4 -2.4
v 2.5 3.5 -2.4
v 1.6 3.4 -1.5
v 1.6 3.5 -1.5
v 2.1 3.5 -1.5
v 2.2 3.5 -1.5
v 2.5 3.4 -1.5
v 2.5 3.5 -1.5
v 1.5 2.3 -1.7
v 1.5 2.4 -1.7
v 1.6 2.3 -1.7
v 1.6 2.4 -1.7
v 1.6 4.7 -1.7
v 1.6 5 -1.7
v 1.7 4.7 -1.7
v 1.7 5 -1.7
v 1.7 5.4 -1.7
v 1.7 5.5 -1.7
v 1.8 5.4 -1.7
v 1.8 5.5 -1.7
v 2 5.4 -1.7
v 2 5.5 -1.7
v 2.1 5.4 -1.7
v 2.1 5.5 -1.7
v 2.3 5.4 -1.7
v 2.3 5.5 -1.7
v 2.4 3.9 -1.7
v 2.4 4 -1.7
v 2.4 5 -1.7
v 2.4 5.1 -1.7
v 2.4 5.3 -1.7
v 2.4 5.4 -1.7
v 2.4 5.5 -1.7
v 2.5 2.3 -1.7
v 2.5 2.4 -1.7
v 2.5 3.9 -1.7
v 2.5 4 -1.7
v 2.5 5 -1.7
v 2.5 5.1 -1.7
v 2.5 5.3 -1.7
v 2.5 5.4 -1.7
v 2.6 2.3 -1.7
v 2.6 2.4 -1.7
v 1.3 2.2 -1.8
v 1.3 2.5 -1.8
v 1.5 2.2 -1.8
v 1.5 2.5 -1.8
v 1.6 5.2 -1.8
v 1.6 5.3 -1.8
v 1.7 5.2 -1.8
v 1.7 5.3 -1.8
v 1.8 5.4 -1.8
v 1.8 5.5 -1.8
v 1.9 5.4 -1.8
v 1.9 5.5 -1.8
v 2.1 5.4 -1.8
v 2.1 5.5 -1.8
v 2.3 5.4 -1.8
v 2.3 5.5 -1.8
v 2.4 4.6 -1.8
v 2.4 4.7 -1.8
v 2.4 4.9 -1.8
v 2.5 4.6 -1.8
v 2.5 4.7 -1.8
v 2.5 4.9 -1.8
v 2.6 2.2 -1.8
v 2.6 2.5 -1.8
v 2.8 2.2 -1.8
v 2.8 2.5 -1.8
v 1.6 3.8 -1.9
v 1.6 3.9 -1.9
v 1.6 4.8 -1.9
v 1.6 4.9 -1.9
v 1.6 5.3 -1.9
v 1.6 5.4 -1.9
v 1.7 3.8 -1.9
v 1.7 3.9 -1.9
v 1.7 4.8 -1.9
v 1.7 4.9 -1.9
v 1.7 5.3 -1.9
v 1.7 5.4 -1.9
v 2.3 5.4 -1.9
v 2.3 5.5 -1.9
v 2.4 4.9 -1.9
v 2.4 5 -1.9
v 2.4 5.4 -1.9
v 2.4 5.5 -1.9
v 2.5 4.9 -1.9
v 2.5 5 -1.9
v 3.1 4.2 -1.9
v 3.1 4.3 -1.9
v 3.2 4.2 -1.9
v 3.2 4.3 -1.9
v 0.9 4.3 -2
v 0.9 4.4 -2
v 1 4.3 -2
v 1 4.4 -2
v 1 5 -2
v 1 5.1 -2
v 1.1 5 -2
v 1.1 5.1 -2
v 1.1 5.2 -2
v 1.2 5 -2
v 1.2 5.1 -2
v 1.2 5.2 -2
v 1.3 4.7 -2
v 1.3 4.8 -2
v 1.3 5 -2
v 1.3 5.1 -2
v 1.4 4.1 -2
v 1.4 4.2 -2
v 1.4 4.7 -2
v 1.4 4.8 -2
v 1.5 4.1 -2
v 1.5 4.2 -2
v 1.6 4.5 -2
v 1.6 4.6 -2
v 1.6 5.1 -2
v 1.6 5.2 -2
v 1.6 5.3 -2
v 1.7 4.5 -2
v 1.7 4.6 -2
v 1.7 5.1 -2
v 1.7 5.2 -2
v 1.7 5.3 -2
v 1.8 5.4 -2
v 1.8 5.5 -2
v 1.9 5.4 -2
v 1.9 5.5 -2
v 2.8 4.5 -2
v 2.8 4.6 -2
v 2.9 4.5 -2
v 2.9 4.6 -2
v 2.9 4.7 -2
v 3 4.5 -2
v 3 4.6 -2
v 3 4.7 -2
v 3.1 3.9 -2
v 3.1 4 -2
v 3.1 4.5 -2
v 3.1 4.6 -2
v 3.2 3.9 -2
v 3.2 4 -2
v 0.9 4.6 -2.1
v 0.9 4.7 -2.1
v 1 4.3 -2.1
v 1 4.6 -2.1
v 1 4.7 -2.1
v 1 5 -2.1
v 1.1 4.1 -2.1
v 1.1 4.2 -2.1
v 1.1 4.3 -2.1
v 1.1 4.8 -2.1
v 1.1 4.9 -2.1
v 1.1 5 -2.1
v 1.1 5.1 -2.1
v 1.2 4.1 -2.1
v 1.2 4.2 -2.1
v 1.2 4.8 -2.1
v 1.2 4.9 -2.1
v 1.2 5 -2.1
v 1.2 5.1 -2.1
v 1.3 4.4 -2.1
v 1.3 4.5 -2.1
v 1.3 4.6 -2.1
v 1.3 5 -2.1
v 1.4 4.2 -2.1
v 1.4 4.4 -2.1
v 1.4 4.5 -2.1
v 1.4 4.6 -2.1
v 1.6 5.3 -2.1
v 1.6 5.4 -2.1
v 1.7 4.2 -2.1
v 1.7 4.5 -2.1
v 1.7 5.3 -2.1
v 1.7 5.4 -2.1
v 1.9 5.4 -2.1
v 1.9 5.5 -2.1
v 2.1 5.4 -2.1
v 2.1 5.5 -2.1
v 2.2 5.4 -2.1
v 2.2 5.5 -2.1
v 2.3 5.4 -2.1
v 2.3 5.5 -2.1
v 2.4 3.6 -2.1
v 2.4 3.7 -2.1
v 2.4 4 -2.1
v 2.4 5 -2.1
v 2.4 5.1 -2.1
v 2.4 5.3 -2.1
v 2.4 5.4 -2.1
v 2.4 5.5 -2.1
v 2.5 3.6 -2.1
v 2.5 3.7 -2.1
v 2.5 3.8 -2.1
v 2.5 5 -2.1
v 2.5 5.1 -2.1
v 2.5 5.3 -2.1
v 2.5 5.5 -2.1
v 2.6 3.7 -2.1
v 2.6 3.8 -2.1
v 2.7 3.7 -2.1
v 2.7 4 -2.1
v 2.7 4.1 -2.1
v 2.8 3.6 -2.1
v 2.8 3.7 -2.1
v 2.8 4.1 -2.1
v 2.8 4.5 -2.1
v 2.9 3.6 -2.1
v 2.9 3.7 -2.1
v 2.9 4.5 -2.1
v 2.9 4.6 -2.1
v 3 3.7 -2.1
v 3 3.8 -2.1
v 3 4.5 -2.1
v 3 4.6 -2.1
v 3.1 3.8 -2.1
v 3.1 4.5 -2.1
v 1.1 4.8 -2.2
v 1.1 4.9 -2.2
v 1.2 4.8 -2.2
v 1.2 4.9 -2.2
v 1.3 4.4 -2.2
v 1.3 4.5 -2.2
v 1.4 4.4 -2.2
v 1.4 4.5 -2.2
v 1.6 5 -2.2
v 1.6 5.1 -2.2
v 1.7 3.4 -2.2
v 1.7 3.5 -2.2
v 1.7 5 -2.2
v 1.7 5.1 -2.2
v 1.7 5.2 -2.2
v 1.8 3.4 -2.2
v 1.8 3.5 -2.2
v 1.8 5.1 -2.2
v 1.8 5.2 -2.2
v 1.8 5.4 -2.2
v 1.8 5.5 -2.2
v 1.9 5.4 -2.2
v 1.9 5.5 -2.2
v 2.1 5.4 -2.2
v 2.1 5.5 -2.2
v 2.2 5.4 -2.2
v 2.2 5.5 -2.2
v 2.3 3.4 -2.2
v 2.3 3.5 -2.2
v 2.3 5.1 -2.2
v 2.3 5.2 -2.2
v 2.4 3.4 -2.2
v 2.4 3.5 -2.2
v 2.4 4.2 -2.2
v 2.4 4.3 -2.2
v 2.4 4.7 -2.2
v 2.4 4.8 -2.2
v 2.4 5.1 -2.2
v 2.4 5.2 -2.2
v 2.5 3.7 -2.2
v 2.5 3.8 -2.2
v 2.5 4.2 -2.2
v 2.5 4.3 -2.2
v 2.5 4.7 -2.2
v 2.5 4.8 -2.2
v 2.6 3.7 -2.2
v 2.6 3.8 -2.2
v 1.5 2.3 -2.3
v 1.5 2.4 -2.3
v 1.6 2.3 -2.3
v 1.6 2.4 -2.3
v 1.6 3.6 -2.3
v 1.6 3.7 -2.3
v 1.6 5.2 -2.3
v 1.6 5.3 -2.3
v 1.7 3.5 -2.3
v 1.7 3.6 -2.3
v 1.7 3.7 -2.3
v 1.7 4.2 -2.3
v 1.7 4.6 -2.3
v 1.7 4.7 -2.3
v 1.7 5.1 -2.3
v 1.7 5.3 -2.3
v 1.7 5.4 -2.3
v 1.8 3.4 -2.3
v 1.8 3.5 -2.3
v 1.8 3.6 -2.3
v 1.8 4 -2.3
v 1.8 4.1 -2.3
v 1.8 4.3 -2.3
v 1.8 4.4 -2.3
v 1.8 4.6 -2.3
v 1.8 4.7 -2.3
v 1.8 5.1 -2.3
v 1.8 5.2 -2.3
v 1.8 5.3 -2.3
v 1.9 3.5 -2.3
v 1.9 3.6 -2.3
v 1.9 4 -2.3
v 1.9 4.1 -2.3
v 1.9 4.3 -2.3
v 1.9 4.4 -2.3
v 1.9 5 -2.3
v 1.9 5.1 -2.3
v 1.9 5.2 -2.3
v 1.9 5.3 -2.3
v 2 5 -2.3
v 2 5.1 -2.3
v 2.1 3.8 -2.3
v 2.1 3.9 -2.3
v 2.1 4.5 -2.3
v 2.1 4.6 -2.3
v 2.1 4.8 -2.3
v 2.1 4.9 -2.3
v 2.1 5.3 -2.3
v 2.1 5.4 -2.3
v 2.2 3.6 -2.3
v 2.2 3.7 -2.3
v 2.2 3.8 -2.3
v 2.2 3.9 -2.3
v 2.2 4.2 -2.3
v 2.2 4.3 -2.3
v 2.2 4.5 -2.3
v 2.2 4.6 -2.3
v 2.2 4.8 -2.3
v 2.2 4.9 -2.3
v 2.2 5.2 -2.3
v 2.2 5.3 -2.3
v 2.2 5.4 -2.3
v 2.3 3.4 -2.3
v 2.3 3.5 -2.3
v 2.3 3.6 -2.3
v 2.3 3.7 -2.3
v 2.3 4.2 -2.3
v 2.3 4.3 -2.3
v 2.3 5 -2.3
v 2.3 5.1 -2.3
v 2.3 5.2 -2.3
v 2.3 5.3 -2.3
v 2.3 5.4 -2.3
v 2.4 3.5 -2.3
v 2.4 4.2 -2.3
v 2.4 5 -2.3
v 2.4 5.2 -2.3
v 2.4 5.3 -2.3
v 2.5 2.3 -2.3
v 2.5 2.4 -2.3
v 2.6 2.3 -2.3
v 2.6 2.4 -2.3
v 1.3 2.2 -2.4
v 1.3 2.5 -2.4
v 1.5 2.2 -2.4
v 1.5 2.5 -2.4
v 1.6 2.3 -2.4
v 1.6 2.4 -2.4
v 1.6 2.5 -2.4
v 1.6 2.7 -2.4
v 1.6 2.8 -2.4
v 1.6 3 -2.4
v 1.6 3.1 -2.4
v 1.6 3.2 -2.4
v 1.7 4.6 -2.4
v 1.7 4.7 -2.4
v 1.8 3.5 -2.4
v 1.8 3.6 -2.4
v 1.8 4 -2.4
v 1.8 4.1 -2.4
v 1.8 4.3 -2.4
v 1.8 4.4 -2.4
v 1.8 4.6 -2.4
v 1.8 4.7 -2.4
v 1.8 5.2 -2.4
v 1.8 5.3 -2.4
v 1.9 3.5 -2.4
v 1.9 3.6 -2.4
v 1.9 4 -2.4
v 1.9 4.1 -2.4
v 1.9 4.3 -2.4
v 1.9 4.4 -2.4
v 1.9 5 -2.4
v 1.9 5.1 -2.4
v 1.9 5.2 -2.4
v 1.9 5.3 -2.4
v 2 5 -2.4
v 2 5.1 -2.4
v 2.1 3.8 -2.4
v 2.1 3.9 -2.4
v 2.1 4.5 -2.4
v 2.1 4.6 -2.4
v 2.1 4.8 -2.4
v 2.1 4.9 -2.4
v 2.1 5.3 -2.4
v 2.1 5.4 -2.4
v 2.2 3.6 -2.4
v 2.2 3.7 -2.4
v 2.2 3.8 -2.4
v 2.2 3.9 -2.4
v 2.2 4.2 -2.4
v 2.2 4.3 -2.4
v 2.2 4.5 -2.4
v 2.2 4.6 -2.4
v 2.2 4.8 -2.4
v 2.2 4.9 -2.4
v 2.2 5.2 -2.4
v 2.2 5.3 -2.4
v 2.2 5.4 -2.4
v 2.3 3.6 -2.4
v 2.3 3.7 -2.4
v 2.3 4.2 -2.4
v 2.3 4.3 -2.4
v 2.3 5 -2.4
v 2.3 5.1 -2.4
v 2.3 5.2 -2.4
v 2.3 5.3 -2.4
v 2.3 5.4 -2.4
v 2.4 5 -2.4
v 2.4 5.1 -2.4
v 2.4 5.3 -2.4
v 2.4 5.4 -2.4
v 2.5 2.3 -2.4
v 2.5 2.4 -2.4
v 2.5 2.5 -2.4
v 2.5 2.7 -2.4
v 2.5 2.8 -2.4
v 2.5 3 -2.4
v 2.5 3.1 -2.4
v 2.5 3.2 -2.4
v 2.6 2.2 -2.4
v 2.6 2.5 -2.4
v 2.8 2.2 -2.4
v 2.8 2.5 -2.4
v 1.5 3.2 -2.5
v 1.5 3.4 -2.5
v 1.5 3.5 -2.5
v 2.6 3.2 -2.5
v 2.6 3.4 -2.5
v 2.6 3.5 -2.5
v 1.3 2.2 -1.5
v 1.5 2.2 -1.5
v 2.6 2.2 -1.5
v 2.8 2.2 -1.5
v 1.3 2.2 -1.8
v 1.5 2.2 -1.8
v 2.6 2.2 -1.8
v 2.8 2.2 -1.8
v 1.3 2.2 -2.1
v 1.5 2.2 -2.1
v 2.6 2.2 -2.1
v 2.8 2.2 -2.1
v 1.3 2.2 -2.4
v 1.5 2.2 -2.4
v 2.6 2.2 -2.4
v 2.8 2.2 -2.4
v 1.6 2.3 -1.5
v 2.5 2.3 -1.5
v 1.5 2.3 -1.6
v 1.6 2.3 -1.6
v 2.5 2.3 -1.6
v 2.6 2.3 -1.6
v 1.5 2.3 -1.7
v 1.6 2.3 -1.7
v 2.5 2.3 -1.7
v 2.6 2.3 -1.7
v 1.5 2.3 -2.2
v 1.6 2.3 -2.2
v 2.5 2.3 -2.2
v 2.6 2.3 -2.2
v 1.5 2.3 -2.3
v 1.6 2.3 -2.3
v 2.5 2.3 -2.3
v 2.6 2.3 -2.3
v 1.6 2.3 -2.4
v 2.5 2.3 -2.4
v 1.5 3.2 -1.4
v 2.6 3.2 -1.4
v 1.6 3.2 -1.5
v 2.5 3.2 -1.5
v 1.6 3.2 -2.4
v 2.5 3.2 -2.4
v 1.5 3.2 -2.5
v 2.6 3.2 -2.5
v 2.1 3.5 -1.5
v 2.2 3.5 -1.5
v 1.7 3.5 -1.6
v 1.8 3.5 -1.6
v 2.1 3.5 -1.6
v 2.2 3.5 -1.6
v 2.3 3.5 -1.6
v 2.4 3.5 -1.6
v 1.7 3.5 -1.7
v 1.8 3.5 -1.7
v 2.3 3.5 -1.7
v 2.4 3.5 -1.7
v 1.7 3.5 -2.2
v 1.8 3.5 -2.2
v 2.3 3.5 -2.2
v 2.4 3.5 -2.2
v 1.7 3.5 -2.3
v 1.8 3.5 -2.3
v 1.9 3.5 -2.3
v 2.3 3.5 -2.3
v 2.4 3.5 -2.3
v 1.8 3.5 -2.4
v 1.9 3.5 -2.4
v 1.9 3.6 -1.5
v 2 3.6 -1.5
v 1.9 3.6 -1.6
v 2 3.6 -1.6
v 2.4 3.6 -2
v 2.5 3.6 -2
v 2.8 3.6 -2
v 2.9 3.6 -2
v 2.4 3.6 -2.1
v 2.5 3.6 -2.1
v 2.8 3.6 -2.1
v 2.9 3.6 -2.1
v 1.6 3.6 -2.2
v 1.7 3.6 -2.2
v 1.6 3.6 -2.3
v 1.7 3.6 -2.3
v 2.2 3.6 -2.3
v 2.3 3.6 -2.3
v 2.2 3.6 -2.4
v 2.3 3.6 -2.4
v 2.6 3.7 -1.7
v 2.7 3.7 -1.7
v 2.4 3.7 -1.8
v 2.6 3.7 -1.8
v 2.7 3.7 -1.8
v 3 3.7 -1.8
v 2.4 3.7 -2
v 2.5 3.7 -2
v 2.8 3.7 -2
v 2.9 3.7 -2
v 2.5 3.7 -2.1
v 2.6 3.7 -2.1
v 2.7 3.7 -2.1
v 2.8 3.7 -2.1
v 2.9 3.7 -2.1
v 3 3.7 -2.1
v 2.5 3.7 -2.2
v 2.6 3.7 -2.2
v 1.7 3.8 -1.5
v 1.8 3.8 -1.5
v 1.7 3.8 -1.6
v 1.8 3.8 -1.6
v 1.6 3.8 -1.8
v 1.7 3.8 -1.8
v 3 3.8 -1.8
v 3.1 3.8 -1.8
v 1.6 3.8 -1.9
v 1.7 3.8 -1.9
v 3 3.8 -2.1
v 3.1 3.8 -2.1
v 2.1 3.8 -2.3
v 2.2 3.8 -2.3
v 2.1 3.8 -2.4
v 2.2 3.8 -2.4
v 2.2 3.9 -1.5
v 2.3 3.9 -1.5
v 2.2 3.9 -1.6
v 2.3 3.9 -1.6
v 2.4 3.9 -1.6
v 2.5 3.9 -1.6
v 2.4 3.9 -1.7
v 2.5 3.9 -1.7
v 3.1 3.9 -1.9
v 3.2 3.9 -1.9
v 3.1 3.9 -2
v 3.2 3.9 -2
v 1.8 4 -2.3
v 1.9 4 -2.3
v 1.8 4 -2.4
v 1.9 4 -2.4
v 1.4 4.1 -1.9
v 1.5 4.1 -1.9
v 1.1 4.1 -2
v 1.2 4.1 -2
v 1.4 4.1 -2
v 1.5 4.1 -2
v 1.1 4.1 -2.1
v 1.2 4.1 -2.1
v 1.9 4.2 -1.5
v 2.2 4.2 -1.5
v 1.9 4.2 -1.6
v 2.2 4.2 -1.6
v 2.9 4.2 -1.7
v 3 4.2 -1.7
v 1.1 4.2 -1.8
v 1.4 4.2 -1.8
v 1.7 4.2 -1.8
v 2.9 4.2 -1.8
v 3 4.2 -1.8
v 3.1 4.2 -1.8
v 3.2 4.2 -1.8
v 1.4 4.2 -1.9
v 1.5 4.2 -1.9
v 3.1 4.2 -1.9
v 3.2 4.2 -1.9
v 1.1 4.2 -2
v 1.2 4.2 -2
v 1.4 4.2 -2
v 1.5 4.2 -2
v 1.2 4.2 -2.1
v 1.4 4.2 -2.1
v 1.7 4.2 -2.1
v 2.4 4.2 -2.1
v 2.5 4.2 -2.1
v 2.4 4.2 -2.2
v 2.5 4.2 -2.2
v 2.2 4.2 -2.3
v 2.3 4.2 -2.3
v 2.2 4.2 -2.4
v 2.3 4.2 -2.4
v 1.8 4.3 -1.5
v 1.9 4.3 -1.5
v 2.2 4.3 -1.5
v 2.3 4.3 -1.5
v 1.8 4.3 -1.6
v 1.9 4.3 -1.6
v 2.2 4.3 -1.6
v 2.3 4.3 -1.6
v 1 4.3 -1.8
v 1.1 4.3 -1.8
v 0.9 4.3 -1.9
v 1 4.3 -1.9
v 0.9 4.3 -2
v 1 4.3 -2
v 1 4.3 -2.1
v 1.1 4.3 -2.1
v 1.8 4.3 -2.3
v 1.9 4.3 -2.3
v 1.8 4.3 -2.4
v 1.9 4.3 -2.4
v 1.3 4.4 -1.7
v 1.4 4.4 -1.7
v 1.3 4.4 -1.8
v 1.4 4.4 -1.8
v 1.3 4.4 -2.1
v 1.4 4.4 -2.1
v 1.3 4.4 -2.2
v 1.4 4.4 -2.2
v 1.9 4.5 -1.5
v 2 4.5 -1.5
v 1.9 4.5 -1.6
v 2 4.5 -1.6
v 1.1 4.5 -1.7
v 1.2 4.5 -1.7
v 1.1 4.5 -1.8
v 1.2 4.5 -1.8
v 2.1 4.5 -2.3
v 2.2 4.5 -2.3
v 2.1 4.5 -2.4
v 2.2 4.5 -2.4
v 2.4 4.6 -1.7
v 2.5 4.6 -1.7
v 2.4 4.6 -1.8
v 2.5 4.6 -1.8
v 0.9 4.6 -2
v 1 4.6 -2
v 0.9 4.6 -2.1
v 1 4.6 -2.1
v 1.7 4.6 -2.3
v 1.8 4.6 -2.3
v 1.7 4.6 -2.4
v 1.8 4.6 -2.4
v 1.6 4.7 -1.5
v 1.9 4.7 -1.5
v 2.2 4.7 -1.5
v 2.5 4.7 -1.5
v 1.7 4.7 -1.6
v 1.9 4.7 -1.6
v 2.2 4.7 -1.6
v 2.4 4.7 -1.6
v 1.6 4.7 -1.7
v 1.7 4.7 -1.7
v 2.4 4.7 -1.7
v 2.5 4.7 -1.7
v 1.3 4.7 -1.9
v 1.4 4.7 -1.9
v 1.3 4.7 -2
v 1.4 4.7 -2
v 2.4 4.7 -2.1
v 2.5 4.7 -2.1
v 2.4 4.7 -2.2
v 2.5 4.7 -2.2
v 1 4.8 -1.7
v 1.1 4.8 -1.7
v 1 4.8 -1.8
v 1.1 4.8 -1.8
v 1.6 4.8 -1.8
v 1.7 4.8 -1.8
v 1.6 4.8 -1.9
v 1.7 4.8 -1.9
v 1.1 4.8 -2.1
v 1.2 4.8 -2.1
v 1.1 4.8 -2.2
v 1.2 4.8 -2.2
v 2.1 4.8 -2.3
v 2.2 4.8 -2.3
v 2.1 4.8 -2.4
v 2.2 4.8 -2.4
v 2.4 4.9 -1.8
v 2.5 4.9 -1.8
v 2.4 4.9 -1.9
v 2.5 4.9 -1.9
v 2.1 5 -1.5
v 2.2 5 -1.5
v 2.1 5 -1.6
v 2.2 5 -1.6
v 2.4 5 -2
v 2.5 5 -2
v 1.6 5 -2.1
v 1.7 5 -2.1
v 2.4 5 -2.1
v 2.5 5 -2.1
v 1.6 5 -2.2
v 1.7 5 -2.2
v 1.9 5 -2.3
v 2 5 -2.3
v 2.3 5 -2.3
v 2.4 5 -2.3
v 1.9 5 -2.4
v 2 5 -2.4
v 2.3 5 -2.4
v 2.4 5 -2.4
v 1.6 5.1 -1.9
v 1.7 5.1 -1.9
v 1.6 5.1 -2
v 1.7 5.1 -2
v 1.7 5.2 -1.5
v 1.8 5.2 -1.5
v 1.9 5.2 -1.5
v 2 5.2 -1.5
v 2.3 5.2 -1.5
v 2.4 5.2 -1.5
v 1.6 5.2 -1.6
v 1.7 5.2 -1.6
v 1.8 5.2 -1.6
v 1.9 5.2 -1.6
v 2 5.2 -1.6
v 2.3 5.2 -1.6
v 1.7 5.2 -1.7
v 1.8 5.2 -1.7
v 2.3 5.2 -1.7
v 2.4 5.2 -1.7
v 1.6 5.2 -1.8
v 1.7 5.2 -1.8
v 1.6 5.2 -2.2
v 1.7 5.2 -2.2
v 1.8 5.2 -2.2
v 2.3 5.2 -2.2
v 2.4 5.2 -2.2
v 1.6 5.2 -2.3
v 1.8 5.2 -2.3
v 1.9 5.2 -2.3
v 2.2 5.2 -2.3
v 2.3 5.2 -2.3
v 2.4 5.2 -2.3
v 1.8 5.2 -2.4
v 1.9 5.2 -2.4
v 2.2 5.2 -2.4
v 2.3 5.2 -2.4
v 1.8 5.3 -1.5
v 1.9 5.3 -1.5
v 2.1 5.3 -1.5
v 2.2 5.3 -1.5
v 1.8 5.3 -1.6
v 1.9 5.3 -1.6
v 2.1 5.3 -1.6
v 2.2 5.3 -1.6
v 2.4 5.3 -1.6
v 2.5 5.3 -1.6
v 2.4 5.3 -1.7
v 2.5 5.3 -1.7
v 1.6 5.3 -1.8
v 1.7 5.3 -1.8
v 2.4 5.3 -1.8
v 2.5 5.3 -1.8
v 1.6 5.3 -1.9
v 1.7 5.3 -1.9
v 1.6 5.3 -2
v 1.7 5.3 -2
v 1.6 5.3 -2.1
v 1.7 5.3 -2.1
v 2.4 5.3 -2.1
v 2.5 5.3 -2.1
v 2.1 5.3 -2.3
v 2.2 5.3 -2.3
v 2.3 5.3 -2.3
v 2.4 5.3 -2.3
v 2.1 5.3 -2.4
v 2.2 5.3 -2.4
v 2.3 5.3 -2.4
v 2.4 5.3 -2.4
v 2.3 5.4 -1.5
v 2.4 5.4 -1.5
v 2.3 5.4 -1.6
v 2.4 5.4 -1.6
v 1.5 2.4 -1.6
v 1.6 2.4 -1.6
v 2.5 2.4 -1.6
v 2.6 2.4 -1.6
v 1.5 2.4 -1.7
v 1.6 2.4 -1.7
v 2.5 2.4 -1.7
v 2.6 2.4 -1.7
v 1.5 2.4 -2.2
v 1.6 2.4 -2.2
v 2.5 2.4 -2.2
v 2.6 2.4 -2.2
v 1.5 2.4 -2.3
v 1.6 2.4 -2.3
v 2.5 2.4 -2.3
v 2.6 2.4 -2.3
v 1.3 2.5 -1.5
v 1.5 2.5 -1.5
v 2.6 2.5 -1.5
v 2.8 2.5 -1.5
v 1.3 2.5 -1.8
v 1.5 2.5 -1.8
v 2.6 2.5 -1.8
v 2.8 2.5 -1.8
v 1.3 2.5 -2.1
v 1.5 2.5 -2.1
v 2.6 2.5 -2.1
v 2.8 2.5 -2.1
v 1.3 2.5 -2.4
v 1.5 2.5 -2.4
v 2.6 2.5 -2.4
v 2.8 2.5 -2.4
v 1.6 3.4 -1.5
v 2.5 3.4 -1.5
v 1.8 3.4 -1.6
v 2.3 3.4 -1.6
v 1.7 3.4 -1.7
v 1.8 3.4 -1.7
v 2.3 3.4 -1.7
v 2.4 3.4 -1.7
v 1.7 3.4 -2.2
v 1.8 3.4 -2.2
v 2.3 3.4 -2.2
v 2.4 3.4 -2.2
v 1.8 3.4 -2.3
v 2.3 3.4 -2.3
v 1.6 3.4 -2.4
v 2.5 3.4 -2.4
v 1.5 3.5 -1.4
v 2.6 3.5 -1.4
v 1.6 3.5 -1.5
v 2.1 3.5 -1.5
v 2.2 3.5 -1.5
v 2.5 3.5 -1.5
v 1.6 3.5 -2.4
v 1.8 3.5 -2.4
v 1.9 3.5 -2.4
v 2.5 3.5 -2.4
v 1.5 3.5 -2.5
v 2.6 3.5 -2.5
v 2.1 3.6 -1.5
v 2.2 3.6 -1.5
v 2.1 3.6 -1.6
v 2.2 3.6 -1.6
v 1.8 3.6 -2.3
v 1.9 3.6 -2.3
v 1.8 3.6 -2.4
v 1.9 3.6 -2.4
v 1.9 3.7 -1.5
v 2 3.7 -1.5
v 1.9 3.7 -1.6
v 2 3.7 -1.6
v 1.6 3.7 -2.2
v 1.7 3.7 -2.2
v 1.6 3.7 -2.3
v 1.7 3.7 -2.3
v 2.2 3.7 -2.3
v 2.3 3.7 -2.3
v 2.2 3.7 -2.4
v 2.3 3.7 -2.4
v 2.6 3.8 -1.7
v 2.7 3.8 -1.7
v 2.6 3.8 -1.8
v 2.7 3.8 -1.8
v 2.5 3.8 -2.1
v 2.6 3.8 -2.1
v 2.5 3.8 -2.2
v 2.6 3.8 -2.2
v 1.7 3.9 -1.5
v 1.8 3.9 -1.5
v 1.7 3.9 -1.6
v 1.8 3.9 -1.6
v 1.6 3.9 -1.8
v 1.7 3.9 -1.8
v 1.6 3.9 -1.9
v 1.7 3.9 -1.9
v 2.1 3.9 -2.3
v 2.2 3.9 -2.3
v 2.1 3.9 -2.4
v 2.2 3.9 -2.4
v 2.2 4 -1.5
v 2.3 4 -1.5
v 2.2 4 -1.6
v 2.3 4 -1.6
v 2.4 4 -1.6
v 2.5 4 -1.6
v 2.4 4 -1.7
v 2.5 4 -1.7
v 2.4 4 -1.8
v 2.7 4 -1.8
v 3.1 4 -1.9
v 3.2 4 -1.9
v 3.1 4 -2
v 3.2 4 -2
v 2.4 4 -2.1
v 2.7 4 -2.1
v 2.7 4.1 -1.8
v 2.8 4.1 -1.8
v 2.7 4.1 -2.1
v 2.8 4.1 -2.1
v 1.8 4.1 -2.3
v 1.9 4.1 -2.3
v 1.8 4.1 -2.4
v 1.9 4.1 -2.4
v 1.9 4.3 -1.5
v 2.2 4.3 -1.5
v 1.9 4.3 -1.6
v 2.2 4.3 -1.6
v 2.9 4.3 -1.7
v 3 4.3 -1.7
v 2.9 4.3 -1.8
v 3 4.3 -1.8
v 3.1 4.3 -1.8
v 3.2 4.3 -1.8
v 3.1 4.3 -1.9
v 3.2 4.3 -1.9
v 2.4 4.3 -2.1
v 2.5 4.3 -2.1
v 2.4 4.3 -2.2
v 2.5 4.3 -2.2
v 2.2 4.3 -2.3
v 2.3 4.3 -2.3
v 2.2 4.3 -2.4
v 2.3 4.3 -2.4
v 1.8 4.4 -1.5
v 1.9 4.4 -1.5
v 2.2 4.4 -1.5
v 2.3 4.4 -1.5
v 1.8 4.4 -1.6
v 1.9 4.4 -1.6
v 2.2 4.4 -1.6
v 2.3 4.4 -1.6
v 0.9 4.4 -1.9
v 1 4.4 -1.9
v 0.9 4.4 -2
v 1 4.4 -2
v 1.8 4.4 -2.3
v 1.9 4.4 -2.3
v 1.8 4.4 -2.4
v 1.9 4.4 -2.4
v 1.3 4.5 -1.7
v 1.4 4.5 -1.7
v 1.3 4.5 -1.8
v 1.4 4.5 -1.8
v 1.7 4.5 -1.8
v 2.8 4.5 -1.8
v 2.9 4.5 -1.8
v 3 4.5 -1.8
v 3.1 4.5 -1.8
v 1.6 4.5 -1.9
v 1.7 4.5 -1.9
v 2.8 4.5 -1.9
v 2.9 4.5 -1.9
v 3 4.5 -1.9
v 3.1 4.5 -1.9
v 1.6 4.5 -2
v 1.7 4.5 -2
v 2.8 4.5 -2
v 2.9 4.5 -2
v 3 4.5 -2
v 3.1 4.5 -2
v 1.3 4.5 -2.1
v 1.4 4.5 -2.1
v 1.7 4.5 -2.1
v 2.8 4.5 -2.1
v 2.9 4.5 -2.1
v 3 4.5 -2.1
v 3.1 4.5 -2.1
v 1.3 4.5 -2.2
v 1.4 4.5 -2.2
v 1.9 4.6 -1.5
v 2 4.6 -1.5
v 1.9 4.6 -1.6
v 2 4.6 -1.6
v 1.1 4.6 -1.7
v 1.2 4.6 -1.7
v 1.1 4.6 -1.8
v 1.2 4.6 -1.8
v 1.3 4.6 -1.8
v 1.4 4.6 -1.8
v 2.9 4.6 -1.8
v 3 4.6 -1.8
v 1.6 4.6 -1.9
v 1.7 4.6 -1.9
v 2.8 4.6 -1.9
v 2.9 4.6 -1.9
v 3 4.6 -1.9
v 3.1 4.6 -1.9
v 1.6 4.6 -2
v 1.7 4.6 -2
v 2.8 4.6 -2
v 2.9 4.6 -2
v 3 4.6 -2
v 3.1 4.6 -2
v 1.3 4.6 -2.1
v 1.4 4.6 -2.1
v 2.9 4.6 -2.1
v 3 4.6 -2.1
v 2.1 4.6 -2.3
v 2.2 4.6 -2.3
v 2.1 4.6 -2.4
v 2.2 4.6 -2.4
v 2.9 4.7 -1.9
v 3 4.7 -1.9
v 0.9 4.7 -2
v 1 4.7 -2
v 2.9 4.7 -2
v 3 4.7 -2
v 0.9 4.7 -2.1
v 1 4.7 -2.1
v 1.7 4.7 -2.3
v 1.8 4.7 -2.3
v 1.7 4.7 -2.4
v 1.8 4.7 -2.4
v 1.3 4.8 -1.9
v 1.4 4.8 -1.9
v 1.3 4.8 -2
v 1.4 4.8 -2
v 2.4 4.8 -2.1
v 2.5 4.8 -2.1
v 2.4 4.8 -2.2
v 2.5 4.8 -2.2
v 1 4.9 -1.7
v 1.1 4.9 -1.7
v 1 4.9 -1.8
v 1.1 4.9 -1.8
v 1.6 4.9 -1.8
v 1.7 4.9 -1.8
v 1.6 4.9 -1.9
v 1.7 4.9 -1.9
v 1.1 4.9 -2.1
v 1.2 4.9 -2.1
v 1.1 4.9 -2.2
v 1.2 4.9 -2.2
v 2.1 4.9 -2.3
v 2.2 4.9 -2.3
v 2.1 4.9 -2.4
v 2.2 4.9 -2.4
v 1.6 5 -1.5
v 1.9 5 -1.5
v 2.2 5 -1.5
v 2.5 5 -1.5
v 1.7 5 -1.6
v 1.9 5 -1.6
v 2.2 5 -1.6
v 2.4 5 -1.6
v 2.5 5 -1.6
v 1.6 5 -1.7
v 1.7 5 -1.7
v 2.4 5 -1.7
v 2.5 5 -1.7
v 1 5 -1.8
v 1.1 5 -1.8
v 1.2 5 -1.8
v 1.3 5 -1.8
v 2.4 5 -1.8
v 2.5 5 -1.8
v 1 5 -1.9
v 1.1 5 -1.9
v 1.2 5 -1.9
v 1.3 5 -1.9
v 2.4 5 -1.9
v 2.5 5 -1.9
v 1 5 -2
v 1.1 5 -2
v 1.2 5 -2
v 1.3 5 -2
v 1 5 -2.1
v 1.1 5 -2.1
v 1.2 5 -2.1
v 1.3 5 -2.1
v 2.1 5.1 -1.5
v 2.2 5.1 -1.5
v 1.7 5.1 -1.6
v 1.8 5.1 -1.6
v 2.1 5.1 -1.6
v 2.2 5.1 -1.6
v 2.3 5.1 -1.6
v 2.4 5.1 -1.6
v 2.5 5.1 -1.6
v 1.7 5.1 -1.7
v 1.8 5.1 -1.7
v 2.3 5.1 -1.7
v 2.4 5.1 -1.7
v 2.5 5.1 -1.7
v 1.1 5.1 -1.8
v 1.2 5.1 -1.8
v 1 5.1 -1.9
v 1.1 5.1 -1.9
v 1.2 5.1 -1.9
v 1.3 5.1 -1.9
v 1 5.1 -2
v 1.1 5.1 -2
v 1.2 5.1 -2
v 1.3 5.1 -2
v 2.4 5.1 -2
v 2.5 5.1 -2
v 1.1 5.1 -2.1
v 1.2 5.1 -2.1
v 1.6 5.1 -2.1
v 1.7 5.1 -2.1
v 2.4 5.1 -2.1
v 2.5 5.1 -2.1
v 1.6 5.1 -2.2
v 1.7 5.1 -2.2
v 1.8 5.1 -2.2
v 2.3 5.1 -2.2
v 2.4 5.1 -2.2
v 1.7 5.1 -2.3
v 1.8 5.1 -2.3
v 1.9 5.1 -2.3
v 2 5.1 -2.3
v 2.3 5.1 -2.3
v 2.4 5.1 -2.3
v 1.9 5.1 -2.4
v 2 5.1 -2.4
v 2.3 5.1 -2.4
v 2.4 5.1 -2.4
v 1.1 5.2 -1.9
v 1.2 5.2 -1.9
v 1.1 5.2 -2
v 1.2 5.2 -2
v 1.9 5.3 -1.5
v 2 5.3 -1.5
v 2.3 5.3 -1.5
v 2.4 5.3 -1.5
v 1.6 5.3 -1.6
v 1.7 5.3 -1.6
v 1.9 5.3 -1.6
v 2 5.3 -1.6
v 2.3 5.3 -1.6
v 2.4 5.3 -1.6
v 1.6 5.3 -1.8
v 1.7 5.3 -1.8
v 1.6 5.3 -1.9
v 1.7 5.3 -1.9
v 1.6 5.3 -2
v 1.7 5.3 -2
v 1.6 5.3 -2.2
v 1.7 5.3 -2.2
v 1.6 5.3 -2.3
v 1.7 5.3 -2.3
v 1.8 5.3 -2.3
v 1.9 5.3 -2.3
v 2.2 5.3 -2.3
v 2.3 5.3 -2.3
v 1.8 5.3 -2.4
v 1.9 5.3 -2.4
v 2.2 5.3 -2.4
v 2.3 5.3 -2.4
v 1.7 5.4 -1.5
v 1.9 5.4 -1.5
v 2.1 5.4 -1.5
v 2.2 5.4 -1.5
v 1.7 5.4 -1.6
v 1.8 5.4 -1.6
v 1.9 5.4 -1.6
v 2 5.4 -1.6
v 2.1 5.4 -1.6
v 2.2 5.4 -1.6
v 2.4 5.4 -1.6
v 2.5 5.4 -1.6
v 1.7 5.4 -1.7
v 1.8 5.4 -1.7
v 1.9 5.4 -1.7
v 2 5.4 -1.7
v 2.1 5.4 -1.7
v 2.2 5.4 -1.7
v 2.3 5.4 -1.7
v 2.4 5.4 -1.7
v 2.5 5.4 -1.7
v 1.6 5.4 -1.8
v 1.7 5.4 -1.8
v 1.8 5.4 -1.8
v 1.9 5.4 -1.8
v 2.1 5.4 -1.8
v 2.3 5.4 -1.8
v 2.4 5.4 -1.8
v 2.5 5.4 -1.8
v 1.6 5.4 -1.9
v 1.7 5.4 -1.9
v 1.8 5.4 -1.9
v 2.1 5.4 -1.9
v 2.3 5.4 -1.9
v 2.4 5.4 -1.9
v 1.6 5.4 -2
v 1.7 5.4 -2
v 1.8 5.4 -2
v 1.9 5.4 -2
v 2.2 5.4 -2
v 2.3 5.4 -2
v 2.4 5.4 -2
v 2.5 5.4 -2
v 1.6 5.4 -2.1
v 1.7 5.4 -2.1
v 1.8 5.4 -2.1
v 1.9 5.4 -2.1
v 2.1 5.4 -2.1
v 2.2 5.4 -2.1
v 2.3 5.4 -2.1
v 2.4 5.4 -2.1
v 1.8 5.4 -2.2
v 1.9 5.4 -2.2
v 2.1 5.4 -2.2
v 2.2 5.4 -2.2
v 1.7 5.4 -2.3
v 2.1 5.4 -2.3
v 2.2 5.4 -2.3
v 2.3 5.4 -2.3
v 2.1 5.4 -2.4
v 2.2 5.4 -2.4
v 2.3 5.4 -2.4
v 2.4 5.4 -2.4
v 2.3 5.5 -1.5
v 2.4 5.5 -1.5
v 1.7 5.5 -1.6
v 1.8 5.5 -1.6
v 2 5.5 -1.6
v 2.1 5.5 -1.6
v 2.2 5.5 -1.6
v 2.3 5.5 -1.6
v 1.7 5.5 -1.7
v 1.8 5.5 -1.7
v 1.9 5.5 -1.7
v 2 5.5 -1.7
v 2.1 5.5 -1.7
v 2.2 5.5 -1.7
v 2.3 5.5 -1.7
v 2.4 5.5 -1.7
v 1.8 5.5 -1.8
v 1.9 5.5 -1.8
v 2.1 5.5 -1.8
v 2.3 5.5 -1.8
v 2.4 5.5 -1.8
v 1.8 5.5 -1.9
v 2.1 5.5 -1.9
v 2.3 5.5 -1.9
v 2.4 5.5 -1.9
v 1.8 5.5 -2
v 1.9 5.5 -2
v 2.2 5.5 -2
v 2.3 5.5 -2
v 2.4 5.5 -2
v 2.5 5.5 -2
v 1.8 5.5 -2.1
v 1.9 5.5 -2.1
v 2.1 5.5 -2.1
v 2.2 5.5 -2.1
v 2.3 5.5 -2.1
v 2.4 5.5 -2.1
v 2.5 5.5 -2.1
v 1.8 5.5 -2.2
v 1.9 5.5 -2.2
v 2.1 5.5 -2.2
v 2.2 5.5 -2.2

# faces
f 3/3/1 2/3/1 1/3/1
f 4/3/1 2/3/1 3/3/1
f 7/3/1 6/3/1 5/3/1
f 8/3/1 6/3/1 7/3/1
f 13/2/1 10/2/1 9/2/1
f 14/2/1 12/2/1 11/2/1
f 15/2/1 12/2/1 14/2/1
f 15/2/1 14/2/1 13/2/1
f 16/2/1 12/2/1 15/2/1
f 17/2/1 15/2/1 13/2/1
f 20/2/1 13/2/1 9/2/1
f 20/2/1 18/2/1 17/2/1
f 20/2/1 17/2/1 13/2/1
f 21/3/1 20/3/1 19/3/1
f 22/2/1 18/2/1 20/2/1
f 22/3/1 20/3/1 21/3/1
f 23/2/1 18/2/1 22/2/1
f 24/2/1 18/2/1 23/2/1
f 25/2/1 18/2/1 24/2/1
f 26/2/1 18/2/1 25/2/1
f 27/2/1 25/2/1 24/2/1
f 28/2/1 25/2/1 27/2/1
f 32/3/1 30/3/1 29/3/1
f 33/3/1 30/3/1 32/3/1
f 34/2/1 32/2/1 31/2/1
f 34/2/1 33/2/1 32/2/1
f 35/2/1 33/2/1 34/2/1
f 38/3/1 37/3/1 36/3/1
f 39/3/1 37/3/1 38/3/1
f 42/3/1 41/3/1 40/3/1
f 43/3/1 41/3/1 42/3/1
f 48/2/1 45/2/1 44/2/1
f 49/2/1 45/2/1 48/2/1
f 50/2/1 47/2/1 46/2/1
f 51/2/1 47/2/1 50/2/1
f 52/3/1 50/3/1 49/3/1
f 53/3/1 50/3/1 52/3/1
f 58/5/1 55/5/1 54/5/1
f 59/5/1 55/5/1 58/5/1
f 60/5/1 57/5/1 56/5/1
f 61/5/1 57/5/1 60/5/1
f 62/5/1 58/5/1 54/5/1
f 62/10/1 59/10/1 58/10/1
f 63/5/1 55/5/1 59/5/1
f 63/10/1 59/10/1 62/10/1
f 64/10/1 61/10/1 60/10/1
f 64/5/1 60/5/1 56/5/1
f 65/5/1 57/5/1 61/5/1
f 65/10/1 61/10/1 64/10/1
f 66/5/1 62/5/1 54/5/1
f 66/5/1 63/5/1 62/5/1
f 67/5/1 55/5/1 63/5/1
f 67/5/1 63/5/1 66/5/1
f 68/5/1 64/5/1 56/5/1
f 68/5/1 65/5/1 64/5/1
f 69/5/1 57/5/1 65/5/1
f 69/5/1 65/5/1 68/5/1
f 74/3/1 71/3/1 70/3/1
f 75/3/1 71/3/1 74/3/1
f 76/3/1 73/3/1 72/3/1
f 77/3/1 73/3/1 76/3/1
f 80/3/1 79/3/1 78/3/1
f 81/3/1 79/3/1 80/3/1
f 84/7/1 83/7/1 82/7/1
f 85/7/1 83/7/1 84/7/1
f 86/6/1 85/6/1 84/6/1
f 87/6/1 85/6/1 86/6/1
f 94/6/1 89/6/1 88/6/1
f 95/6/1 89/6/1 94/6/1
f 96/6/1 91/6/1 90/6/1
f 97/6/1 91/6/1 96/6/1
f 98/6/1 93/6/1 92/6/1
f 99/6/1 93/6/1 98/6/1
f 100/7/1 97/7/1 96/7/1
f 100/7/1 95/7/1 94/7/1
f 100/7/1 99/7/1 98/7/1
f 100/7/1 98/7/1 97/7/1
f 100/7/1 96/7/1 95/7/1
f 101/7/1 99/7/1 100/7/1
f 102/6/1 101/6/1 100/6/1
f 103/6/1 101/6/1 102/6/1
f 104/7/1 103/7/1 102/7/1
f 105/7/1 103/7/1 104/7/1
f 106/6/1 105/6/1 104/6/1
f 107/6/1 105/6/1 106/6/1
f 108/7/1 107/7/1 106/7/1
f 109/7/1 107/7/1 108/7/1
f 110/6/1 109/6/1 108/6/1
f 111/6/1 109/6/1 110/6/1
f 114/3/1 113/3/1 112/3/1
f 115/3/1 113/3/1 114/3/1
f 118/3/1 117/3/1 116/3/1
f 119/3/1 117/3/1 118/3/1
f 122/3/1 121/3/1 120/3/1
f 123/3/1 121/3/1 122/3/1
f 128/3/1 127/3/1 126/3/1
f 129/3/1 127/3/1 128/3/1
f 130/9/1 125/9/1 124/9/1
f 131/9/1 125/9/1 130/9/1
f 136/3/1 133/3/1 132/3/1
f 137/3/1 133/3/1 136/3/1
f 140/4/1 135/4/1 134/4/1
f 141/4/1 135/4/1 140/4/1
f 144/12/1 139/12/1 138/12/1
f 145/12/1 139/12/1 144/12/1
f 146/12/1 141/12/1 140/12/1
f 147/12/1 141/12/1 146/12/1
f 149/12/1 143/12/1 142/12/1
f 150/12/1 143/12/1 149/12/1
f 151/12/1 146/12/1 145/12/1
f 152/12/1 146/12/1 151/12/1
f 153/12/1 148/12/1 147/12/1
f 154/12/1 148/12/1 153/12/1
f 158/2/1 156/2/1 155/2/1
f 159/2/1 156/2/1 158/2/1
f 161/11/1 158/11/1 157/11/1
f 161/11/1 160/11/1 159/11/1
f 161/11/1 159/11/1 158/11/1
f 162/11/1 160/11/1 161/11/1
f 163/11/1 161/11/1 157/11/1
f 166/11/1 163/11/1 157/11/1
f 166/11/1 164/11/1 163/11/1
f 167/11/1 164/11/1 166/11/1
f 168/11/1 164/11/1 167/11/1
f 169/3/1 166/3/1 165/3/1
f 170/11/1 167/11/1 166/11/1
f 170/3/1 166/3/1 169/3/1
f 171/11/1 167/11/1 170/11/1
f 172/11/1 164/11/1 168/11/1
f 173/11/1 171/11/1 170/11/1
f 173/11/1 172/11/1 171/11/1
f 174/11/1 172/11/1 173/11/1
f 175/11/1 164/11/1 172/11/1
f 175/11/1 172/11/1 174/11/1
f 176/11/1 164/11/1 175/11/1
f 177/2/1 174/2/1 173/2/1
f 180/2/1 176/2/1 175/2/1
f 181/2/1 178/2/1 177/2/1
f 182/2/1 180/2/1 179/2/1
f 183/2/1 176/2/1 180/2/1
f 183/2/1 180/2/1 182/2/1
f 185/2/1 183/2/1 182/2/1
f 185/2/1 181/2/1 177/2/1
f 185/2/1 182/2/1 181/2/1
f 185/2/1 177/2/1 173/2/1
f 186/2/1 183/2/1 185/2/1
f 187/3/1 184/3/1 183/3/1
f 187/2/1 183/2/1 186/2/1
f 188/3/1 184/3/1 187/3/1
f 189/2/1 187/2/1 186/2/1
f 190/2/1 187/2/1 189/2/1
f 191/2/1 189/2/1 186/2/1
f 192/2/1 187/2/1 190/2/1
f 194/2/1 191/2/1 186/2/1
f 194/2/1 192/2/1 191/2/1
f 195/2/1 187/2/1 192/2/1
f 195/2/1 192/2/1 194/2/1
f 196/2/1 187/2/1 195/2/1
f 197/2/1 194/2/1 193/2/1
f 197/2/1 195/2/1 194/2/1
f 198/2/1 195/2/1 197/2/1
f 199/2/1 195/2/1 198/2/1
f 200/2/1 195/2/1 199/2/1
f 201/2/1 195/2/1 200/2/1
f 202/2/1 187/2/1 196/2/1
f 203/2/1 187/2/1 202/2/1
f 206/2/1 199/2/1 198/2/1
f 207/2/1 199/2/1 206/2/1
f 208/2/1 199/2/1 207/2/1
f 209/2/1 201/2/1 200/2/1
f 209/2/1 202/2/1 201/2/1
f 210/2/1 202/2/1 209/2/1
f 211/2/1 202/2/1 210/2/1
f 212/12/1 205/12/1 204/12/1
f 213/12/1 208/12/1 207/12/1
f 214/12/1 208/12/1 213/12/1
f 215/3/1 210/3/1 209/3/1
f 216/12/1 211/12/1 210/12/1
f 216/3/1 210/3/1 215/3/1
f 217/12/1 211/12/1 216/12/1
f 219/12/1 212/12/1 204/12/1
f 219/12/1 213/12/1 212/12/1
f 220/12/1 213/12/1 219/12/1
f 221/12/1 213/12/1 220/12/1
f 222/12/1 213/12/1 221/12/1
f 223/12/1 215/12/1 214/12/1
f 224/12/1 215/12/1 223/12/1
f 225/12/1 218/12/1 217/12/1
f 225/12/1 217/12/1 216/12/1
f 226/12/1 218/12/1 225/12/1
f 227/12/1 221/12/1 220/12/1
f 228/12/1 221/12/1 227/12/1
f 233/2/1 230/2/1 229/2/1
f 234/2/1 230/2/1 233/2/1
f 235/2/1 232/2/1 231/2/1
f 236/2/1 232/2/1 235/2/1
f 238/3/1 237/3/1 236/3/1
f 239/3/1 237/3/1 238/3/1
f 242/3/1 241/3/1 240/3/1
f 243/3/1 241/3/1 242/3/1
f 248/13/1 245/13/1 244/13/1
f 249/13/1 245/13/1 248/13/1
f 250/3/1 247/3/1 246/3/1
f 251/3/1 247/3/1 250/3/1
f 256/2/1 253/2/1 252/2/1
f 257/2/1 253/2/1 256/2/1
f 258/2/1 255/2/1 254/2/1
f 259/2/1 255/2/1 258/2/1
f 261/12/1 260/12/1 259/12/1
f 262/12/1 260/12/1 261/12/1
f 269/12/1 264/12/1 263/12/1
f 270/12/1 264/12/1 269/12/1
f 271/12/1 266/12/1 265/12/1
f 272/12/1 266/12/1 271/12/1
f 273/12/1 268/12/1 267/12/1
f 274/12/1 268/12/1 273/12/1
f 277/3/1 276/3/1 275/3/1
f 278/3/1 276/3/1 277/3/1
f 281/13/1 280/13/1 279/13/1
f 282/13/1 280/13/1 281/13/1
f 285/4/1 284/4/1 283/4/1
f 286/4/1 284/4/1 285/4/1
f 289/3/1 288/3/1 287/3/1
f 290/3/1 288/3/1 289/3/1
f 293/12/1 292/12/1 291/12/1
f 294/12/1 292/12/1 293/12/1
f 297/12/1 296/12/1 295/12/1
f 298/12/1 296/12/1 297/12/1
f 301/12/1 300/12/1 299/12/1
f 302/12/1 300/12/1 301/12/1
f 305/3/1 304/3/1 303/3/1
f 306/3/1 304/3/1 305/3/1
f 309/3/1 308/3/1 307/3/1
f 310/3/1 308/3/1 309/3/1
f 313/3/1 312/3/1 311/3/1
f 314/3/1 312/3/1 313/3/1
f 317/3/1 316/3/1 315/3/1
f 318/3/1 316/3/1 317/3/1
f 321/4/1 320/4/1 319/4/1
f 322/4/1 320/4/1 321/4/1
f 327/12/1 324/12/1 323/12/1
f 328/12/1 324/12/1 327/12/1
f 333/12/1 326/12/1 325/12/1
f 334/12/1 326/12/1 333/12/1
f 335/12/1 330/12/1 329/12/1
f 336/12/1 330/12/1 335/12/1
f 337/12/1 332/12/1 331/12/1
f 338/12/1 332/12/1 337/12/1
f 341/3/1 340/3/1 339/3/1
f 342/3/1 340/3/1 341/3/1
f 345/3/1 344/3/1 343/3/1
f 346/3/1 344/3/1 345/3/1
f 351/3/1 348/3/1 347/3/1
f 352/3/1 348/3/1 351/3/1
f 353/13/1 350/13/1 349/13/1
f 354/13/1 350/13/1 353/13/1
f 357/9/1 356/9/1 355/9/1
f 358/9/1 356/9/1 357/9/1
f 361/12/1 360/12/1 359/12/1
f 362/12/1 360/12/1 361/12/1
f 367/12/1 364/12/1 363/12/1
f 368/12/1 364/12/1 367/12/1
f 369/12/1 366/12/1 365/12/1
f 370/12/1 366/12/1 369/12/1
f 373/3/1 372/3/1 371/3/1
f 374/3/1 372/3/1 373/3/1
f 377/12/1 376/12/1 375/12/1
f 378/12/1 376/12/1 377/12/1
f 385/12/1 380/12/1 379/12/1
f 386/12/1 380/12/1 385/12/1
f 387/12/1 382/12/1 381/12/1
f 388/12/1 382/12/1 387/12/1
f 389/12/1 384/12/1 383/12/1
f 390/12/1 384/12/1 389/12/1
f 393/12/1 392/12/1 391/12/1
f 394/12/1 392/12/1 393/12/1
f 397/6/1 396/6/1 395/6/1
f 398/6/1 396/6/1 397/6/1
f 401/3/1 400/3/1 399/3/1
f 402/3/1 400/3/1 401/3/1
f 407/5/1 404/5/1 403/5/1
f 408/5/1 404/5/1 407/5/1
f 409/5/1 406/5/1 405/5/1
f 410/5/1 406/5/1 409/5/1
f 411/5/1 407/5/1 403/5/1
f 412/5/1 404/5/1 408/5/1
f 413/5/1 409/5/1 405/5/1
f 414/5/1 406/5/1 410/5/1
f 415/5/1 411/5/1 403/5/1
f 415/5/1 412/5/1 411/5/1
f 416/5/1 404/5/1 412/5/1
f 416/5/1 412/5/1 415/5/1
f 417/5/1 414/5/1 413/5/1
f 417/5/1 413/5/1 405/5/1
f 418/5/1 406/5/1 414/5/1
f 418/5/1 414/5/1 417/5/1
f 421/3/1 420/3/1 419/3/1
f 422/3/1 420/3/1 421/3/1
f 425/2/1 424/2/1 423/2/1
f 426/2/1 424/2/1 425/2/1
f 429/3/1 428/3/1 427/3/1
f 430/3/1 428/3/1 429/3/1
f 433/2/1 432/2/1 431/2/1
f 434/2/1 432/2/1 433/2/1
f 435/2/1 432/2/1 434/2/1
f 436/2/1 432/2/1 435/2/1
f 437/2/1 435/2/1 434/2/1
f 438/2/1 435/2/1 437/2/1
f 441/3/1 440/3/1 439/3/1
f 442/3/1 440/3/1 441/3/1
f 447/2/1 444/2/1 443/2/1
f 448/2/1 444/2/1 447/2/1
f 449/2/1 446/2/1 445/2/1
f 450/2/1 446/2/1 449/2/1
f 451/3/1 449/3/1 448/3/1
f 452/3/1 449/3/1 451/3/1
f 453/3/2 454/3/2 455/3/2
f 455/3/2 454/3/2 456/3/2
f 457/3/2 458/3/2 459/3/2
f 459/3/2 458/3/2 460/3/2
f 461/3/2 462/3/2 463/3/2
f 463/3/2 462/3/2 464/3/2
f 465/3/2 466/3/2 467/3/2
f 467/3/2 466/3/2 468/3/2
f 469/2/2 470/2/2 473/2/2
f 473/2/2 470/2/2 474/2/2
f 471/2/2 472/2/2 475/2/2
f 475/2/2 472/2/2 476/2/2
f 474/3/2 475/3/2 477/3/2
f 477/3/2 475/3/2 478/3/2
f 479/2/2 480/2/2 481/2/2
f 481/2/2 480/2/2 482/2/2
f 479/2/2 481/2/2 483/2/2
f 482/2/2 480/2/2 484/2/2
f 479/2/2 483/2/2 485/2/2
f 483/2/2 484/2/2 485/2/2
f 485/2/2 484/2/2 486/2/2
f 484/2/2 480/2/2 487/2/2
f 486/2/2 484/2/2 487/2/2
f 487/2/2 480/2/2 488/2/2
f 486/2/2 487/2/2 489/2/2
f 489/2/2 487/2/2 490/2/2
f 491/3/2 492/3/2 495/3/2
f 495/3/2 492/3/2 496/3/2
f 493/3/2 494/3/2 497/3/2
f 497/3/2 494/3/2 498/3/2
f 496/2/2 497/2/2 499/2/2
f 499/2/2 497/2/2 500/2/2
f 501/3/2 502/3/2 503/3/2
f 503/3/2 502/3/2 504/3/2
f 505/5/2 506/5/2 509/5/2
f 509/5/2 506/5/2 510/5/2
f 507/5/2 508/5/2 511/5/2
f 511/5/2 508/5/2 512/5/2
f 505/5/2 509/5/2 513/5/2
f 510/5/2 506/5/2 514/5/2
f 507/5/2 511/5/2 515/5/2
f 512/5/2 508/5/2 516/5/2
f 505/5/2 513/5/2 517/5/2
f 513/5/2 514/5/2 517/5/2
f 514/5/2 506/5/2 518/5/2
f 517/5/2 514/5/2 518/5/2
f 515/5/2 516/5/2 519/5/2
f 507/5/2 515/5/2 519/5/2
f 516/5/2 508/5/2 520/5/2
f 519/5/2 516/5/2 520/5/2
f 521/3/2 522/3/2 523/3/2
f 523/3/2 522/3/2 524/3/2
f 525/6/2 526/6/2 527/6/2
f 527/6/2 526/6/2 528/6/2
f 529/3/2 530/3/2 531/3/2
f 531/3/2 530/3/2 532/3/2
f 533/3/2 534/3/2 535/3/2
f 535/3/2 534/3/2 536/3/2
f 537/12/2 538/12/2 539/12/2
f 539/12/2 538/12/2 540/12/2
f 541/12/2 542/12/2 543/12/2
f 543/12/2 542/12/2 544/12/2
f 545/3/2 546/3/2 547/3/2
f 547/3/2 546/3/2 548/3/2
f 549/3/2 550/3/2 551/3/2
f 551/3/2 550/3/2 552/3/2
f 553/13/2 554/13/2 557/13/2
f 557/13/2 554/13/2 558/13/2
f 555/3/2 556/3/2 559/3/2
f 559/3/2 556/3/2 560/3/2
f 561/9/2 562/9/2 563/9/2
f 563/9/2 562/9/2 564/9/2
f 565/12/2 566/12/2 569/12/2
f 569/12/2 566/12/2 570/12/2
f 567/12/2 568/12/2 571/12/2
f 571/12/2 568/12/2 572/12/2
f 573/12/2 574/12/2 577/12/2
f 577/12/2 574/12/2 578/12/2
f 575/12/2 576/12/2 579/12/2
f 579/12/2 576/12/2 580/12/2
f 581/3/2 582/3/2 583/3/2
f 583/3/2 582/3/2 584/3/2
f 585/4/2 586/4/2 587/4/2
f 587/4/2 586/4/2 588/4/2
f 589/3/2 590/3/2 591/3/2
f 591/3/2 590/3/2 592/3/2
f 593/12/2 594/12/2 595/12/2
f 595/12/2 594/12/2 596/12/2
f 597/12/2 598/12/2 601/12/2
f 601/12/2 598/12/2 602/12/2
f 599/12/2 600/12/2 603/12/2
f 603/12/2 600/12/2 604/12/2
f 605/3/2 606/3/2 607/3/2
f 607/3/2 606/3/2 608/3/2
f 609/3/2 610/3/2 611/3/2
f 611/3/2 610/3/2 612/3/2
f 613/13/2 614/13/2 615/13/2
f 615/13/2 614/13/2 616/13/2
f 617/3/2 618/3/2 619/3/2
f 619/3/2 618/3/2 620/3/2
f 621/3/2 622/3/2 623/3/2
f 623/3/2 622/3/2 624/3/2
f 625/4/2 626/4/2 627/4/2
f 627/4/2 626/4/2 628/4/2
f 629/12/2 630/12/2 633/12/2
f 633/12/2 630/12/2 634/12/2
f 631/12/2 632/12/2 637/12/2
f 637/12/2 632/12/2 638/12/2
f 635/12/2 636/12/2 639/12/2
f 639/12/2 636/12/2 640/12/2
f 641/2/2 642/2/2 645/2/2
f 645/2/2 642/2/2 646/2/2
f 643/2/2 644/2/2 647/2/2
f 647/2/2 644/2/2 648/2/2
f 649/3/2 650/3/2 651/3/2
f 651/3/2 650/3/2 652/3/2
f 653/3/2 654/3/2 655/3/2
f 655/3/2 654/3/2 656/3/2
f 657/3/2 658/3/2 661/3/2
f 661/3/2 658/3/2 662/3/2
f 659/13/2 660/13/2 663/13/2
f 663/13/2 660/13/2 664/13/2
f 665/2/2 666/2/2 669/2/2
f 669/2/2 666/2/2 670/2/2
f 667/2/2 668/2/2 671/2/2
f 671/2/2 668/2/2 672/2/2
f 672/12/2 673/12/2 674/12/2
f 674/12/2 673/12/2 675/12/2
f 676/12/2 677/12/2 680/12/2
f 680/12/2 677/12/2 681/12/2
f 678/12/2 679/12/2 682/12/2
f 682/12/2 679/12/2 683/12/2
f 684/2/2 685/2/2 687/2/2
f 687/2/2 685/2/2 688/2/2
f 686/11/2 687/11/2 690/11/2
f 688/11/2 689/11/2 690/11/2
f 687/11/2 688/11/2 690/11/2
f 690/11/2 689/11/2 691/11/2
f 686/11/2 690/11/2 692/11/2
f 692/11/2 690/11/2 693/11/2
f 691/11/2 689/11/2 694/11/2
f 686/11/2 692/11/2 695/11/2
f 695/11/2 692/11/2 696/11/2
f 696/11/2 692/11/2 698/11/2
f 698/11/2 692/11/2 699/11/2
f 694/11/2 689/11/2 700/11/2
f 698/11/2 699/11/2 701/11/2
f 699/11/2 700/11/2 701/11/2
f 697/11/2 698/11/2 701/11/2
f 700/11/2 689/11/2 702/11/2
f 701/11/2 700/11/2 702/11/2
f 702/11/2 689/11/2 703/11/2
f 703/11/2 689/11/2 704/11/2
f 701/2/2 702/2/2 705/2/2
f 703/2/2 704/2/2 706/2/2
f 701/2/2 705/2/2 707/2/2
f 705/2/2 706/2/2 707/2/2
f 707/2/2 706/2/2 708/2/2
f 701/2/2 707/2/2 709/2/2
f 709/2/2 707/2/2 710/2/2
f 708/2/2 706/2/2 711/2/2
f 711/2/2 706/2/2 712/2/2
f 706/2/2 704/2/2 713/2/2
f 712/2/2 706/2/2 713/2/2
f 711/2/2 712/2/2 714/2/2
f 713/2/2 704/2/2 715/2/2
f 711/2/2 714/2/2 716/2/2
f 714/2/2 715/2/2 716/2/2
f 716/2/2 715/2/2 717/2/2
f 717/2/2 715/2/2 720/2/2
f 720/2/2 715/2/2 721/2/2
f 721/2/2 715/2/2 722/2/2
f 715/2/2 704/2/2 723/2/2
f 722/2/2 715/2/2 723/2/2
f 718/2/2 719/2/2 725/2/2
f 720/2/2 721/2/2 725/2/2
f 719/2/2 720/2/2 725/2/2
f 725/2/2 721/2/2 726/2/2
f 722/2/2 723/2/2 727/2/2
f 727/2/2 723/2/2 728/2/2
f 723/3/2 724/3/2 729/3/2
f 728/2/2 723/2/2 729/2/2
f 729/3/2 724/3/2 730/3/2
f 725/2/2 726/2/2 732/2/2
f 727/2/2 728/2/2 732/2/2
f 726/2/2 727/2/2 732/2/2
f 732/2/2 728/2/2 733/2/2
f 733/2/2 728/2/2 734/2/2
f 731/12/2 732/12/2 736/12/2
f 736/12/2 732/12/2 737/12/2
f 732/3/2 733/3/2 738/3/2
f 737/12/2 732/12/2 738/12/2
f 734/12/2 735/12/2 739/12/2
f 738/3/2 733/3/2 739/3/2
f 733/12/2 734/12/2 739/12/2
f 739/12/2 735/12/2 740/12/2
f 740/12/2 735/12/2 741/12/2
f 738/12/2 739/12/2 745/12/2
f 745/12/2 739/12/2 746/12/2
f 741/12/2 742/12/2 748/12/2
f 740/12/2 741/12/2 748/12/2
f 748/12/2 742/12/2 749/12/2
f 743/12/2 744/12/2 750/12/2
f 744/12/2 745/12/2 750/12/2
f 750/12/2 745/12/2 751/12/2
f 746/12/2 747/12/2 752/12/2
f 752/12/2 747/12/2 753/12/2
f 754/6/2 755/6/2 760/6/2
f 760/6/2 755/6/2 761/6/2
f 756/6/2 757/6/2 762/6/2
f 762/6/2 757/6/2 763/6/2
f 758/6/2 759/6/2 764/6/2
f 764/6/2 759/6/2 765/6/2
f 762/7/2 763/7/2 766/7/2
f 760/7/2 761/7/2 766/7/2
f 764/7/2 765/7/2 766/7/2
f 763/7/2 764/7/2 766/7/2
f 761/7/2 762/7/2 766/7/2
f 766/7/2 765/7/2 767/7/2
f 766/6/2 767/6/2 768/6/2
f 768/6/2 767/6/2 769/6/2
f 768/7/2 769/7/2 770/7/2
f 770/7/2 769/7/2 771/7/2
f 770/6/2 771/6/2 772/6/2
f 772/6/2 771/6/2 773/6/2
f 772/7/2 773/7/2 774/7/2
f 774/7/2 773/7/2 775/7/2
f 774/6/2 775/6/2 776/6/2
f 776/6/2 775/6/2 777/6/2
f 778/3/2 779/3/2 780/3/2
f 780/3/2 779/3/2 781/3/2
f 782/3/2 783/3/2 784/3/2
f 784/3/2 783/3/2 785/3/2
f 786/3/2 787/3/2 788/3/2
f 788/3/2 787/3/2 789/3/2
f 790/3/2 791/3/2 793/3/2
f 793/3/2 791/3/2 794/3/2
f 795/3/2 796/3/2 797/3/2
f 797/3/2 796/3/2 798/3/2
f 792/9/2 793/9/2 799/9/2
f 793/9/2 794/9/2 799/9/2
f 792/9/2 799/9/2 801/9/2
f 801/9/2 799/9/2 802/9/2
f 802/9/2 799/9/2 803/9/2
f 799/3/2 800/3/2 804/3/2
f 803/9/2 799/9/2 804/9/2
f 804/3/2 800/3/2 805/3/2
f 802/3/2 803/3/2 808/3/2
f 808/3/2 803/3/2 809/3/2
f 806/3/2 807/3/2 810/3/2
f 810/3/2 807/3/2 811/3/2
f 812/12/2 813/12/2 816/12/2
f 816/12/2 813/12/2 817/12/2
f 814/12/2 815/12/2 818/12/2
f 818/12/2 815/12/2 819/12/2
f 819/12/2 815/12/2 820/12/2
f 820/12/2 815/12/2 821/12/2
f 822/7/2 823/7/2 824/7/2
f 824/7/2 823/7/2 825/7/2
f 824/6/2 825/6/2 826/6/2
f 826/6/2 825/6/2 827/6/2
f 828/3/2 829/3/2 830/3/2
f 830/3/2 829/3/2 831/3/2
f 832/3/2 833/3/2 834/3/2
f 834/3/2 833/3/2 835/3/2
f 836/5/2 837/5/2 840/5/2
f 840/5/2 837/5/2 841/5/2
f 838/5/2 839/5/2 842/5/2
f 842/5/2 839/5/2 843/5/2
f 836/5/2 840/5/2 844/5/2
f 840/10/2 841/10/2 844/10/2
f 841/5/2 837/5/2 845/5/2
f 844/10/2 841/10/2 845/10/2
f 842/10/2 843/10/2 846/10/2
f 838/5/2 842/5/2 846/5/2
f 843/5/2 839/5/2 847/5/2
f 846/10/2 843/10/2 847/10/2
f 836/5/2 844/5/2 848/5/2
f 844/5/2 845/5/2 848/5/2
f 845/5/2 837/5/2 849/5/2
f 848/5/2 845/5/2 849/5/2
f 838/5/2 846/5/2 850/5/2
f 846/5/2 847/5/2 850/5/2
f 847/5/2 839/5/2 851/5/2
f 850/5/2 847/5/2 851/5/2
f 852/3/2 853/3/2 854/3/2
f 854/3/2 853/3/2 855/3/2
f 856/2/2 857/2/2 858/2/2
f 858/2/2 857/2/2 859/2/2
f 860/3/2 861/3/2 862/3/2
f 862/3/2 861/3/2 863/3/2
f 864/2/2 865/2/2 868/2/2
f 868/2/2 865/2/2 869/2/2
f 866/2/2 867/2/2 870/2/2
f 870/2/2 867/2/2 871/2/2
f 869/3/2 870/3/2 872/3/2
f 872/3/2 870/3/2 873/3/2
f 874/2/2 875/2/2 876/2/2
f 876/2/2 875/2/2 877/2/2
f 874/2/2 876/2/2 878/2/2
f 877/2/2 875/2/2 879/2/2
f 874/2/2 878/2/2 880/2/2
f 878/2/2 879/2/2 880/2/2
f 880/2/2 879/2/2 881/2/2
f 881/2/2 879/2/2 883/2/2
f 882/2/2 883/2/2 884/2/2
f 883/2/2 879/2/2 885/2/2
f 884/2/2 883/2/2 885/2/2
f 879/2/2 875/2/2 886/2/2
f 885/2/2 879/2/2 886/2/2
f 886/2/2 875/2/2 887/2/2
f 885/2/2 886/2/2 888/2/2
f 888/2/2 886/2/2 889/2/2
f 890/3/2 891/3/2 892/3/2
f 892/3/2 891/3/2 893/3/2
f 894/3/2 895/3/2 896/3/2
f 896/3/2 895/3/2 897/3/2
f 901/7/3 899/7/3 898/7/3
f 902/6/3 900/6/3 899/6/3
f 902/7/3 899/7/3 901/7/3
f 903/6/3 900/6/3 902/6/3
f 906/5/3 905/5/3 904/5/3
f 907/5/3 905/5/3 906/5/3
f 920/9/3 917/9/3 916/9/3
f 921/9/3 917/9/3 920/9/3
f 924/3/3 919/3/3 918/3/3
f 925/3/3 919/3/3 924/3/3
f 928/9/3 920/9/3 916/9/3
f 928/8/3 921/8/3 920/8/3
f 929/9/3 917/9/3 921/9/3
f 929/8/3 921/8/3 928/8/3
f 930/12/3 923/12/3 922/12/3
f 931/12/3 923/12/3 930/12/3
f 935/13/3 927/13/3 926/13/3
f 936/13/3 927/13/3 935/13/3
f 939/9/3 928/9/3 916/9/3
f 939/9/3 929/9/3 928/9/3
f 940/9/3 917/9/3 929/9/3
f 940/9/3 929/9/3 939/9/3
f 942/12/3 923/12/3 931/12/3
f 943/12/3 923/12/3 942/12/3
f 944/3/3 933/3/3 932/3/3
f 945/3/3 933/3/3 944/3/3
f 946/4/3 938/4/3 937/4/3
f 947/4/3 938/4/3 946/4/3
f 948/12/3 942/12/3 941/12/3
f 949/12/3 942/12/3 948/12/3
f 956/3/3 951/3/3 950/3/3
f 957/3/3 951/3/3 956/3/3
f 960/13/3 935/13/3 934/13/3
f 961/13/3 935/13/3 960/13/3
f 964/4/3 953/4/3 952/4/3
f 965/4/3 953/4/3 964/4/3
f 966/12/3 955/12/3 954/12/3
f 967/12/3 955/12/3 966/12/3
f 968/3/3 959/3/3 958/3/3
f 969/3/3 959/3/3 968/3/3
f 970/13/3 962/13/3 961/13/3
f 971/13/3 962/13/3 970/13/3
f 972/9/3 964/9/3 963/9/3
f 973/9/3 964/9/3 972/9/3
f 978/8/3 973/8/3 972/8/3
f 978/9/3 972/9/3 963/9/3
f 979/9/3 964/9/3 973/9/3
f 979/8/3 973/8/3 978/8/3
f 980/12/3 975/12/3 974/12/3
f 981/12/3 975/12/3 980/12/3
f 982/12/3 977/12/3 976/12/3
f 983/12/3 977/12/3 982/12/3
f 984/6/3 909/6/3 908/6/3
f 985/7/3 910/7/3 909/7/3
f 985/6/3 909/6/3 984/6/3
f 986/6/3 911/6/3 910/6/3
f 986/7/3 910/7/3 985/7/3
f 987/7/3 912/7/3 911/7/3
f 987/6/3 911/6/3 986/6/3
f 988/6/3 913/6/3 912/6/3
f 988/7/3 912/7/3 987/7/3
f 989/7/3 914/7/3 913/7/3
f 989/6/3 913/6/3 988/6/3
f 990/6/3 915/6/3 914/6/3
f 990/7/3 914/7/3 989/7/3
f 991/6/3 915/6/3 990/6/3
f 992/9/3 978/9/3 963/9/3
f 992/9/3 979/9/3 978/9/3
f 993/9/3 964/9/3 979/9/3
f 993/9/3 979/9/3 992/9/3
f 996/5/3 995/5/3 994/5/3
f 997/5/3 995/5/3 996/5/3
f 1000/10/3 999/10/3 998/10/3
f 1001/10/3 999/10/3 1000/10/3
f 1011/12/3 1003/12/3 1002/12/3
f 1012/12/3 1003/12/3 1011/12/3
f 1016/11/3 1005/11/3 1004/11/3
f 1017/11/3 1005/11/3 1016/11/3
f 1018/11/3 1007/11/3 1006/11/3
f 1019/2/3 1008/2/3 1007/2/3
f 1020/2/3 1008/2/3 1019/2/3
f 1021/2/3 1010/2/3 1009/2/3
f 1024/12/3 1014/12/3 1013/12/3
f 1025/12/3 1014/12/3 1024/12/3
f 1026/11/3 1017/11/3 1016/11/3
f 1026/11/3 1018/11/3 1017/11/3
f 1026/2/3 1016/2/3 1015/2/3
f 1027/11/3 1018/11/3 1026/11/3
f 1028/11/3 1018/11/3 1027/11/3
f 1029/11/3 1007/11/3 1018/11/3
f 1029/11/3 1018/11/3 1028/11/3
f 1029/2/3 1019/2/3 1007/2/3
f 1030/2/3 1019/2/3 1029/2/3
f 1031/2/3 1008/2/3 1020/2/3
f 1032/2/3 1008/2/3 1031/2/3
f 1033/2/3 1008/2/3 1032/2/3
f 1034/2/3 1008/2/3 1033/2/3
f 1035/2/3 1022/2/3 1021/2/3
f 1035/2/3 1021/2/3 1009/2/3
f 1036/12/3 1023/12/3 1022/12/3
f 1036/2/3 1022/2/3 1035/2/3
f 1037/12/3 1023/12/3 1036/12/3
f 1039/2/3 1027/2/3 1026/2/3
f 1040/2/3 1029/2/3 1028/2/3
f 1041/2/3 1032/2/3 1031/2/3
f 1041/2/3 1031/2/3 1030/2/3
f 1042/2/3 1035/2/3 1034/2/3
f 1042/2/3 1034/2/3 1033/2/3
f 1042/2/3 1036/2/3 1035/2/3
f 1043/2/3 1036/2/3 1042/2/3
f 1044/12/3 1038/12/3 1037/12/3
f 1045/12/3 1038/12/3 1044/12/3
f 1047/2/3 1040/2/3 1039/2/3
f 1047/2/3 1026/2/3 1015/2/3
f 1047/2/3 1039/2/3 1026/2/3
f 1048/2/3 1040/2/3 1047/2/3
f 1049/2/3 1043/2/3 1042/2/3
f 1049/2/3 1042/2/3 1041/2/3
f 1050/2/3 1043/2/3 1049/2/3
f 1051/12/3 1046/12/3 1045/12/3
f 1051/12/3 1045/12/3 1044/12/3
f 1051/12/3 1044/12/3 1043/12/3
f 1052/12/3 1046/12/3 1051/12/3
f 1053/12/3 1046/12/3 1052/12/3
f 1054/2/3 1047/2/3 1015/2/3
f 1055/2/3 1040/2/3 1048/2/3
f 1056/2/3 1029/2/3 1040/2/3
f 1056/2/3 1040/2/3 1055/2/3
f 1057/2/3 1029/2/3 1056/2/3
f 1058/2/3 1029/2/3 1057/2/3
f 1059/2/3 1041/2/3 1030/2/3
f 1059/2/3 1049/2/3 1041/2/3
f 1060/2/3 1049/2/3 1059/2/3
f 1061/2/3 1049/2/3 1060/2/3
f 1062/2/3 1049/2/3 1061/2/3
f 1063/2/3 1043/2/3 1050/2/3
f 1064/12/3 1051/12/3 1043/12/3
f 1067/2/3 1054/2/3 1015/2/3
f 1068/11/3 1055/11/3 1054/11/3
f 1068/2/3 1054/2/3 1067/2/3
f 1068/11/3 1056/11/3 1055/11/3
f 1069/11/3 1056/11/3 1068/11/3
f 1070/11/3 1058/11/3 1057/11/3
f 1071/2/3 1059/2/3 1058/2/3
f 1072/2/3 1061/2/3 1060/2/3
f 1073/2/3 1063/2/3 1062/2/3
f 1073/2/3 1043/2/3 1063/2/3
f 1074/12/3 1066/12/3 1065/12/3
f 1074/2/3 1043/2/3 1073/2/3
f 1074/12/3 1065/12/3 1064/12/3
f 1074/12/3 1064/12/3 1043/12/3
f 1075/12/3 1066/12/3 1074/12/3
f 1076/12/3 1066/12/3 1075/12/3
f 1077/12/3 1066/12/3 1076/12/3
f 1078/11/3 1069/11/3 1068/11/3
f 1078/11/3 1070/11/3 1069/11/3
f 1079/11/3 1070/11/3 1078/11/3
f 1080/11/3 1058/11/3 1070/11/3
f 1080/11/3 1070/11/3 1079/11/3
f 1081/2/3 1072/2/3 1071/2/3
f 1081/11/3 1058/11/3 1080/11/3
f 1081/2/3 1071/2/3 1058/2/3
f 1082/2/3 1061/2/3 1072/2/3
f 1082/2/3 1072/2/3 1081/2/3
f 1083/2/3 1073/2/3 1062/2/3
f 1084/2/3 1073/2/3 1083/2/3
f 1085/12/3 1076/12/3 1075/12/3
f 1086/12/3 1076/12/3 1085/12/3
f 1089/3/3 1080/3/3 1079/3/3
f 1090/3/3 1080/3/3 1089/3/3
f 1091/3/3 1084/3/3 1083/3/3
f 1092/3/3 1084/3/3 1091/3/3
f 1093/12/3 1086/12/3 1085/12/3
f 1094/12/3 1086/12/3 1093/12/3
f 1095/10/3 1088/10/3 1087/10/3
f 1096/10/3 1088/10/3 1095/10/3
f 1101/3/3 1098/3/3 1097/3/3
f 1102/3/3 1098/3/3 1101/3/3
f 1103/3/3 1100/3/3 1099/3/3
f 1104/3/3 1100/3/3 1103/3/3
f 1107/3/3 1106/3/3 1105/3/3
f 1108/3/3 1106/3/3 1107/3/3
f 1113/2/3 1110/2/3 1109/2/3
f 1114/2/3 1110/2/3 1113/2/3
f 1115/2/3 1112/2/3 1111/2/3
f 1116/2/3 1112/2/3 1115/2/3
f 1119/12/3 1118/12/3 1117/12/3
f 1120/12/3 1118/12/3 1119/12/3
f 1123/12/3 1122/12/3 1121/12/3
f 1124/12/3 1122/12/3 1123/12/3
f 1129/2/3 1126/2/3 1125/2/3
f 1130/2/3 1126/2/3 1129/2/3
f 1133/2/3 1128/2/3 1127/2/3
f 1134/2/3 1128/2/3 1133/2/3
f 1135/3/3 1132/3/3 1131/3/3
f 1136/3/3 1132/3/3 1135/3/3
f 1139/3/3 1138/3/3 1137/3/3
f 1140/3/3 1138/3/3 1139/3/3
f 1143/3/3 1142/3/3 1141/3/3
f 1144/3/3 1142/3/3 1143/3/3
f 1150/2/3 1146/2/3 1145/2/3
f 1151/2/3 1146/2/3 1150/2/3
f 1152/2/3 1146/2/3 1151/2/3
f 1153/2/3 1146/2/3 1152/2/3
f 1154/2/3 1148/2/3 1147/2/3
f 1155/2/3 1148/2/3 1154/2/3
f 1157/2/3 1150/2/3 1149/2/3
f 1157/2/3 1151/2/3 1150/2/3
f 1158/2/3 1153/2/3 1152/2/3
f 1158/2/3 1156/2/3 1155/2/3
f 1158/2/3 1155/2/3 1154/2/3
f 1158/2/3 1154/2/3 1153/2/3
f 1159/2/3 1156/2/3 1158/2/3
f 1160/2/3 1156/2/3 1159/2/3
f 1161/2/3 1157/2/3 1149/2/3
f 1161/2/3 1158/2/3 1157/2/3
f 1161/2/3 1159/2/3 1158/2/3
f 1162/2/3 1159/2/3 1161/2/3
f 1163/2/3 1159/2/3 1162/2/3
f 1164/2/3 1159/2/3 1163/2/3
f 1165/2/3 1161/2/3 1149/2/3
f 1166/2/3 1161/2/3 1165/2/3
f 1167/2/3 1163/2/3 1162/2/3
f 1168/2/3 1163/2/3 1167/2/3
f 1175/3/3 1170/3/3 1169/3/3
f 1176/3/3 1170/3/3 1175/3/3
f 1177/11/3 1166/11/3 1165/11/3
f 1177/11/3 1167/11/3 1166/11/3
f 1178/11/3 1167/11/3 1177/11/3
f 1179/3/3 1172/3/3 1171/3/3
f 1180/3/3 1172/3/3 1179/3/3
f 1181/12/3 1174/12/3 1173/12/3
f 1182/12/3 1174/12/3 1181/12/3
f 1188/12/3 1184/12/3 1183/12/3
f 1189/12/3 1184/12/3 1188/12/3
f 1190/12/3 1188/12/3 1187/12/3
f 1191/12/3 1188/12/3 1190/12/3
f 1192/11/3 1186/11/3 1185/11/3
f 1193/11/3 1186/11/3 1192/11/3
f 1195/11/3 1186/11/3 1193/11/3
f 1196/11/3 1186/11/3 1195/11/3
f 1198/2/3 1195/2/3 1194/2/3
f 1198/2/3 1197/2/3 1196/2/3
f 1198/2/3 1196/2/3 1195/2/3
f 1200/2/3 1199/2/3 1198/2/3
f 1201/2/3 1199/2/3 1200/2/3
f 1202/2/3 1199/2/3 1201/2/3
f 1204/2/3 1198/2/3 1194/2/3
f 1204/2/3 1200/2/3 1198/2/3
f 1205/2/3 1200/2/3 1204/2/3
f 1206/2/3 1200/2/3 1205/2/3
f 1207/2/3 1203/2/3 1202/2/3
f 1207/2/3 1202/2/3 1201/2/3
f 1208/2/3 1203/2/3 1207/2/3
f 1209/2/3 1203/2/3 1208/2/3
f 1210/2/3 1206/2/3 1205/2/3
f 1210/2/3 1208/2/3 1207/2/3
f 1210/2/3 1207/2/3 1206/2/3
f 1211/2/3 1208/2/3 1210/2/3
f 1212/2/3 1208/2/3 1211/2/3
f 1213/2/3 1208/2/3 1212/2/3
f 1214/3/3 1212/3/3 1211/3/3
f 1215/3/3 1212/3/3 1214/3/3
f 1218/3/3 1217/3/3 1216/3/3
f 1219/3/3 1217/3/3 1218/3/3
f 1222/2/3 1221/2/3 1220/2/3
f 1223/2/3 1221/2/3 1222/2/3
f 1226/3/3 1224/3/3 1223/3/3
f 1227/3/3 1224/3/3 1226/3/3
f 1230/2/3 1226/2/3 1225/2/3
f 1231/2/3 1226/2/3 1230/2/3
f 1234/3/3 1229/3/3 1228/3/3
f 1235/3/3 1229/3/3 1234/3/3
f 1236/3/3 1233/3/3 1232/3/3
f 1237/3/3 1233/3/3 1236/3/3
f 1243/3/3 1239/3/3 1238/3/3
f 1244/3/3 1239/3/3 1243/3/3
f 1245/4/3 1241/4/3 1240/4/3
f 1246/12/3 1242/12/3 1241/12/3
f 1246/4/3 1241/4/3 1245/4/3
f 1247/12/3 1242/12/3 1246/12/3
f 1250/12/3 1249/12/3 1248/12/3
f 1251/12/3 1249/12/3 1250/12/3
f 1254/2/3 1253/2/3 1252/2/3
f 1255/2/3 1253/2/3 1254/2/3
f 1258/3/3 1256/3/3 1255/3/3
f 1259/3/3 1256/3/3 1258/3/3
f 1262/2/3 1258/2/3 1257/2/3
f 1263/2/3 1258/2/3 1262/2/3
f 1264/3/3 1261/3/3 1260/3/3
f 1265/3/3 1261/3/3 1264/3/3
f 1268/3/3 1267/3/3 1266/3/3
f 1269/3/3 1267/3/3 1268/3/3
f 1272/3/3 1271/3/3 1270/3/3
f 1273/3/3 1271/3/3 1272/3/3
f 1276/12/3 1275/12/3 1274/12/3
f 1277/12/3 1275/12/3 1276/12/3
f 1280/12/3 1279/12/3 1278/12/3
f 1281/12/3 1279/12/3 1280/12/3
f 1288/3/3 1283/3/3 1282/3/3
f 1289/3/3 1283/3/3 1288/3/3
f 1290/3/3 1285/3/3 1284/3/3
f 1291/3/3 1285/3/3 1290/3/3
f 1292/12/3 1287/12/3 1286/12/3
f 1293/12/3 1287/12/3 1292/12/3
f 1296/3/3 1295/3/3 1294/3/3
f 1297/3/3 1295/3/3 1296/3/3
f 1300/5/3 1299/5/3 1298/5/3
f 1301/5/3 1299/5/3 1300/5/3
f 1304/3/3 1303/3/3 1302/3/3
f 1305/3/3 1303/3/3 1304/3/3
f 1308/12/3 1307/12/3 1306/12/3
f 1309/12/3 1307/12/3 1308/12/3
f 1312/12/3 1311/12/3 1310/12/3
f 1313/12/3 1311/12/3 1312/12/3
f 1318/3/3 1315/3/3 1314/3/3
f 1319/3/3 1315/3/3 1318/3/3
f 1320/3/3 1317/3/3 1316/3/3
f 1321/3/3 1317/3/3 1320/3/3
f 1324/5/3 1323/5/3 1322/5/3
f 1325/5/3 1323/5/3 1324/5/3
f 1328/10/3 1327/10/3 1326/10/3
f 1329/10/3 1327/10/3 1328/10/3
f 1334/3/3 1331/3/3 1330/3/3
f 1335/3/3 1331/3/3 1334/3/3
f 1336/12/3 1333/12/3 1332/12/3
f 1337/12/3 1333/12/3 1336/12/3
f 1340/10/3 1339/10/3 1338/10/3
f 1341/10/3 1339/10/3 1340/10/3
f 1344/6/3 1343/6/3 1342/6/3
f 1345/6/3 1344/6/3 1342/6/3
f 1346/6/3 1345/6/3 1342/6/3
f 1347/6/3 1345/6/3 1346/6/3
f 1348/6/4 1349/6/4 1350/6/4
f 1348/6/4 1350/6/4 1351/6/4
f 1348/6/4 1351/6/4 1352/6/4
f 1352/6/4 1351/6/4 1353/6/4
f 1354/10/4 1355/10/4 1356/10/4
f 1356/10/4 1355/10/4 1357/10/4
f 1358/9/4 1359/9/4 1360/9/4
f 1360/9/4 1359/9/4 1361/9/4
f 1362/12/4 1363/12/4 1364/12/4
f 1364/12/4 1363/12/4 1365/12/4
f 1366/12/4 1367/12/4 1368/12/4
f 1368/12/4 1367/12/4 1369/12/4
f 1370/12/4 1371/12/4 1377/12/4
f 1377/12/4 1371/12/4 1378/12/4
f 1372/3/4 1373/3/4 1381/3/4
f 1381/3/4 1373/3/4 1382/3/4
f 1374/3/4 1375/3/4 1383/3/4
f 1383/3/4 1375/3/4 1384/3/4
f 1376/12/4 1377/12/4 1385/12/4
f 1385/12/4 1377/12/4 1386/12/4
f 1379/10/4 1380/10/4 1387/10/4
f 1387/10/4 1380/10/4 1388/10/4
f 1389/5/4 1390/5/4 1391/5/4
f 1391/5/4 1390/5/4 1392/5/4
f 1393/12/4 1394/12/4 1395/12/4
f 1395/12/4 1394/12/4 1396/12/4
f 1397/12/4 1398/12/4 1399/12/4
f 1399/12/4 1398/12/4 1400/12/4
f 1401/12/4 1402/12/4 1403/12/4
f 1403/12/4 1402/12/4 1404/12/4
f 1405/3/4 1406/3/4 1408/3/4
f 1406/9/4 1407/9/4 1409/9/4
f 1408/3/4 1406/3/4 1409/3/4
f 1409/9/4 1407/9/4 1410/9/4
f 1411/5/4 1412/5/4 1413/5/4
f 1413/5/4 1412/5/4 1414/5/4
f 1415/3/4 1416/3/4 1421/3/4
f 1421/3/4 1416/3/4 1422/3/4
f 1417/3/4 1418/3/4 1423/3/4
f 1423/3/4 1418/3/4 1424/3/4
f 1419/12/4 1420/12/4 1425/12/4
f 1425/12/4 1420/12/4 1426/12/4
f 1427/12/4 1428/12/4 1431/12/4
f 1431/12/4 1428/12/4 1432/12/4
f 1429/3/4 1430/3/4 1433/3/4
f 1433/3/4 1430/3/4 1434/3/4
f 1435/3/4 1436/3/4 1437/3/4
f 1437/3/4 1436/3/4 1438/3/4
f 1439/3/4 1440/3/4 1441/3/4
f 1441/3/4 1440/3/4 1442/3/4
f 1443/2/4 1444/2/4 1445/2/4
f 1445/2/4 1444/2/4 1446/2/4
f 1446/3/4 1447/3/4 1449/3/4
f 1449/3/4 1447/3/4 1450/3/4
f 1448/2/4 1449/2/4 1453/2/4
f 1453/2/4 1449/2/4 1454/2/4
f 1451/3/4 1452/3/4 1457/3/4
f 1457/3/4 1452/3/4 1458/3/4
f 1455/3/4 1456/3/4 1459/3/4
f 1459/3/4 1456/3/4 1460/3/4
f 1461/3/4 1462/3/4 1466/3/4
f 1466/3/4 1462/3/4 1467/3/4
f 1463/4/4 1464/4/4 1468/4/4
f 1464/12/4 1465/12/4 1469/12/4
f 1468/4/4 1464/4/4 1469/4/4
f 1469/12/4 1465/12/4 1470/12/4
f 1471/12/4 1472/12/4 1473/12/4
f 1473/12/4 1472/12/4 1474/12/4
f 1475/2/4 1476/2/4 1477/2/4
f 1477/2/4 1476/2/4 1478/2/4
f 1478/3/4 1479/3/4 1481/3/4
f 1481/3/4 1479/3/4 1482/3/4
f 1480/2/4 1481/2/4 1485/2/4
f 1485/2/4 1481/2/4 1486/2/4
f 1483/3/4 1484/3/4 1487/3/4
f 1487/3/4 1484/3/4 1488/3/4
f 1489/3/4 1490/3/4 1492/3/4
f 1492/3/4 1490/3/4 1493/3/4
f 1491/2/4 1492/2/4 1497/2/4
f 1492/2/4 1493/2/4 1497/2/4
f 1493/2/4 1494/2/4 1497/2/4
f 1497/2/4 1494/2/4 1498/2/4
f 1498/2/4 1494/2/4 1499/2/4
f 1499/2/4 1494/2/4 1500/2/4
f 1495/3/4 1496/3/4 1502/3/4
f 1496/2/4 1497/2/4 1503/2/4
f 1502/3/4 1496/3/4 1503/3/4
f 1497/2/4 1498/2/4 1503/2/4
f 1503/2/4 1498/2/4 1504/2/4
f 1500/2/4 1501/2/4 1505/2/4
f 1499/2/4 1500/2/4 1505/2/4
f 1505/2/4 1501/2/4 1506/2/4
f 1506/2/4 1501/2/4 1507/2/4
f 1503/2/4 1504/2/4 1508/2/4
f 1505/2/4 1506/2/4 1508/2/4
f 1504/2/4 1505/2/4 1508/2/4
f 1508/2/4 1506/2/4 1509/2/4
f 1509/2/4 1506/2/4 1510/2/4
f 1510/2/4 1506/2/4 1511/2/4
f 1503/2/4 1508/2/4 1512/2/4
f 1512/2/4 1508/2/4 1513/2/4
f 1509/2/4 1510/2/4 1514/2/4
f 1514/2/4 1510/2/4 1515/2/4
f 1513/11/4 1514/11/4 1518/11/4
f 1512/11/4 1513/11/4 1518/11/4
f 1518/11/4 1514/11/4 1519/11/4
f 1516/12/4 1517/12/4 1520/12/4
f 1520/12/4 1517/12/4 1521/12/4
f 1522/12/4 1523/12/4 1524/12/4
f 1524/12/4 1523/12/4 1525/12/4
f 1526/12/4 1527/12/4 1528/12/4
f 1528/12/4 1527/12/4 1529/12/4
f 1530/3/4 1531/3/4 1538/3/4
f 1531/11/4 1532/11/4 1539/11/4
f 1538/3/4 1531/3/4 1539/3/4
f 1539/11/4 1532/11/4 1540/11/4
f 1533/3/4 1534/3/4 1541/3/4
f 1541/3/4 1534/3/4 1542/3/4
f 1536/12/4 1537/12/4 1543/12/4
f 1535/12/4 1536/12/4 1543/12/4
f 1543/12/4 1537/12/4 1544/12/4
f 1540/11/4 1532/11/4 1546/11/4
f 1545/11/4 1546/11/4 1547/11/4
f 1546/11/4 1532/11/4 1548/11/4
f 1547/11/4 1546/11/4 1548/11/4
f 1547/2/4 1548/2/4 1551/2/4
f 1548/2/4 1549/2/4 1551/2/4
f 1551/2/4 1549/2/4 1552/2/4
f 1550/3/4 1551/3/4 1554/3/4
f 1552/2/4 1553/2/4 1555/2/4
f 1554/3/4 1551/3/4 1555/3/4
f 1551/2/4 1552/2/4 1555/2/4
f 1555/2/4 1553/2/4 1556/2/4
f 1556/2/4 1557/2/4 1558/2/4
f 1555/2/4 1556/2/4 1558/2/4
f 1558/2/4 1557/2/4 1559/2/4
f 1559/2/4 1557/2/4 1560/2/4
f 1560/2/4 1557/2/4 1561/2/4
f 1559/2/4 1560/2/4 1562/2/4
f 1562/2/4 1560/2/4 1563/2/4
f 1564/3/4 1565/3/4 1566/3/4
f 1566/3/4 1565/3/4 1567/3/4
f 1568/3/4 1569/3/4 1570/3/4
f 1570/3/4 1569/3/4 1571/3/4
f 1572/3/4 1573/3/4 1576/3/4
f 1576/3/4 1573/3/4 1577/3/4
f 1574/2/4 1575/2/4 1579/2/4
f 1579/2/4 1575/2/4 1580/2/4
f 1577/2/4 1578/2/4 1581/2/4
f 1581/2/4 1578/2/4 1582/2/4
f 1583/12/4 1584/12/4 1585/12/4
f 1585/12/4 1584/12/4 1586/12/4
f 1587/12/4 1588/12/4 1589/12/4
f 1589/12/4 1588/12/4 1590/12/4
f 1591/2/4 1592/2/4 1595/2/4
f 1595/2/4 1592/2/4 1596/2/4
f 1593/2/4 1594/2/4 1601/2/4
f 1601/2/4 1594/2/4 1602/2/4
f 1597/3/4 1598/3/4 1605/3/4
f 1605/3/4 1598/3/4 1606/3/4
f 1599/3/4 1600/3/4 1607/3/4
f 1607/3/4 1600/3/4 1608/3/4
f 1603/3/4 1604/3/4 1609/3/4
f 1609/3/4 1604/3/4 1610/3/4
f 1611/10/4 1612/10/4 1613/10/4
f 1613/10/4 1612/10/4 1614/10/4
f 1615/3/4 1616/3/4 1620/3/4
f 1620/3/4 1616/3/4 1621/3/4
f 1617/12/4 1618/12/4 1626/12/4
f 1619/11/4 1620/11/4 1629/11/4
f 1620/11/4 1621/11/4 1629/11/4
f 1621/11/4 1622/11/4 1629/11/4
f 1629/11/4 1622/11/4 1630/11/4
f 1630/11/4 1622/11/4 1631/11/4
f 1631/11/4 1622/11/4 1632/11/4
f 1622/2/4 1623/2/4 1633/2/4
f 1633/2/4 1623/2/4 1634/2/4
f 1634/2/4 1623/2/4 1635/2/4
f 1624/2/4 1625/2/4 1636/2/4
f 1636/2/4 1625/2/4 1637/2/4
f 1626/12/4 1627/12/4 1638/12/4
f 1617/12/4 1626/12/4 1638/12/4
f 1638/12/4 1627/12/4 1639/12/4
f 1628/2/4 1629/2/4 1640/2/4
f 1630/11/4 1631/11/4 1641/11/4
f 1641/11/4 1631/11/4 1642/11/4
f 1632/11/4 1622/11/4 1643/11/4
f 1622/2/4 1633/2/4 1644/2/4
f 1634/2/4 1635/2/4 1645/2/4
f 1636/2/4 1637/2/4 1645/2/4
f 1635/2/4 1636/2/4 1645/2/4
f 1637/2/4 1638/2/4 1645/2/4
f 1645/2/4 1638/2/4 1646/2/4
f 1646/2/4 1638/2/4 1647/2/4
f 1647/2/4 1638/2/4 1648/2/4
f 1639/12/4 1627/12/4 1649/12/4
f 1644/2/4 1645/2/4 1650/2/4
f 1645/2/4 1646/2/4 1650/2/4
f 1647/2/4 1648/2/4 1651/2/4
f 1641/11/4 1642/11/4 1652/11/4
f 1640/11/4 1641/11/4 1652/11/4
f 1642/11/4 1643/11/4 1652/11/4
f 1652/11/4 1643/11/4 1653/11/4
f 1650/2/4 1651/2/4 1654/2/4
f 1644/2/4 1650/2/4 1654/2/4
f 1654/2/4 1651/2/4 1655/2/4
f 1655/2/4 1651/2/4 1656/2/4
f 1656/2/4 1651/2/4 1657/2/4
f 1648/12/4 1649/12/4 1658/12/4
f 1649/12/4 1627/12/4 1658/12/4
f 1658/12/4 1627/12/4 1659/12/4
f 1640/11/4 1652/11/4 1660/11/4
f 1660/11/4 1652/11/4 1661/11/4
f 1661/11/4 1652/11/4 1662/11/4
f 1653/11/4 1643/11/4 1663/11/4
f 1622/2/4 1644/2/4 1664/2/4
f 1643/11/4 1622/11/4 1664/11/4
f 1663/11/4 1643/11/4 1664/11/4
f 1644/2/4 1654/2/4 1664/2/4
f 1664/2/4 1654/2/4 1665/2/4
f 1665/2/4 1654/2/4 1666/2/4
f 1655/2/4 1656/2/4 1667/2/4
f 1667/2/4 1656/2/4 1668/2/4
f 1657/2/4 1651/2/4 1669/2/4
f 1651/2/4 1648/2/4 1670/2/4
f 1648/12/4 1658/12/4 1670/12/4
f 1669/2/4 1651/2/4 1670/2/4
f 1670/12/4 1658/12/4 1671/12/4
f 1628/2/4 1640/2/4 1673/2/4
f 1640/11/4 1660/11/4 1674/11/4
f 1673/2/4 1640/2/4 1674/2/4
f 1674/11/4 1660/11/4 1675/11/4
f 1662/11/4 1663/11/4 1676/11/4
f 1661/11/4 1662/11/4 1676/11/4
f 1663/11/4 1664/11/4 1676/11/4
f 1676/11/4 1664/11/4 1677/11/4
f 1668/2/4 1669/2/4 1678/2/4
f 1667/2/4 1668/2/4 1678/2/4
f 1665/2/4 1666/2/4 1678/2/4
f 1669/2/4 1670/2/4 1678/2/4
f 1666/2/4 1667/2/4 1678/2/4
f 1678/2/4 1670/2/4 1679/2/4
f 1679/2/4 1670/2/4 1680/2/4
f 1680/2/4 1670/2/4 1681/2/4
f 1671/12/4 1672/12/4 1682/12/4
f 1682/12/4 1672/12/4 1683/12/4
f 1674/11/4 1675/11/4 1684/11/4
f 1676/11/4 1677/11/4 1684/11/4
f 1675/11/4 1676/11/4 1684/11/4
f 1678/2/4 1679/2/4 1685/2/4
f 1684/11/4 1677/11/4 1685/11/4
f 1677/2/4 1678/2/4 1685/2/4
f 1685/2/4 1679/2/4 1686/2/4
f 1681/12/4 1682/12/4 1687/12/4
f 1687/12/4 1682/12/4 1688/12/4
f 1689/10/4 1690/10/4 1691/10/4
f 1691/10/4 1690/10/4 1692/10/4
f 1693/5/4 1694/5/4 1695/5/4
f 1695/5/4 1694/5/4 1696/5/4
f 1705/3/4 1706/3/4 1713/3/4
f 1713/3/4 1706/3/4 1714/3/4
f 1707/3/4 1708/3/4 1717/3/4
f 1717/3/4 1708/3/4 1718/3/4
f 1709/3/4 1710/3/4 1719/3/4
f 1719/3/4 1710/3/4 1720/3/4
f 1711/3/4 1712/3/4 1721/3/4
f 1721/3/4 1712/3/4 1722/3/4
f 1715/12/4 1716/12/4 1725/12/4
f 1725/12/4 1716/12/4 1726/12/4
f 1723/3/4 1724/3/4 1727/3/4
f 1727/3/4 1724/3/4 1728/3/4
f 1729/3/4 1730/3/4 1739/3/4
f 1739/3/4 1730/3/4 1740/3/4
f 1731/3/4 1732/3/4 1743/3/4
f 1743/3/4 1732/3/4 1744/3/4
f 1733/3/4 1734/3/4 1745/3/4
f 1745/3/4 1734/3/4 1746/3/4
f 1735/12/4 1736/12/4 1748/12/4
f 1748/12/4 1736/12/4 1749/12/4
f 1737/3/4 1738/3/4 1750/3/4
f 1750/3/4 1738/3/4 1751/3/4
f 1741/3/4 1742/3/4 1752/3/4
f 1752/3/4 1742/3/4 1753/3/4
f 1747/12/4 1748/12/4 1756/12/4
f 1756/12/4 1748/12/4 1757/12/4
f 1754/3/4 1755/3/4 1759/3/4
f 1759/3/4 1755/3/4 1760/3/4
f 1757/12/4 1758/12/4 1761/12/4
f 1761/12/4 1758/12/4 1762/12/4
f 1697/6/4 1698/6/4 1763/6/4
f 1698/7/4 1699/7/4 1764/7/4
f 1763/6/4 1698/6/4 1764/6/4
f 1699/6/4 1700/6/4 1765/6/4
f 1764/7/4 1699/7/4 1765/7/4
f 1700/7/4 1701/7/4 1766/7/4
f 1765/6/4 1700/6/4 1766/6/4
f 1701/6/4 1702/6/4 1767/6/4
f 1766/7/4 1701/7/4 1767/7/4
f 1702/7/4 1703/7/4 1768/7/4
f 1767/6/4 1702/6/4 1768/6/4
f 1703/6/4 1704/6/4 1769/6/4
f 1768/7/4 1703/7/4 1769/7/4
f 1769/6/4 1704/6/4 1770/6/4
f 1771/5/4 1772/5/4 1773/5/4
f 1773/5/4 1772/5/4 1774/5/4
f 1775/7/4 1776/7/4 1778/7/4
f 1776/6/4 1777/6/4 1779/6/4
f 1778/7/4 1776/7/4 1779/7/4
f 1779/6/4 1777/6/4 1780/6/4
f 1785/5/5 1782/5/5 1781/5/5
f 1786/5/5 1782/5/5 1785/5/5
f 1787/5/5 1784/5/5 1783/5/5
f 1788/5/5 1784/5/5 1787/5/5
f 1793/5/5 1790/5/5 1789/5/5
f 1794/5/5 1790/5/5 1793/5/5
f 1795/5/5 1792/5/5 1791/5/5
f 1796/5/5 1792/5/5 1795/5/5
f 1800/6/5 1798/6/5 1797/6/5
f 1801/6/5 1798/6/5 1800/6/5
f 1803/10/5 1800/10/5 1799/10/5
f 1804/6/5 1801/6/5 1800/6/5
f 1804/10/5 1800/10/5 1803/10/5
f 1805/10/5 1802/10/5 1801/10/5
f 1805/6/5 1801/6/5 1804/6/5
f 1806/10/5 1802/10/5 1805/10/5
f 1808/6/5 1805/6/5 1804/6/5
f 1809/6/5 1805/6/5 1808/6/5
f 1811/10/5 1808/10/5 1807/10/5
f 1812/6/5 1809/6/5 1808/6/5
f 1812/10/5 1808/10/5 1811/10/5
f 1813/10/5 1810/10/5 1809/10/5
f 1813/6/5 1809/6/5 1812/6/5
f 1814/10/5 1810/10/5 1813/10/5
f 1815/6/5 1813/6/5 1812/6/5
f 1816/6/5 1813/6/5 1815/6/5
f 1819/7/5 1818/7/5 1817/7/5
f 1820/7/5 1818/7/5 1819/7/5
f 1821/7/5 1819/7/5 1817/7/5
f 1822/7/5 1818/7/5 1820/7/5
f 1823/7/5 1821/7/5 1817/7/5
f 1823/7/5 1822/7/5 1821/7/5
f 1824/7/5 1818/7/5 1822/7/5
f 1824/7/5 1822/7/5 1823/7/5
f 1829/3/5 1826/3/5 1825/3/5
f 1830/3/5 1826/3/5 1829/3/5
f 1833/11/5 1828/11/5 1827/11/5
f 1834/11/5 1828/11/5 1833/11/5
f 1835/11/5 1832/11/5 1831/11/5
f 1836/11/5 1832/11/5 1835/11/5
f 1841/11/5 1838/11/5 1837/11/5
f 1842/11/5 1838/11/5 1841/11/5
f 1844/11/5 1840/11/5 1839/11/5
f 1845/11/5 1840/11/5 1844/11/5
f 1846/3/5 1843/3/5 1842/3/5
f 1847/3/5 1843/3/5 1846/3/5
f 1850/3/5 1849/3/5 1848/3/5
f 1851/3/5 1849/3/5 1850/3/5
f 1856/3/5 1853/3/5 1852/3/5
f 1857/3/5 1853/3/5 1856/3/5
f 1858/3/5 1855/3/5 1854/3/5
f 1859/3/5 1855/3/5 1858/3/5
f 1862/3/5 1861/3/5 1860/3/5
f 1863/3/5 1861/3/5 1862/3/5
f 1866/3/5 1865/3/5 1864/3/5
f 1867/3/5 1865/3/5 1866/3/5
f 1871/3/5 1869/3/5 1868/3/5
f 1872/3/5 1869/3/5 1871/3/5
f 1874/11/5 1871/11/5 1870/11/5
f 1874/11/5 1872/11/5 1871/11/5
f 1875/11/5 1872/11/5 1874/11/5
f 1876/2/5 1873/2/5 1872/2/5
f 1877/2/5 1873/2/5 1876/2/5
f 1878/11/5 1872/11/5 1875/11/5
f 1879/11/5 1872/11/5 1878/11/5
f 1880/2/5 1876/2/5 1872/2/5
f 1880/11/5 1872/11/5 1879/11/5
f 1881/2/5 1876/2/5 1880/2/5
f 1882/2/5 1873/2/5 1877/2/5
f 1883/2/5 1873/2/5 1882/2/5
f 1884/3/5 1879/3/5 1878/3/5
f 1885/3/5 1879/3/5 1884/3/5
f 1888/3/5 1887/3/5 1886/3/5
f 1889/3/5 1887/3/5 1888/3/5
f 1894/3/5 1891/3/5 1890/3/5
f 1895/3/5 1891/3/5 1894/3/5
f 1896/2/5 1893/2/5 1892/2/5
f 1897/2/5 1893/2/5 1896/2/5
f 1900/3/5 1899/3/5 1898/3/5
f 1901/3/5 1899/3/5 1900/3/5
f 1904/3/5 1903/3/5 1902/3/5
f 1905/3/5 1903/3/5 1904/3/5
f 1908/3/5 1907/3/5 1906/3/5
f 1909/3/5 1907/3/5 1908/3/5
f 1912/3/5 1911/3/5 1910/3/5
f 1913/3/5 1911/3/5 1912/3/5
f 1916/3/5 1915/3/5 1914/3/5
f 1917/3/5 1915/3/5 1916/3/5
f 1922/3/5 1919/3/5 1918/3/5
f 1923/3/5 1919/3/5 1922/3/5
f 1924/3/5 1921/3/5 1920/3/5
f 1925/3/5 1921/3/5 1924/3/5
f 1928/13/5 1927/13/5 1926/13/5
f 1929/13/5 1927/13/5 1928/13/5
f 1935/3/5 1931/3/5 1930/3/5
f 1936/3/5 1931/3/5 1935/3/5
f 1939/11/5 1934/11/5 1933/11/5
f 1939/2/5 1933/2/5 1932/2/5
f 1940/11/5 1934/11/5 1939/11/5
f 1941/3/5 1938/3/5 1937/3/5
f 1942/3/5 1938/3/5 1941/3/5
f 1943/2/5 1939/2/5 1932/2/5
f 1944/2/5 1939/2/5 1943/2/5
f 1945/2/5 1939/2/5 1944/2/5
f 1946/11/5 1934/11/5 1940/11/5
f 1947/2/5 1945/2/5 1944/2/5
f 1948/11/5 1946/11/5 1945/11/5
f 1948/2/5 1945/2/5 1947/2/5
f 1949/11/5 1934/11/5 1946/11/5
f 1949/11/5 1946/11/5 1948/11/5
f 1952/3/5 1951/3/5 1950/3/5
f 1953/3/5 1951/3/5 1952/3/5
f 1956/3/5 1955/3/5 1954/3/5
f 1957/3/5 1955/3/5 1956/3/5
f 1962/13/5 1959/13/5 1958/13/5
f 1963/13/5 1959/13/5 1962/13/5
f 1964/13/5 1961/13/5 1960/13/5
f 1965/13/5 1961/13/5 1964/13/5
f 1969/2/5 1967/2/5 1966/2/5
f 1970/3/5 1969/3/5 1968/3/5
f 1971/2/5 1967/2/5 1969/2/5
f 1971/3/5 1969/3/5 1970/3/5
f 1972/2/5 1967/2/5 1971/2/5
f 1973/2/5 1967/2/5 1972/2/5
f 1976/3/5 1975/3/5 1974/3/5
f 1977/3/5 1975/3/5 1976/3/5
f 1980/3/5 1979/3/5 1978/3/5
f 1981/3/5 1979/3/5 1980/3/5
f 1984/3/5 1983/3/5 1982/3/5
f 1985/3/5 1983/3/5 1984/3/5
f 1988/4/5 1987/4/5 1986/4/5
f 1989/4/5 1987/4/5 1988/4/5
f 1992/3/5 1991/3/5 1990/3/5
f 1993/3/5 1991/3/5 1992/3/5
f 1996/3/5 1995/3/5 1994/3/5
f 1997/3/5 1995/3/5 1996/3/5
f 2000/3/5 1999/3/5 1998/3/5
f 2001/3/5 1999/3/5 2000/3/5
f 2004/3/5 2003/3/5 2002/3/5
f 2005/3/5 2003/3/5 2004/3/5
f 2008/3/5 2007/3/5 2006/3/5
f 2009/3/5 2007/3/5 2008/3/5
f 2014/9/5 2011/9/5 2010/9/5
f 2015/9/5 2011/9/5 2014/9/5
f 2016/9/5 2013/9/5 2012/9/5
f 2017/9/5 2013/9/5 2016/9/5
f 2018/9/5 2014/9/5 2010/9/5
f 2019/9/5 2014/9/5 2018/9/5
f 2020/9/5 2013/9/5 2017/9/5
f 2021/9/5 2013/9/5 2020/9/5
f 2024/3/5 2023/3/5 2022/3/5
f 2025/3/5 2023/3/5 2024/3/5
f 2028/3/5 2027/3/5 2026/3/5
f 2029/3/5 2027/3/5 2028/3/5
f 2032/3/5 2031/3/5 2030/3/5
f 2033/3/5 2031/3/5 2032/3/5
f 2036/3/5 2035/3/5 2034/3/5
f 2037/3/5 2035/3/5 2036/3/5
f 2040/3/5 2039/3/5 2038/3/5
f 2041/3/5 2039/3/5 2040/3/5
f 2044/3/5 2043/3/5 2042/3/5
f 2045/3/5 2043/3/5 2044/3/5
f 2048/3/5 2047/3/5 2046/3/5
f 2049/3/5 2047/3/5 2048/3/5
f 2052/4/5 2051/4/5 2050/4/5
f 2053/4/5 2051/4/5 2052/4/5
f 2058/3/5 2055/3/5 2054/3/5
f 2059/3/5 2055/3/5 2058/3/5
f 2060/3/5 2057/3/5 2056/3/5
f 2061/3/5 2057/3/5 2060/3/5
f 2066/3/5 2063/3/5 2062/3/5
f 2067/3/5 2063/3/5 2066/3/5
f 2068/3/5 2065/3/5 2064/3/5
f 2069/3/5 2065/3/5 2068/3/5
f 2072/4/5 2071/4/5 2070/4/5
f 2073/4/5 2071/4/5 2072/4/5
f 2081/12/5 2075/12/5 2074/12/5
f 2082/12/5 2075/12/5 2081/12/5
f 2083/12/5 2077/12/5 2076/12/5
f 2084/12/5 2077/12/5 2083/12/5
f 2085/12/5 2079/12/5 2078/12/5
f 2086/12/5 2082/12/5 2081/12/5
f 2086/12/5 2081/12/5 2080/12/5
f 2087/12/5 2082/12/5 2086/12/5
f 2088/12/5 2079/12/5 2085/12/5
f 2089/12/5 2079/12/5 2088/12/5
f 2090/12/5 2086/12/5 2080/12/5
f 2091/12/5 2086/12/5 2090/12/5
f 2097/12/5 2093/12/5 2092/12/5
f 2097/12/5 2094/12/5 2093/12/5
f 2098/12/5 2094/12/5 2097/12/5
f 2101/12/5 2096/12/5 2095/12/5
f 2102/12/5 2096/12/5 2101/12/5
f 2103/12/5 2099/12/5 2098/12/5
f 2104/12/5 2099/12/5 2103/12/5
f 2105/12/5 2101/12/5 2100/12/5
f 2106/12/5 2101/12/5 2105/12/5
f 2111/12/5 2108/12/5 2107/12/5
f 2112/12/5 2108/12/5 2111/12/5
f 2113/12/5 2110/12/5 2109/12/5
f 2114/12/5 2110/12/5 2113/12/5
f 2117/12/5 2116/12/5 2115/12/5
f 2118/12/5 2116/12/5 2117/12/5
f 2123/12/5 2120/12/5 2119/12/5
f 2124/12/5 2120/12/5 2123/12/5
f 2127/12/5 2126/12/5 2125/12/5
f 2128/12/5 2126/12/5 2127/12/5
f 2129/12/5 2122/12/5 2121/12/5
f 2130/12/5 2122/12/5 2129/12/5
f 2135/12/5 2132/12/5 2131/12/5
f 2136/12/5 2132/12/5 2135/12/5
f 2137/12/5 2134/12/5 2133/12/5
f 2138/12/5 2134/12/5 2137/12/5
f 2141/12/5 2140/12/5 2139/12/5
f 2142/12/5 2140/12/5 2141/12/5
f 2143/10/6 2144/10/6 2147/10/6
f 2147/10/6 2144/10/6 2148/10/6
f 2145/10/6 2146/10/6 2149/10/6
f 2149/10/6 2146/10/6 2150/10/6
f 2151/10/6 2152/10/6 2155/10/6
f 2155/10/6 2152/10/6 2156/10/6
f 2153/10/6 2154/10/6 2157/10/6
f 2157/10/6 2154/10/6 2158/10/6
f 2159/5/6 2160/5/6 2163/5/6
f 2163/5/6 2160/5/6 2164/5/6
f 2161/5/6 2162/5/6 2165/5/6
f 2165/5/6 2162/5/6 2166/5/6
f 2167/5/6 2168/5/6 2171/5/6
f 2171/5/6 2168/5/6 2172/5/6
f 2169/5/6 2170/5/6 2173/5/6
f 2173/5/6 2170/5/6 2174/5/6
f 2175/1/6 2176/1/6 2177/1/6
f 2177/1/6 2176/1/6 2178/1/6
f 2175/1/6 2177/1/6 2179/1/6
f 2179/1/6 2177/1/6 2180/1/6
f 2178/1/6 2176/1/6 2181/1/6
f 2181/1/6 2176/1/6 2182/1/6
f 2175/1/6 2179/1/6 2183/1/6
f 2182/1/6 2176/1/6 2186/1/6
f 2183/1/6 2184/1/6 2187/1/6
f 2185/1/6 2186/1/6 2188/1/6
f 2183/1/6 2187/1/6 2189/1/6
f 2187/1/6 2188/1/6 2189/1/6
f 2175/1/6 2183/1/6 2189/1/6
f 2188/1/6 2186/1/6 2190/1/6
f 2189/1/6 2188/1/6 2190/1/6
f 2186/1/6 2176/1/6 2190/1/6
f 2191/6/6 2192/6/6 2193/6/6
f 2193/6/6 2192/6/6 2194/6/6
f 2194/6/6 2192/6/6 2195/6/6
f 2195/6/6 2192/6/6 2196/6/6
f 2191/6/6 2193/6/6 2197/6/6
f 2196/6/6 2192/6/6 2200/6/6
f 2198/6/6 2199/6/6 2201/6/6
f 2199/6/6 2200/6/6 2201/6/6
f 2191/6/6 2197/6/6 2201/6/6
f 2197/6/6 2198/6/6 2201/6/6
f 2200/6/6 2192/6/6 2202/6/6
f 2201/6/6 2200/6/6 2202/6/6
f 2203/3/6 2204/3/6 2205/3/6
f 2205/3/6 2204/3/6 2206/3/6
f 2207/3/6 2208/3/6 2209/3/6
f 2209/3/6 2208/3/6 2210/3/6
f 2211/3/6 2212/3/6 2213/3/6
f 2213/3/6 2212/3/6 2214/3/6
f 2215/3/6 2216/3/6 2217/3/6
f 2217/3/6 2216/3/6 2218/3/6
f 2219/3/6 2220/3/6 2221/3/6
f 2221/3/6 2220/3/6 2222/3/6
f 2223/3/6 2224/3/6 2225/3/6
f 2225/3/6 2224/3/6 2226/3/6
f 2227/3/6 2228/3/6 2229/3/6
f 2229/3/6 2228/3/6 2230/3/6
f 2231/3/6 2232/3/6 2233/3/6
f 2233/3/6 2232/3/6 2234/3/6
f 2235/3/6 2236/3/6 2237/3/6
f 2237/3/6 2236/3/6 2238/3/6
f 2239/3/6 2240/3/6 2241/3/6
f 2241/3/6 2240/3/6 2242/3/6
f 2243/3/6 2244/3/6 2245/3/6
f 2245/3/6 2244/3/6 2246/3/6
f 2247/3/6 2248/3/6 2249/3/6
f 2249/3/6 2248/3/6 2250/3/6
f 2253/3/6 2254/3/6 2255/3/6
f 2255/3/6 2254/3/6 2256/3/6
f 2251/11/6 2252/11/6 2257/11/6
f 2257/11/6 2252/11/6 2258/11/6
f 2259/2/6 2260/2/6 2261/2/6
f 2261/2/6 2260/2/6 2262/2/6
f 2263/3/6 2264/3/6 2265/3/6
f 2265/3/6 2264/3/6 2266/3/6
f 2267/13/6 2268/13/6 2269/13/6
f 2269/13/6 2268/13/6 2270/13/6
f 2271/3/6 2272/3/6 2273/3/6
f 2273/3/6 2272/3/6 2274/3/6
f 2275/3/6 2276/3/6 2277/3/6
f 2277/3/6 2276/3/6 2278/3/6
f 2279/3/6 2280/3/6 2281/3/6
f 2281/3/6 2280/3/6 2282/3/6
f 2283/3/6 2284/3/6 2285/3/6
f 2285/3/6 2284/3/6 2286/3/6
f 2287/13/6 2288/13/6 2291/13/6
f 2291/13/6 2288/13/6 2292/13/6
f 2289/13/6 2290/13/6 2293/13/6
f 2293/13/6 2290/13/6 2294/13/6
f 2295/3/6 2296/3/6 2297/3/6
f 2297/3/6 2296/3/6 2298/3/6
f 2299/3/6 2300/3/6 2301/3/6
f 2301/3/6 2300/3/6 2302/3/6
f 2303/3/6 2304/3/6 2305/3/6
f 2305/3/6 2304/3/6 2306/3/6
f 2306/11/6 2307/11/6 2312/11/6
f 2312/11/6 2307/11/6 2313/11/6
f 2308/2/6 2309/2/6 2314/2/6
f 2314/2/6 2309/2/6 2315/2/6
f 2310/2/6 2311/2/6 2316/2/6
f 2316/2/6 2311/2/6 2317/2/6
f 2306/11/6 2312/11/6 2318/11/6
f 2306/11/6 2318/11/6 2325/11/6
f 2318/11/6 2319/11/6 2325/11/6
f 2325/11/6 2319/11/6 2326/11/6
f 2320/2/6 2321/2/6 2327/2/6
f 2327/2/6 2321/2/6 2328/2/6
f 2322/2/6 2323/2/6 2329/2/6
f 2329/2/6 2323/2/6 2330/2/6
f 2324/3/6 2325/3/6 2331/3/6
f 2331/3/6 2325/3/6 2332/3/6
f 2333/4/6 2334/4/6 2335/4/6
f 2335/4/6 2334/4/6 2336/4/6
f 2337/3/6 2338/3/6 2339/3/6
f 2339/3/6 2338/3/6 2340/3/6
f 2343/2/6 2344/2/6 2348/2/6
f 2348/2/6 2344/2/6 2349/2/6
f 2345/3/6 2346/3/6 2351/3/6
f 2351/3/6 2346/3/6 2352/3/6
f 2347/2/6 2348/2/6 2353/2/6
f 2353/2/6 2348/2/6 2354/2/6
f 2349/2/6 2350/2/6 2355/2/6
f 2355/2/6 2350/2/6 2356/2/6
f 2341/2/6 2342/2/6 2357/2/6
f 2357/2/6 2342/2/6 2358/2/6
f 2354/2/6 2355/2/6 2359/2/6
f 2359/2/6 2355/2/6 2360/2/6
f 2361/3/6 2362/3/6 2363/3/6
f 2363/3/6 2362/3/6 2364/3/6
f 2365/3/6 2366/3/6 2369/3/6
f 2369/3/6 2366/3/6 2370/3/6
f 2367/3/6 2368/3/6 2371/3/6
f 2371/3/6 2368/3/6 2372/3/6
f 2373/3/6 2374/3/6 2375/3/6
f 2375/3/6 2374/3/6 2376/3/6
f 2377/3/6 2378/3/6 2379/3/6
f 2379/3/6 2378/3/6 2380/3/6
f 2381/3/6 2382/3/6 2383/3/6
f 2383/3/6 2382/3/6 2384/3/6
f 2385/3/6 2386/3/6 2387/3/6
f 2387/3/6 2386/3/6 2388/3/6
f 2389/3/6 2390/3/6 2391/3/6
f 2391/3/6 2390/3/6 2392/3/6
f 2393/3/6 2394/3/6 2395/3/6
f 2395/3/6 2394/3/6 2396/3/6
f 2397/3/6 2398/3/6 2399/3/6
f 2399/3/6 2398/3/6 2400/3/6
f 2401/9/6 2402/9/6 2405/9/6
f 2405/9/6 2402/9/6 2406/9/6
f 2403/9/6 2404/9/6 2407/9/6
f 2407/9/6 2404/9/6 2408/9/6
f 2408/9/6 2404/9/6 2409/9/6
f 2401/9/6 2405/9/6 2410/9/6
f 2410/9/6 2405/9/6 2411/9/6
f 2412/9/6 2413/9/6 2418/9/6
f 2418/9/6 2413/9/6 2419/9/6
f 2414/2/6 2415/2/6 2420/2/6
f 2420/2/6 2415/2/6 2421/2/6
f 2416/2/6 2417/2/6 2422/2/6
f 2422/2/6 2417/2/6 2423/2/6
f 2418/3/6 2419/3/6 2424/3/6
f 2424/3/6 2419/3/6 2425/3/6
f 2426/2/6 2427/2/6 2430/2/6
f 2430/2/6 2427/2/6 2431/2/6
f 2428/2/6 2429/2/6 2432/2/6
f 2432/2/6 2429/2/6 2433/2/6
f 2434/4/6 2435/4/6 2438/4/6
f 2438/4/6 2435/4/6 2439/4/6
f 2436/2/6 2437/2/6 2443/2/6
f 2443/2/6 2437/2/6 2444/2/6
f 2440/2/6 2441/2/6 2445/2/6
f 2441/3/6 2442/3/6 2446/3/6
f 2445/2/6 2441/2/6 2446/2/6
f 2446/3/6 2442/3/6 2447/3/6
f 2448/2/6 2449/2/6 2451/2/6
f 2451/2/6 2449/2/6 2452/2/6
f 2450/2/6 2451/2/6 2454/2/6
f 2454/2/6 2451/2/6 2455/2/6
f 2452/2/6 2453/2/6 2456/2/6
f 2456/2/6 2453/2/6 2457/2/6
f 2455/2/6 2456/2/6 2460/2/6
f 2460/2/6 2456/2/6 2461/2/6
f 2458/3/6 2459/3/6 2464/3/6
f 2464/3/6 2459/3/6 2465/3/6
f 2462/3/6 2463/3/6 2466/3/6
f 2466/3/6 2463/3/6 2467/3/6
f 2467/2/6 2468/2/6 2471/2/6
f 2471/2/6 2468/2/6 2472/2/6
f 2469/2/6 2470/2/6 2475/2/6
f 2475/2/6 2470/2/6 2476/2/6
f 2473/3/6 2474/3/6 2477/3/6
f 2477/3/6 2474/3/6 2478/3/6
f 2475/3/6 2476/3/6 2479/3/6
f 2479/3/6 2476/3/6 2480/3/6
f 2481/3/6 2482/3/6 2483/3/6
f 2483/3/6 2482/3/6 2484/3/6
f 2485/12/6 2486/12/6 2491/12/6
f 2491/12/6 2486/12/6 2492/12/6
f 2487/12/6 2488/12/6 2493/12/6
f 2493/12/6 2488/12/6 2494/12/6
f 2489/12/6 2490/12/6 2495/12/6
f 2495/12/6 2490/12/6 2496/12/6
f 2497/12/6 2498/12/6 2499/12/6
f 2499/12/6 2498/12/6 2500/12/6
f 2501/12/6 2502/12/6 2503/12/6
f 2503/12/6 2502/12/6 2504/12/6
f 2505/12/6 2506/12/6 2509/12/6
f 2509/12/6 2506/12/6 2510/12/6
f 2507/12/6 2508/12/6 2511/12/6
f 2511/12/6 2508/12/6 2512/12/6
f 2513/12/6 2514/12/6 2517/12/6
f 2517/12/6 2514/12/6 2518/12/6
f 2518/12/6 2514/12/6 2519/12/6
f 2515/12/6 2516/12/6 2521/12/6
f 2521/12/6 2516/12/6 2522/12/6
f 2519/12/6 2520/12/6 2526/12/6
f 2518/12/6 2519/12/6 2526/12/6
f 2526/12/6 2520/12/6 2527/12/6
f 2527/12/6 2520/12/6 2528/12/6
f 2521/12/6 2522/12/6 2529/12/6
f 2529/12/6 2522/12/6 2530/12/6
f 2523/12/6 2524/12/6 2532/12/6
f 2532/12/6 2524/12/6 2533/12/6
f 2525/12/6 2526/12/6 2535/12/6
f 2535/12/6 2526/12/6 2536/12/6
f 2527/12/6 2528/12/6 2537/12/6
f 2528/12/6 2529/12/6 2537/12/6
f 2537/12/6 2529/12/6 2538/12/6
f 2531/12/6 2532/12/6 2539/12/6
f 2539/12/6 2532/12/6 2540/12/6
f 2535/12/6 2536/12/6 2542/12/6
f 2537/12/6 2538/12/6 2542/12/6
f 2538/12/6 2539/12/6 2542/12/6
f 2534/12/6 2535/12/6 2542/12/6
f 2536/12/6 2537/12/6 2542/12/6
f 2542/12/6 2539/12/6 2543/12/6
f 2543/12/6 2539/12/6 2544/12/6
f 2544/12/6 2539/12/6 2545/12/6
f 2545/12/6 2539/12/6 2546/12/6
f 2540/12/6 2541/12/6 2547/12/6
f 2543/12/6 2544/12/6 2549/12/6
f 2549/12/6 2544/12/6 2550/12/6
f 2545/12/6 2546/12/6 2552/12/6
f 2546/12/6 2547/12/6 2552/12/6
f 2552/12/6 2547/12/6 2553/12/6
f 2547/12/6 2541/12/6 2554/12/6
f 2553/12/6 2547/12/6 2554/12/6
f 2554/12/6 2541/12/6 2555/12/6
f 2550/12/6 2551/12/6 2556/12/6
f 2549/12/6 2550/12/6 2556/12/6
f 2548/12/6 2549/12/6 2556/12/6
f 2556/12/6 2551/12/6 2557/12/6
f 2557/12/6 2551/12/6 2558/12/6
f 2558/12/6 2551/12/6 2559/12/6
f 2545/12/6 2552/12/6 2560/12/6
f 2560/12/6 2552/12/6 2561/12/6
f 2553/12/6 2554/12/6 2562/12/6
f 2562/12/6 2554/12/6 2563/12/6
f 2557/12/6 2558/12/6 2564/12/6
f 2559/12/6 2560/12/6 2565/12/6
f 2565/12/6 2560/12/6 2566/12/6
f 2562/12/6 2563/12/6 2567/12/6
f 2561/12/6 2562/12/6 2567/12/6
f 2565/12/6 2566/12/6 2568/12/6
f 2566/12/6 2567/12/6 2568/12/6
f 2564/12/6 2565/12/6 2568/12/6
f 2557/12/6 2564/12/6 2568/12/6
f 2568/12/6 2567/12/6 2569/12/6
f 2567/12/6 2563/12/6 2570/12/6
f 2569/12/6 2567/12/6 2570/12/6
f 2570/12/6 2563/12/6 2571/12/6
f 2569/12/6 2570/12/6 2572/12/6
f 2572/12/6 2570/12/6 2573/12/6
f 2571/12/6 2563/12/6 2574/12/6
f 2574/12/6 2563/12/6 2575/12/6
f 2576/12/6 2577/12/6 2583/12/6
f 2578/12/6 2579/12/6 2584/12/6
f 2584/12/6 2579/12/6 2585/12/6
f 2580/12/6 2581/12/6 2587/12/6
f 2587/12/6 2581/12/6 2588/12/6
f 2582/12/6 2583/12/6 2589/12/6
f 2583/12/6 2577/12/6 2590/12/6
f 2589/12/6 2583/12/6 2590/12/6
f 2590/12/6 2577/12/6 2591/12/6
f 2585/12/6 2586/12/6 2592/12/6
f 2592/12/6 2586/12/6 2593/12/6
f 2589/12/6 2590/12/6 2594/12/6
f 2588/12/6 2589/12/6 2594/12/6
f 2594/12/6 2590/12/6 2595/12/6
f 2595/12/6 2596/12/6 2599/12/6
f 2599/12/6 2596/12/6 2600/12/6
f 2597/12/6 2598/12/6 2601/12/6
f 2601/12/6 2598/12/6 2602/12/6
f 2602/12/6 2598/12/6 2608/12/6
f 2608/12/6 2598/12/6 2609/12/6
f 2603/12/6 2604/12/6 2610/12/6
f 2610/12/6 2604/12/6 2611/12/6
f 2605/12/6 2606/12/6 2612/12/6
f 2612/12/6 2606/12/6 2613/12/6
f 2607/12/6 2608/12/6 2614/12/6
f 2614/12/6 2608/12/6 2615/12/6
f 2609/12/6 2610/12/6 2616/12/6
f 2616/12/6 2610/12/6 2617/12/6
