# MagicaVoxel @ Ephtracy

# group
o metal-blue

# material
mtllib wall-metal-white.mtl
usemtl palette

# normals
vn -1 0 0
vn 1 0 0
vn 0 0 1
vn 0 0 -1
vn 0 -1 0
vn 0 1 0

# texcoords
vt 0.0683594 0.5
vt 0.0722656 0.5
vt 0.494141 0.5
vt 0.498047 0.5
vt 0.587891 0.5

# verts
v 0 1.5 0
v 0 1.5 -0.2
v 0 1.8 -0.2
v 0 1.8 -0.4
v 0 1.9 -0.3
v 0 1.9 -0.4
v 0 2 -0.3
v 0 2 -0.4
v 0 2.1 -0.2
v 0 2.1 -0.4
v 0 4 -0.2
v 0 4 -0.4
v 0 4.1 -0.3
v 0 4.1 -0.4
v 0 4.2 -0.3
v 0 4.2 -0.4
v 0 4.3 -0.2
v 0 4.3 -0.4
v 0 4.8 0
v 0 4.8 -0.2
v 0.2 1.5 -0.1
v 0.2 1.5 -0.2
v 0.2 1.8 -0.1
v 0.2 1.8 -0.2
v 0.2 2.1 -0.1
v 0.2 2.1 -0.2
v 0.2 4 -0.2
v 0.2 4.3 -0.2
v 0.2 4.8 -0.1
v 0.2 4.8 -0.2
v 0.4 1.5 0
v 0.4 1.5 -0.1
v 0.4 4.8 0
v 0.4 4.8 -0.1
v 0.6 1.5 -0.1
v 0.6 1.5 -0.2
v 0.6 1.8 -0.1
v 0.6 1.8 -0.2
v 0.6 2.1 -0.1
v 0.6 2.1 -0.2
v 0.6 4 -0.2
v 0.6 4.3 -0.2
v 0.6 4.8 -0.1
v 0.6 4.8 -0.2
v 0.8 1.5 0
v 0.8 1.5 -0.1
v 0.8 4.8 0
v 0.8 4.8 -0.1
v 1 1.5 -0.1
v 1 1.5 -0.2
v 1 1.8 -0.1
v 1 1.8 -0.2
v 1 2.1 -0.1
v 1 2.1 -0.2
v 1 4 -0.2
v 1 4.3 -0.2
v 1 4.8 -0.1
v 1 4.8 -0.2
v 1.2 1.5 0
v 1.2 1.5 -0.1
v 1.2 4.8 0
v 1.2 4.8 -0.1
v 1.4 1.5 -0.1
v 1.4 1.5 -0.2
v 1.4 1.8 -0.1
v 1.4 1.8 -0.2
v 1.4 2.1 -0.1
v 1.4 2.1 -0.2
v 1.4 4 -0.2
v 1.4 4.3 -0.2
v 1.4 4.8 -0.1
v 1.4 4.8 -0.2
v 1.6 1.5 0
v 1.6 1.5 -0.1
v 1.6 1.9 -0.3
v 1.6 1.9 -0.4
v 1.6 2 -0.3
v 1.6 2 -0.4
v 1.6 4.8 0
v 1.6 4.8 -0.1
v 1.8 1.5 -0.1
v 1.8 1.5 -0.2
v 1.8 1.8 -0.1
v 1.8 1.8 -0.2
v 1.8 2.1 -0.1
v 1.8 2.1 -0.2
v 1.8 4 -0.2
v 1.8 4.1 -0.3
v 1.8 4.1 -0.4
v 1.8 4.2 -0.3
v 1.8 4.2 -0.4
v 1.8 4.3 -0.2
v 1.8 4.8 -0.1
v 1.8 4.8 -0.2
v 2 1.5 0
v 2 1.5 -0.1
v 2 4.8 0
v 2 4.8 -0.1
v 2.2 1.5 -0.1
v 2.2 1.5 -0.2
v 2.2 1.8 -0.1
v 2.2 1.8 -0.2
v 2.2 2.1 -0.1
v 2.2 2.1 -0.2
v 2.2 4 -0.2
v 2.2 4.3 -0.2
v 2.2 4.8 -0.1
v 2.2 4.8 -0.2
v 2.4 1.5 0
v 2.4 1.5 -0.1
v 2.4 4.8 0
v 2.4 4.8 -0.1
v 2.6 1.5 -0.1
v 2.6 1.5 -0.2
v 2.6 1.8 -0.1
v 2.6 1.8 -0.2
v 2.6 2.1 -0.1
v 2.6 2.1 -0.2
v 2.6 4 -0.2
v 2.6 4.3 -0.2
v 2.6 4.8 -0.1
v 2.6 4.8 -0.2
v 2.8 1.5 0
v 2.8 1.5 -0.1
v 2.8 4.8 0
v 2.8 4.8 -0.1
v 3 1.5 -0.1
v 3 1.5 -0.2
v 3 1.8 -0.1
v 3 1.8 -0.2
v 3 2.1 -0.1
v 3 2.1 -0.2
v 3 4 -0.2
v 3 4.3 -0.2
v 3 4.8 -0.1
v 3 4.8 -0.2
v 3.2 1.5 0
v 3.2 1.5 -0.1
v 3.2 4.8 0
v 3.2 4.8 -0.1
v 3.4 1.5 -0.1
v 3.4 1.5 -0.2
v 3.4 1.8 -0.1
v 3.4 1.8 -0.2
v 3.4 2.1 -0.1
v 3.4 2.1 -0.2
v 3.4 4 -0.2
v 3.4 4.3 -0.2
v 3.4 4.8 -0.1
v 3.4 4.8 -0.2
v 3.6 1.5 0
v 3.6 1.5 -0.1
v 3.6 1.9 -0.3
v 3.6 1.9 -0.4
v 3.6 2 -0.3
v 3.6 2 -0.4
v 3.6 4.1 -0.3
v 3.6 4.1 -0.4
v 3.6 4.2 -0.3
v 3.6 4.2 -0.4
v 3.6 4.8 0
v 3.6 4.8 -0.1
v 3.8 1.5 -0.1
v 3.8 1.5 -0.2
v 3.8 1.8 -0.1
v 3.8 1.8 -0.2
v 3.8 2.1 -0.1
v 3.8 2.1 -0.2
v 3.8 4 -0.2
v 3.8 4.3 -0.2
v 3.8 4.8 -0.1
v 3.8 4.8 -0.2
v 0.1 1.5 -0.1
v 0.1 1.5 -0.2
v 0.1 1.8 -0.1
v 0.1 1.8 -0.2
v 0.1 2.1 -0.1
v 0.1 2.1 -0.2
v 0.1 4 -0.2
v 0.1 4.3 -0.2
v 0.1 4.8 -0.1
v 0.1 4.8 -0.2
v 0.3 1.5 0
v 0.3 1.5 -0.1
v 0.3 4.8 0
v 0.3 4.8 -0.1
v 0.5 1.5 -0.1
v 0.5 1.5 -0.2
v 0.5 1.8 -0.1
v 0.5 1.8 -0.2
v 0.5 2.1 -0.1
v 0.5 2.1 -0.2
v 0.5 4 -0.2
v 0.5 4.3 -0.2
v 0.5 4.8 -0.1
v 0.5 4.8 -0.2
v 0.7 1.5 0
v 0.7 1.5 -0.1
v 0.7 4.8 0
v 0.7 4.8 -0.1
v 0.9 1.5 -0.1
v 0.9 1.5 -0.2
v 0.9 1.8 -0.1
v 0.9 1.8 -0.2
v 0.9 2.1 -0.1
v 0.9 2.1 -0.2
v 0.9 4 -0.2
v 0.9 4.3 -0.2
v 0.9 4.8 -0.1
v 0.9 4.8 -0.2
v 1.1 1.5 0
v 1.1 1.5 -0.1
v 1.1 4.8 0
v 1.1 4.8 -0.1
v 1.3 1.5 -0.1
v 1.3 1.5 -0.2
v 1.3 1.8 -0.1
v 1.3 1.8 -0.2
v 1.3 2.1 -0.1
v 1.3 2.1 -0.2
v 1.3 4 -0.2
v 1.3 4.3 -0.2
v 1.3 4.8 -0.1
v 1.3 4.8 -0.2
v 1.5 1.5 0
v 1.5 1.5 -0.1
v 1.5 4.8 0
v 1.5 4.8 -0.1
v 1.7 1.5 -0.1
v 1.7 1.5 -0.2
v 1.7 1.8 -0.1
v 1.7 1.8 -0.2
v 1.7 1.9 -0.3
v 1.7 1.9 -0.4
v 1.7 2 -0.3
v 1.7 2 -0.4
v 1.7 2.1 -0.1
v 1.7 2.1 -0.2
v 1.7 4 -0.2
v 1.7 4.3 -0.2
v 1.7 4.8 -0.1
v 1.7 4.8 -0.2
v 1.9 1.5 0
v 1.9 1.5 -0.1
v 1.9 4.1 -0.3
v 1.9 4.1 -0.4
v 1.9 4.2 -0.3
v 1.9 4.2 -0.4
v 1.9 4.8 0
v 1.9 4.8 -0.1
v 2.1 1.5 -0.1
v 2.1 1.5 -0.2
v 2.1 1.8 -0.1
v 2.1 1.8 -0.2
v 2.1 2.1 -0.1
v 2.1 2.1 -0.2
v 2.1 4 -0.2
v 2.1 4.3 -0.2
v 2.1 4.8 -0.1
v 2.1 4.8 -0.2
v 2.3 1.5 0
v 2.3 1.5 -0.1
v 2.3 4.8 0
v 2.3 4.8 -0.1
v 2.5 1.5 -0.1
v 2.5 1.5 -0.2
v 2.5 1.8 -0.1
v 2.5 1.8 -0.2
v 2.5 2.1 -0.1
v 2.5 2.1 -0.2
v 2.5 4 -0.2
v 2.5 4.3 -0.2
v 2.5 4.8 -0.1
v 2.5 4.8 -0.2
v 2.7 1.5 0
v 2.7 1.5 -0.1
v 2.7 4.8 0
v 2.7 4.8 -0.1
v 2.9 1.5 -0.1
v 2.9 1.5 -0.2
v 2.9 1.8 -0.1
v 2.9 1.8 -0.2
v 2.9 2.1 -0.1
v 2.9 2.1 -0.2
v 2.9 4 -0.2
v 2.9 4.3 -0.2
v 2.9 4.8 -0.1
v 2.9 4.8 -0.2
v 3.1 1.5 0
v 3.1 1.5 -0.1
v 3.1 4.8 0
v 3.1 4.8 -0.1
v 3.3 1.5 -0.1
v 3.3 1.5 -0.2
v 3.3 1.8 -0.1
v 3.3 1.8 -0.2
v 3.3 2.1 -0.1
v 3.3 2.1 -0.2
v 3.3 4 -0.2
v 3.3 4.3 -0.2
v 3.3 4.8 -0.1
v 3.3 4.8 -0.2
v 3.5 1.5 0
v 3.5 1.5 -0.1
v 3.5 4.8 0
v 3.5 4.8 -0.1
v 3.7 1.5 -0.1
v 3.7 1.5 -0.2
v 3.7 1.8 -0.1
v 3.7 1.8 -0.2
v 3.7 1.9 -0.3
v 3.7 1.9 -0.4
v 3.7 2 -0.3
v 3.7 2 -0.4
v 3.7 2.1 -0.1
v 3.7 2.1 -0.2
v 3.7 4 -0.2
v 3.7 4.1 -0.3
v 3.7 4.1 -0.4
v 3.7 4.2 -0.3
v 3.7 4.2 -0.4
v 3.7 4.3 -0.2
v 3.7 4.8 -0.1
v 3.7 4.8 -0.2
v 3.9 1.5 0
v 3.9 1.5 -0.1
v 3.9 4.8 0
v 3.9 4.8 -0.1
v 4 1.5 -0.1
v 4 1.5 -0.2
v 4 1.8 -0.2
v 4 1.8 -0.4
v 4 1.9 -0.3
v 4 1.9 -0.4
v 4 2 -0.3
v 4 2 -0.4
v 4 2.1 -0.2
v 4 2.1 -0.4
v 4 4 -0.2
v 4 4 -0.4
v 4 4.1 -0.3
v 4 4.1 -0.4
v 4 4.2 -0.3
v 4 4.2 -0.4
v 4 4.3 -0.2
v 4 4.3 -0.4
v 4 4.8 -0.1
v 4 4.8 -0.2
v 0 1.5 0
v 0 4.8 0
v 0.3 1.5 0
v 0.3 4.8 0
v 0.4 1.5 0
v 0.4 4.8 0
v 0.7 1.5 0
v 0.7 4.8 0
v 0.8 1.5 0
v 0.8 4.8 0
v 1.1 1.5 0
v 1.1 4.8 0
v 1.2 1.5 0
v 1.2 4.8 0
v 1.5 1.5 0
v 1.5 4.8 0
v 1.6 1.5 0
v 1.6 4.8 0
v 1.9 1.5 0
v 1.9 4.8 0
v 2 1.5 0
v 2 4.8 0
v 2.3 1.5 0
v 2.3 4.8 0
v 2.4 1.5 0
v 2.4 4.8 0
v 2.7 1.5 0
v 2.7 4.8 0
v 2.8 1.5 0
v 2.8 4.8 0
v 3.1 1.5 0
v 3.1 4.8 0
v 3.2 1.5 0
v 3.2 4.8 0
v 3.5 1.5 0
v 3.5 4.8 0
v 3.6 1.5 0
v 3.6 4.8 0
v 3.9 1.5 0
v 3.9 4.8 0
v 0.3 1.5 -0.1
v 0.3 4.8 -0.1
v 0.4 1.5 -0.1
v 0.4 4.8 -0.1
v 0.7 1.5 -0.1
v 0.7 4.8 -0.1
v 0.8 1.5 -0.1
v 0.8 4.8 -0.1
v 1.1 1.5 -0.1
v 1.1 4.8 -0.1
v 1.2 1.5 -0.1
v 1.2 4.8 -0.1
v 1.5 1.5 -0.1
v 1.5 4.8 -0.1
v 1.6 1.5 -0.1
v 1.6 4.8 -0.1
v 1.9 1.5 -0.1
v 1.9 4.8 -0.1
v 2 1.5 -0.1
v 2 4.8 -0.1
v 2.3 1.5 -0.1
v 2.3 4.8 -0.1
v 2.4 1.5 -0.1
v 2.4 4.8 -0.1
v 2.7 1.5 -0.1
v 2.7 4.8 -0.1
v 2.8 1.5 -0.1
v 2.8 4.8 -0.1
v 3.1 1.5 -0.1
v 3.1 4.8 -0.1
v 3.2 1.5 -0.1
v 3.2 4.8 -0.1
v 3.5 1.5 -0.1
v 3.5 4.8 -0.1
v 3.6 1.5 -0.1
v 3.6 4.8 -0.1
v 3.9 1.5 -0.1
v 3.9 4.8 -0.1
v 4 1.5 -0.1
v 4 4.8 -0.1
v 0.1 4 -0.2
v 0.1 4.3 -0.2
v 0.2 4 -0.2
v 0.2 4.3 -0.2
v 0.5 4 -0.2
v 0.5 4.3 -0.2
v 0.6 4 -0.2
v 0.6 4.3 -0.2
v 0.9 4 -0.2
v 0.9 4.3 -0.2
v 1 4 -0.2
v 1 4.3 -0.2
v 1.3 4 -0.2
v 1.3 4.3 -0.2
v 1.4 4 -0.2
v 1.4 4.3 -0.2
v 1.7 4 -0.2
v 1.7 4.3 -0.2
v 1.8 4 -0.2
v 1.8 4.3 -0.2
v 2.1 4 -0.2
v 2.1 4.3 -0.2
v 2.2 4 -0.2
v 2.2 4.3 -0.2
v 2.5 4 -0.2
v 2.5 4.3 -0.2
v 2.6 4 -0.2
v 2.6 4.3 -0.2
v 2.9 4 -0.2
v 2.9 4.3 -0.2
v 3 4 -0.2
v 3 4.3 -0.2
v 3.3 4 -0.2
v 3.3 4.3 -0.2
v 3.4 4 -0.2
v 3.4 4.3 -0.2
v 3.7 4 -0.2
v 3.7 4.3 -0.2
v 3.8 4 -0.2
v 3.8 4.3 -0.2
v 0.1 1.5 -0.1
v 0.1 1.8 -0.1
v 0.1 2.1 -0.1
v 0.1 4.8 -0.1
v 0.2 1.5 -0.1
v 0.2 1.8 -0.1
v 0.2 2.1 -0.1
v 0.2 4.8 -0.1
v 0.5 1.5 -0.1
v 0.5 1.8 -0.1
v 0.5 2.1 -0.1
v 0.5 4.8 -0.1
v 0.6 1.5 -0.1
v 0.6 1.8 -0.1
v 0.6 2.1 -0.1
v 0.6 4.8 -0.1
v 0.9 1.5 -0.1
v 0.9 1.8 -0.1
v 0.9 2.1 -0.1
v 0.9 4.8 -0.1
v 1 1.5 -0.1
v 1 1.8 -0.1
v 1 2.1 -0.1
v 1 4.8 -0.1
v 1.3 1.5 -0.1
v 1.3 1.8 -0.1
v 1.3 2.1 -0.1
v 1.3 4.8 -0.1
v 1.4 1.5 -0.1
v 1.4 1.8 -0.1
v 1.4 2.1 -0.1
v 1.4 4.8 -0.1
v 1.7 1.5 -0.1
v 1.7 1.8 -0.1
v 1.7 2.1 -0.1
v 1.7 4.8 -0.1
v 1.8 1.5 -0.1
v 1.8 1.8 -0.1
v 1.8 2.1 -0.1
v 1.8 4.8 -0.1
v 2.1 1.5 -0.1
v 2.1 1.8 -0.1
v 2.1 2.1 -0.1
v 2.1 4.8 -0.1
v 2.2 1.5 -0.1
v 2.2 1.8 -0.1
v 2.2 2.1 -0.1
v 2.2 4.8 -0.1
v 2.5 1.5 -0.1
v 2.5 1.8 -0.1
v 2.5 2.1 -0.1
v 2.5 4.8 -0.1
v 2.6 1.5 -0.1
v 2.6 1.8 -0.1
v 2.6 2.1 -0.1
v 2.6 4.8 -0.1
v 2.9 1.5 -0.1
v 2.9 1.8 -0.1
v 2.9 2.1 -0.1
v 2.9 4.8 -0.1
v 3 1.5 -0.1
v 3 1.8 -0.1
v 3 2.1 -0.1
v 3 4.8 -0.1
v 3.3 1.5 -0.1
v 3.3 1.8 -0.1
v 3.3 2.1 -0.1
v 3.3 4.8 -0.1
v 3.4 1.5 -0.1
v 3.4 1.8 -0.1
v 3.4 2.1 -0.1
v 3.4 4.8 -0.1
v 3.7 1.5 -0.1
v 3.7 1.8 -0.1
v 3.7 2.1 -0.1
v 3.7 4.8 -0.1
v 3.8 1.5 -0.1
v 3.8 1.8 -0.1
v 3.8 2.1 -0.1
v 3.8 4.8 -0.1
v 0 1.5 -0.2
v 0 1.8 -0.2
v 0 2.1 -0.2
v 0 4 -0.2
v 0 4.3 -0.2
v 0 4.8 -0.2
v 0.1 1.5 -0.2
v 0.1 1.8 -0.2
v 0.1 2.1 -0.2
v 0.1 4 -0.2
v 0.1 4.3 -0.2
v 0.1 4.8 -0.2
v 0.2 1.5 -0.2
v 0.2 1.8 -0.2
v 0.2 2.1 -0.2
v 0.2 4 -0.2
v 0.2 4.3 -0.2
v 0.2 4.8 -0.2
v 0.5 1.5 -0.2
v 0.5 1.8 -0.2
v 0.5 2.1 -0.2
v 0.5 4 -0.2
v 0.5 4.3 -0.2
v 0.5 4.8 -0.2
v 0.6 1.5 -0.2
v 0.6 1.8 -0.2
v 0.6 2.1 -0.2
v 0.6 4 -0.2
v 0.6 4.3 -0.2
v 0.6 4.8 -0.2
v 0.9 1.5 -0.2
v 0.9 1.8 -0.2
v 0.9 2.1 -0.2
v 0.9 4 -0.2
v 0.9 4.3 -0.2
v 0.9 4.8 -0.2
v 1 1.5 -0.2
v 1 1.8 -0.2
v 1 2.1 -0.2
v 1 4 -0.2
v 1 4.3 -0.2
v 1 4.8 -0.2
v 1.3 1.5 -0.2
v 1.3 1.8 -0.2
v 1.3 2.1 -0.2
v 1.3 4 -0.2
v 1.3 4.3 -0.2
v 1.3 4.8 -0.2
v 1.4 1.5 -0.2
v 1.4 1.8 -0.2
v 1.4 2.1 -0.2
v 1.4 4 -0.2
v 1.4 4.3 -0.2
v 1.4 4.8 -0.2
v 1.7 1.5 -0.2
v 1.7 1.8 -0.2
v 1.7 2.1 -0.2
v 1.7 4 -0.2
v 1.7 4.3 -0.2
v 1.7 4.8 -0.2
v 1.8 1.5 -0.2
v 1.8 1.8 -0.2
v 1.8 2.1 -0.2
v 1.8 4 -0.2
v 1.8 4.3 -0.2
v 1.8 4.8 -0.2
v 2.1 1.5 -0.2
v 2.1 1.8 -0.2
v 2.1 2.1 -0.2
v 2.1 4 -0.2
v 2.1 4.3 -0.2
v 2.1 4.8 -0.2
v 2.2 1.5 -0.2
v 2.2 1.8 -0.2
v 2.2 2.1 -0.2
v 2.2 4 -0.2
v 2.2 4.3 -0.2
v 2.2 4.8 -0.2
v 2.5 1.5 -0.2
v 2.5 1.8 -0.2
v 2.5 2.1 -0.2
v 2.5 4 -0.2
v 2.5 4.3 -0.2
v 2.5 4.8 -0.2
v 2.6 1.5 -0.2
v 2.6 1.8 -0.2
v 2.6 2.1 -0.2
v 2.6 4 -0.2
v 2.6 4.3 -0.2
v 2.6 4.8 -0.2
v 2.9 1.5 -0.2
v 2.9 1.8 -0.2
v 2.9 2.1 -0.2
v 2.9 4 -0.2
v 2.9 4.3 -0.2
v 2.9 4.8 -0.2
v 3 1.5 -0.2
v 3 1.8 -0.2
v 3 2.1 -0.2
v 3 4 -0.2
v 3 4.3 -0.2
v 3 4.8 -0.2
v 3.3 1.5 -0.2
v 3.3 1.8 -0.2
v 3.3 2.1 -0.2
v 3.3 4 -0.2
v 3.3 4.3 -0.2
v 3.3 4.8 -0.2
v 3.4 1.5 -0.2
v 3.4 1.8 -0.2
v 3.4 2.1 -0.2
v 3.4 4 -0.2
v 3.4 4.3 -0.2
v 3.4 4.8 -0.2
v 3.7 1.5 -0.2
v 3.7 1.8 -0.2
v 3.7 2.1 -0.2
v 3.7 4 -0.2
v 3.7 4.3 -0.2
v 3.7 4.8 -0.2
v 3.8 1.5 -0.2
v 3.8 1.8 -0.2
v 3.8 2.1 -0.2
v 3.8 4 -0.2
v 3.8 4.3 -0.2
v 3.8 4.8 -0.2
v 4 1.5 -0.2
v 4 1.8 -0.2
v 4 2.1 -0.2
v 4 4 -0.2
v 4 4.3 -0.2
v 4 4.8 -0.2
v 0 1.9 -0.3
v 0 2 -0.3
v 0 4.1 -0.3
v 0 4.2 -0.3
v 1.6 1.9 -0.3
v 1.6 2 -0.3
v 1.7 1.9 -0.3
v 1.7 2 -0.3
v 1.8 4.1 -0.3
v 1.8 4.2 -0.3
v 1.9 4.1 -0.3
v 1.9 4.2 -0.3
v 3.6 1.9 -0.3
v 3.6 2 -0.3
v 3.6 4.1 -0.3
v 3.6 4.2 -0.3
v 3.7 1.9 -0.3
v 3.7 2 -0.3
v 3.7 4.1 -0.3
v 3.7 4.2 -0.3
v 4 1.9 -0.3
v 4 2 -0.3
v 4 4.1 -0.3
v 4 4.2 -0.3
v 0 1.8 -0.4
v 0 1.9 -0.4
v 0 2 -0.4
v 0 2.1 -0.4
v 0 4 -0.4
v 0 4.1 -0.4
v 0 4.2 -0.4
v 0 4.3 -0.4
v 1.6 1.9 -0.4
v 1.6 2 -0.4
v 1.7 1.9 -0.4
v 1.7 2 -0.4
v 1.8 4.1 -0.4
v 1.8 4.2 -0.4
v 1.9 4.1 -0.4
v 1.9 4.2 -0.4
v 3.6 1.9 -0.4
v 3.6 2 -0.4
v 3.6 4.1 -0.4
v 3.6 4.2 -0.4
v 3.7 1.9 -0.4
v 3.7 2 -0.4
v 3.7 4.1 -0.4
v 3.7 4.2 -0.4
v 4 1.8 -0.4
v 4 1.9 -0.4
v 4 2 -0.4
v 4 2.1 -0.4
v 4 4 -0.4
v 4 4.1 -0.4
v 4 4.2 -0.4
v 4 4.3 -0.4
v 0 1.5 0
v 0.3 1.5 0
v 0.4 1.5 0
v 0.7 1.5 0
v 0.8 1.5 0
v 1.1 1.5 0
v 1.2 1.5 0
v 1.5 1.5 0
v 1.6 1.5 0
v 1.9 1.5 0
v 2 1.5 0
v 2.3 1.5 0
v 2.4 1.5 0
v 2.7 1.5 0
v 2.8 1.5 0
v 3.1 1.5 0
v 3.2 1.5 0
v 3.5 1.5 0
v 3.6 1.5 0
v 3.9 1.5 0
v 0.1 1.5 -0.1
v 0.2 1.5 -0.1
v 0.3 1.5 -0.1
v 0.4 1.5 -0.1
v 0.5 1.5 -0.1
v 0.6 1.5 -0.1
v 0.7 1.5 -0.1
v 0.8 1.5 -0.1
v 0.9 1.5 -0.1
v 1 1.5 -0.1
v 1.1 1.5 -0.1
v 1.2 1.5 -0.1
v 1.3 1.5 -0.1
v 1.4 1.5 -0.1
v 1.5 1.5 -0.1
v 1.6 1.5 -0.1
v 1.7 1.5 -0.1
v 1.8 1.5 -0.1
v 1.9 1.5 -0.1
v 2 1.5 -0.1
v 2.1 1.5 -0.1
v 2.2 1.5 -0.1
v 2.3 1.5 -0.1
v 2.4 1.5 -0.1
v 2.5 1.5 -0.1
v 2.6 1.5 -0.1
v 2.7 1.5 -0.1
v 2.8 1.5 -0.1
v 2.9 1.5 -0.1
v 3 1.5 -0.1
v 3.1 1.5 -0.1
v 3.2 1.5 -0.1
v 3.3 1.5 -0.1
v 3.4 1.5 -0.1
v 3.5 1.5 -0.1
v 3.6 1.5 -0.1
v 3.7 1.5 -0.1
v 3.8 1.5 -0.1
v 3.9 1.5 -0.1
v 4 1.5 -0.1
v 0 1.5 -0.2
v 0.1 1.5 -0.2
v 0.2 1.5 -0.2
v 0.5 1.5 -0.2
v 0.6 1.5 -0.2
v 0.9 1.5 -0.2
v 1 1.5 -0.2
v 1.3 1.5 -0.2
v 1.4 1.5 -0.2
v 1.7 1.5 -0.2
v 1.8 1.5 -0.2
v 2.1 1.5 -0.2
v 2.2 1.5 -0.2
v 2.5 1.5 -0.2
v 2.6 1.5 -0.2
v 2.9 1.5 -0.2
v 3 1.5 -0.2
v 3.3 1.5 -0.2
v 3.4 1.5 -0.2
v 3.7 1.5 -0.2
v 3.8 1.5 -0.2
v 4 1.5 -0.2
v 0.1 1.8 -0.1
v 0.2 1.8 -0.1
v 0.5 1.8 -0.1
v 0.6 1.8 -0.1
v 0.9 1.8 -0.1
v 1 1.8 -0.1
v 1.3 1.8 -0.1
v 1.4 1.8 -0.1
v 1.7 1.8 -0.1
v 1.8 1.8 -0.1
v 2.1 1.8 -0.1
v 2.2 1.8 -0.1
v 2.5 1.8 -0.1
v 2.6 1.8 -0.1
v 2.9 1.8 -0.1
v 3 1.8 -0.1
v 3.3 1.8 -0.1
v 3.4 1.8 -0.1
v 3.7 1.8 -0.1
v 3.8 1.8 -0.1
v 0 1.8 -0.2
v 0.1 1.8 -0.2
v 0.2 1.8 -0.2
v 0.5 1.8 -0.2
v 0.6 1.8 -0.2
v 0.9 1.8 -0.2
v 1 1.8 -0.2
v 1.3 1.8 -0.2
v 1.4 1.8 -0.2
v 1.7 1.8 -0.2
v 1.8 1.8 -0.2
v 2.1 1.8 -0.2
v 2.2 1.8 -0.2
v 2.5 1.8 -0.2
v 2.6 1.8 -0.2
v 2.9 1.8 -0.2
v 3 1.8 -0.2
v 3.3 1.8 -0.2
v 3.4 1.8 -0.2
v 3.7 1.8 -0.2
v 3.8 1.8 -0.2
v 4 1.8 -0.2
v 0 1.8 -0.4
v 4 1.8 -0.4
v 0 2 -0.3
v 1.6 2 -0.3
v 1.7 2 -0.3
v 3.6 2 -0.3
v 3.7 2 -0.3
v 4 2 -0.3
v 0 2 -0.4
v 1.6 2 -0.4
v 1.7 2 -0.4
v 3.6 2 -0.4
v 3.7 2 -0.4
v 4 2 -0.4
v 0 4 -0.2
v 0.1 4 -0.2
v 0.2 4 -0.2
v 0.5 4 -0.2
v 0.6 4 -0.2
v 0.9 4 -0.2
v 1 4 -0.2
v 1.3 4 -0.2
v 1.4 4 -0.2
v 1.7 4 -0.2
v 1.8 4 -0.2
v 2.1 4 -0.2
v 2.2 4 -0.2
v 2.5 4 -0.2
v 2.6 4 -0.2
v 2.9 4 -0.2
v 3 4 -0.2
v 3.3 4 -0.2
v 3.4 4 -0.2
v 3.7 4 -0.2
v 3.8 4 -0.2
v 4 4 -0.2
v 0 4 -0.4
v 4 4 -0.4
v 0 4.2 -0.3
v 1.8 4.2 -0.3
v 1.9 4.2 -0.3
v 3.6 4.2 -0.3
v 3.7 4.2 -0.3
v 4 4.2 -0.3
v 0 4.2 -0.4
v 1.8 4.2 -0.4
v 1.9 4.2 -0.4
v 3.6 4.2 -0.4
v 3.7 4.2 -0.4
v 4 4.2 -0.4
v 0 1.9 -0.3
v 1.6 1.9 -0.3
v 1.7 1.9 -0.3
v 3.6 1.9 -0.3
v 3.7 1.9 -0.3
v 4 1.9 -0.3
v 0 1.9 -0.4
v 1.6 1.9 -0.4
v 1.7 1.9 -0.4
v 3.6 1.9 -0.4
v 3.7 1.9 -0.4
v 4 1.9 -0.4
v 0.1 2.1 -0.1
v 0.2 2.1 -0.1
v 0.5 2.1 -0.1
v 0.6 2.1 -0.1
v 0.9 2.1 -0.1
v 1 2.1 -0.1
v 1.3 2.1 -0.1
v 1.4 2.1 -0.1
v 1.7 2.1 -0.1
v 1.8 2.1 -0.1
v 2.1 2.1 -0.1
v 2.2 2.1 -0.1
v 2.5 2.1 -0.1
v 2.6 2.1 -0.1
v 2.9 2.1 -0.1
v 3 2.1 -0.1
v 3.3 2.1 -0.1
v 3.4 2.1 -0.1
v 3.7 2.1 -0.1
v 3.8 2.1 -0.1
v 0 2.1 -0.2
v 0.1 2.1 -0.2
v 0.2 2.1 -0.2
v 0.5 2.1 -0.2
v 0.6 2.1 -0.2
v 0.9 2.1 -0.2
v 1 2.1 -0.2
v 1.3 2.1 -0.2
v 1.4 2.1 -0.2
v 1.7 2.1 -0.2
v 1.8 2.1 -0.2
v 2.1 2.1 -0.2
v 2.2 2.1 -0.2
v 2.5 2.1 -0.2
v 2.6 2.1 -0.2
v 2.9 2.1 -0.2
v 3 2.1 -0.2
v 3.3 2.1 -0.2
v 3.4 2.1 -0.2
v 3.7 2.1 -0.2
v 3.8 2.1 -0.2
v 4 2.1 -0.2
v 0 2.1 -0.4
v 4 2.1 -0.4
v 0 4.1 -0.3
v 1.8 4.1 -0.3
v 1.9 4.1 -0.3
v 3.6 4.1 -0.3
v 3.7 4.1 -0.3
v 4 4.1 -0.3
v 0 4.1 -0.4
v 1.8 4.1 -0.4
v 1.9 4.1 -0.4
v 3.6 4.1 -0.4
v 3.7 4.1 -0.4
v 4 4.1 -0.4
v 0 4.3 -0.2
v 0.1 4.3 -0.2
v 0.2 4.3 -0.2
v 0.5 4.3 -0.2
v 0.6 4.3 -0.2
v 0.9 4.3 -0.2
v 1 4.3 -0.2
v 1.3 4.3 -0.2
v 1.4 4.3 -0.2
v 1.7 4.3 -0.2
v 1.8 4.3 -0.2
v 2.1 4.3 -0.2
v 2.2 4.3 -0.2
v 2.5 4.3 -0.2
v 2.6 4.3 -0.2
v 2.9 4.3 -0.2
v 3 4.3 -0.2
v 3.3 4.3 -0.2
v 3.4 4.3 -0.2
v 3.7 4.3 -0.2
v 3.8 4.3 -0.2
v 4 4.3 -0.2
v 0 4.3 -0.4
v 4 4.3 -0.4
v 0 4.8 0
v 0.3 4.8 0
v 0.4 4.8 0
v 0.7 4.8 0
v 0.8 4.8 0
v 1.1 4.8 0
v 1.2 4.8 0
v 1.5 4.8 0
v 1.6 4.8 0
v 1.9 4.8 0
v 2 4.8 0
v 2.3 4.8 0
v 2.4 4.8 0
v 2.7 4.8 0
v 2.8 4.8 0
v 3.1 4.8 0
v 3.2 4.8 0
v 3.5 4.8 0
v 3.6 4.8 0
v 3.9 4.8 0
v 0.1 4.8 -0.1
v 0.2 4.8 -0.1
v 0.3 4.8 -0.1
v 0.4 4.8 -0.1
v 0.5 4.8 -0.1
v 0.6 4.8 -0.1
v 0.7 4.8 -0.1
v 0.8 4.8 -0.1
v 0.9 4.8 -0.1
v 1 4.8 -0.1
v 1.1 4.8 -0.1
v 1.2 4.8 -0.1
v 1.3 4.8 -0.1
v 1.4 4.8 -0.1
v 1.5 4.8 -0.1
v 1.6 4.8 -0.1
v 1.7 4.8 -0.1
v 1.8 4.8 -0.1
v 1.9 4.8 -0.1
v 2 4.8 -0.1
v 2.1 4.8 -0.1
v 2.2 4.8 -0.1
v 2.3 4.8 -0.1
v 2.4 4.8 -0.1
v 2.5 4.8 -0.1
v 2.6 4.8 -0.1
v 2.7 4.8 -0.1
v 2.8 4.8 -0.1
v 2.9 4.8 -0.1
v 3 4.8 -0.1
v 3.1 4.8 -0.1
v 3.2 4.8 -0.1
v 3.3 4.8 -0.1
v 3.4 4.8 -0.1
v 3.5 4.8 -0.1
v 3.6 4.8 -0.1
v 3.7 4.8 -0.1
v 3.8 4.8 -0.1
v 3.9 4.8 -0.1
v 4 4.8 -0.1
v 0 4.8 -0.2
v 0.1 4.8 -0.2
v 0.2 4.8 -0.2
v 0.5 4.8 -0.2
v 0.6 4.8 -0.2
v 0.9 4.8 -0.2
v 1 4.8 -0.2
v 1.3 4.8 -0.2
v 1.4 4.8 -0.2
v 1.7 4.8 -0.2
v 1.8 4.8 -0.2
v 2.1 4.8 -0.2
v 2.2 4.8 -0.2
v 2.5 4.8 -0.2
v 2.6 4.8 -0.2
v 2.9 4.8 -0.2
v 3 4.8 -0.2
v 3.3 4.8 -0.2
v 3.4 4.8 -0.2
v 3.7 4.8 -0.2
v 3.8 4.8 -0.2
v 4 4.8 -0.2

# faces
f 3/1/1 2/1/1 1/1/1
f 5/4/1 4/4/1 3/4/1
f 6/4/1 4/4/1 5/4/1
f 7/4/1 5/4/1 3/4/1
f 9/1/1 3/1/1 1/1/1
f 9/4/1 8/4/1 7/4/1
f 9/4/1 7/4/1 3/4/1
f 10/4/1 8/4/1 9/4/1
f 11/1/1 9/1/1 1/1/1
f 13/5/1 12/5/1 11/5/1
f 14/5/1 12/5/1 13/5/1
f 15/5/1 13/5/1 11/5/1
f 17/1/1 11/1/1 1/1/1
f 17/5/1 16/5/1 15/5/1
f 17/5/1 15/5/1 11/5/1
f 18/5/1 16/5/1 17/5/1
f 19/1/1 17/1/1 1/1/1
f 20/1/1 17/1/1 19/1/1
f 23/1/1 22/1/1 21/1/1
f 24/1/1 22/1/1 23/1/1
f 27/1/1 26/1/1 25/1/1
f 28/1/1 27/1/1 25/1/1
f 29/1/1 28/1/1 25/1/1
f 30/1/1 28/1/1 29/1/1
f 33/1/1 32/1/1 31/1/1
f 34/1/1 32/1/1 33/1/1
f 37/1/1 36/1/1 35/1/1
f 38/1/1 36/1/1 37/1/1
f 41/1/1 40/1/1 39/1/1
f 42/1/1 41/1/1 39/1/1
f 43/1/1 42/1/1 39/1/1
f 44/1/1 42/1/1 43/1/1
f 47/1/1 46/1/1 45/1/1
f 48/1/1 46/1/1 47/1/1
f 51/1/1 50/1/1 49/1/1
f 52/1/1 50/1/1 51/1/1
f 55/1/1 54/1/1 53/1/1
f 56/1/1 55/1/1 53/1/1
f 57/1/1 56/1/1 53/1/1
f 58/1/1 56/1/1 57/1/1
f 61/1/1 60/1/1 59/1/1
f 62/1/1 60/1/1 61/1/1
f 65/1/1 64/1/1 63/1/1
f 66/1/1 64/1/1 65/1/1
f 69/1/1 68/1/1 67/1/1
f 70/1/1 69/1/1 67/1/1
f 71/1/1 70/1/1 67/1/1
f 72/1/1 70/1/1 71/1/1
f 77/3/1 76/3/1 75/3/1
f 78/3/1 76/3/1 77/3/1
f 79/1/1 74/1/1 73/1/1
f 80/1/1 74/1/1 79/1/1
f 83/1/1 82/1/1 81/1/1
f 84/1/1 82/1/1 83/1/1
f 87/1/1 86/1/1 85/1/1
f 90/5/1 89/5/1 88/5/1
f 91/5/1 89/5/1 90/5/1
f 92/1/1 87/1/1 85/1/1
f 93/1/1 92/1/1 85/1/1
f 94/1/1 92/1/1 93/1/1
f 97/1/1 96/1/1 95/1/1
f 98/1/1 96/1/1 97/1/1
f 101/1/1 100/1/1 99/1/1
f 102/1/1 100/1/1 101/1/1
f 105/1/1 104/1/1 103/1/1
f 106/1/1 105/1/1 103/1/1
f 107/1/1 106/1/1 103/1/1
f 108/1/1 106/1/1 107/1/1
f 111/1/1 110/1/1 109/1/1
f 112/1/1 110/1/1 111/1/1
f 115/1/1 114/1/1 113/1/1
f 116/1/1 114/1/1 115/1/1
f 119/1/1 118/1/1 117/1/1
f 120/1/1 119/1/1 117/1/1
f 121/1/1 120/1/1 117/1/1
f 122/1/1 120/1/1 121/1/1
f 125/1/1 124/1/1 123/1/1
f 126/1/1 124/1/1 125/1/1
f 129/1/1 128/1/1 127/1/1
f 130/1/1 128/1/1 129/1/1
f 133/1/1 132/1/1 131/1/1
f 134/1/1 133/1/1 131/1/1
f 135/1/1 134/1/1 131/1/1
f 136/1/1 134/1/1 135/1/1
f 139/1/1 138/1/1 137/1/1
f 140/1/1 138/1/1 139/1/1
f 143/1/1 142/1/1 141/1/1
f 144/1/1 142/1/1 143/1/1
f 147/1/1 146/1/1 145/1/1
f 148/1/1 147/1/1 145/1/1
f 149/1/1 148/1/1 145/1/1
f 150/1/1 148/1/1 149/1/1
f 155/3/1 154/3/1 153/3/1
f 156/3/1 154/3/1 155/3/1
f 159/5/1 158/5/1 157/5/1
f 160/5/1 158/5/1 159/5/1
f 161/1/1 152/1/1 151/1/1
f 162/1/1 152/1/1 161/1/1
f 165/2/1 164/2/1 163/2/1
f 166/2/1 164/2/1 165/2/1
f 169/2/1 168/2/1 167/2/1
f 170/2/1 169/2/1 167/2/1
f 171/2/1 170/2/1 167/2/1
f 172/2/1 170/2/1 171/2/1
f 173/1/2 174/1/2 175/1/2
f 175/1/2 174/1/2 176/1/2
f 177/1/2 178/1/2 179/1/2
f 177/1/2 179/1/2 180/1/2
f 177/1/2 180/1/2 181/1/2
f 181/1/2 180/1/2 182/1/2
f 183/1/2 184/1/2 185/1/2
f 185/1/2 184/1/2 186/1/2
f 187/1/2 188/1/2 189/1/2
f 189/1/2 188/1/2 190/1/2
f 191/1/2 192/1/2 193/1/2
f 191/1/2 193/1/2 194/1/2
f 191/1/2 194/1/2 195/1/2
f 195/1/2 194/1/2 196/1/2
f 197/1/2 198/1/2 199/1/2
f 199/1/2 198/1/2 200/1/2
f 201/1/2 202/1/2 203/1/2
f 203/1/2 202/1/2 204/1/2
f 205/1/2 206/1/2 207/1/2
f 205/1/2 207/1/2 208/1/2
f 205/1/2 208/1/2 209/1/2
f 209/1/2 208/1/2 210/1/2
f 211/1/2 212/1/2 213/1/2
f 213/1/2 212/1/2 214/1/2
f 215/1/2 216/1/2 217/1/2
f 217/1/2 216/1/2 218/1/2
f 219/1/2 220/1/2 221/1/2
f 219/1/2 221/1/2 222/1/2
f 219/1/2 222/1/2 223/1/2
f 223/1/2 222/1/2 224/1/2
f 225/1/2 226/1/2 227/1/2
f 227/1/2 226/1/2 228/1/2
f 229/1/2 230/1/2 231/1/2
f 231/1/2 230/1/2 232/1/2
f 233/3/2 234/3/2 235/3/2
f 235/3/2 234/3/2 236/3/2
f 237/1/2 238/1/2 239/1/2
f 237/1/2 239/1/2 240/1/2
f 237/1/2 240/1/2 241/1/2
f 241/1/2 240/1/2 242/1/2
f 245/5/2 246/5/2 247/5/2
f 247/5/2 246/5/2 248/5/2
f 243/1/2 244/1/2 249/1/2
f 249/1/2 244/1/2 250/1/2
f 251/1/2 252/1/2 253/1/2
f 253/1/2 252/1/2 254/1/2
f 255/1/2 256/1/2 257/1/2
f 255/1/2 257/1/2 258/1/2
f 255/1/2 258/1/2 259/1/2
f 259/1/2 258/1/2 260/1/2
f 261/1/2 262/1/2 263/1/2
f 263/1/2 262/1/2 264/1/2
f 265/1/2 266/1/2 267/1/2
f 267/1/2 266/1/2 268/1/2
f 269/1/2 270/1/2 271/1/2
f 269/1/2 271/1/2 272/1/2
f 269/1/2 272/1/2 273/1/2
f 273/1/2 272/1/2 274/1/2
f 275/1/2 276/1/2 277/1/2
f 277/1/2 276/1/2 278/1/2
f 279/1/2 280/1/2 281/1/2
f 281/1/2 280/1/2 282/1/2
f 283/1/2 284/1/2 285/1/2
f 283/1/2 285/1/2 286/1/2
f 283/1/2 286/1/2 287/1/2
f 287/1/2 286/1/2 288/1/2
f 289/1/2 290/1/2 291/1/2
f 291/1/2 290/1/2 292/1/2
f 293/1/2 294/1/2 295/1/2
f 295/1/2 294/1/2 296/1/2
f 297/1/2 298/1/2 299/1/2
f 297/1/2 299/1/2 300/1/2
f 297/1/2 300/1/2 301/1/2
f 301/1/2 300/1/2 302/1/2
f 303/1/2 304/1/2 305/1/2
f 305/1/2 304/1/2 306/1/2
f 307/1/2 308/1/2 309/1/2
f 309/1/2 308/1/2 310/1/2
f 311/3/2 312/3/2 313/3/2
f 313/3/2 312/3/2 314/3/2
f 315/1/2 316/1/2 317/1/2
f 318/5/2 319/5/2 320/5/2
f 320/5/2 319/5/2 321/5/2
f 315/1/2 317/1/2 322/1/2
f 315/1/2 322/1/2 323/1/2
f 323/1/2 322/1/2 324/1/2
f 325/1/2 326/1/2 327/1/2
f 327/1/2 326/1/2 328/1/2
f 329/2/2 330/2/2 331/2/2
f 331/4/2 332/4/2 333/4/2
f 333/4/2 332/4/2 334/4/2
f 331/4/2 333/4/2 335/4/2
f 329/2/2 331/2/2 337/2/2
f 335/4/2 336/4/2 337/4/2
f 331/4/2 335/4/2 337/4/2
f 337/4/2 336/4/2 338/4/2
f 329/2/2 337/2/2 339/2/2
f 339/5/2 340/5/2 341/5/2
f 341/5/2 340/5/2 342/5/2
f 339/5/2 341/5/2 343/5/2
f 329/2/2 339/2/2 345/2/2
f 343/5/2 344/5/2 345/5/2
f 339/5/2 343/5/2 345/5/2
f 345/5/2 344/5/2 346/5/2
f 329/2/2 345/2/2 347/2/2
f 347/2/2 345/2/2 348/2/2
f 351/1/3 350/1/3 349/1/3
f 352/1/3 350/1/3 351/1/3
f 355/1/3 354/1/3 353/1/3
f 356/1/3 354/1/3 355/1/3
f 359/1/3 358/1/3 357/1/3
f 360/1/3 358/1/3 359/1/3
f 363/1/3 362/1/3 361/1/3
f 364/1/3 362/1/3 363/1/3
f 367/1/3 366/1/3 365/1/3
f 368/1/3 366/1/3 367/1/3
f 371/1/3 370/1/3 369/1/3
f 372/1/3 370/1/3 371/1/3
f 375/1/3 374/1/3 373/1/3
f 376/1/3 374/1/3 375/1/3
f 379/1/3 378/1/3 377/1/3
f 380/1/3 378/1/3 379/1/3
f 383/1/3 382/1/3 381/1/3
f 384/1/3 382/1/3 383/1/3
f 387/1/3 386/1/3 385/1/3
f 388/1/3 386/1/3 387/1/3
f 391/1/3 390/1/3 389/1/3
f 392/1/3 390/1/3 391/1/3
f 395/1/3 394/1/3 393/1/3
f 396/1/3 394/1/3 395/1/3
f 399/1/3 398/1/3 397/1/3
f 400/1/3 398/1/3 399/1/3
f 403/1/3 402/1/3 401/1/3
f 404/1/3 402/1/3 403/1/3
f 407/1/3 406/1/3 405/1/3
f 408/1/3 406/1/3 407/1/3
f 411/1/3 410/1/3 409/1/3
f 412/1/3 410/1/3 411/1/3
f 415/1/3 414/1/3 413/1/3
f 416/1/3 414/1/3 415/1/3
f 419/1/3 418/1/3 417/1/3
f 420/1/3 418/1/3 419/1/3
f 423/1/3 422/1/3 421/1/3
f 424/1/3 422/1/3 423/1/3
f 427/2/3 426/2/3 425/2/3
f 428/2/3 426/2/3 427/2/3
f 431/5/3 430/5/3 429/5/3
f 432/5/3 430/5/3 431/5/3
f 435/5/3 434/5/3 433/5/3
f 436/5/3 434/5/3 435/5/3
f 439/5/3 438/5/3 437/5/3
f 440/5/3 438/5/3 439/5/3
f 443/5/3 442/5/3 441/5/3
f 444/5/3 442/5/3 443/5/3
f 447/5/3 446/5/3 445/5/3
f 448/5/3 446/5/3 447/5/3
f 451/5/3 450/5/3 449/5/3
f 452/5/3 450/5/3 451/5/3
f 455/5/3 454/5/3 453/5/3
f 456/5/3 454/5/3 455/5/3
f 459/5/3 458/5/3 457/5/3
f 460/5/3 458/5/3 459/5/3
f 463/5/3 462/5/3 461/5/3
f 464/5/3 462/5/3 463/5/3
f 467/5/3 466/5/3 465/5/3
f 468/5/3 466/5/3 467/5/3
f 469/1/4 470/1/4 473/1/4
f 473/1/4 470/1/4 474/1/4
f 471/1/4 472/1/4 475/1/4
f 475/1/4 472/1/4 476/1/4
f 477/1/4 478/1/4 481/1/4
f 481/1/4 478/1/4 482/1/4
f 479/1/4 480/1/4 483/1/4
f 483/1/4 480/1/4 484/1/4
f 485/1/4 486/1/4 489/1/4
f 489/1/4 486/1/4 490/1/4
f 487/1/4 488/1/4 491/1/4
f 491/1/4 488/1/4 492/1/4
f 493/1/4 494/1/4 497/1/4
f 497/1/4 494/1/4 498/1/4
f 495/1/4 496/1/4 499/1/4
f 499/1/4 496/1/4 500/1/4
f 501/1/4 502/1/4 505/1/4
f 505/1/4 502/1/4 506/1/4
f 503/1/4 504/1/4 507/1/4
f 507/1/4 504/1/4 508/1/4
f 509/1/4 510/1/4 513/1/4
f 513/1/4 510/1/4 514/1/4
f 511/1/4 512/1/4 515/1/4
f 515/1/4 512/1/4 516/1/4
f 517/1/4 518/1/4 521/1/4
f 521/1/4 518/1/4 522/1/4
f 519/1/4 520/1/4 523/1/4
f 523/1/4 520/1/4 524/1/4
f 525/1/4 526/1/4 529/1/4
f 529/1/4 526/1/4 530/1/4
f 527/1/4 528/1/4 531/1/4
f 531/1/4 528/1/4 532/1/4
f 533/1/4 534/1/4 537/1/4
f 537/1/4 534/1/4 538/1/4
f 535/1/4 536/1/4 539/1/4
f 539/1/4 536/1/4 540/1/4
f 541/1/4 542/1/4 545/1/4
f 545/1/4 542/1/4 546/1/4
f 543/1/4 544/1/4 547/1/4
f 547/1/4 544/1/4 548/1/4
f 549/1/4 550/1/4 555/1/4
f 555/1/4 550/1/4 556/1/4
f 551/1/4 552/1/4 557/1/4
f 557/1/4 552/1/4 558/1/4
f 553/1/4 554/1/4 559/1/4
f 559/1/4 554/1/4 560/1/4
f 561/1/4 562/1/4 567/1/4
f 567/1/4 562/1/4 568/1/4
f 563/1/4 564/1/4 569/1/4
f 569/1/4 564/1/4 570/1/4
f 565/1/4 566/1/4 571/1/4
f 571/1/4 566/1/4 572/1/4
f 573/1/4 574/1/4 579/1/4
f 579/1/4 574/1/4 580/1/4
f 575/1/4 576/1/4 581/1/4
f 581/1/4 576/1/4 582/1/4
f 577/1/4 578/1/4 583/1/4
f 583/1/4 578/1/4 584/1/4
f 585/1/4 586/1/4 591/1/4
f 591/1/4 586/1/4 592/1/4
f 587/1/4 588/1/4 593/1/4
f 593/1/4 588/1/4 594/1/4
f 589/1/4 590/1/4 595/1/4
f 595/1/4 590/1/4 596/1/4
f 597/1/4 598/1/4 603/1/4
f 603/1/4 598/1/4 604/1/4
f 599/1/4 600/1/4 605/1/4
f 605/1/4 600/1/4 606/1/4
f 601/1/4 602/1/4 607/1/4
f 607/1/4 602/1/4 608/1/4
f 609/1/4 610/1/4 615/1/4
f 615/1/4 610/1/4 616/1/4
f 611/1/4 612/1/4 617/1/4
f 617/1/4 612/1/4 618/1/4
f 613/1/4 614/1/4 619/1/4
f 619/1/4 614/1/4 620/1/4
f 621/1/4 622/1/4 627/1/4
f 627/1/4 622/1/4 628/1/4
f 623/1/4 624/1/4 629/1/4
f 629/1/4 624/1/4 630/1/4
f 625/1/4 626/1/4 631/1/4
f 631/1/4 626/1/4 632/1/4
f 633/1/4 634/1/4 639/1/4
f 639/1/4 634/1/4 640/1/4
f 635/1/4 636/1/4 641/1/4
f 641/1/4 636/1/4 642/1/4
f 637/1/4 638/1/4 643/1/4
f 643/1/4 638/1/4 644/1/4
f 645/1/4 646/1/4 651/1/4
f 651/1/4 646/1/4 652/1/4
f 647/1/4 648/1/4 653/1/4
f 653/1/4 648/1/4 654/1/4
f 649/1/4 650/1/4 655/1/4
f 655/1/4 650/1/4 656/1/4
f 657/1/4 658/1/4 663/1/4
f 663/1/4 658/1/4 664/1/4
f 659/1/4 660/1/4 665/1/4
f 665/1/4 660/1/4 666/1/4
f 661/1/4 662/1/4 667/1/4
f 667/1/4 662/1/4 668/1/4
f 669/2/4 670/2/4 675/2/4
f 675/2/4 670/2/4 676/2/4
f 671/2/4 672/2/4 677/2/4
f 677/2/4 672/2/4 678/2/4
f 673/2/4 674/2/4 679/2/4
f 679/2/4 674/2/4 680/2/4
f 681/4/4 682/4/4 685/4/4
f 685/4/4 682/4/4 686/4/4
f 683/5/4 684/5/4 689/5/4
f 689/5/4 684/5/4 690/5/4
f 687/4/4 688/4/4 693/4/4
f 693/4/4 688/4/4 694/4/4
f 691/5/4 692/5/4 695/5/4
f 695/5/4 692/5/4 696/5/4
f 697/4/4 698/4/4 701/4/4
f 701/4/4 698/4/4 702/4/4
f 699/5/4 700/5/4 703/5/4
f 703/5/4 700/5/4 704/5/4
f 705/4/4 706/4/4 713/4/4
f 707/4/4 708/4/4 714/4/4
f 705/4/4 713/4/4 715/4/4
f 713/3/4 714/3/4 715/3/4
f 714/4/4 708/4/4 716/4/4
f 715/3/4 714/3/4 716/3/4
f 709/5/4 710/5/4 717/5/4
f 711/5/4 712/5/4 718/5/4
f 709/5/4 717/5/4 719/5/4
f 717/5/4 718/5/4 719/5/4
f 718/5/4 712/5/4 720/5/4
f 719/5/4 718/5/4 720/5/4
f 705/4/4 715/4/4 721/4/4
f 716/4/4 708/4/4 722/4/4
f 709/5/4 719/5/4 723/5/4
f 720/5/4 712/5/4 724/5/4
f 721/3/4 722/3/4 725/3/4
f 705/4/4 721/4/4 725/4/4
f 722/4/4 708/4/4 726/4/4
f 725/3/4 722/3/4 726/3/4
f 723/5/4 724/5/4 727/5/4
f 709/5/4 723/5/4 727/5/4
f 724/5/4 712/5/4 728/5/4
f 727/5/4 724/5/4 728/5/4
f 705/4/4 725/4/4 729/4/4
f 729/4/4 725/4/4 730/4/4
f 726/4/4 708/4/4 731/4/4
f 731/4/4 708/4/4 732/4/4
f 709/5/4 727/5/4 733/5/4
f 733/5/4 727/5/4 734/5/4
f 728/5/4 712/5/4 735/5/4
f 735/5/4 712/5/4 736/5/4
f 757/1/5 738/1/5 737/1/5
f 758/1/5 738/1/5 757/1/5
f 759/1/5 738/1/5 758/1/5
f 760/1/5 740/1/5 739/1/5
f 761/1/5 740/1/5 760/1/5
f 762/1/5 740/1/5 761/1/5
f 763/1/5 740/1/5 762/1/5
f 764/1/5 742/1/5 741/1/5
f 765/1/5 742/1/5 764/1/5
f 766/1/5 742/1/5 765/1/5
f 767/1/5 742/1/5 766/1/5
f 768/1/5 744/1/5 743/1/5
f 769/1/5 744/1/5 768/1/5
f 770/1/5 744/1/5 769/1/5
f 771/1/5 744/1/5 770/1/5
f 772/1/5 746/1/5 745/1/5
f 773/1/5 746/1/5 772/1/5
f 774/1/5 746/1/5 773/1/5
f 775/1/5 746/1/5 774/1/5
f 776/1/5 748/1/5 747/1/5
f 777/1/5 748/1/5 776/1/5
f 778/1/5 748/1/5 777/1/5
f 779/1/5 748/1/5 778/1/5
f 780/1/5 750/1/5 749/1/5
f 781/1/5 750/1/5 780/1/5
f 782/1/5 750/1/5 781/1/5
f 783/1/5 750/1/5 782/1/5
f 784/1/5 752/1/5 751/1/5
f 785/1/5 752/1/5 784/1/5
f 786/1/5 752/1/5 785/1/5
f 787/1/5 752/1/5 786/1/5
f 788/1/5 754/1/5 753/1/5
f 789/1/5 754/1/5 788/1/5
f 790/1/5 754/1/5 789/1/5
f 791/1/5 754/1/5 790/1/5
f 792/1/5 756/1/5 755/1/5
f 793/1/5 756/1/5 792/1/5
f 794/1/5 756/1/5 793/1/5
f 795/1/5 756/1/5 794/1/5
f 797/1/5 757/1/5 737/1/5
f 798/1/5 757/1/5 797/1/5
f 799/1/5 759/1/5 758/1/5
f 799/1/5 760/1/5 759/1/5
f 799/1/5 761/1/5 760/1/5
f 800/1/5 761/1/5 799/1/5
f 801/1/5 763/1/5 762/1/5
f 801/1/5 764/1/5 763/1/5
f 801/1/5 765/1/5 764/1/5
f 802/1/5 765/1/5 801/1/5
f 803/1/5 767/1/5 766/1/5
f 803/1/5 768/1/5 767/1/5
f 803/1/5 769/1/5 768/1/5
f 804/1/5 769/1/5 803/1/5
f 805/1/5 771/1/5 770/1/5
f 805/1/5 772/1/5 771/1/5
f 805/1/5 773/1/5 772/1/5
f 806/1/5 773/1/5 805/1/5
f 807/1/5 775/1/5 774/1/5
f 807/1/5 776/1/5 775/1/5
f 807/1/5 777/1/5 776/1/5
f 808/1/5 777/1/5 807/1/5
f 809/1/5 779/1/5 778/1/5
f 809/1/5 781/1/5 780/1/5
f 809/1/5 780/1/5 779/1/5
f 810/1/5 781/1/5 809/1/5
f 811/1/5 783/1/5 782/1/5
f 811/1/5 785/1/5 784/1/5
f 811/1/5 784/1/5 783/1/5
f 812/1/5 785/1/5 811/1/5
f 813/1/5 787/1/5 786/1/5
f 813/1/5 789/1/5 788/1/5
f 813/1/5 788/1/5 787/1/5
f 814/1/5 789/1/5 813/1/5
f 815/1/5 791/1/5 790/1/5
f 815/1/5 793/1/5 792/1/5
f 815/1/5 792/1/5 791/1/5
f 816/1/5 793/1/5 815/1/5
f 817/2/5 796/2/5 795/2/5
f 817/2/5 795/2/5 794/2/5
f 818/2/5 796/2/5 817/2/5
f 840/1/5 820/1/5 819/1/5
f 841/1/5 820/1/5 840/1/5
f 842/1/5 822/1/5 821/1/5
f 843/1/5 822/1/5 842/1/5
f 844/1/5 824/1/5 823/1/5
f 845/1/5 824/1/5 844/1/5
f 846/1/5 826/1/5 825/1/5
f 847/1/5 826/1/5 846/1/5
f 848/1/5 828/1/5 827/1/5
f 849/1/5 828/1/5 848/1/5
f 850/1/5 830/1/5 829/1/5
f 851/1/5 830/1/5 850/1/5
f 852/1/5 832/1/5 831/1/5
f 853/1/5 832/1/5 852/1/5
f 854/1/5 834/1/5 833/1/5
f 855/1/5 834/1/5 854/1/5
f 856/1/5 836/1/5 835/1/5
f 857/1/5 836/1/5 856/1/5
f 858/1/5 838/1/5 837/1/5
f 859/1/5 838/1/5 858/1/5
f 861/4/5 857/4/5 856/4/5
f 861/4/5 860/4/5 859/4/5
f 861/4/5 859/4/5 858/4/5
f 861/4/5 858/4/5 857/4/5
f 861/4/5 841/4/5 840/4/5
f 861/4/5 856/4/5 855/4/5
f 861/4/5 843/4/5 842/4/5
f 861/4/5 854/4/5 853/4/5
f 861/4/5 845/4/5 844/4/5
f 861/4/5 852/4/5 851/4/5
f 861/4/5 847/4/5 846/4/5
f 861/4/5 850/4/5 849/4/5
f 861/4/5 849/4/5 848/4/5
f 861/4/5 848/4/5 847/4/5
f 861/4/5 851/4/5 850/4/5
f 861/4/5 846/4/5 845/4/5
f 861/4/5 853/4/5 852/4/5
f 861/4/5 844/4/5 843/4/5
f 861/4/5 855/4/5 854/4/5
f 861/4/5 842/4/5 841/4/5
f 861/4/5 840/4/5 839/4/5
f 862/4/5 860/4/5 861/4/5
f 869/4/5 864/4/5 863/4/5
f 870/4/5 864/4/5 869/4/5
f 871/4/5 866/4/5 865/4/5
f 872/4/5 866/4/5 871/4/5
f 873/4/5 868/4/5 867/4/5
f 874/4/5 868/4/5 873/4/5
f 897/5/5 876/5/5 875/5/5
f 897/5/5 896/5/5 895/5/5
f 897/5/5 895/5/5 894/5/5
f 897/5/5 894/5/5 893/5/5
f 897/5/5 893/5/5 892/5/5
f 897/5/5 892/5/5 891/5/5
f 897/5/5 891/5/5 890/5/5
f 897/5/5 890/5/5 889/5/5
f 897/5/5 889/5/5 888/5/5
f 897/5/5 888/5/5 887/5/5
f 897/5/5 887/5/5 886/5/5
f 897/5/5 886/5/5 885/5/5
f 897/5/5 885/5/5 884/5/5
f 897/5/5 884/5/5 883/5/5
f 897/5/5 883/5/5 882/5/5
f 897/5/5 882/5/5 881/5/5
f 897/5/5 881/5/5 880/5/5
f 897/5/5 880/5/5 879/5/5
f 897/5/5 879/5/5 878/5/5
f 897/5/5 878/5/5 877/5/5
f 897/5/5 877/5/5 876/5/5
f 898/5/5 896/5/5 897/5/5
f 905/5/5 900/5/5 899/5/5
f 906/5/5 900/5/5 905/5/5
f 907/5/5 902/5/5 901/5/5
f 908/5/5 902/5/5 907/5/5
f 909/5/5 904/5/5 903/5/5
f 910/5/5 904/5/5 909/5/5
f 911/4/6 912/4/6 917/4/6
f 917/4/6 912/4/6 918/4/6
f 913/4/6 914/4/6 919/4/6
f 919/4/6 914/4/6 920/4/6
f 915/4/6 916/4/6 921/4/6
f 921/4/6 916/4/6 922/4/6
f 923/1/6 924/1/6 944/1/6
f 944/1/6 924/1/6 945/1/6
f 925/1/6 926/1/6 946/1/6
f 946/1/6 926/1/6 947/1/6
f 927/1/6 928/1/6 948/1/6
f 948/1/6 928/1/6 949/1/6
f 929/1/6 930/1/6 950/1/6
f 950/1/6 930/1/6 951/1/6
f 931/1/6 932/1/6 952/1/6
f 952/1/6 932/1/6 953/1/6
f 933/1/6 934/1/6 954/1/6
f 954/1/6 934/1/6 955/1/6
f 935/1/6 936/1/6 956/1/6
f 956/1/6 936/1/6 957/1/6
f 937/1/6 938/1/6 958/1/6
f 958/1/6 938/1/6 959/1/6
f 939/1/6 940/1/6 960/1/6
f 960/1/6 940/1/6 961/1/6
f 941/1/6 942/1/6 962/1/6
f 962/1/6 942/1/6 963/1/6
f 960/4/6 961/4/6 965/4/6
f 963/4/6 964/4/6 965/4/6
f 962/4/6 963/4/6 965/4/6
f 961/4/6 962/4/6 965/4/6
f 944/4/6 945/4/6 965/4/6
f 959/4/6 960/4/6 965/4/6
f 946/4/6 947/4/6 965/4/6
f 957/4/6 958/4/6 965/4/6
f 948/4/6 949/4/6 965/4/6
f 955/4/6 956/4/6 965/4/6
f 950/4/6 951/4/6 965/4/6
f 953/4/6 954/4/6 965/4/6
f 952/4/6 953/4/6 965/4/6
f 951/4/6 952/4/6 965/4/6
f 954/4/6 955/4/6 965/4/6
f 949/4/6 950/4/6 965/4/6
f 956/4/6 957/4/6 965/4/6
f 947/4/6 948/4/6 965/4/6
f 958/4/6 959/4/6 965/4/6
f 945/4/6 946/4/6 965/4/6
f 943/4/6 944/4/6 965/4/6
f 965/4/6 964/4/6 966/4/6
f 967/5/6 968/5/6 973/5/6
f 973/5/6 968/5/6 974/5/6
f 969/5/6 970/5/6 975/5/6
f 975/5/6 970/5/6 976/5/6
f 971/5/6 972/5/6 977/5/6
f 977/5/6 972/5/6 978/5/6
f 979/5/6 980/5/6 1001/5/6
f 999/5/6 1000/5/6 1001/5/6
f 998/5/6 999/5/6 1001/5/6
f 997/5/6 998/5/6 1001/5/6
f 996/5/6 997/5/6 1001/5/6
f 995/5/6 996/5/6 1001/5/6
f 994/5/6 995/5/6 1001/5/6
f 993/5/6 994/5/6 1001/5/6
f 992/5/6 993/5/6 1001/5/6
f 991/5/6 992/5/6 1001/5/6
f 990/5/6 991/5/6 1001/5/6
f 989/5/6 990/5/6 1001/5/6
f 988/5/6 989/5/6 1001/5/6
f 987/5/6 988/5/6 1001/5/6
f 986/5/6 987/5/6 1001/5/6
f 985/5/6 986/5/6 1001/5/6
f 984/5/6 985/5/6 1001/5/6
f 983/5/6 984/5/6 1001/5/6
f 982/5/6 983/5/6 1001/5/6
f 981/5/6 982/5/6 1001/5/6
f 980/5/6 981/5/6 1001/5/6
f 1001/5/6 1000/5/6 1002/5/6
f 1003/1/6 1004/1/6 1023/1/6
f 1023/1/6 1004/1/6 1024/1/6
f 1024/1/6 1004/1/6 1025/1/6
f 1005/1/6 1006/1/6 1026/1/6
f 1026/1/6 1006/1/6 1027/1/6
f 1027/1/6 1006/1/6 1028/1/6
f 1028/1/6 1006/1/6 1029/1/6
f 1007/1/6 1008/1/6 1030/1/6
f 1030/1/6 1008/1/6 1031/1/6
f 1031/1/6 1008/1/6 1032/1/6
f 1032/1/6 1008/1/6 1033/1/6
f 1009/1/6 1010/1/6 1034/1/6
f 1034/1/6 1010/1/6 1035/1/6
f 1035/1/6 1010/1/6 1036/1/6
f 1036/1/6 1010/1/6 1037/1/6
f 1011/1/6 1012/1/6 1038/1/6
f 1038/1/6 1012/1/6 1039/1/6
f 1039/1/6 1012/1/6 1040/1/6
f 1040/1/6 1012/1/6 1041/1/6
f 1013/1/6 1014/1/6 1042/1/6
f 1042/1/6 1014/1/6 1043/1/6
f 1043/1/6 1014/1/6 1044/1/6
f 1044/1/6 1014/1/6 1045/1/6
f 1015/1/6 1016/1/6 1046/1/6
f 1046/1/6 1016/1/6 1047/1/6
f 1047/1/6 1016/1/6 1048/1/6
f 1048/1/6 1016/1/6 1049/1/6
f 1017/1/6 1018/1/6 1050/1/6
f 1050/1/6 1018/1/6 1051/1/6
f 1051/1/6 1018/1/6 1052/1/6
f 1052/1/6 1018/1/6 1053/1/6
f 1019/1/6 1020/1/6 1054/1/6
f 1054/1/6 1020/1/6 1055/1/6
f 1055/1/6 1020/1/6 1056/1/6
f 1056/1/6 1020/1/6 1057/1/6
f 1021/1/6 1022/1/6 1058/1/6
f 1058/1/6 1022/1/6 1059/1/6
f 1059/1/6 1022/1/6 1060/1/6
f 1060/1/6 1022/1/6 1061/1/6
f 1003/1/6 1023/1/6 1063/1/6
f 1063/1/6 1023/1/6 1064/1/6
f 1024/1/6 1025/1/6 1065/1/6
f 1025/1/6 1026/1/6 1065/1/6
f 1026/1/6 1027/1/6 1065/1/6
f 1065/1/6 1027/1/6 1066/1/6
f 1028/1/6 1029/1/6 1067/1/6
f 1029/1/6 1030/1/6 1067/1/6
f 1030/1/6 1031/1/6 1067/1/6
f 1067/1/6 1031/1/6 1068/1/6
f 1032/1/6 1033/1/6 1069/1/6
f 1033/1/6 1034/1/6 1069/1/6
f 1034/1/6 1035/1/6 1069/1/6
f 1069/1/6 1035/1/6 1070/1/6
f 1036/1/6 1037/1/6 1071/1/6
f 1037/1/6 1038/1/6 1071/1/6
f 1038/1/6 1039/1/6 1071/1/6
f 1071/1/6 1039/1/6 1072/1/6
f 1040/1/6 1041/1/6 1073/1/6
f 1041/1/6 1042/1/6 1073/1/6
f 1042/1/6 1043/1/6 1073/1/6
f 1073/1/6 1043/1/6 1074/1/6
f 1044/1/6 1045/1/6 1075/1/6
f 1046/1/6 1047/1/6 1075/1/6
f 1045/1/6 1046/1/6 1075/1/6
f 1075/1/6 1047/1/6 1076/1/6
f 1048/1/6 1049/1/6 1077/1/6
f 1050/1/6 1051/1/6 1077/1/6
f 1049/1/6 1050/1/6 1077/1/6
f 1077/1/6 1051/1/6 1078/1/6
f 1052/1/6 1053/1/6 1079/1/6
f 1054/1/6 1055/1/6 1079/1/6
f 1053/1/6 1054/1/6 1079/1/6
f 1079/1/6 1055/1/6 1080/1/6
f 1056/1/6 1057/1/6 1081/1/6
f 1058/1/6 1059/1/6 1081/1/6
f 1057/1/6 1058/1/6 1081/1/6
f 1081/1/6 1059/1/6 1082/1/6
f 1061/2/6 1062/2/6 1083/2/6
f 1060/2/6 1061/2/6 1083/2/6
f 1083/2/6 1062/2/6 1084/2/6
