# MagicaVoxel @ Ephtracy

# group
o tailrotor

# material
mtllib helicopter_full-1-tailrotor.mtl
usemtl palette

# normals
vn -1 0 0
vn 1 0 0
vn 0 0 1
vn 0 0 -1
vn 0 -1 0
vn 0 1 0

# texcoords
vt 0.482422 0.5
vt 0.521484 0.5
vt 0.529297 0.5

# verts
v -6 1.1 0
v -6 1.1 -0.1
v -6 1.3 0
v -6 1.3 -0.1
v -6 1.5 0
v -6 1.5 -0.1
v -6 1.7 0
v -6 1.7 -0.1
v -6 1.9 0
v -6 1.9 -0.1
v -6 2.2 0
v -6 2.2 -0.1
v -6 2.3 0
v -6 2.3 -0.1
v -6 2.4 0
v -6 2.4 -0.1
v -6 2.6 0
v -6 2.6 -0.1
v -6 2.8 0
v -6 2.8 -0.1
v -6 3 0
v -6 3 -0.1
v -6 3.2 0
v -6 3.2 -0.1
v -6 3.4 0
v -6 3.4 -0.1
v -6 3.6 0
v -6 3.6 -0.1
v -5.9 2.2 0
v -5.9 2.2 -0.1
v -5.9 2.3 0
v -5.9 2.3 -0.1
v -5.9 2.4 0
v -5.9 2.4 -0.1
v -5.9 2.5 0
v -5.9 2.5 -0.1
v -5.9 2.6 0
v -5.9 2.6 -0.1
v -5.8 2.1 0
v -5.8 2.1 -0.1
v -5.8 2.2 0
v -5.8 2.2 -0.1
v -5.8 2.3 0
v -5.8 2.3 -0.1
v -5.8 2.4 0
v -5.8 2.4 -0.1
v -5.8 2.5 0
v -5.8 2.5 -0.1
v -5.7 1.1 0
v -5.7 1.1 -0.1
v -5.7 1.3 0
v -5.7 1.3 -0.1
v -5.7 1.5 0
v -5.7 1.5 -0.1
v -5.7 1.7 0
v -5.7 1.7 -0.1
v -5.7 1.9 0
v -5.7 1.9 -0.1
v -5.7 2.1 0
v -5.7 2.1 -0.1
v -5.7 2.3 0
v -5.7 2.3 -0.1
v -5.7 2.4 0
v -5.7 2.4 -0.1
v -5.7 2.5 0
v -5.7 2.5 -0.1
v -5.7 2.8 0
v -5.7 2.8 -0.1
v -5.7 3 0
v -5.7 3 -0.1
v -5.7 3.2 0
v -5.7 3.2 -0.1
v -5.7 3.4 0
v -5.7 3.4 -0.1
v -5.7 3.6 0
v -5.7 3.6 -0.1
v -6 1.1 0
v -6 1.3 0
v -6 1.5 0
v -6 1.7 0
v -6 1.9 0
v -6 2.2 0
v -6 2.3 0
v -6 2.4 0
v -6 2.6 0
v -6 2.8 0
v -6 3 0
v -6 3.2 0
v -6 3.4 0
v -6 3.6 0
v -5.9 2.2 0
v -5.9 2.3 0
v -5.9 2.4 0
v -5.9 2.5 0
v -5.9 2.6 0
v -5.8 2.1 0
v -5.8 2.2 0
v -5.8 2.3 0
v -5.8 2.4 0
v -5.8 2.5 0
v -5.7 1.1 0
v -5.7 1.3 0
v -5.7 1.5 0
v -5.7 1.7 0
v -5.7 1.9 0
v -5.7 2.1 0
v -5.7 2.3 0
v -5.7 2.4 0
v -5.7 2.5 0
v -5.7 2.8 0
v -5.7 3 0
v -5.7 3.2 0
v -5.7 3.4 0
v -5.7 3.6 0
v -6 1.1 -0.1
v -6 1.3 -0.1
v -6 1.5 -0.1
v -6 1.7 -0.1
v -6 1.9 -0.1
v -6 2.2 -0.1
v -6 2.3 -0.1
v -6 2.4 -0.1
v -6 2.6 -0.1
v -6 2.8 -0.1
v -6 3 -0.1
v -6 3.2 -0.1
v -6 3.4 -0.1
v -6 3.6 -0.1
v -5.9 2.2 -0.1
v -5.9 2.3 -0.1
v -5.9 2.4 -0.1
v -5.9 2.5 -0.1
v -5.9 2.6 -0.1
v -5.8 2.1 -0.1
v -5.8 2.2 -0.1
v -5.8 2.3 -0.1
v -5.8 2.4 -0.1
v -5.8 2.5 -0.1
v -5.7 1.1 -0.1
v -5.7 1.3 -0.1
v -5.7 1.5 -0.1
v -5.7 1.7 -0.1
v -5.7 1.9 -0.1
v -5.7 2.1 -0.1
v -5.7 2.3 -0.1
v -5.7 2.4 -0.1
v -5.7 2.5 -0.1
v -5.7 2.8 -0.1
v -5.7 3 -0.1
v -5.7 3.2 -0.1
v -5.7 3.4 -0.1
v -5.7 3.6 -0.1
v -6 1.1 0
v -5.7 1.1 0
v -6 1.1 -0.1
v -5.7 1.1 -0.1
v -6 2.3 0
v -5.9 2.3 0
v -5.8 2.3 0
v -5.7 2.3 0
v -6 2.3 -0.1
v -5.9 2.3 -0.1
v -5.8 2.3 -0.1
v -5.7 2.3 -0.1
v -5.8 2.5 0
v -5.7 2.5 0
v -5.8 2.5 -0.1
v -5.7 2.5 -0.1
v -6 2.6 0
v -5.9 2.6 0
v -6 2.6 -0.1
v -5.9 2.6 -0.1
v -5.8 2.1 0
v -5.7 2.1 0
v -5.8 2.1 -0.1
v -5.7 2.1 -0.1
v -6 2.2 0
v -5.9 2.2 0
v -6 2.2 -0.1
v -5.9 2.2 -0.1
v -6 2.4 0
v -5.9 2.4 0
v -5.8 2.4 0
v -5.7 2.4 0
v -6 2.4 -0.1
v -5.9 2.4 -0.1
v -5.8 2.4 -0.1
v -5.7 2.4 -0.1
v -6 3.6 0
v -5.7 3.6 0
v -6 3.6 -0.1
v -5.7 3.6 -0.1

# faces
f 3/2/1 2/2/1 1/2/1
f 4/2/1 2/2/1 3/2/1
f 5/3/1 4/3/1 3/3/1
f 6/3/1 4/3/1 5/3/1
f 7/2/1 6/2/1 5/2/1
f 8/2/1 6/2/1 7/2/1
f 9/3/1 8/3/1 7/3/1
f 10/3/1 8/3/1 9/3/1
f 11/2/1 10/2/1 9/2/1
f 12/2/1 10/2/1 11/2/1
f 15/1/1 14/1/1 13/1/1
f 16/1/1 14/1/1 15/1/1
f 19/2/1 18/2/1 17/2/1
f 20/2/1 18/2/1 19/2/1
f 21/3/1 20/3/1 19/3/1
f 22/3/1 20/3/1 21/3/1
f 23/2/1 22/2/1 21/2/1
f 24/2/1 22/2/1 23/2/1
f 25/3/1 24/3/1 23/3/1
f 26/3/1 24/3/1 25/3/1
f 27/2/1 26/2/1 25/2/1
f 28/2/1 26/2/1 27/2/1
f 31/1/1 30/1/1 29/1/1
f 32/1/1 30/1/1 31/1/1
f 35/1/1 34/1/1 33/1/1
f 36/1/1 34/1/1 35/1/1
f 37/2/1 36/2/1 35/2/1
f 38/2/1 36/2/1 37/2/1
f 39/2/2 40/2/2 41/2/2
f 41/2/2 40/2/2 42/2/2
f 41/1/2 42/1/2 43/1/2
f 43/1/2 42/1/2 44/1/2
f 45/1/2 46/1/2 47/1/2
f 47/1/2 46/1/2 48/1/2
f 49/2/2 50/2/2 51/2/2
f 51/2/2 50/2/2 52/2/2
f 51/3/2 52/3/2 53/3/2
f 53/3/2 52/3/2 54/3/2
f 53/2/2 54/2/2 55/2/2
f 55/2/2 54/2/2 56/2/2
f 55/3/2 56/3/2 57/3/2
f 57/3/2 56/3/2 58/3/2
f 57/2/2 58/2/2 59/2/2
f 59/2/2 58/2/2 60/2/2
f 61/1/2 62/1/2 63/1/2
f 63/1/2 62/1/2 64/1/2
f 65/2/2 66/2/2 67/2/2
f 67/2/2 66/2/2 68/2/2
f 67/3/2 68/3/2 69/3/2
f 69/3/2 68/3/2 70/3/2
f 69/2/2 70/2/2 71/2/2
f 71/2/2 70/2/2 72/2/2
f 71/3/2 72/3/2 73/3/2
f 73/3/2 72/3/2 74/3/2
f 73/2/2 74/2/2 75/2/2
f 75/2/2 74/2/2 76/2/2
f 91/2/3 82/2/3 81/2/3
f 92/1/3 84/1/3 83/1/3
f 93/1/3 84/1/3 92/1/3
f 95/2/3 86/2/3 85/2/3
f 96/2/3 91/2/3 81/2/3
f 97/1/3 94/1/3 93/1/3
f 97/2/3 91/2/3 96/2/3
f 97/1/3 92/1/3 91/1/3
f 97/1/3 93/1/3 92/1/3
f 98/1/3 94/1/3 97/1/3
f 99/1/3 94/1/3 98/1/3
f 100/2/3 95/2/3 94/2/3
f 100/1/3 94/1/3 99/1/3
f 101/2/3 78/2/3 77/2/3
f 102/3/3 79/3/3 78/3/3
f 102/2/3 78/2/3 101/2/3
f 103/2/3 80/2/3 79/2/3
f 103/3/3 79/3/3 102/3/3
f 104/3/3 81/3/3 80/3/3
f 104/2/3 80/2/3 103/2/3
f 105/2/3 96/2/3 81/2/3
f 105/3/3 81/3/3 104/3/3
f 106/2/3 96/2/3 105/2/3
f 107/1/3 99/1/3 98/1/3
f 108/1/3 99/1/3 107/1/3
f 109/2/3 95/2/3 100/2/3
f 110/3/3 87/3/3 86/3/3
f 110/2/3 95/2/3 109/2/3
f 110/2/3 86/2/3 95/2/3
f 111/2/3 88/2/3 87/2/3
f 111/3/3 87/3/3 110/3/3
f 112/3/3 89/3/3 88/3/3
f 112/2/3 88/2/3 111/2/3
f 113/2/3 90/2/3 89/2/3
f 113/3/3 89/3/3 112/3/3
f 114/2/3 90/2/3 113/2/3
f 119/2/4 120/2/4 129/2/4
f 121/1/4 122/1/4 130/1/4
f 130/1/4 122/1/4 131/1/4
f 123/2/4 124/2/4 133/2/4
f 119/2/4 129/2/4 134/2/4
f 131/1/4 132/1/4 135/1/4
f 134/2/4 129/2/4 135/2/4
f 129/1/4 130/1/4 135/1/4
f 130/1/4 131/1/4 135/1/4
f 135/1/4 132/1/4 136/1/4
f 136/1/4 132/1/4 137/1/4
f 132/2/4 133/2/4 138/2/4
f 137/1/4 132/1/4 138/1/4
f 115/2/4 116/2/4 139/2/4
f 116/3/4 117/3/4 140/3/4
f 139/2/4 116/2/4 140/2/4
f 117/2/4 118/2/4 141/2/4
f 140/3/4 117/3/4 141/3/4
f 118/3/4 119/3/4 142/3/4
f 141/2/4 118/2/4 142/2/4
f 119/2/4 134/2/4 143/2/4
f 142/3/4 119/3/4 143/3/4
f 143/2/4 134/2/4 144/2/4
f 136/1/4 137/1/4 145/1/4
f 145/1/4 137/1/4 146/1/4
f 138/2/4 133/2/4 147/2/4
f 124/3/4 125/3/4 148/3/4
f 147/2/4 133/2/4 148/2/4
f 133/2/4 124/2/4 148/2/4
f 125/2/4 126/2/4 149/2/4
f 148/3/4 125/3/4 149/3/4
f 126/3/4 127/3/4 150/3/4
f 149/2/4 126/2/4 150/2/4
f 127/2/4 128/2/4 151/2/4
f 150/3/4 127/3/4 151/3/4
f 151/2/4 128/2/4 152/2/4
f 155/2/5 154/2/5 153/2/5
f 156/2/5 154/2/5 155/2/5
f 161/1/5 158/1/5 157/1/5
f 162/1/5 158/1/5 161/1/5
f 163/1/5 160/1/5 159/1/5
f 164/1/5 160/1/5 163/1/5
f 167/2/5 166/2/5 165/2/5
f 168/2/5 166/2/5 167/2/5
f 171/2/5 170/2/5 169/2/5
f 172/2/5 170/2/5 171/2/5
f 173/2/6 174/2/6 175/2/6
f 175/2/6 174/2/6 176/2/6
f 177/2/6 178/2/6 179/2/6
f 179/2/6 178/2/6 180/2/6
f 181/1/6 182/1/6 185/1/6
f 185/1/6 182/1/6 186/1/6
f 183/1/6 184/1/6 187/1/6
f 187/1/6 184/1/6 188/1/6
f 189/2/6 190/2/6 191/2/6
f 191/2/6 190/2/6 192/2/6
