# MagicaVoxel @ Ephtracy

# group
o 

# material
mtllib Vint.mtl
usemtl palette

# normals
vn -1 0 0
vn 1 0 0
vn 0 0 1
vn 0 0 -1
vn 0 -1 0
vn 0 1 0

# texcoords
vt 0.830078 0.5
vt 0.916016 0.5
vt 0.923828 0.5

# verts
v 0.7 2.3 -0.8
v 0.7 2.3 -1.1
v 0.7 2.4 -0.8
v 0.7 2.4 -1.1
v 1.7 2.3 -0.7
v 1.7 2.3 -0.8
v 1.7 2.3 -1.1
v 1.7 2.3 -1.2
v 1.7 2.4 -0.7
v 1.7 2.4 -0.8
v 1.7 2.4 -1.1
v 1.7 2.4 -1.2
v 1.8 2 -0.8
v 1.8 2 -1.1
v 1.8 2.1 -0.8
v 1.8 2.1 -1.1
v 1.8 2.3 -0.8
v 1.8 2.3 -1.1
v 1.8 2.4 -0.8
v 1.8 2.4 -1.1
v 1.8 2.5 -0.8
v 1.8 2.5 -1.1
v 2.1 2 -0.8
v 2.1 2 -1.1
v 2.1 2.1 -0.8
v 2.1 2.1 -1.1
v 2.1 2.3 -0.8
v 2.1 2.3 -1.1
v 2.1 2.4 -0.8
v 2.1 2.4 -1.1
v 2.1 2.5 -0.8
v 2.1 2.5 -1.1
v 2.2 2.3 -0.7
v 2.2 2.3 -0.8
v 2.2 2.3 -1.1
v 2.2 2.3 -1.2
v 2.2 2.4 -0.7
v 2.2 2.4 -0.8
v 2.2 2.4 -1.1
v 2.2 2.4 -1.2
v 3.2 2.3 -0.8
v 3.2 2.3 -1.1
v 3.2 2.4 -0.8
v 3.2 2.4 -1.1
v 1.7 2.3 -0.7
v 1.7 2.4 -0.7
v 2.2 2.3 -0.7
v 2.2 2.4 -0.7
v 0.7 2.3 -0.8
v 0.7 2.4 -0.8
v 0.9 2.3 -0.8
v 0.9 2.4 -0.8
v 1.1 2.3 -0.8
v 1.1 2.4 -0.8
v 1.6 2.3 -0.8
v 1.6 2.4 -0.8
v 1.7 2.3 -0.8
v 1.7 2.4 -0.8
v 1.8 2 -0.8
v 1.8 2.1 -0.8
v 1.8 2.3 -0.8
v 1.8 2.4 -0.8
v 1.8 2.5 -0.8
v 2.1 2 -0.8
v 2.1 2.1 -0.8
v 2.1 2.3 -0.8
v 2.1 2.4 -0.8
v 2.1 2.5 -0.8
v 2.2 2.3 -0.8
v 2.2 2.4 -0.8
v 2.3 2.3 -0.8
v 2.3 2.4 -0.8
v 2.8 2.3 -0.8
v 2.8 2.4 -0.8
v 3 2.3 -0.8
v 3 2.4 -0.8
v 3.2 2.3 -0.8
v 3.2 2.4 -0.8
v 0.7 2.3 -1.1
v 0.7 2.4 -1.1
v 0.9 2.3 -1.1
v 0.9 2.4 -1.1
v 1.1 2.3 -1.1
v 1.1 2.4 -1.1
v 1.6 2.3 -1.1
v 1.6 2.4 -1.1
v 1.7 2.3 -1.1
v 1.7 2.4 -1.1
v 1.8 2 -1.1
v 1.8 2.1 -1.1
v 1.8 2.3 -1.1
v 1.8 2.4 -1.1
v 1.8 2.5 -1.1
v 2.1 2 -1.1
v 2.1 2.1 -1.1
v 2.1 2.3 -1.1
v 2.1 2.4 -1.1
v 2.1 2.5 -1.1
v 2.2 2.3 -1.1
v 2.2 2.4 -1.1
v 2.3 2.3 -1.1
v 2.3 2.4 -1.1
v 2.8 2.3 -1.1
v 2.8 2.4 -1.1
v 3 2.3 -1.1
v 3 2.4 -1.1
v 3.2 2.3 -1.1
v 3.2 2.4 -1.1
v 1.7 2.3 -1.2
v 1.7 2.4 -1.2
v 2.2 2.3 -1.2
v 2.2 2.4 -1.2
v 1.8 2 -0.8
v 2.1 2 -0.8
v 1.8 2 -1.1
v 2.1 2 -1.1
v 1.7 2.3 -0.7
v 2.2 2.3 -0.7
v 0.7 2.3 -0.8
v 0.9 2.3 -0.8
v 1.1 2.3 -0.8
v 1.6 2.3 -0.8
v 1.7 2.3 -0.8
v 1.8 2.3 -0.8
v 2.1 2.3 -0.8
v 2.2 2.3 -0.8
v 2.3 2.3 -0.8
v 2.8 2.3 -0.8
v 3 2.3 -0.8
v 3.2 2.3 -0.8
v 0.7 2.3 -1.1
v 0.9 2.3 -1.1
v 1.1 2.3 -1.1
v 1.6 2.3 -1.1
v 1.7 2.3 -1.1
v 1.8 2.3 -1.1
v 2.1 2.3 -1.1
v 2.2 2.3 -1.1
v 2.3 2.3 -1.1
v 2.8 2.3 -1.1
v 3 2.3 -1.1
v 3.2 2.3 -1.1
v 1.7 2.3 -1.2
v 2.2 2.3 -1.2
v 1.7 2.4 -0.7
v 2.2 2.4 -0.7
v 0.7 2.4 -0.8
v 0.9 2.4 -0.8
v 1.1 2.4 -0.8
v 1.6 2.4 -0.8
v 1.7 2.4 -0.8
v 1.8 2.4 -0.8
v 2.1 2.4 -0.8
v 2.2 2.4 -0.8
v 2.3 2.4 -0.8
v 2.8 2.4 -0.8
v 3 2.4 -0.8
v 3.2 2.4 -0.8
v 0.7 2.4 -1.1
v 0.9 2.4 -1.1
v 1.1 2.4 -1.1
v 1.6 2.4 -1.1
v 1.7 2.4 -1.1
v 1.8 2.4 -1.1
v 2.1 2.4 -1.1
v 2.2 2.4 -1.1
v 2.3 2.4 -1.1
v 2.8 2.4 -1.1
v 3 2.4 -1.1
v 3.2 2.4 -1.1
v 1.7 2.4 -1.2
v 2.2 2.4 -1.2
v 1.8 2.5 -0.8
v 2.1 2.5 -0.8
v 1.8 2.5 -1.1
v 2.1 2.5 -1.1

# faces
f 3/1/1 2/1/1 1/1/1
f 4/1/1 2/1/1 3/1/1
f 9/2/1 6/2/1 5/2/1
f 10/2/1 6/2/1 9/2/1
f 11/2/1 8/2/1 7/2/1
f 12/2/1 8/2/1 11/2/1
f 15/2/1 14/2/1 13/2/1
f 16/2/1 14/2/1 15/2/1
f 17/3/1 16/3/1 15/3/1
f 18/3/1 16/3/1 17/3/1
f 21/1/1 20/1/1 19/1/1
f 22/1/1 20/1/1 21/1/1
f 23/2/2 24/2/2 25/2/2
f 25/2/2 24/2/2 26/2/2
f 25/3/2 26/3/2 27/3/2
f 27/3/2 26/3/2 28/3/2
f 29/1/2 30/1/2 31/1/2
f 31/1/2 30/1/2 32/1/2
f 33/2/2 34/2/2 37/2/2
f 37/2/2 34/2/2 38/2/2
f 35/2/2 36/2/2 39/2/2
f 39/2/2 36/2/2 40/2/2
f 41/1/2 42/1/2 43/1/2
f 43/1/2 42/1/2 44/1/2
f 47/2/3 46/2/3 45/2/3
f 48/2/3 46/2/3 47/2/3
f 51/1/3 50/1/3 49/1/3
f 52/1/3 50/1/3 51/1/3
f 53/2/3 52/2/3 51/2/3
f 54/2/3 52/2/3 53/2/3
f 55/3/3 54/3/3 53/3/3
f 56/3/3 54/3/3 55/3/3
f 57/2/3 56/2/3 55/2/3
f 58/2/3 56/2/3 57/2/3
f 64/2/3 60/2/3 59/2/3
f 65/3/3 61/3/3 60/3/3
f 65/2/3 60/2/3 64/2/3
f 66/3/3 61/3/3 65/3/3
f 67/1/3 63/1/3 62/1/3
f 68/1/3 63/1/3 67/1/3
f 71/2/3 70/2/3 69/2/3
f 72/2/3 70/2/3 71/2/3
f 73/3/3 72/3/3 71/3/3
f 74/3/3 72/3/3 73/3/3
f 75/2/3 74/2/3 73/2/3
f 76/2/3 74/2/3 75/2/3
f 77/1/3 76/1/3 75/1/3
f 78/1/3 76/1/3 77/1/3
f 79/1/4 80/1/4 81/1/4
f 81/1/4 80/1/4 82/1/4
f 81/2/4 82/2/4 83/2/4
f 83/2/4 82/2/4 84/2/4
f 83/3/4 84/3/4 85/3/4
f 85/3/4 84/3/4 86/3/4
f 85/2/4 86/2/4 87/2/4
f 87/2/4 86/2/4 88/2/4
f 89/2/4 90/2/4 94/2/4
f 90/3/4 91/3/4 95/3/4
f 94/2/4 90/2/4 95/2/4
f 95/3/4 91/3/4 96/3/4
f 92/1/4 93/1/4 97/1/4
f 97/1/4 93/1/4 98/1/4
f 99/2/4 100/2/4 101/2/4
f 101/2/4 100/2/4 102/2/4
f 101/3/4 102/3/4 103/3/4
f 103/3/4 102/3/4 104/3/4
f 103/2/4 104/2/4 105/2/4
f 105/2/4 104/2/4 106/2/4
f 105/1/4 106/1/4 107/1/4
f 107/1/4 106/1/4 108/1/4
f 109/2/4 110/2/4 111/2/4
f 111/2/4 110/2/4 112/2/4
f 115/2/5 114/2/5 113/2/5
f 116/2/5 114/2/5 115/2/5
f 123/2/5 118/2/5 117/2/5
f 124/2/5 118/2/5 123/2/5
f 125/2/5 118/2/5 124/2/5
f 126/2/5 118/2/5 125/2/5
f 131/1/5 120/1/5 119/1/5
f 132/2/5 121/2/5 120/2/5
f 132/1/5 120/1/5 131/1/5
f 133/3/5 122/3/5 121/3/5
f 133/2/5 121/2/5 132/2/5
f 134/2/5 123/2/5 122/2/5
f 134/3/5 122/3/5 133/3/5
f 134/2/5 124/2/5 123/2/5
f 135/2/5 124/2/5 134/2/5
f 136/2/5 124/2/5 135/2/5
f 137/2/5 126/2/5 125/2/5
f 137/2/5 127/2/5 126/2/5
f 138/2/5 127/2/5 137/2/5
f 139/3/5 128/3/5 127/3/5
f 139/2/5 127/2/5 138/2/5
f 140/2/5 129/2/5 128/2/5
f 140/3/5 128/3/5 139/3/5
f 141/1/5 130/1/5 129/1/5
f 141/2/5 129/2/5 140/2/5
f 142/1/5 130/1/5 141/1/5
f 143/2/5 137/2/5 136/2/5
f 143/2/5 136/2/5 135/2/5
f 143/2/5 138/2/5 137/2/5
f 144/2/5 138/2/5 143/2/5
f 145/2/6 146/2/6 151/2/6
f 151/2/6 146/2/6 152/2/6
f 152/2/6 146/2/6 153/2/6
f 153/2/6 146/2/6 154/2/6
f 147/1/6 148/1/6 159/1/6
f 148/2/6 149/2/6 160/2/6
f 159/1/6 148/1/6 160/1/6
f 149/3/6 150/3/6 161/3/6
f 160/2/6 149/2/6 161/2/6
f 150/2/6 151/2/6 162/2/6
f 161/3/6 150/3/6 162/3/6
f 151/2/6 152/2/6 162/2/6
f 162/2/6 152/2/6 163/2/6
f 163/2/6 152/2/6 164/2/6
f 153/2/6 154/2/6 165/2/6
f 154/2/6 155/2/6 165/2/6
f 165/2/6 155/2/6 166/2/6
f 155/3/6 156/3/6 167/3/6
f 166/2/6 155/2/6 167/2/6
f 156/2/6 157/2/6 168/2/6
f 167/3/6 156/3/6 168/3/6
f 157/1/6 158/1/6 169/1/6
f 168/2/6 157/2/6 169/2/6
f 169/1/6 158/1/6 170/1/6
f 164/2/6 165/2/6 171/2/6
f 163/2/6 164/2/6 171/2/6
f 165/2/6 166/2/6 171/2/6
f 171/2/6 166/2/6 172/2/6
f 173/1/6 174/1/6 175/1/6
f 175/1/6 174/1/6 176/1/6
