# MagicaVoxel @ Ephtracy

# group
o rifle

# material
mtllib rifle.mtl
usemtl palette

# normals
vn 0 0 1
vn 0 0 -1
vn 1 0 0
vn -1 0 0
vn 0 -1 0
vn 0 1 0

# texcoords
vt 0.470703 0.5
vt 0.474609 0.5
vt 0.478516 0.5
vt 0.482422 0.5
vt 0.486328 0.5
vt 0.490234 0.5
vt 0.494141 0.5
vt 0.498047 0.5
vt 0.501953 0.5
vt 0.505859 0.5
vt 0.509766 0.5
vt 0.513672 0.5
vt 0.517578 0.5
vt 0.521484 0.5
vt 0.525391 0.5
vt 0.529297 0.5

# verts
v 0.1 -0.7 -1.3
v -0.2 -0.7 -1.3
v 0.1 -0.6 -1.3
v -0.2 -0.6 -1.3
v 0.1 -0.5 -1.3
v -0.2 -0.5 -1.3
v 0.1 -0.3 -1.3
v -0.2 -0.3 -1.3
v 0.1 -0.2 -1.3
v -0.2 -0.2 -1.3
v 0.1 -0.1 -1.3
v -0.2 -0.1 -1.3
v 0.1 -0.6 -1.6
v 0 -0.6 -1.6
v -0.1 -0.6 -1.6
v -0.2 -0.6 -1.6
v 0.1 -0.5 -1.6
v 0 -0.5 -1.6
v -0.1 -0.5 -1.6
v -0.2 -0.5 -1.6
v 0 -1 -2.1
v -0.1 -1 -2.1
v 0 -0.8 -2.1
v -0.1 -0.8 -2.1
v 0 -0.8 -2.2
v -0.1 -0.8 -2.2
v 0 -0.7 -2.2
v -0.1 -0.7 -2.2
v 0 -0.7 -2.3
v -0.1 -0.7 -2.3
v 0 -0.6 -2.3
v -0.1 -0.6 -2.3
v 0 -0.6 -2.4
v -0.1 -0.6 -2.4
v 0 -0.5 -2.4
v -0.1 -0.5 -2.4
v 0.1 -0.5 -2.6
v 0 -0.5 -2.6
v -0.1 -0.5 -2.6
v -0.2 -0.5 -2.6
v 0.1 -0.3 -2.6
v 0 -0.3 -2.6
v -0.1 -0.3 -2.6
v -0.2 -0.3 -2.6
v 0 -0.8 -2.7
v -0.1 -0.8 -2.7
v 0 -0.7 -2.7
v -0.1 -0.7 -2.7
v 0.1 -0.3 -2.7
v 0 -0.3 -2.7
v -0.1 -0.3 -2.7
v -0.2 -0.3 -2.7
v 0.1 -0.2 -2.7
v 0 -0.2 -2.7
v -0.1 -0.2 -2.7
v -0.2 -0.2 -2.7
v 0.1 -0.1 -2.7
v -0.2 -0.1 -2.7
v 0 -0.7 -2.9
v -0.1 -0.7 -2.9
v 0 -0.6 -2.9
v -0.1 -0.6 -2.9
v 0.1 -0.3 -2.9
v 0 -0.3 -2.9
v -0.1 -0.3 -2.9
v -0.2 -0.3 -2.9
v 0.1 -0.2 -2.9
v 0 -0.2 -2.9
v -0.1 -0.2 -2.9
v -0.2 -0.2 -2.9
v 0 -0.6 -3
v -0.1 -0.6 -3
v 0 -0.5 -3
v -0.1 -0.5 -3
v 0 -0.7 -3.4
v -0.1 -0.7 -3.4
v 0 -0.6 -3.4
v -0.1 -0.6 -3.4
v 0.1 -0.3 -3.9
v 0 -0.3 -3.9
v -0.1 -0.3 -3.9
v -0.2 -0.3 -3.9
v 0.1 -0.2 -3.9
v 0 -0.2 -3.9
v -0.1 -0.2 -3.9
v -0.2 -0.2 -3.9
v 0 -0.5 -4.1
v -0.1 -0.5 -4.1
v 0.1 -0.4 -4.1
v 0 -0.4 -4.1
v -0.1 -0.4 -4.1
v -0.2 -0.4 -4.1
v 0.1 -0.3 -4.1
v 0 -0.3 -4.1
v -0.1 -0.3 -4.1
v -0.2 -0.3 -4.1
v 0.1 -0.2 -4.1
v 0 -0.2 -4.1
v -0.1 -0.2 -4.1
v -0.2 -0.2 -4.1
v 0 -0.2 -4.2
v -0.1 -0.2 -4.2
v 0 -0.1 -4.2
v -0.1 -0.1 -4.2
v 0 -0.2 -5
v -0.1 -0.2 -5
v 0 -0.1 -5
v -0.1 -0.1 -5
v 0 -0.2 -5.2
v -0.1 -0.2 -5.2
v 0 -0.1 -5.2
v -0.1 -0.1 -5.2
v 0 -0.2 -5.4
v -0.1 -0.2 -5.4
v 0 -0.1 -5.4
v -0.1 -0.1 -5.4
v 0 -0.2 -6.9
v -0.1 -0.2 -6.9
v 0 -0.1 -6.9
v -0.1 -0.1 -6.9
v 0.1 -0.6 -1.5
v 0 -0.6 -1.5
v -0.1 -0.6 -1.5
v -0.2 -0.6 -1.5
v 0.1 -0.5 -1.5
v 0 -0.5 -1.5
v -0.1 -0.5 -1.5
v -0.2 -0.5 -1.5
v 0.1 -0.7 -1.7
v 0 -0.7 -1.7
v -0.1 -0.7 -1.7
v -0.2 -0.7 -1.7
v 0.1 -0.6 -1.7
v 0 -0.6 -1.7
v -0.1 -0.6 -1.7
v -0.2 -0.6 -1.7
v 0.1 -0.6 -2
v 0 -0.6 -2
v -0.1 -0.6 -2
v -0.2 -0.6 -2
v 0.1 -0.5 -2
v 0 -0.5 -2
v -0.1 -0.5 -2
v -0.2 -0.5 -2
v 0.1 -0.5 -2.2
v 0 -0.5 -2.2
v -0.1 -0.5 -2.2
v -0.2 -0.5 -2.2
v 0.1 -0.4 -2.2
v 0 -0.4 -2.2
v -0.1 -0.4 -2.2
v -0.2 -0.4 -2.2
v 0.1 -0.2 -2.2
v -0.2 -0.2 -2.2
v 0.1 -0.1 -2.2
v -0.2 -0.1 -2.2
v 0.1 -0.4 -2.3
v 0 -0.4 -2.3
v -0.1 -0.4 -2.3
v -0.2 -0.4 -2.3
v 0.1 -0.2 -2.3
v 0 -0.2 -2.3
v -0.1 -0.2 -2.3
v -0.2 -0.2 -2.3
v 0 -1 -2.5
v -0.1 -1 -2.5
v 0 -0.8 -2.5
v -0.1 -0.8 -2.5
v 0 -0.8 -2.6
v -0.1 -0.8 -2.6
v 0 -0.7 -2.6
v -0.1 -0.7 -2.6
v 0 -0.7 -2.8
v -0.1 -0.7 -2.8
v 0 -0.6 -2.8
v -0.1 -0.6 -2.8
v 0.1 -0.3 -2.8
v 0 -0.3 -2.8
v -0.1 -0.3 -2.8
v -0.2 -0.3 -2.8
v 0.1 -0.2 -2.8
v 0 -0.2 -2.8
v -0.1 -0.2 -2.8
v -0.2 -0.2 -2.8
v 0 -0.6 -2.9
v -0.1 -0.6 -2.9
v 0 -0.5 -2.9
v -0.1 -0.5 -2.9
v 0 -0.8 -3
v -0.1 -0.8 -3
v 0 -0.7 -3
v -0.1 -0.7 -3
v 0 -0.7 -3.1
v -0.1 -0.7 -3.1
v 0 -0.6 -3.1
v -0.1 -0.6 -3.1
v 0 -0.7 -3.7
v -0.1 -0.7 -3.7
v 0 -0.6 -3.7
v -0.1 -0.6 -3.7
v 0 -0.6 -3.8
v -0.1 -0.6 -3.8
v 0 -0.5 -3.8
v -0.1 -0.5 -3.8
v 0.1 -0.3 -3.8
v 0 -0.3 -3.8
v -0.1 -0.3 -3.8
v -0.2 -0.3 -3.8
v 0.1 -0.2 -3.8
v 0 -0.2 -3.8
v -0.1 -0.2 -3.8
v -0.2 -0.2 -3.8
v 0.1 -0.5 -3.9
v 0 -0.5 -3.9
v -0.1 -0.5 -3.9
v -0.2 -0.5 -3.9
v 0.1 -0.4 -3.9
v 0 -0.4 -3.9
v -0.1 -0.4 -3.9
v -0.2 -0.4 -3.9
v 0.1 -0.4 -4
v 0 -0.4 -4
v -0.1 -0.4 -4
v -0.2 -0.4 -4
v 0 -0.3 -4
v -0.1 -0.3 -4
v 0.1 -0.2 -4
v 0 -0.2 -4
v -0.1 -0.2 -4
v -0.2 -0.2 -4
v 0.1 -0.1 -4
v -0.2 -0.1 -4
v 0 -0.5 -4.9
v -0.1 -0.5 -4.9
v 0 -0.4 -4.9
v -0.1 -0.4 -4.9
v 0 -0.2 -4.9
v -0.1 -0.2 -4.9
v 0 -0.1 -4.9
v -0.1 -0.1 -4.9
v 0 -0.2 -5.1
v -0.1 -0.2 -5.1
v 0 -0.1 -5.1
v -0.1 -0.1 -5.1
v 0 -0.2 -5.3
v -0.1 -0.2 -5.3
v 0 -0.1 -5.3
v -0.1 -0.1 -5.3
v 0 -0.2 -5.5
v -0.1 -0.2 -5.5
v 0 -0.1 -5.5
v -0.1 -0.1 -5.5
v 0.1 -0.4 -5.6
v -0.2 -0.4 -5.6
v 0.1 -0.3 -5.6
v 0 -0.3 -5.6
v -0.1 -0.3 -5.6
v -0.2 -0.3 -5.6
v 0.1 -0.2 -5.6
v 0 -0.2 -5.6
v -0.1 -0.2 -5.6
v -0.2 -0.2 -5.6
v 0 -0.2 -7
v -0.1 -0.2 -7
v 0 -0.1 -7
v -0.1 -0.1 -7
v 0 -0.3 -7.1
v -0.1 -0.3 -7.1
v 0 -0.2 -7.1
v -0.1 -0.2 -7.1
v 0.1 -0.7 -1.3
v 0.1 -0.6 -1.3
v 0.1 -0.5 -1.3
v 0.1 -0.3 -1.3
v 0.1 -0.2 -1.3
v 0.1 -0.1 -1.3
v 0.1 -0.7 -1.4
v 0.1 -0.6 -1.4
v 0.1 -0.5 -1.4
v 0.1 -0.4 -1.4
v 0.1 -0.3 -1.4
v 0.1 -0.2 -1.4
v 0.1 -0.1 -1.4
v 0.1 -0.6 -1.5
v 0.1 -0.5 -1.5
v 0.1 -0.6 -1.6
v 0.1 -0.5 -1.6
v 0.1 -0.7 -1.7
v 0.1 -0.6 -1.7
v 0.1 -0.6 -2
v 0.1 -0.5 -2
v 0.1 -0.3 -2
v 0.1 -0.2 -2
v 0.1 -0.2 -2.1
v 0.1 -0.1 -2.1
v 0.1 -0.5 -2.2
v 0.1 -0.4 -2.2
v 0.1 -0.2 -2.2
v 0.1 -0.1 -2.2
v 0.1 -0.4 -2.3
v 0.1 -0.2 -2.3
v 0.1 -0.5 -2.6
v 0.1 -0.3 -2.6
v 0.1 -0.4 -2.7
v 0.1 -0.3 -2.7
v 0.1 -0.2 -2.7
v 0.1 -0.1 -2.7
v 0.1 -0.3 -2.8
v 0.1 -0.2 -2.8
v 0.1 -0.3 -2.9
v 0.1 -0.2 -2.9
v 0.1 -0.4 -3
v 0.1 -0.2 -3
v 0.1 -0.4 -3.1
v 0.1 -0.2 -3.1
v 0.1 -0.4 -3.2
v 0.1 -0.2 -3.2
v 0.1 -0.4 -3.3
v 0.1 -0.2 -3.3
v 0.1 -0.4 -3.4
v 0.1 -0.2 -3.4
v 0.1 -0.4 -3.5
v 0.1 -0.2 -3.5
v 0.1 -0.4 -3.6
v 0.1 -0.2 -3.6
v 0.1 -0.4 -3.7
v 0.1 -0.2 -3.7
v 0.1 -0.3 -3.8
v 0.1 -0.2 -3.8
v 0.1 -0.5 -3.9
v 0.1 -0.4 -3.9
v 0.1 -0.3 -3.9
v 0.1 -0.2 -3.9
v 0.1 -0.4 -4
v 0.1 -0.2 -4
v 0.1 -0.1 -4
v 0.1 -0.4 -4.1
v 0.1 -0.3 -4.1
v 0.1 -0.2 -4.1
v 0.1 -0.4 -4.2
v 0.1 -0.3 -4.2
v 0.1 -0.4 -4.3
v 0.1 -0.3 -4.3
v 0.1 -0.4 -4.4
v 0.1 -0.3 -4.4
v 0.1 -0.4 -4.5
v 0.1 -0.3 -4.5
v 0.1 -0.4 -4.6
v 0.1 -0.3 -4.6
v 0.1 -0.4 -4.7
v 0.1 -0.3 -4.7
v 0.1 -0.4 -4.8
v 0.1 -0.3 -4.8
v 0.1 -0.4 -4.9
v 0.1 -0.3 -4.9
v 0.1 -0.4 -5
v 0.1 -0.3 -5
v 0.1 -0.4 -5.1
v 0.1 -0.3 -5.1
v 0.1 -0.4 -5.2
v 0.1 -0.3 -5.2
v 0.1 -0.4 -5.3
v 0.1 -0.3 -5.3
v 0.1 -0.4 -5.4
v 0.1 -0.3 -5.4
v 0.1 -0.4 -5.5
v 0.1 -0.3 -5.5
v 0.1 -0.4 -5.6
v 0.1 -0.3 -5.6
v 0.1 -0.2 -5.6
v 0 -0.6 -1.5
v 0 -0.5 -1.5
v 0 -0.6 -1.6
v 0 -0.5 -1.6
v 0 -1 -2.1
v 0 -0.8 -2.1
v 0 -1 -2.2
v 0 -0.8 -2.2
v 0 -0.7 -2.2
v 0 -0.5 -2.2
v 0 -0.4 -2.2
v 0 -1 -2.3
v 0 -0.9 -2.3
v 0 -0.8 -2.3
v 0 -0.7 -2.3
v 0 -0.6 -2.3
v 0 -0.4 -2.3
v 0 -0.2 -2.3
v 0 -0.9 -2.4
v 0 -0.8 -2.4
v 0 -0.6 -2.4
v 0 -0.5 -2.4
v 0 -0.4 -2.4
v 0 -0.2 -2.4
v 0 -1 -2.5
v 0 -0.8 -2.5
v 0 -0.7 -2.5
v 0 -0.6 -2.5
v 0 -0.4 -2.5
v 0 -0.3 -2.5
v 0 -0.2 -2.5
v 0 -0.8 -2.6
v 0 -0.7 -2.6
v 0 -0.6 -2.6
v 0 -0.5 -2.6
v 0 -0.3 -2.6
v 0 -0.2 -2.6
v 0 -0.8 -2.7
v 0 -0.7 -2.7
v 0 -0.6 -2.7
v 0 -0.5 -2.7
v 0 -0.3 -2.7
v 0 -0.2 -2.7
v 0 -0.8 -2.8
v 0 -0.7 -2.8
v 0 -0.6 -2.8
v 0 -0.5 -2.8
v 0 -0.3 -2.8
v 0 -0.2 -2.8
v 0 -0.8 -2.9
v 0 -0.7 -2.9
v 0 -0.6 -2.9
v 0 -0.5 -2.9
v 0 -0.3 -2.9
v 0 -0.2 -2.9
v 0 -0.8 -3
v 0 -0.7 -3
v 0 -0.6 -3
v 0 -0.5 -3
v 0 -0.7 -3.1
v 0 -0.6 -3.1
v 0 -0.5 -3.1
v 0 -0.7 -3.4
v 0 -0.6 -3.4
v 0 -0.7 -3.5
v 0 -0.6 -3.5
v 0 -0.7 -3.6
v 0 -0.6 -3.6
v 0 -0.5 -3.6
v 0 -0.7 -3.7
v 0 -0.6 -3.7
v 0 -0.5 -3.7
v 0 -0.6 -3.8
v 0 -0.5 -3.8
v 0 -0.3 -3.8
v 0 -0.2 -3.8
v 0 -0.3 -3.9
v 0 -0.2 -3.9
v 0 -0.4 -4
v 0 -0.3 -4
v 0 -0.2 -4
v 0 -0.5 -4.1
v 0 -0.4 -4.1
v 0 -0.3 -4.1
v 0 -0.2 -4.1
v 0 -0.4 -4.2
v 0 -0.2 -4.2
v 0 -0.1 -4.2
v 0 -0.4 -4.3
v 0 -0.4 -4.4
v 0 -0.4 -4.5
v 0 -0.4 -4.6
v 0 -0.4 -4.7
v 0 -0.4 -4.8
v 0 -0.5 -4.9
v 0 -0.4 -4.9
v 0 -0.2 -4.9
v 0 -0.1 -4.9
v 0 -0.2 -5
v 0 -0.1 -5
v 0 -0.2 -5.1
v 0 -0.1 -5.1
v 0 -0.2 -5.2
v 0 -0.1 -5.2
v 0 -0.2 -5.3
v 0 -0.1 -5.3
v 0 -0.2 -5.4
v 0 -0.1 -5.4
v 0 -0.2 -5.5
v 0 -0.1 -5.5
v 0 -0.3 -5.6
v 0 -0.2 -5.6
v 0 -0.3 -5.7
v 0 -0.2 -5.7
v 0 -0.3 -5.8
v 0 -0.2 -5.8
v 0 -0.3 -5.9
v 0 -0.2 -5.9
v 0 -0.3 -6.1
v 0 -0.2 -6.1
v 0 -0.3 -6.5
v 0 -0.2 -6.5
v 0 -0.3 -6.8
v 0 -0.2 -6.8
v 0 -0.2 -6.9
v 0 -0.1 -6.9
v 0 -0.2 -7
v 0 -0.1 -7
v 0 -0.3 -7.1
v 0 -0.2 -7.1
v -0.1 -0.6 -1.5
v -0.1 -0.5 -1.5
v -0.1 -0.6 -1.6
v -0.1 -0.5 -1.6
v -0.1 -1 -2.1
v -0.1 -0.8 -2.1
v -0.1 -1 -2.2
v -0.1 -0.8 -2.2
v -0.1 -0.7 -2.2
v -0.1 -0.5 -2.2
v -0.1 -0.4 -2.2
v -0.1 -1 -2.3
v -0.1 -0.9 -2.3
v -0.1 -0.8 -2.3
v -0.1 -0.7 -2.3
v -0.1 -0.6 -2.3
v -0.1 -0.4 -2.3
v -0.1 -0.2 -2.3
v -0.1 -0.9 -2.4
v -0.1 -0.8 -2.4
v -0.1 -0.6 -2.4
v -0.1 -0.5 -2.4
v -0.1 -0.4 -2.4
v -0.1 -0.2 -2.4
v -0.1 -1 -2.5
v -0.1 -0.8 -2.5
v -0.1 -0.7 -2.5
v -0.1 -0.6 -2.5
v -0.1 -0.4 -2.5
v -0.1 -0.3 -2.5
v -0.1 -0.2 -2.5
v -0.1 -0.8 -2.6
v -0.1 -0.7 -2.6
v -0.1 -0.6 -2.6
v -0.1 -0.5 -2.6
v -0.1 -0.3 -2.6
v -0.1 -0.2 -2.6
v -0.1 -0.8 -2.7
v -0.1 -0.7 -2.7
v -0.1 -0.6 -2.7
v -0.1 -0.5 -2.7
v -0.1 -0.3 -2.7
v -0.1 -0.2 -2.7
v -0.1 -0.8 -2.8
v -0.1 -0.7 -2.8
v -0.1 -0.6 -2.8
v -0.1 -0.5 -2.8
v -0.1 -0.3 -2.8
v -0.1 -0.2 -2.8
v -0.1 -0.8 -2.9
v -0.1 -0.7 -2.9
v -0.1 -0.6 -2.9
v -0.1 -0.5 -2.9
v -0.1 -0.3 -2.9
v -0.1 -0.2 -2.9
v -0.1 -0.8 -3
v -0.1 -0.7 -3
v -0.1 -0.6 -3
v -0.1 -0.5 -3
v -0.1 -0.7 -3.1
v -0.1 -0.6 -3.1
v -0.1 -0.5 -3.1
v -0.1 -0.7 -3.4
v -0.1 -0.6 -3.4
v -0.1 -0.7 -3.5
v -0.1 -0.6 -3.5
v -0.1 -0.7 -3.6
v -0.1 -0.6 -3.6
v -0.1 -0.5 -3.6
v -0.1 -0.7 -3.7
v -0.1 -0.6 -3.7
v -0.1 -0.5 -3.7
v -0.1 -0.6 -3.8
v -0.1 -0.5 -3.8
v -0.1 -0.3 -3.8
v -0.1 -0.2 -3.8
v -0.1 -0.3 -3.9
v -0.1 -0.2 -3.9
v -0.1 -0.4 -4
v -0.1 -0.3 -4
v -0.1 -0.2 -4
v -0.1 -0.5 -4.1
v -0.1 -0.4 -4.1
v -0.1 -0.3 -4.1
v -0.1 -0.2 -4.1
v -0.1 -0.4 -4.2
v -0.1 -0.2 -4.2
v -0.1 -0.1 -4.2
v -0.1 -0.4 -4.3
v -0.1 -0.4 -4.4
v -0.1 -0.4 -4.5
v -0.1 -0.4 -4.6
v -0.1 -0.4 -4.7
v -0.1 -0.4 -4.8
v -0.1 -0.5 -4.9
v -0.1 -0.4 -4.9
v -0.1 -0.2 -4.9
v -0.1 -0.1 -4.9
v -0.1 -0.2 -5
v -0.1 -0.1 -5
v -0.1 -0.2 -5.1
v -0.1 -0.1 -5.1
v -0.1 -0.2 -5.2
v -0.1 -0.1 -5.2
v -0.1 -0.2 -5.3
v -0.1 -0.1 -5.3
v -0.1 -0.2 -5.4
v -0.1 -0.1 -5.4
v -0.1 -0.2 -5.5
v -0.1 -0.1 -5.5
v -0.1 -0.3 -5.6
v -0.1 -0.2 -5.6
v -0.1 -0.3 -5.7
v -0.1 -0.2 -5.7
v -0.1 -0.3 -5.8
v -0.1 -0.2 -5.8
v -0.1 -0.3 -5.9
v -0.1 -0.2 -5.9
v -0.1 -0.3 -6.1
v -0.1 -0.2 -6.1
v -0.1 -0.3 -6.5
v -0.1 -0.2 -6.5
v -0.1 -0.3 -6.8
v -0.1 -0.2 -6.8
v -0.1 -0.2 -6.9
v -0.1 -0.1 -6.9
v -0.1 -0.2 -7
v -0.1 -0.1 -7
v -0.1 -0.3 -7.1
v -0.1 -0.2 -7.1
v -0.2 -0.7 -1.3
v -0.2 -0.6 -1.3
v -0.2 -0.5 -1.3
v -0.2 -0.3 -1.3
v -0.2 -0.2 -1.3
v -0.2 -0.1 -1.3
v -0.2 -0.7 -1.4
v -0.2 -0.6 -1.4
v -0.2 -0.5 -1.4
v -0.2 -0.4 -1.4
v -0.2 -0.3 -1.4
v -0.2 -0.2 -1.4
v -0.2 -0.1 -1.4
v -0.2 -0.6 -1.5
v -0.2 -0.5 -1.5
v -0.2 -0.6 -1.6
v -0.2 -0.5 -1.6
v -0.2 -0.7 -1.7
v -0.2 -0.6 -1.7
v -0.2 -0.6 -2
v -0.2 -0.5 -2
v -0.2 -0.3 -2
v -0.2 -0.2 -2
v -0.2 -0.2 -2.1
v -0.2 -0.1 -2.1
v -0.2 -0.5 -2.2
v -0.2 -0.4 -2.2
v -0.2 -0.2 -2.2
v -0.2 -0.1 -2.2
v -0.2 -0.4 -2.3
v -0.2 -0.2 -2.3
v -0.2 -0.5 -2.6
v -0.2 -0.3 -2.6
v -0.2 -0.4 -2.7
v -0.2 -0.3 -2.7
v -0.2 -0.2 -2.7
v -0.2 -0.1 -2.7
v -0.2 -0.3 -2.8
v -0.2 -0.2 -2.8
v -0.2 -0.3 -2.9
v -0.2 -0.2 -2.9
v -0.2 -0.4 -3
v -0.2 -0.2 -3
v -0.2 -0.4 -3.1
v -0.2 -0.2 -3.1
v -0.2 -0.4 -3.2
v -0.2 -0.2 -3.2
v -0.2 -0.4 -3.3
v -0.2 -0.2 -3.3
v -0.2 -0.4 -3.4
v -0.2 -0.2 -3.4
v -0.2 -0.4 -3.5
v -0.2 -0.2 -3.5
v -0.2 -0.4 -3.6
v -0.2 -0.2 -3.6
v -0.2 -0.4 -3.7
v -0.2 -0.2 -3.7
v -0.2 -0.3 -3.8
v -0.2 -0.2 -3.8
v -0.2 -0.5 -3.9
v -0.2 -0.4 -3.9
v -0.2 -0.3 -3.9
v -0.2 -0.2 -3.9
v -0.2 -0.4 -4
v -0.2 -0.2 -4
v -0.2 -0.1 -4
v -0.2 -0.4 -4.1
v -0.2 -0.3 -4.1
v -0.2 -0.2 -4.1
v -0.2 -0.4 -4.2
v -0.2 -0.3 -4.2
v -0.2 -0.4 -4.3
v -0.2 -0.3 -4.3
v -0.2 -0.4 -4.4
v -0.2 -0.3 -4.4
v -0.2 -0.4 -4.5
v -0.2 -0.3 -4.5
v -0.2 -0.4 -4.6
v -0.2 -0.3 -4.6
v -0.2 -0.4 -4.7
v -0.2 -0.3 -4.7
v -0.2 -0.4 -4.8
v -0.2 -0.3 -4.8
v -0.2 -0.4 -4.9
v -0.2 -0.3 -4.9
v -0.2 -0.4 -5
v -0.2 -0.3 -5
v -0.2 -0.4 -5.1
v -0.2 -0.3 -5.1
v -0.2 -0.4 -5.2
v -0.2 -0.3 -5.2
v -0.2 -0.4 -5.3
v -0.2 -0.3 -5.3
v -0.2 -0.4 -5.4
v -0.2 -0.3 -5.4
v -0.2 -0.4 -5.5
v -0.2 -0.3 -5.5
v -0.2 -0.4 -5.6
v -0.2 -0.3 -5.6
v -0.2 -0.2 -5.6
v 0 -1 -2.1
v 0 -1 -2.2
v 0 -1 -2.3
v 0 -1 -2.5
v -0.1 -1 -2.1
v -0.1 -1 -2.2
v -0.1 -1 -2.3
v -0.1 -1 -2.5
v 0 -0.8 -2.5
v 0 -0.8 -2.6
v 0 -0.8 -2.7
v 0 -0.8 -2.8
v 0 -0.8 -2.9
v 0 -0.8 -3
v -0.1 -0.8 -2.5
v -0.1 -0.8 -2.6
v -0.1 -0.8 -2.7
v -0.1 -0.8 -2.8
v -0.1 -0.8 -2.9
v -0.1 -0.8 -3
v 0.1 -0.7 -1.3
v 0.1 -0.7 -1.4
v 0.1 -0.7 -1.7
v 0 -0.7 -1.4
v 0 -0.7 -1.7
v 0 -0.7 -2.6
v 0 -0.7 -2.7
v 0 -0.7 -3
v 0 -0.7 -3.1
v 0 -0.7 -3.4
v 0 -0.7 -3.5
v 0 -0.7 -3.6
v 0 -0.7 -3.7
v -0.1 -0.7 -1.4
v -0.1 -0.7 -1.7
v -0.1 -0.7 -2.6
v -0.1 -0.7 -2.7
v -0.1 -0.7 -3
v -0.1 -0.7 -3.1
v -0.1 -0.7 -3.4
v -0.1 -0.7 -3.5
v -0.1 -0.7 -3.6
v -0.1 -0.7 -3.7
v -0.2 -0.7 -1.3
v -0.2 -0.7 -1.4
v -0.2 -0.7 -1.7
v 0.1 -0.6 -1.7
v 0.1 -0.6 -2
v 0 -0.6 -1.7
v 0 -0.6 -2
v 0 -0.6 -2.8
v 0 -0.6 -2.9
v 0 -0.6 -3.1
v 0 -0.6 -3.4
v 0 -0.6 -3.7
v 0 -0.6 -3.8
v -0.1 -0.6 -1.7
v -0.1 -0.6 -2
v -0.1 -0.6 -2.8
v -0.1 -0.6 -2.9
v -0.1 -0.6 -3.1
v -0.1 -0.6 -3.4
v -0.1 -0.6 -3.7
v -0.1 -0.6 -3.8
v -0.2 -0.6 -1.7
v -0.2 -0.6 -2
v 0.1 -0.5 -1.5
v 0.1 -0.5 -1.6
v 0.1 -0.5 -2
v 0.1 -0.5 -2.2
v 0.1 -0.5 -2.6
v 0.1 -0.5 -3.9
v 0 -0.5 -1.5
v 0 -0.5 -1.6
v 0 -0.5 -2
v 0 -0.5 -2.2
v 0 -0.5 -2.4
v 0 -0.5 -2.6
v 0 -0.5 -2.7
v 0 -0.5 -2.8
v 0 -0.5 -2.9
v 0 -0.5 -3
v 0 -0.5 -3.1
v 0 -0.5 -3.6
v 0 -0.5 -3.7
v 0 -0.5 -3.8
v 0 -0.5 -3.9
v 0 -0.5 -4.1
v 0 -0.5 -4.9
v -0.1 -0.5 -1.5
v -0.1 -0.5 -1.6
v -0.1 -0.5 -2
v -0.1 -0.5 -2.2
v -0.1 -0.5 -2.4
v -0.1 -0.5 -2.6
v -0.1 -0.5 -2.7
v -0.1 -0.5 -2.8
v -0.1 -0.5 -2.9
v -0.1 -0.5 -3
v -0.1 -0.5 -3.1
v -0.1 -0.5 -3.6
v -0.1 -0.5 -3.7
v -0.1 -0.5 -3.8
v -0.1 -0.5 -3.9
v -0.1 -0.5 -4.1
v -0.1 -0.5 -4.9
v -0.2 -0.5 -1.5
v -0.2 -0.5 -1.6
v -0.2 -0.5 -2
v -0.2 -0.5 -2.2
v -0.2 -0.5 -2.6
v -0.2 -0.5 -3.9
v 0.1 -0.4 -2.2
v 0.1 -0.4 -2.3
v 0.1 -0.4 -3.9
v 0.1 -0.4 -4
v 0.1 -0.4 -4.1
v 0.1 -0.4 -4.2
v 0.1 -0.4 -4.3
v 0.1 -0.4 -4.4
v 0.1 -0.4 -4.5
v 0.1 -0.4 -4.6
v 0.1 -0.4 -4.7
v 0.1 -0.4 -4.8
v 0.1 -0.4 -4.9
v 0.1 -0.4 -5
v 0.1 -0.4 -5.1
v 0.1 -0.4 -5.2
v 0.1 -0.4 -5.3
v 0.1 -0.4 -5.4
v 0.1 -0.4 -5.5
v 0.1 -0.4 -5.6
v 0 -0.4 -2.2
v 0 -0.4 -2.3
v 0 -0.4 -3.9
v 0 -0.4 -4
v 0 -0.4 -4.1
v 0 -0.4 -4.2
v 0 -0.4 -4.3
v 0 -0.4 -4.4
v 0 -0.4 -4.5
v 0 -0.4 -4.6
v 0 -0.4 -4.7
v 0 -0.4 -4.8
v 0 -0.4 -4.9
v -0.1 -0.4 -2.2
v -0.1 -0.4 -2.3
v -0.1 -0.4 -3.9
v -0.1 -0.4 -4
v -0.1 -0.4 -4.1
v -0.1 -0.4 -4.2
v -0.1 -0.4 -4.3
v -0.1 -0.4 -4.4
v -0.1 -0.4 -4.5
v -0.1 -0.4 -4.6
v -0.1 -0.4 -4.7
v -0.1 -0.4 -4.8
v -0.1 -0.4 -4.9
v -0.2 -0.4 -2.2
v -0.2 -0.4 -2.3
v -0.2 -0.4 -3.9
v -0.2 -0.4 -4
v -0.2 -0.4 -4.1
v -0.2 -0.4 -4.2
v -0.2 -0.4 -4.3
v -0.2 -0.4 -4.4
v -0.2 -0.4 -4.5
v -0.2 -0.4 -4.6
v -0.2 -0.4 -4.7
v -0.2 -0.4 -4.8
v -0.2 -0.4 -4.9
v -0.2 -0.4 -5
v -0.2 -0.4 -5.1
v -0.2 -0.4 -5.2
v -0.2 -0.4 -5.3
v -0.2 -0.4 -5.4
v -0.2 -0.4 -5.5
v -0.2 -0.4 -5.6
v 0 -0.3 -5.6
v 0 -0.3 -5.7
v 0 -0.3 -5.8
v 0 -0.3 -5.9
v 0 -0.3 -6.1
v 0 -0.3 -6.5
v 0 -0.3 -6.8
v 0 -0.3 -7.1
v -0.1 -0.3 -5.6
v -0.1 -0.3 -5.7
v -0.1 -0.3 -5.8
v -0.1 -0.3 -5.9
v -0.1 -0.3 -6.1
v -0.1 -0.3 -6.5
v -0.1 -0.3 -6.8
v -0.1 -0.3 -7.1
v 0.1 -0.2 -2.8
v 0.1 -0.2 -2.9
v 0.1 -0.2 -3.8
v 0.1 -0.2 -3.9
v 0 -0.2 -2.8
v 0 -0.2 -2.9
v 0 -0.2 -3.8
v 0 -0.2 -3.9
v -0.1 -0.2 -2.8
v -0.1 -0.2 -2.9
v -0.1 -0.2 -3.8
v -0.1 -0.2 -3.9
v -0.2 -0.2 -2.8
v -0.2 -0.2 -2.9
v -0.2 -0.2 -3.8
v -0.2 -0.2 -3.9
v 0 -0.8 -2.1
v 0 -0.8 -2.2
v -0.1 -0.8 -2.1
v -0.1 -0.8 -2.2
v 0 -0.7 -2.2
v 0 -0.7 -2.3
v 0 -0.7 -2.8
v 0 -0.7 -2.9
v -0.1 -0.7 -2.2
v -0.1 -0.7 -2.3
v -0.1 -0.7 -2.8
v -0.1 -0.7 -2.9
v 0.1 -0.6 -1.5
v 0.1 -0.6 -1.6
v 0 -0.6 -1.5
v 0 -0.6 -1.6
v 0 -0.6 -2.3
v 0 -0.6 -2.4
v 0 -0.6 -2.9
v 0 -0.6 -3
v -0.1 -0.6 -1.5
v -0.1 -0.6 -1.6
v -0.1 -0.6 -2.3
v -0.1 -0.6 -2.4
v -0.1 -0.6 -2.9
v -0.1 -0.6 -3
v -0.2 -0.6 -1.5
v -0.2 -0.6 -1.6
v 0.1 -0.3 -2.6
v 0.1 -0.3 -2.7
v 0.1 -0.3 -2.8
v 0.1 -0.3 -2.9
v 0.1 -0.3 -3.8
v 0.1 -0.3 -3.9
v 0 -0.3 -2.6
v 0 -0.3 -2.7
v 0 -0.3 -2.8
v 0 -0.3 -2.9
v 0 -0.3 -3.8
v 0 -0.3 -3.9
v -0.1 -0.3 -2.6
v -0.1 -0.3 -2.7
v -0.1 -0.3 -2.8
v -0.1 -0.3 -2.9
v -0.1 -0.3 -3.8
v -0.1 -0.3 -3.9
v -0.2 -0.3 -2.6
v -0.2 -0.3 -2.7
v -0.2 -0.3 -2.8
v -0.2 -0.3 -2.9
v -0.2 -0.3 -3.8
v -0.2 -0.3 -3.9
v 0.1 -0.2 -2.2
v 0.1 -0.2 -2.3
v 0.1 -0.2 -4.1
v 0.1 -0.2 -5.6
v 0 -0.2 -2.3
v 0 -0.2 -2.4
v 0 -0.2 -2.5
v 0 -0.2 -2.6
v 0 -0.2 -2.7
v 0 -0.2 -4
v 0 -0.2 -4.1
v 0 -0.2 -4.2
v 0 -0.2 -4.9
v 0 -0.2 -5
v 0 -0.2 -5.1
v 0 -0.2 -5.2
v 0 -0.2 -5.3
v 0 -0.2 -5.4
v 0 -0.2 -5.5
v 0 -0.2 -5.6
v 0 -0.2 -5.7
v 0 -0.2 -5.8
v 0 -0.2 -5.9
v 0 -0.2 -6.1
v 0 -0.2 -6.5
v 0 -0.2 -6.8
v 0 -0.2 -6.9
v 0 -0.2 -7
v 0 -0.2 -7.1
v -0.1 -0.2 -2.3
v -0.1 -0.2 -2.4
v -0.1 -0.2 -2.5
v -0.1 -0.2 -2.6
v -0.1 -0.2 -2.7
v -0.1 -0.2 -4
v -0.1 -0.2 -4.1
v -0.1 -0.2 -4.2
v -0.1 -0.2 -4.9
v -0.1 -0.2 -5
v -0.1 -0.2 -5.1
v -0.1 -0.2 -5.2
v -0.1 -0.2 -5.3
v -0.1 -0.2 -5.4
v -0.1 -0.2 -5.5
v -0.1 -0.2 -5.6
v -0.1 -0.2 -5.7
v -0.1 -0.2 -5.8
v -0.1 -0.2 -5.9
v -0.1 -0.2 -6.1
v -0.1 -0.2 -6.5
v -0.1 -0.2 -6.8
v -0.1 -0.2 -6.9
v -0.1 -0.2 -7
v -0.1 -0.2 -7.1
v -0.2 -0.2 -2.2
v -0.2 -0.2 -2.3
v -0.2 -0.2 -4.1
v -0.2 -0.2 -5.6
v 0.1 -0.1 -1.3
v 0.1 -0.1 -1.4
v 0.1 -0.1 -2.1
v 0.1 -0.1 -2.2
v 0.1 -0.1 -2.7
v 0.1 -0.1 -4
v 0 -0.1 -2.8
v 0 -0.1 -3.4
v 0 -0.1 -3.6
v 0 -0.1 -3.8
v 0 -0.1 -3.9
v 0 -0.1 -4.2
v 0 -0.1 -4.9
v 0 -0.1 -5
v 0 -0.1 -5.1
v 0 -0.1 -5.2
v 0 -0.1 -5.3
v 0 -0.1 -5.4
v 0 -0.1 -5.5
v 0 -0.1 -6.9
v 0 -0.1 -7
v -0.1 -0.1 -2.8
v -0.1 -0.1 -3.4
v -0.1 -0.1 -3.6
v -0.1 -0.1 -3.8
v -0.1 -0.1 -3.9
v -0.1 -0.1 -4.2
v -0.1 -0.1 -4.9
v -0.1 -0.1 -5
v -0.1 -0.1 -5.1
v -0.1 -0.1 -5.2
v -0.1 -0.1 -5.3
v -0.1 -0.1 -5.4
v -0.1 -0.1 -5.5
v -0.1 -0.1 -6.9
v -0.1 -0.1 -7
v -0.2 -0.1 -1.3
v -0.2 -0.1 -1.4
v -0.2 -0.1 -2.1
v -0.2 -0.1 -2.2
v -0.2 -0.1 -2.7
v -0.2 -0.1 -4

# faces
f 3/9/1 2/9/1 1/9/1
f 4/9/1 2/9/1 3/9/1
f 5/10/1 4/10/1 3/10/1
f 6/10/1 4/10/1 5/10/1
f 7/11/1 6/11/1 5/11/1
f 8/11/1 6/11/1 7/11/1
f 9/10/1 8/10/1 7/10/1
f 10/10/1 8/10/1 9/10/1
f 11/9/1 10/9/1 9/9/1
f 12/9/1 10/9/1 11/9/1
f 17/12/1 14/12/1 13/12/1
f 18/12/1 14/12/1 17/12/1
f 19/12/1 16/12/1 15/12/1
f 20/12/1 16/12/1 19/12/1
f 23/13/1 22/13/1 21/13/1
f 24/13/1 22/13/1 23/13/1
f 27/13/1 26/13/1 25/13/1
f 28/13/1 26/13/1 27/13/1
f 31/13/1 30/13/1 29/13/1
f 32/13/1 30/13/1 31/13/1
f 35/2/1 34/2/1 33/2/1
f 36/2/1 34/2/1 35/2/1
f 41/13/1 38/13/1 37/13/1
f 42/13/1 38/13/1 41/13/1
f 43/13/1 40/13/1 39/13/1
f 44/13/1 40/13/1 43/13/1
f 47/3/1 46/3/1 45/3/1
f 48/3/1 46/3/1 47/3/1
f 53/14/1 50/14/1 49/14/1
f 54/14/1 50/14/1 53/14/1
f 55/14/1 52/14/1 51/14/1
f 56/14/1 52/14/1 55/14/1
f 57/15/1 54/15/1 53/15/1
f 57/15/1 55/15/1 54/15/1
f 57/15/1 56/15/1 55/15/1
f 58/15/1 56/15/1 57/15/1
f 61/5/1 60/5/1 59/5/1
f 62/5/1 60/5/1 61/5/1
f 67/14/1 64/14/1 63/14/1
f 68/14/1 64/14/1 67/14/1
f 69/14/1 66/14/1 65/14/1
f 70/14/1 66/14/1 69/14/1
f 73/5/1 72/5/1 71/5/1
f 74/5/1 72/5/1 73/5/1
f 77/3/1 76/3/1 75/3/1
f 78/3/1 76/3/1 77/3/1
f 83/14/1 80/14/1 79/14/1
f 84/14/1 80/14/1 83/14/1
f 85/14/1 82/14/1 81/14/1
f 86/14/1 82/14/1 85/14/1
f 90/12/1 88/12/1 87/12/1
f 91/12/1 88/12/1 90/12/1
f 93/14/1 90/14/1 89/14/1
f 94/14/1 90/14/1 93/14/1
f 95/14/1 92/14/1 91/14/1
f 96/14/1 92/14/1 95/14/1
f 97/15/1 94/15/1 93/15/1
f 98/15/1 94/15/1 97/15/1
f 99/15/1 96/15/1 95/15/1
f 100/15/1 96/15/1 99/15/1
f 103/16/1 102/16/1 101/16/1
f 104/16/1 102/16/1 103/16/1
f 107/16/1 106/16/1 105/16/1
f 108/16/1 106/16/1 107/16/1
f 111/16/1 110/16/1 109/16/1
f 112/16/1 110/16/1 111/16/1
f 115/16/1 114/16/1 113/16/1
f 116/16/1 114/16/1 115/16/1
f 119/8/1 118/8/1 117/8/1
f 120/8/1 118/8/1 119/8/1
f 121/12/2 122/12/2 125/12/2
f 125/12/2 122/12/2 126/12/2
f 123/12/2 124/12/2 127/12/2
f 127/12/2 124/12/2 128/12/2
f 129/12/2 130/12/2 133/12/2
f 130/1/2 131/1/2 134/1/2
f 133/12/2 130/12/2 134/12/2
f 131/12/2 132/12/2 135/12/2
f 134/1/2 131/1/2 135/1/2
f 135/12/2 132/12/2 136/12/2
f 137/12/2 138/12/2 141/12/2
f 138/1/2 139/1/2 142/1/2
f 141/12/2 138/12/2 142/12/2
f 139/12/2 140/12/2 143/12/2
f 142/1/2 139/1/2 143/1/2
f 143/12/2 140/12/2 144/12/2
f 145/13/2 146/13/2 149/13/2
f 149/13/2 146/13/2 150/13/2
f 147/13/2 148/13/2 151/13/2
f 151/13/2 148/13/2 152/13/2
f 153/14/2 154/14/2 155/14/2
f 155/14/2 154/14/2 156/14/2
f 157/13/2 158/13/2 161/13/2
f 161/13/2 158/13/2 162/13/2
f 159/13/2 160/13/2 163/13/2
f 163/13/2 160/13/2 164/13/2
f 165/13/2 166/13/2 167/13/2
f 167/13/2 166/13/2 168/13/2
f 169/13/2 170/13/2 171/13/2
f 171/13/2 170/13/2 172/13/2
f 173/5/2 174/5/2 175/5/2
f 175/5/2 174/5/2 176/5/2
f 177/14/2 178/14/2 181/14/2
f 181/14/2 178/14/2 182/14/2
f 179/14/2 180/14/2 183/14/2
f 183/14/2 180/14/2 184/14/2
f 185/5/2 186/5/2 187/5/2
f 187/5/2 186/5/2 188/5/2
f 189/3/2 190/3/2 191/3/2
f 191/3/2 190/3/2 192/3/2
f 193/3/2 194/3/2 195/3/2
f 195/3/2 194/3/2 196/3/2
f 197/1/2 198/1/2 199/1/2
f 199/1/2 198/1/2 200/1/2
f 201/1/2 202/1/2 203/1/2
f 203/1/2 202/1/2 204/1/2
f 205/14/2 206/14/2 209/14/2
f 209/14/2 206/14/2 210/14/2
f 207/14/2 208/14/2 211/14/2
f 211/14/2 208/14/2 212/14/2
f 213/13/2 214/13/2 217/13/2
f 214/1/2 215/1/2 218/1/2
f 217/13/2 214/13/2 218/13/2
f 215/13/2 216/13/2 219/13/2
f 218/1/2 215/1/2 219/1/2
f 219/13/2 216/13/2 220/13/2
f 221/14/2 222/14/2 225/14/2
f 223/14/2 224/14/2 226/14/2
f 221/14/2 225/14/2 227/14/2
f 227/14/2 225/14/2 228/14/2
f 226/14/2 224/14/2 229/14/2
f 229/14/2 224/14/2 230/14/2
f 227/15/2 228/15/2 231/15/2
f 228/15/2 229/15/2 231/15/2
f 229/15/2 230/15/2 231/15/2
f 231/15/2 230/15/2 232/15/2
f 233/12/2 234/12/2 235/12/2
f 235/12/2 234/12/2 236/12/2
f 237/16/2 238/16/2 239/16/2
f 239/16/2 238/16/2 240/16/2
f 241/16/2 242/16/2 243/16/2
f 243/16/2 242/16/2 244/16/2
f 245/16/2 246/16/2 247/16/2
f 247/16/2 246/16/2 248/16/2
f 249/16/2 250/16/2 251/16/2
f 251/16/2 250/16/2 252/16/2
f 253/14/2 254/14/2 255/14/2
f 255/14/2 254/14/2 256/14/2
f 256/14/2 254/14/2 257/14/2
f 257/14/2 254/14/2 258/14/2
f 255/15/2 256/15/2 259/15/2
f 259/15/2 256/15/2 260/15/2
f 257/15/2 258/15/2 261/15/2
f 261/15/2 258/15/2 262/15/2
f 263/8/2 264/8/2 265/8/2
f 265/8/2 264/8/2 266/8/2
f 267/7/2 268/7/2 269/7/2
f 269/7/2 268/7/2 270/7/2
f 277/9/3 272/9/3 271/9/3
f 278/10/3 273/10/3 272/10/3
f 278/9/3 272/9/3 277/9/3
f 279/11/3 274/11/3 273/11/3
f 279/10/3 273/10/3 278/10/3
f 280/11/3 274/11/3 279/11/3
f 281/10/3 275/10/3 274/10/3
f 281/11/3 274/11/3 280/11/3
f 282/9/3 276/9/3 275/9/3
f 282/10/3 275/10/3 281/10/3
f 283/9/3 276/9/3 282/9/3
f 284/12/3 278/12/3 277/12/3
f 284/12/3 279/12/3 278/12/3
f 285/13/3 280/13/3 279/13/3
f 285/12/3 279/12/3 284/12/3
f 286/12/3 284/12/3 277/12/3
f 287/13/3 280/13/3 285/13/3
f 288/12/3 286/12/3 277/12/3
f 288/12/3 287/12/3 286/12/3
f 289/12/3 287/12/3 288/12/3
f 290/12/3 287/12/3 289/12/3
f 291/13/3 280/13/3 287/13/3
f 291/12/3 287/12/3 290/12/3
f 292/14/3 281/14/3 280/14/3
f 292/15/3 283/15/3 282/15/3
f 292/15/3 282/15/3 281/15/3
f 293/15/3 283/15/3 292/15/3
f 294/15/3 283/15/3 293/15/3
f 294/14/3 293/14/3 292/14/3
f 295/15/3 283/15/3 294/15/3
f 296/13/3 280/13/3 291/13/3
f 297/14/3 292/14/3 280/14/3
f 297/13/3 280/13/3 296/13/3
f 297/14/3 294/14/3 292/14/3
f 297/14/3 295/14/3 294/14/3
f 298/14/3 295/14/3 297/14/3
f 299/14/3 295/14/3 298/14/3
f 300/13/3 298/13/3 297/13/3
f 301/13/3 298/13/3 300/13/3
f 304/13/3 303/13/3 302/13/3
f 305/13/3 303/13/3 304/13/3
f 308/14/3 306/14/3 305/14/3
f 308/14/3 305/14/3 304/14/3
f 309/15/3 307/15/3 306/15/3
f 309/14/3 306/14/3 308/14/3
f 310/14/3 308/14/3 304/14/3
f 311/15/3 307/15/3 309/15/3
f 312/14/3 310/14/3 304/14/3
f 312/14/3 311/14/3 310/14/3
f 312/13/3 304/13/3 302/13/3
f 313/15/3 307/15/3 311/15/3
f 313/14/3 311/14/3 312/14/3
f 314/13/3 312/13/3 302/13/3
f 314/12/3 313/12/3 312/12/3
f 315/15/3 307/15/3 313/15/3
f 315/12/3 313/12/3 314/12/3
f 316/13/3 314/13/3 302/13/3
f 316/14/3 315/14/3 314/14/3
f 317/15/3 307/15/3 315/15/3
f 317/14/3 315/14/3 316/14/3
f 318/13/3 316/13/3 302/13/3
f 318/12/3 317/12/3 316/12/3
f 319/15/3 307/15/3 317/15/3
f 319/12/3 317/12/3 318/12/3
f 320/13/3 318/13/3 302/13/3
f 320/14/3 319/14/3 318/14/3
f 321/15/3 307/15/3 319/15/3
f 321/14/3 319/14/3 320/14/3
f 322/13/3 320/13/3 302/13/3
f 322/12/3 321/12/3 320/12/3
f 323/15/3 307/15/3 321/15/3
f 323/12/3 321/12/3 322/12/3
f 324/13/3 322/13/3 302/13/3
f 324/14/3 323/14/3 322/14/3
f 325/15/3 307/15/3 323/15/3
f 325/14/3 323/14/3 324/14/3
f 326/13/3 324/13/3 302/13/3
f 326/12/3 325/12/3 324/12/3
f 327/15/3 307/15/3 325/15/3
f 327/12/3 325/12/3 326/12/3
f 328/14/3 327/14/3 326/14/3
f 329/15/3 307/15/3 327/15/3
f 329/14/3 327/14/3 328/14/3
f 330/13/3 326/13/3 302/13/3
f 331/14/3 328/14/3 326/14/3
f 331/13/3 326/13/3 330/13/3
f 332/14/3 328/14/3 331/14/3
f 333/15/3 307/15/3 329/15/3
f 334/14/3 332/14/3 331/14/3
f 334/14/3 333/14/3 332/14/3
f 335/15/3 307/15/3 333/15/3
f 335/14/3 333/14/3 334/14/3
f 336/15/3 307/15/3 335/15/3
f 340/14/3 338/14/3 337/14/3
f 341/15/3 339/15/3 338/15/3
f 341/14/3 338/14/3 340/14/3
f 342/13/3 341/13/3 340/13/3
f 343/15/3 339/15/3 341/15/3
f 343/13/3 341/13/3 342/13/3
f 344/14/3 343/14/3 342/14/3
f 345/15/3 339/15/3 343/15/3
f 345/14/3 343/14/3 344/14/3
f 346/13/3 345/13/3 344/13/3
f 347/15/3 339/15/3 345/15/3
f 347/13/3 345/13/3 346/13/3
f 348/14/3 347/14/3 346/14/3
f 349/15/3 339/15/3 347/15/3
f 349/14/3 347/14/3 348/14/3
f 350/13/3 349/13/3 348/13/3
f 351/15/3 339/15/3 349/15/3
f 351/13/3 349/13/3 350/13/3
f 352/14/3 351/14/3 350/14/3
f 353/15/3 339/15/3 351/15/3
f 353/14/3 351/14/3 352/14/3
f 354/13/3 353/13/3 352/13/3
f 355/15/3 339/15/3 353/15/3
f 355/13/3 353/13/3 354/13/3
f 356/14/3 355/14/3 354/14/3
f 357/15/3 339/15/3 355/15/3
f 357/14/3 355/14/3 356/14/3
f 358/13/3 357/13/3 356/13/3
f 359/15/3 339/15/3 357/15/3
f 359/13/3 357/13/3 358/13/3
f 360/14/3 359/14/3 358/14/3
f 361/15/3 339/15/3 359/15/3
f 361/14/3 359/14/3 360/14/3
f 362/13/3 361/13/3 360/13/3
f 363/15/3 339/15/3 361/15/3
f 363/13/3 361/13/3 362/13/3
f 364/14/3 363/14/3 362/14/3
f 365/15/3 339/15/3 363/15/3
f 365/14/3 363/14/3 364/14/3
f 366/13/3 365/13/3 364/13/3
f 367/15/3 339/15/3 365/15/3
f 367/13/3 365/13/3 366/13/3
f 368/14/3 367/14/3 366/14/3
f 369/15/3 339/15/3 367/15/3
f 369/14/3 367/14/3 368/14/3
f 370/15/3 339/15/3 369/15/3
f 373/9/3 372/9/3 371/9/3
f 374/9/3 372/9/3 373/9/3
f 377/13/3 376/13/3 375/13/3
f 378/13/3 376/13/3 377/13/3
f 382/12/3 378/12/3 377/12/3
f 383/12/3 378/12/3 382/12/3
f 384/13/3 379/13/3 378/13/3
f 384/12/3 378/12/3 383/12/3
f 385/13/3 379/13/3 384/13/3
f 387/1/3 381/1/3 380/1/3
f 389/13/3 383/13/3 382/13/3
f 389/12/3 384/12/3 383/12/3
f 389/12/3 385/12/3 384/12/3
f 390/12/3 385/12/3 389/12/3
f 391/13/3 386/13/3 385/13/3
f 392/1/3 388/1/3 387/1/3
f 392/1/3 387/1/3 380/1/3
f 393/1/3 388/1/3 392/1/3
f 394/1/3 388/1/3 393/1/3
f 395/13/3 390/13/3 389/13/3
f 395/13/3 389/13/3 382/13/3
f 396/12/3 385/12/3 390/12/3
f 396/13/3 390/13/3 395/13/3
f 397/13/3 391/13/3 385/13/3
f 397/12/3 385/12/3 396/12/3
f 398/2/3 392/2/3 391/2/3
f 398/13/3 391/13/3 397/13/3
f 398/2/3 393/2/3 392/2/3
f 399/3/3 394/3/3 393/3/3
f 399/2/3 393/2/3 398/2/3
f 400/3/3 394/3/3 399/3/3
f 401/3/3 394/3/3 400/3/3
f 402/13/3 398/13/3 397/13/3
f 402/13/3 397/13/3 396/13/3
f 403/13/3 398/13/3 402/13/3
f 404/1/3 400/1/3 399/1/3
f 404/13/3 398/13/3 403/13/3
f 404/1/3 399/1/3 398/1/3
f 405/1/3 400/1/3 404/1/3
f 406/2/3 401/2/3 400/2/3
f 406/1/3 400/1/3 405/1/3
f 407/2/3 401/2/3 406/2/3
f 409/3/3 404/3/3 403/3/3
f 410/2/3 405/2/3 404/2/3
f 410/3/3 404/3/3 409/3/3
f 411/2/3 405/2/3 410/2/3
f 412/1/3 407/1/3 406/1/3
f 413/1/3 407/1/3 412/1/3
f 414/3/3 409/3/3 408/3/3
f 415/5/3 410/5/3 409/5/3
f 415/3/3 409/3/3 414/3/3
f 416/3/3 411/3/3 410/3/3
f 416/5/3 410/5/3 415/5/3
f 417/3/3 411/3/3 416/3/3
f 420/5/3 415/5/3 414/5/3
f 421/5/3 415/5/3 420/5/3
f 422/5/3 417/5/3 416/5/3
f 423/5/3 417/5/3 422/5/3
f 424/1/3 419/1/3 418/1/3
f 425/1/3 419/1/3 424/1/3
f 426/3/3 421/3/3 420/3/3
f 427/5/3 422/5/3 421/5/3
f 427/3/3 421/3/3 426/3/3
f 428/5/3 422/5/3 427/5/3
f 430/3/3 428/3/3 427/3/3
f 431/5/3 429/5/3 428/5/3
f 431/3/3 428/3/3 430/3/3
f 432/5/3 429/5/3 431/5/3
f 434/3/3 432/3/3 431/3/3
f 435/3/3 434/3/3 433/3/3
f 436/3/3 432/3/3 434/3/3
f 436/3/3 434/3/3 435/3/3
f 437/2/3 436/2/3 435/2/3
f 438/3/3 432/3/3 436/3/3
f 438/2/3 436/2/3 437/2/3
f 439/3/3 432/3/3 438/3/3
f 440/1/3 438/1/3 437/1/3
f 441/2/3 439/2/3 438/2/3
f 441/1/3 438/1/3 440/1/3
f 442/2/3 439/2/3 441/2/3
f 443/1/3 442/1/3 441/1/3
f 444/1/3 442/1/3 443/1/3
f 447/9/3 446/9/3 445/9/3
f 448/9/3 446/9/3 447/9/3
f 453/1/3 450/1/3 449/1/3
f 454/3/3 451/3/3 450/3/3
f 454/1/3 450/1/3 453/1/3
f 455/3/3 451/3/3 454/3/3
f 456/12/3 453/12/3 452/12/3
f 459/12/3 456/12/3 452/12/3
f 460/12/3 459/12/3 452/12/3
f 461/12/3 460/12/3 452/12/3
f 462/12/3 461/12/3 452/12/3
f 463/12/3 462/12/3 452/12/3
f 464/12/3 463/12/3 452/12/3
f 465/12/3 464/12/3 452/12/3
f 466/12/3 464/12/3 465/12/3
f 467/16/3 458/16/3 457/16/3
f 468/16/3 458/16/3 467/16/3
f 471/16/3 470/16/3 469/16/3
f 472/16/3 470/16/3 471/16/3
f 475/16/3 474/16/3 473/16/3
f 476/16/3 474/16/3 475/16/3
f 479/16/3 478/16/3 477/16/3
f 480/16/3 478/16/3 479/16/3
f 483/1/3 482/1/3 481/1/3
f 484/1/3 482/1/3 483/1/3
f 485/2/3 484/2/3 483/2/3
f 486/2/3 484/2/3 485/2/3
f 487/3/3 486/3/3 485/3/3
f 488/3/3 486/3/3 487/3/3
f 489/4/3 488/4/3 487/4/3
f 490/4/3 488/4/3 489/4/3
f 491/5/3 490/5/3 489/5/3
f 492/5/3 490/5/3 491/5/3
f 493/6/3 492/6/3 491/6/3
f 494/6/3 492/6/3 493/6/3
f 495/7/3 494/7/3 493/7/3
f 497/7/3 495/7/3 493/7/3
f 497/8/3 496/8/3 495/8/3
f 498/8/3 496/8/3 497/8/3
f 499/7/3 497/7/3 493/7/3
f 500/7/3 497/7/3 499/7/3
f 501/9/4 502/9/4 503/9/4
f 503/9/4 502/9/4 504/9/4
f 505/13/4 506/13/4 507/13/4
f 507/13/4 506/13/4 508/13/4
f 507/12/4 508/12/4 512/12/4
f 512/12/4 508/12/4 513/12/4
f 508/13/4 509/13/4 514/13/4
f 513/12/4 508/12/4 514/12/4
f 514/13/4 509/13/4 515/13/4
f 510/1/4 511/1/4 517/1/4
f 512/13/4 513/13/4 519/13/4
f 513/12/4 514/12/4 519/12/4
f 514/12/4 515/12/4 519/12/4
f 519/12/4 515/12/4 520/12/4
f 515/13/4 516/13/4 521/13/4
f 517/1/4 518/1/4 522/1/4
f 510/1/4 517/1/4 522/1/4
f 522/1/4 518/1/4 523/1/4
f 523/1/4 518/1/4 524/1/4
f 519/13/4 520/13/4 525/13/4
f 512/13/4 519/13/4 525/13/4
f 520/12/4 515/12/4 526/12/4
f 525/13/4 520/13/4 526/13/4
f 515/13/4 521/13/4 527/13/4
f 526/12/4 515/12/4 527/12/4
f 521/2/4 522/2/4 528/2/4
f 527/13/4 521/13/4 528/13/4
f 522/2/4 523/2/4 528/2/4
f 523/3/4 524/3/4 529/3/4
f 528/2/4 523/2/4 529/2/4
f 529/3/4 524/3/4 530/3/4
f 530/3/4 524/3/4 531/3/4
f 527/13/4 528/13/4 532/13/4
f 526/13/4 527/13/4 532/13/4
f 532/13/4 528/13/4 533/13/4
f 529/1/4 530/1/4 534/1/4
f 533/13/4 528/13/4 534/13/4
f 528/1/4 529/1/4 534/1/4
f 534/1/4 530/1/4 535/1/4
f 530/2/4 531/2/4 536/2/4
f 535/1/4 530/1/4 536/1/4
f 536/2/4 531/2/4 537/2/4
f 533/3/4 534/3/4 539/3/4
f 534/2/4 535/2/4 540/2/4
f 539/3/4 534/3/4 540/3/4
f 540/2/4 535/2/4 541/2/4
f 536/1/4 537/1/4 542/1/4
f 542/1/4 537/1/4 543/1/4
f 538/3/4 539/3/4 544/3/4
f 539/5/4 540/5/4 545/5/4
f 544/3/4 539/3/4 545/3/4
f 540/3/4 541/3/4 546/3/4
f 545/5/4 540/5/4 546/5/4
f 546/3/4 541/3/4 547/3/4
f 544/5/4 545/5/4 550/5/4
f 550/5/4 545/5/4 551/5/4
f 546/5/4 547/5/4 552/5/4
f 552/5/4 547/5/4 553/5/4
f 548/1/4 549/1/4 554/1/4
f 554/1/4 549/1/4 555/1/4
f 550/3/4 551/3/4 556/3/4
f 551/5/4 552/5/4 557/5/4
f 556/3/4 551/3/4 557/3/4
f 557/5/4 552/5/4 558/5/4
f 557/3/4 558/3/4 560/3/4
f 558/5/4 559/5/4 561/5/4
f 560/3/4 558/3/4 561/3/4
f 561/5/4 559/5/4 562/5/4
f 561/3/4 562/3/4 564/3/4
f 563/3/4 564/3/4 565/3/4
f 564/3/4 562/3/4 566/3/4
f 565/3/4 564/3/4 566/3/4
f 565/2/4 566/2/4 567/2/4
f 566/3/4 562/3/4 568/3/4
f 567/2/4 566/2/4 568/2/4
f 568/3/4 562/3/4 569/3/4
f 567/1/4 568/1/4 570/1/4
f 568/2/4 569/2/4 571/2/4
f 570/1/4 568/1/4 571/1/4
f 571/2/4 569/2/4 572/2/4
f 571/1/4 572/1/4 573/1/4
f 573/1/4 572/1/4 574/1/4
f 575/9/4 576/9/4 577/9/4
f 577/9/4 576/9/4 578/9/4
f 579/1/4 580/1/4 583/1/4
f 580/3/4 581/3/4 584/3/4
f 583/1/4 580/1/4 584/1/4
f 584/3/4 581/3/4 585/3/4
f 582/12/4 583/12/4 586/12/4
f 582/12/4 586/12/4 589/12/4
f 582/12/4 589/12/4 590/12/4
f 582/12/4 590/12/4 591/12/4
f 582/12/4 591/12/4 592/12/4
f 582/12/4 592/12/4 593/12/4
f 582/12/4 593/12/4 594/12/4
f 582/12/4 594/12/4 595/12/4
f 595/12/4 594/12/4 596/12/4
f 587/16/4 588/16/4 597/16/4
f 597/16/4 588/16/4 598/16/4
f 599/16/4 600/16/4 601/16/4
f 601/16/4 600/16/4 602/16/4
f 603/16/4 604/16/4 605/16/4
f 605/16/4 604/16/4 606/16/4
f 607/16/4 608/16/4 609/16/4
f 609/16/4 608/16/4 610/16/4
f 611/1/4 612/1/4 613/1/4
f 613/1/4 612/1/4 614/1/4
f 613/2/4 614/2/4 615/2/4
f 615/2/4 614/2/4 616/2/4
f 615/3/4 616/3/4 617/3/4
f 617/3/4 616/3/4 618/3/4
f 617/4/4 618/4/4 619/4/4
f 619/4/4 618/4/4 620/4/4
f 619/5/4 620/5/4 621/5/4
f 621/5/4 620/5/4 622/5/4
f 621/6/4 622/6/4 623/6/4
f 623/6/4 622/6/4 624/6/4
f 623/7/4 624/7/4 625/7/4
f 623/7/4 625/7/4 627/7/4
f 625/8/4 626/8/4 627/8/4
f 627/8/4 626/8/4 628/8/4
f 623/7/4 627/7/4 629/7/4
f 629/7/4 627/7/4 630/7/4
f 631/9/4 632/9/4 637/9/4
f 632/10/4 633/10/4 638/10/4
f 637/9/4 632/9/4 638/9/4
f 633/11/4 634/11/4 639/11/4
f 638/10/4 633/10/4 639/10/4
f 639/11/4 634/11/4 640/11/4
f 634/10/4 635/10/4 641/10/4
f 640/11/4 634/11/4 641/11/4
f 635/9/4 636/9/4 642/9/4
f 641/10/4 635/10/4 642/10/4
f 642/9/4 636/9/4 643/9/4
f 637/12/4 638/12/4 644/12/4
f 638/12/4 639/12/4 644/12/4
f 639/13/4 640/13/4 645/13/4
f 644/12/4 639/12/4 645/12/4
f 637/12/4 644/12/4 646/12/4
f 645/13/4 640/13/4 647/13/4
f 637/12/4 646/12/4 648/12/4
f 646/12/4 647/12/4 648/12/4
f 648/12/4 647/12/4 649/12/4
f 649/12/4 647/12/4 650/12/4
f 647/13/4 640/13/4 651/13/4
f 650/12/4 647/12/4 651/12/4
f 640/14/4 641/14/4 652/14/4
f 642/15/4 643/15/4 652/15/4
f 641/15/4 642/15/4 652/15/4
f 652/15/4 643/15/4 653/15/4
f 653/15/4 643/15/4 654/15/4
f 652/14/4 653/14/4 654/14/4
f 654/15/4 643/15/4 655/15/4
f 651/13/4 640/13/4 656/13/4
f 640/14/4 652/14/4 657/14/4
f 656/13/4 640/13/4 657/13/4
f 652/14/4 654/14/4 657/14/4
f 654/14/4 655/14/4 657/14/4
f 657/14/4 655/14/4 658/14/4
f 658/14/4 655/14/4 659/14/4
f 657/13/4 658/13/4 660/13/4
f 660/13/4 658/13/4 661/13/4
f 662/13/4 663/13/4 664/13/4
f 664/13/4 663/13/4 665/13/4
f 665/14/4 666/14/4 668/14/4
f 664/14/4 665/14/4 668/14/4
f 666/15/4 667/15/4 669/15/4
f 668/14/4 666/14/4 669/14/4
f 664/14/4 668/14/4 670/14/4
f 669/15/4 667/15/4 671/15/4
f 664/14/4 670/14/4 672/14/4
f 670/14/4 671/14/4 672/14/4
f 662/13/4 664/13/4 672/13/4
f 671/15/4 667/15/4 673/15/4
f 672/14/4 671/14/4 673/14/4
f 662/13/4 672/13/4 674/13/4
f 672/12/4 673/12/4 674/12/4
f 673/15/4 667/15/4 675/15/4
f 674/12/4 673/12/4 675/12/4
f 662/13/4 674/13/4 676/13/4
f 674/14/4 675/14/4 676/14/4
f 675/15/4 667/15/4 677/15/4
f 676/14/4 675/14/4 677/14/4
f 662/13/4 676/13/4 678/13/4
f 676/12/4 677/12/4 678/12/4
f 677/15/4 667/15/4 679/15/4
f 678/12/4 677/12/4 679/12/4
f 662/13/4 678/13/4 680/13/4
f 678/14/4 679/14/4 680/14/4
f 679/15/4 667/15/4 681/15/4
f 680/14/4 679/14/4 681/14/4
f 662/13/4 680/13/4 682/13/4
f 680/12/4 681/12/4 682/12/4
f 681/15/4 667/15/4 683/15/4
f 682/12/4 681/12/4 683/12/4
f 662/13/4 682/13/4 684/13/4
f 682/14/4 683/14/4 684/14/4
f 683/15/4 667/15/4 685/15/4
f 684/14/4 683/14/4 685/14/4
f 662/13/4 684/13/4 686/13/4
f 684/12/4 685/12/4 686/12/4
f 685/15/4 667/15/4 687/15/4
f 686/12/4 685/12/4 687/12/4
f 686/14/4 687/14/4 688/14/4
f 687/15/4 667/15/4 689/15/4
f 688/14/4 687/14/4 689/14/4
f 662/13/4 686/13/4 690/13/4
f 686/14/4 688/14/4 691/14/4
f 690/13/4 686/13/4 691/13/4
f 691/14/4 688/14/4 692/14/4
f 689/15/4 667/15/4 693/15/4
f 691/14/4 692/14/4 694/14/4
f 692/14/4 693/14/4 694/14/4
f 693/15/4 667/15/4 695/15/4
f 694/14/4 693/14/4 695/14/4
f 695/15/4 667/15/4 696/15/4
f 697/14/4 698/14/4 700/14/4
f 698/15/4 699/15/4 701/15/4
f 700/14/4 698/14/4 701/14/4
f 700/13/4 701/13/4 702/13/4
f 701/15/4 699/15/4 703/15/4
f 702/13/4 701/13/4 703/13/4
f 702/14/4 703/14/4 704/14/4
f 703/15/4 699/15/4 705/15/4
f 704/14/4 703/14/4 705/14/4
f 704/13/4 705/13/4 706/13/4
f 705/15/4 699/15/4 707/15/4
f 706/13/4 705/13/4 707/13/4
f 706/14/4 707/14/4 708/14/4
f 707/15/4 699/15/4 709/15/4
f 708/14/4 707/14/4 709/14/4
f 708/13/4 709/13/4 710/13/4
f 709/15/4 699/15/4 711/15/4
f 710/13/4 709/13/4 711/13/4
f 710/14/4 711/14/4 712/14/4
f 711/15/4 699/15/4 713/15/4
f 712/14/4 711/14/4 713/14/4
f 712/13/4 713/13/4 714/13/4
f 713/15/4 699/15/4 715/15/4
f 714/13/4 713/13/4 715/13/4
f 714/14/4 715/14/4 716/14/4
f 715/15/4 699/15/4 717/15/4
f 716/14/4 715/14/4 717/14/4
f 716/13/4 717/13/4 718/13/4
f 717/15/4 699/15/4 719/15/4
f 718/13/4 717/13/4 719/13/4
f 718/14/4 719/14/4 720/14/4
f 719/15/4 699/15/4 721/15/4
f 720/14/4 719/14/4 721/14/4
f 720/13/4 721/13/4 722/13/4
f 721/15/4 699/15/4 723/15/4
f 722/13/4 721/13/4 723/13/4
f 722/14/4 723/14/4 724/14/4
f 723/15/4 699/15/4 725/15/4
f 724/14/4 723/14/4 725/14/4
f 724/13/4 725/13/4 726/13/4
f 725/15/4 699/15/4 727/15/4
f 726/13/4 725/13/4 727/13/4
f 726/14/4 727/14/4 728/14/4
f 727/15/4 699/15/4 729/15/4
f 728/14/4 727/14/4 729/14/4
f 729/15/4 699/15/4 730/15/4
f 735/13/5 732/13/5 731/13/5
f 736/12/5 733/12/5 732/12/5
f 736/13/5 732/13/5 735/13/5
f 737/13/5 734/13/5 733/13/5
f 737/12/5 733/12/5 736/12/5
f 738/13/5 734/13/5 737/13/5
f 745/13/5 740/13/5 739/13/5
f 746/13/5 740/13/5 745/13/5
f 747/3/5 742/3/5 741/3/5
f 748/5/5 743/5/5 742/5/5
f 748/3/5 742/3/5 747/3/5
f 749/3/5 744/3/5 743/3/5
f 749/5/5 743/5/5 748/5/5
f 750/3/5 744/3/5 749/3/5
f 754/9/5 752/9/5 751/9/5
f 754/12/5 753/12/5 752/12/5
f 755/12/5 753/12/5 754/12/5
f 764/9/5 754/9/5 751/9/5
f 764/1/5 755/1/5 754/1/5
f 765/1/5 755/1/5 764/1/5
f 766/3/5 757/3/5 756/3/5
f 767/3/5 757/3/5 766/3/5
f 768/3/5 759/3/5 758/3/5
f 769/3/5 759/3/5 768/3/5
f 770/3/5 761/3/5 760/3/5
f 771/2/5 762/2/5 761/2/5
f 771/3/5 761/3/5 770/3/5
f 772/1/5 763/1/5 762/1/5
f 772/2/5 762/2/5 771/2/5
f 773/1/5 763/1/5 772/1/5
f 774/9/5 764/9/5 751/9/5
f 775/12/5 765/12/5 764/12/5
f 775/9/5 764/9/5 774/9/5
f 776/12/5 765/12/5 775/12/5
f 779/12/5 778/12/5 777/12/5
f 780/12/5 778/12/5 779/12/5
f 787/1/5 780/1/5 779/1/5
f 788/1/5 780/1/5 787/1/5
f 789/5/5 782/5/5 781/5/5
f 790/5/5 782/5/5 789/5/5
f 791/3/5 784/3/5 783/3/5
f 792/3/5 784/3/5 791/3/5
f 793/1/5 786/1/5 785/1/5
f 794/1/5 786/1/5 793/1/5
f 795/12/5 788/12/5 787/12/5
f 796/12/5 788/12/5 795/12/5
f 803/13/5 798/13/5 797/13/5
f 804/13/5 798/13/5 803/13/5
f 805/13/5 800/13/5 799/13/5
f 806/13/5 800/13/5 805/13/5
f 808/13/5 802/13/5 801/13/5
f 809/13/5 802/13/5 808/13/5
f 810/13/5 802/13/5 809/13/5
f 811/13/5 802/13/5 810/13/5
f 812/13/5 802/13/5 811/13/5
f 813/13/5 802/13/5 812/13/5
f 814/13/5 802/13/5 813/13/5
f 815/13/5 802/13/5 814/13/5
f 816/13/5 802/13/5 815/13/5
f 817/13/5 802/13/5 816/13/5
f 822/1/5 807/1/5 806/1/5
f 822/1/5 806/1/5 805/1/5
f 823/1/5 807/1/5 822/1/5
f 824/1/5 807/1/5 823/1/5
f 828/2/5 812/2/5 811/2/5
f 829/2/5 812/2/5 828/2/5
f 833/1/5 817/1/5 816/1/5
f 834/1/5 817/1/5 833/1/5
f 835/12/5 819/12/5 818/12/5
f 836/12/5 819/12/5 835/12/5
f 837/13/5 821/13/5 820/13/5
f 838/13/5 821/13/5 837/13/5
f 839/13/5 823/13/5 822/13/5
f 840/13/5 823/13/5 839/13/5
f 841/13/5 834/13/5 833/13/5
f 841/13/5 827/13/5 826/13/5
f 841/13/5 832/13/5 831/13/5
f 841/13/5 826/13/5 825/13/5
f 841/13/5 833/13/5 832/13/5
f 841/13/5 828/13/5 827/13/5
f 841/13/5 831/13/5 830/13/5
f 841/13/5 830/13/5 829/13/5
f 841/13/5 829/13/5 828/13/5
f 842/13/5 834/13/5 841/13/5
f 863/13/5 844/13/5 843/13/5
f 864/13/5 844/13/5 863/13/5
f 865/14/5 846/14/5 845/14/5
f 866/14/5 846/14/5 865/14/5
f 867/14/5 848/14/5 847/14/5
f 868/13/5 849/13/5 848/13/5
f 868/14/5 848/14/5 867/14/5
f 869/14/5 850/14/5 849/14/5
f 869/13/5 849/13/5 868/13/5
f 870/13/5 851/13/5 850/13/5
f 870/14/5 850/14/5 869/14/5
f 871/14/5 852/14/5 851/14/5
f 871/13/5 851/13/5 870/13/5
f 872/13/5 853/13/5 852/13/5
f 872/14/5 852/14/5 871/14/5
f 873/14/5 854/14/5 853/14/5
f 873/13/5 853/13/5 872/13/5
f 874/13/5 855/13/5 854/13/5
f 874/14/5 854/14/5 873/14/5
f 875/14/5 856/14/5 855/14/5
f 875/13/5 855/13/5 874/13/5
f 878/1/5 866/1/5 865/1/5
f 878/1/5 867/1/5 866/1/5
f 879/1/5 867/1/5 878/1/5
f 880/1/5 867/1/5 879/1/5
f 888/14/5 856/14/5 875/14/5
f 889/13/5 877/13/5 876/13/5
f 890/13/5 877/13/5 889/13/5
f 891/14/5 879/14/5 878/14/5
f 892/14/5 879/14/5 891/14/5
f 893/14/5 881/14/5 880/14/5
f 894/13/5 882/13/5 881/13/5
f 894/14/5 881/14/5 893/14/5
f 895/14/5 883/14/5 882/14/5
f 895/13/5 882/13/5 894/13/5
f 896/13/5 884/13/5 883/13/5
f 896/14/5 883/14/5 895/14/5
f 897/14/5 885/14/5 884/14/5
f 897/13/5 884/13/5 896/13/5
f 898/13/5 886/13/5 885/13/5
f 898/14/5 885/14/5 897/14/5
f 899/14/5 887/14/5 886/14/5
f 899/13/5 886/13/5 898/13/5
f 900/13/5 888/13/5 887/13/5
f 900/14/5 887/14/5 899/14/5
f 901/14/5 856/14/5 888/14/5
f 901/13/5 888/13/5 900/13/5
f 902/13/5 857/13/5 856/13/5
f 902/14/5 856/14/5 901/14/5
f 903/14/5 858/14/5 857/14/5
f 903/13/5 857/13/5 902/13/5
f 904/13/5 859/13/5 858/13/5
f 904/14/5 858/14/5 903/14/5
f 905/14/5 860/14/5 859/14/5
f 905/13/5 859/13/5 904/13/5
f 906/13/5 861/13/5 860/13/5
f 906/14/5 860/14/5 905/14/5
f 907/14/5 862/14/5 861/14/5
f 907/13/5 861/13/5 906/13/5
f 908/14/5 862/14/5 907/14/5
f 917/1/5 910/1/5 909/1/5
f 918/2/5 911/2/5 910/2/5
f 918/1/5 910/1/5 917/1/5
f 919/3/5 912/3/5 911/3/5
f 919/2/5 911/2/5 918/2/5
f 920/4/5 913/4/5 912/4/5
f 920/3/5 912/3/5 919/3/5
f 921/5/5 914/5/5 913/5/5
f 921/4/5 913/4/5 920/4/5
f 922/6/5 915/6/5 914/6/5
f 922/5/5 914/5/5 921/5/5
f 923/7/5 916/7/5 915/7/5
f 923/6/5 915/6/5 922/6/5
f 924/7/5 916/7/5 923/7/5
f 929/15/5 926/15/5 925/15/5
f 930/15/5 926/15/5 929/15/5
f 931/15/5 928/15/5 927/15/5
f 932/15/5 928/15/5 931/15/5
f 937/15/5 934/15/5 933/15/5
f 938/15/5 934/15/5 937/15/5
f 939/15/5 936/15/5 935/15/5
f 940/15/5 936/15/5 939/15/5
f 941/13/6 942/13/6 943/13/6
f 943/13/6 942/13/6 944/13/6
f 945/13/6 946/13/6 949/13/6
f 949/13/6 946/13/6 950/13/6
f 947/5/6 948/5/6 951/5/6
f 951/5/6 948/5/6 952/5/6
f 953/12/6 954/12/6 955/12/6
f 955/12/6 954/12/6 956/12/6
f 957/13/6 958/13/6 963/13/6
f 963/13/6 958/13/6 964/13/6
f 959/5/6 960/5/6 965/5/6
f 965/5/6 960/5/6 966/5/6
f 961/12/6 962/12/6 967/12/6
f 967/12/6 962/12/6 968/12/6
f 969/13/6 970/13/6 975/13/6
f 975/13/6 970/13/6 976/13/6
f 971/14/6 972/14/6 977/14/6
f 977/14/6 972/14/6 978/14/6
f 973/14/6 974/14/6 979/14/6
f 979/14/6 974/14/6 980/14/6
f 981/13/6 982/13/6 987/13/6
f 987/13/6 982/13/6 988/13/6
f 983/14/6 984/14/6 989/14/6
f 989/14/6 984/14/6 990/14/6
f 985/14/6 986/14/6 991/14/6
f 991/14/6 986/14/6 992/14/6
f 993/13/6 994/13/6 997/13/6
f 995/15/6 996/15/6 1003/15/6
f 1003/15/6 996/15/6 1004/15/6
f 1004/15/6 996/15/6 1005/15/6
f 1005/15/6 996/15/6 1006/15/6
f 1006/15/6 996/15/6 1007/15/6
f 1007/15/6 996/15/6 1008/15/6
f 1008/15/6 996/15/6 1009/15/6
f 1009/15/6 996/15/6 1010/15/6
f 1010/15/6 996/15/6 1011/15/6
f 1011/15/6 996/15/6 1012/15/6
f 993/13/6 997/13/6 1022/13/6
f 997/1/6 998/1/6 1022/1/6
f 998/3/6 999/3/6 1023/3/6
f 1022/1/6 998/1/6 1023/1/6
f 999/2/6 1000/2/6 1024/2/6
f 1023/3/6 999/3/6 1024/3/6
f 1000/1/6 1001/1/6 1025/1/6
f 1024/2/6 1000/2/6 1025/2/6
f 1025/1/6 1001/1/6 1026/1/6
f 1002/3/6 1003/3/6 1027/3/6
f 1003/4/6 1004/4/6 1028/4/6
f 1027/3/6 1003/3/6 1028/3/6
f 1028/4/6 1004/4/6 1029/4/6
f 1005/1/6 1006/1/6 1030/1/6
f 1030/1/6 1006/1/6 1031/1/6
f 1007/1/6 1008/1/6 1032/1/6
f 1032/1/6 1008/1/6 1033/1/6
f 1009/1/6 1010/1/6 1034/1/6
f 1034/1/6 1010/1/6 1035/1/6
f 1011/1/6 1012/1/6 1036/1/6
f 1012/1/6 1013/1/6 1036/1/6
f 1036/1/6 1013/1/6 1037/1/6
f 1013/2/6 1014/2/6 1038/2/6
f 1037/1/6 1013/1/6 1038/1/6
f 1014/3/6 1015/3/6 1039/3/6
f 1038/2/6 1014/2/6 1039/2/6
f 1015/4/6 1016/4/6 1040/4/6
f 1039/3/6 1015/3/6 1040/3/6
f 1016/5/6 1017/5/6 1041/5/6
f 1040/4/6 1016/4/6 1041/4/6
f 1017/6/6 1018/6/6 1042/6/6
f 1041/5/6 1017/5/6 1042/5/6
f 1018/7/6 1019/7/6 1043/7/6
f 1042/6/6 1018/6/6 1043/6/6
f 1043/7/6 1019/7/6 1044/7/6
f 1020/7/6 1021/7/6 1045/7/6
f 1045/7/6 1021/7/6 1046/7/6
f 993/13/6 1022/13/6 1047/13/6
f 1047/13/6 1022/13/6 1048/13/6
f 1035/15/6 1036/15/6 1049/15/6
f 1031/15/6 1032/15/6 1049/15/6
f 1028/15/6 1029/15/6 1049/15/6
f 1033/15/6 1034/15/6 1049/15/6
f 1034/15/6 1035/15/6 1049/15/6
f 1036/15/6 1037/15/6 1049/15/6
f 1032/15/6 1033/15/6 1049/15/6
f 1029/15/6 1030/15/6 1049/15/6
f 1030/15/6 1031/15/6 1049/15/6
f 1049/15/6 1037/15/6 1050/15/6
f 1055/15/6 1056/15/6 1057/15/6
f 1057/15/6 1056/15/6 1058/15/6
f 1058/15/6 1056/15/6 1059/15/6
f 1059/15/6 1056/15/6 1060/15/6
f 1060/15/6 1056/15/6 1061/15/6
f 1055/15/6 1057/15/6 1072/15/6
f 1057/14/6 1058/14/6 1072/14/6
f 1058/15/6 1059/15/6 1073/15/6
f 1072/14/6 1058/14/6 1073/14/6
f 1059/14/6 1060/14/6 1074/14/6
f 1073/15/6 1059/15/6 1074/15/6
f 1060/9/6 1061/9/6 1075/9/6
f 1074/14/6 1060/14/6 1075/14/6
f 1061/15/6 1056/15/6 1076/15/6
f 1075/9/6 1061/9/6 1076/9/6
f 1062/16/6 1063/16/6 1077/16/6
f 1077/16/6 1063/16/6 1078/16/6
f 1064/16/6 1065/16/6 1079/16/6
f 1079/16/6 1065/16/6 1080/16/6
f 1066/16/6 1067/16/6 1081/16/6
f 1081/16/6 1067/16/6 1082/16/6
f 1068/16/6 1069/16/6 1083/16/6
f 1083/16/6 1069/16/6 1084/16/6
f 1070/8/6 1071/8/6 1085/8/6
f 1085/8/6 1071/8/6 1086/8/6
f 1051/9/6 1052/9/6 1087/9/6
f 1052/15/6 1053/15/6 1088/15/6
f 1087/9/6 1052/9/6 1088/9/6
f 1053/14/6 1054/14/6 1089/14/6
f 1088/15/6 1053/15/6 1089/15/6
f 1089/14/6 1054/14/6 1090/14/6
f 1055/15/6 1072/15/6 1091/15/6
f 1072/15/6 1073/15/6 1091/15/6
f 1073/15/6 1074/15/6 1091/15/6
f 1074/15/6 1075/15/6 1091/15/6
f 1075/15/6 1076/15/6 1091/15/6
f 1076/15/6 1056/15/6 1092/15/6
f 1091/15/6 1076/15/6 1092/15/6
