# MagicaVoxel @ Ephtracy

# group
o 

# material
mtllib Target.mtl
usemtl palette

# normals
vn -1 0 0
vn 1 0 0
vn 0 0 1
vn 0 0 -1
vn 0 -1 0
vn 0 1 0

# texcoords
vt 0.841797 0.5
vt 0.958984 0.5
vt 0.978516 0.5

# verts
v 0.1 2 0
v 0.1 2 -0.6
v 0.1 2.1 0
v 0.1 2.1 -0.6
v 0.3 2.1 -0.2
v 0.3 2.1 -0.4
v 0.3 3.5 -0.2
v 0.3 3.5 -0.4
v 0.3 4.5 -0.2
v 0.3 4.5 -0.4
v 0.3 4.6 -0.2
v 0.3 4.6 -0.4
v 0.4 4.6 -0.2
v 0.4 4.6 -0.4
v 0.4 4.7 -0.2
v 0.4 4.7 -0.4
v 0.5 5 -0.2
v 0.5 5 -0.4
v 0.5 5.6 -0.2
v 0.5 5.6 -0.4
v 0.6 4.9 -0.2
v 0.6 4.9 -0.4
v 0.6 5 -0.2
v 0.6 5 -0.4
v 0.6 5.6 -0.2
v 0.6 5.6 -0.4
v 0.6 5.7 -0.2
v 0.6 5.7 -0.4
v 0.7 4.7 -0.2
v 0.7 4.7 -0.4
v 0.7 4.9 -0.2
v 0.7 4.9 -0.4
v 1.1 2.1 -0.2
v 1.1 2.1 -0.4
v 1.1 3.3 -0.2
v 1.1 3.3 -0.4
v 0.5 2.1 -0.2
v 0.5 2.1 -0.4
v 0.5 3.3 -0.2
v 0.5 3.3 -0.4
v 0.9 4.7 -0.2
v 0.9 4.7 -0.4
v 0.9 4.9 -0.2
v 0.9 4.9 -0.4
v 1 4.9 -0.2
v 1 4.9 -0.4
v 1 5 -0.2
v 1 5 -0.4
v 1 5.6 -0.2
v 1 5.6 -0.4
v 1 5.7 -0.2
v 1 5.7 -0.4
v 1.1 5 -0.2
v 1.1 5 -0.4
v 1.1 5.6 -0.2
v 1.1 5.6 -0.4
v 1.2 4.6 -0.2
v 1.2 4.6 -0.4
v 1.2 4.7 -0.2
v 1.2 4.7 -0.4
v 1.3 2.1 -0.2
v 1.3 2.1 -0.4
v 1.3 3.5 -0.2
v 1.3 3.5 -0.4
v 1.3 4.5 -0.2
v 1.3 4.5 -0.4
v 1.3 4.6 -0.2
v 1.3 4.6 -0.4
v 1.5 2 0
v 1.5 2 -0.6
v 1.5 2.1 0
v 1.5 2.1 -0.6
v 0.1 2 0
v 0.1 2.1 0
v 1.5 2 0
v 1.5 2.1 0
v 0.3 2.1 -0.2
v 0.3 3.5 -0.2
v 0.3 4.5 -0.2
v 0.3 4.6 -0.2
v 0.4 3.6 -0.2
v 0.4 4.4 -0.2
v 0.4 4.6 -0.2
v 0.4 4.7 -0.2
v 0.5 2.1 -0.2
v 0.5 3.3 -0.2
v 0.5 3.7 -0.2
v 0.5 4.3 -0.2
v 0.5 5 -0.2
v 0.5 5.6 -0.2
v 0.6 3.8 -0.2
v 0.6 4.2 -0.2
v 0.6 4.9 -0.2
v 0.6 5 -0.2
v 0.6 5.1 -0.2
v 0.6 5.5 -0.2
v 0.6 5.6 -0.2
v 0.6 5.7 -0.2
v 0.7 3.9 -0.2
v 0.7 4.1 -0.2
v 0.7 4.7 -0.2
v 0.7 4.9 -0.2
v 0.7 5.2 -0.2
v 0.7 5.4 -0.2
v 0.9 3.9 -0.2
v 0.9 4.1 -0.2
v 0.9 4.7 -0.2
v 0.9 4.9 -0.2
v 0.9 5.2 -0.2
v 0.9 5.4 -0.2
v 1 3.8 -0.2
v 1 4.2 -0.2
v 1 4.9 -0.2
v 1 5 -0.2
v 1 5.1 -0.2
v 1 5.5 -0.2
v 1 5.6 -0.2
v 1 5.7 -0.2
v 1.1 2.1 -0.2
v 1.1 3.3 -0.2
v 1.1 3.7 -0.2
v 1.1 4.3 -0.2
v 1.1 5 -0.2
v 1.1 5.6 -0.2
v 1.2 3.6 -0.2
v 1.2 4.4 -0.2
v 1.2 4.6 -0.2
v 1.2 4.7 -0.2
v 1.3 2.1 -0.2
v 1.3 3.5 -0.2
v 1.3 4.5 -0.2
v 1.3 4.6 -0.2
v 0.3 2.1 -0.4
v 0.3 3.5 -0.4
v 0.3 4.5 -0.4
v 0.3 4.6 -0.4
v 0.4 3.6 -0.4
v 0.4 4.4 -0.4
v 0.4 4.6 -0.4
v 0.4 4.7 -0.4
v 0.5 2.1 -0.4
v 0.5 3.3 -0.4
v 0.5 3.7 -0.4
v 0.5 4.3 -0.4
v 0.5 5 -0.4
v 0.5 5.6 -0.4
v 0.6 3.8 -0.4
v 0.6 4.2 -0.4
v 0.6 4.9 -0.4
v 0.6 5 -0.4
v 0.6 5.1 -0.4
v 0.6 5.5 -0.4
v 0.6 5.6 -0.4
v 0.6 5.7 -0.4
v 0.7 3.9 -0.4
v 0.7 4.1 -0.4
v 0.7 4.7 -0.4
v 0.7 4.9 -0.4
v 0.7 5.2 -0.4
v 0.7 5.4 -0.4
v 0.9 3.9 -0.4
v 0.9 4.1 -0.4
v 0.9 4.7 -0.4
v 0.9 4.9 -0.4
v 0.9 5.2 -0.4
v 0.9 5.4 -0.4
v 1 3.8 -0.4
v 1 4.2 -0.4
v 1 4.9 -0.4
v 1 5 -0.4
v 1 5.1 -0.4
v 1 5.5 -0.4
v 1 5.6 -0.4
v 1 5.7 -0.4
v 1.1 2.1 -0.4
v 1.1 3.3 -0.4
v 1.1 3.7 -0.4
v 1.1 4.3 -0.4
v 1.1 5 -0.4
v 1.1 5.6 -0.4
v 1.2 3.6 -0.4
v 1.2 4.4 -0.4
v 1.2 4.6 -0.4
v 1.2 4.7 -0.4
v 1.3 2.1 -0.4
v 1.3 3.5 -0.4
v 1.3 4.5 -0.4
v 1.3 4.6 -0.4
v 0.1 2 -0.6
v 0.1 2.1 -0.6
v 1.5 2 -0.6
v 1.5 2.1 -0.6
v 0.1 2 0
v 1.5 2 0
v 0.1 2 -0.6
v 1.5 2 -0.6
v 0.5 3.3 -0.2
v 1.1 3.3 -0.2
v 0.5 3.3 -0.4
v 1.1 3.3 -0.4
v 0.6 4.9 -0.2
v 0.7 4.9 -0.2
v 0.9 4.9 -0.2
v 1 4.9 -0.2
v 0.6 4.9 -0.4
v 0.7 4.9 -0.4
v 0.9 4.9 -0.4
v 1 4.9 -0.4
v 0.5 5 -0.2
v 0.6 5 -0.2
v 1 5 -0.2
v 1.1 5 -0.2
v 0.5 5 -0.4
v 0.6 5 -0.4
v 1 5 -0.4
v 1.1 5 -0.4
v 0.1 2.1 0
v 1.5 2.1 0
v 0.3 2.1 -0.2
v 0.5 2.1 -0.2
v 1.1 2.1 -0.2
v 1.3 2.1 -0.2
v 0.3 2.1 -0.4
v 0.5 2.1 -0.4
v 1.1 2.1 -0.4
v 1.3 2.1 -0.4
v 0.1 2.1 -0.6
v 1.5 2.1 -0.6
v 0.3 4.6 -0.2
v 0.4 4.6 -0.2
v 1.2 4.6 -0.2
v 1.3 4.6 -0.2
v 0.3 4.6 -0.4
v 0.4 4.6 -0.4
v 1.2 4.6 -0.4
v 1.3 4.6 -0.4
v 0.4 4.7 -0.2
v 0.7 4.7 -0.2
v 0.9 4.7 -0.2
v 1.2 4.7 -0.2
v 0.4 4.7 -0.4
v 0.7 4.7 -0.4
v 0.9 4.7 -0.4
v 1.2 4.7 -0.4
v 0.5 5.6 -0.2
v 0.6 5.6 -0.2
v 1 5.6 -0.2
v 1.1 5.6 -0.2
v 0.5 5.6 -0.4
v 0.6 5.6 -0.4
v 1 5.6 -0.4
v 1.1 5.6 -0.4
v 0.6 5.7 -0.2
v 1 5.7 -0.2
v 0.6 5.7 -0.4
v 1 5.7 -0.4

# faces
f 3/3/1 2/3/1 1/3/1
f 4/3/1 2/3/1 3/3/1
f 7/3/1 6/3/1 5/3/1
f 8/3/1 6/3/1 7/3/1
f 9/1/1 8/1/1 7/1/1
f 10/1/1 8/1/1 9/1/1
f 11/3/1 10/3/1 9/3/1
f 12/3/1 10/3/1 11/3/1
f 15/3/1 14/3/1 13/3/1
f 16/3/1 14/3/1 15/3/1
f 19/1/1 18/1/1 17/1/1
f 20/1/1 18/1/1 19/1/1
f 23/3/1 22/3/1 21/3/1
f 24/3/1 22/3/1 23/3/1
f 27/3/1 26/3/1 25/3/1
f 28/3/1 26/3/1 27/3/1
f 31/3/1 30/3/1 29/3/1
f 32/3/1 30/3/1 31/3/1
f 35/3/1 34/3/1 33/3/1
f 36/3/1 34/3/1 35/3/1
f 37/3/2 38/3/2 39/3/2
f 39/3/2 38/3/2 40/3/2
f 41/3/2 42/3/2 43/3/2
f 43/3/2 42/3/2 44/3/2
f 45/3/2 46/3/2 47/3/2
f 47/3/2 46/3/2 48/3/2
f 49/3/2 50/3/2 51/3/2
f 51/3/2 50/3/2 52/3/2
f 53/1/2 54/1/2 55/1/2
f 55/1/2 54/1/2 56/1/2
f 57/3/2 58/3/2 59/3/2
f 59/3/2 58/3/2 60/3/2
f 61/3/2 62/3/2 63/3/2
f 63/3/2 62/3/2 64/3/2
f 63/1/2 64/1/2 65/1/2
f 65/1/2 64/1/2 66/1/2
f 65/3/2 66/3/2 67/3/2
f 67/3/2 66/3/2 68/3/2
f 69/3/2 70/3/2 71/3/2
f 71/3/2 70/3/2 72/3/2
f 75/3/3 74/3/3 73/3/3
f 76/3/3 74/3/3 75/3/3
f 81/1/3 79/1/3 78/1/3
f 82/1/3 79/1/3 81/1/3
f 83/3/3 80/3/3 79/3/3
f 85/3/3 78/3/3 77/3/3
f 86/3/3 78/3/3 85/3/3
f 87/2/3 82/2/3 81/2/3
f 88/2/3 82/2/3 87/2/3
f 91/1/3 88/1/3 87/1/3
f 92/1/3 88/1/3 91/1/3
f 94/1/3 90/1/3 89/1/3
f 95/1/3 90/1/3 94/1/3
f 96/1/3 90/1/3 95/1/3
f 97/1/3 90/1/3 96/1/3
f 99/2/3 92/2/3 91/2/3
f 100/2/3 92/2/3 99/2/3
f 101/3/3 84/3/3 83/3/3
f 102/3/3 94/3/3 93/3/3
f 103/2/3 96/2/3 95/2/3
f 104/2/3 96/2/3 103/2/3
f 105/2/3 99/2/3 91/2/3
f 105/1/3 100/1/3 99/1/3
f 106/2/3 92/2/3 100/2/3
f 106/1/3 100/1/3 105/1/3
f 107/3/3 101/3/3 83/3/3
f 107/3/3 102/3/3 101/3/3
f 108/3/3 94/3/3 102/3/3
f 108/3/3 102/3/3 107/3/3
f 109/1/3 104/1/3 103/1/3
f 109/2/3 103/2/3 95/2/3
f 110/2/3 96/2/3 104/2/3
f 110/1/3 104/1/3 109/1/3
f 111/2/3 105/2/3 91/2/3
f 111/1/3 91/1/3 87/1/3
f 111/2/3 106/2/3 105/2/3
f 112/1/3 88/1/3 92/1/3
f 112/2/3 106/2/3 111/2/3
f 112/2/3 92/2/3 106/2/3
f 113/3/3 94/3/3 108/3/3
f 114/1/3 95/1/3 94/1/3
f 114/3/3 94/3/3 113/3/3
f 115/2/3 110/2/3 109/2/3
f 115/1/3 95/1/3 114/1/3
f 115/2/3 109/2/3 95/2/3
f 116/2/3 96/2/3 110/2/3
f 116/2/3 110/2/3 115/2/3
f 116/1/3 97/1/3 96/1/3
f 117/3/3 98/3/3 97/3/3
f 117/1/3 97/1/3 116/1/3
f 118/3/3 98/3/3 117/3/3
f 120/3/3 78/3/3 86/3/3
f 121/1/3 111/1/3 87/1/3
f 121/2/3 87/2/3 81/2/3
f 121/1/3 112/1/3 111/1/3
f 122/2/3 82/2/3 88/2/3
f 122/1/3 112/1/3 121/1/3
f 122/1/3 88/1/3 112/1/3
f 123/1/3 115/1/3 114/1/3
f 123/1/3 117/1/3 116/1/3
f 123/1/3 116/1/3 115/1/3
f 124/1/3 117/1/3 123/1/3
f 125/1/3 81/1/3 78/1/3
f 125/2/3 122/2/3 121/2/3
f 125/2/3 121/2/3 81/2/3
f 126/2/3 82/2/3 122/2/3
f 126/2/3 122/2/3 125/2/3
f 126/1/3 79/1/3 82/1/3
f 127/3/3 83/3/3 79/3/3
f 127/3/3 107/3/3 83/3/3
f 128/3/3 107/3/3 127/3/3
f 129/3/3 120/3/3 119/3/3
f 130/1/3 125/1/3 78/1/3
f 130/3/3 120/3/3 129/3/3
f 130/3/3 78/3/3 120/3/3
f 130/1/3 126/1/3 125/1/3
f 131/1/3 79/1/3 126/1/3
f 131/1/3 126/1/3 130/1/3
f 131/3/3 127/3/3 79/3/3
f 132/3/3 127/3/3 131/3/3
f 134/1/4 135/1/4 137/1/4
f 137/1/4 135/1/4 138/1/4
f 135/3/4 136/3/4 139/3/4
f 133/3/4 134/3/4 141/3/4
f 141/3/4 134/3/4 142/3/4
f 137/2/4 138/2/4 143/2/4
f 143/2/4 138/2/4 144/2/4
f 143/1/4 144/1/4 147/1/4
f 147/1/4 144/1/4 148/1/4
f 145/1/4 146/1/4 150/1/4
f 150/1/4 146/1/4 151/1/4
f 151/1/4 146/1/4 152/1/4
f 152/1/4 146/1/4 153/1/4
f 147/2/4 148/2/4 155/2/4
f 155/2/4 148/2/4 156/2/4
f 139/3/4 140/3/4 157/3/4
f 149/3/4 150/3/4 158/3/4
f 151/2/4 152/2/4 159/2/4
f 159/2/4 152/2/4 160/2/4
f 147/2/4 155/2/4 161/2/4
f 155/1/4 156/1/4 161/1/4
f 156/2/4 148/2/4 162/2/4
f 161/1/4 156/1/4 162/1/4
f 139/3/4 157/3/4 163/3/4
f 157/3/4 158/3/4 163/3/4
f 158/3/4 150/3/4 164/3/4
f 163/3/4 158/3/4 164/3/4
f 159/1/4 160/1/4 165/1/4
f 151/2/4 159/2/4 165/2/4
f 160/2/4 152/2/4 166/2/4
f 165/1/4 160/1/4 166/1/4
f 147/2/4 161/2/4 167/2/4
f 143/1/4 147/1/4 167/1/4
f 161/2/4 162/2/4 167/2/4
f 148/1/4 144/1/4 168/1/4
f 167/2/4 162/2/4 168/2/4
f 162/2/4 148/2/4 168/2/4
f 164/3/4 150/3/4 169/3/4
f 150/1/4 151/1/4 170/1/4
f 169/3/4 150/3/4 170/3/4
f 165/2/4 166/2/4 171/2/4
f 170/1/4 151/1/4 171/1/4
f 151/2/4 165/2/4 171/2/4
f 166/2/4 152/2/4 172/2/4
f 171/2/4 166/2/4 172/2/4
f 152/1/4 153/1/4 172/1/4
f 153/3/4 154/3/4 173/3/4
f 172/1/4 153/1/4 173/1/4
f 173/3/4 154/3/4 174/3/4
f 142/3/4 134/3/4 176/3/4
f 143/1/4 167/1/4 177/1/4
f 137/2/4 143/2/4 177/2/4
f 167/1/4 168/1/4 177/1/4
f 144/2/4 138/2/4 178/2/4
f 177/1/4 168/1/4 178/1/4
f 168/1/4 144/1/4 178/1/4
f 170/1/4 171/1/4 179/1/4
f 172/1/4 173/1/4 179/1/4
f 171/1/4 172/1/4 179/1/4
f 179/1/4 173/1/4 180/1/4
f 134/1/4 137/1/4 181/1/4
f 177/2/4 178/2/4 181/2/4
f 137/2/4 177/2/4 181/2/4
f 178/2/4 138/2/4 182/2/4
f 181/2/4 178/2/4 182/2/4
f 138/1/4 135/1/4 182/1/4
f 135/3/4 139/3/4 183/3/4
f 139/3/4 163/3/4 183/3/4
f 183/3/4 163/3/4 184/3/4
f 175/3/4 176/3/4 185/3/4
f 134/1/4 181/1/4 186/1/4
f 185/3/4 176/3/4 186/3/4
f 176/3/4 134/3/4 186/3/4
f 181/1/4 182/1/4 186/1/4
f 182/1/4 135/1/4 187/1/4
f 186/1/4 182/1/4 187/1/4
f 135/3/4 183/3/4 187/3/4
f 187/3/4 183/3/4 188/3/4
f 189/3/4 190/3/4 191/3/4
f 191/3/4 190/3/4 192/3/4
f 195/3/5 194/3/5 193/3/5
f 196/3/5 194/3/5 195/3/5
f 199/3/5 198/3/5 197/3/5
f 200/3/5 198/3/5 199/3/5
f 205/3/5 202/3/5 201/3/5
f 206/3/5 202/3/5 205/3/5
f 207/3/5 204/3/5 203/3/5
f 208/3/5 204/3/5 207/3/5
f 213/1/5 210/1/5 209/1/5
f 214/1/5 210/1/5 213/1/5
f 215/1/5 212/1/5 211/1/5
f 216/1/5 212/1/5 215/1/5
f 217/3/6 218/3/6 219/3/6
f 219/3/6 218/3/6 220/3/6
f 220/3/6 218/3/6 221/3/6
f 221/3/6 218/3/6 222/3/6
f 217/3/6 219/3/6 223/3/6
f 220/3/6 221/3/6 224/3/6
f 224/3/6 221/3/6 225/3/6
f 222/3/6 218/3/6 226/3/6
f 224/3/6 225/3/6 227/3/6
f 225/3/6 226/3/6 227/3/6
f 217/3/6 223/3/6 227/3/6
f 223/3/6 224/3/6 227/3/6
f 226/3/6 218/3/6 228/3/6
f 227/3/6 226/3/6 228/3/6
f 229/3/6 230/3/6 233/3/6
f 233/3/6 230/3/6 234/3/6
f 231/3/6 232/3/6 235/3/6
f 235/3/6 232/3/6 236/3/6
f 237/3/6 238/3/6 241/3/6
f 241/3/6 238/3/6 242/3/6
f 239/3/6 240/3/6 243/3/6
f 243/3/6 240/3/6 244/3/6
f 245/1/6 246/1/6 249/1/6
f 249/1/6 246/1/6 250/1/6
f 247/1/6 248/1/6 251/1/6
f 251/1/6 248/1/6 252/1/6
f 253/3/6 254/3/6 255/3/6
f 255/3/6 254/3/6 256/3/6
