# MagicaVoxel @ Ephtracy

# group
o 

# material
mtllib Barrel_2.mtl
usemtl palette

# normals
vn -1 0 0
vn 1 0 0
vn 0 0 1
vn 0 0 -1
vn 0 -1 0
vn 0 1 0

# texcoords
vt 0.740234 0.5
vt 0.751953 0.5
vt 0.755859 0.5
vt 0.771484 0.5

# verts
v 0 0.6 -0.3
v 0 0.6 -0.8
v 0 0.7 -0.3
v 0 0.7 -0.8
v 0 1.8 -0.3
v 0 1.8 -0.8
v 0 1.9 -0.3
v 0 1.9 -0.8
v 0.1 0.6 -0.2
v 0.1 0.6 -0.3
v 0.1 0.6 -0.8
v 0.1 0.6 -0.9
v 0.1 0.7 -0.2
v 0.1 0.7 -0.3
v 0.1 0.7 -0.8
v 0.1 0.7 -0.9
v 0.1 1 -0.3
v 0.1 1 -0.8
v 0.1 1.1 -0.3
v 0.1 1.1 -0.8
v 0.1 1.4 -0.3
v 0.1 1.4 -0.8
v 0.1 1.5 -0.3
v 0.1 1.5 -0.8
v 0.1 1.8 -0.2
v 0.1 1.8 -0.3
v 0.1 1.8 -0.8
v 0.1 1.8 -0.9
v 0.1 1.9 -0.2
v 0.1 1.9 -0.3
v 0.1 1.9 -0.8
v 0.1 1.9 -0.9
v 0.2 0.6 -0.1
v 0.2 0.6 -0.2
v 0.2 0.6 -0.9
v 0.2 0.6 -1
v 0.2 0.7 -0.1
v 0.2 0.7 -0.2
v 0.2 0.7 -0.3
v 0.2 0.7 -0.8
v 0.2 0.7 -0.9
v 0.2 0.7 -1
v 0.2 1 -0.2
v 0.2 1 -0.3
v 0.2 1 -0.8
v 0.2 1 -0.9
v 0.2 1.1 -0.2
v 0.2 1.1 -0.3
v 0.2 1.1 -0.8
v 0.2 1.1 -0.9
v 0.2 1.4 -0.2
v 0.2 1.4 -0.3
v 0.2 1.4 -0.8
v 0.2 1.4 -0.9
v 0.2 1.5 -0.2
v 0.2 1.5 -0.3
v 0.2 1.5 -0.8
v 0.2 1.5 -0.9
v 0.2 1.8 -0.1
v 0.2 1.8 -0.2
v 0.2 1.8 -0.3
v 0.2 1.8 -0.8
v 0.2 1.8 -0.9
v 0.2 1.8 -1
v 0.2 1.9 -0.1
v 0.2 1.9 -0.2
v 0.2 1.9 -0.9
v 0.2 1.9 -1
v 0.3 0.6 0
v 0.3 0.6 -0.1
v 0.3 0.6 -1
v 0.3 0.6 -1.1
v 0.3 0.7 0
v 0.3 0.7 -0.1
v 0.3 0.7 -0.2
v 0.3 0.7 -0.9
v 0.3 0.7 -1
v 0.3 0.7 -1.1
v 0.3 1 -0.1
v 0.3 1 -0.2
v 0.3 1 -0.9
v 0.3 1 -1
v 0.3 1.1 -0.1
v 0.3 1.1 -0.2
v 0.3 1.1 -0.9
v 0.3 1.1 -1
v 0.3 1.4 -0.1
v 0.3 1.4 -0.2
v 0.3 1.4 -0.9
v 0.3 1.4 -1
v 0.3 1.5 -0.1
v 0.3 1.5 -0.2
v 0.3 1.5 -0.9
v 0.3 1.5 -1
v 0.3 1.8 0
v 0.3 1.8 -0.1
v 0.3 1.8 -0.2
v 0.3 1.8 -0.9
v 0.3 1.8 -1
v 0.3 1.8 -1.1
v 0.3 1.9 0
v 0.3 1.9 -0.1
v 0.3 1.9 -1
v 0.3 1.9 -1.1
v 0.8 0.7 -0.2
v 0.8 0.7 -0.3
v 0.8 0.7 -0.8
v 0.8 0.7 -0.9
v 0.8 1 -0.2
v 0.8 1 -0.3
v 0.8 1 -0.8
v 0.8 1 -0.9
v 0.8 1.1 -0.2
v 0.8 1.1 -0.3
v 0.8 1.1 -0.8
v 0.8 1.1 -0.9
v 0.8 1.4 -0.2
v 0.8 1.4 -0.3
v 0.8 1.4 -0.8
v 0.8 1.4 -0.9
v 0.8 1.5 -0.2
v 0.8 1.5 -0.3
v 0.8 1.5 -0.8
v 0.8 1.5 -0.9
v 0.8 1.8 -0.2
v 0.8 1.8 -0.3
v 0.8 1.8 -0.8
v 0.8 1.8 -0.9
v 0.9 0.7 -0.3
v 0.9 0.7 -0.8
v 0.9 1 -0.3
v 0.9 1 -0.8
v 0.9 1.1 -0.3
v 0.9 1.1 -0.8
v 0.9 1.4 -0.3
v 0.9 1.4 -0.8
v 0.9 1.5 -0.3
v 0.9 1.5 -0.8
v 0.9 1.8 -0.3
v 0.9 1.8 -0.8
v 0.2 0.7 -0.3
v 0.2 0.7 -0.8
v 0.2 1 -0.3
v 0.2 1 -0.8
v 0.2 1.1 -0.3
v 0.2 1.1 -0.8
v 0.2 1.4 -0.3
v 0.2 1.4 -0.8
v 0.2 1.5 -0.3
v 0.2 1.5 -0.8
v 0.2 1.8 -0.3
v 0.2 1.8 -0.8
v 0.3 0.7 -0.2
v 0.3 0.7 -0.3
v 0.3 0.7 -0.8
v 0.3 0.7 -0.9
v 0.3 1 -0.2
v 0.3 1 -0.3
v 0.3 1 -0.8
v 0.3 1 -0.9
v 0.3 1.1 -0.2
v 0.3 1.1 -0.3
v 0.3 1.1 -0.8
v 0.3 1.1 -0.9
v 0.3 1.4 -0.2
v 0.3 1.4 -0.3
v 0.3 1.4 -0.8
v 0.3 1.4 -0.9
v 0.3 1.5 -0.2
v 0.3 1.5 -0.3
v 0.3 1.5 -0.8
v 0.3 1.5 -0.9
v 0.3 1.8 -0.2
v 0.3 1.8 -0.3
v 0.3 1.8 -0.8
v 0.3 1.8 -0.9
v 0.8 0.6 0
v 0.8 0.6 -0.1
v 0.8 0.6 -1
v 0.8 0.6 -1.1
v 0.8 0.7 0
v 0.8 0.7 -0.1
v 0.8 0.7 -0.2
v 0.8 0.7 -0.9
v 0.8 0.7 -1
v 0.8 0.7 -1.1
v 0.8 1 -0.1
v 0.8 1 -0.2
v 0.8 1 -0.9
v 0.8 1 -1
v 0.8 1.1 -0.1
v 0.8 1.1 -0.2
v 0.8 1.1 -0.9
v 0.8 1.1 -1
v 0.8 1.4 -0.1
v 0.8 1.4 -0.2
v 0.8 1.4 -0.9
v 0.8 1.4 -1
v 0.8 1.5 -0.1
v 0.8 1.5 -0.2
v 0.8 1.5 -0.9
v 0.8 1.5 -1
v 0.8 1.8 0
v 0.8 1.8 -0.1
v 0.8 1.8 -0.2
v 0.8 1.8 -0.9
v 0.8 1.8 -1
v 0.8 1.8 -1.1
v 0.8 1.9 0
v 0.8 1.9 -0.1
v 0.8 1.9 -1
v 0.8 1.9 -1.1
v 0.9 0.6 -0.1
v 0.9 0.6 -0.2
v 0.9 0.6 -0.9
v 0.9 0.6 -1
v 0.9 0.7 -0.1
v 0.9 0.7 -0.2
v 0.9 0.7 -0.3
v 0.9 0.7 -0.8
v 0.9 0.7 -0.9
v 0.9 0.7 -1
v 0.9 1 -0.2
v 0.9 1 -0.3
v 0.9 1 -0.8
v 0.9 1 -0.9
v 0.9 1.1 -0.2
v 0.9 1.1 -0.3
v 0.9 1.1 -0.8
v 0.9 1.1 -0.9
v 0.9 1.4 -0.2
v 0.9 1.4 -0.3
v 0.9 1.4 -0.8
v 0.9 1.4 -0.9
v 0.9 1.5 -0.2
v 0.9 1.5 -0.3
v 0.9 1.5 -0.8
v 0.9 1.5 -0.9
v 0.9 1.8 -0.1
v 0.9 1.8 -0.2
v 0.9 1.8 -0.3
v 0.9 1.8 -0.8
v 0.9 1.8 -0.9
v 0.9 1.8 -1
v 0.9 1.9 -0.1
v 0.9 1.9 -0.2
v 0.9 1.9 -0.9
v 0.9 1.9 -1
v 1 0.6 -0.2
v 1 0.6 -0.3
v 1 0.6 -0.8
v 1 0.6 -0.9
v 1 0.7 -0.2
v 1 0.7 -0.3
v 1 0.7 -0.8
v 1 0.7 -0.9
v 1 1 -0.3
v 1 1 -0.8
v 1 1.1 -0.3
v 1 1.1 -0.8
v 1 1.4 -0.3
v 1 1.4 -0.8
v 1 1.5 -0.3
v 1 1.5 -0.8
v 1 1.8 -0.2
v 1 1.8 -0.3
v 1 1.8 -0.8
v 1 1.8 -0.9
v 1 1.9 -0.2
v 1 1.9 -0.3
v 1 1.9 -0.8
v 1 1.9 -0.9
v 1.1 0.6 -0.3
v 1.1 0.6 -0.8
v 1.1 0.7 -0.3
v 1.1 0.7 -0.8
v 1.1 1.8 -0.3
v 1.1 1.8 -0.8
v 1.1 1.9 -0.3
v 1.1 1.9 -0.8
v 0.3 0.6 0
v 0.3 0.7 0
v 0.3 1.8 0
v 0.3 1.9 0
v 0.8 0.6 0
v 0.8 0.7 0
v 0.8 1.8 0
v 0.8 1.9 0
v 0.2 0.6 -0.1
v 0.2 0.7 -0.1
v 0.2 1.8 -0.1
v 0.2 1.9 -0.1
v 0.3 0.6 -0.1
v 0.3 0.7 -0.1
v 0.3 1 -0.1
v 0.3 1.1 -0.1
v 0.3 1.4 -0.1
v 0.3 1.5 -0.1
v 0.3 1.8 -0.1
v 0.3 1.9 -0.1
v 0.8 0.6 -0.1
v 0.8 0.7 -0.1
v 0.8 1 -0.1
v 0.8 1.1 -0.1
v 0.8 1.4 -0.1
v 0.8 1.5 -0.1
v 0.8 1.8 -0.1
v 0.8 1.9 -0.1
v 0.9 0.6 -0.1
v 0.9 0.7 -0.1
v 0.9 1.8 -0.1
v 0.9 1.9 -0.1
v 0.1 0.6 -0.2
v 0.1 0.7 -0.2
v 0.1 1.8 -0.2
v 0.1 1.9 -0.2
v 0.2 0.6 -0.2
v 0.2 0.7 -0.2
v 0.2 1 -0.2
v 0.2 1.1 -0.2
v 0.2 1.4 -0.2
v 0.2 1.5 -0.2
v 0.2 1.8 -0.2
v 0.2 1.9 -0.2
v 0.3 0.7 -0.2
v 0.3 1 -0.2
v 0.3 1.1 -0.2
v 0.3 1.4 -0.2
v 0.3 1.5 -0.2
v 0.3 1.8 -0.2
v 0.8 0.7 -0.2
v 0.8 1 -0.2
v 0.8 1.1 -0.2
v 0.8 1.4 -0.2
v 0.8 1.5 -0.2
v 0.8 1.8 -0.2
v 0.9 0.6 -0.2
v 0.9 0.7 -0.2
v 0.9 1 -0.2
v 0.9 1.1 -0.2
v 0.9 1.4 -0.2
v 0.9 1.5 -0.2
v 0.9 1.8 -0.2
v 0.9 1.9 -0.2
v 1 0.6 -0.2
v 1 0.7 -0.2
v 1 1.8 -0.2
v 1 1.9 -0.2
v 0 0.6 -0.3
v 0 0.7 -0.3
v 0 1.8 -0.3
v 0 1.9 -0.3
v 0.1 0.6 -0.3
v 0.1 0.7 -0.3
v 0.1 1 -0.3
v 0.1 1.1 -0.3
v 0.1 1.4 -0.3
v 0.1 1.5 -0.3
v 0.1 1.8 -0.3
v 0.1 1.9 -0.3
v 0.2 0.7 -0.3
v 0.2 1 -0.3
v 0.2 1.1 -0.3
v 0.2 1.4 -0.3
v 0.2 1.5 -0.3
v 0.2 1.8 -0.3
v 0.9 0.7 -0.3
v 0.9 1 -0.3
v 0.9 1.1 -0.3
v 0.9 1.4 -0.3
v 0.9 1.5 -0.3
v 0.9 1.8 -0.3
v 1 0.6 -0.3
v 1 0.7 -0.3
v 1 1 -0.3
v 1 1.1 -0.3
v 1 1.4 -0.3
v 1 1.5 -0.3
v 1 1.8 -0.3
v 1 1.9 -0.3
v 1.1 0.6 -0.3
v 1.1 0.7 -0.3
v 1.1 1.8 -0.3
v 1.1 1.9 -0.3
v 0.2 0.7 -0.8
v 0.2 1 -0.8
v 0.2 1.1 -0.8
v 0.2 1.4 -0.8
v 0.2 1.5 -0.8
v 0.2 1.8 -0.8
v 0.3 0.7 -0.8
v 0.3 1 -0.8
v 0.3 1.1 -0.8
v 0.3 1.4 -0.8
v 0.3 1.5 -0.8
v 0.3 1.8 -0.8
v 0.8 0.7 -0.8
v 0.8 1 -0.8
v 0.8 1.1 -0.8
v 0.8 1.4 -0.8
v 0.8 1.5 -0.8
v 0.8 1.8 -0.8
v 0.9 0.7 -0.8
v 0.9 1 -0.8
v 0.9 1.1 -0.8
v 0.9 1.4 -0.8
v 0.9 1.5 -0.8
v 0.9 1.8 -0.8
v 0.3 0.7 -0.9
v 0.3 1 -0.9
v 0.3 1.1 -0.9
v 0.3 1.4 -0.9
v 0.3 1.5 -0.9
v 0.3 1.8 -0.9
v 0.8 0.7 -0.9
v 0.8 1 -0.9
v 0.8 1.1 -0.9
v 0.8 1.4 -0.9
v 0.8 1.5 -0.9
v 0.8 1.8 -0.9
v 0.3 0.7 -0.2
v 0.3 1 -0.2
v 0.3 1.1 -0.2
v 0.3 1.4 -0.2
v 0.3 1.5 -0.2
v 0.3 1.8 -0.2
v 0.6 1.8 -0.2
v 0.7 1.8 -0.2
v 0.8 0.7 -0.2
v 0.8 1 -0.2
v 0.8 1.1 -0.2
v 0.8 1.4 -0.2
v 0.8 1.5 -0.2
v 0.8 1.8 -0.2
v 0.2 0.7 -0.3
v 0.2 1 -0.3
v 0.2 1.1 -0.3
v 0.2 1.4 -0.3
v 0.2 1.5 -0.3
v 0.2 1.8 -0.3
v 0.3 0.7 -0.3
v 0.3 1 -0.3
v 0.3 1.1 -0.3
v 0.3 1.4 -0.3
v 0.3 1.5 -0.3
v 0.3 1.8 -0.3
v 0.8 0.7 -0.3
v 0.8 1 -0.3
v 0.8 1.1 -0.3
v 0.8 1.4 -0.3
v 0.8 1.5 -0.3
v 0.8 1.8 -0.3
v 0.9 0.7 -0.3
v 0.9 1 -0.3
v 0.9 1.1 -0.3
v 0.9 1.4 -0.3
v 0.9 1.5 -0.3
v 0.9 1.8 -0.3
v 0 0.6 -0.8
v 0 0.7 -0.8
v 0 1.8 -0.8
v 0 1.9 -0.8
v 0.1 0.6 -0.8
v 0.1 0.7 -0.8
v 0.1 1 -0.8
v 0.1 1.1 -0.8
v 0.1 1.4 -0.8
v 0.1 1.5 -0.8
v 0.1 1.8 -0.8
v 0.1 1.9 -0.8
v 0.2 0.7 -0.8
v 0.2 1 -0.8
v 0.2 1.1 -0.8
v 0.2 1.4 -0.8
v 0.2 1.5 -0.8
v 0.2 1.8 -0.8
v 0.9 0.7 -0.8
v 0.9 1 -0.8
v 0.9 1.1 -0.8
v 0.9 1.4 -0.8
v 0.9 1.5 -0.8
v 0.9 1.8 -0.8
v 1 0.6 -0.8
v 1 0.7 -0.8
v 1 1 -0.8
v 1 1.1 -0.8
v 1 1.4 -0.8
v 1 1.5 -0.8
v 1 1.8 -0.8
v 1 1.9 -0.8
v 1.1 0.6 -0.8
v 1.1 0.7 -0.8
v 1.1 1.8 -0.8
v 1.1 1.9 -0.8
v 0.1 0.6 -0.9
v 0.1 0.7 -0.9
v 0.1 1.8 -0.9
v 0.1 1.9 -0.9
v 0.2 0.6 -0.9
v 0.2 0.7 -0.9
v 0.2 1 -0.9
v 0.2 1.1 -0.9
v 0.2 1.4 -0.9
v 0.2 1.5 -0.9
v 0.2 1.8 -0.9
v 0.2 1.9 -0.9
v 0.3 0.7 -0.9
v 0.3 1 -0.9
v 0.3 1.1 -0.9
v 0.3 1.4 -0.9
v 0.3 1.5 -0.9
v 0.3 1.8 -0.9
v 0.8 0.7 -0.9
v 0.8 1 -0.9
v 0.8 1.1 -0.9
v 0.8 1.4 -0.9
v 0.8 1.5 -0.9
v 0.8 1.8 -0.9
v 0.9 0.6 -0.9
v 0.9 0.7 -0.9
v 0.9 1 -0.9
v 0.9 1.1 -0.9
v 0.9 1.4 -0.9
v 0.9 1.5 -0.9
v 0.9 1.8 -0.9
v 0.9 1.9 -0.9
v 1 0.6 -0.9
v 1 0.7 -0.9
v 1 1.8 -0.9
v 1 1.9 -0.9
v 0.2 0.6 -1
v 0.2 0.7 -1
v 0.2 1.8 -1
v 0.2 1.9 -1
v 0.3 0.6 -1
v 0.3 0.7 -1
v 0.3 1 -1
v 0.3 1.1 -1
v 0.3 1.4 -1
v 0.3 1.5 -1
v 0.3 1.8 -1
v 0.3 1.9 -1
v 0.8 0.6 -1
v 0.8 0.7 -1
v 0.8 1 -1
v 0.8 1.1 -1
v 0.8 1.4 -1
v 0.8 1.5 -1
v 0.8 1.8 -1
v 0.8 1.9 -1
v 0.9 0.6 -1
v 0.9 0.7 -1
v 0.9 1.8 -1
v 0.9 1.9 -1
v 0.3 0.6 -1.1
v 0.3 0.7 -1.1
v 0.3 1.8 -1.1
v 0.3 1.9 -1.1
v 0.8 0.6 -1.1
v 0.8 0.7 -1.1
v 0.8 1.8 -1.1
v 0.8 1.9 -1.1
v 0.3 0.6 0
v 0.8 0.6 0
v 0.2 0.6 -0.1
v 0.3 0.6 -0.1
v 0.8 0.6 -0.1
v 0.9 0.6 -0.1
v 0.1 0.6 -0.2
v 0.2 0.6 -0.2
v 0.3 0.6 -0.2
v 0.8 0.6 -0.2
v 0.9 0.6 -0.2
v 1 0.6 -0.2
v 0 0.6 -0.3
v 0.1 0.6 -0.3
v 0.2 0.6 -0.3
v 0.9 0.6 -0.3
v 1 0.6 -0.3
v 1.1 0.6 -0.3
v 0 0.6 -0.8
v 0.1 0.6 -0.8
v 0.2 0.6 -0.8
v 0.9 0.6 -0.8
v 1 0.6 -0.8
v 1.1 0.6 -0.8
v 0.1 0.6 -0.9
v 0.2 0.6 -0.9
v 0.3 0.6 -0.9
v 0.8 0.6 -0.9
v 0.9 0.6 -0.9
v 1 0.6 -0.9
v 0.2 0.6 -1
v 0.3 0.6 -1
v 0.8 0.6 -1
v 0.9 0.6 -1
v 0.3 0.6 -1.1
v 0.8 0.6 -1.1
v 0.3 1.8 0
v 0.8 1.8 0
v 0.2 1.8 -0.1
v 0.3 1.8 -0.1
v 0.8 1.8 -0.1
v 0.9 1.8 -0.1
v 0.1 1.8 -0.2
v 0.2 1.8 -0.2
v 0.3 1.8 -0.2
v 0.6 1.8 -0.2
v 0.7 1.8 -0.2
v 0.8 1.8 -0.2
v 0.9 1.8 -0.2
v 1 1.8 -0.2
v 0 1.8 -0.3
v 0.1 1.8 -0.3
v 0.2 1.8 -0.3
v 0.3 1.8 -0.3
v 0.6 1.8 -0.3
v 0.7 1.8 -0.3
v 0.8 1.8 -0.3
v 0.9 1.8 -0.3
v 1 1.8 -0.3
v 1.1 1.8 -0.3
v 0 1.8 -0.8
v 0.1 1.8 -0.8
v 0.2 1.8 -0.8
v 0.3 1.8 -0.8
v 0.8 1.8 -0.8
v 0.9 1.8 -0.8
v 1 1.8 -0.8
v 1.1 1.8 -0.8
v 0.1 1.8 -0.9
v 0.2 1.8 -0.9
v 0.3 1.8 -0.9
v 0.8 1.8 -0.9
v 0.9 1.8 -0.9
v 1 1.8 -0.9
v 0.2 1.8 -1
v 0.3 1.8 -1
v 0.8 1.8 -1
v 0.9 1.8 -1
v 0.3 1.8 -1.1
v 0.8 1.8 -1.1
v 0.3 0.7 0
v 0.8 0.7 0
v 0.2 0.7 -0.1
v 0.3 0.7 -0.1
v 0.8 0.7 -0.1
v 0.9 0.7 -0.1
v 0.1 0.7 -0.2
v 0.2 0.7 -0.2
v 0.3 0.7 -0.2
v 0.8 0.7 -0.2
v 0.9 0.7 -0.2
v 1 0.7 -0.2
v 0 0.7 -0.3
v 0.1 0.7 -0.3
v 0.2 0.7 -0.3
v 0.3 0.7 -0.3
v 0.8 0.7 -0.3
v 0.9 0.7 -0.3
v 1 0.7 -0.3
v 1.1 0.7 -0.3
v 0 0.7 -0.8
v 0.1 0.7 -0.8
v 0.2 0.7 -0.8
v 0.3 0.7 -0.8
v 0.8 0.7 -0.8
v 0.9 0.7 -0.8
v 1 0.7 -0.8
v 1.1 0.7 -0.8
v 0.1 0.7 -0.9
v 0.2 0.7 -0.9
v 0.3 0.7 -0.9
v 0.8 0.7 -0.9
v 0.9 0.7 -0.9
v 1 0.7 -0.9
v 0.2 0.7 -1
v 0.3 0.7 -1
v 0.8 0.7 -1
v 0.9 0.7 -1
v 0.3 0.7 -1.1
v 0.8 0.7 -1.1
v 0.3 1.9 0
v 0.8 1.9 0
v 0.2 1.9 -0.1
v 0.3 1.9 -0.1
v 0.8 1.9 -0.1
v 0.9 1.9 -0.1
v 0.1 1.9 -0.2
v 0.2 1.9 -0.2
v 0.3 1.9 -0.2
v 0.6 1.9 -0.2
v 0.7 1.9 -0.2
v 0.8 1.9 -0.2
v 0.9 1.9 -0.2
v 1 1.9 -0.2
v 0 1.9 -0.3
v 0.1 1.9 -0.3
v 0.2 1.9 -0.3
v 0.6 1.9 -0.3
v 0.7 1.9 -0.3
v 0.9 1.9 -0.3
v 1 1.9 -0.3
v 1.1 1.9 -0.3
v 0 1.9 -0.8
v 0.1 1.9 -0.8
v 0.2 1.9 -0.8
v 0.9 1.9 -0.8
v 1 1.9 -0.8
v 1.1 1.9 -0.8
v 0.1 1.9 -0.9
v 0.2 1.9 -0.9
v 0.3 1.9 -0.9
v 0.8 1.9 -0.9
v 0.9 1.9 -0.9
v 1 1.9 -0.9
v 0.2 1.9 -1
v 0.3 1.9 -1
v 0.8 1.9 -1
v 0.9 1.9 -1
v 0.3 1.9 -1.1
v 0.8 1.9 -1.1

# faces
f 3/4/1 2/4/1 1/4/1
f 4/4/1 2/4/1 3/4/1
f 7/4/1 6/4/1 5/4/1
f 8/4/1 6/4/1 7/4/1
f 13/4/1 10/4/1 9/4/1
f 14/4/1 10/4/1 13/4/1
f 15/4/1 12/4/1 11/4/1
f 16/4/1 12/4/1 15/4/1
f 17/2/1 15/2/1 14/2/1
f 18/2/1 15/2/1 17/2/1
f 19/4/1 18/4/1 17/4/1
f 20/4/1 18/4/1 19/4/1
f 21/2/1 20/2/1 19/2/1
f 22/2/1 20/2/1 21/2/1
f 23/4/1 22/4/1 21/4/1
f 24/4/1 22/4/1 23/4/1
f 26/2/1 24/2/1 23/2/1
f 27/2/1 24/2/1 26/2/1
f 29/4/1 26/4/1 25/4/1
f 30/4/1 26/4/1 29/4/1
f 31/4/1 28/4/1 27/4/1
f 32/4/1 28/4/1 31/4/1
f 37/4/1 34/4/1 33/4/1
f 38/4/1 34/4/1 37/4/1
f 41/4/1 36/4/1 35/4/1
f 42/4/1 36/4/1 41/4/1
f 43/2/1 39/2/1 38/2/1
f 44/2/1 39/2/1 43/2/1
f 45/2/1 41/2/1 40/2/1
f 46/2/1 41/2/1 45/2/1
f 47/4/1 44/4/1 43/4/1
f 48/4/1 44/4/1 47/4/1
f 49/4/1 46/4/1 45/4/1
f 50/4/1 46/4/1 49/4/1
f 51/2/1 48/2/1 47/2/1
f 52/2/1 48/2/1 51/2/1
f 53/2/1 50/2/1 49/2/1
f 54/2/1 50/2/1 53/2/1
f 55/4/1 52/4/1 51/4/1
f 56/4/1 52/4/1 55/4/1
f 57/4/1 54/4/1 53/4/1
f 58/4/1 54/4/1 57/4/1
f 60/2/1 56/2/1 55/2/1
f 61/2/1 56/2/1 60/2/1
f 62/2/1 58/2/1 57/2/1
f 63/2/1 58/2/1 62/2/1
f 65/4/1 60/4/1 59/4/1
f 66/4/1 60/4/1 65/4/1
f 67/4/1 64/4/1 63/4/1
f 68/4/1 64/4/1 67/4/1
f 73/4/1 70/4/1 69/4/1
f 74/4/1 70/4/1 73/4/1
f 77/4/1 72/4/1 71/4/1
f 78/4/1 72/4/1 77/4/1
f 79/2/1 75/2/1 74/2/1
f 80/2/1 75/2/1 79/2/1
f 81/2/1 77/2/1 76/2/1
f 82/2/1 77/2/1 81/2/1
f 83/4/1 80/4/1 79/4/1
f 84/4/1 80/4/1 83/4/1
f 85/4/1 82/4/1 81/4/1
f 86/4/1 82/4/1 85/4/1
f 87/2/1 84/2/1 83/2/1
f 88/2/1 84/2/1 87/2/1
f 89/2/1 86/2/1 85/2/1
f 90/2/1 86/2/1 89/2/1
f 91/4/1 88/4/1 87/4/1
f 92/4/1 88/4/1 91/4/1
f 93/4/1 90/4/1 89/4/1
f 94/4/1 90/4/1 93/4/1
f 96/2/1 92/2/1 91/2/1
f 97/2/1 92/2/1 96/2/1
f 98/2/1 94/2/1 93/2/1
f 99/2/1 94/2/1 98/2/1
f 101/4/1 96/4/1 95/4/1
f 102/4/1 96/4/1 101/4/1
f 103/4/1 100/4/1 99/4/1
f 104/4/1 100/4/1 103/4/1
f 109/2/1 106/2/1 105/2/1
f 110/2/1 106/2/1 109/2/1
f 111/2/1 108/2/1 107/2/1
f 112/2/1 108/2/1 111/2/1
f 113/4/1 110/4/1 109/4/1
f 114/4/1 110/4/1 113/4/1
f 115/4/1 112/4/1 111/4/1
f 116/4/1 112/4/1 115/4/1
f 117/2/1 114/2/1 113/2/1
f 118/2/1 114/2/1 117/2/1
f 119/2/1 116/2/1 115/2/1
f 120/2/1 116/2/1 119/2/1
f 121/4/1 118/4/1 117/4/1
f 122/4/1 118/4/1 121/4/1
f 123/4/1 120/4/1 119/4/1
f 124/4/1 120/4/1 123/4/1
f 125/2/1 122/2/1 121/2/1
f 126/2/1 122/2/1 125/2/1
f 127/2/1 124/2/1 123/2/1
f 128/2/1 124/2/1 127/2/1
f 131/2/1 130/2/1 129/2/1
f 132/2/1 130/2/1 131/2/1
f 133/4/1 132/4/1 131/4/1
f 134/4/1 132/4/1 133/4/1
f 135/2/1 134/2/1 133/2/1
f 136/2/1 134/2/1 135/2/1
f 137/4/1 136/4/1 135/4/1
f 138/4/1 136/4/1 137/4/1
f 139/2/1 138/2/1 137/2/1
f 140/2/1 138/2/1 139/2/1
f 141/2/2 142/2/2 143/2/2
f 143/2/2 142/2/2 144/2/2
f 143/4/2 144/4/2 145/4/2
f 145/4/2 144/4/2 146/4/2
f 145/2/2 146/2/2 147/2/2
f 147/2/2 146/2/2 148/2/2
f 147/4/2 148/4/2 149/4/2
f 149/4/2 148/4/2 150/4/2
f 149/2/2 150/2/2 151/2/2
f 151/2/2 150/2/2 152/2/2
f 153/2/2 154/2/2 157/2/2
f 157/2/2 154/2/2 158/2/2
f 155/2/2 156/2/2 159/2/2
f 159/2/2 156/2/2 160/2/2
f 157/4/2 158/4/2 161/4/2
f 161/4/2 158/4/2 162/4/2
f 159/4/2 160/4/2 163/4/2
f 163/4/2 160/4/2 164/4/2
f 161/2/2 162/2/2 165/2/2
f 165/2/2 162/2/2 166/2/2
f 163/2/2 164/2/2 167/2/2
f 167/2/2 164/2/2 168/2/2
f 165/4/2 166/4/2 169/4/2
f 169/4/2 166/4/2 170/4/2
f 167/4/2 168/4/2 171/4/2
f 171/4/2 168/4/2 172/4/2
f 169/2/2 170/2/2 173/2/2
f 173/2/2 170/2/2 174/2/2
f 171/2/2 172/2/2 175/2/2
f 175/2/2 172/2/2 176/2/2
f 177/4/2 178/4/2 181/4/2
f 181/4/2 178/4/2 182/4/2
f 179/4/2 180/4/2 185/4/2
f 185/4/2 180/4/2 186/4/2
f 182/2/2 183/2/2 187/2/2
f 187/2/2 183/2/2 188/2/2
f 184/2/2 185/2/2 189/2/2
f 189/2/2 185/2/2 190/2/2
f 187/4/2 188/4/2 191/4/2
f 191/4/2 188/4/2 192/4/2
f 189/4/2 190/4/2 193/4/2
f 193/4/2 190/4/2 194/4/2
f 191/2/2 192/2/2 195/2/2
f 195/2/2 192/2/2 196/2/2
f 193/2/2 194/2/2 197/2/2
f 197/2/2 194/2/2 198/2/2
f 195/4/2 196/4/2 199/4/2
f 199/4/2 196/4/2 200/4/2
f 197/4/2 198/4/2 201/4/2
f 201/4/2 198/4/2 202/4/2
f 199/2/2 200/2/2 204/2/2
f 204/2/2 200/2/2 205/2/2
f 201/2/2 202/2/2 206/2/2
f 206/2/2 202/2/2 207/2/2
f 203/4/2 204/4/2 209/4/2
f 209/4/2 204/4/2 210/4/2
f 207/4/2 208/4/2 211/4/2
f 211/4/2 208/4/2 212/4/2
f 213/4/2 214/4/2 217/4/2
f 217/4/2 214/4/2 218/4/2
f 215/4/2 216/4/2 221/4/2
f 221/4/2 216/4/2 222/4/2
f 218/2/2 219/2/2 223/2/2
f 223/2/2 219/2/2 224/2/2
f 220/2/2 221/2/2 225/2/2
f 225/2/2 221/2/2 226/2/2
f 223/4/2 224/4/2 227/4/2
f 227/4/2 224/4/2 228/4/2
f 225/4/2 226/4/2 229/4/2
f 229/4/2 226/4/2 230/4/2
f 227/2/2 228/2/2 231/2/2
f 231/2/2 228/2/2 232/2/2
f 229/2/2 230/2/2 233/2/2
f 233/2/2 230/2/2 234/2/2
f 231/4/2 232/4/2 235/4/2
f 235/4/2 232/4/2 236/4/2
f 233/4/2 234/4/2 237/4/2
f 237/4/2 234/4/2 238/4/2
f 235/2/2 236/2/2 240/2/2
f 240/2/2 236/2/2 241/2/2
f 237/2/2 238/2/2 242/2/2
f 242/2/2 238/2/2 243/2/2
f 239/4/2 240/4/2 245/4/2
f 245/4/2 240/4/2 246/4/2
f 243/4/2 244/4/2 247/4/2
f 247/4/2 244/4/2 248/4/2
f 249/4/2 250/4/2 253/4/2
f 253/4/2 250/4/2 254/4/2
f 251/4/2 252/4/2 255/4/2
f 255/4/2 252/4/2 256/4/2
f 254/2/2 255/2/2 257/2/2
f 257/2/2 255/2/2 258/2/2
f 257/4/2 258/4/2 259/4/2
f 259/4/2 258/4/2 260/4/2
f 259/2/2 260/2/2 261/2/2
f 261/2/2 260/2/2 262/2/2
f 261/4/2 262/4/2 263/4/2
f 263/4/2 262/4/2 264/4/2
f 263/2/2 264/2/2 266/2/2
f 266/2/2 264/2/2 267/2/2
f 265/4/2 266/4/2 269/4/2
f 269/4/2 266/4/2 270/4/2
f 267/4/2 268/4/2 271/4/2
f 271/4/2 268/4/2 272/4/2
f 273/4/2 274/4/2 275/4/2
f 275/4/2 274/4/2 276/4/2
f 277/4/2 278/4/2 279/4/2
f 279/4/2 278/4/2 280/4/2
f 285/4/3 282/4/3 281/4/3
f 286/4/3 282/4/3 285/4/3
f 287/4/3 284/4/3 283/4/3
f 288/4/3 284/4/3 287/4/3
f 293/4/3 290/4/3 289/4/3
f 294/4/3 290/4/3 293/4/3
f 299/4/3 292/4/3 291/4/3
f 300/4/3 292/4/3 299/4/3
f 302/2/3 295/2/3 294/2/3
f 303/4/3 296/4/3 295/4/3
f 303/2/3 295/2/3 302/2/3
f 304/2/3 297/2/3 296/2/3
f 304/4/3 296/4/3 303/4/3
f 305/4/3 298/4/3 297/4/3
f 305/2/3 297/2/3 304/2/3
f 306/2/3 299/2/3 298/2/3
f 306/4/3 298/4/3 305/4/3
f 307/2/3 299/2/3 306/2/3
f 309/4/3 302/4/3 301/4/3
f 310/4/3 302/4/3 309/4/3
f 311/4/3 308/4/3 307/4/3
f 312/4/3 308/4/3 311/4/3
f 317/4/3 314/4/3 313/4/3
f 318/4/3 314/4/3 317/4/3
f 323/4/3 316/4/3 315/4/3
f 324/4/3 316/4/3 323/4/3
f 325/2/3 319/2/3 318/2/3
f 326/4/3 320/4/3 319/4/3
f 326/2/3 319/2/3 325/2/3
f 327/2/3 321/2/3 320/2/3
f 327/4/3 320/4/3 326/4/3
f 328/4/3 322/4/3 321/4/3
f 328/2/3 321/2/3 327/2/3
f 329/2/3 323/2/3 322/2/3
f 329/4/3 322/4/3 328/4/3
f 330/2/3 323/2/3 329/2/3
f 338/2/3 332/2/3 331/2/3
f 339/4/3 333/4/3 332/4/3
f 339/2/3 332/2/3 338/2/3
f 340/2/3 334/2/3 333/2/3
f 340/4/3 333/4/3 339/4/3
f 341/4/3 335/4/3 334/4/3
f 341/2/3 334/2/3 340/2/3
f 342/2/3 336/2/3 335/2/3
f 342/4/3 335/4/3 341/4/3
f 343/2/3 336/2/3 342/2/3
f 345/4/3 338/4/3 337/4/3
f 346/4/3 338/4/3 345/4/3
f 347/4/3 344/4/3 343/4/3
f 348/4/3 344/4/3 347/4/3
f 353/4/3 350/4/3 349/4/3
f 354/4/3 350/4/3 353/4/3
f 359/4/3 352/4/3 351/4/3
f 360/4/3 352/4/3 359/4/3
f 361/2/3 355/2/3 354/2/3
f 362/4/3 356/4/3 355/4/3
f 362/2/3 355/2/3 361/2/3
f 363/2/3 357/2/3 356/2/3
f 363/4/3 356/4/3 362/4/3
f 364/4/3 358/4/3 357/4/3
f 364/2/3 357/2/3 363/2/3
f 365/2/3 359/2/3 358/2/3
f 365/4/3 358/4/3 364/4/3
f 366/2/3 359/2/3 365/2/3
f 374/2/3 368/2/3 367/2/3
f 375/4/3 369/4/3 368/4/3
f 375/2/3 368/2/3 374/2/3
f 376/2/3 370/2/3 369/2/3
f 376/4/3 369/4/3 375/4/3
f 377/4/3 371/4/3 370/4/3
f 377/2/3 370/2/3 376/2/3
f 378/2/3 372/2/3 371/2/3
f 378/4/3 371/4/3 377/4/3
f 379/2/3 372/2/3 378/2/3
f 381/4/3 374/4/3 373/4/3
f 382/4/3 374/4/3 381/4/3
f 383/4/3 380/4/3 379/4/3
f 384/4/3 380/4/3 383/4/3
f 391/2/3 386/2/3 385/2/3
f 392/4/3 387/4/3 386/4/3
f 392/2/3 386/2/3 391/2/3
f 393/2/3 388/2/3 387/2/3
f 393/4/3 387/4/3 392/4/3
f 394/4/3 389/4/3 388/4/3
f 394/2/3 388/2/3 393/2/3
f 395/2/3 390/2/3 389/2/3
f 395/4/3 389/4/3 394/4/3
f 396/2/3 390/2/3 395/2/3
f 403/2/3 398/2/3 397/2/3
f 404/4/3 399/4/3 398/4/3
f 404/2/3 398/2/3 403/2/3
f 405/2/3 400/2/3 399/2/3
f 405/4/3 399/4/3 404/4/3
f 406/4/3 401/4/3 400/4/3
f 406/2/3 400/2/3 405/2/3
f 407/2/3 402/2/3 401/2/3
f 407/4/3 401/4/3 406/4/3
f 408/2/3 402/2/3 407/2/3
f 415/2/3 410/2/3 409/2/3
f 416/4/3 411/4/3 410/4/3
f 416/2/3 410/2/3 415/2/3
f 417/2/3 412/2/3 411/2/3
f 417/4/3 411/4/3 416/4/3
f 418/4/3 413/4/3 412/4/3
f 418/2/3 412/2/3 417/2/3
f 419/2/3 414/2/3 413/2/3
f 419/4/3 413/4/3 418/4/3
f 420/2/3 414/2/3 419/2/3
f 425/2/4 426/2/4 427/2/4
f 425/2/4 427/2/4 428/2/4
f 421/2/4 422/2/4 429/2/4
f 422/4/4 423/4/4 430/4/4
f 429/2/4 422/2/4 430/2/4
f 423/2/4 424/2/4 431/2/4
f 430/4/4 423/4/4 431/4/4
f 424/4/4 425/4/4 432/4/4
f 431/2/4 424/2/4 432/2/4
f 425/2/4 428/2/4 433/2/4
f 432/4/4 425/4/4 433/4/4
f 433/2/4 428/2/4 434/2/4
f 435/2/4 436/2/4 441/2/4
f 436/4/4 437/4/4 442/4/4
f 441/2/4 436/2/4 442/2/4
f 437/2/4 438/2/4 443/2/4
f 442/4/4 437/4/4 443/4/4
f 438/4/4 439/4/4 444/4/4
f 443/2/4 438/2/4 444/2/4
f 439/2/4 440/2/4 445/2/4
f 444/4/4 439/4/4 445/4/4
f 445/2/4 440/2/4 446/2/4
f 447/2/4 448/2/4 453/2/4
f 448/4/4 449/4/4 454/4/4
f 453/2/4 448/2/4 454/2/4
f 449/2/4 450/2/4 455/2/4
f 454/4/4 449/4/4 455/4/4
f 450/4/4 451/4/4 456/4/4
f 455/2/4 450/2/4 456/2/4
f 451/2/4 452/2/4 457/2/4
f 456/4/4 451/4/4 457/4/4
f 457/2/4 452/2/4 458/2/4
f 459/4/4 460/4/4 463/4/4
f 463/4/4 460/4/4 464/4/4
f 461/4/4 462/4/4 469/4/4
f 469/4/4 462/4/4 470/4/4
f 464/2/4 465/2/4 471/2/4
f 465/4/4 466/4/4 472/4/4
f 471/2/4 465/2/4 472/2/4
f 466/2/4 467/2/4 473/2/4
f 472/4/4 466/4/4 473/4/4
f 467/4/4 468/4/4 474/4/4
f 473/2/4 467/2/4 474/2/4
f 468/2/4 469/2/4 475/2/4
f 474/4/4 468/4/4 475/4/4
f 475/2/4 469/2/4 476/2/4
f 477/2/4 478/2/4 484/2/4
f 478/4/4 479/4/4 485/4/4
f 484/2/4 478/2/4 485/2/4
f 479/2/4 480/2/4 486/2/4
f 485/4/4 479/4/4 486/4/4
f 480/4/4 481/4/4 487/4/4
f 486/2/4 480/2/4 487/2/4
f 481/2/4 482/2/4 488/2/4
f 487/4/4 481/4/4 488/4/4
f 488/2/4 482/2/4 489/2/4
f 483/4/4 484/4/4 491/4/4
f 491/4/4 484/4/4 492/4/4
f 489/4/4 490/4/4 493/4/4
f 493/4/4 490/4/4 494/4/4
f 495/4/4 496/4/4 499/4/4
f 499/4/4 496/4/4 500/4/4
f 497/4/4 498/4/4 505/4/4
f 505/4/4 498/4/4 506/4/4
f 500/2/4 501/2/4 507/2/4
f 501/4/4 502/4/4 508/4/4
f 507/2/4 501/2/4 508/2/4
f 502/2/4 503/2/4 509/2/4
f 508/4/4 502/4/4 509/4/4
f 503/4/4 504/4/4 510/4/4
f 509/2/4 503/2/4 510/2/4
f 504/2/4 505/2/4 511/2/4
f 510/4/4 504/4/4 511/4/4
f 511/2/4 505/2/4 512/2/4
f 513/2/4 514/2/4 520/2/4
f 514/4/4 515/4/4 521/4/4
f 520/2/4 514/2/4 521/2/4
f 515/2/4 516/2/4 522/2/4
f 521/4/4 515/4/4 522/4/4
f 516/4/4 517/4/4 523/4/4
f 522/2/4 516/2/4 523/2/4
f 517/2/4 518/2/4 524/2/4
f 523/4/4 517/4/4 524/4/4
f 524/2/4 518/2/4 525/2/4
f 519/4/4 520/4/4 527/4/4
f 527/4/4 520/4/4 528/4/4
f 525/4/4 526/4/4 529/4/4
f 529/4/4 526/4/4 530/4/4
f 531/4/4 532/4/4 535/4/4
f 535/4/4 532/4/4 536/4/4
f 533/4/4 534/4/4 541/4/4
f 541/4/4 534/4/4 542/4/4
f 536/2/4 537/2/4 544/2/4
f 537/4/4 538/4/4 545/4/4
f 544/2/4 537/2/4 545/2/4
f 538/2/4 539/2/4 546/2/4
f 545/4/4 538/4/4 546/4/4
f 539/4/4 540/4/4 547/4/4
f 546/2/4 539/2/4 547/2/4
f 540/2/4 541/2/4 548/2/4
f 547/4/4 540/4/4 548/4/4
f 548/2/4 541/2/4 549/2/4
f 543/4/4 544/4/4 551/4/4
f 551/4/4 544/4/4 552/4/4
f 549/4/4 550/4/4 553/4/4
f 553/4/4 550/4/4 554/4/4
f 555/4/4 556/4/4 559/4/4
f 559/4/4 556/4/4 560/4/4
f 557/4/4 558/4/4 561/4/4
f 561/4/4 558/4/4 562/4/4
f 566/4/5 564/4/5 563/4/5
f 567/4/5 564/4/5 566/4/5
f 570/4/5 566/4/5 565/4/5
f 571/2/5 567/2/5 566/2/5
f 571/4/5 566/4/5 570/4/5
f 572/4/5 568/4/5 567/4/5
f 572/2/5 567/2/5 571/2/5
f 573/4/5 568/4/5 572/4/5
f 576/4/5 570/4/5 569/4/5
f 577/2/5 571/2/5 570/2/5
f 577/2/5 572/2/5 571/2/5
f 577/4/5 570/4/5 576/4/5
f 577/2/5 573/2/5 572/2/5
f 578/4/5 574/4/5 573/4/5
f 578/2/5 573/2/5 577/2/5
f 579/4/5 574/4/5 578/4/5
f 581/4/5 576/4/5 575/4/5
f 582/2/5 577/2/5 576/2/5
f 582/4/5 576/4/5 581/4/5
f 582/2/5 578/2/5 577/2/5
f 582/2/5 579/2/5 578/2/5
f 583/2/5 579/2/5 582/2/5
f 584/2/5 579/2/5 583/2/5
f 585/4/5 580/4/5 579/4/5
f 585/2/5 579/2/5 584/2/5
f 586/4/5 580/4/5 585/4/5
f 587/4/5 583/4/5 582/4/5
f 588/3/5 584/3/5 583/3/5
f 588/4/5 583/4/5 587/4/5
f 589/3/5 584/3/5 588/3/5
f 590/3/5 584/3/5 589/3/5
f 591/4/5 585/4/5 584/4/5
f 591/3/5 584/3/5 590/3/5
f 592/4/5 585/4/5 591/4/5
f 593/4/5 589/4/5 588/4/5
f 594/3/5 590/3/5 589/3/5
f 594/4/5 589/4/5 593/4/5
f 595/4/5 591/4/5 590/4/5
f 595/3/5 590/3/5 594/3/5
f 596/4/5 591/4/5 595/4/5
f 597/4/5 595/4/5 594/4/5
f 598/4/5 595/4/5 597/4/5
f 602/4/5 600/4/5 599/4/5
f 603/4/5 600/4/5 602/4/5
f 606/4/5 602/4/5 601/4/5
f 607/4/5 602/4/5 606/4/5
f 610/4/5 604/4/5 603/4/5
f 611/4/5 604/4/5 610/4/5
f 614/4/5 606/4/5 605/4/5
f 615/4/5 606/4/5 614/4/5
f 616/2/5 608/2/5 607/2/5
f 617/1/5 609/1/5 608/1/5
f 617/2/5 608/2/5 616/2/5
f 618/2/5 610/2/5 609/2/5
f 618/1/5 609/1/5 617/1/5
f 619/2/5 610/2/5 618/2/5
f 620/4/5 612/4/5 611/4/5
f 621/4/5 612/4/5 620/4/5
f 623/4/5 614/4/5 613/4/5
f 624/4/5 614/4/5 623/4/5
f 625/2/5 616/2/5 615/2/5
f 625/2/5 617/2/5 616/2/5
f 625/2/5 619/2/5 618/2/5
f 625/2/5 620/2/5 619/2/5
f 625/2/5 618/2/5 617/2/5
f 626/2/5 620/2/5 625/2/5
f 627/2/5 620/2/5 626/2/5
f 628/2/5 620/2/5 627/2/5
f 629/4/5 622/4/5 621/4/5
f 630/4/5 622/4/5 629/4/5
f 631/4/5 625/4/5 624/4/5
f 632/4/5 625/4/5 631/4/5
f 633/2/5 627/2/5 626/2/5
f 634/2/5 627/2/5 633/2/5
f 635/4/5 629/4/5 628/4/5
f 636/4/5 629/4/5 635/4/5
f 637/4/5 633/4/5 632/4/5
f 638/4/5 633/4/5 637/4/5
f 639/4/5 635/4/5 634/4/5
f 640/4/5 635/4/5 639/4/5
f 641/4/5 639/4/5 638/4/5
f 642/4/5 639/4/5 641/4/5
f 643/4/6 644/4/6 646/4/6
f 646/4/6 644/4/6 647/4/6
f 645/4/6 646/4/6 650/4/6
f 650/4/6 646/4/6 651/4/6
f 647/4/6 648/4/6 652/4/6
f 652/4/6 648/4/6 653/4/6
f 649/4/6 650/4/6 656/4/6
f 656/4/6 650/4/6 657/4/6
f 651/2/6 652/2/6 658/2/6
f 658/2/6 652/2/6 659/2/6
f 653/4/6 654/4/6 660/4/6
f 660/4/6 654/4/6 661/4/6
f 655/4/6 656/4/6 663/4/6
f 663/4/6 656/4/6 664/4/6
f 658/2/6 659/2/6 665/2/6
f 659/2/6 660/2/6 665/2/6
f 657/2/6 658/2/6 665/2/6
f 665/2/6 660/2/6 666/2/6
f 666/2/6 660/2/6 667/2/6
f 667/2/6 660/2/6 668/2/6
f 661/4/6 662/4/6 669/4/6
f 669/4/6 662/4/6 670/4/6
f 664/4/6 665/4/6 671/4/6
f 671/4/6 665/4/6 672/4/6
f 666/3/6 667/3/6 673/3/6
f 673/3/6 667/3/6 674/3/6
f 668/4/6 669/4/6 675/4/6
f 675/4/6 669/4/6 676/4/6
f 672/4/6 673/4/6 677/4/6
f 677/4/6 673/4/6 678/4/6
f 674/4/6 675/4/6 679/4/6
f 679/4/6 675/4/6 680/4/6
f 678/4/6 679/4/6 681/4/6
f 681/4/6 679/4/6 682/4/6
f 683/4/6 684/4/6 686/4/6
f 686/4/6 684/4/6 687/4/6
f 685/4/6 686/4/6 690/4/6
f 686/2/6 687/2/6 691/2/6
f 690/4/6 686/4/6 691/4/6
f 691/2/6 687/2/6 692/2/6
f 692/2/6 687/2/6 693/2/6
f 687/4/6 688/4/6 694/4/6
f 693/2/6 687/2/6 694/2/6
f 694/4/6 688/4/6 695/4/6
f 689/4/6 690/4/6 698/4/6
f 690/2/6 691/2/6 699/2/6
f 691/2/6 692/2/6 699/2/6
f 698/4/6 690/4/6 699/4/6
f 692/1/6 693/1/6 700/1/6
f 699/2/6 692/2/6 700/2/6
f 693/2/6 694/2/6 701/2/6
f 700/1/6 693/1/6 701/1/6
f 694/2/6 695/2/6 701/2/6
f 695/4/6 696/4/6 702/4/6
f 701/2/6 695/2/6 702/2/6
f 702/4/6 696/4/6 703/4/6
f 697/4/6 698/4/6 705/4/6
f 698/2/6 699/2/6 706/2/6
f 705/4/6 698/4/6 706/4/6
f 700/2/6 701/2/6 706/2/6
f 702/2/6 703/2/6 706/2/6
f 701/2/6 702/2/6 706/2/6
f 699/2/6 700/2/6 706/2/6
f 706/2/6 703/2/6 707/2/6
f 707/2/6 703/2/6 708/2/6
f 703/4/6 704/4/6 709/4/6
f 708/2/6 703/2/6 709/2/6
f 709/4/6 704/4/6 710/4/6
f 706/4/6 707/4/6 711/4/6
f 707/2/6 708/2/6 712/2/6
f 711/4/6 707/4/6 712/4/6
f 712/2/6 708/2/6 713/2/6
f 713/2/6 708/2/6 714/2/6
f 708/4/6 709/4/6 715/4/6
f 714/2/6 708/2/6 715/2/6
f 715/4/6 709/4/6 716/4/6
f 712/4/6 713/4/6 717/4/6
f 713/2/6 714/2/6 718/2/6
f 717/4/6 713/4/6 718/4/6
f 714/4/6 715/4/6 719/4/6
f 718/2/6 714/2/6 719/2/6
f 719/4/6 715/4/6 720/4/6
f 718/4/6 719/4/6 721/4/6
f 721/4/6 719/4/6 722/4/6
