# MagicaVoxel @ Ephtracy

# group
o pylone

# material
mtllib Cone.mtl
usemtl palette

# normals
vn -1 0 0
vn 1 0 0
vn 0 0 1
vn 0 0 -1
vn 0 -1 0
vn 0 1 0

# texcoords
vt 0.595703 0.5
vt 0.599609 0.5

# verts
v 0 0.3 0
v 0 0.3 -0.5
v 0 0.4 0
v 0 0.4 -0.5
v 0.1 0.4 -0.1
v 0.1 0.4 -0.4
v 0.1 0.5 -0.1
v 0.1 0.5 -0.2
v 0.1 0.5 -0.3
v 0.1 0.5 -0.4
v 0.1 0.6 -0.2
v 0.1 0.6 -0.3
v 0.1 0.7 -0.2
v 0.1 0.7 -0.3
v 0.2 0.5 -0.1
v 0.2 0.5 -0.2
v 0.2 0.5 -0.3
v 0.2 0.5 -0.4
v 0.2 0.6 -0.1
v 0.2 0.6 -0.2
v 0.2 0.6 -0.3
v 0.2 0.6 -0.4
v 0.2 0.7 -0.1
v 0.2 0.7 -0.2
v 0.2 0.7 -0.3
v 0.2 0.7 -0.4
v 0.2 0.8 -0.2
v 0.2 0.8 -0.3
v 0.2 0.9 -0.2
v 0.2 0.9 -0.3
v 0.3 0.5 -0.1
v 0.3 0.5 -0.2
v 0.3 0.5 -0.3
v 0.3 0.5 -0.4
v 0.3 0.6 -0.1
v 0.3 0.6 -0.2
v 0.3 0.6 -0.3
v 0.3 0.6 -0.4
v 0.3 0.7 -0.1
v 0.3 0.7 -0.2
v 0.3 0.7 -0.3
v 0.3 0.7 -0.4
v 0.3 0.8 -0.2
v 0.3 0.8 -0.3
v 0.3 0.9 -0.2
v 0.3 0.9 -0.3
v 0.4 0.4 -0.1
v 0.4 0.4 -0.4
v 0.4 0.5 -0.1
v 0.4 0.5 -0.2
v 0.4 0.5 -0.3
v 0.4 0.5 -0.4
v 0.4 0.6 -0.2
v 0.4 0.6 -0.3
v 0.4 0.7 -0.2
v 0.4 0.7 -0.3
v 0.5 0.3 0
v 0.5 0.3 -0.5
v 0.5 0.4 0
v 0.5 0.4 -0.5
v 0 0.3 0
v 0 0.4 0
v 0.5 0.3 0
v 0.5 0.4 0
v 0.1 0.4 -0.1
v 0.1 0.5 -0.1
v 0.2 0.5 -0.1
v 0.2 0.6 -0.1
v 0.2 0.7 -0.1
v 0.3 0.5 -0.1
v 0.3 0.6 -0.1
v 0.3 0.7 -0.1
v 0.4 0.4 -0.1
v 0.4 0.5 -0.1
v 0.1 0.5 -0.2
v 0.1 0.6 -0.2
v 0.1 0.7 -0.2
v 0.2 0.5 -0.2
v 0.2 0.6 -0.2
v 0.2 0.7 -0.2
v 0.2 0.8 -0.2
v 0.2 0.9 -0.2
v 0.3 0.5 -0.2
v 0.3 0.6 -0.2
v 0.3 0.7 -0.2
v 0.3 0.8 -0.2
v 0.3 0.9 -0.2
v 0.4 0.5 -0.2
v 0.4 0.6 -0.2
v 0.4 0.7 -0.2
v 0.1 0.5 -0.3
v 0.1 0.6 -0.3
v 0.1 0.7 -0.3
v 0.2 0.5 -0.3
v 0.2 0.6 -0.3
v 0.2 0.7 -0.3
v 0.2 0.8 -0.3
v 0.2 0.9 -0.3
v 0.3 0.5 -0.3
v 0.3 0.6 -0.3
v 0.3 0.7 -0.3
v 0.3 0.8 -0.3
v 0.3 0.9 -0.3
v 0.4 0.5 -0.3
v 0.4 0.6 -0.3
v 0.4 0.7 -0.3
v 0.1 0.4 -0.4
v 0.1 0.5 -0.4
v 0.2 0.5 -0.4
v 0.2 0.6 -0.4
v 0.2 0.7 -0.4
v 0.3 0.5 -0.4
v 0.3 0.6 -0.4
v 0.3 0.7 -0.4
v 0.4 0.4 -0.4
v 0.4 0.5 -0.4
v 0 0.3 -0.5
v 0 0.4 -0.5
v 0.5 0.3 -0.5
v 0.5 0.4 -0.5
v 0 0.3 0
v 0.5 0.3 0
v 0 0.3 -0.5
v 0.5 0.3 -0.5
v 0 0.4 0
v 0.5 0.4 0
v 0.1 0.4 -0.1
v 0.4 0.4 -0.1
v 0.1 0.4 -0.4
v 0.4 0.4 -0.4
v 0 0.4 -0.5
v 0.5 0.4 -0.5
v 0.1 0.5 -0.1
v 0.2 0.5 -0.1
v 0.3 0.5 -0.1
v 0.4 0.5 -0.1
v 0.1 0.5 -0.2
v 0.2 0.5 -0.2
v 0.3 0.5 -0.2
v 0.4 0.5 -0.2
v 0.1 0.5 -0.3
v 0.2 0.5 -0.3
v 0.3 0.5 -0.3
v 0.4 0.5 -0.3
v 0.1 0.5 -0.4
v 0.2 0.5 -0.4
v 0.3 0.5 -0.4
v 0.4 0.5 -0.4
v 0.2 0.7 -0.1
v 0.3 0.7 -0.1
v 0.1 0.7 -0.2
v 0.2 0.7 -0.2
v 0.3 0.7 -0.2
v 0.4 0.7 -0.2
v 0.1 0.7 -0.3
v 0.2 0.7 -0.3
v 0.3 0.7 -0.3
v 0.4 0.7 -0.3
v 0.2 0.7 -0.4
v 0.3 0.7 -0.4
v 0.2 0.9 -0.2
v 0.3 0.9 -0.2
v 0.2 0.9 -0.3
v 0.3 0.9 -0.3

# faces
f 3/1/1 2/1/1 1/1/1
f 4/1/1 2/1/1 3/1/1
f 7/1/1 6/1/1 5/1/1
f 8/1/1 6/1/1 7/1/1
f 9/1/1 6/1/1 8/1/1
f 10/1/1 6/1/1 9/1/1
f 11/2/1 9/2/1 8/2/1
f 12/2/1 9/2/1 11/2/1
f 13/1/1 12/1/1 11/1/1
f 14/1/1 12/1/1 13/1/1
f 19/2/1 16/2/1 15/2/1
f 20/2/1 16/2/1 19/2/1
f 21/2/1 18/2/1 17/2/1
f 22/2/1 18/2/1 21/2/1
f 23/1/1 20/1/1 19/1/1
f 24/1/1 20/1/1 23/1/1
f 25/1/1 22/1/1 21/1/1
f 26/1/1 22/1/1 25/1/1
f 27/2/1 25/2/1 24/2/1
f 28/2/1 25/2/1 27/2/1
f 29/1/1 28/1/1 27/1/1
f 30/1/1 28/1/1 29/1/1
f 31/2/2 32/2/2 35/2/2
f 35/2/2 32/2/2 36/2/2
f 33/2/2 34/2/2 37/2/2
f 37/2/2 34/2/2 38/2/2
f 35/1/2 36/1/2 39/1/2
f 39/1/2 36/1/2 40/1/2
f 37/1/2 38/1/2 41/1/2
f 41/1/2 38/1/2 42/1/2
f 40/2/2 41/2/2 43/2/2
f 43/2/2 41/2/2 44/2/2
f 43/1/2 44/1/2 45/1/2
f 45/1/2 44/1/2 46/1/2
f 47/1/2 48/1/2 49/1/2
f 49/1/2 48/1/2 50/1/2
f 50/1/2 48/1/2 51/1/2
f 51/1/2 48/1/2 52/1/2
f 50/2/2 51/2/2 53/2/2
f 53/2/2 51/2/2 54/2/2
f 53/1/2 54/1/2 55/1/2
f 55/1/2 54/1/2 56/1/2
f 57/1/2 58/1/2 59/1/2
f 59/1/2 58/1/2 60/1/2
f 63/1/3 62/1/3 61/1/3
f 64/1/3 62/1/3 63/1/3
f 67/1/3 66/1/3 65/1/3
f 70/1/3 67/1/3 65/1/3
f 70/2/3 68/2/3 67/2/3
f 71/1/3 69/1/3 68/1/3
f 71/2/3 68/2/3 70/2/3
f 72/1/3 69/1/3 71/1/3
f 73/1/3 70/1/3 65/1/3
f 74/1/3 70/1/3 73/1/3
f 78/2/3 76/2/3 75/2/3
f 79/1/3 77/1/3 76/1/3
f 79/2/3 76/2/3 78/2/3
f 80/1/3 77/1/3 79/1/3
f 85/2/3 81/2/3 80/2/3
f 86/1/3 82/1/3 81/1/3
f 86/2/3 81/2/3 85/2/3
f 87/1/3 82/1/3 86/1/3
f 88/2/3 84/2/3 83/2/3
f 89/1/3 85/1/3 84/1/3
f 89/2/3 84/2/3 88/2/3
f 90/1/3 85/1/3 89/1/3
f 91/2/4 92/2/4 94/2/4
f 92/1/4 93/1/4 95/1/4
f 94/2/4 92/2/4 95/2/4
f 95/1/4 93/1/4 96/1/4
f 96/2/4 97/2/4 101/2/4
f 97/1/4 98/1/4 102/1/4
f 101/2/4 97/2/4 102/2/4
f 102/1/4 98/1/4 103/1/4
f 99/2/4 100/2/4 104/2/4
f 100/1/4 101/1/4 105/1/4
f 104/2/4 100/2/4 105/2/4
f 105/1/4 101/1/4 106/1/4
f 107/1/4 108/1/4 109/1/4
f 107/1/4 109/1/4 112/1/4
f 109/2/4 110/2/4 112/2/4
f 110/1/4 111/1/4 113/1/4
f 112/2/4 110/2/4 113/2/4
f 113/1/4 111/1/4 114/1/4
f 107/1/4 112/1/4 115/1/4
f 115/1/4 112/1/4 116/1/4
f 117/1/4 118/1/4 119/1/4
f 119/1/4 118/1/4 120/1/4
f 123/1/5 122/1/5 121/1/5
f 124/1/5 122/1/5 123/1/5
f 125/1/6 126/1/6 127/1/6
f 127/1/6 126/1/6 128/1/6
f 125/1/6 127/1/6 129/1/6
f 128/1/6 126/1/6 130/1/6
f 125/1/6 129/1/6 131/1/6
f 129/1/6 130/1/6 131/1/6
f 130/1/6 126/1/6 132/1/6
f 131/1/6 130/1/6 132/1/6
f 133/1/6 134/1/6 137/1/6
f 137/1/6 134/1/6 138/1/6
f 135/1/6 136/1/6 139/1/6
f 139/1/6 136/1/6 140/1/6
f 141/1/6 142/1/6 145/1/6
f 145/1/6 142/1/6 146/1/6
f 143/1/6 144/1/6 147/1/6
f 147/1/6 144/1/6 148/1/6
f 149/1/6 150/1/6 152/1/6
f 152/1/6 150/1/6 153/1/6
f 151/1/6 152/1/6 155/1/6
f 155/1/6 152/1/6 156/1/6
f 153/1/6 154/1/6 157/1/6
f 157/1/6 154/1/6 158/1/6
f 156/1/6 157/1/6 159/1/6
f 159/1/6 157/1/6 160/1/6
f 161/1/6 162/1/6 163/1/6
f 163/1/6 162/1/6 164/1/6
