# MagicaVoxel @ Ephtracy

# group
o container-blue

# material
mtllib Container.mtl
usemtl palette

# normals
vn -1 0 0
vn 1 0 0
vn 0 0 1
vn 0 0 -1
vn 0 -1 0
vn 0 1 0

# texcoords
vt 0.443359 0.5
vt 0.470703 0.5
vt 0.755859 0.5
vt 0.771484 0.5

# verts
v 0 1.3 0
v 0 1.3 -2.4
v 0 1.5 -0.2
v 0 1.5 -0.3
v 0 1.5 -0.5
v 0 1.5 -0.7
v 0 1.5 -0.9
v 0 1.5 -1.1
v 0 1.5 -1.3
v 0 1.5 -1.5
v 0 1.5 -1.7
v 0 1.5 -1.9
v 0 1.5 -2.1
v 0 1.5 -2.2
v 0 3.7 -0.2
v 0 3.7 -0.3
v 0 3.7 -0.5
v 0 3.7 -0.7
v 0 3.7 -0.9
v 0 3.7 -1.1
v 0 3.7 -1.3
v 0 3.7 -1.5
v 0 3.7 -1.7
v 0 3.7 -1.9
v 0 3.7 -2.1
v 0 3.7 -2.2
v 0 3.9 0
v 0 3.9 -2.4
v 0.1 1.5 -0.2
v 0.1 1.5 -0.3
v 0.1 1.5 -0.5
v 0.1 1.5 -0.7
v 0.1 1.5 -0.9
v 0.1 1.5 -1.1
v 0.1 1.5 -1.3
v 0.1 1.5 -1.5
v 0.1 1.5 -1.7
v 0.1 1.5 -1.9
v 0.1 1.5 -2.1
v 0.1 1.5 -2.2
v 0.1 3.7 -0.2
v 0.1 3.7 -0.3
v 0.1 3.7 -0.5
v 0.1 3.7 -0.7
v 0.1 3.7 -0.9
v 0.1 3.7 -1.1
v 0.1 3.7 -1.3
v 0.1 3.7 -1.5
v 0.1 3.7 -1.7
v 0.1 3.7 -1.9
v 0.1 3.7 -2.1
v 0.1 3.7 -2.2
v 0.3 1.5 0
v 0.3 1.5 -0.1
v 0.3 1.5 -2.3
v 0.3 1.5 -2.4
v 0.3 3.7 0
v 0.3 3.7 -0.1
v 0.3 3.7 -2.3
v 0.3 3.7 -2.4
v 0.3 3.8 -0.2
v 0.3 3.8 -2.2
v 0.3 3.9 -0.2
v 0.3 3.9 -2.2
v 0.7 1.5 0
v 0.7 1.5 -0.1
v 0.7 1.5 -2.3
v 0.7 1.5 -2.4
v 0.7 3.7 0
v 0.7 3.7 -0.1
v 0.7 3.7 -2.3
v 0.7 3.7 -2.4
v 0.7 3.8 -0.2
v 0.7 3.8 -2.2
v 0.7 3.9 -0.2
v 0.7 3.9 -2.2
v 1.1 1.5 0
v 1.1 1.5 -0.1
v 1.1 1.5 -2.3
v 1.1 1.5 -2.4
v 1.1 3.7 0
v 1.1 3.7 -0.1
v 1.1 3.7 -2.3
v 1.1 3.7 -2.4
v 1.1 3.8 -0.2
v 1.1 3.8 -2.2
v 1.1 3.9 -0.2
v 1.1 3.9 -2.2
v 1.5 1.5 0
v 1.5 1.5 -0.1
v 1.5 1.5 -2.3
v 1.5 1.5 -2.4
v 1.5 3.7 0
v 1.5 3.7 -0.1
v 1.5 3.7 -2.3
v 1.5 3.7 -2.4
v 1.5 3.8 -0.2
v 1.5 3.8 -2.2
v 1.5 3.9 -0.2
v 1.5 3.9 -2.2
v 1.9 1.5 0
v 1.9 1.5 -0.1
v 1.9 1.5 -2.3
v 1.9 1.5 -2.4
v 1.9 3.7 0
v 1.9 3.7 -0.1
v 1.9 3.7 -2.3
v 1.9 3.7 -2.4
v 1.9 3.8 -0.2
v 1.9 3.8 -2.2
v 1.9 3.9 -0.2
v 1.9 3.9 -2.2
v 2.3 1.5 0
v 2.3 1.5 -0.1
v 2.3 1.5 -2.3
v 2.3 1.5 -2.4
v 2.3 3.7 0
v 2.3 3.7 -0.1
v 2.3 3.7 -2.3
v 2.3 3.7 -2.4
v 2.3 3.8 -0.2
v 2.3 3.8 -2.2
v 2.3 3.9 -0.2
v 2.3 3.9 -2.2
v 2.7 1.5 0
v 2.7 1.5 -0.1
v 2.7 1.5 -2.3
v 2.7 1.5 -2.4
v 2.7 3.7 0
v 2.7 3.7 -0.1
v 2.7 3.7 -2.3
v 2.7 3.7 -2.4
v 2.7 3.8 -0.2
v 2.7 3.8 -2.2
v 2.7 3.9 -0.2
v 2.7 3.9 -2.2
v 3.1 1.5 0
v 3.1 1.5 -0.1
v 3.1 1.5 -2.3
v 3.1 1.5 -2.4
v 3.1 3.7 0
v 3.1 3.7 -0.1
v 3.1 3.7 -2.3
v 3.1 3.7 -2.4
v 3.1 3.8 -0.2
v 3.1 3.8 -2.2
v 3.1 3.9 -0.2
v 3.1 3.9 -2.2
v 3.5 1.5 0
v 3.5 1.5 -0.1
v 3.5 1.5 -2.3
v 3.5 1.5 -2.4
v 3.5 3.7 0
v 3.5 3.7 -0.1
v 3.5 3.7 -2.3
v 3.5 3.7 -2.4
v 3.5 3.8 -0.2
v 3.5 3.8 -2.2
v 3.5 3.9 -0.2
v 3.5 3.9 -2.2
v 3.9 1.5 0
v 3.9 1.5 -0.1
v 3.9 1.5 -2.3
v 3.9 1.5 -2.4
v 3.9 3.7 0
v 3.9 3.7 -0.1
v 3.9 3.7 -2.3
v 3.9 3.7 -2.4
v 3.9 3.8 -0.2
v 3.9 3.8 -2.2
v 3.9 3.9 -0.2
v 3.9 3.9 -2.2
v 4.3 1.5 0
v 4.3 1.5 -0.1
v 4.3 1.5 -2.3
v 4.3 1.5 -2.4
v 4.3 3.7 0
v 4.3 3.7 -0.1
v 4.3 3.7 -2.3
v 4.3 3.7 -2.4
v 4.3 3.8 -0.2
v 4.3 3.8 -2.2
v 4.3 3.9 -0.2
v 4.3 3.9 -2.2
v 4.7 1.5 0
v 4.7 1.5 -0.1
v 4.7 1.5 -2.3
v 4.7 1.5 -2.4
v 4.7 3.7 0
v 4.7 3.7 -0.1
v 4.7 3.7 -2.3
v 4.7 3.7 -2.4
v 4.7 3.8 -0.2
v 4.7 3.8 -2.2
v 4.7 3.9 -0.2
v 4.7 3.9 -2.2
v 5.1 1.5 0
v 5.1 1.5 -0.1
v 5.1 1.5 -2.3
v 5.1 1.5 -2.4
v 5.1 3.7 0
v 5.1 3.7 -0.1
v 5.1 3.7 -2.3
v 5.1 3.7 -2.4
v 5.1 3.8 -0.2
v 5.1 3.8 -2.2
v 5.1 3.9 -0.2
v 5.1 3.9 -2.2
v 5.5 1.5 0
v 5.5 1.5 -0.1
v 5.5 1.5 -2.3
v 5.5 1.5 -2.4
v 5.5 3.7 0
v 5.5 3.7 -0.1
v 5.5 3.7 -2.3
v 5.5 3.7 -2.4
v 5.5 3.8 -0.2
v 5.5 3.8 -2.2
v 5.5 3.9 -0.2
v 5.5 3.9 -2.2
v 5.7 1.5 -0.2
v 5.7 1.5 -2.2
v 5.7 3.7 -0.2
v 5.7 3.7 -2.2
v 5.8 3.8 -0.2
v 5.8 3.8 -2.2
v 5.8 3.9 -0.2
v 5.8 3.9 -2.2
v 0.2 1.5 0
v 0.2 1.5 -0.1
v 0.2 1.5 -0.2
v 0.2 1.5 -2.2
v 0.2 1.5 -2.3
v 0.2 1.5 -2.4
v 0.2 3.7 0
v 0.2 3.7 -0.1
v 0.2 3.7 -0.2
v 0.2 3.7 -2.2
v 0.2 3.7 -2.3
v 0.2 3.7 -2.4
v 0.2 3.8 -0.2
v 0.2 3.8 -2.2
v 0.2 3.9 -0.2
v 0.2 3.9 -2.2
v 0.5 1.5 0
v 0.5 1.5 -0.1
v 0.5 1.5 -2.3
v 0.5 1.5 -2.4
v 0.5 3.7 0
v 0.5 3.7 -0.1
v 0.5 3.7 -2.3
v 0.5 3.7 -2.4
v 0.5 3.8 -0.2
v 0.5 3.8 -2.2
v 0.5 3.9 -0.2
v 0.5 3.9 -2.2
v 0.9 1.5 0
v 0.9 1.5 -0.1
v 0.9 1.5 -2.3
v 0.9 1.5 -2.4
v 0.9 3.7 0
v 0.9 3.7 -0.1
v 0.9 3.7 -2.3
v 0.9 3.7 -2.4
v 0.9 3.8 -0.2
v 0.9 3.8 -2.2
v 0.9 3.9 -0.2
v 0.9 3.9 -2.2
v 1.3 1.5 0
v 1.3 1.5 -0.1
v 1.3 1.5 -2.3
v 1.3 1.5 -2.4
v 1.3 3.7 0
v 1.3 3.7 -0.1
v 1.3 3.7 -2.3
v 1.3 3.7 -2.4
v 1.3 3.8 -0.2
v 1.3 3.8 -2.2
v 1.3 3.9 -0.2
v 1.3 3.9 -2.2
v 1.7 1.5 0
v 1.7 1.5 -0.1
v 1.7 1.5 -2.3
v 1.7 1.5 -2.4
v 1.7 3.7 0
v 1.7 3.7 -0.1
v 1.7 3.7 -2.3
v 1.7 3.7 -2.4
v 1.7 3.8 -0.2
v 1.7 3.8 -2.2
v 1.7 3.9 -0.2
v 1.7 3.9 -2.2
v 2.1 1.5 0
v 2.1 1.5 -0.1
v 2.1 1.5 -2.3
v 2.1 1.5 -2.4
v 2.1 3.7 0
v 2.1 3.7 -0.1
v 2.1 3.7 -2.3
v 2.1 3.7 -2.4
v 2.1 3.8 -0.2
v 2.1 3.8 -2.2
v 2.1 3.9 -0.2
v 2.1 3.9 -2.2
v 2.5 1.5 0
v 2.5 1.5 -0.1
v 2.5 1.5 -2.3
v 2.5 1.5 -2.4
v 2.5 3.7 0
v 2.5 3.7 -0.1
v 2.5 3.7 -2.3
v 2.5 3.7 -2.4
v 2.5 3.8 -0.2
v 2.5 3.8 -2.2
v 2.5 3.9 -0.2
v 2.5 3.9 -2.2
v 2.9 1.5 0
v 2.9 1.5 -0.1
v 2.9 1.5 -2.3
v 2.9 1.5 -2.4
v 2.9 3.7 0
v 2.9 3.7 -0.1
v 2.9 3.7 -2.3
v 2.9 3.7 -2.4
v 2.9 3.8 -0.2
v 2.9 3.8 -2.2
v 2.9 3.9 -0.2
v 2.9 3.9 -2.2
v 3.3 1.5 0
v 3.3 1.5 -0.1
v 3.3 1.5 -2.3
v 3.3 1.5 -2.4
v 3.3 3.7 0
v 3.3 3.7 -0.1
v 3.3 3.7 -2.3
v 3.3 3.7 -2.4
v 3.3 3.8 -0.2
v 3.3 3.8 -2.2
v 3.3 3.9 -0.2
v 3.3 3.9 -2.2
v 3.7 1.5 0
v 3.7 1.5 -0.1
v 3.7 1.5 -2.3
v 3.7 1.5 -2.4
v 3.7 3.7 0
v 3.7 3.7 -0.1
v 3.7 3.7 -2.3
v 3.7 3.7 -2.4
v 3.7 3.8 -0.2
v 3.7 3.8 -2.2
v 3.7 3.9 -0.2
v 3.7 3.9 -2.2
v 4.1 1.5 0
v 4.1 1.5 -0.1
v 4.1 1.5 -2.3
v 4.1 1.5 -2.4
v 4.1 3.7 0
v 4.1 3.7 -0.1
v 4.1 3.7 -2.3
v 4.1 3.7 -2.4
v 4.1 3.8 -0.2
v 4.1 3.8 -2.2
v 4.1 3.9 -0.2
v 4.1 3.9 -2.2
v 4.5 1.5 0
v 4.5 1.5 -0.1
v 4.5 1.5 -2.3
v 4.5 1.5 -2.4
v 4.5 3.7 0
v 4.5 3.7 -0.1
v 4.5 3.7 -2.3
v 4.5 3.7 -2.4
v 4.5 3.8 -0.2
v 4.5 3.8 -2.2
v 4.5 3.9 -0.2
v 4.5 3.9 -2.2
v 4.9 1.5 0
v 4.9 1.5 -0.1
v 4.9 1.5 -2.3
v 4.9 1.5 -2.4
v 4.9 3.7 0
v 4.9 3.7 -0.1
v 4.9 3.7 -2.3
v 4.9 3.7 -2.4
v 4.9 3.8 -0.2
v 4.9 3.8 -2.2
v 4.9 3.9 -0.2
v 4.9 3.9 -2.2
v 5.3 1.5 0
v 5.3 1.5 -0.1
v 5.3 1.5 -2.3
v 5.3 1.5 -2.4
v 5.3 3.7 0
v 5.3 3.7 -0.1
v 5.3 3.7 -2.3
v 5.3 3.7 -2.4
v 5.3 3.8 -0.2
v 5.3 3.8 -2.2
v 5.3 3.9 -0.2
v 5.3 3.9 -2.2
v 5.7 3.8 -0.2
v 5.7 3.8 -2.2
v 5.7 3.9 -0.2
v 5.7 3.9 -2.2
v 5.8 1.4 -0.2
v 5.8 1.4 -0.3
v 5.8 1.4 -0.5
v 5.8 1.4 -0.7
v 5.8 1.4 -0.9
v 5.8 1.4 -1.1
v 5.8 1.4 -1.3
v 5.8 1.4 -1.5
v 5.8 1.4 -1.7
v 5.8 1.4 -1.9
v 5.8 1.4 -2.1
v 5.8 1.4 -2.2
v 5.8 3.7 -0.2
v 5.8 3.7 -0.3
v 5.8 3.7 -0.5
v 5.8 3.7 -0.7
v 5.8 3.7 -0.9
v 5.8 3.7 -1.1
v 5.8 3.7 -1.3
v 5.8 3.7 -1.5
v 5.8 3.7 -1.7
v 5.8 3.7 -1.9
v 5.8 3.7 -2.1
v 5.8 3.7 -2.2
v 5.9 1.3 0
v 5.9 1.3 -2.4
v 5.9 1.4 -0.2
v 5.9 1.4 -0.3
v 5.9 1.4 -0.5
v 5.9 1.4 -0.7
v 5.9 1.4 -0.9
v 5.9 1.4 -1.1
v 5.9 1.4 -1.3
v 5.9 1.4 -1.5
v 5.9 1.4 -1.7
v 5.9 1.4 -1.9
v 5.9 1.4 -2.1
v 5.9 1.4 -2.2
v 5.9 3.7 -0.2
v 5.9 3.7 -0.3
v 5.9 3.7 -0.5
v 5.9 3.7 -0.7
v 5.9 3.7 -0.9
v 5.9 3.7 -1.1
v 5.9 3.7 -1.3
v 5.9 3.7 -1.5
v 5.9 3.7 -1.7
v 5.9 3.7 -1.9
v 5.9 3.7 -2.1
v 5.9 3.7 -2.2
v 5.9 3.9 0
v 5.9 3.9 -2.4
v 0 1.3 0
v 0 3.9 0
v 0.2 1.5 0
v 0.2 3.7 0
v 0.3 1.5 0
v 0.3 3.7 0
v 0.5 1.5 0
v 0.5 3.7 0
v 0.7 1.5 0
v 0.7 3.7 0
v 0.9 1.5 0
v 0.9 3.7 0
v 1.1 1.5 0
v 1.1 3.7 0
v 1.3 1.5 0
v 1.3 3.7 0
v 1.5 1.5 0
v 1.5 3.7 0
v 1.7 1.5 0
v 1.7 3.7 0
v 1.9 1.5 0
v 1.9 3.7 0
v 2.1 1.5 0
v 2.1 3.7 0
v 2.3 1.5 0
v 2.3 3.7 0
v 2.5 1.5 0
v 2.5 3.7 0
v 2.7 1.5 0
v 2.7 3.7 0
v 2.9 1.5 0
v 2.9 3.7 0
v 3.1 1.5 0
v 3.1 3.7 0
v 3.3 1.5 0
v 3.3 3.7 0
v 3.5 1.5 0
v 3.5 3.7 0
v 3.7 1.5 0
v 3.7 3.7 0
v 3.9 1.5 0
v 3.9 3.7 0
v 4.1 1.5 0
v 4.1 3.7 0
v 4.3 1.5 0
v 4.3 3.7 0
v 4.5 1.5 0
v 4.5 3.7 0
v 4.7 1.5 0
v 4.7 3.7 0
v 4.9 1.5 0
v 4.9 3.7 0
v 5.1 1.5 0
v 5.1 3.7 0
v 5.3 1.5 0
v 5.3 3.7 0
v 5.5 1.5 0
v 5.5 3.7 0
v 5.7 1.5 0
v 5.7 3.7 0
v 5.9 1.3 0
v 5.9 3.9 0
v 0.2 1.5 -0.1
v 0.2 3.7 -0.1
v 0.3 1.5 -0.1
v 0.3 3.7 -0.1
v 0.5 1.5 -0.1
v 0.5 3.7 -0.1
v 0.7 1.5 -0.1
v 0.7 3.7 -0.1
v 0.9 1.5 -0.1
v 0.9 3.7 -0.1
v 1.1 1.5 -0.1
v 1.1 3.7 -0.1
v 1.3 1.5 -0.1
v 1.3 3.7 -0.1
v 1.5 1.5 -0.1
v 1.5 3.7 -0.1
v 1.7 1.5 -0.1
v 1.7 3.7 -0.1
v 1.9 1.5 -0.1
v 1.9 3.7 -0.1
v 2.1 1.5 -0.1
v 2.1 3.7 -0.1
v 2.3 1.5 -0.1
v 2.3 3.7 -0.1
v 2.5 1.5 -0.1
v 2.5 3.7 -0.1
v 2.7 1.5 -0.1
v 2.7 3.7 -0.1
v 2.9 1.5 -0.1
v 2.9 3.7 -0.1
v 3.1 1.5 -0.1
v 3.1 3.7 -0.1
v 3.3 1.5 -0.1
v 3.3 3.7 -0.1
v 3.5 1.5 -0.1
v 3.5 3.7 -0.1
v 3.7 1.5 -0.1
v 3.7 3.7 -0.1
v 3.9 1.5 -0.1
v 3.9 3.7 -0.1
v 4.1 1.5 -0.1
v 4.1 3.7 -0.1
v 4.3 1.5 -0.1
v 4.3 3.7 -0.1
v 4.5 1.5 -0.1
v 4.5 3.7 -0.1
v 4.7 1.5 -0.1
v 4.7 3.7 -0.1
v 4.9 1.5 -0.1
v 4.9 3.7 -0.1
v 5.1 1.5 -0.1
v 5.1 3.7 -0.1
v 5.3 1.5 -0.1
v 5.3 3.7 -0.1
v 5.5 1.5 -0.1
v 5.5 3.7 -0.1
v 0 1.5 -0.3
v 0 3.7 -0.3
v 0.1 1.5 -0.3
v 0.1 3.7 -0.3
v 5.8 1.4 -0.3
v 5.8 3.7 -0.3
v 5.9 1.4 -0.3
v 5.9 3.7 -0.3
v 0 1.5 -0.7
v 0 3.7 -0.7
v 0.1 1.5 -0.7
v 0.1 3.7 -0.7
v 5.8 1.4 -0.7
v 5.8 3.7 -0.7
v 5.9 1.4 -0.7
v 5.9 3.7 -0.7
v 0 1.5 -1.1
v 0 3.7 -1.1
v 0.1 1.5 -1.1
v 0.1 3.7 -1.1
v 5.8 1.4 -1.1
v 5.8 3.7 -1.1
v 5.9 1.4 -1.1
v 5.9 3.7 -1.1
v 0 1.5 -1.5
v 0 3.7 -1.5
v 0.1 1.5 -1.5
v 0.1 3.7 -1.5
v 5.8 1.4 -1.5
v 5.8 3.7 -1.5
v 5.9 1.4 -1.5
v 5.9 3.7 -1.5
v 0 1.5 -1.9
v 0 3.7 -1.9
v 0.1 1.5 -1.9
v 0.1 3.7 -1.9
v 5.8 1.4 -1.9
v 5.8 3.7 -1.9
v 5.9 1.4 -1.9
v 5.9 3.7 -1.9
v 0 1.5 -2.2
v 0 3.7 -2.2
v 0.1 1.5 -2.2
v 0.1 3.7 -2.2
v 0.2 1.5 -2.2
v 0.2 3.7 -2.2
v 0.2 3.8 -2.2
v 0.2 3.9 -2.2
v 0.3 1.5 -2.2
v 0.3 3.7 -2.2
v 0.3 3.8 -2.2
v 0.3 3.9 -2.2
v 0.5 1.5 -2.2
v 0.5 3.7 -2.2
v 0.5 3.8 -2.2
v 0.5 3.9 -2.2
v 0.7 3.8 -2.2
v 0.7 3.9 -2.2
v 0.9 3.8 -2.2
v 0.9 3.9 -2.2
v 1.1 3.8 -2.2
v 1.1 3.9 -2.2
v 1.3 3.8 -2.2
v 1.3 3.9 -2.2
v 1.5 3.8 -2.2
v 1.5 3.9 -2.2
v 1.7 3.8 -2.2
v 1.7 3.9 -2.2
v 1.9 3.8 -2.2
v 1.9 3.9 -2.2
v 2.1 3.8 -2.2
v 2.1 3.9 -2.2
v 2.3 3.8 -2.2
v 2.3 3.9 -2.2
v 2.5 3.8 -2.2
v 2.5 3.9 -2.2
v 2.7 3.8 -2.2
v 2.7 3.9 -2.2
v 2.9 3.8 -2.2
v 2.9 3.9 -2.2
v 3.1 3.8 -2.2
v 3.1 3.9 -2.2
v 3.3 3.8 -2.2
v 3.3 3.9 -2.2
v 3.5 3.8 -2.2
v 3.5 3.9 -2.2
v 3.7 3.8 -2.2
v 3.7 3.9 -2.2
v 3.9 3.8 -2.2
v 3.9 3.9 -2.2
v 4.1 3.8 -2.2
v 4.1 3.9 -2.2
v 4.3 3.8 -2.2
v 4.3 3.9 -2.2
v 4.5 3.8 -2.2
v 4.5 3.9 -2.2
v 4.7 3.8 -2.2
v 4.7 3.9 -2.2
v 4.9 3.8 -2.2
v 4.9 3.9 -2.2
v 5.1 3.8 -2.2
v 5.1 3.9 -2.2
v 5.3 3.8 -2.2
v 5.3 3.9 -2.2
v 5.5 1.5 -2.2
v 5.5 3.7 -2.2
v 5.5 3.8 -2.2
v 5.5 3.9 -2.2
v 5.7 1.5 -2.2
v 5.7 3.7 -2.2
v 5.7 3.8 -2.2
v 5.7 3.9 -2.2
v 5.8 1.4 -2.2
v 5.8 3.7 -2.2
v 5.8 3.8 -2.2
v 5.8 3.9 -2.2
v 5.9 1.4 -2.2
v 5.9 3.7 -2.2
v 0 1.5 -0.2
v 0 3.7 -0.2
v 0.1 1.5 -0.2
v 0.1 3.7 -0.2
v 0.2 1.5 -0.2
v 0.2 3.7 -0.2
v 0.2 3.8 -0.2
v 0.2 3.9 -0.2
v 0.3 3.8 -0.2
v 0.3 3.9 -0.2
v 0.5 3.8 -0.2
v 0.5 3.9 -0.2
v 0.7 3.8 -0.2
v 0.7 3.9 -0.2
v 0.9 3.8 -0.2
v 0.9 3.9 -0.2
v 1.1 3.8 -0.2
v 1.1 3.9 -0.2
v 1.3 3.8 -0.2
v 1.3 3.9 -0.2
v 1.5 3.8 -0.2
v 1.5 3.9 -0.2
v 1.7 3.8 -0.2
v 1.7 3.9 -0.2
v 1.9 3.8 -0.2
v 1.9 3.9 -0.2
v 2.1 3.8 -0.2
v 2.1 3.9 -0.2
v 2.3 3.8 -0.2
v 2.3 3.9 -0.2
v 2.5 3.8 -0.2
v 2.5 3.9 -0.2
v 2.7 3.8 -0.2
v 2.7 3.9 -0.2
v 2.9 3.8 -0.2
v 2.9 3.9 -0.2
v 3.1 3.8 -0.2
v 3.1 3.9 -0.2
v 3.3 3.8 -0.2
v 3.3 3.9 -0.2
v 3.5 3.8 -0.2
v 3.5 3.9 -0.2
v 3.7 3.8 -0.2
v 3.7 3.9 -0.2
v 3.9 3.8 -0.2
v 3.9 3.9 -0.2
v 4.1 3.8 -0.2
v 4.1 3.9 -0.2
v 4.3 3.8 -0.2
v 4.3 3.9 -0.2
v 4.5 3.8 -0.2
v 4.5 3.9 -0.2
v 4.7 3.8 -0.2
v 4.7 3.9 -0.2
v 4.9 3.8 -0.2
v 4.9 3.9 -0.2
v 5.1 3.8 -0.2
v 5.1 3.9 -0.2
v 5.3 3.8 -0.2
v 5.3 3.9 -0.2
v 5.5 3.8 -0.2
v 5.5 3.9 -0.2
v 5.7 1.5 -0.2
v 5.7 3.7 -0.2
v 5.7 3.8 -0.2
v 5.7 3.9 -0.2
v 5.8 1.4 -0.2
v 5.8 3.7 -0.2
v 5.8 3.8 -0.2
v 5.8 3.9 -0.2
v 5.9 1.4 -0.2
v 5.9 3.7 -0.2
v 0 1.5 -0.5
v 0 3.7 -0.5
v 0.1 1.5 -0.5
v 0.1 3.7 -0.5
v 5.8 1.4 -0.5
v 5.8 3.7 -0.5
v 5.9 1.4 -0.5
v 5.9 3.7 -0.5
v 0 1.5 -0.9
v 0 3.7 -0.9
v 0.1 1.5 -0.9
v 0.1 3.7 -0.9
v 5.8 1.4 -0.9
v 5.8 3.7 -0.9
v 5.9 1.4 -0.9
v 5.9 3.7 -0.9
v 0 1.5 -1.3
v 0 3.7 -1.3
v 0.1 1.5 -1.3
v 0.1 3.7 -1.3
v 5.8 1.4 -1.3
v 5.8 3.7 -1.3
v 5.9 1.4 -1.3
v 5.9 3.7 -1.3
v 0 1.5 -1.7
v 0 3.7 -1.7
v 0.1 1.5 -1.7
v 0.1 3.7 -1.7
v 5.8 1.4 -1.7
v 5.8 3.7 -1.7
v 5.9 1.4 -1.7
v 5.9 3.7 -1.7
v 0 1.5 -2.1
v 0 3.7 -2.1
v 0.1 1.5 -2.1
v 0.1 3.7 -2.1
v 5.8 1.4 -2.1
v 5.8 3.7 -2.1
v 5.9 1.4 -2.1
v 5.9 3.7 -2.1
v 0.2 1.5 -2.3
v 0.2 3.7 -2.3
v 0.3 1.5 -2.3
v 0.3 3.7 -2.3
v 0.5 1.5 -2.3
v 0.5 3.7 -2.3
v 0.7 1.5 -2.3
v 0.7 3.7 -2.3
v 0.9 1.5 -2.3
v 0.9 3.7 -2.3
v 1.1 1.5 -2.3
v 1.1 3.7 -2.3
v 1.3 1.5 -2.3
v 1.3 3.7 -2.3
v 1.5 1.5 -2.3
v 1.5 3.7 -2.3
v 1.7 1.5 -2.3
v 1.7 3.7 -2.3
v 1.9 1.5 -2.3
v 1.9 3.7 -2.3
v 2.1 1.5 -2.3
v 2.1 3.7 -2.3
v 2.3 1.5 -2.3
v 2.3 3.7 -2.3
v 2.5 1.5 -2.3
v 2.5 3.7 -2.3
v 2.7 1.5 -2.3
v 2.7 3.7 -2.3
v 2.9 1.5 -2.3
v 2.9 3.7 -2.3
v 3.1 1.5 -2.3
v 3.1 3.7 -2.3
v 3.3 1.5 -2.3
v 3.3 3.7 -2.3
v 3.5 1.5 -2.3
v 3.5 3.7 -2.3
v 3.7 1.5 -2.3
v 3.7 3.7 -2.3
v 3.9 1.5 -2.3
v 3.9 3.7 -2.3
v 4.1 1.5 -2.3
v 4.1 3.7 -2.3
v 4.3 1.5 -2.3
v 4.3 3.7 -2.3
v 4.5 1.5 -2.3
v 4.5 3.7 -2.3
v 4.7 1.5 -2.3
v 4.7 3.7 -2.3
v 4.9 1.5 -2.3
v 4.9 3.7 -2.3
v 5.1 1.5 -2.3
v 5.1 3.7 -2.3
v 5.3 1.5 -2.3
v 5.3 3.7 -2.3
v 5.5 1.5 -2.3
v 5.5 3.7 -2.3
v 0 1.3 -2.4
v 0 3.9 -2.4
v 0.2 1.5 -2.4
v 0.2 3.7 -2.4
v 0.3 1.5 -2.4
v 0.3 3.7 -2.4
v 0.5 1.5 -2.4
v 0.5 3.7 -2.4
v 0.7 1.5 -2.4
v 0.7 3.7 -2.4
v 0.9 1.5 -2.4
v 0.9 3.7 -2.4
v 1.1 1.5 -2.4
v 1.1 3.7 -2.4
v 1.3 1.5 -2.4
v 1.3 3.7 -2.4
v 1.5 1.5 -2.4
v 1.5 3.7 -2.4
v 1.7 1.5 -2.4
v 1.7 3.7 -2.4
v 1.9 1.5 -2.4
v 1.9 3.7 -2.4
v 2.1 1.5 -2.4
v 2.1 3.7 -2.4
v 2.3 1.5 -2.4
v 2.3 3.7 -2.4
v 2.5 1.5 -2.4
v 2.5 3.7 -2.4
v 2.7 1.5 -2.4
v 2.7 3.7 -2.4
v 2.9 1.5 -2.4
v 2.9 3.7 -2.4
v 3.1 1.5 -2.4
v 3.1 3.7 -2.4
v 3.3 1.5 -2.4
v 3.3 3.7 -2.4
v 3.5 1.5 -2.4
v 3.5 3.7 -2.4
v 3.7 1.5 -2.4
v 3.7 3.7 -2.4
v 3.9 1.5 -2.4
v 3.9 3.7 -2.4
v 4.1 1.5 -2.4
v 4.1 3.7 -2.4
v 4.3 1.5 -2.4
v 4.3 3.7 -2.4
v 4.5 1.5 -2.4
v 4.5 3.7 -2.4
v 4.7 1.5 -2.4
v 4.7 3.7 -2.4
v 4.9 1.5 -2.4
v 4.9 3.7 -2.4
v 5.1 1.5 -2.4
v 5.1 3.7 -2.4
v 5.3 1.5 -2.4
v 5.3 3.7 -2.4
v 5.5 1.5 -2.4
v 5.5 3.7 -2.4
v 5.7 1.5 -2.4
v 5.7 3.7 -2.4
v 5.9 1.3 -2.4
v 5.9 3.9 -2.4
v 0 1.3 0
v 5.9 1.3 0
v 0 1.3 -2.4
v 5.9 1.3 -2.4
v 0.2 3.7 0
v 0.3 3.7 0
v 0.5 3.7 0
v 0.7 3.7 0
v 0.9 3.7 0
v 1.1 3.7 0
v 1.3 3.7 0
v 1.5 3.7 0
v 1.7 3.7 0
v 1.9 3.7 0
v 2.1 3.7 0
v 2.3 3.7 0
v 2.5 3.7 0
v 2.7 3.7 0
v 2.9 3.7 0
v 3.1 3.7 0
v 3.3 3.7 0
v 3.5 3.7 0
v 3.7 3.7 0
v 3.9 3.7 0
v 4.1 3.7 0
v 4.3 3.7 0
v 4.5 3.7 0
v 4.7 3.7 0
v 4.9 3.7 0
v 5.1 3.7 0
v 5.3 3.7 0
v 5.5 3.7 0
v 0.2 3.7 -0.1
v 0.3 3.7 -0.1
v 0.5 3.7 -0.1
v 0.7 3.7 -0.1
v 0.9 3.7 -0.1
v 1.1 3.7 -0.1
v 1.3 3.7 -0.1
v 1.5 3.7 -0.1
v 1.7 3.7 -0.1
v 1.9 3.7 -0.1
v 2.1 3.7 -0.1
v 2.3 3.7 -0.1
v 2.5 3.7 -0.1
v 2.7 3.7 -0.1
v 2.9 3.7 -0.1
v 3.1 3.7 -0.1
v 3.3 3.7 -0.1
v 3.5 3.7 -0.1
v 3.7 3.7 -0.1
v 3.9 3.7 -0.1
v 4.1 3.7 -0.1
v 4.3 3.7 -0.1
v 4.5 3.7 -0.1
v 4.7 3.7 -0.1
v 4.9 3.7 -0.1
v 5.1 3.7 -0.1
v 5.3 3.7 -0.1
v 5.5 3.7 -0.1
v 0 3.7 -0.2
v 0.1 3.7 -0.2
v 0.2 3.7 -0.2
v 5.7 3.7 -0.2
v 5.8 3.7 -0.2
v 5.9 3.7 -0.2
v 0 3.7 -0.3
v 0.1 3.7 -0.3
v 5.8 3.7 -0.3
v 5.9 3.7 -0.3
v 0 3.7 -0.5
v 0.1 3.7 -0.5
v 5.8 3.7 -0.5
v 5.9 3.7 -0.5
v 0 3.7 -0.7
v 0.1 3.7 -0.7
v 5.8 3.7 -0.7
v 5.9 3.7 -0.7
v 0 3.7 -0.9
v 0.1 3.7 -0.9
v 5.8 3.7 -0.9
v 5.9 3.7 -0.9
v 0 3.7 -1.1
v 0.1 3.7 -1.1
v 5.8 3.7 -1.1
v 5.9 3.7 -1.1
v 0 3.7 -1.3
v 0.1 3.7 -1.3
v 5.8 3.7 -1.3
v 5.9 3.7 -1.3
v 0 3.7 -1.5
v 0.1 3.7 -1.5
v 5.8 3.7 -1.5
v 5.9 3.7 -1.5
v 0 3.7 -1.7
v 0.1 3.7 -1.7
v 5.8 3.7 -1.7
v 5.9 3.7 -1.7
v 0 3.7 -1.9
v 0.1 3.7 -1.9
v 5.8 3.7 -1.9
v 5.9 3.7 -1.9
v 0 3.7 -2.1
v 0.1 3.7 -2.1
v 5.8 3.7 -2.1
v 5.9 3.7 -2.1
v 0 3.7 -2.2
v 0.1 3.7 -2.2
v 0.2 3.7 -2.2
v 0.3 3.7 -2.2
v 0.5 3.7 -2.2
v 5.5 3.7 -2.2
v 5.7 3.7 -2.2
v 5.8 3.7 -2.2
v 5.9 3.7 -2.2
v 0.2 3.7 -2.3
v 0.3 3.7 -2.3
v 0.5 3.7 -2.3
v 0.7 3.7 -2.3
v 0.9 3.7 -2.3
v 1.1 3.7 -2.3
v 1.3 3.7 -2.3
v 1.5 3.7 -2.3
v 1.7 3.7 -2.3
v 1.9 3.7 -2.3
v 2.1 3.7 -2.3
v 2.3 3.7 -2.3
v 2.5 3.7 -2.3
v 2.7 3.7 -2.3
v 2.9 3.7 -2.3
v 3.1 3.7 -2.3
v 3.3 3.7 -2.3
v 3.5 3.7 -2.3
v 3.7 3.7 -2.3
v 3.9 3.7 -2.3
v 4.1 3.7 -2.3
v 4.3 3.7 -2.3
v 4.5 3.7 -2.3
v 4.7 3.7 -2.3
v 4.9 3.7 -2.3
v 5.1 3.7 -2.3
v 5.3 3.7 -2.3
v 5.5 3.7 -2.3
v 0.2 3.7 -2.4
v 0.3 3.7 -2.4
v 0.5 3.7 -2.4
v 0.7 3.7 -2.4
v 0.9 3.7 -2.4
v 1.1 3.7 -2.4
v 1.3 3.7 -2.4
v 1.5 3.7 -2.4
v 1.7 3.7 -2.4
v 1.9 3.7 -2.4
v 2.1 3.7 -2.4
v 2.3 3.7 -2.4
v 2.5 3.7 -2.4
v 2.7 3.7 -2.4
v 2.9 3.7 -2.4
v 3.1 3.7 -2.4
v 3.3 3.7 -2.4
v 3.5 3.7 -2.4
v 3.7 3.7 -2.4
v 3.9 3.7 -2.4
v 4.1 3.7 -2.4
v 4.3 3.7 -2.4
v 4.5 3.7 -2.4
v 4.7 3.7 -2.4
v 4.9 3.7 -2.4
v 5.1 3.7 -2.4
v 5.3 3.7 -2.4
v 5.5 3.7 -2.4
v 5.8 1.4 -0.2
v 5.9 1.4 -0.2
v 5.8 1.4 -0.3
v 5.9 1.4 -0.3
v 5.8 1.4 -0.5
v 5.9 1.4 -0.5
v 5.8 1.4 -0.7
v 5.9 1.4 -0.7
v 5.8 1.4 -0.9
v 5.9 1.4 -0.9
v 5.8 1.4 -1.1
v 5.9 1.4 -1.1
v 5.8 1.4 -1.3
v 5.9 1.4 -1.3
v 5.8 1.4 -1.5
v 5.9 1.4 -1.5
v 5.8 1.4 -1.7
v 5.9 1.4 -1.7
v 5.8 1.4 -1.9
v 5.9 1.4 -1.9
v 5.8 1.4 -2.1
v 5.9 1.4 -2.1
v 5.8 1.4 -2.2
v 5.9 1.4 -2.2
v 0.2 1.5 0
v 0.3 1.5 0
v 0.5 1.5 0
v 0.7 1.5 0
v 0.9 1.5 0
v 1.1 1.5 0
v 1.3 1.5 0
v 1.5 1.5 0
v 1.7 1.5 0
v 1.9 1.5 0
v 2.1 1.5 0
v 2.3 1.5 0
v 2.5 1.5 0
v 2.7 1.5 0
v 2.9 1.5 0
v 3.1 1.5 0
v 3.3 1.5 0
v 3.5 1.5 0
v 3.7 1.5 0
v 3.9 1.5 0
v 4.1 1.5 0
v 4.3 1.5 0
v 4.5 1.5 0
v 4.7 1.5 0
v 4.9 1.5 0
v 5.1 1.5 0
v 5.3 1.5 0
v 5.5 1.5 0
v 0.2 1.5 -0.1
v 0.3 1.5 -0.1
v 0.5 1.5 -0.1
v 0.7 1.5 -0.1
v 0.9 1.5 -0.1
v 1.1 1.5 -0.1
v 1.3 1.5 -0.1
v 1.5 1.5 -0.1
v 1.7 1.5 -0.1
v 1.9 1.5 -0.1
v 2.1 1.5 -0.1
v 2.3 1.5 -0.1
v 2.5 1.5 -0.1
v 2.7 1.5 -0.1
v 2.9 1.5 -0.1
v 3.1 1.5 -0.1
v 3.3 1.5 -0.1
v 3.5 1.5 -0.1
v 3.7 1.5 -0.1
v 3.9 1.5 -0.1
v 4.1 1.5 -0.1
v 4.3 1.5 -0.1
v 4.5 1.5 -0.1
v 4.7 1.5 -0.1
v 4.9 1.5 -0.1
v 5.1 1.5 -0.1
v 5.3 1.5 -0.1
v 5.5 1.5 -0.1
v 0 1.5 -0.2
v 0.1 1.5 -0.2
v 0.2 1.5 -0.2
v 5.7 1.5 -0.2
v 0 1.5 -0.3
v 0.1 1.5 -0.3
v 0 1.5 -0.5
v 0.1 1.5 -0.5
v 0 1.5 -0.7
v 0.1 1.5 -0.7
v 0 1.5 -0.9
v 0.1 1.5 -0.9
v 0 1.5 -1.1
v 0.1 1.5 -1.1
v 0 1.5 -1.3
v 0.1 1.5 -1.3
v 0 1.5 -1.5
v 0.1 1.5 -1.5
v 0 1.5 -1.7
v 0.1 1.5 -1.7
v 0 1.5 -1.9
v 0.1 1.5 -1.9
v 0 1.5 -2.1
v 0.1 1.5 -2.1
v 0 1.5 -2.2
v 0.1 1.5 -2.2
v 0.2 1.5 -2.2
v 0.3 1.5 -2.2
v 0.5 1.5 -2.2
v 5.5 1.5 -2.2
v 5.7 1.5 -2.2
v 0.2 1.5 -2.3
v 0.3 1.5 -2.3
v 0.5 1.5 -2.3
v 0.7 1.5 -2.3
v 0.9 1.5 -2.3
v 1.1 1.5 -2.3
v 1.3 1.5 -2.3
v 1.5 1.5 -2.3
v 1.7 1.5 -2.3
v 1.9 1.5 -2.3
v 2.1 1.5 -2.3
v 2.3 1.5 -2.3
v 2.5 1.5 -2.3
v 2.7 1.5 -2.3
v 2.9 1.5 -2.3
v 3.1 1.5 -2.3
v 3.3 1.5 -2.3
v 3.5 1.5 -2.3
v 3.7 1.5 -2.3
v 3.9 1.5 -2.3
v 4.1 1.5 -2.3
v 4.3 1.5 -2.3
v 4.5 1.5 -2.3
v 4.7 1.5 -2.3
v 4.9 1.5 -2.3
v 5.1 1.5 -2.3
v 5.3 1.5 -2.3
v 5.5 1.5 -2.3
v 0.2 1.5 -2.4
v 0.3 1.5 -2.4
v 0.5 1.5 -2.4
v 0.7 1.5 -2.4
v 0.9 1.5 -2.4
v 1.1 1.5 -2.4
v 1.3 1.5 -2.4
v 1.5 1.5 -2.4
v 1.7 1.5 -2.4
v 1.9 1.5 -2.4
v 2.1 1.5 -2.4
v 2.3 1.5 -2.4
v 2.5 1.5 -2.4
v 2.7 1.5 -2.4
v 2.9 1.5 -2.4
v 3.1 1.5 -2.4
v 3.3 1.5 -2.4
v 3.5 1.5 -2.4
v 3.7 1.5 -2.4
v 3.9 1.5 -2.4
v 4.1 1.5 -2.4
v 4.3 1.5 -2.4
v 4.5 1.5 -2.4
v 4.7 1.5 -2.4
v 4.9 1.5 -2.4
v 5.1 1.5 -2.4
v 5.3 1.5 -2.4
v 5.5 1.5 -2.4
v 0.2 3.8 -0.2
v 0.3 3.8 -0.2
v 0.5 3.8 -0.2
v 0.7 3.8 -0.2
v 0.9 3.8 -0.2
v 1.1 3.8 -0.2
v 1.3 3.8 -0.2
v 1.5 3.8 -0.2
v 1.7 3.8 -0.2
v 1.9 3.8 -0.2
v 2.1 3.8 -0.2
v 2.3 3.8 -0.2
v 2.5 3.8 -0.2
v 2.7 3.8 -0.2
v 2.9 3.8 -0.2
v 3.1 3.8 -0.2
v 3.3 3.8 -0.2
v 3.5 3.8 -0.2
v 3.7 3.8 -0.2
v 3.9 3.8 -0.2
v 4.1 3.8 -0.2
v 4.3 3.8 -0.2
v 4.5 3.8 -0.2
v 4.7 3.8 -0.2
v 4.9 3.8 -0.2
v 5.1 3.8 -0.2
v 5.3 3.8 -0.2
v 5.5 3.8 -0.2
v 5.7 3.8 -0.2
v 5.8 3.8 -0.2
v 0.2 3.8 -2.2
v 0.3 3.8 -2.2
v 0.5 3.8 -2.2
v 0.7 3.8 -2.2
v 0.9 3.8 -2.2
v 1.1 3.8 -2.2
v 1.3 3.8 -2.2
v 1.5 3.8 -2.2
v 1.7 3.8 -2.2
v 1.9 3.8 -2.2
v 2.1 3.8 -2.2
v 2.3 3.8 -2.2
v 2.5 3.8 -2.2
v 2.7 3.8 -2.2
v 2.9 3.8 -2.2
v 3.1 3.8 -2.2
v 3.3 3.8 -2.2
v 3.5 3.8 -2.2
v 3.7 3.8 -2.2
v 3.9 3.8 -2.2
v 4.1 3.8 -2.2
v 4.3 3.8 -2.2
v 4.5 3.8 -2.2
v 4.7 3.8 -2.2
v 4.9 3.8 -2.2
v 5.1 3.8 -2.2
v 5.3 3.8 -2.2
v 5.5 3.8 -2.2
v 5.7 3.8 -2.2
v 5.8 3.8 -2.2
v 0 3.9 0
v 5.9 3.9 0
v 0.2 3.9 -0.2
v 0.3 3.9 -0.2
v 0.5 3.9 -0.2
v 0.7 3.9 -0.2
v 0.9 3.9 -0.2
v 1.1 3.9 -0.2
v 1.3 3.9 -0.2
v 1.5 3.9 -0.2
v 1.7 3.9 -0.2
v 1.9 3.9 -0.2
v 2.1 3.9 -0.2
v 2.3 3.9 -0.2
v 2.5 3.9 -0.2
v 2.7 3.9 -0.2
v 2.9 3.9 -0.2
v 3.1 3.9 -0.2
v 3.3 3.9 -0.2
v 3.5 3.9 -0.2
v 3.7 3.9 -0.2
v 3.9 3.9 -0.2
v 4.1 3.9 -0.2
v 4.3 3.9 -0.2
v 4.5 3.9 -0.2
v 4.7 3.9 -0.2
v 4.9 3.9 -0.2
v 5.1 3.9 -0.2
v 5.3 3.9 -0.2
v 5.5 3.9 -0.2
v 5.7 3.9 -0.2
v 5.8 3.9 -0.2
v 0.2 3.9 -2.2
v 0.3 3.9 -2.2
v 0.5 3.9 -2.2
v 0.7 3.9 -2.2
v 0.9 3.9 -2.2
v 1.1 3.9 -2.2
v 1.3 3.9 -2.2
v 1.5 3.9 -2.2
v 1.7 3.9 -2.2
v 1.9 3.9 -2.2
v 2.1 3.9 -2.2
v 2.3 3.9 -2.2
v 2.5 3.9 -2.2
v 2.7 3.9 -2.2
v 2.9 3.9 -2.2
v 3.1 3.9 -2.2
v 3.3 3.9 -2.2
v 3.5 3.9 -2.2
v 3.7 3.9 -2.2
v 3.9 3.9 -2.2
v 4.1 3.9 -2.2
v 4.3 3.9 -2.2
v 4.5 3.9 -2.2
v 4.7 3.9 -2.2
v 4.9 3.9 -2.2
v 5.1 3.9 -2.2
v 5.3 3.9 -2.2
v 5.5 3.9 -2.2
v 5.7 3.9 -2.2
v 5.8 3.9 -2.2
v 0 3.9 -2.4
v 5.9 3.9 -2.4

# faces
f 3/4/1 2/4/1 1/4/1
f 4/4/1 2/4/1 3/4/1
f 5/4/1 2/4/1 4/4/1
f 6/4/1 2/4/1 5/4/1
f 7/4/1 2/4/1 6/4/1
f 8/4/1 2/4/1 7/4/1
f 9/4/1 2/4/1 8/4/1
f 10/4/1 2/4/1 9/4/1
f 11/4/1 2/4/1 10/4/1
f 12/4/1 2/4/1 11/4/1
f 13/4/1 2/4/1 12/4/1
f 14/4/1 2/4/1 13/4/1
f 15/4/1 3/4/1 1/4/1
f 16/3/1 5/3/1 4/3/1
f 17/3/1 5/3/1 16/3/1
f 18/3/1 7/3/1 6/3/1
f 19/3/1 7/3/1 18/3/1
f 20/3/1 9/3/1 8/3/1
f 21/3/1 9/3/1 20/3/1
f 22/3/1 11/3/1 10/3/1
f 23/3/1 11/3/1 22/3/1
f 24/3/1 13/3/1 12/3/1
f 25/3/1 13/3/1 24/3/1
f 26/4/1 2/4/1 14/4/1
f 27/4/1 25/4/1 24/4/1
f 27/4/1 26/4/1 25/4/1
f 27/4/1 23/4/1 22/4/1
f 27/4/1 15/4/1 1/4/1
f 27/4/1 24/4/1 23/4/1
f 27/4/1 21/4/1 20/4/1
f 27/4/1 22/4/1 21/4/1
f 27/4/1 17/4/1 16/4/1
f 27/4/1 20/4/1 19/4/1
f 27/4/1 19/4/1 18/4/1
f 27/4/1 18/4/1 17/4/1
f 27/4/1 16/4/1 15/4/1
f 28/4/1 2/4/1 26/4/1
f 28/4/1 26/4/1 27/4/1
f 41/3/1 30/3/1 29/3/1
f 42/3/1 30/3/1 41/3/1
f 43/3/1 32/3/1 31/3/1
f 44/3/1 32/3/1 43/3/1
f 45/3/1 34/3/1 33/3/1
f 46/3/1 34/3/1 45/3/1
f 47/3/1 36/3/1 35/3/1
f 48/3/1 36/3/1 47/3/1
f 49/3/1 38/3/1 37/3/1
f 50/3/1 38/3/1 49/3/1
f 51/3/1 40/3/1 39/3/1
f 52/3/1 40/3/1 51/3/1
f 57/3/1 54/3/1 53/3/1
f 58/3/1 54/3/1 57/3/1
f 59/3/1 56/3/1 55/3/1
f 60/3/1 56/3/1 59/3/1
f 63/3/1 62/3/1 61/3/1
f 64/3/1 62/3/1 63/3/1
f 69/3/1 66/3/1 65/3/1
f 70/3/1 66/3/1 69/3/1
f 71/3/1 68/3/1 67/3/1
f 72/3/1 68/3/1 71/3/1
f 75/3/1 74/3/1 73/3/1
f 76/3/1 74/3/1 75/3/1
f 81/3/1 78/3/1 77/3/1
f 82/3/1 78/3/1 81/3/1
f 83/3/1 80/3/1 79/3/1
f 84/3/1 80/3/1 83/3/1
f 87/3/1 86/3/1 85/3/1
f 88/3/1 86/3/1 87/3/1
f 93/3/1 90/3/1 89/3/1
f 94/3/1 90/3/1 93/3/1
f 95/3/1 92/3/1 91/3/1
f 96/3/1 92/3/1 95/3/1
f 99/3/1 98/3/1 97/3/1
f 100/3/1 98/3/1 99/3/1
f 105/3/1 102/3/1 101/3/1
f 106/3/1 102/3/1 105/3/1
f 107/3/1 104/3/1 103/3/1
f 108/3/1 104/3/1 107/3/1
f 111/3/1 110/3/1 109/3/1
f 112/3/1 110/3/1 111/3/1
f 117/3/1 114/3/1 113/3/1
f 118/3/1 114/3/1 117/3/1
f 119/3/1 116/3/1 115/3/1
f 120/3/1 116/3/1 119/3/1
f 123/3/1 122/3/1 121/3/1
f 124/3/1 122/3/1 123/3/1
f 129/3/1 126/3/1 125/3/1
f 130/3/1 126/3/1 129/3/1
f 131/3/1 128/3/1 127/3/1
f 132/3/1 128/3/1 131/3/1
f 135/3/1 134/3/1 133/3/1
f 136/3/1 134/3/1 135/3/1
f 141/3/1 138/3/1 137/3/1
f 142/3/1 138/3/1 141/3/1
f 143/3/1 140/3/1 139/3/1
f 144/3/1 140/3/1 143/3/1
f 147/3/1 146/3/1 145/3/1
f 148/3/1 146/3/1 147/3/1
f 153/3/1 150/3/1 149/3/1
f 154/3/1 150/3/1 153/3/1
f 155/3/1 152/3/1 151/3/1
f 156/3/1 152/3/1 155/3/1
f 159/3/1 158/3/1 157/3/1
f 160/3/1 158/3/1 159/3/1
f 165/3/1 162/3/1 161/3/1
f 166/3/1 162/3/1 165/3/1
f 167/3/1 164/3/1 163/3/1
f 168/3/1 164/3/1 167/3/1
f 171/3/1 170/3/1 169/3/1
f 172/3/1 170/3/1 171/3/1
f 177/3/1 174/3/1 173/3/1
f 178/3/1 174/3/1 177/3/1
f 179/3/1 176/3/1 175/3/1
f 180/3/1 176/3/1 179/3/1
f 183/3/1 182/3/1 181/3/1
f 184/3/1 182/3/1 183/3/1
f 189/3/1 186/3/1 185/3/1
f 190/3/1 186/3/1 189/3/1
f 191/3/1 188/3/1 187/3/1
f 192/3/1 188/3/1 191/3/1
f 195/3/1 194/3/1 193/3/1
f 196/3/1 194/3/1 195/3/1
f 201/3/1 198/3/1 197/3/1
f 202/3/1 198/3/1 201/3/1
f 203/3/1 200/3/1 199/3/1
f 204/3/1 200/3/1 203/3/1
f 207/3/1 206/3/1 205/3/1
f 208/3/1 206/3/1 207/3/1
f 213/3/1 210/3/1 209/3/1
f 214/3/1 210/3/1 213/3/1
f 215/3/1 212/3/1 211/3/1
f 216/3/1 212/3/1 215/3/1
f 219/3/1 218/3/1 217/3/1
f 220/3/1 218/3/1 219/3/1
f 223/3/1 222/3/1 221/3/1
f 224/3/1 222/3/1 223/3/1
f 227/4/1 226/4/1 225/4/1
f 228/4/1 226/4/1 227/4/1
f 229/4/2 230/4/2 235/4/2
f 235/4/2 230/4/2 236/4/2
f 231/3/2 232/3/2 237/3/2
f 237/3/2 232/3/2 238/3/2
f 233/4/2 234/4/2 239/4/2
f 239/4/2 234/4/2 240/4/2
f 241/4/2 242/4/2 243/4/2
f 243/4/2 242/4/2 244/4/2
f 245/3/2 246/3/2 249/3/2
f 249/3/2 246/3/2 250/3/2
f 247/3/2 248/3/2 251/3/2
f 251/3/2 248/3/2 252/3/2
f 253/3/2 254/3/2 255/3/2
f 255/3/2 254/3/2 256/3/2
f 257/3/2 258/3/2 261/3/2
f 261/3/2 258/3/2 262/3/2
f 259/3/2 260/3/2 263/3/2
f 263/3/2 260/3/2 264/3/2
f 265/3/2 266/3/2 267/3/2
f 267/3/2 266/3/2 268/3/2
f 269/3/2 270/3/2 273/3/2
f 273/3/2 270/3/2 274/3/2
f 271/3/2 272/3/2 275/3/2
f 275/3/2 272/3/2 276/3/2
f 277/3/2 278/3/2 279/3/2
f 279/3/2 278/3/2 280/3/2
f 281/3/2 282/3/2 285/3/2
f 285/3/2 282/3/2 286/3/2
f 283/3/2 284/3/2 287/3/2
f 287/3/2 284/3/2 288/3/2
f 289/3/2 290/3/2 291/3/2
f 291/3/2 290/3/2 292/3/2
f 293/3/2 294/3/2 297/3/2
f 297/3/2 294/3/2 298/3/2
f 295/3/2 296/3/2 299/3/2
f 299/3/2 296/3/2 300/3/2
f 301/3/2 302/3/2 303/3/2
f 303/3/2 302/3/2 304/3/2
f 305/3/2 306/3/2 309/3/2
f 309/3/2 306/3/2 310/3/2
f 307/3/2 308/3/2 311/3/2
f 311/3/2 308/3/2 312/3/2
f 313/3/2 314/3/2 315/3/2
f 315/3/2 314/3/2 316/3/2
f 317/3/2 318/3/2 321/3/2
f 321/3/2 318/3/2 322/3/2
f 319/3/2 320/3/2 323/3/2
f 323/3/2 320/3/2 324/3/2
f 325/3/2 326/3/2 327/3/2
f 327/3/2 326/3/2 328/3/2
f 329/3/2 330/3/2 333/3/2
f 333/3/2 330/3/2 334/3/2
f 331/3/2 332/3/2 335/3/2
f 335/3/2 332/3/2 336/3/2
f 337/3/2 338/3/2 339/3/2
f 339/3/2 338/3/2 340/3/2
f 341/3/2 342/3/2 345/3/2
f 345/3/2 342/3/2 346/3/2
f 343/3/2 344/3/2 347/3/2
f 347/3/2 344/3/2 348/3/2
f 349/3/2 350/3/2 351/3/2
f 351/3/2 350/3/2 352/3/2
f 353/3/2 354/3/2 357/3/2
f 357/3/2 354/3/2 358/3/2
f 355/3/2 356/3/2 359/3/2
f 359/3/2 356/3/2 360/3/2
f 361/3/2 362/3/2 363/3/2
f 363/3/2 362/3/2 364/3/2
f 365/3/2 366/3/2 369/3/2
f 369/3/2 366/3/2 370/3/2
f 367/3/2 368/3/2 371/3/2
f 371/3/2 368/3/2 372/3/2
f 373/3/2 374/3/2 375/3/2
f 375/3/2 374/3/2 376/3/2
f 377/3/2 378/3/2 381/3/2
f 381/3/2 378/3/2 382/3/2
f 379/3/2 380/3/2 383/3/2
f 383/3/2 380/3/2 384/3/2
f 385/3/2 386/3/2 387/3/2
f 387/3/2 386/3/2 388/3/2
f 389/3/2 390/3/2 393/3/2
f 393/3/2 390/3/2 394/3/2
f 391/3/2 392/3/2 395/3/2
f 395/3/2 392/3/2 396/3/2
f 397/3/2 398/3/2 399/3/2
f 399/3/2 398/3/2 400/3/2
f 401/3/2 402/3/2 403/3/2
f 403/3/2 402/3/2 404/3/2
f 405/3/2 406/3/2 417/3/2
f 417/3/2 406/3/2 418/3/2
f 407/3/2 408/3/2 419/3/2
f 419/3/2 408/3/2 420/3/2
f 409/3/2 410/3/2 421/3/2
f 421/3/2 410/3/2 422/3/2
f 411/3/2 412/3/2 423/3/2
f 423/3/2 412/3/2 424/3/2
f 413/3/2 414/3/2 425/3/2
f 425/3/2 414/3/2 426/3/2
f 415/3/2 416/3/2 427/3/2
f 427/3/2 416/3/2 428/3/2
f 429/4/2 430/4/2 431/4/2
f 431/4/2 430/4/2 432/4/2
f 432/4/2 430/4/2 433/4/2
f 433/4/2 430/4/2 434/4/2
f 434/4/2 430/4/2 435/4/2
f 435/4/2 430/4/2 436/4/2
f 436/4/2 430/4/2 437/4/2
f 437/4/2 430/4/2 438/4/2
f 438/4/2 430/4/2 439/4/2
f 439/4/2 430/4/2 440/4/2
f 440/4/2 430/4/2 441/4/2
f 441/4/2 430/4/2 442/4/2
f 429/4/2 431/4/2 443/4/2
f 432/3/2 433/3/2 444/3/2
f 444/3/2 433/3/2 445/3/2
f 434/3/2 435/3/2 446/3/2
f 446/3/2 435/3/2 447/3/2
f 436/3/2 437/3/2 448/3/2
f 448/3/2 437/3/2 449/3/2
f 438/3/2 439/3/2 450/3/2
f 450/3/2 439/3/2 451/3/2
f 440/3/2 441/3/2 452/3/2
f 452/3/2 441/3/2 453/3/2
f 442/4/2 430/4/2 454/4/2
f 452/4/2 453/4/2 455/4/2
f 453/4/2 454/4/2 455/4/2
f 450/4/2 451/4/2 455/4/2
f 429/4/2 443/4/2 455/4/2
f 451/4/2 452/4/2 455/4/2
f 448/4/2 449/4/2 455/4/2
f 449/4/2 450/4/2 455/4/2
f 444/4/2 445/4/2 455/4/2
f 447/4/2 448/4/2 455/4/2
f 446/4/2 447/4/2 455/4/2
f 445/4/2 446/4/2 455/4/2
f 443/4/2 444/4/2 455/4/2
f 454/4/2 430/4/2 456/4/2
f 455/4/2 454/4/2 456/4/2
f 459/4/3 458/4/3 457/4/3
f 460/4/3 458/4/3 459/4/3
f 461/4/3 459/4/3 457/4/3
f 462/4/3 458/4/3 460/4/3
f 463/4/3 461/4/3 457/4/3
f 463/3/3 462/3/3 461/3/3
f 464/4/3 458/4/3 462/4/3
f 464/3/3 462/3/3 463/3/3
f 465/4/3 463/4/3 457/4/3
f 466/4/3 458/4/3 464/4/3
f 467/4/3 465/4/3 457/4/3
f 467/3/3 466/3/3 465/3/3
f 468/4/3 458/4/3 466/4/3
f 468/3/3 466/3/3 467/3/3
f 469/4/3 467/4/3 457/4/3
f 470/4/3 458/4/3 468/4/3
f 471/4/3 469/4/3 457/4/3
f 471/3/3 470/3/3 469/3/3
f 472/4/3 458/4/3 470/4/3
f 472/3/3 470/3/3 471/3/3
f 473/4/3 471/4/3 457/4/3
f 474/4/3 458/4/3 472/4/3
f 475/4/3 473/4/3 457/4/3
f 475/3/3 474/3/3 473/3/3
f 476/4/3 458/4/3 474/4/3
f 476/3/3 474/3/3 475/3/3
f 477/4/3 475/4/3 457/4/3
f 478/4/3 458/4/3 476/4/3
f 479/4/3 477/4/3 457/4/3
f 479/3/3 478/3/3 477/3/3
f 480/4/3 458/4/3 478/4/3
f 480/3/3 478/3/3 479/3/3
f 481/4/3 479/4/3 457/4/3
f 482/4/3 458/4/3 480/4/3
f 483/4/3 481/4/3 457/4/3
f 483/3/3 482/3/3 481/3/3
f 484/4/3 458/4/3 482/4/3
f 484/3/3 482/3/3 483/3/3
f 485/4/3 483/4/3 457/4/3
f 486/4/3 458/4/3 484/4/3
f 487/4/3 485/4/3 457/4/3
f 487/3/3 486/3/3 485/3/3
f 488/4/3 458/4/3 486/4/3
f 488/3/3 486/3/3 487/3/3
f 489/4/3 487/4/3 457/4/3
f 490/4/3 458/4/3 488/4/3
f 491/4/3 489/4/3 457/4/3
f 491/3/3 490/3/3 489/3/3
f 492/4/3 458/4/3 490/4/3
f 492/3/3 490/3/3 491/3/3
f 493/4/3 491/4/3 457/4/3
f 494/4/3 458/4/3 492/4/3
f 495/4/3 493/4/3 457/4/3
f 495/3/3 494/3/3 493/3/3
f 496/4/3 458/4/3 494/4/3
f 496/3/3 494/3/3 495/3/3
f 497/4/3 495/4/3 457/4/3
f 498/4/3 458/4/3 496/4/3
f 499/4/3 497/4/3 457/4/3
f 499/3/3 498/3/3 497/3/3
f 500/4/3 458/4/3 498/4/3
f 500/3/3 498/3/3 499/3/3
f 501/4/3 499/4/3 457/4/3
f 502/4/3 458/4/3 500/4/3
f 503/4/3 501/4/3 457/4/3
f 503/3/3 502/3/3 501/3/3
f 504/4/3 458/4/3 502/4/3
f 504/3/3 502/3/3 503/3/3
f 505/4/3 503/4/3 457/4/3
f 506/4/3 458/4/3 504/4/3
f 507/4/3 505/4/3 457/4/3
f 507/3/3 506/3/3 505/3/3
f 508/4/3 458/4/3 506/4/3
f 508/3/3 506/3/3 507/3/3
f 509/4/3 507/4/3 457/4/3
f 510/4/3 458/4/3 508/4/3
f 511/4/3 509/4/3 457/4/3
f 511/3/3 510/3/3 509/3/3
f 512/4/3 458/4/3 510/4/3
f 512/3/3 510/3/3 511/3/3
f 513/4/3 511/4/3 457/4/3
f 514/4/3 458/4/3 512/4/3
f 515/4/3 513/4/3 457/4/3
f 515/3/3 514/3/3 513/3/3
f 516/4/3 458/4/3 514/4/3
f 516/3/3 514/3/3 515/3/3
f 517/4/3 515/4/3 457/4/3
f 517/4/3 516/4/3 515/4/3
f 518/4/3 458/4/3 516/4/3
f 518/4/3 516/4/3 517/4/3
f 521/3/3 520/3/3 519/3/3
f 522/3/3 520/3/3 521/3/3
f 525/3/3 524/3/3 523/3/3
f 526/3/3 524/3/3 525/3/3
f 529/3/3 528/3/3 527/3/3
f 530/3/3 528/3/3 529/3/3
f 533/3/3 532/3/3 531/3/3
f 534/3/3 532/3/3 533/3/3
f 537/3/3 536/3/3 535/3/3
f 538/3/3 536/3/3 537/3/3
f 541/3/3 540/3/3 539/3/3
f 542/3/3 540/3/3 541/3/3
f 545/3/3 544/3/3 543/3/3
f 546/3/3 544/3/3 545/3/3
f 549/3/3 548/3/3 547/3/3
f 550/3/3 548/3/3 549/3/3
f 553/3/3 552/3/3 551/3/3
f 554/3/3 552/3/3 553/3/3
f 557/3/3 556/3/3 555/3/3
f 558/3/3 556/3/3 557/3/3
f 561/3/3 560/3/3 559/3/3
f 562/3/3 560/3/3 561/3/3
f 565/3/3 564/3/3 563/3/3
f 566/3/3 564/3/3 565/3/3
f 569/3/3 568/3/3 567/3/3
f 570/3/3 568/3/3 569/3/3
f 573/3/3 572/3/3 571/3/3
f 574/3/3 572/3/3 573/3/3
f 577/3/3 576/3/3 575/3/3
f 578/3/3 576/3/3 577/3/3
f 581/3/3 580/3/3 579/3/3
f 582/3/3 580/3/3 581/3/3
f 585/3/3 584/3/3 583/3/3
f 586/3/3 584/3/3 585/3/3
f 589/3/3 588/3/3 587/3/3
f 590/3/3 588/3/3 589/3/3
f 593/3/3 592/3/3 591/3/3
f 594/3/3 592/3/3 593/3/3
f 597/3/3 596/3/3 595/3/3
f 598/3/3 596/3/3 597/3/3
f 601/3/3 600/3/3 599/3/3
f 602/3/3 600/3/3 601/3/3
f 605/3/3 604/3/3 603/3/3
f 606/3/3 604/3/3 605/3/3
f 609/3/3 608/3/3 607/3/3
f 610/3/3 608/3/3 609/3/3
f 613/3/3 612/3/3 611/3/3
f 614/3/3 612/3/3 613/3/3
f 617/4/3 616/4/3 615/4/3
f 618/4/3 616/4/3 617/4/3
f 623/3/3 620/3/3 619/3/3
f 624/3/3 620/3/3 623/3/3
f 625/4/3 622/4/3 621/4/3
f 626/4/3 622/4/3 625/4/3
f 627/1/3 624/1/3 623/1/3
f 628/1/3 624/1/3 627/1/3
f 631/4/3 630/4/3 629/4/3
f 632/4/3 630/4/3 631/4/3
f 635/4/3 634/4/3 633/4/3
f 636/4/3 634/4/3 635/4/3
f 639/4/3 638/4/3 637/4/3
f 640/4/3 638/4/3 639/4/3
f 643/4/3 642/4/3 641/4/3
f 644/4/3 642/4/3 643/4/3
f 647/4/3 646/4/3 645/4/3
f 648/4/3 646/4/3 647/4/3
f 651/4/3 650/4/3 649/4/3
f 652/4/3 650/4/3 651/4/3
f 655/4/3 654/4/3 653/4/3
f 656/4/3 654/4/3 655/4/3
f 659/4/3 658/4/3 657/4/3
f 660/4/3 658/4/3 659/4/3
f 663/4/3 662/4/3 661/4/3
f 664/4/3 662/4/3 663/4/3
f 667/4/3 666/4/3 665/4/3
f 668/4/3 666/4/3 667/4/3
f 671/4/3 670/4/3 669/4/3
f 672/4/3 670/4/3 671/4/3
f 675/4/3 674/4/3 673/4/3
f 676/4/3 674/4/3 675/4/3
f 679/3/3 628/3/3 627/3/3
f 680/3/3 628/3/3 679/3/3
f 681/4/3 678/4/3 677/4/3
f 682/4/3 678/4/3 681/4/3
f 683/1/3 680/1/3 679/1/3
f 684/1/3 680/1/3 683/1/3
f 689/4/3 686/4/3 685/4/3
f 690/4/3 686/4/3 689/4/3
f 691/4/3 688/4/3 687/4/3
f 692/4/3 688/4/3 691/4/3
f 693/4/4 694/4/4 695/4/4
f 695/4/4 694/4/4 696/4/4
f 699/4/4 700/4/4 701/4/4
f 701/4/4 700/4/4 702/4/4
f 703/4/4 704/4/4 705/4/4
f 705/4/4 704/4/4 706/4/4
f 707/4/4 708/4/4 709/4/4
f 709/4/4 708/4/4 710/4/4
f 711/4/4 712/4/4 713/4/4
f 713/4/4 712/4/4 714/4/4
f 715/4/4 716/4/4 717/4/4
f 717/4/4 716/4/4 718/4/4
f 719/4/4 720/4/4 721/4/4
f 721/4/4 720/4/4 722/4/4
f 723/4/4 724/4/4 725/4/4
f 725/4/4 724/4/4 726/4/4
f 727/4/4 728/4/4 729/4/4
f 729/4/4 728/4/4 730/4/4
f 731/4/4 732/4/4 733/4/4
f 733/4/4 732/4/4 734/4/4
f 735/4/4 736/4/4 737/4/4
f 737/4/4 736/4/4 738/4/4
f 739/4/4 740/4/4 741/4/4
f 741/4/4 740/4/4 742/4/4
f 743/4/4 744/4/4 745/4/4
f 745/4/4 744/4/4 746/4/4
f 747/4/4 748/4/4 749/4/4
f 749/4/4 748/4/4 750/4/4
f 751/4/4 752/4/4 753/4/4
f 753/4/4 752/4/4 754/4/4
f 697/3/4 698/3/4 755/3/4
f 755/3/4 698/3/4 756/3/4
f 757/4/4 758/4/4 761/4/4
f 761/4/4 758/4/4 762/4/4
f 759/4/4 760/4/4 763/4/4
f 763/4/4 760/4/4 764/4/4
f 765/3/4 766/3/4 767/3/4
f 767/3/4 766/3/4 768/3/4
f 769/3/4 770/3/4 771/3/4
f 771/3/4 770/3/4 772/3/4
f 773/3/4 774/3/4 775/3/4
f 775/3/4 774/3/4 776/3/4
f 777/3/4 778/3/4 779/3/4
f 779/3/4 778/3/4 780/3/4
f 781/3/4 782/3/4 783/3/4
f 783/3/4 782/3/4 784/3/4
f 785/3/4 786/3/4 787/3/4
f 787/3/4 786/3/4 788/3/4
f 789/3/4 790/3/4 791/3/4
f 791/3/4 790/3/4 792/3/4
f 793/3/4 794/3/4 795/3/4
f 795/3/4 794/3/4 796/3/4
f 797/3/4 798/3/4 799/3/4
f 799/3/4 798/3/4 800/3/4
f 801/3/4 802/3/4 803/3/4
f 803/3/4 802/3/4 804/3/4
f 805/3/4 806/3/4 807/3/4
f 807/3/4 806/3/4 808/3/4
f 809/3/4 810/3/4 811/3/4
f 811/3/4 810/3/4 812/3/4
f 813/3/4 814/3/4 815/3/4
f 815/3/4 814/3/4 816/3/4
f 817/3/4 818/3/4 819/3/4
f 819/3/4 818/3/4 820/3/4
f 821/3/4 822/3/4 823/3/4
f 823/3/4 822/3/4 824/3/4
f 825/3/4 826/3/4 827/3/4
f 827/3/4 826/3/4 828/3/4
f 829/3/4 830/3/4 831/3/4
f 831/3/4 830/3/4 832/3/4
f 833/3/4 834/3/4 835/3/4
f 835/3/4 834/3/4 836/3/4
f 837/3/4 838/3/4 839/3/4
f 839/3/4 838/3/4 840/3/4
f 841/3/4 842/3/4 843/3/4
f 843/3/4 842/3/4 844/3/4
f 845/3/4 846/3/4 847/3/4
f 847/3/4 846/3/4 848/3/4
f 849/3/4 850/3/4 851/3/4
f 851/3/4 850/3/4 852/3/4
f 853/3/4 854/3/4 855/3/4
f 855/3/4 854/3/4 856/3/4
f 857/3/4 858/3/4 859/3/4
f 859/3/4 858/3/4 860/3/4
f 861/4/4 862/4/4 863/4/4
f 863/4/4 862/4/4 864/4/4
f 861/4/4 863/4/4 865/4/4
f 864/4/4 862/4/4 866/4/4
f 861/4/4 865/4/4 867/4/4
f 865/3/4 866/3/4 867/3/4
f 866/4/4 862/4/4 868/4/4
f 867/3/4 866/3/4 868/3/4
f 861/4/4 867/4/4 869/4/4
f 868/4/4 862/4/4 870/4/4
f 861/4/4 869/4/4 871/4/4
f 869/3/4 870/3/4 871/3/4
f 870/4/4 862/4/4 872/4/4
f 871/3/4 870/3/4 872/3/4
f 861/4/4 871/4/4 873/4/4
f 872/4/4 862/4/4 874/4/4
f 861/4/4 873/4/4 875/4/4
f 873/3/4 874/3/4 875/3/4
f 874/4/4 862/4/4 876/4/4
f 875/3/4 874/3/4 876/3/4
f 861/4/4 875/4/4 877/4/4
f 876/4/4 862/4/4 878/4/4
f 861/4/4 877/4/4 879/4/4
f 877/3/4 878/3/4 879/3/4
f 878/4/4 862/4/4 880/4/4
f 879/3/4 878/3/4 880/3/4
f 861/4/4 879/4/4 881/4/4
f 880/4/4 862/4/4 882/4/4
f 861/4/4 881/4/4 883/4/4
f 881/3/4 882/3/4 883/3/4
f 882/4/4 862/4/4 884/4/4
f 883/3/4 882/3/4 884/3/4
f 861/4/4 883/4/4 885/4/4
f 884/4/4 862/4/4 886/4/4
f 861/4/4 885/4/4 887/4/4
f 885/3/4 886/3/4 887/3/4
f 886/4/4 862/4/4 888/4/4
f 887/3/4 886/3/4 888/3/4
f 861/4/4 887/4/4 889/4/4
f 888/4/4 862/4/4 890/4/4
f 861/4/4 889/4/4 891/4/4
f 889/3/4 890/3/4 891/3/4
f 890/4/4 862/4/4 892/4/4
f 891/3/4 890/3/4 892/3/4
f 861/4/4 891/4/4 893/4/4
f 892/4/4 862/4/4 894/4/4
f 861/4/4 893/4/4 895/4/4
f 893/3/4 894/3/4 895/3/4
f 894/4/4 862/4/4 896/4/4
f 895/3/4 894/3/4 896/3/4
f 861/4/4 895/4/4 897/4/4
f 896/4/4 862/4/4 898/4/4
f 861/4/4 897/4/4 899/4/4
f 897/3/4 898/3/4 899/3/4
f 898/4/4 862/4/4 900/4/4
f 899/3/4 898/3/4 900/3/4
f 861/4/4 899/4/4 901/4/4
f 900/4/4 862/4/4 902/4/4
f 861/4/4 901/4/4 903/4/4
f 901/3/4 902/3/4 903/3/4
f 902/4/4 862/4/4 904/4/4
f 903/3/4 902/3/4 904/3/4
f 861/4/4 903/4/4 905/4/4
f 904/4/4 862/4/4 906/4/4
f 861/4/4 905/4/4 907/4/4
f 905/3/4 906/3/4 907/3/4
f 906/4/4 862/4/4 908/4/4
f 907/3/4 906/3/4 908/3/4
f 861/4/4 907/4/4 909/4/4
f 908/4/4 862/4/4 910/4/4
f 861/4/4 909/4/4 911/4/4
f 909/3/4 910/3/4 911/3/4
f 910/4/4 862/4/4 912/4/4
f 911/3/4 910/3/4 912/3/4
f 861/4/4 911/4/4 913/4/4
f 912/4/4 862/4/4 914/4/4
f 861/4/4 913/4/4 915/4/4
f 913/3/4 914/3/4 915/3/4
f 914/4/4 862/4/4 916/4/4
f 915/3/4 914/3/4 916/3/4
f 861/4/4 915/4/4 917/4/4
f 916/4/4 862/4/4 918/4/4
f 861/4/4 917/4/4 919/4/4
f 917/3/4 918/3/4 919/3/4
f 918/4/4 862/4/4 920/4/4
f 919/3/4 918/3/4 920/3/4
f 861/4/4 919/4/4 921/4/4
f 919/4/4 920/4/4 921/4/4
f 920/4/4 862/4/4 922/4/4
f 921/4/4 920/4/4 922/4/4
f 925/4/5 924/4/5 923/4/5
f 926/4/5 924/4/5 925/4/5
f 955/4/5 928/4/5 927/4/5
f 956/4/5 928/4/5 955/4/5
f 957/4/5 930/4/5 929/4/5
f 958/4/5 930/4/5 957/4/5
f 959/4/5 932/4/5 931/4/5
f 960/4/5 932/4/5 959/4/5
f 961/4/5 934/4/5 933/4/5
f 962/4/5 934/4/5 961/4/5
f 963/4/5 936/4/5 935/4/5
f 964/4/5 936/4/5 963/4/5
f 965/4/5 938/4/5 937/4/5
f 966/4/5 938/4/5 965/4/5
f 967/4/5 940/4/5 939/4/5
f 968/4/5 940/4/5 967/4/5
f 969/4/5 942/4/5 941/4/5
f 970/4/5 942/4/5 969/4/5
f 971/4/5 944/4/5 943/4/5
f 972/4/5 944/4/5 971/4/5
f 973/4/5 946/4/5 945/4/5
f 974/4/5 946/4/5 973/4/5
f 975/4/5 948/4/5 947/4/5
f 976/4/5 948/4/5 975/4/5
f 977/4/5 950/4/5 949/4/5
f 978/4/5 950/4/5 977/4/5
f 979/4/5 952/4/5 951/4/5
f 980/4/5 952/4/5 979/4/5
f 981/4/5 954/4/5 953/4/5
f 982/4/5 954/4/5 981/4/5
f 989/4/5 984/4/5 983/4/5
f 990/4/5 984/4/5 989/4/5
f 991/4/5 988/4/5 987/4/5
f 992/4/5 988/4/5 991/4/5
f 997/4/5 994/4/5 993/4/5
f 998/4/5 994/4/5 997/4/5
f 999/4/5 996/4/5 995/4/5
f 1000/4/5 996/4/5 999/4/5
f 1005/4/5 1002/4/5 1001/4/5
f 1006/4/5 1002/4/5 1005/4/5
f 1007/4/5 1004/4/5 1003/4/5
f 1008/4/5 1004/4/5 1007/4/5
f 1013/4/5 1010/4/5 1009/4/5
f 1014/4/5 1010/4/5 1013/4/5
f 1015/4/5 1012/4/5 1011/4/5
f 1016/4/5 1012/4/5 1015/4/5
f 1021/4/5 1018/4/5 1017/4/5
f 1022/4/5 1018/4/5 1021/4/5
f 1023/4/5 1020/4/5 1019/4/5
f 1024/4/5 1020/4/5 1023/4/5
f 1029/4/5 1026/4/5 1025/4/5
f 1030/4/5 1026/4/5 1029/4/5
f 1031/3/5 986/3/5 985/3/5
f 1032/3/5 986/3/5 1031/3/5
f 1033/3/5 986/3/5 1032/3/5
f 1034/3/5 986/3/5 1033/3/5
f 1035/3/5 986/3/5 1034/3/5
f 1036/4/5 1028/4/5 1027/4/5
f 1037/4/5 1028/4/5 1036/4/5
f 1066/4/5 1039/4/5 1038/4/5
f 1067/4/5 1039/4/5 1066/4/5
f 1068/4/5 1041/4/5 1040/4/5
f 1069/4/5 1041/4/5 1068/4/5
f 1070/4/5 1043/4/5 1042/4/5
f 1071/4/5 1043/4/5 1070/4/5
f 1072/4/5 1045/4/5 1044/4/5
f 1073/4/5 1045/4/5 1072/4/5
f 1074/4/5 1047/4/5 1046/4/5
f 1075/4/5 1047/4/5 1074/4/5
f 1076/4/5 1049/4/5 1048/4/5
f 1077/4/5 1049/4/5 1076/4/5
f 1078/4/5 1051/4/5 1050/4/5
f 1079/4/5 1051/4/5 1078/4/5
f 1080/4/5 1053/4/5 1052/4/5
f 1081/4/5 1053/4/5 1080/4/5
f 1082/4/5 1055/4/5 1054/4/5
f 1083/4/5 1055/4/5 1082/4/5
f 1084/4/5 1057/4/5 1056/4/5
f 1085/4/5 1057/4/5 1084/4/5
f 1086/4/5 1059/4/5 1058/4/5
f 1087/4/5 1059/4/5 1086/4/5
f 1088/4/5 1061/4/5 1060/4/5
f 1089/4/5 1061/4/5 1088/4/5
f 1090/4/5 1063/4/5 1062/4/5
f 1091/4/5 1063/4/5 1090/4/5
f 1092/4/5 1065/4/5 1064/4/5
f 1093/4/5 1065/4/5 1092/4/5
f 1094/4/6 1095/4/6 1096/4/6
f 1096/4/6 1095/4/6 1097/4/6
f 1098/4/6 1099/4/6 1100/4/6
f 1100/4/6 1099/4/6 1101/4/6
f 1102/4/6 1103/4/6 1104/4/6
f 1104/4/6 1103/4/6 1105/4/6
f 1106/4/6 1107/4/6 1108/4/6
f 1108/4/6 1107/4/6 1109/4/6
f 1110/4/6 1111/4/6 1112/4/6
f 1112/4/6 1111/4/6 1113/4/6
f 1114/4/6 1115/4/6 1116/4/6
f 1116/4/6 1115/4/6 1117/4/6
f 1118/4/6 1119/4/6 1146/4/6
f 1146/4/6 1119/4/6 1147/4/6
f 1120/4/6 1121/4/6 1148/4/6
f 1148/4/6 1121/4/6 1149/4/6
f 1122/4/6 1123/4/6 1150/4/6
f 1150/4/6 1123/4/6 1151/4/6
f 1124/4/6 1125/4/6 1152/4/6
f 1152/4/6 1125/4/6 1153/4/6
f 1126/4/6 1127/4/6 1154/4/6
f 1154/4/6 1127/4/6 1155/4/6
f 1128/4/6 1129/4/6 1156/4/6
f 1156/4/6 1129/4/6 1157/4/6
f 1130/4/6 1131/4/6 1158/4/6
f 1158/4/6 1131/4/6 1159/4/6
f 1132/4/6 1133/4/6 1160/4/6
f 1160/4/6 1133/4/6 1161/4/6
f 1134/4/6 1135/4/6 1162/4/6
f 1162/4/6 1135/4/6 1163/4/6
f 1136/4/6 1137/4/6 1164/4/6
f 1164/4/6 1137/4/6 1165/4/6
f 1138/4/6 1139/4/6 1166/4/6
f 1166/4/6 1139/4/6 1167/4/6
f 1140/4/6 1141/4/6 1168/4/6
f 1168/4/6 1141/4/6 1169/4/6
f 1142/4/6 1143/4/6 1170/4/6
f 1170/4/6 1143/4/6 1171/4/6
f 1144/4/6 1145/4/6 1172/4/6
f 1172/4/6 1145/4/6 1173/4/6
f 1174/4/6 1175/4/6 1178/4/6
f 1178/4/6 1175/4/6 1179/4/6
f 1180/4/6 1181/4/6 1182/4/6
f 1182/4/6 1181/4/6 1183/4/6
f 1184/4/6 1185/4/6 1186/4/6
f 1186/4/6 1185/4/6 1187/4/6
f 1188/4/6 1189/4/6 1190/4/6
f 1190/4/6 1189/4/6 1191/4/6
f 1192/4/6 1193/4/6 1194/4/6
f 1194/4/6 1193/4/6 1195/4/6
f 1196/4/6 1197/4/6 1198/4/6
f 1198/4/6 1197/4/6 1199/4/6
f 1176/4/6 1177/4/6 1200/4/6
f 1200/4/6 1177/4/6 1201/4/6
f 1201/4/6 1177/4/6 1202/4/6
f 1202/4/6 1177/4/6 1203/4/6
f 1203/4/6 1177/4/6 1204/4/6
f 1205/4/6 1206/4/6 1233/4/6
f 1233/4/6 1206/4/6 1234/4/6
f 1207/4/6 1208/4/6 1235/4/6
f 1235/4/6 1208/4/6 1236/4/6
f 1209/4/6 1210/4/6 1237/4/6
f 1237/4/6 1210/4/6 1238/4/6
f 1211/4/6 1212/4/6 1239/4/6
f 1239/4/6 1212/4/6 1240/4/6
f 1213/4/6 1214/4/6 1241/4/6
f 1241/4/6 1214/4/6 1242/4/6
f 1215/4/6 1216/4/6 1243/4/6
f 1243/4/6 1216/4/6 1244/4/6
f 1217/4/6 1218/4/6 1245/4/6
f 1245/4/6 1218/4/6 1246/4/6
f 1219/4/6 1220/4/6 1247/4/6
f 1247/4/6 1220/4/6 1248/4/6
f 1221/4/6 1222/4/6 1249/4/6
f 1249/4/6 1222/4/6 1250/4/6
f 1223/4/6 1224/4/6 1251/4/6
f 1251/4/6 1224/4/6 1252/4/6
f 1225/4/6 1226/4/6 1253/4/6
f 1253/4/6 1226/4/6 1254/4/6
f 1227/4/6 1228/4/6 1255/4/6
f 1255/4/6 1228/4/6 1256/4/6
f 1229/4/6 1230/4/6 1257/4/6
f 1257/4/6 1230/4/6 1258/4/6
f 1231/4/6 1232/4/6 1259/4/6
f 1259/4/6 1232/4/6 1260/4/6
f 1261/3/6 1262/3/6 1291/3/6
f 1291/3/6 1262/3/6 1292/3/6
f 1263/3/6 1264/3/6 1293/3/6
f 1293/3/6 1264/3/6 1294/3/6
f 1265/3/6 1266/3/6 1295/3/6
f 1295/3/6 1266/3/6 1296/3/6
f 1267/3/6 1268/3/6 1297/3/6
f 1297/3/6 1268/3/6 1298/3/6
f 1269/3/6 1270/3/6 1299/3/6
f 1299/3/6 1270/3/6 1300/3/6
f 1271/3/6 1272/3/6 1301/3/6
f 1301/3/6 1272/3/6 1302/3/6
f 1273/3/6 1274/3/6 1303/3/6
f 1303/3/6 1274/3/6 1304/3/6
f 1275/3/6 1276/3/6 1305/3/6
f 1305/3/6 1276/3/6 1306/3/6
f 1277/3/6 1278/3/6 1307/3/6
f 1307/3/6 1278/3/6 1308/3/6
f 1279/3/6 1280/3/6 1309/3/6
f 1309/3/6 1280/3/6 1310/3/6
f 1281/3/6 1282/3/6 1311/3/6
f 1311/3/6 1282/3/6 1312/3/6
f 1283/3/6 1284/3/6 1313/3/6
f 1313/3/6 1284/3/6 1314/3/6
f 1285/3/6 1286/3/6 1315/3/6
f 1315/3/6 1286/3/6 1316/3/6
f 1287/3/6 1288/3/6 1317/3/6
f 1317/3/6 1288/3/6 1318/3/6
f 1289/3/6 1290/3/6 1319/3/6
f 1319/3/6 1290/3/6 1320/3/6
f 1321/4/6 1322/4/6 1323/4/6
f 1323/4/6 1322/4/6 1324/4/6
f 1324/4/6 1322/4/6 1325/4/6
f 1325/4/6 1322/4/6 1326/4/6
f 1326/4/6 1322/4/6 1327/4/6
f 1327/4/6 1322/4/6 1328/4/6
f 1328/4/6 1322/4/6 1329/4/6
f 1329/4/6 1322/4/6 1330/4/6
f 1330/4/6 1322/4/6 1331/4/6
f 1331/4/6 1322/4/6 1332/4/6
f 1332/4/6 1322/4/6 1333/4/6
f 1333/4/6 1322/4/6 1334/4/6
f 1334/4/6 1322/4/6 1335/4/6
f 1335/4/6 1322/4/6 1336/4/6
f 1336/4/6 1322/4/6 1337/4/6
f 1337/4/6 1322/4/6 1338/4/6
f 1338/4/6 1322/4/6 1339/4/6
f 1339/4/6 1322/4/6 1340/4/6
f 1340/4/6 1322/4/6 1341/4/6
f 1341/4/6 1322/4/6 1342/4/6
f 1342/4/6 1322/4/6 1343/4/6
f 1343/4/6 1322/4/6 1344/4/6
f 1344/4/6 1322/4/6 1345/4/6
f 1345/4/6 1322/4/6 1346/4/6
f 1346/4/6 1322/4/6 1347/4/6
f 1347/4/6 1322/4/6 1348/4/6
f 1348/4/6 1322/4/6 1349/4/6
f 1349/4/6 1322/4/6 1350/4/6
f 1350/4/6 1322/4/6 1351/4/6
f 1351/4/6 1322/4/6 1352/4/6
f 1321/4/6 1323/4/6 1353/4/6
f 1324/3/6 1325/3/6 1354/3/6
f 1354/3/6 1325/3/6 1355/3/6
f 1326/3/6 1327/3/6 1356/3/6
f 1356/3/6 1327/3/6 1357/3/6
f 1328/3/6 1329/3/6 1358/3/6
f 1358/3/6 1329/3/6 1359/3/6
f 1330/3/6 1331/3/6 1360/3/6
f 1360/3/6 1331/3/6 1361/3/6
f 1332/3/6 1333/3/6 1362/3/6
f 1362/3/6 1333/3/6 1363/3/6
f 1334/3/6 1335/3/6 1364/3/6
f 1364/3/6 1335/3/6 1365/3/6
f 1336/3/6 1337/3/6 1366/3/6
f 1366/3/6 1337/3/6 1367/3/6
f 1338/3/6 1339/3/6 1368/3/6
f 1368/3/6 1339/3/6 1369/3/6
f 1340/3/6 1341/3/6 1370/3/6
f 1370/3/6 1341/3/6 1371/3/6
f 1342/3/6 1343/3/6 1372/3/6
f 1372/3/6 1343/3/6 1373/3/6
f 1344/3/6 1345/3/6 1374/3/6
f 1374/3/6 1345/3/6 1375/3/6
f 1346/3/6 1347/3/6 1376/3/6
f 1376/3/6 1347/3/6 1377/3/6
f 1348/3/6 1349/3/6 1378/3/6
f 1378/3/6 1349/3/6 1379/3/6
f 1350/3/6 1351/3/6 1380/3/6
f 1380/3/6 1351/3/6 1381/3/6
f 1352/4/6 1322/4/6 1382/4/6
f 1380/4/6 1381/4/6 1383/4/6
f 1381/4/6 1382/4/6 1383/4/6
f 1378/4/6 1379/4/6 1383/4/6
f 1321/4/6 1353/4/6 1383/4/6
f 1379/4/6 1380/4/6 1383/4/6
f 1376/4/6 1377/4/6 1383/4/6
f 1377/4/6 1378/4/6 1383/4/6
f 1354/4/6 1355/4/6 1383/4/6
f 1375/4/6 1376/4/6 1383/4/6
f 1374/4/6 1375/4/6 1383/4/6
f 1373/4/6 1374/4/6 1383/4/6
f 1356/4/6 1357/4/6 1383/4/6
f 1371/4/6 1372/4/6 1383/4/6
f 1372/4/6 1373/4/6 1383/4/6
f 1369/4/6 1370/4/6 1383/4/6
f 1358/4/6 1359/4/6 1383/4/6
f 1367/4/6 1368/4/6 1383/4/6
f 1370/4/6 1371/4/6 1383/4/6
f 1365/4/6 1366/4/6 1383/4/6
f 1360/4/6 1361/4/6 1383/4/6
f 1363/4/6 1364/4/6 1383/4/6
f 1368/4/6 1369/4/6 1383/4/6
f 1361/4/6 1362/4/6 1383/4/6
f 1362/4/6 1363/4/6 1383/4/6
f 1359/4/6 1360/4/6 1383/4/6
f 1366/4/6 1367/4/6 1383/4/6
f 1357/4/6 1358/4/6 1383/4/6
f 1364/4/6 1365/4/6 1383/4/6
f 1355/4/6 1356/4/6 1383/4/6
f 1353/4/6 1354/4/6 1383/4/6
f 1382/4/6 1322/4/6 1384/4/6
f 1383/4/6 1382/4/6 1384/4/6
