# MagicaVoxel @ Ephtracy

# group
o 

# material
mtllib Plain.mtl
usemtl palette

# normals
vn -1 0 0
vn 1 0 0
vn 0 0 1
vn 0 0 -1
vn 0 -1 0
vn 0 1 0

# texcoords
vt 0.0605469 0.5
vt 0.0917969 0.5
vt 0.978516 0.5
vt 0.982422 0.5

# verts
v 0 2 0
v 0 2 -12.6
v 0 2.7 0
v 0 2.7 -12.6
v 0 2.8 0
v 0 2.8 -0.4
v 0 2.8 -0.5
v 0 2.8 -12.1
v 0 2.8 -12.2
v 0 2.8 -12.6
v 0 2.9 0
v 0 2.9 -0.4
v 0 2.9 -0.5
v 0 2.9 -12.1
v 0 2.9 -12.2
v 0 2.9 -12.6
v 12.2 2.8 -0.4
v 12.2 2.8 -0.5
v 12.2 2.8 -12.1
v 12.2 2.8 -12.2
v 12.2 2.9 -0.4
v 12.2 2.9 -0.5
v 12.2 2.9 -12.1
v 12.2 2.9 -12.2
v 12.5 2.1 -0.1
v 12.5 2.1 -12.5
v 12.5 2.4 -0.1
v 12.5 2.4 -0.2
v 12.5 2.7 -0.2
v 12.5 2.7 -12.5
v 0.2 2.1 -0.1
v 0.2 2.1 -12.5
v 0.2 2.4 -0.1
v 0.2 2.4 -0.2
v 0.2 2.7 -0.2
v 0.2 2.7 -12.5
v 0.4 2.8 -0.4
v 0.4 2.8 -0.5
v 0.4 2.8 -12.1
v 0.4 2.8 -12.2
v 0.4 2.9 -0.4
v 0.4 2.9 -0.5
v 0.4 2.9 -12.1
v 0.4 2.9 -12.2
v 12.6 2 0
v 12.6 2 -12.6
v 12.6 2.7 0
v 12.6 2.7 -12.6
v 12.6 2.8 0
v 12.6 2.8 -0.4
v 12.6 2.8 -0.5
v 12.6 2.8 -12.1
v 12.6 2.8 -12.2
v 12.6 2.8 -12.6
v 12.6 2.9 0
v 12.6 2.9 -0.4
v 12.6 2.9 -0.5
v 12.6 2.9 -12.1
v 12.6 2.9 -12.2
v 12.6 2.9 -12.6
v 0 2 0
v 0 2.7 0
v 0 2.8 0
v 0 2.9 0
v 0.4 2.8 0
v 0.4 2.9 0
v 0.5 2.8 0
v 0.5 2.9 0
v 12.1 2.8 0
v 12.1 2.9 0
v 12.2 2.8 0
v 12.2 2.9 0
v 12.6 2 0
v 12.6 2.7 0
v 12.6 2.8 0
v 12.6 2.9 0
v 0.4 2.8 -12.2
v 0.4 2.9 -12.2
v 0.5 2.8 -12.2
v 0.5 2.9 -12.2
v 12.1 2.8 -12.2
v 12.1 2.9 -12.2
v 12.2 2.8 -12.2
v 12.2 2.9 -12.2
v 0.2 2.1 -12.5
v 0.2 2.7 -12.5
v 12.5 2.1 -12.5
v 12.5 2.7 -12.5
v 0.2 2.1 -0.1
v 0.2 2.4 -0.1
v 12.5 2.1 -0.1
v 12.5 2.4 -0.1
v 0.2 2.4 -0.2
v 0.2 2.7 -0.2
v 12.5 2.4 -0.2
v 12.5 2.7 -0.2
v 0.4 2.8 -0.4
v 0.4 2.9 -0.4
v 0.5 2.8 -0.4
v 0.5 2.9 -0.4
v 12.1 2.8 -0.4
v 12.1 2.9 -0.4
v 12.2 2.8 -0.4
v 12.2 2.9 -0.4
v 0 2 -12.6
v 0 2.7 -12.6
v 0 2.8 -12.6
v 0 2.9 -12.6
v 0.4 2.8 -12.6
v 0.4 2.9 -12.6
v 0.5 2.8 -12.6
v 0.5 2.9 -12.6
v 12.1 2.8 -12.6
v 12.1 2.9 -12.6
v 12.2 2.8 -12.6
v 12.2 2.9 -12.6
v 12.6 2 -12.6
v 12.6 2.7 -12.6
v 12.6 2.8 -12.6
v 12.6 2.9 -12.6
v 0 2 0
v 12.6 2 0
v 0 2 -12.6
v 12.6 2 -12.6
v 0.2 2.4 -0.1
v 12.5 2.4 -0.1
v 0.2 2.4 -0.2
v 12.5 2.4 -0.2
v 0.2 2.7 -0.2
v 12.5 2.7 -0.2
v 0.2 2.7 -12.5
v 12.5 2.7 -12.5
v 0.2 2.1 -0.1
v 12.5 2.1 -0.1
v 0.2 2.1 -12.5
v 12.5 2.1 -12.5
v 0.4 2.8 -0.4
v 0.5 2.8 -0.4
v 12.1 2.8 -0.4
v 12.2 2.8 -0.4
v 0.4 2.8 -0.5
v 12.2 2.8 -0.5
v 0.4 2.8 -12.1
v 12.2 2.8 -12.1
v 0.4 2.8 -12.2
v 0.5 2.8 -12.2
v 12.1 2.8 -12.2
v 12.2 2.8 -12.2
v 0 2.9 0
v 0.4 2.9 0
v 0.5 2.9 0
v 12.1 2.9 0
v 12.2 2.9 0
v 12.6 2.9 0
v 0 2.9 -0.4
v 0.4 2.9 -0.4
v 0.5 2.9 -0.4
v 12.1 2.9 -0.4
v 12.2 2.9 -0.4
v 12.6 2.9 -0.4
v 0 2.9 -0.5
v 0.4 2.9 -0.5
v 12.2 2.9 -0.5
v 12.6 2.9 -0.5
v 0 2.9 -12.1
v 0.4 2.9 -12.1
v 12.2 2.9 -12.1
v 12.6 2.9 -12.1
v 0 2.9 -12.2
v 0.4 2.9 -12.2
v 0.5 2.9 -12.2
v 12.1 2.9 -12.2
v 12.2 2.9 -12.2
v 12.6 2.9 -12.2
v 0 2.9 -12.6
v 0.4 2.9 -12.6
v 0.5 2.9 -12.6
v 12.1 2.9 -12.6
v 12.2 2.9 -12.6
v 12.6 2.9 -12.6

# faces
f 3/1/1 2/1/1 1/1/1
f 4/1/1 2/1/1 3/1/1
f 5/3/1 4/3/1 3/3/1
f 6/3/1 4/3/1 5/3/1
f 7/3/1 4/3/1 6/3/1
f 8/3/1 4/3/1 7/3/1
f 9/3/1 4/3/1 8/3/1
f 10/3/1 4/3/1 9/3/1
f 11/2/1 6/2/1 5/2/1
f 12/4/1 7/4/1 6/4/1
f 12/2/1 6/2/1 11/2/1
f 13/2/1 8/2/1 7/2/1
f 13/4/1 7/4/1 12/4/1
f 14/4/1 9/4/1 8/4/1
f 14/2/1 8/2/1 13/2/1
f 15/2/1 10/2/1 9/2/1
f 15/4/1 9/4/1 14/4/1
f 16/2/1 10/2/1 15/2/1
f 21/4/1 18/4/1 17/4/1
f 22/2/1 19/2/1 18/2/1
f 22/4/1 18/4/1 21/4/1
f 23/4/1 20/4/1 19/4/1
f 23/2/1 19/2/1 22/2/1
f 24/4/1 20/4/1 23/4/1
f 27/1/1 26/1/1 25/1/1
f 28/1/1 26/1/1 27/1/1
f 29/1/1 26/1/1 28/1/1
f 30/1/1 26/1/1 29/1/1
f 31/1/2 32/1/2 33/1/2
f 33/1/2 32/1/2 34/1/2
f 34/1/2 32/1/2 35/1/2
f 35/1/2 32/1/2 36/1/2
f 37/4/2 38/4/2 41/4/2
f 38/2/2 39/2/2 42/2/2
f 41/4/2 38/4/2 42/4/2
f 39/4/2 40/4/2 43/4/2
f 42/2/2 39/2/2 43/2/2
f 43/4/2 40/4/2 44/4/2
f 45/1/2 46/1/2 47/1/2
f 47/1/2 46/1/2 48/1/2
f 47/3/2 48/3/2 49/3/2
f 49/3/2 48/3/2 50/3/2
f 50/3/2 48/3/2 51/3/2
f 51/3/2 48/3/2 52/3/2
f 52/3/2 48/3/2 53/3/2
f 53/3/2 48/3/2 54/3/2
f 49/2/2 50/2/2 55/2/2
f 50/4/2 51/4/2 56/4/2
f 55/2/2 50/2/2 56/2/2
f 51/2/2 52/2/2 57/2/2
f 56/4/2 51/4/2 57/4/2
f 52/4/2 53/4/2 58/4/2
f 57/2/2 52/2/2 58/2/2
f 53/2/2 54/2/2 59/2/2
f 58/4/2 53/4/2 59/4/2
f 59/2/2 54/2/2 60/2/2
f 65/3/3 63/3/3 62/3/3
f 65/2/3 64/2/3 63/2/3
f 66/2/3 64/2/3 65/2/3
f 67/3/3 65/3/3 62/3/3
f 67/4/3 66/4/3 65/4/3
f 68/4/3 66/4/3 67/4/3
f 69/3/3 67/3/3 62/3/3
f 69/2/3 68/2/3 67/2/3
f 70/2/3 68/2/3 69/2/3
f 71/3/3 69/3/3 62/3/3
f 71/4/3 70/4/3 69/4/3
f 72/4/3 70/4/3 71/4/3
f 73/1/3 62/1/3 61/1/3
f 74/3/3 71/3/3 62/3/3
f 74/1/3 62/1/3 73/1/3
f 75/2/3 72/2/3 71/2/3
f 75/3/3 71/3/3 74/3/3
f 76/2/3 72/2/3 75/2/3
f 79/4/3 78/4/3 77/4/3
f 80/4/3 78/4/3 79/4/3
f 81/2/3 80/2/3 79/2/3
f 82/2/3 80/2/3 81/2/3
f 83/4/3 82/4/3 81/4/3
f 84/4/3 82/4/3 83/4/3
f 87/1/3 86/1/3 85/1/3
f 88/1/3 86/1/3 87/1/3
f 89/1/4 90/1/4 91/1/4
f 91/1/4 90/1/4 92/1/4
f 93/1/4 94/1/4 95/1/4
f 95/1/4 94/1/4 96/1/4
f 97/4/4 98/4/4 99/4/4
f 99/4/4 98/4/4 100/4/4
f 99/2/4 100/2/4 101/2/4
f 101/2/4 100/2/4 102/2/4
f 101/4/4 102/4/4 103/4/4
f 103/4/4 102/4/4 104/4/4
f 106/3/4 107/3/4 109/3/4
f 107/2/4 108/2/4 109/2/4
f 109/2/4 108/2/4 110/2/4
f 106/3/4 109/3/4 111/3/4
f 109/4/4 110/4/4 111/4/4
f 111/4/4 110/4/4 112/4/4
f 106/3/4 111/3/4 113/3/4
f 111/2/4 112/2/4 113/2/4
f 113/2/4 112/2/4 114/2/4
f 106/3/4 113/3/4 115/3/4
f 113/4/4 114/4/4 115/4/4
f 115/4/4 114/4/4 116/4/4
f 105/1/4 106/1/4 117/1/4
f 106/3/4 115/3/4 118/3/4
f 117/1/4 106/1/4 118/1/4
f 115/2/4 116/2/4 119/2/4
f 118/3/4 115/3/4 119/3/4
f 119/2/4 116/2/4 120/2/4
f 123/1/5 122/1/5 121/1/5
f 124/1/5 122/1/5 123/1/5
f 127/1/5 126/1/5 125/1/5
f 128/1/5 126/1/5 127/1/5
f 131/3/5 130/3/5 129/3/5
f 132/3/5 130/3/5 131/3/5
f 133/1/6 134/1/6 135/1/6
f 135/1/6 134/1/6 136/1/6
f 137/3/6 138/3/6 141/3/6
f 139/3/6 140/3/6 141/3/6
f 138/3/6 139/3/6 141/3/6
f 141/3/6 140/3/6 142/3/6
f 141/3/6 142/3/6 143/3/6
f 143/3/6 142/3/6 144/3/6
f 143/3/6 144/3/6 145/3/6
f 145/3/6 144/3/6 146/3/6
f 146/3/6 144/3/6 147/3/6
f 147/3/6 144/3/6 148/3/6
f 149/2/6 150/2/6 155/2/6
f 150/4/6 151/4/6 156/4/6
f 155/2/6 150/2/6 156/2/6
f 151/2/6 152/2/6 157/2/6
f 156/4/6 151/4/6 157/4/6
f 152/4/6 153/4/6 158/4/6
f 157/2/6 152/2/6 158/2/6
f 153/2/6 154/2/6 159/2/6
f 158/4/6 153/4/6 159/4/6
f 159/2/6 154/2/6 160/2/6
f 155/4/6 156/4/6 161/4/6
f 161/4/6 156/4/6 162/4/6
f 159/4/6 160/4/6 163/4/6
f 163/4/6 160/4/6 164/4/6
f 161/2/6 162/2/6 165/2/6
f 165/2/6 162/2/6 166/2/6
f 163/2/6 164/2/6 167/2/6
f 167/2/6 164/2/6 168/2/6
f 165/4/6 166/4/6 169/4/6
f 169/4/6 166/4/6 170/4/6
f 167/4/6 168/4/6 173/4/6
f 173/4/6 168/4/6 174/4/6
f 169/2/6 170/2/6 175/2/6
f 170/4/6 171/4/6 176/4/6
f 175/2/6 170/2/6 176/2/6
f 171/2/6 172/2/6 177/2/6
f 176/4/6 171/4/6 177/4/6
f 172/4/6 173/4/6 178/4/6
f 177/2/6 172/2/6 178/2/6
f 173/2/6 174/2/6 179/2/6
f 178/4/6 173/4/6 179/4/6
f 179/2/6 174/2/6 180/2/6
