# MagicaVoxel @ Ephtracy

# group
o ladder

# material
mtllib stair.mtl
usemtl palette

# normals
vn -1 0 0
vn 1 0 0
vn 0 0 1
vn 0 0 -1
vn 0 -1 0
vn 0 1 0

# texcoords
vt 0.474609 0.5
vt 0.482422 0.5
vt 0.486328 0.5

# verts
v 0 0.9 0
v 0 0.9 -0.1
v 0 0.9 -0.4
v 0 0.9 -0.5
v 0 1 0
v 0 1 -0.1
v 0 1 -0.4
v 0 1 -0.5
v 0 1.1 -0.1
v 0 1.1 -0.4
v 0 1.2 0
v 0 1.2 -0.5
v 0.1 1.2 0
v 0.1 1.2 -0.1
v 0.1 1.2 -0.4
v 0.1 1.2 -0.5
v 0.1 1.4 -0.1
v 0.1 1.4 -0.4
v 0.1 1.5 0
v 0.1 1.5 -0.5
v 0.2 1.5 0
v 0.2 1.5 -0.1
v 0.2 1.5 -0.4
v 0.2 1.5 -0.5
v 0.2 1.7 -0.1
v 0.2 1.7 -0.4
v 0.2 1.8 0
v 0.2 1.8 -0.5
v 0.3 1.8 0
v 0.3 1.8 -0.1
v 0.3 1.8 -0.4
v 0.3 1.8 -0.5
v 0.3 1.9 0
v 0.3 1.9 -0.1
v 0.3 1.9 -0.4
v 0.3 1.9 -0.5
v 0.3 2 -0.1
v 0.3 2 -0.4
v 0.3 2.1 0
v 0.3 2.1 -0.5
v 0.4 2.1 0
v 0.4 2.1 -0.1
v 0.4 2.1 -0.4
v 0.4 2.1 -0.5
v 0.4 2.3 -0.1
v 0.4 2.3 -0.4
v 0.4 2.4 0
v 0.4 2.4 -0.5
v 0.5 2.4 0
v 0.5 2.4 -0.1
v 0.5 2.4 -0.4
v 0.5 2.4 -0.5
v 0.5 2.6 0
v 0.5 2.6 -0.1
v 0.5 2.6 -0.4
v 0.5 2.6 -0.5
v 0.5 2.7 0
v 0.5 2.7 -0.1
v 0.5 2.7 -0.4
v 0.5 2.7 -0.5
v 0.7 2.3 0
v 0.7 2.3 -0.5
v 0.7 2.4 -0.1
v 0.7 2.4 -0.4
v 0.7 2.6 0
v 0.7 2.6 -0.1
v 0.7 2.6 -0.4
v 0.7 2.6 -0.5
v 0.8 2 0
v 0.8 2 -0.5
v 0.8 2.1 -0.1
v 0.8 2.1 -0.4
v 0.8 2.3 0
v 0.8 2.3 -0.1
v 0.8 2.3 -0.4
v 0.8 2.3 -0.5
v 0.9 1.7 0
v 0.9 1.7 -0.5
v 0.9 1.8 0
v 0.9 1.8 -0.1
v 0.9 1.8 -0.4
v 0.9 1.8 -0.5
v 0.9 1.9 0
v 0.9 1.9 -0.1
v 0.9 1.9 -0.4
v 0.9 1.9 -0.5
v 0.9 2 0
v 0.9 2 -0.1
v 0.9 2 -0.4
v 0.9 2 -0.5
v 1 1.4 0
v 1 1.4 -0.5
v 1 1.5 -0.1
v 1 1.5 -0.4
v 1 1.7 0
v 1 1.7 -0.1
v 1 1.7 -0.4
v 1 1.7 -0.5
v 1.1 1.1 0
v 1.1 1.1 -0.5
v 1.1 1.2 -0.1
v 1.1 1.2 -0.4
v 1.1 1.4 0
v 1.1 1.4 -0.1
v 1.1 1.4 -0.4
v 1.1 1.4 -0.5
v 1.2 0.9 0
v 1.2 0.9 -0.1
v 1.2 0.9 -0.4
v 1.2 0.9 -0.5
v 1.2 1 0
v 1.2 1 -0.1
v 1.2 1 -0.4
v 1.2 1 -0.5
v 1.2 1.1 0
v 1.2 1.1 -0.1
v 1.2 1.1 -0.4
v 1.2 1.1 -0.5
v 0.1 0.9 0
v 0.1 0.9 -0.1
v 0.1 0.9 -0.4
v 0.1 0.9 -0.5
v 0.1 1 0
v 0.1 1 -0.1
v 0.1 1 -0.4
v 0.1 1 -0.5
v 0.1 1.1 0
v 0.1 1.1 -0.1
v 0.1 1.1 -0.4
v 0.1 1.1 -0.5
v 0.2 1.1 0
v 0.2 1.1 -0.5
v 0.2 1.2 -0.1
v 0.2 1.2 -0.4
v 0.2 1.4 0
v 0.2 1.4 -0.1
v 0.2 1.4 -0.4
v 0.2 1.4 -0.5
v 0.3 1.4 0
v 0.3 1.4 -0.5
v 0.3 1.5 -0.1
v 0.3 1.5 -0.4
v 0.3 1.7 0
v 0.3 1.7 -0.1
v 0.3 1.7 -0.4
v 0.3 1.7 -0.5
v 0.4 1.7 0
v 0.4 1.7 -0.5
v 0.4 1.8 0
v 0.4 1.8 -0.1
v 0.4 1.8 -0.4
v 0.4 1.8 -0.5
v 0.4 1.9 0
v 0.4 1.9 -0.1
v 0.4 1.9 -0.4
v 0.4 1.9 -0.5
v 0.4 2 0
v 0.4 2 -0.1
v 0.4 2 -0.4
v 0.4 2 -0.5
v 0.5 2 0
v 0.5 2 -0.5
v 0.5 2.1 -0.1
v 0.5 2.1 -0.4
v 0.5 2.3 0
v 0.5 2.3 -0.1
v 0.5 2.3 -0.4
v 0.5 2.3 -0.5
v 0.6 2.3 0
v 0.6 2.3 -0.5
v 0.6 2.4 -0.1
v 0.6 2.4 -0.4
v 0.6 2.6 0
v 0.6 2.6 -0.1
v 0.6 2.6 -0.4
v 0.6 2.6 -0.5
v 0.8 2.4 0
v 0.8 2.4 -0.1
v 0.8 2.4 -0.4
v 0.8 2.4 -0.5
v 0.8 2.6 0
v 0.8 2.6 -0.1
v 0.8 2.6 -0.4
v 0.8 2.6 -0.5
v 0.8 2.7 0
v 0.8 2.7 -0.1
v 0.8 2.7 -0.4
v 0.8 2.7 -0.5
v 0.9 2.1 0
v 0.9 2.1 -0.1
v 0.9 2.1 -0.4
v 0.9 2.1 -0.5
v 0.9 2.3 -0.1
v 0.9 2.3 -0.4
v 0.9 2.4 0
v 0.9 2.4 -0.5
v 1 1.8 0
v 1 1.8 -0.1
v 1 1.8 -0.4
v 1 1.8 -0.5
v 1 1.9 0
v 1 1.9 -0.1
v 1 1.9 -0.4
v 1 1.9 -0.5
v 1 2 -0.1
v 1 2 -0.4
v 1 2.1 0
v 1 2.1 -0.5
v 1.1 1.5 0
v 1.1 1.5 -0.1
v 1.1 1.5 -0.4
v 1.1 1.5 -0.5
v 1.1 1.7 -0.1
v 1.1 1.7 -0.4
v 1.1 1.8 0
v 1.1 1.8 -0.5
v 1.2 1.2 0
v 1.2 1.2 -0.1
v 1.2 1.2 -0.4
v 1.2 1.2 -0.5
v 1.2 1.4 -0.1
v 1.2 1.4 -0.4
v 1.2 1.5 0
v 1.2 1.5 -0.5
v 1.3 0.9 0
v 1.3 0.9 -0.1
v 1.3 0.9 -0.4
v 1.3 0.9 -0.5
v 1.3 1 0
v 1.3 1 -0.1
v 1.3 1 -0.4
v 1.3 1 -0.5
v 1.3 1.1 -0.1
v 1.3 1.1 -0.4
v 1.3 1.2 0
v 1.3 1.2 -0.5
v 0 0.9 0
v 0 1 0
v 0 1.2 0
v 0.1 0.9 0
v 0.1 1 0
v 0.1 1.1 0
v 0.1 1.2 0
v 0.1 1.5 0
v 0.2 1.1 0
v 0.2 1.4 0
v 0.2 1.5 0
v 0.2 1.8 0
v 0.3 1.4 0
v 0.3 1.7 0
v 0.3 1.8 0
v 0.3 1.9 0
v 0.3 2.1 0
v 0.4 1.7 0
v 0.4 1.8 0
v 0.4 1.9 0
v 0.4 2 0
v 0.4 2.1 0
v 0.4 2.4 0
v 0.5 2 0
v 0.5 2.3 0
v 0.5 2.4 0
v 0.5 2.6 0
v 0.5 2.7 0
v 0.6 2.3 0
v 0.6 2.6 0
v 0.6 2.7 0
v 0.7 2.3 0
v 0.7 2.6 0
v 0.7 2.7 0
v 0.8 2 0
v 0.8 2.3 0
v 0.8 2.4 0
v 0.8 2.6 0
v 0.8 2.7 0
v 0.9 1.7 0
v 0.9 1.8 0
v 0.9 1.9 0
v 0.9 2 0
v 0.9 2.1 0
v 0.9 2.4 0
v 1 1.4 0
v 1 1.7 0
v 1 1.8 0
v 1 1.9 0
v 1 2.1 0
v 1.1 1.1 0
v 1.1 1.4 0
v 1.1 1.5 0
v 1.1 1.8 0
v 1.2 0.9 0
v 1.2 1 0
v 1.2 1.1 0
v 1.2 1.2 0
v 1.2 1.5 0
v 1.3 0.9 0
v 1.3 1 0
v 1.3 1.2 0
v 0 0.9 -0.4
v 0 1 -0.4
v 0 1.1 -0.4
v 0.1 0.9 -0.4
v 0.1 1 -0.4
v 0.1 1.1 -0.4
v 0.1 1.2 -0.4
v 0.1 1.4 -0.4
v 0.2 1.2 -0.4
v 0.2 1.4 -0.4
v 0.2 1.5 -0.4
v 0.2 1.7 -0.4
v 0.3 1.5 -0.4
v 0.3 1.7 -0.4
v 0.3 1.8 -0.4
v 0.3 1.9 -0.4
v 0.3 2 -0.4
v 0.4 1.8 -0.4
v 0.4 1.9 -0.4
v 0.4 2 -0.4
v 0.4 2.1 -0.4
v 0.4 2.3 -0.4
v 0.5 2.1 -0.4
v 0.5 2.3 -0.4
v 0.5 2.4 -0.4
v 0.5 2.6 -0.4
v 0.6 2.4 -0.4
v 0.6 2.6 -0.4
v 0.7 2.4 -0.4
v 0.7 2.6 -0.4
v 0.8 2.1 -0.4
v 0.8 2.3 -0.4
v 0.8 2.4 -0.4
v 0.8 2.6 -0.4
v 0.9 1.8 -0.4
v 0.9 1.9 -0.4
v 0.9 2 -0.4
v 0.9 2.1 -0.4
v 0.9 2.3 -0.4
v 1 1.5 -0.4
v 1 1.7 -0.4
v 1 1.8 -0.4
v 1 1.9 -0.4
v 1 2 -0.4
v 1.1 1.2 -0.4
v 1.1 1.4 -0.4
v 1.1 1.5 -0.4
v 1.1 1.7 -0.4
v 1.2 0.9 -0.4
v 1.2 1 -0.4
v 1.2 1.1 -0.4
v 1.2 1.2 -0.4
v 1.2 1.4 -0.4
v 1.3 0.9 -0.4
v 1.3 1 -0.4
v 1.3 1.1 -0.4
v 0 0.9 -0.1
v 0 1 -0.1
v 0 1.1 -0.1
v 0.1 0.9 -0.1
v 0.1 1 -0.1
v 0.1 1.1 -0.1
v 0.1 1.2 -0.1
v 0.1 1.4 -0.1
v 0.2 1.2 -0.1
v 0.2 1.4 -0.1
v 0.2 1.5 -0.1
v 0.2 1.7 -0.1
v 0.3 1.5 -0.1
v 0.3 1.7 -0.1
v 0.3 1.8 -0.1
v 0.3 1.9 -0.1
v 0.3 2 -0.1
v 0.4 1.8 -0.1
v 0.4 1.9 -0.1
v 0.4 2 -0.1
v 0.4 2.1 -0.1
v 0.4 2.3 -0.1
v 0.5 2.1 -0.1
v 0.5 2.3 -0.1
v 0.5 2.4 -0.1
v 0.5 2.6 -0.1
v 0.6 2.4 -0.1
v 0.6 2.6 -0.1
v 0.7 2.4 -0.1
v 0.7 2.6 -0.1
v 0.8 2.1 -0.1
v 0.8 2.3 -0.1
v 0.8 2.4 -0.1
v 0.8 2.6 -0.1
v 0.9 1.8 -0.1
v 0.9 1.9 -0.1
v 0.9 2 -0.1
v 0.9 2.1 -0.1
v 0.9 2.3 -0.1
v 1 1.5 -0.1
v 1 1.7 -0.1
v 1 1.8 -0.1
v 1 1.9 -0.1
v 1 2 -0.1
v 1.1 1.2 -0.1
v 1.1 1.4 -0.1
v 1.1 1.5 -0.1
v 1.1 1.7 -0.1
v 1.2 0.9 -0.1
v 1.2 1 -0.1
v 1.2 1.1 -0.1
v 1.2 1.2 -0.1
v 1.2 1.4 -0.1
v 1.3 0.9 -0.1
v 1.3 1 -0.1
v 1.3 1.1 -0.1
v 0 0.9 -0.5
v 0 1 -0.5
v 0 1.2 -0.5
v 0.1 0.9 -0.5
v 0.1 1 -0.5
v 0.1 1.1 -0.5
v 0.1 1.2 -0.5
v 0.1 1.5 -0.5
v 0.2 1.1 -0.5
v 0.2 1.4 -0.5
v 0.2 1.5 -0.5
v 0.2 1.8 -0.5
v 0.3 1.4 -0.5
v 0.3 1.7 -0.5
v 0.3 1.8 -0.5
v 0.3 1.9 -0.5
v 0.3 2.1 -0.5
v 0.4 1.7 -0.5
v 0.4 1.8 -0.5
v 0.4 1.9 -0.5
v 0.4 2 -0.5
v 0.4 2.1 -0.5
v 0.4 2.4 -0.5
v 0.5 2 -0.5
v 0.5 2.3 -0.5
v 0.5 2.4 -0.5
v 0.5 2.6 -0.5
v 0.5 2.7 -0.5
v 0.6 2.3 -0.5
v 0.6 2.6 -0.5
v 0.6 2.7 -0.5
v 0.7 2.3 -0.5
v 0.7 2.6 -0.5
v 0.7 2.7 -0.5
v 0.8 2 -0.5
v 0.8 2.3 -0.5
v 0.8 2.4 -0.5
v 0.8 2.6 -0.5
v 0.8 2.7 -0.5
v 0.9 1.7 -0.5
v 0.9 1.8 -0.5
v 0.9 1.9 -0.5
v 0.9 2 -0.5
v 0.9 2.1 -0.5
v 0.9 2.4 -0.5
v 1 1.4 -0.5
v 1 1.7 -0.5
v 1 1.8 -0.5
v 1 1.9 -0.5
v 1 2.1 -0.5
v 1.1 1.1 -0.5
v 1.1 1.4 -0.5
v 1.1 1.5 -0.5
v 1.1 1.8 -0.5
v 1.2 0.9 -0.5
v 1.2 1 -0.5
v 1.2 1.1 -0.5
v 1.2 1.2 -0.5
v 1.2 1.5 -0.5
v 1.3 0.9 -0.5
v 1.3 1 -0.5
v 1.3 1.2 -0.5
v 0 0.9 0
v 0.1 0.9 0
v 1.2 0.9 0
v 1.3 0.9 0
v 0 0.9 -0.1
v 0.1 0.9 -0.1
v 1.2 0.9 -0.1
v 1.3 0.9 -0.1
v 0 0.9 -0.4
v 0.1 0.9 -0.4
v 1.2 0.9 -0.4
v 1.3 0.9 -0.4
v 0 0.9 -0.5
v 0.1 0.9 -0.5
v 1.2 0.9 -0.5
v 1.3 0.9 -0.5
v 0.1 1.1 0
v 0.2 1.1 0
v 1.1 1.1 0
v 1.2 1.1 0
v 0 1.1 -0.1
v 0.1 1.1 -0.1
v 1.2 1.1 -0.1
v 1.3 1.1 -0.1
v 0 1.1 -0.4
v 0.1 1.1 -0.4
v 1.2 1.1 -0.4
v 1.3 1.1 -0.4
v 0.1 1.1 -0.5
v 0.2 1.1 -0.5
v 1.1 1.1 -0.5
v 1.2 1.1 -0.5
v 0.2 1.4 0
v 0.3 1.4 0
v 1 1.4 0
v 1.1 1.4 0
v 0.1 1.4 -0.1
v 0.2 1.4 -0.1
v 1.1 1.4 -0.1
v 1.2 1.4 -0.1
v 0.1 1.4 -0.4
v 0.2 1.4 -0.4
v 1.1 1.4 -0.4
v 1.2 1.4 -0.4
v 0.2 1.4 -0.5
v 0.3 1.4 -0.5
v 1 1.4 -0.5
v 1.1 1.4 -0.5
v 0.3 1.7 0
v 0.4 1.7 0
v 0.9 1.7 0
v 1 1.7 0
v 0.2 1.7 -0.1
v 0.3 1.7 -0.1
v 1 1.7 -0.1
v 1.1 1.7 -0.1
v 0.2 1.7 -0.4
v 0.3 1.7 -0.4
v 1 1.7 -0.4
v 1.1 1.7 -0.4
v 0.3 1.7 -0.5
v 0.4 1.7 -0.5
v 0.9 1.7 -0.5
v 1 1.7 -0.5
v 0.4 1.8 0
v 0.9 1.8 0
v 0.4 1.8 -0.1
v 0.9 1.8 -0.1
v 0.4 1.8 -0.4
v 0.9 1.8 -0.4
v 0.4 1.8 -0.5
v 0.9 1.8 -0.5
v 0.4 2 0
v 0.5 2 0
v 0.8 2 0
v 0.9 2 0
v 0.3 2 -0.1
v 0.4 2 -0.1
v 0.9 2 -0.1
v 1 2 -0.1
v 0.3 2 -0.4
v 0.4 2 -0.4
v 0.9 2 -0.4
v 1 2 -0.4
v 0.4 2 -0.5
v 0.5 2 -0.5
v 0.8 2 -0.5
v 0.9 2 -0.5
v 0.5 2.3 0
v 0.6 2.3 0
v 0.7 2.3 0
v 0.8 2.3 0
v 0.4 2.3 -0.1
v 0.5 2.3 -0.1
v 0.8 2.3 -0.1
v 0.9 2.3 -0.1
v 0.4 2.3 -0.4
v 0.5 2.3 -0.4
v 0.8 2.3 -0.4
v 0.9 2.3 -0.4
v 0.5 2.3 -0.5
v 0.6 2.3 -0.5
v 0.7 2.3 -0.5
v 0.8 2.3 -0.5
v 0.6 2.6 0
v 0.7 2.6 0
v 0.5 2.6 -0.1
v 0.6 2.6 -0.1
v 0.7 2.6 -0.1
v 0.8 2.6 -0.1
v 0.5 2.6 -0.4
v 0.6 2.6 -0.4
v 0.7 2.6 -0.4
v 0.8 2.6 -0.4
v 0.6 2.6 -0.5
v 0.7 2.6 -0.5
v 0 1.2 0
v 0.1 1.2 0
v 1.2 1.2 0
v 1.3 1.2 0
v 0.1 1.2 -0.1
v 0.2 1.2 -0.1
v 1.1 1.2 -0.1
v 1.2 1.2 -0.1
v 0.1 1.2 -0.4
v 0.2 1.2 -0.4
v 1.1 1.2 -0.4
v 1.2 1.2 -0.4
v 0 1.2 -0.5
v 0.1 1.2 -0.5
v 1.2 1.2 -0.5
v 1.3 1.2 -0.5
v 0.1 1.5 0
v 0.2 1.5 0
v 1.1 1.5 0
v 1.2 1.5 0
v 0.2 1.5 -0.1
v 0.3 1.5 -0.1
v 1 1.5 -0.1
v 1.1 1.5 -0.1
v 0.2 1.5 -0.4
v 0.3 1.5 -0.4
v 1 1.5 -0.4
v 1.1 1.5 -0.4
v 0.1 1.5 -0.5
v 0.2 1.5 -0.5
v 1.1 1.5 -0.5
v 1.2 1.5 -0.5
v 0.2 1.8 0
v 0.3 1.8 0
v 1 1.8 0
v 1.1 1.8 0
v 0.3 1.8 -0.1
v 0.4 1.8 -0.1
v 0.9 1.8 -0.1
v 1 1.8 -0.1
v 0.3 1.8 -0.4
v 0.4 1.8 -0.4
v 0.9 1.8 -0.4
v 1 1.8 -0.4
v 0.2 1.8 -0.5
v 0.3 1.8 -0.5
v 1 1.8 -0.5
v 1.1 1.8 -0.5
v 0.4 1.9 0
v 0.9 1.9 0
v 0.4 1.9 -0.1
v 0.9 1.9 -0.1
v 0.4 1.9 -0.4
v 0.9 1.9 -0.4
v 0.4 1.9 -0.5
v 0.9 1.9 -0.5
v 0.3 2.1 0
v 0.4 2.1 0
v 0.9 2.1 0
v 1 2.1 0
v 0.4 2.1 -0.1
v 0.5 2.1 -0.1
v 0.8 2.1 -0.1
v 0.9 2.1 -0.1
v 0.4 2.1 -0.4
v 0.5 2.1 -0.4
v 0.8 2.1 -0.4
v 0.9 2.1 -0.4
v 0.3 2.1 -0.5
v 0.4 2.1 -0.5
v 0.9 2.1 -0.5
v 1 2.1 -0.5
v 0.4 2.4 0
v 0.5 2.4 0
v 0.8 2.4 0
v 0.9 2.4 0
v 0.5 2.4 -0.1
v 0.6 2.4 -0.1
v 0.7 2.4 -0.1
v 0.8 2.4 -0.1
v 0.5 2.4 -0.4
v 0.6 2.4 -0.4
v 0.7 2.4 -0.4
v 0.8 2.4 -0.4
v 0.4 2.4 -0.5
v 0.5 2.4 -0.5
v 0.8 2.4 -0.5
v 0.9 2.4 -0.5
v 0.5 2.7 0
v 0.6 2.7 0
v 0.7 2.7 0
v 0.8 2.7 0
v 0.5 2.7 -0.1
v 0.6 2.7 -0.1
v 0.7 2.7 -0.1
v 0.8 2.7 -0.1
v 0.5 2.7 -0.4
v 0.6 2.7 -0.4
v 0.7 2.7 -0.4
v 0.8 2.7 -0.4
v 0.5 2.7 -0.5
v 0.6 2.7 -0.5
v 0.7 2.7 -0.5
v 0.8 2.7 -0.5

# faces
f 5/1/1 2/1/1 1/1/1
f 6/1/1 2/1/1 5/1/1
f 7/1/1 4/1/1 3/1/1
f 8/1/1 4/1/1 7/1/1
f 9/2/1 6/2/1 5/2/1
f 10/2/1 8/2/1 7/2/1
f 11/2/1 9/2/1 5/2/1
f 11/2/1 10/2/1 9/2/1
f 12/2/1 8/2/1 10/2/1
f 12/2/1 10/2/1 11/2/1
f 17/2/1 14/2/1 13/2/1
f 18/2/1 16/2/1 15/2/1
f 19/2/1 17/2/1 13/2/1
f 19/2/1 18/2/1 17/2/1
f 20/2/1 16/2/1 18/2/1
f 20/2/1 18/2/1 19/2/1
f 25/2/1 22/2/1 21/2/1
f 26/2/1 24/2/1 23/2/1
f 27/2/1 25/2/1 21/2/1
f 27/2/1 26/2/1 25/2/1
f 28/2/1 24/2/1 26/2/1
f 28/2/1 26/2/1 27/2/1
f 33/1/1 30/1/1 29/1/1
f 34/1/1 30/1/1 33/1/1
f 35/1/1 32/1/1 31/1/1
f 36/1/1 32/1/1 35/1/1
f 37/2/1 34/2/1 33/2/1
f 38/2/1 36/2/1 35/2/1
f 39/2/1 37/2/1 33/2/1
f 39/2/1 38/2/1 37/2/1
f 40/2/1 36/2/1 38/2/1
f 40/2/1 38/2/1 39/2/1
f 45/2/1 42/2/1 41/2/1
f 46/2/1 44/2/1 43/2/1
f 47/2/1 45/2/1 41/2/1
f 47/2/1 46/2/1 45/2/1
f 48/2/1 44/2/1 46/2/1
f 48/2/1 46/2/1 47/2/1
f 53/2/1 50/2/1 49/2/1
f 54/2/1 50/2/1 53/2/1
f 55/2/1 52/2/1 51/2/1
f 56/2/1 52/2/1 55/2/1
f 57/1/1 54/1/1 53/1/1
f 58/2/1 55/2/1 54/2/1
f 58/1/1 54/1/1 57/1/1
f 59/1/1 56/1/1 55/1/1
f 59/2/1 55/2/1 58/2/1
f 60/1/1 56/1/1 59/1/1
f 63/2/1 62/2/1 61/2/1
f 64/2/1 62/2/1 63/2/1
f 65/2/1 63/2/1 61/2/1
f 66/2/1 63/2/1 65/2/1
f 67/2/1 62/2/1 64/2/1
f 68/2/1 62/2/1 67/2/1
f 71/2/1 70/2/1 69/2/1
f 72/2/1 70/2/1 71/2/1
f 73/2/1 71/2/1 69/2/1
f 74/2/1 71/2/1 73/2/1
f 75/2/1 70/2/1 72/2/1
f 76/2/1 70/2/1 75/2/1
f 79/2/1 78/2/1 77/2/1
f 80/2/1 78/2/1 79/2/1
f 81/2/1 78/2/1 80/2/1
f 82/2/1 78/2/1 81/2/1
f 87/2/1 84/2/1 83/2/1
f 88/2/1 84/2/1 87/2/1
f 89/2/1 86/2/1 85/2/1
f 90/2/1 86/2/1 89/2/1
f 93/2/1 92/2/1 91/2/1
f 94/2/1 92/2/1 93/2/1
f 95/2/1 93/2/1 91/2/1
f 96/2/1 93/2/1 95/2/1
f 97/2/1 92/2/1 94/2/1
f 98/2/1 92/2/1 97/2/1
f 101/2/1 100/2/1 99/2/1
f 102/2/1 100/2/1 101/2/1
f 103/2/1 101/2/1 99/2/1
f 104/2/1 101/2/1 103/2/1
f 105/2/1 100/2/1 102/2/1
f 106/2/1 100/2/1 105/2/1
f 111/1/1 108/1/1 107/1/1
f 112/1/1 108/1/1 111/1/1
f 113/1/1 110/1/1 109/1/1
f 114/1/1 110/1/1 113/1/1
f 115/2/1 112/2/1 111/2/1
f 116/2/1 112/2/1 115/2/1
f 117/2/1 114/2/1 113/2/1
f 118/2/1 114/2/1 117/2/1
f 119/1/2 120/1/2 123/1/2
f 123/1/2 120/1/2 124/1/2
f 121/1/2 122/1/2 125/1/2
f 125/1/2 122/1/2 126/1/2
f 123/2/2 124/2/2 127/2/2
f 127/2/2 124/2/2 128/2/2
f 125/2/2 126/2/2 129/2/2
f 129/2/2 126/2/2 130/2/2
f 131/2/2 132/2/2 133/2/2
f 133/2/2 132/2/2 134/2/2
f 131/2/2 133/2/2 135/2/2
f 135/2/2 133/2/2 136/2/2
f 134/2/2 132/2/2 137/2/2
f 137/2/2 132/2/2 138/2/2
f 139/2/2 140/2/2 141/2/2
f 141/2/2 140/2/2 142/2/2
f 139/2/2 141/2/2 143/2/2
f 143/2/2 141/2/2 144/2/2
f 142/2/2 140/2/2 145/2/2
f 145/2/2 140/2/2 146/2/2
f 147/2/2 148/2/2 149/2/2
f 149/2/2 148/2/2 150/2/2
f 150/2/2 148/2/2 151/2/2
f 151/2/2 148/2/2 152/2/2
f 153/2/2 154/2/2 157/2/2
f 157/2/2 154/2/2 158/2/2
f 155/2/2 156/2/2 159/2/2
f 159/2/2 156/2/2 160/2/2
f 161/2/2 162/2/2 163/2/2
f 163/2/2 162/2/2 164/2/2
f 161/2/2 163/2/2 165/2/2
f 165/2/2 163/2/2 166/2/2
f 164/2/2 162/2/2 167/2/2
f 167/2/2 162/2/2 168/2/2
f 169/2/2 170/2/2 171/2/2
f 171/2/2 170/2/2 172/2/2
f 169/2/2 171/2/2 173/2/2
f 173/2/2 171/2/2 174/2/2
f 172/2/2 170/2/2 175/2/2
f 175/2/2 170/2/2 176/2/2
f 177/2/2 178/2/2 181/2/2
f 181/2/2 178/2/2 182/2/2
f 179/2/2 180/2/2 183/2/2
f 183/2/2 180/2/2 184/2/2
f 181/1/2 182/1/2 185/1/2
f 182/2/2 183/2/2 186/2/2
f 185/1/2 182/1/2 186/1/2
f 183/1/2 184/1/2 187/1/2
f 186/2/2 183/2/2 187/2/2
f 187/1/2 184/1/2 188/1/2
f 189/2/2 190/2/2 193/2/2
f 191/2/2 192/2/2 194/2/2
f 189/2/2 193/2/2 195/2/2
f 193/2/2 194/2/2 195/2/2
f 194/2/2 192/2/2 196/2/2
f 195/2/2 194/2/2 196/2/2
f 197/1/2 198/1/2 201/1/2
f 201/1/2 198/1/2 202/1/2
f 199/1/2 200/1/2 203/1/2
f 203/1/2 200/1/2 204/1/2
f 201/2/2 202/2/2 205/2/2
f 203/2/2 204/2/2 206/2/2
f 201/2/2 205/2/2 207/2/2
f 205/2/2 206/2/2 207/2/2
f 206/2/2 204/2/2 208/2/2
f 207/2/2 206/2/2 208/2/2
f 209/2/2 210/2/2 213/2/2
f 211/2/2 212/2/2 214/2/2
f 209/2/2 213/2/2 215/2/2
f 213/2/2 214/2/2 215/2/2
f 214/2/2 212/2/2 216/2/2
f 215/2/2 214/2/2 216/2/2
f 217/2/2 218/2/2 221/2/2
f 219/2/2 220/2/2 222/2/2
f 217/2/2 221/2/2 223/2/2
f 221/2/2 222/2/2 223/2/2
f 222/2/2 220/2/2 224/2/2
f 223/2/2 222/2/2 224/2/2
f 225/1/2 226/1/2 229/1/2
f 229/1/2 226/1/2 230/1/2
f 227/1/2 228/1/2 231/1/2
f 231/1/2 228/1/2 232/1/2
f 229/2/2 230/2/2 233/2/2
f 231/2/2 232/2/2 234/2/2
f 229/2/2 233/2/2 235/2/2
f 233/2/2 234/2/2 235/2/2
f 234/2/2 232/2/2 236/2/2
f 235/2/2 234/2/2 236/2/2
f 240/1/3 238/1/3 237/1/3
f 241/2/3 239/2/3 238/2/3
f 241/1/3 238/1/3 240/1/3
f 242/2/3 239/2/3 241/2/3
f 243/2/3 239/2/3 242/2/3
f 245/2/3 244/2/3 243/2/3
f 245/2/3 243/2/3 242/2/3
f 246/2/3 244/2/3 245/2/3
f 247/2/3 244/2/3 246/2/3
f 249/2/3 248/2/3 247/2/3
f 249/2/3 247/2/3 246/2/3
f 250/2/3 248/2/3 249/2/3
f 251/2/3 248/2/3 250/2/3
f 254/2/3 251/2/3 250/2/3
f 255/1/3 252/1/3 251/1/3
f 255/2/3 251/2/3 254/2/3
f 256/2/3 253/2/3 252/2/3
f 256/1/3 252/1/3 255/1/3
f 257/2/3 253/2/3 256/2/3
f 258/2/3 253/2/3 257/2/3
f 260/2/3 259/2/3 258/2/3
f 260/2/3 258/2/3 257/2/3
f 261/2/3 259/2/3 260/2/3
f 262/2/3 259/2/3 261/2/3
f 265/2/3 262/2/3 261/2/3
f 265/2/3 263/2/3 262/2/3
f 266/1/3 264/1/3 263/1/3
f 266/2/3 263/2/3 265/2/3
f 267/1/3 264/1/3 266/1/3
f 269/2/3 267/2/3 266/2/3
f 270/2/3 267/2/3 269/2/3
f 272/2/3 269/2/3 268/2/3
f 273/2/3 269/2/3 272/2/3
f 274/1/3 270/1/3 269/1/3
f 274/2/3 269/2/3 273/2/3
f 275/1/3 270/1/3 274/1/3
f 277/3/3 256/3/3 255/3/3
f 278/3/3 256/3/3 277/3/3
f 279/2/3 273/2/3 272/2/3
f 279/2/3 272/2/3 271/2/3
f 280/2/3 273/2/3 279/2/3
f 281/2/3 273/2/3 280/2/3
f 283/2/3 277/2/3 276/2/3
f 284/1/3 278/1/3 277/1/3
f 284/2/3 277/2/3 283/2/3
f 285/2/3 279/2/3 278/2/3
f 285/1/3 278/1/3 284/1/3
f 285/2/3 280/2/3 279/2/3
f 286/2/3 280/2/3 285/2/3
f 288/2/3 283/2/3 282/2/3
f 288/2/3 284/2/3 283/2/3
f 289/2/3 284/2/3 288/2/3
f 290/2/3 284/2/3 289/2/3
f 293/2/3 288/2/3 287/2/3
f 293/2/3 289/2/3 288/2/3
f 294/2/3 289/2/3 293/2/3
f 295/2/3 289/2/3 294/2/3
f 296/1/3 292/1/3 291/1/3
f 297/2/3 293/2/3 292/2/3
f 297/1/3 292/1/3 296/1/3
f 297/2/3 294/2/3 293/2/3
f 298/2/3 294/2/3 297/2/3
f 302/1/3 300/1/3 299/1/3
f 303/2/3 301/2/3 300/2/3
f 303/1/3 300/1/3 302/1/3
f 304/2/3 301/2/3 303/2/3
f 307/2/3 306/2/3 305/2/3
f 308/2/3 306/2/3 307/2/3
f 311/2/3 310/2/3 309/2/3
f 312/2/3 310/2/3 311/2/3
f 316/1/3 314/1/3 313/1/3
f 317/2/3 315/2/3 314/2/3
f 317/1/3 314/1/3 316/1/3
f 318/2/3 315/2/3 317/2/3
f 321/2/3 320/2/3 319/2/3
f 322/2/3 320/2/3 321/2/3
f 325/2/3 324/2/3 323/2/3
f 326/2/3 324/2/3 325/2/3
f 331/2/3 328/2/3 327/2/3
f 332/2/3 328/2/3 331/2/3
f 333/3/3 317/3/3 316/3/3
f 334/3/3 317/3/3 333/3/3
f 336/2/3 330/2/3 329/2/3
f 337/2/3 330/2/3 336/2/3
f 340/1/3 334/1/3 333/1/3
f 341/2/3 335/2/3 334/2/3
f 341/1/3 334/1/3 340/1/3
f 342/2/3 335/2/3 341/2/3
f 345/2/3 339/2/3 338/2/3
f 346/2/3 339/2/3 345/2/3
f 350/2/3 344/2/3 343/2/3
f 351/2/3 344/2/3 350/2/3
f 352/1/3 348/1/3 347/1/3
f 353/2/3 349/2/3 348/2/3
f 353/1/3 348/1/3 352/1/3
f 354/2/3 349/2/3 353/2/3
f 355/1/4 356/1/4 358/1/4
f 356/2/4 357/2/4 359/2/4
f 358/1/4 356/1/4 359/1/4
f 359/2/4 357/2/4 360/2/4
f 361/2/4 362/2/4 363/2/4
f 363/2/4 362/2/4 364/2/4
f 365/2/4 366/2/4 367/2/4
f 367/2/4 366/2/4 368/2/4
f 369/1/4 370/1/4 372/1/4
f 370/2/4 371/2/4 373/2/4
f 372/1/4 370/1/4 373/1/4
f 373/2/4 371/2/4 374/2/4
f 375/2/4 376/2/4 377/2/4
f 377/2/4 376/2/4 378/2/4
f 379/2/4 380/2/4 381/2/4
f 381/2/4 380/2/4 382/2/4
f 383/2/4 384/2/4 387/2/4
f 387/2/4 384/2/4 388/2/4
f 372/3/4 373/3/4 389/3/4
f 389/3/4 373/3/4 390/3/4
f 385/2/4 386/2/4 392/2/4
f 392/2/4 386/2/4 393/2/4
f 389/1/4 390/1/4 396/1/4
f 390/2/4 391/2/4 397/2/4
f 396/1/4 390/1/4 397/1/4
f 397/2/4 391/2/4 398/2/4
f 394/2/4 395/2/4 401/2/4
f 401/2/4 395/2/4 402/2/4
f 399/2/4 400/2/4 406/2/4
f 406/2/4 400/2/4 407/2/4
f 403/1/4 404/1/4 408/1/4
f 404/2/4 405/2/4 409/2/4
f 408/1/4 404/1/4 409/1/4
f 409/2/4 405/2/4 410/2/4
f 411/1/4 412/1/4 414/1/4
f 412/2/4 413/2/4 415/2/4
f 414/1/4 412/1/4 415/1/4
f 415/2/4 413/2/4 416/2/4
f 416/2/4 413/2/4 417/2/4
f 417/2/4 418/2/4 419/2/4
f 416/2/4 417/2/4 419/2/4
f 419/2/4 418/2/4 420/2/4
f 420/2/4 418/2/4 421/2/4
f 421/2/4 422/2/4 423/2/4
f 420/2/4 421/2/4 423/2/4
f 423/2/4 422/2/4 424/2/4
f 424/2/4 422/2/4 425/2/4
f 424/2/4 425/2/4 428/2/4
f 425/1/4 426/1/4 429/1/4
f 428/2/4 425/2/4 429/2/4
f 426/2/4 427/2/4 430/2/4
f 429/1/4 426/1/4 430/1/4
f 430/2/4 427/2/4 431/2/4
f 431/2/4 427/2/4 432/2/4
f 432/2/4 433/2/4 434/2/4
f 431/2/4 432/2/4 434/2/4
f 434/2/4 433/2/4 435/2/4
f 435/2/4 433/2/4 436/2/4
f 435/2/4 436/2/4 439/2/4
f 436/2/4 437/2/4 439/2/4
f 437/1/4 438/1/4 440/1/4
f 439/2/4 437/2/4 440/2/4
f 440/1/4 438/1/4 441/1/4
f 440/2/4 441/2/4 443/2/4
f 443/2/4 441/2/4 444/2/4
f 442/2/4 443/2/4 446/2/4
f 446/2/4 443/2/4 447/2/4
f 443/1/4 444/1/4 448/1/4
f 447/2/4 443/2/4 448/2/4
f 448/1/4 444/1/4 449/1/4
f 429/3/4 430/3/4 451/3/4
f 451/3/4 430/3/4 452/3/4
f 446/2/4 447/2/4 453/2/4
f 445/2/4 446/2/4 453/2/4
f 453/2/4 447/2/4 454/2/4
f 454/2/4 447/2/4 455/2/4
f 450/2/4 451/2/4 457/2/4
f 451/1/4 452/1/4 458/1/4
f 457/2/4 451/2/4 458/2/4
f 452/2/4 453/2/4 459/2/4
f 458/1/4 452/1/4 459/1/4
f 453/2/4 454/2/4 459/2/4
f 459/2/4 454/2/4 460/2/4
f 456/2/4 457/2/4 462/2/4
f 457/2/4 458/2/4 462/2/4
f 462/2/4 458/2/4 463/2/4
f 463/2/4 458/2/4 464/2/4
f 461/2/4 462/2/4 467/2/4
f 462/2/4 463/2/4 467/2/4
f 467/2/4 463/2/4 468/2/4
f 468/2/4 463/2/4 469/2/4
f 465/1/4 466/1/4 470/1/4
f 466/2/4 467/2/4 471/2/4
f 470/1/4 466/1/4 471/1/4
f 467/2/4 468/2/4 471/2/4
f 471/2/4 468/2/4 472/2/4
f 477/1/5 474/1/5 473/1/5
f 478/1/5 474/1/5 477/1/5
f 479/1/5 476/1/5 475/1/5
f 480/1/5 476/1/5 479/1/5
f 485/1/5 482/1/5 481/1/5
f 486/1/5 482/1/5 485/1/5
f 487/1/5 484/1/5 483/1/5
f 488/1/5 484/1/5 487/1/5
f 494/2/5 490/2/5 489/2/5
f 495/2/5 492/2/5 491/2/5
f 497/2/5 494/2/5 493/2/5
f 498/2/5 490/2/5 494/2/5
f 498/2/5 494/2/5 497/2/5
f 499/2/5 496/2/5 495/2/5
f 499/2/5 495/2/5 491/2/5
f 500/2/5 496/2/5 499/2/5
f 501/2/5 490/2/5 498/2/5
f 502/2/5 490/2/5 501/2/5
f 503/2/5 499/2/5 491/2/5
f 504/2/5 499/2/5 503/2/5
f 510/2/5 506/2/5 505/2/5
f 511/2/5 508/2/5 507/2/5
f 513/2/5 510/2/5 509/2/5
f 514/2/5 506/2/5 510/2/5
f 514/2/5 510/2/5 513/2/5
f 515/2/5 512/2/5 511/2/5
f 515/2/5 511/2/5 507/2/5
f 516/2/5 512/2/5 515/2/5
f 517/2/5 506/2/5 514/2/5
f 518/2/5 506/2/5 517/2/5
f 519/2/5 515/2/5 507/2/5
f 520/2/5 515/2/5 519/2/5
f 526/2/5 522/2/5 521/2/5
f 527/2/5 524/2/5 523/2/5
f 529/2/5 526/2/5 525/2/5
f 530/2/5 522/2/5 526/2/5
f 530/2/5 526/2/5 529/2/5
f 531/2/5 528/2/5 527/2/5
f 531/2/5 527/2/5 523/2/5
f 532/2/5 528/2/5 531/2/5
f 533/2/5 522/2/5 530/2/5
f 534/2/5 522/2/5 533/2/5
f 535/2/5 531/2/5 523/2/5
f 536/2/5 531/2/5 535/2/5
f 539/3/5 538/3/5 537/3/5
f 540/3/5 538/3/5 539/3/5
f 543/3/5 542/3/5 541/3/5
f 544/3/5 542/3/5 543/3/5
f 550/2/5 546/2/5 545/2/5
f 551/2/5 548/2/5 547/2/5
f 553/2/5 550/2/5 549/2/5
f 554/2/5 546/2/5 550/2/5
f 554/2/5 550/2/5 553/2/5
f 555/2/5 552/2/5 551/2/5
f 555/2/5 551/2/5 547/2/5
f 556/2/5 552/2/5 555/2/5
f 557/2/5 546/2/5 554/2/5
f 558/2/5 546/2/5 557/2/5
f 559/2/5 555/2/5 547/2/5
f 560/2/5 555/2/5 559/2/5
f 566/2/5 562/2/5 561/2/5
f 567/2/5 564/2/5 563/2/5
f 569/2/5 566/2/5 565/2/5
f 570/2/5 562/2/5 566/2/5
f 570/2/5 566/2/5 569/2/5
f 571/2/5 568/2/5 567/2/5
f 571/2/5 567/2/5 563/2/5
f 572/2/5 568/2/5 571/2/5
f 573/2/5 562/2/5 570/2/5
f 574/2/5 562/2/5 573/2/5
f 575/2/5 571/2/5 563/2/5
f 576/2/5 571/2/5 575/2/5
f 580/2/5 578/2/5 577/2/5
f 581/2/5 578/2/5 580/2/5
f 583/2/5 580/2/5 579/2/5
f 583/2/5 582/2/5 581/2/5
f 583/2/5 581/2/5 580/2/5
f 584/2/5 582/2/5 583/2/5
f 585/2/5 582/2/5 584/2/5
f 586/2/5 582/2/5 585/2/5
f 587/2/5 585/2/5 584/2/5
f 588/2/5 585/2/5 587/2/5
f 589/2/6 590/2/6 593/2/6
f 591/2/6 592/2/6 596/2/6
f 593/2/6 594/2/6 597/2/6
f 589/2/6 593/2/6 597/2/6
f 597/2/6 594/2/6 598/2/6
f 595/2/6 596/2/6 599/2/6
f 596/2/6 592/2/6 600/2/6
f 599/2/6 596/2/6 600/2/6
f 589/2/6 597/2/6 601/2/6
f 601/2/6 597/2/6 602/2/6
f 600/2/6 592/2/6 603/2/6
f 603/2/6 592/2/6 604/2/6
f 605/2/6 606/2/6 609/2/6
f 607/2/6 608/2/6 612/2/6
f 609/2/6 610/2/6 613/2/6
f 605/2/6 609/2/6 613/2/6
f 613/2/6 610/2/6 614/2/6
f 611/2/6 612/2/6 615/2/6
f 612/2/6 608/2/6 616/2/6
f 615/2/6 612/2/6 616/2/6
f 605/2/6 613/2/6 617/2/6
f 617/2/6 613/2/6 618/2/6
f 616/2/6 608/2/6 619/2/6
f 619/2/6 608/2/6 620/2/6
f 621/2/6 622/2/6 625/2/6
f 623/2/6 624/2/6 628/2/6
f 625/2/6 626/2/6 629/2/6
f 621/2/6 625/2/6 629/2/6
f 629/2/6 626/2/6 630/2/6
f 627/2/6 628/2/6 631/2/6
f 628/2/6 624/2/6 632/2/6
f 631/2/6 628/2/6 632/2/6
f 621/2/6 629/2/6 633/2/6
f 633/2/6 629/2/6 634/2/6
f 632/2/6 624/2/6 635/2/6
f 635/2/6 624/2/6 636/2/6
f 637/3/6 638/3/6 639/3/6
f 639/3/6 638/3/6 640/3/6
f 641/3/6 642/3/6 643/3/6
f 643/3/6 642/3/6 644/3/6
f 645/2/6 646/2/6 649/2/6
f 647/2/6 648/2/6 652/2/6
f 649/2/6 650/2/6 653/2/6
f 645/2/6 649/2/6 653/2/6
f 653/2/6 650/2/6 654/2/6
f 651/2/6 652/2/6 655/2/6
f 652/2/6 648/2/6 656/2/6
f 655/2/6 652/2/6 656/2/6
f 645/2/6 653/2/6 657/2/6
f 657/2/6 653/2/6 658/2/6
f 656/2/6 648/2/6 659/2/6
f 659/2/6 648/2/6 660/2/6
f 661/2/6 662/2/6 665/2/6
f 663/2/6 664/2/6 668/2/6
f 665/2/6 666/2/6 669/2/6
f 661/2/6 665/2/6 669/2/6
f 669/2/6 666/2/6 670/2/6
f 667/2/6 668/2/6 671/2/6
f 668/2/6 664/2/6 672/2/6
f 671/2/6 668/2/6 672/2/6
f 661/2/6 669/2/6 673/2/6
f 673/2/6 669/2/6 674/2/6
f 672/2/6 664/2/6 675/2/6
f 675/2/6 664/2/6 676/2/6
f 677/1/6 678/1/6 681/1/6
f 678/2/6 679/2/6 682/2/6
f 681/1/6 678/1/6 682/1/6
f 679/1/6 680/1/6 683/1/6
f 682/2/6 679/2/6 683/2/6
f 683/1/6 680/1/6 684/1/6
f 681/2/6 682/2/6 685/2/6
f 682/2/6 683/2/6 685/2/6
f 683/2/6 684/2/6 685/2/6
f 685/2/6 684/2/6 686/2/6
f 686/2/6 684/2/6 687/2/6
f 687/2/6 684/2/6 688/2/6
f 685/1/6 686/1/6 689/1/6
f 686/2/6 687/2/6 690/2/6
f 689/1/6 686/1/6 690/1/6
f 687/1/6 688/1/6 691/1/6
f 690/2/6 687/2/6 691/2/6
f 691/1/6 688/1/6 692/1/6
