# MagicaVoxel @ Ephtracy

# group
o 

# material
mtllib Wood.mtl
usemtl palette

# normals
vn -1 0 0
vn 1 0 0
vn 0 0 1
vn 0 0 -1
vn 0 -1 0
vn 0 1 0

# texcoords
vt 0.384766 0.5
vt 0.388672 0.5
vt 0.396484 0.5
vt 0.400391 0.5

# verts
v 0 0.4 -0.4
v 0 0.4 -1.9
v 0 0.4 -2
v 0 0.4 -2.7
v 0 0.4 -2.9
v 0 0.4 -3
v 0 0.5 -0.4
v 0 0.5 -0.6
v 0 0.5 -1.3
v 0 0.5 -1.9
v 0 0.6 -0.4
v 0 0.6 -0.6
v 0 0.6 -1.3
v 0 0.6 -2
v 0 0.6 -2.7
v 0 0.6 -2.9
v 0 0.6 -3
v 0.5 0.4 -0.4
v 0.5 0.4 -0.5
v 0.5 0.4 -1.1
v 0.5 0.4 -1.5
v 0.5 0.4 -2
v 0.5 0.4 -2.3
v 0.5 0.4 -2.9
v 0.5 0.4 -3
v 0.5 0.5 -0.4
v 0.5 0.5 -0.5
v 0.5 0.5 -0.8
v 0.5 0.5 -1.1
v 0.5 0.5 -1.4
v 0.5 0.5 -1.5
v 0.5 0.5 -2
v 0.5 0.5 -2.3
v 0.5 0.5 -2.8
v 0.5 0.5 -2.9
v 0.5 0.6 -0.4
v 0.5 0.6 -0.5
v 0.5 0.6 -0.8
v 0.5 0.6 -1.4
v 0.5 0.6 -1.5
v 0.5 0.6 -2
v 0.5 0.6 -2.8
v 0.5 0.6 -3
v 0 0.4 -0.4
v 0 0.5 -0.4
v 0 0.6 -0.4
v 0.1 0.4 -0.4
v 0.1 0.5 -0.4
v 0.2 0.5 -0.4
v 0.2 0.6 -0.4
v 0.5 0.4 -0.4
v 0.5 0.5 -0.4
v 0.5 0.6 -0.4
v 0 0.4 -3
v 0 0.6 -3
v 0.2 0.4 -3
v 0.2 0.5 -3
v 0.2 0.6 -3
v 0.4 0.4 -3
v 0.4 0.5 -3
v 0.5 0.4 -3
v 0.5 0.6 -3
v 0 0.4 -0.4
v 0.1 0.4 -0.4
v 0.5 0.4 -0.4
v 0.3 0.4 -0.5
v 0.5 0.4 -0.5
v 0.1 0.4 -0.6
v 0.3 0.4 -0.6
v 0.1 0.4 -1.1
v 0.2 0.4 -1.1
v 0.3 0.4 -1.1
v 0.5 0.4 -1.1
v 0.2 0.4 -1.3
v 0.3 0.4 -1.3
v 0.1 0.4 -1.5
v 0.3 0.4 -1.5
v 0.4 0.4 -1.5
v 0.5 0.4 -1.5
v 0 0.4 -1.9
v 0.1 0.4 -1.9
v 0.2 0.4 -1.9
v 0.3 0.4 -1.9
v 0.4 0.4 -1.9
v 0 0.4 -2
v 0.1 0.4 -2
v 0.4 0.4 -2
v 0.5 0.4 -2
v 0.4 0.4 -2.3
v 0.5 0.4 -2.3
v 0.1 0.4 -2.5
v 0.2 0.4 -2.5
v 0 0.4 -2.7
v 0.1 0.4 -2.7
v 0.3 0.4 -2.8
v 0.4 0.4 -2.8
v 0 0.4 -2.9
v 0.2 0.4 -2.9
v 0.4 0.4 -2.9
v 0.5 0.4 -2.9
v 0 0.4 -3
v 0.2 0.4 -3
v 0.4 0.4 -3
v 0.5 0.4 -3
v 0 0.6 -0.4
v 0.2 0.6 -0.4
v 0.5 0.6 -0.4
v 0.2 0.6 -0.5
v 0.4 0.6 -0.5
v 0.5 0.6 -0.5
v 0 0.6 -0.6
v 0.1 0.6 -0.6
v 0.4 0.6 -0.8
v 0.5 0.6 -0.8
v 0.2 0.6 -1
v 0.4 0.6 -1
v 0.2 0.6 -1.1
v 0.4 0.6 -1.1
v 0 0.6 -1.3
v 0.1 0.6 -1.3
v 0.1 0.6 -1.4
v 0.2 0.6 -1.4
v 0.4 0.6 -1.4
v 0.5 0.6 -1.4
v 0.4 0.6 -1.5
v 0.5 0.6 -1.5
v 0.1 0.6 -1.7
v 0.2 0.6 -1.7
v 0.3 0.6 -1.8
v 0.4 0.6 -1.8
v 0 0.6 -2
v 0.1 0.6 -2
v 0.2 0.6 -2
v 0.3 0.6 -2
v 0.4 0.6 -2
v 0.5 0.6 -2
v 0 0.6 -2.7
v 0.1 0.6 -2.7
v 0.2 0.6 -2.8
v 0.4 0.6 -2.8
v 0.5 0.6 -2.8
v 0 0.6 -2.9
v 0.2 0.6 -2.9
v 0 0.6 -3
v 0.2 0.6 -3
v 0.5 0.6 -3

# faces
f 7/2/1 2/2/1 1/2/1
f 8/2/1 2/2/1 7/2/1
f 9/2/1 2/2/1 8/2/1
f 10/1/1 3/1/1 2/1/1
f 10/2/1 2/2/1 9/2/1
f 11/1/1 8/1/1 7/1/1
f 12/4/1 9/4/1 8/4/1
f 12/1/1 8/1/1 11/1/1
f 13/1/1 10/1/1 9/1/1
f 13/4/1 9/4/1 12/4/1
f 14/4/1 4/4/1 3/4/1
f 14/1/1 10/1/1 13/1/1
f 14/1/1 3/1/1 10/1/1
f 15/1/1 5/1/1 4/1/1
f 15/4/1 4/4/1 14/4/1
f 16/2/1 6/2/1 5/2/1
f 16/1/1 5/1/1 15/1/1
f 17/2/1 6/2/1 16/2/1
f 18/1/2 19/1/2 26/1/2
f 19/2/2 20/2/2 27/2/2
f 26/1/2 19/1/2 27/1/2
f 27/2/2 20/2/2 28/2/2
f 20/1/2 21/1/2 29/1/2
f 28/2/2 20/2/2 29/2/2
f 29/1/2 21/1/2 30/1/2
f 21/4/2 22/4/2 31/4/2
f 30/1/2 21/1/2 31/1/2
f 22/1/2 23/1/2 32/1/2
f 31/4/2 22/4/2 32/4/2
f 23/3/2 24/3/2 33/3/2
f 32/1/2 23/1/2 33/1/2
f 33/3/2 24/3/2 34/3/2
f 24/1/2 25/1/2 35/1/2
f 34/3/2 24/3/2 35/3/2
f 26/4/2 27/4/2 36/4/2
f 27/1/2 28/1/2 37/1/2
f 36/4/2 27/4/2 37/4/2
f 29/4/2 30/4/2 38/4/2
f 37/1/2 28/1/2 38/1/2
f 28/4/2 29/4/2 38/4/2
f 30/1/2 31/1/2 39/1/2
f 38/4/2 30/4/2 39/4/2
f 31/2/2 32/2/2 40/2/2
f 39/1/2 31/1/2 40/1/2
f 33/3/2 34/3/2 41/3/2
f 40/2/2 32/2/2 41/2/2
f 32/3/2 33/3/2 41/3/2
f 34/1/2 35/1/2 42/1/2
f 41/3/2 34/3/2 42/3/2
f 35/1/2 25/1/2 43/1/2
f 42/1/2 35/1/2 43/1/2
f 47/2/3 45/2/3 44/2/3
f 48/1/3 46/1/3 45/1/3
f 48/2/3 45/2/3 47/2/3
f 49/1/3 48/1/3 47/1/3
f 49/1/3 46/1/3 48/1/3
f 50/1/3 46/1/3 49/1/3
f 51/1/3 49/1/3 47/1/3
f 52/4/3 50/4/3 49/4/3
f 52/1/3 49/1/3 51/1/3
f 53/4/3 50/4/3 52/4/3
f 54/2/4 55/2/4 56/2/4
f 56/2/4 55/2/4 57/2/4
f 57/2/4 55/2/4 58/2/4
f 56/4/4 57/4/4 59/4/4
f 57/1/4 58/1/4 60/1/4
f 59/4/4 57/4/4 60/4/4
f 59/1/4 60/1/4 61/1/4
f 60/1/4 58/1/4 62/1/4
f 61/1/4 60/1/4 62/1/4
f 66/1/5 65/1/5 64/1/5
f 67/1/5 65/1/5 66/1/5
f 68/2/5 64/2/5 63/2/5
f 68/1/5 66/1/5 64/1/5
f 69/2/5 67/2/5 66/2/5
f 69/1/5 66/1/5 68/1/5
f 70/2/5 68/2/5 63/2/5
f 70/4/5 69/4/5 68/4/5
f 71/4/5 69/4/5 70/4/5
f 72/2/5 67/2/5 69/2/5
f 72/4/5 69/4/5 71/4/5
f 73/2/5 67/2/5 72/2/5
f 74/1/5 71/1/5 70/1/5
f 74/4/5 72/4/5 71/4/5
f 75/1/5 73/1/5 72/1/5
f 75/4/5 72/4/5 74/4/5
f 76/2/5 70/2/5 63/2/5
f 76/1/5 74/1/5 70/1/5
f 76/1/5 75/1/5 74/1/5
f 77/1/5 73/1/5 75/1/5
f 77/1/5 75/1/5 76/1/5
f 78/1/5 73/1/5 77/1/5
f 79/1/5 73/1/5 78/1/5
f 80/2/5 76/2/5 63/2/5
f 81/4/5 77/4/5 76/4/5
f 81/2/5 76/2/5 80/2/5
f 82/4/5 77/4/5 81/4/5
f 83/1/5 78/1/5 77/1/5
f 83/4/5 77/4/5 82/4/5
f 84/4/5 79/4/5 78/4/5
f 84/1/5 78/1/5 83/1/5
f 85/1/5 81/1/5 80/1/5
f 86/4/5 82/4/5 81/4/5
f 86/1/5 81/1/5 85/1/5
f 87/4/5 79/4/5 84/4/5
f 87/4/5 84/4/5 83/4/5
f 88/4/5 79/4/5 87/4/5
f 89/4/5 87/4/5 83/4/5
f 89/1/5 88/1/5 87/1/5
f 90/1/5 88/1/5 89/1/5
f 91/4/5 82/4/5 86/4/5
f 91/4/5 86/4/5 85/4/5
f 92/1/5 83/1/5 82/1/5
f 92/4/5 82/4/5 91/4/5
f 93/4/5 91/4/5 85/4/5
f 94/1/5 92/1/5 91/1/5
f 94/4/5 91/4/5 93/4/5
f 95/1/5 83/1/5 92/1/5
f 95/1/5 92/1/5 94/1/5
f 95/1/5 94/1/5 93/1/5
f 95/4/5 89/4/5 83/4/5
f 96/3/5 90/3/5 89/3/5
f 96/4/5 89/4/5 95/4/5
f 97/1/5 95/1/5 93/1/5
f 97/1/5 96/1/5 95/1/5
f 98/1/5 96/1/5 97/1/5
f 99/3/5 90/3/5 96/3/5
f 99/1/5 96/1/5 98/1/5
f 100/3/5 90/3/5 99/3/5
f 101/2/5 98/2/5 97/2/5
f 102/4/5 99/4/5 98/4/5
f 102/2/5 98/2/5 101/2/5
f 103/1/5 100/1/5 99/1/5
f 103/4/5 99/4/5 102/4/5
f 104/1/5 100/1/5 103/1/5
f 105/1/6 106/1/6 108/1/6
f 106/4/6 107/4/6 108/4/6
f 108/4/6 107/4/6 109/4/6
f 109/4/6 107/4/6 110/4/6
f 105/1/6 108/1/6 111/1/6
f 111/1/6 108/1/6 112/1/6
f 108/3/6 109/3/6 113/3/6
f 109/1/6 110/1/6 113/1/6
f 113/1/6 110/1/6 114/1/6
f 112/1/6 108/1/6 115/1/6
f 108/3/6 113/3/6 115/3/6
f 113/4/6 114/4/6 116/4/6
f 115/3/6 113/3/6 116/3/6
f 112/1/6 115/1/6 117/1/6
f 115/1/6 116/1/6 117/1/6
f 116/4/6 114/4/6 118/4/6
f 117/1/6 116/1/6 118/1/6
f 111/4/6 112/4/6 119/4/6
f 112/1/6 117/1/6 120/1/6
f 119/4/6 112/4/6 120/4/6
f 119/1/6 120/1/6 121/1/6
f 120/1/6 117/1/6 121/1/6
f 117/4/6 118/4/6 122/4/6
f 121/1/6 117/1/6 122/1/6
f 118/4/6 114/4/6 123/4/6
f 122/4/6 118/4/6 123/4/6
f 123/4/6 114/4/6 124/4/6
f 121/4/6 122/4/6 125/4/6
f 122/4/6 123/4/6 125/4/6
f 123/1/6 124/1/6 125/1/6
f 125/1/6 124/1/6 126/1/6
f 119/1/6 121/1/6 127/1/6
f 121/4/6 125/4/6 127/4/6
f 127/4/6 125/4/6 128/4/6
f 128/4/6 125/4/6 129/4/6
f 125/2/6 126/2/6 130/2/6
f 129/4/6 125/4/6 130/4/6
f 119/1/6 127/1/6 131/1/6
f 127/1/6 128/1/6 131/1/6
f 131/1/6 128/1/6 132/1/6
f 128/4/6 129/4/6 133/4/6
f 132/1/6 128/1/6 133/1/6
f 129/1/6 130/1/6 134/1/6
f 133/4/6 129/4/6 134/4/6
f 130/2/6 126/2/6 135/2/6
f 134/1/6 130/1/6 135/1/6
f 135/2/6 126/2/6 136/2/6
f 131/4/6 132/4/6 137/4/6
f 132/1/6 133/1/6 138/1/6
f 137/4/6 132/4/6 138/4/6
f 133/2/6 134/2/6 139/2/6
f 138/1/6 133/1/6 139/1/6
f 137/1/6 138/1/6 139/1/6
f 134/2/6 135/2/6 139/2/6
f 135/3/6 136/3/6 140/3/6
f 139/2/6 135/2/6 140/2/6
f 140/3/6 136/3/6 141/3/6
f 137/1/6 139/1/6 142/1/6
f 139/1/6 140/1/6 142/1/6
f 140/1/6 141/1/6 142/1/6
f 142/1/6 141/1/6 143/1/6
f 142/2/6 143/2/6 144/2/6
f 143/1/6 141/1/6 145/1/6
f 144/2/6 143/2/6 145/2/6
f 145/1/6 141/1/6 146/1/6
