# MagicaVoxel @ Ephtracy

# group
o lamp_2

# material
mtllib livingroom_oldie-7-lamp_2.mtl
usemtl palette

# normals
vn -1 0 0
vn 1 0 0
vn 0 0 1
vn 0 0 -1
vn 0 -1 0
vn 0 1 0

# texcoords
vt 0.0332031 0.5
vt 0.0371094 0.5
vt 0.494141 0.5

# verts
v -0.2 0.6 8.9
v -0.2 0.6 8.6
v -0.2 1 8.9
v -0.2 1 8.6
v -0.2 1.1 8.9
v -0.2 1.1 8.6
v -0.1 0 8.8
v -0.1 0 8.7
v -0.1 0.1 8.8
v -0.1 0.1 8.7
v -0.1 0.6 9
v -0.1 0.6 8.9
v -0.1 0.6 8.6
v -0.1 0.6 8.5
v -0.1 1 9
v -0.1 1 8.9
v -0.1 1 8.6
v -0.1 1 8.5
v -0.1 1.1 9
v -0.1 1.1 8.9
v -0.1 1.1 8.6
v -0.1 1.1 8.5
v -7.45058e-009 0 8.9
v -7.45058e-009 0 8.8
v -7.45058e-009 0 8.7
v -7.45058e-009 0 8.6
v -7.45058e-009 0.1 8.9
v -7.45058e-009 0.1 8.8
v -7.45058e-009 0.1 8.7
v -7.45058e-009 0.1 8.6
v -7.45058e-009 0.6 8.8
v -7.45058e-009 0.6 8.7
v -7.45058e-009 1 8.8
v -7.45058e-009 1 8.7
v -7.45058e-009 1.1 8.8
v -7.45058e-009 1.1 8.7
v -7.45058e-009 1.2 8.8
v -7.45058e-009 1.2 8.7
v 0.1 0.6 8.9
v 0.1 0.6 8.8
v 0.1 0.6 8.7
v 0.1 0.6 8.6
v 0.1 1 8.9
v 0.1 1 8.8
v 0.1 1 8.7
v 0.1 1 8.6
v 0.2 0.6 8.8
v 0.2 0.6 8.7
v 0.2 1 8.8
v 0.2 1 8.7
v -0.1 0.6 8.8
v -0.1 0.6 8.7
v -0.1 1 8.8
v -0.1 1 8.7
v -7.45058e-009 0.6 8.9
v -7.45058e-009 0.6 8.8
v -7.45058e-009 0.6 8.7
v -7.45058e-009 0.6 8.6
v -7.45058e-009 1 8.9
v -7.45058e-009 1 8.8
v -7.45058e-009 1 8.7
v -7.45058e-009 1 8.6
v 0.1 0 8.9
v 0.1 0 8.8
v 0.1 0 8.7
v 0.1 0 8.6
v 0.1 0.1 8.9
v 0.1 0.1 8.8
v 0.1 0.1 8.7
v 0.1 0.1 8.6
v 0.1 0.6 8.8
v 0.1 0.6 8.7
v 0.1 1 8.8
v 0.1 1 8.7
v 0.1 1.1 8.8
v 0.1 1.1 8.7
v 0.1 1.2 8.8
v 0.1 1.2 8.7
v 0.2 0 8.8
v 0.2 0 8.7
v 0.2 0.1 8.8
v 0.2 0.1 8.7
v 0.2 0.6 9
v 0.2 0.6 8.9
v 0.2 0.6 8.6
v 0.2 0.6 8.5
v 0.2 1 9
v 0.2 1 8.9
v 0.2 1 8.6
v 0.2 1 8.5
v 0.2 1.1 9
v 0.2 1.1 8.9
v 0.2 1.1 8.6
v 0.2 1.1 8.5
v 0.3 0.6 8.9
v 0.3 0.6 8.6
v 0.3 1 8.9
v 0.3 1 8.6
v 0.3 1.1 8.9
v 0.3 1.1 8.6
v -0.1 0.6 9
v -0.1 1 9
v -0.1 1.1 9
v 0.2 0.6 9
v 0.2 1 9
v 0.2 1.1 9
v -0.2 0.6 8.9
v -0.2 1 8.9
v -0.2 1.1 8.9
v -0.1 0.6 8.9
v -0.1 1 8.9
v -0.1 1.1 8.9
v -7.45058e-009 0 8.9
v -7.45058e-009 0.1 8.9
v 0.1 0 8.9
v 0.1 0.1 8.9
v 0.2 0.6 8.9
v 0.2 1 8.9
v 0.2 1.1 8.9
v 0.3 0.6 8.9
v 0.3 1 8.9
v 0.3 1.1 8.9
v -0.1 0 8.8
v -0.1 0.1 8.8
v -7.45058e-009 0 8.8
v -7.45058e-009 0.1 8.8
v -7.45058e-009 0.6 8.8
v -7.45058e-009 1 8.8
v -7.45058e-009 1.1 8.8
v -7.45058e-009 1.2 8.8
v 0.1 0 8.8
v 0.1 0.1 8.8
v 0.1 0.6 8.8
v 0.1 1 8.8
v 0.1 1.1 8.8
v 0.1 1.2 8.8
v 0.2 0 8.8
v 0.2 0.1 8.8
v -0.1 0.6 8.7
v -0.1 1 8.7
v -7.45058e-009 0.6 8.7
v -7.45058e-009 1 8.7
v 0.1 0.6 8.7
v 0.1 1 8.7
v 0.2 0.6 8.7
v 0.2 1 8.7
v -7.45058e-009 0.6 8.6
v -7.45058e-009 1 8.6
v 0.1 0.6 8.6
v 0.1 1 8.6
v -7.45058e-009 0.6 8.9
v -7.45058e-009 1 8.9
v 0.1 0.6 8.9
v 0.1 1 8.9
v -0.1 0.6 8.8
v -0.1 1 8.8
v -7.45058e-009 0.6 8.8
v -7.45058e-009 1 8.8
v 0.1 0.6 8.8
v 0.1 1 8.8
v 0.2 0.6 8.8
v 0.2 1 8.8
v -0.1 0 8.7
v -0.1 0.1 8.7
v -7.45058e-009 0 8.7
v -7.45058e-009 0.1 8.7
v -7.45058e-009 0.6 8.7
v -7.45058e-009 1 8.7
v -7.45058e-009 1.1 8.7
v -7.45058e-009 1.2 8.7
v 0.1 0 8.7
v 0.1 0.1 8.7
v 0.1 0.6 8.7
v 0.1 1 8.7
v 0.1 1.1 8.7
v 0.1 1.2 8.7
v 0.2 0 8.7
v 0.2 0.1 8.7
v -0.2 0.6 8.6
v -0.2 1 8.6
v -0.2 1.1 8.6
v -0.1 0.6 8.6
v -0.1 1 8.6
v -0.1 1.1 8.6
v -7.45058e-009 0 8.6
v -7.45058e-009 0.1 8.6
v 0.1 0 8.6
v 0.1 0.1 8.6
v 0.2 0.6 8.6
v 0.2 1 8.6
v 0.2 1.1 8.6
v 0.3 0.6 8.6
v 0.3 1 8.6
v 0.3 1.1 8.6
v -0.1 0.6 8.5
v -0.1 1 8.5
v -0.1 1.1 8.5
v 0.2 0.6 8.5
v 0.2 1 8.5
v 0.2 1.1 8.5
v -7.45058e-009 0 8.9
v 0.1 0 8.9
v -0.1 0 8.8
v -7.45058e-009 0 8.8
v 0.1 0 8.8
v 0.2 0 8.8
v -0.1 0 8.7
v -7.45058e-009 0 8.7
v 0.1 0 8.7
v 0.2 0 8.7
v -7.45058e-009 0 8.6
v 0.1 0 8.6
v -0.1 0.6 9
v 0.2 0.6 9
v -0.2 0.6 8.9
v -0.1 0.6 8.9
v -7.45058e-009 0.6 8.9
v 0.1 0.6 8.9
v 0.2 0.6 8.9
v 0.3 0.6 8.9
v -0.1 0.6 8.8
v -7.45058e-009 0.6 8.8
v 0.1 0.6 8.8
v 0.2 0.6 8.8
v -0.1 0.6 8.7
v -7.45058e-009 0.6 8.7
v 0.1 0.6 8.7
v 0.2 0.6 8.7
v -0.2 0.6 8.6
v -0.1 0.6 8.6
v -7.45058e-009 0.6 8.6
v 0.1 0.6 8.6
v 0.2 0.6 8.6
v 0.3 0.6 8.6
v -0.1 0.6 8.5
v 0.2 0.6 8.5
v -7.45058e-009 1 8.9
v 0.1 1 8.9
v -0.1 1 8.8
v -7.45058e-009 1 8.8
v 0.1 1 8.8
v 0.2 1 8.8
v -0.1 1 8.7
v -7.45058e-009 1 8.7
v 0.1 1 8.7
v 0.2 1 8.7
v -7.45058e-009 1 8.6
v 0.1 1 8.6
v -7.45058e-009 0.1 8.9
v 0.1 0.1 8.9
v -0.1 0.1 8.8
v -7.45058e-009 0.1 8.8
v 0.1 0.1 8.8
v 0.2 0.1 8.8
v -0.1 0.1 8.7
v -7.45058e-009 0.1 8.7
v 0.1 0.1 8.7
v 0.2 0.1 8.7
v -7.45058e-009 0.1 8.6
v 0.1 0.1 8.6
v -0.1 1.1 9
v 0.2 1.1 9
v -0.2 1.1 8.9
v -0.1 1.1 8.9
v 0.2 1.1 8.9
v 0.3 1.1 8.9
v -7.45058e-009 1.1 8.8
v 0.1 1.1 8.8
v -7.45058e-009 1.1 8.7
v 0.1 1.1 8.7
v -0.2 1.1 8.6
v -0.1 1.1 8.6
v 0.2 1.1 8.6
v 0.3 1.1 8.6
v -0.1 1.1 8.5
v 0.2 1.1 8.5
v -7.45058e-009 1.2 8.8
v 0.1 1.2 8.8
v -7.45058e-009 1.2 8.7
v 0.1 1.2 8.7

# faces
f 3/2/1 2/2/1 1/2/1
f 4/2/1 2/2/1 3/2/1
f 5/1/1 4/1/1 3/1/1
f 6/1/1 4/1/1 5/1/1
f 9/3/1 8/3/1 7/3/1
f 10/3/1 8/3/1 9/3/1
f 15/2/1 12/2/1 11/2/1
f 16/2/1 12/2/1 15/2/1
f 17/2/1 14/2/1 13/2/1
f 18/2/1 14/2/1 17/2/1
f 19/1/1 16/1/1 15/1/1
f 20/1/1 16/1/1 19/1/1
f 21/1/1 18/1/1 17/1/1
f 22/1/1 18/1/1 21/1/1
f 27/3/1 24/3/1 23/3/1
f 28/3/1 24/3/1 27/3/1
f 29/3/1 26/3/1 25/3/1
f 30/3/1 26/3/1 29/3/1
f 31/3/1 29/3/1 28/3/1
f 32/3/1 29/3/1 31/3/1
f 33/3/1 32/3/1 31/3/1
f 34/3/1 32/3/1 33/3/1
f 37/3/1 36/3/1 35/3/1
f 38/3/1 36/3/1 37/3/1
f 43/2/1 40/2/1 39/2/1
f 44/2/1 40/2/1 43/2/1
f 45/2/1 42/2/1 41/2/1
f 46/2/1 42/2/1 45/2/1
f 49/2/1 48/2/1 47/2/1
f 50/2/1 48/2/1 49/2/1
f 51/2/2 52/2/2 53/2/2
f 53/2/2 52/2/2 54/2/2
f 55/2/2 56/2/2 59/2/2
f 59/2/2 56/2/2 60/2/2
f 57/2/2 58/2/2 61/2/2
f 61/2/2 58/2/2 62/2/2
f 63/3/2 64/3/2 67/3/2
f 67/3/2 64/3/2 68/3/2
f 65/3/2 66/3/2 69/3/2
f 69/3/2 66/3/2 70/3/2
f 68/3/2 69/3/2 71/3/2
f 71/3/2 69/3/2 72/3/2
f 71/3/2 72/3/2 73/3/2
f 73/3/2 72/3/2 74/3/2
f 75/3/2 76/3/2 77/3/2
f 77/3/2 76/3/2 78/3/2
f 79/3/2 80/3/2 81/3/2
f 81/3/2 80/3/2 82/3/2
f 83/2/2 84/2/2 87/2/2
f 87/2/2 84/2/2 88/2/2
f 85/2/2 86/2/2 89/2/2
f 89/2/2 86/2/2 90/2/2
f 87/1/2 88/1/2 91/1/2
f 91/1/2 88/1/2 92/1/2
f 89/1/2 90/1/2 93/1/2
f 93/1/2 90/1/2 94/1/2
f 95/2/2 96/2/2 97/2/2
f 97/2/2 96/2/2 98/2/2
f 97/1/2 98/1/2 99/1/2
f 99/1/2 98/1/2 100/1/2
f 104/2/3 102/2/3 101/2/3
f 105/1/3 103/1/3 102/1/3
f 105/2/3 102/2/3 104/2/3
f 106/1/3 103/1/3 105/1/3
f 110/2/3 108/2/3 107/2/3
f 111/1/3 109/1/3 108/1/3
f 111/2/3 108/2/3 110/2/3
f 112/1/3 109/1/3 111/1/3
f 115/3/3 114/3/3 113/3/3
f 116/3/3 114/3/3 115/3/3
f 120/2/3 118/2/3 117/2/3
f 121/1/3 119/1/3 118/1/3
f 121/2/3 118/2/3 120/2/3
f 122/1/3 119/1/3 121/1/3
f 125/3/3 124/3/3 123/3/3
f 126/3/3 124/3/3 125/3/3
f 132/3/3 127/3/3 126/3/3
f 132/3/3 128/3/3 127/3/3
f 133/3/3 128/3/3 132/3/3
f 134/3/3 128/3/3 133/3/3
f 135/3/3 130/3/3 129/3/3
f 136/3/3 130/3/3 135/3/3
f 137/3/3 132/3/3 131/3/3
f 138/3/3 132/3/3 137/3/3
f 141/2/3 140/2/3 139/2/3
f 142/2/3 140/2/3 141/2/3
f 145/2/3 144/2/3 143/2/3
f 146/2/3 144/2/3 145/2/3
f 149/2/3 148/2/3 147/2/3
f 150/2/3 148/2/3 149/2/3
f 151/2/4 152/2/4 153/2/4
f 153/2/4 152/2/4 154/2/4
f 155/2/4 156/2/4 157/2/4
f 157/2/4 156/2/4 158/2/4
f 159/2/4 160/2/4 161/2/4
f 161/2/4 160/2/4 162/2/4
f 163/3/4 164/3/4 165/3/4
f 165/3/4 164/3/4 166/3/4
f 166/3/4 167/3/4 172/3/4
f 167/3/4 168/3/4 172/3/4
f 172/3/4 168/3/4 173/3/4
f 173/3/4 168/3/4 174/3/4
f 169/3/4 170/3/4 175/3/4
f 175/3/4 170/3/4 176/3/4
f 171/3/4 172/3/4 177/3/4
f 177/3/4 172/3/4 178/3/4
f 179/2/4 180/2/4 182/2/4
f 180/1/4 181/1/4 183/1/4
f 182/2/4 180/2/4 183/2/4
f 183/1/4 181/1/4 184/1/4
f 185/3/4 186/3/4 187/3/4
f 187/3/4 186/3/4 188/3/4
f 189/2/4 190/2/4 192/2/4
f 190/1/4 191/1/4 193/1/4
f 192/2/4 190/2/4 193/2/4
f 193/1/4 191/1/4 194/1/4
f 195/2/4 196/2/4 198/2/4
f 196/1/4 197/1/4 199/1/4
f 198/2/4 196/2/4 199/2/4
f 199/1/4 197/1/4 200/1/4
f 204/3/5 202/3/5 201/3/5
f 205/3/5 202/3/5 204/3/5
f 207/3/5 204/3/5 203/3/5
f 207/3/5 206/3/5 205/3/5
f 207/3/5 205/3/5 204/3/5
f 208/3/5 206/3/5 207/3/5
f 209/3/5 206/3/5 208/3/5
f 210/3/5 206/3/5 209/3/5
f 211/3/5 209/3/5 208/3/5
f 212/3/5 209/3/5 211/3/5
f 216/2/5 214/2/5 213/2/5
f 217/2/5 214/2/5 216/2/5
f 218/2/5 214/2/5 217/2/5
f 219/2/5 214/2/5 218/2/5
f 221/2/5 216/2/5 215/2/5
f 221/2/5 217/2/5 216/2/5
f 222/2/5 217/2/5 221/2/5
f 223/2/5 220/2/5 219/2/5
f 223/2/5 219/2/5 218/2/5
f 224/2/5 220/2/5 223/2/5
f 225/2/5 221/2/5 215/2/5
f 228/2/5 220/2/5 224/2/5
f 229/2/5 226/2/5 225/2/5
f 229/2/5 225/2/5 215/2/5
f 230/2/5 226/2/5 229/2/5
f 231/2/5 226/2/5 230/2/5
f 232/2/5 228/2/5 227/2/5
f 233/2/5 220/2/5 228/2/5
f 233/2/5 228/2/5 232/2/5
f 234/2/5 220/2/5 233/2/5
f 235/2/5 231/2/5 230/2/5
f 235/2/5 232/2/5 231/2/5
f 235/2/5 233/2/5 232/2/5
f 236/2/5 233/2/5 235/2/5
f 240/1/5 238/1/5 237/1/5
f 241/1/5 238/1/5 240/1/5
f 243/1/5 240/1/5 239/1/5
f 244/1/5 240/1/5 243/1/5
f 245/1/5 242/1/5 241/1/5
f 246/1/5 242/1/5 245/1/5
f 247/1/5 245/1/5 244/1/5
f 248/1/5 245/1/5 247/1/5
f 249/3/6 250/3/6 252/3/6
f 252/3/6 250/3/6 253/3/6
f 251/3/6 252/3/6 255/3/6
f 255/3/6 252/3/6 256/3/6
f 253/3/6 254/3/6 257/3/6
f 257/3/6 254/3/6 258/3/6
f 256/3/6 257/3/6 259/3/6
f 259/3/6 257/3/6 260/3/6
f 261/1/6 262/1/6 264/1/6
f 264/1/6 262/1/6 265/1/6
f 263/1/6 264/1/6 267/1/6
f 265/1/6 266/1/6 267/1/6
f 264/1/6 265/1/6 267/1/6
f 267/1/6 266/1/6 268/1/6
f 263/1/6 267/1/6 269/1/6
f 268/1/6 266/1/6 270/1/6
f 263/1/6 269/1/6 271/1/6
f 269/1/6 270/1/6 271/1/6
f 271/1/6 270/1/6 272/1/6
f 270/1/6 266/1/6 273/1/6
f 272/1/6 270/1/6 273/1/6
f 273/1/6 266/1/6 274/1/6
f 272/1/6 273/1/6 275/1/6
f 275/1/6 273/1/6 276/1/6
f 277/3/6 278/3/6 279/3/6
f 279/3/6 278/3/6 280/3/6
