# MagicaVoxel @ Ephtracy

# group
o lamp_1

# material
mtllib livingroom_oldie-6-lamp_1.mtl
usemtl palette

# normals
vn -1 0 0
vn 1 0 0
vn 0 0 1
vn 0 0 -1
vn 0 -1 0
vn 0 1 0

# texcoords
vt 0.00585938 0.5
vt 0.494141 0.5

# verts
v -0.1 0 4.4
v -0.1 0 4.1
v -0.1 0.1 4.4
v -0.1 0.1 4.1
v -0.1 1.4 4.6
v -0.1 1.4 4.5
v -0.1 1.5 4.6
v -0.1 1.5 4.5
v -0.1 1.6 4.6
v -0.1 1.6 4.5
v 0 0.1 4.3
v 0 0.1 4.2
v 0 1.4 4.7
v 0 1.4 4.6
v 0 1.4 4.5
v 0 1.4 4.4
v 0 1.5 4.7
v 0 1.5 4.6
v 0 1.5 4.5
v 0 1.5 4.4
v 0 1.6 4.7
v 0 1.6 4.6
v 0 1.6 4.5
v 0 1.6 4.4
v 0 1.7 4.5
v 0 1.7 4.3
v 0 1.8 4.5
v 0 1.8 4.3
v 0 1.9 4.6
v 0 1.9 4.5
v 0 2 4.3
v 0 2 4.2
v 0.1 0.1 4.3
v 0.1 0.1 4.2
v 0.1 1.4 4.7
v 0.1 1.4 4.6
v 0.1 1.4 4.5
v 0.1 1.4 4.4
v 0.1 1.5 4.7
v 0.1 1.5 4.6
v 0.1 1.5 4.5
v 0.1 1.5 4.4
v 0.1 1.6 4.7
v 0.1 1.6 4.6
v 0.1 1.6 4.5
v 0.1 1.6 4.4
v 0.1 1.7 4.5
v 0.1 1.7 4.3
v 0.1 1.8 4.5
v 0.1 1.8 4.3
v 0.1 1.9 4.6
v 0.1 1.9 4.5
v 0.1 2 4.3
v 0.1 2 4.2
v 0.2 0 4.4
v 0.2 0 4.1
v 0.2 0.1 4.4
v 0.2 0.1 4.1
v 0.2 1.4 4.6
v 0.2 1.4 4.5
v 0.2 1.5 4.6
v 0.2 1.5 4.5
v 0.2 1.6 4.6
v 0.2 1.6 4.5
v 0 1.4 4.7
v 0 1.5 4.7
v 0 1.6 4.7
v 0.1 1.4 4.7
v 0.1 1.5 4.7
v 0.1 1.6 4.7
v -0.1 1.4 4.6
v -0.1 1.5 4.6
v -0.1 1.6 4.6
v 0 1.4 4.6
v 0 1.5 4.6
v 0 1.6 4.6
v 0 1.9 4.6
v 0.1 1.4 4.6
v 0.1 1.5 4.6
v 0.1 1.6 4.6
v 0.1 1.9 4.6
v 0.2 1.4 4.6
v 0.2 1.5 4.6
v 0.2 1.6 4.6
v -0.1 0 4.4
v -0.1 0.1 4.4
v 0.2 0 4.4
v 0.2 0.1 4.4
v 0 0.1 4.3
v 0 1.7 4.3
v 0 1.8 4.3
v 0 2 4.3
v 0.1 0.1 4.3
v 0.1 1.7 4.3
v 0.1 1.8 4.3
v 0.1 2 4.3
v -0.1 1.4 4.5
v -0.1 1.5 4.5
v -0.1 1.6 4.5
v 0 1.4 4.5
v 0 1.5 4.5
v 0 1.6 4.5
v 0 1.7 4.5
v 0 1.8 4.5
v 0 1.9 4.5
v 0.1 1.4 4.5
v 0.1 1.5 4.5
v 0.1 1.6 4.5
v 0.1 1.7 4.5
v 0.1 1.8 4.5
v 0.1 1.9 4.5
v 0.2 1.4 4.5
v 0.2 1.5 4.5
v 0.2 1.6 4.5
v 0 1.4 4.4
v 0 1.5 4.4
v 0 1.6 4.4
v 0.1 1.4 4.4
v 0.1 1.5 4.4
v 0.1 1.6 4.4
v 0 0.1 4.2
v 0 2 4.2
v 0.1 0.1 4.2
v 0.1 2 4.2
v -0.1 0 4.1
v -0.1 0.1 4.1
v 0.2 0 4.1
v 0.2 0.1 4.1
v -0.1 0 4.4
v 0.2 0 4.4
v -0.1 0 4.1
v 0.2 0 4.1
v 0 1.4 4.7
v 0.1 1.4 4.7
v -0.1 1.4 4.6
v 0 1.4 4.6
v 0.1 1.4 4.6
v 0.2 1.4 4.6
v -0.1 1.4 4.5
v 0 1.4 4.5
v 0.1 1.4 4.5
v 0.2 1.4 4.5
v 0 1.4 4.4
v 0.1 1.4 4.4
v 0 1.7 4.5
v 0.1 1.7 4.5
v 0 1.7 4.3
v 0.1 1.7 4.3
v -0.1 0.1 4.4
v 0.2 0.1 4.4
v 0 0.1 4.3
v 0.1 0.1 4.3
v 0 0.1 4.2
v 0.1 0.1 4.2
v -0.1 0.1 4.1
v 0.2 0.1 4.1
v 0 1.6 4.7
v 0.1 1.6 4.7
v -0.1 1.6 4.6
v 0 1.6 4.6
v 0.1 1.6 4.6
v 0.2 1.6 4.6
v -0.1 1.6 4.5
v 0 1.6 4.5
v 0.1 1.6 4.5
v 0.2 1.6 4.5
v 0 1.6 4.4
v 0.1 1.6 4.4
v 0 1.8 4.5
v 0.1 1.8 4.5
v 0 1.8 4.3
v 0.1 1.8 4.3
v 0 1.9 4.6
v 0.1 1.9 4.6
v 0 1.9 4.5
v 0.1 1.9 4.5
v 0 2 4.3
v 0.1 2 4.3
v 0 2 4.2
v 0.1 2 4.2

# faces
f 3/2/1 2/2/1 1/2/1
f 4/2/1 2/2/1 3/2/1
f 7/1/1 6/1/1 5/1/1
f 8/1/1 6/1/1 7/1/1
f 9/2/1 8/2/1 7/2/1
f 10/2/1 8/2/1 9/2/1
f 17/1/1 14/1/1 13/1/1
f 18/1/1 14/1/1 17/1/1
f 19/1/1 16/1/1 15/1/1
f 20/1/1 16/1/1 19/1/1
f 21/2/1 18/2/1 17/2/1
f 22/2/1 18/2/1 21/2/1
f 23/2/1 20/2/1 19/2/1
f 24/2/1 20/2/1 23/2/1
f 25/2/1 23/2/1 22/2/1
f 26/2/1 12/2/1 11/2/1
f 27/2/1 25/2/1 22/2/1
f 27/2/1 26/2/1 25/2/1
f 28/2/1 12/2/1 26/2/1
f 28/2/1 26/2/1 27/2/1
f 29/2/1 27/2/1 22/2/1
f 30/2/1 27/2/1 29/2/1
f 31/2/1 12/2/1 28/2/1
f 32/2/1 12/2/1 31/2/1
f 35/1/2 36/1/2 39/1/2
f 39/1/2 36/1/2 40/1/2
f 37/1/2 38/1/2 41/1/2
f 41/1/2 38/1/2 42/1/2
f 39/2/2 40/2/2 43/2/2
f 43/2/2 40/2/2 44/2/2
f 41/2/2 42/2/2 45/2/2
f 45/2/2 42/2/2 46/2/2
f 44/2/2 45/2/2 47/2/2
f 33/2/2 34/2/2 48/2/2
f 44/2/2 47/2/2 49/2/2
f 47/2/2 48/2/2 49/2/2
f 48/2/2 34/2/2 50/2/2
f 49/2/2 48/2/2 50/2/2
f 44/2/2 49/2/2 51/2/2
f 51/2/2 49/2/2 52/2/2
f 50/2/2 34/2/2 53/2/2
f 53/2/2 34/2/2 54/2/2
f 55/2/2 56/2/2 57/2/2
f 57/2/2 56/2/2 58/2/2
f 59/1/2 60/1/2 61/1/2
f 61/1/2 60/1/2 62/1/2
f 61/2/2 62/2/2 63/2/2
f 63/2/2 62/2/2 64/2/2
f 68/1/3 66/1/3 65/1/3
f 69/2/3 67/2/3 66/2/3
f 69/1/3 66/1/3 68/1/3
f 70/2/3 67/2/3 69/2/3
f 74/1/3 72/1/3 71/1/3
f 75/2/3 73/2/3 72/2/3
f 75/1/3 72/1/3 74/1/3
f 76/2/3 73/2/3 75/2/3
f 80/2/3 77/2/3 76/2/3
f 81/2/3 77/2/3 80/2/3
f 82/1/3 79/1/3 78/1/3
f 83/2/3 80/2/3 79/2/3
f 83/1/3 79/1/3 82/1/3
f 84/2/3 80/2/3 83/2/3
f 87/2/3 86/2/3 85/2/3
f 88/2/3 86/2/3 87/2/3
f 93/2/3 90/2/3 89/2/3
f 94/2/3 90/2/3 93/2/3
f 95/2/3 92/2/3 91/2/3
f 96/2/3 92/2/3 95/2/3
f 97/1/4 98/1/4 100/1/4
f 98/2/4 99/2/4 101/2/4
f 100/1/4 98/1/4 101/1/4
f 101/2/4 99/2/4 102/2/4
f 102/2/4 103/2/4 108/2/4
f 108/2/4 103/2/4 109/2/4
f 104/2/4 105/2/4 110/2/4
f 110/2/4 105/2/4 111/2/4
f 106/1/4 107/1/4 112/1/4
f 107/2/4 108/2/4 113/2/4
f 112/1/4 107/1/4 113/1/4
f 113/2/4 108/2/4 114/2/4
f 115/1/4 116/1/4 118/1/4
f 116/2/4 117/2/4 119/2/4
f 118/1/4 116/1/4 119/1/4
f 119/2/4 117/2/4 120/2/4
f 121/2/4 122/2/4 123/2/4
f 123/2/4 122/2/4 124/2/4
f 125/2/4 126/2/4 127/2/4
f 127/2/4 126/2/4 128/2/4
f 131/2/5 130/2/5 129/2/5
f 132/2/5 130/2/5 131/2/5
f 136/1/5 134/1/5 133/1/5
f 137/1/5 134/1/5 136/1/5
f 139/1/5 136/1/5 135/1/5
f 139/1/5 138/1/5 137/1/5
f 139/1/5 137/1/5 136/1/5
f 140/1/5 138/1/5 139/1/5
f 141/1/5 138/1/5 140/1/5
f 142/1/5 138/1/5 141/1/5
f 143/1/5 141/1/5 140/1/5
f 144/1/5 141/1/5 143/1/5
f 147/2/5 146/2/5 145/2/5
f 148/2/5 146/2/5 147/2/5
f 149/2/6 150/2/6 151/2/6
f 151/2/6 150/2/6 152/2/6
f 149/2/6 151/2/6 153/2/6
f 152/2/6 150/2/6 154/2/6
f 149/2/6 153/2/6 155/2/6
f 153/2/6 154/2/6 155/2/6
f 154/2/6 150/2/6 156/2/6
f 155/2/6 154/2/6 156/2/6
f 157/2/6 158/2/6 160/2/6
f 160/2/6 158/2/6 161/2/6
f 159/2/6 160/2/6 163/2/6
f 163/2/6 160/2/6 164/2/6
f 161/2/6 162/2/6 165/2/6
f 165/2/6 162/2/6 166/2/6
f 164/2/6 165/2/6 167/2/6
f 167/2/6 165/2/6 168/2/6
f 169/2/6 170/2/6 171/2/6
f 171/2/6 170/2/6 172/2/6
f 173/2/6 174/2/6 175/2/6
f 175/2/6 174/2/6 176/2/6
f 177/2/6 178/2/6 179/2/6
f 179/2/6 178/2/6 180/2/6
