# MagicaVoxel @ Ephtracy

# group
o small_black

# material
mtllib potted_plants-8-small_black.mtl
usemtl palette

# normals
vn -1 0 0
vn 1 0 0
vn 0 0 1
vn 0 0 -1
vn 0 -1 0
vn 0 1 0

# texcoords
vt 0.0332031 0.5
vt 0.0371094 0.5
vt 0.0410156 0.5
vt 0.0449219 0.5
vt 0.0488281 0.5
vt 0.0527344 0.5
vt 0.0566406 0.5
vt 0.0605469 0.5
vt 0.0957031 0.5
vt 0.0996094 0.5
vt 0.103516 0.5
vt 0.107422 0.5
vt 0.111328 0.5
vt 0.115234 0.5
vt 0.119141 0.5
vt 0.123047 0.5
vt 0.595703 0.5

# verts
v -0.3 0.2 12.7
v -0.3 0.2 12.5
v -0.3 0.6 12.7
v -0.3 0.6 12.5
v -0.3 1 12.8
v -0.3 1 12.7
v -0.3 1.2 12.8
v -0.3 1.2 12.7
v -0.3 1.2 12.6
v -0.3 1.2 12.5
v -0.3 1.4 12.6
v -0.3 1.4 12.5
v -0.2 0 12.7
v -0.2 0 12.5
v -0.2 0.2 12.8
v -0.2 0.2 12.7
v -0.2 0.2 12.5
v -0.2 0.2 12.4
v -0.2 0.6 12.8
v -0.2 0.6 12.7
v -0.2 0.6 12.5
v -0.2 0.6 12.4
v -0.2 0.7 12.7
v -0.2 0.7 12.6
v -0.2 0.9 12.8
v -0.2 0.9 12.7
v -0.2 0.9 12.6
v -0.2 1 12.8
v -0.2 1 12.7
v -0.2 1 12.6
v -0.2 1 12.5
v -0.2 1.2 12.7
v -0.2 1.2 12.6
v -0.2 1.2 12.5
v -0.2 1.4 12.7
v -0.2 1.4 12.6
v -0.1 0 12.8
v -0.1 0 12.7
v -0.1 0 12.5
v -0.1 0 12.4
v -0.1 0.2 12.9
v -0.1 0.2 12.8
v -0.1 0.2 12.7
v -0.1 0.2 12.5
v -0.1 0.2 12.4
v -0.1 0.2 12.3
v -0.1 0.6 12.9
v -0.1 0.6 12.8
v -0.1 0.6 12.7
v -0.1 0.6 12.6
v -0.1 0.6 12.5
v -0.1 0.6 12.4
v -0.1 0.6 12.3
v -0.1 0.7 12.7
v -0.1 0.7 12.6
v -0.1 0.7 12.5
v -0.1 0.7 12.4
v -0.1 0.8 12.6
v -0.1 0.8 12.5
v -0.1 0.8 12.4
v -0.1 0.9 12.7
v -0.1 0.9 12.6
v -0.1 0.9 12.5
v -0.1 0.9 12.4
v -0.1 1 12.7
v -0.1 1 12.6
v -0.1 1 12.5
v -0.1 1 12.4
v -0.1 1.1 12.8
v -0.1 1.1 12.7
v -0.1 1.1 12.4
v -0.1 1.1 12.3
v -0.1 1.2 12.9
v -0.1 1.2 12.8
v -0.1 1.2 12.7
v -0.1 1.2 12.6
v -0.1 1.2 12.5
v -0.1 1.2 12.4
v -0.1 1.3 13
v -0.1 1.3 12.9
v -0.1 1.3 12.8
v -0.1 1.3 12.7
v -0.1 1.3 12.6
v -0.1 1.3 12.5
v -0.1 1.4 12.9
v -0.1 1.4 12.8
v -0.1 1.4 12.6
v -0.1 1.4 12.5
v -0.1 1.4 12.4
v -0.1 1.4 12.3
v -0.1 1.5 13
v -0.1 1.5 12.9
v -0.1 1.5 12.5
v -0.1 1.5 12.4
v 0 0.8 12.8
v 0 0.8 12.7
v 0 0.8 12.5
v 0 0.8 12.4
v 0 0.9 12.8
v 0 0.9 12.7
v 0 0.9 12.5
v 0 0.9 12.4
v 0 1 12.9
v 0 1 12.8
v 0 1 12.7
v 0 1 12.5
v 0 1 12.4
v 0 1 12.3
v 0 1.1 12.9
v 0 1.1 12.8
v 0 1.1 12.5
v 0 1.1 12.4
v 0 1.1 12.3
v 0 1.1 12.2
v 0 1.2 12.9
v 0 1.2 12.8
v 0 1.2 12.5
v 0 1.2 12.4
v 0 1.4 12.3
v 0 1.5 12.3
v 0 1.5 12.2
v 0.1 1.1 12.8
v 0.1 1.1 12.7
v 0.1 1.1 12.6
v 0.1 1.2 12.9
v 0.1 1.2 12.8
v 0.1 1.2 12.6
v 0.1 1.3 12.9
v 0.1 1.3 12.8
v 0.2 1 12.6
v 0.2 1 12.5
v 0.2 1.1 12.6
v 0.2 1.1 12.5
v 0.2 1.1 12.4
v 0.2 1.2 12.7
v 0.2 1.2 12.6
v 0.2 1.2 12.5
v 0.2 1.2 12.4
v 0.2 1.3 12.5
v 0.2 1.3 12.4
v 0.2 1.4 12.7
v 0.2 1.4 12.6
v 0.2 1.4 12.5
v -0.2 1.1 12.8
v -0.2 1.1 12.7
v -0.2 1.2 12.8
v -0.2 1.2 12.7
v -0.2 1.3 12.6
v -0.2 1.3 12.5
v -0.2 1.4 12.6
v -0.2 1.4 12.5
v -0.1 0.9 12.8
v -0.1 0.9 12.7
v -0.1 1 12.8
v -0.1 1 12.7
v -0.1 1.2 12.7
v -0.1 1.2 12.6
v -0.1 1.3 12.7
v -0.1 1.4 12.7
v -0.1 1.4 12.6
v 0 0.7 12.5
v 0 0.7 12.4
v 0 0.8 12.5
v 0 0.8 12.4
v 0 1.1 12.8
v 0 1.1 12.7
v 0 1.1 12.6
v 0 1.2 12.9
v 0 1.2 12.8
v 0 1.2 12.7
v 0 1.2 12.6
v 0 1.2 12.5
v 0 1.2 12.4
v 0 1.2 12.3
v 0 1.3 13
v 0 1.3 12.9
v 0 1.3 12.8
v 0 1.3 12.7
v 0 1.4 12.9
v 0 1.4 12.8
v 0 1.4 12.5
v 0 1.4 12.4
v 0 1.4 12.3
v 0 1.5 13
v 0 1.5 12.9
v 0 1.5 12.5
v 0 1.5 12.4
v 0.1 0 12.8
v 0.1 0 12.7
v 0.1 0 12.5
v 0.1 0 12.4
v 0.1 0.2 12.9
v 0.1 0.2 12.8
v 0.1 0.2 12.7
v 0.1 0.2 12.5
v 0.1 0.2 12.4
v 0.1 0.2 12.3
v 0.1 0.6 12.9
v 0.1 0.6 12.8
v 0.1 0.6 12.7
v 0.1 0.6 12.6
v 0.1 0.6 12.5
v 0.1 0.6 12.4
v 0.1 0.6 12.3
v 0.1 0.7 12.6
v 0.1 0.7 12.5
v 0.1 0.8 12.8
v 0.1 0.8 12.7
v 0.1 0.8 12.5
v 0.1 0.8 12.4
v 0.1 0.9 12.8
v 0.1 0.9 12.7
v 0.1 0.9 12.6
v 0.1 0.9 12.5
v 0.1 0.9 12.4
v 0.1 1 12.6
v 0.1 1 12.5
v 0.1 1.1 12.6
v 0.1 1.1 12.5
v 0.1 1.1 12.4
v 0.1 1.1 12.3
v 0.1 1.1 12.2
v 0.1 1.2 12.6
v 0.1 1.2 12.5
v 0.1 1.2 12.4
v 0.1 1.2 12.3
v 0.1 1.4 12.6
v 0.1 1.4 12.5
v 0.1 1.5 12.3
v 0.1 1.5 12.2
v 0.2 0 12.7
v 0.2 0 12.5
v 0.2 0.2 12.8
v 0.2 0.2 12.7
v 0.2 0.2 12.5
v 0.2 0.2 12.4
v 0.2 0.6 12.8
v 0.2 0.6 12.7
v 0.2 0.6 12.5
v 0.2 0.6 12.4
v 0.2 0.7 12.6
v 0.2 0.7 12.5
v 0.2 0.9 12.8
v 0.2 0.9 12.7
v 0.2 0.9 12.6
v 0.2 0.9 12.5
v 0.2 0.9 12.4
v 0.2 1 12.9
v 0.2 1 12.8
v 0.2 1 12.7
v 0.2 1 12.6
v 0.2 1 12.5
v 0.2 1 12.4
v 0.2 1 12.3
v 0.2 1.1 12.7
v 0.2 1.1 12.6
v 0.2 1.1 12.5
v 0.2 1.1 12.4
v 0.2 1.2 12.8
v 0.2 1.2 12.4
v 0.2 1.2 12.3
v 0.2 1.3 12.9
v 0.2 1.3 12.8
v 0.3 0.2 12.7
v 0.3 0.2 12.5
v 0.3 0.6 12.7
v 0.3 0.6 12.5
v 0.3 1 12.8
v 0.3 1 12.7
v 0.3 1 12.6
v 0.3 1 12.5
v 0.3 1.1 12.7
v 0.3 1.1 12.6
v 0.3 1.1 12.5
v 0.3 1.1 12.4
v 0.3 1.2 12.8
v 0.3 1.2 12.7
v 0.3 1.2 12.6
v 0.3 1.2 12.5
v 0.3 1.3 12.5
v 0.3 1.3 12.4
v 0.3 1.4 12.7
v 0.3 1.4 12.6
v 0.4 1.2 12.6
v 0.4 1.2 12.5
v 0.4 1.4 12.6
v 0.4 1.4 12.5
v -0.1 1.3 13
v -0.1 1.5 13
v 0 1.3 13
v 0 1.5 13
v -0.1 0.2 12.9
v -0.1 0.6 12.9
v -0.1 1.2 12.9
v -0.1 1.3 12.9
v 0 1 12.9
v 0 1.1 12.9
v 0 1.2 12.9
v 0 1.3 12.9
v 0.1 0.2 12.9
v 0.1 0.6 12.9
v 0.1 1 12.9
v 0.1 1.1 12.9
v 0.1 1.2 12.9
v 0.1 1.3 12.9
v 0.2 1 12.9
v 0.2 1.3 12.9
v -0.3 1 12.8
v -0.3 1.2 12.8
v -0.2 0.2 12.8
v -0.2 0.6 12.8
v -0.2 0.9 12.8
v -0.2 1 12.8
v -0.2 1.1 12.8
v -0.2 1.2 12.8
v -0.1 0 12.8
v -0.1 0.2 12.8
v -0.1 0.6 12.8
v -0.1 0.9 12.8
v -0.1 1 12.8
v -0.1 1.1 12.8
v -0.1 1.2 12.8
v 0 0.8 12.8
v 0 0.9 12.8
v 0 1 12.8
v 0 1.1 12.8
v 0 1.2 12.8
v 0.1 0 12.8
v 0.1 0.2 12.8
v 0.1 0.6 12.8
v 0.1 0.8 12.8
v 0.1 0.9 12.8
v 0.1 1 12.8
v 0.2 0.2 12.8
v 0.2 0.6 12.8
v 0.2 0.9 12.8
v 0.2 1 12.8
v 0.2 1.2 12.8
v 0.3 1 12.8
v 0.3 1.2 12.8
v -0.3 0.2 12.7
v -0.3 0.6 12.7
v -0.2 0 12.7
v -0.2 0.2 12.7
v -0.2 0.6 12.7
v -0.2 0.7 12.7
v -0.2 0.9 12.7
v -0.2 1.2 12.7
v -0.2 1.4 12.7
v -0.1 0 12.7
v -0.1 0.2 12.7
v -0.1 0.6 12.7
v -0.1 0.7 12.7
v -0.1 0.9 12.7
v -0.1 1 12.7
v -0.1 1.2 12.7
v -0.1 1.3 12.7
v -0.1 1.4 12.7
v 0 0.6 12.7
v 0 0.8 12.7
v 0 0.9 12.7
v 0 1 12.7
v 0.1 0 12.7
v 0.1 0.2 12.7
v 0.1 0.6 12.7
v 0.1 0.8 12.7
v 0.2 0 12.7
v 0.2 0.2 12.7
v 0.2 0.6 12.7
v 0.2 1.2 12.7
v 0.2 1.4 12.7
v 0.3 0.2 12.7
v 0.3 0.6 12.7
v 0.3 1.2 12.7
v 0.3 1.4 12.7
v -0.3 1.2 12.6
v -0.3 1.4 12.6
v -0.2 1 12.6
v -0.2 1.2 12.6
v -0.2 1.4 12.6
v -0.1 1 12.6
v -0.1 1.2 12.6
v -0.1 1.4 12.6
v 0 1.1 12.6
v 0 1.2 12.6
v 0.1 0.7 12.6
v 0.1 0.9 12.6
v 0.1 1.1 12.6
v 0.1 1.2 12.6
v 0.1 1.4 12.6
v 0.2 0.7 12.6
v 0.2 0.9 12.6
v 0.2 1 12.6
v 0.2 1.1 12.6
v 0.3 1 12.6
v 0.3 1.1 12.6
v 0.3 1.2 12.6
v 0.3 1.4 12.6
v 0.4 1.2 12.6
v 0.4 1.4 12.6
v -0.1 1.4 12.5
v -0.1 1.5 12.5
v 0 1.4 12.5
v 0 1.5 12.5
v 0.1 1 12.5
v 0.1 1.1 12.5
v 0.2 1 12.5
v 0.2 1.1 12.5
v -0.1 1.1 12.4
v -0.1 1.2 12.4
v 0 1.1 12.4
v 0 1.2 12.4
v 0.1 1.1 12.4
v 0.1 1.2 12.4
v 0.2 1.1 12.4
v 0.2 1.2 12.4
v 0 1.2 12.3
v 0 1.4 12.3
v 0 1.5 12.3
v 0.1 1.2 12.3
v 0.1 1.5 12.3
v -0.1 1.4 12.9
v -0.1 1.5 12.9
v 0 1.4 12.9
v 0 1.5 12.9
v -0.1 1.3 12.8
v -0.1 1.4 12.8
v 0 1.1 12.8
v 0 1.2 12.8
v 0 1.3 12.8
v 0 1.4 12.8
v 0.1 1.1 12.8
v 0.1 1.2 12.8
v 0.1 1.3 12.8
v 0.2 1.2 12.8
v 0.2 1.3 12.8
v -0.3 1 12.7
v -0.3 1.2 12.7
v -0.2 0.9 12.7
v -0.2 1 12.7
v -0.2 1.1 12.7
v -0.2 1.2 12.7
v -0.1 0.9 12.7
v -0.1 1 12.7
v -0.1 1.1 12.7
v -0.1 1.2 12.7
v -0.1 1.3 12.7
v 0 1.2 12.7
v 0 1.3 12.7
v 0.2 1 12.7
v 0.2 1.1 12.7
v 0.3 1 12.7
v 0.3 1.1 12.7
v -0.2 0.7 12.6
v -0.2 0.9 12.6
v -0.2 1.3 12.6
v -0.2 1.4 12.6
v -0.1 0.7 12.6
v -0.1 0.8 12.6
v -0.1 0.9 12.6
v -0.1 1.3 12.6
v -0.1 1.4 12.6
v 0.1 1 12.6
v 0.1 1.1 12.6
v 0.1 1.2 12.6
v 0.2 1 12.6
v 0.2 1.1 12.6
v 0.2 1.2 12.6
v -0.3 0.2 12.5
v -0.3 0.6 12.5
v -0.3 1.2 12.5
v -0.3 1.4 12.5
v -0.2 0 12.5
v -0.2 0.2 12.5
v -0.2 0.6 12.5
v -0.2 1 12.5
v -0.2 1.2 12.5
v -0.2 1.3 12.5
v -0.2 1.4 12.5
v -0.1 0 12.5
v -0.1 0.2 12.5
v -0.1 0.6 12.5
v -0.1 0.7 12.5
v -0.1 0.8 12.5
v -0.1 0.9 12.5
v -0.1 1 12.5
v -0.1 1.1 12.5
v -0.1 1.2 12.5
v -0.1 1.3 12.5
v 0 0.7 12.5
v 0 0.8 12.5
v 0 0.9 12.5
v 0 1 12.5
v 0 1.1 12.5
v 0 1.2 12.5
v 0 1.4 12.5
v 0.1 0 12.5
v 0.1 0.2 12.5
v 0.1 0.6 12.5
v 0.1 0.7 12.5
v 0.1 0.8 12.5
v 0.1 0.9 12.5
v 0.1 1.2 12.5
v 0.1 1.4 12.5
v 0.2 0 12.5
v 0.2 0.2 12.5
v 0.2 0.6 12.5
v 0.2 0.7 12.5
v 0.2 0.9 12.5
v 0.2 1 12.5
v 0.2 1.1 12.5
v 0.2 1.3 12.5
v 0.2 1.4 12.5
v 0.3 0.2 12.5
v 0.3 0.6 12.5
v 0.3 1 12.5
v 0.3 1.1 12.5
v 0.3 1.2 12.5
v 0.3 1.3 12.5
v 0.3 1.4 12.5
v 0.4 1.2 12.5
v 0.4 1.4 12.5
v -0.2 0.2 12.4
v -0.2 0.6 12.4
v -0.1 0 12.4
v -0.1 0.2 12.4
v -0.1 0.6 12.4
v -0.1 0.7 12.4
v -0.1 0.8 12.4
v -0.1 0.9 12.4
v -0.1 1 12.4
v -0.1 1.4 12.4
v -0.1 1.5 12.4
v 0 0.7 12.4
v 0 0.8 12.4
v 0 0.9 12.4
v 0 1 12.4
v 0 1.4 12.4
v 0 1.5 12.4
v 0.1 0 12.4
v 0.1 0.2 12.4
v 0.1 0.6 12.4
v 0.1 0.8 12.4
v 0.1 0.9 12.4
v 0.1 1 12.4
v 0.2 0.2 12.4
v 0.2 0.6 12.4
v 0.2 0.9 12.4
v 0.2 1 12.4
v 0.2 1.1 12.4
v 0.2 1.2 12.4
v 0.2 1.3 12.4
v 0.3 1.1 12.4
v 0.3 1.3 12.4
v -0.1 0.2 12.3
v -0.1 0.6 12.3
v -0.1 1.1 12.3
v -0.1 1.4 12.3
v 0 1 12.3
v 0 1.1 12.3
v 0 1.4 12.3
v 0.1 0.2 12.3
v 0.1 0.6 12.3
v 0.1 1 12.3
v 0.1 1.1 12.3
v 0.1 1.2 12.3
v 0.2 1 12.3
v 0.2 1.2 12.3
v 0 1.1 12.2
v 0 1.5 12.2
v 0.1 1.1 12.2
v 0.1 1.5 12.2
v -0.1 0 12.8
v 0.1 0 12.8
v -0.2 0 12.7
v -0.1 0 12.7
v 0.1 0 12.7
v 0.2 0 12.7
v -0.2 0 12.5
v -0.1 0 12.5
v 0.1 0 12.5
v 0.2 0 12.5
v -0.1 0 12.4
v 0.1 0 12.4
v -0.1 0.2 12.9
v 0.1 0.2 12.9
v -0.2 0.2 12.8
v -0.1 0.2 12.8
v 0.1 0.2 12.8
v 0.2 0.2 12.8
v -0.3 0.2 12.7
v -0.2 0.2 12.7
v -0.1 0.2 12.7
v 0.1 0.2 12.7
v 0.2 0.2 12.7
v 0.3 0.2 12.7
v -0.3 0.2 12.5
v -0.2 0.2 12.5
v -0.1 0.2 12.5
v 0.1 0.2 12.5
v 0.2 0.2 12.5
v 0.3 0.2 12.5
v -0.2 0.2 12.4
v -0.1 0.2 12.4
v 0.1 0.2 12.4
v 0.2 0.2 12.4
v -0.1 0.2 12.3
v 0.1 0.2 12.3
v -0.2 0.7 12.7
v -0.1 0.7 12.7
v -0.2 0.7 12.6
v -0.1 0.7 12.6
v 0.1 0.7 12.6
v 0.2 0.7 12.6
v -0.1 0.7 12.5
v 0 0.7 12.5
v 0.1 0.7 12.5
v 0.2 0.7 12.5
v -0.1 0.7 12.4
v 0 0.7 12.4
v 0 0.8 12.8
v 0.1 0.8 12.8
v 0 0.8 12.7
v 0.1 0.8 12.7
v 0 0.8 12.5
v 0.1 0.8 12.5
v 0 0.8 12.4
v 0.1 0.8 12.4
v -0.2 0.9 12.8
v -0.1 0.9 12.8
v 0.1 0.9 12.8
v 0.2 0.9 12.8
v -0.2 0.9 12.7
v -0.1 0.9 12.7
v 0.1 0.9 12.7
v 0.2 0.9 12.7
v 0.1 0.9 12.6
v 0.2 0.9 12.6
v -0.1 0.9 12.5
v 0 0.9 12.5
v 0.1 0.9 12.5
v 0.2 0.9 12.5
v -0.1 0.9 12.4
v 0 0.9 12.4
v 0.1 0.9 12.4
v 0.2 0.9 12.4
v 0 1 12.9
v 0.1 1 12.9
v 0.2 1 12.9
v -0.3 1 12.8
v -0.2 1 12.8
v -0.1 1 12.8
v 0 1 12.8
v 0.1 1 12.8
v 0.2 1 12.8
v 0.3 1 12.8
v -0.3 1 12.7
v -0.2 1 12.7
v -0.1 1 12.7
v 0 1 12.7
v 0.2 1 12.7
v 0.3 1 12.7
v -0.2 1 12.6
v -0.1 1 12.6
v 0.2 1 12.6
v 0.3 1 12.6
v -0.2 1 12.5
v -0.1 1 12.5
v 0.2 1 12.5
v 0.3 1 12.5
v 0 1 12.4
v 0.1 1 12.4
v 0.2 1 12.4
v 0 1 12.3
v 0.1 1 12.3
v 0.2 1 12.3
v 0.2 1.1 12.7
v 0.3 1.1 12.7
v 0.2 1.1 12.6
v 0.3 1.1 12.6
v 0.2 1.1 12.5
v 0.3 1.1 12.5
v -0.1 1.1 12.4
v 0 1.1 12.4
v 0.2 1.1 12.4
v 0.3 1.1 12.4
v -0.1 1.1 12.3
v 0 1.1 12.3
v 0.1 1.1 12.3
v 0 1.1 12.2
v 0.1 1.1 12.2
v -0.1 1.2 12.9
v 0 1.2 12.9
v -0.1 1.2 12.8
v 0 1.2 12.8
v -0.2 1.2 12.7
v -0.1 1.2 12.7
v -0.3 1.2 12.6
v -0.2 1.2 12.6
v -0.1 1.2 12.6
v 0.3 1.2 12.6
v 0.4 1.2 12.6
v -0.3 1.2 12.5
v -0.2 1.2 12.5
v -0.1 1.2 12.5
v 0 1.2 12.5
v 0.3 1.2 12.5
v 0.4 1.2 12.5
v -0.1 1.2 12.4
v 0 1.2 12.4
v -0.1 1.3 13
v 0 1.3 13
v -0.1 1.3 12.9
v 0 1.3 12.9
v -0.1 0.6 12.9
v 0.1 0.6 12.9
v -0.2 0.6 12.8
v -0.1 0.6 12.8
v 0 0.6 12.8
v 0.1 0.6 12.8
v 0.2 0.6 12.8
v -0.3 0.6 12.7
v -0.2 0.6 12.7
v -0.1 0.6 12.7
v 0 0.6 12.7
v 0.1 0.6 12.7
v 0.2 0.6 12.7
v 0.3 0.6 12.7
v -0.2 0.6 12.6
v -0.1 0.6 12.6
v 0.1 0.6 12.6
v 0.2 0.6 12.6
v -0.3 0.6 12.5
v -0.2 0.6 12.5
v -0.1 0.6 12.5
v 0.1 0.6 12.5
v 0.2 0.6 12.5
v 0.3 0.6 12.5
v -0.2 0.6 12.4
v -0.1 0.6 12.4
v 0.1 0.6 12.4
v 0.2 0.6 12.4
v -0.1 0.6 12.3
v 0.1 0.6 12.3
v -0.1 0.8 12.5
v 0 0.8 12.5
v -0.1 0.8 12.4
v 0 0.8 12.4
v -0.2 0.9 12.7
v -0.1 0.9 12.7
v -0.2 0.9 12.6
v -0.1 0.9 12.6
v 0.1 1 12.6
v 0.2 1 12.6
v -0.1 1 12.5
v 0 1 12.5
v 0.1 1 12.5
v 0.2 1 12.5
v -0.1 1 12.4
v 0 1 12.4
v -0.2 1.1 12.8
v -0.1 1.1 12.8
v 0 1.1 12.8
v 0.1 1.1 12.8
v -0.2 1.1 12.7
v -0.1 1.1 12.7
v 0 1.1 12.7
v 0.1 1.1 12.7
v 0 1.1 12.6
v 0.1 1.1 12.6
v 0.1 1.1 12.5
v 0.2 1.1 12.5
v 0.1 1.1 12.4
v 0.2 1.1 12.4
v 0 1.2 12.9
v 0.1 1.2 12.9
v -0.3 1.2 12.8
v -0.2 1.2 12.8
v 0 1.2 12.8
v 0.1 1.2 12.8
v 0.2 1.2 12.8
v 0.3 1.2 12.8
v -0.3 1.2 12.7
v -0.2 1.2 12.7
v -0.1 1.2 12.7
v 0 1.2 12.7
v 0.2 1.2 12.7
v 0.3 1.2 12.7
v -0.1 1.2 12.6
v 0 1.2 12.6
v 0.1 1.2 12.6
v 0.2 1.2 12.6
v 0 1.2 12.5
v 0.1 1.2 12.5
v 0 1.2 12.4
v 0.1 1.2 12.4
v 0.2 1.2 12.4
v 0 1.2 12.3
v 0.1 1.2 12.3
v 0.2 1.2 12.3
v 0.1 1.3 12.9
v 0.2 1.3 12.9
v -0.1 1.3 12.8
v 0 1.3 12.8
v 0.1 1.3 12.8
v 0.2 1.3 12.8
v -0.1 1.3 12.7
v 0 1.3 12.7
v -0.2 1.3 12.6
v -0.1 1.3 12.6
v -0.2 1.3 12.5
v -0.1 1.3 12.5
v 0.2 1.3 12.5
v 0.3 1.3 12.5
v 0.2 1.3 12.4
v 0.3 1.3 12.4
v -0.1 1.4 12.9
v 0 1.4 12.9
v -0.1 1.4 12.8
v 0 1.4 12.8
v -0.2 1.4 12.7
v -0.1 1.4 12.7
v 0.2 1.4 12.7
v 0.3 1.4 12.7
v -0.3 1.4 12.6
v -0.2 1.4 12.6
v -0.1 1.4 12.6
v 0.1 1.4 12.6
v 0.2 1.4 12.6
v 0.3 1.4 12.6
v 0.4 1.4 12.6
v -0.3 1.4 12.5
v -0.2 1.4 12.5
v -0.1 1.4 12.5
v 0 1.4 12.5
v 0.1 1.4 12.5
v 0.2 1.4 12.5
v 0.3 1.4 12.5
v 0.4 1.4 12.5
v -0.1 1.4 12.4
v 0 1.4 12.4
v -0.1 1.4 12.3
v 0 1.4 12.3
v -0.1 1.5 13
v 0 1.5 13
v -0.1 1.5 12.9
v 0 1.5 12.9
v -0.1 1.5 12.5
v 0 1.5 12.5
v -0.1 1.5 12.4
v 0 1.5 12.4
v 0 1.5 12.3
v 0.1 1.5 12.3
v 0 1.5 12.2
v 0.1 1.5 12.2

# faces
f 3/17/1 2/17/1 1/17/1
f 4/17/1 2/17/1 3/17/1
f 7/3/1 6/3/1 5/3/1
f 8/3/1 6/3/1 7/3/1
f 11/8/1 10/8/1 9/8/1
f 12/8/1 10/8/1 11/8/1
f 16/17/1 14/17/1 13/17/1
f 17/17/1 14/17/1 16/17/1
f 19/17/1 16/17/1 15/17/1
f 20/17/1 16/17/1 19/17/1
f 21/17/1 18/17/1 17/17/1
f 22/17/1 18/17/1 21/17/1
f 26/7/1 24/7/1 23/7/1
f 27/7/1 24/7/1 26/7/1
f 28/7/1 26/7/1 25/7/1
f 29/7/1 26/7/1 28/7/1
f 33/8/1 31/8/1 30/8/1
f 34/8/1 31/8/1 33/8/1
f 35/1/1 33/1/1 32/1/1
f 36/1/1 33/1/1 35/1/1
f 42/17/1 38/17/1 37/17/1
f 43/17/1 38/17/1 42/17/1
f 44/17/1 40/17/1 39/17/1
f 45/17/1 40/17/1 44/17/1
f 47/17/1 42/17/1 41/17/1
f 48/17/1 42/17/1 47/17/1
f 52/17/1 46/17/1 45/17/1
f 53/17/1 46/17/1 52/17/1
f 54/4/1 50/4/1 49/4/1
f 55/8/1 51/8/1 50/8/1
f 55/4/1 50/4/1 54/4/1
f 56/8/1 51/8/1 55/8/1
f 58/8/1 56/8/1 55/8/1
f 59/7/1 57/7/1 56/7/1
f 59/8/1 56/8/1 58/8/1
f 60/7/1 57/7/1 59/7/1
f 62/7/1 59/7/1 58/7/1
f 63/7/1 59/7/1 62/7/1
f 65/4/1 62/4/1 61/4/1
f 66/8/1 63/8/1 62/8/1
f 66/4/1 62/4/1 65/4/1
f 67/7/1 64/7/1 63/7/1
f 67/8/1 63/8/1 66/8/1
f 68/7/1 64/7/1 67/7/1
f 70/1/1 66/1/1 65/1/1
f 74/4/1 70/4/1 69/4/1
f 75/1/1 66/1/1 70/1/1
f 75/4/1 70/4/1 74/4/1
f 76/1/1 66/1/1 75/1/1
f 78/7/1 72/7/1 71/7/1
f 80/4/1 74/4/1 73/4/1
f 81/1/1 75/1/1 74/1/1
f 81/4/1 74/4/1 80/4/1
f 82/1/1 75/1/1 81/1/1
f 84/1/1 78/1/1 77/1/1
f 85/4/1 80/4/1 79/4/1
f 85/1/1 81/1/1 80/1/1
f 86/1/1 81/1/1 85/1/1
f 87/1/1 84/1/1 83/1/1
f 88/1/1 78/1/1 84/1/1
f 88/1/1 84/1/1 87/1/1
f 89/7/1 72/7/1 78/7/1
f 89/1/1 78/1/1 88/1/1
f 90/7/1 72/7/1 89/7/1
f 91/4/1 85/4/1 79/4/1
f 92/4/1 85/4/1 91/4/1
f 93/1/1 89/1/1 88/1/1
f 94/1/1 89/1/1 93/1/1
f 99/8/1 96/8/1 95/8/1
f 100/8/1 96/8/1 99/8/1
f 101/1/1 98/1/1 97/1/1
f 102/1/1 98/1/1 101/1/1
f 104/2/1 100/2/1 99/2/1
f 105/2/1 100/2/1 104/2/1
f 109/1/1 104/1/1 103/1/1
f 110/1/1 104/1/1 109/1/1
f 111/1/1 107/1/1 106/1/1
f 111/1/1 108/1/1 107/1/1
f 112/1/1 108/1/1 111/1/1
f 113/1/1 108/1/1 112/1/1
f 115/2/1 110/2/1 109/2/1
f 116/2/1 110/2/1 115/2/1
f 117/1/1 112/1/1 111/1/1
f 118/1/1 112/1/1 117/1/1
f 119/1/1 114/1/1 113/1/1
f 120/1/1 114/1/1 119/1/1
f 121/1/1 114/1/1 120/1/1
f 126/1/1 123/1/1 122/1/1
f 126/1/1 124/1/1 123/1/1
f 127/1/1 124/1/1 126/1/1
f 128/8/1 126/8/1 125/8/1
f 129/8/1 126/8/1 128/8/1
f 132/5/1 131/5/1 130/5/1
f 133/5/1 131/5/1 132/5/1
f 136/5/1 133/5/1 132/5/1
f 137/1/1 134/1/1 133/1/1
f 137/5/1 133/5/1 136/5/1
f 138/1/1 134/1/1 137/1/1
f 139/1/1 137/1/1 136/1/1
f 139/1/1 138/1/1 137/1/1
f 140/1/1 138/1/1 139/1/1
f 141/4/1 136/4/1 135/4/1
f 142/1/1 139/1/1 136/1/1
f 142/4/1 136/4/1 141/4/1
f 143/1/1 139/1/1 142/1/1
f 144/3/2 145/3/2 146/3/2
f 146/3/2 145/3/2 147/3/2
f 148/8/2 149/8/2 150/8/2
f 150/8/2 149/8/2 151/8/2
f 152/7/2 153/7/2 154/7/2
f 154/7/2 153/7/2 155/7/2
f 156/1/2 157/1/2 158/1/2
f 158/1/2 157/1/2 159/1/2
f 159/1/2 157/1/2 160/1/2
f 161/7/2 162/7/2 163/7/2
f 163/7/2 162/7/2 164/7/2
f 165/4/2 166/4/2 169/4/2
f 166/1/2 167/1/2 170/1/2
f 169/4/2 166/4/2 170/4/2
f 170/1/2 167/1/2 171/1/2
f 168/4/2 169/4/2 176/4/2
f 169/1/2 170/1/2 177/1/2
f 176/4/2 169/4/2 177/4/2
f 177/1/2 170/1/2 178/1/2
f 175/4/2 176/4/2 179/4/2
f 176/1/2 177/1/2 179/1/2
f 179/1/2 177/1/2 180/1/2
f 172/1/2 173/1/2 181/1/2
f 173/7/2 174/7/2 182/7/2
f 181/1/2 173/1/2 182/1/2
f 182/7/2 174/7/2 183/7/2
f 175/4/2 179/4/2 184/4/2
f 184/4/2 179/4/2 185/4/2
f 181/1/2 182/1/2 186/1/2
f 186/1/2 182/1/2 187/1/2
f 188/17/2 189/17/2 193/17/2
f 193/17/2 189/17/2 194/17/2
f 190/17/2 191/17/2 195/17/2
f 195/17/2 191/17/2 196/17/2
f 192/17/2 193/17/2 198/17/2
f 198/17/2 193/17/2 199/17/2
f 196/17/2 197/17/2 203/17/2
f 203/17/2 197/17/2 204/17/2
f 201/8/2 202/8/2 205/8/2
f 200/6/2 201/6/2 205/6/2
f 205/8/2 202/8/2 206/8/2
f 200/6/2 205/6/2 208/6/2
f 207/8/2 208/8/2 211/8/2
f 208/6/2 205/6/2 212/6/2
f 211/8/2 208/8/2 212/8/2
f 212/6/2 205/6/2 213/6/2
f 209/1/2 210/1/2 214/1/2
f 214/1/2 210/1/2 215/1/2
f 216/1/2 217/1/2 218/1/2
f 218/1/2 217/1/2 219/1/2
f 218/1/2 219/1/2 223/1/2
f 219/1/2 220/1/2 223/1/2
f 223/1/2 220/1/2 224/1/2
f 224/1/2 220/1/2 225/1/2
f 221/1/2 222/1/2 226/1/2
f 223/1/2 224/1/2 227/1/2
f 227/1/2 224/1/2 228/1/2
f 226/1/2 222/1/2 229/1/2
f 229/1/2 222/1/2 230/1/2
f 231/17/2 232/17/2 234/17/2
f 234/17/2 232/17/2 235/17/2
f 233/17/2 234/17/2 237/17/2
f 237/17/2 234/17/2 238/17/2
f 235/17/2 236/17/2 239/17/2
f 239/17/2 236/17/2 240/17/2
f 241/8/2 242/8/2 245/8/2
f 245/8/2 242/8/2 246/8/2
f 243/8/2 244/8/2 249/8/2
f 244/6/2 245/6/2 250/6/2
f 249/8/2 244/8/2 250/8/2
f 245/2/2 246/2/2 251/2/2
f 250/6/2 245/6/2 251/6/2
f 246/8/2 247/8/2 252/8/2
f 251/2/2 246/2/2 252/2/2
f 252/8/2 247/8/2 253/8/2
f 250/6/2 251/6/2 255/6/2
f 255/6/2 251/6/2 256/6/2
f 252/1/2 253/1/2 257/1/2
f 253/8/2 254/8/2 258/8/2
f 257/1/2 253/1/2 258/1/2
f 248/8/2 249/8/2 259/8/2
f 258/8/2 254/8/2 260/8/2
f 260/8/2 254/8/2 261/8/2
f 248/8/2 259/8/2 262/8/2
f 262/8/2 259/8/2 263/8/2
f 264/17/2 265/17/2 266/17/2
f 266/17/2 265/17/2 267/17/2
f 268/1/2 269/1/2 272/1/2
f 270/5/2 271/5/2 273/5/2
f 273/5/2 271/5/2 274/5/2
f 268/1/2 272/1/2 276/1/2
f 272/6/2 273/6/2 277/6/2
f 276/1/2 272/1/2 277/1/2
f 273/5/2 274/5/2 278/5/2
f 277/6/2 273/6/2 278/6/2
f 274/1/2 275/1/2 279/1/2
f 278/5/2 274/5/2 279/5/2
f 279/1/2 275/1/2 280/1/2
f 280/1/2 275/1/2 281/1/2
f 277/4/2 278/4/2 282/4/2
f 282/4/2 278/4/2 283/4/2
f 284/5/2 285/5/2 286/5/2
f 286/5/2 285/5/2 287/5/2
f 290/4/3 289/4/3 288/4/3
f 291/4/3 289/4/3 290/4/3
f 298/4/3 295/4/3 294/4/3
f 299/4/3 295/4/3 298/4/3
f 300/17/3 293/17/3 292/17/3
f 301/17/3 293/17/3 300/17/3
f 302/1/3 297/1/3 296/1/3
f 303/2/3 298/2/3 297/2/3
f 303/1/3 297/1/3 302/1/3
f 304/2/3 298/2/3 303/2/3
f 306/8/3 305/8/3 304/8/3
f 306/8/3 304/8/3 303/8/3
f 306/8/3 303/8/3 302/8/3
f 307/8/3 305/8/3 306/8/3
f 313/3/3 309/3/3 308/3/3
f 314/3/3 309/3/3 313/3/3
f 315/3/3 309/3/3 314/3/3
f 317/17/3 311/17/3 310/17/3
f 318/17/3 311/17/3 317/17/3
f 319/7/3 313/7/3 312/7/3
f 319/7/3 314/7/3 313/7/3
f 320/7/3 314/7/3 319/7/3
f 321/7/3 314/7/3 320/7/3
f 325/4/3 322/4/3 321/4/3
f 325/4/3 321/4/3 320/4/3
f 326/4/3 322/4/3 325/4/3
f 327/4/3 322/4/3 326/4/3
f 328/17/3 317/17/3 316/17/3
f 329/17/3 317/17/3 328/17/3
f 331/8/3 324/8/3 323/8/3
f 332/2/3 325/2/3 324/2/3
f 332/8/3 324/8/3 331/8/3
f 333/2/3 325/2/3 332/2/3
f 334/17/3 330/17/3 329/17/3
f 335/17/3 330/17/3 334/17/3
f 336/8/3 333/8/3 332/8/3
f 337/8/3 333/8/3 336/8/3
f 339/1/3 338/1/3 337/1/3
f 340/1/3 338/1/3 339/1/3
f 344/17/3 342/17/3 341/17/3
f 345/17/3 342/17/3 344/17/3
f 350/17/3 344/17/3 343/17/3
f 351/17/3 344/17/3 350/17/3
f 353/7/3 347/7/3 346/7/3
f 354/7/3 347/7/3 353/7/3
f 356/1/3 349/1/3 348/1/3
f 357/1/3 349/1/3 356/1/3
f 358/1/3 349/1/3 357/1/3
f 359/4/3 355/4/3 354/4/3
f 359/4/3 353/4/3 352/4/3
f 359/4/3 354/4/3 353/4/3
f 360/4/3 355/4/3 359/4/3
f 361/4/3 355/4/3 360/4/3
f 362/4/3 355/4/3 361/4/3
f 365/6/3 360/6/3 359/6/3
f 366/6/3 360/6/3 365/6/3
f 367/17/3 364/17/3 363/17/3
f 368/17/3 364/17/3 367/17/3
f 372/17/3 369/17/3 368/17/3
f 373/17/3 369/17/3 372/17/3
f 374/4/3 371/4/3 370/4/3
f 375/4/3 371/4/3 374/4/3
f 379/8/3 377/8/3 376/8/3
f 380/8/3 377/8/3 379/8/3
f 381/8/3 379/8/3 378/8/3
f 382/8/3 379/8/3 381/8/3
f 385/1/3 383/1/3 382/1/3
f 388/1/3 385/1/3 384/1/3
f 389/1/3 383/1/3 385/1/3
f 389/1/3 385/1/3 388/1/3
f 390/1/3 383/1/3 389/1/3
f 391/8/3 387/8/3 386/8/3
f 392/8/3 387/8/3 391/8/3
f 395/5/3 394/5/3 393/5/3
f 396/5/3 394/5/3 395/5/3
f 399/5/3 398/5/3 397/5/3
f 400/5/3 398/5/3 399/5/3
f 403/1/3 402/1/3 401/1/3
f 404/1/3 402/1/3 403/1/3
f 407/1/3 406/1/3 405/1/3
f 408/1/3 406/1/3 407/1/3
f 411/7/3 410/7/3 409/7/3
f 412/7/3 410/7/3 411/7/3
f 415/8/3 414/8/3 413/8/3
f 416/8/3 414/8/3 415/8/3
f 420/1/3 418/1/3 417/1/3
f 420/1/3 419/1/3 418/1/3
f 421/1/3 419/1/3 420/1/3
f 422/4/4 423/4/4 424/4/4
f 424/4/4 423/4/4 425/4/4
f 426/1/4 427/1/4 430/1/4
f 430/1/4 427/1/4 431/1/4
f 428/2/4 429/2/4 432/2/4
f 432/2/4 429/2/4 433/2/4
f 433/8/4 434/8/4 435/8/4
f 435/8/4 434/8/4 436/8/4
f 437/3/4 438/3/4 440/3/4
f 440/3/4 438/3/4 441/3/4
f 441/3/4 438/3/4 442/3/4
f 439/7/4 440/7/4 443/7/4
f 440/7/4 441/7/4 443/7/4
f 443/7/4 441/7/4 444/7/4
f 444/7/4 441/7/4 445/7/4
f 446/1/4 447/1/4 448/1/4
f 448/1/4 447/1/4 449/1/4
f 450/1/4 451/1/4 452/1/4
f 452/1/4 451/1/4 453/1/4
f 454/7/4 455/7/4 458/7/4
f 458/7/4 455/7/4 459/7/4
f 459/7/4 455/7/4 460/7/4
f 456/1/4 457/1/4 461/1/4
f 461/1/4 457/1/4 462/1/4
f 463/6/4 464/6/4 466/6/4
f 464/1/4 465/1/4 467/1/4
f 466/6/4 464/6/4 467/6/4
f 467/1/4 465/1/4 468/1/4
f 469/17/4 470/17/4 474/17/4
f 474/17/4 470/17/4 475/17/4
f 471/8/4 472/8/4 477/8/4
f 477/8/4 472/8/4 478/8/4
f 478/8/4 472/8/4 479/8/4
f 473/17/4 474/17/4 480/17/4
f 480/17/4 474/17/4 481/17/4
f 476/8/4 477/8/4 486/8/4
f 486/8/4 477/8/4 487/8/4
f 477/1/4 478/1/4 488/1/4
f 487/8/4 477/8/4 488/8/4
f 488/1/4 478/1/4 489/1/4
f 482/8/4 483/8/4 490/8/4
f 484/7/4 485/7/4 491/7/4
f 491/7/4 485/7/4 492/7/4
f 486/7/4 487/7/4 493/7/4
f 487/1/4 488/1/4 494/1/4
f 493/7/4 487/7/4 494/7/4
f 494/1/4 488/1/4 495/1/4
f 482/8/4 490/8/4 499/8/4
f 490/1/4 491/1/4 500/1/4
f 499/8/4 490/8/4 500/8/4
f 500/1/4 491/1/4 501/1/4
f 495/1/4 496/1/4 503/1/4
f 503/1/4 496/1/4 504/1/4
f 497/17/4 498/17/4 505/17/4
f 505/17/4 498/17/4 506/17/4
f 501/8/4 502/8/4 508/8/4
f 500/8/4 501/8/4 508/8/4
f 508/8/4 502/8/4 509/8/4
f 506/17/4 507/17/4 514/17/4
f 514/17/4 507/17/4 515/17/4
f 510/5/4 511/5/4 516/5/4
f 516/5/4 511/5/4 517/5/4
f 512/1/4 513/1/4 519/1/4
f 519/1/4 513/1/4 520/1/4
f 519/5/4 520/5/4 521/5/4
f 518/5/4 519/5/4 521/5/4
f 521/5/4 520/5/4 522/5/4
f 523/17/4 524/17/4 526/17/4
f 526/17/4 524/17/4 527/17/4
f 528/7/4 529/7/4 534/7/4
f 534/7/4 529/7/4 535/7/4
f 530/7/4 531/7/4 536/7/4
f 536/7/4 531/7/4 537/7/4
f 532/1/4 533/1/4 538/1/4
f 538/1/4 533/1/4 539/1/4
f 525/17/4 526/17/4 540/17/4
f 540/17/4 526/17/4 541/17/4
f 536/1/4 537/1/4 543/1/4
f 535/1/4 536/1/4 543/1/4
f 543/1/4 537/1/4 544/1/4
f 544/1/4 537/1/4 545/1/4
f 541/17/4 542/17/4 546/17/4
f 546/17/4 542/17/4 547/17/4
f 544/8/4 545/8/4 548/8/4
f 548/8/4 545/8/4 549/8/4
f 551/1/4 552/1/4 553/1/4
f 550/1/4 551/1/4 553/1/4
f 553/1/4 552/1/4 554/1/4
f 557/7/4 558/7/4 560/7/4
f 560/7/4 558/7/4 561/7/4
f 555/17/4 556/17/4 562/17/4
f 562/17/4 556/17/4 563/17/4
f 559/1/4 560/1/4 564/1/4
f 564/1/4 560/1/4 565/1/4
f 565/8/4 566/8/4 567/8/4
f 564/8/4 565/8/4 567/8/4
f 567/8/4 566/8/4 568/8/4
f 569/1/4 570/1/4 571/1/4
f 571/1/4 570/1/4 572/1/4
f 576/17/5 574/17/5 573/17/5
f 577/17/5 574/17/5 576/17/5
f 579/17/5 576/17/5 575/17/5
f 579/17/5 578/17/5 577/17/5
f 579/17/5 577/17/5 576/17/5
f 580/17/5 578/17/5 579/17/5
f 581/17/5 578/17/5 580/17/5
f 582/17/5 578/17/5 581/17/5
f 583/17/5 581/17/5 580/17/5
f 584/17/5 581/17/5 583/17/5
f 588/17/5 586/17/5 585/17/5
f 589/17/5 586/17/5 588/17/5
f 592/17/5 588/17/5 587/17/5
f 593/17/5 588/17/5 592/17/5
f 594/17/5 590/17/5 589/17/5
f 595/17/5 590/17/5 594/17/5
f 597/17/5 592/17/5 591/17/5
f 598/17/5 592/17/5 597/17/5
f 601/17/5 596/17/5 595/17/5
f 602/17/5 596/17/5 601/17/5
f 603/17/5 599/17/5 598/17/5
f 604/17/5 599/17/5 603/17/5
f 605/17/5 601/17/5 600/17/5
f 606/17/5 601/17/5 605/17/5
f 607/17/5 605/17/5 604/17/5
f 608/17/5 605/17/5 607/17/5
f 611/7/5 610/7/5 609/7/5
f 612/7/5 610/7/5 611/7/5
f 617/8/5 614/8/5 613/8/5
f 618/8/5 614/8/5 617/8/5
f 619/7/5 616/7/5 615/7/5
f 620/7/5 616/7/5 619/7/5
f 623/8/5 622/8/5 621/8/5
f 624/8/5 622/8/5 623/8/5
f 627/1/5 626/1/5 625/1/5
f 628/1/5 626/1/5 627/1/5
f 633/7/5 630/7/5 629/7/5
f 634/7/5 630/7/5 633/7/5
f 635/8/5 632/8/5 631/8/5
f 636/8/5 632/8/5 635/8/5
f 637/6/5 636/6/5 635/6/5
f 638/6/5 636/6/5 637/6/5
f 643/7/5 640/7/5 639/7/5
f 644/7/5 640/7/5 643/7/5
f 645/8/5 642/8/5 641/8/5
f 646/8/5 642/8/5 645/8/5
f 653/1/5 648/1/5 647/1/5
f 654/8/5 649/8/5 648/8/5
f 654/1/5 648/1/5 653/1/5
f 655/8/5 649/8/5 654/8/5
f 657/3/5 651/3/5 650/3/5
f 658/3/5 651/3/5 657/3/5
f 659/4/5 653/4/5 652/4/5
f 660/4/5 653/4/5 659/4/5
f 661/1/5 656/1/5 655/1/5
f 662/1/5 656/1/5 661/1/5
f 667/8/5 664/8/5 663/8/5
f 668/8/5 664/8/5 667/8/5
f 669/5/5 666/5/5 665/5/5
f 670/5/5 666/5/5 669/5/5
f 674/1/5 672/1/5 671/1/5
f 675/8/5 673/8/5 672/8/5
f 675/1/5 672/1/5 674/1/5
f 676/8/5 673/8/5 675/8/5
f 679/6/5 678/6/5 677/6/5
f 680/6/5 678/6/5 679/6/5
f 685/1/5 682/1/5 681/1/5
f 686/1/5 682/1/5 685/1/5
f 687/7/5 684/7/5 683/7/5
f 688/7/5 684/7/5 687/7/5
f 690/1/5 689/1/5 688/1/5
f 691/1/5 689/1/5 690/1/5
f 694/4/5 693/4/5 692/4/5
f 695/4/5 693/4/5 694/4/5
f 699/1/5 697/1/5 696/1/5
f 700/1/5 697/1/5 699/1/5
f 703/8/5 699/8/5 698/8/5
f 704/8/5 699/8/5 703/8/5
f 707/5/5 702/5/5 701/5/5
f 708/5/5 702/5/5 707/5/5
f 709/1/5 706/1/5 705/1/5
f 710/1/5 706/1/5 709/1/5
f 713/4/5 712/4/5 711/4/5
f 714/4/5 712/4/5 713/4/5
f 715/17/6 716/17/6 718/17/6
f 718/17/6 716/17/6 719/17/6
f 719/17/6 716/17/6 720/17/6
f 717/17/6 718/17/6 723/17/6
f 718/14/6 719/14/6 724/14/6
f 723/17/6 718/17/6 724/17/6
f 719/9/6 720/9/6 725/9/6
f 724/14/6 719/14/6 725/14/6
f 720/17/6 721/17/6 726/17/6
f 725/9/6 720/9/6 726/9/6
f 726/17/6 721/17/6 727/17/6
f 722/17/6 723/17/6 729/17/6
f 723/15/6 724/15/6 729/15/6
f 729/15/6 724/15/6 730/15/6
f 726/10/6 727/10/6 731/10/6
f 727/17/6 728/17/6 732/17/6
f 731/10/6 727/10/6 732/10/6
f 722/17/6 729/17/6 733/17/6
f 729/11/6 730/11/6 734/11/6
f 733/17/6 729/17/6 734/17/6
f 734/11/6 730/11/6 735/11/6
f 731/9/6 732/9/6 736/9/6
f 732/17/6 728/17/6 737/17/6
f 736/9/6 732/9/6 737/9/6
f 737/17/6 728/17/6 738/17/6
f 734/17/6 735/17/6 739/17/6
f 735/11/6 736/11/6 740/11/6
f 739/17/6 735/17/6 740/17/6
f 736/17/6 737/17/6 741/17/6
f 740/11/6 736/11/6 741/11/6
f 741/17/6 737/17/6 742/17/6
f 740/17/6 741/17/6 743/17/6
f 743/17/6 741/17/6 744/17/6
f 745/7/6 746/7/6 747/7/6
f 747/7/6 746/7/6 748/7/6
f 749/7/6 750/7/6 751/7/6
f 751/7/6 750/7/6 752/7/6
f 753/2/6 754/2/6 757/2/6
f 757/2/6 754/2/6 758/2/6
f 755/7/6 756/7/6 759/7/6
f 759/7/6 756/7/6 760/7/6
f 761/7/6 762/7/6 765/7/6
f 765/7/6 762/7/6 766/7/6
f 763/1/6 764/1/6 767/1/6
f 767/1/6 764/1/6 768/1/6
f 767/5/6 768/5/6 769/5/6
f 769/5/6 768/5/6 770/5/6
f 771/1/6 772/1/6 773/1/6
f 773/1/6 772/1/6 774/1/6
f 775/2/6 776/2/6 779/2/6
f 779/2/6 776/2/6 780/2/6
f 777/3/6 778/3/6 783/3/6
f 783/3/6 778/3/6 784/3/6
f 781/1/6 782/1/6 787/1/6
f 780/1/6 781/1/6 787/1/6
f 787/1/6 782/1/6 788/1/6
f 785/1/6 786/1/6 789/1/6
f 789/1/6 786/1/6 790/1/6
f 780/1/6 787/1/6 791/1/6
f 791/1/6 787/1/6 792/1/6
f 793/1/6 794/1/6 795/1/6
f 795/1/6 794/1/6 796/1/6
f 795/1/6 796/1/6 798/1/6
f 796/8/6 797/8/6 799/8/6
f 798/1/6 796/1/6 799/1/6
f 799/8/6 797/8/6 800/8/6
f 801/8/6 802/8/6 805/8/6
f 805/8/6 802/8/6 806/8/6
f 803/1/6 804/1/6 807/1/6
f 807/1/6 804/1/6 808/1/6
f 809/1/6 810/1/6 811/1/6
f 811/1/6 810/1/6 812/1/6
f 813/1/6 814/1/6 815/1/6
f 815/1/6 814/1/6 816/1/6
f 817/1/6 818/1/6 819/1/6
f 819/1/6 818/1/6 820/1/6
f 821/1/6 822/1/6 826/1/6
f 826/1/6 822/1/6 827/1/6
f 823/4/6 824/4/6 829/4/6
f 829/4/6 824/4/6 830/4/6
f 825/8/6 826/8/6 832/8/6
f 832/8/6 826/8/6 833/8/6
f 827/1/6 828/1/6 834/1/6
f 834/1/6 828/1/6 835/1/6
f 835/1/6 828/1/6 836/1/6
f 829/1/6 830/1/6 837/1/6
f 830/5/6 831/5/6 838/5/6
f 837/1/6 830/1/6 838/1/6
f 838/5/6 831/5/6 839/5/6
f 840/7/6 841/7/6 842/7/6
f 842/7/6 841/7/6 843/7/6
f 844/4/6 845/4/6 846/4/6
f 846/4/6 845/4/6 847/4/6
f 848/1/6 849/1/6 850/1/6
f 850/1/6 849/1/6 851/1/6
f 852/1/6 853/1/6 854/1/6
f 854/1/6 853/1/6 855/1/6
