# MagicaVoxel @ Ephtracy

# group
o long_round_black

# material
mtllib potted_plants-4-long_round_black.mtl
usemtl palette

# normals
vn -1 0 0
vn 1 0 0
vn 0 0 1
vn 0 0 -1
vn 0 -1 0
vn 0 1 0

# texcoords
vt 0.0332031 0.5
vt 0.0371094 0.5
vt 0.0410156 0.5
vt 0.0449219 0.5
vt 0.0488281 0.5
vt 0.0527344 0.5
vt 0.0566406 0.5
vt 0.0605469 0.5
vt 0.0957031 0.5
vt 0.0996094 0.5
vt 0.103516 0.5
vt 0.107422 0.5
vt 0.111328 0.5
vt 0.115234 0.5
vt 0.119141 0.5
vt 0.123047 0.5
vt 0.220703 0.5
vt 0.224609 0.5
vt 0.228516 0.5
vt 0.232422 0.5
vt 0.236328 0.5
vt 0.240234 0.5
vt 0.244141 0.5
vt 0.248047 0.5
vt 0.595703 0.5

# verts
v -0.5 2.2 4.3
v -0.5 2.2 4.2
v -0.5 2.3 4.3
v -0.5 2.3 4.2
v -0.4 1 4.5
v -0.4 1 4.1
v -0.4 1.1 4.5
v -0.4 1.1 4.1
v -0.4 1.8 4.3
v -0.4 1.8 4.2
v -0.4 1.9 4.4
v -0.4 1.9 4.3
v -0.4 1.9 4.2
v -0.4 1.9 4.1
v -0.4 2 4.4
v -0.4 2 4.3
v -0.4 2 4.2
v -0.4 2 4.1
v -0.4 2.1 4.5
v -0.4 2.1 4.4
v -0.4 2.1 4.3
v -0.4 2.1 4.2
v -0.4 2.1 4.1
v -0.4 2.2 4.5
v -0.4 2.2 4.4
v -0.4 2.2 4.3
v -0.4 2.2 4.2
v -0.4 2.2 4.1
v -0.4 2.2 4
v -0.4 2.3 4.3
v -0.4 2.3 4.2
v -0.4 2.3 4.1
v -0.4 2.3 4
v -0.4 2.4 4.3
v -0.4 2.4 4.2
v -0.3 0.4 4.5
v -0.3 0.4 4.1
v -0.3 1 4.6
v -0.3 1 4.5
v -0.3 1 4.1
v -0.3 1 4
v -0.3 1.1 4.6
v -0.3 1.1 4.5
v -0.3 1.1 4.1
v -0.3 1.1 4
v -0.3 1.4 4.3
v -0.3 1.4 4.2
v -0.3 1.5 4.3
v -0.3 1.5 4.2
v -0.3 1.6 4.5
v -0.3 1.6 4.4
v -0.3 1.6 4.3
v -0.3 1.6 4.2
v -0.3 1.6 4.1
v -0.3 1.6 4
v -0.3 1.7 4.6
v -0.3 1.7 4.5
v -0.3 1.7 4.4
v -0.3 1.7 4.3
v -0.3 1.7 4.2
v -0.3 1.7 4.1
v -0.3 1.7 4
v -0.3 1.8 4.6
v -0.3 1.8 4.5
v -0.3 1.8 4.4
v -0.3 1.8 4.3
v -0.3 1.8 4.2
v -0.3 1.8 4.1
v -0.3 1.8 4
v -0.3 1.9 4.5
v -0.3 1.9 4.4
v -0.3 1.9 4.3
v -0.3 1.9 4.1
v -0.3 1.9 4
v -0.3 2 4.7
v -0.3 2 4.6
v -0.3 2 4.5
v -0.3 2 4.4
v -0.3 2 4.2
v -0.3 2 4.1
v -0.3 2 4
v -0.3 2.1 4.7
v -0.3 2.1 4.6
v -0.3 2.1 4.5
v -0.3 2.1 4.4
v -0.3 2.1 4.2
v -0.3 2.1 4.1
v -0.3 2.2 4.6
v -0.3 2.2 4.5
v -0.3 2.2 4.4
v -0.3 2.2 4.3
v -0.3 2.2 4.2
v -0.3 2.2 4.1
v -0.3 2.2 4
v -0.3 2.2 3.9
v -0.3 2.3 4.4
v -0.3 2.3 4.3
v -0.3 2.3 4.2
v -0.3 2.3 4.1
v -0.3 2.3 4
v -0.3 2.3 3.9
v -0.3 2.4 4.4
v -0.3 2.4 4.3
v -0.3 2.4 4.2
v -0.3 2.4 4.1
v -0.3 2.5 4.4
v -0.3 2.5 4.3
v -0.3 2.5 4.2
v -0.3 2.5 4.1
v -0.3 2.6 4.4
v -0.3 2.6 4.3
v -0.2 0 4.5
v -0.2 0 4.1
v -0.2 0.4 4.6
v -0.2 0.4 4.5
v -0.2 0.4 4.1
v -0.2 0.4 4
v -0.2 1 4.7
v -0.2 1 4.6
v -0.2 1 4.5
v -0.2 1 4.1
v -0.2 1 4
v -0.2 1 3.9
v -0.2 1.1 4.7
v -0.2 1.1 4.6
v -0.2 1.1 4
v -0.2 1.1 3.9
v -0.2 1.3 4.3
v -0.2 1.3 4.2
v -0.2 1.4 4.3
v -0.2 1.4 4.2
v -0.2 1.5 4.4
v -0.2 1.5 4.3
v -0.2 1.6 4.4
v -0.2 1.6 4.3
v -0.2 1.6 4.2
v -0.2 1.6 4
v -0.2 1.6 3.9
v -0.2 1.7 4.3
v -0.2 1.7 4.2
v -0.2 1.7 4
v -0.2 1.7 3.9
v -0.2 1.8 4.3
v -0.2 1.8 4.2
v -0.2 1.8 4.1
v -0.2 1.8 4
v -0.2 1.8 3.9
v -0.2 1.9 4.2
v -0.2 1.9 4.1
v -0.2 1.9 4
v -0.2 1.9 3.9
v -0.2 2 4.1
v -0.2 2 4
v -0.2 2.1 4.3
v -0.2 2.1 4.2
v -0.2 2.2 4.5
v -0.2 2.2 4.4
v -0.2 2.2 4.3
v -0.2 2.2 4.2
v -0.2 2.3 4.5
v -0.2 2.3 4.4
v -0.2 2.3 4.3
v -0.2 2.3 4.2
v -0.2 2.3 4.1
v -0.2 2.3 4
v -0.2 2.4 4.5
v -0.2 2.4 4.4
v -0.2 2.4 4.3
v -0.2 2.4 4.2
v -0.2 2.4 4.1
v -0.2 2.4 4
v -0.2 2.5 4.6
v -0.2 2.5 4.5
v -0.2 2.5 4.4
v -0.2 2.5 4.3
v -0.2 2.5 4.2
v -0.2 2.6 4.6
v -0.2 2.6 4.5
v -0.2 2.6 4.3
v -0.2 2.6 4.2
v -0.2 2.7 4.4
v -0.2 2.7 4.3
v -0.2 2.7 4.2
v -0.2 2.8 4.4
v -0.2 2.8 4.3
v -0.2 2.8 4.2
v -0.1 1.1 4.4
v -0.1 1.1 4.3
v -0.1 1.1 4.2
v -0.1 1.2 4.4
v -0.1 1.2 4.3
v -0.1 1.3 4.5
v -0.1 1.3 4.4
v -0.1 1.3 4.3
v -0.1 1.3 4.2
v -0.1 1.4 4.5
v -0.1 1.4 4.4
v -0.1 1.4 4.3
v -0.1 1.4 4.2
v -0.1 1.4 4.1
v -0.1 1.5 4.6
v -0.1 1.5 4.5
v -0.1 1.5 4.4
v -0.1 1.5 4.3
v -0.1 1.5 4.2
v -0.1 1.5 4.1
v -0.1 1.6 4.6
v -0.1 1.6 4.5
v -0.1 1.6 4.4
v -0.1 1.6 4.3
v -0.1 1.6 4.2
v -0.1 1.6 4.1
v -0.1 1.7 4.5
v -0.1 1.7 4.4
v -0.1 1.7 4.2
v -0.1 1.7 4.1
v -0.1 1.7 4
v -0.1 1.8 4.5
v -0.1 1.8 4.4
v -0.1 1.8 4.3
v -0.1 1.8 4.2
v -0.1 1.8 4.1
v -0.1 1.8 4
v -0.1 1.9 4.6
v -0.1 1.9 4.5
v -0.1 1.9 4.4
v -0.1 1.9 4.3
v -0.1 1.9 4.2
v -0.1 1.9 4
v -0.1 1.9 3.9
v -0.1 2 4.6
v -0.1 2 4.5
v -0.1 2 4.4
v -0.1 2 4.3
v -0.1 2 4.2
v -0.1 2 4.1
v -0.1 2 4
v -0.1 2 3.9
v -0.1 2.1 4.4
v -0.1 2.1 4.3
v -0.1 2.1 4.2
v -0.1 2.1 4.1
v -0.1 2.1 4
v -0.1 2.1 3.9
v -0.1 2.2 4.6
v -0.1 2.2 4.5
v -0.1 2.2 4.4
v -0.1 2.2 4.3
v -0.1 2.2 4.2
v -0.1 2.2 4.1
v -0.1 2.2 4
v -0.1 2.2 3.9
v -0.1 2.3 4.6
v -0.1 2.3 4.5
v -0.1 2.3 4.3
v -0.1 2.3 4.2
v -0.1 2.3 4.1
v -0.1 2.3 4
v -0.1 2.3 3.9
v -0.1 2.4 4.1
v -0.1 2.4 4
v -0.1 2.4 3.9
v -0.1 2.5 4.5
v -0.1 2.5 4.4
v -0.1 2.5 4.2
v -0.1 2.5 4.1
v -0.1 2.5 4
v -0.1 2.6 4.5
v -0.1 2.6 4.4
v -0.1 2.6 4.3
v -0.1 2.6 4.2
v -0.1 2.6 4.1
v -0.1 2.7 4.5
v -0.1 2.7 4.4
v -0.1 2.7 4.3
v -0.1 2.7 4.2
v -1.49012e-008 1.3 4.2
v -1.49012e-008 1.3 4.1
v -1.49012e-008 1.4 4.2
v -1.49012e-008 1.4 4.1
v -1.49012e-008 1.5 4.2
v -1.49012e-008 1.5 4.1
v -1.49012e-008 1.6 4.6
v -1.49012e-008 1.6 4.5
v -1.49012e-008 1.6 4.2
v -1.49012e-008 1.6 4.1
v -1.49012e-008 1.7 4.6
v -1.49012e-008 1.7 4.5
v -1.49012e-008 1.8 4.7
v -1.49012e-008 1.8 4.5
v -1.49012e-008 1.8 4.2
v -1.49012e-008 1.8 4.1
v -1.49012e-008 1.9 4.8
v -1.49012e-008 1.9 4.7
v -1.49012e-008 1.9 4.6
v -1.49012e-008 1.9 4.5
v -1.49012e-008 1.9 4.2
v -1.49012e-008 1.9 4.1
v -1.49012e-008 2 4.8
v -1.49012e-008 2 4.7
v -1.49012e-008 2 4.6
v -1.49012e-008 2 4.5
v -1.49012e-008 2 4.4
v -1.49012e-008 2 4
v -1.49012e-008 2 3.9
v -1.49012e-008 2.1 4.7
v -1.49012e-008 2.1 4.6
v -1.49012e-008 2.1 4.5
v -1.49012e-008 2.1 4.4
v -1.49012e-008 2.1 4
v -1.49012e-008 2.1 3.9
v -1.49012e-008 2.2 4.2
v -1.49012e-008 2.2 4.1
v -1.49012e-008 2.2 4
v -1.49012e-008 2.2 3.9
v -1.49012e-008 2.3 4.8
v -1.49012e-008 2.3 4.7
v -1.49012e-008 2.3 4.6
v -1.49012e-008 2.3 4.2
v -1.49012e-008 2.3 4.1
v -1.49012e-008 2.3 4
v -1.49012e-008 2.3 3.9
v -1.49012e-008 2.4 4.8
v -1.49012e-008 2.4 4.7
v -1.49012e-008 2.4 4.6
v -1.49012e-008 2.4 4
v -1.49012e-008 2.4 3.9
v -1.49012e-008 2.5 4.8
v -1.49012e-008 2.5 4.7
v -1.49012e-008 2.5 4.6
v -1.49012e-008 2.5 4.1
v -1.49012e-008 2.5 4
v -1.49012e-008 2.5 3.9
v -1.49012e-008 2.6 4.7
v -1.49012e-008 2.6 4.6
v -1.49012e-008 2.6 4.1
v -1.49012e-008 2.6 4
v -1.49012e-008 2.7 4.1
v -1.49012e-008 2.7 4
v 0.1 1.6 4.2
v 0.1 1.6 4.1
v 0.1 1.6 4
v 0.1 1.6 3.9
v 0.1 1.6 3.8
v 0.1 1.7 4.2
v 0.1 1.7 4.1
v 0.1 1.7 4
v 0.1 1.7 3.9
v 0.1 1.7 3.8
v 0.1 1.8 4.1
v 0.1 1.8 4
v 0.1 1.8 3.9
v 0.1 1.8 3.8
v 0.1 1.9 4.5
v 0.1 1.9 4.4
v 0.1 1.9 4.2
v 0.1 1.9 4.1
v 0.1 1.9 4
v 0.1 1.9 3.9
v 0.1 1.9 3.8
v 0.1 2 4.5
v 0.1 2 4.4
v 0.1 2 4.2
v 0.1 2 4.1
v 0.1 2.1 4.2
v 0.1 2.1 4.1
v 0.1 2.1 4
v 0.1 2.1 3.9
v 0.1 2.2 4.6
v 0.1 2.2 4.5
v 0.1 2.2 4
v 0.1 2.2 3.9
v 0.1 2.3 4.6
v 0.1 2.3 4.5
v 0.1 2.4 4.6
v 0.1 2.4 4.5
v 0.1 2.5 4.6
v 0.1 2.5 4.5
v 0.1 2.5 4
v 0.1 2.5 3.9
v 0.1 2.6 4.2
v 0.1 2.6 4.1
v 0.1 2.6 4
v 0.1 2.6 3.9
v 0.1 2.7 4.2
v 0.1 2.7 4.1
v 0.2 1.5 4.2
v 0.2 1.5 4.1
v 0.2 1.6 4.2
v 0.2 1.6 4.1
v 0.2 1.8 4.4
v 0.2 1.8 4.3
v 0.2 1.9 4.4
v 0.2 1.9 4.3
v 0.2 1.9 4.1
v 0.2 1.9 4
v 0.2 2 4.3
v 0.2 2 4.2
v 0.2 2 4.1
v 0.2 2 4
v 0.2 2.1 4.3
v 0.2 2.1 4.2
v 0.2 2.1 4.1
v 0.2 2.1 4
v 0.2 2.2 4.3
v 0.2 2.2 4.2
v 0.2 2.2 4.1
v 0.2 2.2 4
v 0.2 2.3 4.3
v 0.2 2.3 4.2
v 0.2 2.4 4.7
v 0.2 2.4 4.6
v 0.2 2.4 4.3
v 0.2 2.4 4.2
v 0.2 2.5 4.7
v 0.2 2.5 4.6
v 0.2 2.6 4.6
v 0.2 2.6 4.5
v 0.2 2.7 4.6
v 0.2 2.7 4.5
v 0.3 2.2 4.1
v 0.3 2.2 4
v 0.3 2.3 4.1
v 0.3 2.3 4
v 0.4 1.7 4.2
v 0.4 1.7 4.1
v 0.4 1.8 4.2
v 0.4 1.8 4.1
v 0.4 1.9 4.3
v 0.4 1.9 4.2
v 0.4 2 4.3
v 0.4 2 4.2
v -0.2 1.5 4.3
v -0.2 1.5 4.2
v -0.2 1.6 4.5
v -0.2 1.6 4.4
v -0.2 1.6 4.3
v -0.2 1.6 4.2
v -0.2 1.6 4.1
v -0.2 1.7 4.6
v -0.2 1.7 4.5
v -0.2 1.7 4.4
v -0.2 1.7 4.2
v -0.2 1.7 4.1
v -0.2 1.8 4.6
v -0.2 1.8 4.5
v -0.2 1.8 4.4
v -0.2 1.8 4.3
v -0.2 1.8 4.2
v -0.2 1.9 4.5
v -0.2 1.9 4.4
v -0.2 1.9 4.3
v -0.2 1.9 4.2
v -0.2 2 4.7
v -0.2 2 4.6
v -0.2 2 4.5
v -0.2 2 4.1
v -0.2 2 4
v -0.2 2.1 4.7
v -0.2 2.1 4.6
v -0.2 2.1 4.5
v -0.2 2.1 4.4
v -0.2 2.1 4.3
v -0.2 2.1 4.1
v -0.2 2.1 4
v -0.2 2.2 4.4
v -0.2 2.2 4.3
v -0.2 2.2 4.2
v -0.2 2.2 4.1
v -0.2 2.2 4
v -0.2 2.2 3.9
v -0.2 2.3 4.3
v -0.2 2.3 4.2
v -0.2 2.3 4.1
v -0.2 2.3 4
v -0.2 2.3 3.9
v -0.1 1.6 4.1
v -0.1 1.6 4
v -0.1 1.7 4.1
v -0.1 1.7 4
v -0.1 1.8 4.2
v -0.1 1.8 4.1
v -0.1 1.9 4.2
v -0.1 1.9 4.1
v -0.1 2 4.5
v -0.1 2 4.4
v -0.1 2 4.2
v -0.1 2 4.1
v -0.1 2.1 4.5
v -0.1 2.1 4.4
v -0.1 2.1 4.2
v -0.1 2.1 4.1
v -0.1 2.2 4.2
v -0.1 2.2 4.1
v -0.1 2.3 4.2
v -0.1 2.3 4.1
v -1.49012e-008 1.4 4.2
v -1.49012e-008 1.4 4.1
v -1.49012e-008 1.5 4.2
v -1.49012e-008 1.5 4.1
v -1.49012e-008 1.6 4.2
v -1.49012e-008 1.6 4.1
v -1.49012e-008 1.6 4
v -1.49012e-008 1.6 3.9
v -1.49012e-008 1.7 4.2
v -1.49012e-008 1.7 4.1
v -1.49012e-008 1.7 4
v -1.49012e-008 1.7 3.9
v -1.49012e-008 1.8 4.1
v -1.49012e-008 1.8 4
v -1.49012e-008 1.9 4.5
v -1.49012e-008 1.9 4.4
v -1.49012e-008 1.9 4.2
v -1.49012e-008 1.9 4.1
v -1.49012e-008 1.9 4
v -1.49012e-008 2 4.5
v -1.49012e-008 2 4.4
v -1.49012e-008 2 4.2
v -1.49012e-008 2 4.1
v -1.49012e-008 2.1 4.6
v -1.49012e-008 2.1 4.5
v -1.49012e-008 2.1 4
v -1.49012e-008 2.1 3.9
v -1.49012e-008 2.2 4.6
v -1.49012e-008 2.2 4.5
v -1.49012e-008 2.2 4
v -1.49012e-008 2.2 3.9
v -1.49012e-008 2.3 4.6
v -1.49012e-008 2.3 4.5
v -1.49012e-008 2.3 4
v -1.49012e-008 2.3 3.9
v -1.49012e-008 2.4 4
v -1.49012e-008 2.4 3.9
v -1.49012e-008 2.5 4.6
v -1.49012e-008 2.5 4.5
v -1.49012e-008 2.6 4.6
v -1.49012e-008 2.6 4.5
v -1.49012e-008 2.7 4.4
v -1.49012e-008 2.7 4.3
v -1.49012e-008 2.7 4.2
v -1.49012e-008 2.8 4.4
v -1.49012e-008 2.8 4.3
v -1.49012e-008 2.8 4.2
v 0.1 1.1 4.4
v 0.1 1.1 4.3
v 0.1 1.1 4.2
v 0.1 1.2 4.4
v 0.1 1.2 4.3
v 0.1 1.2 4.2
v 0.1 1.3 4.5
v 0.1 1.3 4.4
v 0.1 1.3 4.2
v 0.1 1.3 4.1
v 0.1 1.4 4.5
v 0.1 1.4 4.4
v 0.1 1.4 4.2
v 0.1 1.4 4.1
v 0.1 1.5 4.6
v 0.1 1.5 4.5
v 0.1 1.5 4.2
v 0.1 1.5 4.1
v 0.1 1.6 4.6
v 0.1 1.6 4.5
v 0.1 1.6 4.4
v 0.1 1.6 4.2
v 0.1 1.6 4.1
v 0.1 1.7 4.6
v 0.1 1.7 4.5
v 0.1 1.7 4.4
v 0.1 1.8 4.7
v 0.1 1.8 4.5
v 0.1 1.8 4.4
v 0.1 1.8 4.3
v 0.1 1.9 4.8
v 0.1 1.9 4.7
v 0.1 1.9 4.6
v 0.1 1.9 4.5
v 0.1 1.9 4.4
v 0.1 1.9 4.3
v 0.1 1.9 4.2
v 0.1 1.9 4.1
v 0.1 1.9 4
v 0.1 2 4.8
v 0.1 2 4.7
v 0.1 2 4.6
v 0.1 2 4.3
v 0.1 2 4.2
v 0.1 2 4.1
v 0.1 2 4
v 0.1 2.1 4.7
v 0.1 2.1 4.6
v 0.1 2.1 4.5
v 0.1 2.1 4.4
v 0.1 2.1 4.3
v 0.1 2.1 4.2
v 0.1 2.1 4.1
v 0.1 2.1 4
v 0.1 2.2 4.5
v 0.1 2.2 4.4
v 0.1 2.2 4.3
v 0.1 2.2 4.2
v 0.1 2.2 4.1
v 0.1 2.2 4
v 0.1 2.2 3.9
v 0.1 2.3 4.8
v 0.1 2.3 4.7
v 0.1 2.3 4.3
v 0.1 2.3 4.2
v 0.1 2.3 4.1
v 0.1 2.3 4
v 0.1 2.3 3.9
v 0.1 2.4 4.8
v 0.1 2.4 4.7
v 0.1 2.4 4.6
v 0.1 2.4 4.3
v 0.1 2.4 4.2
v 0.1 2.4 4.1
v 0.1 2.4 4
v 0.1 2.5 4.8
v 0.1 2.5 4.7
v 0.1 2.5 4.6
v 0.1 2.6 4.7
v 0.1 2.6 4.6
v 0.2 0 4.5
v 0.2 0 4.1
v 0.2 0.4 4.6
v 0.2 0.4 4.5
v 0.2 0.4 4.1
v 0.2 0.4 4
v 0.2 1 4.7
v 0.2 1 4.6
v 0.2 1 4.5
v 0.2 1 4.1
v 0.2 1 4
v 0.2 1 3.9
v 0.2 1.1 4.7
v 0.2 1.1 4.6
v 0.2 1.1 4
v 0.2 1.1 3.9
v 0.2 1.3 4.4
v 0.2 1.3 4.3
v 0.2 1.4 4.5
v 0.2 1.4 4.4
v 0.2 1.4 4.3
v 0.2 1.5 4.5
v 0.2 1.5 4.4
v 0.2 1.5 4.3
v 0.2 1.6 4.5
v 0.2 1.6 4.4
v 0.2 1.6 4.3
v 0.2 1.6 4.1
v 0.2 1.6 4
v 0.2 1.6 3.9
v 0.2 1.6 3.8
v 0.2 1.7 4.4
v 0.2 1.7 4.3
v 0.2 1.7 4.1
v 0.2 1.7 4
v 0.2 1.7 3.9
v 0.2 1.7 3.8
v 0.2 1.8 4.4
v 0.2 1.8 4.3
v 0.2 1.8 4.1
v 0.2 1.8 4
v 0.2 1.8 3.8
v 0.2 1.9 4.1
v 0.2 1.9 4
v 0.2 1.9 3.9
v 0.2 1.9 3.8
v 0.2 2 4.2
v 0.2 2 4.1
v 0.2 2 4
v 0.2 2 3.9
v 0.2 2.1 4.4
v 0.2 2.1 4.3
v 0.2 2.1 4.2
v 0.2 2.1 4.1
v 0.2 2.1 4
v 0.2 2.1 3.9
v 0.2 2.2 4.6
v 0.2 2.2 4.5
v 0.2 2.2 4.4
v 0.2 2.2 4.3
v 0.2 2.2 4.1
v 0.2 2.2 4
v 0.2 2.3 4.7
v 0.2 2.3 4.6
v 0.2 2.3 4.5
v 0.2 2.3 4.4
v 0.2 2.3 4.3
v 0.2 2.3 4.2
v 0.2 2.3 4.1
v 0.2 2.3 4
v 0.2 2.4 4.7
v 0.2 2.4 4.6
v 0.2 2.4 4.4
v 0.2 2.4 4.3
v 0.2 2.4 4.2
v 0.2 2.4 4.1
v 0.2 2.4 4
v 0.2 2.4 3.9
v 0.2 2.5 4.4
v 0.2 2.5 4.3
v 0.2 2.5 4.1
v 0.2 2.5 4
v 0.2 2.5 3.9
v 0.2 2.6 4.4
v 0.2 2.6 4.3
v 0.2 2.6 4.1
v 0.2 2.6 4
v 0.2 2.6 3.9
v 0.2 2.7 4.1
v 0.2 2.7 4
v 0.3 0.4 4.5
v 0.3 0.4 4.1
v 0.3 1 4.6
v 0.3 1 4.5
v 0.3 1 4.1
v 0.3 1 4
v 0.3 1.1 4.6
v 0.3 1.1 4.5
v 0.3 1.1 4.1
v 0.3 1.1 4
v 0.3 1.3 4.3
v 0.3 1.3 4.2
v 0.3 1.4 4.3
v 0.3 1.4 4.2
v 0.3 1.5 4.3
v 0.3 1.5 4.2
v 0.3 1.6 4.3
v 0.3 1.6 4.2
v 0.3 1.6 4.1
v 0.3 1.7 4.2
v 0.3 1.7 4.1
v 0.3 1.8 4.5
v 0.3 1.8 4.4
v 0.3 1.8 4.3
v 0.3 1.8 4.2
v 0.3 1.8 4.1
v 0.3 1.9 4.6
v 0.3 1.9 4.5
v 0.3 1.9 4.4
v 0.3 1.9 4.3
v 0.3 1.9 4.1
v 0.3 1.9 4
v 0.3 2 4.6
v 0.3 2 4.5
v 0.3 2 4.4
v 0.3 2 4.3
v 0.3 2 4.1
v 0.3 2 4
v 0.3 2.1 4.6
v 0.3 2.1 4.5
v 0.3 2.1 4.4
v 0.3 2.1 4.3
v 0.3 2.1 4.2
v 0.3 2.1 4.1
v 0.3 2.1 4
v 0.3 2.2 4.3
v 0.3 2.2 4.2
v 0.3 2.2 4.1
v 0.3 2.2 4
v 0.3 2.3 4.6
v 0.3 2.3 4.5
v 0.3 2.3 4.4
v 0.3 2.3 4.3
v 0.3 2.3 4.2
v 0.3 2.4 4.7
v 0.3 2.4 4.6
v 0.3 2.4 4.5
v 0.3 2.4 4.4
v 0.3 2.4 4.3
v 0.3 2.4 4.2
v 0.3 2.5 4.7
v 0.3 2.5 4.6
v 0.3 2.5 4.5
v 0.3 2.5 4.3
v 0.3 2.5 4.2
v 0.3 2.5 4.1
v 0.3 2.5 4
v 0.3 2.6 4.6
v 0.3 2.6 4.5
v 0.3 2.6 4.4
v 0.3 2.6 4.3
v 0.3 2.6 4.2
v 0.3 2.6 4.1
v 0.3 2.6 4
v 0.3 2.7 4.6
v 0.3 2.7 4.5
v 0.3 2.7 4.4
v 0.3 2.7 4.3
v 0.3 2.7 4.2
v 0.3 2.7 4.1
v 0.4 1 4.5
v 0.4 1 4.1
v 0.4 1.1 4.5
v 0.4 1.1 4.1
v 0.4 1.4 4.3
v 0.4 1.4 4.2
v 0.4 1.5 4.3
v 0.4 1.5 4.2
v 0.4 1.6 4.3
v 0.4 1.6 4.2
v 0.4 1.7 4.3
v 0.4 1.7 4.2
v 0.4 1.8 4.3
v 0.4 1.8 4.2
v 0.4 1.9 4.5
v 0.4 1.9 4.4
v 0.4 1.9 4.3
v 0.4 1.9 4.2
v 0.4 1.9 4.1
v 0.4 2 4.5
v 0.4 2 4.4
v 0.4 2 4.3
v 0.4 2 4.2
v 0.4 2 4.1
v 0.4 2.1 4.3
v 0.4 2.1 4.2
v 0.4 2.1 4
v 0.4 2.1 3.9
v 0.4 2.2 4.3
v 0.4 2.2 4.2
v 0.4 2.2 4.1
v 0.4 2.2 4
v 0.4 2.2 3.9
v 0.4 2.3 4.3
v 0.4 2.3 4.2
v 0.4 2.3 4.1
v 0.4 2.3 4
v 0.4 2.4 4.2
v 0.4 2.4 4.1
v 0.4 2.5 4.3
v 0.4 2.5 4.2
v 0.4 2.5 4.1
v 0.4 2.6 4.3
v 0.4 2.6 4.2
v 0.4 2.6 4.1
v 0.5 1.5 4.2
v 0.5 1.5 4.1
v 0.5 1.6 4.2
v 0.5 1.6 4.1
v 0.5 1.7 4.2
v 0.5 1.7 4.1
v 0.5 1.8 4.3
v 0.5 1.8 4.2
v 0.5 1.8 4.1
v 0.5 1.9 4.3
v 0.5 1.9 4.2
v 0.5 1.9 4.1
v 0.5 2 4.3
v 0.5 2 4.2
v -1.49012e-008 1.9 4.8
v -1.49012e-008 2 4.8
v -1.49012e-008 2.3 4.8
v -1.49012e-008 2.4 4.8
v -1.49012e-008 2.5 4.8
v 0.1 1.9 4.8
v 0.1 2 4.8
v 0.1 2.3 4.8
v 0.1 2.4 4.8
v 0.1 2.5 4.8
v -0.3 2 4.7
v -0.3 2.1 4.7
v -0.2 1 4.7
v -0.2 1.1 4.7
v -0.2 2 4.7
v -0.2 2.1 4.7
v -1.49012e-008 1.8 4.7
v -1.49012e-008 1.9 4.7
v -1.49012e-008 2 4.7
v -1.49012e-008 2.1 4.7
v -1.49012e-008 2.5 4.7
v -1.49012e-008 2.6 4.7
v 0.1 1.8 4.7
v 0.1 1.9 4.7
v 0.1 2 4.7
v 0.1 2.1 4.7
v 0.1 2.3 4.7
v 0.1 2.4 4.7
v 0.1 2.5 4.7
v 0.1 2.6 4.7
v 0.2 1 4.7
v 0.2 1.1 4.7
v 0.2 2.3 4.7
v 0.2 2.4 4.7
v 0.2 2.5 4.7
v 0.3 2.4 4.7
v 0.3 2.5 4.7
v -0.3 1 4.6
v -0.3 1.1 4.6
v -0.3 1.7 4.6
v -0.3 1.8 4.6
v -0.3 2.1 4.6
v -0.3 2.2 4.6
v -0.2 0.4 4.6
v -0.2 1 4.6
v -0.2 1.1 4.6
v -0.2 1.7 4.6
v -0.2 1.8 4.6
v -0.2 2.1 4.6
v -0.2 2.2 4.6
v -0.2 2.5 4.6
v -0.2 2.6 4.6
v -0.1 1.5 4.6
v -0.1 1.6 4.6
v -0.1 1.9 4.6
v -0.1 2 4.6
v -0.1 2.1 4.6
v -0.1 2.2 4.6
v -0.1 2.3 4.6
v -0.1 2.5 4.6
v -0.1 2.6 4.6
v -1.49012e-008 1.5 4.6
v -1.49012e-008 1.6 4.6
v -1.49012e-008 1.7 4.6
v -1.49012e-008 1.9 4.6
v -1.49012e-008 2 4.6
v -1.49012e-008 2.1 4.6
v -1.49012e-008 2.2 4.6
v -1.49012e-008 2.3 4.6
v -1.49012e-008 2.5 4.6
v -1.49012e-008 2.6 4.6
v 0.1 1.5 4.6
v 0.1 1.6 4.6
v 0.1 1.7 4.6
v 0.1 1.9 4.6
v 0.1 2 4.6
v 0.1 2.1 4.6
v 0.1 2.2 4.6
v 0.1 2.3 4.6
v 0.1 2.4 4.6
v 0.1 2.5 4.6
v 0.2 0.4 4.6
v 0.2 1 4.6
v 0.2 1.1 4.6
v 0.2 1.9 4.6
v 0.2 2 4.6
v 0.2 2.1 4.6
v 0.2 2.2 4.6
v 0.2 2.3 4.6
v 0.2 2.4 4.6
v 0.2 2.5 4.6
v 0.2 2.6 4.6
v 0.2 2.7 4.6
v 0.3 1 4.6
v 0.3 1.1 4.6
v 0.3 1.9 4.6
v 0.3 2 4.6
v 0.3 2.1 4.6
v 0.3 2.3 4.6
v 0.3 2.4 4.6
v 0.3 2.6 4.6
v 0.3 2.7 4.6
v -0.4 1 4.5
v -0.4 1.1 4.5
v -0.4 2.1 4.5
v -0.4 2.2 4.5
v -0.3 0.4 4.5
v -0.3 1 4.5
v -0.3 1.1 4.5
v -0.3 1.6 4.5
v -0.3 1.7 4.5
v -0.3 1.8 4.5
v -0.3 1.9 4.5
v -0.3 2.1 4.5
v -0.3 2.2 4.5
v -0.2 0 4.5
v -0.2 0.4 4.5
v -0.2 1 4.5
v -0.2 1.6 4.5
v -0.2 1.7 4.5
v -0.2 1.8 4.5
v -0.2 1.9 4.5
v -0.2 2 4.5
v -0.2 2.1 4.5
v -0.2 2.2 4.5
v -0.2 2.3 4.5
v -0.2 2.4 4.5
v -0.2 2.5 4.5
v -0.1 1.3 4.5
v -0.1 1.4 4.5
v -0.1 1.5 4.5
v -0.1 1.6 4.5
v -0.1 1.7 4.5
v -0.1 1.8 4.5
v -0.1 1.9 4.5
v -0.1 2 4.5
v -0.1 2.1 4.5
v -0.1 2.2 4.5
v -0.1 2.3 4.5
v -0.1 2.4 4.5
v -0.1 2.5 4.5
v -0.1 2.6 4.5
v -0.1 2.7 4.5
v -1.49012e-008 1.3 4.5
v -1.49012e-008 1.4 4.5
v -1.49012e-008 1.5 4.5
v -1.49012e-008 1.6 4.5
v -1.49012e-008 1.7 4.5
v -1.49012e-008 1.8 4.5
v -1.49012e-008 1.9 4.5
v -1.49012e-008 2.1 4.5
v -1.49012e-008 2.2 4.5
v -1.49012e-008 2.3 4.5
v -1.49012e-008 2.4 4.5
v -1.49012e-008 2.5 4.5
v -1.49012e-008 2.6 4.5
v -1.49012e-008 2.7 4.5
v 0.1 1.3 4.5
v 0.1 1.4 4.5
v 0.1 1.5 4.5
v 0.1 1.6 4.5
v 0.1 1.7 4.5
v 0.1 1.8 4.5
v 0.1 1.9 4.5
v 0.1 2.1 4.5
v 0.1 2.2 4.5
v 0.1 2.3 4.5
v 0.1 2.4 4.5
v 0.1 2.5 4.5
v 0.1 2.6 4.5
v 0.1 2.7 4.5
v 0.2 0 4.5
v 0.2 0.4 4.5
v 0.2 1 4.5
v 0.2 1.4 4.5
v 0.2 1.5 4.5
v 0.2 1.6 4.5
v 0.2 1.8 4.5
v 0.2 1.9 4.5
v 0.2 2.5 4.5
v 0.2 2.6 4.5
v 0.2 2.7 4.5
v 0.3 0.4 4.5
v 0.3 1 4.5
v 0.3 1.1 4.5
v 0.3 1.8 4.5
v 0.3 1.9 4.5
v 0.3 2 4.5
v 0.3 2.5 4.5
v 0.3 2.6 4.5
v 0.4 1 4.5
v 0.4 1.1 4.5
v 0.4 1.9 4.5
v 0.4 2 4.5
v -0.4 1.9 4.4
v -0.4 2 4.4
v -0.4 2.1 4.4
v -0.3 1.9 4.4
v -0.3 2 4.4
v -0.3 2.1 4.4
v -0.3 2.2 4.4
v -0.3 2.3 4.4
v -0.3 2.4 4.4
v -0.3 2.5 4.4
v -0.3 2.6 4.4
v -0.2 1.5 4.4
v -0.2 1.6 4.4
v -0.2 1.7 4.4
v -0.2 1.8 4.4
v -0.2 1.9 4.4
v -0.2 2 4.4
v -0.2 2.2 4.4
v -0.2 2.3 4.4
v -0.2 2.4 4.4
v -0.2 2.5 4.4
v -0.2 2.7 4.4
v -0.2 2.8 4.4
v -0.1 1.1 4.4
v -0.1 1.2 4.4
v -0.1 1.3 4.4
v -0.1 1.5 4.4
v -0.1 1.6 4.4
v -0.1 1.7 4.4
v -0.1 1.8 4.4
v -0.1 1.9 4.4
v -0.1 2 4.4
v -0.1 2.1 4.4
v -0.1 2.5 4.4
v -0.1 2.6 4.4
v -0.1 2.7 4.4
v -0.1 2.8 4.4
v -1.49012e-008 1.1 4.4
v -1.49012e-008 1.2 4.4
v -1.49012e-008 1.3 4.4
v -1.49012e-008 1.9 4.4
v -1.49012e-008 2 4.4
v -1.49012e-008 2.1 4.4
v -1.49012e-008 2.7 4.4
v -1.49012e-008 2.8 4.4
v 0.1 1.1 4.4
v 0.1 1.2 4.4
v 0.1 1.3 4.4
v 0.1 1.4 4.4
v 0.1 1.6 4.4
v 0.1 1.7 4.4
v 0.1 1.8 4.4
v 0.1 1.9 4.4
v 0.1 2 4.4
v 0.1 2.1 4.4
v 0.1 2.2 4.4
v 0.2 1.3 4.4
v 0.2 1.4 4.4
v 0.2 1.6 4.4
v 0.2 1.7 4.4
v 0.2 1.8 4.4
v 0.2 2.1 4.4
v 0.2 2.2 4.4
v -0.5 2.2 4.3
v -0.5 2.3 4.3
v -0.4 1.8 4.3
v -0.4 1.9 4.3
v -0.4 2.2 4.3
v -0.4 2.3 4.3
v -0.4 2.4 4.3
v -0.3 1.4 4.3
v -0.3 1.5 4.3
v -0.3 1.6 4.3
v -0.3 1.8 4.3
v -0.3 1.9 4.3
v -0.3 2.2 4.3
v -0.3 2.3 4.3
v -0.3 2.4 4.3
v -0.2 1.3 4.3
v -0.2 1.4 4.3
v -0.2 1.5 4.3
v -0.2 1.6 4.3
v -0.2 2.1 4.3
v -0.2 2.2 4.3
v -0.2 2.3 4.3
v -0.2 2.4 4.3
v -0.1 1.3 4.3
v -0.1 1.4 4.3
v -0.1 1.5 4.3
v -0.1 2.1 4.3
v -0.1 2.2 4.3
v 0.1 1.8 4.3
v 0.1 1.9 4.3
v 0.2 1.3 4.3
v 0.2 1.4 4.3
v 0.2 1.5 4.3
v 0.2 1.6 4.3
v 0.2 1.7 4.3
v 0.2 1.8 4.3
v 0.2 1.9 4.3
v 0.2 2.1 4.3
v 0.2 2.2 4.3
v 0.2 2.3 4.3
v 0.2 2.4 4.3
v 0.2 2.5 4.3
v 0.2 2.6 4.3
v 0.3 1.3 4.3
v 0.3 1.4 4.3
v 0.3 1.5 4.3
v 0.3 1.6 4.3
v 0.3 1.7 4.3
v 0.3 1.8 4.3
v 0.3 1.9 4.3
v 0.3 2 4.3
v 0.3 2.1 4.3
v 0.3 2.2 4.3
v 0.3 2.3 4.3
v 0.3 2.4 4.3
v 0.3 2.5 4.3
v 0.3 2.6 4.3
v 0.4 1.4 4.3
v 0.4 1.5 4.3
v 0.4 1.6 4.3
v 0.4 1.7 4.3
v 0.4 1.8 4.3
v 0.4 1.9 4.3
v 0.4 2 4.3
v 0.4 2.1 4.3
v 0.4 2.2 4.3
v 0.4 2.3 4.3
v 0.4 2.5 4.3
v 0.4 2.6 4.3
v 0.5 1.8 4.3
v 0.5 1.9 4.3
v 0.5 2 4.3
v -0.4 2.1 4.2
v -0.4 2.2 4.2
v -0.3 1.6 4.2
v -0.3 1.7 4.2
v -0.3 1.8 4.2
v -0.3 2 4.2
v -0.3 2.1 4.2
v -0.3 2.2 4.2
v -0.2 1.6 4.2
v -0.2 1.7 4.2
v -0.2 1.8 4.2
v -0.2 1.9 4.2
v -0.2 2 4.2
v -0.2 2.1 4.2
v -0.2 2.2 4.2
v -0.2 2.3 4.2
v -0.1 1.8 4.2
v -0.1 1.9 4.2
v -0.1 2 4.2
v -0.1 2.1 4.2
v -0.1 2.2 4.2
v -0.1 2.3 4.2
v 0.1 1.9 4.2
v 0.1 2 4.2
v 0.1 2.1 4.2
v 0.1 2.2 4.2
v 0.1 2.3 4.2
v 0.1 2.4 4.2
v 0.2 1.9 4.2
v 0.2 2 4.2
v 0.2 2.1 4.2
v 0.2 2.2 4.2
v 0.2 2.3 4.2
v 0.2 2.4 4.2
v 0.3 1.5 4.2
v 0.3 1.6 4.2
v 0.3 1.9 4.2
v 0.3 2 4.2
v 0.3 2.4 4.2
v 0.3 2.5 4.2
v 0.4 1.5 4.2
v 0.4 1.6 4.2
v 0.4 1.7 4.2
v 0.4 1.8 4.2
v 0.4 1.9 4.2
v 0.4 2 4.2
v 0.4 2.4 4.2
v 0.4 2.5 4.2
v 0.5 1.5 4.2
v 0.5 1.6 4.2
v 0.5 1.7 4.2
v 0.5 1.8 4.2
v -0.4 2.2 4.1
v -0.4 2.3 4.1
v -0.3 1.8 4.1
v -0.3 1.9 4.1
v -0.3 2.2 4.1
v -0.3 2.3 4.1
v -0.2 1.6 4.1
v -0.2 1.7 4.1
v -0.2 1.8 4.1
v -0.2 1.9 4.1
v -0.1 1.6 4.1
v -0.1 1.7 4.1
v -0.1 1.8 4.1
v -0.1 1.9 4.1
v -0.1 2 4.1
v -0.1 2.1 4.1
v -0.1 2.2 4.1
v -0.1 2.3 4.1
v -1.49012e-008 1.8 4.1
v -1.49012e-008 1.9 4.1
v -1.49012e-008 2 4.1
v -1.49012e-008 2.1 4.1
v -1.49012e-008 2.2 4.1
v -1.49012e-008 2.3 4.1
v -1.49012e-008 2.6 4.1
v -1.49012e-008 2.7 4.1
v 0.1 1.9 4.1
v 0.1 2 4.1
v 0.1 2.1 4.1
v 0.1 2.6 4.1
v 0.1 2.7 4.1
v 0.2 2 4.1
v 0.2 2.1 4.1
v 0.3 2 4.1
v 0.3 2.1 4.1
v -0.1 1.6 4
v -0.1 1.7 4
v -1.49012e-008 1.6 4
v -1.49012e-008 1.7 4
v -1.49012e-008 1.8 4
v -1.49012e-008 1.9 4
v 0.1 1.8 4
v 0.1 1.9 4
v 0.1 2 4
v 0.1 2.1 4
v 0.1 2.2 4
v 0.2 1.9 4
v 0.2 2 4
v 0.2 2.1 4
v 0.2 2.2 4
v 0.3 2.1 4
v 0.3 2.2 4
v 0.4 2.1 4
v 0.4 2.2 4
v -1.49012e-008 2.3 4.6
v -1.49012e-008 2.4 4.6
v -1.49012e-008 2.5 4.6
v -1.49012e-008 2.6 4.6
v 0.1 2.3 4.6
v 0.1 2.4 4.6
v 0.1 2.5 4.6
v 0.1 2.6 4.6
v -0.2 2.5 4.5
v -0.2 2.6 4.5
v -0.1 2.5 4.5
v -0.1 2.6 4.5
v -1.49012e-008 1.9 4.5
v -1.49012e-008 2 4.5
v 0.1 1.9 4.5
v 0.1 2 4.5
v -0.2 2.1 4.4
v -0.2 2.2 4.4
v -0.1 2.1 4.4
v -0.1 2.2 4.4
v 0.1 1.8 4.4
v 0.1 1.9 4.4
v 0.2 1.8 4.4
v 0.2 1.9 4.4
v 0.2 2.3 4.4
v 0.2 2.4 4.4
v 0.2 2.5 4.4
v 0.2 2.6 4.4
v 0.3 2.3 4.4
v 0.3 2.4 4.4
v 0.3 2.6 4.4
v -0.4 2 4.3
v -0.4 2.1 4.3
v -0.4 2.2 4.3
v -0.3 1.6 4.3
v -0.3 1.7 4.3
v -0.3 1.8 4.3
v -0.3 2 4.3
v -0.3 2.1 4.3
v -0.3 2.2 4.3
v -0.3 2.5 4.3
v -0.3 2.6 4.3
v -0.2 1.5 4.3
v -0.2 1.6 4.3
v -0.2 1.7 4.3
v -0.2 1.8 4.3
v -0.2 1.9 4.3
v -0.2 2 4.3
v -0.2 2.1 4.3
v -0.2 2.2 4.3
v -0.2 2.3 4.3
v -0.2 2.5 4.3
v -0.2 2.6 4.3
v -0.1 1.5 4.3
v -0.1 1.6 4.3
v -0.1 1.8 4.3
v -0.1 1.9 4.3
v -0.1 2 4.3
v -0.1 2.1 4.3
v -0.1 2.2 4.3
v -0.1 2.3 4.3
v 0.1 1.9 4.3
v 0.1 2 4.3
v 0.1 2.1 4.3
v 0.1 2.2 4.3
v 0.1 2.3 4.3
v 0.1 2.4 4.3
v 0.2 1.9 4.3
v 0.2 2 4.3
v 0.2 2.1 4.3
v 0.2 2.2 4.3
v 0.2 2.3 4.3
v 0.2 2.4 4.3
v 0.3 1.9 4.3
v 0.3 2 4.3
v 0.4 1.9 4.3
v 0.4 2 4.3
v -0.5 2.2 4.2
v -0.5 2.3 4.2
v -0.4 1.8 4.2
v -0.4 1.9 4.2
v -0.4 2.2 4.2
v -0.4 2.3 4.2
v -0.4 2.4 4.2
v -0.3 1.4 4.2
v -0.3 1.5 4.2
v -0.3 1.6 4.2
v -0.3 1.8 4.2
v -0.3 1.9 4.2
v -0.3 2.2 4.2
v -0.3 2.3 4.2
v -0.3 2.4 4.2
v -0.2 1.3 4.2
v -0.2 1.4 4.2
v -0.2 1.5 4.2
v -0.2 1.6 4.2
v -0.2 1.7 4.2
v -0.2 1.8 4.2
v -0.2 1.9 4.2
v -0.2 2.3 4.2
v -0.2 2.4 4.2
v -0.2 2.5 4.2
v -0.2 2.6 4.2
v -0.2 2.7 4.2
v -0.2 2.8 4.2
v -0.1 1.1 4.2
v -0.1 1.3 4.2
v -0.1 1.4 4.2
v -0.1 1.5 4.2
v -0.1 1.6 4.2
v -0.1 1.7 4.2
v -0.1 1.8 4.2
v -0.1 1.9 4.2
v -0.1 2 4.2
v -0.1 2.1 4.2
v -0.1 2.2 4.2
v -0.1 2.3 4.2
v -0.1 2.5 4.2
v -0.1 2.6 4.2
v -0.1 2.7 4.2
v -0.1 2.8 4.2
v -1.49012e-008 1.1 4.2
v -1.49012e-008 1.2 4.2
v -1.49012e-008 1.3 4.2
v -1.49012e-008 1.4 4.2
v -1.49012e-008 1.5 4.2
v -1.49012e-008 1.6 4.2
v -1.49012e-008 1.7 4.2
v -1.49012e-008 1.8 4.2
v -1.49012e-008 1.9 4.2
v -1.49012e-008 2 4.2
v -1.49012e-008 2.1 4.2
v -1.49012e-008 2.2 4.2
v -1.49012e-008 2.3 4.2
v -1.49012e-008 2.6 4.2
v -1.49012e-008 2.7 4.2
v -1.49012e-008 2.8 4.2
v 0.1 1.1 4.2
v 0.1 1.2 4.2
v 0.1 1.3 4.2
v 0.1 1.4 4.2
v 0.1 1.5 4.2
v 0.1 1.6 4.2
v 0.1 1.7 4.2
v 0.1 1.9 4.2
v 0.1 2 4.2
v 0.1 2.1 4.2
v 0.1 2.6 4.2
v 0.1 2.7 4.2
v 0.2 1.3 4.2
v 0.2 1.4 4.2
v 0.2 1.5 4.2
v 0.2 1.6 4.2
v 0.2 2 4.2
v 0.2 2.1 4.2
v 0.2 2.3 4.2
v 0.2 2.4 4.2
v 0.3 1.3 4.2
v 0.3 1.4 4.2
v 0.3 1.5 4.2
v 0.3 1.6 4.2
v 0.3 1.7 4.2
v 0.3 1.8 4.2
v 0.3 2 4.2
v 0.3 2.1 4.2
v 0.3 2.3 4.2
v 0.3 2.4 4.2
v 0.4 1.4 4.2
v 0.4 1.5 4.2
v 0.4 1.6 4.2
v 0.4 1.7 4.2
v 0.4 1.8 4.2
v 0.4 1.9 4.2
v 0.4 2 4.2
v 0.4 2.1 4.2
v 0.5 1.9 4.2
v 0.5 2 4.2
v -0.4 1 4.1
v -0.4 1.1 4.1
v -0.4 1.9 4.1
v -0.4 2 4.1
v -0.4 2.1 4.1
v -0.4 2.2 4.1
v -0.3 0.4 4.1
v -0.3 1 4.1
v -0.3 1.1 4.1
v -0.3 1.7 4.1
v -0.3 1.8 4.1
v -0.3 1.9 4.1
v -0.3 2 4.1
v -0.3 2.1 4.1
v -0.3 2.2 4.1
v -0.3 2.4 4.1
v -0.3 2.5 4.1
v -0.2 0 4.1
v -0.2 0.4 4.1
v -0.2 1 4.1
v -0.2 1.7 4.1
v -0.2 1.8 4.1
v -0.2 1.9 4.1
v -0.2 2 4.1
v -0.2 2.1 4.1
v -0.2 2.2 4.1
v -0.2 2.3 4.1
v -0.2 2.4 4.1
v -0.2 2.5 4.1
v -0.1 1.4 4.1
v -0.1 1.5 4.1
v -0.1 1.6 4.1
v -0.1 1.7 4.1
v -0.1 1.8 4.1
v -0.1 2 4.1
v -0.1 2.1 4.1
v -0.1 2.2 4.1
v -0.1 2.3 4.1
v -0.1 2.4 4.1
v -0.1 2.5 4.1
v -0.1 2.6 4.1
v -1.49012e-008 1.3 4.1
v -1.49012e-008 1.4 4.1
v -1.49012e-008 1.5 4.1
v -1.49012e-008 1.6 4.1
v -1.49012e-008 1.7 4.1
v -1.49012e-008 1.8 4.1
v -1.49012e-008 1.9 4.1
v -1.49012e-008 2.5 4.1
v -1.49012e-008 2.6 4.1
v 0.1 1.3 4.1
v 0.1 1.4 4.1
v 0.1 1.5 4.1
v 0.1 1.6 4.1
v 0.1 1.7 4.1
v 0.1 1.8 4.1
v 0.1 1.9 4.1
v 0.1 2 4.1
v 0.1 2.3 4.1
v 0.1 2.4 4.1
v 0.2 0 4.1
v 0.2 0.4 4.1
v 0.2 1 4.1
v 0.2 1.5 4.1
v 0.2 1.6 4.1
v 0.2 1.7 4.1
v 0.2 1.8 4.1
v 0.2 1.9 4.1
v 0.2 2 4.1
v 0.2 2.2 4.1
v 0.2 2.3 4.1
v 0.2 2.4 4.1
v 0.2 2.5 4.1
v 0.2 2.6 4.1
v 0.2 2.7 4.1
v 0.3 0.4 4.1
v 0.3 1 4.1
v 0.3 1.1 4.1
v 0.3 1.5 4.1
v 0.3 1.6 4.1
v 0.3 1.7 4.1
v 0.3 1.8 4.1
v 0.3 1.9 4.1
v 0.3 2 4.1
v 0.3 2.2 4.1
v 0.3 2.3 4.1
v 0.3 2.4 4.1
v 0.3 2.5 4.1
v 0.3 2.6 4.1
v 0.3 2.7 4.1
v 0.4 1 4.1
v 0.4 1.1 4.1
v 0.4 1.7 4.1
v 0.4 1.8 4.1
v 0.4 1.9 4.1
v 0.4 2 4.1
v 0.4 2.4 4.1
v 0.4 2.5 4.1
v 0.4 2.6 4.1
v 0.5 1.5 4.1
v 0.5 1.6 4.1
v 0.5 1.7 4.1
v 0.5 1.8 4.1
v 0.5 1.9 4.1
v -0.4 2.2 4
v -0.4 2.3 4
v -0.3 1 4
v -0.3 1.1 4
v -0.3 1.6 4
v -0.3 1.7 4
v -0.3 1.8 4
v -0.3 1.9 4
v -0.3 2 4
v -0.3 2.2 4
v -0.3 2.3 4
v -0.2 0.4 4
v -0.2 1 4
v -0.2 1.1 4
v -0.2 1.6 4
v -0.2 1.7 4
v -0.2 1.8 4
v -0.2 1.9 4
v -0.2 2 4
v -0.2 2.1 4
v -0.2 2.2 4
v -0.2 2.3 4
v -0.2 2.4 4
v -0.1 1.7 4
v -0.1 1.8 4
v -0.1 1.9 4
v -0.1 2 4
v -0.1 2.1 4
v -0.1 2.2 4
v -0.1 2.3 4
v -0.1 2.4 4
v -0.1 2.5 4
v -1.49012e-008 1.7 4
v -1.49012e-008 1.8 4
v -1.49012e-008 2 4
v -1.49012e-008 2.1 4
v -1.49012e-008 2.2 4
v -1.49012e-008 2.3 4
v -1.49012e-008 2.4 4
v -1.49012e-008 2.5 4
v -1.49012e-008 2.6 4
v -1.49012e-008 2.7 4
v 0.1 1.7 4
v 0.1 1.8 4
v 0.1 2.1 4
v 0.1 2.2 4
v 0.1 2.3 4
v 0.1 2.4 4
v 0.1 2.5 4
v 0.1 2.6 4
v 0.1 2.7 4
v 0.2 0.4 4
v 0.2 1 4
v 0.2 1.1 4
v 0.2 1.7 4
v 0.2 1.8 4
v 0.2 1.9 4
v 0.2 2 4
v 0.2 2.1 4
v 0.2 2.2 4
v 0.2 2.3 4
v 0.2 2.5 4
v 0.2 2.6 4
v 0.2 2.7 4
v 0.3 1 4
v 0.3 1.1 4
v 0.3 1.9 4
v 0.3 2 4
v 0.3 2.1 4
v 0.3 2.2 4
v 0.3 2.3 4
v 0.3 2.5 4
v 0.3 2.6 4
v 0.4 2.2 4
v 0.4 2.3 4
v -0.3 2.2 3.9
v -0.3 2.3 3.9
v -0.2 1 3.9
v -0.2 1.1 3.9
v -0.2 1.6 3.9
v -0.2 1.7 3.9
v -0.2 1.8 3.9
v -0.2 1.9 3.9
v -0.2 2.2 3.9
v -0.2 2.3 3.9
v -0.1 1.6 3.9
v -0.1 1.7 3.9
v -0.1 1.8 3.9
v -0.1 1.9 3.9
v -0.1 2 3.9
v -0.1 2.1 3.9
v -0.1 2.2 3.9
v -0.1 2.3 3.9
v -0.1 2.4 3.9
v -1.49012e-008 1.6 3.9
v -1.49012e-008 1.7 3.9
v -1.49012e-008 1.8 3.9
v -1.49012e-008 1.9 3.9
v -1.49012e-008 2 3.9
v -1.49012e-008 2.1 3.9
v -1.49012e-008 2.2 3.9
v -1.49012e-008 2.3 3.9
v -1.49012e-008 2.4 3.9
v -1.49012e-008 2.5 3.9
v 0.1 1.8 3.9
v 0.1 1.9 3.9
v 0.1 2 3.9
v 0.1 2.1 3.9
v 0.1 2.2 3.9
v 0.1 2.3 3.9
v 0.1 2.4 3.9
v 0.1 2.5 3.9
v 0.1 2.6 3.9
v 0.2 1 3.9
v 0.2 1.1 3.9
v 0.2 1.9 3.9
v 0.2 2 3.9
v 0.2 2.1 3.9
v 0.2 2.2 3.9
v 0.2 2.4 3.9
v 0.2 2.5 3.9
v 0.2 2.6 3.9
v 0.3 2.1 3.9
v 0.3 2.2 3.9
v 0.4 2.1 3.9
v 0.4 2.2 3.9
v 0.1 1.6 3.8
v 0.1 1.7 3.8
v 0.1 1.8 3.8
v 0.1 1.9 3.8
v 0.2 1.6 3.8
v 0.2 1.7 3.8
v 0.2 1.8 3.8
v 0.2 1.9 3.8
v -0.2 0 4.5
v 0.2 0 4.5
v -0.2 0 4.1
v 0.2 0 4.1
v -0.2 0.4 4.6
v 0.2 0.4 4.6
v -0.3 0.4 4.5
v -0.2 0.4 4.5
v 0.2 0.4 4.5
v 0.3 0.4 4.5
v -0.3 0.4 4.1
v -0.2 0.4 4.1
v 0.2 0.4 4.1
v 0.3 0.4 4.1
v -0.2 0.4 4
v 0.2 0.4 4
v -0.2 1 4.7
v 0.2 1 4.7
v -0.3 1 4.6
v -0.2 1 4.6
v 0.2 1 4.6
v 0.3 1 4.6
v -0.4 1 4.5
v -0.3 1 4.5
v -0.2 1 4.5
v 0.2 1 4.5
v 0.3 1 4.5
v 0.4 1 4.5
v -0.4 1 4.1
v -0.3 1 4.1
v -0.2 1 4.1
v 0.2 1 4.1
v 0.3 1 4.1
v 0.4 1 4.1
v -0.3 1 4
v -0.2 1 4
v 0.2 1 4
v 0.3 1 4
v -0.2 1 3.9
v 0.2 1 3.9
v -0.1 1.3 4.5
v -1.49012e-008 1.3 4.5
v 0.1 1.3 4.5
v -0.1 1.3 4.4
v -1.49012e-008 1.3 4.4
v 0.1 1.3 4.4
v 0.2 1.3 4.4
v -0.2 1.3 4.3
v -0.1 1.3 4.3
v 0.2 1.3 4.3
v 0.3 1.3 4.3
v -0.2 1.3 4.2
v -0.1 1.3 4.2
v -1.49012e-008 1.3 4.2
v 0.1 1.3 4.2
v 0.2 1.3 4.2
v 0.3 1.3 4.2
v -1.49012e-008 1.3 4.1
v 0.1 1.3 4.1
v 0.1 1.4 4.5
v 0.2 1.4 4.5
v 0.1 1.4 4.4
v 0.2 1.4 4.4
v -0.3 1.4 4.3
v -0.2 1.4 4.3
v 0.3 1.4 4.3
v 0.4 1.4 4.3
v -0.3 1.4 4.2
v -0.2 1.4 4.2
v -0.1 1.4 4.2
v -1.49012e-008 1.4 4.2
v 0.3 1.4 4.2
v 0.4 1.4 4.2
v -0.1 1.4 4.1
v -1.49012e-008 1.4 4.1
v -0.1 1.5 4.6
v -1.49012e-008 1.5 4.6
v 0.1 1.5 4.6
v -0.1 1.5 4.5
v -1.49012e-008 1.5 4.5
v 0.1 1.5 4.5
v -0.2 1.5 4.4
v -0.1 1.5 4.4
v -0.2 1.5 4.3
v -0.1 1.5 4.3
v -1.49012e-008 1.5 4.2
v 0.1 1.5 4.2
v 0.2 1.5 4.2
v 0.3 1.5 4.2
v 0.4 1.5 4.2
v 0.5 1.5 4.2
v -1.49012e-008 1.5 4.1
v 0.1 1.5 4.1
v 0.2 1.5 4.1
v 0.3 1.5 4.1
v 0.5 1.5 4.1
v -0.3 1.6 4.5
v -0.2 1.6 4.5
v -0.3 1.6 4.4
v -0.2 1.6 4.4
v -0.3 1.6 4.3
v -0.2 1.6 4.3
v -0.1 1.6 4.3
v 0.3 1.6 4.3
v 0.4 1.6 4.3
v -0.3 1.6 4.2
v -0.2 1.6 4.2
v -0.1 1.6 4.2
v -1.49012e-008 1.6 4.2
v 0.1 1.6 4.2
v 0.2 1.6 4.2
v 0.3 1.6 4.2
v 0.4 1.6 4.2
v -0.3 1.6 4.1
v -0.2 1.6 4.1
v -0.1 1.6 4.1
v -1.49012e-008 1.6 4.1
v 0.1 1.6 4.1
v 0.2 1.6 4.1
v -0.3 1.6 4
v -0.2 1.6 4
v -0.1 1.6 4
v -1.49012e-008 1.6 4
v 0.1 1.6 4
v 0.2 1.6 4
v -0.2 1.6 3.9
v -0.1 1.6 3.9
v -1.49012e-008 1.6 3.9
v 0.1 1.6 3.9
v 0.2 1.6 3.9
v 0.1 1.6 3.8
v 0.2 1.6 3.8
v -0.3 1.7 4.6
v -0.2 1.7 4.6
v -0.3 1.7 4.5
v -0.2 1.7 4.5
v -0.1 1.7 4.5
v -0.2 1.7 4.4
v -0.1 1.7 4.4
v -0.2 1.7 4.2
v -0.1 1.7 4.2
v -1.49012e-008 1.7 4.2
v 0.1 1.7 4.2
v 0.4 1.7 4.2
v 0.5 1.7 4.2
v -0.2 1.7 4.1
v -0.1 1.7 4.1
v -1.49012e-008 1.7 4.1
v 0.1 1.7 4.1
v 0.4 1.7 4.1
v 0.5 1.7 4.1
v -0.1 1.7 4
v -1.49012e-008 1.7 4
v -1.49012e-008 1.8 4.7
v 0.1 1.8 4.7
v -1.49012e-008 1.8 4.5
v 0.1 1.8 4.5
v 0.2 1.8 4.5
v 0.3 1.8 4.5
v 0.1 1.8 4.4
v 0.2 1.8 4.4
v 0.3 1.8 4.4
v -0.4 1.8 4.3
v -0.3 1.8 4.3
v -0.2 1.8 4.3
v 0.2 1.8 4.3
v 0.3 1.8 4.3
v 0.4 1.8 4.3
v 0.5 1.8 4.3
v -0.4 1.8 4.2
v -0.3 1.8 4.2
v -0.2 1.8 4.2
v 0.3 1.8 4.2
v 0.4 1.8 4.2
v 0.5 1.8 4.2
v -0.3 1.8 4.1
v -0.2 1.8 4.1
v -0.1 1.8 4.1
v 0.3 1.8 4.1
v 0.4 1.8 4.1
v -0.3 1.8 4
v -0.2 1.8 4
v -0.1 1.8 4
v -1.49012e-008 1.8 4
v 0.1 1.8 4
v 0.2 1.8 4
v -0.2 1.8 3.9
v -0.1 1.8 3.9
v -1.49012e-008 1.8 3.9
v 0.1 1.8 3.9
v 0.1 1.8 3.8
v 0.2 1.8 3.8
v -1.49012e-008 1.9 4.8
v 0.1 1.9 4.8
v -1.49012e-008 1.9 4.7
v 0.1 1.9 4.7
v -0.1 1.9 4.6
v -1.49012e-008 1.9 4.6
v 0.1 1.9 4.6
v 0.2 1.9 4.6
v 0.3 1.9 4.6
v -0.1 1.9 4.5
v -1.49012e-008 1.9 4.5
v 0.1 1.9 4.5
v 0.2 1.9 4.5
v 0.3 1.9 4.5
v 0.4 1.9 4.5
v -0.4 1.9 4.4
v -0.3 1.9 4.4
v 0.1 1.9 4.4
v 0.2 1.9 4.4
v 0.3 1.9 4.4
v 0.4 1.9 4.4
v -0.4 1.9 4.3
v -0.3 1.9 4.3
v -0.2 1.9 4.3
v -0.1 1.9 4.3
v 0.1 1.9 4.3
v 0.2 1.9 4.3
v 0.3 1.9 4.3
v 0.4 1.9 4.3
v -0.4 1.9 4.2
v -0.3 1.9 4.2
v -0.2 1.9 4.2
v -0.1 1.9 4.2
v -1.49012e-008 1.9 4.2
v -0.4 1.9 4.1
v -0.3 1.9 4.1
v -0.2 1.9 4.1
v -0.1 1.9 4.1
v -1.49012e-008 1.9 4.1
v 0.1 1.9 4.1
v 0.2 1.9 4.1
v 0.3 1.9 4.1
v -1.49012e-008 1.9 4
v 0.1 1.9 4
v 0.2 1.9 4
v 0.3 1.9 4
v -0.3 2 4.7
v -0.2 2 4.7
v -0.3 2 4.6
v -0.2 2 4.6
v -0.3 2 4.5
v -0.2 2 4.5
v -0.1 2 4.5
v -1.49012e-008 2 4.5
v 0.1 2 4.5
v -0.3 2 4.4
v -0.2 2 4.4
v -0.1 2 4.4
v -1.49012e-008 2 4.4
v 0.1 2 4.4
v 0.2 2 4.3
v 0.3 2 4.3
v 0.4 2 4.3
v 0.2 2 4.2
v 0.3 2 4.2
v 0.4 2 4.2
v -0.3 2 4.1
v -0.2 2 4.1
v 0.1 2 4.1
v 0.2 2 4.1
v -0.3 2 4
v -0.2 2 4
v 0.1 2 4
v 0.2 2 4
v -0.2 2.1 4.6
v -0.1 2.1 4.6
v -1.49012e-008 2.1 4.6
v -0.4 2.1 4.5
v -0.3 2.1 4.5
v -0.2 2.1 4.5
v -0.1 2.1 4.5
v -1.49012e-008 2.1 4.5
v -0.4 2.1 4.4
v -0.3 2.1 4.4
v -0.1 2.1 4.4
v -1.49012e-008 2.1 4.4
v -0.2 2.1 4.3
v -0.1 2.1 4.3
v -0.4 2.1 4.2
v -0.3 2.1 4.2
v -0.2 2.1 4.2
v -0.1 2.1 4.2
v -1.49012e-008 2.1 4.2
v 0.1 2.1 4.2
v 0.2 2.1 4.2
v 0.3 2.1 4.2
v -0.4 2.1 4.1
v -0.3 2.1 4.1
v -0.2 2.1 4.1
v -0.1 2.1 4.1
v -1.49012e-008 2.1 4.1
v 0.1 2.1 4.1
v 0.2 2.1 4.1
v 0.3 2.1 4.1
v -0.2 2.1 4
v -0.1 2.1 4
v -1.49012e-008 2.1 4
v 0.2 2.1 4
v 0.3 2.1 4
v 0.4 2.1 4
v -0.1 2.1 3.9
v -1.49012e-008 2.1 3.9
v 0.2 2.1 3.9
v 0.3 2.1 3.9
v 0.4 2.1 3.9
v 0.1 2.2 4.6
v 0.2 2.2 4.6
v 0.1 2.2 4.5
v 0.2 2.2 4.5
v -0.2 2.2 4.4
v -0.1 2.2 4.4
v 0.1 2.2 4.4
v 0.2 2.2 4.4
v -0.5 2.2 4.3
v -0.4 2.2 4.3
v -0.3 2.2 4.3
v -0.2 2.2 4.3
v -0.1 2.2 4.3
v 0.3 2.2 4.3
v 0.4 2.2 4.3
v -0.5 2.2 4.2
v -0.4 2.2 4.2
v -0.3 2.2 4.2
v -0.2 2.2 4.2
v 0.1 2.2 4.2
v 0.2 2.2 4.2
v 0.3 2.2 4.2
v 0.4 2.2 4.2
v -0.4 2.2 4.1
v -0.3 2.2 4.1
v 0.1 2.2 4.1
v 0.2 2.2 4.1
v 0.3 2.2 4.1
v 0.4 2.2 4.1
v -0.4 2.2 4
v -0.3 2.2 4
v -0.2 2.2 4
v -1.49012e-008 2.2 4
v 0.1 2.2 4
v 0.2 2.2 4
v 0.3 2.2 4
v 0.4 2.2 4
v -0.3 2.2 3.9
v -0.2 2.2 3.9
v -1.49012e-008 2.2 3.9
v 0.1 2.2 3.9
v -1.49012e-008 2.3 4.8
v 0.1 2.3 4.8
v -1.49012e-008 2.3 4.7
v 0.1 2.3 4.7
v 0.2 2.3 4.7
v -1.49012e-008 2.3 4.6
v 0.1 2.3 4.6
v 0.2 2.3 4.6
v 0.3 2.3 4.6
v 0.2 2.3 4.5
v 0.3 2.3 4.5
v 0.2 2.3 4.4
v 0.3 2.3 4.4
v -0.2 2.3 4.3
v -0.1 2.3 4.3
v -0.2 2.3 4.2
v -0.1 2.3 4.2
v -1.49012e-008 2.3 4.2
v -0.2 2.3 4.1
v -0.1 2.3 4.1
v -1.49012e-008 2.3 4.1
v -0.2 2.3 4
v -0.1 2.3 4
v -1.49012e-008 2.3 4
v -0.1 2.3 3.9
v -1.49012e-008 2.3 3.9
v 0.2 2.4 4.7
v 0.3 2.4 4.7
v 0.2 2.4 4.6
v 0.3 2.4 4.6
v -0.3 2.4 4.4
v -0.2 2.4 4.4
v -0.3 2.4 4.3
v -0.2 2.4 4.3
v 0.1 2.4 4.3
v 0.2 2.4 4.3
v -0.3 2.4 4.2
v -0.2 2.4 4.2
v 0.1 2.4 4.2
v 0.2 2.4 4.2
v 0.3 2.4 4.2
v 0.4 2.4 4.2
v -0.3 2.4 4.1
v -0.2 2.4 4.1
v 0.1 2.4 4.1
v 0.2 2.4 4.1
v 0.3 2.4 4.1
v 0.4 2.4 4.1
v -1.49012e-008 2.4 4
v 0.1 2.4 4
v 0.2 2.4 4
v -1.49012e-008 2.4 3.9
v 0.1 2.4 3.9
v 0.2 2.4 3.9
v -0.2 2.5 4.6
v -0.1 2.5 4.6
v -1.49012e-008 2.5 4.6
v -0.2 2.5 4.5
v -0.1 2.5 4.5
v -1.49012e-008 2.5 4.5
v 0.3 2.5 4.3
v 0.4 2.5 4.3
v 0.3 2.5 4.2
v 0.4 2.5 4.2
v 0.2 2.5 4.1
v 0.3 2.5 4.1
v 0.2 2.5 4
v 0.3 2.5 4
v 0.2 2.6 4.6
v 0.3 2.6 4.6
v 0.2 2.6 4.5
v 0.3 2.6 4.5
v 0.2 2.6 4.4
v 0.3 2.6 4.4
v 0.2 2.6 4.3
v 0.3 2.6 4.3
v -0.2 2.7 4.4
v -0.1 2.7 4.4
v -0.2 2.7 4.3
v -0.1 2.7 4.3
v -0.2 2.7 4.2
v -0.1 2.7 4.2
v -0.2 1.1 4.7
v 0.2 1.1 4.7
v -0.3 1.1 4.6
v -0.2 1.1 4.6
v -0.1 1.1 4.6
v -1.49012e-008 1.1 4.6
v 0.1 1.1 4.6
v 0.2 1.1 4.6
v 0.3 1.1 4.6
v -0.4 1.1 4.5
v -0.3 1.1 4.5
v -0.2 1.1 4.5
v -0.1 1.1 4.5
v -1.49012e-008 1.1 4.5
v 0.1 1.1 4.5
v 0.2 1.1 4.5
v 0.3 1.1 4.5
v 0.4 1.1 4.5
v -0.3 1.1 4.4
v -0.2 1.1 4.4
v -0.1 1.1 4.4
v -1.49012e-008 1.1 4.4
v 0.1 1.1 4.4
v 0.2 1.1 4.4
v 0.3 1.1 4.4
v -0.3 1.1 4.3
v -0.2 1.1 4.3
v -0.1 1.1 4.3
v 0.1 1.1 4.3
v 0.2 1.1 4.3
v 0.3 1.1 4.3
v -0.3 1.1 4.2
v -0.2 1.1 4.2
v -0.1 1.1 4.2
v -1.49012e-008 1.1 4.2
v 0.1 1.1 4.2
v 0.2 1.1 4.2
v 0.3 1.1 4.2
v -0.4 1.1 4.1
v -0.3 1.1 4.1
v -0.2 1.1 4.1
v -0.1 1.1 4.1
v -1.49012e-008 1.1 4.1
v 0.1 1.1 4.1
v 0.2 1.1 4.1
v 0.3 1.1 4.1
v 0.4 1.1 4.1
v -0.3 1.1 4
v -0.2 1.1 4
v -1.49012e-008 1.1 4
v 0.1 1.1 4
v 0.2 1.1 4
v 0.3 1.1 4
v -0.2 1.1 3.9
v 0.2 1.1 3.9
v -1.49012e-008 1.4 4.2
v 0.1 1.4 4.2
v -1.49012e-008 1.4 4.1
v 0.1 1.4 4.1
v -0.2 1.5 4.3
v -0.1 1.5 4.3
v 0.3 1.5 4.3
v 0.4 1.5 4.3
v -0.2 1.5 4.2
v -0.1 1.5 4.2
v -1.49012e-008 1.5 4.2
v 0.3 1.5 4.2
v 0.4 1.5 4.2
v -0.1 1.5 4.1
v -1.49012e-008 1.5 4.1
v -0.1 1.6 4.6
v -1.49012e-008 1.6 4.6
v -0.1 1.6 4.5
v -1.49012e-008 1.6 4.5
v 0.1 1.6 4.5
v 0.2 1.6 4.5
v 0.1 1.6 4.4
v 0.2 1.6 4.4
v -0.3 1.6 4.3
v -0.2 1.6 4.3
v -0.3 1.6 4.2
v -0.2 1.6 4.2
v -1.49012e-008 1.6 4.2
v 0.1 1.6 4.2
v 0.3 1.6 4.2
v 0.4 1.6 4.2
v 0.5 1.6 4.2
v -1.49012e-008 1.6 4.1
v 0.1 1.6 4.1
v 0.3 1.6 4.1
v 0.5 1.6 4.1
v -1.49012e-008 1.7 4.6
v 0.1 1.7 4.6
v -1.49012e-008 1.7 4.5
v 0.1 1.7 4.5
v -0.3 1.7 4.1
v -0.2 1.7 4.1
v -0.1 1.7 4.1
v -0.3 1.7 4
v -0.2 1.7 4
v -0.1 1.7 4
v -1.49012e-008 1.7 4
v 0.1 1.7 4
v 0.2 1.7 4
v -0.2 1.7 3.9
v -0.1 1.7 3.9
v -1.49012e-008 1.7 3.9
v 0.1 1.7 3.9
v 0.2 1.7 3.9
v 0.1 1.7 3.8
v 0.2 1.7 3.8
v -0.3 1.8 4.6
v -0.2 1.8 4.6
v -0.3 1.8 4.5
v -0.2 1.8 4.5
v -0.1 1.8 4.5
v -0.2 1.8 4.4
v -0.1 1.8 4.4
v 0.1 1.8 4.4
v 0.2 1.8 4.4
v -0.2 1.8 4.3
v -0.1 1.8 4.3
v 0.1 1.8 4.3
v 0.2 1.8 4.3
v -0.3 1.8 4.2
v -0.2 1.8 4.2
v -0.1 1.8 4.2
v -1.49012e-008 1.8 4.2
v -0.3 1.8 4.1
v -0.2 1.8 4.1
v -0.1 1.8 4.1
v -1.49012e-008 1.8 4.1
v -0.3 1.9 4.5
v -0.2 1.9 4.5
v -1.49012e-008 1.9 4.5
v 0.1 1.9 4.5
v -0.3 1.9 4.4
v -0.2 1.9 4.4
v -1.49012e-008 1.9 4.4
v 0.1 1.9 4.4
v 0.1 1.9 4.3
v 0.2 1.9 4.3
v 0.3 1.9 4.3
v 0.4 1.9 4.3
v -1.49012e-008 1.9 4.2
v 0.1 1.9 4.2
v 0.2 1.9 4.2
v 0.3 1.9 4.2
v 0.4 1.9 4.2
v 0.5 1.9 4.2
v -0.3 1.9 4.1
v -0.2 1.9 4.1
v -1.49012e-008 1.9 4.1
v 0.1 1.9 4.1
v 0.2 1.9 4.1
v 0.4 1.9 4.1
v 0.5 1.9 4.1
v -0.3 1.9 4
v -0.2 1.9 4
v -0.1 1.9 4
v 0.1 1.9 4
v 0.2 1.9 4
v -0.2 1.9 3.9
v -0.1 1.9 3.9
v 0.1 1.9 3.9
v 0.2 1.9 3.9
v 0.1 1.9 3.8
v 0.2 1.9 3.8
v -1.49012e-008 2 4.8
v 0.1 2 4.8
v -1.49012e-008 2 4.7
v 0.1 2 4.7
v -0.1 2 4.6
v -1.49012e-008 2 4.6
v -0.1 2 4.5
v -1.49012e-008 2 4.5
v 0.3 2 4.5
v 0.4 2 4.5
v -0.1 2 4.4
v -1.49012e-008 2 4.4
v 0.3 2 4.4
v 0.4 2 4.4
v -0.4 2 4.3
v -0.3 2 4.3
v -0.2 2 4.3
v -0.1 2 4.3
v 0.3 2 4.3
v 0.4 2 4.3
v 0.5 2 4.3
v -0.4 2 4.2
v -0.3 2 4.2
v -0.2 2 4.2
v -0.1 2 4.2
v -1.49012e-008 2 4.2
v 0.2 2 4.2
v 0.3 2 4.2
v 0.4 2 4.2
v 0.5 2 4.2
v -0.4 2 4.1
v -0.3 2 4.1
v -0.2 2 4.1
v -0.1 2 4.1
v -1.49012e-008 2 4.1
v 0.2 2 4.1
v 0.3 2 4.1
v 0.4 2 4.1
v -0.2 2 4
v -0.1 2 4
v -1.49012e-008 2 4
v -0.1 2 3.9
v -1.49012e-008 2 3.9
v -0.3 2.1 4.7
v -0.2 2.1 4.7
v -1.49012e-008 2.1 4.7
v 0.1 2.1 4.7
v -0.3 2.1 4.6
v -0.2 2.1 4.6
v -1.49012e-008 2.1 4.6
v 0.1 2.1 4.6
v 0.2 2.1 4.6
v 0.3 2.1 4.6
v -1.49012e-008 2.1 4.5
v 0.1 2.1 4.5
v 0.2 2.1 4.5
v 0.3 2.1 4.5
v -0.2 2.1 4.4
v -0.1 2.1 4.4
v 0.1 2.1 4.4
v 0.2 2.1 4.4
v 0.3 2.1 4.4
v -0.2 2.1 4.3
v -0.1 2.1 4.3
v 0.2 2.1 4.3
v 0.3 2.1 4.3
v 0.4 2.1 4.3
v 0.1 2.1 4.2
v 0.2 2.1 4.2
v 0.3 2.1 4.2
v 0.4 2.1 4.2
v 0.1 2.1 4.1
v 0.2 2.1 4.1
v -1.49012e-008 2.1 4
v 0.1 2.1 4
v 0.2 2.1 4
v -1.49012e-008 2.1 3.9
v 0.1 2.1 3.9
v -0.3 2.2 4.6
v -0.2 2.2 4.6
v -0.1 2.2 4.6
v -0.4 2.2 4.5
v -0.3 2.2 4.5
v -0.2 2.2 4.5
v -0.1 2.2 4.5
v -0.4 2.2 4.4
v -0.3 2.2 4.4
v -0.2 2.2 4.4
v -0.4 2.2 4.3
v -0.3 2.2 4.3
v -0.2 2.2 4.3
v -0.1 2.2 4.3
v -0.4 2.2 4.2
v -0.3 2.2 4.2
v -0.2 2.2 4.2
v -0.1 2.2 4.2
v -1.49012e-008 2.2 4.2
v -0.4 2.2 4.1
v -0.3 2.2 4.1
v -0.2 2.2 4.1
v -0.1 2.2 4.1
v -1.49012e-008 2.2 4.1
v 0.2 2.2 4.1
v 0.3 2.2 4.1
v -0.2 2.2 4
v -0.1 2.2 4
v -1.49012e-008 2.2 4
v 0.1 2.2 4
v 0.2 2.2 4
v 0.3 2.2 4
v 0.4 2.2 4
v -0.1 2.2 3.9
v -1.49012e-008 2.2 3.9
v 0.1 2.2 3.9
v 0.2 2.2 3.9
v 0.3 2.2 3.9
v 0.4 2.2 3.9
v -0.1 2.3 4.6
v -1.49012e-008 2.3 4.6
v -0.1 2.3 4.5
v -1.49012e-008 2.3 4.5
v -0.3 2.3 4.4
v -0.2 2.3 4.4
v -0.5 2.3 4.3
v -0.4 2.3 4.3
v -0.3 2.3 4.3
v -0.2 2.3 4.3
v 0.3 2.3 4.3
v 0.4 2.3 4.3
v -0.5 2.3 4.2
v -0.4 2.3 4.2
v -0.3 2.3 4.2
v -0.2 2.3 4.2
v 0.2 2.3 4.2
v 0.3 2.3 4.2
v 0.4 2.3 4.2
v -0.4 2.3 4.1
v -0.3 2.3 4.1
v -0.2 2.3 4.1
v 0.1 2.3 4.1
v 0.2 2.3 4.1
v 0.3 2.3 4.1
v 0.4 2.3 4.1
v -0.4 2.3 4
v -0.3 2.3 4
v -0.2 2.3 4
v -1.49012e-008 2.3 4
v 0.1 2.3 4
v 0.2 2.3 4
v 0.3 2.3 4
v 0.4 2.3 4
v -0.3 2.3 3.9
v -0.2 2.3 3.9
v -1.49012e-008 2.3 3.9
v 0.1 2.3 3.9
v 0.1 2.4 4.7
v 0.2 2.4 4.7
v 0.1 2.4 4.6
v 0.2 2.4 4.6
v -0.4 2.4 4.3
v -0.3 2.4 4.3
v -0.4 2.4 4.2
v -0.3 2.4 4.2
v -0.2 2.4 4.1
v -0.1 2.4 4.1
v -0.2 2.4 4
v -0.1 2.4 4
v -1.49012e-008 2.4 4
v -0.1 2.4 3.9
v -1.49012e-008 2.4 3.9
v -1.49012e-008 2.5 4.8
v 0.1 2.5 4.8
v -1.49012e-008 2.5 4.7
v 0.1 2.5 4.7
v 0.2 2.5 4.7
v 0.3 2.5 4.7
v 0.1 2.5 4.6
v 0.2 2.5 4.6
v 0.3 2.5 4.6
v -0.2 2.5 4.5
v -0.1 2.5 4.5
v 0.1 2.5 4.5
v 0.2 2.5 4.5
v 0.3 2.5 4.5
v -0.2 2.5 4.4
v -0.1 2.5 4.4
v -0.3 2.5 4.3
v -0.2 2.5 4.3
v -0.3 2.5 4.2
v -0.2 2.5 4.2
v -0.1 2.5 4.2
v -0.3 2.5 4.1
v -0.2 2.5 4.1
v -0.1 2.5 4.1
v -1.49012e-008 2.5 4.1
v -0.1 2.5 4
v -1.49012e-008 2.5 4
v 0.1 2.5 4
v -1.49012e-008 2.5 3.9
v 0.1 2.5 3.9
v -1.49012e-008 2.6 4.7
v 0.1 2.6 4.7
v -0.2 2.6 4.6
v -0.1 2.6 4.6
v -1.49012e-008 2.6 4.6
v 0.1 2.6 4.6
v -0.2 2.6 4.5
v -0.1 2.6 4.5
v -1.49012e-008 2.6 4.5
v -0.3 2.6 4.4
v -0.1 2.6 4.4
v -0.3 2.6 4.3
v -0.2 2.6 4.3
v -0.1 2.6 4.3
v 0.3 2.6 4.3
v 0.4 2.6 4.3
v -0.2 2.6 4.2
v -0.1 2.6 4.2
v -1.49012e-008 2.6 4.2
v 0.1 2.6 4.2
v 0.3 2.6 4.2
v 0.4 2.6 4.2
v -0.1 2.6 4.1
v -1.49012e-008 2.6 4.1
v 0.1 2.6 4.1
v 0.2 2.6 4.1
v 0.3 2.6 4.1
v 0.4 2.6 4.1
v 0.1 2.6 4
v 0.2 2.6 4
v 0.3 2.6 4
v 0.1 2.6 3.9
v 0.2 2.6 3.9
v 0.2 2.7 4.6
v 0.3 2.7 4.6
v -0.1 2.7 4.5
v -1.49012e-008 2.7 4.5
v 0.1 2.7 4.5
v 0.2 2.7 4.5
v 0.3 2.7 4.5
v -0.1 2.7 4.4
v -1.49012e-008 2.7 4.4
v 0.1 2.7 4.4
v 0.2 2.7 4.4
v 0.3 2.7 4.4
v -1.49012e-008 2.7 4.3
v 0.1 2.7 4.3
v 0.2 2.7 4.3
v 0.3 2.7 4.3
v -1.49012e-008 2.7 4.2
v 0.1 2.7 4.2
v 0.2 2.7 4.2
v 0.3 2.7 4.2
v -1.49012e-008 2.7 4.1
v 0.1 2.7 4.1
v 0.2 2.7 4.1
v 0.3 2.7 4.1
v -1.49012e-008 2.7 4
v 0.1 2.7 4
v 0.2 2.7 4
v -0.2 2.8 4.4
v -0.1 2.8 4.4
v -1.49012e-008 2.8 4.4
v -0.2 2.8 4.3
v -0.1 2.8 4.3
v -1.49012e-008 2.8 4.3
v -0.2 2.8 4.2
v -0.1 2.8 4.2
v -1.49012e-008 2.8 4.2

# faces
f 3/1/1 2/1/1 1/1/1
f 4/1/1 2/1/1 3/1/1
f 7/25/1 6/25/1 5/25/1
f 8/25/1 6/25/1 7/25/1
f 12/1/1 10/1/1 9/1/1
f 13/1/1 10/1/1 12/1/1
f 15/6/1 12/6/1 11/6/1
f 16/3/1 13/3/1 12/3/1
f 16/6/1 12/6/1 15/6/1
f 17/1/1 14/1/1 13/1/1
f 17/3/1 13/3/1 16/3/1
f 18/1/1 14/1/1 17/1/1
f 20/3/1 16/3/1 15/3/1
f 21/3/1 16/3/1 20/3/1
f 24/2/1 20/2/1 19/2/1
f 25/7/1 21/7/1 20/7/1
f 25/2/1 20/2/1 24/2/1
f 26/7/1 21/7/1 25/7/1
f 27/7/1 23/7/1 22/7/1
f 28/7/1 23/7/1 27/7/1
f 32/3/1 29/3/1 28/3/1
f 33/3/1 29/3/1 32/3/1
f 34/7/1 31/7/1 30/7/1
f 35/7/1 31/7/1 34/7/1
f 39/25/1 37/25/1 36/25/1
f 40/25/1 37/25/1 39/25/1
f 42/25/1 39/25/1 38/25/1
f 43/25/1 39/25/1 42/25/1
f 44/25/1 41/25/1 40/25/1
f 45/25/1 41/25/1 44/25/1
f 48/8/1 47/8/1 46/8/1
f 49/8/1 47/8/1 48/8/1
f 52/5/1 49/5/1 48/5/1
f 53/5/1 49/5/1 52/5/1
f 57/1/1 51/1/1 50/1/1
f 58/8/1 52/8/1 51/8/1
f 58/1/1 51/1/1 57/1/1
f 59/8/1 52/8/1 58/8/1
f 60/1/1 54/1/1 53/1/1
f 61/6/1 55/6/1 54/6/1
f 61/1/1 54/1/1 60/1/1
f 62/6/1 55/6/1 61/6/1
f 63/6/1 57/6/1 56/6/1
f 64/1/1 59/1/1 58/1/1
f 64/6/1 57/6/1 63/6/1
f 64/1/1 58/1/1 57/1/1
f 65/1/1 59/1/1 64/1/1
f 66/1/1 59/1/1 65/1/1
f 67/2/1 61/2/1 60/2/1
f 68/2/1 61/2/1 67/2/1
f 70/4/1 65/4/1 64/4/1
f 71/6/1 66/6/1 65/6/1
f 71/4/1 65/4/1 70/4/1
f 72/6/1 66/6/1 71/6/1
f 73/4/1 69/4/1 68/4/1
f 74/4/1 69/4/1 73/4/1
f 82/8/1 76/8/1 75/8/1
f 83/7/1 77/7/1 76/7/1
f 83/8/1 76/8/1 82/8/1
f 84/1/1 78/1/1 77/1/1
f 84/7/1 77/7/1 83/7/1
f 85/1/1 78/1/1 84/1/1
f 86/5/1 80/5/1 79/5/1
f 87/2/1 81/2/1 80/2/1
f 87/5/1 80/5/1 86/5/1
f 88/7/1 84/7/1 83/7/1
f 89/7/1 84/7/1 88/7/1
f 93/2/1 81/2/1 87/2/1
f 94/2/1 81/2/1 93/2/1
f 96/2/1 91/2/1 90/2/1
f 97/2/1 91/2/1 96/2/1
f 98/1/1 93/1/1 92/1/1
f 99/1/1 93/1/1 98/1/1
f 100/7/1 95/7/1 94/7/1
f 101/7/1 95/7/1 100/7/1
f 106/5/1 103/5/1 102/5/1
f 107/4/1 104/4/1 103/4/1
f 107/5/1 103/5/1 106/5/1
f 108/3/1 105/3/1 104/3/1
f 108/4/1 104/4/1 107/4/1
f 109/3/1 105/3/1 108/3/1
f 110/8/1 107/8/1 106/8/1
f 111/8/1 107/8/1 110/8/1
f 115/25/1 113/25/1 112/25/1
f 116/25/1 113/25/1 115/25/1
f 119/25/1 115/25/1 114/25/1
f 120/25/1 115/25/1 119/25/1
f 121/25/1 117/25/1 116/25/1
f 122/25/1 117/25/1 121/25/1
f 124/25/1 119/25/1 118/25/1
f 125/25/1 119/25/1 124/25/1
f 126/25/1 123/25/1 122/25/1
f 127/25/1 123/25/1 126/25/1
f 130/3/1 129/3/1 128/3/1
f 131/3/1 129/3/1 130/3/1
f 134/3/1 133/3/1 132/3/1
f 135/3/1 133/3/1 134/3/1
f 139/4/1 136/4/1 135/4/1
f 140/4/1 136/4/1 139/4/1
f 141/6/1 138/6/1 137/6/1
f 142/6/1 138/6/1 141/6/1
f 143/7/1 140/7/1 139/7/1
f 144/7/1 140/7/1 143/7/1
f 148/3/1 145/3/1 144/3/1
f 149/3/1 145/3/1 148/3/1
f 150/8/1 147/8/1 146/8/1
f 151/8/1 147/8/1 150/8/1
f 152/8/1 150/8/1 149/8/1
f 153/8/1 150/8/1 152/8/1
f 158/4/1 155/4/1 154/4/1
f 159/4/1 155/4/1 158/4/1
f 160/4/1 157/4/1 156/4/1
f 161/4/1 157/4/1 160/4/1
f 166/1/1 161/1/1 160/1/1
f 167/7/1 162/7/1 161/7/1
f 167/1/1 161/1/1 166/1/1
f 168/7/1 162/7/1 167/7/1
f 169/6/1 164/6/1 163/6/1
f 170/4/1 165/4/1 164/4/1
f 170/6/1 164/6/1 169/6/1
f 171/4/1 165/4/1 170/4/1
f 173/5/1 167/5/1 166/5/1
f 174/5/1 167/5/1 173/5/1
f 177/6/1 173/6/1 172/6/1
f 178/6/1 173/6/1 177/6/1
f 179/2/1 176/2/1 175/2/1
f 180/2/1 176/2/1 179/2/1
f 184/6/1 182/6/1 181/6/1
f 185/7/1 183/7/1 182/7/1
f 185/6/1 182/6/1 184/6/1
f 186/7/1 183/7/1 185/7/1
f 190/22/1 188/22/1 187/22/1
f 191/23/1 189/23/1 188/23/1
f 191/22/1 188/22/1 190/22/1
f 193/21/1 191/21/1 190/21/1
f 194/23/1 189/23/1 191/23/1
f 194/21/1 191/21/1 193/21/1
f 195/23/1 189/23/1 194/23/1
f 196/3/1 193/3/1 192/3/1
f 197/24/1 194/24/1 193/24/1
f 197/3/1 193/3/1 196/3/1
f 198/24/1 194/24/1 197/24/1
f 202/5/1 197/5/1 196/5/1
f 203/23/1 198/23/1 197/23/1
f 203/5/1 197/5/1 202/5/1
f 204/23/1 198/23/1 203/23/1
f 205/2/1 200/2/1 199/2/1
f 206/2/1 200/2/1 205/2/1
f 207/2/1 202/2/1 201/2/1
f 208/7/1 203/7/1 202/7/1
f 208/2/1 202/2/1 207/2/1
f 209/7/1 203/7/1 208/7/1
f 210/22/1 205/22/1 204/22/1
f 211/22/1 205/22/1 210/22/1
f 213/8/1 209/8/1 208/8/1
f 214/8/1 209/8/1 213/8/1
f 215/7/1 212/7/1 211/7/1
f 216/7/1 212/7/1 215/7/1
f 222/6/1 217/6/1 216/6/1
f 223/6/1 217/6/1 222/6/1
f 225/1/1 219/1/1 218/1/1
f 226/1/1 219/1/1 225/1/1
f 227/23/1 221/23/1 220/23/1
f 228/23/1 221/23/1 227/23/1
f 231/4/1 225/4/1 224/4/1
f 232/1/1 226/1/1 225/1/1
f 232/4/1 225/4/1 231/4/1
f 233/1/1 226/1/1 232/1/1
f 237/6/1 230/6/1 229/6/1
f 238/6/1 230/6/1 237/6/1
f 240/20/1 235/20/1 234/20/1
f 241/20/1 235/20/1 240/20/1
f 242/5/1 237/5/1 236/5/1
f 243/5/1 237/5/1 242/5/1
f 247/23/1 240/23/1 239/23/1
f 248/23/1 240/23/1 247/23/1
f 251/6/1 244/6/1 243/6/1
f 252/6/1 244/6/1 251/6/1
f 253/7/1 246/7/1 245/7/1
f 254/7/1 246/7/1 253/7/1
f 255/17/1 249/17/1 248/17/1
f 256/17/1 249/17/1 255/17/1
f 257/8/1 251/8/1 250/8/1
f 258/8/1 251/8/1 257/8/1
f 261/8/1 259/8/1 258/8/1
f 262/8/1 259/8/1 261/8/1
f 266/1/1 261/1/1 260/1/1
f 267/1/1 261/1/1 266/1/1
f 268/7/1 264/7/1 263/7/1
f 269/7/1 264/7/1 268/7/1
f 271/1/1 266/1/1 265/1/1
f 272/1/1 266/1/1 271/1/1
f 273/2/1 269/2/1 268/2/1
f 274/24/1 270/24/1 269/24/1
f 274/2/1 269/2/1 273/2/1
f 275/22/1 271/22/1 270/22/1
f 275/24/1 270/24/1 274/24/1
f 276/22/1 271/22/1 275/22/1
f 279/6/1 278/6/1 277/6/1
f 280/6/1 278/6/1 279/6/1
f 285/2/1 282/2/1 281/2/1
f 286/2/1 282/2/1 285/2/1
f 287/6/1 284/6/1 283/6/1
f 288/6/1 284/6/1 287/6/1
f 294/4/1 290/4/1 289/4/1
f 295/4/1 290/4/1 294/4/1
f 296/4/1 290/4/1 295/4/1
f 297/5/1 292/5/1 291/5/1
f 298/5/1 292/5/1 297/5/1
f 299/6/1 294/6/1 293/6/1
f 299/6/1 295/6/1 294/6/1
f 300/6/1 295/6/1 299/6/1
f 301/6/1 295/6/1 300/6/1
f 306/2/1 301/2/1 300/2/1
f 307/5/1 302/5/1 301/5/1
f 307/2/1 301/2/1 306/2/1
f 308/7/1 303/7/1 302/7/1
f 308/5/1 302/5/1 307/5/1
f 309/7/1 303/7/1 308/7/1
f 310/4/1 305/4/1 304/4/1
f 311/4/1 305/4/1 310/4/1
f 319/6/1 313/6/1 312/6/1
f 320/6/1 313/6/1 319/6/1
f 321/2/1 315/2/1 314/2/1
f 322/2/1 315/2/1 321/2/1
f 323/5/1 317/5/1 316/5/1
f 324/6/1 318/6/1 317/6/1
f 324/5/1 317/5/1 323/5/1
f 325/6/1 318/6/1 324/6/1
f 328/2/1 324/2/1 323/2/1
f 329/3/1 325/3/1 324/3/1
f 329/2/1 324/2/1 328/2/1
f 330/3/1 325/3/1 329/3/1
f 332/2/1 327/2/1 326/2/1
f 333/2/1 327/2/1 332/2/1
f 334/2/1 330/2/1 329/2/1
f 335/2/1 330/2/1 334/2/1
f 336/1/1 332/1/1 331/1/1
f 337/1/1 332/1/1 336/1/1
f 338/2/1 337/2/1 336/2/1
f 339/2/1 337/2/1 338/2/1
f 345/3/1 341/3/1 340/3/1
f 346/7/1 342/7/1 341/7/1
f 346/3/1 341/3/1 345/3/1
f 347/8/1 343/8/1 342/8/1
f 347/7/1 342/7/1 346/7/1
f 348/4/1 344/4/1 343/4/1
f 348/8/1 343/8/1 347/8/1
f 349/4/1 344/4/1 348/4/1
f 350/8/1 347/8/1 346/8/1
f 351/8/1 347/8/1 350/8/1
f 357/6/1 351/6/1 350/6/1
f 358/6/1 351/6/1 357/6/1
f 359/1/1 353/1/1 352/1/1
f 360/1/1 353/1/1 359/1/1
f 361/4/1 355/4/1 354/4/1
f 362/4/1 355/4/1 361/4/1
f 363/2/1 357/2/1 356/2/1
f 364/2/1 357/2/1 363/2/1
f 365/5/1 364/5/1 363/5/1
f 366/5/1 364/5/1 365/5/1
f 371/2/1 368/2/1 367/2/1
f 372/2/1 368/2/1 371/2/1
f 373/4/1 370/4/1 369/4/1
f 374/4/1 370/4/1 373/4/1
f 375/2/1 374/2/1 373/2/1
f 376/2/1 374/2/1 375/2/1
f 377/3/1 376/3/1 375/3/1
f 378/3/1 376/3/1 377/3/1
f 383/7/1 380/7/1 379/7/1
f 384/7/1 380/7/1 383/7/1
f 385/1/1 382/1/1 381/1/1
f 386/1/1 382/1/1 385/1/1
f 389/5/1 388/5/1 387/5/1
f 390/5/1 388/5/1 389/5/1
f 393/7/1 392/7/1 391/7/1
f 394/7/1 392/7/1 393/7/1
f 399/4/1 396/4/1 395/4/1
f 400/4/1 396/4/1 399/4/1
f 401/2/1 398/2/1 397/2/1
f 402/2/1 398/2/1 401/2/1
f 405/7/1 402/7/1 401/7/1
f 405/7/1 403/7/1 402/7/1
f 406/7/1 403/7/1 405/7/1
f 407/1/1 404/1/1 403/1/1
f 407/7/1 403/7/1 406/7/1
f 408/1/1 404/1/1 407/1/1
f 409/8/1 406/8/1 405/8/1
f 410/8/1 406/8/1 409/8/1
f 413/4/1 410/4/1 409/4/1
f 414/4/1 410/4/1 413/4/1
f 415/4/1 412/4/1 411/4/1
f 416/4/1 412/4/1 415/4/1
f 419/4/1 418/4/1 417/4/1
f 420/4/1 418/4/1 419/4/1
f 423/7/1 422/7/1 421/7/1
f 424/7/1 422/7/1 423/7/1
f 427/1/1 426/1/1 425/1/1
f 428/1/1 426/1/1 427/1/1
f 431/6/1 430/6/1 429/6/1
f 432/6/1 430/6/1 431/6/1
f 433/5/2 434/5/2 437/5/2
f 437/5/2 434/5/2 438/5/2
f 435/1/2 436/1/2 441/1/2
f 441/1/2 436/1/2 442/1/2
f 438/1/2 439/1/2 443/1/2
f 443/1/2 439/1/2 444/1/2
f 440/6/2 441/6/2 445/6/2
f 445/6/2 441/6/2 446/6/2
f 446/4/2 447/4/2 450/4/2
f 450/4/2 447/4/2 451/4/2
f 448/3/2 449/3/2 452/3/2
f 452/3/2 449/3/2 453/3/2
f 454/8/2 455/8/2 459/8/2
f 455/7/2 456/7/2 460/7/2
f 459/8/2 455/8/2 460/8/2
f 460/7/2 456/7/2 461/7/2
f 457/2/2 458/2/2 464/2/2
f 464/2/2 458/2/2 465/2/2
f 462/8/2 463/8/2 466/8/2
f 466/8/2 463/8/2 467/8/2
f 467/7/2 468/7/2 472/7/2
f 472/7/2 468/7/2 473/7/2
f 469/2/2 470/2/2 474/2/2
f 470/7/2 471/7/2 475/7/2
f 474/2/2 470/2/2 475/2/2
f 475/7/2 471/7/2 476/7/2
f 477/8/2 478/8/2 479/8/2
f 479/8/2 478/8/2 480/8/2
f 481/3/2 482/3/2 483/3/2
f 483/3/2 482/3/2 484/3/2
f 485/6/2 486/6/2 489/6/2
f 489/6/2 486/6/2 490/6/2
f 487/7/2 488/7/2 491/7/2
f 491/7/2 488/7/2 492/7/2
f 493/2/2 494/2/2 495/2/2
f 495/2/2 494/2/2 496/2/2
f 497/2/2 498/2/2 499/2/2
f 499/2/2 498/2/2 500/2/2
f 501/7/2 502/7/2 505/7/2
f 505/7/2 502/7/2 506/7/2
f 503/3/2 504/3/2 507/3/2
f 507/3/2 504/3/2 508/3/2
f 506/6/2 507/6/2 509/6/2
f 509/6/2 507/6/2 510/6/2
f 509/4/2 510/4/2 514/4/2
f 514/4/2 510/4/2 515/4/2
f 511/1/2 512/1/2 516/1/2
f 516/1/2 512/1/2 517/1/2
f 513/8/2 514/8/2 518/8/2
f 518/8/2 514/8/2 519/8/2
f 520/5/2 521/5/2 524/5/2
f 524/5/2 521/5/2 525/5/2
f 522/6/2 523/6/2 526/6/2
f 526/6/2 523/6/2 527/6/2
f 524/7/2 525/7/2 528/7/2
f 528/7/2 525/7/2 529/7/2
f 530/8/2 531/8/2 532/8/2
f 532/8/2 531/8/2 533/8/2
f 534/1/2 535/1/2 536/1/2
f 536/1/2 535/1/2 537/1/2
f 538/3/2 539/3/2 541/3/2
f 539/2/2 540/2/2 542/2/2
f 541/3/2 539/3/2 542/3/2
f 542/2/2 540/2/2 543/2/2
f 544/20/2 545/20/2 547/20/2
f 545/24/2 546/24/2 548/24/2
f 547/20/2 545/20/2 548/20/2
f 548/24/2 546/24/2 549/24/2
f 547/17/2 548/17/2 551/17/2
f 548/17/2 549/17/2 551/17/2
f 551/17/2 549/17/2 552/17/2
f 550/8/2 551/8/2 554/8/2
f 554/8/2 551/8/2 555/8/2
f 552/6/2 553/6/2 556/6/2
f 556/6/2 553/6/2 557/6/2
f 558/7/2 559/7/2 562/7/2
f 562/7/2 559/7/2 563/7/2
f 560/2/2 561/2/2 565/2/2
f 565/2/2 561/2/2 566/2/2
f 562/6/2 563/6/2 567/6/2
f 563/5/2 564/5/2 568/5/2
f 567/6/2 563/6/2 568/6/2
f 568/5/2 564/5/2 569/5/2
f 568/8/2 569/8/2 571/8/2
f 571/8/2 569/8/2 572/8/2
f 570/4/2 571/4/2 575/4/2
f 575/4/2 571/4/2 576/4/2
f 576/4/2 571/4/2 577/4/2
f 572/22/2 573/22/2 578/22/2
f 578/22/2 573/22/2 579/22/2
f 574/6/2 575/6/2 583/6/2
f 575/6/2 576/6/2 583/6/2
f 583/6/2 576/6/2 584/6/2
f 584/6/2 576/6/2 585/6/2
f 579/22/2 580/22/2 586/22/2
f 586/22/2 580/22/2 587/22/2
f 581/2/2 582/2/2 588/2/2
f 588/2/2 582/2/2 589/2/2
f 584/2/2 585/2/2 590/2/2
f 590/2/2 585/2/2 591/2/2
f 586/18/2 587/18/2 594/18/2
f 594/18/2 587/18/2 595/18/2
f 592/1/2 593/1/2 598/1/2
f 598/1/2 593/1/2 599/1/2
f 594/22/2 595/22/2 600/22/2
f 595/7/2 596/7/2 601/7/2
f 600/22/2 595/22/2 601/22/2
f 596/8/2 597/8/2 602/8/2
f 601/7/2 596/7/2 602/7/2
f 602/8/2 597/8/2 603/8/2
f 600/20/2 601/20/2 607/20/2
f 607/20/2 601/20/2 608/20/2
f 603/2/2 604/2/2 610/2/2
f 610/2/2 604/2/2 611/2/2
f 605/5/2 606/5/2 612/5/2
f 612/5/2 606/5/2 613/5/2
f 607/24/2 608/24/2 615/24/2
f 615/24/2 608/24/2 616/24/2
f 609/2/2 610/2/2 617/2/2
f 617/2/2 610/2/2 618/2/2
f 612/2/2 613/2/2 619/2/2
f 613/3/2 614/3/2 620/3/2
f 619/2/2 613/2/2 620/2/2
f 620/3/2 614/3/2 621/3/2
f 620/2/2 621/2/2 622/2/2
f 622/2/2 621/2/2 623/2/2
f 624/25/2 625/25/2 627/25/2
f 627/25/2 625/25/2 628/25/2
f 626/25/2 627/25/2 631/25/2
f 631/25/2 627/25/2 632/25/2
f 628/25/2 629/25/2 633/25/2
f 633/25/2 629/25/2 634/25/2
f 630/25/2 631/25/2 636/25/2
f 636/25/2 631/25/2 637/25/2
f 634/25/2 635/25/2 638/25/2
f 638/25/2 635/25/2 639/25/2
f 640/2/2 641/2/2 643/2/2
f 643/2/2 641/2/2 644/2/2
f 642/7/2 643/7/2 645/7/2
f 643/8/2 644/8/2 646/8/2
f 645/7/2 643/7/2 646/7/2
f 646/8/2 644/8/2 647/8/2
f 645/5/2 646/5/2 648/5/2
f 646/1/2 647/1/2 649/1/2
f 648/5/2 646/5/2 649/5/2
f 649/1/2 647/1/2 650/1/2
f 649/6/2 650/6/2 655/6/2
f 655/6/2 650/6/2 656/6/2
f 651/7/2 652/7/2 657/7/2
f 652/8/2 653/8/2 658/8/2
f 657/7/2 652/7/2 658/7/2
f 653/4/2 654/4/2 659/4/2
f 658/8/2 653/8/2 659/8/2
f 659/4/2 654/4/2 660/4/2
f 655/3/2 656/3/2 661/3/2
f 661/3/2 656/3/2 662/3/2
f 657/8/2 658/8/2 663/8/2
f 663/8/2 658/8/2 664/8/2
f 663/6/2 664/6/2 666/6/2
f 664/1/2 665/1/2 667/1/2
f 666/6/2 664/6/2 667/6/2
f 667/1/2 665/1/2 668/1/2
f 668/1/2 665/1/2 669/1/2
f 667/1/2 668/1/2 672/1/2
f 672/1/2 668/1/2 673/1/2
f 670/5/2 671/5/2 676/5/2
f 676/5/2 671/5/2 677/5/2
f 672/3/2 673/3/2 678/3/2
f 678/3/2 673/3/2 679/3/2
f 674/5/2 675/5/2 682/5/2
f 682/5/2 675/5/2 683/5/2
f 680/4/2 681/4/2 687/4/2
f 681/2/2 682/2/2 688/2/2
f 687/4/2 681/4/2 688/4/2
f 682/5/2 683/5/2 689/5/2
f 688/2/2 682/2/2 689/2/2
f 689/5/2 683/5/2 690/5/2
f 684/7/2 685/7/2 692/7/2
f 692/7/2 685/7/2 693/7/2
f 686/1/2 687/1/2 694/1/2
f 694/1/2 687/1/2 695/1/2
f 689/8/2 690/8/2 696/8/2
f 696/8/2 690/8/2 697/8/2
f 691/7/2 692/7/2 698/7/2
f 698/7/2 692/7/2 699/7/2
f 696/7/2 697/7/2 702/7/2
f 702/7/2 697/7/2 703/7/2
f 699/2/2 700/2/2 704/2/2
f 700/3/2 701/3/2 705/3/2
f 704/2/2 700/2/2 705/2/2
f 705/3/2 701/3/2 706/3/2
f 702/6/2 703/6/2 707/6/2
f 707/6/2 703/6/2 708/6/2
f 705/7/2 706/7/2 710/7/2
f 710/7/2 706/7/2 711/7/2
f 709/1/2 710/1/2 712/1/2
f 712/1/2 710/1/2 713/1/2
f 714/25/2 715/25/2 717/25/2
f 717/25/2 715/25/2 718/25/2
f 716/25/2 717/25/2 720/25/2
f 720/25/2 717/25/2 721/25/2
f 718/25/2 719/25/2 722/25/2
f 722/25/2 719/25/2 723/25/2
f 724/4/2 725/4/2 726/4/2
f 726/4/2 725/4/2 727/4/2
f 728/2/2 729/2/2 730/2/2
f 730/2/2 729/2/2 731/2/2
f 731/8/2 732/8/2 733/8/2
f 733/8/2 732/8/2 734/8/2
f 733/3/2 734/3/2 738/3/2
f 738/3/2 734/3/2 739/3/2
f 735/4/2 736/4/2 741/4/2
f 736/7/2 737/7/2 742/7/2
f 741/4/2 736/4/2 742/4/2
f 742/7/2 737/7/2 743/7/2
f 740/8/2 741/8/2 746/8/2
f 746/8/2 741/8/2 747/8/2
f 744/4/2 745/4/2 750/4/2
f 750/4/2 745/4/2 751/4/2
f 746/3/2 747/3/2 752/3/2
f 747/5/2 748/5/2 753/5/2
f 752/3/2 747/3/2 753/3/2
f 748/2/2 749/2/2 754/2/2
f 753/5/2 748/5/2 754/5/2
f 754/2/2 749/2/2 755/2/2
f 750/6/2 751/6/2 757/6/2
f 757/6/2 751/6/2 758/6/2
f 755/7/2 756/7/2 759/7/2
f 756/7/2 757/7/2 759/7/2
f 759/7/2 757/7/2 760/7/2
f 757/1/2 758/1/2 761/1/2
f 760/7/2 757/7/2 761/7/2
f 761/1/2 758/1/2 762/1/2
f 763/5/2 764/5/2 769/5/2
f 764/2/2 765/2/2 770/2/2
f 769/5/2 764/5/2 770/5/2
f 770/2/2 765/2/2 771/2/2
f 766/4/2 767/4/2 772/4/2
f 772/4/2 767/4/2 773/4/2
f 768/4/2 769/4/2 774/4/2
f 769/5/2 770/5/2 775/5/2
f 774/4/2 769/4/2 775/4/2
f 770/1/2 771/1/2 776/1/2
f 775/5/2 770/5/2 776/5/2
f 772/2/2 773/2/2 777/2/2
f 777/2/2 773/2/2 778/2/2
f 776/1/2 771/1/2 782/1/2
f 782/1/2 771/1/2 783/1/2
f 779/8/2 780/8/2 786/8/2
f 786/8/2 780/8/2 787/8/2
f 781/4/2 782/4/2 788/4/2
f 782/3/2 783/3/2 789/3/2
f 788/4/2 782/4/2 789/4/2
f 783/2/2 784/2/2 790/2/2
f 789/3/2 783/3/2 790/3/2
f 784/7/2 785/7/2 791/7/2
f 790/2/2 784/2/2 791/2/2
f 785/6/2 786/6/2 792/6/2
f 791/7/2 785/7/2 792/7/2
f 792/6/2 786/6/2 793/6/2
f 794/25/2 795/25/2 796/25/2
f 796/25/2 795/25/2 797/25/2
f 798/5/2 799/5/2 800/5/2
f 800/5/2 799/5/2 801/5/2
f 802/1/2 803/1/2 804/1/2
f 804/1/2 803/1/2 805/1/2
f 804/3/2 805/3/2 806/3/2
f 806/3/2 805/3/2 807/3/2
f 808/4/2 809/4/2 813/4/2
f 809/7/2 810/7/2 814/7/2
f 813/4/2 809/4/2 814/4/2
f 814/7/2 810/7/2 815/7/2
f 811/7/2 812/7/2 816/7/2
f 816/7/2 812/7/2 817/7/2
f 815/3/2 816/3/2 818/3/2
f 818/3/2 816/3/2 819/3/2
f 820/4/2 821/4/2 825/4/2
f 825/4/2 821/4/2 826/4/2
f 822/7/2 823/7/2 827/7/2
f 823/8/2 824/8/2 828/8/2
f 827/7/2 823/7/2 828/7/2
f 824/7/2 825/7/2 829/7/2
f 828/8/2 824/8/2 829/8/2
f 829/7/2 825/7/2 830/7/2
f 831/3/2 832/3/2 834/3/2
f 834/3/2 832/3/2 835/3/2
f 833/4/2 834/4/2 836/4/2
f 834/2/2 835/2/2 837/2/2
f 836/4/2 834/4/2 837/4/2
f 837/2/2 835/2/2 838/2/2
f 839/3/2 840/3/2 841/3/2
f 841/3/2 840/3/2 842/3/2
f 843/1/2 844/1/2 846/1/2
f 846/1/2 844/1/2 847/1/2
f 845/4/2 846/4/2 848/4/2
f 846/3/2 847/3/2 849/3/2
f 848/4/2 846/4/2 849/4/2
f 849/3/2 847/3/2 850/3/2
f 848/6/2 849/6/2 851/6/2
f 851/6/2 849/6/2 852/6/2
f 858/6/3 854/6/3 853/6/3
f 859/6/3 854/6/3 858/6/3
f 860/5/3 856/5/3 855/5/3
f 861/2/3 857/2/3 856/2/3
f 861/5/3 856/5/3 860/5/3
f 862/2/3 857/2/3 861/2/3
f 867/8/3 864/8/3 863/8/3
f 868/8/3 864/8/3 867/8/3
f 875/4/3 870/4/3 869/4/3
f 876/4/3 870/4/3 875/4/3
f 877/2/3 872/2/3 871/2/3
f 878/2/3 872/2/3 877/2/3
f 881/2/3 874/2/3 873/2/3
f 882/2/3 874/2/3 881/2/3
f 883/25/3 866/25/3 865/25/3
f 884/25/3 866/25/3 883/25/3
f 885/1/3 880/1/3 879/1/3
f 886/1/3 880/1/3 885/1/3
f 888/4/3 887/4/3 886/4/3
f 889/4/3 887/4/3 888/4/3
f 897/25/3 891/25/3 890/25/3
f 898/25/3 891/25/3 897/25/3
f 899/6/3 893/6/3 892/6/3
f 900/6/3 893/6/3 899/6/3
f 901/7/3 895/7/3 894/7/3
f 902/7/3 895/7/3 901/7/3
f 909/6/3 902/6/3 901/6/3
f 910/6/3 902/6/3 909/6/3
f 912/6/3 904/6/3 903/6/3
f 913/6/3 904/6/3 912/6/3
f 914/2/3 906/2/3 905/2/3
f 915/2/3 906/2/3 914/2/3
f 917/4/3 908/4/3 907/4/3
f 918/4/3 908/4/3 917/4/3
f 919/5/3 910/5/3 909/5/3
f 920/7/3 911/7/3 910/7/3
f 920/5/3 910/5/3 919/5/3
f 921/7/3 911/7/3 920/7/3
f 922/1/3 913/1/3 912/1/3
f 923/1/3 913/1/3 922/1/3
f 924/7/3 915/7/3 914/7/3
f 925/6/3 916/6/3 915/6/3
f 925/7/3 915/7/3 924/7/3
f 926/6/3 916/6/3 925/6/3
f 934/25/3 897/25/3 896/25/3
f 935/25/3 897/25/3 934/25/3
f 937/5/3 929/5/3 928/5/3
f 937/5/3 928/5/3 927/5/3
f 938/5/3 929/5/3 937/5/3
f 939/5/3 929/5/3 938/5/3
f 940/4/3 931/4/3 930/4/3
f 941/4/3 931/4/3 940/4/3
f 942/3/3 933/3/3 932/3/3
f 943/3/3 933/3/3 942/3/3
f 946/25/3 936/25/3 935/25/3
f 947/25/3 936/25/3 946/25/3
f 948/8/3 938/8/3 937/8/3
f 949/3/3 939/3/3 938/3/3
f 949/8/3 938/8/3 948/8/3
f 950/3/3 939/3/3 949/3/3
f 951/5/3 942/5/3 941/5/3
f 952/5/3 942/5/3 951/5/3
f 953/4/3 945/4/3 944/4/3
f 954/4/3 945/4/3 953/4/3
f 960/25/3 956/25/3 955/25/3
f 961/25/3 956/25/3 960/25/3
f 966/2/3 958/2/3 957/2/3
f 967/2/3 958/2/3 966/2/3
f 969/25/3 960/25/3 959/25/3
f 970/25/3 960/25/3 969/25/3
f 971/1/3 963/1/3 962/1/3
f 972/1/3 963/1/3 971/1/3
f 973/4/3 965/4/3 964/4/3
f 974/4/3 965/4/3 973/4/3
f 985/5/3 973/5/3 972/5/3
f 986/5/3 973/5/3 985/5/3
f 988/6/3 976/6/3 975/6/3
f 989/6/3 976/6/3 988/6/3
f 990/4/3 978/4/3 977/4/3
f 991/1/3 979/1/3 978/1/3
f 991/4/3 978/4/3 990/4/3
f 992/5/3 980/5/3 979/5/3
f 992/1/3 979/1/3 991/1/3
f 993/5/3 980/5/3 992/5/3
f 996/3/3 982/3/3 981/3/3
f 997/5/3 983/5/3 982/5/3
f 997/3/3 982/3/3 996/3/3
f 998/5/3 983/5/3 997/5/3
f 999/8/3 985/8/3 984/8/3
f 1000/2/3 986/2/3 985/2/3
f 1000/8/3 985/8/3 999/8/3
f 1001/1/3 987/1/3 986/1/3
f 1001/2/3 986/2/3 1000/2/3
f 1002/1/3 987/1/3 1001/1/3
f 1005/1/3 992/1/3 991/1/3
f 1006/3/3 993/3/3 992/3/3
f 1006/1/3 992/1/3 1005/1/3
f 1007/3/3 993/3/3 1006/3/3
f 1008/2/3 995/2/3 994/2/3
f 1009/2/3 995/2/3 1008/2/3
f 1010/8/3 997/8/3 996/8/3
f 1011/2/3 998/2/3 997/2/3
f 1011/8/3 997/8/3 1010/8/3
f 1012/2/3 998/2/3 1011/2/3
f 1014/8/3 1001/8/3 1000/8/3
f 1015/8/3 1001/8/3 1014/8/3
f 1017/1/3 1004/1/3 1003/1/3
f 1018/4/3 1005/4/3 1004/4/3
f 1018/1/3 1004/1/3 1017/1/3
f 1019/6/3 1006/6/3 1005/6/3
f 1019/4/3 1005/4/3 1018/4/3
f 1020/1/3 1007/1/3 1006/1/3
f 1020/6/3 1006/6/3 1019/6/3
f 1021/6/3 1008/6/3 1007/6/3
f 1021/1/3 1007/1/3 1020/1/3
f 1022/3/3 1009/3/3 1008/3/3
f 1022/6/3 1008/6/3 1021/6/3
f 1023/3/3 1009/3/3 1022/3/3
f 1024/25/3 969/25/3 968/25/3
f 1025/25/3 969/25/3 1024/25/3
f 1027/7/3 1012/7/3 1011/7/3
f 1028/5/3 1013/5/3 1012/5/3
f 1028/7/3 1012/7/3 1027/7/3
f 1029/5/3 1013/5/3 1028/5/3
f 1030/6/3 1016/6/3 1015/6/3
f 1031/6/3 1016/6/3 1030/6/3
f 1032/1/3 1022/1/3 1021/1/3
f 1033/6/3 1023/6/3 1022/6/3
f 1033/1/3 1022/1/3 1032/1/3
f 1034/6/3 1023/6/3 1033/6/3
f 1035/25/3 1026/25/3 1025/25/3
f 1036/25/3 1026/25/3 1035/25/3
f 1038/4/3 1031/4/3 1030/4/3
f 1039/4/3 1031/4/3 1038/4/3
f 1041/1/3 1033/1/3 1032/1/3
f 1042/1/3 1033/1/3 1041/1/3
f 1043/25/3 1037/25/3 1036/25/3
f 1044/25/3 1037/25/3 1043/25/3
f 1045/4/3 1040/4/3 1039/4/3
f 1046/4/3 1040/4/3 1045/4/3
f 1050/6/3 1048/6/3 1047/6/3
f 1051/3/3 1049/3/3 1048/3/3
f 1051/6/3 1048/6/3 1050/6/3
f 1052/3/3 1049/3/3 1051/3/3
f 1062/3/3 1051/3/3 1050/3/3
f 1063/3/3 1051/3/3 1062/3/3
f 1064/2/3 1054/2/3 1053/2/3
f 1065/2/3 1054/2/3 1064/2/3
f 1066/5/3 1056/5/3 1055/5/3
f 1067/8/3 1057/8/3 1056/8/3
f 1067/5/3 1056/5/3 1066/5/3
f 1073/3/3 1060/3/3 1059/3/3
f 1073/3/3 1059/3/3 1058/3/3
f 1074/3/3 1060/3/3 1073/3/3
f 1075/3/3 1060/3/3 1074/3/3
f 1076/4/3 1062/4/3 1061/4/3
f 1077/6/3 1063/6/3 1062/6/3
f 1077/4/3 1062/4/3 1076/4/3
f 1078/6/3 1063/6/3 1077/6/3
f 1080/8/3 1057/8/3 1067/8/3
f 1081/8/3 1057/8/3 1080/8/3
f 1082/6/3 1069/6/3 1068/6/3
f 1083/6/3 1069/6/3 1082/6/3
f 1084/22/3 1071/22/3 1070/22/3
f 1085/21/3 1072/21/3 1071/21/3
f 1085/22/3 1071/22/3 1084/22/3
f 1086/21/3 1072/21/3 1085/21/3
f 1088/18/3 1079/18/3 1078/18/3
f 1089/18/3 1079/18/3 1088/18/3
f 1090/3/3 1083/3/3 1082/3/3
f 1091/3/3 1083/3/3 1090/3/3
f 1092/20/3 1085/20/3 1084/20/3
f 1093/17/3 1086/17/3 1085/17/3
f 1093/20/3 1085/20/3 1092/20/3
f 1094/17/3 1086/17/3 1093/17/3
f 1099/17/3 1088/17/3 1087/17/3
f 1100/17/3 1088/17/3 1099/17/3
f 1103/2/3 1095/2/3 1094/2/3
f 1104/2/3 1095/2/3 1103/2/3
f 1105/6/3 1097/6/3 1096/6/3
f 1106/3/3 1098/3/3 1097/3/3
f 1106/6/3 1097/6/3 1105/6/3
f 1107/3/3 1098/3/3 1106/3/3
f 1108/5/3 1102/5/3 1101/5/3
f 1109/5/3 1102/5/3 1108/5/3
f 1114/1/3 1111/1/3 1110/1/3
f 1115/1/3 1111/1/3 1114/1/3
f 1120/1/3 1113/1/3 1112/1/3
f 1121/1/3 1113/1/3 1120/1/3
f 1122/4/3 1115/4/3 1114/4/3
f 1123/7/3 1116/7/3 1115/7/3
f 1123/4/3 1115/4/3 1122/4/3
f 1124/7/3 1116/7/3 1123/7/3
f 1126/8/3 1118/8/3 1117/8/3
f 1127/5/3 1119/5/3 1118/5/3
f 1127/8/3 1118/8/3 1126/8/3
f 1128/5/3 1119/5/3 1127/5/3
f 1131/3/3 1124/3/3 1123/3/3
f 1132/3/3 1124/3/3 1131/3/3
f 1133/3/3 1126/3/3 1125/3/3
f 1134/5/3 1127/5/3 1126/5/3
f 1134/3/3 1126/3/3 1133/3/3
f 1135/5/3 1127/5/3 1134/5/3
f 1136/4/3 1130/4/3 1129/4/3
f 1137/4/3 1130/4/3 1136/4/3
f 1145/8/3 1139/8/3 1138/8/3
f 1146/8/3 1139/8/3 1145/8/3
f 1153/4/3 1141/4/3 1140/4/3
f 1154/3/3 1142/3/3 1141/3/3
f 1154/4/3 1141/4/3 1153/4/3
f 1155/2/3 1144/2/3 1143/2/3
f 1155/3/3 1142/3/3 1154/3/3
f 1155/2/3 1143/2/3 1142/2/3
f 1156/2/3 1144/2/3 1155/2/3
f 1157/4/3 1145/4/3 1144/4/3
f 1157/2/3 1144/2/3 1156/2/3
f 1158/4/3 1145/4/3 1157/4/3
f 1161/7/3 1148/7/3 1147/7/3
f 1162/8/3 1149/8/3 1148/8/3
f 1162/7/3 1148/7/3 1161/7/3
f 1163/4/3 1150/4/3 1149/4/3
f 1163/8/3 1149/8/3 1162/8/3
f 1164/2/3 1151/2/3 1150/2/3
f 1164/4/3 1150/4/3 1163/4/3
f 1165/1/3 1152/1/3 1151/1/3
f 1165/2/3 1151/2/3 1164/2/3
f 1166/1/3 1152/1/3 1165/1/3
f 1167/5/3 1155/5/3 1154/5/3
f 1168/5/3 1155/5/3 1167/5/3
f 1169/1/3 1157/1/3 1156/1/3
f 1170/3/3 1158/3/3 1157/3/3
f 1170/1/3 1157/1/3 1169/1/3
f 1171/4/3 1159/4/3 1158/4/3
f 1171/3/3 1158/3/3 1170/3/3
f 1172/4/3 1159/4/3 1171/4/3
f 1173/3/3 1161/3/3 1160/3/3
f 1174/3/3 1161/3/3 1173/3/3
f 1175/7/3 1163/7/3 1162/7/3
f 1176/7/3 1163/7/3 1175/7/3
f 1177/4/3 1166/4/3 1165/4/3
f 1178/4/3 1166/4/3 1177/4/3
f 1179/4/3 1172/4/3 1171/4/3
f 1180/6/3 1173/6/3 1172/6/3
f 1180/4/3 1172/4/3 1179/4/3
f 1181/6/3 1173/6/3 1180/6/3
f 1188/7/3 1183/7/3 1182/7/3
f 1189/7/3 1183/7/3 1188/7/3
f 1190/1/3 1185/1/3 1184/1/3
f 1191/2/3 1186/2/3 1185/2/3
f 1191/1/3 1185/1/3 1190/1/3
f 1192/2/3 1186/2/3 1191/2/3
f 1194/5/3 1188/5/3 1187/5/3
f 1195/4/3 1189/4/3 1188/4/3
f 1195/5/3 1188/5/3 1194/5/3
f 1196/4/3 1189/4/3 1195/4/3
f 1198/3/3 1193/3/3 1192/3/3
f 1199/3/3 1193/3/3 1198/3/3
f 1200/7/3 1195/7/3 1194/7/3
f 1201/7/3 1195/7/3 1200/7/3
f 1202/2/3 1197/2/3 1196/2/3
f 1203/2/3 1197/2/3 1202/2/3
f 1210/2/3 1205/2/3 1204/2/3
f 1211/5/3 1206/5/3 1205/5/3
f 1211/2/3 1205/2/3 1210/2/3
f 1212/5/3 1206/5/3 1211/5/3
f 1213/8/3 1208/8/3 1207/8/3
f 1214/7/3 1209/7/3 1208/7/3
f 1214/8/3 1208/8/3 1213/8/3
f 1215/7/3 1209/7/3 1214/7/3
f 1218/5/3 1211/5/3 1210/5/3
f 1219/5/3 1211/5/3 1218/5/3
f 1222/3/3 1217/3/3 1216/3/3
f 1223/3/3 1217/3/3 1222/3/3
f 1226/7/3 1219/7/3 1218/7/3
f 1227/7/3 1219/7/3 1226/7/3
f 1228/3/3 1221/3/3 1220/3/3
f 1229/3/3 1221/3/3 1228/3/3
f 1230/3/3 1223/3/3 1222/3/3
f 1231/3/3 1223/3/3 1230/3/3
f 1232/1/3 1225/1/3 1224/1/3
f 1233/1/3 1225/1/3 1232/1/3
f 1238/3/3 1235/3/3 1234/3/3
f 1239/3/3 1235/3/3 1238/3/3
f 1242/4/3 1237/4/3 1236/4/3
f 1243/4/3 1237/4/3 1242/4/3
f 1244/8/3 1241/8/3 1240/8/3
f 1245/8/3 1241/8/3 1244/8/3
f 1252/4/3 1247/4/3 1246/4/3
f 1253/4/3 1247/4/3 1252/4/3
f 1254/5/3 1249/5/3 1248/5/3
f 1255/5/3 1249/5/3 1254/5/3
f 1256/8/3 1251/8/3 1250/8/3
f 1257/8/3 1251/8/3 1256/8/3
f 1260/2/3 1255/2/3 1254/2/3
f 1260/2/3 1254/2/3 1253/2/3
f 1261/2/3 1255/2/3 1260/2/3
f 1262/2/3 1255/2/3 1261/2/3
f 1263/2/3 1259/2/3 1258/2/3
f 1264/2/3 1259/2/3 1263/2/3
f 1267/6/3 1266/6/3 1265/6/3
f 1268/6/3 1266/6/3 1267/6/3
f 1271/3/3 1270/3/3 1269/3/3
f 1272/3/3 1270/3/3 1271/3/3
f 1275/5/3 1274/5/3 1273/5/3
f 1276/5/3 1274/5/3 1275/5/3
f 1280/1/3 1277/1/3 1276/1/3
f 1281/1/3 1277/1/3 1280/1/3
f 1282/2/3 1279/2/3 1278/2/3
f 1283/2/3 1279/2/3 1282/2/3
f 1286/4/3 1285/4/3 1284/4/3
f 1287/4/3 1285/4/3 1286/4/3
f 1288/6/4 1289/6/4 1292/6/4
f 1289/3/4 1290/3/4 1293/3/4
f 1292/6/4 1289/6/4 1293/6/4
f 1290/2/4 1291/2/4 1294/2/4
f 1293/3/4 1290/3/4 1294/3/4
f 1294/2/4 1291/2/4 1295/2/4
f 1296/6/4 1297/6/4 1298/6/4
f 1298/6/4 1297/6/4 1299/6/4
f 1300/1/4 1301/1/4 1302/1/4
f 1302/1/4 1301/1/4 1303/1/4
f 1304/3/4 1305/3/4 1306/3/4
f 1306/3/4 1305/3/4 1307/3/4
f 1308/6/4 1309/6/4 1310/6/4
f 1310/6/4 1309/6/4 1311/6/4
f 1312/2/4 1313/2/4 1316/2/4
f 1314/1/4 1315/1/4 1317/1/4
f 1316/2/4 1313/2/4 1317/2/4
f 1313/1/4 1314/1/4 1317/1/4
f 1317/1/4 1315/1/4 1318/1/4
f 1319/3/4 1320/3/4 1325/3/4
f 1320/7/4 1321/7/4 1326/7/4
f 1325/3/4 1320/3/4 1326/3/4
f 1326/7/4 1321/7/4 1327/7/4
f 1322/8/4 1323/8/4 1331/8/4
f 1323/1/4 1324/1/4 1332/1/4
f 1331/8/4 1323/8/4 1332/8/4
f 1332/1/4 1324/1/4 1333/1/4
f 1325/2/4 1326/2/4 1335/2/4
f 1326/8/4 1327/8/4 1336/8/4
f 1335/2/4 1326/2/4 1336/2/4
f 1336/8/4 1327/8/4 1337/8/4
f 1328/8/4 1329/8/4 1339/8/4
f 1339/8/4 1329/8/4 1340/8/4
f 1330/3/4 1331/3/4 1341/3/4
f 1341/3/4 1331/3/4 1342/3/4
f 1333/4/4 1334/4/4 1343/4/4
f 1343/4/4 1334/4/4 1344/4/4
f 1335/3/4 1336/3/4 1345/3/4
f 1345/3/4 1336/3/4 1346/3/4
f 1337/4/4 1338/4/4 1347/4/4
f 1347/4/4 1338/4/4 1348/4/4
f 1349/8/4 1350/8/4 1355/8/4
f 1350/2/4 1351/2/4 1356/2/4
f 1355/8/4 1350/8/4 1356/8/4
f 1352/5/4 1353/5/4 1357/5/4
f 1356/2/4 1351/2/4 1357/2/4
f 1351/5/4 1352/5/4 1357/5/4
f 1357/5/4 1353/5/4 1358/5/4
f 1353/8/4 1354/8/4 1359/8/4
f 1358/5/4 1353/5/4 1359/5/4
f 1359/8/4 1354/8/4 1360/8/4
f 1355/6/4 1356/6/4 1361/6/4
f 1361/6/4 1356/6/4 1362/6/4
f 1361/7/4 1362/7/4 1363/7/4
f 1363/7/4 1362/7/4 1364/7/4
f 1365/1/4 1366/1/4 1369/1/4
f 1369/1/4 1366/1/4 1370/1/4
f 1367/1/4 1368/1/4 1375/1/4
f 1375/1/4 1368/1/4 1376/1/4
f 1369/4/4 1370/4/4 1377/4/4
f 1370/7/4 1371/7/4 1378/7/4
f 1377/4/4 1370/4/4 1378/4/4
f 1378/7/4 1371/7/4 1379/7/4
f 1372/8/4 1373/8/4 1381/8/4
f 1373/5/4 1374/5/4 1382/5/4
f 1381/8/4 1373/8/4 1382/8/4
f 1382/5/4 1374/5/4 1383/5/4
f 1375/3/4 1376/3/4 1385/3/4
f 1385/3/4 1376/3/4 1386/3/4
f 1378/3/4 1379/3/4 1387/3/4
f 1387/3/4 1379/3/4 1388/3/4
f 1380/3/4 1381/3/4 1394/3/4
f 1381/5/4 1382/5/4 1395/5/4
f 1394/3/4 1381/3/4 1395/3/4
f 1395/5/4 1382/5/4 1396/5/4
f 1383/4/4 1384/4/4 1397/4/4
f 1397/4/4 1384/4/4 1398/4/4
f 1389/2/4 1390/2/4 1405/2/4
f 1405/2/4 1390/2/4 1406/2/4
f 1391/7/4 1392/7/4 1407/7/4
f 1407/7/4 1392/7/4 1408/7/4
f 1393/23/4 1394/23/4 1409/23/4
f 1409/23/4 1394/23/4 1410/23/4
f 1394/24/4 1395/24/4 1411/24/4
f 1410/23/4 1394/23/4 1411/23/4
f 1411/24/4 1395/24/4 1412/24/4
f 1396/22/4 1397/22/4 1413/22/4
f 1413/22/4 1397/22/4 1414/22/4
f 1399/23/4 1400/23/4 1416/23/4
f 1416/23/4 1400/23/4 1417/23/4
f 1401/20/4 1402/20/4 1418/20/4
f 1418/20/4 1402/20/4 1419/20/4
f 1403/17/4 1404/17/4 1420/17/4
f 1420/17/4 1404/17/4 1421/17/4
f 1406/22/4 1407/22/4 1422/22/4
f 1407/2/4 1408/2/4 1423/2/4
f 1422/22/4 1407/22/4 1423/22/4
f 1423/2/4 1408/2/4 1424/2/4
f 1409/24/4 1410/24/4 1425/24/4
f 1410/17/4 1411/17/4 1426/17/4
f 1425/24/4 1410/24/4 1426/24/4
f 1426/17/4 1411/17/4 1427/17/4
f 1412/19/4 1413/19/4 1428/19/4
f 1428/19/4 1413/19/4 1429/19/4
f 1414/19/4 1415/19/4 1430/19/4
f 1430/19/4 1415/19/4 1431/19/4
f 1417/22/4 1418/22/4 1432/22/4
f 1418/18/4 1419/18/4 1433/18/4
f 1432/22/4 1418/22/4 1433/22/4
f 1433/18/4 1419/18/4 1434/18/4
f 1422/18/4 1423/18/4 1435/18/4
f 1435/18/4 1423/18/4 1436/18/4
f 1427/2/4 1428/2/4 1437/2/4
f 1428/1/4 1429/1/4 1438/1/4
f 1437/2/4 1428/2/4 1438/2/4
f 1429/6/4 1430/6/4 1439/6/4
f 1438/1/4 1429/1/4 1439/1/4
f 1439/6/4 1430/6/4 1440/6/4
f 1437/4/4 1438/4/4 1445/4/4
f 1438/3/4 1439/3/4 1446/3/4
f 1445/4/4 1438/4/4 1446/4/4
f 1446/3/4 1439/3/4 1447/3/4
f 1441/2/4 1442/2/4 1451/2/4
f 1451/2/4 1442/2/4 1452/2/4
f 1443/4/4 1444/4/4 1453/4/4
f 1453/4/4 1444/4/4 1454/4/4
f 1446/5/4 1447/5/4 1455/5/4
f 1455/5/4 1447/5/4 1456/5/4
f 1448/1/4 1449/1/4 1457/1/4
f 1449/3/4 1450/3/4 1458/3/4
f 1457/1/4 1449/1/4 1458/1/4
f 1458/3/4 1450/3/4 1459/3/4
f 1451/3/4 1452/3/4 1461/3/4
f 1461/3/4 1452/3/4 1462/3/4
f 1460/6/4 1461/6/4 1463/6/4
f 1463/6/4 1461/6/4 1464/6/4
f 1465/25/4 1466/25/4 1472/25/4
f 1472/25/4 1466/25/4 1473/25/4
f 1467/1/4 1468/1/4 1476/1/4
f 1476/1/4 1468/1/4 1477/1/4
f 1469/7/4 1470/7/4 1478/7/4
f 1478/7/4 1470/7/4 1479/7/4
f 1471/25/4 1472/25/4 1483/25/4
f 1483/25/4 1472/25/4 1484/25/4
f 1474/2/4 1475/2/4 1485/2/4
f 1485/2/4 1475/2/4 1486/2/4
f 1476/5/4 1477/5/4 1487/5/4
f 1487/5/4 1477/5/4 1488/5/4
f 1480/3/4 1481/3/4 1492/3/4
f 1492/3/4 1481/3/4 1493/3/4
f 1485/5/4 1486/5/4 1497/5/4
f 1497/5/4 1486/5/4 1498/5/4
f 1488/7/4 1489/7/4 1499/7/4
f 1499/7/4 1489/7/4 1500/7/4
f 1490/2/4 1491/2/4 1501/2/4
f 1501/2/4 1491/2/4 1502/2/4
f 1492/4/4 1493/4/4 1503/4/4
f 1503/4/4 1493/4/4 1504/4/4
f 1494/2/4 1495/2/4 1507/2/4
f 1507/2/4 1495/2/4 1508/2/4
f 1496/7/4 1497/7/4 1509/7/4
f 1509/7/4 1497/7/4 1510/7/4
f 1504/1/4 1505/1/4 1513/1/4
f 1513/1/4 1505/1/4 1514/1/4
f 1506/6/4 1507/6/4 1515/6/4
f 1515/6/4 1507/6/4 1516/6/4
f 1508/2/4 1509/2/4 1517/2/4
f 1517/2/4 1509/2/4 1518/2/4
f 1510/2/4 1511/2/4 1519/2/4
f 1511/5/4 1512/5/4 1520/5/4
f 1519/2/4 1511/2/4 1520/2/4
f 1520/5/4 1512/5/4 1521/5/4
f 1482/25/4 1483/25/4 1525/25/4
f 1525/25/4 1483/25/4 1526/25/4
f 1521/2/4 1522/2/4 1532/2/4
f 1532/2/4 1522/2/4 1533/2/4
f 1523/7/4 1524/7/4 1535/7/4
f 1535/7/4 1524/7/4 1536/7/4
f 1526/25/4 1527/25/4 1540/25/4
f 1540/25/4 1527/25/4 1541/25/4
f 1528/5/4 1529/5/4 1543/5/4
f 1529/8/4 1530/8/4 1544/8/4
f 1543/5/4 1529/5/4 1544/5/4
f 1530/3/4 1531/3/4 1545/3/4
f 1544/8/4 1530/8/4 1545/8/4
f 1531/5/4 1532/5/4 1546/5/4
f 1545/3/4 1531/3/4 1546/3/4
f 1546/5/4 1532/5/4 1547/5/4
f 1534/5/4 1535/5/4 1549/5/4
f 1549/5/4 1535/5/4 1550/5/4
f 1536/6/4 1537/6/4 1551/6/4
f 1551/6/4 1537/6/4 1552/6/4
f 1538/6/4 1539/6/4 1553/6/4
f 1553/6/4 1539/6/4 1554/6/4
f 1541/25/4 1542/25/4 1555/25/4
f 1555/25/4 1542/25/4 1556/25/4
f 1546/8/4 1547/8/4 1558/8/4
f 1547/7/4 1548/7/4 1559/7/4
f 1558/8/4 1547/8/4 1559/8/4
f 1559/7/4 1548/7/4 1560/7/4
f 1551/3/4 1552/3/4 1561/3/4
f 1552/2/4 1553/2/4 1562/2/4
f 1561/3/4 1552/3/4 1562/3/4
f 1562/2/4 1553/2/4 1563/2/4
f 1543/3/4 1544/3/4 1564/3/4
f 1564/3/4 1544/3/4 1565/3/4
f 1557/1/4 1558/1/4 1566/1/4
f 1558/3/4 1559/3/4 1567/3/4
f 1566/1/4 1558/1/4 1567/1/4
f 1567/3/4 1559/3/4 1568/3/4
f 1569/3/4 1570/3/4 1578/3/4
f 1578/3/4 1570/3/4 1579/3/4
f 1571/25/4 1572/25/4 1581/25/4
f 1581/25/4 1572/25/4 1582/25/4
f 1573/6/4 1574/6/4 1583/6/4
f 1583/6/4 1574/6/4 1584/6/4
f 1575/4/4 1576/4/4 1585/4/4
f 1585/4/4 1576/4/4 1586/4/4
f 1577/2/4 1578/2/4 1587/2/4
f 1587/2/4 1578/2/4 1588/2/4
f 1588/2/4 1578/2/4 1589/2/4
f 1586/8/4 1587/8/4 1594/8/4
f 1594/8/4 1587/8/4 1595/8/4
f 1588/4/4 1589/4/4 1596/4/4
f 1596/4/4 1589/4/4 1597/4/4
f 1590/4/4 1591/4/4 1598/4/4
f 1598/4/4 1591/4/4 1599/4/4
f 1592/6/4 1593/6/4 1601/6/4
f 1601/6/4 1593/6/4 1602/6/4
f 1595/5/4 1596/5/4 1603/5/4
f 1603/5/4 1596/5/4 1604/5/4
f 1597/8/4 1598/8/4 1605/8/4
f 1605/8/4 1598/8/4 1606/8/4
f 1599/1/4 1600/1/4 1607/1/4
f 1607/1/4 1600/1/4 1608/1/4
f 1604/8/4 1605/8/4 1613/8/4
f 1613/8/4 1605/8/4 1614/8/4
f 1606/2/4 1607/2/4 1615/2/4
f 1615/2/4 1607/2/4 1616/2/4
f 1608/1/4 1609/1/4 1617/1/4
f 1609/2/4 1610/2/4 1618/2/4
f 1617/1/4 1609/1/4 1618/1/4
f 1618/2/4 1610/2/4 1619/2/4
f 1580/25/4 1581/25/4 1620/25/4
f 1620/25/4 1581/25/4 1621/25/4
f 1611/8/4 1612/8/4 1623/8/4
f 1623/8/4 1612/8/4 1624/8/4
f 1614/7/4 1615/7/4 1628/7/4
f 1628/7/4 1615/7/4 1629/7/4
f 1618/1/4 1619/1/4 1631/1/4
f 1631/1/4 1619/1/4 1632/1/4
f 1621/25/4 1622/25/4 1633/25/4
f 1633/25/4 1622/25/4 1634/25/4
f 1625/4/4 1626/4/4 1635/4/4
f 1626/6/4 1627/6/4 1636/6/4
f 1635/4/4 1626/4/4 1636/4/4
f 1636/6/4 1627/6/4 1637/6/4
f 1630/8/4 1631/8/4 1640/8/4
f 1640/8/4 1631/8/4 1641/8/4
f 1638/7/4 1639/7/4 1642/7/4
f 1642/7/4 1639/7/4 1643/7/4
f 1644/7/4 1645/7/4 1652/7/4
f 1652/7/4 1645/7/4 1653/7/4
f 1648/6/4 1649/6/4 1654/6/4
f 1654/6/4 1649/6/4 1655/6/4
f 1650/8/4 1651/8/4 1656/8/4
f 1656/8/4 1651/8/4 1657/8/4
f 1654/3/4 1655/3/4 1663/3/4
f 1663/3/4 1655/3/4 1664/3/4
f 1656/7/4 1657/7/4 1665/7/4
f 1657/6/4 1658/6/4 1666/6/4
f 1665/7/4 1657/7/4 1666/7/4
f 1666/6/4 1658/6/4 1667/6/4
f 1659/6/4 1660/6/4 1668/6/4
f 1668/6/4 1660/6/4 1669/6/4
f 1661/8/4 1662/8/4 1670/8/4
f 1670/8/4 1662/8/4 1671/8/4
f 1666/5/4 1667/5/4 1673/5/4
f 1665/5/4 1666/5/4 1673/5/4
f 1673/5/4 1667/5/4 1674/5/4
f 1667/4/4 1668/4/4 1675/4/4
f 1674/5/4 1667/5/4 1675/5/4
f 1675/4/4 1668/4/4 1676/4/4
f 1669/2/4 1670/2/4 1677/2/4
f 1677/2/4 1670/2/4 1678/2/4
f 1671/2/4 1672/2/4 1679/2/4
f 1679/2/4 1672/2/4 1680/2/4
f 1646/25/4 1647/25/4 1682/25/4
f 1682/25/4 1647/25/4 1683/25/4
f 1674/1/4 1675/1/4 1684/1/4
f 1675/3/4 1676/3/4 1685/3/4
f 1684/1/4 1675/1/4 1685/1/4
f 1676/2/4 1677/2/4 1686/2/4
f 1685/3/4 1676/3/4 1686/3/4
f 1686/2/4 1677/2/4 1687/2/4
f 1679/3/4 1680/3/4 1688/3/4
f 1680/7/4 1681/7/4 1689/7/4
f 1688/3/4 1680/3/4 1689/3/4
f 1689/7/4 1681/7/4 1690/7/4
f 1686/7/4 1687/7/4 1691/7/4
f 1691/7/4 1687/7/4 1692/7/4
f 1691/4/4 1692/4/4 1693/4/4
f 1693/4/4 1692/4/4 1694/4/4
f 1695/4/4 1696/4/4 1699/4/4
f 1699/4/4 1696/4/4 1700/4/4
f 1697/1/4 1698/1/4 1701/1/4
f 1701/1/4 1698/1/4 1702/1/4
f 1705/25/5 1704/25/5 1703/25/5
f 1706/25/5 1704/25/5 1705/25/5
f 1710/25/5 1708/25/5 1707/25/5
f 1711/25/5 1708/25/5 1710/25/5
f 1713/25/5 1710/25/5 1709/25/5
f 1714/25/5 1710/25/5 1713/25/5
f 1715/25/5 1712/25/5 1711/25/5
f 1716/25/5 1712/25/5 1715/25/5
f 1717/25/5 1715/25/5 1714/25/5
f 1718/25/5 1715/25/5 1717/25/5
f 1722/25/5 1720/25/5 1719/25/5
f 1723/25/5 1720/25/5 1722/25/5
f 1726/25/5 1722/25/5 1721/25/5
f 1727/25/5 1722/25/5 1726/25/5
f 1728/25/5 1724/25/5 1723/25/5
f 1729/25/5 1724/25/5 1728/25/5
f 1731/25/5 1726/25/5 1725/25/5
f 1732/25/5 1726/25/5 1731/25/5
f 1735/25/5 1730/25/5 1729/25/5
f 1736/25/5 1730/25/5 1735/25/5
f 1737/25/5 1733/25/5 1732/25/5
f 1738/25/5 1733/25/5 1737/25/5
f 1739/25/5 1735/25/5 1734/25/5
f 1740/25/5 1735/25/5 1739/25/5
f 1741/25/5 1739/25/5 1738/25/5
f 1742/25/5 1739/25/5 1741/25/5
f 1746/3/5 1744/3/5 1743/3/5
f 1747/8/5 1745/8/5 1744/8/5
f 1747/3/5 1744/3/5 1746/3/5
f 1748/8/5 1745/8/5 1747/8/5
f 1752/2/5 1749/2/5 1748/2/5
f 1754/3/5 1751/3/5 1750/3/5
f 1755/3/5 1751/3/5 1754/3/5
f 1757/2/5 1752/2/5 1748/2/5
f 1758/4/5 1753/4/5 1752/4/5
f 1758/2/5 1752/2/5 1757/2/5
f 1759/4/5 1753/4/5 1758/4/5
f 1760/6/5 1757/6/5 1756/6/5
f 1761/6/5 1757/6/5 1760/6/5
f 1764/7/5 1763/7/5 1762/7/5
f 1765/7/5 1763/7/5 1764/7/5
f 1770/8/5 1767/8/5 1766/8/5
f 1771/8/5 1767/8/5 1770/8/5
f 1774/5/5 1769/5/5 1768/5/5
f 1775/5/5 1769/5/5 1774/5/5
f 1776/2/5 1773/2/5 1772/2/5
f 1777/2/5 1773/2/5 1776/2/5
f 1781/2/5 1779/2/5 1778/2/5
f 1782/7/5 1780/7/5 1779/7/5
f 1782/2/5 1779/2/5 1781/2/5
f 1783/7/5 1780/7/5 1782/7/5
f 1786/3/5 1785/3/5 1784/3/5
f 1787/3/5 1785/3/5 1786/3/5
f 1794/2/5 1789/2/5 1788/2/5
f 1795/2/5 1789/2/5 1794/2/5
f 1796/5/5 1791/5/5 1790/5/5
f 1797/3/5 1793/3/5 1792/3/5
f 1797/5/5 1791/5/5 1796/5/5
f 1797/3/5 1792/3/5 1791/3/5
f 1798/3/5 1793/3/5 1797/3/5
f 1801/1/5 1800/1/5 1799/1/5
f 1802/1/5 1800/1/5 1801/1/5
f 1803/8/5 1802/8/5 1801/8/5
f 1804/8/5 1802/8/5 1803/8/5
f 1809/4/5 1805/4/5 1804/4/5
f 1810/4/5 1805/4/5 1809/4/5
f 1814/1/5 1807/1/5 1806/1/5
f 1815/1/5 1807/1/5 1814/1/5
f 1816/1/5 1809/1/5 1808/1/5
f 1817/1/5 1809/1/5 1816/1/5
f 1818/7/5 1811/7/5 1810/7/5
f 1819/7/5 1811/7/5 1818/7/5
f 1820/3/5 1813/3/5 1812/3/5
f 1821/3/5 1813/3/5 1820/3/5
f 1822/6/5 1817/6/5 1816/6/5
f 1823/8/5 1818/8/5 1817/8/5
f 1823/6/5 1817/6/5 1822/6/5
f 1824/8/5 1818/8/5 1823/8/5
f 1826/7/5 1821/7/5 1820/7/5
f 1827/7/5 1821/7/5 1826/7/5
f 1828/6/5 1824/6/5 1823/6/5
f 1829/3/5 1825/3/5 1824/3/5
f 1829/6/5 1824/6/5 1828/6/5
f 1830/3/5 1825/3/5 1829/3/5
f 1831/8/5 1827/8/5 1826/8/5
f 1832/8/5 1827/8/5 1831/8/5
f 1833/4/5 1832/4/5 1831/4/5
f 1834/4/5 1832/4/5 1833/4/5
f 1837/6/5 1836/6/5 1835/6/5
f 1838/6/5 1836/6/5 1837/6/5
f 1840/5/5 1839/5/5 1838/5/5
f 1841/5/5 1839/5/5 1840/5/5
f 1848/5/5 1843/5/5 1842/5/5
f 1849/5/5 1843/5/5 1848/5/5
f 1850/2/5 1845/2/5 1844/2/5
f 1851/2/5 1845/2/5 1850/2/5
f 1852/1/5 1847/1/5 1846/1/5
f 1853/1/5 1847/1/5 1852/1/5
f 1854/6/5 1850/6/5 1849/6/5
f 1855/6/5 1850/6/5 1854/6/5
f 1858/4/5 1857/4/5 1856/4/5
f 1859/4/5 1857/4/5 1858/4/5
f 1862/6/5 1860/6/5 1859/6/5
f 1863/4/5 1861/4/5 1860/4/5
f 1863/6/5 1860/6/5 1862/6/5
f 1864/4/5 1861/4/5 1863/4/5
f 1868/7/5 1864/7/5 1863/7/5
f 1869/7/5 1864/7/5 1868/7/5
f 1872/1/5 1866/1/5 1865/1/5
f 1873/3/5 1867/3/5 1866/3/5
f 1873/1/5 1866/1/5 1872/1/5
f 1874/3/5 1867/3/5 1873/3/5
f 1876/4/5 1871/4/5 1870/4/5
f 1877/4/5 1871/4/5 1876/4/5
f 1881/8/5 1876/8/5 1875/8/5
f 1882/8/5 1876/8/5 1881/8/5
f 1883/4/5 1879/4/5 1878/4/5
f 1884/6/5 1880/6/5 1879/6/5
f 1884/4/5 1879/4/5 1883/4/5
f 1885/6/5 1880/6/5 1884/6/5
f 1889/8/5 1885/8/5 1884/8/5
f 1890/7/5 1886/7/5 1885/7/5
f 1890/8/5 1885/8/5 1889/8/5
f 1891/5/5 1887/5/5 1886/5/5
f 1891/7/5 1886/7/5 1890/7/5
f 1892/1/5 1888/1/5 1887/1/5
f 1892/5/5 1887/5/5 1891/5/5
f 1893/1/5 1888/1/5 1892/1/5
f 1894/1/5 1888/1/5 1893/1/5
f 1897/6/5 1896/6/5 1895/6/5
f 1898/6/5 1896/6/5 1897/6/5
f 1904/4/5 1900/4/5 1899/4/5
f 1905/4/5 1900/4/5 1904/4/5
f 1906/5/5 1902/5/5 1901/5/5
f 1907/8/5 1903/8/5 1902/8/5
f 1907/5/5 1902/5/5 1906/5/5
f 1908/8/5 1903/8/5 1907/8/5
f 1914/4/5 1909/4/5 1908/4/5
f 1915/4/5 1909/4/5 1914/4/5
f 1916/6/5 1911/6/5 1910/6/5
f 1917/6/5 1911/6/5 1916/6/5
f 1920/8/5 1913/8/5 1912/8/5
f 1921/8/5 1913/8/5 1920/8/5
f 1922/7/5 1915/7/5 1914/7/5
f 1923/7/5 1915/7/5 1922/7/5
f 1926/2/5 1919/2/5 1918/2/5
f 1927/2/5 1919/2/5 1926/2/5
f 1929/1/5 1925/1/5 1924/1/5
f 1930/5/5 1926/5/5 1925/5/5
f 1930/1/5 1925/1/5 1929/1/5
f 1931/5/5 1926/5/5 1930/5/5
f 1932/8/5 1928/8/5 1927/8/5
f 1933/8/5 1928/8/5 1932/8/5
f 1937/2/5 1934/2/5 1933/2/5
f 1938/2/5 1934/2/5 1937/2/5
f 1939/4/5 1936/4/5 1935/4/5
f 1940/4/5 1936/4/5 1939/4/5
f 1943/8/5 1942/8/5 1941/8/5
f 1944/8/5 1942/8/5 1943/8/5
f 1945/7/5 1944/7/5 1943/7/5
f 1946/7/5 1944/7/5 1945/7/5
f 1950/1/5 1946/1/5 1945/1/5
f 1951/6/5 1947/6/5 1946/6/5
f 1951/1/5 1946/1/5 1950/1/5
f 1952/6/5 1947/6/5 1951/6/5
f 1953/7/5 1949/7/5 1948/7/5
f 1954/7/5 1949/7/5 1953/7/5
f 1958/2/5 1956/2/5 1955/2/5
f 1959/3/5 1957/3/5 1956/3/5
f 1959/2/5 1956/2/5 1958/2/5
f 1960/3/5 1957/3/5 1959/3/5
f 1965/2/5 1962/2/5 1961/2/5
f 1966/2/5 1962/2/5 1965/2/5
f 1967/3/5 1964/3/5 1963/3/5
f 1968/3/5 1964/3/5 1967/3/5
f 1974/6/5 1970/6/5 1969/6/5
f 1975/5/5 1971/5/5 1970/5/5
f 1975/6/5 1970/6/5 1974/6/5
f 1976/5/5 1971/5/5 1975/5/5
f 1977/2/5 1973/2/5 1972/2/5
f 1978/2/5 1973/2/5 1977/2/5
f 1979/2/5 1976/2/5 1975/2/5
f 1980/2/5 1976/2/5 1979/2/5
f 1985/4/5 1982/4/5 1981/4/5
f 1986/4/5 1982/4/5 1985/4/5
f 1991/7/5 1984/7/5 1983/7/5
f 1992/7/5 1984/7/5 1991/7/5
f 1994/6/5 1987/6/5 1986/6/5
f 1995/7/5 1988/7/5 1987/7/5
f 1995/6/5 1987/6/5 1994/6/5
f 1996/7/5 1988/7/5 1995/7/5
f 1997/7/5 1990/7/5 1989/7/5
f 1998/7/5 1990/7/5 1997/7/5
f 1999/4/5 1994/4/5 1993/4/5
f 2000/4/5 1994/4/5 1999/4/5
f 2005/6/5 2001/6/5 2000/6/5
f 2006/6/5 2001/6/5 2005/6/5
f 2007/7/5 2003/7/5 2002/7/5
f 2008/4/5 2004/4/5 2003/4/5
f 2008/7/5 2003/7/5 2007/7/5
f 2009/4/5 2004/4/5 2008/4/5
f 2012/4/5 2011/4/5 2010/4/5
f 2013/4/5 2011/4/5 2012/4/5
f 2016/2/5 2013/2/5 2012/2/5
f 2017/2/5 2013/2/5 2016/2/5
f 2021/4/5 2015/4/5 2014/4/5
f 2022/4/5 2015/4/5 2021/4/5
f 2025/1/5 2019/1/5 2018/1/5
f 2026/4/5 2020/4/5 2019/4/5
f 2026/1/5 2019/1/5 2025/1/5
f 2027/7/5 2021/7/5 2020/7/5
f 2027/4/5 2020/4/5 2026/4/5
f 2028/7/5 2021/7/5 2027/7/5
f 2031/7/5 2024/7/5 2023/7/5
f 2032/7/5 2024/7/5 2031/7/5
f 2035/8/5 2030/8/5 2029/8/5
f 2036/8/5 2030/8/5 2035/8/5
f 2037/8/5 2032/8/5 2031/8/5
f 2038/8/5 2032/8/5 2037/8/5
f 2039/3/5 2034/3/5 2033/3/5
f 2040/3/5 2034/3/5 2039/3/5
f 2043/7/5 2036/7/5 2035/7/5
f 2044/7/5 2036/7/5 2043/7/5
f 2045/7/5 2038/7/5 2037/7/5
f 2046/7/5 2038/7/5 2045/7/5
f 2047/7/5 2041/7/5 2040/7/5
f 2048/7/5 2041/7/5 2047/7/5
f 2049/2/5 2043/2/5 2042/2/5
f 2050/2/5 2043/2/5 2049/2/5
f 2053/5/5 2052/5/5 2051/5/5
f 2054/5/5 2052/5/5 2053/5/5
f 2056/6/5 2054/6/5 2053/6/5
f 2057/1/5 2055/1/5 2054/1/5
f 2057/6/5 2054/6/5 2056/6/5
f 2058/1/5 2055/1/5 2057/1/5
f 2060/5/5 2059/5/5 2058/5/5
f 2061/5/5 2059/5/5 2060/5/5
f 2062/2/5 2061/2/5 2060/2/5
f 2063/2/5 2061/2/5 2062/2/5
f 2066/4/5 2065/4/5 2064/4/5
f 2067/4/5 2065/4/5 2066/4/5
f 2070/5/5 2068/5/5 2067/5/5
f 2071/5/5 2068/5/5 2070/5/5
f 2072/4/5 2070/4/5 2069/4/5
f 2073/4/5 2070/4/5 2072/4/5
f 2075/8/5 2074/8/5 2073/8/5
f 2076/8/5 2074/8/5 2075/8/5
f 2079/4/5 2078/4/5 2077/4/5
f 2080/4/5 2078/4/5 2079/4/5
f 2083/5/5 2082/5/5 2081/5/5
f 2084/5/5 2082/5/5 2083/5/5
f 2089/1/5 2086/1/5 2085/1/5
f 2090/1/5 2086/1/5 2089/1/5
f 2093/3/5 2088/3/5 2087/3/5
f 2094/3/5 2088/3/5 2093/3/5
f 2096/6/5 2091/6/5 2090/6/5
f 2097/3/5 2092/3/5 2091/3/5
f 2097/6/5 2091/6/5 2096/6/5
f 2098/3/5 2092/3/5 2097/3/5
f 2100/2/5 2096/2/5 2095/2/5
f 2101/2/5 2096/2/5 2100/2/5
f 2102/2/5 2100/2/5 2099/2/5
f 2103/3/5 2101/3/5 2100/3/5
f 2103/2/5 2100/2/5 2102/2/5
f 2104/3/5 2101/3/5 2103/3/5
f 2108/6/5 2106/6/5 2105/6/5
f 2109/1/5 2107/1/5 2106/1/5
f 2109/6/5 2106/6/5 2108/6/5
f 2110/1/5 2107/1/5 2109/1/5
f 2113/4/5 2112/4/5 2111/4/5
f 2114/4/5 2112/4/5 2113/4/5
f 2117/8/5 2116/8/5 2115/8/5
f 2118/8/5 2116/8/5 2117/8/5
f 2121/4/5 2120/4/5 2119/4/5
f 2122/4/5 2120/4/5 2121/4/5
f 2125/2/5 2124/2/5 2123/2/5
f 2126/2/5 2124/2/5 2125/2/5
f 2129/6/5 2128/6/5 2127/6/5
f 2130/6/5 2128/6/5 2129/6/5
f 2131/7/5 2130/7/5 2129/7/5
f 2132/7/5 2130/7/5 2131/7/5
f 2133/25/6 2134/25/6 2136/25/6
f 2136/25/6 2134/25/6 2137/25/6
f 2137/25/6 2134/25/6 2138/25/6
f 2138/25/6 2134/25/6 2139/25/6
f 2139/25/6 2134/25/6 2140/25/6
f 2135/25/6 2136/25/6 2143/25/6
f 2136/10/6 2137/10/6 2144/10/6
f 2143/25/6 2136/25/6 2144/25/6
f 2137/14/6 2138/14/6 2145/14/6
f 2144/10/6 2137/10/6 2145/10/6
f 2138/13/6 2139/13/6 2146/13/6
f 2145/14/6 2138/14/6 2146/14/6
f 2139/16/6 2140/16/6 2147/16/6
f 2146/13/6 2139/13/6 2147/13/6
f 2140/25/6 2141/25/6 2148/25/6
f 2147/16/6 2140/16/6 2148/16/6
f 2148/25/6 2141/25/6 2149/25/6
f 2142/25/6 2143/25/6 2151/25/6
f 2143/15/6 2144/15/6 2151/15/6
f 2144/15/6 2145/15/6 2151/15/6
f 2151/15/6 2145/15/6 2152/15/6
f 2145/10/6 2146/10/6 2153/10/6
f 2152/15/6 2145/15/6 2153/15/6
f 2146/16/6 2147/16/6 2154/16/6
f 2153/10/6 2146/10/6 2154/10/6
f 2147/16/6 2148/16/6 2154/16/6
f 2154/16/6 2148/16/6 2155/16/6
f 2148/11/6 2149/11/6 2156/11/6
f 2155/16/6 2148/16/6 2156/16/6
f 2149/25/6 2150/25/6 2157/25/6
f 2156/11/6 2149/11/6 2157/11/6
f 2142/25/6 2151/25/6 2158/25/6
f 2151/16/6 2152/16/6 2158/16/6
f 2152/10/6 2153/10/6 2159/10/6
f 2158/16/6 2152/16/6 2159/16/6
f 2159/10/6 2153/10/6 2160/10/6
f 2155/11/6 2156/11/6 2161/11/6
f 2156/13/6 2157/13/6 2162/13/6
f 2161/11/6 2156/11/6 2162/11/6
f 2157/25/6 2150/25/6 2163/25/6
f 2162/13/6 2157/13/6 2163/13/6
f 2142/25/6 2158/25/6 2164/25/6
f 2158/13/6 2159/13/6 2164/13/6
f 2159/12/6 2160/12/6 2165/12/6
f 2164/13/6 2159/13/6 2165/13/6
f 2165/12/6 2160/12/6 2166/12/6
f 2161/9/6 2162/9/6 2168/9/6
f 2162/16/6 2163/16/6 2169/16/6
f 2168/9/6 2162/9/6 2169/9/6
f 2163/25/6 2150/25/6 2170/25/6
f 2169/16/6 2163/16/6 2170/16/6
f 2142/25/6 2164/25/6 2171/25/6
f 2164/10/6 2165/10/6 2172/10/6
f 2171/25/6 2164/25/6 2172/25/6
f 2165/14/6 2166/14/6 2173/14/6
f 2172/10/6 2165/10/6 2173/10/6
f 2166/12/6 2167/12/6 2174/12/6
f 2173/14/6 2166/14/6 2174/14/6
f 2167/12/6 2168/12/6 2174/12/6
f 2174/12/6 2168/12/6 2175/12/6
f 2168/14/6 2169/14/6 2176/14/6
f 2175/12/6 2168/12/6 2176/12/6
f 2169/9/6 2170/9/6 2177/9/6
f 2176/14/6 2169/14/6 2177/14/6
f 2170/25/6 2150/25/6 2178/25/6
f 2177/9/6 2170/9/6 2178/9/6
f 2178/25/6 2150/25/6 2179/25/6
f 2172/25/6 2173/25/6 2180/25/6
f 2174/14/6 2175/14/6 2181/14/6
f 2180/25/6 2173/25/6 2181/25/6
f 2173/14/6 2174/14/6 2181/14/6
f 2175/12/6 2176/12/6 2182/12/6
f 2181/14/6 2175/14/6 2182/14/6
f 2176/13/6 2177/13/6 2183/13/6
f 2182/12/6 2176/12/6 2183/12/6
f 2177/25/6 2178/25/6 2184/25/6
f 2183/13/6 2177/13/6 2184/13/6
f 2184/25/6 2178/25/6 2185/25/6
f 2181/25/6 2182/25/6 2186/25/6
f 2183/25/6 2184/25/6 2186/25/6
f 2182/25/6 2183/25/6 2186/25/6
f 2186/25/6 2184/25/6 2187/25/6
f 2188/6/6 2189/6/6 2190/6/6
f 2190/6/6 2189/6/6 2191/6/6
f 2192/5/6 2193/5/6 2196/5/6
f 2196/5/6 2193/5/6 2197/5/6
f 2194/5/6 2195/5/6 2199/5/6
f 2199/5/6 2195/5/6 2200/5/6
f 2197/2/6 2198/2/6 2201/2/6
f 2201/2/6 2198/2/6 2202/2/6
f 2203/2/6 2204/2/6 2205/2/6
f 2205/2/6 2204/2/6 2206/2/6
f 2207/5/6 2208/5/6 2209/5/6
f 2209/5/6 2208/5/6 2210/5/6
f 2211/5/6 2212/5/6 2213/5/6
f 2213/5/6 2212/5/6 2214/5/6
f 2215/2/6 2216/2/6 2220/2/6
f 2220/2/6 2216/2/6 2221/2/6
f 2218/3/6 2219/3/6 2222/3/6
f 2217/3/6 2218/3/6 2222/3/6
f 2222/3/6 2219/3/6 2223/3/6
f 2224/6/6 2225/6/6 2226/6/6
f 2226/6/6 2225/6/6 2227/6/6
f 2228/6/6 2229/6/6 2231/6/6
f 2229/8/6 2230/8/6 2232/8/6
f 2231/6/6 2229/6/6 2232/6/6
f 2232/8/6 2230/8/6 2233/8/6
f 2232/6/6 2233/6/6 2237/6/6
f 2233/3/6 2234/3/6 2238/3/6
f 2237/6/6 2233/6/6 2238/6/6
f 2238/3/6 2234/3/6 2239/3/6
f 2235/8/6 2236/8/6 2240/8/6
f 2240/8/6 2236/8/6 2241/8/6
f 2240/4/6 2241/4/6 2242/4/6
f 2242/4/6 2241/4/6 2243/4/6
f 2244/6/6 2245/6/6 2246/6/6
f 2246/6/6 2245/6/6 2247/6/6
f 2247/5/6 2248/5/6 2249/5/6
f 2249/5/6 2248/5/6 2250/5/6
f 2251/3/6 2252/3/6 2255/3/6
f 2255/3/6 2252/3/6 2256/3/6
f 2253/7/6 2254/7/6 2258/7/6
f 2258/7/6 2254/7/6 2259/7/6
f 2257/2/6 2258/2/6 2261/2/6
f 2261/2/6 2258/2/6 2262/2/6
f 2259/8/6 2260/8/6 2263/8/6
f 2263/8/6 2260/8/6 2264/8/6
f 2265/4/6 2266/4/6 2269/4/6
f 2269/4/6 2266/4/6 2270/4/6
f 2267/7/6 2268/7/6 2271/7/6
f 2271/7/6 2268/7/6 2272/7/6
f 2273/8/6 2274/8/6 2278/8/6
f 2274/2/6 2275/2/6 2279/2/6
f 2278/8/6 2274/8/6 2279/8/6
f 2275/4/6 2276/4/6 2280/4/6
f 2279/2/6 2275/2/6 2280/2/6
f 2280/4/6 2276/4/6 2281/4/6
f 2277/5/6 2278/5/6 2285/5/6
f 2285/5/6 2278/5/6 2286/5/6
f 2281/3/6 2282/3/6 2288/3/6
f 2288/3/6 2282/3/6 2289/3/6
f 2283/4/6 2284/4/6 2290/4/6
f 2290/4/6 2284/4/6 2291/4/6
f 2286/6/6 2287/6/6 2293/6/6
f 2293/6/6 2287/6/6 2294/6/6
f 2291/8/6 2292/8/6 2295/8/6
f 2295/8/6 2292/8/6 2296/8/6
f 2297/1/6 2298/1/6 2299/1/6
f 2299/1/6 2298/1/6 2300/1/6
f 2301/6/6 2302/6/6 2303/6/6
f 2303/6/6 2302/6/6 2304/6/6
f 2305/4/6 2306/4/6 2307/4/6
f 2307/4/6 2306/4/6 2308/4/6
f 2307/1/6 2308/1/6 2311/1/6
f 2311/1/6 2308/1/6 2312/1/6
f 2309/4/6 2310/4/6 2313/4/6
f 2313/4/6 2310/4/6 2314/4/6
f 2313/7/6 2314/7/6 2319/7/6
f 2319/7/6 2314/7/6 2320/7/6
f 2315/3/6 2316/3/6 2322/3/6
f 2316/5/6 2317/5/6 2323/5/6
f 2322/3/6 2316/3/6 2323/3/6
f 2317/2/6 2318/2/6 2324/2/6
f 2323/5/6 2317/5/6 2324/5/6
f 2324/2/6 2318/2/6 2325/2/6
f 2320/6/6 2321/6/6 2329/6/6
f 2329/6/6 2321/6/6 2330/6/6
f 2322/1/6 2323/1/6 2331/1/6
f 2331/1/6 2323/1/6 2332/1/6
f 2325/8/6 2326/8/6 2334/8/6
f 2334/8/6 2326/8/6 2335/8/6
f 2327/5/6 2328/5/6 2336/5/6
f 2328/7/6 2329/7/6 2337/7/6
f 2336/5/6 2328/5/6 2337/5/6
f 2337/7/6 2329/7/6 2338/7/6
f 2333/8/6 2334/8/6 2339/8/6
f 2339/8/6 2334/8/6 2340/8/6
f 2340/6/6 2341/6/6 2342/6/6
f 2342/6/6 2341/6/6 2343/6/6
f 2344/8/6 2345/8/6 2348/8/6
f 2348/8/6 2345/8/6 2349/8/6
f 2346/2/6 2347/2/6 2350/2/6
f 2350/2/6 2347/2/6 2351/2/6
f 2350/5/6 2351/5/6 2354/5/6
f 2351/5/6 2352/5/6 2354/5/6
f 2354/5/6 2352/5/6 2355/5/6
f 2352/3/6 2353/3/6 2356/3/6
f 2355/5/6 2352/5/6 2356/5/6
f 2356/3/6 2353/3/6 2357/3/6
f 2355/4/6 2356/4/6 2360/4/6
f 2356/5/6 2357/5/6 2361/5/6
f 2360/4/6 2356/4/6 2361/4/6
f 2361/5/6 2357/5/6 2362/5/6
f 2358/3/6 2359/3/6 2363/3/6
f 2363/3/6 2359/3/6 2364/3/6
f 2361/2/6 2362/2/6 2365/2/6
f 2365/2/6 2362/2/6 2366/2/6
f 2366/3/6 2367/3/6 2370/3/6
f 2370/3/6 2367/3/6 2371/3/6
f 2368/5/6 2369/5/6 2372/5/6
f 2372/5/6 2369/5/6 2373/5/6
f 2372/3/6 2373/3/6 2375/3/6
f 2375/3/6 2373/3/6 2376/3/6
f 2374/4/6 2375/4/6 2377/4/6
f 2377/4/6 2375/4/6 2378/4/6
f 2379/7/6 2380/7/6 2383/7/6
f 2380/6/6 2381/6/6 2384/6/6
f 2383/7/6 2380/7/6 2384/7/6
f 2384/6/6 2381/6/6 2385/6/6
f 2382/2/6 2383/2/6 2386/2/6
f 2383/4/6 2384/4/6 2387/4/6
f 2386/2/6 2383/2/6 2387/2/6
f 2387/4/6 2384/4/6 2388/4/6
f 2386/7/6 2387/7/6 2389/7/6
f 2389/7/6 2387/7/6 2390/7/6
f 2391/4/6 2392/4/6 2395/4/6
f 2395/4/6 2392/4/6 2396/4/6
f 2393/7/6 2394/7/6 2398/7/6
f 2398/7/6 2394/7/6 2399/7/6
f 2396/6/6 2397/6/6 2401/6/6
f 2401/6/6 2397/6/6 2402/6/6
f 2400/4/6 2401/4/6 2405/4/6
f 2405/4/6 2401/4/6 2406/4/6
f 2403/1/6 2404/1/6 2409/1/6
f 2409/1/6 2404/1/6 2410/1/6
f 2406/6/6 2407/6/6 2412/6/6
f 2412/6/6 2407/6/6 2413/6/6
f 2408/2/6 2409/2/6 2414/2/6
f 2409/7/6 2410/7/6 2415/7/6
f 2414/2/6 2409/2/6 2415/2/6
f 2410/4/6 2411/4/6 2416/4/6
f 2415/7/6 2410/7/6 2416/7/6
f 2416/4/6 2411/4/6 2417/4/6
f 2418/7/6 2419/7/6 2420/7/6
f 2420/7/6 2419/7/6 2421/7/6
f 2422/2/6 2423/2/6 2426/2/6
f 2426/2/6 2423/2/6 2427/2/6
f 2424/1/6 2425/1/6 2430/1/6
f 2430/1/6 2425/1/6 2431/1/6
f 2428/7/6 2429/7/6 2435/7/6
f 2435/7/6 2429/7/6 2436/7/6
f 2432/1/6 2433/1/6 2438/1/6
f 2438/1/6 2433/1/6 2439/1/6
f 2434/5/6 2435/5/6 2441/5/6
f 2435/8/6 2436/8/6 2442/8/6
f 2441/5/6 2435/5/6 2442/5/6
f 2442/8/6 2436/8/6 2443/8/6
f 2437/3/6 2438/3/6 2444/3/6
f 2438/2/6 2439/2/6 2445/2/6
f 2444/3/6 2438/3/6 2445/3/6
f 2445/2/6 2439/2/6 2446/2/6
f 2440/7/6 2441/7/6 2448/7/6
f 2448/7/6 2441/7/6 2449/7/6
f 2442/7/6 2443/7/6 2450/7/6
f 2450/7/6 2443/7/6 2451/7/6
f 2445/7/6 2446/7/6 2452/7/6
f 2452/7/6 2446/7/6 2453/7/6
f 2447/2/6 2448/2/6 2454/2/6
f 2454/2/6 2448/2/6 2455/2/6
f 2456/1/6 2457/1/6 2458/1/6
f 2458/1/6 2457/1/6 2459/1/6
f 2460/7/6 2461/7/6 2462/7/6
f 2462/7/6 2461/7/6 2463/7/6
f 2464/4/6 2465/4/6 2466/4/6
f 2466/4/6 2465/4/6 2467/4/6
f 2467/8/6 2468/8/6 2469/8/6
f 2469/8/6 2468/8/6 2470/8/6
f 2471/2/6 2472/2/6 2473/2/6
f 2473/2/6 2472/2/6 2474/2/6
f 2475/4/6 2476/4/6 2478/4/6
f 2478/4/6 2476/4/6 2479/4/6
f 2477/3/6 2478/3/6 2482/3/6
f 2478/5/6 2479/5/6 2483/5/6
f 2482/3/6 2478/3/6 2483/3/6
f 2483/5/6 2479/5/6 2484/5/6
f 2480/5/6 2481/5/6 2485/5/6
f 2485/5/6 2481/5/6 2486/5/6
f 2487/4/6 2488/4/6 2489/4/6
f 2489/4/6 2488/4/6 2490/4/6
f 2489/3/6 2490/3/6 2492/3/6
f 2490/4/6 2491/4/6 2493/4/6
f 2492/3/6 2490/3/6 2493/3/6
f 2493/4/6 2491/4/6 2494/4/6
f 2494/1/6 2495/1/6 2496/1/6
f 2496/1/6 2495/1/6 2497/1/6
f 2497/2/6 2498/2/6 2499/2/6
f 2499/2/6 2498/2/6 2500/2/6
f 2501/2/6 2502/2/6 2505/2/6
f 2505/2/6 2502/2/6 2506/2/6
f 2503/6/6 2504/6/6 2507/6/6
f 2504/1/6 2505/1/6 2508/1/6
f 2507/6/6 2504/6/6 2508/6/6
f 2508/1/6 2505/1/6 2509/1/6
f 2510/8/6 2511/8/6 2512/8/6
f 2512/8/6 2511/8/6 2513/8/6
f 2513/8/6 2511/8/6 2514/8/6
f 2513/2/6 2514/2/6 2517/2/6
f 2517/2/6 2514/2/6 2518/2/6
f 2515/4/6 2516/4/6 2521/4/6
f 2521/4/6 2516/4/6 2522/4/6
f 2518/1/6 2519/1/6 2523/1/6
f 2519/4/6 2520/4/6 2524/4/6
f 2523/1/6 2519/1/6 2524/1/6
f 2524/4/6 2520/4/6 2525/4/6
f 2521/2/6 2522/2/6 2527/2/6
f 2527/2/6 2522/2/6 2528/2/6
f 2526/8/6 2527/8/6 2530/8/6
f 2530/8/6 2527/8/6 2531/8/6
f 2529/7/6 2530/7/6 2532/7/6
f 2532/7/6 2530/7/6 2533/7/6
f 2534/4/6 2535/4/6 2539/4/6
f 2539/4/6 2535/4/6 2540/4/6
f 2536/2/6 2537/2/6 2541/2/6
f 2537/3/6 2538/3/6 2542/3/6
f 2541/2/6 2537/2/6 2542/2/6
f 2538/6/6 2539/6/6 2543/6/6
f 2542/3/6 2538/3/6 2543/3/6
f 2539/3/6 2540/3/6 2544/3/6
f 2543/6/6 2539/6/6 2544/6/6
f 2544/3/6 2540/3/6 2545/3/6
f 2542/17/6 2543/17/6 2546/17/6
f 2543/7/6 2544/7/6 2547/7/6
f 2546/17/6 2543/17/6 2547/17/6
f 2544/2/6 2545/2/6 2548/2/6
f 2547/7/6 2544/7/6 2548/7/6
f 2548/2/6 2545/2/6 2549/2/6
f 2546/18/6 2547/18/6 2550/18/6
f 2547/8/6 2548/8/6 2551/8/6
f 2550/18/6 2547/18/6 2551/18/6
f 2548/7/6 2549/7/6 2552/7/6
f 2551/8/6 2548/8/6 2552/8/6
f 2552/7/6 2549/7/6 2553/7/6
f 2551/1/6 2552/1/6 2555/1/6
f 2552/6/6 2553/6/6 2556/6/6
f 2555/1/6 2552/1/6 2556/1/6
f 2556/6/6 2553/6/6 2557/6/6
f 2554/2/6 2555/2/6 2558/2/6
f 2555/1/6 2556/1/6 2559/1/6
f 2558/2/6 2555/2/6 2559/2/6
f 2559/1/6 2556/1/6 2560/1/6
f 2561/6/6 2562/6/6 2564/6/6
f 2562/3/6 2563/3/6 2565/3/6
f 2564/6/6 2562/6/6 2565/6/6
f 2565/3/6 2563/3/6 2566/3/6
f 2564/7/6 2565/7/6 2567/7/6
f 2565/2/6 2566/2/6 2568/2/6
f 2567/7/6 2565/7/6 2568/7/6
f 2568/2/6 2566/2/6 2569/2/6
