# MagicaVoxel @ Ephtracy

# group
o 

# material
mtllib fish.mtl
usemtl palette

# normals
vn -1 0 0
vn 1 0 0
vn 0 0 1
vn 0 0 -1
vn 0 -1 0
vn 0 1 0

# texcoords
vt 0.123047 0.5
vt 0.126953 0.5
vt 0.130859 0.5
vt 0.279297 0.5
vt 0.841797 0.5
vt 0.958984 0.5
vt 0.990234 0.5

# verts
v 0 2.2 -1
v 0 2.2 -1.1
v 0 2.7 -1
v 0 2.7 -1.1
v 0 3 -1
v 0 3 -1.1
v 0.3 3.2 -1
v 0.3 3.2 -1.1
v 0.3 3.3 -1
v 0.3 3.3 -1.1
v 0.4 2.4 -0.9
v 0.4 2.4 -1
v 0.4 2.4 -1.1
v 0.4 2.4 -1.2
v 0.4 2.5 -0.9
v 0.4 2.5 -1
v 0.4 2.8 -0.9
v 0.4 2.8 -1
v 0.4 2.8 -1.1
v 0.4 2.8 -1.2
v 0.4 3.1 -1
v 0.4 3.1 -1.1
v 0.4 3.2 -1
v 0.4 3.2 -1.1
v 0.5 2.3 -0.9
v 0.5 2.3 -1.2
v 0.5 2.4 -0.9
v 0.5 2.4 -1
v 0.5 2.4 -1.2
v 0.5 2.8 -0.9
v 0.5 2.8 -1.2
v 0.5 2.9 -0.9
v 0.5 2.9 -1.2
v 0.5 3 -1
v 0.5 3 -1.1
v 0.5 3.1 -1
v 0.5 3.1 -1.1
v 0.6 2 -1
v 0.6 2 -1.1
v 0.6 2.1 -1
v 0.6 2.1 -1.1
v 0.7 2.1 -1
v 0.7 2.1 -1.1
v 0.7 2.2 -1
v 0.7 2.2 -1.1
v 0.7 2.9 -0.9
v 0.7 2.9 -1.2
v 0.7 3 -0.9
v 0.7 3 -1
v 0.7 3 -1.1
v 0.7 3 -1.2
v 0.8 2.2 -1
v 0.8 2.2 -1.1
v 0.8 2.3 -1
v 0.8 2.3 -1.1
v 0.9 3 -0.9
v 0.9 3 -1
v 0.9 3 -1.1
v 0.9 3 -1.2
v 0.9 3.1 -0.9
v 0.9 3.1 -1
v 0.9 3.1 -1.1
v 0.9 3.1 -1.2
v 1.2 2.4 -0.6
v 1.2 2.4 -0.9
v 1.2 2.4 -1.2
v 1.2 2.4 -1.4
v 1.2 2.5 -0.6
v 1.2 2.5 -0.9
v 1.2 2.5 -1.2
v 1.2 2.5 -1.4
v 1.3 2.3 -0.7
v 1.3 2.3 -0.9
v 1.3 2.3 -1.2
v 1.3 2.3 -1.3
v 1.3 2.4 -0.7
v 1.3 2.4 -0.9
v 1.3 2.4 -1.2
v 1.3 2.4 -1.3
v 1.3 3.2 -1
v 1.3 3.2 -1.1
v 1.3 3.3 -1
v 1.3 3.3 -1.1
v 1.4 3.1 -1
v 1.4 3.1 -1.1
v 1.4 3.2 -1
v 1.4 3.2 -1.1
v 1.5 2 -1
v 1.5 2 -1.1
v 1.5 2.1 -1
v 1.5 2.1 -1.1
v 1.5 2.2 -0.9
v 1.5 2.2 -1
v 1.5 2.2 -1.1
v 1.5 2.2 -1.2
v 1.5 2.3 -0.9
v 1.5 2.3 -1
v 1.5 2.3 -1.1
v 1.5 2.3 -1.2
v 1.6 2.1 -1
v 1.6 2.1 -1.1
v 1.6 2.2 -1
v 1.6 2.2 -1.1
v 1.9 2.6 -0.8
v 1.9 2.6 -0.9
v 1.9 2.6 -1.2
v 1.9 2.6 -1.3
v 1.9 2.7 -1.2
v 1.9 2.8 -0.8
v 1.9 2.8 -0.9
v 1.9 2.8 -1.2
v 1.9 2.8 -1.3
v 0.2 2.2 -1
v 0.2 2.2 -1.1
v 0.2 2.3 -1
v 0.2 2.3 -1.1
v 0.2 2.9 -1
v 0.2 2.9 -1.1
v 0.2 3 -1
v 0.2 3 -1.1
v 0.3 2.3 -1
v 0.3 2.3 -1.1
v 0.3 2.4 -1
v 0.3 2.4 -1.1
v 0.3 2.8 -1
v 0.3 2.8 -1.1
v 0.3 2.9 -1
v 0.3 2.9 -1.1
v 0.8 3.2 -1
v 0.8 3.2 -1.1
v 0.8 3.3 -1
v 0.8 3.3 -1.1
v 0.9 3.1 -1
v 0.9 3.1 -1.1
v 0.9 3.2 -1
v 0.9 3.2 -1.1
v 1.1 2 -1
v 1.1 2 -1.1
v 1.1 2.1 -1
v 1.1 2.1 -1.1
v 1.2 2.1 -1
v 1.2 2.1 -1.1
v 1.2 2.2 -1
v 1.2 2.2 -1.1
v 1.3 2.2 -1
v 1.3 2.2 -1.1
v 1.3 2.3 -1
v 1.3 2.3 -1.1
v 1.5 2.4 -0.6
v 1.5 2.4 -0.7
v 1.5 2.4 -0.9
v 1.5 2.4 -1.2
v 1.5 2.4 -1.3
v 1.5 2.4 -1.4
v 1.5 2.5 -0.6
v 1.5 2.5 -0.9
v 1.5 2.5 -1.2
v 1.5 2.5 -1.4
v 1.6 2.3 -0.7
v 1.6 2.3 -0.9
v 1.6 2.3 -1.2
v 1.6 2.3 -1.3
v 1.6 2.4 -0.7
v 1.6 2.4 -0.9
v 1.6 2.4 -1.2
v 1.6 2.4 -1.3
v 1.7 3.2 -1
v 1.7 3.2 -1.1
v 1.7 3.3 -1
v 1.7 3.3 -1.1
v 1.8 2 -1
v 1.8 2 -1.1
v 1.8 2.1 -1
v 1.8 2.1 -1.1
v 1.8 2.2 -0.9
v 1.8 2.2 -1
v 1.8 2.2 -1.1
v 1.8 2.2 -1.2
v 1.8 2.3 -0.9
v 1.8 2.3 -1
v 1.8 2.3 -1.1
v 1.8 2.3 -1.2
v 1.8 3.1 -1
v 1.8 3.1 -1.1
v 1.8 3.2 -1
v 1.8 3.2 -1.1
v 1.9 2.1 -1
v 1.9 2.1 -1.1
v 1.9 2.2 -1
v 1.9 2.2 -1.1
v 1.9 2.3 -1
v 1.9 2.3 -1.1
v 1.9 3 -0.9
v 1.9 3 -1.2
v 1.9 3.1 -0.9
v 1.9 3.1 -1.2
v 2.1 2.6 -0.8
v 2.1 2.6 -0.9
v 2.1 2.6 -1.2
v 2.1 2.6 -1.3
v 2.1 2.7 -0.8
v 2.1 2.7 -0.9
v 2.1 2.7 -1.2
v 2.1 2.7 -1.3
v 2.1 2.8 -0.8
v 2.1 2.8 -0.9
v 2.1 2.8 -1.2
v 2.1 2.8 -1.3
v 2.1 2.9 -0.9
v 2.1 2.9 -1
v 2.1 2.9 -1.2
v 2.1 3 -0.9
v 2.1 3 -1
v 2.1 3 -1.2
v 2.2 2.3 -0.9
v 2.2 2.3 -1
v 2.2 2.3 -1.2
v 2.2 2.4 -0.9
v 2.2 2.4 -1
v 2.2 2.4 -1.2
v 2.2 2.5 -1
v 2.2 2.5 -1.1
v 2.2 2.6 -1
v 2.2 2.6 -1.1
v 2.2 2.7 -0.9
v 2.2 2.7 -1.2
v 2.2 2.8 -0.9
v 2.2 2.8 -1.2
v 2.2 2.9 -0.9
v 2.2 2.9 -1.2
v 2.3 2.4 -0.9
v 2.3 2.4 -1.2
v 2.3 2.5 -1
v 2.3 2.5 -1.1
v 2.3 2.6 -1
v 2.3 2.6 -1.1
v 2.3 2.7 -0.9
v 2.3 2.7 -1.2
v 1.2 2.4 -0.6
v 1.2 2.5 -0.6
v 1.5 2.4 -0.6
v 1.5 2.5 -0.6
v 1.3 2.3 -0.7
v 1.3 2.4 -0.7
v 1.5 2.4 -0.7
v 1.6 2.3 -0.7
v 1.6 2.4 -0.7
v 1.9 2.6 -0.8
v 1.9 2.8 -0.8
v 2 2.6 -0.8
v 2 2.7 -0.8
v 2.1 2.6 -0.8
v 2.1 2.7 -0.8
v 2.1 2.8 -0.8
v 0.4 2.4 -0.9
v 0.4 2.5 -0.9
v 0.4 2.8 -0.9
v 0.5 2.3 -0.9
v 0.5 2.4 -0.9
v 0.5 2.5 -0.9
v 0.5 2.8 -0.9
v 0.5 2.9 -0.9
v 0.6 2.5 -0.9
v 0.6 2.8 -0.9
v 0.7 2.7 -0.9
v 0.7 2.8 -0.9
v 0.7 2.9 -0.9
v 0.7 3 -0.9
v 0.8 2.5 -0.9
v 0.8 2.7 -0.9
v 0.9 2.5 -0.9
v 0.9 2.7 -0.9
v 0.9 2.8 -0.9
v 0.9 2.9 -0.9
v 0.9 3 -0.9
v 0.9 3.1 -0.9
v 1 2.8 -0.9
v 1 2.9 -0.9
v 1.1 2.6 -0.9
v 1.1 2.7 -0.9
v 1.1 2.8 -0.9
v 1.1 3 -0.9
v 1.1 3.1 -0.9
v 1.2 2.4 -0.9
v 1.2 2.5 -0.9
v 1.3 2.3 -0.9
v 1.3 2.4 -0.9
v 1.3 3 -0.9
v 1.3 3.1 -0.9
v 1.4 2.8 -0.9
v 1.4 2.9 -0.9
v 1.5 2.2 -0.9
v 1.5 2.3 -0.9
v 1.5 2.4 -0.9
v 1.5 2.5 -0.9
v 1.5 2.6 -0.9
v 1.5 2.7 -0.9
v 1.5 2.9 -0.9
v 1.5 3 -0.9
v 1.6 2.3 -0.9
v 1.6 2.4 -0.9
v 1.6 2.8 -0.9
v 1.6 3 -0.9
v 1.8 2.2 -0.9
v 1.8 2.3 -0.9
v 1.9 2.4 -0.9
v 1.9 2.5 -0.9
v 1.9 2.6 -0.9
v 1.9 2.8 -0.9
v 1.9 3 -0.9
v 1.9 3.1 -0.9
v 2 2.6 -0.9
v 2 2.9 -0.9
v 2 3 -0.9
v 2.1 2.3 -0.9
v 2.1 2.4 -0.9
v 2.1 2.5 -0.9
v 2.1 2.6 -0.9
v 2.1 2.7 -0.9
v 2.1 2.8 -0.9
v 2.1 2.9 -0.9
v 2.1 3 -0.9
v 2.2 2.3 -0.9
v 2.2 2.4 -0.9
v 2.2 2.7 -0.9
v 2.2 2.8 -0.9
v 2.2 2.9 -0.9
v 2.3 2.4 -0.9
v 2.3 2.7 -0.9
v 0 2.2 -1
v 0 2.7 -1
v 0 3 -1
v 0.1 2.5 -1
v 0.1 2.7 -1
v 0.1 2.8 -1
v 0.2 2.2 -1
v 0.2 2.3 -1
v 0.2 2.6 -1
v 0.2 2.7 -1
v 0.2 2.8 -1
v 0.2 2.9 -1
v 0.2 3 -1
v 0.3 2.3 -1
v 0.3 2.4 -1
v 0.3 2.5 -1
v 0.3 2.6 -1
v 0.3 2.8 -1
v 0.3 2.9 -1
v 0.3 3.2 -1
v 0.3 3.3 -1
v 0.4 2.4 -1
v 0.4 2.5 -1
v 0.4 2.8 -1
v 0.4 3.1 -1
v 0.4 3.2 -1
v 0.5 3 -1
v 0.5 3.1 -1
v 0.6 2 -1
v 0.6 2.1 -1
v 0.6 3 -1
v 0.6 3.1 -1
v 0.7 2.1 -1
v 0.7 2.2 -1
v 0.7 3 -1
v 0.7 3.1 -1
v 0.8 2.2 -1
v 0.8 2.3 -1
v 0.8 3 -1
v 0.8 3.1 -1
v 0.8 3.2 -1
v 0.8 3.3 -1
v 0.9 2 -1
v 0.9 2.2 -1
v 0.9 3 -1
v 0.9 3.1 -1
v 0.9 3.2 -1
v 1 2.2 -1
v 1 2.3 -1
v 1.1 2 -1
v 1.1 2.1 -1
v 1.2 2.1 -1
v 1.2 2.2 -1
v 1.2 2.3 -1
v 1.3 2.2 -1
v 1.3 2.3 -1
v 1.3 3.2 -1
v 1.3 3.3 -1
v 1.4 3.1 -1
v 1.4 3.2 -1
v 1.5 2 -1
v 1.5 2.1 -1
v 1.5 3.1 -1
v 1.5 3.2 -1
v 1.6 2.1 -1
v 1.6 2.2 -1
v 1.6 3.1 -1
v 1.6 3.2 -1
v 1.6 3.3 -1
v 1.7 2 -1
v 1.7 2.1 -1
v 1.7 3.2 -1
v 1.7 3.3 -1
v 1.8 2 -1
v 1.8 2.1 -1
v 1.8 2.2 -1
v 1.8 2.3 -1
v 1.8 3.1 -1
v 1.8 3.2 -1
v 1.9 2.1 -1
v 1.9 2.2 -1
v 1.9 2.3 -1
v 2.2 2.5 -1.1
v 2.2 2.6 -1.1
v 2.3 2.5 -1.1
v 2.3 2.6 -1.1
v 2.2 2.5 -1
v 2.2 2.6 -1
v 2.3 2.5 -1
v 2.3 2.6 -1
v 0 2.2 -1.1
v 0 2.7 -1.1
v 0 3 -1.1
v 0.1 2.5 -1.1
v 0.1 2.7 -1.1
v 0.1 2.8 -1.1
v 0.2 2.2 -1.1
v 0.2 2.3 -1.1
v 0.2 2.6 -1.1
v 0.2 2.7 -1.1
v 0.2 2.8 -1.1
v 0.2 2.9 -1.1
v 0.2 3 -1.1
v 0.3 2.3 -1.1
v 0.3 2.4 -1.1
v 0.3 2.5 -1.1
v 0.3 2.6 -1.1
v 0.3 2.8 -1.1
v 0.3 2.9 -1.1
v 0.3 3.2 -1.1
v 0.3 3.3 -1.1
v 0.4 2.4 -1.1
v 0.4 2.8 -1.1
v 0.4 3.1 -1.1
v 0.4 3.2 -1.1
v 0.5 3 -1.1
v 0.5 3.1 -1.1
v 0.6 2 -1.1
v 0.6 2.1 -1.1
v 0.6 3 -1.1
v 0.6 3.1 -1.1
v 0.7 2.1 -1.1
v 0.7 2.2 -1.1
v 0.7 3 -1.1
v 0.7 3.1 -1.1
v 0.8 2.2 -1.1
v 0.8 2.3 -1.1
v 0.8 3 -1.1
v 0.8 3.1 -1.1
v 0.8 3.2 -1.1
v 0.8 3.3 -1.1
v 0.9 2 -1.1
v 0.9 2.2 -1.1
v 0.9 3 -1.1
v 0.9 3.1 -1.1
v 0.9 3.2 -1.1
v 1 2.2 -1.1
v 1 2.3 -1.1
v 1.1 2 -1.1
v 1.1 2.1 -1.1
v 1.2 2.1 -1.1
v 1.2 2.2 -1.1
v 1.2 2.3 -1.1
v 1.3 2.2 -1.1
v 1.3 2.3 -1.1
v 1.3 3.2 -1.1
v 1.3 3.3 -1.1
v 1.4 3.1 -1.1
v 1.4 3.2 -1.1
v 1.5 2 -1.1
v 1.5 2.1 -1.1
v 1.5 3.1 -1.1
v 1.5 3.2 -1.1
v 1.6 2.1 -1.1
v 1.6 2.2 -1.1
v 1.6 3.1 -1.1
v 1.6 3.2 -1.1
v 1.6 3.3 -1.1
v 1.7 2 -1.1
v 1.7 2.1 -1.1
v 1.7 3.1 -1.1
v 1.7 3.2 -1.1
v 1.7 3.3 -1.1
v 1.8 2 -1.1
v 1.8 2.1 -1.1
v 1.8 2.2 -1.1
v 1.8 2.3 -1.1
v 1.8 3.1 -1.1
v 1.8 3.2 -1.1
v 1.9 2.1 -1.1
v 1.9 2.2 -1.1
v 1.9 2.3 -1.1
v 0.4 2.4 -1.2
v 0.4 2.8 -1.2
v 0.5 2.3 -1.2
v 0.5 2.4 -1.2
v 0.5 2.8 -1.2
v 0.5 2.9 -1.2
v 0.6 2.5 -1.2
v 0.6 2.8 -1.2
v 0.7 2.3 -1.2
v 0.7 2.5 -1.2
v 0.7 2.6 -1.2
v 0.7 2.8 -1.2
v 0.7 2.9 -1.2
v 0.7 3 -1.2
v 0.8 2.3 -1.2
v 0.8 2.6 -1.2
v 0.9 2.6 -1.2
v 0.9 2.7 -1.2
v 0.9 2.8 -1.2
v 0.9 3 -1.2
v 0.9 3.1 -1.2
v 1 2.7 -1.2
v 1 2.8 -1.2
v 1 3.1 -1.2
v 1.1 2.7 -1.2
v 1.1 2.8 -1.2
v 1.1 2.9 -1.2
v 1.2 2.4 -1.2
v 1.2 2.5 -1.2
v 1.2 2.6 -1.2
v 1.2 2.7 -1.2
v 1.2 2.9 -1.2
v 1.2 3 -1.2
v 1.3 2.3 -1.2
v 1.3 2.4 -1.2
v 1.3 2.5 -1.2
v 1.3 2.8 -1.2
v 1.3 3 -1.2
v 1.4 2.5 -1.2
v 1.4 2.6 -1.2
v 1.4 2.9 -1.2
v 1.5 2.2 -1.2
v 1.5 2.3 -1.2
v 1.5 2.4 -1.2
v 1.5 2.5 -1.2
v 1.5 2.6 -1.2
v 1.5 2.8 -1.2
v 1.5 2.9 -1.2
v 1.5 3.1 -1.2
v 1.6 2.3 -1.2
v 1.6 2.4 -1.2
v 1.6 2.8 -1.2
v 1.6 2.9 -1.2
v 1.7 2.6 -1.2
v 1.7 2.8 -1.2
v 1.7 2.9 -1.2
v 1.7 3.1 -1.2
v 1.8 2.2 -1.2
v 1.8 2.3 -1.2
v 1.8 2.6 -1.2
v 1.8 2.7 -1.2
v 1.8 2.8 -1.2
v 1.9 2.5 -1.2
v 1.9 2.6 -1.2
v 1.9 2.7 -1.2
v 1.9 2.8 -1.2
v 1.9 3 -1.2
v 1.9 3.1 -1.2
v 2 2.3 -1.2
v 2 2.5 -1.2
v 2 2.6 -1.2
v 2.1 2.6 -1.2
v 2.1 2.7 -1.2
v 2.1 2.8 -1.2
v 2.1 2.9 -1.2
v 2.1 3 -1.2
v 2.2 2.3 -1.2
v 2.2 2.4 -1.2
v 2.2 2.7 -1.2
v 2.2 2.8 -1.2
v 2.2 2.9 -1.2
v 2.3 2.4 -1.2
v 2.3 2.7 -1.2
v 1.3 2.3 -1.3
v 1.3 2.4 -1.3
v 1.4 2.3 -1.3
v 1.4 2.4 -1.3
v 1.5 2.4 -1.3
v 1.6 2.3 -1.3
v 1.6 2.4 -1.3
v 1.9 2.6 -1.3
v 1.9 2.8 -1.3
v 2 2.6 -1.3
v 2 2.7 -1.3
v 2.1 2.6 -1.3
v 2.1 2.7 -1.3
v 2.1 2.8 -1.3
v 1.2 2.4 -1.4
v 1.2 2.5 -1.4
v 1.5 2.4 -1.4
v 1.5 2.5 -1.4
v 0.6 2 -1
v 0.9 2 -1
v 1.1 2 -1
v 1.5 2 -1
v 1.7 2 -1
v 1.8 2 -1
v 0.6 2 -1.1
v 0.9 2 -1.1
v 1.1 2 -1.1
v 1.5 2 -1.1
v 1.7 2 -1.1
v 1.8 2 -1.1
v 1.1 2.1 -1
v 1.2 2.1 -1
v 1.8 2.1 -1
v 1.9 2.1 -1
v 1.1 2.1 -1.1
v 1.2 2.1 -1.1
v 1.8 2.1 -1.1
v 1.9 2.1 -1.1
v 1.5 2.2 -0.9
v 1.8 2.2 -0.9
v 0 2.2 -1
v 0.2 2.2 -1
v 1.2 2.2 -1
v 1.3 2.2 -1
v 1.5 2.2 -1
v 1.6 2.2 -1
v 1.8 2.2 -1
v 0 2.2 -1.1
v 0.2 2.2 -1.1
v 1.2 2.2 -1.1
v 1.3 2.2 -1.1
v 1.5 2.2 -1.1
v 1.6 2.2 -1.1
v 1.8 2.2 -1.1
v 1.5 2.2 -1.2
v 1.8 2.2 -1.2
v 1.3 2.3 -0.7
v 1.6 2.3 -0.7
v 0.5 2.3 -0.9
v 1.3 2.3 -0.9
v 1.5 2.3 -0.9
v 1.6 2.3 -0.9
v 1.8 2.3 -0.9
v 2.1 2.3 -0.9
v 2.2 2.3 -0.9
v 0.2 2.3 -1
v 0.3 2.3 -1
v 0.8 2.3 -1
v 1 2.3 -1
v 1.2 2.3 -1
v 1.3 2.3 -1
v 1.5 2.3 -1
v 1.8 2.3 -1
v 1.9 2.3 -1
v 2.1 2.3 -1
v 2.2 2.3 -1
v 0.2 2.3 -1.1
v 0.3 2.3 -1.1
v 0.7 2.3 -1.1
v 0.8 2.3 -1.1
v 1 2.3 -1.1
v 1.2 2.3 -1.1
v 1.3 2.3 -1.1
v 1.5 2.3 -1.1
v 1.8 2.3 -1.1
v 1.9 2.3 -1.1
v 2 2.3 -1.1
v 0.5 2.3 -1.2
v 0.7 2.3 -1.2
v 0.8 2.3 -1.2
v 1.3 2.3 -1.2
v 1.4 2.3 -1.2
v 1.5 2.3 -1.2
v 1.6 2.3 -1.2
v 1.8 2.3 -1.2
v 2 2.3 -1.2
v 2.2 2.3 -1.2
v 1.3 2.3 -1.3
v 1.4 2.3 -1.3
v 1.6 2.3 -1.3
v 1.2 2.4 -0.6
v 1.5 2.4 -0.6
v 1.3 2.4 -0.7
v 1.5 2.4 -0.7
v 0.4 2.4 -0.9
v 0.5 2.4 -0.9
v 1.2 2.4 -0.9
v 1.3 2.4 -0.9
v 2.2 2.4 -0.9
v 2.3 2.4 -0.9
v 0.3 2.4 -1
v 0.4 2.4 -1
v 0.5 2.4 -1
v 2.2 2.4 -1
v 0.3 2.4 -1.1
v 0.4 2.4 -1.1
v 0.4 2.4 -1.2
v 0.5 2.4 -1.2
v 1.2 2.4 -1.2
v 1.3 2.4 -1.2
v 2.2 2.4 -1.2
v 2.3 2.4 -1.2
v 1.3 2.4 -1.3
v 1.4 2.4 -1.3
v 1.5 2.4 -1.3
v 1.2 2.4 -1.4
v 1.5 2.4 -1.4
v 1.9 2.6 -0.8
v 2 2.6 -0.8
v 2.1 2.6 -0.8
v 1.9 2.6 -0.9
v 2 2.6 -0.9
v 2.1 2.6 -0.9
v 2.2 2.6 -1
v 2.3 2.6 -1
v 2.2 2.6 -1.1
v 2.3 2.6 -1.1
v 1.9 2.6 -1.2
v 2 2.6 -1.2
v 2.1 2.6 -1.2
v 1.9 2.6 -1.3
v 2 2.6 -1.3
v 2.1 2.6 -1.3
v 0.5 3 -1
v 0.6 3 -1
v 0.7 3 -1
v 0.5 3 -1.1
v 0.6 3 -1.1
v 0.7 3 -1.1
v 0.4 3.1 -1
v 0.5 3.1 -1
v 0.4 3.1 -1.1
v 0.5 3.1 -1.1
v 0.3 3.2 -1
v 0.4 3.2 -1
v 1.3 3.2 -1
v 1.4 3.2 -1
v 0.3 3.2 -1.1
v 0.4 3.2 -1.1
v 1.3 3.2 -1.1
v 1.4 3.2 -1.1
v 0.6 2.1 -1
v 0.7 2.1 -1
v 1.5 2.1 -1
v 1.6 2.1 -1
v 0.6 2.1 -1.1
v 0.7 2.1 -1.1
v 1.5 2.1 -1.1
v 1.6 2.1 -1.1
v 0.7 2.2 -1
v 0.8 2.2 -1
v 0.7 2.2 -1.1
v 0.8 2.2 -1.1
v 1.5 2.4 -0.7
v 1.6 2.4 -0.7
v 1.5 2.4 -0.9
v 1.6 2.4 -0.9
v 1.5 2.4 -1.2
v 1.6 2.4 -1.2
v 1.5 2.4 -1.3
v 1.6 2.4 -1.3
v 1.2 2.5 -0.6
v 1.5 2.5 -0.6
v 1.2 2.5 -0.9
v 1.5 2.5 -0.9
v 2.2 2.5 -1
v 2.3 2.5 -1
v 2.2 2.5 -1.1
v 2.3 2.5 -1.1
v 1.2 2.5 -1.2
v 1.3 2.5 -1.2
v 1.4 2.5 -1.2
v 1.5 2.5 -1.2
v 1.3 2.5 -1.3
v 1.4 2.5 -1.3
v 1.2 2.5 -1.4
v 1.5 2.5 -1.4
v 2.2 2.7 -0.9
v 2.3 2.7 -0.9
v 2.2 2.7 -1.2
v 2.3 2.7 -1.2
v 1.9 2.8 -0.8
v 2.1 2.8 -0.8
v 0.4 2.8 -0.9
v 0.5 2.8 -0.9
v 1.9 2.8 -0.9
v 2.1 2.8 -0.9
v 0.3 2.8 -1
v 0.4 2.8 -1
v 0.3 2.8 -1.1
v 0.4 2.8 -1.1
v 0.4 2.8 -1.2
v 0.5 2.8 -1.2
v 1.9 2.8 -1.2
v 2.1 2.8 -1.2
v 1.9 2.8 -1.3
v 2.1 2.8 -1.3
v 0.5 2.9 -0.9
v 0.7 2.9 -0.9
v 2.1 2.9 -0.9
v 2.2 2.9 -0.9
v 0.2 2.9 -1
v 0.3 2.9 -1
v 2.1 2.9 -1
v 0.2 2.9 -1.1
v 0.3 2.9 -1.1
v 0.5 2.9 -1.2
v 0.7 2.9 -1.2
v 2.1 2.9 -1.2
v 2.2 2.9 -1.2
v 0.7 3 -0.9
v 0.9 3 -0.9
v 1.9 3 -0.9
v 2 3 -0.9
v 2.1 3 -0.9
v 0 3 -1
v 0.2 3 -1
v 0.7 3 -1
v 0.8 3 -1
v 0.9 3 -1
v 2 3 -1
v 2.1 3 -1
v 0 3 -1.1
v 0.2 3 -1.1
v 0.7 3 -1.1
v 0.8 3 -1.1
v 0.9 3 -1.1
v 0.7 3 -1.2
v 0.9 3 -1.2
v 1.9 3 -1.2
v 2.1 3 -1.2
v 0.9 3.1 -0.9
v 1.1 3.1 -0.9
v 1.3 3.1 -0.9
v 1.9 3.1 -0.9
v 0.9 3.1 -1
v 1.1 3.1 -1
v 1.3 3.1 -1
v 1.4 3.1 -1
v 1.5 3.1 -1
v 1.6 3.1 -1
v 1.8 3.1 -1
v 0.9 3.1 -1.1
v 1 3.1 -1.1
v 1.4 3.1 -1.1
v 1.5 3.1 -1.1
v 1.6 3.1 -1.1
v 1.7 3.1 -1.1
v 1.8 3.1 -1.1
v 0.9 3.1 -1.2
v 1 3.1 -1.2
v 1.5 3.1 -1.2
v 1.7 3.1 -1.2
v 1.9 3.1 -1.2
v 0.8 3.2 -1
v 0.9 3.2 -1
v 1.7 3.2 -1
v 1.8 3.2 -1
v 0.8 3.2 -1.1
v 0.9 3.2 -1.1
v 1.7 3.2 -1.1
v 1.8 3.2 -1.1
v 0.3 3.3 -1
v 0.8 3.3 -1
v 1.3 3.3 -1
v 1.6 3.3 -1
v 1.7 3.3 -1
v 0.3 3.3 -1.1
v 0.8 3.3 -1.1
v 1.3 3.3 -1.1
v 1.6 3.3 -1.1
v 1.7 3.3 -1.1

# faces
f 3/4/1 2/4/1 1/4/1
f 4/4/1 2/4/1 3/4/1
f 5/5/1 4/5/1 3/5/1
f 6/5/1 4/5/1 5/5/1
f 9/3/1 8/3/1 7/3/1
f 10/3/1 8/3/1 9/3/1
f 15/4/1 12/4/1 11/4/1
f 16/4/1 12/4/1 15/4/1
f 17/5/1 16/5/1 15/5/1
f 18/5/1 16/5/1 17/5/1
f 19/5/1 14/5/1 13/5/1
f 20/5/1 14/5/1 19/5/1
f 23/3/1 22/3/1 21/3/1
f 24/3/1 22/3/1 23/3/1
f 27/5/1 26/5/1 25/5/1
f 28/5/1 26/5/1 27/5/1
f 29/5/1 26/5/1 28/5/1
f 32/5/1 31/5/1 30/5/1
f 33/5/1 31/5/1 32/5/1
f 36/3/1 35/3/1 34/3/1
f 37/3/1 35/3/1 36/3/1
f 40/2/1 39/2/1 38/2/1
f 41/2/1 39/2/1 40/2/1
f 44/2/1 43/2/1 42/2/1
f 45/2/1 43/2/1 44/2/1
f 48/5/1 47/5/1 46/5/1
f 49/5/1 47/5/1 48/5/1
f 50/5/1 47/5/1 49/5/1
f 51/5/1 47/5/1 50/5/1
f 54/2/1 53/2/1 52/2/1
f 55/2/1 53/2/1 54/2/1
f 60/5/1 57/5/1 56/5/1
f 61/5/1 57/5/1 60/5/1
f 62/4/1 59/4/1 58/4/1
f 63/4/1 59/4/1 62/4/1
f 68/1/1 65/1/1 64/1/1
f 69/1/1 65/1/1 68/1/1
f 70/2/1 67/2/1 66/2/1
f 71/2/1 67/2/1 70/2/1
f 76/1/1 73/1/1 72/1/1
f 77/1/1 73/1/1 76/1/1
f 78/1/1 75/1/1 74/1/1
f 79/1/1 75/1/1 78/1/1
f 82/3/1 81/3/1 80/3/1
f 83/3/1 81/3/1 82/3/1
f 86/3/1 85/3/1 84/3/1
f 87/3/1 85/3/1 86/3/1
f 90/2/1 89/2/1 88/2/1
f 91/2/1 89/2/1 90/2/1
f 96/5/1 93/5/1 92/5/1
f 97/1/1 94/1/1 93/1/1
f 97/5/1 93/5/1 96/5/1
f 98/5/1 95/5/1 94/5/1
f 98/1/1 94/1/1 97/1/1
f 99/5/1 95/5/1 98/5/1
f 102/2/1 101/2/1 100/2/1
f 103/2/1 101/2/1 102/2/1
f 108/6/1 107/6/1 106/6/1
f 109/6/1 105/6/1 104/6/1
f 110/6/1 105/6/1 109/6/1
f 111/6/1 107/6/1 108/6/1
f 112/6/1 107/6/1 111/6/1
f 113/4/2 114/4/2 115/4/2
f 115/4/2 114/4/2 116/4/2
f 117/5/2 118/5/2 119/5/2
f 119/5/2 118/5/2 120/5/2
f 121/4/2 122/4/2 123/4/2
f 123/4/2 122/4/2 124/4/2
f 125/4/2 126/4/2 127/4/2
f 127/4/2 126/4/2 128/4/2
f 129/3/2 130/3/2 131/3/2
f 131/3/2 130/3/2 132/3/2
f 133/3/2 134/3/2 135/3/2
f 135/3/2 134/3/2 136/3/2
f 137/1/2 138/1/2 139/1/2
f 139/1/2 138/1/2 140/1/2
f 141/1/2 142/1/2 143/1/2
f 143/1/2 142/1/2 144/1/2
f 145/2/2 146/2/2 147/2/2
f 147/2/2 146/2/2 148/2/2
f 149/1/2 150/1/2 155/1/2
f 150/1/2 151/1/2 155/1/2
f 155/1/2 151/1/2 156/1/2
f 153/2/2 154/2/2 157/2/2
f 152/2/2 153/2/2 157/2/2
f 157/2/2 154/2/2 158/2/2
f 159/1/2 160/1/2 163/1/2
f 163/1/2 160/1/2 164/1/2
f 161/2/2 162/2/2 165/2/2
f 165/2/2 162/2/2 166/2/2
f 167/1/2 168/1/2 169/1/2
f 169/1/2 168/1/2 170/1/2
f 171/1/2 172/1/2 173/1/2
f 173/1/2 172/1/2 174/1/2
f 175/5/2 176/5/2 179/5/2
f 179/5/2 176/5/2 180/5/2
f 177/5/2 178/5/2 181/5/2
f 181/5/2 178/5/2 182/5/2
f 183/3/2 184/3/2 185/3/2
f 185/3/2 184/3/2 186/3/2
f 187/1/2 188/1/2 189/1/2
f 189/1/2 188/1/2 190/1/2
f 189/2/2 190/2/2 191/2/2
f 191/2/2 190/2/2 192/2/2
f 193/5/2 194/5/2 195/5/2
f 195/5/2 194/5/2 196/5/2
f 197/7/2 198/7/2 201/7/2
f 201/7/2 198/7/2 202/7/2
f 199/7/2 200/7/2 203/7/2
f 203/7/2 200/7/2 204/7/2
f 201/6/2 202/6/2 205/6/2
f 205/6/2 202/6/2 206/6/2
f 203/6/2 204/6/2 207/6/2
f 207/6/2 204/6/2 208/6/2
f 209/4/2 210/4/2 212/4/2
f 210/5/2 211/5/2 213/5/2
f 212/4/2 210/4/2 213/4/2
f 213/5/2 211/5/2 214/5/2
f 215/4/2 216/4/2 218/4/2
f 216/5/2 217/5/2 219/5/2
f 218/4/2 216/4/2 219/4/2
f 219/5/2 217/5/2 220/5/2
f 221/5/2 222/5/2 223/5/2
f 223/5/2 222/5/2 224/5/2
f 225/5/2 226/5/2 227/5/2
f 227/5/2 226/5/2 228/5/2
f 227/4/2 228/4/2 229/4/2
f 229/4/2 228/4/2 230/4/2
f 231/1/2 232/1/2 233/1/2
f 233/1/2 232/1/2 234/1/2
f 231/1/2 233/1/2 235/1/2
f 234/1/2 232/1/2 236/1/2
f 231/1/2 235/1/2 237/1/2
f 235/1/2 236/1/2 237/1/2
f 236/1/2 232/1/2 238/1/2
f 237/1/2 236/1/2 238/1/2
f 241/1/3 240/1/3 239/1/3
f 242/1/3 240/1/3 241/1/3
f 245/1/3 244/1/3 243/1/3
f 246/1/3 245/1/3 243/1/3
f 247/1/3 245/1/3 246/1/3
f 250/6/3 249/6/3 248/6/3
f 251/6/3 249/6/3 250/6/3
f 252/7/3 251/7/3 250/7/3
f 253/6/3 249/6/3 251/6/3
f 253/7/3 251/7/3 252/7/3
f 254/6/3 249/6/3 253/6/3
f 259/4/3 256/4/3 255/4/3
f 260/5/3 257/5/3 256/5/3
f 260/4/3 256/4/3 259/4/3
f 261/5/3 257/5/3 260/5/3
f 263/5/3 259/5/3 258/5/3
f 263/5/3 260/5/3 259/5/3
f 263/4/3 261/4/3 260/4/3
f 264/5/3 262/5/3 261/5/3
f 264/4/3 261/4/3 263/4/3
f 265/5/3 264/5/3 263/5/3
f 266/5/3 262/5/3 264/5/3
f 266/5/3 264/5/3 265/5/3
f 267/5/3 262/5/3 266/5/3
f 269/5/3 263/5/3 258/5/3
f 269/5/3 265/5/3 263/5/3
f 270/4/3 266/4/3 265/4/3
f 270/5/3 265/5/3 269/5/3
f 271/5/3 269/5/3 258/5/3
f 271/4/3 270/4/3 269/4/3
f 272/4/3 266/4/3 270/4/3
f 272/4/3 270/4/3 271/4/3
f 273/5/3 268/5/3 267/5/3
f 273/4/3 266/4/3 272/4/3
f 273/5/3 267/5/3 266/5/3
f 274/5/3 268/5/3 273/5/3
f 275/5/3 268/5/3 274/5/3
f 277/4/3 273/4/3 272/4/3
f 277/4/3 274/4/3 273/4/3
f 278/5/3 276/5/3 275/5/3
f 278/4/3 274/4/3 277/4/3
f 278/5/3 275/5/3 274/5/3
f 279/5/3 272/5/3 271/5/3
f 280/4/3 277/4/3 272/4/3
f 280/5/3 272/5/3 279/5/3
f 281/5/3 278/5/3 277/5/3
f 281/4/3 277/4/3 280/4/3
f 282/5/3 276/5/3 278/5/3
f 282/5/3 278/5/3 281/5/3
f 283/5/3 276/5/3 282/5/3
f 284/5/3 271/5/3 258/5/3
f 284/5/3 279/5/3 271/5/3
f 285/5/3 279/5/3 284/5/3
f 286/5/3 284/5/3 258/5/3
f 287/5/3 284/5/3 286/5/3
f 288/5/3 281/5/3 280/5/3
f 288/4/3 283/4/3 282/4/3
f 288/5/3 282/5/3 281/5/3
f 289/4/3 283/4/3 288/4/3
f 290/5/3 288/5/3 280/5/3
f 290/5/3 289/5/3 288/5/3
f 291/5/3 289/5/3 290/5/3
f 295/5/3 279/5/3 285/5/3
f 296/4/3 280/4/3 279/4/3
f 296/5/3 279/5/3 295/5/3
f 297/5/3 290/5/3 280/5/3
f 297/4/3 280/4/3 296/4/3
f 298/4/3 291/4/3 290/4/3
f 298/5/3 289/5/3 291/5/3
f 299/5/3 289/5/3 298/5/3
f 300/5/3 293/5/3 292/5/3
f 301/5/3 295/5/3 294/5/3
f 301/5/3 296/5/3 295/5/3
f 301/5/3 297/5/3 296/5/3
f 302/4/3 299/4/3 298/4/3
f 302/5/3 290/5/3 297/5/3
f 302/5/3 297/5/3 301/5/3
f 302/4/3 298/4/3 290/4/3
f 303/5/3 289/5/3 299/5/3
f 303/4/3 299/4/3 302/4/3
f 304/5/3 300/5/3 292/5/3
f 304/5/3 302/5/3 301/5/3
f 304/5/3 303/5/3 302/5/3
f 304/5/3 301/5/3 300/5/3
f 305/5/3 303/5/3 304/5/3
f 306/5/3 303/5/3 305/5/3
f 307/5/3 303/5/3 306/5/3
f 308/5/3 303/5/3 307/5/3
f 309/5/3 303/5/3 308/5/3
f 310/5/3 289/5/3 303/5/3
f 310/5/3 303/5/3 309/5/3
f 311/5/3 289/5/3 310/5/3
f 312/5/3 308/5/3 307/5/3
f 313/5/3 310/5/3 309/5/3
f 314/5/3 310/5/3 313/5/3
f 315/5/3 306/5/3 305/5/3
f 316/4/3 307/4/3 306/4/3
f 316/5/3 306/5/3 315/5/3
f 317/5/3 312/5/3 307/5/3
f 317/4/3 307/4/3 316/4/3
f 318/5/3 312/5/3 317/5/3
f 320/5/3 313/5/3 309/5/3
f 321/4/3 314/4/3 313/4/3
f 321/5/3 313/5/3 320/5/3
f 322/4/3 314/4/3 321/4/3
f 323/4/3 316/4/3 315/4/3
f 324/5/3 319/5/3 318/5/3
f 324/4/3 316/4/3 323/4/3
f 324/5/3 320/5/3 319/5/3
f 324/5/3 317/5/3 316/5/3
f 324/5/3 318/5/3 317/5/3
f 325/5/3 320/5/3 324/5/3
f 326/4/3 321/4/3 320/4/3
f 326/5/3 320/5/3 325/5/3
f 327/4/3 321/4/3 326/4/3
f 328/1/3 325/1/3 324/1/3
f 329/1/3 325/1/3 328/1/3
f 333/4/3 331/4/3 330/4/3
f 334/5/3 332/5/3 331/5/3
f 334/4/3 331/4/3 333/4/3
f 335/5/3 332/5/3 334/5/3
f 336/4/3 333/4/3 330/4/3
f 337/4/3 333/4/3 336/4/3
f 338/5/3 334/5/3 333/5/3
f 339/4/3 335/4/3 334/4/3
f 339/5/3 334/5/3 338/5/3
f 340/5/3 332/5/3 335/5/3
f 340/4/3 335/4/3 339/4/3
f 341/5/3 332/5/3 340/5/3
f 342/5/3 332/5/3 341/5/3
f 343/4/3 333/4/3 337/4/3
f 344/4/3 333/4/3 343/4/3
f 345/5/3 338/5/3 333/5/3
f 345/4/3 333/4/3 344/4/3
f 346/4/3 339/4/3 338/4/3
f 346/5/3 338/5/3 345/5/3
f 346/4/3 341/4/3 340/4/3
f 346/4/3 340/4/3 339/4/3
f 347/4/3 341/4/3 346/4/3
f 348/4/3 341/4/3 347/4/3
f 351/4/3 345/4/3 344/4/3
f 351/4/3 347/4/3 346/4/3
f 351/4/3 346/4/3 345/4/3
f 352/4/3 347/4/3 351/4/3
f 353/4/3 347/4/3 352/4/3
f 355/3/3 350/3/3 349/3/3
f 357/3/3 355/3/3 354/3/3
f 360/3/3 357/3/3 356/3/3
f 361/3/3 355/3/3 357/3/3
f 361/3/3 357/3/3 360/3/3
f 362/2/3 359/2/3 358/2/3
f 364/1/3 361/1/3 360/1/3
f 365/3/3 355/3/3 361/3/3
f 365/1/3 361/1/3 364/1/3
f 366/2/3 363/2/3 362/2/3
f 368/3/3 365/3/3 364/3/3
f 369/3/3 355/3/3 365/3/3
f 369/3/3 365/3/3 368/3/3
f 370/3/3 350/3/3 355/3/3
f 370/3/3 355/3/3 369/3/3
f 371/3/3 350/3/3 370/3/3
f 372/2/3 362/2/3 358/2/3
f 372/2/3 367/2/3 366/2/3
f 372/2/3 366/2/3 362/2/3
f 373/2/3 367/2/3 372/2/3
f 374/1/3 369/1/3 368/1/3
f 375/3/3 370/3/3 369/3/3
f 375/1/3 369/1/3 374/1/3
f 376/3/3 370/3/3 375/3/3
f 377/2/3 367/2/3 373/2/3
f 377/1/3 373/1/3 372/1/3
f 378/2/3 367/2/3 377/2/3
f 379/1/3 377/1/3 372/1/3
f 379/1/3 378/1/3 377/1/3
f 380/1/3 378/1/3 379/1/3
f 381/1/3 378/1/3 380/1/3
f 382/1/3 378/1/3 381/1/3
f 383/1/3 378/1/3 382/1/3
f 384/2/3 383/2/3 382/2/3
f 385/2/3 383/2/3 384/2/3
f 389/3/3 387/3/3 386/3/3
f 392/3/3 389/3/3 388/3/3
f 393/3/3 387/3/3 389/3/3
f 393/3/3 389/3/3 392/3/3
f 394/2/3 391/2/3 390/2/3
f 396/1/3 393/1/3 392/1/3
f 397/3/3 387/3/3 393/3/3
f 397/1/3 393/1/3 396/1/3
f 398/3/3 387/3/3 397/3/3
f 399/2/3 395/2/3 394/2/3
f 399/2/3 394/2/3 390/2/3
f 400/2/3 395/2/3 399/2/3
f 401/1/3 398/1/3 397/1/3
f 401/3/3 397/3/3 396/3/3
f 402/1/3 398/1/3 401/1/3
f 403/1/3 400/1/3 399/1/3
f 404/2/3 395/2/3 400/2/3
f 404/1/3 400/1/3 403/1/3
f 405/2/3 395/2/3 404/2/3
f 407/3/3 401/3/3 396/3/3
f 408/3/3 401/3/3 407/3/3
f 409/1/3 405/1/3 404/1/3
f 410/2/3 406/2/3 405/2/3
f 410/1/3 405/1/3 409/1/3
f 411/2/3 406/2/3 410/2/3
f 414/1/3 413/1/3 412/1/3
f 415/1/3 413/1/3 414/1/3
f 416/1/4 417/1/4 418/1/4
f 418/1/4 417/1/4 419/1/4
f 420/4/4 421/4/4 423/4/4
f 421/5/4 422/5/4 424/5/4
f 423/4/4 421/4/4 424/4/4
f 424/5/4 422/5/4 425/5/4
f 420/4/4 423/4/4 426/4/4
f 426/4/4 423/4/4 427/4/4
f 423/5/4 424/5/4 428/5/4
f 424/4/4 425/4/4 429/4/4
f 428/5/4 424/5/4 429/5/4
f 425/5/4 422/5/4 430/5/4
f 429/4/4 425/4/4 430/4/4
f 430/5/4 422/5/4 431/5/4
f 431/5/4 422/5/4 432/5/4
f 427/4/4 423/4/4 433/4/4
f 433/4/4 423/4/4 434/4/4
f 423/5/4 428/5/4 435/5/4
f 434/4/4 423/4/4 435/4/4
f 428/4/4 429/4/4 436/4/4
f 435/5/4 428/5/4 436/5/4
f 430/4/4 431/4/4 436/4/4
f 429/4/4 430/4/4 436/4/4
f 436/4/4 431/4/4 437/4/4
f 437/4/4 431/4/4 438/4/4
f 434/4/4 435/4/4 441/4/4
f 436/4/4 437/4/4 441/4/4
f 435/4/4 436/4/4 441/4/4
f 441/4/4 437/4/4 442/4/4
f 439/3/4 440/3/4 444/3/4
f 443/3/4 444/3/4 446/3/4
f 445/3/4 446/3/4 449/3/4
f 446/3/4 444/3/4 450/3/4
f 449/3/4 446/3/4 450/3/4
f 447/2/4 448/2/4 451/2/4
f 449/1/4 450/1/4 453/1/4
f 450/3/4 444/3/4 454/3/4
f 453/1/4 450/1/4 454/1/4
f 451/2/4 452/2/4 455/2/4
f 453/3/4 454/3/4 457/3/4
f 454/3/4 444/3/4 458/3/4
f 457/3/4 454/3/4 458/3/4
f 444/3/4 440/3/4 459/3/4
f 458/3/4 444/3/4 459/3/4
f 459/3/4 440/3/4 460/3/4
f 447/2/4 451/2/4 461/2/4
f 455/2/4 456/2/4 461/2/4
f 451/2/4 455/2/4 461/2/4
f 461/2/4 456/2/4 462/2/4
f 457/1/4 458/1/4 463/1/4
f 458/3/4 459/3/4 464/3/4
f 463/1/4 458/1/4 464/1/4
f 464/3/4 459/3/4 465/3/4
f 462/2/4 456/2/4 466/2/4
f 461/1/4 462/1/4 466/1/4
f 466/2/4 456/2/4 467/2/4
f 461/1/4 466/1/4 468/1/4
f 466/1/4 467/1/4 468/1/4
f 468/1/4 467/1/4 469/1/4
f 469/1/4 467/1/4 470/1/4
f 470/1/4 467/1/4 471/1/4
f 471/1/4 467/1/4 472/1/4
f 471/2/4 472/2/4 473/2/4
f 473/2/4 472/2/4 474/2/4
f 475/3/4 476/3/4 478/3/4
f 477/3/4 478/3/4 481/3/4
f 478/3/4 476/3/4 482/3/4
f 481/3/4 478/3/4 482/3/4
f 479/2/4 480/2/4 483/2/4
f 481/1/4 482/1/4 485/1/4
f 482/3/4 476/3/4 486/3/4
f 485/1/4 482/1/4 486/1/4
f 486/3/4 476/3/4 487/3/4
f 483/2/4 484/2/4 488/2/4
f 479/2/4 483/2/4 488/2/4
f 488/2/4 484/2/4 489/2/4
f 485/3/4 486/3/4 490/3/4
f 486/1/4 487/1/4 491/1/4
f 490/3/4 486/3/4 491/3/4
f 491/1/4 487/1/4 492/1/4
f 488/1/4 489/1/4 493/1/4
f 489/2/4 484/2/4 494/2/4
f 493/1/4 489/1/4 494/1/4
f 494/2/4 484/2/4 495/2/4
f 490/3/4 491/3/4 497/3/4
f 497/3/4 491/3/4 498/3/4
f 494/1/4 495/1/4 499/1/4
f 495/2/4 496/2/4 500/2/4
f 499/1/4 495/1/4 500/1/4
f 500/2/4 496/2/4 501/2/4
f 502/5/4 503/5/4 505/5/4
f 505/5/4 503/5/4 506/5/4
f 504/5/4 505/5/4 508/5/4
f 506/5/4 507/5/4 508/5/4
f 505/5/4 506/5/4 508/5/4
f 508/5/4 507/5/4 509/5/4
f 504/5/4 508/5/4 510/5/4
f 508/4/4 509/4/4 511/4/4
f 510/5/4 508/5/4 511/5/4
f 511/4/4 509/4/4 512/4/4
f 509/5/4 507/5/4 513/5/4
f 512/4/4 509/4/4 513/4/4
f 513/5/4 507/5/4 514/5/4
f 511/4/4 512/4/4 516/4/4
f 510/4/4 511/4/4 516/4/4
f 514/5/4 515/5/4 517/5/4
f 516/4/4 512/4/4 517/4/4
f 513/5/4 514/5/4 517/5/4
f 512/5/4 513/5/4 517/5/4
f 516/5/4 517/5/4 518/5/4
f 517/5/4 515/5/4 518/5/4
f 518/5/4 515/5/4 519/5/4
f 519/5/4 515/5/4 520/5/4
f 520/5/4 515/5/4 521/5/4
f 518/4/4 519/4/4 523/4/4
f 519/5/4 520/5/4 523/5/4
f 521/4/4 522/4/4 524/4/4
f 523/5/4 520/5/4 524/5/4
f 520/4/4 521/4/4 524/4/4
f 524/4/4 522/4/4 525/4/4
f 518/4/4 523/4/4 526/4/4
f 523/4/4 524/4/4 526/4/4
f 524/5/4 525/5/4 527/5/4
f 526/4/4 524/4/4 527/4/4
f 527/5/4 525/5/4 528/5/4
f 516/5/4 518/5/4 529/5/4
f 529/5/4 518/5/4 530/5/4
f 518/4/4 526/4/4 531/4/4
f 530/5/4 518/5/4 531/5/4
f 526/5/4 527/5/4 532/5/4
f 531/4/4 526/4/4 532/4/4
f 528/5/4 525/5/4 533/5/4
f 527/4/4 528/4/4 533/4/4
f 533/5/4 525/5/4 534/5/4
f 516/5/4 529/5/4 535/5/4
f 535/5/4 529/5/4 536/5/4
f 530/5/4 531/5/4 537/5/4
f 531/5/4 532/5/4 537/5/4
f 532/5/4 527/5/4 538/5/4
f 537/5/4 532/5/4 538/5/4
f 533/4/4 534/4/4 538/4/4
f 527/4/4 533/4/4 538/4/4
f 534/5/4 525/5/4 539/5/4
f 538/4/4 534/4/4 539/4/4
f 537/5/4 538/5/4 540/5/4
f 538/5/4 539/5/4 540/5/4
f 540/5/4 539/5/4 541/5/4
f 541/5/4 539/5/4 542/5/4
f 540/5/4 541/5/4 546/5/4
f 541/4/4 542/4/4 547/4/4
f 546/5/4 541/5/4 547/5/4
f 547/4/4 542/4/4 548/4/4
f 542/5/4 539/5/4 549/5/4
f 548/4/4 542/4/4 549/4/4
f 539/5/4 525/5/4 550/5/4
f 549/5/4 539/5/4 550/5/4
f 543/5/4 544/5/4 551/5/4
f 545/5/4 546/5/4 552/5/4
f 547/5/4 548/5/4 552/5/4
f 546/5/4 547/5/4 552/5/4
f 548/4/4 549/4/4 553/4/4
f 549/4/4 550/4/4 553/4/4
f 552/5/4 548/5/4 553/5/4
f 553/4/4 550/4/4 554/4/4
f 551/5/4 552/5/4 555/5/4
f 552/5/4 553/5/4 555/5/4
f 553/5/4 554/5/4 555/5/4
f 555/5/4 554/5/4 556/5/4
f 554/4/4 550/4/4 557/4/4
f 556/5/4 554/5/4 557/5/4
f 557/4/4 550/4/4 558/4/4
f 543/5/4 551/5/4 559/5/4
f 551/5/4 555/5/4 559/5/4
f 559/5/4 555/5/4 560/5/4
f 555/4/4 556/4/4 561/4/4
f 560/5/4 555/5/4 561/5/4
f 561/4/4 556/4/4 562/4/4
f 557/5/4 558/5/4 563/5/4
f 562/4/4 556/4/4 563/4/4
f 556/5/4 557/5/4 563/5/4
f 561/4/4 562/4/4 564/4/4
f 560/4/4 561/4/4 564/4/4
f 564/4/4 562/4/4 565/4/4
f 562/5/4 563/5/4 566/5/4
f 565/4/4 562/4/4 566/4/4
f 563/5/4 558/5/4 567/5/4
f 566/5/4 563/5/4 567/5/4
f 567/5/4 558/5/4 568/5/4
f 568/5/4 558/5/4 569/5/4
f 560/4/4 564/4/4 570/4/4
f 564/5/4 565/5/4 571/5/4
f 570/4/4 564/4/4 571/4/4
f 571/5/4 565/5/4 572/5/4
f 570/5/4 571/5/4 573/5/4
f 571/5/4 572/5/4 573/5/4
f 567/5/4 568/5/4 575/5/4
f 575/5/4 568/5/4 576/5/4
f 576/5/4 568/5/4 577/5/4
f 573/5/4 574/5/4 578/5/4
f 570/5/4 573/5/4 578/5/4
f 574/5/4 575/5/4 578/5/4
f 578/5/4 575/5/4 579/5/4
f 579/5/4 575/5/4 580/5/4
f 575/4/4 576/4/4 581/4/4
f 580/5/4 575/5/4 581/5/4
f 581/4/4 576/4/4 582/4/4
f 579/1/4 580/1/4 583/1/4
f 583/1/4 580/1/4 584/1/4
f 585/1/4 586/1/4 587/1/4
f 587/1/4 586/1/4 588/1/4
f 587/2/4 588/2/4 589/2/4
f 587/2/4 589/2/4 590/2/4
f 590/2/4 589/2/4 591/2/4
f 592/6/4 593/6/4 594/6/4
f 594/6/4 593/6/4 595/6/4
f 594/7/4 595/7/4 596/7/4
f 595/6/4 593/6/4 597/6/4
f 596/7/4 595/7/4 597/7/4
f 597/6/4 593/6/4 598/6/4
f 599/2/4 600/2/4 601/2/4
f 601/2/4 600/2/4 602/2/4
f 609/2/5 604/2/5 603/2/5
f 610/1/5 605/1/5 604/1/5
f 610/2/5 604/2/5 609/2/5
f 611/1/5 605/1/5 610/1/5
f 612/2/5 607/2/5 606/2/5
f 613/1/5 608/1/5 607/1/5
f 613/2/5 607/2/5 612/2/5
f 614/1/5 608/1/5 613/1/5
f 619/1/5 616/1/5 615/1/5
f 620/1/5 616/1/5 619/1/5
f 621/1/5 618/1/5 617/1/5
f 622/1/5 618/1/5 621/1/5
f 629/5/5 624/5/5 623/5/5
f 630/5/5 624/5/5 629/5/5
f 631/5/5 624/5/5 630/5/5
f 632/4/5 626/4/5 625/4/5
f 633/4/5 626/4/5 632/4/5
f 634/2/5 628/2/5 627/2/5
f 635/2/5 628/2/5 634/2/5
f 636/1/5 630/1/5 629/1/5
f 637/1/5 630/1/5 636/1/5
f 639/5/5 638/5/5 637/5/5
f 639/5/5 637/5/5 636/5/5
f 640/5/5 638/5/5 639/5/5
f 644/1/5 642/1/5 641/1/5
f 645/1/5 642/1/5 644/1/5
f 646/1/5 642/1/5 645/1/5
f 652/5/5 644/5/5 643/5/5
f 652/5/5 645/5/5 644/5/5
f 653/5/5 645/5/5 652/5/5
f 654/5/5 645/5/5 653/5/5
f 655/5/5 645/5/5 654/5/5
f 656/5/5 645/5/5 655/5/5
f 657/5/5 648/5/5 647/5/5
f 658/5/5 648/5/5 657/5/5
f 659/4/5 649/4/5 648/4/5
f 659/5/5 648/5/5 658/5/5
f 660/4/5 649/4/5 659/4/5
f 661/4/5 651/4/5 650/4/5
f 662/4/5 651/4/5 661/4/5
f 663/5/5 652/5/5 643/5/5
f 664/5/5 652/5/5 663/5/5
f 667/5/5 656/5/5 655/5/5
f 668/5/5 656/5/5 667/5/5
f 670/5/5 660/5/5 659/5/5
f 670/5/5 659/5/5 658/5/5
f 671/5/5 660/5/5 670/5/5
f 672/5/5 663/5/5 643/5/5
f 673/4/5 664/4/5 663/4/5
f 673/5/5 663/5/5 672/5/5
f 674/5/5 666/5/5 665/5/5
f 674/4/5 664/4/5 673/4/5
f 674/5/5 668/5/5 667/5/5
f 674/5/5 667/5/5 666/5/5
f 674/5/5 665/5/5 664/5/5
f 675/5/5 668/5/5 674/5/5
f 676/5/5 668/5/5 675/5/5
f 677/5/5 668/5/5 676/5/5
f 679/4/5 670/4/5 669/4/5
f 679/4/5 671/4/5 670/4/5
f 680/5/5 660/5/5 671/5/5
f 680/4/5 671/4/5 679/4/5
f 681/5/5 660/5/5 680/5/5
f 682/1/5 676/1/5 675/1/5
f 683/2/5 678/2/5 677/2/5
f 683/1/5 676/1/5 682/1/5
f 683/2/5 677/2/5 676/2/5
f 684/2/5 678/2/5 683/2/5
f 687/1/5 686/1/5 685/1/5
f 688/1/5 686/1/5 687/1/5
f 691/1/5 687/1/5 685/1/5
f 692/1/5 687/1/5 691/1/5
f 696/4/5 690/4/5 689/4/5
f 697/4/5 690/4/5 696/4/5
f 698/1/5 694/1/5 693/1/5
f 699/4/5 696/4/5 695/4/5
f 700/5/5 697/5/5 696/5/5
f 700/4/5 696/4/5 699/4/5
f 701/5/5 697/5/5 700/5/5
f 702/5/5 697/5/5 701/5/5
f 705/1/5 694/1/5 698/1/5
f 706/1/5 694/1/5 705/1/5
f 707/2/5 704/2/5 703/2/5
f 710/2/5 707/2/5 703/2/5
f 710/2/5 709/2/5 708/2/5
f 710/2/5 708/2/5 707/2/5
f 711/2/5 709/2/5 710/2/5
f 715/6/5 713/6/5 712/6/5
f 716/7/5 714/7/5 713/7/5
f 716/6/5 713/6/5 715/6/5
f 717/7/5 714/7/5 716/7/5
f 720/1/5 719/1/5 718/1/5
f 721/1/5 719/1/5 720/1/5
f 725/6/5 723/6/5 722/6/5
f 726/7/5 724/7/5 723/7/5
f 726/6/5 723/6/5 725/6/5
f 727/7/5 724/7/5 726/7/5
f 731/3/5 729/3/5 728/3/5
f 732/1/5 730/1/5 729/1/5
f 732/3/5 729/3/5 731/3/5
f 733/1/5 730/1/5 732/1/5
f 736/3/5 735/3/5 734/3/5
f 737/3/5 735/3/5 736/3/5
f 742/3/5 739/3/5 738/3/5
f 743/3/5 739/3/5 742/3/5
f 744/3/5 741/3/5 740/3/5
f 745/3/5 741/3/5 744/3/5
f 746/2/6 747/2/6 750/2/6
f 750/2/6 747/2/6 751/2/6
f 748/2/6 749/2/6 752/2/6
f 752/2/6 749/2/6 753/2/6
f 754/2/6 755/2/6 756/2/6
f 756/2/6 755/2/6 757/2/6
f 758/1/6 759/1/6 760/1/6
f 760/1/6 759/1/6 761/1/6
f 762/2/6 763/2/6 764/2/6
f 764/2/6 763/2/6 765/2/6
f 766/1/6 767/1/6 768/1/6
f 768/1/6 767/1/6 769/1/6
f 770/1/6 771/1/6 772/1/6
f 772/1/6 771/1/6 773/1/6
f 774/2/6 775/2/6 778/2/6
f 775/1/6 776/1/6 778/1/6
f 776/2/6 777/2/6 779/2/6
f 778/1/6 776/1/6 779/1/6
f 774/2/6 778/2/6 780/2/6
f 778/2/6 779/2/6 780/2/6
f 779/2/6 777/2/6 781/2/6
f 780/2/6 779/2/6 781/2/6
f 782/1/6 783/1/6 784/1/6
f 784/1/6 783/1/6 785/1/6
f 786/6/6 787/6/6 790/6/6
f 790/6/6 787/6/6 791/6/6
f 788/5/6 789/5/6 793/5/6
f 792/4/6 793/4/6 794/4/6
f 793/5/6 789/5/6 795/5/6
f 794/4/6 793/4/6 795/4/6
f 795/5/6 789/5/6 796/5/6
f 796/5/6 789/5/6 797/5/6
f 798/6/6 799/6/6 800/6/6
f 800/6/6 799/6/6 801/6/6
f 804/4/6 805/4/6 808/4/6
f 806/4/6 807/4/6 809/4/6
f 809/4/6 807/4/6 810/4/6
f 802/5/6 803/5/6 811/5/6
f 811/5/6 803/5/6 812/5/6
f 808/4/6 805/4/6 813/4/6
f 813/4/6 805/4/6 814/4/6
f 815/5/6 816/5/6 822/5/6
f 822/5/6 816/5/6 823/5/6
f 823/5/6 816/5/6 824/5/6
f 817/5/6 818/5/6 825/5/6
f 818/4/6 819/4/6 825/4/6
f 825/4/6 819/4/6 826/4/6
f 820/5/6 821/5/6 827/5/6
f 827/5/6 821/5/6 828/5/6
f 830/5/6 831/5/6 832/5/6
f 829/5/6 830/5/6 832/5/6
f 832/5/6 831/5/6 833/5/6
f 825/5/6 826/5/6 834/5/6
f 817/5/6 825/5/6 834/5/6
f 834/5/6 826/5/6 835/5/6
f 836/5/6 837/5/6 840/5/6
f 837/4/6 838/4/6 841/4/6
f 840/5/6 837/5/6 841/5/6
f 838/5/6 839/5/6 842/5/6
f 841/4/6 838/4/6 842/4/6
f 842/5/6 839/5/6 843/5/6
f 843/5/6 839/5/6 844/5/6
f 844/5/6 839/5/6 845/5/6
f 845/5/6 839/5/6 846/5/6
f 840/5/6 841/5/6 847/5/6
f 841/5/6 842/5/6 847/5/6
f 842/5/6 843/5/6 847/5/6
f 847/5/6 843/5/6 848/5/6
f 848/5/6 843/5/6 849/5/6
f 846/5/6 839/5/6 853/5/6
f 847/4/6 848/4/6 854/4/6
f 848/5/6 849/5/6 855/5/6
f 854/4/6 848/4/6 855/4/6
f 849/5/6 850/5/6 855/5/6
f 851/4/6 852/4/6 856/4/6
f 855/5/6 850/5/6 856/5/6
f 850/4/6 851/4/6 856/4/6
f 852/5/6 853/5/6 857/5/6
f 856/4/6 852/4/6 857/4/6
f 853/5/6 839/5/6 858/5/6
f 857/5/6 853/5/6 858/5/6
f 859/3/6 860/3/6 863/3/6
f 863/3/6 860/3/6 864/3/6
f 861/3/6 862/3/6 865/3/6
f 865/3/6 862/3/6 866/3/6
f 867/3/6 868/3/6 872/3/6
f 872/3/6 868/3/6 873/3/6
f 869/3/6 870/3/6 874/3/6
f 870/1/6 871/1/6 875/1/6
f 874/3/6 870/3/6 875/3/6
f 875/1/6 871/1/6 876/1/6
