# MagicaVoxel @ Ephtracy

# group
o 

# material
mtllib udochka.mtl
usemtl palette

# normals
vn -1 0 0
vn 1 0 0
vn 0 0 1
vn 0 0 -1
vn 0 -1 0
vn 0 1 0

# texcoords
vt 0.373047 0.5
vt 0.396484 0.5
vt 0.560547 0.5
vt 0.841797 0.5
vt 0.888672 0.5
vt 0.958984 0.5
vt 0.962891 0.5
vt 0.982422 0.5
vt 0.986328 0.5
vt 0.990234 0.5

# verts
v 0 3.7 -1.5
v 0 3.7 -1.6
v 0 3.7 -2.2
v 0 3.7 -2.3
v 0 3.7 -2.6
v 0 3.7 -2.7
v 0 3.7 -5.3
v 0 3.7 -5.4
v 0 3.7 -8.9
v 0 3.7 -9
v 0 3.7 -11.8
v 0 3.7 -11.9
v 0 3.9 -1.5
v 0 3.9 -1.6
v 0 3.9 -2.2
v 0 3.9 -2.3
v 0 4 -1.5
v 0 4 -1.6
v 0 4 -2.2
v 0 4 -2.3
v 0 4.2 -1.5
v 0 4.2 -1.6
v 0 4.2 -2.2
v 0 4.2 -2.3
v 0 4.2 -2.6
v 0 4.2 -2.7
v 0 4.2 -5.3
v 0 4.2 -5.4
v 0 4.2 -8.9
v 0 4.2 -9
v 0 4.2 -11.8
v 0 4.2 -11.9
v 0.1 3.2 -1.7
v 0.1 3.2 -2.1
v 0.1 3.5 -1.7
v 0.1 3.5 -2.1
v 0.1 3.6 -11.8
v 0.1 3.6 -11.9
v 0.1 3.7 -11.8
v 0.1 3.7 -11.9
v 0.1 3.8 -0.1
v 0.1 3.8 -0.2
v 0.1 3.8 -0.4
v 0.1 3.8 -0.9
v 0.1 3.8 -1.5
v 0.1 3.8 -2.3
v 0.1 3.8 -2.4
v 0.1 3.8 -2.5
v 0.1 3.8 -2.6
v 0.1 3.8 -2.7
v 0.1 3.8 -2.8
v 0.1 3.8 -5.2
v 0.1 3.8 -5.3
v 0.1 3.8 -5.4
v 0.1 3.8 -5.5
v 0.1 3.8 -8.8
v 0.1 3.8 -8.9
v 0.1 3.8 -9
v 0.1 3.8 -9.1
v 0.1 3.8 -11.8
v 0.1 3.8 -11.9
v 0.1 3.8 -12
v 0.1 3.9 -0.7
v 0.1 3.9 -0.9
v 0.1 3.9 -1.5
v 0.1 3.9 -2.3
v 0.1 4 -0.4
v 0.1 4 -0.7
v 0.1 4 -1.5
v 0.1 4 -2.3
v 0.1 4.1 -0.1
v 0.1 4.1 -0.2
v 0.1 4.1 -1.5
v 0.1 4.1 -2.3
v 0.1 4.1 -2.4
v 0.1 4.1 -2.5
v 0.1 4.1 -2.6
v 0.1 4.1 -2.7
v 0.1 4.1 -2.8
v 0.1 4.1 -5.2
v 0.1 4.1 -5.3
v 0.1 4.1 -5.4
v 0.1 4.1 -5.5
v 0.1 4.1 -8.8
v 0.1 4.1 -8.9
v 0.1 4.1 -9
v 0.1 4.1 -9.1
v 0.1 4.1 -11.8
v 0.1 4.1 -11.9
v 0.1 4.1 -12
v 0.2 3.5 -1.8
v 0.2 3.5 -2
v 0.2 3.6 -1.7
v 0.2 3.6 -1.8
v 0.2 3.7 -1.7
v 0.2 3.7 -2
v 0.2 3.7 -2.4
v 0.2 3.7 -2.6
v 0.2 3.7 -2.7
v 0.2 3.7 -5.3
v 0.2 3.7 -5.4
v 0.2 3.7 -8.9
v 0.2 3.7 -9
v 0.2 3.7 -11.8
v 0.2 3.7 -11.9
v 0.2 3.7 -12
v 0.2 3.8 -2.4
v 0.2 3.8 -2.5
v 0.2 3.8 -2.6
v 0.2 3.8 -2.7
v 0.2 3.8 -2.8
v 0.2 3.8 -5.2
v 0.2 3.8 -5.3
v 0.2 3.8 -5.4
v 0.2 3.8 -5.5
v 0.2 3.8 -8.8
v 0.2 3.8 -8.9
v 0.2 3.8 -9
v 0.2 3.8 -9.1
v 0.2 3.8 -11.8
v 0.2 3.8 -11.9
v 0.2 3.8 -12
v 0.5 3.3 -2
v 0.5 3.3 -2.3
v 0.5 3.4 -2
v 0.5 3.4 -2.2
v 0.5 3.5 -2.2
v 0.5 3.5 -2.3
v 0.3 3.5 -1.8
v 0.3 3.5 -2
v 0.3 3.6 -1.7
v 0.3 3.6 -1.8
v 0.3 3.7 -1.7
v 0.3 3.7 -2
v 0.3 3.7 -2.4
v 0.3 3.7 -2.6
v 0.3 3.7 -2.7
v 0.3 3.7 -5.3
v 0.3 3.7 -5.4
v 0.3 3.7 -8.9
v 0.3 3.7 -9
v 0.3 3.7 -11.8
v 0.3 3.7 -11.9
v 0.3 3.7 -12
v 0.3 3.8 -2.4
v 0.3 3.8 -2.5
v 0.3 3.8 -2.6
v 0.3 3.8 -2.7
v 0.3 3.8 -2.8
v 0.3 3.8 -5.2
v 0.3 3.8 -5.3
v 0.3 3.8 -5.4
v 0.3 3.8 -5.5
v 0.3 3.8 -8.8
v 0.3 3.8 -8.9
v 0.3 3.8 -9
v 0.3 3.8 -9.1
v 0.3 3.8 -11.8
v 0.3 3.8 -11.9
v 0.3 3.8 -12
v 0.4 3.2 -1.7
v 0.4 3.2 -2.1
v 0.4 3.3 -1.9
v 0.4 3.3 -2
v 0.4 3.4 -1.9
v 0.4 3.4 -2
v 0.4 3.5 -1.7
v 0.4 3.5 -2.1
v 0.4 3.6 -11.8
v 0.4 3.6 -11.9
v 0.4 3.7 -11.8
v 0.4 3.7 -11.9
v 0.4 3.8 -0.1
v 0.4 3.8 -0.2
v 0.4 3.8 -0.4
v 0.4 3.8 -1.5
v 0.4 3.8 -2.3
v 0.4 3.8 -2.4
v 0.4 3.8 -2.5
v 0.4 3.8 -2.6
v 0.4 3.8 -2.7
v 0.4 3.8 -2.8
v 0.4 3.8 -5.2
v 0.4 3.8 -5.3
v 0.4 3.8 -5.4
v 0.4 3.8 -5.5
v 0.4 3.8 -8.8
v 0.4 3.8 -8.9
v 0.4 3.8 -9
v 0.4 3.8 -9.1
v 0.4 3.8 -11.8
v 0.4 3.8 -11.9
v 0.4 3.8 -12
v 0.4 3.9 -0.3
v 0.4 3.9 -0.4
v 0.4 3.9 -1
v 0.4 3.9 -1.2
v 0.4 3.9 -1.5
v 0.4 3.9 -2.3
v 0.4 4 -0.2
v 0.4 4 -0.3
v 0.4 4 -0.9
v 0.4 4 -1
v 0.4 4 -1.2
v 0.4 4 -1.3
v 0.4 4 -1.5
v 0.4 4 -2.3
v 0.4 4.1 -0.1
v 0.4 4.1 -0.2
v 0.4 4.1 -0.9
v 0.4 4.1 -1.3
v 0.4 4.1 -1.5
v 0.4 4.1 -2.3
v 0.4 4.1 -2.4
v 0.4 4.1 -2.5
v 0.4 4.1 -2.6
v 0.4 4.1 -2.7
v 0.4 4.1 -2.8
v 0.4 4.1 -5.2
v 0.4 4.1 -5.3
v 0.4 4.1 -5.4
v 0.4 4.1 -5.5
v 0.4 4.1 -8.8
v 0.4 4.1 -8.9
v 0.4 4.1 -9
v 0.4 4.1 -9.1
v 0.4 4.1 -11.8
v 0.4 4.1 -11.9
v 0.4 4.1 -12
v 0.5 3.7 -1.5
v 0.5 3.7 -1.6
v 0.5 3.7 -2.2
v 0.5 3.7 -2.3
v 0.5 3.7 -2.6
v 0.5 3.7 -2.7
v 0.5 3.7 -5.3
v 0.5 3.7 -5.4
v 0.5 3.7 -8.9
v 0.5 3.7 -9
v 0.5 3.7 -11.8
v 0.5 3.7 -11.9
v 0.5 3.9 -1.5
v 0.5 3.9 -1.6
v 0.5 3.9 -2.2
v 0.5 3.9 -2.3
v 0.5 4 -1.5
v 0.5 4 -1.6
v 0.5 4 -2.2
v 0.5 4 -2.3
v 0.5 4.2 -1.5
v 0.5 4.2 -1.6
v 0.5 4.2 -2.2
v 0.5 4.2 -2.3
v 0.5 4.2 -2.6
v 0.5 4.2 -2.7
v 0.5 4.2 -5.3
v 0.5 4.2 -5.4
v 0.5 4.2 -8.9
v 0.5 4.2 -9
v 0.5 4.2 -11.8
v 0.5 4.2 -11.9
v 0.6 3.3 -1.9
v 0.6 3.3 -2.3
v 0.6 3.4 -1.9
v 0.6 3.4 -2.2
v 0.6 3.5 -2.2
v 0.6 3.5 -2.3
v 0.1 3.8 -0.1
v 0.1 4.1 -0.1
v 0.2 3.9 -0.1
v 0.2 4 -0.1
v 0.3 3.9 -0.1
v 0.3 4 -0.1
v 0.4 3.8 -0.1
v 0.4 4.1 -0.1
v 0 3.7 -1.5
v 0 3.9 -1.5
v 0 4 -1.5
v 0 4.2 -1.5
v 0.1 3.8 -1.5
v 0.1 3.9 -1.5
v 0.1 4 -1.5
v 0.1 4.1 -1.5
v 0.2 3.7 -1.5
v 0.2 3.8 -1.5
v 0.2 4.1 -1.5
v 0.2 4.2 -1.5
v 0.3 3.7 -1.5
v 0.3 3.8 -1.5
v 0.3 4.1 -1.5
v 0.3 4.2 -1.5
v 0.4 3.8 -1.5
v 0.4 3.9 -1.5
v 0.4 4 -1.5
v 0.4 4.1 -1.5
v 0.5 3.7 -1.5
v 0.5 3.9 -1.5
v 0.5 4 -1.5
v 0.5 4.2 -1.5
v 0.1 3.2 -1.7
v 0.1 3.5 -1.7
v 0.2 3.6 -1.7
v 0.2 3.7 -1.7
v 0.3 3.6 -1.7
v 0.3 3.7 -1.7
v 0.4 3.2 -1.7
v 0.4 3.5 -1.7
v 0.2 3.5 -1.8
v 0.2 3.6 -1.8
v 0.3 3.5 -1.8
v 0.3 3.6 -1.8
v 0.4 3.3 -1.9
v 0.4 3.4 -1.9
v 0.5 3.3 -1.9
v 0.5 3.4 -1.9
v 0.6 3.3 -1.9
v 0.6 3.4 -1.9
v 0.5 3.4 -2.2
v 0.5 3.5 -2.2
v 0.6 3.4 -2.2
v 0.6 3.5 -2.2
v 0.2 3.7 -2.4
v 0.2 3.8 -2.4
v 0.3 3.7 -2.4
v 0.3 3.8 -2.4
v 0 3.7 -2.6
v 0 4.2 -2.6
v 0.1 3.8 -2.6
v 0.1 4.1 -2.6
v 0.2 3.7 -2.6
v 0.2 3.8 -2.6
v 0.3 3.7 -2.6
v 0.3 3.8 -2.6
v 0.4 3.8 -2.6
v 0.4 4.1 -2.6
v 0.5 3.7 -2.6
v 0.5 4.2 -2.6
v 0 3.7 -5.3
v 0 4.2 -5.3
v 0.1 3.8 -5.3
v 0.1 4.1 -5.3
v 0.2 3.7 -5.3
v 0.2 3.8 -5.3
v 0.3 3.7 -5.3
v 0.3 3.8 -5.3
v 0.4 3.8 -5.3
v 0.4 4.1 -5.3
v 0.5 3.7 -5.3
v 0.5 4.2 -5.3
v 0 3.7 -8.9
v 0 4.2 -8.9
v 0.1 3.8 -8.9
v 0.1 4.1 -8.9
v 0.2 3.7 -8.9
v 0.2 3.8 -8.9
v 0.3 3.7 -8.9
v 0.3 3.8 -8.9
v 0.4 3.8 -8.9
v 0.4 4.1 -8.9
v 0.5 3.7 -8.9
v 0.5 4.2 -8.9
v 0 3.7 -11.8
v 0 4.2 -11.8
v 0.1 3.6 -11.8
v 0.1 3.7 -11.8
v 0.1 3.8 -11.8
v 0.1 4.1 -11.8
v 0.2 3.7 -11.8
v 0.2 3.8 -11.8
v 0.2 4.1 -11.8
v 0.3 3.7 -11.8
v 0.3 3.8 -11.8
v 0.3 4.1 -11.8
v 0.4 3.6 -11.8
v 0.4 3.7 -11.8
v 0.4 3.8 -11.8
v 0.4 4.1 -11.8
v 0.5 3.7 -11.8
v 0.5 4.2 -11.8
v 0.2 3.5 -2
v 0.2 3.7 -2
v 0.3 3.5 -2
v 0.3 3.7 -2
v 0.4 3.3 -2
v 0.4 3.4 -2
v 0.5 3.3 -2
v 0.5 3.4 -2
v 0.1 3.2 -2.1
v 0.1 3.5 -2.1
v 0.4 3.2 -2.1
v 0.4 3.5 -2.1
v 0 3.7 -2.3
v 0 3.9 -2.3
v 0 4 -2.3
v 0 4.2 -2.3
v 0.1 3.8 -2.3
v 0.1 3.9 -2.3
v 0.1 4 -2.3
v 0.1 4.1 -2.3
v 0.2 3.7 -2.3
v 0.2 3.8 -2.3
v 0.2 4.1 -2.3
v 0.2 4.2 -2.3
v 0.3 3.7 -2.3
v 0.3 3.8 -2.3
v 0.3 4.1 -2.3
v 0.3 4.2 -2.3
v 0.4 3.8 -2.3
v 0.4 3.9 -2.3
v 0.4 4 -2.3
v 0.4 4.1 -2.3
v 0.5 3.3 -2.3
v 0.5 3.5 -2.3
v 0.5 3.7 -2.3
v 0.5 3.9 -2.3
v 0.5 4 -2.3
v 0.5 4.2 -2.3
v 0.6 3.3 -2.3
v 0.6 3.5 -2.3
v 0 3.7 -2.7
v 0 4.2 -2.7
v 0.1 3.8 -2.7
v 0.1 4.1 -2.7
v 0.2 3.7 -2.7
v 0.2 3.8 -2.7
v 0.3 3.7 -2.7
v 0.3 3.8 -2.7
v 0.4 3.8 -2.7
v 0.4 4.1 -2.7
v 0.5 3.7 -2.7
v 0.5 4.2 -2.7
v 0 3.7 -5.4
v 0 4.2 -5.4
v 0.1 3.8 -5.4
v 0.1 4.1 -5.4
v 0.2 3.7 -5.4
v 0.2 3.8 -5.4
v 0.3 3.7 -5.4
v 0.3 3.8 -5.4
v 0.4 3.8 -5.4
v 0.4 4.1 -5.4
v 0.5 3.7 -5.4
v 0.5 4.2 -5.4
v 0 3.7 -9
v 0 4.2 -9
v 0.1 3.8 -9
v 0.1 4.1 -9
v 0.2 3.7 -9
v 0.2 3.8 -9
v 0.3 3.7 -9
v 0.3 3.8 -9
v 0.4 3.8 -9
v 0.4 4.1 -9
v 0.5 3.7 -9
v 0.5 4.2 -9
v 0 3.7 -11.9
v 0 4.2 -11.9
v 0.1 3.6 -11.9
v 0.1 3.7 -11.9
v 0.1 3.8 -11.9
v 0.1 4.1 -11.9
v 0.2 3.7 -11.9
v 0.2 3.8 -11.9
v 0.2 4.1 -11.9
v 0.3 3.7 -11.9
v 0.3 3.8 -11.9
v 0.3 4.1 -11.9
v 0.4 3.6 -11.9
v 0.4 3.7 -11.9
v 0.4 3.8 -11.9
v 0.4 4.1 -11.9
v 0.5 3.7 -11.9
v 0.5 4.2 -11.9
v 0.1 3.8 -12
v 0.1 4.1 -12
v 0.2 3.7 -12
v 0.2 3.8 -12
v 0.2 4.1 -12
v 0.3 3.7 -12
v 0.3 3.8 -12
v 0.3 4.1 -12
v 0.4 3.8 -12
v 0.4 4.1 -12
v 0.1 3.2 -1.7
v 0.4 3.2 -1.7
v 0.1 3.2 -2.1
v 0.4 3.2 -2.1
v 0.4 3.3 -1.9
v 0.5 3.3 -1.9
v 0.6 3.3 -1.9
v 0.4 3.3 -2
v 0.5 3.3 -2
v 0.5 3.3 -2.3
v 0.6 3.3 -2.3
v 0.2 3.6 -1.7
v 0.3 3.6 -1.7
v 0.2 3.6 -1.8
v 0.3 3.6 -1.8
v 0.1 3.6 -11.8
v 0.4 3.6 -11.8
v 0.1 3.6 -11.9
v 0.4 3.6 -11.9
v 0 3.7 -1.5
v 0.2 3.7 -1.5
v 0.3 3.7 -1.5
v 0.5 3.7 -1.5
v 0 3.7 -1.6
v 0.2 3.7 -1.6
v 0.3 3.7 -1.6
v 0.5 3.7 -1.6
v 0.2 3.7 -1.7
v 0.3 3.7 -1.7
v 0.2 3.7 -2
v 0.3 3.7 -2
v 0 3.7 -2.2
v 0.2 3.7 -2.2
v 0.3 3.7 -2.2
v 0.5 3.7 -2.2
v 0 3.7 -2.3
v 0.2 3.7 -2.3
v 0.3 3.7 -2.3
v 0.5 3.7 -2.3
v 0.2 3.7 -2.4
v 0.3 3.7 -2.4
v 0 3.7 -2.6
v 0.2 3.7 -2.6
v 0.3 3.7 -2.6
v 0.5 3.7 -2.6
v 0 3.7 -2.7
v 0.2 3.7 -2.7
v 0.3 3.7 -2.7
v 0.5 3.7 -2.7
v 0 3.7 -5.3
v 0.2 3.7 -5.3
v 0.3 3.7 -5.3
v 0.5 3.7 -5.3
v 0 3.7 -5.4
v 0.2 3.7 -5.4
v 0.3 3.7 -5.4
v 0.5 3.7 -5.4
v 0 3.7 -8.9
v 0.2 3.7 -8.9
v 0.3 3.7 -8.9
v 0.5 3.7 -8.9
v 0 3.7 -9
v 0.2 3.7 -9
v 0.3 3.7 -9
v 0.5 3.7 -9
v 0 3.7 -11.8
v 0.1 3.7 -11.8
v 0.2 3.7 -11.8
v 0.3 3.7 -11.8
v 0.4 3.7 -11.8
v 0.5 3.7 -11.8
v 0 3.7 -11.9
v 0.1 3.7 -11.9
v 0.2 3.7 -11.9
v 0.3 3.7 -11.9
v 0.4 3.7 -11.9
v 0.5 3.7 -11.9
v 0.2 3.7 -12
v 0.3 3.7 -12
v 0.1 3.8 -0.1
v 0.4 3.8 -0.1
v 0.1 3.8 -0.2
v 0.3 3.8 -0.2
v 0.4 3.8 -0.2
v 0.1 3.8 -0.4
v 0.2 3.8 -0.4
v 0.3 3.8 -0.4
v 0.4 3.8 -0.4
v 0.2 3.8 -0.6
v 0.3 3.8 -0.6
v 0.2 3.8 -0.7
v 0.3 3.8 -0.7
v 0.1 3.8 -0.9
v 0.2 3.8 -0.9
v 0.1 3.8 -1.5
v 0.2 3.8 -1.5
v 0.3 3.8 -1.5
v 0.4 3.8 -1.5
v 0.1 3.8 -2.3
v 0.2 3.8 -2.3
v 0.3 3.8 -2.3
v 0.4 3.8 -2.3
v 0.1 3.8 -2.4
v 0.2 3.8 -2.4
v 0.3 3.8 -2.4
v 0.4 3.8 -2.4
v 0.1 3.8 -2.5
v 0.2 3.8 -2.5
v 0.3 3.8 -2.5
v 0.4 3.8 -2.5
v 0.1 3.8 -2.6
v 0.2 3.8 -2.6
v 0.3 3.8 -2.6
v 0.4 3.8 -2.6
v 0.1 3.8 -2.7
v 0.2 3.8 -2.7
v 0.3 3.8 -2.7
v 0.4 3.8 -2.7
v 0.1 3.8 -2.8
v 0.2 3.8 -2.8
v 0.3 3.8 -2.8
v 0.4 3.8 -2.8
v 0.1 3.8 -5.2
v 0.2 3.8 -5.2
v 0.3 3.8 -5.2
v 0.4 3.8 -5.2
v 0.1 3.8 -5.3
v 0.2 3.8 -5.3
v 0.3 3.8 -5.3
v 0.4 3.8 -5.3
v 0.1 3.8 -5.4
v 0.2 3.8 -5.4
v 0.3 3.8 -5.4
v 0.4 3.8 -5.4
v 0.1 3.8 -5.5
v 0.2 3.8 -5.5
v 0.3 3.8 -5.5
v 0.4 3.8 -5.5
v 0.1 3.8 -8.8
v 0.2 3.8 -8.8
v 0.3 3.8 -8.8
v 0.4 3.8 -8.8
v 0.1 3.8 -8.9
v 0.2 3.8 -8.9
v 0.3 3.8 -8.9
v 0.4 3.8 -8.9
v 0.1 3.8 -9
v 0.2 3.8 -9
v 0.3 3.8 -9
v 0.4 3.8 -9
v 0.1 3.8 -9.1
v 0.2 3.8 -9.1
v 0.3 3.8 -9.1
v 0.4 3.8 -9.1
v 0.1 3.8 -11.8
v 0.2 3.8 -11.8
v 0.3 3.8 -11.8
v 0.4 3.8 -11.8
v 0.1 3.8 -11.9
v 0.2 3.8 -11.9
v 0.3 3.8 -11.9
v 0.4 3.8 -11.9
v 0.1 3.8 -12
v 0.2 3.8 -12
v 0.3 3.8 -12
v 0.4 3.8 -12
v 0.4 3.4 -1.9
v 0.5 3.4 -1.9
v 0.6 3.4 -1.9
v 0.4 3.4 -2
v 0.5 3.4 -2
v 0.5 3.4 -2.2
v 0.6 3.4 -2.2
v 0.1 3.5 -1.7
v 0.4 3.5 -1.7
v 0.2 3.5 -1.8
v 0.3 3.5 -1.8
v 0.2 3.5 -2
v 0.3 3.5 -2
v 0.1 3.5 -2.1
v 0.4 3.5 -2.1
v 0.5 3.5 -2.2
v 0.6 3.5 -2.2
v 0.5 3.5 -2.3
v 0.6 3.5 -2.3
v 0.1 4.1 -0.1
v 0.4 4.1 -0.1
v 0.1 4.1 -0.2
v 0.4 4.1 -0.2
v 0.3 4.1 -0.9
v 0.4 4.1 -0.9
v 0.2 4.1 -1.1
v 0.3 4.1 -1.1
v 0.2 4.1 -1.3
v 0.4 4.1 -1.3
v 0.1 4.1 -1.5
v 0.2 4.1 -1.5
v 0.3 4.1 -1.5
v 0.4 4.1 -1.5
v 0.1 4.1 -2.3
v 0.2 4.1 -2.3
v 0.3 4.1 -2.3
v 0.4 4.1 -2.3
v 0.1 4.1 -2.4
v 0.2 4.1 -2.4
v 0.3 4.1 -2.4
v 0.4 4.1 -2.4
v 0.1 4.1 -2.5
v 0.2 4.1 -2.5
v 0.3 4.1 -2.5
v 0.4 4.1 -2.5
v 0.1 4.1 -2.6
v 0.4 4.1 -2.6
v 0.1 4.1 -2.7
v 0.4 4.1 -2.7
v 0.1 4.1 -2.8
v 0.2 4.1 -2.8
v 0.3 4.1 -2.8
v 0.4 4.1 -2.8
v 0.1 4.1 -5.2
v 0.2 4.1 -5.2
v 0.3 4.1 -5.2
v 0.4 4.1 -5.2
v 0.1 4.1 -5.3
v 0.4 4.1 -5.3
v 0.1 4.1 -5.4
v 0.4 4.1 -5.4
v 0.1 4.1 -5.5
v 0.2 4.1 -5.5
v 0.3 4.1 -5.5
v 0.4 4.1 -5.5
v 0.1 4.1 -8.8
v 0.2 4.1 -8.8
v 0.3 4.1 -8.8
v 0.4 4.1 -8.8
v 0.1 4.1 -8.9
v 0.4 4.1 -8.9
v 0.1 4.1 -9
v 0.4 4.1 -9
v 0.1 4.1 -9.1
v 0.2 4.1 -9.1
v 0.3 4.1 -9.1
v 0.4 4.1 -9.1
v 0.1 4.1 -11.8
v 0.2 4.1 -11.8
v 0.3 4.1 -11.8
v 0.4 4.1 -11.8
v 0.1 4.1 -11.9
v 0.2 4.1 -11.9
v 0.3 4.1 -11.9
v 0.4 4.1 -11.9
v 0.1 4.1 -12
v 0.2 4.1 -12
v 0.3 4.1 -12
v 0.4 4.1 -12
v 0 4.2 -1.5
v 0.2 4.2 -1.5
v 0.3 4.2 -1.5
v 0.5 4.2 -1.5
v 0 4.2 -1.6
v 0.2 4.2 -1.6
v 0.3 4.2 -1.6
v 0.5 4.2 -1.6
v 0 4.2 -2.2
v 0.2 4.2 -2.2
v 0.3 4.2 -2.2
v 0.5 4.2 -2.2
v 0 4.2 -2.3
v 0.2 4.2 -2.3
v 0.3 4.2 -2.3
v 0.5 4.2 -2.3
v 0 4.2 -2.6
v 0.5 4.2 -2.6
v 0 4.2 -2.7
v 0.5 4.2 -2.7
v 0 4.2 -5.3
v 0.5 4.2 -5.3
v 0 4.2 -5.4
v 0.5 4.2 -5.4
v 0 4.2 -8.9
v 0.5 4.2 -8.9
v 0 4.2 -9
v 0.5 4.2 -9
v 0 4.2 -11.8
v 0.5 4.2 -11.8
v 0 4.2 -11.9
v 0.5 4.2 -11.9

# faces
f 13/5/1 2/5/1 1/5/1
f 14/10/1 3/10/1 2/10/1
f 14/5/1 2/5/1 13/5/1
f 15/5/1 4/5/1 3/5/1
f 15/10/1 3/10/1 14/10/1
f 16/5/1 4/5/1 15/5/1
f 17/10/1 14/10/1 13/10/1
f 17/10/1 15/10/1 14/10/1
f 17/10/1 16/10/1 15/10/1
f 18/10/1 16/10/1 17/10/1
f 19/10/1 16/10/1 18/10/1
f 20/10/1 16/10/1 19/10/1
f 21/5/1 18/5/1 17/5/1
f 22/10/1 19/10/1 18/10/1
f 22/5/1 18/5/1 21/5/1
f 23/5/1 20/5/1 19/5/1
f 23/10/1 19/10/1 22/10/1
f 24/5/1 20/5/1 23/5/1
f 25/9/1 6/9/1 5/9/1
f 26/9/1 6/9/1 25/9/1
f 27/9/1 8/9/1 7/9/1
f 28/9/1 8/9/1 27/9/1
f 29/9/1 10/9/1 9/9/1
f 30/9/1 10/9/1 29/9/1
f 31/9/1 12/9/1 11/9/1
f 32/9/1 12/9/1 31/9/1
f 35/8/1 34/8/1 33/8/1
f 36/8/1 34/8/1 35/8/1
f 39/8/1 38/8/1 37/8/1
f 40/8/1 38/8/1 39/8/1
f 63/1/1 44/1/1 43/1/1
f 64/3/1 45/3/1 44/3/1
f 64/1/1 44/1/1 63/1/1
f 65/3/1 45/3/1 64/3/1
f 66/3/1 47/3/1 46/3/1
f 67/3/1 43/3/1 42/3/1
f 67/1/1 63/1/1 43/1/1
f 68/3/1 65/3/1 64/3/1
f 68/1/1 63/1/1 67/1/1
f 68/3/1 64/3/1 63/3/1
f 69/3/1 65/3/1 68/3/1
f 70/3/1 47/3/1 66/3/1
f 71/9/1 42/9/1 41/9/1
f 72/3/1 69/3/1 68/3/1
f 72/9/1 42/9/1 71/9/1
f 72/3/1 67/3/1 42/3/1
f 72/3/1 68/3/1 67/3/1
f 73/3/1 69/3/1 72/3/1
f 74/3/1 47/3/1 70/3/1
f 75/2/1 48/2/1 47/2/1
f 75/3/1 47/3/1 74/3/1
f 76/3/1 49/3/1 48/3/1
f 76/2/1 48/2/1 75/2/1
f 77/3/1 49/3/1 76/3/1
f 78/3/1 51/3/1 50/3/1
f 79/2/1 52/2/1 51/2/1
f 79/3/1 51/3/1 78/3/1
f 80/3/1 53/3/1 52/3/1
f 80/2/1 52/2/1 79/2/1
f 81/3/1 53/3/1 80/3/1
f 82/3/1 55/3/1 54/3/1
f 83/2/1 56/2/1 55/2/1
f 83/3/1 55/3/1 82/3/1
f 84/3/1 57/3/1 56/3/1
f 84/2/1 56/2/1 83/2/1
f 85/3/1 57/3/1 84/3/1
f 86/3/1 59/3/1 58/3/1
f 87/2/1 60/2/1 59/2/1
f 87/3/1 59/3/1 86/3/1
f 88/2/1 60/2/1 87/2/1
f 89/3/1 62/3/1 61/3/1
f 90/3/1 62/3/1 89/3/1
f 94/8/1 92/8/1 91/8/1
f 95/8/1 94/8/1 93/8/1
f 96/8/1 92/8/1 94/8/1
f 96/8/1 94/8/1 95/8/1
f 107/7/1 98/7/1 97/7/1
f 108/7/1 98/7/1 107/7/1
f 109/7/1 98/7/1 108/7/1
f 110/7/1 100/7/1 99/7/1
f 111/7/1 100/7/1 110/7/1
f 112/7/1 100/7/1 111/7/1
f 113/7/1 100/7/1 112/7/1
f 114/7/1 102/7/1 101/7/1
f 115/7/1 102/7/1 114/7/1
f 116/7/1 102/7/1 115/7/1
f 117/7/1 102/7/1 116/7/1
f 118/7/1 104/7/1 103/7/1
f 119/7/1 104/7/1 118/7/1
f 120/7/1 104/7/1 119/7/1
f 121/6/1 106/6/1 105/6/1
f 122/6/1 106/6/1 121/6/1
f 125/9/1 124/9/1 123/9/1
f 126/9/1 124/9/1 125/9/1
f 127/9/1 124/9/1 126/9/1
f 128/9/1 124/9/1 127/9/1
f 129/8/2 130/8/2 132/8/2
f 131/8/2 132/8/2 133/8/2
f 132/8/2 130/8/2 134/8/2
f 133/8/2 132/8/2 134/8/2
f 135/7/2 136/7/2 145/7/2
f 145/7/2 136/7/2 146/7/2
f 146/7/2 136/7/2 147/7/2
f 137/7/2 138/7/2 148/7/2
f 148/7/2 138/7/2 149/7/2
f 149/7/2 138/7/2 150/7/2
f 150/7/2 138/7/2 151/7/2
f 139/7/2 140/7/2 152/7/2
f 152/7/2 140/7/2 153/7/2
f 153/7/2 140/7/2 154/7/2
f 154/7/2 140/7/2 155/7/2
f 141/7/2 142/7/2 156/7/2
f 156/7/2 142/7/2 157/7/2
f 157/7/2 142/7/2 158/7/2
f 143/6/2 144/6/2 159/6/2
f 159/6/2 144/6/2 160/6/2
f 161/8/2 162/8/2 163/8/2
f 163/8/2 162/8/2 164/8/2
f 161/8/2 163/8/2 165/8/2
f 164/8/2 162/8/2 166/8/2
f 161/8/2 165/8/2 167/8/2
f 165/8/2 166/8/2 167/8/2
f 166/8/2 162/8/2 168/8/2
f 167/8/2 166/8/2 168/8/2
f 169/8/2 170/8/2 171/8/2
f 171/8/2 170/8/2 172/8/2
f 174/1/2 175/1/2 194/1/2
f 175/3/2 176/3/2 195/3/2
f 194/1/2 175/1/2 195/1/2
f 195/3/2 176/3/2 196/3/2
f 196/3/2 176/3/2 197/3/2
f 197/3/2 176/3/2 198/3/2
f 177/3/2 178/3/2 199/3/2
f 173/9/2 174/9/2 200/9/2
f 174/1/2 194/1/2 200/1/2
f 194/3/2 195/3/2 201/3/2
f 200/1/2 194/1/2 201/1/2
f 195/3/2 196/3/2 201/3/2
f 201/3/2 196/3/2 202/3/2
f 196/1/2 197/1/2 203/1/2
f 202/3/2 196/3/2 203/3/2
f 197/3/2 198/3/2 204/3/2
f 203/1/2 197/1/2 204/1/2
f 204/3/2 198/3/2 205/3/2
f 205/3/2 198/3/2 206/3/2
f 199/3/2 178/3/2 207/3/2
f 173/9/2 200/9/2 208/9/2
f 201/3/2 202/3/2 209/3/2
f 208/9/2 200/9/2 209/9/2
f 200/3/2 201/3/2 209/3/2
f 202/1/2 203/1/2 210/1/2
f 209/3/2 202/3/2 210/3/2
f 203/1/2 204/1/2 210/1/2
f 204/1/2 205/1/2 210/1/2
f 205/3/2 206/3/2 211/3/2
f 210/1/2 205/1/2 211/1/2
f 211/3/2 206/3/2 212/3/2
f 207/3/2 178/3/2 213/3/2
f 178/2/2 179/2/2 214/2/2
f 213/3/2 178/3/2 214/3/2
f 179/3/2 180/3/2 215/3/2
f 214/2/2 179/2/2 215/2/2
f 215/3/2 180/3/2 216/3/2
f 181/3/2 182/3/2 217/3/2
f 182/2/2 183/2/2 218/2/2
f 217/3/2 182/3/2 218/3/2
f 183/3/2 184/3/2 219/3/2
f 218/2/2 183/2/2 219/2/2
f 219/3/2 184/3/2 220/3/2
f 185/3/2 186/3/2 221/3/2
f 186/2/2 187/2/2 222/2/2
f 221/3/2 186/3/2 222/3/2
f 187/3/2 188/3/2 223/3/2
f 222/2/2 187/2/2 223/2/2
f 223/3/2 188/3/2 224/3/2
f 189/3/2 190/3/2 225/3/2
f 190/2/2 191/2/2 226/2/2
f 225/3/2 190/3/2 226/3/2
f 226/2/2 191/2/2 227/2/2
f 192/3/2 193/3/2 228/3/2
f 228/3/2 193/3/2 229/3/2
f 230/5/2 231/5/2 242/5/2
f 231/10/2 232/10/2 243/10/2
f 242/5/2 231/5/2 243/5/2
f 232/5/2 233/5/2 244/5/2
f 243/10/2 232/10/2 244/10/2
f 244/5/2 233/5/2 245/5/2
f 242/10/2 243/10/2 246/10/2
f 243/10/2 244/10/2 246/10/2
f 244/10/2 245/10/2 246/10/2
f 246/10/2 245/10/2 247/10/2
f 247/10/2 245/10/2 248/10/2
f 248/10/2 245/10/2 249/10/2
f 246/5/2 247/5/2 250/5/2
f 247/10/2 248/10/2 251/10/2
f 250/5/2 247/5/2 251/5/2
f 248/5/2 249/5/2 252/5/2
f 251/10/2 248/10/2 252/10/2
f 252/5/2 249/5/2 253/5/2
f 234/9/2 235/9/2 254/9/2
f 254/9/2 235/9/2 255/9/2
f 236/9/2 237/9/2 256/9/2
f 256/9/2 237/9/2 257/9/2
f 238/9/2 239/9/2 258/9/2
f 258/9/2 239/9/2 259/9/2
f 240/9/2 241/9/2 260/9/2
f 260/9/2 241/9/2 261/9/2
f 262/9/2 263/9/2 264/9/2
f 264/9/2 263/9/2 265/9/2
f 265/9/2 263/9/2 266/9/2
f 266/9/2 263/9/2 267/9/2
f 270/9/3 269/9/3 268/9/3
f 271/9/3 269/9/3 270/9/3
f 272/9/3 270/9/3 268/9/3
f 272/4/3 271/4/3 270/4/3
f 273/9/3 269/9/3 271/9/3
f 273/4/3 271/4/3 272/4/3
f 274/9/3 272/9/3 268/9/3
f 274/9/3 273/9/3 272/9/3
f 275/9/3 269/9/3 273/9/3
f 275/9/3 273/9/3 274/9/3
f 280/5/3 277/5/3 276/5/3
f 281/10/3 278/10/3 277/10/3
f 281/5/3 277/5/3 280/5/3
f 282/5/3 279/5/3 278/5/3
f 282/10/3 278/10/3 281/10/3
f 283/5/3 279/5/3 282/5/3
f 284/5/3 280/5/3 276/5/3
f 285/5/3 280/5/3 284/5/3
f 286/5/3 279/5/3 283/5/3
f 287/5/3 279/5/3 286/5/3
f 288/10/3 285/10/3 284/10/3
f 289/10/3 285/10/3 288/10/3
f 290/10/3 287/10/3 286/10/3
f 291/10/3 287/10/3 290/10/3
f 292/5/3 289/5/3 288/5/3
f 295/5/3 291/5/3 290/5/3
f 296/5/3 292/5/3 288/5/3
f 296/5/3 293/5/3 292/5/3
f 297/10/3 294/10/3 293/10/3
f 297/5/3 293/5/3 296/5/3
f 298/5/3 295/5/3 294/5/3
f 298/10/3 294/10/3 297/10/3
f 299/5/3 291/5/3 295/5/3
f 299/5/3 295/5/3 298/5/3
f 304/8/3 303/8/3 302/8/3
f 305/8/3 303/8/3 304/8/3
f 306/8/3 301/8/3 300/8/3
f 307/8/3 301/8/3 306/8/3
f 310/8/3 309/8/3 308/8/3
f 311/8/3 309/8/3 310/8/3
f 314/8/3 313/8/3 312/8/3
f 315/8/3 313/8/3 314/8/3
f 316/9/3 315/9/3 314/9/3
f 317/9/3 315/9/3 316/9/3
f 320/9/3 319/9/3 318/9/3
f 321/9/3 319/9/3 320/9/3
f 324/7/3 323/7/3 322/7/3
f 325/7/3 323/7/3 324/7/3
f 328/9/3 327/9/3 326/9/3
f 329/9/3 327/9/3 328/9/3
f 330/9/3 328/9/3 326/9/3
f 331/9/3 328/9/3 330/9/3
f 334/9/3 333/9/3 332/9/3
f 335/9/3 327/9/3 329/9/3
f 336/9/3 334/9/3 332/9/3
f 336/9/3 335/9/3 334/9/3
f 337/9/3 327/9/3 335/9/3
f 337/9/3 335/9/3 336/9/3
f 340/9/3 339/9/3 338/9/3
f 341/9/3 339/9/3 340/9/3
f 342/9/3 340/9/3 338/9/3
f 343/9/3 340/9/3 342/9/3
f 346/9/3 345/9/3 344/9/3
f 347/9/3 339/9/3 341/9/3
f 348/9/3 346/9/3 344/9/3
f 348/9/3 347/9/3 346/9/3
f 349/9/3 339/9/3 347/9/3
f 349/9/3 347/9/3 348/9/3
f 352/9/3 351/9/3 350/9/3
f 353/9/3 351/9/3 352/9/3
f 354/9/3 352/9/3 350/9/3
f 355/9/3 352/9/3 354/9/3
f 358/9/3 357/9/3 356/9/3
f 359/9/3 351/9/3 353/9/3
f 360/9/3 358/9/3 356/9/3
f 360/9/3 359/9/3 358/9/3
f 361/9/3 351/9/3 359/9/3
f 361/9/3 359/9/3 360/9/3
f 365/9/3 363/9/3 362/9/3
f 366/9/3 363/9/3 365/9/3
f 367/9/3 363/9/3 366/9/3
f 368/8/3 365/8/3 364/8/3
f 368/8/3 366/8/3 365/8/3
f 369/8/3 366/8/3 368/8/3
f 370/9/3 363/9/3 367/9/3
f 371/8/3 368/8/3 364/8/3
f 373/9/3 363/9/3 370/9/3
f 374/8/3 372/8/3 371/8/3
f 374/8/3 371/8/3 364/8/3
f 375/8/3 372/8/3 374/8/3
f 376/8/3 372/8/3 375/8/3
f 377/9/3 363/9/3 373/9/3
f 378/9/3 376/9/3 375/9/3
f 378/9/3 377/9/3 376/9/3
f 379/9/3 363/9/3 377/9/3
f 379/9/3 377/9/3 378/9/3
f 380/8/4 381/8/4 382/8/4
f 382/8/4 381/8/4 383/8/4
f 384/8/4 385/8/4 386/8/4
f 386/8/4 385/8/4 387/8/4
f 388/8/4 389/8/4 390/8/4
f 390/8/4 389/8/4 391/8/4
f 392/5/4 393/5/4 396/5/4
f 393/10/4 394/10/4 397/10/4
f 396/5/4 393/5/4 397/5/4
f 394/5/4 395/5/4 398/5/4
f 397/10/4 394/10/4 398/10/4
f 398/5/4 395/5/4 399/5/4
f 392/5/4 396/5/4 400/5/4
f 400/5/4 396/5/4 401/5/4
f 399/5/4 395/5/4 402/5/4
f 402/5/4 395/5/4 403/5/4
f 400/10/4 401/10/4 404/10/4
f 404/10/4 401/10/4 405/10/4
f 402/10/4 403/10/4 406/10/4
f 406/10/4 403/10/4 407/10/4
f 404/5/4 405/5/4 408/5/4
f 406/5/4 407/5/4 411/5/4
f 404/5/4 408/5/4 414/5/4
f 408/5/4 409/5/4 414/5/4
f 409/10/4 410/10/4 415/10/4
f 414/5/4 409/5/4 415/5/4
f 410/5/4 411/5/4 416/5/4
f 415/10/4 410/10/4 416/10/4
f 411/5/4 407/5/4 417/5/4
f 416/5/4 411/5/4 417/5/4
f 412/9/4 413/9/4 418/9/4
f 418/9/4 413/9/4 419/9/4
f 420/9/4 421/9/4 422/9/4
f 422/9/4 421/9/4 423/9/4
f 420/9/4 422/9/4 424/9/4
f 424/9/4 422/9/4 425/9/4
f 426/9/4 427/9/4 428/9/4
f 423/9/4 421/9/4 429/9/4
f 426/9/4 428/9/4 430/9/4
f 428/9/4 429/9/4 430/9/4
f 429/9/4 421/9/4 431/9/4
f 430/9/4 429/9/4 431/9/4
f 432/9/4 433/9/4 434/9/4
f 434/9/4 433/9/4 435/9/4
f 432/9/4 434/9/4 436/9/4
f 436/9/4 434/9/4 437/9/4
f 438/9/4 439/9/4 440/9/4
f 435/9/4 433/9/4 441/9/4
f 438/9/4 440/9/4 442/9/4
f 440/9/4 441/9/4 442/9/4
f 441/9/4 433/9/4 443/9/4
f 442/9/4 441/9/4 443/9/4
f 444/9/4 445/9/4 446/9/4
f 446/9/4 445/9/4 447/9/4
f 444/9/4 446/9/4 448/9/4
f 448/9/4 446/9/4 449/9/4
f 450/9/4 451/9/4 452/9/4
f 447/9/4 445/9/4 453/9/4
f 450/9/4 452/9/4 454/9/4
f 452/9/4 453/9/4 454/9/4
f 453/9/4 445/9/4 455/9/4
f 454/9/4 453/9/4 455/9/4
f 456/9/4 457/9/4 459/9/4
f 459/9/4 457/9/4 460/9/4
f 460/9/4 457/9/4 461/9/4
f 458/8/4 459/8/4 462/8/4
f 459/8/4 460/8/4 462/8/4
f 462/8/4 460/8/4 463/8/4
f 461/9/4 457/9/4 464/9/4
f 458/8/4 462/8/4 465/8/4
f 464/9/4 457/9/4 467/9/4
f 465/8/4 466/8/4 468/8/4
f 458/8/4 465/8/4 468/8/4
f 468/8/4 466/8/4 469/8/4
f 469/8/4 466/8/4 470/8/4
f 467/9/4 457/9/4 471/9/4
f 469/9/4 470/9/4 472/9/4
f 470/9/4 471/9/4 472/9/4
f 471/9/4 457/9/4 473/9/4
f 472/9/4 471/9/4 473/9/4
f 474/3/4 475/3/4 477/3/4
f 477/3/4 475/3/4 478/3/4
f 476/6/4 477/6/4 479/6/4
f 477/8/4 478/8/4 480/8/4
f 479/6/4 477/6/4 480/6/4
f 480/8/4 478/8/4 481/8/4
f 480/3/4 481/3/4 482/3/4
f 482/3/4 481/3/4 483/3/4
f 486/8/5 485/8/5 484/8/5
f 487/8/5 485/8/5 486/8/5
f 491/8/5 489/8/5 488/8/5
f 492/9/5 490/9/5 489/9/5
f 492/8/5 489/8/5 491/8/5
f 493/9/5 490/9/5 492/9/5
f 494/9/5 490/9/5 493/9/5
f 497/8/5 496/8/5 495/8/5
f 498/8/5 496/8/5 497/8/5
f 501/8/5 500/8/5 499/8/5
f 502/8/5 500/8/5 501/8/5
f 507/5/5 504/5/5 503/5/5
f 508/10/5 505/10/5 504/10/5
f 508/5/5 504/5/5 507/5/5
f 509/5/5 506/5/5 505/5/5
f 509/10/5 505/10/5 508/10/5
f 510/5/5 506/5/5 509/5/5
f 511/10/5 508/10/5 507/10/5
f 511/10/5 509/10/5 508/10/5
f 511/10/5 510/10/5 509/10/5
f 512/10/5 510/10/5 511/10/5
f 513/10/5 511/10/5 507/10/5
f 514/10/5 510/10/5 512/10/5
f 515/10/5 513/10/5 507/10/5
f 515/10/5 514/10/5 513/10/5
f 516/10/5 514/10/5 515/10/5
f 517/10/5 510/10/5 514/10/5
f 517/10/5 514/10/5 516/10/5
f 518/10/5 510/10/5 517/10/5
f 519/5/5 516/5/5 515/5/5
f 520/10/5 517/10/5 516/10/5
f 520/5/5 516/5/5 519/5/5
f 521/5/5 518/5/5 517/5/5
f 521/10/5 517/10/5 520/10/5
f 522/5/5 518/5/5 521/5/5
f 526/7/5 524/7/5 523/7/5
f 527/7/5 524/7/5 526/7/5
f 529/9/5 526/9/5 525/9/5
f 529/9/5 528/9/5 527/9/5
f 529/9/5 527/9/5 526/9/5
f 530/9/5 528/9/5 529/9/5
f 531/9/5 528/9/5 530/9/5
f 532/9/5 528/9/5 531/9/5
f 534/7/5 531/7/5 530/7/5
f 535/7/5 531/7/5 534/7/5
f 537/9/5 534/9/5 533/9/5
f 537/9/5 536/9/5 535/9/5
f 537/9/5 535/9/5 534/9/5
f 538/9/5 536/9/5 537/9/5
f 539/9/5 536/9/5 538/9/5
f 540/9/5 536/9/5 539/9/5
f 542/7/5 539/7/5 538/7/5
f 543/7/5 539/7/5 542/7/5
f 545/9/5 542/9/5 541/9/5
f 545/9/5 544/9/5 543/9/5
f 545/9/5 543/9/5 542/9/5
f 546/9/5 544/9/5 545/9/5
f 547/9/5 544/9/5 546/9/5
f 548/9/5 544/9/5 547/9/5
f 551/7/5 547/7/5 546/7/5
f 552/7/5 547/7/5 551/7/5
f 555/9/5 550/9/5 549/9/5
f 556/9/5 550/9/5 555/9/5
f 559/9/5 554/9/5 553/9/5
f 560/9/5 554/9/5 559/9/5
f 561/6/5 558/6/5 557/6/5
f 562/6/5 558/6/5 561/6/5
f 565/9/5 564/9/5 563/9/5
f 566/9/5 564/9/5 565/9/5
f 567/9/5 564/9/5 566/9/5
f 568/3/5 566/3/5 565/3/5
f 569/3/5 566/3/5 568/3/5
f 570/1/5 567/1/5 566/1/5
f 570/3/5 566/3/5 569/3/5
f 571/1/5 567/1/5 570/1/5
f 572/1/5 569/1/5 568/1/5
f 572/3/5 570/3/5 569/3/5
f 572/3/5 571/3/5 570/3/5
f 573/3/5 571/3/5 572/3/5
f 574/1/5 572/1/5 568/1/5
f 574/1/5 573/1/5 572/1/5
f 575/3/5 571/3/5 573/3/5
f 575/1/5 573/1/5 574/1/5
f 576/1/5 574/1/5 568/1/5
f 577/3/5 575/3/5 574/3/5
f 577/1/5 574/1/5 576/1/5
f 578/3/5 577/3/5 576/3/5
f 579/3/5 575/3/5 577/3/5
f 579/3/5 577/3/5 578/3/5
f 580/3/5 571/3/5 575/3/5
f 580/3/5 575/3/5 579/3/5
f 581/3/5 571/3/5 580/3/5
f 586/3/5 583/3/5 582/3/5
f 586/3/5 585/3/5 584/3/5
f 586/3/5 584/3/5 583/3/5
f 587/3/5 585/3/5 586/3/5
f 588/3/5 585/3/5 587/3/5
f 589/3/5 585/3/5 588/3/5
f 590/2/5 587/2/5 586/2/5
f 591/2/5 587/2/5 590/2/5
f 592/2/5 589/2/5 588/2/5
f 593/2/5 589/2/5 592/2/5
f 594/3/5 591/3/5 590/3/5
f 595/3/5 591/3/5 594/3/5
f 596/3/5 593/3/5 592/3/5
f 597/3/5 593/3/5 596/3/5
f 602/3/5 599/3/5 598/3/5
f 603/3/5 599/3/5 602/3/5
f 604/3/5 601/3/5 600/3/5
f 605/3/5 601/3/5 604/3/5
f 606/2/5 603/2/5 602/2/5
f 607/2/5 603/2/5 606/2/5
f 608/2/5 605/2/5 604/2/5
f 609/2/5 605/2/5 608/2/5
f 610/3/5 607/3/5 606/3/5
f 611/3/5 607/3/5 610/3/5
f 612/3/5 609/3/5 608/3/5
f 613/3/5 609/3/5 612/3/5
f 618/3/5 615/3/5 614/3/5
f 619/3/5 615/3/5 618/3/5
f 620/3/5 617/3/5 616/3/5
f 621/3/5 617/3/5 620/3/5
f 622/2/5 619/2/5 618/2/5
f 623/2/5 619/2/5 622/2/5
f 624/2/5 621/2/5 620/2/5
f 625/2/5 621/2/5 624/2/5
f 626/3/5 623/3/5 622/3/5
f 627/3/5 623/3/5 626/3/5
f 628/3/5 625/3/5 624/3/5
f 629/3/5 625/3/5 628/3/5
f 634/3/5 631/3/5 630/3/5
f 635/3/5 631/3/5 634/3/5
f 636/3/5 633/3/5 632/3/5
f 637/3/5 633/3/5 636/3/5
f 638/2/5 635/2/5 634/2/5
f 639/2/5 635/2/5 638/2/5
f 640/2/5 637/2/5 636/2/5
f 641/2/5 637/2/5 640/2/5
f 646/3/5 643/3/5 642/3/5
f 647/3/5 643/3/5 646/3/5
f 648/3/5 645/3/5 644/3/5
f 649/3/5 645/3/5 648/3/5
f 650/8/6 651/8/6 653/8/6
f 651/9/6 652/9/6 654/9/6
f 653/8/6 651/8/6 654/8/6
f 654/9/6 652/9/6 655/9/6
f 655/9/6 652/9/6 656/9/6
f 657/8/6 658/8/6 659/8/6
f 659/8/6 658/8/6 660/8/6
f 657/8/6 659/8/6 661/8/6
f 660/8/6 658/8/6 662/8/6
f 657/8/6 661/8/6 663/8/6
f 661/8/6 662/8/6 663/8/6
f 662/8/6 658/8/6 664/8/6
f 663/8/6 662/8/6 664/8/6
f 665/9/6 666/9/6 667/9/6
f 667/9/6 666/9/6 668/9/6
f 669/9/6 670/9/6 671/9/6
f 671/9/6 670/9/6 672/9/6
f 671/3/6 672/3/6 673/3/6
f 673/3/6 672/3/6 674/3/6
f 671/3/6 673/3/6 675/3/6
f 673/1/6 674/1/6 676/1/6
f 675/3/6 673/3/6 676/3/6
f 671/3/6 675/3/6 677/3/6
f 675/1/6 676/1/6 677/1/6
f 676/1/6 674/1/6 678/1/6
f 677/1/6 676/1/6 678/1/6
f 671/3/6 677/3/6 679/3/6
f 677/3/6 678/3/6 679/3/6
f 679/3/6 678/3/6 680/3/6
f 680/3/6 678/3/6 681/3/6
f 681/3/6 678/3/6 682/3/6
f 683/3/6 684/3/6 687/3/6
f 684/8/6 685/8/6 688/8/6
f 687/3/6 684/3/6 688/3/6
f 685/3/6 686/3/6 689/3/6
f 688/8/6 685/8/6 689/8/6
f 689/3/6 686/3/6 690/3/6
f 687/2/6 688/2/6 691/2/6
f 688/8/6 689/8/6 692/8/6
f 691/2/6 688/2/6 692/2/6
f 689/2/6 690/2/6 693/2/6
f 692/8/6 689/8/6 693/8/6
f 693/2/6 690/2/6 694/2/6
f 691/3/6 692/3/6 695/3/6
f 692/3/6 693/3/6 695/3/6
f 693/3/6 694/3/6 695/3/6
f 695/3/6 694/3/6 696/3/6
f 697/3/6 698/3/6 699/3/6
f 699/3/6 698/3/6 700/3/6
f 700/3/6 698/3/6 701/3/6
f 701/3/6 698/3/6 702/3/6
f 699/2/6 700/2/6 703/2/6
f 700/8/6 701/8/6 704/8/6
f 703/2/6 700/2/6 704/2/6
f 701/2/6 702/2/6 705/2/6
f 704/8/6 701/8/6 705/8/6
f 705/2/6 702/2/6 706/2/6
f 703/3/6 704/3/6 707/3/6
f 704/3/6 705/3/6 707/3/6
f 705/3/6 706/3/6 707/3/6
f 707/3/6 706/3/6 708/3/6
f 709/3/6 710/3/6 711/3/6
f 711/3/6 710/3/6 712/3/6
f 712/3/6 710/3/6 713/3/6
f 713/3/6 710/3/6 714/3/6
f 711/2/6 712/2/6 715/2/6
f 712/8/6 713/8/6 716/8/6
f 715/2/6 712/2/6 716/2/6
f 713/2/6 714/2/6 717/2/6
f 716/8/6 713/8/6 717/8/6
f 717/2/6 714/2/6 718/2/6
f 715/3/6 716/3/6 719/3/6
f 716/3/6 717/3/6 719/3/6
f 717/3/6 718/3/6 719/3/6
f 719/3/6 718/3/6 720/3/6
f 721/3/6 722/3/6 723/3/6
f 723/3/6 722/3/6 724/3/6
f 724/3/6 722/3/6 725/3/6
f 725/3/6 722/3/6 726/3/6
f 723/2/6 724/2/6 727/2/6
f 724/8/6 725/8/6 728/8/6
f 727/2/6 724/2/6 728/2/6
f 725/2/6 726/2/6 729/2/6
f 728/8/6 725/8/6 729/8/6
f 729/2/6 726/2/6 730/2/6
f 731/3/6 732/3/6 735/3/6
f 732/8/6 733/8/6 736/8/6
f 735/3/6 732/3/6 736/3/6
f 733/3/6 734/3/6 737/3/6
f 736/8/6 733/8/6 737/8/6
f 737/3/6 734/3/6 738/3/6
f 739/5/6 740/5/6 743/5/6
f 740/10/6 741/10/6 744/10/6
f 743/5/6 740/5/6 744/5/6
f 741/5/6 742/5/6 745/5/6
f 744/10/6 741/10/6 745/10/6
f 745/5/6 742/5/6 746/5/6
f 743/10/6 744/10/6 747/10/6
f 744/10/6 745/10/6 747/10/6
f 745/10/6 746/10/6 747/10/6
f 747/10/6 746/10/6 748/10/6
f 748/10/6 746/10/6 749/10/6
f 749/10/6 746/10/6 750/10/6
f 747/5/6 748/5/6 751/5/6
f 748/10/6 749/10/6 752/10/6
f 751/5/6 748/5/6 752/5/6
f 749/5/6 750/5/6 753/5/6
f 752/10/6 749/10/6 753/10/6
f 753/5/6 750/5/6 754/5/6
f 755/9/6 756/9/6 757/9/6
f 757/9/6 756/9/6 758/9/6
f 759/9/6 760/9/6 761/9/6
f 761/9/6 760/9/6 762/9/6
f 763/9/6 764/9/6 765/9/6
f 765/9/6 764/9/6 766/9/6
f 767/9/6 768/9/6 769/9/6
f 769/9/6 768/9/6 770/9/6
