# MagicaVoxel @ Ephtracy

# group
o tv_table

# material
mtllib bedroom_oldie-4-tv_table.mtl
usemtl palette

# normals
vn -1 0 0
vn 1 0 0
vn 0 0 1
vn 0 0 -1
vn 0 -1 0
vn 0 1 0

# texcoords
vt 0.236328 0.5
vt 0.240234 0.5
vt 0.470703 0.5

# verts
v -0.5 0.6 9.1
v -0.5 0.6 8.4
v -0.5 0.7 9.1
v -0.5 0.7 8.4
v -0.4 0 9
v -0.4 0 8.9
v -0.4 0 8.5
v -0.4 0 8.4
v -0.4 0.2 8.6
v -0.4 0.2 8.5
v -0.4 0.3 8.9
v -0.4 0.3 8.6
v -0.4 0.6 9
v -0.4 0.6 8.4
v -1.49012e-008 0.4 9.1
v -1.49012e-008 0.4 9
v -1.49012e-008 0.5 9.1
v -1.49012e-008 0.5 9
v 0.4 0 9
v 0.4 0 8.9
v 0.4 0 8.5
v 0.4 0 8.4
v 0.4 0.2 8.5
v 0.4 0.2 8.4
v 0.4 0.3 9
v 0.4 0.3 8.9
v -0.3 0 9
v -0.3 0 8.9
v -0.3 0 8.5
v -0.3 0 8.4
v -0.3 0.2 8.5
v -0.3 0.2 8.4
v -0.3 0.3 9
v -0.3 0.3 8.9
v 0.1 0.4 9.1
v 0.1 0.4 9
v 0.1 0.5 9.1
v 0.1 0.5 9
v 0.4 0.2 8.6
v 0.4 0.2 8.5
v 0.4 0.3 8.6
v 0.4 0.3 8.5
v 0.5 0 9
v 0.5 0 8.9
v 0.5 0 8.5
v 0.5 0 8.4
v 0.5 0.3 8.9
v 0.5 0.3 8.5
v 0.5 0.6 9
v 0.5 0.6 8.4
v 0.6 0.6 9.1
v 0.6 0.6 8.4
v 0.6 0.7 9.1
v 0.6 0.7 8.4
v -0.5 0.6 9.1
v -0.5 0.7 9.1
v -1.49012e-008 0.4 9.1
v -1.49012e-008 0.5 9.1
v 0.1 0.4 9.1
v 0.1 0.5 9.1
v 0.6 0.6 9.1
v 0.6 0.7 9.1
v -0.4 0 9
v -0.4 0.6 9
v -0.3 0 9
v -0.3 0.3 9
v -0.3 0.6 9
v -0.2 0.3 9
v -0.2 0.6 9
v -1.49012e-008 0.4 9
v -1.49012e-008 0.5 9
v 0.1 0.4 9
v 0.1 0.5 9
v 0.3 0.3 9
v 0.3 0.6 9
v 0.4 0 9
v 0.4 0.3 9
v 0.4 0.6 9
v 0.5 0 9
v 0.5 0.6 9
v -0.4 0.2 8.6
v -0.4 0.3 8.6
v 0.4 0.2 8.6
v 0.4 0.3 8.6
v -0.4 0 8.5
v -0.4 0.2 8.5
v -0.3 0 8.5
v -0.3 0.2 8.5
v 0.4 0 8.5
v 0.4 0.2 8.5
v 0.4 0.3 8.5
v 0.5 0 8.5
v 0.5 0.3 8.5
v -0.4 0 8.9
v -0.4 0.3 8.9
v -0.3 0 8.9
v -0.3 0.3 8.9
v 0.4 0 8.9
v 0.4 0.3 8.9
v 0.5 0 8.9
v 0.5 0.3 8.9
v -0.5 0.6 8.4
v -0.5 0.7 8.4
v -0.4 0 8.4
v -0.4 0.6 8.4
v -0.3 0 8.4
v -0.3 0.2 8.4
v 0.4 0 8.4
v 0.4 0.2 8.4
v 0.5 0 8.4
v 0.5 0.6 8.4
v 0.6 0.6 8.4
v 0.6 0.7 8.4
v -0.4 0 9
v -0.3 0 9
v 0.4 0 9
v 0.5 0 9
v -0.4 0 8.9
v -0.3 0 8.9
v 0.4 0 8.9
v 0.5 0 8.9
v -0.4 0 8.5
v -0.3 0 8.5
v 0.4 0 8.5
v 0.5 0 8.5
v -0.4 0 8.4
v -0.3 0 8.4
v 0.4 0 8.4
v 0.5 0 8.4
v -0.4 0.2 8.6
v 0.4 0.2 8.6
v -0.4 0.2 8.5
v -0.3 0.2 8.5
v 0.4 0.2 8.5
v -0.3 0.2 8.4
v 0.4 0.2 8.4
v -0.3 0.3 9
v -0.2 0.3 9
v 0.3 0.3 9
v 0.4 0.3 9
v -0.4 0.3 8.9
v -0.3 0.3 8.9
v -0.2 0.3 8.9
v 0.3 0.3 8.9
v 0.4 0.3 8.9
v 0.5 0.3 8.9
v -0.4 0.3 8.6
v 0.4 0.3 8.6
v 0.4 0.3 8.5
v 0.5 0.3 8.5
v -1.49012e-008 0.4 9.1
v 0.1 0.4 9.1
v -1.49012e-008 0.4 9
v 0.1 0.4 9
v -0.5 0.6 9.1
v 0.6 0.6 9.1
v -0.4 0.6 9
v -0.3 0.6 9
v -0.2 0.6 9
v 0.3 0.6 9
v 0.4 0.6 9
v 0.5 0.6 9
v -0.5 0.6 8.4
v -0.4 0.6 8.4
v 0.5 0.6 8.4
v 0.6 0.6 8.4
v -1.49012e-008 0.5 9.1
v 0.1 0.5 9.1
v -1.49012e-008 0.5 9
v 0.1 0.5 9
v -0.5 0.7 9.1
v 0.6 0.7 9.1
v -0.5 0.7 8.4
v 0.6 0.7 8.4

# faces
f 3/1/1 2/1/1 1/1/1
f 4/1/1 2/1/1 3/1/1
f 10/1/1 8/1/1 7/1/1
f 11/1/1 6/1/1 5/1/1
f 12/1/1 10/1/1 9/1/1
f 13/1/1 11/1/1 5/1/1
f 13/1/1 12/1/1 11/1/1
f 14/1/1 10/1/1 12/1/1
f 14/1/1 12/1/1 13/1/1
f 14/1/1 8/1/1 10/1/1
f 17/3/1 16/3/1 15/3/1
f 18/3/1 16/3/1 17/3/1
f 23/1/1 22/1/1 21/1/1
f 24/1/1 22/1/1 23/1/1
f 25/1/1 20/1/1 19/1/1
f 26/1/1 20/1/1 25/1/1
f 29/1/2 30/1/2 31/1/2
f 31/1/2 30/1/2 32/1/2
f 27/1/2 28/1/2 33/1/2
f 33/1/2 28/1/2 34/1/2
f 35/3/2 36/3/2 37/3/2
f 37/3/2 36/3/2 38/3/2
f 39/1/2 40/1/2 41/1/2
f 41/1/2 40/1/2 42/1/2
f 43/1/2 44/1/2 47/1/2
f 45/1/2 46/1/2 48/1/2
f 43/1/2 47/1/2 49/1/2
f 47/1/2 48/1/2 49/1/2
f 48/1/2 46/1/2 50/1/2
f 49/1/2 48/1/2 50/1/2
f 51/1/2 52/1/2 53/1/2
f 53/1/2 52/1/2 54/1/2
f 59/3/3 58/3/3 57/3/3
f 60/3/3 58/3/3 59/3/3
f 61/1/3 56/1/3 55/1/3
f 62/1/3 56/1/3 61/1/3
f 65/1/3 64/1/3 63/1/3
f 66/1/3 64/1/3 65/1/3
f 67/1/3 64/1/3 66/1/3
f 68/2/3 67/2/3 66/2/3
f 69/2/3 67/2/3 68/2/3
f 70/1/3 69/1/3 68/1/3
f 71/1/3 69/1/3 70/1/3
f 72/1/3 70/1/3 68/1/3
f 73/1/3 69/1/3 71/1/3
f 74/1/3 72/1/3 68/1/3
f 74/1/3 73/1/3 72/1/3
f 75/1/3 69/1/3 73/1/3
f 75/1/3 73/1/3 74/1/3
f 77/2/3 75/2/3 74/2/3
f 78/2/3 75/2/3 77/2/3
f 79/1/3 77/1/3 76/1/3
f 79/1/3 78/1/3 77/1/3
f 80/1/3 78/1/3 79/1/3
f 83/1/3 82/1/3 81/1/3
f 84/1/3 82/1/3 83/1/3
f 87/1/3 86/1/3 85/1/3
f 88/1/3 86/1/3 87/1/3
f 92/1/3 90/1/3 89/1/3
f 92/1/3 91/1/3 90/1/3
f 93/1/3 91/1/3 92/1/3
f 94/1/4 95/1/4 96/1/4
f 96/1/4 95/1/4 97/1/4
f 98/1/4 99/1/4 100/1/4
f 100/1/4 99/1/4 101/1/4
f 102/1/4 103/1/4 105/1/4
f 104/1/4 105/1/4 106/1/4
f 106/1/4 105/1/4 107/1/4
f 107/1/4 105/1/4 109/1/4
f 108/1/4 109/1/4 110/1/4
f 105/1/4 103/1/4 111/1/4
f 110/1/4 109/1/4 111/1/4
f 109/1/4 105/1/4 111/1/4
f 111/1/4 103/1/4 112/1/4
f 112/1/4 103/1/4 113/1/4
f 118/1/5 115/1/5 114/1/5
f 119/1/5 115/1/5 118/1/5
f 120/1/5 117/1/5 116/1/5
f 121/1/5 117/1/5 120/1/5
f 126/1/5 123/1/5 122/1/5
f 127/1/5 123/1/5 126/1/5
f 128/1/5 125/1/5 124/1/5
f 129/1/5 125/1/5 128/1/5
f 132/1/5 131/1/5 130/1/5
f 133/1/5 131/1/5 132/1/5
f 134/1/5 131/1/5 133/1/5
f 135/1/5 134/1/5 133/1/5
f 136/1/5 134/1/5 135/1/5
f 142/2/5 138/2/5 137/2/5
f 143/1/5 139/1/5 138/1/5
f 143/2/5 138/2/5 142/2/5
f 144/2/5 140/2/5 139/2/5
f 144/1/5 139/1/5 143/1/5
f 145/2/5 140/2/5 144/2/5
f 147/1/5 143/1/5 142/1/5
f 147/1/5 146/1/5 145/1/5
f 147/1/5 145/1/5 144/1/5
f 147/1/5 144/1/5 143/1/5
f 147/1/5 142/1/5 141/1/5
f 148/1/5 146/1/5 147/1/5
f 149/1/5 146/1/5 148/1/5
f 150/1/5 146/1/5 149/1/5
f 153/3/5 152/3/5 151/3/5
f 154/3/5 152/3/5 153/3/5
f 157/1/5 156/1/5 155/1/5
f 158/1/5 156/1/5 157/1/5
f 159/1/5 156/1/5 158/1/5
f 160/1/5 156/1/5 159/1/5
f 161/1/5 156/1/5 160/1/5
f 162/1/5 156/1/5 161/1/5
f 163/1/5 157/1/5 155/1/5
f 164/1/5 157/1/5 163/1/5
f 165/1/5 156/1/5 162/1/5
f 166/1/5 156/1/5 165/1/5
f 167/3/6 168/3/6 169/3/6
f 169/3/6 168/3/6 170/3/6
f 171/1/6 172/1/6 173/1/6
f 173/1/6 172/1/6 174/1/6
