# MagicaVoxel @ Ephtracy

# group
o chair

# material
mtllib bedroom_oldie-5-chair.mtl
usemtl palette

# normals
vn -1 0 0
vn 1 0 0
vn 0 0 1
vn 0 0 -1
vn 0 -1 0
vn 0 1 0

# texcoords
vt 0.232422 0.5
vt 0.630859 0.5
vt 0.634766 0.5

# verts
v -0.4 0 6.8
v -0.4 0 6.7
v -0.4 0 6.2
v -0.4 0 6.1
v -0.4 0.3 6.3
v -0.4 0.3 6.2
v -0.4 0.4 6.7
v -0.4 0.4 6.3
v -0.4 0.4 6.2
v -0.4 0.4 6.1
v -0.4 0.5 6.8
v -0.4 0.5 6.3
v -0.4 0.5 6.2
v -0.4 0.5 6.1
v -0.4 0.6 6.8
v -0.4 0.6 6.3
v -0.4 0.6 6.2
v -0.4 1.4 6.2
v -0.4 1.4 6.1
v -0.3 0.5 6.9
v -0.3 0.5 6.8
v -0.3 0.6 6.9
v -0.3 0.6 6.8
v -0.3 0.6 6.3
v -0.3 0.7 6.8
v -0.3 0.7 6.3
v 0.3 0 6.8
v 0.3 0 6.7
v 0.3 0 6.2
v 0.3 0 6.1
v 0.3 0.3 6.3
v 0.3 0.3 6.2
v 0.3 0.4 6.8
v 0.3 0.4 6.7
v 0.3 0.4 6.4
v 0.3 0.4 6.3
v 0.3 0.4 6.2
v 0.3 0.4 6.1
v 0.3 0.5 6.7
v 0.3 0.5 6.4
v 0.3 0.5 6.3
v 0.3 0.5 6.2
v 0.3 0.5 6.1
v 0.3 0.6 6.2
v 0.3 0.8 6.2
v 0.3 0.8 6.1
v 0.3 0.9 6.2
v 0.3 0.9 6.1
v 0.3 1 6.2
v 0.3 1 6.1
v 0.3 1.1 6.2
v 0.3 1.1 6.1
v 0.3 1.2 6.2
v 0.3 1.2 6.1
v 0.3 1.3 6.2
v 0.3 1.3 6.1
v 0.3 1.4 6.2
v 0.3 1.4 6.1
v -0.3 0 6.8
v -0.3 0 6.7
v -0.3 0 6.2
v -0.3 0 6.1
v -0.3 0.3 6.3
v -0.3 0.3 6.2
v -0.3 0.4 6.8
v -0.3 0.4 6.7
v -0.3 0.4 6.4
v -0.3 0.4 6.3
v -0.3 0.4 6.2
v -0.3 0.4 6.1
v -0.3 0.5 6.7
v -0.3 0.5 6.4
v -0.3 0.5 6.3
v -0.3 0.5 6.2
v -0.3 0.5 6.1
v -0.3 0.6 6.2
v -0.3 0.8 6.2
v -0.3 0.8 6.1
v -0.3 0.9 6.2
v -0.3 0.9 6.1
v -0.3 1 6.2
v -0.3 1 6.1
v -0.3 1.1 6.2
v -0.3 1.1 6.1
v -0.3 1.2 6.2
v -0.3 1.2 6.1
v -0.3 1.3 6.2
v -0.3 1.3 6.1
v -0.3 1.4 6.2
v -0.3 1.4 6.1
v 0.3 0.5 6.9
v 0.3 0.5 6.8
v 0.3 0.6 6.9
v 0.3 0.6 6.8
v 0.3 0.6 6.3
v 0.3 0.7 6.8
v 0.3 0.7 6.3
v 0.4 0 6.8
v 0.4 0 6.7
v 0.4 0 6.2
v 0.4 0 6.1
v 0.4 0.3 6.3
v 0.4 0.3 6.2
v 0.4 0.4 6.7
v 0.4 0.4 6.3
v 0.4 0.4 6.2
v 0.4 0.4 6.1
v 0.4 0.5 6.8
v 0.4 0.5 6.3
v 0.4 0.5 6.2
v 0.4 0.5 6.1
v 0.4 0.6 6.8
v 0.4 0.6 6.3
v 0.4 0.6 6.2
v 0.4 1.4 6.2
v 0.4 1.4 6.1
v -0.3 0.5 6.9
v -0.3 0.6 6.9
v -0.2 0.5 6.9
v -0.2 0.6 6.9
v -0.1 0.5 6.9
v -0.1 0.6 6.9
v 7.45058e-009 0.5 6.9
v 7.45058e-009 0.6 6.9
v 0.1 0.5 6.9
v 0.1 0.6 6.9
v 0.2 0.5 6.9
v 0.2 0.6 6.9
v 0.3 0.5 6.9
v 0.3 0.6 6.9
v -0.4 0 6.8
v -0.4 0.5 6.8
v -0.4 0.6 6.8
v -0.3 0 6.8
v -0.3 0.4 6.8
v -0.3 0.5 6.8
v -0.3 0.6 6.8
v -0.3 0.7 6.8
v -0.2 0.5 6.8
v -0.2 0.6 6.8
v -0.2 0.7 6.8
v -0.1 0.5 6.8
v -0.1 0.6 6.8
v -0.1 0.7 6.8
v 7.45058e-009 0.5 6.8
v 7.45058e-009 0.6 6.8
v 7.45058e-009 0.7 6.8
v 0.1 0.5 6.8
v 0.1 0.6 6.8
v 0.1 0.7 6.8
v 0.2 0.5 6.8
v 0.2 0.6 6.8
v 0.2 0.7 6.8
v 0.3 0 6.8
v 0.3 0.4 6.8
v 0.3 0.5 6.8
v 0.3 0.6 6.8
v 0.3 0.7 6.8
v 0.4 0 6.8
v 0.4 0.5 6.8
v 0.4 0.6 6.8
v -0.3 0.4 6.4
v -0.3 0.5 6.4
v 0.3 0.4 6.4
v 0.3 0.5 6.4
v -0.4 0.3 6.3
v -0.4 0.4 6.3
v -0.3 0.3 6.3
v -0.3 0.4 6.3
v 0.3 0.3 6.3
v 0.3 0.4 6.3
v 0.4 0.3 6.3
v 0.4 0.4 6.3
v -0.4 0 6.2
v -0.4 0.3 6.2
v -0.4 0.6 6.2
v -0.4 1.4 6.2
v -0.3 0 6.2
v -0.3 0.3 6.2
v -0.3 0.6 6.2
v -0.3 0.8 6.2
v -0.3 0.9 6.2
v -0.3 1 6.2
v -0.3 1.1 6.2
v -0.3 1.2 6.2
v -0.3 1.3 6.2
v -0.3 1.4 6.2
v 0.3 0 6.2
v 0.3 0.3 6.2
v 0.3 0.6 6.2
v 0.3 0.8 6.2
v 0.3 0.9 6.2
v 0.3 1 6.2
v 0.3 1.1 6.2
v 0.3 1.2 6.2
v 0.3 1.3 6.2
v 0.3 1.4 6.2
v 0.4 0 6.2
v 0.4 0.3 6.2
v 0.4 0.6 6.2
v 0.4 1.4 6.2
v -0.4 0 6.7
v -0.4 0.4 6.7
v -0.3 0 6.7
v -0.3 0.4 6.7
v -0.3 0.5 6.7
v 0.3 0 6.7
v 0.3 0.4 6.7
v 0.3 0.5 6.7
v 0.4 0 6.7
v 0.4 0.4 6.7
v -0.3 0.4 6.3
v -0.3 0.5 6.3
v -0.3 0.6 6.3
v -0.3 0.7 6.3
v -0.2 0.5 6.3
v -0.2 0.6 6.3
v -0.2 0.7 6.3
v -0.1 0.5 6.3
v -0.1 0.6 6.3
v -0.1 0.7 6.3
v 7.45058e-009 0.5 6.3
v 7.45058e-009 0.6 6.3
v 7.45058e-009 0.7 6.3
v 0.1 0.5 6.3
v 0.1 0.6 6.3
v 0.1 0.7 6.3
v 0.2 0.5 6.3
v 0.2 0.6 6.3
v 0.2 0.7 6.3
v 0.3 0.4 6.3
v 0.3 0.5 6.3
v 0.3 0.6 6.3
v 0.3 0.7 6.3
v -0.4 0.4 6.2
v -0.4 0.5 6.2
v -0.3 0.4 6.2
v -0.3 0.5 6.2
v -0.3 0.6 6.2
v -0.2 0.5 6.2
v -0.2 0.6 6.2
v -0.1 0.5 6.2
v -0.1 0.6 6.2
v 7.45058e-009 0.5 6.2
v 7.45058e-009 0.6 6.2
v 0.1 0.5 6.2
v 0.1 0.6 6.2
v 0.2 0.5 6.2
v 0.2 0.6 6.2
v 0.3 0.4 6.2
v 0.3 0.5 6.2
v 0.3 0.6 6.2
v 0.4 0.4 6.2
v 0.4 0.5 6.2
v -0.4 0 6.1
v -0.4 0.4 6.1
v -0.4 0.5 6.1
v -0.4 1.4 6.1
v -0.3 0 6.1
v -0.3 0.4 6.1
v -0.3 0.5 6.1
v -0.3 0.8 6.1
v -0.3 0.9 6.1
v -0.3 1 6.1
v -0.3 1.1 6.1
v -0.3 1.2 6.1
v -0.3 1.3 6.1
v -0.3 1.4 6.1
v 0.3 0 6.1
v 0.3 0.4 6.1
v 0.3 0.5 6.1
v 0.3 0.8 6.1
v 0.3 0.9 6.1
v 0.3 1 6.1
v 0.3 1.1 6.1
v 0.3 1.2 6.1
v 0.3 1.3 6.1
v 0.3 1.4 6.1
v 0.4 0 6.1
v 0.4 0.4 6.1
v 0.4 0.5 6.1
v 0.4 1.4 6.1
v -0.4 0 6.8
v -0.3 0 6.8
v 0.3 0 6.8
v 0.4 0 6.8
v -0.4 0 6.7
v -0.3 0 6.7
v 0.3 0 6.7
v 0.4 0 6.7
v -0.4 0 6.2
v -0.3 0 6.2
v 0.3 0 6.2
v 0.4 0 6.2
v -0.4 0 6.1
v -0.3 0 6.1
v 0.3 0 6.1
v 0.4 0 6.1
v -0.4 0.3 6.3
v -0.3 0.3 6.3
v 0.3 0.3 6.3
v 0.4 0.3 6.3
v -0.4 0.3 6.2
v -0.3 0.3 6.2
v 0.3 0.3 6.2
v 0.4 0.3 6.2
v -0.3 0.4 6.8
v 0.3 0.4 6.8
v -0.4 0.4 6.7
v -0.3 0.4 6.7
v 0.3 0.4 6.7
v 0.4 0.4 6.7
v -0.3 0.4 6.4
v 0.3 0.4 6.4
v -0.4 0.4 6.3
v -0.3 0.4 6.3
v 0.3 0.4 6.3
v 0.4 0.4 6.3
v -0.3 0.5 6.9
v -0.2 0.5 6.9
v -0.1 0.5 6.9
v 7.45058e-009 0.5 6.9
v 0.1 0.5 6.9
v 0.2 0.5 6.9
v 0.3 0.5 6.9
v -0.3 0.5 6.8
v -0.2 0.5 6.8
v -0.1 0.5 6.8
v 7.45058e-009 0.5 6.8
v 0.1 0.5 6.8
v 0.2 0.5 6.8
v 0.3 0.5 6.8
v -0.3 0.5 6.7
v 0.3 0.5 6.7
v -0.3 0.5 6.4
v 0.3 0.5 6.4
v -0.3 0.5 6.3
v -0.2 0.5 6.3
v -0.1 0.5 6.3
v 7.45058e-009 0.5 6.3
v 0.1 0.5 6.3
v 0.2 0.5 6.3
v 0.3 0.5 6.3
v -0.4 0.5 6.2
v -0.3 0.5 6.2
v -0.2 0.5 6.2
v -0.1 0.5 6.2
v 7.45058e-009 0.5 6.2
v 0.1 0.5 6.2
v 0.2 0.5 6.2
v 0.3 0.5 6.2
v 0.4 0.5 6.2
v -0.4 0.5 6.1
v -0.3 0.5 6.1
v 0.3 0.5 6.1
v 0.4 0.5 6.1
v -0.3 0.8 6.2
v 0.3 0.8 6.2
v -0.3 0.8 6.1
v 0.3 0.8 6.1
v -0.3 1 6.2
v 0.3 1 6.2
v -0.3 1 6.1
v 0.3 1 6.1
v -0.3 1.2 6.2
v 0.3 1.2 6.2
v -0.3 1.2 6.1
v 0.3 1.2 6.1
v -0.4 0.4 6.2
v -0.3 0.4 6.2
v 0.3 0.4 6.2
v 0.4 0.4 6.2
v -0.4 0.4 6.1
v -0.3 0.4 6.1
v 0.3 0.4 6.1
v 0.4 0.4 6.1
v -0.3 0.6 6.9
v -0.2 0.6 6.9
v -0.1 0.6 6.9
v 7.45058e-009 0.6 6.9
v 0.1 0.6 6.9
v 0.2 0.6 6.9
v 0.3 0.6 6.9
v -0.4 0.6 6.8
v -0.3 0.6 6.8
v -0.2 0.6 6.8
v -0.1 0.6 6.8
v 7.45058e-009 0.6 6.8
v 0.1 0.6 6.8
v 0.2 0.6 6.8
v 0.3 0.6 6.8
v 0.4 0.6 6.8
v -0.4 0.6 6.3
v -0.3 0.6 6.3
v -0.2 0.6 6.3
v -0.1 0.6 6.3
v 7.45058e-009 0.6 6.3
v 0.1 0.6 6.3
v 0.2 0.6 6.3
v 0.3 0.6 6.3
v 0.4 0.6 6.3
v -0.4 0.6 6.2
v -0.3 0.6 6.2
v -0.2 0.6 6.2
v -0.1 0.6 6.2
v 7.45058e-009 0.6 6.2
v 0.1 0.6 6.2
v 0.2 0.6 6.2
v 0.3 0.6 6.2
v 0.4 0.6 6.2
v -0.3 0.7 6.8
v -0.2 0.7 6.8
v -0.1 0.7 6.8
v 7.45058e-009 0.7 6.8
v 0.1 0.7 6.8
v 0.2 0.7 6.8
v 0.3 0.7 6.8
v -0.3 0.7 6.3
v -0.2 0.7 6.3
v -0.1 0.7 6.3
v 7.45058e-009 0.7 6.3
v 0.1 0.7 6.3
v 0.2 0.7 6.3
v 0.3 0.7 6.3
v -0.3 0.9 6.2
v 0.3 0.9 6.2
v -0.3 0.9 6.1
v 0.3 0.9 6.1
v -0.3 1.1 6.2
v 0.3 1.1 6.2
v -0.3 1.1 6.1
v 0.3 1.1 6.1
v -0.3 1.3 6.2
v 0.3 1.3 6.2
v -0.3 1.3 6.1
v 0.3 1.3 6.1
v -0.4 1.4 6.2
v -0.3 1.4 6.2
v 0.3 1.4 6.2
v 0.4 1.4 6.2
v -0.4 1.4 6.1
v -0.3 1.4 6.1
v 0.3 1.4 6.1
v 0.4 1.4 6.1

# faces
f 6/1/1 4/1/1 3/1/1
f 7/1/1 2/1/1 1/1/1
f 8/1/1 6/1/1 5/1/1
f 9/1/1 4/1/1 6/1/1
f 9/1/1 6/1/1 8/1/1
f 10/1/1 4/1/1 9/1/1
f 11/1/1 7/1/1 1/1/1
f 11/1/1 8/1/1 7/1/1
f 11/1/1 9/1/1 8/1/1
f 12/1/1 9/1/1 11/1/1
f 13/1/1 9/1/1 12/1/1
f 15/3/1 12/3/1 11/3/1
f 16/1/1 14/1/1 13/1/1
f 16/3/1 12/3/1 15/3/1
f 16/1/1 13/1/1 12/1/1
f 17/1/1 14/1/1 16/1/1
f 18/1/1 14/1/1 17/1/1
f 19/1/1 14/1/1 18/1/1
f 22/2/1 21/2/1 20/2/1
f 23/2/1 21/2/1 22/2/1
f 25/2/1 24/2/1 23/2/1
f 26/2/1 24/2/1 25/2/1
f 32/1/1 30/1/1 29/1/1
f 33/1/1 28/1/1 27/1/1
f 34/1/1 28/1/1 33/1/1
f 36/1/1 32/1/1 31/1/1
f 37/1/1 30/1/1 32/1/1
f 37/1/1 32/1/1 36/1/1
f 38/1/1 30/1/1 37/1/1
f 39/1/1 35/1/1 34/1/1
f 40/1/1 35/1/1 39/1/1
f 41/1/1 37/1/1 36/1/1
f 42/1/1 37/1/1 41/1/1
f 44/1/1 43/1/1 42/1/1
f 45/1/1 43/1/1 44/1/1
f 46/1/1 43/1/1 45/1/1
f 49/1/1 48/1/1 47/1/1
f 50/1/1 48/1/1 49/1/1
f 53/1/1 52/1/1 51/1/1
f 54/1/1 52/1/1 53/1/1
f 57/1/1 56/1/1 55/1/1
f 58/1/1 56/1/1 57/1/1
f 61/1/2 62/1/2 64/1/2
f 59/1/2 60/1/2 65/1/2
f 65/1/2 60/1/2 66/1/2
f 63/1/2 64/1/2 68/1/2
f 64/1/2 62/1/2 69/1/2
f 68/1/2 64/1/2 69/1/2
f 69/1/2 62/1/2 70/1/2
f 66/1/2 67/1/2 71/1/2
f 71/1/2 67/1/2 72/1/2
f 68/1/2 69/1/2 73/1/2
f 73/1/2 69/1/2 74/1/2
f 74/1/2 75/1/2 76/1/2
f 76/1/2 75/1/2 77/1/2
f 77/1/2 75/1/2 78/1/2
f 79/1/2 80/1/2 81/1/2
f 81/1/2 80/1/2 82/1/2
f 83/1/2 84/1/2 85/1/2
f 85/1/2 84/1/2 86/1/2
f 87/1/2 88/1/2 89/1/2
f 89/1/2 88/1/2 90/1/2
f 91/3/2 92/3/2 93/3/2
f 93/3/2 92/3/2 94/3/2
f 94/3/2 95/3/2 96/3/2
f 96/3/2 95/3/2 97/3/2
f 100/1/2 101/1/2 103/1/2
f 98/1/2 99/1/2 104/1/2
f 102/1/2 103/1/2 105/1/2
f 103/1/2 101/1/2 106/1/2
f 105/1/2 103/1/2 106/1/2
f 106/1/2 101/1/2 107/1/2
f 98/1/2 104/1/2 108/1/2
f 104/1/2 105/1/2 108/1/2
f 105/1/2 106/1/2 108/1/2
f 108/1/2 106/1/2 109/1/2
f 109/1/2 106/1/2 110/1/2
f 108/2/2 109/2/2 112/2/2
f 110/1/2 111/1/2 113/1/2
f 112/2/2 109/2/2 113/2/2
f 109/1/2 110/1/2 113/1/2
f 113/1/2 111/1/2 114/1/2
f 114/1/2 111/1/2 115/1/2
f 115/1/2 111/1/2 116/1/2
f 119/2/3 118/2/3 117/2/3
f 120/2/3 118/2/3 119/2/3
f 121/3/3 120/3/3 119/3/3
f 122/3/3 120/3/3 121/3/3
f 123/2/3 122/2/3 121/2/3
f 124/2/3 122/2/3 123/2/3
f 125/3/3 124/3/3 123/3/3
f 126/3/3 124/3/3 125/3/3
f 127/2/3 126/2/3 125/2/3
f 128/2/3 126/2/3 127/2/3
f 129/3/3 128/3/3 127/3/3
f 130/3/3 128/3/3 129/3/3
f 134/1/3 132/1/3 131/1/3
f 135/1/3 132/1/3 134/1/3
f 136/3/3 133/3/3 132/3/3
f 136/1/3 132/1/3 135/1/3
f 137/3/3 133/3/3 136/3/3
f 139/1/3 136/1/3 135/1/3
f 140/2/3 138/2/3 137/2/3
f 141/2/3 138/2/3 140/2/3
f 142/1/3 139/1/3 135/1/3
f 143/3/3 141/3/3 140/3/3
f 144/3/3 141/3/3 143/3/3
f 145/1/3 142/1/3 135/1/3
f 146/2/3 144/2/3 143/2/3
f 147/2/3 144/2/3 146/2/3
f 148/1/3 145/1/3 135/1/3
f 149/3/3 147/3/3 146/3/3
f 150/3/3 147/3/3 149/3/3
f 151/1/3 148/1/3 135/1/3
f 152/2/3 150/2/3 149/2/3
f 153/2/3 150/2/3 152/2/3
f 155/1/3 151/1/3 135/1/3
f 156/1/3 151/1/3 155/1/3
f 157/3/3 153/3/3 152/3/3
f 158/3/3 153/3/3 157/3/3
f 159/1/3 156/1/3 155/1/3
f 159/1/3 155/1/3 154/1/3
f 160/2/3 157/2/3 156/2/3
f 160/1/3 156/1/3 159/1/3
f 161/2/3 157/2/3 160/2/3
f 164/1/3 163/1/3 162/1/3
f 165/1/3 163/1/3 164/1/3
f 168/1/3 167/1/3 166/1/3
f 169/1/3 167/1/3 168/1/3
f 172/1/3 171/1/3 170/1/3
f 173/1/3 171/1/3 172/1/3
f 178/1/3 175/1/3 174/1/3
f 179/1/3 175/1/3 178/1/3
f 180/1/3 177/1/3 176/1/3
f 181/1/3 177/1/3 180/1/3
f 182/1/3 177/1/3 181/1/3
f 183/1/3 177/1/3 182/1/3
f 184/1/3 177/1/3 183/1/3
f 185/1/3 177/1/3 184/1/3
f 186/1/3 177/1/3 185/1/3
f 187/1/3 177/1/3 186/1/3
f 191/1/3 182/1/3 181/1/3
f 192/1/3 182/1/3 191/1/3
f 193/1/3 184/1/3 183/1/3
f 194/1/3 184/1/3 193/1/3
f 195/1/3 186/1/3 185/1/3
f 196/1/3 186/1/3 195/1/3
f 198/1/3 189/1/3 188/1/3
f 199/1/3 189/1/3 198/1/3
f 200/1/3 194/1/3 193/1/3
f 200/1/3 197/1/3 196/1/3
f 200/1/3 192/1/3 191/1/3
f 200/1/3 196/1/3 195/1/3
f 200/1/3 195/1/3 194/1/3
f 200/1/3 191/1/3 190/1/3
f 200/1/3 193/1/3 192/1/3
f 201/1/3 197/1/3 200/1/3
f 202/1/4 203/1/4 204/1/4
f 204/1/4 203/1/4 205/1/4
f 205/1/4 206/1/4 208/1/4
f 208/1/4 206/1/4 209/1/4
f 207/1/4 208/1/4 210/1/4
f 210/1/4 208/1/4 211/1/4
f 212/1/4 213/1/4 216/1/4
f 214/2/4 215/2/4 217/2/4
f 217/2/4 215/2/4 218/2/4
f 212/1/4 216/1/4 219/1/4
f 217/3/4 218/3/4 220/3/4
f 220/3/4 218/3/4 221/3/4
f 212/1/4 219/1/4 222/1/4
f 220/2/4 221/2/4 223/2/4
f 223/2/4 221/2/4 224/2/4
f 212/1/4 222/1/4 225/1/4
f 223/3/4 224/3/4 226/3/4
f 226/3/4 224/3/4 227/3/4
f 212/1/4 225/1/4 228/1/4
f 226/2/4 227/2/4 229/2/4
f 229/2/4 227/2/4 230/2/4
f 212/1/4 228/1/4 231/1/4
f 231/1/4 228/1/4 232/1/4
f 229/3/4 230/3/4 233/3/4
f 233/3/4 230/3/4 234/3/4
f 235/1/4 236/1/4 237/1/4
f 237/1/4 236/1/4 238/1/4
f 238/2/4 239/2/4 240/2/4
f 240/2/4 239/2/4 241/2/4
f 240/3/4 241/3/4 242/3/4
f 242/3/4 241/3/4 243/3/4
f 242/2/4 243/2/4 244/2/4
f 244/2/4 243/2/4 245/2/4
f 244/3/4 245/3/4 246/3/4
f 246/3/4 245/3/4 247/3/4
f 246/2/4 247/2/4 248/2/4
f 248/2/4 247/2/4 249/2/4
f 248/3/4 249/3/4 251/3/4
f 251/3/4 249/3/4 252/3/4
f 250/1/4 251/1/4 253/1/4
f 253/1/4 251/1/4 254/1/4
f 255/1/4 256/1/4 259/1/4
f 259/1/4 256/1/4 260/1/4
f 257/1/4 258/1/4 261/1/4
f 261/1/4 258/1/4 262/1/4
f 262/1/4 258/1/4 263/1/4
f 263/1/4 258/1/4 264/1/4
f 264/1/4 258/1/4 265/1/4
f 265/1/4 258/1/4 266/1/4
f 266/1/4 258/1/4 267/1/4
f 267/1/4 258/1/4 268/1/4
f 262/1/4 263/1/4 272/1/4
f 272/1/4 263/1/4 273/1/4
f 264/1/4 265/1/4 274/1/4
f 274/1/4 265/1/4 275/1/4
f 266/1/4 267/1/4 276/1/4
f 276/1/4 267/1/4 277/1/4
f 269/1/4 270/1/4 279/1/4
f 279/1/4 270/1/4 280/1/4
f 274/1/4 275/1/4 281/1/4
f 277/1/4 278/1/4 281/1/4
f 272/1/4 273/1/4 281/1/4
f 276/1/4 277/1/4 281/1/4
f 275/1/4 276/1/4 281/1/4
f 271/1/4 272/1/4 281/1/4
f 273/1/4 274/1/4 281/1/4
f 281/1/4 278/1/4 282/1/4
f 287/1/5 284/1/5 283/1/5
f 288/1/5 284/1/5 287/1/5
f 289/1/5 286/1/5 285/1/5
f 290/1/5 286/1/5 289/1/5
f 295/1/5 292/1/5 291/1/5
f 296/1/5 292/1/5 295/1/5
f 297/1/5 294/1/5 293/1/5
f 298/1/5 294/1/5 297/1/5
f 303/1/5 300/1/5 299/1/5
f 304/1/5 300/1/5 303/1/5
f 305/1/5 302/1/5 301/1/5
f 306/1/5 302/1/5 305/1/5
f 310/1/5 308/1/5 307/1/5
f 311/1/5 308/1/5 310/1/5
f 313/1/5 310/1/5 309/1/5
f 314/1/5 312/1/5 311/1/5
f 315/1/5 313/1/5 309/1/5
f 315/1/5 314/1/5 313/1/5
f 316/1/5 314/1/5 315/1/5
f 317/1/5 312/1/5 314/1/5
f 317/1/5 314/1/5 316/1/5
f 318/1/5 312/1/5 317/1/5
f 326/2/5 320/2/5 319/2/5
f 327/3/5 321/3/5 320/3/5
f 327/2/5 320/2/5 326/2/5
f 328/2/5 322/2/5 321/2/5
f 328/3/5 321/3/5 327/3/5
f 329/3/5 323/3/5 322/3/5
f 329/2/5 322/2/5 328/2/5
f 330/2/5 324/2/5 323/2/5
f 330/3/5 323/3/5 329/3/5
f 331/3/5 325/3/5 324/3/5
f 331/2/5 324/2/5 330/2/5
f 332/3/5 325/3/5 331/3/5
f 335/2/5 334/2/5 333/2/5
f 336/2/5 334/2/5 335/2/5
f 345/2/5 338/2/5 337/2/5
f 346/3/5 339/3/5 338/3/5
f 346/2/5 338/2/5 345/2/5
f 347/2/5 340/2/5 339/2/5
f 347/3/5 339/3/5 346/3/5
f 348/3/5 341/3/5 340/3/5
f 348/2/5 340/2/5 347/2/5
f 349/2/5 342/2/5 341/2/5
f 349/3/5 341/3/5 348/3/5
f 350/3/5 343/3/5 342/3/5
f 350/2/5 342/2/5 349/2/5
f 351/3/5 343/3/5 350/3/5
f 353/1/5 345/1/5 344/1/5
f 354/1/5 345/1/5 353/1/5
f 355/1/5 352/1/5 351/1/5
f 356/1/5 352/1/5 355/1/5
f 359/1/5 358/1/5 357/1/5
f 360/1/5 358/1/5 359/1/5
f 363/1/5 362/1/5 361/1/5
f 364/1/5 362/1/5 363/1/5
f 367/1/5 366/1/5 365/1/5
f 368/1/5 366/1/5 367/1/5
f 369/1/6 370/1/6 373/1/6
f 373/1/6 370/1/6 374/1/6
f 371/1/6 372/1/6 375/1/6
f 375/1/6 372/1/6 376/1/6
f 377/2/6 378/2/6 385/2/6
f 378/3/6 379/3/6 386/3/6
f 385/2/6 378/2/6 386/2/6
f 379/2/6 380/2/6 387/2/6
f 386/3/6 379/3/6 387/3/6
f 380/3/6 381/3/6 388/3/6
f 387/2/6 380/2/6 388/2/6
f 381/2/6 382/2/6 389/2/6
f 388/3/6 381/3/6 389/3/6
f 382/3/6 383/3/6 390/3/6
f 389/2/6 382/2/6 390/2/6
f 390/3/6 383/3/6 391/3/6
f 384/3/6 385/3/6 393/3/6
f 393/3/6 385/3/6 394/3/6
f 391/2/6 392/2/6 400/2/6
f 400/2/6 392/2/6 401/2/6
f 393/1/6 394/1/6 402/1/6
f 394/2/6 395/2/6 403/2/6
f 402/1/6 394/1/6 403/1/6
f 395/3/6 396/3/6 404/3/6
f 403/2/6 395/2/6 404/2/6
f 396/2/6 397/2/6 405/2/6
f 404/3/6 396/3/6 405/3/6
f 397/3/6 398/3/6 406/3/6
f 405/2/6 397/2/6 406/2/6
f 398/2/6 399/2/6 407/2/6
f 406/3/6 398/3/6 407/3/6
f 399/3/6 400/3/6 408/3/6
f 407/2/6 399/2/6 408/2/6
f 400/1/6 401/1/6 409/1/6
f 408/3/6 400/3/6 409/3/6
f 409/1/6 401/1/6 410/1/6
f 411/2/6 412/2/6 418/2/6
f 412/3/6 413/3/6 419/3/6
f 418/2/6 412/2/6 419/2/6
f 413/2/6 414/2/6 420/2/6
f 419/3/6 413/3/6 420/3/6
f 414/3/6 415/3/6 421/3/6
f 420/2/6 414/2/6 421/2/6
f 415/2/6 416/2/6 422/2/6
f 421/3/6 415/3/6 422/3/6
f 416/3/6 417/3/6 423/3/6
f 422/2/6 416/2/6 423/2/6
f 423/3/6 417/3/6 424/3/6
f 425/1/6 426/1/6 427/1/6
f 427/1/6 426/1/6 428/1/6
f 429/1/6 430/1/6 431/1/6
f 431/1/6 430/1/6 432/1/6
f 433/1/6 434/1/6 435/1/6
f 435/1/6 434/1/6 436/1/6
f 437/1/6 438/1/6 441/1/6
f 441/1/6 438/1/6 442/1/6
f 439/1/6 440/1/6 443/1/6
f 443/1/6 440/1/6 444/1/6
