# MagicaVoxel @ Ephtracy

# group
o lamp

# material
mtllib bedroom_oldie-0-lamp.mtl
usemtl palette

# normals
vn -1 0 0
vn 1 0 0
vn 0 0 1
vn 0 0 -1
vn 0 -1 0
vn 0 1 0

# texcoords
vt 0.00195313 0.5
vt 0.474609 0.5
vt 0.478516 0.5
vt 0.482422 0.5
vt 0.646484 0.5

# verts
v -0.2 0.5 11.4
v -0.2 0.5 11.1
v -0.2 0.6 11.4
v -0.2 0.6 11.3
v -0.2 0.6 11.2
v -0.2 0.6 11.1
v -0.2 0.8 11.3
v -0.2 0.8 11.2
v -0.1 0 11.3
v -0.1 0 11.2
v -0.1 0.1 11.3
v -0.1 0.1 11.2
v -0.1 0.5 11.5
v -0.1 0.5 11.4
v -0.1 0.5 11.1
v -0.1 0.5 11
v -0.1 0.6 11.5
v -0.1 0.6 11.4
v -0.1 0.6 11.3
v -0.1 0.6 11.2
v -0.1 0.6 11.1
v -0.1 0.6 11
v -0.1 0.8 11.4
v -0.1 0.8 11.3
v -0.1 0.8 11.2
v -0.1 0.8 11.1
v -0.1 1 11.3
v -0.1 1 11.2
v -7.45058e-009 0 11.4
v -7.45058e-009 0 11.3
v -7.45058e-009 0 11.2
v -7.45058e-009 0 11.1
v -7.45058e-009 0.1 11.4
v -7.45058e-009 0.1 11.3
v -7.45058e-009 0.1 11.2
v -7.45058e-009 0.1 11.1
v -7.45058e-009 0.4 11.3
v -7.45058e-009 0.4 11.2
v -7.45058e-009 0.5 11.3
v -7.45058e-009 0.5 11.2
v -7.45058e-009 0.6 11.5
v -7.45058e-009 0.6 11.4
v -7.45058e-009 0.6 11.3
v -7.45058e-009 0.6 11.2
v -7.45058e-009 0.6 11.1
v -7.45058e-009 0.6 11
v -7.45058e-009 0.7 11.3
v -7.45058e-009 0.7 11.2
v -7.45058e-009 0.8 11.5
v -7.45058e-009 0.8 11.4
v -7.45058e-009 0.8 11.3
v -7.45058e-009 0.8 11.2
v -7.45058e-009 0.8 11.1
v -7.45058e-009 0.8 11
v -7.45058e-009 1 11.4
v -7.45058e-009 1 11.3
v -7.45058e-009 1 11.2
v -7.45058e-009 1 11.1
v 0.1 0.6 11.4
v 0.1 0.6 11.3
v 0.1 0.6 11.2
v 0.1 0.6 11.1
v 0.1 0.7 11.4
v 0.1 0.7 11.3
v 0.1 0.7 11.2
v 0.1 0.7 11.1
v 0.1 0.9 11.3
v 0.1 0.9 11.2
v 0.1 1 11.3
v 0.1 1 11.2
v 0.2 0.5 11.4
v 0.2 0.5 11.1
v 0.2 0.6 11.4
v 0.2 0.6 11.3
v 0.2 0.6 11.2
v 0.2 0.6 11.1
v 0.2 0.7 11.3
v 0.2 0.7 11.2
v -0.1 0.5 11.4
v -0.1 0.5 11.1
v -0.1 0.6 11.4
v -0.1 0.6 11.3
v -0.1 0.6 11.2
v -0.1 0.6 11.1
v -0.1 0.7 11.3
v -0.1 0.7 11.2
v -7.45058e-009 0.6 11.4
v -7.45058e-009 0.6 11.3
v -7.45058e-009 0.6 11.2
v -7.45058e-009 0.6 11.1
v -7.45058e-009 0.7 11.4
v -7.45058e-009 0.7 11.3
v -7.45058e-009 0.7 11.2
v -7.45058e-009 0.7 11.1
v -7.45058e-009 0.9 11.3
v -7.45058e-009 0.9 11.2
v -7.45058e-009 1 11.3
v -7.45058e-009 1 11.2
v 0.1 0 11.4
v 0.1 0 11.3
v 0.1 0 11.2
v 0.1 0 11.1
v 0.1 0.1 11.4
v 0.1 0.1 11.3
v 0.1 0.1 11.2
v 0.1 0.1 11.1
v 0.1 0.4 11.3
v 0.1 0.4 11.2
v 0.1 0.5 11.3
v 0.1 0.5 11.2
v 0.1 0.6 11.5
v 0.1 0.6 11.4
v 0.1 0.6 11.3
v 0.1 0.6 11.2
v 0.1 0.6 11.1
v 0.1 0.6 11
v 0.1 0.7 11.3
v 0.1 0.7 11.2
v 0.1 0.8 11.5
v 0.1 0.8 11.4
v 0.1 0.8 11.3
v 0.1 0.8 11.2
v 0.1 0.8 11.1
v 0.1 0.8 11
v 0.1 1 11.4
v 0.1 1 11.3
v 0.1 1 11.2
v 0.1 1 11.1
v 0.2 0 11.3
v 0.2 0 11.2
v 0.2 0.1 11.3
v 0.2 0.1 11.2
v 0.2 0.5 11.5
v 0.2 0.5 11.4
v 0.2 0.5 11.1
v 0.2 0.5 11
v 0.2 0.6 11.5
v 0.2 0.6 11.4
v 0.2 0.6 11.3
v 0.2 0.6 11.2
v 0.2 0.6 11.1
v 0.2 0.6 11
v 0.2 0.8 11.4
v 0.2 0.8 11.3
v 0.2 0.8 11.2
v 0.2 0.8 11.1
v 0.2 1 11.3
v 0.2 1 11.2
v 0.3 0.5 11.4
v 0.3 0.5 11.1
v 0.3 0.6 11.4
v 0.3 0.6 11.3
v 0.3 0.6 11.2
v 0.3 0.6 11.1
v 0.3 0.8 11.3
v 0.3 0.8 11.2
v -0.1 0.5 11.5
v -0.1 0.6 11.5
v -7.45058e-009 0.6 11.5
v -7.45058e-009 0.8 11.5
v 0.1 0.6 11.5
v 0.1 0.8 11.5
v 0.2 0.5 11.5
v 0.2 0.6 11.5
v -0.2 0.5 11.4
v -0.2 0.6 11.4
v -0.1 0.5 11.4
v -0.1 0.6 11.4
v -0.1 0.8 11.4
v -7.45058e-009 0 11.4
v -7.45058e-009 0.1 11.4
v -7.45058e-009 0.6 11.4
v -7.45058e-009 0.8 11.4
v -7.45058e-009 1 11.4
v 0.1 0 11.4
v 0.1 0.1 11.4
v 0.1 0.6 11.4
v 0.1 0.8 11.4
v 0.1 1 11.4
v 0.2 0.5 11.4
v 0.2 0.6 11.4
v 0.2 0.8 11.4
v 0.3 0.5 11.4
v 0.3 0.6 11.4
v -0.2 0.6 11.3
v -0.2 0.8 11.3
v -0.1 0 11.3
v -0.1 0.1 11.3
v -0.1 0.6 11.3
v -0.1 0.8 11.3
v -0.1 1 11.3
v -7.45058e-009 0 11.3
v -7.45058e-009 0.1 11.3
v -7.45058e-009 0.4 11.3
v -7.45058e-009 0.5 11.3
v -7.45058e-009 0.6 11.3
v -7.45058e-009 0.7 11.3
v -7.45058e-009 0.8 11.3
v -7.45058e-009 1 11.3
v 0.1 0 11.3
v 0.1 0.1 11.3
v 0.1 0.4 11.3
v 0.1 0.5 11.3
v 0.1 0.6 11.3
v 0.1 0.7 11.3
v 0.1 0.8 11.3
v 0.1 1 11.3
v 0.2 0 11.3
v 0.2 0.1 11.3
v 0.2 0.6 11.3
v 0.2 0.8 11.3
v 0.2 1 11.3
v 0.3 0.6 11.3
v 0.3 0.8 11.3
v -0.1 0.6 11.2
v -0.1 0.7 11.2
v -7.45058e-009 0.6 11.2
v -7.45058e-009 0.7 11.2
v -7.45058e-009 0.9 11.2
v -7.45058e-009 1 11.2
v 0.1 0.6 11.2
v 0.1 0.7 11.2
v 0.1 0.9 11.2
v 0.1 1 11.2
v 0.2 0.6 11.2
v 0.2 0.7 11.2
v -0.1 0.5 11.1
v -0.1 0.6 11.1
v -7.45058e-009 0.6 11.1
v -7.45058e-009 0.7 11.1
v 0.1 0.6 11.1
v 0.1 0.7 11.1
v 0.2 0.5 11.1
v 0.2 0.6 11.1
v -0.1 0.5 11.4
v -0.1 0.6 11.4
v -7.45058e-009 0.6 11.4
v -7.45058e-009 0.7 11.4
v 0.1 0.6 11.4
v 0.1 0.7 11.4
v 0.2 0.5 11.4
v 0.2 0.6 11.4
v -0.1 0.6 11.3
v -0.1 0.7 11.3
v -7.45058e-009 0.6 11.3
v -7.45058e-009 0.7 11.3
v -7.45058e-009 0.9 11.3
v -7.45058e-009 1 11.3
v 0.1 0.6 11.3
v 0.1 0.7 11.3
v 0.1 0.9 11.3
v 0.1 1 11.3
v 0.2 0.6 11.3
v 0.2 0.7 11.3
v -0.2 0.6 11.2
v -0.2 0.8 11.2
v -0.1 0 11.2
v -0.1 0.1 11.2
v -0.1 0.6 11.2
v -0.1 0.8 11.2
v -0.1 1 11.2
v -7.45058e-009 0 11.2
v -7.45058e-009 0.1 11.2
v -7.45058e-009 0.4 11.2
v -7.45058e-009 0.5 11.2
v -7.45058e-009 0.6 11.2
v -7.45058e-009 0.7 11.2
v -7.45058e-009 0.8 11.2
v -7.45058e-009 1 11.2
v 0.1 0 11.2
v 0.1 0.1 11.2
v 0.1 0.4 11.2
v 0.1 0.5 11.2
v 0.1 0.6 11.2
v 0.1 0.7 11.2
v 0.1 0.8 11.2
v 0.1 1 11.2
v 0.2 0 11.2
v 0.2 0.1 11.2
v 0.2 0.6 11.2
v 0.2 0.8 11.2
v 0.2 1 11.2
v 0.3 0.6 11.2
v 0.3 0.8 11.2
v -0.2 0.5 11.1
v -0.2 0.6 11.1
v -0.1 0.5 11.1
v -0.1 0.6 11.1
v -0.1 0.8 11.1
v -7.45058e-009 0 11.1
v -7.45058e-009 0.1 11.1
v -7.45058e-009 0.6 11.1
v -7.45058e-009 0.8 11.1
v -7.45058e-009 1 11.1
v 0.1 0 11.1
v 0.1 0.1 11.1
v 0.1 0.6 11.1
v 0.1 0.8 11.1
v 0.1 1 11.1
v 0.2 0.5 11.1
v 0.2 0.6 11.1
v 0.2 0.8 11.1
v 0.3 0.5 11.1
v 0.3 0.6 11.1
v -0.1 0.5 11
v -0.1 0.6 11
v -7.45058e-009 0.6 11
v -7.45058e-009 0.8 11
v 0.1 0.6 11
v 0.1 0.8 11
v 0.2 0.5 11
v 0.2 0.6 11
v -7.45058e-009 0 11.4
v 0.1 0 11.4
v -0.1 0 11.3
v -7.45058e-009 0 11.3
v 0.1 0 11.3
v 0.2 0 11.3
v -0.1 0 11.2
v -7.45058e-009 0 11.2
v 0.1 0 11.2
v 0.2 0 11.2
v -7.45058e-009 0 11.1
v 0.1 0 11.1
v -0.1 0.5 11.5
v 0.2 0.5 11.5
v -0.2 0.5 11.4
v -0.1 0.5 11.4
v 0.2 0.5 11.4
v 0.3 0.5 11.4
v -0.2 0.5 11.1
v -0.1 0.5 11.1
v 0.2 0.5 11.1
v 0.3 0.5 11.1
v -0.1 0.5 11
v 0.2 0.5 11
v -0.1 0.6 11.4
v -7.45058e-009 0.6 11.4
v 0.1 0.6 11.4
v 0.2 0.6 11.4
v -0.1 0.6 11.3
v -7.45058e-009 0.6 11.3
v 0.1 0.6 11.3
v 0.2 0.6 11.3
v -0.1 0.6 11.2
v -7.45058e-009 0.6 11.2
v 0.1 0.6 11.2
v 0.2 0.6 11.2
v -0.1 0.6 11.1
v -7.45058e-009 0.6 11.1
v 0.1 0.6 11.1
v 0.2 0.6 11.1
v -7.45058e-009 0.7 11.4
v 0.1 0.7 11.4
v -0.1 0.7 11.3
v -7.45058e-009 0.7 11.3
v 0.1 0.7 11.3
v 0.2 0.7 11.3
v -0.1 0.7 11.2
v -7.45058e-009 0.7 11.2
v 0.1 0.7 11.2
v 0.2 0.7 11.2
v -7.45058e-009 0.7 11.1
v 0.1 0.7 11.1
v -7.45058e-009 0.1 11.4
v 0.1 0.1 11.4
v -0.1 0.1 11.3
v -7.45058e-009 0.1 11.3
v 0.1 0.1 11.3
v 0.2 0.1 11.3
v -0.1 0.1 11.2
v -7.45058e-009 0.1 11.2
v 0.1 0.1 11.2
v 0.2 0.1 11.2
v -7.45058e-009 0.1 11.1
v 0.1 0.1 11.1
v -0.1 0.6 11.5
v -7.45058e-009 0.6 11.5
v 0.1 0.6 11.5
v 0.2 0.6 11.5
v -0.2 0.6 11.4
v -0.1 0.6 11.4
v -7.45058e-009 0.6 11.4
v 0.1 0.6 11.4
v 0.2 0.6 11.4
v 0.3 0.6 11.4
v -0.2 0.6 11.3
v -0.1 0.6 11.3
v 0.2 0.6 11.3
v 0.3 0.6 11.3
v -0.2 0.6 11.2
v -0.1 0.6 11.2
v 0.2 0.6 11.2
v 0.3 0.6 11.2
v -0.2 0.6 11.1
v -0.1 0.6 11.1
v -7.45058e-009 0.6 11.1
v 0.1 0.6 11.1
v 0.2 0.6 11.1
v 0.3 0.6 11.1
v -0.1 0.6 11
v -7.45058e-009 0.6 11
v 0.1 0.6 11
v 0.2 0.6 11
v -7.45058e-009 0.8 11.5
v 0.1 0.8 11.5
v -0.1 0.8 11.4
v -7.45058e-009 0.8 11.4
v 0.1 0.8 11.4
v 0.2 0.8 11.4
v -0.2 0.8 11.3
v -0.1 0.8 11.3
v -7.45058e-009 0.8 11.3
v 0.1 0.8 11.3
v 0.2 0.8 11.3
v 0.3 0.8 11.3
v -0.2 0.8 11.2
v -0.1 0.8 11.2
v -7.45058e-009 0.8 11.2
v 0.1 0.8 11.2
v 0.2 0.8 11.2
v 0.3 0.8 11.2
v -0.1 0.8 11.1
v -7.45058e-009 0.8 11.1
v 0.1 0.8 11.1
v 0.2 0.8 11.1
v -7.45058e-009 0.8 11
v 0.1 0.8 11
v -7.45058e-009 0.9 11.3
v 0.1 0.9 11.3
v -7.45058e-009 0.9 11.2
v 0.1 0.9 11.2
v -7.45058e-009 1 11.4
v 0.1 1 11.4
v -0.1 1 11.3
v -7.45058e-009 1 11.3
v 0.1 1 11.3
v 0.2 1 11.3
v -0.1 1 11.2
v -7.45058e-009 1 11.2
v 0.1 1 11.2
v 0.2 1 11.2
v -7.45058e-009 1 11.1
v 0.1 1 11.1

# faces
f 3/5/1 2/5/1 1/5/1
f 4/5/1 2/5/1 3/5/1
f 5/5/1 2/5/1 4/5/1
f 6/5/1 2/5/1 5/5/1
f 7/5/1 5/5/1 4/5/1
f 8/5/1 5/5/1 7/5/1
f 11/2/1 10/2/1 9/2/1
f 12/2/1 10/2/1 11/2/1
f 17/5/1 14/5/1 13/5/1
f 18/5/1 14/5/1 17/5/1
f 21/5/1 16/5/1 15/5/1
f 22/5/1 16/5/1 21/5/1
f 23/5/1 19/5/1 18/5/1
f 24/5/1 19/5/1 23/5/1
f 25/5/1 21/5/1 20/5/1
f 26/5/1 21/5/1 25/5/1
f 27/5/1 25/5/1 24/5/1
f 28/5/1 25/5/1 27/5/1
f 33/2/1 30/2/1 29/2/1
f 34/2/1 30/2/1 33/2/1
f 35/2/1 32/2/1 31/2/1
f 36/2/1 32/2/1 35/2/1
f 37/3/1 35/3/1 34/3/1
f 38/3/1 35/3/1 37/3/1
f 39/4/1 38/4/1 37/4/1
f 40/4/1 38/4/1 39/4/1
f 43/1/1 40/1/1 39/1/1
f 44/1/1 40/1/1 43/1/1
f 47/1/1 44/1/1 43/1/1
f 48/1/1 44/1/1 47/1/1
f 49/5/1 42/5/1 41/5/1
f 50/5/1 42/5/1 49/5/1
f 53/5/1 46/5/1 45/5/1
f 54/5/1 46/5/1 53/5/1
f 55/5/1 51/5/1 50/5/1
f 56/5/1 51/5/1 55/5/1
f 57/5/1 53/5/1 52/5/1
f 58/5/1 53/5/1 57/5/1
f 63/5/1 60/5/1 59/5/1
f 64/5/1 60/5/1 63/5/1
f 65/5/1 62/5/1 61/5/1
f 66/5/1 62/5/1 65/5/1
f 69/5/1 68/5/1 67/5/1
f 70/5/1 68/5/1 69/5/1
f 73/5/1 72/5/1 71/5/1
f 74/5/1 72/5/1 73/5/1
f 75/5/1 72/5/1 74/5/1
f 76/5/1 72/5/1 75/5/1
f 77/5/1 75/5/1 74/5/1
f 78/5/1 75/5/1 77/5/1
f 79/5/2 80/5/2 81/5/2
f 81/5/2 80/5/2 82/5/2
f 82/5/2 80/5/2 83/5/2
f 83/5/2 80/5/2 84/5/2
f 82/5/2 83/5/2 85/5/2
f 85/5/2 83/5/2 86/5/2
f 87/5/2 88/5/2 91/5/2
f 91/5/2 88/5/2 92/5/2
f 89/5/2 90/5/2 93/5/2
f 93/5/2 90/5/2 94/5/2
f 95/5/2 96/5/2 97/5/2
f 97/5/2 96/5/2 98/5/2
f 99/2/2 100/2/2 103/2/2
f 103/2/2 100/2/2 104/2/2
f 101/2/2 102/2/2 105/2/2
f 105/2/2 102/2/2 106/2/2
f 104/3/2 105/3/2 107/3/2
f 107/3/2 105/3/2 108/3/2
f 107/4/2 108/4/2 109/4/2
f 109/4/2 108/4/2 110/4/2
f 109/1/2 110/1/2 113/1/2
f 113/1/2 110/1/2 114/1/2
f 113/1/2 114/1/2 117/1/2
f 117/1/2 114/1/2 118/1/2
f 111/5/2 112/5/2 119/5/2
f 119/5/2 112/5/2 120/5/2
f 115/5/2 116/5/2 123/5/2
f 123/5/2 116/5/2 124/5/2
f 120/5/2 121/5/2 125/5/2
f 125/5/2 121/5/2 126/5/2
f 122/5/2 123/5/2 127/5/2
f 127/5/2 123/5/2 128/5/2
f 129/2/2 130/2/2 131/2/2
f 131/2/2 130/2/2 132/2/2
f 133/5/2 134/5/2 137/5/2
f 137/5/2 134/5/2 138/5/2
f 135/5/2 136/5/2 141/5/2
f 141/5/2 136/5/2 142/5/2
f 138/5/2 139/5/2 143/5/2
f 143/5/2 139/5/2 144/5/2
f 140/5/2 141/5/2 145/5/2
f 145/5/2 141/5/2 146/5/2
f 144/5/2 145/5/2 147/5/2
f 147/5/2 145/5/2 148/5/2
f 149/5/2 150/5/2 151/5/2
f 151/5/2 150/5/2 152/5/2
f 152/5/2 150/5/2 153/5/2
f 153/5/2 150/5/2 154/5/2
f 152/5/2 153/5/2 155/5/2
f 155/5/2 153/5/2 156/5/2
f 159/5/3 158/5/3 157/5/3
f 161/5/3 159/5/3 157/5/3
f 161/5/3 160/5/3 159/5/3
f 162/5/3 160/5/3 161/5/3
f 163/5/3 161/5/3 157/5/3
f 164/5/3 161/5/3 163/5/3
f 167/5/3 166/5/3 165/5/3
f 168/5/3 166/5/3 167/5/3
f 172/5/3 169/5/3 168/5/3
f 173/5/3 169/5/3 172/5/3
f 175/2/3 171/2/3 170/2/3
f 176/2/3 171/2/3 175/2/3
f 178/5/3 174/5/3 173/5/3
f 179/5/3 174/5/3 178/5/3
f 181/5/3 178/5/3 177/5/3
f 182/5/3 178/5/3 181/5/3
f 183/5/3 181/5/3 180/5/3
f 184/5/3 181/5/3 183/5/3
f 189/5/3 186/5/3 185/5/3
f 190/5/3 186/5/3 189/5/3
f 192/2/3 188/2/3 187/2/3
f 193/2/3 188/2/3 192/2/3
f 198/5/3 191/5/3 190/5/3
f 199/5/3 191/5/3 198/5/3
f 201/3/3 194/3/3 193/3/3
f 202/4/3 195/4/3 194/4/3
f 202/3/3 194/3/3 201/3/3
f 203/1/3 197/1/3 196/1/3
f 203/4/3 195/4/3 202/4/3
f 203/1/3 196/1/3 195/1/3
f 204/1/3 197/1/3 203/1/3
f 205/1/3 197/1/3 204/1/3
f 208/2/3 201/2/3 200/2/3
f 209/2/3 201/2/3 208/2/3
f 211/5/3 207/5/3 206/5/3
f 212/5/3 207/5/3 211/5/3
f 213/5/3 211/5/3 210/5/3
f 214/5/3 211/5/3 213/5/3
f 217/5/3 216/5/3 215/5/3
f 218/5/3 216/5/3 217/5/3
f 223/5/3 220/5/3 219/5/3
f 224/5/3 220/5/3 223/5/3
f 225/5/3 222/5/3 221/5/3
f 226/5/3 222/5/3 225/5/3
f 229/5/3 228/5/3 227/5/3
f 231/5/3 229/5/3 227/5/3
f 231/5/3 230/5/3 229/5/3
f 232/5/3 230/5/3 231/5/3
f 233/5/3 231/5/3 227/5/3
f 234/5/3 231/5/3 233/5/3
f 235/5/4 236/5/4 237/5/4
f 235/5/4 237/5/4 239/5/4
f 237/5/4 238/5/4 239/5/4
f 239/5/4 238/5/4 240/5/4
f 235/5/4 239/5/4 241/5/4
f 241/5/4 239/5/4 242/5/4
f 243/5/4 244/5/4 245/5/4
f 245/5/4 244/5/4 246/5/4
f 247/5/4 248/5/4 251/5/4
f 251/5/4 248/5/4 252/5/4
f 249/5/4 250/5/4 253/5/4
f 253/5/4 250/5/4 254/5/4
f 255/5/4 256/5/4 259/5/4
f 259/5/4 256/5/4 260/5/4
f 257/2/4 258/2/4 262/2/4
f 262/2/4 258/2/4 263/2/4
f 260/5/4 261/5/4 268/5/4
f 268/5/4 261/5/4 269/5/4
f 263/3/4 264/3/4 271/3/4
f 264/4/4 265/4/4 272/4/4
f 271/3/4 264/3/4 272/3/4
f 266/1/4 267/1/4 273/1/4
f 272/4/4 265/4/4 273/4/4
f 265/1/4 266/1/4 273/1/4
f 273/1/4 267/1/4 274/1/4
f 274/1/4 267/1/4 275/1/4
f 270/2/4 271/2/4 278/2/4
f 278/2/4 271/2/4 279/2/4
f 276/5/4 277/5/4 281/5/4
f 281/5/4 277/5/4 282/5/4
f 280/5/4 281/5/4 283/5/4
f 283/5/4 281/5/4 284/5/4
f 285/5/4 286/5/4 287/5/4
f 287/5/4 286/5/4 288/5/4
f 288/5/4 289/5/4 292/5/4
f 292/5/4 289/5/4 293/5/4
f 290/2/4 291/2/4 295/2/4
f 295/2/4 291/2/4 296/2/4
f 293/5/4 294/5/4 298/5/4
f 298/5/4 294/5/4 299/5/4
f 297/5/4 298/5/4 301/5/4
f 301/5/4 298/5/4 302/5/4
f 300/5/4 301/5/4 303/5/4
f 303/5/4 301/5/4 304/5/4
f 305/5/4 306/5/4 307/5/4
f 305/5/4 307/5/4 309/5/4
f 307/5/4 308/5/4 309/5/4
f 309/5/4 308/5/4 310/5/4
f 305/5/4 309/5/4 311/5/4
f 311/5/4 309/5/4 312/5/4
f 316/2/5 314/2/5 313/2/5
f 317/2/5 314/2/5 316/2/5
f 319/2/5 316/2/5 315/2/5
f 319/2/5 318/2/5 317/2/5
f 319/2/5 317/2/5 316/2/5
f 320/2/5 318/2/5 319/2/5
f 321/2/5 318/2/5 320/2/5
f 322/2/5 318/2/5 321/2/5
f 323/2/5 321/2/5 320/2/5
f 324/2/5 321/2/5 323/2/5
f 328/5/5 326/5/5 325/5/5
f 329/5/5 326/5/5 328/5/5
f 331/5/5 328/5/5 327/5/5
f 332/5/5 328/5/5 331/5/5
f 333/5/5 330/5/5 329/5/5
f 334/5/5 330/5/5 333/5/5
f 335/5/5 333/5/5 332/5/5
f 336/5/5 333/5/5 335/5/5
f 341/5/5 338/5/5 337/5/5
f 342/5/5 338/5/5 341/5/5
f 343/5/5 340/5/5 339/5/5
f 344/5/5 340/5/5 343/5/5
f 349/5/5 346/5/5 345/5/5
f 350/5/5 346/5/5 349/5/5
f 351/5/5 348/5/5 347/5/5
f 352/5/5 348/5/5 351/5/5
f 356/5/5 354/5/5 353/5/5
f 357/5/5 354/5/5 356/5/5
f 359/5/5 356/5/5 355/5/5
f 360/5/5 356/5/5 359/5/5
f 361/5/5 358/5/5 357/5/5
f 362/5/5 358/5/5 361/5/5
f 363/5/5 361/5/5 360/5/5
f 364/5/5 361/5/5 363/5/5
f 365/2/6 366/2/6 368/2/6
f 368/2/6 366/2/6 369/2/6
f 367/2/6 368/2/6 371/2/6
f 371/2/6 368/2/6 372/2/6
f 369/2/6 370/2/6 373/2/6
f 373/2/6 370/2/6 374/2/6
f 372/2/6 373/2/6 375/2/6
f 375/2/6 373/2/6 376/2/6
f 377/5/6 378/5/6 382/5/6
f 382/5/6 378/5/6 383/5/6
f 379/5/6 380/5/6 384/5/6
f 384/5/6 380/5/6 385/5/6
f 381/5/6 382/5/6 387/5/6
f 387/5/6 382/5/6 388/5/6
f 385/5/6 386/5/6 389/5/6
f 389/5/6 386/5/6 390/5/6
f 391/5/6 392/5/6 395/5/6
f 395/5/6 392/5/6 396/5/6
f 393/5/6 394/5/6 399/5/6
f 399/5/6 394/5/6 400/5/6
f 396/5/6 397/5/6 401/5/6
f 401/5/6 397/5/6 402/5/6
f 398/5/6 399/5/6 403/5/6
f 403/5/6 399/5/6 404/5/6
f 405/5/6 406/5/6 408/5/6
f 408/5/6 406/5/6 409/5/6
f 407/5/6 408/5/6 412/5/6
f 412/5/6 408/5/6 413/5/6
f 409/5/6 410/5/6 414/5/6
f 414/5/6 410/5/6 415/5/6
f 411/5/6 412/5/6 417/5/6
f 417/5/6 412/5/6 418/5/6
f 415/5/6 416/5/6 421/5/6
f 421/5/6 416/5/6 422/5/6
f 418/5/6 419/5/6 423/5/6
f 423/5/6 419/5/6 424/5/6
f 420/5/6 421/5/6 425/5/6
f 425/5/6 421/5/6 426/5/6
f 424/5/6 425/5/6 427/5/6
f 427/5/6 425/5/6 428/5/6
f 429/4/6 430/4/6 431/4/6
f 431/4/6 430/4/6 432/4/6
f 433/5/6 434/5/6 436/5/6
f 436/5/6 434/5/6 437/5/6
f 435/5/6 436/5/6 439/5/6
f 439/5/6 436/5/6 440/5/6
f 437/5/6 438/5/6 441/5/6
f 441/5/6 438/5/6 442/5/6
f 440/5/6 441/5/6 443/5/6
f 443/5/6 441/5/6 444/5/6
