# MagicaVoxel @ Ephtracy

# group
o bunkbed

# material
mtllib bedroom_oldie-1-bunkbed.mtl
usemtl palette

# normals
vn -1 0 0
vn 1 0 0
vn 0 0 1
vn 0 0 -1
vn 0 -1 0
vn 0 1 0

# texcoords
vt 0.220703 0.5
vt 0.224609 0.5
vt 0.228516 0.5
vt 0.595703 0.5
vt 0.599609 0.5
vt 0.603516 0.5
vt 0.607422 0.5
vt 0.611328 0.5
vt 0.615234 0.5
vt 0.619141 0.5
vt 0.623047 0.5
vt 0.626953 0.5

# verts
v -0.5 0.1 2.1
v -0.5 0.1 2
v -0.5 0.1 0.2
v -0.5 0.1 0.1
v -0.5 0.4 2
v -0.5 0.4 0.2
v -0.5 0.5 2
v -0.5 0.5 1.9
v -0.5 0.5 1.8
v -0.5 0.5 1.7
v -0.5 0.5 1.6
v -0.5 0.5 1.5
v -0.5 0.5 1.4
v -0.5 0.5 1.1
v -0.5 0.5 1
v -0.5 0.5 0.7
v -0.5 0.5 0.6
v -0.5 0.5 0.3
v -0.5 0.5 0.2
v -0.5 0.6 2
v -0.5 0.6 1.9
v -0.5 0.6 1.8
v -0.5 0.6 1.7
v -0.5 0.6 1.6
v -0.5 0.6 1.5
v -0.5 0.6 1.4
v -0.5 0.6 1.1
v -0.5 0.6 1
v -0.5 0.6 0.7
v -0.5 0.6 0.6
v -0.5 0.6 0.3
v -0.5 0.6 0.2
v -0.5 1.5 2
v -0.5 1.5 0.2
v -0.5 1.6 2
v -0.5 1.6 1.9
v -0.5 1.6 1.8
v -0.5 1.6 1.7
v -0.5 1.6 1.6
v -0.5 1.6 1.5
v -0.5 1.6 1.4
v -0.5 1.6 1.1
v -0.5 1.6 1
v -0.5 1.6 0.7
v -0.5 1.6 0.6
v -0.5 1.6 0.3
v -0.5 1.6 0.2
v -0.5 1.7 2
v -0.5 1.7 1.9
v -0.5 1.7 1.8
v -0.5 1.7 1.7
v -0.5 1.7 1.6
v -0.5 1.7 1.5
v -0.5 1.7 1.4
v -0.5 1.7 1.1
v -0.5 1.7 1
v -0.5 1.7 0.7
v -0.5 1.7 0.6
v -0.5 1.7 0.3
v -0.5 1.7 0.2
v -0.5 1.8 2
v -0.5 1.8 0.2
v -0.5 1.9 2
v -0.5 1.9 0.2
v -0.5 2.1 2.1
v -0.5 2.1 2
v -0.5 2.1 0.2
v -0.5 2.1 0.1
v -0.4 0.3 2
v -0.4 0.3 1.9
v -0.4 0.3 1.8
v -0.4 0.3 1.7
v -0.4 0.3 1.6
v -0.4 0.3 1.5
v -0.4 0.3 1.4
v -0.4 0.3 1.3
v -0.4 0.3 1.2
v -0.4 0.3 1.1
v -0.4 0.3 1
v -0.4 0.3 0.9
v -0.4 0.3 0.8
v -0.4 0.3 0.7
v -0.4 0.3 0.6
v -0.4 0.3 0.5
v -0.4 0.3 0.4
v -0.4 0.3 0.2
v -0.4 0.4 2
v -0.4 0.4 1.9
v -0.4 0.4 1.8
v -0.4 0.4 1.7
v -0.4 0.4 1.6
v -0.4 0.4 1.5
v -0.4 0.4 1.4
v -0.4 0.4 1.3
v -0.4 0.4 1.2
v -0.4 0.4 1.1
v -0.4 0.4 1
v -0.4 0.4 0.9
v -0.4 0.4 0.8
v -0.4 0.4 0.7
v -0.4 0.4 0.6
v -0.4 0.4 0.5
v -0.4 0.4 0.4
v -0.4 0.4 0.2
v -0.4 0.6 2
v -0.4 0.6 1.9
v -0.4 0.6 1.8
v -0.4 0.6 1.7
v -0.4 0.6 1.6
v -0.4 0.6 1.5
v -0.4 0.6 1.4
v -0.4 0.6 1.3
v -0.4 0.6 1.2
v -0.4 0.6 1.1
v -0.4 0.6 1
v -0.4 0.6 0.9
v -0.4 0.6 0.8
v -0.4 0.6 0.7
v -0.4 0.6 0.6
v -0.4 0.6 0.5
v -0.4 0.6 0.4
v -0.4 0.6 0.3
v -0.4 0.6 0.2
v -0.4 0.7 2
v -0.4 0.7 1.9
v -0.4 0.7 1.8
v -0.4 0.7 1.7
v -0.4 0.7 1.6
v -0.4 0.7 1.5
v -0.4 0.7 1.4
v -0.4 0.7 1.3
v -0.4 0.7 1.2
v -0.4 0.7 1.1
v -0.4 0.7 1
v -0.4 0.7 0.9
v -0.4 0.7 0.8
v -0.4 0.7 0.7
v -0.4 0.7 0.6
v -0.4 0.7 0.5
v -0.4 0.7 0.4
v -0.4 0.7 0.3
v -0.4 0.7 0.2
v -0.4 0.8 0.5
v -0.4 0.8 0.4
v -0.4 0.8 0.3
v -0.4 0.8 0.2
v -0.4 0.9 0.4
v -0.4 0.9 0.3
v -0.4 1.4 2
v -0.4 1.4 1.9
v -0.4 1.4 1.8
v -0.4 1.4 1.7
v -0.4 1.4 1.6
v -0.4 1.4 1.5
v -0.4 1.4 1.4
v -0.4 1.4 1.3
v -0.4 1.4 1.2
v -0.4 1.4 1.1
v -0.4 1.4 1
v -0.4 1.4 0.9
v -0.4 1.4 0.8
v -0.4 1.4 0.7
v -0.4 1.4 0.6
v -0.4 1.4 0.5
v -0.4 1.4 0.4
v -0.4 1.4 0.3
v -0.4 1.5 2
v -0.4 1.5 1.9
v -0.4 1.5 1.8
v -0.4 1.5 1.7
v -0.4 1.5 1.6
v -0.4 1.5 1.5
v -0.4 1.5 1.4
v -0.4 1.5 1.3
v -0.4 1.5 1.2
v -0.4 1.5 1.1
v -0.4 1.5 1
v -0.4 1.5 0.9
v -0.4 1.5 0.8
v -0.4 1.5 0.7
v -0.4 1.5 0.6
v -0.4 1.5 0.5
v -0.4 1.5 0.4
v -0.4 1.5 0.3
v -0.4 1.7 2
v -0.4 1.7 1.9
v -0.4 1.7 1.8
v -0.4 1.7 1.7
v -0.4 1.7 1.6
v -0.4 1.7 1.5
v -0.4 1.7 1.4
v -0.4 1.7 1.3
v -0.4 1.7 1.2
v -0.4 1.7 1.1
v -0.4 1.7 1
v -0.4 1.7 0.9
v -0.4 1.7 0.8
v -0.4 1.7 0.7
v -0.4 1.7 0.6
v -0.4 1.7 0.5
v -0.4 1.7 0.4
v -0.4 1.7 0.3
v -0.4 1.7 0.2
v -0.4 1.8 2
v -0.4 1.8 1.9
v -0.4 1.8 1.8
v -0.4 1.8 1.7
v -0.4 1.8 1.6
v -0.4 1.8 1.5
v -0.4 1.8 1.4
v -0.4 1.8 1.3
v -0.4 1.8 1.2
v -0.4 1.8 1.1
v -0.4 1.8 1
v -0.4 1.8 0.9
v -0.4 1.8 0.8
v -0.4 1.8 0.7
v -0.4 1.8 0.6
v -0.4 1.8 0.5
v -0.4 1.8 0.4
v -0.4 1.8 0.3
v -0.4 1.8 0.2
v -0.4 1.9 0.4
v -0.4 1.9 0.3
v -0.4 2 0.4
v -0.4 2 0.3
v -0.3 0.7 0.6
v -0.3 0.7 0.5
v -0.3 0.8 0.6
v -0.3 0.8 0.5
v -0.3 0.8 0.4
v -0.3 0.8 0.3
v -0.3 0.8 0.2
v -0.3 0.9 0.5
v -0.3 0.9 0.4
v -0.3 0.9 0.3
v -0.3 0.9 0.2
v -0.3 1.8 0.6
v -0.3 1.8 0.5
v -0.3 1.9 0.6
v -0.3 1.9 0.5
v -0.3 1.9 0.4
v -0.3 1.9 0.3
v -0.3 1.9 0.2
v -0.3 2 0.5
v -0.3 2 0.4
v -0.3 2 0.3
v -0.3 2 0.2
v 0.4 0.1 2.1
v 0.4 0.1 2
v 0.4 0.1 0.2
v 0.4 0.1 0.1
v 0.4 0.3 2
v 0.4 0.3 0.2
v 0.4 0.5 2.1
v 0.4 0.5 2
v 0.4 0.5 0.2
v 0.4 0.6 2.1
v 0.4 0.6 2
v 0.4 0.6 0.2
v 0.4 0.6 0.1
v 0.4 0.7 2
v 0.4 0.8 0.2
v 0.4 0.8 0.1
v 0.4 1.4 2
v 0.4 1.5 2.1
v 0.4 1.5 2
v 0.4 1.5 0.2
v 0.4 1.6 0.2
v 0.4 1.7 2.1
v 0.4 1.7 2
v 0.4 1.7 0.2
v 0.4 1.7 0.1
v 0.4 1.8 2.1
v 0.4 1.8 2
v 0.4 1.8 1.8
v 0.4 1.8 1.7
v 0.4 1.8 1.5
v 0.4 1.8 1.4
v 0.4 1.8 1.1
v 0.4 1.8 1
v 0.4 1.8 0.7
v 0.4 1.8 0.6
v 0.4 1.8 0.5
v 0.4 1.9 2.1
v 0.4 1.9 2
v 0.4 1.9 0.5
v 0.4 1.9 0.2
v 0.4 1.9 0.1
v 0.4 2.1 2.1
v 0.4 2.1 2
v 0.4 2.1 0.2
v 0.4 2.1 0.1
v 0.5 0.1 1.9
v 0.5 0.1 1.8
v 0.5 0.1 1.5
v 0.5 0.1 1.4
v 0.5 0.2 1.8
v 0.5 0.2 1.5
v 0.5 0.3 1.8
v 0.5 0.3 1.5
v 0.5 0.4 1.9
v 0.5 0.4 1.8
v 0.5 0.4 1.5
v 0.5 0.4 1.4
v 0.5 0.6 1.9
v 0.5 0.6 1.8
v 0.5 0.6 1.5
v 0.5 0.6 1.4
v 0.5 0.8 1.8
v 0.5 0.8 1.5
v 0.5 0.9 1.8
v 0.5 0.9 1.5
v 0.5 1.1 1.8
v 0.5 1.1 1.5
v 0.5 1.2 1.8
v 0.5 1.2 1.5
v 0.5 1.4 1.8
v 0.5 1.4 1.5
v 0.5 1.5 1.9
v 0.5 1.5 1.8
v 0.5 1.5 1.5
v 0.5 1.5 1.4
v 0.5 1.7 1.9
v 0.5 1.7 1.8
v 0.5 1.7 1.7
v 0.5 1.7 1.5
v 0.5 1.7 1.4
v 0.5 1.8 1.9
v 0.5 1.8 1.8
v 0.5 1.8 1.5
v 0.5 1.8 1.4
v -0.4 0.1 2.1
v -0.4 0.1 2
v -0.4 0.1 0.2
v -0.4 0.1 0.1
v -0.4 0.3 2
v -0.4 0.3 0.2
v -0.4 0.5 2.1
v -0.4 0.5 2
v -0.4 0.5 0.2
v -0.4 0.6 2.1
v -0.4 0.6 2
v -0.4 0.6 0.2
v -0.4 0.6 0.1
v -0.4 0.7 2
v -0.4 0.8 0.2
v -0.4 0.8 0.1
v -0.4 1.4 2
v -0.4 1.5 2.1
v -0.4 1.5 2
v -0.4 1.5 0.2
v -0.4 1.6 0.2
v -0.4 1.7 2.1
v -0.4 1.7 2
v -0.4 1.7 0.2
v -0.4 1.7 0.1
v -0.4 1.8 2.1
v -0.4 1.8 2
v -0.4 1.8 1.9
v -0.4 1.8 1.8
v -0.4 1.8 1.7
v -0.4 1.8 1.6
v -0.4 1.8 1.5
v -0.4 1.8 1.4
v -0.4 1.8 1.3
v -0.4 1.8 1.2
v -0.4 1.8 1.1
v -0.4 1.8 1
v -0.4 1.8 0.9
v -0.4 1.8 0.8
v -0.4 1.8 0.7
v -0.4 1.8 0.6
v -0.4 1.8 0.5
v -0.4 1.9 2.1
v -0.4 1.9 2
v -0.4 1.9 0.5
v -0.4 1.9 0.2
v -0.4 1.9 0.1
v -0.4 2.1 2.1
v -0.4 2.1 2
v -0.4 2.1 0.2
v -0.4 2.1 0.1
v 0.3 0.7 0.6
v 0.3 0.7 0.5
v 0.3 0.8 0.6
v 0.3 0.8 0.5
v 0.3 0.8 0.4
v 0.3 0.8 0.3
v 0.3 0.8 0.2
v 0.3 0.9 0.5
v 0.3 0.9 0.4
v 0.3 0.9 0.3
v 0.3 0.9 0.2
v 0.3 1.8 0.6
v 0.3 1.8 0.5
v 0.3 1.9 0.6
v 0.3 1.9 0.5
v 0.3 1.9 0.4
v 0.3 1.9 0.3
v 0.3 1.9 0.2
v 0.3 2 0.5
v 0.3 2 0.4
v 0.3 2 0.3
v 0.3 2 0.2
v 0.4 0.3 2
v 0.4 0.3 1.9
v 0.4 0.3 1.8
v 0.4 0.3 1.7
v 0.4 0.3 1.6
v 0.4 0.3 1.5
v 0.4 0.3 1.4
v 0.4 0.3 1.3
v 0.4 0.3 1.2
v 0.4 0.3 1.1
v 0.4 0.3 1
v 0.4 0.3 0.9
v 0.4 0.3 0.8
v 0.4 0.3 0.7
v 0.4 0.3 0.6
v 0.4 0.3 0.5
v 0.4 0.3 0.4
v 0.4 0.3 0.2
v 0.4 0.4 2
v 0.4 0.4 1.9
v 0.4 0.4 1.8
v 0.4 0.4 1.7
v 0.4 0.4 1.6
v 0.4 0.4 1.5
v 0.4 0.4 1.4
v 0.4 0.4 1.3
v 0.4 0.4 1.2
v 0.4 0.4 1.1
v 0.4 0.4 1
v 0.4 0.4 0.9
v 0.4 0.4 0.8
v 0.4 0.4 0.7
v 0.4 0.4 0.6
v 0.4 0.4 0.5
v 0.4 0.4 0.4
v 0.4 0.4 0.2
v 0.4 0.6 2
v 0.4 0.6 1.8
v 0.4 0.6 1.7
v 0.4 0.6 1.5
v 0.4 0.6 1.4
v 0.4 0.6 1.3
v 0.4 0.6 1.2
v 0.4 0.6 1.1
v 0.4 0.6 1
v 0.4 0.6 0.9
v 0.4 0.6 0.8
v 0.4 0.6 0.7
v 0.4 0.6 0.6
v 0.4 0.6 0.5
v 0.4 0.6 0.4
v 0.4 0.6 0.3
v 0.4 0.6 0.2
v 0.4 0.7 2
v 0.4 0.7 1.8
v 0.4 0.7 1.7
v 0.4 0.7 1.5
v 0.4 0.7 1.4
v 0.4 0.7 1.1
v 0.4 0.7 1
v 0.4 0.7 0.7
v 0.4 0.7 0.6
v 0.4 0.7 0.5
v 0.4 0.7 0.3
v 0.4 0.7 0.2
v 0.4 0.8 0.5
v 0.4 0.8 0.4
v 0.4 0.8 0.3
v 0.4 0.8 0.2
v 0.4 0.9 0.4
v 0.4 0.9 0.3
v 0.4 1.4 2
v 0.4 1.4 1.9
v 0.4 1.4 1.8
v 0.4 1.4 1.7
v 0.4 1.4 1.6
v 0.4 1.4 1.5
v 0.4 1.4 1.4
v 0.4 1.4 1.3
v 0.4 1.4 1.2
v 0.4 1.4 1.1
v 0.4 1.4 1
v 0.4 1.4 0.9
v 0.4 1.4 0.8
v 0.4 1.4 0.7
v 0.4 1.4 0.6
v 0.4 1.4 0.5
v 0.4 1.4 0.4
v 0.4 1.4 0.3
v 0.4 1.5 2
v 0.4 1.5 1.9
v 0.4 1.5 1.8
v 0.4 1.5 1.7
v 0.4 1.5 1.6
v 0.4 1.5 1.5
v 0.4 1.5 1.4
v 0.4 1.5 1.3
v 0.4 1.5 1.2
v 0.4 1.5 1.1
v 0.4 1.5 1
v 0.4 1.5 0.9
v 0.4 1.5 0.8
v 0.4 1.5 0.7
v 0.4 1.5 0.6
v 0.4 1.5 0.5
v 0.4 1.5 0.4
v 0.4 1.5 0.3
v 0.4 1.7 2
v 0.4 1.7 1.8
v 0.4 1.7 1.7
v 0.4 1.7 1.5
v 0.4 1.7 1.4
v 0.4 1.7 1.3
v 0.4 1.7 1.2
v 0.4 1.7 1.1
v 0.4 1.7 1
v 0.4 1.7 0.9
v 0.4 1.7 0.8
v 0.4 1.7 0.7
v 0.4 1.7 0.6
v 0.4 1.7 0.5
v 0.4 1.7 0.4
v 0.4 1.7 0.3
v 0.4 1.7 0.2
v 0.4 1.8 2
v 0.4 1.8 1.8
v 0.4 1.8 1.7
v 0.4 1.8 1.5
v 0.4 1.8 1.4
v 0.4 1.8 1.1
v 0.4 1.8 1
v 0.4 1.8 0.7
v 0.4 1.8 0.6
v 0.4 1.8 0.3
v 0.4 1.8 0.2
v 0.4 1.9 0.4
v 0.4 1.9 0.3
v 0.4 2 0.4
v 0.4 2 0.3
v 0.5 0.1 2.1
v 0.5 0.1 2
v 0.5 0.1 0.2
v 0.5 0.1 0.1
v 0.5 0.4 2
v 0.5 0.4 1.9
v 0.5 0.4 1.8
v 0.5 0.4 1.5
v 0.5 0.4 1.4
v 0.5 0.4 0.2
v 0.5 0.5 2
v 0.5 0.5 1.9
v 0.5 0.5 1.8
v 0.5 0.5 1.5
v 0.5 0.5 1.4
v 0.5 0.5 1.3
v 0.5 0.5 1.2
v 0.5 0.5 1.1
v 0.5 0.5 1
v 0.5 0.5 0.9
v 0.5 0.5 0.8
v 0.5 0.5 0.7
v 0.5 0.5 0.6
v 0.5 0.5 0.5
v 0.5 0.5 0.4
v 0.5 0.5 0.3
v 0.5 0.5 0.2
v 0.5 0.6 2
v 0.5 0.6 1.9
v 0.5 0.6 1.4
v 0.5 0.6 1.3
v 0.5 0.6 1.2
v 0.5 0.6 1.1
v 0.5 0.6 1
v 0.5 0.6 0.9
v 0.5 0.6 0.8
v 0.5 0.6 0.7
v 0.5 0.6 0.6
v 0.5 0.6 0.5
v 0.5 0.6 0.4
v 0.5 0.6 0.3
v 0.5 0.6 0.2
v 0.5 1.5 2
v 0.5 1.5 1.9
v 0.5 1.5 1.8
v 0.5 1.5 1.5
v 0.5 1.5 1.4
v 0.5 1.5 0.2
v 0.5 1.6 2
v 0.5 1.6 1.9
v 0.5 1.6 1.8
v 0.5 1.6 1.7
v 0.5 1.6 1.5
v 0.5 1.6 1.4
v 0.5 1.6 1.3
v 0.5 1.6 1.2
v 0.5 1.6 1.1
v 0.5 1.6 1
v 0.5 1.6 0.9
v 0.5 1.6 0.8
v 0.5 1.6 0.7
v 0.5 1.6 0.6
v 0.5 1.6 0.5
v 0.5 1.6 0.4
v 0.5 1.6 0.3
v 0.5 1.6 0.2
v 0.5 1.7 2
v 0.5 1.7 1.9
v 0.5 1.7 1.8
v 0.5 1.7 1.7
v 0.5 1.7 1.5
v 0.5 1.7 1.4
v 0.5 1.7 1.3
v 0.5 1.7 1.2
v 0.5 1.7 1.1
v 0.5 1.7 1
v 0.5 1.7 0.9
v 0.5 1.7 0.8
v 0.5 1.7 0.7
v 0.5 1.7 0.6
v 0.5 1.7 0.5
v 0.5 1.7 0.4
v 0.5 1.7 0.3
v 0.5 1.7 0.2
v 0.5 1.8 2
v 0.5 1.8 1.9
v 0.5 1.8 1.8
v 0.5 1.8 1.5
v 0.5 1.8 1.4
v 0.5 1.8 0.2
v 0.5 1.9 2
v 0.5 1.9 1.9
v 0.5 1.9 1.8
v 0.5 1.9 1.5
v 0.5 1.9 1.4
v 0.5 1.9 0.2
v 0.5 2.1 2.1
v 0.5 2.1 2
v 0.5 2.1 0.2
v 0.5 2.1 0.1
v 0.6 0.1 1.9
v 0.6 0.1 1.8
v 0.6 0.1 1.5
v 0.6 0.1 1.4
v 0.6 0.2 1.8
v 0.6 0.2 1.5
v 0.6 0.3 1.8
v 0.6 0.3 1.5
v 0.6 0.5 1.8
v 0.6 0.5 1.5
v 0.6 0.6 1.8
v 0.6 0.6 1.5
v 0.6 0.8 1.8
v 0.6 0.8 1.5
v 0.6 0.9 1.8
v 0.6 0.9 1.5
v 0.6 1.1 1.8
v 0.6 1.1 1.5
v 0.6 1.2 1.8
v 0.6 1.2 1.5
v 0.6 1.4 1.8
v 0.6 1.4 1.5
v 0.6 1.5 1.8
v 0.6 1.5 1.5
v 0.6 1.7 1.8
v 0.6 1.7 1.5
v 0.6 1.8 1.8
v 0.6 1.8 1.5
v 0.6 1.9 1.9
v 0.6 1.9 1.8
v 0.6 1.9 1.5
v 0.6 1.9 1.4
v -0.5 0.1 2.1
v -0.5 2.1 2.1
v -0.4 0.1 2.1
v -0.4 0.5 2.1
v -0.4 0.6 2.1
v -0.4 1.5 2.1
v -0.4 1.7 2.1
v -0.4 1.8 2.1
v -0.4 1.9 2.1
v -0.4 2.1 2.1
v 0.4 0.1 2.1
v 0.4 0.5 2.1
v 0.4 0.6 2.1
v 0.4 1.5 2.1
v 0.4 1.7 2.1
v 0.4 1.8 2.1
v 0.4 1.9 2.1
v 0.4 2.1 2.1
v 0.5 0.1 2.1
v 0.5 2.1 2.1
v -0.4 0.3 2
v -0.4 0.5 2
v -0.4 0.6 2
v -0.4 0.7 2
v -0.4 1.4 2
v -0.4 1.5 2
v -0.4 1.7 2
v -0.4 1.8 2
v -0.3 0.6 2
v -0.3 0.7 2
v -0.3 1.7 2
v -0.3 1.8 2
v -0.2 0.6 2
v -0.2 0.7 2
v -0.2 1.7 2
v -0.2 1.8 2
v -0.1 0.6 2
v -0.1 0.7 2
v -0.1 1.7 2
v -0.1 1.8 2
v 4.47035e-008 0.6 2
v 4.47035e-008 0.7 2
v 4.47035e-008 1.7 2
v 4.47035e-008 1.8 2
v 0.1 0.6 2
v 0.1 0.7 2
v 0.1 1.7 2
v 0.1 1.8 2
v 0.2 0.6 2
v 0.2 0.7 2
v 0.2 1.7 2
v 0.2 1.8 2
v 0.3 0.6 2
v 0.3 0.7 2
v 0.3 1.7 2
v 0.3 1.8 2
v 0.4 0.3 2
v 0.4 0.5 2
v 0.4 0.6 2
v 0.4 0.7 2
v 0.4 1.4 2
v 0.4 1.5 2
v 0.4 1.7 2
v 0.4 1.8 2
v 0.5 0.1 1.9
v 0.5 0.4 1.9
v 0.5 0.5 1.9
v 0.5 0.6 1.9
v 0.5 1.5 1.9
v 0.5 1.6 1.9
v 0.5 1.7 1.9
v 0.5 1.8 1.9
v 0.5 1.9 1.9
v 0.6 0.1 1.9
v 0.6 1.9 1.9
v -0.4 0.3 1.8
v -0.4 0.4 1.8
v -0.4 1.4 1.8
v -0.4 1.5 1.8
v -0.3 0.4 1.8
v -0.3 1.5 1.8
v 0.3 0.4 1.8
v 0.3 1.5 1.8
v 0.4 0.3 1.8
v 0.4 0.4 1.8
v 0.4 1.4 1.8
v 0.4 1.5 1.8
v -0.4 0.3 1.6
v -0.4 0.4 1.6
v -0.4 1.4 1.6
v -0.4 1.5 1.6
v -0.3 0.4 1.6
v -0.3 1.5 1.6
v 0.3 0.4 1.6
v 0.3 1.5 1.6
v 0.4 0.3 1.6
v 0.4 0.4 1.6
v 0.4 1.4 1.6
v 0.4 1.5 1.6
v 0.5 0.1 1.5
v 0.5 0.2 1.5
v 0.5 0.3 1.5
v 0.5 0.4 1.5
v 0.5 0.5 1.5
v 0.5 0.6 1.5
v 0.5 0.8 1.5
v 0.5 0.9 1.5
v 0.5 1.1 1.5
v 0.5 1.2 1.5
v 0.5 1.4 1.5
v 0.5 1.5 1.5
v 0.5 1.6 1.5
v 0.5 1.7 1.5
v 0.5 1.8 1.5
v 0.5 1.9 1.5
v 0.6 0.1 1.5
v 0.6 0.2 1.5
v 0.6 0.3 1.5
v 0.6 0.5 1.5
v 0.6 0.6 1.5
v 0.6 0.8 1.5
v 0.6 0.9 1.5
v 0.6 1.1 1.5
v 0.6 1.2 1.5
v 0.6 1.4 1.5
v 0.6 1.5 1.5
v 0.6 1.7 1.5
v 0.6 1.8 1.5
v 0.6 1.9 1.5
v -0.4 0.3 1.4
v -0.4 0.4 1.4
v -0.4 1.4 1.4
v -0.4 1.5 1.4
v -0.3 0.4 1.4
v -0.3 1.5 1.4
v 0.3 0.4 1.4
v 0.3 1.5 1.4
v 0.4 0.3 1.4
v 0.4 0.4 1.4
v 0.4 1.4 1.4
v 0.4 1.5 1.4
v -0.4 0.3 1.2
v -0.4 0.4 1.2
v -0.4 1.4 1.2
v -0.4 1.5 1.2
v -0.3 0.4 1.2
v -0.3 1.5 1.2
v 0.3 0.4 1.2
v 0.3 1.5 1.2
v 0.4 0.3 1.2
v 0.4 0.4 1.2
v 0.4 1.4 1.2
v 0.4 1.5 1.2
v -0.4 0.3 1
v -0.4 0.4 1
v -0.4 1.4 1
v -0.4 1.5 1
v -0.3 0.4 1
v -0.3 1.5 1
v 0.3 0.4 1
v 0.3 1.5 1
v 0.4 0.3 1
v 0.4 0.4 1
v 0.4 1.4 1
v 0.4 1.5 1
v -0.4 0.3 0.8
v -0.4 0.4 0.8
v -0.4 1.4 0.8
v -0.4 1.5 0.8
v -0.3 0.4 0.8
v -0.3 1.5 0.8
v 0.3 0.4 0.8
v 0.3 1.5 0.8
v 0.4 0.3 0.8
v 0.4 0.4 0.8
v 0.4 1.4 0.8
v 0.4 1.5 0.8
v -0.4 0.3 0.6
v -0.4 0.4 0.6
v -0.4 1.4 0.6
v -0.4 1.5 0.6
v -0.3 0.4 0.6
v -0.3 0.7 0.6
v -0.3 0.8 0.6
v -0.3 1.5 0.6
v -0.3 1.8 0.6
v -0.3 1.9 0.6
v -0.1 0.7 0.6
v -0.1 1.8 0.6
v 4.47035e-008 0.7 0.6
v 4.47035e-008 1.8 0.6
v 0.1 1.8 0.6
v 0.2 1.8 0.6
v 0.3 0.4 0.6
v 0.3 0.7 0.6
v 0.3 0.8 0.6
v 0.3 1.5 0.6
v 0.3 1.8 0.6
v 0.3 1.9 0.6
v 0.4 0.3 0.6
v 0.4 0.4 0.6
v 0.4 1.4 0.6
v 0.4 1.5 0.6
v -0.4 0.7 0.5
v -0.4 0.8 0.5
v -0.4 1.8 0.5
v -0.4 1.9 0.5
v -0.3 0.7 0.5
v -0.3 0.8 0.5
v -0.3 0.9 0.5
v -0.3 1.8 0.5
v -0.3 1.9 0.5
v -0.3 2 0.5
v 0.3 0.7 0.5
v 0.3 0.8 0.5
v 0.3 0.9 0.5
v 0.3 1.8 0.5
v 0.3 1.9 0.5
v 0.3 2 0.5
v 0.4 0.7 0.5
v 0.4 0.8 0.5
v 0.4 1.8 0.5
v 0.4 1.9 0.5
v -0.4 0.3 0.4
v -0.4 0.4 0.4
v -0.4 0.8 0.4
v -0.4 0.9 0.4
v -0.4 1.4 0.4
v -0.4 1.5 0.4
v -0.4 1.9 0.4
v -0.4 2 0.4
v -0.3 0.4 0.4
v -0.3 0.8 0.4
v -0.3 0.9 0.4
v -0.3 1.5 0.4
v -0.3 1.9 0.4
v -0.3 2 0.4
v 0.3 0.4 0.4
v 0.3 0.8 0.4
v 0.3 0.9 0.4
v 0.3 1.5 0.4
v 0.3 1.9 0.4
v 0.3 2 0.4
v 0.4 0.3 0.4
v 0.4 0.4 0.4
v 0.4 0.8 0.4
v 0.4 0.9 0.4
v 0.4 1.4 0.4
v 0.4 1.5 0.4
v 0.4 1.9 0.4
v 0.4 2 0.4
v -0.5 0.1 0.2
v -0.5 0.4 0.2
v -0.5 0.6 0.2
v -0.5 1.5 0.2
v -0.5 1.7 0.2
v -0.5 1.8 0.2
v -0.5 1.9 0.2
v -0.5 2.1 0.2
v -0.4 0.1 0.2
v -0.4 0.3 0.2
v -0.4 0.4 0.2
v -0.4 0.6 0.2
v -0.4 0.7 0.2
v -0.4 0.8 0.2
v -0.4 1.5 0.2
v -0.4 1.7 0.2
v -0.4 1.8 0.2
v -0.4 1.9 0.2
v -0.4 2.1 0.2
v 0.4 0.1 0.2
v 0.4 0.3 0.2
v 0.4 0.4 0.2
v 0.4 0.6 0.2
v 0.4 0.7 0.2
v 0.4 0.8 0.2
v 0.4 1.5 0.2
v 0.4 1.7 0.2
v 0.4 1.8 0.2
v 0.4 1.9 0.2
v 0.4 2.1 0.2
v 0.5 0.1 0.2
v 0.5 0.4 0.2
v 0.5 0.6 0.2
v 0.5 1.5 0.2
v 0.5 1.7 0.2
v 0.5 1.8 0.2
v 0.5 1.9 0.2
v 0.5 2.1 0.2
v -0.5 0.1 2
v -0.5 0.4 2
v -0.5 0.6 2
v -0.5 1.5 2
v -0.5 1.7 2
v -0.5 1.8 2
v -0.5 1.9 2
v -0.5 2.1 2
v -0.4 0.1 2
v -0.4 0.3 2
v -0.4 0.4 2
v -0.4 0.6 2
v -0.4 0.7 2
v -0.4 1.4 2
v -0.4 1.5 2
v -0.4 1.7 2
v -0.4 1.8 2
v -0.4 1.9 2
v -0.4 2.1 2
v -0.3 1.8 2
v -0.2 1.8 2
v -0.1 1.8 2
v 4.47035e-008 1.8 2
v 0.1 1.8 2
v 0.2 1.8 2
v 0.3 1.8 2
v 0.4 0.1 2
v 0.4 0.3 2
v 0.4 0.4 2
v 0.4 0.6 2
v 0.4 0.7 2
v 0.4 1.4 2
v 0.4 1.5 2
v 0.4 1.7 2
v 0.4 1.8 2
v 0.4 1.9 2
v 0.4 2.1 2
v 0.5 0.1 2
v 0.5 0.4 2
v 0.5 0.6 2
v 0.5 1.5 2
v 0.5 1.7 2
v 0.5 1.8 2
v 0.5 1.9 2
v 0.5 2.1 2
v -0.4 0.3 1.9
v -0.4 0.4 1.9
v -0.4 1.4 1.9
v -0.4 1.5 1.9
v -0.3 0.4 1.9
v -0.3 1.5 1.9
v 0.3 0.4 1.9
v 0.3 1.5 1.9
v 0.4 0.3 1.9
v 0.4 0.4 1.9
v 0.4 1.4 1.9
v 0.4 1.5 1.9
v 0.5 0.1 1.8
v 0.5 0.2 1.8
v 0.5 0.3 1.8
v 0.5 0.4 1.8
v 0.5 0.5 1.8
v 0.5 0.6 1.8
v 0.5 0.8 1.8
v 0.5 0.9 1.8
v 0.5 1.1 1.8
v 0.5 1.2 1.8
v 0.5 1.4 1.8
v 0.5 1.5 1.8
v 0.5 1.6 1.8
v 0.5 1.7 1.8
v 0.5 1.8 1.8
v 0.5 1.9 1.8
v 0.6 0.1 1.8
v 0.6 0.2 1.8
v 0.6 0.3 1.8
v 0.6 0.5 1.8
v 0.6 0.6 1.8
v 0.6 0.8 1.8
v 0.6 0.9 1.8
v 0.6 1.1 1.8
v 0.6 1.2 1.8
v 0.6 1.4 1.8
v 0.6 1.5 1.8
v 0.6 1.7 1.8
v 0.6 1.8 1.8
v 0.6 1.9 1.8
v -0.4 0.3 1.7
v -0.4 0.4 1.7
v -0.4 1.4 1.7
v -0.4 1.5 1.7
v -0.3 0.4 1.7
v -0.3 1.5 1.7
v 0.3 0.4 1.7
v 0.3 1.5 1.7
v 0.4 0.3 1.7
v 0.4 0.4 1.7
v 0.4 1.4 1.7
v 0.4 1.5 1.7
v -0.4 0.3 1.5
v -0.4 0.4 1.5
v -0.4 1.4 1.5
v -0.4 1.5 1.5
v -0.3 0.4 1.5
v -0.3 1.5 1.5
v 0.3 0.4 1.5
v 0.3 1.5 1.5
v 0.4 0.3 1.5
v 0.4 0.4 1.5
v 0.4 1.4 1.5
v 0.4 1.5 1.5
v 0.5 0.1 1.4
v 0.5 0.4 1.4
v 0.5 0.5 1.4
v 0.5 0.6 1.4
v 0.5 1.5 1.4
v 0.5 1.6 1.4
v 0.5 1.7 1.4
v 0.5 1.8 1.4
v 0.5 1.9 1.4
v 0.6 0.1 1.4
v 0.6 1.9 1.4
v -0.4 0.3 1.3
v -0.4 0.4 1.3
v -0.4 1.4 1.3
v -0.4 1.5 1.3
v -0.3 0.4 1.3
v -0.3 1.5 1.3
v 0.3 0.4 1.3
v 0.3 1.5 1.3
v 0.4 0.3 1.3
v 0.4 0.4 1.3
v 0.4 1.4 1.3
v 0.4 1.5 1.3
v -0.4 0.3 1.1
v -0.4 0.4 1.1
v -0.4 1.4 1.1
v -0.4 1.5 1.1
v -0.3 0.4 1.1
v -0.3 1.5 1.1
v 0.3 0.4 1.1
v 0.3 1.5 1.1
v 0.4 0.3 1.1
v 0.4 0.4 1.1
v 0.4 1.4 1.1
v 0.4 1.5 1.1
v -0.4 0.3 0.9
v -0.4 0.4 0.9
v -0.4 1.4 0.9
v -0.4 1.5 0.9
v -0.3 0.4 0.9
v -0.3 1.5 0.9
v 0.3 0.4 0.9
v 0.3 1.5 0.9
v 0.4 0.3 0.9
v 0.4 0.4 0.9
v 0.4 1.4 0.9
v 0.4 1.5 0.9
v -0.4 0.3 0.7
v -0.4 0.4 0.7
v -0.4 1.4 0.7
v -0.4 1.5 0.7
v -0.3 0.4 0.7
v -0.3 1.5 0.7
v 0.3 0.4 0.7
v 0.3 1.5 0.7
v 0.4 0.3 0.7
v 0.4 0.4 0.7
v 0.4 1.4 0.7
v 0.4 1.5 0.7
v -0.4 0.3 0.5
v -0.4 0.4 0.5
v -0.4 1.4 0.5
v -0.4 1.5 0.5
v -0.3 0.4 0.5
v -0.3 1.5 0.5
v 0.3 0.4 0.5
v 0.3 1.5 0.5
v 0.4 0.3 0.5
v 0.4 0.4 0.5
v 0.4 1.4 0.5
v 0.4 1.5 0.5
v -0.4 0.8 0.3
v -0.4 0.9 0.3
v -0.4 1.4 0.3
v -0.4 1.5 0.3
v -0.4 1.9 0.3
v -0.4 2 0.3
v -0.3 0.8 0.3
v -0.3 0.9 0.3
v -0.3 1.9 0.3
v -0.3 2 0.3
v 0.3 0.8 0.3
v 0.3 0.9 0.3
v 0.3 1.9 0.3
v 0.3 2 0.3
v 0.4 0.8 0.3
v 0.4 0.9 0.3
v 0.4 1.4 0.3
v 0.4 1.5 0.3
v 0.4 1.9 0.3
v 0.4 2 0.3
v -0.4 0.3 0.2
v -0.4 0.5 0.2
v -0.4 0.6 0.2
v -0.4 1.5 0.2
v -0.4 1.6 0.2
v -0.4 1.7 0.2
v -0.3 0.8 0.2
v -0.3 0.9 0.2
v -0.3 1.9 0.2
v -0.3 2 0.2
v 0.3 0.8 0.2
v 0.3 0.9 0.2
v 0.3 1.9 0.2
v 0.3 2 0.2
v 0.4 0.3 0.2
v 0.4 0.5 0.2
v 0.4 0.6 0.2
v 0.4 1.5 0.2
v 0.4 1.6 0.2
v 0.4 1.7 0.2
v -0.5 0.1 0.1
v -0.5 2.1 0.1
v -0.4 0.1 0.1
v -0.4 0.6 0.1
v -0.4 0.8 0.1
v -0.4 1.7 0.1
v -0.4 1.9 0.1
v -0.4 2.1 0.1
v 0.4 0.1 0.1
v 0.4 0.6 0.1
v 0.4 0.8 0.1
v 0.4 1.7 0.1
v 0.4 1.9 0.1
v 0.4 2.1 0.1
v 0.5 0.1 0.1
v 0.5 2.1 0.1
v -0.5 0.1 2.1
v -0.4 0.1 2.1
v 0.4 0.1 2.1
v 0.5 0.1 2.1
v -0.5 0.1 2
v -0.4 0.1 2
v 0.4 0.1 2
v 0.5 0.1 2
v 0.5 0.1 1.9
v 0.6 0.1 1.9
v 0.5 0.1 1.8
v 0.6 0.1 1.8
v 0.5 0.1 1.5
v 0.6 0.1 1.5
v 0.5 0.1 1.4
v 0.6 0.1 1.4
v -0.5 0.1 0.2
v -0.4 0.1 0.2
v 0.4 0.1 0.2
v 0.5 0.1 0.2
v -0.5 0.1 0.1
v -0.4 0.1 0.1
v 0.4 0.1 0.1
v 0.5 0.1 0.1
v 0.5 0.2 1.8
v 0.6 0.2 1.8
v 0.5 0.2 1.5
v 0.6 0.2 1.5
v -0.4 0.3 2
v 0.4 0.3 2
v -0.4 0.3 1.9
v 0.4 0.3 1.9
v -0.4 0.3 1.8
v 0.4 0.3 1.8
v -0.4 0.3 1.7
v 0.4 0.3 1.7
v -0.4 0.3 1.6
v 0.4 0.3 1.6
v -0.4 0.3 1.5
v 0.4 0.3 1.5
v -0.4 0.3 1.4
v 0.4 0.3 1.4
v -0.4 0.3 1.3
v 0.4 0.3 1.3
v -0.4 0.3 1.2
v 0.4 0.3 1.2
v -0.4 0.3 1.1
v 0.4 0.3 1.1
v -0.4 0.3 1
v 0.4 0.3 1
v -0.4 0.3 0.9
v 0.4 0.3 0.9
v -0.4 0.3 0.8
v 0.4 0.3 0.8
v -0.4 0.3 0.7
v 0.4 0.3 0.7
v -0.4 0.3 0.6
v 0.4 0.3 0.6
v -0.4 0.3 0.5
v 0.4 0.3 0.5
v -0.4 0.3 0.4
v 0.4 0.3 0.4
v -0.4 0.3 0.2
v 0.4 0.3 0.2
v -0.5 0.4 2
v -0.4 0.4 2
v 0.4 0.4 2
v 0.5 0.4 2
v -0.4 0.4 1.9
v -0.3 0.4 1.9
v 0.3 0.4 1.9
v 0.4 0.4 1.9
v 0.5 0.4 1.9
v -0.4 0.4 1.8
v -0.3 0.4 1.8
v 0.3 0.4 1.8
v 0.4 0.4 1.8
v 0.5 0.4 1.8
v -0.4 0.4 1.7
v -0.3 0.4 1.7
v 0.3 0.4 1.7
v 0.4 0.4 1.7
v -0.4 0.4 1.6
v -0.3 0.4 1.6
v 0.3 0.4 1.6
v 0.4 0.4 1.6
v -0.4 0.4 1.5
v -0.3 0.4 1.5
v 0.3 0.4 1.5
v 0.4 0.4 1.5
v 0.5 0.4 1.5
v -0.4 0.4 1.4
v -0.3 0.4 1.4
v 0.3 0.4 1.4
v 0.4 0.4 1.4
v 0.5 0.4 1.4
v -0.4 0.4 1.3
v -0.3 0.4 1.3
v 0.3 0.4 1.3
v 0.4 0.4 1.3
v -0.4 0.4 1.2
v -0.3 0.4 1.2
v 0.3 0.4 1.2
v 0.4 0.4 1.2
v -0.4 0.4 1.1
v -0.3 0.4 1.1
v 0.3 0.4 1.1
v 0.4 0.4 1.1
v -0.4 0.4 1
v -0.3 0.4 1
v 0.3 0.4 1
v 0.4 0.4 1
v -0.4 0.4 0.9
v -0.3 0.4 0.9
v 0.3 0.4 0.9
v 0.4 0.4 0.9
v -0.4 0.4 0.8
v -0.3 0.4 0.8
v 0.3 0.4 0.8
v 0.4 0.4 0.8
v -0.4 0.4 0.7
v -0.3 0.4 0.7
v 0.3 0.4 0.7
v 0.4 0.4 0.7
v -0.4 0.4 0.6
v -0.3 0.4 0.6
v 0.3 0.4 0.6
v 0.4 0.4 0.6
v -0.4 0.4 0.5
v -0.3 0.4 0.5
v 0.3 0.4 0.5
v 0.4 0.4 0.5
v -0.4 0.4 0.4
v -0.3 0.4 0.4
v 0.3 0.4 0.4
v 0.4 0.4 0.4
v -0.5 0.4 0.2
v -0.4 0.4 0.2
v 0.4 0.4 0.2
v 0.5 0.4 0.2
v -0.4 0.5 2.1
v 0.4 0.5 2.1
v -0.4 0.5 2
v 0.4 0.5 2
v 0.5 0.5 1.8
v 0.6 0.5 1.8
v 0.5 0.5 1.5
v 0.6 0.5 1.5
v -0.4 0.6 0.2
v 0.4 0.6 0.2
v -0.4 0.6 0.1
v 0.4 0.6 0.1
v 0.5 0.8 1.8
v 0.6 0.8 1.8
v 0.5 0.8 1.5
v 0.6 0.8 1.5
v 0.5 1.1 1.8
v 0.6 1.1 1.8
v 0.5 1.1 1.5
v 0.6 1.1 1.5
v -0.4 1.4 2
v 0.4 1.4 2
v -0.4 1.4 1.9
v 0.4 1.4 1.9
v -0.4 1.4 1.8
v 0.4 1.4 1.8
v 0.5 1.4 1.8
v 0.6 1.4 1.8
v -0.4 1.4 1.7
v 0.4 1.4 1.7
v -0.4 1.4 1.6
v 0.4 1.4 1.6
v -0.4 1.4 1.5
v 0.4 1.4 1.5
v 0.5 1.4 1.5
v 0.6 1.4 1.5
v -0.4 1.4 1.4
v 0.4 1.4 1.4
v -0.4 1.4 1.3
v 0.4 1.4 1.3
v -0.4 1.4 1.2
v 0.4 1.4 1.2
v -0.4 1.4 1.1
v 0.4 1.4 1.1
v -0.4 1.4 1
v 0.4 1.4 1
v -0.4 1.4 0.9
v 0.4 1.4 0.9
v -0.4 1.4 0.8
v 0.4 1.4 0.8
v -0.4 1.4 0.7
v 0.4 1.4 0.7
v -0.4 1.4 0.6
v 0.4 1.4 0.6
v -0.4 1.4 0.5
v 0.4 1.4 0.5
v -0.4 1.4 0.4
v 0.4 1.4 0.4
v -0.4 1.4 0.3
v 0.4 1.4 0.3
v -0.4 1.5 2.1
v 0.4 1.5 2.1
v -0.5 1.5 2
v -0.4 1.5 2
v 0.4 1.5 2
v 0.5 1.5 2
v -0.4 1.5 1.9
v -0.3 1.5 1.9
v 0.3 1.5 1.9
v 0.4 1.5 1.9
v 0.5 1.5 1.9
v -0.4 1.5 1.8
v -0.3 1.5 1.8
v 0.3 1.5 1.8
v 0.4 1.5 1.8
v 0.5 1.5 1.8
v -0.4 1.5 1.7
v -0.3 1.5 1.7
v 0.3 1.5 1.7
v 0.4 1.5 1.7
v -0.4 1.5 1.6
v -0.3 1.5 1.6
v 0.3 1.5 1.6
v 0.4 1.5 1.6
v -0.4 1.5 1.5
v -0.3 1.5 1.5
v 0.3 1.5 1.5
v 0.4 1.5 1.5
v 0.5 1.5 1.5
v -0.4 1.5 1.4
v -0.3 1.5 1.4
v 0.3 1.5 1.4
v 0.4 1.5 1.4
v 0.5 1.5 1.4
v -0.4 1.5 1.3
v -0.3 1.5 1.3
v 0.3 1.5 1.3
v 0.4 1.5 1.3
v -0.4 1.5 1.2
v -0.3 1.5 1.2
v 0.3 1.5 1.2
v 0.4 1.5 1.2
v -0.4 1.5 1.1
v -0.3 1.5 1.1
v 0.3 1.5 1.1
v 0.4 1.5 1.1
v -0.4 1.5 1
v -0.3 1.5 1
v 0.3 1.5 1
v 0.4 1.5 1
v -0.4 1.5 0.9
v -0.3 1.5 0.9
v 0.3 1.5 0.9
v 0.4 1.5 0.9
v -0.4 1.5 0.8
v -0.3 1.5 0.8
v 0.3 1.5 0.8
v 0.4 1.5 0.8
v -0.4 1.5 0.7
v -0.3 1.5 0.7
v 0.3 1.5 0.7
v 0.4 1.5 0.7
v -0.4 1.5 0.6
v -0.3 1.5 0.6
v 0.3 1.5 0.6
v 0.4 1.5 0.6
v -0.4 1.5 0.5
v -0.3 1.5 0.5
v 0.3 1.5 0.5
v 0.4 1.5 0.5
v -0.4 1.5 0.4
v -0.3 1.5 0.4
v 0.3 1.5 0.4
v 0.4 1.5 0.4
v -0.4 1.5 0.3
v 0.4 1.5 0.3
v -0.5 1.5 0.2
v -0.4 1.5 0.2
v 0.4 1.5 0.2
v 0.5 1.5 0.2
v 0.5 1.7 1.8
v 0.6 1.7 1.8
v 0.5 1.7 1.7
v 0.5 1.7 1.5
v 0.6 1.7 1.5
v -0.4 1.7 0.2
v 0.4 1.7 0.2
v -0.4 1.7 0.1
v 0.4 1.7 0.1
v -0.4 1.8 2.1
v 0.4 1.8 2.1
v -0.5 1.8 2
v -0.4 1.8 2
v -0.3 1.8 2
v -0.2 1.8 2
v -0.1 1.8 2
v 4.47035e-008 1.8 2
v 0.1 1.8 2
v 0.2 1.8 2
v 0.3 1.8 2
v 0.4 1.8 2
v 0.5 1.8 2
v -0.4 1.8 1.9
v 0.5 1.8 1.9
v -0.4 1.8 1.8
v 0.4 1.8 1.8
v 0.5 1.8 1.8
v -0.4 1.8 1.7
v 0.4 1.8 1.7
v -0.4 1.8 1.6
v -0.4 1.8 1.5
v 0.4 1.8 1.5
v 0.5 1.8 1.5
v -0.4 1.8 1.4
v 0.4 1.8 1.4
v 0.5 1.8 1.4
v -0.4 1.8 1.3
v -0.4 1.8 1.2
v -0.4 1.8 1.1
v 0.4 1.8 1.1
v -0.4 1.8 1
v 0.4 1.8 1
v -0.4 1.8 0.9
v -0.4 1.8 0.8
v -0.4 1.8 0.7
v 0.4 1.8 0.7
v -0.4 1.8 0.6
v 0.4 1.8 0.6
v -0.4 1.8 0.5
v -0.4 1.8 0.4
v -0.4 1.8 0.3
v 0.4 1.8 0.3
v -0.5 1.8 0.2
v -0.4 1.8 0.2
v 0.4 1.8 0.2
v 0.5 1.8 0.2
v 0.5 0.3 1.8
v 0.6 0.3 1.8
v 0.5 0.3 1.5
v 0.6 0.3 1.5
v -0.4 0.6 2.1
v 0.4 0.6 2.1
v -0.5 0.6 2
v -0.4 0.6 2
v -0.3 0.6 2
v -0.2 0.6 2
v -0.1 0.6 2
v 4.47035e-008 0.6 2
v 0.1 0.6 2
v 0.2 0.6 2
v 0.3 0.6 2
v 0.4 0.6 2
v 0.5 0.6 2
v -0.5 0.6 1.9
v -0.4 0.6 1.9
v 0.5 0.6 1.9
v -0.5 0.6 1.8
v -0.4 0.6 1.8
v 0.4 0.6 1.8
v 0.5 0.6 1.8
v 0.6 0.6 1.8
v -0.5 0.6 1.7
v -0.4 0.6 1.7
v 0.4 0.6 1.7
v 0.5 0.6 1.7
v -0.5 0.6 1.6
v -0.4 0.6 1.6
v -0.5 0.6 1.5
v -0.4 0.6 1.5
v 0.4 0.6 1.5
v 0.5 0.6 1.5
v 0.6 0.6 1.5
v -0.5 0.6 1.4
v -0.4 0.6 1.4
v 0.4 0.6 1.4
v 0.5 0.6 1.4
v -0.4 0.6 1.3
v 0.4 0.6 1.3
v 0.5 0.6 1.3
v -0.4 0.6 1.2
v 0.4 0.6 1.2
v 0.5 0.6 1.2
v -0.5 0.6 1.1
v -0.4 0.6 1.1
v 0.4 0.6 1.1
v 0.5 0.6 1.1
v -0.5 0.6 1
v -0.4 0.6 1
v 0.4 0.6 1
v 0.5 0.6 1
v -0.4 0.6 0.9
v 0.4 0.6 0.9
v 0.5 0.6 0.9
v -0.4 0.6 0.8
v 0.4 0.6 0.8
v 0.5 0.6 0.8
v -0.5 0.6 0.7
v -0.4 0.6 0.7
v 0.4 0.6 0.7
v 0.5 0.6 0.7
v -0.5 0.6 0.6
v -0.4 0.6 0.6
v 0.4 0.6 0.6
v 0.5 0.6 0.6
v -0.4 0.6 0.5
v 0.4 0.6 0.5
v 0.5 0.6 0.5
v -0.4 0.6 0.4
v 0.4 0.6 0.4
v 0.5 0.6 0.4
v -0.5 0.6 0.3
v -0.4 0.6 0.3
v 0.4 0.6 0.3
v 0.5 0.6 0.3
v -0.5 0.6 0.2
v -0.4 0.6 0.2
v 0.4 0.6 0.2
v 0.5 0.6 0.2
v -0.4 0.7 2
v -0.3 0.7 2
v -0.2 0.7 2
v -0.1 0.7 2
v 4.47035e-008 0.7 2
v 0.1 0.7 2
v 0.2 0.7 2
v 0.3 0.7 2
v 0.4 0.7 2
v -0.4 0.7 1.9
v -0.3 0.7 1.9
v -0.2 0.7 1.9
v -0.1 0.7 1.9
v 4.47035e-008 0.7 1.9
v 0.1 0.7 1.9
v 0.2 0.7 1.9
v 0.3 0.7 1.9
v -0.4 0.7 1.8
v -0.3 0.7 1.8
v -0.2 0.7 1.8
v -0.1 0.7 1.8
v 4.47035e-008 0.7 1.8
v 0.1 0.7 1.8
v 0.2 0.7 1.8
v 0.3 0.7 1.8
v 0.4 0.7 1.8
v -0.4 0.7 1.7
v -0.3 0.7 1.7
v -0.2 0.7 1.7
v -0.1 0.7 1.7
v 4.47035e-008 0.7 1.7
v 0.1 0.7 1.7
v 0.2 0.7 1.7
v 0.3 0.7 1.7
v 0.4 0.7 1.7
v -0.4 0.7 1.6
v -0.3 0.7 1.6
v -0.2 0.7 1.6
v -0.1 0.7 1.6
v 4.47035e-008 0.7 1.6
v 0.1 0.7 1.6
v 0.2 0.7 1.6
v 0.3 0.7 1.6
v -0.4 0.7 1.5
v -0.3 0.7 1.5
v -0.2 0.7 1.5
v -0.1 0.7 1.5
v 4.47035e-008 0.7 1.5
v 0.1 0.7 1.5
v 0.2 0.7 1.5
v 0.3 0.7 1.5
v 0.4 0.7 1.5
v -0.4 0.7 1.4
v -0.3 0.7 1.4
v -0.2 0.7 1.4
v -0.1 0.7 1.4
v 4.47035e-008 0.7 1.4
v 0.1 0.7 1.4
v 0.2 0.7 1.4
v 0.3 0.7 1.4
v 0.4 0.7 1.4
v -0.4 0.7 1.3
v -0.3 0.7 1.3
v -0.2 0.7 1.3
v -0.1 0.7 1.3
v 4.47035e-008 0.7 1.3
v 0.1 0.7 1.3
v 0.2 0.7 1.3
v 0.3 0.7 1.3
v -0.4 0.7 1.2
v -0.3 0.7 1.2
v -0.2 0.7 1.2
v -0.1 0.7 1.2
v 4.47035e-008 0.7 1.2
v 0.1 0.7 1.2
v 0.2 0.7 1.2
v 0.3 0.7 1.2
v -0.4 0.7 1.1
v -0.3 0.7 1.1
v -0.2 0.7 1.1
v -0.1 0.7 1.1
v 4.47035e-008 0.7 1.1
v 0.1 0.7 1.1
v 0.2 0.7 1.1
v 0.3 0.7 1.1
v 0.4 0.7 1.1
v -0.4 0.7 1
v -0.3 0.7 1
v -0.2 0.7 1
v -0.1 0.7 1
v 4.47035e-008 0.7 1
v 0.1 0.7 1
v 0.2 0.7 1
v 0.3 0.7 1
v 0.4 0.7 1
v -0.4 0.7 0.9
v -0.3 0.7 0.9
v -0.2 0.7 0.9
v -0.1 0.7 0.9
v 4.47035e-008 0.7 0.9
v 0.1 0.7 0.9
v 0.2 0.7 0.9
v 0.3 0.7 0.9
v -0.4 0.7 0.8
v -0.3 0.7 0.8
v -0.2 0.7 0.8
v -0.1 0.7 0.8
v 4.47035e-008 0.7 0.8
v 0.1 0.7 0.8
v 0.2 0.7 0.8
v 0.3 0.7 0.8
v -0.4 0.7 0.7
v -0.3 0.7 0.7
v -0.2 0.7 0.7
v -0.1 0.7 0.7
v 4.47035e-008 0.7 0.7
v 0.1 0.7 0.7
v 0.2 0.7 0.7
v 0.3 0.7 0.7
v 0.4 0.7 0.7
v -0.4 0.7 0.6
v -0.3 0.7 0.6
v -0.1 0.7 0.6
v 4.47035e-008 0.7 0.6
v 0.3 0.7 0.6
v 0.4 0.7 0.6
v -0.4 0.7 0.5
v -0.3 0.7 0.5
v 0.3 0.7 0.5
v 0.4 0.7 0.5
v -0.3 0.8 0.6
v 0.3 0.8 0.6
v -0.4 0.8 0.5
v -0.3 0.8 0.5
v 0.3 0.8 0.5
v 0.4 0.8 0.5
v -0.4 0.8 0.4
v -0.3 0.8 0.4
v 0.3 0.8 0.4
v 0.4 0.8 0.4
v -0.4 0.8 0.3
v -0.3 0.8 0.3
v 0.3 0.8 0.3
v 0.4 0.8 0.3
v -0.4 0.8 0.2
v -0.3 0.8 0.2
v 0.3 0.8 0.2
v 0.4 0.8 0.2
v -0.4 0.8 0.1
v 0.4 0.8 0.1
v 0.5 0.9 1.8
v 0.6 0.9 1.8
v 0.5 0.9 1.5
v 0.6 0.9 1.5
v -0.3 0.9 0.5
v 0.3 0.9 0.5
v -0.4 0.9 0.4
v -0.3 0.9 0.4
v 0.3 0.9 0.4
v 0.4 0.9 0.4
v -0.4 0.9 0.3
v -0.3 0.9 0.3
v 0.3 0.9 0.3
v 0.4 0.9 0.3
v -0.3 0.9 0.2
v 0.3 0.9 0.2
v 0.5 1.2 1.8
v 0.6 1.2 1.8
v 0.5 1.2 1.5
v 0.6 1.2 1.5
v 0.5 1.5 1.8
v 0.6 1.5 1.8
v 0.5 1.5 1.5
v 0.6 1.5 1.5
v -0.4 1.7 2.1
v 0.4 1.7 2.1
v -0.5 1.7 2
v -0.4 1.7 2
v -0.3 1.7 2
v -0.2 1.7 2
v -0.1 1.7 2
v 4.47035e-008 1.7 2
v 0.1 1.7 2
v 0.2 1.7 2
v 0.3 1.7 2
v 0.4 1.7 2
v 0.5 1.7 2
v -0.5 1.7 1.9
v -0.4 1.7 1.9
v 0.5 1.7 1.9
v -0.5 1.7 1.8
v -0.4 1.7 1.8
v 0.4 1.7 1.8
v 0.5 1.7 1.8
v -0.5 1.7 1.7
v -0.4 1.7 1.7
v 0.4 1.7 1.7
v 0.5 1.7 1.7
v -0.5 1.7 1.6
v -0.4 1.7 1.6
v -0.5 1.7 1.5
v -0.4 1.7 1.5
v 0.4 1.7 1.5
v 0.5 1.7 1.5
v -0.5 1.7 1.4
v -0.4 1.7 1.4
v 0.4 1.7 1.4
v 0.5 1.7 1.4
v -0.4 1.7 1.3
v 0.4 1.7 1.3
v 0.5 1.7 1.3
v -0.4 1.7 1.2
v 0.4 1.7 1.2
v 0.5 1.7 1.2
v -0.5 1.7 1.1
v -0.4 1.7 1.1
v 0.4 1.7 1.1
v 0.5 1.7 1.1
v -0.5 1.7 1
v -0.4 1.7 1
v 0.4 1.7 1
v 0.5 1.7 1
v -0.4 1.7 0.9
v 0.4 1.7 0.9
v 0.5 1.7 0.9
v -0.4 1.7 0.8
v 0.4 1.7 0.8
v 0.5 1.7 0.8
v -0.5 1.7 0.7
v -0.4 1.7 0.7
v 0.4 1.7 0.7
v 0.5 1.7 0.7
v -0.5 1.7 0.6
v -0.4 1.7 0.6
v 0.4 1.7 0.6
v 0.5 1.7 0.6
v -0.4 1.7 0.5
v 0.4 1.7 0.5
v 0.5 1.7 0.5
v -0.4 1.7 0.4
v 0.4 1.7 0.4
v 0.5 1.7 0.4
v -0.5 1.7 0.3
v -0.4 1.7 0.3
v 0.4 1.7 0.3
v 0.5 1.7 0.3
v -0.5 1.7 0.2
v -0.4 1.7 0.2
v 0.4 1.7 0.2
v 0.5 1.7 0.2
v -0.4 1.8 2
v -0.3 1.8 2
v -0.2 1.8 2
v -0.1 1.8 2
v 4.47035e-008 1.8 2
v 0.1 1.8 2
v 0.2 1.8 2
v 0.3 1.8 2
v 0.4 1.8 2
v -0.4 1.8 1.9
v -0.3 1.8 1.9
v -0.2 1.8 1.9
v -0.1 1.8 1.9
v 4.47035e-008 1.8 1.9
v 0.1 1.8 1.9
v 0.2 1.8 1.9
v 0.3 1.8 1.9
v -0.4 1.8 1.8
v -0.3 1.8 1.8
v -0.2 1.8 1.8
v -0.1 1.8 1.8
v 4.47035e-008 1.8 1.8
v 0.1 1.8 1.8
v 0.2 1.8 1.8
v 0.3 1.8 1.8
v 0.4 1.8 1.8
v 0.5 1.8 1.8
v 0.6 1.8 1.8
v -0.4 1.8 1.7
v -0.3 1.8 1.7
v -0.2 1.8 1.7
v -0.1 1.8 1.7
v 4.47035e-008 1.8 1.7
v 0.1 1.8 1.7
v 0.2 1.8 1.7
v 0.3 1.8 1.7
v 0.4 1.8 1.7
v -0.4 1.8 1.6
v -0.3 1.8 1.6
v -0.2 1.8 1.6
v -0.1 1.8 1.6
v 4.47035e-008 1.8 1.6
v 0.1 1.8 1.6
v 0.2 1.8 1.6
v 0.3 1.8 1.6
v -0.4 1.8 1.5
v -0.3 1.8 1.5
v -0.2 1.8 1.5
v -0.1 1.8 1.5
v 4.47035e-008 1.8 1.5
v 0.1 1.8 1.5
v 0.2 1.8 1.5
v 0.3 1.8 1.5
v 0.4 1.8 1.5
v 0.5 1.8 1.5
v 0.6 1.8 1.5
v -0.4 1.8 1.4
v -0.3 1.8 1.4
v -0.2 1.8 1.4
v -0.1 1.8 1.4
v 4.47035e-008 1.8 1.4
v 0.1 1.8 1.4
v 0.2 1.8 1.4
v 0.3 1.8 1.4
v 0.4 1.8 1.4
v -0.4 1.8 1.3
v -0.3 1.8 1.3
v -0.2 1.8 1.3
v -0.1 1.8 1.3
v 4.47035e-008 1.8 1.3
v 0.1 1.8 1.3
v 0.2 1.8 1.3
v 0.3 1.8 1.3
v -0.4 1.8 1.2
v -0.3 1.8 1.2
v -0.2 1.8 1.2
v -0.1 1.8 1.2
v 4.47035e-008 1.8 1.2
v 0.1 1.8 1.2
v 0.2 1.8 1.2
v 0.3 1.8 1.2
v -0.4 1.8 1.1
v -0.3 1.8 1.1
v -0.2 1.8 1.1
v -0.1 1.8 1.1
v 4.47035e-008 1.8 1.1
v 0.1 1.8 1.1
v 0.2 1.8 1.1
v 0.3 1.8 1.1
v 0.4 1.8 1.1
v -0.4 1.8 1
v -0.3 1.8 1
v -0.2 1.8 1
v -0.1 1.8 1
v 4.47035e-008 1.8 1
v 0.1 1.8 1
v 0.2 1.8 1
v 0.3 1.8 1
v 0.4 1.8 1
v -0.4 1.8 0.9
v -0.3 1.8 0.9
v -0.2 1.8 0.9
v -0.1 1.8 0.9
v 4.47035e-008 1.8 0.9
v 0.1 1.8 0.9
v 0.2 1.8 0.9
v 0.3 1.8 0.9
v -0.4 1.8 0.8
v -0.3 1.8 0.8
v -0.2 1.8 0.8
v -0.1 1.8 0.8
v 4.47035e-008 1.8 0.8
v 0.2 1.8 0.8
v 0.3 1.8 0.8
v -0.4 1.8 0.7
v -0.3 1.8 0.7
v -0.2 1.8 0.7
v -0.1 1.8 0.7
v 4.47035e-008 1.8 0.7
v 0.1 1.8 0.7
v 0.2 1.8 0.7
v 0.3 1.8 0.7
v 0.4 1.8 0.7
v -0.4 1.8 0.6
v -0.3 1.8 0.6
v -0.1 1.8 0.6
v 4.47035e-008 1.8 0.6
v 0.1 1.8 0.6
v 0.2 1.8 0.6
v 0.3 1.8 0.6
v 0.4 1.8 0.6
v -0.4 1.8 0.5
v -0.3 1.8 0.5
v 0.3 1.8 0.5
v 0.4 1.8 0.5
v -0.4 1.9 2.1
v 0.4 1.9 2.1
v -0.5 1.9 2
v -0.4 1.9 2
v 0.4 1.9 2
v 0.5 1.9 2
v 0.5 1.9 1.9
v 0.6 1.9 1.9
v 0.5 1.9 1.8
v 0.6 1.9 1.8
v 0.5 1.9 1.5
v 0.6 1.9 1.5
v 0.5 1.9 1.4
v 0.6 1.9 1.4
v -0.3 1.9 0.6
v 0.3 1.9 0.6
v -0.4 1.9 0.5
v -0.3 1.9 0.5
v 0.3 1.9 0.5
v 0.4 1.9 0.5
v -0.4 1.9 0.4
v -0.3 1.9 0.4
v 0.3 1.9 0.4
v 0.4 1.9 0.4
v -0.4 1.9 0.3
v -0.3 1.9 0.3
v 0.3 1.9 0.3
v 0.4 1.9 0.3
v -0.5 1.9 0.2
v -0.4 1.9 0.2
v -0.3 1.9 0.2
v 0.3 1.9 0.2
v 0.4 1.9 0.2
v 0.5 1.9 0.2
v -0.4 1.9 0.1
v 0.4 1.9 0.1
v -0.3 2 0.5
v 0.3 2 0.5
v -0.4 2 0.4
v -0.3 2 0.4
v 0.3 2 0.4
v 0.4 2 0.4
v -0.4 2 0.3
v -0.3 2 0.3
v 0.3 2 0.3
v 0.4 2 0.3
v -0.3 2 0.2
v 0.3 2 0.2
v -0.5 2.1 2.1
v -0.4 2.1 2.1
v 0.4 2.1 2.1
v 0.5 2.1 2.1
v -0.5 2.1 2
v -0.4 2.1 2
v 0.4 2.1 2
v 0.5 2.1 2
v -0.5 2.1 0.2
v -0.4 2.1 0.2
v 0.4 2.1 0.2
v 0.5 2.1 0.2
v -0.5 2.1 0.1
v -0.4 2.1 0.1
v 0.4 2.1 0.1
v 0.5 2.1 0.1

# faces
f 5/1/1 2/1/1 1/1/1
f 6/1/1 4/1/1 3/1/1
f 7/1/1 5/1/1 1/1/1
f 7/1/1 6/1/1 5/1/1
f 8/1/1 6/1/1 7/1/1
f 9/1/1 6/1/1 8/1/1
f 10/1/1 6/1/1 9/1/1
f 11/1/1 6/1/1 10/1/1
f 12/1/1 6/1/1 11/1/1
f 13/1/1 6/1/1 12/1/1
f 14/1/1 6/1/1 13/1/1
f 15/1/1 6/1/1 14/1/1
f 16/1/1 6/1/1 15/1/1
f 17/1/1 6/1/1 16/1/1
f 18/1/1 6/1/1 17/1/1
f 19/1/1 4/1/1 6/1/1
f 19/1/1 6/1/1 18/1/1
f 20/1/1 7/1/1 1/1/1
f 20/11/1 8/11/1 7/11/1
f 21/8/1 9/8/1 8/8/1
f 21/11/1 8/11/1 20/11/1
f 22/9/1 10/9/1 9/9/1
f 22/8/1 9/8/1 21/8/1
f 23/11/1 11/11/1 10/11/1
f 23/9/1 10/9/1 22/9/1
f 24/8/1 12/8/1 11/8/1
f 24/11/1 11/11/1 23/11/1
f 25/5/1 13/5/1 12/5/1
f 25/8/1 12/8/1 24/8/1
f 26/4/1 14/4/1 13/4/1
f 26/5/1 13/5/1 25/5/1
f 27/5/1 15/5/1 14/5/1
f 27/4/1 14/4/1 26/4/1
f 28/4/1 16/4/1 15/4/1
f 28/5/1 15/5/1 27/5/1
f 29/5/1 17/5/1 16/5/1
f 29/4/1 16/4/1 28/4/1
f 30/4/1 18/4/1 17/4/1
f 30/5/1 17/5/1 29/5/1
f 31/5/1 19/5/1 18/5/1
f 31/4/1 18/4/1 30/4/1
f 32/1/1 4/1/1 19/1/1
f 32/5/1 19/5/1 31/5/1
f 33/1/1 20/1/1 1/1/1
f 34/1/1 4/1/1 32/1/1
f 35/1/1 33/1/1 1/1/1
f 35/1/1 34/1/1 33/1/1
f 36/1/1 34/1/1 35/1/1
f 37/1/1 34/1/1 36/1/1
f 38/1/1 34/1/1 37/1/1
f 39/1/1 34/1/1 38/1/1
f 40/1/1 34/1/1 39/1/1
f 41/1/1 34/1/1 40/1/1
f 42/1/1 34/1/1 41/1/1
f 43/1/1 34/1/1 42/1/1
f 44/1/1 34/1/1 43/1/1
f 45/1/1 34/1/1 44/1/1
f 46/1/1 34/1/1 45/1/1
f 47/1/1 4/1/1 34/1/1
f 47/1/1 34/1/1 46/1/1
f 48/1/1 35/1/1 1/1/1
f 48/11/1 36/11/1 35/11/1
f 49/8/1 37/8/1 36/8/1
f 49/11/1 36/11/1 48/11/1
f 50/9/1 38/9/1 37/9/1
f 50/8/1 37/8/1 49/8/1
f 51/11/1 39/11/1 38/11/1
f 51/9/1 38/9/1 50/9/1
f 52/8/1 40/8/1 39/8/1
f 52/11/1 39/11/1 51/11/1
f 53/5/1 41/5/1 40/5/1
f 53/8/1 40/8/1 52/8/1
f 54/4/1 42/4/1 41/4/1
f 54/5/1 41/5/1 53/5/1
f 55/5/1 43/5/1 42/5/1
f 55/4/1 42/4/1 54/4/1
f 56/4/1 44/4/1 43/4/1
f 56/5/1 43/5/1 55/5/1
f 57/5/1 45/5/1 44/5/1
f 57/4/1 44/4/1 56/4/1
f 58/4/1 46/4/1 45/4/1
f 58/5/1 45/5/1 57/5/1
f 59/5/1 47/5/1 46/5/1
f 59/4/1 46/4/1 58/4/1
f 60/1/1 4/1/1 47/1/1
f 60/5/1 47/5/1 59/5/1
f 61/1/1 48/1/1 1/1/1
f 62/1/1 4/1/1 60/1/1
f 63/1/1 61/1/1 1/1/1
f 63/1/1 62/1/1 61/1/1
f 64/1/1 4/1/1 62/1/1
f 64/1/1 62/1/1 63/1/1
f 65/1/1 63/1/1 1/1/1
f 66/1/1 63/1/1 65/1/1
f 67/1/1 4/1/1 64/1/1
f 68/1/1 4/1/1 67/1/1
f 87/1/1 70/1/1 69/1/1
f 88/1/1 70/1/1 87/1/1
f 89/1/1 72/1/1 71/1/1
f 90/1/1 72/1/1 89/1/1
f 91/1/1 74/1/1 73/1/1
f 92/1/1 74/1/1 91/1/1
f 93/1/1 76/1/1 75/1/1
f 94/1/1 76/1/1 93/1/1
f 95/1/1 78/1/1 77/1/1
f 96/1/1 78/1/1 95/1/1
f 97/1/1 80/1/1 79/1/1
f 98/1/1 80/1/1 97/1/1
f 99/1/1 82/1/1 81/1/1
f 100/1/1 82/1/1 99/1/1
f 101/1/1 84/1/1 83/1/1
f 102/1/1 84/1/1 101/1/1
f 103/1/1 86/1/1 85/1/1
f 104/1/1 86/1/1 103/1/1
f 124/8/1 106/8/1 105/8/1
f 125/11/1 107/11/1 106/11/1
f 125/8/1 106/8/1 124/8/1
f 126/9/1 108/9/1 107/9/1
f 126/11/1 107/11/1 125/11/1
f 127/8/1 109/8/1 108/8/1
f 127/9/1 108/9/1 126/9/1
f 128/11/1 110/11/1 109/11/1
f 128/8/1 109/8/1 127/8/1
f 129/4/1 111/4/1 110/4/1
f 129/11/1 110/11/1 128/11/1
f 130/5/1 112/5/1 111/5/1
f 130/4/1 111/4/1 129/4/1
f 131/4/1 113/4/1 112/4/1
f 131/5/1 112/5/1 130/5/1
f 132/5/1 114/5/1 113/5/1
f 132/4/1 113/4/1 131/4/1
f 133/6/1 115/6/1 114/6/1
f 133/5/1 114/5/1 132/5/1
f 134/5/1 116/5/1 115/5/1
f 134/6/1 115/6/1 133/6/1
f 135/4/1 117/4/1 116/4/1
f 135/5/1 116/5/1 134/5/1
f 136/5/1 118/5/1 117/5/1
f 136/4/1 117/4/1 135/4/1
f 137/4/1 119/4/1 118/4/1
f 137/5/1 118/5/1 136/5/1
f 138/5/1 120/5/1 119/5/1
f 138/4/1 119/4/1 137/4/1
f 139/4/1 121/4/1 120/4/1
f 139/5/1 120/5/1 138/5/1
f 140/5/1 122/5/1 121/5/1
f 140/4/1 121/4/1 139/4/1
f 141/6/1 123/6/1 122/6/1
f 141/5/1 122/5/1 140/5/1
f 142/6/1 123/6/1 141/6/1
f 143/7/1 140/7/1 139/7/1
f 143/7/1 142/7/1 141/7/1
f 143/7/1 141/7/1 140/7/1
f 144/7/1 142/7/1 143/7/1
f 145/7/1 142/7/1 144/7/1
f 146/7/1 142/7/1 145/7/1
f 147/7/1 145/7/1 144/7/1
f 148/7/1 145/7/1 147/7/1
f 167/1/1 150/1/1 149/1/1
f 168/1/1 150/1/1 167/1/1
f 169/1/1 152/1/1 151/1/1
f 170/1/1 152/1/1 169/1/1
f 171/1/1 154/1/1 153/1/1
f 172/1/1 154/1/1 171/1/1
f 173/1/1 156/1/1 155/1/1
f 174/1/1 156/1/1 173/1/1
f 175/1/1 158/1/1 157/1/1
f 176/1/1 158/1/1 175/1/1
f 177/1/1 160/1/1 159/1/1
f 178/1/1 160/1/1 177/1/1
f 179/1/1 162/1/1 161/1/1
f 180/1/1 162/1/1 179/1/1
f 181/1/1 164/1/1 163/1/1
f 182/1/1 164/1/1 181/1/1
f 183/1/1 166/1/1 165/1/1
f 184/1/1 166/1/1 183/1/1
f 204/8/1 186/8/1 185/8/1
f 205/11/1 187/11/1 186/11/1
f 205/8/1 186/8/1 204/8/1
f 206/9/1 188/9/1 187/9/1
f 206/11/1 187/11/1 205/11/1
f 207/8/1 189/8/1 188/8/1
f 207/9/1 188/9/1 206/9/1
f 208/11/1 190/11/1 189/11/1
f 208/8/1 189/8/1 207/8/1
f 209/4/1 191/4/1 190/4/1
f 209/11/1 190/11/1 208/11/1
f 210/5/1 192/5/1 191/5/1
f 210/4/1 191/4/1 209/4/1
f 211/4/1 193/4/1 192/4/1
f 211/5/1 192/5/1 210/5/1
f 212/5/1 194/5/1 193/5/1
f 212/4/1 193/4/1 211/4/1
f 213/6/1 195/6/1 194/6/1
f 213/5/1 194/5/1 212/5/1
f 214/5/1 196/5/1 195/5/1
f 214/6/1 195/6/1 213/6/1
f 215/4/1 197/4/1 196/4/1
f 215/5/1 196/5/1 214/5/1
f 216/5/1 198/5/1 197/5/1
f 216/4/1 197/4/1 215/4/1
f 217/4/1 199/4/1 198/4/1
f 217/5/1 198/5/1 216/5/1
f 218/5/1 200/5/1 199/5/1
f 218/4/1 199/4/1 217/4/1
f 219/4/1 201/4/1 200/4/1
f 219/5/1 200/5/1 218/5/1
f 220/5/1 202/5/1 201/5/1
f 220/4/1 201/4/1 219/4/1
f 221/6/1 203/6/1 202/6/1
f 221/5/1 202/5/1 220/5/1
f 222/6/1 203/6/1 221/6/1
f 225/7/1 224/7/1 223/7/1
f 226/7/1 224/7/1 225/7/1
f 229/7/1 228/7/1 227/7/1
f 230/7/1 228/7/1 229/7/1
f 234/7/1 231/7/1 230/7/1
f 235/7/1 231/7/1 234/7/1
f 236/7/1 233/7/1 232/7/1
f 237/7/1 233/7/1 236/7/1
f 240/7/1 239/7/1 238/7/1
f 241/7/1 239/7/1 240/7/1
f 245/7/1 242/7/1 241/7/1
f 246/7/1 242/7/1 245/7/1
f 247/7/1 244/7/1 243/7/1
f 248/7/1 244/7/1 247/7/1
f 253/1/1 250/1/1 249/1/1
f 254/1/1 252/1/1 251/1/1
f 255/1/1 253/1/1 249/1/1
f 256/1/1 253/1/1 255/1/1
f 257/1/1 252/1/1 254/1/1
f 260/1/1 252/1/1 257/1/1
f 261/1/1 252/1/1 260/1/1
f 262/1/1 259/1/1 258/1/1
f 265/1/1 262/1/1 258/1/1
f 266/1/1 265/1/1 258/1/1
f 267/1/1 265/1/1 266/1/1
f 268/1/1 264/1/1 263/1/1
f 269/1/1 264/1/1 268/1/1
f 272/1/1 264/1/1 269/1/1
f 273/1/1 264/1/1 272/1/1
f 274/1/1 271/1/1 270/1/1
f 275/1/1 271/1/1 274/1/1
f 286/1/1 284/1/1 283/1/1
f 286/1/1 283/1/1 282/1/1
f 286/1/1 282/1/1 281/1/1
f 286/1/1 281/1/1 280/1/1
f 286/1/1 280/1/1 279/1/1
f 286/1/1 279/1/1 278/1/1
f 286/1/1 278/1/1 277/1/1
f 286/1/1 277/1/1 276/1/1
f 286/1/1 276/1/1 275/1/1
f 287/1/1 284/1/1 286/1/1
f 290/1/1 286/1/1 285/1/1
f 291/1/1 286/1/1 290/1/1
f 292/1/1 289/1/1 288/1/1
f 293/1/1 289/1/1 292/1/1
f 298/2/1 295/2/1 294/2/1
f 299/2/1 297/2/1 296/2/1
f 300/2/1 298/2/1 294/2/1
f 300/3/1 299/3/1 298/3/1
f 301/2/1 297/2/1 299/2/1
f 301/3/1 299/3/1 300/3/1
f 302/2/1 300/2/1 294/2/1
f 303/2/1 300/2/1 302/2/1
f 304/2/1 297/2/1 301/2/1
f 305/2/1 297/2/1 304/2/1
f 310/2/1 307/2/1 306/2/1
f 311/2/1 309/2/1 308/2/1
f 312/2/1 310/2/1 306/2/1
f 312/3/1 311/3/1 310/3/1
f 313/2/1 309/2/1 311/2/1
f 313/3/1 311/3/1 312/3/1
f 314/2/1 312/2/1 306/2/1
f 315/2/1 309/2/1 313/2/1
f 316/2/1 314/2/1 306/2/1
f 316/3/1 315/3/1 314/3/1
f 317/2/1 309/2/1 315/2/1
f 317/3/1 315/3/1 316/3/1
f 318/2/1 316/2/1 306/2/1
f 319/2/1 309/2/1 317/2/1
f 320/2/1 318/2/1 306/2/1
f 321/3/1 319/3/1 318/3/1
f 321/2/1 318/2/1 320/2/1
f 322/2/1 309/2/1 319/2/1
f 322/3/1 319/3/1 321/3/1
f 323/2/1 309/2/1 322/2/1
f 329/2/1 325/2/1 324/2/1
f 330/3/1 326/3/1 325/3/1
f 330/2/1 325/2/1 329/2/1
f 330/3/1 327/3/1 326/3/1
f 331/2/1 328/2/1 327/2/1
f 331/3/1 327/3/1 330/3/1
f 332/2/1 328/2/1 331/2/1
f 333/1/2 334/1/2 337/1/2
f 335/1/2 336/1/2 338/1/2
f 333/1/2 337/1/2 339/1/2
f 339/1/2 337/1/2 340/1/2
f 338/1/2 336/1/2 341/1/2
f 341/1/2 336/1/2 344/1/2
f 344/1/2 336/1/2 345/1/2
f 342/1/2 343/1/2 346/1/2
f 342/1/2 346/1/2 349/1/2
f 342/1/2 349/1/2 350/1/2
f 350/1/2 349/1/2 351/1/2
f 347/1/2 348/1/2 352/1/2
f 352/1/2 348/1/2 353/1/2
f 353/1/2 348/1/2 356/1/2
f 356/1/2 348/1/2 357/1/2
f 354/1/2 355/1/2 358/1/2
f 358/1/2 355/1/2 359/1/2
f 373/1/2 374/1/2 376/1/2
f 372/1/2 373/1/2 376/1/2
f 371/1/2 372/1/2 376/1/2
f 370/1/2 371/1/2 376/1/2
f 369/1/2 370/1/2 376/1/2
f 368/1/2 369/1/2 376/1/2
f 367/1/2 368/1/2 376/1/2
f 366/1/2 367/1/2 376/1/2
f 365/1/2 366/1/2 376/1/2
f 364/1/2 365/1/2 376/1/2
f 363/1/2 364/1/2 376/1/2
f 362/1/2 363/1/2 376/1/2
f 361/1/2 362/1/2 376/1/2
f 360/1/2 361/1/2 376/1/2
f 359/1/2 360/1/2 376/1/2
f 376/1/2 374/1/2 377/1/2
f 375/1/2 376/1/2 380/1/2
f 380/1/2 376/1/2 381/1/2
f 378/1/2 379/1/2 382/1/2
f 382/1/2 379/1/2 383/1/2
f 384/7/2 385/7/2 386/7/2
f 386/7/2 385/7/2 387/7/2
f 387/7/2 388/7/2 391/7/2
f 391/7/2 388/7/2 392/7/2
f 389/7/2 390/7/2 393/7/2
f 393/7/2 390/7/2 394/7/2
f 395/7/2 396/7/2 397/7/2
f 397/7/2 396/7/2 398/7/2
f 398/7/2 399/7/2 402/7/2
f 402/7/2 399/7/2 403/7/2
f 400/7/2 401/7/2 404/7/2
f 404/7/2 401/7/2 405/7/2
f 406/1/2 407/1/2 424/1/2
f 424/1/2 407/1/2 425/1/2
f 408/1/2 409/1/2 426/1/2
f 426/1/2 409/1/2 427/1/2
f 410/1/2 411/1/2 428/1/2
f 428/1/2 411/1/2 429/1/2
f 412/1/2 413/1/2 430/1/2
f 430/1/2 413/1/2 431/1/2
f 414/1/2 415/1/2 432/1/2
f 432/1/2 415/1/2 433/1/2
f 416/1/2 417/1/2 434/1/2
f 434/1/2 417/1/2 435/1/2
f 418/1/2 419/1/2 436/1/2
f 436/1/2 419/1/2 437/1/2
f 420/1/2 421/1/2 438/1/2
f 438/1/2 421/1/2 439/1/2
f 422/1/2 423/1/2 440/1/2
f 440/1/2 423/1/2 441/1/2
f 442/9/2 443/9/2 459/9/2
f 443/10/2 444/10/2 460/10/2
f 459/9/2 443/9/2 460/9/2
f 444/9/2 445/9/2 461/9/2
f 460/10/2 444/10/2 461/10/2
f 445/5/2 446/5/2 462/5/2
f 461/9/2 445/9/2 462/9/2
f 446/4/2 447/4/2 463/4/2
f 462/5/2 446/5/2 463/5/2
f 447/4/2 448/4/2 463/4/2
f 448/4/2 449/4/2 463/4/2
f 449/5/2 450/5/2 464/5/2
f 463/4/2 449/4/2 464/4/2
f 450/4/2 451/4/2 465/4/2
f 464/5/2 450/5/2 465/5/2
f 451/4/2 452/4/2 465/4/2
f 452/4/2 453/4/2 465/4/2
f 453/5/2 454/5/2 466/5/2
f 465/4/2 453/4/2 466/4/2
f 456/4/2 457/4/2 467/4/2
f 466/5/2 454/5/2 467/5/2
f 455/4/2 456/4/2 467/4/2
f 454/4/2 455/4/2 467/4/2
f 467/4/2 457/4/2 468/4/2
f 457/5/2 458/5/2 469/5/2
f 468/4/2 457/4/2 469/4/2
f 469/5/2 458/5/2 470/5/2
f 469/7/2 470/7/2 471/7/2
f 468/7/2 469/7/2 471/7/2
f 471/7/2 470/7/2 472/7/2
f 472/7/2 470/7/2 473/7/2
f 473/7/2 470/7/2 474/7/2
f 472/7/2 473/7/2 475/7/2
f 475/7/2 473/7/2 476/7/2
f 477/1/2 478/1/2 495/1/2
f 495/1/2 478/1/2 496/1/2
f 479/1/2 480/1/2 497/1/2
f 497/1/2 480/1/2 498/1/2
f 481/1/2 482/1/2 499/1/2
f 499/1/2 482/1/2 500/1/2
f 483/1/2 484/1/2 501/1/2
f 501/1/2 484/1/2 502/1/2
f 485/1/2 486/1/2 503/1/2
f 503/1/2 486/1/2 504/1/2
f 487/1/2 488/1/2 505/1/2
f 505/1/2 488/1/2 506/1/2
f 489/1/2 490/1/2 507/1/2
f 507/1/2 490/1/2 508/1/2
f 491/1/2 492/1/2 509/1/2
f 509/1/2 492/1/2 510/1/2
f 493/1/2 494/1/2 511/1/2
f 511/1/2 494/1/2 512/1/2
f 513/9/2 514/9/2 530/9/2
f 514/10/2 515/10/2 531/10/2
f 530/9/2 514/9/2 531/9/2
f 515/9/2 516/9/2 532/9/2
f 531/10/2 515/10/2 532/10/2
f 516/5/2 517/5/2 533/5/2
f 532/9/2 516/9/2 533/9/2
f 517/4/2 518/4/2 534/4/2
f 533/5/2 517/5/2 534/5/2
f 518/4/2 519/4/2 534/4/2
f 519/4/2 520/4/2 534/4/2
f 520/5/2 521/5/2 535/5/2
f 534/4/2 520/4/2 535/4/2
f 521/4/2 522/4/2 536/4/2
f 535/5/2 521/5/2 536/5/2
f 522/4/2 523/4/2 536/4/2
f 523/4/2 524/4/2 536/4/2
f 524/5/2 525/5/2 537/5/2
f 536/4/2 524/4/2 537/4/2
f 527/4/2 528/4/2 538/4/2
f 537/5/2 525/5/2 538/5/2
f 526/4/2 527/4/2 538/4/2
f 525/4/2 526/4/2 538/4/2
f 528/5/2 529/5/2 539/5/2
f 538/4/2 528/4/2 539/4/2
f 539/5/2 529/5/2 540/5/2
f 541/7/2 542/7/2 543/7/2
f 543/7/2 542/7/2 544/7/2
f 545/1/2 546/1/2 549/1/2
f 547/1/2 548/1/2 554/1/2
f 545/1/2 549/1/2 555/1/2
f 549/1/2 550/1/2 555/1/2
f 555/1/2 550/1/2 556/1/2
f 551/1/2 552/1/2 557/1/2
f 557/1/2 552/1/2 558/1/2
f 553/1/2 554/1/2 559/1/2
f 559/1/2 554/1/2 560/1/2
f 560/1/2 554/1/2 561/1/2
f 561/1/2 554/1/2 562/1/2
f 562/1/2 554/1/2 563/1/2
f 563/1/2 554/1/2 564/1/2
f 564/1/2 554/1/2 565/1/2
f 565/1/2 554/1/2 566/1/2
f 566/1/2 554/1/2 567/1/2
f 567/1/2 554/1/2 568/1/2
f 568/1/2 554/1/2 569/1/2
f 569/1/2 554/1/2 570/1/2
f 554/1/2 548/1/2 571/1/2
f 570/1/2 554/1/2 571/1/2
f 555/8/2 556/8/2 572/8/2
f 545/1/2 555/1/2 572/1/2
f 572/8/2 556/8/2 573/8/2
f 559/5/2 560/5/2 574/5/2
f 560/4/2 561/4/2 575/4/2
f 574/5/2 560/5/2 575/5/2
f 561/5/2 562/5/2 576/5/2
f 575/4/2 561/4/2 576/4/2
f 562/6/2 563/6/2 577/6/2
f 576/5/2 562/5/2 577/5/2
f 563/5/2 564/5/2 578/5/2
f 577/6/2 563/6/2 578/6/2
f 564/4/2 565/4/2 579/4/2
f 578/5/2 564/5/2 579/5/2
f 565/5/2 566/5/2 580/5/2
f 579/4/2 565/4/2 580/4/2
f 566/4/2 567/4/2 581/4/2
f 580/5/2 566/5/2 581/5/2
f 567/5/2 568/5/2 582/5/2
f 581/4/2 567/4/2 582/4/2
f 568/4/2 569/4/2 583/4/2
f 582/5/2 568/5/2 583/5/2
f 569/5/2 570/5/2 584/5/2
f 583/4/2 569/4/2 584/4/2
f 570/4/2 571/4/2 585/4/2
f 584/5/2 570/5/2 585/5/2
f 571/1/2 548/1/2 586/1/2
f 585/4/2 571/4/2 586/4/2
f 545/1/2 572/1/2 587/1/2
f 586/1/2 548/1/2 592/1/2
f 545/1/2 587/1/2 593/1/2
f 587/1/2 588/1/2 593/1/2
f 593/1/2 588/1/2 594/1/2
f 589/1/2 590/1/2 595/1/2
f 595/1/2 590/1/2 596/1/2
f 596/1/2 590/1/2 597/1/2
f 591/1/2 592/1/2 598/1/2
f 598/1/2 592/1/2 599/1/2
f 599/1/2 592/1/2 600/1/2
f 600/1/2 592/1/2 601/1/2
f 601/1/2 592/1/2 602/1/2
f 602/1/2 592/1/2 603/1/2
f 603/1/2 592/1/2 604/1/2
f 604/1/2 592/1/2 605/1/2
f 605/1/2 592/1/2 606/1/2
f 606/1/2 592/1/2 607/1/2
f 607/1/2 592/1/2 608/1/2
f 608/1/2 592/1/2 609/1/2
f 592/1/2 548/1/2 610/1/2
f 609/1/2 592/1/2 610/1/2
f 593/8/2 594/8/2 611/8/2
f 545/1/2 593/1/2 611/1/2
f 611/8/2 594/8/2 612/8/2
f 595/9/2 596/9/2 613/9/2
f 596/8/2 597/8/2 614/8/2
f 613/9/2 596/9/2 614/9/2
f 614/8/2 597/8/2 615/8/2
f 598/5/2 599/5/2 616/5/2
f 599/4/2 600/4/2 617/4/2
f 616/5/2 599/5/2 617/5/2
f 600/5/2 601/5/2 618/5/2
f 617/4/2 600/4/2 618/4/2
f 601/6/2 602/6/2 619/6/2
f 618/5/2 601/5/2 619/5/2
f 602/5/2 603/5/2 620/5/2
f 619/6/2 602/6/2 620/6/2
f 603/4/2 604/4/2 621/4/2
f 620/5/2 603/5/2 621/5/2
f 604/5/2 605/5/2 622/5/2
f 621/4/2 604/4/2 622/4/2
f 605/4/2 606/4/2 623/4/2
f 622/5/2 605/5/2 623/5/2
f 606/5/2 607/5/2 624/5/2
f 623/4/2 606/4/2 624/4/2
f 607/4/2 608/4/2 625/4/2
f 624/5/2 607/5/2 625/5/2
f 608/5/2 609/5/2 626/5/2
f 625/4/2 608/4/2 626/4/2
f 609/4/2 610/4/2 627/4/2
f 626/5/2 609/5/2 627/5/2
f 610/1/2 548/1/2 628/1/2
f 627/4/2 610/4/2 628/4/2
f 545/1/2 611/1/2 629/1/2
f 628/1/2 548/1/2 634/1/2
f 545/1/2 629/1/2 635/1/2
f 629/1/2 630/1/2 635/1/2
f 635/1/2 630/1/2 636/1/2
f 631/1/2 632/1/2 637/1/2
f 637/1/2 632/1/2 638/1/2
f 633/1/2 634/1/2 639/1/2
f 634/1/2 548/1/2 640/1/2
f 639/1/2 634/1/2 640/1/2
f 545/1/2 635/1/2 641/1/2
f 641/1/2 635/1/2 642/1/2
f 640/1/2 548/1/2 643/1/2
f 643/1/2 548/1/2 644/1/2
f 645/2/2 646/2/2 649/2/2
f 647/2/2 648/2/2 650/2/2
f 645/2/2 649/2/2 651/2/2
f 649/3/2 650/3/2 651/3/2
f 650/2/2 648/2/2 652/2/2
f 651/3/2 650/3/2 652/3/2
f 645/2/2 651/2/2 653/2/2
f 652/2/2 648/2/2 654/2/2
f 645/2/2 653/2/2 655/2/2
f 653/3/2 654/3/2 655/3/2
f 654/2/2 648/2/2 656/2/2
f 655/3/2 654/3/2 656/3/2
f 645/2/2 655/2/2 657/2/2
f 656/2/2 648/2/2 658/2/2
f 645/2/2 657/2/2 659/2/2
f 657/3/2 658/3/2 659/3/2
f 658/2/2 648/2/2 660/2/2
f 659/3/2 658/3/2 660/3/2
f 645/2/2 659/2/2 661/2/2
f 660/2/2 648/2/2 662/2/2
f 645/2/2 661/2/2 663/2/2
f 661/3/2 662/3/2 663/3/2
f 662/2/2 648/2/2 664/2/2
f 663/3/2 662/3/2 664/3/2
f 645/2/2 663/2/2 665/2/2
f 664/2/2 648/2/2 666/2/2
f 645/2/2 665/2/2 667/2/2
f 665/3/2 666/3/2 667/3/2
f 666/2/2 648/2/2 668/2/2
f 667/3/2 666/3/2 668/3/2
f 645/2/2 667/2/2 669/2/2
f 668/2/2 648/2/2 670/2/2
f 645/2/2 669/2/2 671/2/2
f 669/3/2 670/3/2 671/3/2
f 670/2/2 648/2/2 672/2/2
f 671/3/2 670/3/2 672/3/2
f 645/2/2 671/2/2 673/2/2
f 673/2/2 671/2/2 674/2/2
f 672/2/2 648/2/2 675/2/2
f 675/2/2 648/2/2 676/2/2
f 679/1/3 678/1/3 677/1/3
f 680/1/3 678/1/3 679/1/3
f 681/1/3 678/1/3 680/1/3
f 682/1/3 678/1/3 681/1/3
f 683/1/3 678/1/3 682/1/3
f 684/1/3 678/1/3 683/1/3
f 685/1/3 678/1/3 684/1/3
f 686/1/3 678/1/3 685/1/3
f 688/1/3 681/1/3 680/1/3
f 689/1/3 681/1/3 688/1/3
f 690/1/3 683/1/3 682/1/3
f 691/1/3 683/1/3 690/1/3
f 692/1/3 685/1/3 684/1/3
f 693/1/3 685/1/3 692/1/3
f 695/1/3 689/1/3 688/1/3
f 695/1/3 694/1/3 693/1/3
f 695/1/3 693/1/3 692/1/3
f 695/1/3 692/1/3 691/1/3
f 695/1/3 691/1/3 690/1/3
f 695/1/3 690/1/3 689/1/3
f 695/1/3 688/1/3 687/1/3
f 696/1/3 694/1/3 695/1/3
f 705/8/3 700/8/3 699/8/3
f 706/8/3 700/8/3 705/8/3
f 707/8/3 704/8/3 703/8/3
f 708/8/3 704/8/3 707/8/3
f 709/9/3 706/9/3 705/9/3
f 710/9/3 706/9/3 709/9/3
f 711/9/3 708/9/3 707/9/3
f 712/9/3 708/9/3 711/9/3
f 713/11/3 710/11/3 709/11/3
f 714/11/3 710/11/3 713/11/3
f 715/11/3 712/11/3 711/11/3
f 716/11/3 712/11/3 715/11/3
f 717/8/3 714/8/3 713/8/3
f 718/8/3 714/8/3 717/8/3
f 719/8/3 716/8/3 715/8/3
f 720/8/3 716/8/3 719/8/3
f 721/9/3 718/9/3 717/9/3
f 722/9/3 718/9/3 721/9/3
f 723/9/3 720/9/3 719/9/3
f 724/9/3 720/9/3 723/9/3
f 725/11/3 722/11/3 721/11/3
f 726/11/3 722/11/3 725/11/3
f 727/11/3 724/11/3 723/11/3
f 728/11/3 724/11/3 727/11/3
f 729/8/3 726/8/3 725/8/3
f 730/8/3 726/8/3 729/8/3
f 731/8/3 728/8/3 727/8/3
f 732/8/3 728/8/3 731/8/3
f 733/1/3 698/1/3 697/1/3
f 734/1/3 698/1/3 733/1/3
f 735/9/3 730/9/3 729/9/3
f 736/9/3 730/9/3 735/9/3
f 737/1/3 702/1/3 701/1/3
f 738/1/3 702/1/3 737/1/3
f 739/9/3 732/9/3 731/9/3
f 740/9/3 732/9/3 739/9/3
f 750/2/3 742/2/3 741/2/3
f 750/2/3 749/2/3 748/2/3
f 750/2/3 748/2/3 747/2/3
f 750/2/3 747/2/3 746/2/3
f 750/2/3 746/2/3 745/2/3
f 750/2/3 745/2/3 744/2/3
f 750/2/3 744/2/3 743/2/3
f 750/2/3 743/2/3 742/2/3
f 751/2/3 749/2/3 750/2/3
f 756/1/3 753/1/3 752/1/3
f 757/1/3 755/1/3 754/1/3
f 758/1/3 756/1/3 752/1/3
f 759/1/3 757/1/3 754/1/3
f 760/1/3 758/1/3 752/1/3
f 761/1/3 758/1/3 760/1/3
f 762/1/3 759/1/3 754/1/3
f 763/1/3 759/1/3 762/1/3
f 768/1/3 765/1/3 764/1/3
f 769/1/3 767/1/3 766/1/3
f 770/1/3 768/1/3 764/1/3
f 771/1/3 769/1/3 766/1/3
f 772/1/3 770/1/3 764/1/3
f 773/1/3 770/1/3 772/1/3
f 774/1/3 771/1/3 766/1/3
f 775/1/3 771/1/3 774/1/3
f 792/2/3 777/2/3 776/2/3
f 793/2/3 777/2/3 792/2/3
f 794/2/3 779/2/3 778/2/3
f 794/2/3 780/2/3 779/2/3
f 795/2/3 780/2/3 794/2/3
f 796/2/3 782/2/3 781/2/3
f 797/2/3 782/2/3 796/2/3
f 798/2/3 784/2/3 783/2/3
f 799/2/3 784/2/3 798/2/3
f 800/2/3 786/2/3 785/2/3
f 801/2/3 786/2/3 800/2/3
f 802/2/3 788/2/3 787/2/3
f 802/2/3 789/2/3 788/2/3
f 803/2/3 789/2/3 802/2/3
f 804/2/3 791/2/3 790/2/3
f 805/2/3 791/2/3 804/2/3
f 810/1/3 807/1/3 806/1/3
f 811/1/3 809/1/3 808/1/3
f 812/1/3 810/1/3 806/1/3
f 813/1/3 811/1/3 808/1/3
f 814/1/3 812/1/3 806/1/3
f 815/1/3 812/1/3 814/1/3
f 816/1/3 813/1/3 808/1/3
f 817/1/3 813/1/3 816/1/3
f 822/1/3 819/1/3 818/1/3
f 823/1/3 821/1/3 820/1/3
f 824/1/3 822/1/3 818/1/3
f 825/1/3 823/1/3 820/1/3
f 826/1/3 824/1/3 818/1/3
f 827/1/3 824/1/3 826/1/3
f 828/1/3 825/1/3 820/1/3
f 829/1/3 825/1/3 828/1/3
f 834/1/3 831/1/3 830/1/3
f 835/1/3 833/1/3 832/1/3
f 836/1/3 834/1/3 830/1/3
f 837/1/3 835/1/3 832/1/3
f 838/1/3 836/1/3 830/1/3
f 839/1/3 836/1/3 838/1/3
f 840/1/3 837/1/3 832/1/3
f 841/1/3 837/1/3 840/1/3
f 846/1/3 843/1/3 842/1/3
f 847/1/3 845/1/3 844/1/3
f 848/1/3 846/1/3 842/1/3
f 849/1/3 847/1/3 844/1/3
f 850/1/3 848/1/3 842/1/3
f 851/1/3 848/1/3 850/1/3
f 852/1/3 849/1/3 844/1/3
f 853/1/3 849/1/3 852/1/3
f 858/1/3 855/1/3 854/1/3
f 861/1/3 857/1/3 856/1/3
f 864/7/3 860/7/3 859/7/3
f 865/7/3 863/7/3 862/7/3
f 866/7/3 860/7/3 864/7/3
f 867/7/3 863/7/3 865/7/3
f 868/7/3 863/7/3 867/7/3
f 869/7/3 863/7/3 868/7/3
f 870/1/3 858/1/3 854/1/3
f 871/7/3 860/7/3 866/7/3
f 872/7/3 860/7/3 871/7/3
f 873/1/3 861/1/3 856/1/3
f 874/7/3 863/7/3 869/7/3
f 875/7/3 863/7/3 874/7/3
f 876/1/3 870/1/3 854/1/3
f 877/1/3 870/1/3 876/1/3
f 878/1/3 873/1/3 856/1/3
f 879/1/3 873/1/3 878/1/3
f 884/7/3 881/7/3 880/7/3
f 885/7/3 881/7/3 884/7/3
f 887/7/3 883/7/3 882/7/3
f 888/7/3 883/7/3 887/7/3
f 891/7/3 886/7/3 885/7/3
f 892/7/3 886/7/3 891/7/3
f 894/7/3 889/7/3 888/7/3
f 895/7/3 889/7/3 894/7/3
f 896/7/3 891/7/3 890/7/3
f 897/7/3 891/7/3 896/7/3
f 898/7/3 894/7/3 893/7/3
f 899/7/3 894/7/3 898/7/3
f 908/1/3 901/1/3 900/1/3
f 909/7/3 903/7/3 902/7/3
f 910/7/3 903/7/3 909/7/3
f 911/1/3 905/1/3 904/1/3
f 912/7/3 907/7/3 906/7/3
f 913/7/3 907/7/3 912/7/3
f 914/1/3 908/1/3 900/1/3
f 917/1/3 911/1/3 904/1/3
f 920/1/3 914/1/3 900/1/3
f 921/1/3 914/1/3 920/1/3
f 922/7/3 916/7/3 915/7/3
f 923/7/3 916/7/3 922/7/3
f 924/1/3 917/1/3 904/1/3
f 925/1/3 917/1/3 924/1/3
f 926/7/3 919/7/3 918/7/3
f 927/7/3 919/7/3 926/7/3
f 936/1/3 929/1/3 928/1/3
f 937/1/3 929/1/3 936/1/3
f 938/1/3 929/1/3 937/1/3
f 939/1/3 931/1/3 930/1/3
f 940/1/3 931/1/3 939/1/3
f 941/1/3 931/1/3 940/1/3
f 942/1/3 931/1/3 941/1/3
f 943/1/3 933/1/3 932/1/3
f 944/1/3 933/1/3 943/1/3
f 945/1/3 935/1/3 934/1/3
f 946/1/3 935/1/3 945/1/3
f 958/1/3 948/1/3 947/1/3
f 958/1/3 949/1/3 948/1/3
f 959/1/3 949/1/3 958/1/3
f 960/1/3 951/1/3 950/1/3
f 960/1/3 952/1/3 951/1/3
f 960/1/3 953/1/3 952/1/3
f 961/1/3 953/1/3 960/1/3
f 962/1/3 955/1/3 954/1/3
f 963/1/3 955/1/3 962/1/3
f 964/1/3 957/1/3 956/1/3
f 965/1/3 957/1/3 964/1/3
f 966/1/4 967/1/4 974/1/4
f 974/1/4 967/1/4 975/1/4
f 975/1/4 967/1/4 976/1/4
f 968/1/4 969/1/4 977/1/4
f 977/1/4 969/1/4 978/1/4
f 978/1/4 969/1/4 979/1/4
f 979/1/4 969/1/4 980/1/4
f 970/1/4 971/1/4 981/1/4
f 981/1/4 971/1/4 982/1/4
f 972/1/4 973/1/4 983/1/4
f 983/1/4 973/1/4 984/1/4
f 982/1/4 983/1/4 985/1/4
f 985/1/4 983/1/4 986/1/4
f 986/1/4 983/1/4 987/1/4
f 987/1/4 983/1/4 988/1/4
f 988/1/4 983/1/4 989/1/4
f 989/1/4 983/1/4 990/1/4
f 990/1/4 983/1/4 991/1/4
f 991/1/4 983/1/4 1000/1/4
f 1000/1/4 983/1/4 1001/1/4
f 992/1/4 993/1/4 1003/1/4
f 993/1/4 994/1/4 1003/1/4
f 1003/1/4 994/1/4 1004/1/4
f 997/1/4 998/1/4 1005/1/4
f 995/1/4 996/1/4 1005/1/4
f 996/1/4 997/1/4 1005/1/4
f 1005/1/4 998/1/4 1006/1/4
f 999/1/4 1000/1/4 1007/1/4
f 1007/1/4 1000/1/4 1008/1/4
f 1001/1/4 1002/1/4 1009/1/4
f 1009/1/4 1002/1/4 1010/1/4
f 1011/1/4 1012/1/4 1015/1/4
f 1013/1/4 1014/1/4 1016/1/4
f 1011/1/4 1015/1/4 1017/1/4
f 1013/1/4 1016/1/4 1018/1/4
f 1011/1/4 1017/1/4 1019/1/4
f 1019/1/4 1017/1/4 1020/1/4
f 1013/1/4 1018/1/4 1021/1/4
f 1021/1/4 1018/1/4 1022/1/4
f 1023/2/4 1024/2/4 1039/2/4
f 1039/2/4 1024/2/4 1040/2/4
f 1025/2/4 1026/2/4 1041/2/4
f 1026/2/4 1027/2/4 1041/2/4
f 1041/2/4 1027/2/4 1042/2/4
f 1028/2/4 1029/2/4 1043/2/4
f 1043/2/4 1029/2/4 1044/2/4
f 1030/2/4 1031/2/4 1045/2/4
f 1045/2/4 1031/2/4 1046/2/4
f 1032/2/4 1033/2/4 1047/2/4
f 1047/2/4 1033/2/4 1048/2/4
f 1034/2/4 1035/2/4 1049/2/4
f 1035/2/4 1036/2/4 1049/2/4
f 1049/2/4 1036/2/4 1050/2/4
f 1037/2/4 1038/2/4 1051/2/4
f 1051/2/4 1038/2/4 1052/2/4
f 1053/1/4 1054/1/4 1057/1/4
f 1055/1/4 1056/1/4 1058/1/4
f 1053/1/4 1057/1/4 1059/1/4
f 1055/1/4 1058/1/4 1060/1/4
f 1053/1/4 1059/1/4 1061/1/4
f 1061/1/4 1059/1/4 1062/1/4
f 1055/1/4 1060/1/4 1063/1/4
f 1063/1/4 1060/1/4 1064/1/4
f 1065/1/4 1066/1/4 1069/1/4
f 1067/1/4 1068/1/4 1070/1/4
f 1065/1/4 1069/1/4 1071/1/4
f 1067/1/4 1070/1/4 1072/1/4
f 1065/1/4 1071/1/4 1073/1/4
f 1073/1/4 1071/1/4 1074/1/4
f 1067/1/4 1072/1/4 1075/1/4
f 1075/1/4 1072/1/4 1076/1/4
f 1077/2/4 1078/2/4 1086/2/4
f 1084/2/4 1085/2/4 1086/2/4
f 1083/2/4 1084/2/4 1086/2/4
f 1082/2/4 1083/2/4 1086/2/4
f 1081/2/4 1082/2/4 1086/2/4
f 1080/2/4 1081/2/4 1086/2/4
f 1079/2/4 1080/2/4 1086/2/4
f 1078/2/4 1079/2/4 1086/2/4
f 1086/2/4 1085/2/4 1087/2/4
f 1088/1/4 1089/1/4 1092/1/4
f 1090/1/4 1091/1/4 1093/1/4
f 1088/1/4 1092/1/4 1094/1/4
f 1090/1/4 1093/1/4 1095/1/4
f 1088/1/4 1094/1/4 1096/1/4
f 1096/1/4 1094/1/4 1097/1/4
f 1090/1/4 1095/1/4 1098/1/4
f 1098/1/4 1095/1/4 1099/1/4
f 1100/1/4 1101/1/4 1104/1/4
f 1102/1/4 1103/1/4 1105/1/4
f 1100/1/4 1104/1/4 1106/1/4
f 1102/1/4 1105/1/4 1107/1/4
f 1100/1/4 1106/1/4 1108/1/4
f 1108/1/4 1106/1/4 1109/1/4
f 1102/1/4 1107/1/4 1110/1/4
f 1110/1/4 1107/1/4 1111/1/4
f 1112/1/4 1113/1/4 1116/1/4
f 1114/1/4 1115/1/4 1117/1/4
f 1112/1/4 1116/1/4 1118/1/4
f 1114/1/4 1117/1/4 1119/1/4
f 1112/1/4 1118/1/4 1120/1/4
f 1120/1/4 1118/1/4 1121/1/4
f 1114/1/4 1119/1/4 1122/1/4
f 1122/1/4 1119/1/4 1123/1/4
f 1124/1/4 1125/1/4 1128/1/4
f 1126/1/4 1127/1/4 1129/1/4
f 1124/1/4 1128/1/4 1130/1/4
f 1126/1/4 1129/1/4 1131/1/4
f 1124/1/4 1130/1/4 1132/1/4
f 1132/1/4 1130/1/4 1133/1/4
f 1126/1/4 1131/1/4 1134/1/4
f 1134/1/4 1131/1/4 1135/1/4
f 1136/1/4 1137/1/4 1140/1/4
f 1138/1/4 1139/1/4 1141/1/4
f 1136/1/4 1140/1/4 1142/1/4
f 1138/1/4 1141/1/4 1143/1/4
f 1136/1/4 1142/1/4 1144/1/4
f 1144/1/4 1142/1/4 1145/1/4
f 1138/1/4 1143/1/4 1146/1/4
f 1146/1/4 1143/1/4 1147/1/4
f 1148/7/4 1149/7/4 1154/7/4
f 1154/7/4 1149/7/4 1155/7/4
f 1152/7/4 1153/7/4 1156/7/4
f 1156/7/4 1153/7/4 1157/7/4
f 1158/7/4 1159/7/4 1162/7/4
f 1162/7/4 1159/7/4 1163/7/4
f 1150/1/4 1151/1/4 1164/1/4
f 1164/1/4 1151/1/4 1165/1/4
f 1160/7/4 1161/7/4 1166/7/4
f 1166/7/4 1161/7/4 1167/7/4
f 1174/7/4 1175/7/4 1178/7/4
f 1178/7/4 1175/7/4 1179/7/4
f 1176/7/4 1177/7/4 1180/7/4
f 1180/7/4 1177/7/4 1181/7/4
f 1168/1/4 1169/1/4 1182/1/4
f 1169/12/4 1170/12/4 1183/12/4
f 1182/1/4 1169/1/4 1183/1/4
f 1183/12/4 1170/12/4 1184/12/4
f 1171/1/4 1172/1/4 1185/1/4
f 1172/12/4 1173/12/4 1186/12/4
f 1185/1/4 1172/1/4 1186/1/4
f 1186/12/4 1173/12/4 1187/12/4
f 1188/1/4 1189/1/4 1190/1/4
f 1190/1/4 1189/1/4 1191/1/4
f 1191/1/4 1189/1/4 1192/1/4
f 1192/1/4 1189/1/4 1193/1/4
f 1193/1/4 1189/1/4 1194/1/4
f 1194/1/4 1189/1/4 1195/1/4
f 1191/1/4 1192/1/4 1197/1/4
f 1197/1/4 1192/1/4 1198/1/4
f 1193/1/4 1194/1/4 1199/1/4
f 1199/1/4 1194/1/4 1200/1/4
f 1197/1/4 1198/1/4 1202/1/4
f 1200/1/4 1201/1/4 1202/1/4
f 1199/1/4 1200/1/4 1202/1/4
f 1198/1/4 1199/1/4 1202/1/4
f 1196/1/4 1197/1/4 1202/1/4
f 1202/1/4 1201/1/4 1203/1/4
f 1208/1/5 1205/1/5 1204/1/5
f 1209/1/5 1205/1/5 1208/1/5
f 1210/1/5 1207/1/5 1206/1/5
f 1211/1/5 1207/1/5 1210/1/5
f 1214/2/5 1213/2/5 1212/2/5
f 1215/2/5 1213/2/5 1214/2/5
f 1218/2/5 1217/2/5 1216/2/5
f 1219/2/5 1217/2/5 1218/2/5
f 1224/1/5 1221/1/5 1220/1/5
f 1225/1/5 1221/1/5 1224/1/5
f 1226/1/5 1223/1/5 1222/1/5
f 1227/1/5 1223/1/5 1226/1/5
f 1230/3/5 1229/3/5 1228/3/5
f 1231/3/5 1229/3/5 1230/3/5
f 1234/1/5 1233/1/5 1232/1/5
f 1235/1/5 1233/1/5 1234/1/5
f 1238/1/5 1237/1/5 1236/1/5
f 1239/1/5 1237/1/5 1238/1/5
f 1242/1/5 1241/1/5 1240/1/5
f 1243/1/5 1241/1/5 1242/1/5
f 1246/1/5 1245/1/5 1244/1/5
f 1247/1/5 1245/1/5 1246/1/5
f 1250/1/5 1249/1/5 1248/1/5
f 1251/1/5 1249/1/5 1250/1/5
f 1254/1/5 1253/1/5 1252/1/5
f 1255/1/5 1253/1/5 1254/1/5
f 1258/1/5 1257/1/5 1256/1/5
f 1259/1/5 1257/1/5 1258/1/5
f 1262/1/5 1261/1/5 1260/1/5
f 1263/1/5 1261/1/5 1262/1/5
f 1266/1/5 1265/1/5 1264/1/5
f 1267/1/5 1265/1/5 1266/1/5
f 1272/1/5 1269/1/5 1268/1/5
f 1275/1/5 1271/1/5 1270/1/5
f 1276/1/5 1271/1/5 1275/1/5
f 1277/1/5 1272/1/5 1268/1/5
f 1277/1/5 1273/1/5 1272/1/5
f 1278/12/5 1274/12/5 1273/12/5
f 1278/1/5 1273/1/5 1277/1/5
f 1279/1/5 1276/1/5 1275/1/5
f 1279/12/5 1274/12/5 1278/12/5
f 1279/1/5 1275/1/5 1274/1/5
f 1280/1/5 1276/1/5 1279/1/5
f 1281/1/5 1276/1/5 1280/1/5
f 1282/1/5 1277/1/5 1268/1/5
f 1285/1/5 1281/1/5 1280/1/5
f 1286/1/5 1282/1/5 1268/1/5
f 1286/1/5 1283/1/5 1282/1/5
f 1287/12/5 1284/12/5 1283/12/5
f 1287/1/5 1283/1/5 1286/1/5
f 1288/1/5 1285/1/5 1284/1/5
f 1288/12/5 1284/12/5 1287/12/5
f 1289/1/5 1281/1/5 1285/1/5
f 1289/1/5 1285/1/5 1288/1/5
f 1290/1/5 1286/1/5 1268/1/5
f 1293/1/5 1281/1/5 1289/1/5
f 1294/1/5 1281/1/5 1293/1/5
f 1295/1/5 1290/1/5 1268/1/5
f 1295/1/5 1291/1/5 1290/1/5
f 1296/12/5 1292/12/5 1291/12/5
f 1296/1/5 1291/1/5 1295/1/5
f 1297/1/5 1294/1/5 1293/1/5
f 1297/12/5 1292/12/5 1296/12/5
f 1297/1/5 1293/1/5 1292/1/5
f 1298/1/5 1294/1/5 1297/1/5
f 1299/1/5 1294/1/5 1298/1/5
f 1300/1/5 1295/1/5 1268/1/5
f 1303/1/5 1299/1/5 1298/1/5
f 1304/1/5 1300/1/5 1268/1/5
f 1304/1/5 1301/1/5 1300/1/5
f 1305/12/5 1302/12/5 1301/12/5
f 1305/1/5 1301/1/5 1304/1/5
f 1306/1/5 1303/1/5 1302/1/5
f 1306/12/5 1302/12/5 1305/12/5
f 1307/1/5 1299/1/5 1303/1/5
f 1307/1/5 1303/1/5 1306/1/5
f 1308/1/5 1304/1/5 1268/1/5
f 1311/1/5 1299/1/5 1307/1/5
f 1312/1/5 1308/1/5 1268/1/5
f 1312/1/5 1309/1/5 1308/1/5
f 1313/12/5 1310/12/5 1309/12/5
f 1313/1/5 1309/1/5 1312/1/5
f 1314/1/5 1311/1/5 1310/1/5
f 1314/12/5 1310/12/5 1313/12/5
f 1315/1/5 1299/1/5 1311/1/5
f 1315/1/5 1311/1/5 1314/1/5
f 1316/1/5 1312/1/5 1268/1/5
f 1319/1/5 1299/1/5 1315/1/5
f 1320/1/5 1316/1/5 1268/1/5
f 1320/1/5 1317/1/5 1316/1/5
f 1321/12/5 1318/12/5 1317/12/5
f 1321/1/5 1317/1/5 1320/1/5
f 1322/1/5 1319/1/5 1318/1/5
f 1322/12/5 1318/12/5 1321/12/5
f 1323/1/5 1299/1/5 1319/1/5
f 1323/1/5 1319/1/5 1322/1/5
f 1324/1/5 1320/1/5 1268/1/5
f 1327/1/5 1299/1/5 1323/1/5
f 1328/1/5 1324/1/5 1268/1/5
f 1328/1/5 1325/1/5 1324/1/5
f 1329/12/5 1326/12/5 1325/12/5
f 1329/1/5 1325/1/5 1328/1/5
f 1330/1/5 1327/1/5 1326/1/5
f 1330/12/5 1326/12/5 1329/12/5
f 1331/1/5 1299/1/5 1327/1/5
f 1331/1/5 1327/1/5 1330/1/5
f 1332/1/5 1328/1/5 1268/1/5
f 1335/1/5 1299/1/5 1331/1/5
f 1336/1/5 1332/1/5 1268/1/5
f 1336/1/5 1333/1/5 1332/1/5
f 1337/12/5 1334/12/5 1333/12/5
f 1337/1/5 1333/1/5 1336/1/5
f 1338/1/5 1335/1/5 1334/1/5
f 1338/12/5 1334/12/5 1337/12/5
f 1339/1/5 1299/1/5 1335/1/5
f 1339/1/5 1335/1/5 1338/1/5
f 1340/1/5 1336/1/5 1268/1/5
f 1341/1/5 1336/1/5 1340/1/5
f 1342/1/5 1299/1/5 1339/1/5
f 1343/1/5 1299/1/5 1342/1/5
f 1346/1/5 1345/1/5 1344/1/5
f 1347/1/5 1345/1/5 1346/1/5
f 1350/3/5 1349/3/5 1348/3/5
f 1351/3/5 1349/3/5 1350/3/5
f 1354/1/5 1353/1/5 1352/1/5
f 1355/1/5 1353/1/5 1354/1/5
f 1358/3/5 1357/3/5 1356/3/5
f 1359/3/5 1357/3/5 1358/3/5
f 1362/3/5 1361/3/5 1360/3/5
f 1363/3/5 1361/3/5 1362/3/5
f 1366/1/5 1365/1/5 1364/1/5
f 1367/1/5 1365/1/5 1366/1/5
f 1372/1/5 1369/1/5 1368/1/5
f 1373/1/5 1369/1/5 1372/1/5
f 1376/1/5 1375/1/5 1374/1/5
f 1377/1/5 1375/1/5 1376/1/5
f 1378/3/5 1371/3/5 1370/3/5
f 1379/3/5 1371/3/5 1378/3/5
f 1382/1/5 1381/1/5 1380/1/5
f 1383/1/5 1381/1/5 1382/1/5
f 1386/1/5 1385/1/5 1384/1/5
f 1387/1/5 1385/1/5 1386/1/5
f 1390/1/5 1389/1/5 1388/1/5
f 1391/1/5 1389/1/5 1390/1/5
f 1394/1/5 1393/1/5 1392/1/5
f 1395/1/5 1393/1/5 1394/1/5
f 1398/1/5 1397/1/5 1396/1/5
f 1399/1/5 1397/1/5 1398/1/5
f 1402/1/5 1401/1/5 1400/1/5
f 1403/1/5 1401/1/5 1402/1/5
f 1407/1/5 1405/1/5 1404/1/5
f 1408/1/5 1405/1/5 1407/1/5
f 1410/1/5 1407/1/5 1406/1/5
f 1413/1/5 1409/1/5 1408/1/5
f 1414/1/5 1409/1/5 1413/1/5
f 1415/1/5 1410/1/5 1406/1/5
f 1415/1/5 1411/1/5 1410/1/5
f 1416/12/5 1412/12/5 1411/12/5
f 1416/1/5 1411/1/5 1415/1/5
f 1417/1/5 1414/1/5 1413/1/5
f 1417/12/5 1412/12/5 1416/12/5
f 1417/1/5 1413/1/5 1412/1/5
f 1418/1/5 1414/1/5 1417/1/5
f 1419/1/5 1414/1/5 1418/1/5
f 1420/1/5 1415/1/5 1406/1/5
f 1423/1/5 1419/1/5 1418/1/5
f 1424/1/5 1420/1/5 1406/1/5
f 1424/1/5 1421/1/5 1420/1/5
f 1425/12/5 1422/12/5 1421/12/5
f 1425/1/5 1421/1/5 1424/1/5
f 1426/1/5 1423/1/5 1422/1/5
f 1426/12/5 1422/12/5 1425/12/5
f 1427/1/5 1419/1/5 1423/1/5
f 1427/1/5 1423/1/5 1426/1/5
f 1428/1/5 1424/1/5 1406/1/5
f 1431/1/5 1419/1/5 1427/1/5
f 1432/1/5 1419/1/5 1431/1/5
f 1433/1/5 1428/1/5 1406/1/5
f 1433/1/5 1429/1/5 1428/1/5
f 1434/12/5 1430/12/5 1429/12/5
f 1434/1/5 1429/1/5 1433/1/5
f 1435/1/5 1432/1/5 1431/1/5
f 1435/12/5 1430/12/5 1434/12/5
f 1435/1/5 1431/1/5 1430/1/5
f 1436/1/5 1432/1/5 1435/1/5
f 1437/1/5 1432/1/5 1436/1/5
f 1438/1/5 1433/1/5 1406/1/5
f 1441/1/5 1437/1/5 1436/1/5
f 1442/1/5 1438/1/5 1406/1/5
f 1442/1/5 1439/1/5 1438/1/5
f 1443/12/5 1440/12/5 1439/12/5
f 1443/1/5 1439/1/5 1442/1/5
f 1444/1/5 1441/1/5 1440/1/5
f 1444/12/5 1440/12/5 1443/12/5
f 1445/1/5 1437/1/5 1441/1/5
f 1445/1/5 1441/1/5 1444/1/5
f 1446/1/5 1442/1/5 1406/1/5
f 1449/1/5 1437/1/5 1445/1/5
f 1450/1/5 1446/1/5 1406/1/5
f 1450/1/5 1447/1/5 1446/1/5
f 1451/12/5 1448/12/5 1447/12/5
f 1451/1/5 1447/1/5 1450/1/5
f 1452/1/5 1449/1/5 1448/1/5
f 1452/12/5 1448/12/5 1451/12/5
f 1453/1/5 1437/1/5 1449/1/5
f 1453/1/5 1449/1/5 1452/1/5
f 1454/1/5 1450/1/5 1406/1/5
f 1457/1/5 1437/1/5 1453/1/5
f 1458/1/5 1454/1/5 1406/1/5
f 1458/1/5 1455/1/5 1454/1/5
f 1459/12/5 1456/12/5 1455/12/5
f 1459/1/5 1455/1/5 1458/1/5
f 1460/1/5 1457/1/5 1456/1/5
f 1460/12/5 1456/12/5 1459/12/5
f 1461/1/5 1437/1/5 1457/1/5
f 1461/1/5 1457/1/5 1460/1/5
f 1462/1/5 1458/1/5 1406/1/5
f 1465/1/5 1437/1/5 1461/1/5
f 1466/1/5 1462/1/5 1406/1/5
f 1466/1/5 1463/1/5 1462/1/5
f 1467/12/5 1464/12/5 1463/12/5
f 1467/1/5 1463/1/5 1466/1/5
f 1468/1/5 1465/1/5 1464/1/5
f 1468/12/5 1464/12/5 1467/12/5
f 1469/1/5 1437/1/5 1465/1/5
f 1469/1/5 1465/1/5 1468/1/5
f 1470/1/5 1466/1/5 1406/1/5
f 1473/1/5 1437/1/5 1469/1/5
f 1474/1/5 1470/1/5 1406/1/5
f 1474/1/5 1471/1/5 1470/1/5
f 1475/12/5 1472/12/5 1471/12/5
f 1475/1/5 1471/1/5 1474/1/5
f 1476/1/5 1473/1/5 1472/1/5
f 1476/12/5 1472/12/5 1475/12/5
f 1477/1/5 1437/1/5 1473/1/5
f 1477/1/5 1473/1/5 1476/1/5
f 1478/1/5 1474/1/5 1406/1/5
f 1479/1/5 1437/1/5 1477/1/5
f 1480/1/5 1478/1/5 1406/1/5
f 1480/1/5 1479/1/5 1478/1/5
f 1481/1/5 1479/1/5 1480/1/5
f 1482/1/5 1437/1/5 1479/1/5
f 1482/1/5 1479/1/5 1481/1/5
f 1483/1/5 1437/1/5 1482/1/5
f 1486/3/5 1485/3/5 1484/3/5
f 1487/3/5 1485/3/5 1486/3/5
f 1488/3/5 1485/3/5 1487/3/5
f 1491/1/5 1490/1/5 1489/1/5
f 1492/1/5 1490/1/5 1491/1/5
f 1496/1/5 1494/1/5 1493/1/5
f 1497/1/5 1494/1/5 1496/1/5
f 1498/1/5 1494/1/5 1497/1/5
f 1499/1/5 1494/1/5 1498/1/5
f 1500/1/5 1494/1/5 1499/1/5
f 1501/1/5 1494/1/5 1500/1/5
f 1502/1/5 1494/1/5 1501/1/5
f 1503/1/5 1494/1/5 1502/1/5
f 1504/1/5 1494/1/5 1503/1/5
f 1506/1/5 1496/1/5 1495/1/5
f 1507/1/5 1505/1/5 1504/1/5
f 1508/1/5 1506/1/5 1495/1/5
f 1509/1/5 1507/1/5 1504/1/5
f 1510/1/5 1507/1/5 1509/1/5
f 1511/1/5 1508/1/5 1495/1/5
f 1512/1/5 1510/1/5 1509/1/5
f 1513/1/5 1511/1/5 1495/1/5
f 1514/1/5 1513/1/5 1495/1/5
f 1515/1/5 1510/1/5 1512/1/5
f 1516/1/5 1510/1/5 1515/1/5
f 1517/1/5 1514/1/5 1495/1/5
f 1518/1/5 1516/1/5 1515/1/5
f 1519/1/5 1516/1/5 1518/1/5
f 1520/1/5 1517/1/5 1495/1/5
f 1521/1/5 1520/1/5 1495/1/5
f 1522/1/5 1521/1/5 1495/1/5
f 1523/1/5 1519/1/5 1518/1/5
f 1524/1/5 1522/1/5 1495/1/5
f 1525/1/5 1519/1/5 1523/1/5
f 1526/1/5 1524/1/5 1495/1/5
f 1527/1/5 1526/1/5 1495/1/5
f 1528/1/5 1527/1/5 1495/1/5
f 1529/1/5 1519/1/5 1525/1/5
f 1530/1/5 1528/1/5 1495/1/5
f 1531/1/5 1519/1/5 1529/1/5
f 1532/1/5 1530/1/5 1495/1/5
f 1533/1/5 1532/1/5 1495/1/5
f 1534/1/5 1533/1/5 1495/1/5
f 1535/1/5 1519/1/5 1531/1/5
f 1536/1/5 1534/1/5 1495/1/5
f 1537/1/5 1534/1/5 1536/1/5
f 1538/1/5 1519/1/5 1535/1/5
f 1539/1/5 1519/1/5 1538/1/5
f 1540/3/6 1541/3/6 1542/3/6
f 1542/3/6 1541/3/6 1543/3/6
f 1544/1/6 1545/1/6 1547/1/6
f 1547/1/6 1545/1/6 1548/1/6
f 1548/1/6 1545/1/6 1549/1/6
f 1549/1/6 1545/1/6 1550/1/6
f 1550/1/6 1545/1/6 1551/1/6
f 1551/1/6 1545/1/6 1552/1/6
f 1552/1/6 1545/1/6 1553/1/6
f 1553/1/6 1545/1/6 1554/1/6
f 1554/1/6 1545/1/6 1555/1/6
f 1546/11/6 1547/11/6 1557/11/6
f 1557/11/6 1547/11/6 1558/11/6
f 1555/8/6 1556/8/6 1559/8/6
f 1557/8/6 1558/8/6 1560/8/6
f 1560/8/6 1558/8/6 1561/8/6
f 1555/8/6 1559/8/6 1562/8/6
f 1562/8/6 1559/8/6 1563/8/6
f 1560/9/6 1561/9/6 1565/9/6
f 1565/9/6 1561/9/6 1566/9/6
f 1562/9/6 1563/9/6 1567/9/6
f 1563/3/6 1564/3/6 1568/3/6
f 1567/9/6 1563/9/6 1568/9/6
f 1565/11/6 1566/11/6 1569/11/6
f 1569/11/6 1566/11/6 1570/11/6
f 1569/8/6 1570/8/6 1571/8/6
f 1571/8/6 1570/8/6 1572/8/6
f 1567/8/6 1568/8/6 1573/8/6
f 1568/3/6 1564/3/6 1574/3/6
f 1573/8/6 1568/8/6 1574/8/6
f 1574/3/6 1564/3/6 1575/3/6
f 1571/5/6 1572/5/6 1576/5/6
f 1576/5/6 1572/5/6 1577/5/6
f 1573/4/6 1574/4/6 1578/4/6
f 1578/4/6 1574/4/6 1579/4/6
f 1576/4/6 1577/4/6 1580/4/6
f 1578/5/6 1579/5/6 1581/5/6
f 1581/5/6 1579/5/6 1582/5/6
f 1576/4/6 1580/4/6 1583/4/6
f 1581/4/6 1582/4/6 1584/4/6
f 1584/4/6 1582/4/6 1585/4/6
f 1576/4/6 1583/4/6 1586/4/6
f 1586/4/6 1583/4/6 1587/4/6
f 1584/5/6 1585/5/6 1588/5/6
f 1588/5/6 1585/5/6 1589/5/6
f 1586/5/6 1587/5/6 1590/5/6
f 1590/5/6 1587/5/6 1591/5/6
f 1588/6/6 1589/6/6 1592/6/6
f 1592/6/6 1589/6/6 1593/6/6
f 1590/4/6 1591/4/6 1594/4/6
f 1592/5/6 1593/5/6 1595/5/6
f 1595/5/6 1593/5/6 1596/5/6
f 1590/4/6 1594/4/6 1597/4/6
f 1595/4/6 1596/4/6 1598/4/6
f 1598/4/6 1596/4/6 1599/4/6
f 1590/4/6 1597/4/6 1600/4/6
f 1600/4/6 1597/4/6 1601/4/6
f 1598/5/6 1599/5/6 1602/5/6
f 1602/5/6 1599/5/6 1603/5/6
f 1600/5/6 1601/5/6 1604/5/6
f 1604/5/6 1601/5/6 1605/5/6
f 1602/4/6 1603/4/6 1606/4/6
f 1606/4/6 1603/4/6 1607/4/6
f 1604/4/6 1605/4/6 1608/4/6
f 1606/5/6 1607/5/6 1609/5/6
f 1609/5/6 1607/5/6 1610/5/6
f 1604/4/6 1608/4/6 1611/4/6
f 1609/4/6 1610/4/6 1612/4/6
f 1612/4/6 1610/4/6 1613/4/6
f 1604/4/6 1611/4/6 1614/4/6
f 1614/4/6 1611/4/6 1615/4/6
f 1612/5/6 1613/5/6 1616/5/6
f 1616/5/6 1613/5/6 1617/5/6
f 1614/5/6 1615/5/6 1618/5/6
f 1618/5/6 1615/5/6 1619/5/6
f 1616/4/6 1617/4/6 1620/4/6
f 1620/4/6 1617/4/6 1621/4/6
f 1622/8/6 1623/8/6 1631/8/6
f 1623/9/6 1624/9/6 1632/9/6
f 1631/8/6 1623/8/6 1632/8/6
f 1624/11/6 1625/11/6 1633/11/6
f 1632/9/6 1624/9/6 1633/9/6
f 1625/8/6 1626/8/6 1634/8/6
f 1633/11/6 1625/11/6 1634/11/6
f 1626/9/6 1627/9/6 1635/9/6
f 1634/8/6 1626/8/6 1635/8/6
f 1627/11/6 1628/11/6 1636/11/6
f 1635/9/6 1627/9/6 1636/9/6
f 1628/8/6 1629/8/6 1637/8/6
f 1636/11/6 1628/11/6 1637/11/6
f 1629/9/6 1630/9/6 1638/9/6
f 1637/8/6 1629/8/6 1638/8/6
f 1631/11/6 1632/11/6 1639/11/6
f 1632/9/6 1633/9/6 1640/9/6
f 1639/11/6 1632/11/6 1640/11/6
f 1633/8/6 1634/8/6 1641/8/6
f 1640/9/6 1633/9/6 1641/9/6
f 1634/11/6 1635/11/6 1642/11/6
f 1641/8/6 1634/8/6 1642/8/6
f 1635/9/6 1636/9/6 1643/9/6
f 1642/11/6 1635/11/6 1643/11/6
f 1636/8/6 1637/8/6 1644/8/6
f 1643/9/6 1636/9/6 1644/9/6
f 1637/11/6 1638/11/6 1645/11/6
f 1644/8/6 1637/8/6 1645/8/6
f 1638/9/6 1630/9/6 1646/9/6
f 1645/11/6 1638/11/6 1646/11/6
f 1646/9/6 1630/9/6 1647/9/6
f 1639/9/6 1640/9/6 1648/9/6
f 1640/10/6 1641/10/6 1649/10/6
f 1648/9/6 1640/9/6 1649/9/6
f 1642/9/6 1643/9/6 1650/9/6
f 1649/10/6 1641/10/6 1650/10/6
f 1641/9/6 1642/9/6 1650/9/6
f 1650/9/6 1643/9/6 1651/9/6
f 1643/10/6 1644/10/6 1652/10/6
f 1651/9/6 1643/9/6 1652/9/6
f 1644/9/6 1645/9/6 1653/9/6
f 1652/10/6 1644/10/6 1653/10/6
f 1645/9/6 1646/9/6 1653/9/6
f 1653/9/6 1646/9/6 1654/9/6
f 1646/10/6 1647/10/6 1655/10/6
f 1654/9/6 1646/9/6 1655/9/6
f 1655/10/6 1647/10/6 1656/10/6
f 1648/8/6 1649/8/6 1657/8/6
f 1649/9/6 1650/9/6 1658/9/6
f 1657/8/6 1649/8/6 1658/8/6
f 1650/11/6 1651/11/6 1659/11/6
f 1658/9/6 1650/9/6 1659/9/6
f 1651/8/6 1652/8/6 1660/8/6
f 1659/11/6 1651/11/6 1660/11/6
f 1652/9/6 1653/9/6 1661/9/6
f 1660/8/6 1652/8/6 1661/8/6
f 1653/11/6 1654/11/6 1662/11/6
f 1661/9/6 1653/9/6 1662/9/6
f 1654/8/6 1655/8/6 1663/8/6
f 1662/11/6 1654/11/6 1663/11/6
f 1655/9/6 1656/9/6 1664/9/6
f 1663/8/6 1655/8/6 1664/8/6
f 1657/11/6 1658/11/6 1665/11/6
f 1658/9/6 1659/9/6 1666/9/6
f 1665/11/6 1658/11/6 1666/11/6
f 1659/8/6 1660/8/6 1667/8/6
f 1666/9/6 1659/9/6 1667/9/6
f 1660/11/6 1661/11/6 1668/11/6
f 1667/8/6 1660/8/6 1668/8/6
f 1661/9/6 1662/9/6 1669/9/6
f 1668/11/6 1661/11/6 1669/11/6
f 1662/8/6 1663/8/6 1670/8/6
f 1669/9/6 1662/9/6 1670/9/6
f 1663/11/6 1664/11/6 1671/11/6
f 1670/8/6 1663/8/6 1671/8/6
f 1664/9/6 1656/9/6 1672/9/6
f 1671/11/6 1664/11/6 1672/11/6
f 1672/9/6 1656/9/6 1673/9/6
f 1666/4/6 1667/4/6 1674/4/6
f 1665/4/6 1666/4/6 1674/4/6
f 1667/4/6 1668/4/6 1674/4/6
f 1674/4/6 1668/4/6 1675/4/6
f 1675/4/6 1668/4/6 1676/4/6
f 1668/5/6 1669/5/6 1677/5/6
f 1676/4/6 1668/4/6 1677/4/6
f 1670/6/6 1671/6/6 1678/6/6
f 1677/5/6 1669/5/6 1678/5/6
f 1671/6/6 1672/6/6 1678/6/6
f 1669/6/6 1670/6/6 1678/6/6
f 1678/6/6 1672/6/6 1679/6/6
f 1679/6/6 1672/6/6 1680/6/6
f 1672/5/6 1673/5/6 1681/5/6
f 1680/6/6 1672/6/6 1681/6/6
f 1681/5/6 1673/5/6 1682/5/6
f 1674/5/6 1675/5/6 1683/5/6
f 1675/4/6 1676/4/6 1684/4/6
f 1683/5/6 1675/5/6 1684/5/6
f 1676/5/6 1677/5/6 1685/5/6
f 1684/4/6 1676/4/6 1685/4/6
f 1677/4/6 1678/4/6 1686/4/6
f 1685/5/6 1677/5/6 1686/5/6
f 1678/5/6 1679/5/6 1687/5/6
f 1686/4/6 1678/4/6 1687/4/6
f 1679/6/6 1680/6/6 1688/6/6
f 1687/5/6 1679/5/6 1688/5/6
f 1680/5/6 1681/5/6 1689/5/6
f 1688/6/6 1680/6/6 1689/6/6
f 1681/4/6 1682/4/6 1690/4/6
f 1689/5/6 1681/5/6 1690/5/6
f 1683/4/6 1684/4/6 1691/4/6
f 1684/5/6 1685/5/6 1692/5/6
f 1691/4/6 1684/4/6 1692/4/6
f 1686/4/6 1687/4/6 1693/4/6
f 1692/5/6 1685/5/6 1693/5/6
f 1685/4/6 1686/4/6 1693/4/6
f 1687/4/6 1688/4/6 1693/4/6
f 1693/4/6 1688/4/6 1694/4/6
f 1694/4/6 1688/4/6 1695/4/6
f 1688/5/6 1689/5/6 1696/5/6
f 1695/4/6 1688/4/6 1696/4/6
f 1689/4/6 1690/4/6 1697/4/6
f 1696/5/6 1689/5/6 1697/5/6
f 1690/4/6 1682/4/6 1698/4/6
f 1697/4/6 1690/4/6 1698/4/6
f 1691/5/6 1692/5/6 1699/5/6
f 1692/6/6 1693/6/6 1700/6/6
f 1699/5/6 1692/5/6 1700/5/6
f 1693/5/6 1694/5/6 1701/5/6
f 1700/6/6 1693/6/6 1701/6/6
f 1694/4/6 1695/4/6 1702/4/6
f 1701/5/6 1694/5/6 1702/5/6
f 1695/5/6 1696/5/6 1703/5/6
f 1702/4/6 1695/4/6 1703/4/6
f 1696/4/6 1697/4/6 1704/4/6
f 1703/5/6 1696/5/6 1704/5/6
f 1697/5/6 1698/5/6 1705/5/6
f 1704/4/6 1697/4/6 1705/4/6
f 1698/4/6 1682/4/6 1706/4/6
f 1705/5/6 1698/5/6 1706/5/6
f 1706/4/6 1682/4/6 1707/4/6
f 1701/6/6 1702/6/6 1708/6/6
f 1700/6/6 1701/6/6 1708/6/6
f 1699/6/6 1700/6/6 1708/6/6
f 1708/6/6 1702/6/6 1709/6/6
f 1709/6/6 1702/6/6 1710/6/6
f 1702/5/6 1703/5/6 1711/5/6
f 1710/6/6 1702/6/6 1711/6/6
f 1704/4/6 1705/4/6 1712/4/6
f 1711/5/6 1703/5/6 1712/5/6
f 1705/4/6 1706/4/6 1712/4/6
f 1703/4/6 1704/4/6 1712/4/6
f 1712/4/6 1706/4/6 1713/4/6
f 1713/4/6 1706/4/6 1714/4/6
f 1706/5/6 1707/5/6 1715/5/6
f 1714/4/6 1706/4/6 1715/4/6
f 1715/5/6 1707/5/6 1716/5/6
f 1708/5/6 1709/5/6 1717/5/6
f 1709/6/6 1710/6/6 1718/6/6
f 1717/5/6 1709/5/6 1718/5/6
f 1710/5/6 1711/5/6 1719/5/6
f 1718/6/6 1710/6/6 1719/6/6
f 1711/4/6 1712/4/6 1720/4/6
f 1719/5/6 1711/5/6 1720/5/6
f 1712/5/6 1713/5/6 1721/5/6
f 1720/4/6 1712/4/6 1721/4/6
f 1713/4/6 1714/4/6 1722/4/6
f 1721/5/6 1713/5/6 1722/5/6
f 1714/5/6 1715/5/6 1723/5/6
f 1722/4/6 1714/4/6 1723/4/6
f 1715/4/6 1716/4/6 1724/4/6
f 1723/5/6 1715/5/6 1724/5/6
f 1717/4/6 1718/4/6 1725/4/6
f 1718/5/6 1719/5/6 1726/5/6
f 1725/4/6 1718/4/6 1726/4/6
f 1720/4/6 1721/4/6 1727/4/6
f 1726/5/6 1719/5/6 1727/5/6
f 1719/4/6 1720/4/6 1727/4/6
f 1721/4/6 1722/4/6 1727/4/6
f 1727/4/6 1722/4/6 1728/4/6
f 1728/4/6 1722/4/6 1729/4/6
f 1722/5/6 1723/5/6 1730/5/6
f 1729/4/6 1722/4/6 1730/4/6
f 1723/4/6 1724/4/6 1731/4/6
f 1730/5/6 1723/5/6 1731/5/6
f 1724/4/6 1716/4/6 1732/4/6
f 1731/4/6 1724/4/6 1732/4/6
f 1725/5/6 1726/5/6 1733/5/6
f 1726/4/6 1727/4/6 1734/4/6
f 1733/5/6 1726/5/6 1734/5/6
f 1727/5/6 1728/5/6 1735/5/6
f 1734/4/6 1727/4/6 1735/4/6
f 1728/4/6 1729/4/6 1736/4/6
f 1735/5/6 1728/5/6 1736/5/6
f 1729/5/6 1730/5/6 1737/5/6
f 1736/4/6 1729/4/6 1737/4/6
f 1730/6/6 1731/6/6 1738/6/6
f 1737/5/6 1730/5/6 1738/5/6
f 1731/5/6 1732/5/6 1739/5/6
f 1738/6/6 1731/6/6 1739/6/6
f 1732/4/6 1716/4/6 1740/4/6
f 1739/5/6 1732/5/6 1740/5/6
f 1740/4/6 1716/4/6 1741/4/6
f 1735/4/6 1736/4/6 1742/4/6
f 1734/4/6 1735/4/6 1742/4/6
f 1733/4/6 1734/4/6 1742/4/6
f 1742/4/6 1736/4/6 1743/4/6
f 1736/5/6 1737/5/6 1744/5/6
f 1743/4/6 1736/4/6 1744/4/6
f 1738/6/6 1739/6/6 1745/6/6
f 1744/5/6 1737/5/6 1745/5/6
f 1739/6/6 1740/6/6 1745/6/6
f 1737/6/6 1738/6/6 1745/6/6
f 1740/5/6 1741/5/6 1746/5/6
f 1745/6/6 1740/6/6 1746/6/6
f 1746/5/6 1741/5/6 1747/5/6
f 1742/5/6 1743/5/6 1748/5/6
f 1748/5/6 1743/5/6 1749/5/6
f 1746/4/6 1747/4/6 1750/4/6
f 1750/4/6 1747/4/6 1751/4/6
f 1752/7/6 1753/7/6 1755/7/6
f 1755/7/6 1753/7/6 1756/7/6
f 1754/7/6 1755/7/6 1758/7/6
f 1758/7/6 1755/7/6 1759/7/6
f 1756/7/6 1757/7/6 1760/7/6
f 1760/7/6 1757/7/6 1761/7/6
f 1762/7/6 1763/7/6 1766/7/6
f 1766/7/6 1763/7/6 1767/7/6
f 1764/7/6 1765/7/6 1768/7/6
f 1768/7/6 1765/7/6 1769/7/6
f 1766/1/6 1767/1/6 1770/1/6
f 1767/1/6 1768/1/6 1770/1/6
f 1768/1/6 1769/1/6 1770/1/6
f 1770/1/6 1769/1/6 1771/1/6
f 1772/3/6 1773/3/6 1774/3/6
f 1774/3/6 1773/3/6 1775/3/6
f 1776/7/6 1777/7/6 1779/7/6
f 1779/7/6 1777/7/6 1780/7/6
f 1778/7/6 1779/7/6 1782/7/6
f 1780/7/6 1781/7/6 1782/7/6
f 1779/7/6 1780/7/6 1782/7/6
f 1782/7/6 1781/7/6 1783/7/6
f 1783/7/6 1781/7/6 1784/7/6
f 1784/7/6 1781/7/6 1785/7/6
f 1783/7/6 1784/7/6 1786/7/6
f 1786/7/6 1784/7/6 1787/7/6
f 1788/3/6 1789/3/6 1790/3/6
f 1790/3/6 1789/3/6 1791/3/6
f 1792/3/6 1793/3/6 1794/3/6
f 1794/3/6 1793/3/6 1795/3/6
f 1796/1/6 1797/1/6 1799/1/6
f 1799/1/6 1797/1/6 1800/1/6
f 1800/1/6 1797/1/6 1801/1/6
f 1801/1/6 1797/1/6 1802/1/6
f 1802/1/6 1797/1/6 1803/1/6
f 1803/1/6 1797/1/6 1804/1/6
f 1804/1/6 1797/1/6 1805/1/6
f 1805/1/6 1797/1/6 1806/1/6
f 1806/1/6 1797/1/6 1807/1/6
f 1798/11/6 1799/11/6 1809/11/6
f 1809/11/6 1799/11/6 1810/11/6
f 1807/8/6 1808/8/6 1811/8/6
f 1809/8/6 1810/8/6 1812/8/6
f 1812/8/6 1810/8/6 1813/8/6
f 1807/8/6 1811/8/6 1814/8/6
f 1814/8/6 1811/8/6 1815/8/6
f 1812/9/6 1813/9/6 1816/9/6
f 1816/9/6 1813/9/6 1817/9/6
f 1814/9/6 1815/9/6 1818/9/6
f 1818/9/6 1815/9/6 1819/9/6
f 1816/11/6 1817/11/6 1820/11/6
f 1820/11/6 1817/11/6 1821/11/6
f 1820/8/6 1821/8/6 1822/8/6
f 1822/8/6 1821/8/6 1823/8/6
f 1818/8/6 1819/8/6 1824/8/6
f 1824/8/6 1819/8/6 1825/8/6
f 1822/5/6 1823/5/6 1826/5/6
f 1826/5/6 1823/5/6 1827/5/6
f 1824/4/6 1825/4/6 1828/4/6
f 1828/4/6 1825/4/6 1829/4/6
f 1826/4/6 1827/4/6 1830/4/6
f 1828/5/6 1829/5/6 1831/5/6
f 1831/5/6 1829/5/6 1832/5/6
f 1826/4/6 1830/4/6 1833/4/6
f 1831/4/6 1832/4/6 1834/4/6
f 1834/4/6 1832/4/6 1835/4/6
f 1826/4/6 1833/4/6 1836/4/6
f 1836/4/6 1833/4/6 1837/4/6
f 1834/5/6 1835/5/6 1838/5/6
f 1838/5/6 1835/5/6 1839/5/6
f 1836/5/6 1837/5/6 1840/5/6
f 1840/5/6 1837/5/6 1841/5/6
f 1838/6/6 1839/6/6 1842/6/6
f 1842/6/6 1839/6/6 1843/6/6
f 1840/4/6 1841/4/6 1844/4/6
f 1842/5/6 1843/5/6 1845/5/6
f 1845/5/6 1843/5/6 1846/5/6
f 1840/4/6 1844/4/6 1847/4/6
f 1845/4/6 1846/4/6 1848/4/6
f 1848/4/6 1846/4/6 1849/4/6
f 1840/4/6 1847/4/6 1850/4/6
f 1850/4/6 1847/4/6 1851/4/6
f 1848/5/6 1849/5/6 1852/5/6
f 1852/5/6 1849/5/6 1853/5/6
f 1850/5/6 1851/5/6 1854/5/6
f 1854/5/6 1851/5/6 1855/5/6
f 1852/4/6 1853/4/6 1856/4/6
f 1856/4/6 1853/4/6 1857/4/6
f 1854/4/6 1855/4/6 1858/4/6
f 1856/5/6 1857/5/6 1859/5/6
f 1859/5/6 1857/5/6 1860/5/6
f 1854/4/6 1858/4/6 1861/4/6
f 1859/4/6 1860/4/6 1862/4/6
f 1862/4/6 1860/4/6 1863/4/6
f 1854/4/6 1861/4/6 1864/4/6
f 1864/4/6 1861/4/6 1865/4/6
f 1862/5/6 1863/5/6 1866/5/6
f 1866/5/6 1863/5/6 1867/5/6
f 1864/5/6 1865/5/6 1868/5/6
f 1868/5/6 1865/5/6 1869/5/6
f 1866/4/6 1867/4/6 1870/4/6
f 1870/4/6 1867/4/6 1871/4/6
f 1872/8/6 1873/8/6 1881/8/6
f 1873/9/6 1874/9/6 1882/9/6
f 1881/8/6 1873/8/6 1882/8/6
f 1874/11/6 1875/11/6 1883/11/6
f 1882/9/6 1874/9/6 1883/9/6
f 1875/8/6 1876/8/6 1884/8/6
f 1883/11/6 1875/11/6 1884/11/6
f 1876/9/6 1877/9/6 1885/9/6
f 1884/8/6 1876/8/6 1885/8/6
f 1877/11/6 1878/11/6 1886/11/6
f 1885/9/6 1877/9/6 1886/9/6
f 1878/8/6 1879/8/6 1887/8/6
f 1886/11/6 1878/11/6 1887/11/6
f 1879/9/6 1880/9/6 1888/9/6
f 1887/8/6 1879/8/6 1888/8/6
f 1881/11/6 1882/11/6 1889/11/6
f 1882/9/6 1883/9/6 1890/9/6
f 1889/11/6 1882/11/6 1890/11/6
f 1883/8/6 1884/8/6 1891/8/6
f 1890/9/6 1883/9/6 1891/9/6
f 1884/11/6 1885/11/6 1892/11/6
f 1891/8/6 1884/8/6 1892/8/6
f 1885/9/6 1886/9/6 1893/9/6
f 1892/11/6 1885/11/6 1893/11/6
f 1886/8/6 1887/8/6 1894/8/6
f 1893/9/6 1886/9/6 1894/9/6
f 1887/11/6 1888/11/6 1895/11/6
f 1894/8/6 1887/8/6 1895/8/6
f 1888/9/6 1880/9/6 1896/9/6
f 1895/11/6 1888/11/6 1896/11/6
f 1896/9/6 1880/9/6 1897/9/6
f 1889/9/6 1890/9/6 1900/9/6
f 1890/10/6 1891/10/6 1901/10/6
f 1900/9/6 1890/9/6 1901/9/6
f 1892/9/6 1893/9/6 1902/9/6
f 1901/10/6 1891/10/6 1902/10/6
f 1891/9/6 1892/9/6 1902/9/6
f 1902/9/6 1893/9/6 1903/9/6
f 1893/10/6 1894/10/6 1904/10/6
f 1903/9/6 1893/9/6 1904/9/6
f 1894/9/6 1895/9/6 1905/9/6
f 1904/10/6 1894/10/6 1905/10/6
f 1895/9/6 1896/9/6 1905/9/6
f 1905/9/6 1896/9/6 1906/9/6
f 1896/10/6 1897/10/6 1907/10/6
f 1906/9/6 1896/9/6 1907/9/6
f 1907/10/6 1897/10/6 1908/10/6
f 1900/8/6 1901/8/6 1909/8/6
f 1901/9/6 1902/9/6 1910/9/6
f 1909/8/6 1901/8/6 1910/8/6
f 1902/11/6 1903/11/6 1911/11/6
f 1910/9/6 1902/9/6 1911/9/6
f 1903/8/6 1904/8/6 1912/8/6
f 1911/11/6 1903/11/6 1912/11/6
f 1904/9/6 1905/9/6 1913/9/6
f 1912/8/6 1904/8/6 1913/8/6
f 1905/11/6 1906/11/6 1914/11/6
f 1913/9/6 1905/9/6 1914/9/6
f 1906/8/6 1907/8/6 1915/8/6
f 1914/11/6 1906/11/6 1915/11/6
f 1907/9/6 1908/9/6 1916/9/6
f 1915/8/6 1907/8/6 1916/8/6
f 1909/11/6 1910/11/6 1917/11/6
f 1910/9/6 1911/9/6 1918/9/6
f 1917/11/6 1910/11/6 1918/11/6
f 1911/8/6 1912/8/6 1919/8/6
f 1918/9/6 1911/9/6 1919/9/6
f 1912/11/6 1913/11/6 1920/11/6
f 1919/8/6 1912/8/6 1920/8/6
f 1913/9/6 1914/9/6 1921/9/6
f 1920/11/6 1913/11/6 1921/11/6
f 1914/8/6 1915/8/6 1922/8/6
f 1921/9/6 1914/9/6 1922/9/6
f 1915/11/6 1916/11/6 1923/11/6
f 1922/8/6 1915/8/6 1923/8/6
f 1916/9/6 1908/9/6 1924/9/6
f 1923/11/6 1916/11/6 1924/11/6
f 1924/9/6 1908/9/6 1925/9/6
f 1898/3/6 1899/3/6 1926/3/6
f 1926/3/6 1899/3/6 1927/3/6
f 1918/4/6 1919/4/6 1928/4/6
f 1917/4/6 1918/4/6 1928/4/6
f 1919/4/6 1920/4/6 1928/4/6
f 1928/4/6 1920/4/6 1929/4/6
f 1929/4/6 1920/4/6 1930/4/6
f 1920/5/6 1921/5/6 1931/5/6
f 1930/4/6 1920/4/6 1931/4/6
f 1923/6/6 1924/6/6 1932/6/6
f 1931/5/6 1921/5/6 1932/5/6
f 1922/6/6 1923/6/6 1932/6/6
f 1921/6/6 1922/6/6 1932/6/6
f 1932/6/6 1924/6/6 1933/6/6
f 1933/6/6 1924/6/6 1934/6/6
f 1924/5/6 1925/5/6 1935/5/6
f 1934/6/6 1924/6/6 1935/6/6
f 1935/5/6 1925/5/6 1936/5/6
f 1928/5/6 1929/5/6 1937/5/6
f 1929/4/6 1930/4/6 1938/4/6
f 1937/5/6 1929/5/6 1938/5/6
f 1930/5/6 1931/5/6 1939/5/6
f 1938/4/6 1930/4/6 1939/4/6
f 1931/4/6 1932/4/6 1940/4/6
f 1939/5/6 1931/5/6 1940/5/6
f 1932/5/6 1933/5/6 1941/5/6
f 1940/4/6 1932/4/6 1941/4/6
f 1933/6/6 1934/6/6 1942/6/6
f 1941/5/6 1933/5/6 1942/5/6
f 1934/5/6 1935/5/6 1943/5/6
f 1942/6/6 1934/6/6 1943/6/6
f 1935/4/6 1936/4/6 1944/4/6
f 1943/5/6 1935/5/6 1944/5/6
f 1937/4/6 1938/4/6 1945/4/6
f 1938/5/6 1939/5/6 1946/5/6
f 1945/4/6 1938/4/6 1946/4/6
f 1939/4/6 1940/4/6 1947/4/6
f 1946/5/6 1939/5/6 1947/5/6
f 1940/5/6 1941/5/6 1948/5/6
f 1947/4/6 1940/4/6 1948/4/6
f 1941/4/6 1942/4/6 1949/4/6
f 1948/5/6 1941/5/6 1949/5/6
f 1942/5/6 1943/5/6 1950/5/6
f 1949/4/6 1942/4/6 1950/4/6
f 1943/4/6 1944/4/6 1951/4/6
f 1950/5/6 1943/5/6 1951/5/6
f 1944/4/6 1936/4/6 1952/4/6
f 1951/4/6 1944/4/6 1952/4/6
f 1945/5/6 1946/5/6 1953/5/6
f 1946/6/6 1947/6/6 1954/6/6
f 1953/5/6 1946/5/6 1954/5/6
f 1947/5/6 1948/5/6 1955/5/6
f 1954/6/6 1947/6/6 1955/6/6
f 1948/4/6 1949/4/6 1956/4/6
f 1955/5/6 1948/5/6 1956/5/6
f 1949/5/6 1950/5/6 1957/5/6
f 1956/4/6 1949/4/6 1957/4/6
f 1950/4/6 1951/4/6 1958/4/6
f 1957/5/6 1950/5/6 1958/5/6
f 1951/5/6 1952/5/6 1959/5/6
f 1958/4/6 1951/4/6 1959/4/6
f 1952/4/6 1936/4/6 1960/4/6
f 1959/5/6 1952/5/6 1960/5/6
f 1960/4/6 1936/4/6 1961/4/6
f 1953/6/6 1954/6/6 1962/6/6
f 1954/6/6 1955/6/6 1962/6/6
f 1955/6/6 1956/6/6 1962/6/6
f 1962/6/6 1956/6/6 1963/6/6
f 1963/6/6 1956/6/6 1964/6/6
f 1956/5/6 1957/5/6 1965/5/6
f 1964/6/6 1956/6/6 1965/6/6
f 1958/4/6 1959/4/6 1966/4/6
f 1965/5/6 1957/5/6 1966/5/6
f 1959/4/6 1960/4/6 1966/4/6
f 1957/4/6 1958/4/6 1966/4/6
f 1966/4/6 1960/4/6 1967/4/6
f 1967/4/6 1960/4/6 1968/4/6
f 1960/5/6 1961/5/6 1969/5/6
f 1968/4/6 1960/4/6 1969/4/6
f 1969/5/6 1961/5/6 1970/5/6
f 1962/5/6 1963/5/6 1971/5/6
f 1963/6/6 1964/6/6 1972/6/6
f 1971/5/6 1963/5/6 1972/5/6
f 1964/5/6 1965/5/6 1973/5/6
f 1972/6/6 1964/6/6 1973/6/6
f 1965/4/6 1966/4/6 1974/4/6
f 1973/5/6 1965/5/6 1974/5/6
f 1966/5/6 1967/5/6 1975/5/6
f 1974/4/6 1966/4/6 1975/4/6
f 1967/6/6 1968/6/6 1976/6/6
f 1975/5/6 1967/5/6 1976/5/6
f 1968/5/6 1969/5/6 1977/5/6
f 1976/6/6 1968/6/6 1977/6/6
f 1969/4/6 1970/4/6 1978/4/6
f 1977/5/6 1969/5/6 1978/5/6
f 1971/4/6 1972/4/6 1979/4/6
f 1972/5/6 1973/5/6 1980/5/6
f 1979/4/6 1972/4/6 1980/4/6
f 1973/4/6 1974/4/6 1981/4/6
f 1980/5/6 1973/5/6 1981/5/6
f 1974/5/6 1975/5/6 1982/5/6
f 1981/4/6 1974/4/6 1982/4/6
f 1975/6/6 1976/6/6 1983/6/6
f 1982/5/6 1975/5/6 1983/5/6
f 1976/6/6 1977/6/6 1983/6/6
f 1977/6/6 1978/6/6 1983/6/6
f 1983/6/6 1978/6/6 1984/6/6
f 1978/4/6 1970/4/6 1985/4/6
f 1984/6/6 1978/6/6 1985/6/6
f 1979/5/6 1980/5/6 1986/5/6
f 1980/4/6 1981/4/6 1987/4/6
f 1986/5/6 1980/5/6 1987/5/6
f 1981/5/6 1982/5/6 1988/5/6
f 1987/4/6 1981/4/6 1988/4/6
f 1982/4/6 1983/4/6 1989/4/6
f 1988/5/6 1982/5/6 1989/5/6
f 1983/5/6 1984/5/6 1990/5/6
f 1989/4/6 1983/4/6 1990/4/6
f 1990/5/6 1984/5/6 1991/5/6
f 1984/4/6 1985/4/6 1992/4/6
f 1991/5/6 1984/5/6 1992/5/6
f 1985/4/6 1970/4/6 1993/4/6
f 1992/4/6 1985/4/6 1993/4/6
f 1993/4/6 1970/4/6 1994/4/6
f 1988/4/6 1989/4/6 1995/4/6
f 1986/4/6 1987/4/6 1995/4/6
f 1987/4/6 1988/4/6 1995/4/6
f 1995/4/6 1989/4/6 1996/4/6
f 1989/5/6 1990/5/6 1997/5/6
f 1996/4/6 1989/4/6 1997/4/6
f 1990/6/6 1991/6/6 1998/6/6
f 1997/5/6 1990/5/6 1998/5/6
f 1991/4/6 1992/4/6 1999/4/6
f 1998/6/6 1991/6/6 1999/6/6
f 1992/6/6 1993/6/6 2000/6/6
f 1999/4/6 1992/4/6 2000/4/6
f 1993/5/6 1994/5/6 2001/5/6
f 2000/6/6 1993/6/6 2001/6/6
f 2001/5/6 1994/5/6 2002/5/6
f 1995/5/6 1996/5/6 2003/5/6
f 2003/5/6 1996/5/6 2004/5/6
f 2001/4/6 2002/4/6 2005/4/6
f 2005/4/6 2002/4/6 2006/4/6
f 2007/1/6 2008/1/6 2010/1/6
f 2010/1/6 2008/1/6 2011/1/6
f 2011/1/6 2012/1/6 2013/1/6
f 2011/1/6 2013/1/6 2015/1/6
f 2013/2/6 2014/2/6 2015/2/6
f 2015/2/6 2014/2/6 2016/2/6
f 2011/1/6 2015/1/6 2017/1/6
f 2011/1/6 2017/1/6 2019/1/6
f 2017/2/6 2018/2/6 2019/2/6
f 2019/2/6 2018/2/6 2020/2/6
f 2009/1/6 2010/1/6 2023/1/6
f 2021/7/6 2022/7/6 2024/7/6
f 2024/7/6 2022/7/6 2025/7/6
f 2011/1/6 2019/1/6 2026/1/6
f 2009/1/6 2023/1/6 2027/1/6
f 2023/7/6 2024/7/6 2027/7/6
f 2027/7/6 2024/7/6 2028/7/6
f 2025/7/6 2026/7/6 2029/7/6
f 2026/1/6 2019/1/6 2030/1/6
f 2029/7/6 2026/7/6 2030/7/6
f 2009/1/6 2027/1/6 2031/1/6
f 2030/1/6 2019/1/6 2034/1/6
f 2009/1/6 2031/1/6 2035/1/6
f 2031/7/6 2032/7/6 2036/7/6
f 2035/1/6 2031/1/6 2036/1/6
f 2036/7/6 2032/7/6 2037/7/6
f 2033/7/6 2034/7/6 2038/7/6
f 2034/1/6 2019/1/6 2039/1/6
f 2038/7/6 2034/7/6 2039/7/6
f 2039/1/6 2019/1/6 2040/1/6
f 2036/1/6 2037/1/6 2041/1/6
f 2037/1/6 2038/1/6 2041/1/6
f 2038/1/6 2039/1/6 2041/1/6
f 2041/1/6 2039/1/6 2042/1/6
f 2043/7/6 2044/7/6 2046/7/6
f 2046/7/6 2044/7/6 2047/7/6
f 2045/7/6 2046/7/6 2049/7/6
f 2047/7/6 2048/7/6 2049/7/6
f 2046/7/6 2047/7/6 2049/7/6
f 2049/7/6 2048/7/6 2050/7/6
f 2050/7/6 2048/7/6 2051/7/6
f 2051/7/6 2048/7/6 2052/7/6
f 2050/7/6 2051/7/6 2053/7/6
f 2053/7/6 2051/7/6 2054/7/6
f 2055/1/6 2056/1/6 2059/1/6
f 2059/1/6 2056/1/6 2060/1/6
f 2057/1/6 2058/1/6 2061/1/6
f 2061/1/6 2058/1/6 2062/1/6
f 2063/1/6 2064/1/6 2067/1/6
f 2067/1/6 2064/1/6 2068/1/6
f 2065/1/6 2066/1/6 2069/1/6
f 2069/1/6 2066/1/6 2070/1/6
