# MagicaVoxel @ Ephtracy

# group
o desk

# material
mtllib bedroom_oldie-6-desk.mtl
usemtl palette

# normals
vn -1 0 0
vn 1 0 0
vn 0 0 1
vn 0 0 -1
vn 0 -1 0
vn 0 1 0

# texcoords
vt 0.220703 0.5
vt 0.224609 0.5
vt 0.228516 0.5
vt 0.470703 0.5

# verts
v -1 0 8
v -1 0 7.9
v -1 0 7.4
v -1 0 7.3
v -1 0.3 7.9
v -1 0.3 7.4
v -1 1.1 8
v -1 1.1 7.3
v -0.6 0.4 8.1
v -0.6 0.4 8
v -0.6 0.5 8.1
v -0.6 0.5 8
v -0.6 0.6 8.1
v -0.6 0.6 8
v -0.6 0.7 8.1
v -0.6 0.7 8
v -0.6 0.9 8.1
v -0.6 0.9 8
v -0.6 1 8.1
v -0.6 1 8
v -0.1 0 8
v -0.1 0 7.9
v -0.1 0 7.4
v -0.1 0 7.3
v -0.1 0.3 8
v -0.1 0.3 7.9
v -0.1 0.3 7.4
v -0.1 0.3 7.3
v 0.4 0.9 8.1
v 0.4 0.9 8
v 0.4 1 8.1
v 0.4 1 8
v 0.9 0 8
v 0.9 0 7.9
v 0.9 0 7.4
v 0.9 0 7.3
v 0.9 0.5 7.9
v 0.9 0.5 7.4
v 0.9 0.8 8
v 0.9 0.8 7.9
v 0.9 0.8 7.3
v -0.9 0 8
v -0.9 0 7.9
v -0.9 0 7.4
v -0.9 0 7.3
v -0.9 0.3 8
v -0.9 0.3 7.9
v -0.9 0.3 7.4
v -0.9 0.3 7.3
v -0.4 0.4 8.1
v -0.4 0.4 8
v -0.4 0.5 8.1
v -0.4 0.5 8
v -0.4 0.6 8.1
v -0.4 0.6 8
v -0.4 0.7 8.1
v -0.4 0.7 8
v -0.4 0.9 8.1
v -0.4 0.9 8
v -0.4 1 8.1
v -0.4 1 8
v -7.45058e-009 0 8
v -7.45058e-009 0 7.9
v -7.45058e-009 0 7.4
v -7.45058e-009 0 7.3
v -7.45058e-009 0.3 7.9
v -7.45058e-009 0.3 7.4
v -7.45058e-009 0.8 8
v -7.45058e-009 0.8 7.9
v -7.45058e-009 0.8 7.3
v 0.5 0.9 8.1
v 0.5 0.9 8
v 0.5 1 8.1
v 0.5 1 8
v 1 0 8
v 1 0 7.9
v 1 0 7.4
v 1 0 7.3
v 1 0.5 7.9
v 1 0.5 7.4
v 1 1.1 8
v 1 1.1 7.3
v -0.6 0.4 8.1
v -0.6 0.5 8.1
v -0.6 0.6 8.1
v -0.6 0.7 8.1
v -0.6 0.9 8.1
v -0.6 1 8.1
v -0.4 0.4 8.1
v -0.4 0.5 8.1
v -0.4 0.6 8.1
v -0.4 0.7 8.1
v -0.4 0.9 8.1
v -0.4 1 8.1
v 0.4 0.9 8.1
v 0.4 1 8.1
v 0.5 0.9 8.1
v 0.5 1 8.1
v -1 0 8
v -1 1.1 8
v -0.9 0 8
v -0.9 0.3 8
v -0.9 0.4 8
v -0.9 0.5 8
v -0.9 0.6 8
v -0.9 0.7 8
v -0.9 0.8 8
v -0.9 1 8
v -0.8 0.4 8
v -0.8 0.5 8
v -0.8 0.6 8
v -0.8 0.7 8
v -0.8 0.9 8
v -0.8 1 8
v -0.6 0.4 8
v -0.6 0.5 8
v -0.6 0.6 8
v -0.6 0.7 8
v -0.6 0.9 8
v -0.6 1 8
v -0.4 0.4 8
v -0.4 0.5 8
v -0.4 0.6 8
v -0.4 0.7 8
v -0.4 0.9 8
v -0.4 1 8
v -0.2 0.4 8
v -0.2 0.5 8
v -0.2 0.6 8
v -0.2 0.7 8
v -0.2 0.9 8
v -0.2 1 8
v -0.1 0 8
v -0.1 0.3 8
v -0.1 0.4 8
v -0.1 0.5 8
v -0.1 0.6 8
v -0.1 0.7 8
v -0.1 0.8 8
v -0.1 1 8
v -7.45058e-009 0 8
v -7.45058e-009 0.8 8
v -7.45058e-009 1 8
v 0.1 0.9 8
v 0.1 1 8
v 0.4 0.9 8
v 0.4 1 8
v 0.5 0.9 8
v 0.5 1 8
v 0.8 0.9 8
v 0.8 1 8
v 0.9 0 8
v 0.9 0.8 8
v 0.9 1 8
v 1 0 8
v 1 1.1 8
v -1 0 7.4
v -1 0.3 7.4
v -0.9 0 7.4
v -0.9 0.3 7.4
v -0.1 0 7.4
v -0.1 0.3 7.4
v -7.45058e-009 0 7.4
v -7.45058e-009 0.3 7.4
v 0.9 0 7.4
v 0.9 0.5 7.4
v 1 0 7.4
v 1 0.5 7.4
v -1 0 7.9
v -1 0.3 7.9
v -0.9 0 7.9
v -0.9 0.3 7.9
v -0.1 0 7.9
v -0.1 0.3 7.9
v -7.45058e-009 0 7.9
v -7.45058e-009 0.3 7.9
v 0.9 0 7.9
v 0.9 0.5 7.9
v 1 0 7.9
v 1 0.5 7.9
v -1 0 7.3
v -1 1.1 7.3
v -0.9 0 7.3
v -0.9 0.3 7.3
v -0.1 0 7.3
v -0.1 0.3 7.3
v -7.45058e-009 0 7.3
v -7.45058e-009 0.8 7.3
v 0.9 0 7.3
v 0.9 0.8 7.3
v 1 0 7.3
v 1 1.1 7.3
v -1 0 8
v -0.9 0 8
v -0.1 0 8
v -7.45058e-009 0 8
v 0.9 0 8
v 1 0 8
v -1 0 7.9
v -0.9 0 7.9
v -0.1 0 7.9
v -7.45058e-009 0 7.9
v 0.9 0 7.9
v 1 0 7.9
v -1 0 7.4
v -0.9 0 7.4
v -0.1 0 7.4
v -7.45058e-009 0 7.4
v 0.9 0 7.4
v 1 0 7.4
v -1 0 7.3
v -0.9 0 7.3
v -0.1 0 7.3
v -7.45058e-009 0 7.3
v 0.9 0 7.3
v 1 0 7.3
v -0.9 0.3 8
v -0.1 0.3 8
v -1 0.3 7.9
v -0.9 0.3 7.9
v -0.1 0.3 7.9
v -7.45058e-009 0.3 7.9
v -1 0.3 7.4
v -0.9 0.3 7.4
v -0.1 0.3 7.4
v -7.45058e-009 0.3 7.4
v -0.9 0.3 7.3
v -0.1 0.3 7.3
v -0.6 0.4 8.1
v -0.4 0.4 8.1
v -0.6 0.4 8
v -0.4 0.4 8
v 0.9 0.5 7.9
v 1 0.5 7.9
v 0.9 0.5 7.4
v 1 0.5 7.4
v -0.6 0.6 8.1
v -0.4 0.6 8.1
v -0.6 0.6 8
v -0.4 0.6 8
v -7.45058e-009 0.8 8
v 0.9 0.8 8
v -7.45058e-009 0.8 7.9
v 0.9 0.8 7.9
v -7.45058e-009 0.8 7.3
v 0.9 0.8 7.3
v -0.6 0.9 8.1
v -0.4 0.9 8.1
v 0.4 0.9 8.1
v 0.5 0.9 8.1
v -0.6 0.9 8
v -0.4 0.9 8
v 0.4 0.9 8
v 0.5 0.9 8
v -0.6 0.5 8.1
v -0.4 0.5 8.1
v -0.6 0.5 8
v -0.4 0.5 8
v -0.6 0.7 8.1
v -0.4 0.7 8.1
v -0.6 0.7 8
v -0.4 0.7 8
v -0.6 1 8.1
v -0.4 1 8.1
v 0.4 1 8.1
v 0.5 1 8.1
v -0.6 1 8
v -0.4 1 8
v 0.4 1 8
v 0.5 1 8
v -1 1.1 8
v 1 1.1 8
v -1 1.1 7.3
v 1 1.1 7.3

# faces
f 5/1/1 2/1/1 1/1/1
f 6/1/1 4/1/1 3/1/1
f 7/1/1 5/1/1 1/1/1
f 7/1/1 6/1/1 5/1/1
f 8/1/1 4/1/1 6/1/1
f 8/1/1 6/1/1 7/1/1
f 11/4/1 10/4/1 9/4/1
f 12/4/1 10/4/1 11/4/1
f 15/4/1 14/4/1 13/4/1
f 16/4/1 14/4/1 15/4/1
f 19/4/1 18/4/1 17/4/1
f 20/4/1 18/4/1 19/4/1
f 25/1/1 22/1/1 21/1/1
f 26/1/1 22/1/1 25/1/1
f 27/1/1 24/1/1 23/1/1
f 28/1/1 24/1/1 27/1/1
f 31/4/1 30/4/1 29/4/1
f 32/4/1 30/4/1 31/4/1
f 37/1/1 34/1/1 33/1/1
f 38/1/1 36/1/1 35/1/1
f 39/1/1 37/1/1 33/1/1
f 39/1/1 38/1/1 37/1/1
f 40/1/1 38/1/1 39/1/1
f 41/1/1 36/1/1 38/1/1
f 41/1/1 38/1/1 40/1/1
f 42/1/2 43/1/2 46/1/2
f 46/1/2 43/1/2 47/1/2
f 44/1/2 45/1/2 48/1/2
f 48/1/2 45/1/2 49/1/2
f 50/4/2 51/4/2 52/4/2
f 52/4/2 51/4/2 53/4/2
f 54/4/2 55/4/2 56/4/2
f 56/4/2 55/4/2 57/4/2
f 58/4/2 59/4/2 60/4/2
f 60/4/2 59/4/2 61/4/2
f 62/1/2 63/1/2 66/1/2
f 64/1/2 65/1/2 67/1/2
f 62/1/2 66/1/2 68/1/2
f 66/1/2 67/1/2 68/1/2
f 68/1/2 67/1/2 69/1/2
f 67/1/2 65/1/2 70/1/2
f 69/1/2 67/1/2 70/1/2
f 71/4/2 72/4/2 73/4/2
f 73/4/2 72/4/2 74/4/2
f 75/1/2 76/1/2 79/1/2
f 77/1/2 78/1/2 80/1/2
f 75/1/2 79/1/2 81/1/2
f 79/1/2 80/1/2 81/1/2
f 80/1/2 78/1/2 82/1/2
f 81/1/2 80/1/2 82/1/2
f 89/4/3 84/4/3 83/4/3
f 90/4/3 84/4/3 89/4/3
f 91/4/3 86/4/3 85/4/3
f 92/4/3 86/4/3 91/4/3
f 93/4/3 88/4/3 87/4/3
f 94/4/3 88/4/3 93/4/3
f 97/4/3 96/4/3 95/4/3
f 98/4/3 96/4/3 97/4/3
f 101/1/3 100/1/3 99/1/3
f 102/1/3 100/1/3 101/1/3
f 103/1/3 100/1/3 102/1/3
f 104/1/3 100/1/3 103/1/3
f 105/1/3 100/1/3 104/1/3
f 106/1/3 100/1/3 105/1/3
f 107/1/3 100/1/3 106/1/3
f 108/1/3 100/1/3 107/1/3
f 109/1/3 103/1/3 102/1/3
f 109/2/3 104/2/3 103/2/3
f 110/1/3 105/1/3 104/1/3
f 110/2/3 104/2/3 109/2/3
f 111/2/3 106/2/3 105/2/3
f 111/1/3 105/1/3 110/1/3
f 112/1/3 107/1/3 106/1/3
f 112/2/3 106/2/3 111/2/3
f 113/2/3 108/2/3 107/2/3
f 114/1/3 100/1/3 108/1/3
f 114/2/3 108/2/3 113/2/3
f 115/1/3 109/1/3 102/1/3
f 115/3/3 110/3/3 109/3/3
f 116/1/3 111/1/3 110/1/3
f 116/3/3 110/3/3 115/3/3
f 117/3/3 112/3/3 111/3/3
f 117/1/3 111/1/3 116/1/3
f 118/1/3 107/1/3 112/1/3
f 118/3/3 112/3/3 117/3/3
f 119/2/3 113/2/3 107/2/3
f 119/3/3 114/3/3 113/3/3
f 120/1/3 100/1/3 114/1/3
f 120/3/3 114/3/3 119/3/3
f 121/1/3 115/1/3 102/1/3
f 122/1/3 117/1/3 116/1/3
f 123/1/3 117/1/3 122/1/3
f 124/1/3 107/1/3 118/1/3
f 125/2/3 119/2/3 107/2/3
f 126/1/3 100/1/3 120/1/3
f 127/1/3 121/1/3 102/1/3
f 127/3/3 122/3/3 121/3/3
f 128/1/3 123/1/3 122/1/3
f 128/3/3 122/3/3 127/3/3
f 129/3/3 124/3/3 123/3/3
f 129/1/3 123/1/3 128/1/3
f 130/1/3 107/1/3 124/1/3
f 130/3/3 124/3/3 129/3/3
f 131/3/3 126/3/3 125/3/3
f 131/2/3 125/2/3 107/2/3
f 132/1/3 100/1/3 126/1/3
f 132/3/3 126/3/3 131/3/3
f 134/1/3 127/1/3 102/1/3
f 135/2/3 128/2/3 127/2/3
f 135/1/3 127/1/3 134/1/3
f 136/1/3 129/1/3 128/1/3
f 136/2/3 128/2/3 135/2/3
f 137/2/3 130/2/3 129/2/3
f 137/1/3 129/1/3 136/1/3
f 138/1/3 107/1/3 130/1/3
f 138/2/3 130/2/3 137/2/3
f 139/2/3 131/2/3 107/2/3
f 139/1/3 107/1/3 138/1/3
f 139/2/3 132/2/3 131/2/3
f 140/1/3 100/1/3 132/1/3
f 140/2/3 132/2/3 139/2/3
f 141/1/3 139/1/3 138/1/3
f 141/1/3 137/1/3 136/1/3
f 141/1/3 140/1/3 139/1/3
f 141/1/3 136/1/3 135/1/3
f 141/1/3 134/1/3 133/1/3
f 141/1/3 135/1/3 134/1/3
f 141/1/3 138/1/3 137/1/3
f 142/1/3 140/1/3 141/1/3
f 143/1/3 100/1/3 140/1/3
f 143/1/3 140/1/3 142/1/3
f 144/2/3 143/2/3 142/2/3
f 145/1/3 100/1/3 143/1/3
f 145/2/3 143/2/3 144/2/3
f 146/2/3 144/2/3 142/2/3
f 146/3/3 145/3/3 144/3/3
f 147/1/3 100/1/3 145/1/3
f 147/3/3 145/3/3 146/3/3
f 148/2/3 146/2/3 142/2/3
f 149/1/3 100/1/3 147/1/3
f 150/2/3 148/2/3 142/2/3
f 150/3/3 149/3/3 148/3/3
f 151/1/3 100/1/3 149/1/3
f 151/3/3 149/3/3 150/3/3
f 153/2/3 150/2/3 142/2/3
f 153/2/3 151/2/3 150/2/3
f 154/1/3 100/1/3 151/1/3
f 154/2/3 151/2/3 153/2/3
f 155/1/3 153/1/3 152/1/3
f 155/1/3 154/1/3 153/1/3
f 156/1/3 100/1/3 154/1/3
f 156/1/3 154/1/3 155/1/3
f 159/1/3 158/1/3 157/1/3
f 160/1/3 158/1/3 159/1/3
f 163/1/3 162/1/3 161/1/3
f 164/1/3 162/1/3 163/1/3
f 167/1/3 166/1/3 165/1/3
f 168/1/3 166/1/3 167/1/3
f 169/1/4 170/1/4 171/1/4
f 171/1/4 170/1/4 172/1/4
f 173/1/4 174/1/4 175/1/4
f 175/1/4 174/1/4 176/1/4
f 177/1/4 178/1/4 179/1/4
f 179/1/4 178/1/4 180/1/4
f 181/1/4 182/1/4 183/1/4
f 183/1/4 182/1/4 184/1/4
f 184/1/4 182/1/4 186/1/4
f 185/1/4 186/1/4 187/1/4
f 186/1/4 182/1/4 188/1/4
f 187/1/4 186/1/4 188/1/4
f 188/1/4 182/1/4 190/1/4
f 189/1/4 190/1/4 191/1/4
f 190/1/4 182/1/4 192/1/4
f 191/1/4 190/1/4 192/1/4
f 199/1/5 194/1/5 193/1/5
f 200/1/5 194/1/5 199/1/5
f 201/1/5 196/1/5 195/1/5
f 202/1/5 196/1/5 201/1/5
f 203/1/5 198/1/5 197/1/5
f 204/1/5 198/1/5 203/1/5
f 211/1/5 206/1/5 205/1/5
f 212/1/5 206/1/5 211/1/5
f 213/1/5 208/1/5 207/1/5
f 214/1/5 208/1/5 213/1/5
f 215/1/5 210/1/5 209/1/5
f 216/1/5 210/1/5 215/1/5
f 220/1/5 218/1/5 217/1/5
f 221/1/5 218/1/5 220/1/5
f 223/1/5 220/1/5 219/1/5
f 223/1/5 222/1/5 221/1/5
f 223/1/5 221/1/5 220/1/5
f 224/1/5 222/1/5 223/1/5
f 225/1/5 222/1/5 224/1/5
f 226/1/5 222/1/5 225/1/5
f 227/1/5 225/1/5 224/1/5
f 228/1/5 225/1/5 227/1/5
f 231/4/5 230/4/5 229/4/5
f 232/4/5 230/4/5 231/4/5
f 235/1/5 234/1/5 233/1/5
f 236/1/5 234/1/5 235/1/5
f 239/4/5 238/4/5 237/4/5
f 240/4/5 238/4/5 239/4/5
f 243/2/5 242/2/5 241/2/5
f 244/2/5 242/2/5 243/2/5
f 245/1/5 244/1/5 243/1/5
f 246/1/5 244/1/5 245/1/5
f 251/4/5 248/4/5 247/4/5
f 252/4/5 248/4/5 251/4/5
f 253/4/5 250/4/5 249/4/5
f 254/4/5 250/4/5 253/4/5
f 255/4/6 256/4/6 257/4/6
f 257/4/6 256/4/6 258/4/6
f 259/4/6 260/4/6 261/4/6
f 261/4/6 260/4/6 262/4/6
f 263/4/6 264/4/6 267/4/6
f 267/4/6 264/4/6 268/4/6
f 265/4/6 266/4/6 269/4/6
f 269/4/6 266/4/6 270/4/6
f 271/1/6 272/1/6 273/1/6
f 273/1/6 272/1/6 274/1/6
