# MagicaVoxel @ Ephtracy

# group
o window-industrial-medium

# material
mtllib components-10-window-industrial-medium.mtl
usemtl palette

# normals
vn -1 0 0
vn 1 0 0
vn 0 0 1
vn 0 0 -1
vn 0 -1 0
vn 0 1 0

# texcoords
vt 0.00195313 0.5
vt 0.00976563 0.5
vt 0.525391 0.5
vt 0.994141 0.5

# verts
v -1.9 0 16.6
v -1.9 0 16.1
v -1.9 2.8 16.6
v -1.9 2.8 16.1
v 1.9 0 16.6
v 1.9 0 16.1
v 1.9 2.8 16.6
v 1.9 2.8 16.1
v -1.9 0 16.6
v -1.9 2.8 16.6
v -1.8 0.1 16.6
v -1.8 2.7 16.6
v 1.8 0.1 16.6
v 1.8 2.7 16.6
v 1.9 0 16.6
v 1.9 2.8 16.6
v -1.9 0 16.1
v -1.9 2.8 16.1
v -1.8 0.1 16.1
v -1.8 2.7 16.1
v 1.8 0.1 16.1
v 1.8 2.7 16.1
v 1.9 0 16.1
v 1.9 2.8 16.1
v -1.9 0 16.6
v 1.9 0 16.6
v -1.9 0 16.1
v 1.9 0 16.1
v -1.9 2.8 16.6
v 1.9 2.8 16.6
v -1.9 2.8 16.1
v 1.9 2.8 16.1

# faces
f 3/3/1 2/3/1 1/3/1
f 4/3/1 2/3/1 3/3/1
f 5/3/2 6/3/2 7/3/2
f 7/3/2 6/3/2 8/3/2
f 11/3/3 10/3/3 9/3/3
f 12/3/3 10/3/3 11/3/3
f 13/3/3 11/3/3 9/3/3
f 13/4/3 12/4/3 11/4/3
f 14/3/3 10/3/3 12/3/3
f 14/4/3 12/4/3 13/4/3
f 15/3/3 13/3/3 9/3/3
f 15/3/3 14/3/3 13/3/3
f 16/3/3 10/3/3 14/3/3
f 16/3/3 14/3/3 15/3/3
f 17/3/4 18/3/4 19/3/4
f 19/3/4 18/3/4 20/3/4
f 17/3/4 19/3/4 21/3/4
f 19/4/4 20/4/4 21/4/4
f 20/3/4 18/3/4 22/3/4
f 21/4/4 20/4/4 22/4/4
f 17/3/4 21/3/4 23/3/4
f 21/3/4 22/3/4 23/3/4
f 22/3/4 18/3/4 24/3/4
f 23/3/4 22/3/4 24/3/4
f 27/3/5 26/3/5 25/3/5
f 28/3/5 26/3/5 27/3/5
f 29/3/6 30/3/6 31/3/6
f 31/3/6 30/3/6 32/3/6
