# MagicaVoxel @ Ephtracy

# group
o window-brick-39x29x7

# material
mtllib components-21-window-brick-39x29x7.mtl
usemtl palette

# normals
vn -1 0 0
vn 1 0 0
vn 0 0 1
vn 0 0 -1
vn 0 -1 0
vn 0 1 0

# texcoords
vt 0.00195313 0.5
vt 0.251953 0.5
vt 0.345703 0.5
vt 0.376953 0.5
vt 0.380859 0.5
vt 0.384766 0.5
vt 0.994141 0.5

# verts
v -1.9 0 9.3
v -1.9 0 8.6
v -1.9 0.2 9.3
v -1.9 0.2 9.2
v -1.9 0.2 8.7
v -1.9 0.2 8.6
v -1.9 0.3 9.3
v -1.9 0.3 9.2
v -1.9 0.3 8.7
v -1.9 0.3 8.6
v -1.9 0.6 9.3
v -1.9 0.6 9.2
v -1.9 0.6 8.7
v -1.9 0.6 8.6
v -1.9 0.7 9.3
v -1.9 0.7 9.2
v -1.9 0.7 8.7
v -1.9 0.7 8.6
v -1.9 1 9.3
v -1.9 1 9.2
v -1.9 1 8.7
v -1.9 1 8.6
v -1.9 1.1 9.3
v -1.9 1.1 9.2
v -1.9 1.1 8.7
v -1.9 1.1 8.6
v -1.9 1.4 9.3
v -1.9 1.4 9.2
v -1.9 1.4 8.7
v -1.9 1.4 8.6
v -1.9 1.5 9.3
v -1.9 1.5 9.2
v -1.9 1.5 8.7
v -1.9 1.5 8.6
v -1.9 1.8 9.3
v -1.9 1.8 9.2
v -1.9 1.8 8.7
v -1.9 1.8 8.6
v -1.9 1.9 9.3
v -1.9 1.9 9.2
v -1.9 1.9 8.7
v -1.9 1.9 8.6
v -1.9 2.2 9.3
v -1.9 2.2 9.2
v -1.9 2.2 8.7
v -1.9 2.2 8.6
v -1.9 2.3 9.3
v -1.9 2.3 9.2
v -1.9 2.3 8.7
v -1.9 2.3 8.6
v -1.9 2.6 9.3
v -1.9 2.6 9.2
v -1.9 2.6 8.7
v -1.9 2.6 8.6
v -1.9 2.7 9.3
v -1.9 2.7 9.2
v -1.9 2.7 8.7
v -1.9 2.7 8.6
v -1.9 2.9 9.3
v -1.9 2.9 8.6
v -1.8 1.4 8.7
v -1.8 1.4 8.6
v -1.8 1.5 8.7
v -1.8 1.5 8.6
v -1.8 1.8 8.7
v -1.8 1.8 8.6
v -1.8 1.9 8.7
v -1.8 1.9 8.6
v 2 0 9.3
v 2 0 8.6
v 2 0.2 9.3
v 2 0.2 9.2
v 2 0.2 8.7
v 2 0.2 8.6
v 2 0.3 9.3
v 2 0.3 9.2
v 2 0.3 8.7
v 2 0.3 8.6
v 2 0.6 9.3
v 2 0.6 9.2
v 2 0.6 8.7
v 2 0.6 8.6
v 2 0.7 9.3
v 2 0.7 9.2
v 2 0.7 8.7
v 2 0.7 8.6
v 2 1 9.3
v 2 1 9.2
v 2 1 8.7
v 2 1 8.6
v 2 1.1 9.3
v 2 1.1 9.2
v 2 1.1 8.7
v 2 1.1 8.6
v 2 1.4 9.3
v 2 1.4 9.2
v 2 1.4 8.7
v 2 1.4 8.6
v 2 1.5 9.3
v 2 1.5 9.2
v 2 1.5 8.7
v 2 1.5 8.6
v 2 1.8 9.3
v 2 1.8 9.2
v 2 1.8 8.7
v 2 1.8 8.6
v 2 1.9 9.3
v 2 1.9 9.2
v 2 1.9 8.7
v 2 1.9 8.6
v 2 2.2 9.3
v 2 2.2 9.2
v 2 2.2 8.7
v 2 2.2 8.6
v 2 2.3 9.3
v 2 2.3 9.2
v 2 2.3 8.7
v 2 2.3 8.6
v 2 2.6 9.3
v 2 2.6 9.2
v 2 2.6 8.7
v 2 2.6 8.6
v 2 2.7 9.3
v 2 2.7 9.2
v 2 2.7 8.7
v 2 2.7 8.6
v 2 2.9 9.3
v 2 2.9 8.6
v -1.9 0 9.3
v -1.9 0.2 9.3
v -1.9 0.3 9.3
v -1.9 0.6 9.3
v -1.9 0.7 9.3
v -1.9 1 9.3
v -1.9 1.1 9.3
v -1.9 1.4 9.3
v -1.9 1.5 9.3
v -1.9 1.8 9.3
v -1.9 1.9 9.3
v -1.9 2.2 9.3
v -1.9 2.3 9.3
v -1.9 2.6 9.3
v -1.9 2.7 9.3
v -1.9 2.9 9.3
v -1.7 0.3 9.3
v -1.7 0.6 9.3
v -1.7 0.7 9.3
v -1.7 1 9.3
v -1.7 1.1 9.3
v -1.7 1.4 9.3
v -1.7 1.5 9.3
v -1.7 1.8 9.3
v -1.7 1.9 9.3
v -1.7 2.2 9.3
v -1.7 2.3 9.3
v -1.7 2.6 9.3
v -1.6 0 9.3
v -1.6 0.2 9.3
v -1.6 2.7 9.3
v -1.6 2.9 9.3
v -1.5 0 9.3
v -1.5 0.2 9.3
v -1.5 2.7 9.3
v -1.5 2.9 9.3
v -1.2 0 9.3
v -1.2 0.2 9.3
v -1.2 2.7 9.3
v -1.2 2.9 9.3
v -1.1 0 9.3
v -1.1 0.2 9.3
v -1.1 2.7 9.3
v -1.1 2.9 9.3
v -0.8 0 9.3
v -0.8 0.2 9.3
v -0.8 2.7 9.3
v -0.8 2.9 9.3
v -0.7 0 9.3
v -0.7 0.2 9.3
v -0.7 2.7 9.3
v -0.7 2.9 9.3
v -0.4 0 9.3
v -0.4 0.2 9.3
v -0.4 2.7 9.3
v -0.4 2.9 9.3
v -0.3 0 9.3
v -0.3 0.2 9.3
v -0.3 2.7 9.3
v -0.3 2.9 9.3
v 2.98023e-008 0 9.3
v 2.98023e-008 0.2 9.3
v 2.98023e-008 2.7 9.3
v 2.98023e-008 2.9 9.3
v 0.1 0 9.3
v 0.1 0.2 9.3
v 0.1 2.7 9.3
v 0.1 2.9 9.3
v 0.4 0 9.3
v 0.4 0.2 9.3
v 0.4 2.7 9.3
v 0.4 2.9 9.3
v 0.5 0 9.3
v 0.5 0.2 9.3
v 0.5 2.7 9.3
v 0.5 2.9 9.3
v 0.8 0 9.3
v 0.8 0.2 9.3
v 0.8 2.7 9.3
v 0.8 2.9 9.3
v 0.9 0 9.3
v 0.9 0.2 9.3
v 0.9 2.7 9.3
v 0.9 2.9 9.3
v 1.2 0 9.3
v 1.2 0.2 9.3
v 1.2 2.7 9.3
v 1.2 2.9 9.3
v 1.3 0 9.3
v 1.3 0.2 9.3
v 1.3 2.7 9.3
v 1.3 2.9 9.3
v 1.6 0 9.3
v 1.6 0.2 9.3
v 1.6 2.7 9.3
v 1.6 2.9 9.3
v 1.7 0 9.3
v 1.7 0.2 9.3
v 1.7 2.7 9.3
v 1.7 2.9 9.3
v 1.8 0.3 9.3
v 1.8 0.6 9.3
v 1.8 0.7 9.3
v 1.8 1 9.3
v 1.8 1.1 9.3
v 1.8 1.4 9.3
v 1.8 1.5 9.3
v 1.8 1.8 9.3
v 1.8 1.9 9.3
v 1.8 2.2 9.3
v 1.8 2.3 9.3
v 1.8 2.6 9.3
v 2 0 9.3
v 2 0.2 9.3
v 2 0.3 9.3
v 2 0.6 9.3
v 2 0.7 9.3
v 2 1 9.3
v 2 1.1 9.3
v 2 1.4 9.3
v 2 1.5 9.3
v 2 1.8 9.3
v 2 1.9 9.3
v 2 2.2 9.3
v 2 2.3 9.3
v 2 2.6 9.3
v 2 2.7 9.3
v 2 2.9 9.3
v -1.9 1.4 8.7
v -1.9 1.5 8.7
v -1.9 1.8 8.7
v -1.9 1.9 8.7
v -1.8 1.4 8.7
v -1.8 1.5 8.7
v -1.8 1.8 8.7
v -1.8 1.9 8.7
v -1.9 0 8.6
v -1.9 0.2 8.6
v -1.9 0.3 8.6
v -1.9 0.6 8.6
v -1.9 0.7 8.6
v -1.9 1 8.6
v -1.9 1.1 8.6
v -1.9 1.4 8.6
v -1.9 1.5 8.6
v -1.9 1.8 8.6
v -1.9 1.9 8.6
v -1.9 2.2 8.6
v -1.9 2.3 8.6
v -1.9 2.6 8.6
v -1.9 2.7 8.6
v -1.9 2.9 8.6
v -1.8 1.4 8.6
v -1.8 1.5 8.6
v -1.8 1.8 8.6
v -1.8 1.9 8.6
v -1.7 0.3 8.6
v -1.7 0.6 8.6
v -1.7 0.7 8.6
v -1.7 1 8.6
v -1.7 1.1 8.6
v -1.7 1.9 8.6
v -1.7 2.2 8.6
v -1.7 2.3 8.6
v -1.7 2.6 8.6
v -1.6 0 8.6
v -1.6 0.2 8.6
v -1.6 2.7 8.6
v -1.6 2.9 8.6
v -1.5 0 8.6
v -1.5 0.2 8.6
v -1.5 2.7 8.6
v -1.5 2.9 8.6
v -1.2 0 8.6
v -1.2 0.2 8.6
v -1.2 2.7 8.6
v -1.2 2.9 8.6
v -1.1 0 8.6
v -1.1 0.2 8.6
v -1.1 2.7 8.6
v -1.1 2.9 8.6
v -0.8 0 8.6
v -0.8 0.2 8.6
v -0.8 2.7 8.6
v -0.8 2.9 8.6
v -0.7 0 8.6
v -0.7 0.2 8.6
v -0.7 2.7 8.6
v -0.7 2.9 8.6
v -0.4 0 8.6
v -0.4 0.2 8.6
v -0.4 2.7 8.6
v -0.4 2.9 8.6
v -0.3 0 8.6
v -0.3 0.2 8.6
v -0.3 2.7 8.6
v -0.3 2.9 8.6
v 2.98023e-008 0 8.6
v 2.98023e-008 0.2 8.6
v 2.98023e-008 2.7 8.6
v 2.98023e-008 2.9 8.6
v 0.1 0 8.6
v 0.1 0.2 8.6
v 0.1 2.7 8.6
v 0.1 2.9 8.6
v 0.4 0 8.6
v 0.4 0.2 8.6
v 0.4 2.7 8.6
v 0.4 2.9 8.6
v 0.5 0 8.6
v 0.5 0.2 8.6
v 0.5 2.7 8.6
v 0.5 2.9 8.6
v 0.8 0 8.6
v 0.8 0.2 8.6
v 0.8 2.7 8.6
v 0.8 2.9 8.6
v 0.9 0 8.6
v 0.9 0.2 8.6
v 0.9 2.7 8.6
v 0.9 2.9 8.6
v 1.2 0 8.6
v 1.2 0.2 8.6
v 1.2 2.7 8.6
v 1.2 2.9 8.6
v 1.3 0 8.6
v 1.3 0.2 8.6
v 1.3 2.7 8.6
v 1.3 2.9 8.6
v 1.6 0 8.6
v 1.6 0.2 8.6
v 1.6 2.7 8.6
v 1.6 2.9 8.6
v 1.7 0 8.6
v 1.7 0.2 8.6
v 1.7 2.7 8.6
v 1.7 2.9 8.6
v 1.8 0.3 8.6
v 1.8 0.6 8.6
v 1.8 0.7 8.6
v 1.8 1 8.6
v 1.8 1.1 8.6
v 1.8 1.4 8.6
v 1.8 1.5 8.6
v 1.8 1.8 8.6
v 1.8 1.9 8.6
v 1.8 2.2 8.6
v 1.8 2.3 8.6
v 1.8 2.6 8.6
v 2 0 8.6
v 2 0.2 8.6
v 2 0.3 8.6
v 2 0.6 8.6
v 2 0.7 8.6
v 2 1 8.6
v 2 1.1 8.6
v 2 1.4 8.6
v 2 1.5 8.6
v 2 1.8 8.6
v 2 1.9 8.6
v 2 2.2 8.6
v 2 2.3 8.6
v 2 2.6 8.6
v 2 2.7 8.6
v 2 2.9 8.6
v -1.9 0 9.3
v -1.6 0 9.3
v -1.5 0 9.3
v -1.2 0 9.3
v -1.1 0 9.3
v -0.8 0 9.3
v -0.7 0 9.3
v -0.4 0 9.3
v -0.3 0 9.3
v 2.98023e-008 0 9.3
v 0.1 0 9.3
v 0.4 0 9.3
v 0.5 0 9.3
v 0.8 0 9.3
v 0.9 0 9.3
v 1.2 0 9.3
v 1.3 0 9.3
v 1.6 0 9.3
v 1.7 0 9.3
v 2 0 9.3
v -1.6 0 9.2
v -1.5 0 9.2
v -1.2 0 9.2
v -1.1 0 9.2
v -0.8 0 9.2
v -0.7 0 9.2
v -0.4 0 9.2
v -0.3 0 9.2
v 2.98023e-008 0 9.2
v 0.1 0 9.2
v 0.4 0 9.2
v 0.5 0 9.2
v 0.8 0 9.2
v 0.9 0 9.2
v 1.2 0 9.2
v 1.3 0 9.2
v 1.6 0 9.2
v 1.7 0 9.2
v -1.6 0 8.7
v -1.5 0 8.7
v -1.2 0 8.7
v -1.1 0 8.7
v -0.8 0 8.7
v -0.7 0 8.7
v -0.4 0 8.7
v -0.3 0 8.7
v 2.98023e-008 0 8.7
v 0.1 0 8.7
v 0.4 0 8.7
v 0.5 0 8.7
v 0.8 0 8.7
v 0.9 0 8.7
v 1.2 0 8.7
v 1.3 0 8.7
v 1.6 0 8.7
v 1.7 0 8.7
v -1.9 0 8.6
v -1.6 0 8.6
v -1.5 0 8.6
v -1.2 0 8.6
v -1.1 0 8.6
v -0.8 0 8.6
v -0.7 0 8.6
v -0.4 0 8.6
v -0.3 0 8.6
v 2.98023e-008 0 8.6
v 0.1 0 8.6
v 0.4 0 8.6
v 0.5 0 8.6
v 0.8 0 8.6
v 0.9 0 8.6
v 1.2 0 8.6
v 1.3 0 8.6
v 1.6 0 8.6
v 1.7 0 8.6
v 2 0 8.6
v -1.9 1.5 8.7
v -1.8 1.5 8.7
v -1.9 1.5 8.6
v -1.8 1.5 8.6
v -1.9 1.9 8.7
v -1.8 1.9 8.7
v -1.9 1.9 8.6
v -1.8 1.9 8.6
v -1.9 1.4 8.7
v -1.8 1.4 8.7
v -1.9 1.4 8.6
v -1.8 1.4 8.6
v -1.9 1.8 8.7
v -1.8 1.8 8.7
v -1.9 1.8 8.6
v -1.8 1.8 8.6
v -1.9 2.9 9.3
v -1.6 2.9 9.3
v -1.5 2.9 9.3
v -1.2 2.9 9.3
v -1.1 2.9 9.3
v -0.8 2.9 9.3
v -0.7 2.9 9.3
v -0.4 2.9 9.3
v -0.3 2.9 9.3
v 2.98023e-008 2.9 9.3
v 0.1 2.9 9.3
v 0.4 2.9 9.3
v 0.5 2.9 9.3
v 0.8 2.9 9.3
v 0.9 2.9 9.3
v 1.2 2.9 9.3
v 1.3 2.9 9.3
v 1.6 2.9 9.3
v 1.7 2.9 9.3
v 2 2.9 9.3
v -1.6 2.9 9.2
v -1.5 2.9 9.2
v -1.2 2.9 9.2
v -1.1 2.9 9.2
v -0.8 2.9 9.2
v -0.7 2.9 9.2
v -0.4 2.9 9.2
v -0.3 2.9 9.2
v 2.98023e-008 2.9 9.2
v 0.1 2.9 9.2
v 0.4 2.9 9.2
v 0.5 2.9 9.2
v 0.8 2.9 9.2
v 0.9 2.9 9.2
v 1.2 2.9 9.2
v 1.3 2.9 9.2
v 1.6 2.9 9.2
v 1.7 2.9 9.2
v -1.6 2.9 8.7
v -1.5 2.9 8.7
v -1.2 2.9 8.7
v -1.1 2.9 8.7
v -0.8 2.9 8.7
v -0.7 2.9 8.7
v -0.4 2.9 8.7
v -0.3 2.9 8.7
v 2.98023e-008 2.9 8.7
v 0.1 2.9 8.7
v 0.4 2.9 8.7
v 0.5 2.9 8.7
v 0.8 2.9 8.7
v 0.9 2.9 8.7
v 1.2 2.9 8.7
v 1.3 2.9 8.7
v 1.6 2.9 8.7
v 1.7 2.9 8.7
v -1.9 2.9 8.6
v -1.6 2.9 8.6
v -1.5 2.9 8.6
v -1.2 2.9 8.6
v -1.1 2.9 8.6
v -0.8 2.9 8.6
v -0.7 2.9 8.6
v -0.4 2.9 8.6
v -0.3 2.9 8.6
v 2.98023e-008 2.9 8.6
v 0.1 2.9 8.6
v 0.4 2.9 8.6
v 0.5 2.9 8.6
v 0.8 2.9 8.6
v 0.9 2.9 8.6
v 1.2 2.9 8.6
v 1.3 2.9 8.6
v 1.6 2.9 8.6
v 1.7 2.9 8.6
v 2 2.9 8.6

# faces
f 3/4/1 2/4/1 1/4/1
f 4/4/1 2/4/1 3/4/1
f 5/4/1 2/4/1 4/4/1
f 6/4/1 2/4/1 5/4/1
f 7/7/1 4/7/1 3/7/1
f 8/3/1 5/3/1 4/3/1
f 8/7/1 4/7/1 7/7/1
f 9/7/1 6/7/1 5/7/1
f 9/3/1 5/3/1 8/3/1
f 10/7/1 6/7/1 9/7/1
f 11/4/1 8/4/1 7/4/1
f 11/4/1 9/4/1 8/4/1
f 11/4/1 10/4/1 9/4/1
f 12/4/1 10/4/1 11/4/1
f 13/4/1 10/4/1 12/4/1
f 14/4/1 10/4/1 13/4/1
f 15/7/1 12/7/1 11/7/1
f 16/3/1 13/3/1 12/3/1
f 16/7/1 12/7/1 15/7/1
f 17/7/1 14/7/1 13/7/1
f 17/3/1 13/3/1 16/3/1
f 18/7/1 14/7/1 17/7/1
f 19/6/1 16/6/1 15/6/1
f 19/6/1 17/6/1 16/6/1
f 19/6/1 18/6/1 17/6/1
f 20/6/1 18/6/1 19/6/1
f 21/6/1 18/6/1 20/6/1
f 22/6/1 18/6/1 21/6/1
f 23/7/1 20/7/1 19/7/1
f 24/3/1 21/3/1 20/3/1
f 24/7/1 20/7/1 23/7/1
f 25/7/1 22/7/1 21/7/1
f 25/3/1 21/3/1 24/3/1
f 26/7/1 22/7/1 25/7/1
f 27/4/1 24/4/1 23/4/1
f 27/4/1 25/4/1 24/4/1
f 27/4/1 26/4/1 25/4/1
f 28/4/1 26/4/1 27/4/1
f 29/4/1 26/4/1 28/4/1
f 30/4/1 26/4/1 29/4/1
f 31/7/1 28/7/1 27/7/1
f 32/3/1 29/3/1 28/3/1
f 32/7/1 28/7/1 31/7/1
f 33/3/1 29/3/1 32/3/1
f 35/4/1 32/4/1 31/4/1
f 35/4/1 34/4/1 33/4/1
f 35/4/1 33/4/1 32/4/1
f 36/4/1 34/4/1 35/4/1
f 37/4/1 34/4/1 36/4/1
f 38/4/1 34/4/1 37/4/1
f 39/7/1 36/7/1 35/7/1
f 40/3/1 37/3/1 36/3/1
f 40/7/1 36/7/1 39/7/1
f 41/3/1 37/3/1 40/3/1
f 43/6/1 40/6/1 39/6/1
f 43/6/1 42/6/1 41/6/1
f 43/6/1 41/6/1 40/6/1
f 44/6/1 42/6/1 43/6/1
f 45/6/1 42/6/1 44/6/1
f 46/6/1 42/6/1 45/6/1
f 47/7/1 44/7/1 43/7/1
f 48/3/1 45/3/1 44/3/1
f 48/7/1 44/7/1 47/7/1
f 49/7/1 46/7/1 45/7/1
f 49/3/1 45/3/1 48/3/1
f 50/7/1 46/7/1 49/7/1
f 51/4/1 48/4/1 47/4/1
f 51/4/1 49/4/1 48/4/1
f 51/4/1 50/4/1 49/4/1
f 52/4/1 50/4/1 51/4/1
f 53/4/1 50/4/1 52/4/1
f 54/4/1 50/4/1 53/4/1
f 55/7/1 52/7/1 51/7/1
f 56/3/1 53/3/1 52/3/1
f 56/7/1 52/7/1 55/7/1
f 57/7/1 54/7/1 53/7/1
f 57/3/1 53/3/1 56/3/1
f 58/7/1 54/7/1 57/7/1
f 59/4/1 56/4/1 55/4/1
f 59/4/1 57/4/1 56/4/1
f 59/4/1 58/4/1 57/4/1
f 60/4/1 58/4/1 59/4/1
f 63/4/1 62/4/1 61/4/1
f 64/4/1 62/4/1 63/4/1
f 67/4/1 66/4/1 65/4/1
f 68/4/1 66/4/1 67/4/1
f 69/4/2 70/4/2 71/4/2
f 71/4/2 70/4/2 72/4/2
f 72/4/2 70/4/2 73/4/2
f 73/4/2 70/4/2 74/4/2
f 71/7/2 72/7/2 75/7/2
f 72/3/2 73/3/2 76/3/2
f 75/7/2 72/7/2 76/7/2
f 73/7/2 74/7/2 77/7/2
f 76/3/2 73/3/2 77/3/2
f 77/7/2 74/7/2 78/7/2
f 75/6/2 76/6/2 79/6/2
f 76/6/2 77/6/2 79/6/2
f 77/6/2 78/6/2 79/6/2
f 79/6/2 78/6/2 80/6/2
f 80/6/2 78/6/2 81/6/2
f 81/6/2 78/6/2 82/6/2
f 79/7/2 80/7/2 83/7/2
f 80/3/2 81/3/2 84/3/2
f 83/7/2 80/7/2 84/7/2
f 81/7/2 82/7/2 85/7/2
f 84/3/2 81/3/2 85/3/2
f 85/7/2 82/7/2 86/7/2
f 83/5/2 84/5/2 87/5/2
f 84/5/2 85/5/2 87/5/2
f 85/5/2 86/5/2 87/5/2
f 87/5/2 86/5/2 88/5/2
f 88/5/2 86/5/2 89/5/2
f 89/5/2 86/5/2 90/5/2
f 87/7/2 88/7/2 91/7/2
f 88/3/2 89/3/2 92/3/2
f 91/7/2 88/7/2 92/7/2
f 89/7/2 90/7/2 93/7/2
f 92/3/2 89/3/2 93/3/2
f 93/7/2 90/7/2 94/7/2
f 91/4/2 92/4/2 95/4/2
f 92/4/2 93/4/2 95/4/2
f 93/4/2 94/4/2 95/4/2
f 95/4/2 94/4/2 96/4/2
f 96/4/2 94/4/2 97/4/2
f 97/4/2 94/4/2 98/4/2
f 95/7/2 96/7/2 99/7/2
f 96/3/2 97/3/2 100/3/2
f 99/7/2 96/7/2 100/7/2
f 97/7/2 98/7/2 101/7/2
f 100/3/2 97/3/2 101/3/2
f 101/7/2 98/7/2 102/7/2
f 99/4/2 100/4/2 103/4/2
f 100/4/2 101/4/2 103/4/2
f 101/4/2 102/4/2 103/4/2
f 103/4/2 102/4/2 104/4/2
f 104/4/2 102/4/2 105/4/2
f 105/4/2 102/4/2 106/4/2
f 103/7/2 104/7/2 107/7/2
f 104/3/2 105/3/2 108/3/2
f 107/7/2 104/7/2 108/7/2
f 105/7/2 106/7/2 109/7/2
f 108/3/2 105/3/2 109/3/2
f 109/7/2 106/7/2 110/7/2
f 107/5/2 108/5/2 111/5/2
f 108/5/2 109/5/2 111/5/2
f 109/5/2 110/5/2 111/5/2
f 111/5/2 110/5/2 112/5/2
f 112/5/2 110/5/2 113/5/2
f 113/5/2 110/5/2 114/5/2
f 111/7/2 112/7/2 115/7/2
f 112/3/2 113/3/2 116/3/2
f 115/7/2 112/7/2 116/7/2
f 113/7/2 114/7/2 117/7/2
f 116/3/2 113/3/2 117/3/2
f 117/7/2 114/7/2 118/7/2
f 115/4/2 116/4/2 119/4/2
f 116/4/2 117/4/2 119/4/2
f 117/4/2 118/4/2 119/4/2
f 119/4/2 118/4/2 120/4/2
f 120/4/2 118/4/2 121/4/2
f 121/4/2 118/4/2 122/4/2
f 119/7/2 120/7/2 123/7/2
f 120/3/2 121/3/2 124/3/2
f 123/7/2 120/7/2 124/7/2
f 121/7/2 122/7/2 125/7/2
f 124/3/2 121/3/2 125/3/2
f 125/7/2 122/7/2 126/7/2
f 123/4/2 124/4/2 127/4/2
f 124/4/2 125/4/2 127/4/2
f 125/4/2 126/4/2 127/4/2
f 127/4/2 126/4/2 128/4/2
f 145/7/3 131/7/3 130/7/3
f 145/4/3 132/4/3 131/4/3
f 146/7/3 133/7/3 132/7/3
f 146/4/3 132/4/3 145/4/3
f 147/6/3 134/6/3 133/6/3
f 147/7/3 133/7/3 146/7/3
f 148/7/3 135/7/3 134/7/3
f 148/6/3 134/6/3 147/6/3
f 149/4/3 136/4/3 135/4/3
f 149/7/3 135/7/3 148/7/3
f 150/7/3 137/7/3 136/7/3
f 150/4/3 136/4/3 149/4/3
f 151/4/3 138/4/3 137/4/3
f 151/7/3 137/7/3 150/7/3
f 152/7/3 139/7/3 138/7/3
f 152/4/3 138/4/3 151/4/3
f 153/6/3 140/6/3 139/6/3
f 153/7/3 139/7/3 152/7/3
f 154/7/3 141/7/3 140/7/3
f 154/6/3 140/6/3 153/6/3
f 155/4/3 142/4/3 141/4/3
f 155/7/3 141/7/3 154/7/3
f 156/7/3 143/7/3 142/7/3
f 156/4/3 142/4/3 155/4/3
f 157/4/3 130/4/3 129/4/3
f 158/7/3 155/7/3 154/7/3
f 158/4/3 130/4/3 157/4/3
f 158/7/3 145/7/3 130/7/3
f 158/7/3 156/7/3 155/7/3
f 158/7/3 154/7/3 153/7/3
f 158/7/3 153/7/3 152/7/3
f 158/7/3 152/7/3 151/7/3
f 158/7/3 151/7/3 150/7/3
f 158/7/3 150/7/3 149/7/3
f 158/7/3 149/7/3 148/7/3
f 158/7/3 148/7/3 147/7/3
f 158/7/3 147/7/3 146/7/3
f 158/7/3 146/7/3 145/7/3
f 159/7/3 143/7/3 156/7/3
f 159/7/3 156/7/3 158/7/3
f 159/4/3 144/4/3 143/4/3
f 160/4/3 144/4/3 159/4/3
f 161/7/3 158/7/3 157/7/3
f 161/7/3 159/7/3 158/7/3
f 161/7/3 160/7/3 159/7/3
f 162/7/3 160/7/3 161/7/3
f 163/7/3 160/7/3 162/7/3
f 164/7/3 160/7/3 163/7/3
f 165/5/3 162/5/3 161/5/3
f 166/7/3 163/7/3 162/7/3
f 166/5/3 162/5/3 165/5/3
f 167/5/3 164/5/3 163/5/3
f 167/7/3 163/7/3 166/7/3
f 168/5/3 164/5/3 167/5/3
f 169/7/3 166/7/3 165/7/3
f 169/7/3 167/7/3 166/7/3
f 169/7/3 168/7/3 167/7/3
f 170/7/3 168/7/3 169/7/3
f 171/7/3 168/7/3 170/7/3
f 172/7/3 168/7/3 171/7/3
f 173/4/3 170/4/3 169/4/3
f 174/7/3 171/7/3 170/7/3
f 174/4/3 170/4/3 173/4/3
f 175/6/3 172/6/3 171/6/3
f 175/7/3 171/7/3 174/7/3
f 176/6/3 172/6/3 175/6/3
f 177/7/3 174/7/3 173/7/3
f 177/7/3 175/7/3 174/7/3
f 177/7/3 176/7/3 175/7/3
f 178/7/3 176/7/3 177/7/3
f 179/7/3 176/7/3 178/7/3
f 180/7/3 176/7/3 179/7/3
f 181/4/3 178/4/3 177/4/3
f 182/7/3 179/7/3 178/7/3
f 182/4/3 178/4/3 181/4/3
f 183/4/3 180/4/3 179/4/3
f 183/7/3 179/7/3 182/7/3
f 184/4/3 180/4/3 183/4/3
f 185/7/3 182/7/3 181/7/3
f 185/7/3 183/7/3 182/7/3
f 185/7/3 184/7/3 183/7/3
f 186/7/3 184/7/3 185/7/3
f 187/7/3 184/7/3 186/7/3
f 188/7/3 184/7/3 187/7/3
f 189/4/3 186/4/3 185/4/3
f 190/7/3 187/7/3 186/7/3
f 190/4/3 186/4/3 189/4/3
f 191/6/3 188/6/3 187/6/3
f 191/7/3 187/7/3 190/7/3
f 192/6/3 188/6/3 191/6/3
f 193/7/3 190/7/3 189/7/3
f 193/7/3 191/7/3 190/7/3
f 193/7/3 192/7/3 191/7/3
f 194/7/3 192/7/3 193/7/3
f 195/7/3 192/7/3 194/7/3
f 196/7/3 192/7/3 195/7/3
f 197/4/3 194/4/3 193/4/3
f 198/7/3 195/7/3 194/7/3
f 198/4/3 194/4/3 197/4/3
f 199/4/3 196/4/3 195/4/3
f 199/7/3 195/7/3 198/7/3
f 200/4/3 196/4/3 199/4/3
f 201/7/3 198/7/3 197/7/3
f 201/7/3 199/7/3 198/7/3
f 201/7/3 200/7/3 199/7/3
f 202/7/3 200/7/3 201/7/3
f 203/7/3 200/7/3 202/7/3
f 204/7/3 200/7/3 203/7/3
f 205/5/3 202/5/3 201/5/3
f 206/7/3 203/7/3 202/7/3
f 206/5/3 202/5/3 205/5/3
f 207/4/3 204/4/3 203/4/3
f 207/7/3 203/7/3 206/7/3
f 208/4/3 204/4/3 207/4/3
f 209/7/3 206/7/3 205/7/3
f 209/7/3 207/7/3 206/7/3
f 209/7/3 208/7/3 207/7/3
f 210/7/3 208/7/3 209/7/3
f 211/7/3 208/7/3 210/7/3
f 212/7/3 208/7/3 211/7/3
f 213/4/3 210/4/3 209/4/3
f 214/7/3 211/7/3 210/7/3
f 214/4/3 210/4/3 213/4/3
f 215/5/3 212/5/3 211/5/3
f 215/7/3 211/7/3 214/7/3
f 216/5/3 212/5/3 215/5/3
f 217/7/3 214/7/3 213/7/3
f 217/7/3 215/7/3 214/7/3
f 217/7/3 216/7/3 215/7/3
f 218/7/3 216/7/3 217/7/3
f 219/7/3 216/7/3 218/7/3
f 220/7/3 216/7/3 219/7/3
f 221/4/3 218/4/3 217/4/3
f 222/7/3 219/7/3 218/7/3
f 222/4/3 218/4/3 221/4/3
f 223/4/3 220/4/3 219/4/3
f 223/7/3 219/7/3 222/7/3
f 224/4/3 220/4/3 223/4/3
f 225/7/3 222/7/3 221/7/3
f 225/7/3 223/7/3 222/7/3
f 225/7/3 224/7/3 223/7/3
f 226/7/3 224/7/3 225/7/3
f 227/7/3 224/7/3 226/7/3
f 228/7/3 224/7/3 227/7/3
f 229/7/3 227/7/3 226/7/3
f 230/7/3 227/7/3 229/7/3
f 231/7/3 227/7/3 230/7/3
f 232/7/3 227/7/3 231/7/3
f 233/7/3 227/7/3 232/7/3
f 234/7/3 227/7/3 233/7/3
f 235/7/3 227/7/3 234/7/3
f 236/7/3 227/7/3 235/7/3
f 237/7/3 227/7/3 236/7/3
f 238/7/3 227/7/3 237/7/3
f 239/7/3 227/7/3 238/7/3
f 240/7/3 227/7/3 239/7/3
f 241/4/3 226/4/3 225/4/3
f 242/7/3 229/7/3 226/7/3
f 242/4/3 226/4/3 241/4/3
f 243/6/3 230/6/3 229/6/3
f 243/7/3 229/7/3 242/7/3
f 244/7/3 231/7/3 230/7/3
f 244/6/3 230/6/3 243/6/3
f 245/5/3 232/5/3 231/5/3
f 245/7/3 231/7/3 244/7/3
f 246/7/3 233/7/3 232/7/3
f 246/5/3 232/5/3 245/5/3
f 247/4/3 234/4/3 233/4/3
f 247/7/3 233/7/3 246/7/3
f 248/7/3 235/7/3 234/7/3
f 248/4/3 234/4/3 247/4/3
f 249/4/3 236/4/3 235/4/3
f 249/7/3 235/7/3 248/7/3
f 250/7/3 237/7/3 236/7/3
f 250/4/3 236/4/3 249/4/3
f 251/5/3 238/5/3 237/5/3
f 251/7/3 237/7/3 250/7/3
f 252/7/3 239/7/3 238/7/3
f 252/5/3 238/5/3 251/5/3
f 253/4/3 240/4/3 239/4/3
f 253/7/3 239/7/3 252/7/3
f 254/7/3 227/7/3 240/7/3
f 254/4/3 240/4/3 253/4/3
f 255/4/3 228/4/3 227/4/3
f 255/7/3 227/7/3 254/7/3
f 256/4/3 228/4/3 255/4/3
f 257/3/4 258/3/4 261/3/4
f 261/3/4 258/3/4 262/3/4
f 259/3/4 260/3/4 263/3/4
f 263/3/4 260/3/4 264/3/4
f 271/4/4 272/4/4 281/4/4
f 273/4/4 274/4/4 282/4/4
f 282/4/4 274/4/4 283/4/4
f 275/6/4 276/6/4 284/6/4
f 266/7/4 267/7/4 285/7/4
f 267/4/4 268/4/4 285/4/4
f 268/7/4 269/7/4 286/7/4
f 285/4/4 268/4/4 286/4/4
f 269/6/4 270/6/4 287/6/4
f 286/7/4 269/7/4 287/7/4
f 270/7/4 271/7/4 288/7/4
f 287/6/4 270/6/4 288/6/4
f 283/4/4 284/4/4 289/4/4
f 288/7/4 271/7/4 289/7/4
f 271/4/4 281/4/4 289/4/4
f 282/4/4 283/4/4 289/4/4
f 281/4/4 282/4/4 289/4/4
f 284/6/4 276/6/4 290/6/4
f 289/4/4 284/4/4 290/4/4
f 276/7/4 277/7/4 291/7/4
f 290/6/4 276/6/4 291/6/4
f 277/4/4 278/4/4 292/4/4
f 291/7/4 277/7/4 292/7/4
f 278/7/4 279/7/4 293/7/4
f 292/4/4 278/4/4 293/4/4
f 265/4/4 266/4/4 294/4/4
f 287/7/4 288/7/4 295/7/4
f 294/4/4 266/4/4 295/4/4
f 288/7/4 289/7/4 295/7/4
f 292/7/4 293/7/4 295/7/4
f 291/7/4 292/7/4 295/7/4
f 290/7/4 291/7/4 295/7/4
f 289/7/4 290/7/4 295/7/4
f 266/7/4 285/7/4 295/7/4
f 285/7/4 286/7/4 295/7/4
f 286/7/4 287/7/4 295/7/4
f 293/7/4 279/7/4 296/7/4
f 295/7/4 293/7/4 296/7/4
f 279/4/4 280/4/4 296/4/4
f 296/4/4 280/4/4 297/4/4
f 294/7/4 295/7/4 298/7/4
f 295/7/4 296/7/4 298/7/4
f 296/7/4 297/7/4 298/7/4
f 298/7/4 297/7/4 299/7/4
f 299/7/4 297/7/4 300/7/4
f 300/7/4 297/7/4 301/7/4
f 298/5/4 299/5/4 302/5/4
f 299/7/4 300/7/4 303/7/4
f 302/5/4 299/5/4 303/5/4
f 300/5/4 301/5/4 304/5/4
f 303/7/4 300/7/4 304/7/4
f 304/5/4 301/5/4 305/5/4
f 302/7/4 303/7/4 306/7/4
f 303/7/4 304/7/4 306/7/4
f 304/7/4 305/7/4 306/7/4
f 306/7/4 305/7/4 307/7/4
f 307/7/4 305/7/4 308/7/4
f 308/7/4 305/7/4 309/7/4
f 306/4/4 307/4/4 310/4/4
f 307/7/4 308/7/4 311/7/4
f 310/4/4 307/4/4 311/4/4
f 308/6/4 309/6/4 312/6/4
f 311/7/4 308/7/4 312/7/4
f 312/6/4 309/6/4 313/6/4
f 310/7/4 311/7/4 314/7/4
f 311/7/4 312/7/4 314/7/4
f 312/7/4 313/7/4 314/7/4
f 314/7/4 313/7/4 315/7/4
f 315/7/4 313/7/4 316/7/4
f 316/7/4 313/7/4 317/7/4
f 314/4/4 315/4/4 318/4/4
f 315/7/4 316/7/4 319/7/4
f 318/4/4 315/4/4 319/4/4
f 316/4/4 317/4/4 320/4/4
f 319/7/4 316/7/4 320/7/4
f 320/4/4 317/4/4 321/4/4
f 318/7/4 319/7/4 322/7/4
f 319/7/4 320/7/4 322/7/4
f 320/7/4 321/7/4 322/7/4
f 322/7/4 321/7/4 323/7/4
f 323/7/4 321/7/4 324/7/4
f 324/7/4 321/7/4 325/7/4
f 322/4/4 323/4/4 326/4/4
f 323/7/4 324/7/4 327/7/4
f 326/4/4 323/4/4 327/4/4
f 324/6/4 325/6/4 328/6/4
f 327/7/4 324/7/4 328/7/4
f 328/6/4 325/6/4 329/6/4
f 326/7/4 327/7/4 330/7/4
f 327/7/4 328/7/4 330/7/4
f 328/7/4 329/7/4 330/7/4
f 330/7/4 329/7/4 331/7/4
f 331/7/4 329/7/4 332/7/4
f 332/7/4 329/7/4 333/7/4
f 330/4/4 331/4/4 334/4/4
f 331/7/4 332/7/4 335/7/4
f 334/4/4 331/4/4 335/4/4
f 332/4/4 333/4/4 336/4/4
f 335/7/4 332/7/4 336/7/4
f 336/4/4 333/4/4 337/4/4
f 334/7/4 335/7/4 338/7/4
f 335/7/4 336/7/4 338/7/4
f 336/7/4 337/7/4 338/7/4
f 338/7/4 337/7/4 339/7/4
f 339/7/4 337/7/4 340/7/4
f 340/7/4 337/7/4 341/7/4
f 338/5/4 339/5/4 342/5/4
f 339/7/4 340/7/4 343/7/4
f 342/5/4 339/5/4 343/5/4
f 340/4/4 341/4/4 344/4/4
f 343/7/4 340/7/4 344/7/4
f 344/4/4 341/4/4 345/4/4
f 342/7/4 343/7/4 346/7/4
f 343/7/4 344/7/4 346/7/4
f 344/7/4 345/7/4 346/7/4
f 346/7/4 345/7/4 347/7/4
f 347/7/4 345/7/4 348/7/4
f 348/7/4 345/7/4 349/7/4
f 346/4/4 347/4/4 350/4/4
f 347/7/4 348/7/4 351/7/4
f 350/4/4 347/4/4 351/4/4
f 348/5/4 349/5/4 352/5/4
f 351/7/4 348/7/4 352/7/4
f 352/5/4 349/5/4 353/5/4
f 350/7/4 351/7/4 354/7/4
f 351/7/4 352/7/4 354/7/4
f 352/7/4 353/7/4 354/7/4
f 354/7/4 353/7/4 355/7/4
f 355/7/4 353/7/4 356/7/4
f 356/7/4 353/7/4 357/7/4
f 354/4/4 355/4/4 358/4/4
f 355/7/4 356/7/4 359/7/4
f 358/4/4 355/4/4 359/4/4
f 356/4/4 357/4/4 360/4/4
f 359/7/4 356/7/4 360/7/4
f 360/4/4 357/4/4 361/4/4
f 358/7/4 359/7/4 362/7/4
f 359/7/4 360/7/4 362/7/4
f 360/7/4 361/7/4 362/7/4
f 362/7/4 361/7/4 363/7/4
f 363/7/4 361/7/4 364/7/4
f 364/7/4 361/7/4 365/7/4
f 363/7/4 364/7/4 366/7/4
f 366/7/4 364/7/4 367/7/4
f 367/7/4 364/7/4 368/7/4
f 368/7/4 364/7/4 369/7/4
f 369/7/4 364/7/4 370/7/4
f 370/7/4 364/7/4 371/7/4
f 371/7/4 364/7/4 372/7/4
f 372/7/4 364/7/4 373/7/4
f 373/7/4 364/7/4 374/7/4
f 374/7/4 364/7/4 375/7/4
f 375/7/4 364/7/4 376/7/4
f 376/7/4 364/7/4 377/7/4
f 362/4/4 363/4/4 378/4/4
f 363/7/4 366/7/4 379/7/4
f 378/4/4 363/4/4 379/4/4
f 366/6/4 367/6/4 380/6/4
f 379/7/4 366/7/4 380/7/4
f 367/7/4 368/7/4 381/7/4
f 380/6/4 367/6/4 381/6/4
f 368/5/4 369/5/4 382/5/4
f 381/7/4 368/7/4 382/7/4
f 369/7/4 370/7/4 383/7/4
f 382/5/4 369/5/4 383/5/4
f 370/4/4 371/4/4 384/4/4
f 383/7/4 370/7/4 384/7/4
f 371/7/4 372/7/4 385/7/4
f 384/4/4 371/4/4 385/4/4
f 372/4/4 373/4/4 386/4/4
f 385/7/4 372/7/4 386/7/4
f 373/7/4 374/7/4 387/7/4
f 386/4/4 373/4/4 387/4/4
f 374/5/4 375/5/4 388/5/4
f 387/7/4 374/7/4 388/7/4
f 375/7/4 376/7/4 389/7/4
f 388/5/4 375/5/4 389/5/4
f 376/4/4 377/4/4 390/4/4
f 389/7/4 376/7/4 390/7/4
f 377/7/4 364/7/4 391/7/4
f 390/4/4 377/4/4 391/4/4
f 364/4/4 365/4/4 392/4/4
f 391/7/4 364/7/4 392/7/4
f 392/4/4 365/4/4 393/4/4
f 414/4/5 395/4/5 394/4/5
f 414/7/5 396/7/5 395/7/5
f 415/5/5 397/5/5 396/5/5
f 415/7/5 396/7/5 414/7/5
f 416/7/5 398/7/5 397/7/5
f 416/5/5 397/5/5 415/5/5
f 417/4/5 399/4/5 398/4/5
f 417/7/5 398/7/5 416/7/5
f 418/7/5 400/7/5 399/7/5
f 418/4/5 399/4/5 417/4/5
f 419/4/5 401/4/5 400/4/5
f 419/7/5 400/7/5 418/7/5
f 420/7/5 402/7/5 401/7/5
f 420/4/5 401/4/5 419/4/5
f 421/4/5 403/4/5 402/4/5
f 421/7/5 402/7/5 420/7/5
f 422/7/5 404/7/5 403/7/5
f 422/4/5 403/4/5 421/4/5
f 423/4/5 405/4/5 404/4/5
f 423/7/5 404/7/5 422/7/5
f 424/7/5 406/7/5 405/7/5
f 424/4/5 405/4/5 423/4/5
f 425/5/5 407/5/5 406/5/5
f 425/7/5 406/7/5 424/7/5
f 426/7/5 408/7/5 407/7/5
f 426/5/5 407/5/5 425/5/5
f 427/4/5 409/4/5 408/4/5
f 427/7/5 408/7/5 426/7/5
f 428/7/5 410/7/5 409/7/5
f 428/4/5 409/4/5 427/4/5
f 429/4/5 411/4/5 410/4/5
f 429/7/5 410/7/5 428/7/5
f 430/7/5 412/7/5 411/7/5
f 430/4/5 411/4/5 429/4/5
f 431/4/5 413/4/5 412/4/5
f 431/7/5 412/7/5 430/7/5
f 432/4/5 414/4/5 394/4/5
f 432/3/5 415/3/5 414/3/5
f 433/5/5 416/5/5 415/5/5
f 433/3/5 415/3/5 432/3/5
f 434/3/5 417/3/5 416/3/5
f 434/5/5 416/5/5 433/5/5
f 435/4/5 418/4/5 417/4/5
f 435/3/5 417/3/5 434/3/5
f 436/3/5 419/3/5 418/3/5
f 436/4/5 418/4/5 435/4/5
f 437/4/5 420/4/5 419/4/5
f 437/3/5 419/3/5 436/3/5
f 438/3/5 421/3/5 420/3/5
f 438/4/5 420/4/5 437/4/5
f 439/4/5 422/4/5 421/4/5
f 439/3/5 421/3/5 438/3/5
f 440/3/5 423/3/5 422/3/5
f 440/4/5 422/4/5 439/4/5
f 441/4/5 424/4/5 423/4/5
f 441/3/5 423/3/5 440/3/5
f 442/3/5 425/3/5 424/3/5
f 442/4/5 424/4/5 441/4/5
f 443/5/5 426/5/5 425/5/5
f 443/3/5 425/3/5 442/3/5
f 444/3/5 427/3/5 426/3/5
f 444/5/5 426/5/5 443/5/5
f 445/4/5 428/4/5 427/4/5
f 445/3/5 427/3/5 444/3/5
f 446/3/5 429/3/5 428/3/5
f 446/4/5 428/4/5 445/4/5
f 447/4/5 430/4/5 429/4/5
f 447/3/5 429/3/5 446/3/5
f 448/3/5 431/3/5 430/3/5
f 448/4/5 430/4/5 447/4/5
f 449/4/5 413/4/5 431/4/5
f 449/3/5 431/3/5 448/3/5
f 450/4/5 432/4/5 394/4/5
f 451/7/5 433/7/5 432/7/5
f 451/4/5 432/4/5 450/4/5
f 452/5/5 434/5/5 433/5/5
f 452/7/5 433/7/5 451/7/5
f 453/7/5 435/7/5 434/7/5
f 453/5/5 434/5/5 452/5/5
f 454/4/5 436/4/5 435/4/5
f 454/7/5 435/7/5 453/7/5
f 455/7/5 437/7/5 436/7/5
f 455/4/5 436/4/5 454/4/5
f 456/4/5 438/4/5 437/4/5
f 456/7/5 437/7/5 455/7/5
f 457/7/5 439/7/5 438/7/5
f 457/4/5 438/4/5 456/4/5
f 458/4/5 440/4/5 439/4/5
f 458/7/5 439/7/5 457/7/5
f 459/7/5 441/7/5 440/7/5
f 459/4/5 440/4/5 458/4/5
f 460/4/5 442/4/5 441/4/5
f 460/7/5 441/7/5 459/7/5
f 461/7/5 443/7/5 442/7/5
f 461/4/5 442/4/5 460/4/5
f 462/5/5 444/5/5 443/5/5
f 462/7/5 443/7/5 461/7/5
f 463/7/5 445/7/5 444/7/5
f 463/5/5 444/5/5 462/5/5
f 464/4/5 446/4/5 445/4/5
f 464/7/5 445/7/5 463/7/5
f 465/7/5 447/7/5 446/7/5
f 465/4/5 446/4/5 464/4/5
f 466/4/5 448/4/5 447/4/5
f 466/7/5 447/7/5 465/7/5
f 467/7/5 449/7/5 448/7/5
f 467/4/5 448/4/5 466/4/5
f 468/4/5 413/4/5 449/4/5
f 468/7/5 449/7/5 467/7/5
f 469/4/5 413/4/5 468/4/5
f 472/4/5 471/4/5 470/4/5
f 473/4/5 471/4/5 472/4/5
f 476/6/5 475/6/5 474/6/5
f 477/6/5 475/6/5 476/6/5
f 478/4/6 479/4/6 480/4/6
f 480/4/6 479/4/6 481/4/6
f 482/4/6 483/4/6 484/4/6
f 484/4/6 483/4/6 485/4/6
f 486/4/6 487/4/6 506/4/6
f 487/7/6 488/7/6 506/7/6
f 488/5/6 489/5/6 507/5/6
f 506/7/6 488/7/6 507/7/6
f 489/7/6 490/7/6 508/7/6
f 507/5/6 489/5/6 508/5/6
f 490/6/6 491/6/6 509/6/6
f 508/7/6 490/7/6 509/7/6
f 491/7/6 492/7/6 510/7/6
f 509/6/6 491/6/6 510/6/6
f 492/4/6 493/4/6 511/4/6
f 510/7/6 492/7/6 511/7/6
f 493/7/6 494/7/6 512/7/6
f 511/4/6 493/4/6 512/4/6
f 494/6/6 495/6/6 513/6/6
f 512/7/6 494/7/6 513/7/6
f 495/7/6 496/7/6 514/7/6
f 513/6/6 495/6/6 514/6/6
f 496/4/6 497/4/6 515/4/6
f 514/7/6 496/7/6 515/7/6
f 497/7/6 498/7/6 516/7/6
f 515/4/6 497/4/6 516/4/6
f 498/4/6 499/4/6 517/4/6
f 516/7/6 498/7/6 517/7/6
f 499/7/6 500/7/6 518/7/6
f 517/4/6 499/4/6 518/4/6
f 500/5/6 501/5/6 519/5/6
f 518/7/6 500/7/6 519/7/6
f 501/7/6 502/7/6 520/7/6
f 519/5/6 501/5/6 520/5/6
f 502/4/6 503/4/6 521/4/6
f 520/7/6 502/7/6 521/7/6
f 503/7/6 504/7/6 522/7/6
f 521/4/6 503/4/6 522/4/6
f 504/4/6 505/4/6 523/4/6
f 522/7/6 504/7/6 523/7/6
f 486/4/6 506/4/6 524/4/6
f 506/3/6 507/3/6 524/3/6
f 507/5/6 508/5/6 525/5/6
f 524/3/6 507/3/6 525/3/6
f 508/3/6 509/3/6 526/3/6
f 525/5/6 508/5/6 526/5/6
f 509/6/6 510/6/6 527/6/6
f 526/3/6 509/3/6 527/3/6
f 510/3/6 511/3/6 528/3/6
f 527/6/6 510/6/6 528/6/6
f 511/4/6 512/4/6 529/4/6
f 528/3/6 511/3/6 529/3/6
f 512/3/6 513/3/6 530/3/6
f 529/4/6 512/4/6 530/4/6
f 513/6/6 514/6/6 531/6/6
f 530/3/6 513/3/6 531/3/6
f 514/3/6 515/3/6 532/3/6
f 531/6/6 514/6/6 532/6/6
f 515/4/6 516/4/6 533/4/6
f 532/3/6 515/3/6 533/3/6
f 516/3/6 517/3/6 534/3/6
f 533/4/6 516/4/6 534/4/6
f 517/4/6 518/4/6 535/4/6
f 534/3/6 517/3/6 535/3/6
f 518/3/6 519/3/6 536/3/6
f 535/4/6 518/4/6 536/4/6
f 519/5/6 520/5/6 537/5/6
f 536/3/6 519/3/6 537/3/6
f 520/3/6 521/3/6 538/3/6
f 537/5/6 520/5/6 538/5/6
f 521/4/6 522/4/6 539/4/6
f 538/3/6 521/3/6 539/3/6
f 522/3/6 523/3/6 540/3/6
f 539/4/6 522/4/6 540/4/6
f 523/4/6 505/4/6 541/4/6
f 540/3/6 523/3/6 541/3/6
f 486/4/6 524/4/6 542/4/6
f 524/7/6 525/7/6 543/7/6
f 542/4/6 524/4/6 543/4/6
f 525/5/6 526/5/6 544/5/6
f 543/7/6 525/7/6 544/7/6
f 526/7/6 527/7/6 545/7/6
f 544/5/6 526/5/6 545/5/6
f 527/6/6 528/6/6 546/6/6
f 545/7/6 527/7/6 546/7/6
f 528/7/6 529/7/6 547/7/6
f 546/6/6 528/6/6 547/6/6
f 529/4/6 530/4/6 548/4/6
f 547/7/6 529/7/6 548/7/6
f 530/7/6 531/7/6 549/7/6
f 548/4/6 530/4/6 549/4/6
f 531/6/6 532/6/6 550/6/6
f 549/7/6 531/7/6 550/7/6
f 532/7/6 533/7/6 551/7/6
f 550/6/6 532/6/6 551/6/6
f 533/4/6 534/4/6 552/4/6
f 551/7/6 533/7/6 552/7/6
f 534/7/6 535/7/6 553/7/6
f 552/4/6 534/4/6 553/4/6
f 535/4/6 536/4/6 554/4/6
f 553/7/6 535/7/6 554/7/6
f 536/7/6 537/7/6 555/7/6
f 554/4/6 536/4/6 555/4/6
f 537/5/6 538/5/6 556/5/6
f 555/7/6 537/7/6 556/7/6
f 538/7/6 539/7/6 557/7/6
f 556/5/6 538/5/6 557/5/6
f 539/4/6 540/4/6 558/4/6
f 557/7/6 539/7/6 558/7/6
f 540/7/6 541/7/6 559/7/6
f 558/4/6 540/4/6 559/4/6
f 541/4/6 505/4/6 560/4/6
f 559/7/6 541/7/6 560/7/6
f 560/4/6 505/4/6 561/4/6
