# MagicaVoxel @ Ephtracy

# group
o corner-brick-plain

# material
mtllib components-19-corner-brick-plain.mtl
usemtl palette

# normals
vn -1 0 0
vn 1 0 0
vn 0 0 1
vn 0 0 -1
vn 0 -1 0
vn 0 1 0

# texcoords
vt 0.345703 0.5
vt 0.349609 0.5
vt 0.376953 0.5
vt 0.380859 0.5
vt 0.384766 0.5

# verts
v -0.3 0 2.1
v -0.3 0 1.9
v -0.3 0 1.8
v -0.3 0 1.5
v -0.3 0.2 2.1
v -0.3 0.2 2
v -0.3 0.2 1.9
v -0.3 0.2 1.8
v -0.3 0.2 1.5
v -0.3 0.3 2.1
v -0.3 0.3 2
v -0.3 0.3 1.5
v -0.3 0.5 2.1
v -0.3 0.5 2
v -0.3 0.5 1.5
v -0.3 0.6 2.1
v -0.3 0.6 2
v -0.3 0.6 1.9
v -0.3 0.6 1.8
v -0.3 0.6 1.5
v -0.3 0.8 2.1
v -0.3 0.8 2
v -0.3 0.8 1.9
v -0.3 0.8 1.8
v -0.3 0.8 1.5
v -0.3 0.9 2
v -0.3 0.9 1.9
v -0.3 0.9 1.8
v -0.3 0.9 1.5
v -0.3 1 2.1
v -0.3 1 2
v -0.3 1.1 2.1
v -0.3 1.1 2
v -0.3 1.1 1.9
v -0.3 1.1 1.8
v -0.3 1.1 1.5
v -0.3 1.2 2.1
v -0.3 1.2 2
v -0.3 1.2 1.5
v -0.3 1.4 2.1
v -0.3 1.4 2
v -0.3 1.4 1.5
v -0.3 1.5 2.1
v -0.3 1.5 2
v -0.3 1.5 1.9
v -0.3 1.5 1.8
v -0.3 1.5 1.5
v -0.3 1.7 2.1
v -0.3 1.7 2
v -0.3 1.7 1.9
v -0.3 1.7 1.8
v -0.3 1.7 1.5
v -0.3 1.8 2.1
v -0.3 1.8 2
v -0.3 1.8 1.5
v -0.3 2 2.1
v -0.3 2 2
v -0.3 2 1.5
v -0.3 2.1 2.1
v -0.3 2.1 2
v -0.3 2.1 1.9
v -0.3 2.1 1.8
v -0.3 2.1 1.5
v -0.3 2.3 2.1
v -0.3 2.3 2
v -0.3 2.3 1.9
v -0.3 2.3 1.8
v -0.3 2.3 1.5
v -0.3 2.4 2.1
v -0.3 2.4 2
v -0.3 2.4 1.5
v -0.3 2.6 2.1
v -0.3 2.6 2
v -0.3 2.6 1.9
v -0.3 2.6 1.5
v -0.3 2.7 2.1
v -0.3 2.7 2
v -0.3 2.7 1.9
v -0.3 2.7 1.8
v -0.3 2.7 1.5
v -0.3 2.9 2.1
v -0.3 2.9 2
v -0.3 2.9 1.9
v -0.3 2.9 1.8
v -0.3 2.9 1.5
v -0.3 3 2.1
v -0.3 3 2
v -0.3 3 1.5
v -0.3 3.2 2.1
v -0.3 3.2 2
v -0.3 3.2 1.5
v -0.3 3.3 2.1
v -0.3 3.3 2
v -0.3 3.3 1.9
v -0.3 3.3 1.8
v -0.3 3.3 1.5
v -0.3 3.5 2.1
v -0.3 3.5 2
v -0.3 3.5 1.9
v -0.3 3.5 1.8
v -0.3 3.5 1.5
v -0.3 3.6 2.1
v -0.3 3.6 2
v -0.3 3.6 1.5
v -0.3 3.8 2.1
v -0.3 3.8 2
v -0.3 3.8 1.5
v -0.3 3.9 2.1
v -0.3 3.9 2
v -0.3 3.9 1.9
v -0.3 3.9 1.8
v -0.3 3.9 1.5
v -0.3 4.1 2.1
v -0.3 4.1 2
v -0.3 4.1 1.9
v -0.3 4.1 1.8
v -0.3 4.1 1.5
v -0.3 4.2 2
v -0.3 4.2 1.5
v -0.3 4.3 2.1
v -0.3 4.3 2
v -0.3 4.4 2.1
v -0.3 4.4 2
v -0.3 4.4 1.5
v -0.3 4.5 2
v -0.3 4.5 1.5
v -0.2 4.2 2.1
v -0.2 4.2 2
v -0.2 4.3 2.1
v -0.2 4.3 2
v -0.1 0.9 2.1
v -0.1 0.9 2
v -0.1 1 2.1
v -0.1 1 2
v 0 0.3 2.1
v 0 0.3 2
v 0 0.5 2.1
v 0 0.5 2
v 0 1.2 2.1
v 0 1.2 2
v 0 1.3 2
v 0 1.3 1.9
v 0 1.4 2.1
v 0 1.4 2
v 0 1.4 1.9
v 0 1.5 2
v 0 1.5 1.9
v 0 1.8 2.1
v 0 1.8 2
v 0 2 2.1
v 0 2 2
v 0 2.4 2.1
v 0 2.4 2
v 0 2.6 2.1
v 0 2.6 2
v 0 3 2.1
v 0 3 2
v 0 3.2 2.1
v 0 3.2 2
v 0 3.6 2.1
v 0 3.6 2
v 0 3.8 2.1
v 0 3.8 2
v 0 4.2 2.1
v 0 4.2 2
v 0 4.4 2.1
v 0 4.4 2
v -0.1 0.3 2.1
v -0.1 0.3 2
v -0.1 0.5 2.1
v -0.1 0.5 2
v -0.1 1.2 2.1
v -0.1 1.2 2
v -0.1 1.3 2
v -0.1 1.3 1.9
v -0.1 1.4 2.1
v -0.1 1.4 2
v -0.1 1.4 1.9
v -0.1 1.5 2
v -0.1 1.5 1.9
v -0.1 1.8 2.1
v -0.1 1.8 2
v -0.1 2 2.1
v -0.1 2 2
v -0.1 2.4 2.1
v -0.1 2.4 2
v -0.1 2.6 2.1
v -0.1 2.6 2
v -0.1 3 2.1
v -0.1 3 2
v -0.1 3.2 2.1
v -0.1 3.2 2
v -0.1 3.6 2.1
v -0.1 3.6 2
v -0.1 3.8 2.1
v -0.1 3.8 2
v -0.1 4.2 2.1
v -0.1 4.2 2
v -0.1 4.4 2.1
v -0.1 4.4 2
v 0 2.9 2
v 0 2.9 1.9
v 0 3 2
v 0 3 1.9
v 0.1 0.8 2
v 0.1 0.8 1.9
v 0.1 0.9 2
v 0.1 0.9 1.9
v 0.1 2.2 2.1
v 0.1 2.2 2
v 0.1 2.3 2.1
v 0.1 2.3 2
v 0.1 3.8 2
v 0.1 3.8 1.9
v 0.1 3.9 2
v 0.1 3.9 1.9
v 0.2 0 1.9
v 0.2 0 1.8
v 0.2 0.1 2.1
v 0.2 0.1 2
v 0.2 0.1 1.9
v 0.2 0.1 1.8
v 0.2 0.2 2.1
v 0.2 0.2 2
v 0.2 0.2 1.9
v 0.2 0.2 1.8
v 0.2 0.2 1.5
v 0.2 0.3 2
v 0.2 0.3 1.9
v 0.2 0.3 1.8
v 0.2 0.3 1.5
v 0.2 0.4 1.9
v 0.2 0.4 1.7
v 0.2 0.5 2
v 0.2 0.5 1.9
v 0.2 0.5 1.8
v 0.2 0.5 1.7
v 0.2 0.5 1.5
v 0.2 0.6 2
v 0.2 0.6 1.9
v 0.2 0.6 1.8
v 0.2 0.6 1.5
v 0.2 0.7 1.9
v 0.2 0.7 1.8
v 0.2 0.8 1.9
v 0.2 0.8 1.8
v 0.2 0.8 1.5
v 0.2 0.9 1.9
v 0.2 0.9 1.8
v 0.2 0.9 1.5
v 0.2 1.1 2
v 0.2 1.1 1.9
v 0.2 1.1 1.8
v 0.2 1.1 1.5
v 0.2 1.2 2
v 0.2 1.2 1.5
v 0.2 1.4 2
v 0.2 1.4 1.9
v 0.2 1.4 1.6
v 0.2 1.4 1.5
v 0.2 1.5 2.1
v 0.2 1.5 2
v 0.2 1.5 1.9
v 0.2 1.5 1.8
v 0.2 1.5 1.6
v 0.2 1.5 1.5
v 0.2 1.6 2.1
v 0.2 1.6 2
v 0.2 1.7 2
v 0.2 1.7 1.9
v 0.2 1.7 1.8
v 0.2 1.7 1.6
v 0.2 1.7 1.5
v 0.2 1.8 2
v 0.2 1.8 1.9
v 0.2 1.8 1.6
v 0.2 1.8 1.5
v 0.2 2 2
v 0.2 2 1.9
v 0.2 2 1.5
v 0.2 2.1 2
v 0.2 2.1 1.9
v 0.2 2.1 1.8
v 0.2 2.1 1.5
v 0.2 2.3 2
v 0.2 2.3 1.9
v 0.2 2.3 1.8
v 0.2 2.3 1.5
v 0.2 2.4 2
v 0.2 2.4 1.8
v 0.2 2.4 1.5
v 0.2 2.6 2
v 0.2 2.6 1.8
v 0.2 2.6 1.5
v 0.2 2.7 2
v 0.2 2.7 1.9
v 0.2 2.7 1.8
v 0.2 2.7 1.5
v 0.2 2.9 1.9
v 0.2 2.9 1.8
v 0.2 2.9 1.6
v 0.2 2.9 1.5
v 0.2 3 2
v 0.2 3 1.9
v 0.2 3 1.6
v 0.2 3 1.5
v 0.2 3.1 2
v 0.2 3.1 1.9
v 0.2 3.2 2
v 0.2 3.2 1.6
v 0.2 3.2 1.5
v 0.2 3.3 2.1
v 0.2 3.3 2
v 0.2 3.3 1.9
v 0.2 3.3 1.8
v 0.2 3.3 1.6
v 0.2 3.3 1.5
v 0.2 3.4 2.1
v 0.2 3.4 2
v 0.2 3.5 2
v 0.2 3.5 1.9
v 0.2 3.5 1.8
v 0.2 3.5 1.5
v 0.2 3.6 2
v 0.2 3.6 1.5
v 0.2 3.8 1.9
v 0.2 3.8 1.5
v 0.2 3.9 1.9
v 0.2 3.9 1.8
v 0.2 3.9 1.5
v 0.2 4 1.8
v 0.2 4 1.7
v 0.2 4.1 2
v 0.2 4.1 1.9
v 0.2 4.1 1.8
v 0.2 4.1 1.7
v 0.2 4.1 1.5
v 0.2 4.2 2
v 0.2 4.2 1.5
v 0.2 4.4 2
v 0.2 4.4 1.5
v 0.2 4.5 2
v 0.2 4.5 1.5
v 0.3 0 2.1
v 0.3 0 1.9
v 0.3 0 1.8
v 0.3 0 1.5
v 0.3 0.1 2.1
v 0.3 0.1 2
v 0.3 0.2 2
v 0.3 0.2 1.9
v 0.3 0.2 1.8
v 0.3 0.2 1.5
v 0.3 0.3 2.1
v 0.3 0.3 1.5
v 0.3 0.4 1.9
v 0.3 0.4 1.7
v 0.3 0.5 2.1
v 0.3 0.5 1.9
v 0.3 0.5 1.7
v 0.3 0.5 1.5
v 0.3 0.6 2.1
v 0.3 0.6 1.9
v 0.3 0.6 1.8
v 0.3 0.6 1.5
v 0.3 0.8 2.1
v 0.3 0.8 1.9
v 0.3 0.8 1.8
v 0.3 0.8 1.5
v 0.3 0.9 2.1
v 0.3 0.9 1.9
v 0.3 0.9 1.8
v 0.3 0.9 1.5
v 0.3 1.1 2.1
v 0.3 1.1 1.9
v 0.3 1.1 1.8
v 0.3 1.1 1.5
v 0.3 1.2 2.1
v 0.3 1.2 1.5
v 0.3 1.4 2.1
v 0.3 1.4 1.5
v 0.3 1.5 2
v 0.3 1.5 1.9
v 0.3 1.5 1.8
v 0.3 1.5 1.5
v 0.3 1.6 2.1
v 0.3 1.6 2
v 0.3 1.7 2.1
v 0.3 1.7 1.9
v 0.3 1.7 1.8
v 0.3 1.7 1.5
v 0.3 1.8 2.1
v 0.3 1.8 1.5
v 0.3 2 2.1
v 0.3 2 1.5
v 0.3 2.1 2.1
v 0.3 2.1 1.9
v 0.3 2.1 1.8
v 0.3 2.1 1.5
v 0.3 2.2 2.1
v 0.3 2.2 2
v 0.3 2.3 2
v 0.3 2.3 1.9
v 0.3 2.3 1.8
v 0.3 2.3 1.5
v 0.3 2.4 2.1
v 0.3 2.4 1.5
v 0.3 2.6 2.1
v 0.3 2.6 1.5
v 0.3 2.7 2.1
v 0.3 2.7 1.9
v 0.3 2.7 1.8
v 0.3 2.7 1.5
v 0.3 2.9 2.1
v 0.3 2.9 1.9
v 0.3 2.9 1.8
v 0.3 2.9 1.5
v 0.3 3 2.1
v 0.3 3 2
v 0.3 3 1.9
v 0.3 3 1.5
v 0.3 3.1 2
v 0.3 3.1 1.9
v 0.3 3.2 2.1
v 0.3 3.2 1.5
v 0.3 3.3 2
v 0.3 3.3 1.9
v 0.3 3.3 1.8
v 0.3 3.3 1.5
v 0.3 3.4 2.1
v 0.3 3.4 2
v 0.3 3.5 2.1
v 0.3 3.5 1.9
v 0.3 3.5 1.8
v 0.3 3.5 1.5
v 0.3 3.6 2.1
v 0.3 3.6 1.5
v 0.3 3.8 2.1
v 0.3 3.8 1.5
v 0.3 3.9 2.1
v 0.3 3.9 1.9
v 0.3 3.9 1.8
v 0.3 3.9 1.5
v 0.3 4 1.8
v 0.3 4 1.7
v 0.3 4.1 2.1
v 0.3 4.1 1.9
v 0.3 4.1 1.7
v 0.3 4.1 1.5
v 0.3 4.2 2.1
v 0.3 4.2 1.5
v 0.3 4.4 2.1
v 0.3 4.4 1.5
v -0.3 0 2.1
v -0.3 0.2 2.1
v -0.3 0.3 2.1
v -0.3 0.5 2.1
v -0.3 0.6 2.1
v -0.3 0.8 2.1
v -0.3 1 2.1
v -0.3 1.1 2.1
v -0.3 1.2 2.1
v -0.3 1.4 2.1
v -0.3 1.5 2.1
v -0.3 1.7 2.1
v -0.3 1.8 2.1
v -0.3 2 2.1
v -0.3 2.1 2.1
v -0.3 2.3 2.1
v -0.3 2.4 2.1
v -0.3 2.6 2.1
v -0.3 2.7 2.1
v -0.3 2.9 2.1
v -0.3 3 2.1
v -0.3 3.2 2.1
v -0.3 3.3 2.1
v -0.3 3.5 2.1
v -0.3 3.6 2.1
v -0.3 3.8 2.1
v -0.3 3.9 2.1
v -0.3 4.1 2.1
v -0.3 4.3 2.1
v -0.3 4.4 2.1
v -0.2 4.2 2.1
v -0.2 4.3 2.1
v -0.1 0.3 2.1
v -0.1 0.5 2.1
v -0.1 0.9 2.1
v -0.1 1 2.1
v -0.1 1.2 2.1
v -0.1 1.4 2.1
v -0.1 1.8 2.1
v -0.1 2 2.1
v -0.1 2.4 2.1
v -0.1 2.6 2.1
v -0.1 3 2.1
v -0.1 3.2 2.1
v -0.1 3.6 2.1
v -0.1 3.8 2.1
v -0.1 4.2 2.1
v -0.1 4.4 2.1
v 0 0.3 2.1
v 0 0.5 2.1
v 0 1.2 2.1
v 0 1.4 2.1
v 0 1.8 2.1
v 0 2 2.1
v 0 2.4 2.1
v 0 2.6 2.1
v 0 3 2.1
v 0 3.2 2.1
v 0 3.6 2.1
v 0 3.8 2.1
v 0 4.2 2.1
v 0 4.4 2.1
v 0.1 2.2 2.1
v 0.1 2.3 2.1
v 0.2 0.1 2.1
v 0.2 0.2 2.1
v 0.2 1.5 2.1
v 0.2 1.6 2.1
v 0.2 3.3 2.1
v 0.2 3.4 2.1
v 0.3 0 2.1
v 0.3 0.1 2.1
v 0.3 0.3 2.1
v 0.3 0.5 2.1
v 0.3 0.6 2.1
v 0.3 0.8 2.1
v 0.3 0.9 2.1
v 0.3 1.1 2.1
v 0.3 1.2 2.1
v 0.3 1.4 2.1
v 0.3 1.6 2.1
v 0.3 1.7 2.1
v 0.3 1.8 2.1
v 0.3 2 2.1
v 0.3 2.1 2.1
v 0.3 2.2 2.1
v 0.3 2.4 2.1
v 0.3 2.6 2.1
v 0.3 2.7 2.1
v 0.3 2.9 2.1
v 0.3 3 2.1
v 0.3 3.2 2.1
v 0.3 3.4 2.1
v 0.3 3.5 2.1
v 0.3 3.6 2.1
v 0.3 3.8 2.1
v 0.3 3.9 2.1
v 0.3 4.1 2.1
v 0.3 4.2 2.1
v 0.3 4.4 2.1
v -0.3 0.2 2
v -0.3 0.3 2
v -0.3 0.5 2
v -0.3 0.6 2
v -0.3 0.8 2
v -0.3 0.9 2
v -0.3 1 2
v -0.3 1.1 2
v -0.3 1.2 2
v -0.3 1.4 2
v -0.3 1.5 2
v -0.3 1.7 2
v -0.3 1.8 2
v -0.3 2 2
v -0.3 2.1 2
v -0.3 2.3 2
v -0.3 2.4 2
v -0.3 2.6 2
v -0.3 2.7 2
v -0.3 2.9 2
v -0.3 3 2
v -0.3 3.2 2
v -0.3 3.3 2
v -0.3 3.5 2
v -0.3 3.6 2
v -0.3 3.8 2
v -0.3 3.9 2
v -0.3 4.1 2
v -0.3 4.2 2
v -0.3 4.3 2
v -0.3 4.4 2
v -0.3 4.5 2
v -0.2 0.8 2
v -0.2 0.9 2
v -0.2 3.2 2
v -0.2 3.3 2
v -0.2 4.2 2
v -0.2 4.3 2
v -0.1 0.2 2
v -0.1 0.3 2
v -0.1 0.5 2
v -0.1 0.6 2
v -0.1 0.9 2
v -0.1 1 2
v -0.1 1.2 2
v -0.1 1.3 2
v -0.1 1.4 2
v -0.1 1.5 2
v -0.1 1.8 2
v -0.1 2 2
v -0.1 2.3 2
v -0.1 2.4 2
v -0.1 2.6 2
v -0.1 3 2
v -0.1 3.2 2
v -0.1 3.6 2
v -0.1 3.8 2
v -0.1 4.2 2
v -0.1 4.4 2
v 0 0.3 2
v 0 0.5 2
v 0 0.6 2
v 0 0.8 2
v 0 0.9 2
v 0 1.2 2
v 0 1.3 2
v 0 1.4 2
v 0 1.5 2
v 0 1.8 2
v 0 2 2
v 0 2.4 2
v 0 2.6 2
v 0 2.7 2
v 0 2.9 2
v 0 3 2
v 0 3.2 2
v 0 3.3 2
v 0 3.6 2
v 0 3.8 2
v 0 4.2 2
v 0 4.4 2
v 0.1 0.2 2
v 0.1 0.3 2
v 0.1 0.5 2
v 0.1 0.6 2
v 0.1 0.8 2
v 0.1 0.9 2
v 0.1 2.2 2
v 0.1 2.3 2
v 0.1 3.2 2
v 0.1 3.3 2
v 0.1 3.8 2
v 0.1 3.9 2
v 0.2 0.1 2
v 0.2 0.2 2
v 0.2 0.3 2
v 0.2 0.5 2
v 0.2 0.6 2
v 0.2 1.1 2
v 0.2 1.2 2
v 0.2 1.4 2
v 0.2 1.5 2
v 0.2 1.6 2
v 0.2 1.7 2
v 0.2 1.8 2
v 0.2 2 2
v 0.2 2.1 2
v 0.2 2.3 2
v 0.2 2.4 2
v 0.2 2.6 2
v 0.2 2.7 2
v 0.2 3.2 2
v 0.2 3.3 2
v 0.2 3.4 2
v 0.2 3.5 2
v 0.2 3.6 2
v 0.2 4.1 2
v 0.2 4.2 2
v 0.2 4.4 2
v 0.2 4.5 2
v 0.3 0.1 2
v 0.3 0.2 2
v 0.3 1.5 2
v 0.3 1.6 2
v 0.3 2.2 2
v 0.3 2.3 2
v 0.3 3.3 2
v 0.3 3.4 2
v -0.1 1.3 1.9
v -0.1 1.4 1.9
v -0.1 1.5 1.9
v 0 1.3 1.9
v 0 1.4 1.9
v 0 1.5 1.9
v 0 2.9 1.9
v 0 3 1.9
v 0.1 0.8 1.9
v 0.1 0.9 1.9
v 0.1 2.9 1.9
v 0.1 3 1.9
v 0.1 3.8 1.9
v 0.1 3.9 1.9
v 0.2 0.8 1.9
v 0.2 0.9 1.9
v 0.2 2.9 1.9
v 0.2 3 1.9
v 0.2 3.1 1.9
v 0.2 3.8 1.9
v 0.2 3.9 1.9
v 0.3 3 1.9
v 0.3 3.1 1.9
v 0.2 0 1.8
v 0.2 0.1 1.8
v 0.2 0.2 1.8
v 0.2 0.6 1.8
v 0.2 0.7 1.8
v 0.2 0.8 1.8
v 0.2 0.9 1.8
v 0.2 1.1 1.8
v 0.2 1.5 1.8
v 0.2 1.7 1.8
v 0.2 2.1 1.8
v 0.2 2.3 1.8
v 0.2 2.7 1.8
v 0.2 2.9 1.8
v 0.2 3.3 1.8
v 0.2 3.5 1.8
v 0.2 3.9 1.8
v 0.2 4 1.8
v 0.3 0 1.8
v 0.3 0.2 1.8
v 0.3 0.6 1.8
v 0.3 0.8 1.8
v 0.3 0.9 1.8
v 0.3 1.1 1.8
v 0.3 1.5 1.8
v 0.3 1.7 1.8
v 0.3 2.1 1.8
v 0.3 2.3 1.8
v 0.3 2.7 1.8
v 0.3 2.9 1.8
v 0.3 3.3 1.8
v 0.3 3.5 1.8
v 0.3 3.9 1.8
v 0.3 4 1.8
v 0.2 0.4 1.7
v 0.2 0.5 1.7
v 0.2 4 1.7
v 0.2 4.1 1.7
v 0.3 0.4 1.7
v 0.3 0.5 1.7
v 0.3 4 1.7
v 0.3 4.1 1.7
v 0.2 3 2
v 0.2 3.1 2
v 0.3 3 2
v 0.3 3.1 2
v 0.2 0 1.9
v 0.2 0.1 1.9
v 0.2 0.2 1.9
v 0.2 0.4 1.9
v 0.2 0.5 1.9
v 0.2 0.6 1.9
v 0.2 0.7 1.9
v 0.2 0.8 1.9
v 0.2 0.9 1.9
v 0.2 1.1 1.9
v 0.2 1.5 1.9
v 0.2 1.7 1.9
v 0.2 2.1 1.9
v 0.2 2.3 1.9
v 0.2 2.7 1.9
v 0.2 2.9 1.9
v 0.2 3.3 1.9
v 0.2 3.5 1.9
v 0.2 3.9 1.9
v 0.2 4.1 1.9
v 0.3 0 1.9
v 0.3 0.2 1.9
v 0.3 0.4 1.9
v 0.3 0.5 1.9
v 0.3 0.6 1.9
v 0.3 0.8 1.9
v 0.3 0.9 1.9
v 0.3 1.1 1.9
v 0.3 1.5 1.9
v 0.3 1.7 1.9
v 0.3 2.1 1.9
v 0.3 2.3 1.9
v 0.3 2.7 1.9
v 0.3 2.9 1.9
v 0.3 3.3 1.9
v 0.3 3.5 1.9
v 0.3 3.9 1.9
v 0.3 4.1 1.9
v -0.3 0 1.5
v -0.3 0.2 1.5
v -0.3 0.3 1.5
v -0.3 0.5 1.5
v -0.3 0.6 1.5
v -0.3 0.8 1.5
v -0.3 0.9 1.5
v -0.3 1.1 1.5
v -0.3 1.2 1.5
v -0.3 1.4 1.5
v -0.3 1.5 1.5
v -0.3 1.7 1.5
v -0.3 1.8 1.5
v -0.3 2 1.5
v -0.3 2.1 1.5
v -0.3 2.3 1.5
v -0.3 2.4 1.5
v -0.3 2.6 1.5
v -0.3 2.7 1.5
v -0.3 2.9 1.5
v -0.3 3 1.5
v -0.3 3.2 1.5
v -0.3 3.3 1.5
v -0.3 3.5 1.5
v -0.3 3.6 1.5
v -0.3 3.8 1.5
v -0.3 3.9 1.5
v -0.3 4.1 1.5
v -0.3 4.2 1.5
v -0.3 4.4 1.5
v -0.3 4.5 1.5
v -0.1 0.3 1.5
v -0.1 0.5 1.5
v -0.1 1.2 1.5
v -0.1 1.4 1.5
v -0.1 1.8 1.5
v -0.1 2 1.5
v -0.1 2.4 1.5
v -0.1 2.6 1.5
v -0.1 3 1.5
v -0.1 3.2 1.5
v -0.1 3.6 1.5
v -0.1 3.8 1.5
v -0.1 4.2 1.5
v -0.1 4.4 1.5
v 0 0.3 1.5
v 0 0.5 1.5
v 0 1.2 1.5
v 0 1.4 1.5
v 0 1.8 1.5
v 0 2 1.5
v 0 2.4 1.5
v 0 2.6 1.5
v 0 3 1.5
v 0 3.2 1.5
v 0 3.6 1.5
v 0 3.8 1.5
v 0 4.2 1.5
v 0 4.4 1.5
v 0.1 2 1.5
v 0.1 2.1 1.5
v 0.1 2.6 1.5
v 0.1 2.7 1.5
v 0.2 0.2 1.5
v 0.2 0.3 1.5
v 0.2 0.5 1.5
v 0.2 0.6 1.5
v 0.2 0.8 1.5
v 0.2 0.9 1.5
v 0.2 1.1 1.5
v 0.2 1.2 1.5
v 0.2 1.4 1.5
v 0.2 1.5 1.5
v 0.2 1.7 1.5
v 0.2 1.8 1.5
v 0.2 2 1.5
v 0.2 2.1 1.5
v 0.2 2.3 1.5
v 0.2 2.4 1.5
v 0.2 2.6 1.5
v 0.2 2.7 1.5
v 0.2 2.9 1.5
v 0.2 3 1.5
v 0.2 3.2 1.5
v 0.2 3.3 1.5
v 0.2 3.5 1.5
v 0.2 3.6 1.5
v 0.2 3.8 1.5
v 0.2 3.9 1.5
v 0.2 4.1 1.5
v 0.2 4.2 1.5
v 0.2 4.4 1.5
v 0.2 4.5 1.5
v 0.3 0 1.5
v 0.3 0.2 1.5
v 0.3 0.3 1.5
v 0.3 0.5 1.5
v 0.3 0.6 1.5
v 0.3 0.8 1.5
v 0.3 0.9 1.5
v 0.3 1.1 1.5
v 0.3 1.2 1.5
v 0.3 1.4 1.5
v 0.3 1.5 1.5
v 0.3 1.7 1.5
v 0.3 1.8 1.5
v 0.3 2 1.5
v 0.3 2.1 1.5
v 0.3 2.3 1.5
v 0.3 2.4 1.5
v 0.3 2.6 1.5
v 0.3 2.7 1.5
v 0.3 2.9 1.5
v 0.3 3 1.5
v 0.3 3.2 1.5
v 0.3 3.3 1.5
v 0.3 3.5 1.5
v 0.3 3.6 1.5
v 0.3 3.8 1.5
v 0.3 3.9 1.5
v 0.3 4.1 1.5
v 0.3 4.2 1.5
v 0.3 4.4 1.5
v -0.3 0 2.1
v 0.3 0 2.1
v -0.3 0 1.9
v 0.2 0 1.9
v 0.3 0 1.9
v -0.3 0 1.8
v 0.2 0 1.8
v 0.3 0 1.8
v -0.3 0 1.5
v 0.3 0 1.5
v -0.3 0.3 2.1
v -0.1 0.3 2.1
v 0 0.3 2.1
v 0.3 0.3 2.1
v -0.3 0.3 2
v -0.1 0.3 2
v 0 0.3 2
v 0.1 0.3 2
v 0.2 0.3 2
v 0.2 0.3 1.9
v 0.2 0.3 1.8
v 0.2 0.3 1.5
v 0.3 0.3 1.5
v -0.3 0.6 2.1
v 0.3 0.6 2.1
v -0.3 0.6 2
v -0.1 0.6 2
v 0 0.6 2
v 0.1 0.6 2
v 0.2 0.6 2
v 0.2 0.6 1.9
v 0.3 0.6 1.9
v 0.2 0.6 1.8
v 0.3 0.6 1.8
v 0.2 0.6 1.5
v 0.3 0.6 1.5
v -0.1 0.9 2.1
v 0.3 0.9 2.1
v -0.1 0.9 2
v 0 0.9 2
v 0.1 0.9 2
v 0.1 0.9 1.9
v 0.2 0.9 1.9
v 0.3 0.9 1.9
v 0.2 0.9 1.8
v 0.3 0.9 1.8
v 0.2 0.9 1.5
v 0.3 0.9 1.5
v -0.3 1 2.1
v -0.1 1 2.1
v -0.3 1 2
v -0.1 1 2
v -0.3 1.2 2.1
v -0.1 1.2 2.1
v 0 1.2 2.1
v 0.3 1.2 2.1
v -0.3 1.2 2
v -0.1 1.2 2
v 0 1.2 2
v 0.2 1.2 2
v 0.2 1.2 1.5
v 0.3 1.2 1.5
v -0.3 1.5 2.1
v 0.2 1.5 2.1
v -0.3 1.5 2
v -0.1 1.5 2
v 0 1.5 2
v 0.2 1.5 2
v 0.3 1.5 2
v -0.1 1.5 1.9
v 0 1.5 1.9
v 0.2 1.5 1.9
v 0.3 1.5 1.9
v 0.2 1.5 1.8
v 0.3 1.5 1.8
v 0.2 1.5 1.6
v 0.2 1.5 1.5
v 0.3 1.5 1.5
v 0.2 1.6 2.1
v 0.3 1.6 2.1
v 0.2 1.6 2
v 0.3 1.6 2
v -0.3 1.8 2.1
v -0.1 1.8 2.1
v 0 1.8 2.1
v 0.3 1.8 2.1
v -0.3 1.8 2
v -0.1 1.8 2
v 0 1.8 2
v 0.2 1.8 2
v 0.2 1.8 1.9
v 0.2 1.8 1.6
v 0.2 1.8 1.5
v 0.3 1.8 1.5
v -0.3 2.1 2.1
v 0.3 2.1 2.1
v -0.3 2.1 2
v 0.2 2.1 2
v 0.2 2.1 1.9
v 0.3 2.1 1.9
v 0.2 2.1 1.8
v 0.3 2.1 1.8
v 0.2 2.1 1.5
v 0.3 2.1 1.5
v -0.3 2.4 2.1
v -0.1 2.4 2.1
v 0 2.4 2.1
v 0.3 2.4 2.1
v -0.3 2.4 2
v -0.1 2.4 2
v 0 2.4 2
v 0.2 2.4 2
v 0.2 2.4 1.8
v 0.2 2.4 1.5
v 0.3 2.4 1.5
v -0.3 2.7 2.1
v 0.3 2.7 2.1
v -0.3 2.7 2
v 0 2.7 2
v 0.2 2.7 2
v 0.2 2.7 1.9
v 0.3 2.7 1.9
v 0.2 2.7 1.8
v 0.3 2.7 1.8
v 0.2 2.7 1.5
v 0.3 2.7 1.5
v -0.3 3 2.1
v -0.1 3 2.1
v 0 3 2.1
v 0.3 3 2.1
v -0.3 3 2
v -0.1 3 2
v 0 3 2
v 0.2 3 2
v 0.3 3 2
v 0 3 1.9
v 0.1 3 1.9
v 0.2 3 1.9
v 0.3 3 1.9
v 0.2 3 1.6
v 0.2 3 1.5
v 0.3 3 1.5
v 0.2 3.1 2
v 0.3 3.1 2
v 0.2 3.1 1.9
v 0.3 3.1 1.9
v -0.3 3.3 2.1
v 0.2 3.3 2.1
v -0.3 3.3 2
v -0.2 3.3 2
v 0 3.3 2
v 0.1 3.3 2
v 0.2 3.3 2
v 0.3 3.3 2
v 0.2 3.3 1.9
v 0.3 3.3 1.9
v 0.2 3.3 1.8
v 0.3 3.3 1.8
v 0.2 3.3 1.6
v 0.2 3.3 1.5
v 0.3 3.3 1.5
v 0.2 3.4 2.1
v 0.3 3.4 2.1
v 0.2 3.4 2
v 0.3 3.4 2
v -0.3 3.6 2.1
v -0.1 3.6 2.1
v 0 3.6 2.1
v 0.3 3.6 2.1
v -0.3 3.6 2
v -0.1 3.6 2
v 0 3.6 2
v 0.2 3.6 2
v 0.2 3.6 1.5
v 0.3 3.6 1.5
v -0.3 3.9 2.1
v 0.3 3.9 2.1
v -0.3 3.9 2
v 0.1 3.9 2
v 0.1 3.9 1.9
v 0.2 3.9 1.9
v 0.3 3.9 1.9
v 0.2 3.9 1.8
v 0.3 3.9 1.8
v 0.2 3.9 1.5
v 0.3 3.9 1.5
v -0.2 4.2 2.1
v -0.1 4.2 2.1
v 0 4.2 2.1
v 0.3 4.2 2.1
v -0.2 4.2 2
v -0.1 4.2 2
v 0 4.2 2
v 0.2 4.2 2
v 0.2 4.2 1.5
v 0.3 4.2 1.5
v -0.3 4.3 2.1
v -0.2 4.3 2.1
v -0.3 4.3 2
v -0.2 4.3 2
v 0.2 0.1 2.1
v 0.3 0.1 2.1
v 0.2 0.1 2
v 0.3 0.1 2
v -0.3 0.2 2.1
v 0.2 0.2 2.1
v -0.3 0.2 2
v -0.1 0.2 2
v 0.1 0.2 2
v 0.2 0.2 2
v 0.3 0.2 2
v 0.2 0.2 1.9
v 0.3 0.2 1.9
v 0.2 0.2 1.8
v 0.3 0.2 1.8
v 0.2 0.2 1.5
v 0.3 0.2 1.5
v 0.2 0.4 1.9
v 0.3 0.4 1.9
v 0.2 0.4 1.7
v 0.3 0.4 1.7
v -0.3 0.5 2.1
v -0.1 0.5 2.1
v 0 0.5 2.1
v 0.3 0.5 2.1
v -0.3 0.5 2
v -0.1 0.5 2
v 0 0.5 2
v 0.1 0.5 2
v 0.2 0.5 2
v 0.2 0.5 1.9
v 0.3 0.5 1.9
v 0.2 0.5 1.7
v 0.3 0.5 1.7
v 0.2 0.5 1.5
v 0.3 0.5 1.5
v -0.3 0.8 2.1
v 0.3 0.8 2.1
v -0.3 0.8 2
v -0.2 0.8 2
v 0 0.8 2
v 0.1 0.8 2
v 0.1 0.8 1.9
v 0.2 0.8 1.9
v 0.3 0.8 1.9
v 0.2 0.8 1.8
v 0.3 0.8 1.8
v 0.2 0.8 1.5
v 0.3 0.8 1.5
v -0.3 1.1 2.1
v 0.3 1.1 2.1
v -0.3 1.1 2
v 0.2 1.1 2
v 0.2 1.1 1.9
v 0.3 1.1 1.9
v 0.2 1.1 1.8
v 0.3 1.1 1.8
v 0.2 1.1 1.5
v 0.3 1.1 1.5
v -0.1 1.3 2
v 0 1.3 2
v -0.1 1.3 1.9
v 0 1.3 1.9
v -0.3 1.4 2.1
v -0.1 1.4 2.1
v 0 1.4 2.1
v 0.3 1.4 2.1
v -0.3 1.4 2
v -0.1 1.4 2
v 0 1.4 2
v 0.2 1.4 2
v 0.2 1.4 1.9
v 0.2 1.4 1.6
v 0.2 1.4 1.5
v 0.3 1.4 1.5
v -0.3 1.7 2.1
v 0.3 1.7 2.1
v -0.3 1.7 2
v 0.2 1.7 2
v 0.2 1.7 1.9
v 0.3 1.7 1.9
v 0.2 1.7 1.8
v 0.3 1.7 1.8
v 0.2 1.7 1.6
v 0.2 1.7 1.5
v 0.3 1.7 1.5
v -0.3 2 2.1
v -0.1 2 2.1
v 0 2 2.1
v 0.3 2 2.1
v -0.3 2 2
v -0.1 2 2
v 0 2 2
v 0.2 2 2
v 0.2 2 1.9
v 0.2 2 1.5
v 0.3 2 1.5
v 0.1 2.2 2.1
v 0.3 2.2 2.1
v 0.1 2.2 2
v 0.3 2.2 2
v -0.3 2.3 2.1
v 0.1 2.3 2.1
v -0.3 2.3 2
v -0.1 2.3 2
v 0.1 2.3 2
v 0.2 2.3 2
v 0.3 2.3 2
v 0.2 2.3 1.9
v 0.3 2.3 1.9
v 0.2 2.3 1.8
v 0.3 2.3 1.8
v 0.2 2.3 1.5
v 0.3 2.3 1.5
v -0.3 2.6 2.1
v -0.1 2.6 2.1
v 0 2.6 2.1
v 0.3 2.6 2.1
v -0.3 2.6 2
v -0.1 2.6 2
v 0 2.6 2
v 0.2 2.6 2
v 0.2 2.6 1.8
v 0.2 2.6 1.5
v 0.3 2.6 1.5
v -0.3 2.9 2.1
v 0.3 2.9 2.1
v -0.3 2.9 2
v 0 2.9 2
v 0 2.9 1.9
v 0.1 2.9 1.9
v 0.2 2.9 1.9
v 0.3 2.9 1.9
v 0.2 2.9 1.8
v 0.3 2.9 1.8
v 0.2 2.9 1.6
v 0.2 2.9 1.5
v 0.3 2.9 1.5
v -0.3 3.2 2.1
v -0.1 3.2 2.1
v 0 3.2 2.1
v 0.3 3.2 2.1
v -0.3 3.2 2
v -0.2 3.2 2
v -0.1 3.2 2
v 0 3.2 2
v 0.1 3.2 2
v 0.2 3.2 2
v 0.2 3.2 1.6
v 0.2 3.2 1.5
v 0.3 3.2 1.5
v -0.3 3.5 2.1
v 0.3 3.5 2.1
v -0.3 3.5 2
v 0.2 3.5 2
v 0.2 3.5 1.9
v 0.3 3.5 1.9
v 0.2 3.5 1.8
v 0.3 3.5 1.8
v 0.2 3.5 1.5
v 0.3 3.5 1.5
v -0.3 3.8 2.1
v -0.1 3.8 2.1
v 0 3.8 2.1
v 0.3 3.8 2.1
v -0.3 3.8 2
v -0.1 3.8 2
v 0 3.8 2
v 0.1 3.8 2
v 0.1 3.8 1.9
v 0.2 3.8 1.9
v 0.2 3.8 1.5
v 0.3 3.8 1.5
v 0.2 4 1.8
v 0.3 4 1.8
v 0.2 4 1.7
v 0.3 4 1.7
v -0.3 4.1 2.1
v 0.3 4.1 2.1
v -0.3 4.1 2
v 0.2 4.1 2
v 0.2 4.1 1.9
v 0.3 4.1 1.9
v 0.2 4.1 1.7
v 0.3 4.1 1.7
v 0.2 4.1 1.5
v 0.3 4.1 1.5
v -0.3 4.4 2.1
v -0.1 4.4 2.1
v 0 4.4 2.1
v 0.3 4.4 2.1
v -0.3 4.4 2
v -0.1 4.4 2
v 0 4.4 2
v 0.2 4.4 2
v 0.2 4.4 1.5
v 0.3 4.4 1.5
v -0.3 4.5 2
v 0.2 4.5 2
v -0.3 4.5 1.5
v 0.2 4.5 1.5

# faces
f 5/3/1 2/3/1 1/3/1
f 6/3/1 2/3/1 5/3/1
f 7/1/1 3/1/1 2/1/1
f 7/3/1 2/3/1 6/3/1
f 8/3/1 4/3/1 3/3/1
f 8/1/1 3/1/1 7/1/1
f 9/3/1 4/3/1 8/3/1
f 11/1/1 7/1/1 6/1/1
f 11/1/1 9/1/1 8/1/1
f 11/1/1 8/1/1 7/1/1
f 12/1/1 9/1/1 11/1/1
f 13/5/1 11/5/1 10/5/1
f 13/5/1 12/5/1 11/5/1
f 14/5/1 12/5/1 13/5/1
f 15/5/1 12/5/1 14/5/1
f 17/1/1 15/1/1 14/1/1
f 18/1/1 15/1/1 17/1/1
f 19/1/1 15/1/1 18/1/1
f 20/1/1 15/1/1 19/1/1
f 21/3/1 17/3/1 16/3/1
f 21/3/1 18/3/1 17/3/1
f 22/3/1 18/3/1 21/3/1
f 23/1/1 19/1/1 18/1/1
f 23/3/1 18/3/1 22/3/1
f 24/3/1 20/3/1 19/3/1
f 24/1/1 19/1/1 23/1/1
f 25/3/1 20/3/1 24/3/1
f 26/1/1 23/1/1 22/1/1
f 26/1/1 25/1/1 24/1/1
f 26/1/1 24/1/1 23/1/1
f 27/1/1 25/1/1 26/1/1
f 28/1/1 25/1/1 27/1/1
f 29/1/1 25/1/1 28/1/1
f 31/3/1 27/3/1 26/3/1
f 32/3/1 31/3/1 30/3/1
f 33/3/1 27/3/1 31/3/1
f 33/3/1 31/3/1 32/3/1
f 34/1/1 28/1/1 27/1/1
f 34/3/1 27/3/1 33/3/1
f 35/4/1 29/4/1 28/4/1
f 35/1/1 28/1/1 34/1/1
f 36/4/1 29/4/1 35/4/1
f 38/1/1 34/1/1 33/1/1
f 38/1/1 36/1/1 35/1/1
f 38/1/1 35/1/1 34/1/1
f 39/1/1 36/1/1 38/1/1
f 40/3/1 38/3/1 37/3/1
f 40/3/1 39/3/1 38/3/1
f 41/3/1 39/3/1 40/3/1
f 42/3/1 39/3/1 41/3/1
f 44/1/1 42/1/1 41/1/1
f 45/1/1 42/1/1 44/1/1
f 46/1/1 42/1/1 45/1/1
f 47/1/1 42/1/1 46/1/1
f 48/4/1 44/4/1 43/4/1
f 48/4/1 45/4/1 44/4/1
f 49/4/1 45/4/1 48/4/1
f 50/1/1 46/1/1 45/1/1
f 50/4/1 45/4/1 49/4/1
f 51/3/1 47/3/1 46/3/1
f 51/1/1 46/1/1 50/1/1
f 52/3/1 47/3/1 51/3/1
f 54/1/1 50/1/1 49/1/1
f 54/1/1 52/1/1 51/1/1
f 54/1/1 51/1/1 50/1/1
f 55/1/1 52/1/1 54/1/1
f 56/3/1 54/3/1 53/3/1
f 56/3/1 55/3/1 54/3/1
f 57/3/1 55/3/1 56/3/1
f 58/3/1 55/3/1 57/3/1
f 60/1/1 58/1/1 57/1/1
f 61/1/1 58/1/1 60/1/1
f 62/1/1 58/1/1 61/1/1
f 63/1/1 58/1/1 62/1/1
f 64/3/1 60/3/1 59/3/1
f 64/3/1 61/3/1 60/3/1
f 65/3/1 61/3/1 64/3/1
f 66/1/1 62/1/1 61/1/1
f 66/3/1 61/3/1 65/3/1
f 67/3/1 63/3/1 62/3/1
f 67/1/1 62/1/1 66/1/1
f 68/3/1 63/3/1 67/3/1
f 70/1/1 66/1/1 65/1/1
f 70/1/1 68/1/1 67/1/1
f 70/1/1 67/1/1 66/1/1
f 71/1/1 68/1/1 70/1/1
f 72/4/1 70/4/1 69/4/1
f 72/4/1 71/4/1 70/4/1
f 73/4/1 71/4/1 72/4/1
f 74/4/1 71/4/1 73/4/1
f 75/4/1 71/4/1 74/4/1
f 77/2/1 74/2/1 73/2/1
f 78/1/1 75/1/1 74/1/1
f 78/2/1 74/2/1 77/2/1
f 79/1/1 75/1/1 78/1/1
f 80/1/1 75/1/1 79/1/1
f 81/5/1 77/5/1 76/5/1
f 81/5/1 78/5/1 77/5/1
f 82/5/1 78/5/1 81/5/1
f 83/1/1 79/1/1 78/1/1
f 83/5/1 78/5/1 82/5/1
f 84/4/1 80/4/1 79/4/1
f 84/1/1 79/1/1 83/1/1
f 85/4/1 80/4/1 84/4/1
f 87/1/1 83/1/1 82/1/1
f 87/1/1 85/1/1 84/1/1
f 87/1/1 84/1/1 83/1/1
f 88/1/1 85/1/1 87/1/1
f 89/3/1 87/3/1 86/3/1
f 89/3/1 88/3/1 87/3/1
f 90/3/1 88/3/1 89/3/1
f 91/3/1 88/3/1 90/3/1
f 93/1/1 91/1/1 90/1/1
f 94/1/1 91/1/1 93/1/1
f 95/1/1 91/1/1 94/1/1
f 96/1/1 91/1/1 95/1/1
f 97/3/1 93/3/1 92/3/1
f 97/3/1 94/3/1 93/3/1
f 98/3/1 94/3/1 97/3/1
f 99/1/1 95/1/1 94/1/1
f 99/3/1 94/3/1 98/3/1
f 100/3/1 96/3/1 95/3/1
f 100/1/1 95/1/1 99/1/1
f 101/3/1 96/3/1 100/3/1
f 103/1/1 99/1/1 98/1/1
f 103/1/1 101/1/1 100/1/1
f 103/1/1 100/1/1 99/1/1
f 104/1/1 101/1/1 103/1/1
f 105/3/1 103/3/1 102/3/1
f 105/3/1 104/3/1 103/3/1
f 106/3/1 104/3/1 105/3/1
f 107/3/1 104/3/1 106/3/1
f 109/1/1 107/1/1 106/1/1
f 110/1/1 107/1/1 109/1/1
f 111/1/1 107/1/1 110/1/1
f 112/1/1 107/1/1 111/1/1
f 113/3/1 109/3/1 108/3/1
f 113/3/1 110/3/1 109/3/1
f 114/3/1 110/3/1 113/3/1
f 115/1/1 111/1/1 110/1/1
f 115/3/1 110/3/1 114/3/1
f 116/5/1 112/5/1 111/5/1
f 116/1/1 111/1/1 115/1/1
f 117/5/1 112/5/1 116/5/1
f 118/1/1 115/1/1 114/1/1
f 118/1/1 117/1/1 116/1/1
f 118/1/1 116/1/1 115/1/1
f 119/1/1 117/1/1 118/1/1
f 121/4/1 119/4/1 118/4/1
f 122/4/1 121/4/1 120/4/1
f 123/4/1 119/4/1 121/4/1
f 123/4/1 121/4/1 122/4/1
f 124/4/1 119/4/1 123/4/1
f 125/1/1 124/1/1 123/1/1
f 126/1/1 124/1/1 125/1/1
f 129/4/1 128/4/1 127/4/1
f 130/4/1 128/4/1 129/4/1
f 133/3/1 132/3/1 131/3/1
f 134/3/1 132/3/1 133/3/1
f 137/4/1 136/4/1 135/4/1
f 138/4/1 136/4/1 137/4/1
f 141/5/1 140/5/1 139/5/1
f 143/5/1 141/5/1 139/5/1
f 143/5/1 142/5/1 141/5/1
f 144/5/1 142/5/1 143/5/1
f 145/5/1 142/5/1 144/5/1
f 146/1/1 145/1/1 144/1/1
f 147/1/1 145/1/1 146/1/1
f 150/3/1 149/3/1 148/3/1
f 151/3/1 149/3/1 150/3/1
f 154/4/1 153/4/1 152/4/1
f 155/4/1 153/4/1 154/4/1
f 158/3/1 157/3/1 156/3/1
f 159/3/1 157/3/1 158/3/1
f 162/4/1 161/4/1 160/4/1
f 163/4/1 161/4/1 162/4/1
f 166/3/1 165/3/1 164/3/1
f 167/3/1 165/3/1 166/3/1
f 168/5/2 169/5/2 170/5/2
f 170/5/2 169/5/2 171/5/2
f 172/3/2 173/3/2 174/3/2
f 172/3/2 174/3/2 176/3/2
f 174/3/2 175/3/2 176/3/2
f 176/3/2 175/3/2 177/3/2
f 177/3/2 175/3/2 178/3/2
f 177/1/2 178/1/2 179/1/2
f 179/1/2 178/1/2 180/1/2
f 181/3/2 182/3/2 183/3/2
f 183/3/2 182/3/2 184/3/2
f 185/4/2 186/4/2 187/4/2
f 187/4/2 186/4/2 188/4/2
f 189/3/2 190/3/2 191/3/2
f 191/3/2 190/3/2 192/3/2
f 193/3/2 194/3/2 195/3/2
f 195/3/2 194/3/2 196/3/2
f 197/4/2 198/4/2 199/4/2
f 199/4/2 198/4/2 200/4/2
f 201/1/2 202/1/2 203/1/2
f 203/1/2 202/1/2 204/1/2
f 205/1/2 206/1/2 207/1/2
f 207/1/2 206/1/2 208/1/2
f 209/3/2 210/3/2 211/3/2
f 211/3/2 210/3/2 212/3/2
f 213/1/2 214/1/2 215/1/2
f 215/1/2 214/1/2 216/1/2
f 217/1/2 218/1/2 221/1/2
f 221/1/2 218/1/2 222/1/2
f 219/3/2 220/3/2 223/3/2
f 223/3/2 220/3/2 224/3/2
f 221/2/2 222/2/2 225/2/2
f 225/2/2 222/2/2 226/2/2
f 224/1/2 225/1/2 228/1/2
f 225/2/2 226/2/2 229/2/2
f 228/1/2 225/1/2 229/1/2
f 226/1/2 227/1/2 230/1/2
f 229/2/2 226/2/2 230/2/2
f 230/1/2 227/1/2 231/1/2
f 232/4/2 233/4/2 235/4/2
f 235/4/2 233/4/2 236/4/2
f 236/4/2 233/4/2 237/4/2
f 234/2/2 235/2/2 239/2/2
f 235/2/2 236/2/2 239/2/2
f 239/2/2 236/2/2 240/2/2
f 237/1/2 238/1/2 241/1/2
f 240/2/2 236/2/2 241/2/2
f 236/1/2 237/1/2 241/1/2
f 241/1/2 238/1/2 242/1/2
f 240/2/2 241/2/2 243/2/2
f 243/2/2 241/2/2 244/2/2
f 243/1/2 244/1/2 245/1/2
f 245/1/2 244/1/2 246/1/2
f 245/1/2 246/1/2 248/1/2
f 246/1/2 247/1/2 248/1/2
f 248/1/2 247/1/2 249/1/2
f 249/1/2 247/1/2 250/1/2
f 248/2/2 249/2/2 252/2/2
f 252/2/2 249/2/2 253/2/2
f 251/1/2 252/1/2 255/1/2
f 253/1/2 254/1/2 255/1/2
f 252/1/2 253/1/2 255/1/2
f 255/1/2 254/1/2 256/1/2
f 257/1/2 258/1/2 262/1/2
f 258/2/2 259/2/2 263/2/2
f 262/1/2 258/1/2 263/1/2
f 263/2/2 259/2/2 264/2/2
f 259/1/2 260/1/2 265/1/2
f 264/2/2 259/2/2 265/2/2
f 265/1/2 260/1/2 266/1/2
f 261/4/2 262/4/2 267/4/2
f 267/4/2 262/4/2 268/4/2
f 263/1/2 264/1/2 270/1/2
f 270/1/2 264/1/2 271/1/2
f 269/1/2 270/1/2 274/1/2
f 270/2/2 271/2/2 275/2/2
f 274/1/2 270/1/2 275/1/2
f 271/2/2 272/2/2 275/2/2
f 272/1/2 273/1/2 276/1/2
f 275/2/2 272/2/2 276/2/2
f 276/1/2 273/1/2 277/1/2
f 278/1/2 279/1/2 281/1/2
f 279/2/2 280/2/2 282/2/2
f 281/1/2 279/1/2 282/1/2
f 282/2/2 280/2/2 283/2/2
f 283/2/2 280/2/2 284/2/2
f 282/1/2 283/1/2 286/1/2
f 286/1/2 283/1/2 287/1/2
f 285/2/2 286/2/2 289/2/2
f 286/2/2 287/2/2 289/2/2
f 287/1/2 288/1/2 290/1/2
f 289/2/2 287/2/2 290/2/2
f 290/1/2 288/1/2 291/1/2
f 292/1/2 293/1/2 295/1/2
f 295/1/2 293/1/2 296/1/2
f 293/2/2 294/2/2 297/2/2
f 296/1/2 293/1/2 297/1/2
f 297/2/2 294/2/2 298/2/2
f 296/1/2 297/1/2 299/1/2
f 299/1/2 297/1/2 300/1/2
f 299/2/2 300/2/2 304/2/2
f 300/2/2 301/2/2 304/2/2
f 301/1/2 302/1/2 305/1/2
f 304/2/2 301/2/2 305/2/2
f 305/1/2 302/1/2 306/1/2
f 303/3/2 304/3/2 307/3/2
f 307/3/2 304/3/2 308/3/2
f 309/2/2 310/2/2 313/2/2
f 313/2/2 310/2/2 314/2/2
f 314/2/2 310/2/2 315/2/2
f 310/1/2 311/1/2 316/1/2
f 315/2/2 310/2/2 316/2/2
f 316/1/2 311/1/2 317/1/2
f 312/3/2 313/3/2 318/3/2
f 318/3/2 313/3/2 319/3/2
f 314/1/2 315/1/2 321/1/2
f 321/1/2 315/1/2 322/1/2
f 320/1/2 321/1/2 324/1/2
f 322/1/2 323/1/2 324/1/2
f 321/1/2 322/1/2 324/1/2
f 324/1/2 323/1/2 325/1/2
f 326/1/2 327/1/2 328/1/2
f 328/1/2 327/1/2 329/1/2
f 329/1/2 327/1/2 330/1/2
f 328/1/2 329/1/2 331/1/2
f 328/1/2 331/1/2 334/1/2
f 331/5/2 332/5/2 335/5/2
f 334/1/2 331/1/2 335/1/2
f 335/5/2 332/5/2 336/5/2
f 333/1/2 334/1/2 338/1/2
f 336/1/2 337/1/2 338/1/2
f 335/1/2 336/1/2 338/1/2
f 334/1/2 335/1/2 338/1/2
f 338/1/2 337/1/2 339/1/2
f 340/1/2 341/1/2 342/1/2
f 342/1/2 341/1/2 343/1/2
f 344/3/2 345/3/2 348/3/2
f 348/3/2 345/3/2 349/3/2
f 349/3/2 345/3/2 350/3/2
f 350/3/2 345/3/2 351/3/2
f 346/3/2 347/3/2 352/3/2
f 352/3/2 347/3/2 353/3/2
f 354/4/2 355/4/2 356/4/2
f 356/4/2 355/4/2 357/4/2
f 354/4/2 356/4/2 358/4/2
f 358/4/2 356/4/2 359/4/2
f 357/4/2 355/4/2 360/4/2
f 360/4/2 355/4/2 361/4/2
f 362/3/2 363/3/2 366/3/2
f 366/3/2 363/3/2 367/3/2
f 364/3/2 365/3/2 368/3/2
f 368/3/2 365/3/2 369/3/2
f 370/3/2 371/3/2 374/3/2
f 374/3/2 371/3/2 375/3/2
f 372/4/2 373/4/2 376/4/2
f 376/4/2 373/4/2 377/4/2
f 378/5/2 379/5/2 380/5/2
f 380/5/2 379/5/2 381/5/2
f 382/4/2 383/4/2 387/4/2
f 386/4/2 387/4/2 388/4/2
f 387/4/2 383/4/2 389/4/2
f 388/4/2 387/4/2 389/4/2
f 384/3/2 385/3/2 390/3/2
f 390/3/2 385/3/2 391/3/2
f 392/3/2 393/3/2 394/3/2
f 394/3/2 393/3/2 395/3/2
f 396/3/2 397/3/2 400/3/2
f 400/3/2 397/3/2 401/3/2
f 401/3/2 397/3/2 402/3/2
f 402/3/2 397/3/2 403/3/2
f 398/3/2 399/3/2 404/3/2
f 404/3/2 399/3/2 405/3/2
f 406/4/2 407/4/2 408/4/2
f 408/4/2 407/4/2 409/4/2
f 410/5/2 411/5/2 414/5/2
f 414/5/2 411/5/2 415/5/2
f 412/4/2 413/4/2 416/4/2
f 416/4/2 413/4/2 417/4/2
f 418/3/2 419/3/2 422/3/2
f 420/3/2 421/3/2 423/3/2
f 418/3/2 422/3/2 424/3/2
f 422/3/2 423/3/2 424/3/2
f 423/3/2 421/3/2 425/3/2
f 424/3/2 423/3/2 425/3/2
f 426/3/2 427/3/2 431/3/2
f 430/3/2 431/3/2 432/3/2
f 431/3/2 427/3/2 433/3/2
f 432/3/2 431/3/2 433/3/2
f 428/3/2 429/3/2 434/3/2
f 434/3/2 429/3/2 435/3/2
f 436/4/2 437/4/2 438/4/2
f 438/4/2 437/4/2 439/4/2
f 442/5/2 443/5/2 444/5/2
f 444/5/2 443/5/2 445/5/2
f 440/3/2 441/3/2 446/3/2
f 446/3/2 441/3/2 447/3/2
f 445/5/2 443/5/2 448/5/2
f 448/5/2 443/5/2 449/5/2
f 450/3/2 451/3/2 452/3/2
f 452/3/2 451/3/2 453/3/2
f 485/4/3 483/4/3 482/4/3
f 486/5/3 457/5/3 456/5/3
f 487/5/3 457/5/3 486/5/3
f 489/3/3 461/3/3 460/3/3
f 490/3/3 463/3/3 462/3/3
f 491/3/3 463/3/3 490/3/3
f 492/3/3 467/3/3 466/3/3
f 493/3/3 467/3/3 492/3/3
f 494/4/3 471/4/3 470/4/3
f 495/4/3 471/4/3 494/4/3
f 496/3/3 475/3/3 474/3/3
f 497/3/3 475/3/3 496/3/3
f 498/3/3 479/3/3 478/3/3
f 499/3/3 479/3/3 498/3/3
f 500/4/3 485/4/3 484/4/3
f 501/4/3 483/4/3 485/4/3
f 501/4/3 485/4/3 500/4/3
f 516/3/3 469/3/3 468/3/3
f 517/3/3 469/3/3 516/3/3
f 518/3/3 455/3/3 454/3/3
f 519/3/3 455/3/3 518/3/3
f 520/4/3 465/4/3 464/4/3
f 521/4/3 465/4/3 520/4/3
f 522/3/3 477/3/3 476/3/3
f 523/3/3 477/3/3 522/3/3
f 524/3/3 518/3/3 454/3/3
f 525/3/3 518/3/3 524/3/3
f 526/4/3 503/4/3 502/4/3
f 527/4/3 503/4/3 526/4/3
f 528/3/3 459/3/3 458/3/3
f 529/3/3 459/3/3 528/3/3
f 530/3/3 489/3/3 488/3/3
f 531/3/3 461/3/3 489/3/3
f 531/3/3 489/3/3 530/3/3
f 532/5/3 505/5/3 504/5/3
f 533/5/3 505/5/3 532/5/3
f 534/4/3 465/4/3 521/4/3
f 535/4/3 465/4/3 534/4/3
f 536/3/3 507/3/3 506/3/3
f 537/3/3 507/3/3 536/3/3
f 538/3/3 516/3/3 468/3/3
f 539/3/3 516/3/3 538/3/3
f 540/4/3 509/4/3 508/4/3
f 541/4/3 509/4/3 540/4/3
f 542/5/3 473/5/3 472/5/3
f 543/5/3 473/5/3 542/5/3
f 544/3/3 511/3/3 510/3/3
f 545/3/3 511/3/3 544/3/3
f 546/3/3 477/3/3 523/3/3
f 547/3/3 477/3/3 546/3/3
f 548/4/3 513/4/3 512/4/3
f 549/4/3 513/4/3 548/4/3
f 550/3/3 481/3/3 480/3/3
f 551/3/3 481/3/3 550/3/3
f 552/3/3 515/3/3 514/3/3
f 553/3/3 515/3/3 552/3/3
f 586/1/3 559/1/3 558/1/3
f 587/3/3 560/3/3 559/3/3
f 587/1/3 559/1/3 586/1/3
f 588/1/3 576/1/3 575/1/3
f 589/1/3 576/1/3 588/1/3
f 590/1/3 582/1/3 581/1/3
f 590/4/3 583/4/3 582/4/3
f 591/4/3 583/4/3 590/4/3
f 592/1/3 555/1/3 554/1/3
f 593/1/3 555/1/3 592/1/3
f 594/1/3 557/1/3 556/1/3
f 595/1/3 557/1/3 594/1/3
f 596/3/3 560/3/3 587/3/3
f 596/2/3 587/2/3 586/2/3
f 597/3/3 560/3/3 596/3/3
f 598/1/3 562/1/3 561/1/3
f 600/1/3 564/1/3 563/1/3
f 601/1/3 564/1/3 600/1/3
f 602/1/3 566/1/3 565/1/3
f 603/1/3 568/1/3 567/1/3
f 604/1/3 570/1/3 569/1/3
f 605/1/3 570/1/3 604/1/3
f 606/2/3 572/2/3 571/2/3
f 607/1/3 574/1/3 573/1/3
f 608/2/3 589/2/3 588/2/3
f 609/1/3 578/1/3 577/1/3
f 610/1/3 580/1/3 579/1/3
f 611/1/3 590/1/3 581/1/3
f 612/1/3 585/1/3 584/1/3
f 613/2/3 593/2/3 592/2/3
f 613/2/3 595/2/3 594/2/3
f 613/2/3 594/2/3 593/2/3
f 614/2/3 595/2/3 613/2/3
f 615/2/3 595/2/3 614/2/3
f 616/2/3 596/2/3 586/2/3
f 617/2/3 596/2/3 616/2/3
f 618/2/3 599/2/3 598/2/3
f 618/1/3 598/1/3 561/1/3
f 619/2/3 599/2/3 618/2/3
f 622/1/3 602/1/3 565/1/3
f 622/1/3 603/1/3 602/1/3
f 623/1/3 568/1/3 603/1/3
f 623/1/3 603/1/3 622/1/3
f 624/2/3 605/2/3 604/2/3
f 624/1/3 606/1/3 605/1/3
f 625/2/3 572/2/3 606/2/3
f 625/1/3 606/1/3 624/1/3
f 626/2/3 572/2/3 625/2/3
f 627/1/3 608/1/3 607/1/3
f 627/1/3 607/1/3 573/1/3
f 628/1/3 608/1/3 627/1/3
f 629/2/3 589/2/3 608/2/3
f 629/1/3 608/1/3 628/1/3
f 630/2/3 589/2/3 629/2/3
f 631/1/3 609/1/3 577/1/3
f 631/1/3 610/1/3 609/1/3
f 632/1/3 580/1/3 610/1/3
f 632/1/3 610/1/3 631/1/3
f 633/1/3 611/1/3 581/1/3
f 633/1/3 612/1/3 611/1/3
f 634/1/3 585/1/3 612/1/3
f 634/1/3 612/1/3 633/1/3
f 635/2/3 613/2/3 592/2/3
f 636/2/3 613/2/3 635/2/3
f 637/1/3 615/1/3 614/1/3
f 638/1/3 615/1/3 637/1/3
f 639/1/3 617/1/3 616/1/3
f 640/1/3 617/1/3 639/1/3
f 642/2/3 624/2/3 604/2/3
f 643/1/3 630/1/3 629/1/3
f 644/1/3 630/1/3 643/1/3
f 645/1/3 580/1/3 632/1/3
f 646/1/3 580/1/3 645/1/3
f 648/1/3 636/1/3 635/1/3
f 649/1/3 636/1/3 648/1/3
f 650/2/3 638/2/3 637/2/3
f 651/2/3 638/2/3 650/2/3
f 652/1/3 618/1/3 561/1/3
f 653/1/3 618/1/3 652/1/3
f 654/1/3 621/1/3 620/1/3
f 655/1/3 621/1/3 654/1/3
f 657/1/3 622/1/3 565/1/3
f 658/1/3 622/1/3 657/1/3
f 659/1/3 568/1/3 623/1/3
f 660/1/3 568/1/3 659/1/3
f 661/3/3 642/3/3 641/3/3
f 661/2/3 624/2/3 642/2/3
f 662/2/3 624/2/3 661/2/3
f 663/1/3 626/1/3 625/1/3
f 664/1/3 626/1/3 663/1/3
f 665/2/3 644/2/3 643/2/3
f 666/2/3 644/2/3 665/2/3
f 668/1/3 631/1/3 577/1/3
f 669/1/3 631/1/3 668/1/3
f 670/1/3 633/1/3 581/1/3
f 671/1/3 633/1/3 670/1/3
f 672/1/3 585/1/3 634/1/3
f 673/1/3 585/1/3 672/1/3
f 674/3/3 648/3/3 647/3/3
f 675/3/3 648/3/3 674/3/3
f 676/4/3 656/4/3 655/4/3
f 677/4/3 656/4/3 676/4/3
f 678/3/3 661/3/3 641/3/3
f 679/3/3 661/3/3 678/3/3
f 680/3/3 667/3/3 666/3/3
f 681/3/3 667/3/3 680/3/3
f 685/1/3 683/1/3 682/1/3
f 685/1/3 684/1/3 683/1/3
f 686/1/3 684/1/3 685/1/3
f 687/1/3 684/1/3 686/1/3
f 692/1/3 689/1/3 688/1/3
f 693/1/3 689/1/3 692/1/3
f 696/1/3 691/1/3 690/1/3
f 697/1/3 691/1/3 696/1/3
f 698/2/3 693/2/3 692/2/3
f 699/2/3 693/2/3 698/2/3
f 701/1/3 695/1/3 694/1/3
f 702/1/3 695/1/3 701/1/3
f 703/3/3 700/3/3 699/3/3
f 704/3/3 700/3/3 703/3/3
f 723/3/3 706/3/3 705/3/3
f 723/3/3 707/3/3 706/3/3
f 724/3/3 707/3/3 723/3/3
f 725/3/3 709/3/3 708/3/3
f 725/3/3 710/3/3 709/3/3
f 726/3/3 710/3/3 725/3/3
f 727/4/3 712/4/3 711/4/3
f 728/4/3 712/4/3 727/4/3
f 729/3/3 714/3/3 713/3/3
f 730/3/3 714/3/3 729/3/3
f 731/3/3 716/3/3 715/3/3
f 732/3/3 716/3/3 731/3/3
f 733/4/3 718/4/3 717/4/3
f 734/4/3 718/4/3 733/4/3
f 735/3/3 720/3/3 719/3/3
f 736/3/3 720/3/3 735/3/3
f 737/5/3 722/5/3 721/5/3
f 738/5/3 722/5/3 737/5/3
f 743/4/3 740/4/3 739/4/3
f 744/4/3 740/4/3 743/4/3
f 745/5/3 742/5/3 741/5/3
f 746/5/3 742/5/3 745/5/3
f 747/3/4 748/3/4 749/3/4
f 749/3/4 748/3/4 750/3/4
f 751/3/4 752/3/4 771/3/4
f 752/3/4 753/3/4 771/3/4
f 771/3/4 753/3/4 772/3/4
f 754/4/4 755/4/4 773/4/4
f 773/4/4 755/4/4 774/4/4
f 756/3/4 757/3/4 775/3/4
f 757/3/4 758/3/4 775/3/4
f 775/3/4 758/3/4 776/3/4
f 759/3/4 760/3/4 777/3/4
f 777/3/4 760/3/4 778/3/4
f 761/4/4 762/4/4 779/4/4
f 779/4/4 762/4/4 780/4/4
f 763/3/4 764/3/4 781/3/4
f 781/3/4 764/3/4 782/3/4
f 765/5/4 766/5/4 783/5/4
f 783/5/4 766/5/4 784/5/4
f 767/3/4 768/3/4 785/3/4
f 785/3/4 768/3/4 786/3/4
f 769/3/4 770/3/4 787/3/4
f 787/3/4 770/3/4 788/3/4
f 790/1/4 791/1/4 820/1/4
f 791/5/4 792/5/4 820/5/4
f 792/1/4 793/1/4 821/1/4
f 820/5/4 792/5/4 821/5/4
f 796/1/4 797/1/4 822/1/4
f 797/3/4 798/3/4 822/3/4
f 798/1/4 799/1/4 823/1/4
f 822/3/4 798/3/4 823/3/4
f 800/1/4 801/1/4 824/1/4
f 801/3/4 802/3/4 824/3/4
f 802/1/4 803/1/4 825/1/4
f 824/3/4 802/3/4 825/3/4
f 804/1/4 805/1/4 826/1/4
f 805/4/4 806/4/4 826/4/4
f 806/1/4 807/1/4 827/1/4
f 826/4/4 806/4/4 827/4/4
f 808/1/4 809/1/4 828/1/4
f 809/3/4 810/3/4 828/3/4
f 810/1/4 811/1/4 829/1/4
f 828/3/4 810/3/4 829/3/4
f 812/1/4 813/1/4 830/1/4
f 813/3/4 814/3/4 830/3/4
f 814/1/4 815/1/4 831/1/4
f 830/3/4 814/3/4 831/3/4
f 817/4/4 818/4/4 832/4/4
f 816/1/4 817/1/4 832/1/4
f 818/1/4 819/1/4 833/1/4
f 832/4/4 818/4/4 833/4/4
f 790/1/4 820/1/4 834/1/4
f 820/1/4 821/1/4 834/1/4
f 821/1/4 793/1/4 835/1/4
f 834/1/4 821/1/4 835/1/4
f 796/1/4 822/1/4 836/1/4
f 822/1/4 823/1/4 836/1/4
f 823/1/4 799/1/4 837/1/4
f 836/1/4 823/1/4 837/1/4
f 800/1/4 824/1/4 838/1/4
f 824/1/4 825/1/4 838/1/4
f 825/1/4 803/1/4 839/1/4
f 838/1/4 825/1/4 839/1/4
f 804/1/4 826/1/4 840/1/4
f 826/1/4 827/1/4 840/1/4
f 827/1/4 807/1/4 841/1/4
f 840/1/4 827/1/4 841/1/4
f 808/1/4 828/1/4 842/1/4
f 828/1/4 829/1/4 842/1/4
f 829/1/4 811/1/4 843/1/4
f 842/1/4 829/1/4 843/1/4
f 812/1/4 830/1/4 844/1/4
f 830/1/4 831/1/4 844/1/4
f 831/1/4 815/1/4 845/1/4
f 844/1/4 831/1/4 845/1/4
f 816/1/4 832/1/4 846/1/4
f 832/1/4 833/1/4 846/1/4
f 833/1/4 819/1/4 847/1/4
f 846/1/4 833/1/4 847/1/4
f 839/1/4 803/1/4 848/1/4
f 838/3/4 839/3/4 848/3/4
f 803/3/4 804/3/4 849/3/4
f 848/1/4 803/1/4 849/1/4
f 841/1/4 807/1/4 850/1/4
f 840/4/4 841/4/4 850/4/4
f 807/4/4 808/4/4 851/4/4
f 850/1/4 807/1/4 851/1/4
f 789/3/4 790/3/4 852/3/4
f 790/1/4 834/1/4 852/1/4
f 834/4/4 835/4/4 853/4/4
f 852/1/4 834/1/4 853/1/4
f 835/1/4 793/1/4 854/1/4
f 853/4/4 835/4/4 854/4/4
f 793/3/4 794/3/4 855/3/4
f 854/1/4 793/1/4 855/1/4
f 794/1/4 795/1/4 856/1/4
f 855/3/4 794/3/4 856/3/4
f 795/4/4 796/4/4 857/4/4
f 856/1/4 795/1/4 857/1/4
f 796/1/4 836/1/4 858/1/4
f 857/4/4 796/4/4 858/4/4
f 836/5/4 837/5/4 859/5/4
f 858/1/4 836/1/4 859/1/4
f 837/1/4 799/1/4 860/1/4
f 859/5/4 837/5/4 860/5/4
f 799/3/4 800/3/4 861/3/4
f 860/1/4 799/1/4 861/1/4
f 800/1/4 838/1/4 862/1/4
f 861/3/4 800/3/4 862/3/4
f 838/3/4 848/3/4 863/3/4
f 862/1/4 838/1/4 863/1/4
f 848/2/4 849/2/4 864/2/4
f 863/3/4 848/3/4 864/3/4
f 849/3/4 804/3/4 865/3/4
f 864/2/4 849/2/4 865/2/4
f 804/1/4 840/1/4 866/1/4
f 865/3/4 804/3/4 866/3/4
f 840/4/4 850/4/4 867/4/4
f 866/1/4 840/1/4 867/1/4
f 850/2/4 851/2/4 868/2/4
f 867/4/4 850/4/4 868/4/4
f 851/4/4 808/4/4 869/4/4
f 868/2/4 851/2/4 869/2/4
f 808/1/4 842/1/4 870/1/4
f 869/4/4 808/4/4 870/4/4
f 842/3/4 843/3/4 871/3/4
f 870/1/4 842/1/4 871/1/4
f 843/1/4 811/1/4 872/1/4
f 871/3/4 843/3/4 872/3/4
f 811/3/4 812/3/4 873/3/4
f 872/1/4 811/1/4 873/1/4
f 812/1/4 844/1/4 874/1/4
f 873/3/4 812/3/4 874/3/4
f 844/4/4 845/4/4 875/4/4
f 874/1/4 844/1/4 875/1/4
f 845/1/4 815/1/4 876/1/4
f 875/4/4 845/4/4 876/4/4
f 815/5/4 816/5/4 877/5/4
f 876/1/4 815/1/4 877/1/4
f 816/1/4 846/1/4 878/1/4
f 877/5/4 816/5/4 878/5/4
f 846/3/4 847/3/4 879/3/4
f 878/1/4 846/1/4 879/1/4
f 847/1/4 819/1/4 880/1/4
f 879/3/4 847/3/4 880/3/4
f 880/1/4 819/1/4 881/1/4
f 789/3/4 852/3/4 882/3/4
f 882/3/4 852/3/4 883/3/4
f 853/4/4 854/4/4 884/4/4
f 884/4/4 854/4/4 885/4/4
f 855/3/4 856/3/4 886/3/4
f 886/3/4 856/3/4 887/3/4
f 857/4/4 858/4/4 888/4/4
f 888/4/4 858/4/4 889/4/4
f 859/5/4 860/5/4 890/5/4
f 890/5/4 860/5/4 891/5/4
f 861/3/4 862/3/4 892/3/4
f 892/3/4 862/3/4 893/3/4
f 863/3/4 864/3/4 894/3/4
f 894/3/4 864/3/4 895/3/4
f 865/3/4 866/3/4 896/3/4
f 896/3/4 866/3/4 897/3/4
f 867/4/4 868/4/4 898/4/4
f 898/4/4 868/4/4 899/4/4
f 869/4/4 870/4/4 900/4/4
f 900/4/4 870/4/4 901/4/4
f 871/3/4 872/3/4 902/3/4
f 902/3/4 872/3/4 903/3/4
f 873/3/4 874/3/4 904/3/4
f 904/3/4 874/3/4 905/3/4
f 875/4/4 876/4/4 906/4/4
f 906/4/4 876/4/4 907/4/4
f 877/5/4 878/5/4 908/5/4
f 908/5/4 878/5/4 909/5/4
f 879/3/4 880/3/4 910/3/4
f 910/3/4 880/3/4 911/3/4
f 914/3/5 913/3/5 912/3/5
f 915/3/5 913/3/5 914/3/5
f 916/3/5 913/3/5 915/3/5
f 917/1/5 915/1/5 914/1/5
f 918/1/5 915/1/5 917/1/5
f 920/3/5 918/3/5 917/3/5
f 920/3/5 919/3/5 918/3/5
f 921/3/5 919/3/5 920/3/5
f 926/5/5 923/5/5 922/5/5
f 927/5/5 923/5/5 926/5/5
f 928/4/5 925/4/5 924/4/5
f 929/4/5 925/4/5 928/4/5
f 930/4/5 925/4/5 929/4/5
f 931/4/5 925/4/5 930/4/5
f 932/4/5 925/4/5 931/4/5
f 933/4/5 925/4/5 932/4/5
f 934/4/5 925/4/5 933/4/5
f 937/3/5 936/3/5 935/3/5
f 938/3/5 936/3/5 937/3/5
f 939/3/5 936/3/5 938/3/5
f 940/3/5 936/3/5 939/3/5
f 941/3/5 936/3/5 940/3/5
f 942/3/5 936/3/5 941/3/5
f 943/3/5 936/3/5 942/3/5
f 946/3/5 945/3/5 944/3/5
f 947/3/5 945/3/5 946/3/5
f 950/3/5 949/3/5 948/3/5
f 951/3/5 949/3/5 950/3/5
f 952/3/5 949/3/5 951/3/5
f 953/3/5 949/3/5 952/3/5
f 954/3/5 949/3/5 953/3/5
f 955/3/5 949/3/5 954/3/5
f 958/4/5 957/4/5 956/4/5
f 959/4/5 957/4/5 958/4/5
f 962/3/5 961/3/5 960/3/5
f 963/3/5 961/3/5 962/3/5
f 968/3/5 965/3/5 964/3/5
f 969/3/5 965/3/5 968/3/5
f 970/5/5 967/5/5 966/5/5
f 971/5/5 967/5/5 970/5/5
f 972/5/5 967/5/5 971/5/5
f 973/5/5 967/5/5 972/5/5
f 976/4/5 975/4/5 974/4/5
f 977/4/5 975/4/5 976/4/5
f 978/4/5 975/4/5 977/4/5
f 979/4/5 975/4/5 978/4/5
f 981/4/5 978/4/5 977/4/5
f 982/4/5 978/4/5 981/4/5
f 983/4/5 980/4/5 979/4/5
f 984/4/5 980/4/5 983/4/5
f 987/3/5 986/3/5 985/3/5
f 988/3/5 986/3/5 987/3/5
f 989/3/5 986/3/5 988/3/5
f 992/4/5 991/4/5 990/4/5
f 993/4/5 991/4/5 992/4/5
f 998/3/5 995/3/5 994/3/5
f 999/3/5 995/3/5 998/3/5
f 1000/3/5 997/3/5 996/3/5
f 1001/3/5 997/3/5 1000/3/5
f 1002/3/5 997/3/5 1001/3/5
f 1003/3/5 997/3/5 1002/3/5
f 1004/3/5 997/3/5 1003/3/5
f 1005/3/5 997/3/5 1004/3/5
f 1008/3/5 1007/3/5 1006/3/5
f 1009/3/5 1007/3/5 1008/3/5
f 1010/3/5 1007/3/5 1009/3/5
f 1011/3/5 1007/3/5 1010/3/5
f 1014/3/5 1013/3/5 1012/3/5
f 1015/3/5 1013/3/5 1014/3/5
f 1020/4/5 1017/4/5 1016/4/5
f 1021/4/5 1017/4/5 1020/4/5
f 1022/4/5 1019/4/5 1018/4/5
f 1023/4/5 1019/4/5 1022/4/5
f 1024/4/5 1019/4/5 1023/4/5
f 1025/4/5 1019/4/5 1024/4/5
f 1026/4/5 1019/4/5 1025/4/5
f 1029/5/5 1028/5/5 1027/5/5
f 1030/5/5 1028/5/5 1029/5/5
f 1031/5/5 1028/5/5 1030/5/5
f 1032/5/5 1028/5/5 1031/5/5
f 1033/5/5 1028/5/5 1032/5/5
f 1036/4/5 1035/4/5 1034/4/5
f 1037/4/5 1035/4/5 1036/4/5
f 1042/3/5 1039/3/5 1038/3/5
f 1043/3/5 1039/3/5 1042/3/5
f 1044/3/5 1041/3/5 1040/3/5
f 1045/3/5 1041/3/5 1044/3/5
f 1046/3/5 1041/3/5 1045/3/5
f 1047/3/5 1045/3/5 1044/3/5
f 1048/3/5 1045/3/5 1047/3/5
f 1049/3/5 1045/3/5 1048/3/5
f 1051/3/5 1050/3/5 1049/3/5
f 1052/3/5 1050/3/5 1051/3/5
f 1053/3/5 1050/3/5 1052/3/5
f 1056/3/5 1055/3/5 1054/3/5
f 1057/3/5 1055/3/5 1056/3/5
f 1060/3/5 1059/3/5 1058/3/5
f 1061/3/5 1059/3/5 1060/3/5
f 1062/3/5 1059/3/5 1061/3/5
f 1063/3/5 1059/3/5 1062/3/5
f 1064/3/5 1059/3/5 1063/3/5
f 1066/3/5 1065/3/5 1064/3/5
f 1067/3/5 1065/3/5 1066/3/5
f 1070/3/5 1069/3/5 1068/3/5
f 1071/3/5 1069/3/5 1070/3/5
f 1072/3/5 1069/3/5 1071/3/5
f 1075/3/5 1074/3/5 1073/3/5
f 1076/3/5 1074/3/5 1075/3/5
f 1081/3/5 1078/3/5 1077/3/5
f 1082/3/5 1078/3/5 1081/3/5
f 1083/4/5 1080/4/5 1079/4/5
f 1084/4/5 1080/4/5 1083/4/5
f 1085/4/5 1080/4/5 1084/4/5
f 1086/4/5 1080/4/5 1085/4/5
f 1089/3/5 1088/3/5 1087/3/5
f 1090/3/5 1088/3/5 1089/3/5
f 1091/3/5 1088/3/5 1090/3/5
f 1092/3/5 1088/3/5 1091/3/5
f 1093/3/5 1088/3/5 1092/3/5
f 1096/5/5 1095/5/5 1094/5/5
f 1097/5/5 1095/5/5 1096/5/5
f 1102/4/5 1099/4/5 1098/4/5
f 1103/4/5 1099/4/5 1102/4/5
f 1104/3/5 1101/3/5 1100/3/5
f 1105/3/5 1101/3/5 1104/3/5
f 1106/3/5 1101/3/5 1105/3/5
f 1107/3/5 1101/3/5 1106/3/5
f 1110/4/5 1109/4/5 1108/4/5
f 1111/4/5 1109/4/5 1110/4/5
f 1112/3/6 1113/3/6 1114/3/6
f 1114/3/6 1113/3/6 1115/3/6
f 1116/3/6 1117/3/6 1118/3/6
f 1118/3/6 1117/3/6 1119/3/6
f 1119/3/6 1117/3/6 1120/3/6
f 1120/3/6 1117/3/6 1121/3/6
f 1121/3/6 1122/3/6 1123/3/6
f 1123/3/6 1122/3/6 1124/3/6
f 1125/3/6 1126/3/6 1127/3/6
f 1127/3/6 1126/3/6 1128/3/6
f 1129/4/6 1130/4/6 1131/4/6
f 1131/4/6 1130/4/6 1132/4/6
f 1133/5/6 1134/5/6 1137/5/6
f 1137/5/6 1134/5/6 1138/5/6
f 1135/4/6 1136/4/6 1139/4/6
f 1139/4/6 1136/4/6 1140/4/6
f 1140/4/6 1136/4/6 1141/4/6
f 1141/4/6 1136/4/6 1142/4/6
f 1142/4/6 1136/4/6 1143/4/6
f 1144/4/6 1145/4/6 1146/4/6
f 1146/4/6 1145/4/6 1147/4/6
f 1148/3/6 1149/3/6 1150/3/6
f 1150/3/6 1149/3/6 1151/3/6
f 1151/3/6 1149/3/6 1152/3/6
f 1152/3/6 1149/3/6 1153/3/6
f 1153/3/6 1149/3/6 1154/3/6
f 1154/3/6 1149/3/6 1155/3/6
f 1155/3/6 1149/3/6 1156/3/6
f 1157/3/6 1158/3/6 1159/3/6
f 1159/3/6 1158/3/6 1160/3/6
f 1161/3/6 1162/3/6 1163/3/6
f 1163/3/6 1162/3/6 1164/3/6
f 1164/3/6 1162/3/6 1165/3/6
f 1165/3/6 1162/3/6 1166/3/6
f 1167/4/6 1168/4/6 1169/4/6
f 1169/4/6 1168/4/6 1170/4/6
f 1171/2/6 1172/2/6 1173/2/6
f 1173/2/6 1172/2/6 1174/2/6
f 1175/3/6 1176/3/6 1179/3/6
f 1179/3/6 1176/3/6 1180/3/6
f 1177/5/6 1178/5/6 1181/5/6
f 1181/5/6 1178/5/6 1182/5/6
f 1182/5/6 1178/5/6 1183/5/6
f 1183/5/6 1178/5/6 1184/5/6
f 1184/5/6 1178/5/6 1185/5/6
f 1185/5/6 1178/5/6 1186/5/6
f 1187/4/6 1188/4/6 1189/4/6
f 1189/4/6 1188/4/6 1190/4/6
f 1190/4/6 1188/4/6 1191/4/6
f 1191/4/6 1188/4/6 1192/4/6
f 1193/3/6 1194/3/6 1195/3/6
f 1195/3/6 1194/3/6 1196/3/6
f 1196/3/6 1194/3/6 1197/3/6
f 1198/3/6 1199/3/6 1202/3/6
f 1202/3/6 1199/3/6 1203/3/6
f 1200/3/6 1201/3/6 1204/3/6
f 1204/3/6 1201/3/6 1205/3/6
f 1205/3/6 1201/3/6 1206/3/6
f 1206/3/6 1201/3/6 1207/3/6
f 1207/3/6 1201/3/6 1208/3/6
f 1209/3/6 1210/3/6 1211/3/6
f 1211/3/6 1210/3/6 1212/3/6
f 1213/3/6 1214/3/6 1215/3/6
f 1215/3/6 1214/3/6 1216/3/6
f 1216/3/6 1214/3/6 1217/3/6
f 1218/3/6 1219/3/6 1220/3/6
f 1220/3/6 1219/3/6 1221/3/6
f 1222/3/6 1223/3/6 1224/3/6
f 1224/3/6 1223/3/6 1225/3/6
f 1226/4/6 1227/4/6 1230/4/6
f 1230/4/6 1227/4/6 1231/4/6
f 1228/4/6 1229/4/6 1232/4/6
f 1232/4/6 1229/4/6 1233/4/6
f 1233/4/6 1229/4/6 1234/4/6
f 1234/4/6 1229/4/6 1235/4/6
f 1235/4/6 1229/4/6 1236/4/6
f 1237/5/6 1238/5/6 1239/5/6
f 1239/5/6 1238/5/6 1240/5/6
f 1240/5/6 1238/5/6 1241/5/6
f 1241/5/6 1238/5/6 1242/5/6
f 1242/5/6 1238/5/6 1243/5/6
f 1243/5/6 1238/5/6 1244/5/6
f 1245/4/6 1246/4/6 1247/4/6
f 1247/4/6 1246/4/6 1248/4/6
f 1248/4/6 1246/4/6 1249/4/6
f 1250/3/6 1251/3/6 1254/3/6
f 1254/3/6 1251/3/6 1255/3/6
f 1255/3/6 1251/3/6 1256/3/6
f 1252/3/6 1253/3/6 1257/3/6
f 1257/3/6 1253/3/6 1258/3/6
f 1258/3/6 1253/3/6 1259/3/6
f 1259/3/6 1253/3/6 1260/3/6
f 1260/3/6 1253/3/6 1261/3/6
f 1261/3/6 1253/3/6 1262/3/6
f 1263/3/6 1264/3/6 1265/3/6
f 1265/3/6 1264/3/6 1266/3/6
f 1266/3/6 1264/3/6 1267/3/6
f 1267/3/6 1264/3/6 1268/3/6
f 1269/3/6 1270/3/6 1271/3/6
f 1271/3/6 1270/3/6 1272/3/6
f 1273/3/6 1274/3/6 1277/3/6
f 1277/3/6 1274/3/6 1278/3/6
f 1275/4/6 1276/4/6 1279/4/6
f 1279/4/6 1276/4/6 1280/4/6
f 1280/4/6 1276/4/6 1281/4/6
f 1281/4/6 1276/4/6 1282/4/6
f 1282/4/6 1276/4/6 1283/4/6
f 1283/4/6 1276/4/6 1284/4/6
f 1285/5/6 1286/5/6 1287/5/6
f 1287/5/6 1286/5/6 1288/5/6
f 1289/3/6 1290/3/6 1291/3/6
f 1291/3/6 1290/3/6 1292/3/6
f 1292/3/6 1290/3/6 1293/3/6
f 1293/3/6 1290/3/6 1294/3/6
f 1295/5/6 1296/5/6 1297/5/6
f 1297/5/6 1296/5/6 1298/5/6
f 1299/4/6 1300/4/6 1303/4/6
f 1303/4/6 1300/4/6 1304/4/6
f 1301/3/6 1302/3/6 1305/3/6
f 1305/3/6 1302/3/6 1306/3/6
f 1306/3/6 1302/3/6 1307/3/6
f 1307/3/6 1302/3/6 1308/3/6
f 1309/1/6 1310/1/6 1311/1/6
f 1311/1/6 1310/1/6 1312/1/6
