# MagicaVoxel @ Ephtracy

# group
o window-brick-31x29x7

# material
mtllib components-24-window-brick-31x29x7.mtl
usemtl palette

# normals
vn -1 0 0
vn 1 0 0
vn 0 0 1
vn 0 0 -1
vn 0 -1 0
vn 0 1 0

# texcoords
vt 0.00195313 0.5
vt 0.251953 0.5
vt 0.345703 0.5
vt 0.376953 0.5
vt 0.380859 0.5
vt 0.384766 0.5
vt 0.994141 0.5

# verts
v -1.5 0 10.4
v -1.5 0 9.7
v -1.5 0.2 10.4
v -1.5 0.2 10.3
v -1.5 0.2 9.8
v -1.5 0.2 9.7
v -1.5 0.3 10.4
v -1.5 0.3 10.3
v -1.5 0.3 9.8
v -1.5 0.3 9.7
v -1.5 0.6 10.4
v -1.5 0.6 10.3
v -1.5 0.6 9.8
v -1.5 0.6 9.7
v -1.5 0.7 10.4
v -1.5 0.7 10.3
v -1.5 0.7 9.8
v -1.5 0.7 9.7
v -1.5 1 10.4
v -1.5 1 10.3
v -1.5 1 9.8
v -1.5 1 9.7
v -1.5 1.1 10.4
v -1.5 1.1 10.3
v -1.5 1.1 9.8
v -1.5 1.1 9.7
v -1.5 1.4 10.4
v -1.5 1.4 10.3
v -1.5 1.4 9.8
v -1.5 1.4 9.7
v -1.5 1.5 10.4
v -1.5 1.5 10.3
v -1.5 1.5 9.8
v -1.5 1.5 9.7
v -1.5 1.8 10.4
v -1.5 1.8 10.3
v -1.5 1.8 9.8
v -1.5 1.8 9.7
v -1.5 1.9 10.4
v -1.5 1.9 10.3
v -1.5 1.9 9.8
v -1.5 1.9 9.7
v -1.5 2.2 10.4
v -1.5 2.2 10.3
v -1.5 2.2 9.8
v -1.5 2.2 9.7
v -1.5 2.3 10.4
v -1.5 2.3 10.3
v -1.5 2.3 9.8
v -1.5 2.3 9.7
v -1.5 2.6 10.4
v -1.5 2.6 10.3
v -1.5 2.6 9.8
v -1.5 2.6 9.7
v -1.5 2.7 10.4
v -1.5 2.7 10.3
v -1.5 2.7 9.8
v -1.5 2.7 9.7
v -1.5 2.9 10.4
v -1.5 2.9 9.7
v -1.4 1.4 9.8
v -1.4 1.4 9.7
v -1.4 1.5 9.8
v -1.4 1.5 9.7
v -1.4 1.8 9.8
v -1.4 1.8 9.7
v -1.4 1.9 9.8
v -1.4 1.9 9.7
v 1.6 0 10.4
v 1.6 0 9.7
v 1.6 0.2 10.4
v 1.6 0.2 10.3
v 1.6 0.2 9.8
v 1.6 0.2 9.7
v 1.6 0.3 10.4
v 1.6 0.3 10.3
v 1.6 0.3 9.8
v 1.6 0.3 9.7
v 1.6 0.6 10.4
v 1.6 0.6 10.3
v 1.6 0.6 9.8
v 1.6 0.6 9.7
v 1.6 0.7 10.4
v 1.6 0.7 10.3
v 1.6 0.7 9.8
v 1.6 0.7 9.7
v 1.6 1 10.4
v 1.6 1 10.3
v 1.6 1 9.8
v 1.6 1 9.7
v 1.6 1.1 10.4
v 1.6 1.1 10.3
v 1.6 1.1 9.8
v 1.6 1.1 9.7
v 1.6 1.4 10.4
v 1.6 1.4 10.3
v 1.6 1.4 9.8
v 1.6 1.4 9.7
v 1.6 1.5 10.4
v 1.6 1.5 10.3
v 1.6 1.5 9.8
v 1.6 1.5 9.7
v 1.6 1.8 10.4
v 1.6 1.8 10.3
v 1.6 1.8 9.8
v 1.6 1.8 9.7
v 1.6 1.9 10.4
v 1.6 1.9 10.3
v 1.6 1.9 9.8
v 1.6 1.9 9.7
v 1.6 2.2 10.4
v 1.6 2.2 10.3
v 1.6 2.2 9.8
v 1.6 2.2 9.7
v 1.6 2.3 10.4
v 1.6 2.3 10.3
v 1.6 2.3 9.8
v 1.6 2.3 9.7
v 1.6 2.6 10.4
v 1.6 2.6 10.3
v 1.6 2.6 9.8
v 1.6 2.6 9.7
v 1.6 2.7 10.4
v 1.6 2.7 10.3
v 1.6 2.7 9.8
v 1.6 2.7 9.7
v 1.6 2.9 10.4
v 1.6 2.9 9.7
v -1.5 0 10.4
v -1.5 0.2 10.4
v -1.5 0.3 10.4
v -1.5 0.6 10.4
v -1.5 0.7 10.4
v -1.5 1 10.4
v -1.5 1.1 10.4
v -1.5 1.4 10.4
v -1.5 1.5 10.4
v -1.5 1.8 10.4
v -1.5 1.9 10.4
v -1.5 2.2 10.4
v -1.5 2.3 10.4
v -1.5 2.6 10.4
v -1.5 2.7 10.4
v -1.5 2.9 10.4
v -1.3 0.3 10.4
v -1.3 0.6 10.4
v -1.3 0.7 10.4
v -1.3 1 10.4
v -1.3 1.1 10.4
v -1.3 1.4 10.4
v -1.3 1.5 10.4
v -1.3 1.8 10.4
v -1.3 1.9 10.4
v -1.3 2.2 10.4
v -1.3 2.3 10.4
v -1.3 2.6 10.4
v -1.2 0 10.4
v -1.2 0.2 10.4
v -1.2 2.7 10.4
v -1.2 2.9 10.4
v -1.1 0 10.4
v -1.1 0.2 10.4
v -1.1 2.7 10.4
v -1.1 2.9 10.4
v -0.8 0 10.4
v -0.8 0.2 10.4
v -0.8 2.7 10.4
v -0.8 2.9 10.4
v -0.7 0 10.4
v -0.7 0.2 10.4
v -0.7 2.7 10.4
v -0.7 2.9 10.4
v -0.4 0 10.4
v -0.4 0.2 10.4
v -0.4 2.7 10.4
v -0.4 2.9 10.4
v -0.3 0 10.4
v -0.3 0.2 10.4
v -0.3 2.7 10.4
v -0.3 2.9 10.4
v 0 0 10.4
v 0 0.2 10.4
v 0 2.7 10.4
v 0 2.9 10.4
v 0.1 0 10.4
v 0.1 0.2 10.4
v 0.1 2.7 10.4
v 0.1 2.9 10.4
v 0.4 0 10.4
v 0.4 0.2 10.4
v 0.4 2.7 10.4
v 0.4 2.9 10.4
v 0.5 0 10.4
v 0.5 0.2 10.4
v 0.5 2.7 10.4
v 0.5 2.9 10.4
v 0.8 0 10.4
v 0.8 0.2 10.4
v 0.8 2.7 10.4
v 0.8 2.9 10.4
v 0.9 0 10.4
v 0.9 0.2 10.4
v 0.9 2.7 10.4
v 0.9 2.9 10.4
v 1.2 0 10.4
v 1.2 0.2 10.4
v 1.2 2.7 10.4
v 1.2 2.9 10.4
v 1.3 0 10.4
v 1.3 0.2 10.4
v 1.3 2.7 10.4
v 1.3 2.9 10.4
v 1.4 0.3 10.4
v 1.4 0.6 10.4
v 1.4 0.7 10.4
v 1.4 1 10.4
v 1.4 1.1 10.4
v 1.4 1.4 10.4
v 1.4 1.5 10.4
v 1.4 1.8 10.4
v 1.4 1.9 10.4
v 1.4 2.2 10.4
v 1.4 2.3 10.4
v 1.4 2.6 10.4
v 1.6 0 10.4
v 1.6 0.2 10.4
v 1.6 0.3 10.4
v 1.6 0.6 10.4
v 1.6 0.7 10.4
v 1.6 1 10.4
v 1.6 1.1 10.4
v 1.6 1.4 10.4
v 1.6 1.5 10.4
v 1.6 1.8 10.4
v 1.6 1.9 10.4
v 1.6 2.2 10.4
v 1.6 2.3 10.4
v 1.6 2.6 10.4
v 1.6 2.7 10.4
v 1.6 2.9 10.4
v -1.5 1.4 9.8
v -1.5 1.5 9.8
v -1.5 1.8 9.8
v -1.5 1.9 9.8
v -1.4 1.4 9.8
v -1.4 1.5 9.8
v -1.4 1.8 9.8
v -1.4 1.9 9.8
v -1.5 0 9.7
v -1.5 0.2 9.7
v -1.5 0.3 9.7
v -1.5 0.6 9.7
v -1.5 0.7 9.7
v -1.5 1 9.7
v -1.5 1.1 9.7
v -1.5 1.4 9.7
v -1.5 1.5 9.7
v -1.5 1.8 9.7
v -1.5 1.9 9.7
v -1.5 2.2 9.7
v -1.5 2.3 9.7
v -1.5 2.6 9.7
v -1.5 2.7 9.7
v -1.5 2.9 9.7
v -1.4 1.4 9.7
v -1.4 1.5 9.7
v -1.4 1.8 9.7
v -1.4 1.9 9.7
v -1.3 0.3 9.7
v -1.3 0.6 9.7
v -1.3 0.7 9.7
v -1.3 1 9.7
v -1.3 1.1 9.7
v -1.3 1.9 9.7
v -1.3 2.2 9.7
v -1.3 2.3 9.7
v -1.3 2.6 9.7
v -1.2 0 9.7
v -1.2 0.2 9.7
v -1.2 2.7 9.7
v -1.2 2.9 9.7
v -1.1 0 9.7
v -1.1 0.2 9.7
v -1.1 2.7 9.7
v -1.1 2.9 9.7
v -0.8 0 9.7
v -0.8 0.2 9.7
v -0.8 2.7 9.7
v -0.8 2.9 9.7
v -0.7 0 9.7
v -0.7 0.2 9.7
v -0.7 2.7 9.7
v -0.7 2.9 9.7
v -0.4 0 9.7
v -0.4 0.2 9.7
v -0.4 2.7 9.7
v -0.4 2.9 9.7
v -0.3 0 9.7
v -0.3 0.2 9.7
v -0.3 2.7 9.7
v -0.3 2.9 9.7
v 0 0 9.7
v 0 0.2 9.7
v 0 2.7 9.7
v 0 2.9 9.7
v 0.1 0 9.7
v 0.1 0.2 9.7
v 0.1 2.7 9.7
v 0.1 2.9 9.7
v 0.4 0 9.7
v 0.4 0.2 9.7
v 0.4 2.7 9.7
v 0.4 2.9 9.7
v 0.5 0 9.7
v 0.5 0.2 9.7
v 0.5 2.7 9.7
v 0.5 2.9 9.7
v 0.8 0 9.7
v 0.8 0.2 9.7
v 0.8 2.7 9.7
v 0.8 2.9 9.7
v 0.9 0 9.7
v 0.9 0.2 9.7
v 0.9 2.7 9.7
v 0.9 2.9 9.7
v 1.2 0 9.7
v 1.2 0.2 9.7
v 1.2 2.7 9.7
v 1.2 2.9 9.7
v 1.3 0 9.7
v 1.3 0.2 9.7
v 1.3 2.7 9.7
v 1.3 2.9 9.7
v 1.4 0.3 9.7
v 1.4 0.6 9.7
v 1.4 0.7 9.7
v 1.4 1 9.7
v 1.4 1.1 9.7
v 1.4 1.4 9.7
v 1.4 1.5 9.7
v 1.4 1.8 9.7
v 1.4 1.9 9.7
v 1.4 2.2 9.7
v 1.4 2.3 9.7
v 1.4 2.6 9.7
v 1.6 0 9.7
v 1.6 0.2 9.7
v 1.6 0.3 9.7
v 1.6 0.6 9.7
v 1.6 0.7 9.7
v 1.6 1 9.7
v 1.6 1.1 9.7
v 1.6 1.4 9.7
v 1.6 1.5 9.7
v 1.6 1.8 9.7
v 1.6 1.9 9.7
v 1.6 2.2 9.7
v 1.6 2.3 9.7
v 1.6 2.6 9.7
v 1.6 2.7 9.7
v 1.6 2.9 9.7
v -1.5 0 10.4
v -1.2 0 10.4
v -1.1 0 10.4
v -0.8 0 10.4
v -0.7 0 10.4
v -0.4 0 10.4
v -0.3 0 10.4
v 0 0 10.4
v 0.1 0 10.4
v 0.4 0 10.4
v 0.5 0 10.4
v 0.8 0 10.4
v 0.9 0 10.4
v 1.2 0 10.4
v 1.3 0 10.4
v 1.6 0 10.4
v -1.2 0 10.3
v -1.1 0 10.3
v -0.8 0 10.3
v -0.7 0 10.3
v -0.4 0 10.3
v -0.3 0 10.3
v 0 0 10.3
v 0.1 0 10.3
v 0.4 0 10.3
v 0.5 0 10.3
v 0.8 0 10.3
v 0.9 0 10.3
v 1.2 0 10.3
v 1.3 0 10.3
v -1.2 0 9.8
v -1.1 0 9.8
v -0.8 0 9.8
v -0.7 0 9.8
v -0.4 0 9.8
v -0.3 0 9.8
v 0 0 9.8
v 0.1 0 9.8
v 0.4 0 9.8
v 0.5 0 9.8
v 0.8 0 9.8
v 0.9 0 9.8
v 1.2 0 9.8
v 1.3 0 9.8
v -1.5 0 9.7
v -1.2 0 9.7
v -1.1 0 9.7
v -0.8 0 9.7
v -0.7 0 9.7
v -0.4 0 9.7
v -0.3 0 9.7
v 0 0 9.7
v 0.1 0 9.7
v 0.4 0 9.7
v 0.5 0 9.7
v 0.8 0 9.7
v 0.9 0 9.7
v 1.2 0 9.7
v 1.3 0 9.7
v 1.6 0 9.7
v -1.5 1.5 9.8
v -1.4 1.5 9.8
v -1.5 1.5 9.7
v -1.4 1.5 9.7
v -1.5 1.9 9.8
v -1.4 1.9 9.8
v -1.5 1.9 9.7
v -1.4 1.9 9.7
v -1.5 1.4 9.8
v -1.4 1.4 9.8
v -1.5 1.4 9.7
v -1.4 1.4 9.7
v -1.5 1.8 9.8
v -1.4 1.8 9.8
v -1.5 1.8 9.7
v -1.4 1.8 9.7
v -1.5 2.9 10.4
v -1.2 2.9 10.4
v -1.1 2.9 10.4
v -0.8 2.9 10.4
v -0.7 2.9 10.4
v -0.4 2.9 10.4
v -0.3 2.9 10.4
v 0 2.9 10.4
v 0.1 2.9 10.4
v 0.4 2.9 10.4
v 0.5 2.9 10.4
v 0.8 2.9 10.4
v 0.9 2.9 10.4
v 1.2 2.9 10.4
v 1.3 2.9 10.4
v 1.6 2.9 10.4
v -1.2 2.9 10.3
v -1.1 2.9 10.3
v -0.8 2.9 10.3
v -0.7 2.9 10.3
v -0.4 2.9 10.3
v -0.3 2.9 10.3
v 0 2.9 10.3
v 0.1 2.9 10.3
v 0.4 2.9 10.3
v 0.5 2.9 10.3
v 0.8 2.9 10.3
v 0.9 2.9 10.3
v 1.2 2.9 10.3
v 1.3 2.9 10.3
v -1.2 2.9 9.8
v -1.1 2.9 9.8
v -0.8 2.9 9.8
v -0.7 2.9 9.8
v -0.4 2.9 9.8
v -0.3 2.9 9.8
v 0 2.9 9.8
v 0.1 2.9 9.8
v 0.4 2.9 9.8
v 0.5 2.9 9.8
v 0.8 2.9 9.8
v 0.9 2.9 9.8
v 1.2 2.9 9.8
v 1.3 2.9 9.8
v -1.5 2.9 9.7
v -1.2 2.9 9.7
v -1.1 2.9 9.7
v -0.8 2.9 9.7
v -0.7 2.9 9.7
v -0.4 2.9 9.7
v -0.3 2.9 9.7
v 0 2.9 9.7
v 0.1 2.9 9.7
v 0.4 2.9 9.7
v 0.5 2.9 9.7
v 0.8 2.9 9.7
v 0.9 2.9 9.7
v 1.2 2.9 9.7
v 1.3 2.9 9.7
v 1.6 2.9 9.7

# faces
f 3/4/1 2/4/1 1/4/1
f 4/4/1 2/4/1 3/4/1
f 5/4/1 2/4/1 4/4/1
f 6/4/1 2/4/1 5/4/1
f 7/7/1 4/7/1 3/7/1
f 8/3/1 5/3/1 4/3/1
f 8/7/1 4/7/1 7/7/1
f 9/7/1 6/7/1 5/7/1
f 9/3/1 5/3/1 8/3/1
f 10/7/1 6/7/1 9/7/1
f 11/4/1 8/4/1 7/4/1
f 11/4/1 9/4/1 8/4/1
f 11/4/1 10/4/1 9/4/1
f 12/4/1 10/4/1 11/4/1
f 13/4/1 10/4/1 12/4/1
f 14/4/1 10/4/1 13/4/1
f 15/7/1 12/7/1 11/7/1
f 16/3/1 13/3/1 12/3/1
f 16/7/1 12/7/1 15/7/1
f 17/7/1 14/7/1 13/7/1
f 17/3/1 13/3/1 16/3/1
f 18/7/1 14/7/1 17/7/1
f 19/6/1 16/6/1 15/6/1
f 19/6/1 17/6/1 16/6/1
f 19/6/1 18/6/1 17/6/1
f 20/6/1 18/6/1 19/6/1
f 21/6/1 18/6/1 20/6/1
f 22/6/1 18/6/1 21/6/1
f 23/7/1 20/7/1 19/7/1
f 24/3/1 21/3/1 20/3/1
f 24/7/1 20/7/1 23/7/1
f 25/7/1 22/7/1 21/7/1
f 25/3/1 21/3/1 24/3/1
f 26/7/1 22/7/1 25/7/1
f 27/4/1 24/4/1 23/4/1
f 27/4/1 25/4/1 24/4/1
f 27/4/1 26/4/1 25/4/1
f 28/4/1 26/4/1 27/4/1
f 29/4/1 26/4/1 28/4/1
f 30/4/1 26/4/1 29/4/1
f 31/7/1 28/7/1 27/7/1
f 32/3/1 29/3/1 28/3/1
f 32/7/1 28/7/1 31/7/1
f 33/3/1 29/3/1 32/3/1
f 35/4/1 32/4/1 31/4/1
f 35/4/1 34/4/1 33/4/1
f 35/4/1 33/4/1 32/4/1
f 36/4/1 34/4/1 35/4/1
f 37/4/1 34/4/1 36/4/1
f 38/4/1 34/4/1 37/4/1
f 39/7/1 36/7/1 35/7/1
f 40/3/1 37/3/1 36/3/1
f 40/7/1 36/7/1 39/7/1
f 41/3/1 37/3/1 40/3/1
f 43/6/1 40/6/1 39/6/1
f 43/6/1 42/6/1 41/6/1
f 43/6/1 41/6/1 40/6/1
f 44/6/1 42/6/1 43/6/1
f 45/6/1 42/6/1 44/6/1
f 46/6/1 42/6/1 45/6/1
f 47/7/1 44/7/1 43/7/1
f 48/3/1 45/3/1 44/3/1
f 48/7/1 44/7/1 47/7/1
f 49/7/1 46/7/1 45/7/1
f 49/3/1 45/3/1 48/3/1
f 50/7/1 46/7/1 49/7/1
f 51/4/1 48/4/1 47/4/1
f 51/4/1 49/4/1 48/4/1
f 51/4/1 50/4/1 49/4/1
f 52/4/1 50/4/1 51/4/1
f 53/4/1 50/4/1 52/4/1
f 54/4/1 50/4/1 53/4/1
f 55/7/1 52/7/1 51/7/1
f 56/3/1 53/3/1 52/3/1
f 56/7/1 52/7/1 55/7/1
f 57/7/1 54/7/1 53/7/1
f 57/3/1 53/3/1 56/3/1
f 58/7/1 54/7/1 57/7/1
f 59/4/1 56/4/1 55/4/1
f 59/4/1 57/4/1 56/4/1
f 59/4/1 58/4/1 57/4/1
f 60/4/1 58/4/1 59/4/1
f 63/4/1 62/4/1 61/4/1
f 64/4/1 62/4/1 63/4/1
f 67/4/1 66/4/1 65/4/1
f 68/4/1 66/4/1 67/4/1
f 69/4/2 70/4/2 71/4/2
f 71/4/2 70/4/2 72/4/2
f 72/4/2 70/4/2 73/4/2
f 73/4/2 70/4/2 74/4/2
f 71/7/2 72/7/2 75/7/2
f 72/3/2 73/3/2 76/3/2
f 75/7/2 72/7/2 76/7/2
f 73/7/2 74/7/2 77/7/2
f 76/3/2 73/3/2 77/3/2
f 77/7/2 74/7/2 78/7/2
f 75/6/2 76/6/2 79/6/2
f 76/6/2 77/6/2 79/6/2
f 77/6/2 78/6/2 79/6/2
f 79/6/2 78/6/2 80/6/2
f 80/6/2 78/6/2 81/6/2
f 81/6/2 78/6/2 82/6/2
f 79/7/2 80/7/2 83/7/2
f 80/3/2 81/3/2 84/3/2
f 83/7/2 80/7/2 84/7/2
f 81/7/2 82/7/2 85/7/2
f 84/3/2 81/3/2 85/3/2
f 85/7/2 82/7/2 86/7/2
f 83/5/2 84/5/2 87/5/2
f 84/5/2 85/5/2 87/5/2
f 85/5/2 86/5/2 87/5/2
f 87/5/2 86/5/2 88/5/2
f 88/5/2 86/5/2 89/5/2
f 89/5/2 86/5/2 90/5/2
f 87/7/2 88/7/2 91/7/2
f 88/3/2 89/3/2 92/3/2
f 91/7/2 88/7/2 92/7/2
f 89/7/2 90/7/2 93/7/2
f 92/3/2 89/3/2 93/3/2
f 93/7/2 90/7/2 94/7/2
f 91/4/2 92/4/2 95/4/2
f 92/4/2 93/4/2 95/4/2
f 93/4/2 94/4/2 95/4/2
f 95/4/2 94/4/2 96/4/2
f 96/4/2 94/4/2 97/4/2
f 97/4/2 94/4/2 98/4/2
f 95/7/2 96/7/2 99/7/2
f 96/3/2 97/3/2 100/3/2
f 99/7/2 96/7/2 100/7/2
f 97/7/2 98/7/2 101/7/2
f 100/3/2 97/3/2 101/3/2
f 101/7/2 98/7/2 102/7/2
f 99/4/2 100/4/2 103/4/2
f 100/4/2 101/4/2 103/4/2
f 101/4/2 102/4/2 103/4/2
f 103/4/2 102/4/2 104/4/2
f 104/4/2 102/4/2 105/4/2
f 105/4/2 102/4/2 106/4/2
f 103/7/2 104/7/2 107/7/2
f 104/3/2 105/3/2 108/3/2
f 107/7/2 104/7/2 108/7/2
f 105/7/2 106/7/2 109/7/2
f 108/3/2 105/3/2 109/3/2
f 109/7/2 106/7/2 110/7/2
f 107/5/2 108/5/2 111/5/2
f 108/5/2 109/5/2 111/5/2
f 109/5/2 110/5/2 111/5/2
f 111/5/2 110/5/2 112/5/2
f 112/5/2 110/5/2 113/5/2
f 113/5/2 110/5/2 114/5/2
f 111/7/2 112/7/2 115/7/2
f 112/3/2 113/3/2 116/3/2
f 115/7/2 112/7/2 116/7/2
f 113/7/2 114/7/2 117/7/2
f 116/3/2 113/3/2 117/3/2
f 117/7/2 114/7/2 118/7/2
f 115/4/2 116/4/2 119/4/2
f 116/4/2 117/4/2 119/4/2
f 117/4/2 118/4/2 119/4/2
f 119/4/2 118/4/2 120/4/2
f 120/4/2 118/4/2 121/4/2
f 121/4/2 118/4/2 122/4/2
f 119/7/2 120/7/2 123/7/2
f 120/3/2 121/3/2 124/3/2
f 123/7/2 120/7/2 124/7/2
f 121/7/2 122/7/2 125/7/2
f 124/3/2 121/3/2 125/3/2
f 125/7/2 122/7/2 126/7/2
f 123/4/2 124/4/2 127/4/2
f 124/4/2 125/4/2 127/4/2
f 125/4/2 126/4/2 127/4/2
f 127/4/2 126/4/2 128/4/2
f 145/7/3 131/7/3 130/7/3
f 145/4/3 132/4/3 131/4/3
f 146/7/3 133/7/3 132/7/3
f 146/4/3 132/4/3 145/4/3
f 147/6/3 134/6/3 133/6/3
f 147/7/3 133/7/3 146/7/3
f 148/7/3 135/7/3 134/7/3
f 148/6/3 134/6/3 147/6/3
f 149/4/3 136/4/3 135/4/3
f 149/7/3 135/7/3 148/7/3
f 150/7/3 137/7/3 136/7/3
f 150/4/3 136/4/3 149/4/3
f 151/4/3 138/4/3 137/4/3
f 151/7/3 137/7/3 150/7/3
f 152/7/3 139/7/3 138/7/3
f 152/4/3 138/4/3 151/4/3
f 153/6/3 140/6/3 139/6/3
f 153/7/3 139/7/3 152/7/3
f 154/7/3 141/7/3 140/7/3
f 154/6/3 140/6/3 153/6/3
f 155/4/3 142/4/3 141/4/3
f 155/7/3 141/7/3 154/7/3
f 156/7/3 143/7/3 142/7/3
f 156/4/3 142/4/3 155/4/3
f 157/4/3 130/4/3 129/4/3
f 158/7/3 155/7/3 154/7/3
f 158/4/3 130/4/3 157/4/3
f 158/7/3 145/7/3 130/7/3
f 158/7/3 156/7/3 155/7/3
f 158/7/3 154/7/3 153/7/3
f 158/7/3 153/7/3 152/7/3
f 158/7/3 152/7/3 151/7/3
f 158/7/3 151/7/3 150/7/3
f 158/7/3 150/7/3 149/7/3
f 158/7/3 149/7/3 148/7/3
f 158/7/3 148/7/3 147/7/3
f 158/7/3 147/7/3 146/7/3
f 158/7/3 146/7/3 145/7/3
f 159/7/3 143/7/3 156/7/3
f 159/7/3 156/7/3 158/7/3
f 159/4/3 144/4/3 143/4/3
f 160/4/3 144/4/3 159/4/3
f 161/7/3 158/7/3 157/7/3
f 161/7/3 159/7/3 158/7/3
f 161/7/3 160/7/3 159/7/3
f 162/7/3 160/7/3 161/7/3
f 163/7/3 160/7/3 162/7/3
f 164/7/3 160/7/3 163/7/3
f 165/5/3 162/5/3 161/5/3
f 166/7/3 163/7/3 162/7/3
f 166/5/3 162/5/3 165/5/3
f 167/5/3 164/5/3 163/5/3
f 167/7/3 163/7/3 166/7/3
f 168/5/3 164/5/3 167/5/3
f 169/7/3 166/7/3 165/7/3
f 169/7/3 167/7/3 166/7/3
f 169/7/3 168/7/3 167/7/3
f 170/7/3 168/7/3 169/7/3
f 171/7/3 168/7/3 170/7/3
f 172/7/3 168/7/3 171/7/3
f 173/4/3 170/4/3 169/4/3
f 174/7/3 171/7/3 170/7/3
f 174/4/3 170/4/3 173/4/3
f 175/6/3 172/6/3 171/6/3
f 175/7/3 171/7/3 174/7/3
f 176/6/3 172/6/3 175/6/3
f 177/7/3 174/7/3 173/7/3
f 177/7/3 175/7/3 174/7/3
f 177/7/3 176/7/3 175/7/3
f 178/7/3 176/7/3 177/7/3
f 179/7/3 176/7/3 178/7/3
f 180/7/3 176/7/3 179/7/3
f 181/4/3 178/4/3 177/4/3
f 182/7/3 179/7/3 178/7/3
f 182/4/3 178/4/3 181/4/3
f 183/4/3 180/4/3 179/4/3
f 183/7/3 179/7/3 182/7/3
f 184/4/3 180/4/3 183/4/3
f 185/7/3 182/7/3 181/7/3
f 185/7/3 183/7/3 182/7/3
f 185/7/3 184/7/3 183/7/3
f 186/7/3 184/7/3 185/7/3
f 187/7/3 184/7/3 186/7/3
f 188/7/3 184/7/3 187/7/3
f 189/5/3 186/5/3 185/5/3
f 190/7/3 187/7/3 186/7/3
f 190/5/3 186/5/3 189/5/3
f 191/4/3 188/4/3 187/4/3
f 191/7/3 187/7/3 190/7/3
f 192/4/3 188/4/3 191/4/3
f 193/7/3 190/7/3 189/7/3
f 193/7/3 191/7/3 190/7/3
f 193/7/3 192/7/3 191/7/3
f 194/7/3 192/7/3 193/7/3
f 195/7/3 192/7/3 194/7/3
f 196/7/3 192/7/3 195/7/3
f 197/4/3 194/4/3 193/4/3
f 198/7/3 195/7/3 194/7/3
f 198/4/3 194/4/3 197/4/3
f 199/5/3 196/5/3 195/5/3
f 199/7/3 195/7/3 198/7/3
f 200/5/3 196/5/3 199/5/3
f 201/7/3 198/7/3 197/7/3
f 201/7/3 199/7/3 198/7/3
f 201/7/3 200/7/3 199/7/3
f 202/7/3 200/7/3 201/7/3
f 203/7/3 200/7/3 202/7/3
f 204/7/3 200/7/3 203/7/3
f 205/4/3 202/4/3 201/4/3
f 206/7/3 203/7/3 202/7/3
f 206/4/3 202/4/3 205/4/3
f 207/4/3 204/4/3 203/4/3
f 207/7/3 203/7/3 206/7/3
f 208/4/3 204/4/3 207/4/3
f 209/7/3 206/7/3 205/7/3
f 209/7/3 207/7/3 206/7/3
f 209/7/3 208/7/3 207/7/3
f 210/7/3 208/7/3 209/7/3
f 211/7/3 208/7/3 210/7/3
f 212/7/3 208/7/3 211/7/3
f 213/7/3 211/7/3 210/7/3
f 214/7/3 211/7/3 213/7/3
f 215/7/3 211/7/3 214/7/3
f 216/7/3 211/7/3 215/7/3
f 217/7/3 211/7/3 216/7/3
f 218/7/3 211/7/3 217/7/3
f 219/7/3 211/7/3 218/7/3
f 220/7/3 211/7/3 219/7/3
f 221/7/3 211/7/3 220/7/3
f 222/7/3 211/7/3 221/7/3
f 223/7/3 211/7/3 222/7/3
f 224/7/3 211/7/3 223/7/3
f 225/4/3 210/4/3 209/4/3
f 226/7/3 213/7/3 210/7/3
f 226/4/3 210/4/3 225/4/3
f 227/6/3 214/6/3 213/6/3
f 227/7/3 213/7/3 226/7/3
f 228/7/3 215/7/3 214/7/3
f 228/6/3 214/6/3 227/6/3
f 229/5/3 216/5/3 215/5/3
f 229/7/3 215/7/3 228/7/3
f 230/7/3 217/7/3 216/7/3
f 230/5/3 216/5/3 229/5/3
f 231/4/3 218/4/3 217/4/3
f 231/7/3 217/7/3 230/7/3
f 232/7/3 219/7/3 218/7/3
f 232/4/3 218/4/3 231/4/3
f 233/4/3 220/4/3 219/4/3
f 233/7/3 219/7/3 232/7/3
f 234/7/3 221/7/3 220/7/3
f 234/4/3 220/4/3 233/4/3
f 235/5/3 222/5/3 221/5/3
f 235/7/3 221/7/3 234/7/3
f 236/7/3 223/7/3 222/7/3
f 236/5/3 222/5/3 235/5/3
f 237/4/3 224/4/3 223/4/3
f 237/7/3 223/7/3 236/7/3
f 238/7/3 211/7/3 224/7/3
f 238/4/3 224/4/3 237/4/3
f 239/4/3 212/4/3 211/4/3
f 239/7/3 211/7/3 238/7/3
f 240/4/3 212/4/3 239/4/3
f 241/3/4 242/3/4 245/3/4
f 245/3/4 242/3/4 246/3/4
f 243/3/4 244/3/4 247/3/4
f 247/3/4 244/3/4 248/3/4
f 255/4/4 256/4/4 265/4/4
f 257/4/4 258/4/4 266/4/4
f 266/4/4 258/4/4 267/4/4
f 259/6/4 260/6/4 268/6/4
f 250/7/4 251/7/4 269/7/4
f 251/4/4 252/4/4 269/4/4
f 252/7/4 253/7/4 270/7/4
f 269/4/4 252/4/4 270/4/4
f 253/6/4 254/6/4 271/6/4
f 270/7/4 253/7/4 271/7/4
f 254/7/4 255/7/4 272/7/4
f 271/6/4 254/6/4 272/6/4
f 267/4/4 268/4/4 273/4/4
f 272/7/4 255/7/4 273/7/4
f 255/4/4 265/4/4 273/4/4
f 266/4/4 267/4/4 273/4/4
f 265/4/4 266/4/4 273/4/4
f 268/6/4 260/6/4 274/6/4
f 273/4/4 268/4/4 274/4/4
f 260/7/4 261/7/4 275/7/4
f 274/6/4 260/6/4 275/6/4
f 261/4/4 262/4/4 276/4/4
f 275/7/4 261/7/4 276/7/4
f 262/7/4 263/7/4 277/7/4
f 276/4/4 262/4/4 277/4/4
f 249/4/4 250/4/4 278/4/4
f 271/7/4 272/7/4 279/7/4
f 278/4/4 250/4/4 279/4/4
f 272/7/4 273/7/4 279/7/4
f 276/7/4 277/7/4 279/7/4
f 275/7/4 276/7/4 279/7/4
f 274/7/4 275/7/4 279/7/4
f 273/7/4 274/7/4 279/7/4
f 250/7/4 269/7/4 279/7/4
f 269/7/4 270/7/4 279/7/4
f 270/7/4 271/7/4 279/7/4
f 277/7/4 263/7/4 280/7/4
f 279/7/4 277/7/4 280/7/4
f 263/4/4 264/4/4 280/4/4
f 280/4/4 264/4/4 281/4/4
f 278/7/4 279/7/4 282/7/4
f 279/7/4 280/7/4 282/7/4
f 280/7/4 281/7/4 282/7/4
f 282/7/4 281/7/4 283/7/4
f 283/7/4 281/7/4 284/7/4
f 284/7/4 281/7/4 285/7/4
f 282/5/4 283/5/4 286/5/4
f 283/7/4 284/7/4 287/7/4
f 286/5/4 283/5/4 287/5/4
f 284/5/4 285/5/4 288/5/4
f 287/7/4 284/7/4 288/7/4
f 288/5/4 285/5/4 289/5/4
f 286/7/4 287/7/4 290/7/4
f 287/7/4 288/7/4 290/7/4
f 288/7/4 289/7/4 290/7/4
f 290/7/4 289/7/4 291/7/4
f 291/7/4 289/7/4 292/7/4
f 292/7/4 289/7/4 293/7/4
f 290/4/4 291/4/4 294/4/4
f 291/7/4 292/7/4 295/7/4
f 294/4/4 291/4/4 295/4/4
f 292/6/4 293/6/4 296/6/4
f 295/7/4 292/7/4 296/7/4
f 296/6/4 293/6/4 297/6/4
f 294/7/4 295/7/4 298/7/4
f 295/7/4 296/7/4 298/7/4
f 296/7/4 297/7/4 298/7/4
f 298/7/4 297/7/4 299/7/4
f 299/7/4 297/7/4 300/7/4
f 300/7/4 297/7/4 301/7/4
f 298/4/4 299/4/4 302/4/4
f 299/7/4 300/7/4 303/7/4
f 302/4/4 299/4/4 303/4/4
f 300/4/4 301/4/4 304/4/4
f 303/7/4 300/7/4 304/7/4
f 304/4/4 301/4/4 305/4/4
f 302/7/4 303/7/4 306/7/4
f 303/7/4 304/7/4 306/7/4
f 304/7/4 305/7/4 306/7/4
f 306/7/4 305/7/4 307/7/4
f 307/7/4 305/7/4 308/7/4
f 308/7/4 305/7/4 309/7/4
f 306/5/4 307/5/4 310/5/4
f 307/7/4 308/7/4 311/7/4
f 310/5/4 307/5/4 311/5/4
f 308/4/4 309/4/4 312/4/4
f 311/7/4 308/7/4 312/7/4
f 312/4/4 309/4/4 313/4/4
f 310/7/4 311/7/4 314/7/4
f 311/7/4 312/7/4 314/7/4
f 312/7/4 313/7/4 314/7/4
f 314/7/4 313/7/4 315/7/4
f 315/7/4 313/7/4 316/7/4
f 316/7/4 313/7/4 317/7/4
f 314/4/4 315/4/4 318/4/4
f 315/7/4 316/7/4 319/7/4
f 318/4/4 315/4/4 319/4/4
f 316/5/4 317/5/4 320/5/4
f 319/7/4 316/7/4 320/7/4
f 320/5/4 317/5/4 321/5/4
f 318/7/4 319/7/4 322/7/4
f 319/7/4 320/7/4 322/7/4
f 320/7/4 321/7/4 322/7/4
f 322/7/4 321/7/4 323/7/4
f 323/7/4 321/7/4 324/7/4
f 324/7/4 321/7/4 325/7/4
f 322/4/4 323/4/4 326/4/4
f 323/7/4 324/7/4 327/7/4
f 326/4/4 323/4/4 327/4/4
f 324/4/4 325/4/4 328/4/4
f 327/7/4 324/7/4 328/7/4
f 328/4/4 325/4/4 329/4/4
f 326/7/4 327/7/4 330/7/4
f 327/7/4 328/7/4 330/7/4
f 328/7/4 329/7/4 330/7/4
f 330/7/4 329/7/4 331/7/4
f 331/7/4 329/7/4 332/7/4
f 332/7/4 329/7/4 333/7/4
f 331/7/4 332/7/4 334/7/4
f 334/7/4 332/7/4 335/7/4
f 335/7/4 332/7/4 336/7/4
f 336/7/4 332/7/4 337/7/4
f 337/7/4 332/7/4 338/7/4
f 338/7/4 332/7/4 339/7/4
f 339/7/4 332/7/4 340/7/4
f 340/7/4 332/7/4 341/7/4
f 341/7/4 332/7/4 342/7/4
f 342/7/4 332/7/4 343/7/4
f 343/7/4 332/7/4 344/7/4
f 344/7/4 332/7/4 345/7/4
f 330/4/4 331/4/4 346/4/4
f 331/7/4 334/7/4 347/7/4
f 346/4/4 331/4/4 347/4/4
f 334/6/4 335/6/4 348/6/4
f 347/7/4 334/7/4 348/7/4
f 335/7/4 336/7/4 349/7/4
f 348/6/4 335/6/4 349/6/4
f 336/5/4 337/5/4 350/5/4
f 349/7/4 336/7/4 350/7/4
f 337/7/4 338/7/4 351/7/4
f 350/5/4 337/5/4 351/5/4
f 338/4/4 339/4/4 352/4/4
f 351/7/4 338/7/4 352/7/4
f 339/7/4 340/7/4 353/7/4
f 352/4/4 339/4/4 353/4/4
f 340/4/4 341/4/4 354/4/4
f 353/7/4 340/7/4 354/7/4
f 341/7/4 342/7/4 355/7/4
f 354/4/4 341/4/4 355/4/4
f 342/5/4 343/5/4 356/5/4
f 355/7/4 342/7/4 356/7/4
f 343/7/4 344/7/4 357/7/4
f 356/5/4 343/5/4 357/5/4
f 344/4/4 345/4/4 358/4/4
f 357/7/4 344/7/4 358/7/4
f 345/7/4 332/7/4 359/7/4
f 358/4/4 345/4/4 359/4/4
f 332/4/4 333/4/4 360/4/4
f 359/7/4 332/7/4 360/7/4
f 360/4/4 333/4/4 361/4/4
f 378/4/5 363/4/5 362/4/5
f 378/7/5 364/7/5 363/7/5
f 379/5/5 365/5/5 364/5/5
f 379/7/5 364/7/5 378/7/5
f 380/7/5 366/7/5 365/7/5
f 380/5/5 365/5/5 379/5/5
f 381/4/5 367/4/5 366/4/5
f 381/7/5 366/7/5 380/7/5
f 382/7/5 368/7/5 367/7/5
f 382/4/5 367/4/5 381/4/5
f 383/4/5 369/4/5 368/4/5
f 383/7/5 368/7/5 382/7/5
f 384/7/5 370/7/5 369/7/5
f 384/4/5 369/4/5 383/4/5
f 385/5/5 371/5/5 370/5/5
f 385/7/5 370/7/5 384/7/5
f 386/7/5 372/7/5 371/7/5
f 386/5/5 371/5/5 385/5/5
f 387/4/5 373/4/5 372/4/5
f 387/7/5 372/7/5 386/7/5
f 388/7/5 374/7/5 373/7/5
f 388/4/5 373/4/5 387/4/5
f 389/4/5 375/4/5 374/4/5
f 389/7/5 374/7/5 388/7/5
f 390/7/5 376/7/5 375/7/5
f 390/4/5 375/4/5 389/4/5
f 391/4/5 377/4/5 376/4/5
f 391/7/5 376/7/5 390/7/5
f 392/4/5 378/4/5 362/4/5
f 392/3/5 379/3/5 378/3/5
f 393/5/5 380/5/5 379/5/5
f 393/3/5 379/3/5 392/3/5
f 394/3/5 381/3/5 380/3/5
f 394/5/5 380/5/5 393/5/5
f 395/4/5 382/4/5 381/4/5
f 395/3/5 381/3/5 394/3/5
f 396/3/5 383/3/5 382/3/5
f 396/4/5 382/4/5 395/4/5
f 397/4/5 384/4/5 383/4/5
f 397/3/5 383/3/5 396/3/5
f 398/3/5 385/3/5 384/3/5
f 398/4/5 384/4/5 397/4/5
f 399/5/5 386/5/5 385/5/5
f 399/3/5 385/3/5 398/3/5
f 400/3/5 387/3/5 386/3/5
f 400/5/5 386/5/5 399/5/5
f 401/4/5 388/4/5 387/4/5
f 401/3/5 387/3/5 400/3/5
f 402/3/5 389/3/5 388/3/5
f 402/4/5 388/4/5 401/4/5
f 403/4/5 390/4/5 389/4/5
f 403/3/5 389/3/5 402/3/5
f 404/3/5 391/3/5 390/3/5
f 404/4/5 390/4/5 403/4/5
f 405/4/5 377/4/5 391/4/5
f 405/3/5 391/3/5 404/3/5
f 406/4/5 392/4/5 362/4/5
f 407/7/5 393/7/5 392/7/5
f 407/4/5 392/4/5 406/4/5
f 408/5/5 394/5/5 393/5/5
f 408/7/5 393/7/5 407/7/5
f 409/7/5 395/7/5 394/7/5
f 409/5/5 394/5/5 408/5/5
f 410/4/5 396/4/5 395/4/5
f 410/7/5 395/7/5 409/7/5
f 411/7/5 397/7/5 396/7/5
f 411/4/5 396/4/5 410/4/5
f 412/4/5 398/4/5 397/4/5
f 412/7/5 397/7/5 411/7/5
f 413/7/5 399/7/5 398/7/5
f 413/4/5 398/4/5 412/4/5
f 414/5/5 400/5/5 399/5/5
f 414/7/5 399/7/5 413/7/5
f 415/7/5 401/7/5 400/7/5
f 415/5/5 400/5/5 414/5/5
f 416/4/5 402/4/5 401/4/5
f 416/7/5 401/7/5 415/7/5
f 417/7/5 403/7/5 402/7/5
f 417/4/5 402/4/5 416/4/5
f 418/4/5 404/4/5 403/4/5
f 418/7/5 403/7/5 417/7/5
f 419/7/5 405/7/5 404/7/5
f 419/4/5 404/4/5 418/4/5
f 420/4/5 377/4/5 405/4/5
f 420/7/5 405/7/5 419/7/5
f 421/4/5 377/4/5 420/4/5
f 424/4/5 423/4/5 422/4/5
f 425/4/5 423/4/5 424/4/5
f 428/6/5 427/6/5 426/6/5
f 429/6/5 427/6/5 428/6/5
f 430/4/6 431/4/6 432/4/6
f 432/4/6 431/4/6 433/4/6
f 434/4/6 435/4/6 436/4/6
f 436/4/6 435/4/6 437/4/6
f 438/4/6 439/4/6 454/4/6
f 439/7/6 440/7/6 454/7/6
f 440/5/6 441/5/6 455/5/6
f 454/7/6 440/7/6 455/7/6
f 441/7/6 442/7/6 456/7/6
f 455/5/6 441/5/6 456/5/6
f 442/6/6 443/6/6 457/6/6
f 456/7/6 442/7/6 457/7/6
f 443/7/6 444/7/6 458/7/6
f 457/6/6 443/6/6 458/6/6
f 444/4/6 445/4/6 459/4/6
f 458/7/6 444/7/6 459/7/6
f 445/7/6 446/7/6 460/7/6
f 459/4/6 445/4/6 460/4/6
f 446/4/6 447/4/6 461/4/6
f 460/7/6 446/7/6 461/7/6
f 447/7/6 448/7/6 462/7/6
f 461/4/6 447/4/6 462/4/6
f 448/5/6 449/5/6 463/5/6
f 462/7/6 448/7/6 463/7/6
f 449/7/6 450/7/6 464/7/6
f 463/5/6 449/5/6 464/5/6
f 450/4/6 451/4/6 465/4/6
f 464/7/6 450/7/6 465/7/6
f 451/7/6 452/7/6 466/7/6
f 465/4/6 451/4/6 466/4/6
f 452/4/6 453/4/6 467/4/6
f 466/7/6 452/7/6 467/7/6
f 438/4/6 454/4/6 468/4/6
f 454/3/6 455/3/6 468/3/6
f 455/5/6 456/5/6 469/5/6
f 468/3/6 455/3/6 469/3/6
f 456/3/6 457/3/6 470/3/6
f 469/5/6 456/5/6 470/5/6
f 457/6/6 458/6/6 471/6/6
f 470/3/6 457/3/6 471/3/6
f 458/3/6 459/3/6 472/3/6
f 471/6/6 458/6/6 472/6/6
f 459/4/6 460/4/6 473/4/6
f 472/3/6 459/3/6 473/3/6
f 460/3/6 461/3/6 474/3/6
f 473/4/6 460/4/6 474/4/6
f 461/4/6 462/4/6 475/4/6
f 474/3/6 461/3/6 475/3/6
f 462/3/6 463/3/6 476/3/6
f 475/4/6 462/4/6 476/4/6
f 463/5/6 464/5/6 477/5/6
f 476/3/6 463/3/6 477/3/6
f 464/3/6 465/3/6 478/3/6
f 477/5/6 464/5/6 478/5/6
f 465/4/6 466/4/6 479/4/6
f 478/3/6 465/3/6 479/3/6
f 466/3/6 467/3/6 480/3/6
f 479/4/6 466/4/6 480/4/6
f 467/4/6 453/4/6 481/4/6
f 480/3/6 467/3/6 481/3/6
f 438/4/6 468/4/6 482/4/6
f 468/7/6 469/7/6 483/7/6
f 482/4/6 468/4/6 483/4/6
f 469/5/6 470/5/6 484/5/6
f 483/7/6 469/7/6 484/7/6
f 470/7/6 471/7/6 485/7/6
f 484/5/6 470/5/6 485/5/6
f 471/6/6 472/6/6 486/6/6
f 485/7/6 471/7/6 486/7/6
f 472/7/6 473/7/6 487/7/6
f 486/6/6 472/6/6 487/6/6
f 473/4/6 474/4/6 488/4/6
f 487/7/6 473/7/6 488/7/6
f 474/7/6 475/7/6 489/7/6
f 488/4/6 474/4/6 489/4/6
f 475/4/6 476/4/6 490/4/6
f 489/7/6 475/7/6 490/7/6
f 476/7/6 477/7/6 491/7/6
f 490/4/6 476/4/6 491/4/6
f 477/5/6 478/5/6 492/5/6
f 491/7/6 477/7/6 492/7/6
f 478/7/6 479/7/6 493/7/6
f 492/5/6 478/5/6 493/5/6
f 479/4/6 480/4/6 494/4/6
f 493/7/6 479/7/6 494/7/6
f 480/7/6 481/7/6 495/7/6
f 494/4/6 480/4/6 495/4/6
f 481/4/6 453/4/6 496/4/6
f 495/7/6 481/7/6 496/7/6
f 496/4/6 453/4/6 497/4/6
