# MagicaVoxel @ Ephtracy

# group
o roofwindow-wood-10x30x7

# material
mtllib components-5-roofwindow-wood-10x30x7.mtl
usemtl palette

# normals
vn -1 0 0
vn 1 0 0
vn 0 0 1
vn 0 0 -1
vn 0 -1 0
vn 0 1 0

# texcoords
vt 0.0175781 0.5
vt 0.271484 0.5
vt 0.994141 0.5

# verts
v -0.5 0 18.8
v -0.5 0 18.5
v -0.5 0 18.2
v -0.5 0 17.9
v -0.5 3 18.8
v -0.5 3 18.5
v -0.5 3 18.2
v -0.5 3 17.9
v 0.5 0 18.8
v 0.5 0 18.5
v 0.5 0 18.2
v 0.5 0 17.9
v 0.5 3 18.8
v 0.5 3 18.5
v 0.5 3 18.2
v 0.5 3 17.9
v -0.5 0 18.8
v -0.5 3 18.8
v 0.5 0 18.8
v 0.5 3 18.8
v -0.5 0 17.9
v -0.5 3 17.9
v 0.5 0 17.9
v 0.5 3 17.9
v -0.5 0 18.8
v 0.5 0 18.8
v -0.5 0 18.5
v 0.5 0 18.5
v -0.5 0 18.2
v 0.5 0 18.2
v -0.5 0 17.9
v 0.5 0 17.9
v -0.5 3 18.8
v 0.5 3 18.8
v -0.5 3 18.5
v 0.5 3 18.5
v -0.5 3 18.2
v 0.5 3 18.2
v -0.5 3 17.9
v 0.5 3 17.9

# faces
f 5/3/1 2/3/1 1/3/1
f 6/2/1 3/2/1 2/2/1
f 6/3/1 2/3/1 5/3/1
f 7/3/1 4/3/1 3/3/1
f 7/2/1 3/2/1 6/2/1
f 8/3/1 4/3/1 7/3/1
f 9/3/2 10/3/2 13/3/2
f 10/2/2 11/2/2 14/2/2
f 13/3/2 10/3/2 14/3/2
f 11/3/2 12/3/2 15/3/2
f 14/2/2 11/2/2 15/2/2
f 15/3/2 12/3/2 16/3/2
f 19/3/3 18/3/3 17/3/3
f 20/3/3 18/3/3 19/3/3
f 21/3/4 22/3/4 23/3/4
f 23/3/4 22/3/4 24/3/4
f 27/3/5 26/3/5 25/3/5
f 28/3/5 26/3/5 27/3/5
f 29/2/5 28/2/5 27/2/5
f 30/2/5 28/2/5 29/2/5
f 31/3/5 30/3/5 29/3/5
f 32/3/5 30/3/5 31/3/5
f 33/3/6 34/3/6 35/3/6
f 35/3/6 34/3/6 36/3/6
f 35/2/6 36/2/6 37/2/6
f 37/2/6 36/2/6 38/2/6
f 37/3/6 38/3/6 39/3/6
f 39/3/6 38/3/6 40/3/6
