# MagicaVoxel @ Ephtracy

# group
o bars-rusty-medium

# material
mtllib components-7-bars-rusty-medium.mtl
usemtl palette

# normals
vn -1 0 0
vn 1 0 0
vn 0 0 1
vn 0 0 -1
vn 0 -1 0
vn 0 1 0

# texcoords
vt 0.595703 0.5
vt 0.599609 0.5
vt 0.603516 0.5
vt 0.607422 0.5
vt 0.611328 0.5
vt 0.615234 0.5
vt 0.619141 0.5
vt 0.623047 0.5

# verts
v -1.7 0.8 20.1
v -1.7 0.8 19.9
v -1.7 0.8 19.7
v -1.7 0.9 20.1
v -1.7 0.9 19.9
v -1.7 0.9 19.7
v -1.7 1.4 20.1
v -1.7 1.4 20
v -1.7 1.4 19.8
v -1.7 1.4 19.7
v -1.7 1.5 20.1
v -1.7 1.5 20
v -1.7 1.5 19.8
v -1.7 1.5 19.7
v -1.7 2 20.1
v -1.7 2 19.9
v -1.7 2 19.7
v -1.7 2.1 20.1
v -1.7 2.1 19.9
v -1.7 2.1 19.7
v -0.9 0 20.2
v -0.9 0 20.1
v -0.9 0 19.9
v -0.9 0 19.8
v -0.9 0 19.7
v -0.9 0.1 20.1
v -0.9 0.1 19.9
v -0.9 0.1 19.8
v -0.9 0.1 19.7
v -0.9 0.3 20.2
v -0.9 0.3 20.1
v -0.9 0.5 20.2
v -0.9 0.5 20.1
v -0.9 0.8 20.2
v -0.9 0.8 20.1
v -0.9 0.9 20.2
v -0.9 0.9 20.1
v -0.9 1 20.2
v -0.9 1 20.1
v -0.9 1.1 20.2
v -0.9 1.1 20.1
v -0.9 1.2 20.2
v -0.9 1.2 20.1
v -0.9 1.4 20.2
v -0.9 1.4 20.1
v -0.9 1.5 20.2
v -0.9 1.5 20.1
v -0.9 1.6 20.2
v -0.9 1.6 20.1
v -0.9 1.7 20.2
v -0.9 1.7 20.1
v -0.9 1.8 20.2
v -0.9 1.8 20.1
v -0.9 1.9 20.2
v -0.9 1.9 20.1
v -0.9 2 20.2
v -0.9 2 20.1
v -0.9 2.1 20.2
v -0.9 2.1 20.1
v -0.9 2.4 20.2
v -0.9 2.4 20.1
v -0.9 2.6 20.2
v -0.9 2.6 20.1
v -0.9 2.7 20.2
v -0.9 2.7 20.1
v -0.9 2.8 20.1
v -0.9 2.8 20
v -0.9 2.8 19.8
v -0.9 2.8 19.7
v -0.9 2.9 20.2
v -0.9 2.9 20.1
v -0.9 2.9 20
v -0.9 2.9 19.8
v -0.9 2.9 19.7
v -4.47035e-008 0 20.2
v -4.47035e-008 0 20
v -4.47035e-008 0 19.9
v -4.47035e-008 0 19.7
v -4.47035e-008 0.1 20.2
v -4.47035e-008 0.1 20.1
v -4.47035e-008 0.1 20
v -4.47035e-008 0.1 19.9
v -4.47035e-008 0.1 19.7
v -4.47035e-008 0.4 20.2
v -4.47035e-008 0.4 20.1
v -4.47035e-008 0.5 20.2
v -4.47035e-008 0.5 20.1
v -4.47035e-008 0.8 20.2
v -4.47035e-008 0.8 20.1
v -4.47035e-008 0.9 20.2
v -4.47035e-008 0.9 20.1
v -4.47035e-008 1 20.2
v -4.47035e-008 1 20.1
v -4.47035e-008 1.1 20.2
v -4.47035e-008 1.1 20.1
v -4.47035e-008 1.2 20.2
v -4.47035e-008 1.2 20.1
v -4.47035e-008 1.3 20.2
v -4.47035e-008 1.3 20.1
v -4.47035e-008 1.4 20.2
v -4.47035e-008 1.4 20.1
v -4.47035e-008 1.5 20.2
v -4.47035e-008 1.5 20.1
v -4.47035e-008 1.6 20.2
v -4.47035e-008 1.6 20.1
v -4.47035e-008 1.7 20.2
v -4.47035e-008 1.7 20.1
v -4.47035e-008 1.8 20.2
v -4.47035e-008 1.8 20.1
v -4.47035e-008 1.9 20.2
v -4.47035e-008 1.9 20.1
v -4.47035e-008 2 20.2
v -4.47035e-008 2 20.1
v -4.47035e-008 2.1 20.2
v -4.47035e-008 2.1 20.1
v -4.47035e-008 2.4 20.2
v -4.47035e-008 2.4 20.1
v -4.47035e-008 2.6 20.2
v -4.47035e-008 2.6 20.1
v -4.47035e-008 2.7 20.2
v -4.47035e-008 2.7 20.1
v -4.47035e-008 2.8 20.2
v -4.47035e-008 2.8 20.1
v -4.47035e-008 2.8 20
v -4.47035e-008 2.8 19.9
v -4.47035e-008 2.8 19.7
v -4.47035e-008 2.9 20.2
v -4.47035e-008 2.9 20.1
v -4.47035e-008 2.9 20
v -4.47035e-008 2.9 19.9
v -4.47035e-008 2.9 19.7
v 0.9 0 20.2
v 0.9 0 20.1
v 0.9 0 20
v 0.9 0 19.8
v 0.9 0 19.7
v 0.9 0.1 20.1
v 0.9 0.1 20
v 0.9 0.1 19.8
v 0.9 0.1 19.7
v 0.9 0.2 20.2
v 0.9 0.2 20.1
v 0.9 0.5 20.2
v 0.9 0.5 20.1
v 0.9 0.7 20.2
v 0.9 0.7 20.1
v 0.9 0.8 20.2
v 0.9 0.8 20.1
v 0.9 0.9 20.2
v 0.9 0.9 20.1
v 0.9 1.2 20.2
v 0.9 1.2 20.1
v 0.9 1.3 20.2
v 0.9 1.3 20.1
v 0.9 1.4 20.2
v 0.9 1.4 20.1
v 0.9 1.5 20.2
v 0.9 1.5 20.1
v 0.9 1.6 20.2
v 0.9 1.6 20.1
v 0.9 1.7 20.2
v 0.9 1.7 20.1
v 0.9 1.8 20.2
v 0.9 1.8 20.1
v 0.9 2 20.2
v 0.9 2 20.1
v 0.9 2.1 20.2
v 0.9 2.1 20.1
v 0.9 2.7 20.2
v 0.9 2.7 20.1
v 0.9 2.8 20.2
v 0.9 2.8 20.1
v 0.9 2.8 20
v 0.9 2.8 19.9
v 0.9 2.8 19.8
v 0.9 2.8 19.7
v 0.9 2.9 20.2
v 0.9 2.9 20.1
v 0.9 2.9 20
v 0.9 2.9 19.9
v 0.9 2.9 19.8
v 0.9 2.9 19.7
v 1.7 0.8 20
v 1.7 0.8 19.8
v 1.7 0.8 19.7
v 1.7 0.9 20
v 1.7 0.9 19.8
v 1.7 0.9 19.7
v 1.7 1.4 20
v 1.7 1.4 19.9
v 1.7 1.4 19.8
v 1.7 1.4 19.7
v 1.7 1.5 20
v 1.7 1.5 19.9
v 1.7 1.5 19.8
v 1.7 1.5 19.7
v 1.7 2 20
v 1.7 2 19.8
v 1.7 2 19.7
v 1.7 2.1 20
v 1.7 2.1 19.8
v 1.7 2.1 19.7
v -1.6 0.8 20
v -1.6 0.8 19.9
v -1.6 0.8 19.7
v -1.6 0.9 20
v -1.6 0.9 19.9
v -1.6 0.9 19.7
v -1.6 1.4 20
v -1.6 1.4 19.8
v -1.6 1.4 19.7
v -1.6 1.5 20
v -1.6 1.5 19.8
v -1.6 1.5 19.7
v -1.6 2 20
v -1.6 2 19.9
v -1.6 2 19.7
v -1.6 2.1 20
v -1.6 2.1 19.9
v -1.6 2.1 19.7
v -0.8 0 20.2
v -0.8 0 20.1
v -0.8 0 19.9
v -0.8 0 19.8
v -0.8 0 19.7
v -0.8 0.1 20.1
v -0.8 0.1 19.9
v -0.8 0.1 19.8
v -0.8 0.1 19.7
v -0.8 0.3 20.2
v -0.8 0.3 20.1
v -0.8 0.5 20.2
v -0.8 0.5 20.1
v -0.8 0.8 20.2
v -0.8 0.8 20.1
v -0.8 0.9 20.2
v -0.8 0.9 20.1
v -0.8 1 20.2
v -0.8 1 20.1
v -0.8 1.1 20.2
v -0.8 1.1 20.1
v -0.8 1.2 20.2
v -0.8 1.2 20.1
v -0.8 1.4 20.2
v -0.8 1.4 20.1
v -0.8 1.5 20.2
v -0.8 1.5 20.1
v -0.8 1.6 20.2
v -0.8 1.6 20.1
v -0.8 1.7 20.2
v -0.8 1.7 20.1
v -0.8 1.8 20.2
v -0.8 1.8 20.1
v -0.8 1.9 20.2
v -0.8 1.9 20.1
v -0.8 2 20.2
v -0.8 2 20.1
v -0.8 2.1 20.2
v -0.8 2.1 20.1
v -0.8 2.4 20.2
v -0.8 2.4 20.1
v -0.8 2.6 20.2
v -0.8 2.6 20.1
v -0.8 2.7 20.2
v -0.8 2.7 20.1
v -0.8 2.8 20.1
v -0.8 2.8 20
v -0.8 2.8 19.8
v -0.8 2.8 19.7
v -0.8 2.9 20.2
v -0.8 2.9 20.1
v -0.8 2.9 20
v -0.8 2.9 19.8
v -0.8 2.9 19.7
v 0.1 0 20.2
v 0.1 0 20
v 0.1 0 19.9
v 0.1 0 19.7
v 0.1 0.1 20.2
v 0.1 0.1 20.1
v 0.1 0.1 20
v 0.1 0.1 19.9
v 0.1 0.1 19.7
v 0.1 0.4 20.2
v 0.1 0.4 20.1
v 0.1 0.5 20.2
v 0.1 0.5 20.1
v 0.1 0.8 20.2
v 0.1 0.8 20.1
v 0.1 0.9 20.2
v 0.1 0.9 20.1
v 0.1 1 20.2
v 0.1 1 20.1
v 0.1 1.1 20.2
v 0.1 1.1 20.1
v 0.1 1.2 20.2
v 0.1 1.2 20.1
v 0.1 1.3 20.2
v 0.1 1.3 20.1
v 0.1 1.4 20.2
v 0.1 1.4 20.1
v 0.1 1.5 20.2
v 0.1 1.5 20.1
v 0.1 1.6 20.2
v 0.1 1.6 20.1
v 0.1 1.7 20.2
v 0.1 1.7 20.1
v 0.1 1.8 20.2
v 0.1 1.8 20.1
v 0.1 1.9 20.2
v 0.1 1.9 20.1
v 0.1 2 20.2
v 0.1 2 20.1
v 0.1 2.1 20.2
v 0.1 2.1 20.1
v 0.1 2.4 20.2
v 0.1 2.4 20.1
v 0.1 2.6 20.2
v 0.1 2.6 20.1
v 0.1 2.7 20.2
v 0.1 2.7 20.1
v 0.1 2.8 20.2
v 0.1 2.8 20.1
v 0.1 2.8 20
v 0.1 2.8 19.9
v 0.1 2.8 19.7
v 0.1 2.9 20.2
v 0.1 2.9 20.1
v 0.1 2.9 20
v 0.1 2.9 19.9
v 0.1 2.9 19.7
v 1 0 20.2
v 1 0 20.1
v 1 0 20
v 1 0 19.8
v 1 0 19.7
v 1 0.1 20.1
v 1 0.1 20
v 1 0.1 19.8
v 1 0.1 19.7
v 1 0.2 20.2
v 1 0.2 20.1
v 1 0.5 20.2
v 1 0.5 20.1
v 1 0.7 20.2
v 1 0.7 20.1
v 1 0.8 20.2
v 1 0.8 20.1
v 1 0.9 20.2
v 1 0.9 20.1
v 1 1.2 20.2
v 1 1.2 20.1
v 1 1.3 20.2
v 1 1.3 20.1
v 1 1.4 20.2
v 1 1.4 20.1
v 1 1.5 20.2
v 1 1.5 20.1
v 1 1.6 20.2
v 1 1.6 20.1
v 1 1.7 20.2
v 1 1.7 20.1
v 1 1.8 20.2
v 1 1.8 20.1
v 1 2 20.2
v 1 2 20.1
v 1 2.1 20.2
v 1 2.1 20.1
v 1 2.7 20.2
v 1 2.7 20.1
v 1 2.8 20.2
v 1 2.8 20.1
v 1 2.8 20
v 1 2.8 19.9
v 1 2.8 19.8
v 1 2.8 19.7
v 1 2.9 20.2
v 1 2.9 20.1
v 1 2.9 20
v 1 2.9 19.9
v 1 2.9 19.8
v 1 2.9 19.7
v 1.8 0.8 20.1
v 1.8 0.8 20
v 1.8 0.8 19.8
v 1.8 0.8 19.7
v 1.8 0.9 20.1
v 1.8 0.9 20
v 1.8 0.9 19.8
v 1.8 0.9 19.7
v 1.8 1.4 20.1
v 1.8 1.4 19.9
v 1.8 1.4 19.8
v 1.8 1.4 19.7
v 1.8 1.5 20.1
v 1.8 1.5 19.9
v 1.8 1.5 19.8
v 1.8 1.5 19.7
v 1.8 2 20.1
v 1.8 2 20
v 1.8 2 19.8
v 1.8 2 19.7
v 1.8 2.1 20.1
v 1.8 2.1 20
v 1.8 2.1 19.8
v 1.8 2.1 19.7
v -0.9 0 20.2
v -0.9 0.3 20.2
v -0.9 0.5 20.2
v -0.9 0.8 20.2
v -0.9 0.9 20.2
v -0.9 1 20.2
v -0.9 1.1 20.2
v -0.9 1.2 20.2
v -0.9 1.4 20.2
v -0.9 1.5 20.2
v -0.9 1.6 20.2
v -0.9 1.7 20.2
v -0.9 1.8 20.2
v -0.9 1.9 20.2
v -0.9 2 20.2
v -0.9 2.1 20.2
v -0.9 2.4 20.2
v -0.9 2.6 20.2
v -0.9 2.7 20.2
v -0.9 2.9 20.2
v -0.8 0 20.2
v -0.8 0.3 20.2
v -0.8 0.5 20.2
v -0.8 0.8 20.2
v -0.8 0.9 20.2
v -0.8 1 20.2
v -0.8 1.1 20.2
v -0.8 1.2 20.2
v -0.8 1.4 20.2
v -0.8 1.5 20.2
v -0.8 1.6 20.2
v -0.8 1.7 20.2
v -0.8 1.8 20.2
v -0.8 1.9 20.2
v -0.8 2 20.2
v -0.8 2.1 20.2
v -0.8 2.4 20.2
v -0.8 2.6 20.2
v -0.8 2.7 20.2
v -0.8 2.9 20.2
v -4.47035e-008 0 20.2
v -4.47035e-008 0.1 20.2
v -4.47035e-008 0.4 20.2
v -4.47035e-008 0.5 20.2
v -4.47035e-008 0.8 20.2
v -4.47035e-008 0.9 20.2
v -4.47035e-008 1 20.2
v -4.47035e-008 1.1 20.2
v -4.47035e-008 1.2 20.2
v -4.47035e-008 1.3 20.2
v -4.47035e-008 1.4 20.2
v -4.47035e-008 1.5 20.2
v -4.47035e-008 1.6 20.2
v -4.47035e-008 1.7 20.2
v -4.47035e-008 1.8 20.2
v -4.47035e-008 1.9 20.2
v -4.47035e-008 2 20.2
v -4.47035e-008 2.1 20.2
v -4.47035e-008 2.4 20.2
v -4.47035e-008 2.6 20.2
v -4.47035e-008 2.7 20.2
v -4.47035e-008 2.8 20.2
v -4.47035e-008 2.9 20.2
v 0.1 0 20.2
v 0.1 0.1 20.2
v 0.1 0.4 20.2
v 0.1 0.5 20.2
v 0.1 0.8 20.2
v 0.1 0.9 20.2
v 0.1 1 20.2
v 0.1 1.1 20.2
v 0.1 1.2 20.2
v 0.1 1.3 20.2
v 0.1 1.4 20.2
v 0.1 1.5 20.2
v 0.1 1.6 20.2
v 0.1 1.7 20.2
v 0.1 1.8 20.2
v 0.1 1.9 20.2
v 0.1 2 20.2
v 0.1 2.1 20.2
v 0.1 2.4 20.2
v 0.1 2.6 20.2
v 0.1 2.7 20.2
v 0.1 2.8 20.2
v 0.1 2.9 20.2
v 0.9 0 20.2
v 0.9 0.2 20.2
v 0.9 0.5 20.2
v 0.9 0.7 20.2
v 0.9 0.8 20.2
v 0.9 0.9 20.2
v 0.9 1.2 20.2
v 0.9 1.3 20.2
v 0.9 1.4 20.2
v 0.9 1.5 20.2
v 0.9 1.6 20.2
v 0.9 1.7 20.2
v 0.9 1.8 20.2
v 0.9 2 20.2
v 0.9 2.1 20.2
v 0.9 2.7 20.2
v 0.9 2.8 20.2
v 0.9 2.9 20.2
v 1 0 20.2
v 1 0.2 20.2
v 1 0.5 20.2
v 1 0.7 20.2
v 1 0.8 20.2
v 1 0.9 20.2
v 1 1.2 20.2
v 1 1.3 20.2
v 1 1.4 20.2
v 1 1.5 20.2
v 1 1.6 20.2
v 1 1.7 20.2
v 1 1.8 20.2
v 1 2 20.2
v 1 2.1 20.2
v 1 2.7 20.2
v 1 2.8 20.2
v 1 2.9 20.2
v -1.7 0.8 20.1
v -1.7 0.9 20.1
v -1.7 1.4 20.1
v -1.7 1.5 20.1
v -1.7 2 20.1
v -1.7 2.1 20.1
v -1.6 0.8 20.1
v -1.6 0.9 20.1
v -1.6 1.4 20.1
v -1.6 1.5 20.1
v -1.6 2 20.1
v -1.6 2.1 20.1
v -1.5 1.4 20.1
v -1.5 1.5 20.1
v -1.4 0.8 20.1
v -1.4 0.9 20.1
v -1.4 2 20.1
v -1.4 2.1 20.1
v -1.3 0.8 20.1
v -1.3 0.9 20.1
v -1.3 1.4 20.1
v -1.3 1.5 20.1
v -1.3 2 20.1
v -1.3 2.1 20.1
v -1.1 0.8 20.1
v -1.1 0.9 20.1
v -1.1 1.4 20.1
v -1.1 1.5 20.1
v -1.1 2 20.1
v -1.1 2.1 20.1
v -1 0.8 20.1
v -1 0.9 20.1
v -1 1.4 20.1
v -1 1.5 20.1
v -1 2 20.1
v -1 2.1 20.1
v -0.9 0.8 20.1
v -0.9 0.9 20.1
v -0.9 1.4 20.1
v -0.9 1.5 20.1
v -0.9 2 20.1
v -0.9 2.1 20.1
v -0.8 0.8 20.1
v -0.8 0.9 20.1
v -0.8 1.4 20.1
v -0.8 1.5 20.1
v -0.8 2 20.1
v -0.8 2.1 20.1
v -0.7 0.8 20.1
v -0.7 0.9 20.1
v -0.7 1.4 20.1
v -0.7 1.5 20.1
v -0.7 2 20.1
v -0.7 2.1 20.1
v -0.6 0.8 20.1
v -0.6 0.9 20.1
v -0.6 1.4 20.1
v -0.6 1.5 20.1
v -0.6 2 20.1
v -0.6 2.1 20.1
v -0.5 2 20.1
v -0.5 2.1 20.1
v -0.4 0.8 20.1
v -0.4 0.9 20.1
v -0.4 1.4 20.1
v -0.4 1.5 20.1
v -0.4 2 20.1
v -0.4 2.1 20.1
v -0.2 0.8 20.1
v -0.2 0.9 20.1
v -0.2 1.4 20.1
v -0.2 1.5 20.1
v -0.2 2 20.1
v -0.2 2.1 20.1
v -0.1 0.8 20.1
v -0.1 0.9 20.1
v -0.1 1.4 20.1
v -0.1 1.5 20.1
v -0.1 2 20.1
v -0.1 2.1 20.1
v -4.47035e-008 0.8 20.1
v -4.47035e-008 0.9 20.1
v -4.47035e-008 1.4 20.1
v -4.47035e-008 1.5 20.1
v -4.47035e-008 2 20.1
v -4.47035e-008 2.1 20.1
v 0.1 0.8 20.1
v 0.1 0.9 20.1
v 0.1 1.4 20.1
v 0.1 1.5 20.1
v 0.1 2 20.1
v 0.1 2.1 20.1
v 0.2 0.8 20.1
v 0.2 0.9 20.1
v 0.2 1.4 20.1
v 0.2 1.5 20.1
v 0.2 2 20.1
v 0.2 2.1 20.1
v 0.3 0.8 20.1
v 0.3 0.9 20.1
v 0.3 1.4 20.1
v 0.3 1.5 20.1
v 0.3 2 20.1
v 0.3 2.1 20.1
v 0.4 0.8 20.1
v 0.4 0.9 20.1
v 0.4 2 20.1
v 0.4 2.1 20.1
v 0.5 0.8 20.1
v 0.5 0.9 20.1
v 0.6 0.8 20.1
v 0.6 0.9 20.1
v 0.6 2 20.1
v 0.6 2.1 20.1
v 0.7 0.8 20.1
v 0.7 0.9 20.1
v 0.7 1.4 20.1
v 0.7 1.5 20.1
v 0.7 2 20.1
v 0.7 2.1 20.1
v 0.8 0.8 20.1
v 0.8 0.9 20.1
v 0.8 1.4 20.1
v 0.8 1.5 20.1
v 0.8 2 20.1
v 0.8 2.1 20.1
v 0.9 0.8 20.1
v 0.9 0.9 20.1
v 0.9 1.4 20.1
v 0.9 1.5 20.1
v 0.9 2 20.1
v 0.9 2.1 20.1
v 1 0.8 20.1
v 1 0.9 20.1
v 1 1.4 20.1
v 1 1.5 20.1
v 1 2 20.1
v 1 2.1 20.1
v 1.1 0.8 20.1
v 1.1 0.9 20.1
v 1.1 1.4 20.1
v 1.1 1.5 20.1
v 1.1 2 20.1
v 1.1 2.1 20.1
v 1.2 0.8 20.1
v 1.2 0.9 20.1
v 1.2 1.4 20.1
v 1.2 1.5 20.1
v 1.2 2 20.1
v 1.2 2.1 20.1
v 1.4 0.8 20.1
v 1.4 0.9 20.1
v 1.4 2 20.1
v 1.4 2.1 20.1
v 1.5 0.8 20.1
v 1.5 0.9 20.1
v 1.5 1.4 20.1
v 1.5 1.5 20.1
v 1.5 2 20.1
v 1.5 2.1 20.1
v 1.6 0.8 20.1
v 1.6 0.9 20.1
v 1.6 2 20.1
v 1.6 2.1 20.1
v 1.7 1.4 20.1
v 1.7 1.5 20.1
v 1.7 2 20.1
v 1.7 2.1 20.1
v 1.8 0.8 20.1
v 1.8 0.9 20.1
v 1.8 1.4 20.1
v 1.8 1.5 20.1
v 1.8 2 20.1
v 1.8 2.1 20.1
v -0.9 0.1 20.1
v -0.9 0.3 20.1
v -0.9 0.5 20.1
v -0.9 0.8 20.1
v -0.9 0.9 20.1
v -0.9 1 20.1
v -0.9 1.1 20.1
v -0.9 1.2 20.1
v -0.9 1.4 20.1
v -0.9 1.5 20.1
v -0.9 1.6 20.1
v -0.9 1.7 20.1
v -0.9 1.8 20.1
v -0.9 1.9 20.1
v -0.9 2 20.1
v -0.9 2.1 20.1
v -0.9 2.4 20.1
v -0.9 2.6 20.1
v -0.9 2.7 20.1
v -0.9 2.8 20.1
v -0.8 0.1 20.1
v -0.8 0.3 20.1
v -0.8 0.5 20.1
v -0.8 0.8 20.1
v -0.8 0.9 20.1
v -0.8 1 20.1
v -0.8 1.1 20.1
v -0.8 1.2 20.1
v -0.8 1.4 20.1
v -0.8 1.5 20.1
v -0.8 1.6 20.1
v -0.8 1.7 20.1
v -0.8 1.8 20.1
v -0.8 1.9 20.1
v -0.8 2 20.1
v -0.8 2.1 20.1
v -0.8 2.4 20.1
v -0.8 2.6 20.1
v -0.8 2.7 20.1
v -0.8 2.8 20.1
v -4.47035e-008 0.1 20.1
v -4.47035e-008 0.4 20.1
v -4.47035e-008 0.5 20.1
v -4.47035e-008 0.8 20.1
v -4.47035e-008 0.9 20.1
v -4.47035e-008 1 20.1
v -4.47035e-008 1.1 20.1
v -4.47035e-008 1.2 20.1
v -4.47035e-008 1.3 20.1
v -4.47035e-008 1.4 20.1
v -4.47035e-008 1.5 20.1
v -4.47035e-008 1.6 20.1
v -4.47035e-008 1.7 20.1
v -4.47035e-008 1.8 20.1
v -4.47035e-008 1.9 20.1
v -4.47035e-008 2 20.1
v -4.47035e-008 2.1 20.1
v -4.47035e-008 2.4 20.1
v -4.47035e-008 2.6 20.1
v -4.47035e-008 2.7 20.1
v -4.47035e-008 2.8 20.1
v 0.1 0.1 20.1
v 0.1 0.4 20.1
v 0.1 0.5 20.1
v 0.1 0.8 20.1
v 0.1 0.9 20.1
v 0.1 1 20.1
v 0.1 1.1 20.1
v 0.1 1.2 20.1
v 0.1 1.3 20.1
v 0.1 1.4 20.1
v 0.1 1.5 20.1
v 0.1 1.6 20.1
v 0.1 1.7 20.1
v 0.1 1.8 20.1
v 0.1 1.9 20.1
v 0.1 2 20.1
v 0.1 2.1 20.1
v 0.1 2.4 20.1
v 0.1 2.6 20.1
v 0.1 2.7 20.1
v 0.1 2.8 20.1
v 0.9 0.1 20.1
v 0.9 0.2 20.1
v 0.9 0.5 20.1
v 0.9 0.7 20.1
v 0.9 0.8 20.1
v 0.9 0.9 20.1
v 0.9 1.2 20.1
v 0.9 1.3 20.1
v 0.9 1.4 20.1
v 0.9 1.5 20.1
v 0.9 1.6 20.1
v 0.9 1.7 20.1
v 0.9 1.8 20.1
v 0.9 2 20.1
v 0.9 2.1 20.1
v 0.9 2.7 20.1
v 0.9 2.8 20.1
v 1 0.1 20.1
v 1 0.2 20.1
v 1 0.5 20.1
v 1 0.7 20.1
v 1 0.8 20.1
v 1 0.9 20.1
v 1 1.2 20.1
v 1 1.3 20.1
v 1 1.4 20.1
v 1 1.5 20.1
v 1 1.6 20.1
v 1 1.7 20.1
v 1 1.8 20.1
v 1 2 20.1
v 1 2.1 20.1
v 1 2.7 20.1
v 1 2.8 20.1
v -1.6 0.8 20
v -1.6 0.9 20
v -1.6 1.4 20
v -1.6 1.5 20
v -1.6 2 20
v -1.6 2.1 20
v -1.5 1.4 20
v -1.5 1.5 20
v -1.4 0.8 20
v -1.4 0.9 20
v -1.4 2 20
v -1.4 2.1 20
v -1.3 0.8 20
v -1.3 0.9 20
v -1.3 1.4 20
v -1.3 1.5 20
v -1.3 2 20
v -1.3 2.1 20
v -1.1 0.8 20
v -1.1 0.9 20
v -1.1 1.4 20
v -1.1 1.5 20
v -1.1 2 20
v -1.1 2.1 20
v -1 0.8 20
v -1 0.9 20
v -1 1.4 20
v -1 1.5 20
v -1 2 20
v -1 2.1 20
v -0.9 0.8 20
v -0.9 0.9 20
v -0.9 1.4 20
v -0.9 1.5 20
v -0.8 0.8 20
v -0.8 0.9 20
v -0.7 0.8 20
v -0.7 0.9 20
v -0.7 1.4 20
v -0.7 1.5 20
v -0.7 2 20
v -0.7 2.1 20
v -0.6 0.8 20
v -0.6 0.9 20
v -0.6 1.4 20
v -0.6 1.5 20
v -0.6 2 20
v -0.6 2.1 20
v -0.5 2 20
v -0.5 2.1 20
v -0.4 0.8 20
v -0.4 0.9 20
v -0.4 1.4 20
v -0.4 1.5 20
v -0.4 2 20
v -0.4 2.1 20
v -0.2 0.8 20
v -0.2 0.9 20
v -0.2 1.4 20
v -0.2 1.5 20
v -0.2 2 20
v -0.2 2.1 20
v -0.1 0.8 20
v -0.1 0.9 20
v -0.1 1.4 20
v -0.1 1.5 20
v -0.1 2 20
v -0.1 2.1 20
v -4.47035e-008 0.8 20
v -4.47035e-008 0.9 20
v 0.2 0.8 20
v 0.2 0.9 20
v 0.2 1.4 20
v 0.2 1.5 20
v 0.2 2 20
v 0.2 2.1 20
v 0.3 0.8 20
v 0.3 0.9 20
v 0.3 1.4 20
v 0.3 1.5 20
v 0.3 2 20
v 0.3 2.1 20
v 0.4 0.8 20
v 0.4 0.9 20
v 0.4 2 20
v 0.4 2.1 20
v 0.5 0.8 20
v 0.5 0.9 20
v 0.6 0.8 20
v 0.6 0.9 20
v 0.6 2 20
v 0.6 2.1 20
v 0.7 0.8 20
v 0.7 0.9 20
v 0.7 1.4 20
v 0.7 1.5 20
v 0.7 2 20
v 0.7 2.1 20
v 0.8 0.8 20
v 0.8 0.9 20
v 0.8 1.4 20
v 0.8 1.5 20
v 0.8 2 20
v 0.8 2.1 20
v 0.9 1.4 20
v 0.9 1.5 20
v 1 0.8 20
v 1 0.9 20
v 1 1.4 20
v 1 1.5 20
v 1 2 20
v 1 2.1 20
v 1.1 0.8 20
v 1.1 0.9 20
v 1.1 1.4 20
v 1.1 1.5 20
v 1.1 2 20
v 1.1 2.1 20
v 1.2 0.8 20
v 1.2 0.9 20
v 1.2 1.4 20
v 1.2 1.5 20
v 1.2 2 20
v 1.2 2.1 20
v 1.4 0.8 20
v 1.4 0.9 20
v 1.4 2 20
v 1.4 2.1 20
v 1.5 0.8 20
v 1.5 0.9 20
v 1.5 1.4 20
v 1.5 1.5 20
v 1.5 2 20
v 1.5 2.1 20
v 1.6 0.8 20
v 1.6 0.9 20
v 1.6 2 20
v 1.6 2.1 20
v 1.7 0.8 20
v 1.7 0.9 20
v 1.7 1.4 20
v 1.7 1.5 20
v 1.7 2 20
v 1.7 2.1 20
v -1.7 0.8 19.7
v -1.7 0.9 19.7
v -1.7 1.4 19.7
v -1.7 1.5 19.7
v -1.7 2 19.7
v -1.7 2.1 19.7
v -1.6 0.8 19.7
v -1.6 0.9 19.7
v -1.6 1.4 19.7
v -1.6 1.5 19.7
v -1.6 2 19.7
v -1.6 2.1 19.7
v -0.9 0 19.7
v -0.9 0.1 19.7
v -0.9 2.8 19.7
v -0.9 2.9 19.7
v -0.8 0 19.7
v -0.8 0.1 19.7
v -0.8 2.8 19.7
v -0.8 2.9 19.7
v -4.47035e-008 0 19.7
v -4.47035e-008 0.1 19.7
v -4.47035e-008 2.8 19.7
v -4.47035e-008 2.9 19.7
v 0.1 0 19.7
v 0.1 0.1 19.7
v 0.1 2.8 19.7
v 0.1 2.9 19.7
v 0.9 0 19.7
v 0.9 0.1 19.7
v 0.9 2.8 19.7
v 0.9 2.9 19.7
v 1 0 19.7
v 1 0.1 19.7
v 1 2.8 19.7
v 1 2.9 19.7
v 1.7 0.8 19.7
v 1.7 0.9 19.7
v 1.7 1.4 19.7
v 1.7 1.5 19.7
v 1.7 2 19.7
v 1.7 2.1 19.7
v 1.8 0.8 19.7
v 1.8 0.9 19.7
v 1.8 1.4 19.7
v 1.8 1.5 19.7
v 1.8 2 19.7
v 1.8 2.1 19.7
v -0.9 0 20.2
v -0.8 0 20.2
v -4.47035e-008 0 20.2
v 0.1 0 20.2
v 0.9 0 20.2
v 1 0 20.2
v -0.9 0 20.1
v -0.8 0 20.1
v 0.9 0 20.1
v 1 0 20.1
v -4.47035e-008 0 20
v 0.1 0 20
v 0.9 0 20
v 1 0 20
v -0.9 0 19.9
v -0.8 0 19.9
v -4.47035e-008 0 19.9
v 0.1 0 19.9
v -0.9 0 19.8
v -0.8 0 19.8
v 0.9 0 19.8
v 1 0 19.8
v -0.9 0 19.7
v -0.8 0 19.7
v -4.47035e-008 0 19.7
v 0.1 0 19.7
v 0.9 0 19.7
v 1 0 19.7
v -1.7 0.8 20.1
v -1.6 0.8 20.1
v -1.4 0.8 20.1
v -1.3 0.8 20.1
v -1.1 0.8 20.1
v -1 0.8 20.1
v -0.9 0.8 20.1
v -0.8 0.8 20.1
v -0.7 0.8 20.1
v -0.6 0.8 20.1
v -0.4 0.8 20.1
v -0.2 0.8 20.1
v -0.1 0.8 20.1
v -4.47035e-008 0.8 20.1
v 0.1 0.8 20.1
v 0.2 0.8 20.1
v 0.3 0.8 20.1
v 0.4 0.8 20.1
v 0.5 0.8 20.1
v 0.6 0.8 20.1
v 0.7 0.8 20.1
v 0.8 0.8 20.1
v 0.9 0.8 20.1
v 1 0.8 20.1
v 1.1 0.8 20.1
v 1.2 0.8 20.1
v 1.4 0.8 20.1
v 1.5 0.8 20.1
v 1.6 0.8 20.1
v 1.8 0.8 20.1
v -1.6 0.8 20
v -1.4 0.8 20
v -1.3 0.8 20
v -1.1 0.8 20
v -1 0.8 20
v -0.9 0.8 20
v -0.8 0.8 20
v -0.7 0.8 20
v -0.6 0.8 20
v -0.4 0.8 20
v -0.2 0.8 20
v -0.1 0.8 20
v -4.47035e-008 0.8 20
v 0.2 0.8 20
v 0.3 0.8 20
v 0.4 0.8 20
v 0.5 0.8 20
v 0.6 0.8 20
v 0.7 0.8 20
v 0.8 0.8 20
v 1 0.8 20
v 1.1 0.8 20
v 1.2 0.8 20
v 1.4 0.8 20
v 1.5 0.8 20
v 1.6 0.8 20
v 1.7 0.8 20
v 1.8 0.8 20
v -1.7 0.8 19.9
v -1.6 0.8 19.9
v 1.7 0.8 19.8
v 1.8 0.8 19.8
v -1.7 0.8 19.7
v -1.6 0.8 19.7
v 1.7 0.8 19.7
v 1.8 0.8 19.7
v -1.7 1.4 20.1
v -1.6 1.4 20.1
v -1.5 1.4 20.1
v -1.3 1.4 20.1
v -1.1 1.4 20.1
v -1 1.4 20.1
v -0.9 1.4 20.1
v -0.8 1.4 20.1
v -0.7 1.4 20.1
v -0.6 1.4 20.1
v -0.4 1.4 20.1
v -0.2 1.4 20.1
v -0.1 1.4 20.1
v -4.47035e-008 1.4 20.1
v 0.1 1.4 20.1
v 0.2 1.4 20.1
v 0.3 1.4 20.1
v 0.7 1.4 20.1
v 0.8 1.4 20.1
v 0.9 1.4 20.1
v 1 1.4 20.1
v 1.1 1.4 20.1
v 1.2 1.4 20.1
v 1.5 1.4 20.1
v 1.7 1.4 20.1
v 1.8 1.4 20.1
v -1.7 1.4 20
v -1.6 1.4 20
v -1.5 1.4 20
v -1.3 1.4 20
v -1.1 1.4 20
v -1 1.4 20
v -0.9 1.4 20
v -0.7 1.4 20
v -0.6 1.4 20
v -0.4 1.4 20
v -0.2 1.4 20
v -0.1 1.4 20
v 0.2 1.4 20
v 0.3 1.4 20
v 0.7 1.4 20
v 0.8 1.4 20
v 0.9 1.4 20
v 1 1.4 20
v 1.1 1.4 20
v 1.2 1.4 20
v 1.5 1.4 20
v 1.7 1.4 20
v 1.7 1.4 19.9
v 1.8 1.4 19.9
v -1.7 1.4 19.8
v -1.6 1.4 19.8
v 1.7 1.4 19.8
v 1.8 1.4 19.8
v -1.7 1.4 19.7
v -1.6 1.4 19.7
v 1.7 1.4 19.7
v 1.8 1.4 19.7
v -1.7 2 20.1
v -1.6 2 20.1
v -1.4 2 20.1
v -1.3 2 20.1
v -1.1 2 20.1
v -1 2 20.1
v -0.9 2 20.1
v -0.8 2 20.1
v -0.7 2 20.1
v -0.6 2 20.1
v -0.5 2 20.1
v -0.4 2 20.1
v -0.2 2 20.1
v -0.1 2 20.1
v -4.47035e-008 2 20.1
v 0.1 2 20.1
v 0.2 2 20.1
v 0.3 2 20.1
v 0.4 2 20.1
v 0.6 2 20.1
v 0.7 2 20.1
v 0.8 2 20.1
v 0.9 2 20.1
v 1 2 20.1
v 1.1 2 20.1
v 1.2 2 20.1
v 1.4 2 20.1
v 1.5 2 20.1
v 1.6 2 20.1
v 1.7 2 20.1
v 1.8 2 20.1
v -1.6 2 20
v -1.4 2 20
v -1.3 2 20
v -1.1 2 20
v -1 2 20
v -0.7 2 20
v -0.6 2 20
v -0.5 2 20
v -0.4 2 20
v -0.2 2 20
v -0.1 2 20
v 0.2 2 20
v 0.3 2 20
v 0.4 2 20
v 0.6 2 20
v 0.7 2 20
v 0.8 2 20
v 1 2 20
v 1.1 2 20
v 1.2 2 20
v 1.4 2 20
v 1.5 2 20
v 1.6 2 20
v 1.7 2 20
v 1.8 2 20
v -1.7 2 19.9
v -1.6 2 19.9
v 1.7 2 19.8
v 1.8 2 19.8
v -1.7 2 19.7
v -1.6 2 19.7
v 1.7 2 19.7
v 1.8 2 19.7
v -0.9 2.8 20.1
v -0.8 2.8 20.1
v -4.47035e-008 2.8 20.1
v 0.1 2.8 20.1
v 0.9 2.8 20.1
v 1 2.8 20.1
v -0.9 2.8 20
v -0.8 2.8 20
v -4.47035e-008 2.8 20
v 0.1 2.8 20
v 0.9 2.8 20
v 1 2.8 20
v -4.47035e-008 2.8 19.9
v 0.1 2.8 19.9
v 0.9 2.8 19.9
v 1 2.8 19.9
v -0.9 2.8 19.8
v -0.8 2.8 19.8
v 0.9 2.8 19.8
v 1 2.8 19.8
v -0.9 2.8 19.7
v -0.8 2.8 19.7
v -4.47035e-008 2.8 19.7
v 0.1 2.8 19.7
v 0.9 2.8 19.7
v 1 2.8 19.7
v -0.9 0.1 20.1
v -0.8 0.1 20.1
v -4.47035e-008 0.1 20.1
v 0.1 0.1 20.1
v 0.9 0.1 20.1
v 1 0.1 20.1
v -4.47035e-008 0.1 20
v 0.1 0.1 20
v 0.9 0.1 20
v 1 0.1 20
v -0.9 0.1 19.9
v -0.8 0.1 19.9
v -4.47035e-008 0.1 19.9
v 0.1 0.1 19.9
v -0.9 0.1 19.8
v -0.8 0.1 19.8
v 0.9 0.1 19.8
v 1 0.1 19.8
v -0.9 0.1 19.7
v -0.8 0.1 19.7
v -4.47035e-008 0.1 19.7
v 0.1 0.1 19.7
v 0.9 0.1 19.7
v 1 0.1 19.7
v -1.7 0.9 20.1
v -1.6 0.9 20.1
v -1.4 0.9 20.1
v -1.3 0.9 20.1
v -1.1 0.9 20.1
v -1 0.9 20.1
v -0.9 0.9 20.1
v -0.8 0.9 20.1
v -0.7 0.9 20.1
v -0.6 0.9 20.1
v -0.4 0.9 20.1
v -0.2 0.9 20.1
v -0.1 0.9 20.1
v -4.47035e-008 0.9 20.1
v 0.1 0.9 20.1
v 0.2 0.9 20.1
v 0.3 0.9 20.1
v 0.4 0.9 20.1
v 0.5 0.9 20.1
v 0.6 0.9 20.1
v 0.7 0.9 20.1
v 0.8 0.9 20.1
v 0.9 0.9 20.1
v 1 0.9 20.1
v 1.1 0.9 20.1
v 1.2 0.9 20.1
v 1.4 0.9 20.1
v 1.5 0.9 20.1
v 1.6 0.9 20.1
v 1.8 0.9 20.1
v -1.6 0.9 20
v -1.4 0.9 20
v -1.3 0.9 20
v -1.1 0.9 20
v -1 0.9 20
v -0.9 0.9 20
v -0.8 0.9 20
v -0.7 0.9 20
v -0.6 0.9 20
v -0.4 0.9 20
v -0.2 0.9 20
v -0.1 0.9 20
v -4.47035e-008 0.9 20
v 0.2 0.9 20
v 0.3 0.9 20
v 0.4 0.9 20
v 0.5 0.9 20
v 0.6 0.9 20
v 0.7 0.9 20
v 0.8 0.9 20
v 1 0.9 20
v 1.1 0.9 20
v 1.2 0.9 20
v 1.4 0.9 20
v 1.5 0.9 20
v 1.6 0.9 20
v 1.7 0.9 20
v 1.8 0.9 20
v -1.7 0.9 19.9
v -1.6 0.9 19.9
v 1.7 0.9 19.8
v 1.8 0.9 19.8
v -1.7 0.9 19.7
v -1.6 0.9 19.7
v 1.7 0.9 19.7
v 1.8 0.9 19.7
v -1.7 1.5 20.1
v -1.6 1.5 20.1
v -1.5 1.5 20.1
v -1.3 1.5 20.1
v -1.1 1.5 20.1
v -1 1.5 20.1
v -0.9 1.5 20.1
v -0.8 1.5 20.1
v -0.7 1.5 20.1
v -0.6 1.5 20.1
v -0.4 1.5 20.1
v -0.2 1.5 20.1
v -0.1 1.5 20.1
v -4.47035e-008 1.5 20.1
v 0.1 1.5 20.1
v 0.2 1.5 20.1
v 0.3 1.5 20.1
v 0.7 1.5 20.1
v 0.8 1.5 20.1
v 0.9 1.5 20.1
v 1 1.5 20.1
v 1.1 1.5 20.1
v 1.2 1.5 20.1
v 1.5 1.5 20.1
v 1.7 1.5 20.1
v 1.8 1.5 20.1
v -1.7 1.5 20
v -1.6 1.5 20
v -1.5 1.5 20
v -1.3 1.5 20
v -1.1 1.5 20
v -1 1.5 20
v -0.9 1.5 20
v -0.7 1.5 20
v -0.6 1.5 20
v -0.4 1.5 20
v -0.2 1.5 20
v -0.1 1.5 20
v 0.2 1.5 20
v 0.3 1.5 20
v 0.7 1.5 20
v 0.8 1.5 20
v 0.9 1.5 20
v 1 1.5 20
v 1.1 1.5 20
v 1.2 1.5 20
v 1.5 1.5 20
v 1.7 1.5 20
v 1.7 1.5 19.9
v 1.8 1.5 19.9
v -1.7 1.5 19.8
v -1.6 1.5 19.8
v 1.7 1.5 19.8
v 1.8 1.5 19.8
v -1.7 1.5 19.7
v -1.6 1.5 19.7
v 1.7 1.5 19.7
v 1.8 1.5 19.7
v -1.7 2.1 20.1
v -1.6 2.1 20.1
v -1.4 2.1 20.1
v -1.3 2.1 20.1
v -1.1 2.1 20.1
v -1 2.1 20.1
v -0.9 2.1 20.1
v -0.8 2.1 20.1
v -0.7 2.1 20.1
v -0.6 2.1 20.1
v -0.5 2.1 20.1
v -0.4 2.1 20.1
v -0.2 2.1 20.1
v -0.1 2.1 20.1
v -4.47035e-008 2.1 20.1
v 0.1 2.1 20.1
v 0.2 2.1 20.1
v 0.3 2.1 20.1
v 0.4 2.1 20.1
v 0.6 2.1 20.1
v 0.7 2.1 20.1
v 0.8 2.1 20.1
v 0.9 2.1 20.1
v 1 2.1 20.1
v 1.1 2.1 20.1
v 1.2 2.1 20.1
v 1.4 2.1 20.1
v 1.5 2.1 20.1
v 1.6 2.1 20.1
v 1.7 2.1 20.1
v 1.8 2.1 20.1
v -1.6 2.1 20
v -1.4 2.1 20
v -1.3 2.1 20
v -1.1 2.1 20
v -1 2.1 20
v -0.7 2.1 20
v -0.6 2.1 20
v -0.5 2.1 20
v -0.4 2.1 20
v -0.2 2.1 20
v -0.1 2.1 20
v 0.2 2.1 20
v 0.3 2.1 20
v 0.4 2.1 20
v 0.6 2.1 20
v 0.7 2.1 20
v 0.8 2.1 20
v 1 2.1 20
v 1.1 2.1 20
v 1.2 2.1 20
v 1.4 2.1 20
v 1.5 2.1 20
v 1.6 2.1 20
v 1.7 2.1 20
v 1.8 2.1 20
v -1.7 2.1 19.9
v -1.6 2.1 19.9
v 1.7 2.1 19.8
v 1.8 2.1 19.8
v -1.7 2.1 19.7
v -1.6 2.1 19.7
v 1.7 2.1 19.7
v 1.8 2.1 19.7
v -0.9 2.9 20.2
v -0.8 2.9 20.2
v -4.47035e-008 2.9 20.2
v 0.1 2.9 20.2
v 0.9 2.9 20.2
v 1 2.9 20.2
v -0.9 2.9 20.1
v -0.8 2.9 20.1
v -4.47035e-008 2.9 20.1
v 0.1 2.9 20.1
v 0.9 2.9 20.1
v 1 2.9 20.1
v -0.9 2.9 20
v -0.8 2.9 20
v -4.47035e-008 2.9 20
v 0.1 2.9 20
v 0.9 2.9 20
v 1 2.9 20
v -4.47035e-008 2.9 19.9
v 0.1 2.9 19.9
v 0.9 2.9 19.9
v 1 2.9 19.9
v -0.9 2.9 19.8
v -0.8 2.9 19.8
v 0.9 2.9 19.8
v 1 2.9 19.8
v -0.9 2.9 19.7
v -0.8 2.9 19.7
v -4.47035e-008 2.9 19.7
v 0.1 2.9 19.7
v 0.9 2.9 19.7
v 1 2.9 19.7

# faces
f 4/7/1 2/7/1 1/7/1
f 5/8/1 3/8/1 2/8/1
f 5/7/1 2/7/1 4/7/1
f 6/8/1 3/8/1 5/8/1
f 11/6/1 8/6/1 7/6/1
f 12/8/1 9/8/1 8/8/1
f 12/6/1 8/6/1 11/6/1
f 13/7/1 10/7/1 9/7/1
f 13/8/1 9/8/1 12/8/1
f 14/7/1 10/7/1 13/7/1
f 18/6/1 16/6/1 15/6/1
f 19/7/1 17/7/1 16/7/1
f 19/6/1 16/6/1 18/6/1
f 20/7/1 17/7/1 19/7/1
f 26/3/1 22/3/1 21/3/1
f 26/6/1 23/6/1 22/6/1
f 27/7/1 24/7/1 23/7/1
f 27/6/1 23/6/1 26/6/1
f 28/8/1 25/8/1 24/8/1
f 28/7/1 24/7/1 27/7/1
f 29/8/1 25/8/1 28/8/1
f 30/3/1 26/3/1 21/3/1
f 31/3/1 26/3/1 30/3/1
f 32/2/1 31/2/1 30/2/1
f 33/2/1 31/2/1 32/2/1
f 34/4/1 33/4/1 32/4/1
f 35/4/1 33/4/1 34/4/1
f 36/6/1 35/6/1 34/6/1
f 37/6/1 35/6/1 36/6/1
f 38/3/1 37/3/1 36/3/1
f 39/3/1 37/3/1 38/3/1
f 40/2/1 39/2/1 38/2/1
f 41/2/1 39/2/1 40/2/1
f 42/3/1 41/3/1 40/3/1
f 43/3/1 41/3/1 42/3/1
f 44/4/1 43/4/1 42/4/1
f 45/4/1 43/4/1 44/4/1
f 46/6/1 45/6/1 44/6/1
f 47/6/1 45/6/1 46/6/1
f 48/4/1 47/4/1 46/4/1
f 49/4/1 47/4/1 48/4/1
f 50/5/1 49/5/1 48/5/1
f 51/5/1 49/5/1 50/5/1
f 52/3/1 51/3/1 50/3/1
f 53/3/1 51/3/1 52/3/1
f 54/2/1 53/2/1 52/2/1
f 55/2/1 53/2/1 54/2/1
f 56/4/1 55/4/1 54/4/1
f 57/4/1 55/4/1 56/4/1
f 58/6/1 57/6/1 56/6/1
f 59/6/1 57/6/1 58/6/1
f 60/4/1 59/4/1 58/4/1
f 61/4/1 59/4/1 60/4/1
f 62/5/1 61/5/1 60/5/1
f 63/5/1 61/5/1 62/5/1
f 64/4/1 63/4/1 62/4/1
f 65/4/1 63/4/1 64/4/1
f 66/5/1 65/5/1 64/5/1
f 70/5/1 66/5/1 64/5/1
f 71/6/1 67/6/1 66/6/1
f 71/5/1 66/5/1 70/5/1
f 72/7/1 68/7/1 67/7/1
f 72/6/1 67/6/1 71/6/1
f 73/8/1 69/8/1 68/8/1
f 73/7/1 68/7/1 72/7/1
f 74/8/1 69/8/1 73/8/1
f 79/6/1 76/6/1 75/6/1
f 80/6/1 76/6/1 79/6/1
f 81/8/1 77/8/1 76/8/1
f 81/6/1 76/6/1 80/6/1
f 82/7/1 78/7/1 77/7/1
f 82/8/1 77/8/1 81/8/1
f 83/7/1 78/7/1 82/7/1
f 84/3/1 80/3/1 79/3/1
f 85/3/1 80/3/1 84/3/1
f 86/1/1 85/1/1 84/1/1
f 87/1/1 85/1/1 86/1/1
f 88/2/1 87/2/1 86/2/1
f 89/2/1 87/2/1 88/2/1
f 90/5/1 89/5/1 88/5/1
f 91/5/1 89/5/1 90/5/1
f 92/2/1 91/2/1 90/2/1
f 93/2/1 91/2/1 92/2/1
f 94/1/1 93/1/1 92/1/1
f 95/1/1 93/1/1 94/1/1
f 96/3/1 95/3/1 94/3/1
f 97/3/1 95/3/1 96/3/1
f 98/5/1 97/5/1 96/5/1
f 99/5/1 97/5/1 98/5/1
f 100/3/1 99/3/1 98/3/1
f 101/3/1 99/3/1 100/3/1
f 102/6/1 101/6/1 100/6/1
f 103/6/1 101/6/1 102/6/1
f 104/4/1 103/4/1 102/4/1
f 105/4/1 103/4/1 104/4/1
f 106/3/1 105/3/1 104/3/1
f 107/3/1 105/3/1 106/3/1
f 108/2/1 107/2/1 106/2/1
f 109/2/1 107/2/1 108/2/1
f 110/5/1 109/5/1 108/5/1
f 111/5/1 109/5/1 110/5/1
f 112/3/1 111/3/1 110/3/1
f 113/3/1 111/3/1 112/3/1
f 114/6/1 113/6/1 112/6/1
f 115/6/1 113/6/1 114/6/1
f 116/4/1 115/4/1 114/4/1
f 117/4/1 115/4/1 116/4/1
f 118/5/1 117/5/1 116/5/1
f 119/5/1 117/5/1 118/5/1
f 120/2/1 119/2/1 118/2/1
f 121/2/1 119/2/1 120/2/1
f 122/3/1 121/3/1 120/3/1
f 123/3/1 121/3/1 122/3/1
f 127/4/1 123/4/1 122/4/1
f 128/6/1 124/6/1 123/6/1
f 128/4/1 123/4/1 127/4/1
f 129/5/1 125/5/1 124/5/1
f 129/6/1 124/6/1 128/6/1
f 130/7/1 126/7/1 125/7/1
f 130/5/1 125/5/1 129/5/1
f 131/7/1 126/7/1 130/7/1
f 137/3/1 133/3/1 132/3/1
f 137/6/1 134/6/1 133/6/1
f 138/7/1 135/7/1 134/7/1
f 138/6/1 134/6/1 137/6/1
f 139/8/1 136/8/1 135/8/1
f 139/7/1 135/7/1 138/7/1
f 140/8/1 136/8/1 139/8/1
f 141/3/1 137/3/1 132/3/1
f 142/3/1 137/3/1 141/3/1
f 143/1/1 142/1/1 141/1/1
f 144/1/1 142/1/1 143/1/1
f 145/2/1 144/2/1 143/2/1
f 146/2/1 144/2/1 145/2/1
f 147/1/1 146/1/1 145/1/1
f 148/1/1 146/1/1 147/1/1
f 149/7/1 148/7/1 147/7/1
f 150/7/1 148/7/1 149/7/1
f 151/3/1 150/3/1 149/3/1
f 152/3/1 150/3/1 151/3/1
f 153/5/1 152/5/1 151/5/1
f 154/5/1 152/5/1 153/5/1
f 155/4/1 154/4/1 153/4/1
f 156/4/1 154/4/1 155/4/1
f 157/6/1 156/6/1 155/6/1
f 158/6/1 156/6/1 157/6/1
f 159/3/1 158/3/1 157/3/1
f 160/3/1 158/3/1 159/3/1
f 161/1/1 160/1/1 159/1/1
f 162/1/1 160/1/1 161/1/1
f 163/2/1 162/2/1 161/2/1
f 164/2/1 162/2/1 163/2/1
f 165/4/1 164/4/1 163/4/1
f 166/4/1 164/4/1 165/4/1
f 167/6/1 166/6/1 165/6/1
f 168/6/1 166/6/1 167/6/1
f 169/4/1 168/4/1 167/4/1
f 170/4/1 168/4/1 169/4/1
f 171/6/1 170/6/1 169/6/1
f 172/6/1 170/6/1 171/6/1
f 177/5/1 172/5/1 171/5/1
f 178/7/1 173/7/1 172/7/1
f 178/5/1 172/5/1 177/5/1
f 179/8/1 174/8/1 173/8/1
f 179/7/1 173/7/1 178/7/1
f 180/7/1 175/7/1 174/7/1
f 180/8/1 174/8/1 179/8/1
f 181/8/1 176/8/1 175/8/1
f 181/7/1 175/7/1 180/7/1
f 182/8/1 176/8/1 181/8/1
f 186/7/1 184/7/1 183/7/1
f 187/8/1 185/8/1 184/8/1
f 187/7/1 184/7/1 186/7/1
f 188/8/1 185/8/1 187/8/1
f 193/6/1 190/6/1 189/6/1
f 194/8/1 191/8/1 190/8/1
f 194/6/1 190/6/1 193/6/1
f 195/7/1 192/7/1 191/7/1
f 195/8/1 191/8/1 194/8/1
f 196/7/1 192/7/1 195/7/1
f 200/8/1 198/8/1 197/8/1
f 201/7/1 199/7/1 198/7/1
f 201/8/1 198/8/1 200/8/1
f 202/7/1 199/7/1 201/7/1
f 203/7/2 204/7/2 206/7/2
f 204/8/2 205/8/2 207/8/2
f 206/7/2 204/7/2 207/7/2
f 207/8/2 205/8/2 208/8/2
f 209/8/2 210/8/2 212/8/2
f 210/7/2 211/7/2 213/7/2
f 212/8/2 210/8/2 213/8/2
f 213/7/2 211/7/2 214/7/2
f 215/6/2 216/6/2 218/6/2
f 216/7/2 217/7/2 219/7/2
f 218/6/2 216/6/2 219/6/2
f 219/7/2 217/7/2 220/7/2
f 221/3/2 222/3/2 226/3/2
f 222/6/2 223/6/2 226/6/2
f 223/7/2 224/7/2 227/7/2
f 226/6/2 223/6/2 227/6/2
f 224/8/2 225/8/2 228/8/2
f 227/7/2 224/7/2 228/7/2
f 228/8/2 225/8/2 229/8/2
f 221/3/2 226/3/2 230/3/2
f 230/3/2 226/3/2 231/3/2
f 230/2/2 231/2/2 232/2/2
f 232/2/2 231/2/2 233/2/2
f 232/4/2 233/4/2 234/4/2
f 234/4/2 233/4/2 235/4/2
f 234/6/2 235/6/2 236/6/2
f 236/6/2 235/6/2 237/6/2
f 236/3/2 237/3/2 238/3/2
f 238/3/2 237/3/2 239/3/2
f 238/2/2 239/2/2 240/2/2
f 240/2/2 239/2/2 241/2/2
f 240/3/2 241/3/2 242/3/2
f 242/3/2 241/3/2 243/3/2
f 242/4/2 243/4/2 244/4/2
f 244/4/2 243/4/2 245/4/2
f 244/6/2 245/6/2 246/6/2
f 246/6/2 245/6/2 247/6/2
f 246/4/2 247/4/2 248/4/2
f 248/4/2 247/4/2 249/4/2
f 248/5/2 249/5/2 250/5/2
f 250/5/2 249/5/2 251/5/2
f 250/3/2 251/3/2 252/3/2
f 252/3/2 251/3/2 253/3/2
f 252/2/2 253/2/2 254/2/2
f 254/2/2 253/2/2 255/2/2
f 254/4/2 255/4/2 256/4/2
f 256/4/2 255/4/2 257/4/2
f 256/6/2 257/6/2 258/6/2
f 258/6/2 257/6/2 259/6/2
f 258/4/2 259/4/2 260/4/2
f 260/4/2 259/4/2 261/4/2
f 260/5/2 261/5/2 262/5/2
f 262/5/2 261/5/2 263/5/2
f 262/4/2 263/4/2 264/4/2
f 264/4/2 263/4/2 265/4/2
f 264/5/2 265/5/2 266/5/2
f 264/5/2 266/5/2 270/5/2
f 266/6/2 267/6/2 271/6/2
f 270/5/2 266/5/2 271/5/2
f 267/7/2 268/7/2 272/7/2
f 271/6/2 267/6/2 272/6/2
f 268/8/2 269/8/2 273/8/2
f 272/7/2 268/7/2 273/7/2
f 273/8/2 269/8/2 274/8/2
f 275/6/2 276/6/2 279/6/2
f 279/6/2 276/6/2 280/6/2
f 276/8/2 277/8/2 281/8/2
f 280/6/2 276/6/2 281/6/2
f 277/7/2 278/7/2 282/7/2
f 281/8/2 277/8/2 282/8/2
f 282/7/2 278/7/2 283/7/2
f 279/3/2 280/3/2 284/3/2
f 284/3/2 280/3/2 285/3/2
f 284/1/2 285/1/2 286/1/2
f 286/1/2 285/1/2 287/1/2
f 286/2/2 287/2/2 288/2/2
f 288/2/2 287/2/2 289/2/2
f 288/5/2 289/5/2 290/5/2
f 290/5/2 289/5/2 291/5/2
f 290/2/2 291/2/2 292/2/2
f 292/2/2 291/2/2 293/2/2
f 292/1/2 293/1/2 294/1/2
f 294/1/2 293/1/2 295/1/2
f 294/3/2 295/3/2 296/3/2
f 296/3/2 295/3/2 297/3/2
f 296/5/2 297/5/2 298/5/2
f 298/5/2 297/5/2 299/5/2
f 298/3/2 299/3/2 300/3/2
f 300/3/2 299/3/2 301/3/2
f 300/6/2 301/6/2 302/6/2
f 302/6/2 301/6/2 303/6/2
f 302/4/2 303/4/2 304/4/2
f 304/4/2 303/4/2 305/4/2
f 304/3/2 305/3/2 306/3/2
f 306/3/2 305/3/2 307/3/2
f 306/2/2 307/2/2 308/2/2
f 308/2/2 307/2/2 309/2/2
f 308/5/2 309/5/2 310/5/2
f 310/5/2 309/5/2 311/5/2
f 310/3/2 311/3/2 312/3/2
f 312/3/2 311/3/2 313/3/2
f 312/6/2 313/6/2 314/6/2
f 314/6/2 313/6/2 315/6/2
f 314/4/2 315/4/2 316/4/2
f 316/4/2 315/4/2 317/4/2
f 316/5/2 317/5/2 318/5/2
f 318/5/2 317/5/2 319/5/2
f 318/2/2 319/2/2 320/2/2
f 320/2/2 319/2/2 321/2/2
f 320/3/2 321/3/2 322/3/2
f 322/3/2 321/3/2 323/3/2
f 322/4/2 323/4/2 327/4/2
f 323/6/2 324/6/2 328/6/2
f 327/4/2 323/4/2 328/4/2
f 324/5/2 325/5/2 329/5/2
f 328/6/2 324/6/2 329/6/2
f 325/7/2 326/7/2 330/7/2
f 329/5/2 325/5/2 330/5/2
f 330/7/2 326/7/2 331/7/2
f 332/3/2 333/3/2 337/3/2
f 333/6/2 334/6/2 337/6/2
f 334/7/2 335/7/2 338/7/2
f 337/6/2 334/6/2 338/6/2
f 335/8/2 336/8/2 339/8/2
f 338/7/2 335/7/2 339/7/2
f 339/8/2 336/8/2 340/8/2
f 332/3/2 337/3/2 341/3/2
f 341/3/2 337/3/2 342/3/2
f 341/1/2 342/1/2 343/1/2
f 343/1/2 342/1/2 344/1/2
f 343/2/2 344/2/2 345/2/2
f 345/2/2 344/2/2 346/2/2
f 345/1/2 346/1/2 347/1/2
f 347/1/2 346/1/2 348/1/2
f 347/7/2 348/7/2 349/7/2
f 349/7/2 348/7/2 350/7/2
f 349/3/2 350/3/2 351/3/2
f 351/3/2 350/3/2 352/3/2
f 351/5/2 352/5/2 353/5/2
f 353/5/2 352/5/2 354/5/2
f 353/4/2 354/4/2 355/4/2
f 355/4/2 354/4/2 356/4/2
f 355/6/2 356/6/2 357/6/2
f 357/6/2 356/6/2 358/6/2
f 357/3/2 358/3/2 359/3/2
f 359/3/2 358/3/2 360/3/2
f 359/1/2 360/1/2 361/1/2
f 361/1/2 360/1/2 362/1/2
f 361/2/2 362/2/2 363/2/2
f 363/2/2 362/2/2 364/2/2
f 363/4/2 364/4/2 365/4/2
f 365/4/2 364/4/2 366/4/2
f 365/6/2 366/6/2 367/6/2
f 367/6/2 366/6/2 368/6/2
f 367/4/2 368/4/2 369/4/2
f 369/4/2 368/4/2 370/4/2
f 369/6/2 370/6/2 371/6/2
f 371/6/2 370/6/2 372/6/2
f 371/5/2 372/5/2 377/5/2
f 372/7/2 373/7/2 378/7/2
f 377/5/2 372/5/2 378/5/2
f 373/8/2 374/8/2 379/8/2
f 378/7/2 373/7/2 379/7/2
f 374/7/2 375/7/2 380/7/2
f 379/8/2 374/8/2 380/8/2
f 375/8/2 376/8/2 381/8/2
f 380/7/2 375/7/2 381/7/2
f 381/8/2 376/8/2 382/8/2
f 383/6/2 384/6/2 387/6/2
f 384/7/2 385/7/2 388/7/2
f 387/6/2 384/6/2 388/6/2
f 385/8/2 386/8/2 389/8/2
f 388/7/2 385/7/2 389/7/2
f 389/8/2 386/8/2 390/8/2
f 391/6/2 392/6/2 395/6/2
f 392/8/2 393/8/2 396/8/2
f 395/6/2 392/6/2 396/6/2
f 393/7/2 394/7/2 397/7/2
f 396/8/2 393/8/2 397/8/2
f 397/7/2 394/7/2 398/7/2
f 399/5/2 400/5/2 403/5/2
f 400/8/2 401/8/2 404/8/2
f 403/5/2 400/5/2 404/5/2
f 401/7/2 402/7/2 405/7/2
f 404/8/2 401/8/2 405/8/2
f 405/7/2 402/7/2 406/7/2
f 427/3/3 408/3/3 407/3/3
f 428/2/3 409/2/3 408/2/3
f 428/3/3 408/3/3 427/3/3
f 429/4/3 410/4/3 409/4/3
f 429/2/3 409/2/3 428/2/3
f 430/6/3 411/6/3 410/6/3
f 430/4/3 410/4/3 429/4/3
f 431/3/3 412/3/3 411/3/3
f 431/6/3 411/6/3 430/6/3
f 432/2/3 413/2/3 412/2/3
f 432/3/3 412/3/3 431/3/3
f 433/3/3 414/3/3 413/3/3
f 433/2/3 413/2/3 432/2/3
f 434/4/3 415/4/3 414/4/3
f 434/3/3 414/3/3 433/3/3
f 435/6/3 416/6/3 415/6/3
f 435/4/3 415/4/3 434/4/3
f 436/4/3 417/4/3 416/4/3
f 436/6/3 416/6/3 435/6/3
f 437/5/3 418/5/3 417/5/3
f 437/4/3 417/4/3 436/4/3
f 438/3/3 419/3/3 418/3/3
f 438/5/3 418/5/3 437/5/3
f 439/2/3 420/2/3 419/2/3
f 439/3/3 419/3/3 438/3/3
f 440/4/3 421/4/3 420/4/3
f 440/2/3 420/2/3 439/2/3
f 441/6/3 422/6/3 421/6/3
f 441/4/3 421/4/3 440/4/3
f 442/4/3 423/4/3 422/4/3
f 442/6/3 422/6/3 441/6/3
f 443/5/3 424/5/3 423/5/3
f 443/4/3 423/4/3 442/4/3
f 444/4/3 425/4/3 424/4/3
f 444/5/3 424/5/3 443/5/3
f 445/5/3 426/5/3 425/5/3
f 445/4/3 425/4/3 444/4/3
f 446/5/3 426/5/3 445/5/3
f 470/6/3 448/6/3 447/6/3
f 471/3/3 449/3/3 448/3/3
f 471/6/3 448/6/3 470/6/3
f 472/1/3 450/1/3 449/1/3
f 472/3/3 449/3/3 471/3/3
f 473/2/3 451/2/3 450/2/3
f 473/1/3 450/1/3 472/1/3
f 474/5/3 452/5/3 451/5/3
f 474/2/3 451/2/3 473/2/3
f 475/2/3 453/2/3 452/2/3
f 475/5/3 452/5/3 474/5/3
f 476/1/3 454/1/3 453/1/3
f 476/2/3 453/2/3 475/2/3
f 477/3/3 455/3/3 454/3/3
f 477/1/3 454/1/3 476/1/3
f 478/5/3 456/5/3 455/5/3
f 478/3/3 455/3/3 477/3/3
f 479/3/3 457/3/3 456/3/3
f 479/5/3 456/5/3 478/5/3
f 480/6/3 458/6/3 457/6/3
f 480/3/3 457/3/3 479/3/3
f 481/4/3 459/4/3 458/4/3
f 481/6/3 458/6/3 480/6/3
f 482/3/3 460/3/3 459/3/3
f 482/4/3 459/4/3 481/4/3
f 483/2/3 461/2/3 460/2/3
f 483/3/3 460/3/3 482/3/3
f 484/5/3 462/5/3 461/5/3
f 484/2/3 461/2/3 483/2/3
f 485/3/3 463/3/3 462/3/3
f 485/5/3 462/5/3 484/5/3
f 486/6/3 464/6/3 463/6/3
f 486/3/3 463/3/3 485/3/3
f 487/4/3 465/4/3 464/4/3
f 487/6/3 464/6/3 486/6/3
f 488/5/3 466/5/3 465/5/3
f 488/4/3 465/4/3 487/4/3
f 489/2/3 467/2/3 466/2/3
f 489/5/3 466/5/3 488/5/3
f 490/3/3 468/3/3 467/3/3
f 490/2/3 467/2/3 489/2/3
f 491/4/3 469/4/3 468/4/3
f 491/3/3 468/3/3 490/3/3
f 492/4/3 469/4/3 491/4/3
f 511/3/3 494/3/3 493/3/3
f 512/1/3 495/1/3 494/1/3
f 512/3/3 494/3/3 511/3/3
f 513/2/3 496/2/3 495/2/3
f 513/1/3 495/1/3 512/1/3
f 514/1/3 497/1/3 496/1/3
f 514/2/3 496/2/3 513/2/3
f 515/7/3 498/7/3 497/7/3
f 515/1/3 497/1/3 514/1/3
f 516/3/3 499/3/3 498/3/3
f 516/7/3 498/7/3 515/7/3
f 517/5/3 500/5/3 499/5/3
f 517/3/3 499/3/3 516/3/3
f 518/4/3 501/4/3 500/4/3
f 518/5/3 500/5/3 517/5/3
f 519/6/3 502/6/3 501/6/3
f 519/4/3 501/4/3 518/4/3
f 520/3/3 503/3/3 502/3/3
f 520/6/3 502/6/3 519/6/3
f 521/1/3 504/1/3 503/1/3
f 521/3/3 503/3/3 520/3/3
f 522/2/3 505/2/3 504/2/3
f 522/1/3 504/1/3 521/1/3
f 523/4/3 506/4/3 505/4/3
f 523/2/3 505/2/3 522/2/3
f 524/6/3 507/6/3 506/6/3
f 524/4/3 506/4/3 523/4/3
f 525/4/3 508/4/3 507/4/3
f 525/6/3 507/6/3 524/6/3
f 526/6/3 509/6/3 508/6/3
f 526/4/3 508/4/3 525/4/3
f 527/5/3 510/5/3 509/5/3
f 527/6/3 509/6/3 526/6/3
f 528/5/3 510/5/3 527/5/3
f 535/7/3 530/7/3 529/7/3
f 536/7/3 530/7/3 535/7/3
f 537/6/3 532/6/3 531/6/3
f 538/6/3 532/6/3 537/6/3
f 539/6/3 534/6/3 533/6/3
f 540/6/3 534/6/3 539/6/3
f 541/7/3 538/7/3 537/7/3
f 542/7/3 538/7/3 541/7/3
f 543/3/3 536/3/3 535/3/3
f 544/3/3 536/3/3 543/3/3
f 545/5/3 540/5/3 539/5/3
f 546/5/3 540/5/3 545/5/3
f 547/1/3 544/1/3 543/1/3
f 548/1/3 544/1/3 547/1/3
f 549/4/3 542/4/3 541/4/3
f 550/4/3 542/4/3 549/4/3
f 551/1/3 546/1/3 545/1/3
f 552/1/3 546/1/3 551/1/3
f 553/2/3 548/2/3 547/2/3
f 554/2/3 548/2/3 553/2/3
f 555/1/3 550/1/3 549/1/3
f 556/1/3 550/1/3 555/1/3
f 557/2/3 552/2/3 551/2/3
f 558/2/3 552/2/3 557/2/3
f 559/4/3 554/4/3 553/4/3
f 560/4/3 554/4/3 559/4/3
f 561/4/3 556/4/3 555/4/3
f 562/4/3 556/4/3 561/4/3
f 563/4/3 558/4/3 557/4/3
f 564/4/3 558/4/3 563/4/3
f 565/7/3 560/7/3 559/7/3
f 566/7/3 560/7/3 565/7/3
f 567/7/3 562/7/3 561/7/3
f 568/7/3 562/7/3 567/7/3
f 569/8/3 564/8/3 563/8/3
f 570/8/3 564/8/3 569/8/3
f 577/7/3 572/7/3 571/7/3
f 578/7/3 572/7/3 577/7/3
f 579/8/3 574/8/3 573/8/3
f 580/8/3 574/8/3 579/8/3
f 581/8/3 576/8/3 575/8/3
f 582/8/3 576/8/3 581/8/3
f 583/4/3 578/4/3 577/4/3
f 584/4/3 578/4/3 583/4/3
f 585/3/3 580/3/3 579/3/3
f 586/3/3 580/3/3 585/3/3
f 587/4/3 582/4/3 581/4/3
f 588/4/3 582/4/3 587/4/3
f 589/3/3 588/3/3 587/3/3
f 590/3/3 588/3/3 589/3/3
f 591/1/3 584/1/3 583/1/3
f 592/1/3 584/1/3 591/1/3
f 593/2/3 586/2/3 585/2/3
f 594/2/3 586/2/3 593/2/3
f 595/1/3 590/1/3 589/1/3
f 596/1/3 590/1/3 595/1/3
f 597/3/3 592/3/3 591/3/3
f 598/3/3 592/3/3 597/3/3
f 599/3/3 594/3/3 593/3/3
f 600/3/3 594/3/3 599/3/3
f 601/2/3 596/2/3 595/2/3
f 602/2/3 596/2/3 601/2/3
f 603/5/3 598/5/3 597/5/3
f 604/5/3 598/5/3 603/5/3
f 605/5/3 600/5/3 599/5/3
f 606/5/3 600/5/3 605/5/3
f 607/5/3 602/5/3 601/5/3
f 608/5/3 602/5/3 607/5/3
f 609/8/3 604/8/3 603/8/3
f 610/8/3 604/8/3 609/8/3
f 611/8/3 606/8/3 605/8/3
f 612/8/3 606/8/3 611/8/3
f 613/7/3 608/7/3 607/7/3
f 614/7/3 608/7/3 613/7/3
f 621/7/3 616/7/3 615/7/3
f 622/7/3 616/7/3 621/7/3
f 623/8/3 618/8/3 617/8/3
f 624/8/3 618/8/3 623/8/3
f 625/7/3 620/7/3 619/7/3
f 626/7/3 620/7/3 625/7/3
f 627/4/3 622/4/3 621/4/3
f 628/4/3 622/4/3 627/4/3
f 629/3/3 624/3/3 623/3/3
f 630/3/3 624/3/3 629/3/3
f 631/4/3 626/4/3 625/4/3
f 632/4/3 626/4/3 631/4/3
f 633/1/3 628/1/3 627/1/3
f 634/1/3 628/1/3 633/1/3
f 635/3/3 632/3/3 631/3/3
f 636/3/3 632/3/3 635/3/3
f 637/2/3 634/2/3 633/2/3
f 638/2/3 634/2/3 637/2/3
f 639/3/3 638/3/3 637/3/3
f 640/3/3 638/3/3 639/3/3
f 641/2/3 636/2/3 635/2/3
f 642/2/3 636/2/3 641/2/3
f 643/1/3 640/1/3 639/1/3
f 644/1/3 640/1/3 643/1/3
f 645/2/3 630/2/3 629/2/3
f 646/2/3 630/2/3 645/2/3
f 647/3/3 642/3/3 641/3/3
f 648/3/3 642/3/3 647/3/3
f 649/5/3 644/5/3 643/5/3
f 650/5/3 644/5/3 649/5/3
f 651/5/3 646/5/3 645/5/3
f 652/5/3 646/5/3 651/5/3
f 653/4/3 648/4/3 647/4/3
f 654/4/3 648/4/3 653/4/3
f 655/7/3 650/7/3 649/7/3
f 656/7/3 650/7/3 655/7/3
f 657/8/3 652/8/3 651/8/3
f 658/8/3 652/8/3 657/8/3
f 659/7/3 654/7/3 653/7/3
f 660/7/3 654/7/3 659/7/3
f 667/8/3 662/8/3 661/8/3
f 668/8/3 662/8/3 667/8/3
f 669/8/3 664/8/3 663/8/3
f 670/8/3 664/8/3 669/8/3
f 671/8/3 666/8/3 665/8/3
f 672/8/3 666/8/3 671/8/3
f 673/4/3 668/4/3 667/4/3
f 674/4/3 668/4/3 673/4/3
f 675/4/3 670/4/3 669/4/3
f 676/4/3 670/4/3 675/4/3
f 677/3/3 672/3/3 671/3/3
f 678/3/3 672/3/3 677/3/3
f 679/3/3 674/3/3 673/3/3
f 680/3/3 674/3/3 679/3/3
f 681/2/3 678/2/3 677/2/3
f 682/2/3 678/2/3 681/2/3
f 683/1/3 680/1/3 679/1/3
f 684/1/3 680/1/3 683/1/3
f 685/2/3 676/2/3 675/2/3
f 686/2/3 676/2/3 685/2/3
f 687/5/3 682/5/3 681/5/3
f 688/5/3 682/5/3 687/5/3
f 689/3/3 684/3/3 683/3/3
f 690/3/3 684/3/3 689/3/3
f 691/4/3 688/4/3 687/4/3
f 692/4/3 688/4/3 691/4/3
f 693/4/3 686/4/3 685/4/3
f 694/4/3 686/4/3 693/4/3
f 695/7/3 692/7/3 691/7/3
f 696/7/3 692/7/3 695/7/3
f 697/6/3 690/6/3 689/6/3
f 698/6/3 690/6/3 697/6/3
f 699/6/3 694/6/3 693/6/3
f 700/6/3 694/6/3 699/6/3
f 701/5/3 696/5/3 695/5/3
f 702/5/3 696/5/3 701/5/3
f 703/3/4 704/3/4 723/3/4
f 704/2/4 705/2/4 724/2/4
f 723/3/4 704/3/4 724/3/4
f 705/4/4 706/4/4 725/4/4
f 724/2/4 705/2/4 725/2/4
f 725/4/4 706/4/4 726/4/4
f 707/3/4 708/3/4 727/3/4
f 708/2/4 709/2/4 728/2/4
f 727/3/4 708/3/4 728/3/4
f 709/3/4 710/3/4 729/3/4
f 728/2/4 709/2/4 729/2/4
f 710/4/4 711/4/4 730/4/4
f 729/3/4 710/3/4 730/3/4
f 730/4/4 711/4/4 731/4/4
f 712/4/4 713/4/4 732/4/4
f 713/5/4 714/5/4 733/5/4
f 732/4/4 713/4/4 733/4/4
f 714/3/4 715/3/4 734/3/4
f 733/5/4 714/5/4 734/5/4
f 715/2/4 716/2/4 735/2/4
f 734/3/4 715/3/4 735/3/4
f 716/4/4 717/4/4 736/4/4
f 735/2/4 716/2/4 736/2/4
f 736/4/4 717/4/4 737/4/4
f 718/4/4 719/4/4 738/4/4
f 719/5/4 720/5/4 739/5/4
f 738/4/4 719/4/4 739/4/4
f 720/4/4 721/4/4 740/4/4
f 739/5/4 720/5/4 740/5/4
f 721/5/4 722/5/4 741/5/4
f 740/4/4 721/4/4 741/4/4
f 741/5/4 722/5/4 742/5/4
f 743/3/4 744/3/4 764/3/4
f 744/1/4 745/1/4 765/1/4
f 764/3/4 744/3/4 765/3/4
f 745/2/4 746/2/4 766/2/4
f 765/1/4 745/1/4 766/1/4
f 766/2/4 746/2/4 767/2/4
f 747/2/4 748/2/4 768/2/4
f 748/1/4 749/1/4 769/1/4
f 768/2/4 748/2/4 769/2/4
f 749/3/4 750/3/4 770/3/4
f 769/1/4 749/1/4 770/1/4
f 750/5/4 751/5/4 771/5/4
f 770/3/4 750/3/4 771/3/4
f 751/3/4 752/3/4 772/3/4
f 771/5/4 751/5/4 772/5/4
f 772/3/4 752/3/4 773/3/4
f 753/4/4 754/4/4 774/4/4
f 754/3/4 755/3/4 775/3/4
f 774/4/4 754/4/4 775/4/4
f 755/2/4 756/2/4 776/2/4
f 775/3/4 755/3/4 776/3/4
f 756/5/4 757/5/4 777/5/4
f 776/2/4 756/2/4 777/2/4
f 757/3/4 758/3/4 778/3/4
f 777/5/4 757/5/4 778/5/4
f 778/3/4 758/3/4 779/3/4
f 759/4/4 760/4/4 780/4/4
f 760/5/4 761/5/4 781/5/4
f 780/4/4 760/4/4 781/4/4
f 761/2/4 762/2/4 782/2/4
f 781/5/4 761/5/4 782/5/4
f 762/3/4 763/3/4 783/3/4
f 782/2/4 762/2/4 783/2/4
f 783/3/4 763/3/4 784/3/4
f 785/3/4 786/3/4 802/3/4
f 786/1/4 787/1/4 803/1/4
f 802/3/4 786/3/4 803/3/4
f 787/2/4 788/2/4 804/2/4
f 803/1/4 787/1/4 804/1/4
f 788/1/4 789/1/4 805/1/4
f 804/2/4 788/2/4 805/2/4
f 805/1/4 789/1/4 806/1/4
f 790/3/4 791/3/4 807/3/4
f 791/5/4 792/5/4 808/5/4
f 807/3/4 791/3/4 808/3/4
f 792/4/4 793/4/4 809/4/4
f 808/5/4 792/5/4 809/5/4
f 809/4/4 793/4/4 810/4/4
f 794/3/4 795/3/4 811/3/4
f 795/1/4 796/1/4 812/1/4
f 811/3/4 795/3/4 812/3/4
f 796/2/4 797/2/4 813/2/4
f 812/1/4 796/1/4 813/1/4
f 797/4/4 798/4/4 814/4/4
f 813/2/4 797/2/4 814/2/4
f 814/4/4 798/4/4 815/4/4
f 799/4/4 800/4/4 816/4/4
f 800/6/4 801/6/4 817/6/4
f 816/4/4 800/4/4 817/4/4
f 817/6/4 801/6/4 818/6/4
f 821/7/4 822/7/4 825/7/4
f 825/7/4 822/7/4 826/7/4
f 819/3/4 820/3/4 827/3/4
f 827/3/4 820/3/4 828/3/4
f 823/5/4 824/5/4 829/5/4
f 829/5/4 824/5/4 830/5/4
f 827/1/4 828/1/4 831/1/4
f 831/1/4 828/1/4 832/1/4
f 825/4/4 826/4/4 833/4/4
f 833/4/4 826/4/4 834/4/4
f 829/1/4 830/1/4 835/1/4
f 835/1/4 830/1/4 836/1/4
f 831/2/4 832/2/4 837/2/4
f 837/2/4 832/2/4 838/2/4
f 833/1/4 834/1/4 839/1/4
f 839/1/4 834/1/4 840/1/4
f 835/2/4 836/2/4 841/2/4
f 841/2/4 836/2/4 842/2/4
f 837/4/4 838/4/4 843/4/4
f 843/4/4 838/4/4 844/4/4
f 839/4/4 840/4/4 845/4/4
f 845/4/4 840/4/4 846/4/4
f 841/4/4 842/4/4 847/4/4
f 847/4/4 842/4/4 848/4/4
f 843/7/4 844/7/4 849/7/4
f 849/7/4 844/7/4 850/7/4
f 845/7/4 846/7/4 851/7/4
f 851/7/4 846/7/4 852/7/4
f 849/8/4 850/8/4 853/8/4
f 853/8/4 850/8/4 854/8/4
f 853/7/4 854/7/4 855/7/4
f 855/7/4 854/7/4 856/7/4
f 851/8/4 852/8/4 857/8/4
f 857/8/4 852/8/4 858/8/4
f 847/8/4 848/8/4 859/8/4
f 859/8/4 848/8/4 860/8/4
f 855/4/4 856/4/4 861/4/4
f 861/4/4 856/4/4 862/4/4
f 857/3/4 858/3/4 863/3/4
f 863/3/4 858/3/4 864/3/4
f 859/4/4 860/4/4 865/4/4
f 865/4/4 860/4/4 866/4/4
f 865/3/4 866/3/4 867/3/4
f 867/3/4 866/3/4 868/3/4
f 861/1/4 862/1/4 869/1/4
f 869/1/4 862/1/4 870/1/4
f 863/2/4 864/2/4 871/2/4
f 871/2/4 864/2/4 872/2/4
f 867/1/4 868/1/4 873/1/4
f 873/1/4 868/1/4 874/1/4
f 869/3/4 870/3/4 875/3/4
f 875/3/4 870/3/4 876/3/4
f 871/3/4 872/3/4 877/3/4
f 877/3/4 872/3/4 878/3/4
f 873/2/4 874/2/4 879/2/4
f 879/2/4 874/2/4 880/2/4
f 875/5/4 876/5/4 881/5/4
f 881/5/4 876/5/4 882/5/4
f 877/5/4 878/5/4 883/5/4
f 883/5/4 878/5/4 884/5/4
f 879/5/4 880/5/4 885/5/4
f 885/5/4 880/5/4 886/5/4
f 881/8/4 882/8/4 887/8/4
f 887/8/4 882/8/4 888/8/4
f 887/7/4 888/7/4 889/7/4
f 889/7/4 888/7/4 890/7/4
f 883/8/4 884/8/4 891/8/4
f 891/8/4 884/8/4 892/8/4
f 885/7/4 886/7/4 893/7/4
f 893/7/4 886/7/4 894/7/4
f 889/4/4 890/4/4 895/4/4
f 895/4/4 890/4/4 896/4/4
f 891/3/4 892/3/4 897/3/4
f 897/3/4 892/3/4 898/3/4
f 893/4/4 894/4/4 899/4/4
f 899/4/4 894/4/4 900/4/4
f 895/1/4 896/1/4 901/1/4
f 901/1/4 896/1/4 902/1/4
f 899/3/4 900/3/4 903/3/4
f 903/3/4 900/3/4 904/3/4
f 901/2/4 902/2/4 905/2/4
f 905/2/4 902/2/4 906/2/4
f 905/3/4 906/3/4 907/3/4
f 907/3/4 906/3/4 908/3/4
f 903/2/4 904/2/4 909/2/4
f 909/2/4 904/2/4 910/2/4
f 907/1/4 908/1/4 911/1/4
f 911/1/4 908/1/4 912/1/4
f 897/2/4 898/2/4 913/2/4
f 913/2/4 898/2/4 914/2/4
f 909/3/4 910/3/4 915/3/4
f 915/3/4 910/3/4 916/3/4
f 911/5/4 912/5/4 917/5/4
f 917/5/4 912/5/4 918/5/4
f 913/5/4 914/5/4 919/5/4
f 919/5/4 914/5/4 920/5/4
f 915/4/4 916/4/4 921/4/4
f 921/4/4 916/4/4 922/4/4
f 919/8/4 920/8/4 923/8/4
f 923/8/4 920/8/4 924/8/4
f 917/7/4 918/7/4 925/7/4
f 925/7/4 918/7/4 926/7/4
f 923/7/4 924/7/4 927/7/4
f 927/7/4 924/7/4 928/7/4
f 921/7/4 922/7/4 929/7/4
f 929/7/4 922/7/4 930/7/4
f 925/8/4 926/8/4 931/8/4
f 931/8/4 926/8/4 932/8/4
f 927/8/4 928/8/4 933/8/4
f 933/8/4 928/8/4 934/8/4
f 929/8/4 930/8/4 935/8/4
f 935/8/4 930/8/4 936/8/4
f 931/4/4 932/4/4 937/4/4
f 937/4/4 932/4/4 938/4/4
f 933/4/4 934/4/4 939/4/4
f 939/4/4 934/4/4 940/4/4
f 935/3/4 936/3/4 941/3/4
f 941/3/4 936/3/4 942/3/4
f 937/3/4 938/3/4 943/3/4
f 943/3/4 938/3/4 944/3/4
f 941/2/4 942/2/4 945/2/4
f 945/2/4 942/2/4 946/2/4
f 943/1/4 944/1/4 947/1/4
f 947/1/4 944/1/4 948/1/4
f 939/2/4 940/2/4 949/2/4
f 949/2/4 940/2/4 950/2/4
f 945/5/4 946/5/4 951/5/4
f 951/5/4 946/5/4 952/5/4
f 947/3/4 948/3/4 953/3/4
f 953/3/4 948/3/4 954/3/4
f 951/4/4 952/4/4 955/4/4
f 955/4/4 952/4/4 956/4/4
f 953/6/4 954/6/4 957/6/4
f 957/6/4 954/6/4 958/6/4
f 949/4/4 950/4/4 959/4/4
f 959/4/4 950/4/4 960/4/4
f 955/7/4 956/7/4 961/7/4
f 961/7/4 956/7/4 962/7/4
f 963/8/4 964/8/4 969/8/4
f 969/8/4 964/8/4 970/8/4
f 965/7/4 966/7/4 971/7/4
f 971/7/4 966/7/4 972/7/4
f 967/7/4 968/7/4 973/7/4
f 973/7/4 968/7/4 974/7/4
f 975/8/4 976/8/4 979/8/4
f 979/8/4 976/8/4 980/8/4
f 977/8/4 978/8/4 981/8/4
f 981/8/4 978/8/4 982/8/4
f 983/7/4 984/7/4 987/7/4
f 987/7/4 984/7/4 988/7/4
f 985/7/4 986/7/4 989/7/4
f 989/7/4 986/7/4 990/7/4
f 991/8/4 992/8/4 995/8/4
f 995/8/4 992/8/4 996/8/4
f 993/8/4 994/8/4 997/8/4
f 997/8/4 994/8/4 998/8/4
f 999/8/4 1000/8/4 1005/8/4
f 1005/8/4 1000/8/4 1006/8/4
f 1001/7/4 1002/7/4 1007/7/4
f 1007/7/4 1002/7/4 1008/7/4
f 1003/7/4 1004/7/4 1009/7/4
f 1009/7/4 1004/7/4 1010/7/4
f 1017/3/5 1012/3/5 1011/3/5
f 1018/3/5 1012/3/5 1017/3/5
f 1019/3/5 1016/3/5 1015/3/5
f 1020/3/5 1016/3/5 1019/3/5
f 1021/6/5 1014/6/5 1013/6/5
f 1022/6/5 1014/6/5 1021/6/5
f 1023/6/5 1020/6/5 1019/6/5
f 1024/6/5 1020/6/5 1023/6/5
f 1025/6/5 1018/6/5 1017/6/5
f 1026/6/5 1018/6/5 1025/6/5
f 1027/8/5 1022/8/5 1021/8/5
f 1028/8/5 1022/8/5 1027/8/5
f 1029/7/5 1026/7/5 1025/7/5
f 1030/7/5 1026/7/5 1029/7/5
f 1031/7/5 1024/7/5 1023/7/5
f 1032/7/5 1024/7/5 1031/7/5
f 1033/8/5 1030/8/5 1029/8/5
f 1034/8/5 1030/8/5 1033/8/5
f 1035/7/5 1028/7/5 1027/7/5
f 1036/7/5 1028/7/5 1035/7/5
f 1037/8/5 1032/8/5 1031/8/5
f 1038/8/5 1032/8/5 1037/8/5
f 1069/7/5 1040/7/5 1039/7/5
f 1069/3/5 1041/3/5 1040/3/5
f 1070/1/5 1042/1/5 1041/1/5
f 1070/3/5 1041/3/5 1069/3/5
f 1071/2/5 1043/2/5 1042/2/5
f 1071/1/5 1042/1/5 1070/1/5
f 1072/4/5 1044/4/5 1043/4/5
f 1072/2/5 1043/2/5 1071/2/5
f 1073/7/5 1045/7/5 1044/7/5
f 1073/4/5 1044/4/5 1072/4/5
f 1074/8/5 1046/8/5 1045/8/5
f 1074/7/5 1045/7/5 1073/7/5
f 1075/7/5 1047/7/5 1046/7/5
f 1075/8/5 1046/8/5 1074/8/5
f 1076/4/5 1048/4/5 1047/4/5
f 1076/7/5 1047/7/5 1075/7/5
f 1077/1/5 1049/1/5 1048/1/5
f 1077/4/5 1048/4/5 1076/4/5
f 1078/3/5 1050/3/5 1049/3/5
f 1078/1/5 1049/1/5 1077/1/5
f 1079/5/5 1051/5/5 1050/5/5
f 1079/3/5 1050/3/5 1078/3/5
f 1080/8/5 1052/8/5 1051/8/5
f 1080/5/5 1051/5/5 1079/5/5
f 1081/7/5 1053/7/5 1052/7/5
f 1081/8/5 1052/8/5 1080/8/5
f 1081/7/5 1054/7/5 1053/7/5
f 1082/4/5 1055/4/5 1054/4/5
f 1082/7/5 1054/7/5 1081/7/5
f 1083/1/5 1056/1/5 1055/1/5
f 1083/4/5 1055/4/5 1082/4/5
f 1084/2/5 1057/2/5 1056/2/5
f 1084/1/5 1056/1/5 1083/1/5
f 1085/3/5 1058/3/5 1057/3/5
f 1085/2/5 1057/2/5 1084/2/5
f 1086/1/5 1059/1/5 1058/1/5
f 1086/3/5 1058/3/5 1085/3/5
f 1087/5/5 1060/5/5 1059/5/5
f 1087/1/5 1059/1/5 1086/1/5
f 1088/7/5 1061/7/5 1060/7/5
f 1088/5/5 1060/5/5 1087/5/5
f 1088/7/5 1062/7/5 1061/7/5
f 1089/8/5 1063/8/5 1062/8/5
f 1089/7/5 1062/7/5 1088/7/5
f 1090/4/5 1064/4/5 1063/4/5
f 1090/8/5 1063/8/5 1089/8/5
f 1091/3/5 1065/3/5 1064/3/5
f 1091/4/5 1064/4/5 1090/4/5
f 1092/1/5 1066/1/5 1065/1/5
f 1092/3/5 1065/3/5 1091/3/5
f 1093/3/5 1067/3/5 1066/3/5
f 1093/1/5 1066/1/5 1092/1/5
f 1094/6/5 1068/6/5 1067/6/5
f 1094/3/5 1067/3/5 1093/3/5
f 1095/6/5 1068/6/5 1094/6/5
f 1096/6/5 1068/6/5 1095/6/5
f 1097/7/5 1069/7/5 1039/7/5
f 1098/7/5 1069/7/5 1097/7/5
f 1099/7/5 1096/7/5 1095/7/5
f 1100/7/5 1096/7/5 1099/7/5
f 1101/8/5 1098/8/5 1097/8/5
f 1102/8/5 1098/8/5 1101/8/5
f 1103/8/5 1100/8/5 1099/8/5
f 1104/8/5 1100/8/5 1103/8/5
f 1131/6/5 1106/6/5 1105/6/5
f 1132/7/5 1107/7/5 1106/7/5
f 1132/6/5 1106/6/5 1131/6/5
f 1133/4/5 1108/4/5 1107/4/5
f 1133/7/5 1107/7/5 1132/7/5
f 1134/1/5 1109/1/5 1108/1/5
f 1134/4/5 1108/4/5 1133/4/5
f 1135/4/5 1110/4/5 1109/4/5
f 1135/1/5 1109/1/5 1134/1/5
f 1136/7/5 1111/7/5 1110/7/5
f 1136/4/5 1110/4/5 1135/4/5
f 1137/8/5 1112/8/5 1111/8/5
f 1137/7/5 1111/7/5 1136/7/5
f 1137/8/5 1113/8/5 1112/8/5
f 1138/3/5 1114/3/5 1113/3/5
f 1138/8/5 1113/8/5 1137/8/5
f 1139/2/5 1115/2/5 1114/2/5
f 1139/3/5 1114/3/5 1138/3/5
f 1140/3/5 1116/3/5 1115/3/5
f 1140/2/5 1115/2/5 1139/2/5
f 1141/5/5 1117/5/5 1116/5/5
f 1141/3/5 1116/3/5 1140/3/5
f 1142/8/5 1118/8/5 1117/8/5
f 1142/5/5 1117/5/5 1141/5/5
f 1142/8/5 1119/8/5 1118/8/5
f 1142/8/5 1120/8/5 1119/8/5
f 1143/3/5 1121/3/5 1120/3/5
f 1143/8/5 1120/8/5 1142/8/5
f 1144/2/5 1122/2/5 1121/2/5
f 1144/3/5 1121/3/5 1143/3/5
f 1145/5/5 1123/5/5 1122/5/5
f 1145/2/5 1122/2/5 1144/2/5
f 1146/8/5 1124/8/5 1123/8/5
f 1146/5/5 1123/5/5 1145/5/5
f 1147/7/5 1125/7/5 1124/7/5
f 1147/8/5 1124/8/5 1146/8/5
f 1148/8/5 1126/8/5 1125/8/5
f 1148/7/5 1125/7/5 1147/7/5
f 1149/4/5 1127/4/5 1126/4/5
f 1149/8/5 1126/8/5 1148/8/5
f 1150/2/5 1128/2/5 1127/2/5
f 1150/4/5 1127/4/5 1149/4/5
f 1151/4/5 1129/4/5 1128/4/5
f 1151/2/5 1128/2/5 1150/2/5
f 1152/6/5 1130/6/5 1129/6/5
f 1152/4/5 1129/4/5 1151/4/5
f 1153/6/5 1130/6/5 1152/6/5
f 1154/6/5 1130/6/5 1153/6/5
f 1155/8/5 1132/8/5 1131/8/5
f 1156/8/5 1132/8/5 1155/8/5
f 1157/8/5 1154/8/5 1153/8/5
f 1158/8/5 1154/8/5 1157/8/5
f 1159/7/5 1156/7/5 1155/7/5
f 1160/7/5 1156/7/5 1159/7/5
f 1161/7/5 1158/7/5 1157/7/5
f 1162/7/5 1158/7/5 1161/7/5
f 1194/6/5 1164/6/5 1163/6/5
f 1194/5/5 1165/5/5 1164/5/5
f 1195/1/5 1166/1/5 1165/1/5
f 1195/5/5 1165/5/5 1194/5/5
f 1196/2/5 1167/2/5 1166/2/5
f 1196/1/5 1166/1/5 1195/1/5
f 1197/4/5 1168/4/5 1167/4/5
f 1197/2/5 1167/2/5 1196/2/5
f 1198/8/5 1169/8/5 1168/8/5
f 1198/4/5 1168/4/5 1197/4/5
f 1198/8/5 1170/8/5 1169/8/5
f 1198/8/5 1171/8/5 1170/8/5
f 1199/4/5 1172/4/5 1171/4/5
f 1199/8/5 1171/8/5 1198/8/5
f 1200/3/5 1173/3/5 1172/3/5
f 1200/4/5 1172/4/5 1199/4/5
f 1201/1/5 1174/1/5 1173/1/5
f 1201/3/5 1173/3/5 1200/3/5
f 1202/2/5 1175/2/5 1174/2/5
f 1202/1/5 1174/1/5 1201/1/5
f 1203/5/5 1176/5/5 1175/5/5
f 1203/2/5 1175/2/5 1202/2/5
f 1204/7/5 1177/7/5 1176/7/5
f 1204/5/5 1176/5/5 1203/5/5
f 1204/7/5 1178/7/5 1177/7/5
f 1204/7/5 1179/7/5 1178/7/5
f 1205/4/5 1180/4/5 1179/4/5
f 1205/7/5 1179/7/5 1204/7/5
f 1206/3/5 1181/3/5 1180/3/5
f 1206/4/5 1180/4/5 1205/4/5
f 1207/2/5 1182/2/5 1181/2/5
f 1207/3/5 1181/3/5 1206/3/5
f 1208/3/5 1183/3/5 1182/3/5
f 1208/2/5 1182/2/5 1207/2/5
f 1209/4/5 1184/4/5 1183/4/5
f 1209/3/5 1183/3/5 1208/3/5
f 1210/7/5 1185/7/5 1184/7/5
f 1210/4/5 1184/4/5 1209/4/5
f 1210/7/5 1186/7/5 1185/7/5
f 1211/8/5 1187/8/5 1186/8/5
f 1211/7/5 1186/7/5 1210/7/5
f 1212/3/5 1188/3/5 1187/3/5
f 1212/8/5 1187/8/5 1211/8/5
f 1213/2/5 1189/2/5 1188/2/5
f 1213/3/5 1188/3/5 1212/3/5
f 1214/5/5 1190/5/5 1189/5/5
f 1214/2/5 1189/2/5 1213/2/5
f 1215/4/5 1191/4/5 1190/4/5
f 1215/5/5 1190/5/5 1214/5/5
f 1216/7/5 1192/7/5 1191/7/5
f 1216/4/5 1191/4/5 1215/4/5
f 1217/5/5 1193/5/5 1192/5/5
f 1217/7/5 1192/7/5 1216/7/5
f 1218/5/5 1193/5/5 1217/5/5
f 1219/6/5 1194/6/5 1163/6/5
f 1220/6/5 1194/6/5 1219/6/5
f 1221/8/5 1218/8/5 1217/8/5
f 1222/8/5 1218/8/5 1221/8/5
f 1223/7/5 1220/7/5 1219/7/5
f 1224/7/5 1220/7/5 1223/7/5
f 1225/7/5 1222/7/5 1221/7/5
f 1226/7/5 1222/7/5 1225/7/5
f 1233/6/5 1228/6/5 1227/6/5
f 1234/6/5 1228/6/5 1233/6/5
f 1235/6/5 1230/6/5 1229/6/5
f 1236/6/5 1230/6/5 1235/6/5
f 1237/7/5 1232/7/5 1231/7/5
f 1238/7/5 1232/7/5 1237/7/5
f 1239/5/5 1236/5/5 1235/5/5
f 1240/5/5 1236/5/5 1239/5/5
f 1241/8/5 1238/8/5 1237/8/5
f 1242/8/5 1238/8/5 1241/8/5
f 1243/7/5 1234/7/5 1233/7/5
f 1244/7/5 1234/7/5 1243/7/5
f 1245/7/5 1242/7/5 1241/7/5
f 1246/7/5 1242/7/5 1245/7/5
f 1247/8/5 1244/8/5 1243/8/5
f 1248/8/5 1244/8/5 1247/8/5
f 1249/7/5 1240/7/5 1239/7/5
f 1250/7/5 1240/7/5 1249/7/5
f 1251/8/5 1246/8/5 1245/8/5
f 1252/8/5 1246/8/5 1251/8/5
f 1255/6/6 1256/6/6 1259/6/6
f 1259/6/6 1256/6/6 1260/6/6
f 1257/6/6 1258/6/6 1261/6/6
f 1261/6/6 1258/6/6 1262/6/6
f 1253/6/6 1254/6/6 1263/6/6
f 1263/6/6 1254/6/6 1264/6/6
f 1259/8/6 1260/8/6 1265/8/6
f 1265/8/6 1260/8/6 1266/8/6
f 1263/7/6 1264/7/6 1267/7/6
f 1267/7/6 1264/7/6 1268/7/6
f 1261/7/6 1262/7/6 1269/7/6
f 1269/7/6 1262/7/6 1270/7/6
f 1267/8/6 1268/8/6 1271/8/6
f 1271/8/6 1268/8/6 1272/8/6
f 1265/7/6 1266/7/6 1273/7/6
f 1273/7/6 1266/7/6 1274/7/6
f 1269/8/6 1270/8/6 1275/8/6
f 1275/8/6 1270/8/6 1276/8/6
f 1277/7/6 1278/7/6 1307/7/6
f 1278/3/6 1279/3/6 1307/3/6
f 1279/1/6 1280/1/6 1308/1/6
f 1307/3/6 1279/3/6 1308/3/6
f 1280/2/6 1281/2/6 1309/2/6
f 1308/1/6 1280/1/6 1309/1/6
f 1281/4/6 1282/4/6 1310/4/6
f 1309/2/6 1281/2/6 1310/2/6
f 1282/7/6 1283/7/6 1311/7/6
f 1310/4/6 1282/4/6 1311/4/6
f 1283/8/6 1284/8/6 1312/8/6
f 1311/7/6 1283/7/6 1312/7/6
f 1284/7/6 1285/7/6 1313/7/6
f 1312/8/6 1284/8/6 1313/8/6
f 1285/4/6 1286/4/6 1314/4/6
f 1313/7/6 1285/7/6 1314/7/6
f 1286/1/6 1287/1/6 1315/1/6
f 1314/4/6 1286/4/6 1315/4/6
f 1287/3/6 1288/3/6 1316/3/6
f 1315/1/6 1287/1/6 1316/1/6
f 1288/5/6 1289/5/6 1317/5/6
f 1316/3/6 1288/3/6 1317/3/6
f 1289/8/6 1290/8/6 1318/8/6
f 1317/5/6 1289/5/6 1318/5/6
f 1290/7/6 1291/7/6 1319/7/6
f 1318/8/6 1290/8/6 1319/8/6
f 1291/7/6 1292/7/6 1319/7/6
f 1292/4/6 1293/4/6 1320/4/6
f 1319/7/6 1292/7/6 1320/7/6
f 1293/1/6 1294/1/6 1321/1/6
f 1320/4/6 1293/4/6 1321/4/6
f 1294/2/6 1295/2/6 1322/2/6
f 1321/1/6 1294/1/6 1322/1/6
f 1295/3/6 1296/3/6 1323/3/6
f 1322/2/6 1295/2/6 1323/2/6
f 1296/1/6 1297/1/6 1324/1/6
f 1323/3/6 1296/3/6 1324/3/6
f 1297/5/6 1298/5/6 1325/5/6
f 1324/1/6 1297/1/6 1325/1/6
f 1298/7/6 1299/7/6 1326/7/6
f 1325/5/6 1298/5/6 1326/5/6
f 1299/7/6 1300/7/6 1326/7/6
f 1300/8/6 1301/8/6 1327/8/6
f 1326/7/6 1300/7/6 1327/7/6
f 1301/4/6 1302/4/6 1328/4/6
f 1327/8/6 1301/8/6 1328/8/6
f 1302/3/6 1303/3/6 1329/3/6
f 1328/4/6 1302/4/6 1329/4/6
f 1303/1/6 1304/1/6 1330/1/6
f 1329/3/6 1303/3/6 1330/3/6
f 1304/3/6 1305/3/6 1331/3/6
f 1330/1/6 1304/1/6 1331/1/6
f 1305/6/6 1306/6/6 1332/6/6
f 1331/3/6 1305/3/6 1332/3/6
f 1332/6/6 1306/6/6 1333/6/6
f 1333/6/6 1306/6/6 1334/6/6
f 1277/7/6 1307/7/6 1335/7/6
f 1335/7/6 1307/7/6 1336/7/6
f 1333/7/6 1334/7/6 1337/7/6
f 1337/7/6 1334/7/6 1338/7/6
f 1335/8/6 1336/8/6 1339/8/6
f 1339/8/6 1336/8/6 1340/8/6
f 1337/8/6 1338/8/6 1341/8/6
f 1341/8/6 1338/8/6 1342/8/6
f 1343/6/6 1344/6/6 1369/6/6
f 1344/7/6 1345/7/6 1370/7/6
f 1369/6/6 1344/6/6 1370/6/6
f 1345/4/6 1346/4/6 1371/4/6
f 1370/7/6 1345/7/6 1371/7/6
f 1346/1/6 1347/1/6 1372/1/6
f 1371/4/6 1346/4/6 1372/4/6
f 1347/4/6 1348/4/6 1373/4/6
f 1372/1/6 1347/1/6 1373/1/6
f 1348/7/6 1349/7/6 1374/7/6
f 1373/4/6 1348/4/6 1374/4/6
f 1349/8/6 1350/8/6 1375/8/6
f 1374/7/6 1349/7/6 1375/7/6
f 1350/8/6 1351/8/6 1375/8/6
f 1351/3/6 1352/3/6 1376/3/6
f 1375/8/6 1351/8/6 1376/8/6
f 1352/2/6 1353/2/6 1377/2/6
f 1376/3/6 1352/3/6 1377/3/6
f 1353/3/6 1354/3/6 1378/3/6
f 1377/2/6 1353/2/6 1378/2/6
f 1354/5/6 1355/5/6 1379/5/6
f 1378/3/6 1354/3/6 1379/3/6
f 1355/8/6 1356/8/6 1380/8/6
f 1379/5/6 1355/5/6 1380/5/6
f 1356/8/6 1357/8/6 1380/8/6
f 1357/8/6 1358/8/6 1380/8/6
f 1358/3/6 1359/3/6 1381/3/6
f 1380/8/6 1358/8/6 1381/8/6
f 1359/2/6 1360/2/6 1382/2/6
f 1381/3/6 1359/3/6 1382/3/6
f 1360/5/6 1361/5/6 1383/5/6
f 1382/2/6 1360/2/6 1383/2/6
f 1361/8/6 1362/8/6 1384/8/6
f 1383/5/6 1361/5/6 1384/5/6
f 1362/7/6 1363/7/6 1385/7/6
f 1384/8/6 1362/8/6 1385/8/6
f 1363/8/6 1364/8/6 1386/8/6
f 1385/7/6 1363/7/6 1386/7/6
f 1364/4/6 1365/4/6 1387/4/6
f 1386/8/6 1364/8/6 1387/8/6
f 1365/2/6 1366/2/6 1388/2/6
f 1387/4/6 1365/4/6 1388/4/6
f 1366/4/6 1367/4/6 1389/4/6
f 1388/2/6 1366/2/6 1389/2/6
f 1367/6/6 1368/6/6 1390/6/6
f 1389/4/6 1367/4/6 1390/4/6
f 1390/6/6 1368/6/6 1391/6/6
f 1391/6/6 1368/6/6 1392/6/6
f 1369/8/6 1370/8/6 1393/8/6
f 1393/8/6 1370/8/6 1394/8/6
f 1391/8/6 1392/8/6 1395/8/6
f 1395/8/6 1392/8/6 1396/8/6
f 1393/7/6 1394/7/6 1397/7/6
f 1397/7/6 1394/7/6 1398/7/6
f 1395/7/6 1396/7/6 1399/7/6
f 1399/7/6 1396/7/6 1400/7/6
f 1401/6/6 1402/6/6 1432/6/6
f 1402/5/6 1403/5/6 1432/5/6
f 1403/1/6 1404/1/6 1433/1/6
f 1432/5/6 1403/5/6 1433/5/6
f 1404/2/6 1405/2/6 1434/2/6
f 1433/1/6 1404/1/6 1434/1/6
f 1405/4/6 1406/4/6 1435/4/6
f 1434/2/6 1405/2/6 1435/2/6
f 1406/8/6 1407/8/6 1436/8/6
f 1435/4/6 1406/4/6 1436/4/6
f 1407/8/6 1408/8/6 1436/8/6
f 1408/8/6 1409/8/6 1436/8/6
f 1409/4/6 1410/4/6 1437/4/6
f 1436/8/6 1409/8/6 1437/8/6
f 1410/3/6 1411/3/6 1438/3/6
f 1437/4/6 1410/4/6 1438/4/6
f 1411/1/6 1412/1/6 1439/1/6
f 1438/3/6 1411/3/6 1439/3/6
f 1412/2/6 1413/2/6 1440/2/6
f 1439/1/6 1412/1/6 1440/1/6
f 1413/5/6 1414/5/6 1441/5/6
f 1440/2/6 1413/2/6 1441/2/6
f 1414/7/6 1415/7/6 1442/7/6
f 1441/5/6 1414/5/6 1442/5/6
f 1415/7/6 1416/7/6 1442/7/6
f 1416/7/6 1417/7/6 1442/7/6
f 1417/4/6 1418/4/6 1443/4/6
f 1442/7/6 1417/7/6 1443/7/6
f 1418/3/6 1419/3/6 1444/3/6
f 1443/4/6 1418/4/6 1444/4/6
f 1419/2/6 1420/2/6 1445/2/6
f 1444/3/6 1419/3/6 1445/3/6
f 1420/3/6 1421/3/6 1446/3/6
f 1445/2/6 1420/2/6 1446/2/6
f 1421/4/6 1422/4/6 1447/4/6
f 1446/3/6 1421/3/6 1447/3/6
f 1422/7/6 1423/7/6 1448/7/6
f 1447/4/6 1422/4/6 1448/4/6
f 1423/7/6 1424/7/6 1448/7/6
f 1424/8/6 1425/8/6 1449/8/6
f 1448/7/6 1424/7/6 1449/7/6
f 1425/3/6 1426/3/6 1450/3/6
f 1449/8/6 1425/8/6 1450/8/6
f 1426/2/6 1427/2/6 1451/2/6
f 1450/3/6 1426/3/6 1451/3/6
f 1427/5/6 1428/5/6 1452/5/6
f 1451/2/6 1427/2/6 1452/2/6
f 1428/4/6 1429/4/6 1453/4/6
f 1452/5/6 1428/5/6 1453/5/6
f 1429/7/6 1430/7/6 1454/7/6
f 1453/4/6 1429/4/6 1454/4/6
f 1430/5/6 1431/5/6 1455/5/6
f 1454/7/6 1430/7/6 1455/7/6
f 1455/5/6 1431/5/6 1456/5/6
f 1401/6/6 1432/6/6 1457/6/6
f 1457/6/6 1432/6/6 1458/6/6
f 1455/8/6 1456/8/6 1459/8/6
f 1459/8/6 1456/8/6 1460/8/6
f 1457/7/6 1458/7/6 1461/7/6
f 1461/7/6 1458/7/6 1462/7/6
f 1459/7/6 1460/7/6 1463/7/6
f 1463/7/6 1460/7/6 1464/7/6
f 1465/5/6 1466/5/6 1471/5/6
f 1471/5/6 1466/5/6 1472/5/6
f 1467/4/6 1468/4/6 1473/4/6
f 1473/4/6 1468/4/6 1474/4/6
f 1469/5/6 1470/5/6 1475/5/6
f 1475/5/6 1470/5/6 1476/5/6
f 1471/6/6 1472/6/6 1477/6/6
f 1477/6/6 1472/6/6 1478/6/6
f 1473/6/6 1474/6/6 1479/6/6
f 1479/6/6 1474/6/6 1480/6/6
f 1475/7/6 1476/7/6 1481/7/6
f 1481/7/6 1476/7/6 1482/7/6
f 1479/5/6 1480/5/6 1483/5/6
f 1483/5/6 1480/5/6 1484/5/6
f 1481/8/6 1482/8/6 1485/8/6
f 1485/8/6 1482/8/6 1486/8/6
f 1477/7/6 1478/7/6 1487/7/6
f 1487/7/6 1478/7/6 1488/7/6
f 1485/7/6 1486/7/6 1489/7/6
f 1489/7/6 1486/7/6 1490/7/6
f 1487/8/6 1488/8/6 1491/8/6
f 1491/8/6 1488/8/6 1492/8/6
f 1483/7/6 1484/7/6 1493/7/6
f 1493/7/6 1484/7/6 1494/7/6
f 1489/8/6 1490/8/6 1495/8/6
f 1495/8/6 1490/8/6 1496/8/6
