# MagicaVoxel @ Ephtracy

# group
o wall-corrugated-light

# material
mtllib components-0-wall-corrugated-light.mtl
usemtl palette

# normals
vn -1 0 0
vn 1 0 0
vn 0 0 1
vn 0 0 -1
vn 0 -1 0
vn 0 1 0

# texcoords
vt 0.501953 0.5
vt 0.607422 0.5
vt 0.611328 0.5
vt 0.615234 0.5
vt 0.619141 0.5

# verts
v -6 0 1.1
v -6 0 0.9
v -6 3.4 1.1
v -6 3.4 0.9
v -5.4 0.2 1.1
v -5.4 0.2 1
v -5.4 0.3 1.1
v -5.4 0.3 1
v -5.4 0.4 1.1
v -5.4 0.4 1
v -5.4 0.5 1.1
v -5.4 0.5 1
v -5.4 0.6 1
v -5.4 2.7 1
v -5.4 2.9 1.1
v -5.4 2.9 1
v -5.4 3 1.1
v -5.4 3 1
v -5.4 3.1 1.1
v -5.4 3.1 1
v -5.4 3.2 1.1
v -5.4 3.2 1
v -5 0.2 1.1
v -5 0.2 1
v -5 0.3 1.1
v -5 0.3 1
v -5 0.4 1
v -5 0.5 1.1
v -5 0.5 1
v -5 2.5 1
v -5 2.6 1.1
v -5 2.6 1
v -5 2.7 1
v -5 3 1
v -5 3.1 1.1
v -5 3.1 1
v -5 3.2 1.1
v -5 3.2 1
v -4.6 0.2 1.1
v -4.6 0.2 1
v -4.6 0.3 1
v -4.6 0.4 1.1
v -4.6 0.4 1
v -4.6 0.5 1.1
v -4.6 0.5 1
v -4.6 3 1.1
v -4.6 3 1
v -4.6 3.2 1.1
v -4.6 3.2 1
v -4.2 0.2 1.1
v -4.2 0.2 1
v -4.2 0.3 1
v -4.2 0.4 1.1
v -4.2 0.4 1
v -4.2 0.5 1.1
v -4.2 0.5 1
v -4.2 3 1.1
v -4.2 3 1
v -4.2 3.1 1
v -4.2 3.2 1.1
v -4.2 3.2 1
v -3.8 0.2 1.1
v -3.8 0.2 1
v -3.8 0.4 1.1
v -3.8 0.4 1
v -3.8 2.1 1
v -3.8 2.3 1.1
v -3.8 2.3 1
v -3.8 2.6 1
v -3.8 2.7 1.1
v -3.8 2.7 1
v -3.8 2.8 1.1
v -3.8 2.8 1
v -3.8 2.9 1.1
v -3.8 2.9 1
v -3.8 3 1.1
v -3.8 3 1
v -3.8 3.1 1
v -3.8 3.2 1.1
v -3.8 3.2 1
v -3.4 0.2 1.1
v -3.4 0.2 1
v -3.4 0.3 1.1
v -3.4 0.3 1
v -3.4 0.4 1
v -3.4 0.5 1.1
v -3.4 0.5 1
v -3.4 3 1.1
v -3.4 3 1
v -3.4 3.1 1.1
v -3.4 3.1 1
v -3.4 3.2 1.1
v -3.4 3.2 1
v -3.1 0.2 1.1
v -3.1 0.2 1
v -3.1 0.3 1.1
v -3.1 0.3 1
v -3.1 0.4 1
v -3.1 3 1
v -3.1 3.2 1.1
v -3.1 3.2 1
v -2.6 0.2 1.1
v -2.6 0.2 1
v -2.6 0.3 1.1
v -2.6 0.3 1
v -2.6 2.9 1
v -2.6 3.1 1.1
v -2.6 3.1 1
v -2.6 3.2 1.1
v -2.6 3.2 1
v -2.2 0.2 1.1
v -2.2 0.2 1
v -2.2 0.3 1
v -2.2 0.4 1
v -2.2 3.1 1.1
v -2.2 3.1 1
v -2.2 3.2 1.1
v -2.2 3.2 1
v -1.8 0.2 1.1
v -1.8 0.2 1
v -1.8 0.3 1.1
v -1.8 0.3 1
v -1.8 0.4 1.1
v -1.8 0.4 1
v -1.8 0.5 1.1
v -1.8 0.5 1
v -1.8 0.6 1.1
v -1.8 0.6 1
v -1.8 2.3 1.1
v -1.8 2.3 1
v -1.8 3.1 1
v -1.8 3.2 1.1
v -1.8 3.2 1
v -1.4 0.2 1.1
v -1.4 0.2 1
v -1.4 0.4 1.1
v -1.4 0.4 1
v -1.4 2.9 1
v -1.4 3 1.1
v -1.4 3 1
v -1.4 3.2 1.1
v -1.4 3.2 1
v -1 0.2 1.1
v -1 0.2 1
v -1 0.3 1.1
v -1 0.3 1
v -1 0.4 1.1
v -1 0.4 1
v -1 0.5 1.1
v -1 0.5 1
v -1 0.6 1.1
v -1 0.6 1
v -1 0.7 1.1
v -1 0.7 1
v -1 0.8 1
v -1 3 1.1
v -1 3 1
v -1 3.1 1
v -1 3.2 1.1
v -1 3.2 1
v -0.6 0.2 1.1
v -0.6 0.2 1
v -0.6 0.3 1
v -0.6 0.4 1.1
v -0.6 0.4 1
v -0.6 0.5 1.1
v -0.6 0.5 1
v -0.6 3.1 1.1
v -0.6 3.1 1
v -0.6 3.2 1.1
v -0.6 3.2 1
v -0.3 0.2 1.1
v -0.3 0.2 1
v -0.3 0.3 1.1
v -0.3 0.3 1
v -0.3 0.8 1
v -0.3 3.2 1.1
v -0.3 3.2 1
v 1.86265e-007 0.2 1.1
v 1.86265e-007 0.2 1
v 1.86265e-007 0.8 1
v 1.86265e-007 0.9 1.1
v 1.86265e-007 0.9 1
v 1.86265e-007 3.1 1.1
v 1.86265e-007 3.1 1
v 1.86265e-007 3.2 1.1
v 1.86265e-007 3.2 1
v 0.4 0.2 1.1
v 0.4 0.2 1
v 0.4 2.8 1.1
v 0.4 2.8 1
v 0.4 2.9 1.1
v 0.4 2.9 1
v 0.4 3 1.1
v 0.4 3 1
v 0.4 3.2 1.1
v 0.4 3.2 1
v 0.8 0.2 1.1
v 0.8 0.2 1
v 0.8 2.8 1
v 0.8 2.9 1.1
v 0.8 2.9 1
v 0.8 3 1.1
v 0.8 3 1
v 0.8 3.2 1.1
v 0.8 3.2 1
v 1.2 0.2 1.1
v 1.2 0.2 1
v 1.2 2.3 1.1
v 1.2 2.3 1
v 1.2 2.7 1.1
v 1.2 2.7 1
v 1.2 2.8 1.1
v 1.2 2.8 1
v 1.2 2.9 1
v 1.2 3 1.1
v 1.2 3 1
v 1.2 3.1 1.1
v 1.2 3.1 1
v 1.2 3.2 1.1
v 1.2 3.2 1
v 1.6 0.2 1.1
v 1.6 0.2 1
v 1.6 0.3 1.1
v 1.6 0.3 1
v 1.6 2.8 1
v 1.6 2.9 1.1
v 1.6 2.9 1
v 1.6 3.2 1.1
v 1.6 3.2 1
v 2 0.2 1.1
v 2 0.2 1
v 2 0.3 1
v 2 0.4 1.1
v 2 0.4 1
v 2 3 1.1
v 2 3 1
v 2 3.2 1.1
v 2 3.2 1
v 2.4 0.2 1.1
v 2.4 0.2 1
v 2.4 0.3 1
v 2.4 0.4 1
v 2.4 3 1.1
v 2.4 3 1
v 2.4 3.1 1
v 2.4 3.2 1.1
v 2.4 3.2 1
v 3.2 0.2 1.1
v 3.2 0.2 1
v 3.2 3.2 1.1
v 3.2 3.2 1
v 3.6 0.2 1.1
v 3.6 0.2 1
v 3.6 2 1
v 3.6 2.9 1
v 3.6 3 1
v 3.6 3.1 1
v 3.6 3.2 1.1
v 3.6 3.2 1
v 4 0.2 1.1
v 4 0.2 1
v 4 3.2 1.1
v 4 3.2 1
v 4.4 0.2 1.1
v 4.4 0.2 1
v 4.4 0.3 1.1
v 4.4 0.3 1
v 4.4 3.2 1.1
v 4.4 3.2 1
v 4.8 0.2 1.1
v 4.8 0.2 1
v 4.8 0.3 1.1
v 4.8 0.3 1
v 4.8 3 1.1
v 4.8 3 1
v 4.8 3.1 1
v 4.8 3.2 1.1
v 4.8 3.2 1
v 5.2 0.2 1.1
v 5.2 0.2 1
v 5.2 0.4 1
v 5.2 0.5 1.1
v 5.2 0.5 1
v 5.2 2.9 1.1
v 5.2 2.9 1
v 5.2 3 1
v 5.2 3.1 1
v 5.2 3.2 1.1
v 5.2 3.2 1
v -5.6 0.2 1.1
v -5.6 0.2 1
v -5.6 0.3 1.1
v -5.6 0.3 1
v -5.6 0.4 1.1
v -5.6 0.4 1
v -5.6 0.5 1
v -5.6 2.7 1
v -5.6 2.9 1
v -5.6 3 1.1
v -5.6 3 1
v -5.6 3.2 1.1
v -5.6 3.2 1
v -5.2 0.2 1.1
v -5.2 0.2 1
v -5.2 0.3 1.1
v -5.2 0.3 1
v -5.2 0.4 1.1
v -5.2 0.4 1
v -5.2 0.5 1.1
v -5.2 0.5 1
v -5.2 2.9 1.1
v -5.2 2.9 1
v -5.2 3 1.1
v -5.2 3 1
v -5.2 3.1 1.1
v -5.2 3.1 1
v -5.2 3.2 1.1
v -5.2 3.2 1
v -4.8 0.2 1.1
v -4.8 0.2 1
v -4.8 0.4 1.1
v -4.8 0.4 1
v -4.8 0.5 1.1
v -4.8 0.5 1
v -4.8 3 1.1
v -4.8 3 1
v -4.8 3.1 1.1
v -4.8 3.1 1
v -4.8 3.2 1.1
v -4.8 3.2 1
v -4.4 0.2 1.1
v -4.4 0.2 1
v -4.4 0.4 1
v -4.4 0.5 1.1
v -4.4 0.5 1
v -4.4 2.7 1.1
v -4.4 2.7 1
v -4.4 2.8 1.1
v -4.4 2.8 1
v -4.4 3 1.1
v -4.4 3 1
v -4.4 3.2 1.1
v -4.4 3.2 1
v -4 0.2 1.1
v -4 0.2 1
v -4 0.3 1.1
v -4 0.3 1
v -4 0.4 1.1
v -4 0.4 1
v -4 2.6 1
v -4 2.7 1.1
v -4 2.7 1
v -4 2.8 1
v -4 2.9 1
v -4 3 1.1
v -4 3 1
v -4 3.1 1.1
v -4 3.1 1
v -4 3.2 1.1
v -4 3.2 1
v -3.6 0.2 1.1
v -3.6 0.2 1
v -3.6 0.3 1.1
v -3.6 0.3 1
v -3.6 0.4 1.1
v -3.6 0.4 1
v -3.6 2.6 1.1
v -3.6 2.6 1
v -3.6 2.8 1.1
v -3.6 2.8 1
v -3.6 2.9 1.1
v -3.6 2.9 1
v -3.6 3 1
v -3.6 3.2 1.1
v -3.6 3.2 1
v -3.2 0.2 1.1
v -3.2 0.2 1
v -3.2 0.3 1.1
v -3.2 0.3 1
v -3.2 0.4 1.1
v -3.2 0.4 1
v -3.2 0.5 1.1
v -3.2 0.5 1
v -3.2 0.6 1.1
v -3.2 0.6 1
v -3.2 0.8 1.1
v -3.2 0.8 1
v -3.2 3 1.1
v -3.2 3 1
v -3.2 3.1 1.1
v -3.2 3.1 1
v -3.2 3.2 1.1
v -3.2 3.2 1
v -2.8 0.2 1.1
v -2.8 0.2 1
v -2.8 0.3 1.1
v -2.8 0.3 1
v -2.8 0.4 1.1
v -2.8 0.4 1
v -2.8 2.8 1.1
v -2.8 2.8 1
v -2.8 2.9 1.1
v -2.8 2.9 1
v -2.8 3 1
v -2.8 3.1 1.1
v -2.8 3.1 1
v -2.8 3.2 1.1
v -2.8 3.2 1
v -2.4 0.2 1.1
v -2.4 0.2 1
v -2.4 0.3 1.1
v -2.4 0.3 1
v -2.4 0.4 1.1
v -2.4 0.4 1
v -2.4 3.1 1.1
v -2.4 3.1 1
v -2.4 3.2 1.1
v -2.4 3.2 1
v -2 0.2 1.1
v -2 0.2 1
v -2 3.1 1.1
v -2 3.1 1
v -2 3.2 1.1
v -2 3.2 1
v -1.6 0.2 1.1
v -1.6 0.2 1
v -1.6 0.3 1.1
v -1.6 0.3 1
v -1.6 2.8 1
v -1.6 3 1.1
v -1.6 3 1
v -1.6 3.2 1.1
v -1.6 3.2 1
v -1.2 0.2 1.1
v -1.2 0.2 1
v -1.2 0.4 1.1
v -1.2 0.4 1
v -1.2 0.6 1
v -1.2 0.7 1
v -1.2 3.1 1.1
v -1.2 3.1 1
v -1.2 3.2 1.1
v -1.2 3.2 1
v -0.8 0.2 1.1
v -0.8 0.2 1
v -0.8 0.3 1.1
v -0.8 0.3 1
v -0.8 0.4 1.1
v -0.8 0.4 1
v -0.8 0.5 1.1
v -0.8 0.5 1
v -0.8 2.9 1.1
v -0.8 2.9 1
v -0.8 3 1
v -0.8 3.2 1.1
v -0.8 3.2 1
v -0.4 0.2 1.1
v -0.4 0.2 1
v -0.4 0.5 1.1
v -0.4 0.5 1
v -0.4 0.8 1
v -0.4 1.1 1.1
v -0.4 1.1 1
v -0.4 3.1 1.1
v -0.4 3.1 1
v -0.4 3.2 1.1
v -0.4 3.2 1
v -0.0999998 0.2 1.1
v -0.0999998 0.2 1
v -0.0999998 0.8 1
v -0.0999998 3.2 1.1
v -0.0999998 3.2 1
v 0.2 0.2 1.1
v 0.2 0.2 1
v 0.2 0.3 1
v 0.2 0.4 1.1
v 0.2 0.4 1
v 0.2 3 1.1
v 0.2 3 1
v 0.2 3.2 1.1
v 0.2 3.2 1
v 0.6 0.2 1.1
v 0.6 0.2 1
v 0.6 2.9 1.1
v 0.6 2.9 1
v 0.6 3.1 1
v 0.6 3.2 1.1
v 0.6 3.2 1
v 1 0.2 1.1
v 1 0.2 1
v 1 2.8 1.1
v 1 2.8 1
v 1 2.9 1
v 1 3 1
v 1 3.1 1.1
v 1 3.1 1
v 1 3.2 1.1
v 1 3.2 1
v 1.4 0.2 1.1
v 1.4 0.2 1
v 1.4 2.1 1.1
v 1.4 2.1 1
v 1.4 2.5 1.1
v 1.4 2.5 1
v 1.4 2.9 1.1
v 1.4 2.9 1
v 1.4 3 1
v 1.4 3.1 1.1
v 1.4 3.1 1
v 1.4 3.2 1.1
v 1.4 3.2 1
v 1.8 0.2 1.1
v 1.8 0.2 1
v 1.8 0.3 1.1
v 1.8 0.3 1
v 1.8 0.4 1
v 1.8 2.9 1.1
v 1.8 2.9 1
v 1.8 3 1.1
v 1.8 3 1
v 1.8 3.1 1.1
v 1.8 3.1 1
v 1.8 3.2 1.1
v 1.8 3.2 1
v 2.2 0.2 1.1
v 2.2 0.2 1
v 2.2 0.4 1.1
v 2.2 0.4 1
v 2.2 3.1 1.1
v 2.2 3.1 1
v 2.2 3.2 1.1
v 2.2 3.2 1
v 3 0.2 1.1
v 3 0.2 1
v 3 3.2 1.1
v 3 3.2 1
v 3.4 0.2 1.1
v 3.4 0.2 1
v 3.4 2.6 1
v 3.4 3 1.1
v 3.4 3 1
v 3.4 3.2 1.1
v 3.4 3.2 1
v 3.8 0.2 1.1
v 3.8 0.2 1
v 3.8 3.2 1.1
v 3.8 3.2 1
v 4.2 0.2 1.1
v 4.2 0.2 1
v 4.2 3.2 1.1
v 4.2 3.2 1
v 4.6 0.2 1.1
v 4.6 0.2 1
v 4.6 0.3 1.1
v 4.6 0.3 1
v 4.6 3.1 1.1
v 4.6 3.1 1
v 4.6 3.2 1.1
v 4.6 3.2 1
v 5 0.2 1.1
v 5 0.2 1
v 5 0.4 1.1
v 5 0.4 1
v 5 3.1 1.1
v 5 3.1 1
v 5 3.2 1.1
v 5 3.2 1
v 5.6 0 1.1
v 5.6 0 0.9
v 5.6 0.2 1
v 5.6 0.2 0.9
v 5.6 0.6 1
v 5.6 0.6 0.9
v 5.6 3.4 1.1
v 5.6 3.4 0.9
v -6 0 1.1
v -6 3.4 1.1
v -5.9 3.2 1.1
v -5.9 3.4 1.1
v -5.8 0.2 1.1
v -5.8 0.3 1.1
v -5.8 0.4 1.1
v -5.8 0.5 1.1
v -5.8 0.6 1.1
v -5.8 0.7 1.1
v -5.8 0.8 1.1
v -5.8 1 1.1
v -5.8 2.7 1.1
v -5.8 2.8 1.1
v -5.8 2.9 1.1
v -5.8 3.1 1.1
v -5.8 3.2 1.1
v -5.7 0.2 1.1
v -5.7 0.3 1.1
v -5.7 0.4 1.1
v -5.7 0.5 1.1
v -5.7 0.6 1.1
v -5.7 0.7 1.1
v -5.7 0.8 1.1
v -5.7 1 1.1
v -5.7 2.7 1.1
v -5.7 2.8 1.1
v -5.7 2.9 1.1
v -5.7 3 1.1
v -5.7 3.1 1.1
v -5.7 3.3 1.1
v -5.7 3.4 1.1
v -5.6 0.1 1.1
v -5.6 0.2 1.1
v -5.6 0.3 1.1
v -5.6 0.4 1.1
v -5.6 3 1.1
v -5.6 3.2 1.1
v -5.6 3.3 1.1
v -5.5 0.1 1.1
v -5.5 0.2 1.1
v -5.4 0.1 1.1
v -5.4 0.2 1.1
v -5.4 0.3 1.1
v -5.4 0.4 1.1
v -5.4 0.5 1.1
v -5.4 2.9 1.1
v -5.4 3 1.1
v -5.4 3.1 1.1
v -5.4 3.2 1.1
v -5.4 3.3 1.1
v -5.4 3.4 1.1
v -5.3 3 1.1
v -5.3 3.1 1.1
v -5.3 3.2 1.1
v -5.3 3.3 1.1
v -5.2 0.2 1.1
v -5.2 0.3 1.1
v -5.2 0.4 1.1
v -5.2 0.5 1.1
v -5.2 2.9 1.1
v -5.2 3 1.1
v -5.2 3.1 1.1
v -5.2 3.2 1.1
v -5.2 3.4 1.1
v -5 0.2 1.1
v -5 0.3 1.1
v -5 0.5 1.1
v -5 2.6 1.1
v -5 3.1 1.1
v -5 3.2 1.1
v -4.9 0.2 1.1
v -4.9 0.3 1.1
v -4.9 0.4 1.1
v -4.9 0.5 1.1
v -4.9 2.6 1.1
v -4.9 3 1.1
v -4.8 0.2 1.1
v -4.8 0.4 1.1
v -4.8 0.5 1.1
v -4.8 3 1.1
v -4.8 3.1 1.1
v -4.8 3.2 1.1
v -4.6 0.2 1.1
v -4.6 0.4 1.1
v -4.6 0.5 1.1
v -4.6 3 1.1
v -4.6 3.2 1.1
v -4.5 0.2 1.1
v -4.5 0.4 1.1
v -4.5 2.7 1.1
v -4.5 2.8 1.1
v -4.4 0.1 1.1
v -4.4 0.2 1.1
v -4.4 0.5 1.1
v -4.4 2.7 1.1
v -4.4 2.8 1.1
v -4.4 3 1.1
v -4.4 3.2 1.1
v -4.2 0.1 1.1
v -4.2 0.2 1.1
v -4.2 0.4 1.1
v -4.2 0.5 1.1
v -4.2 3 1.1
v -4.2 3.2 1.1
v -4.2 3.3 1.1
v -4.1 0.3 1.1
v -4.1 0.4 1.1
v -4.1 0.5 1.1
v -4.1 2.7 1.1
v -4.1 3 1.1
v -4.1 3.1 1.1
v -4 0.1 1.1
v -4 0.2 1.1
v -4 0.3 1.1
v -4 0.4 1.1
v -4 2.7 1.1
v -4 3 1.1
v -4 3.1 1.1
v -4 3.2 1.1
v -3.8 0.1 1.1
v -3.8 0.2 1.1
v -3.8 0.4 1.1
v -3.8 2.3 1.1
v -3.8 2.7 1.1
v -3.8 2.8 1.1
v -3.8 2.9 1.1
v -3.8 3 1.1
v -3.8 3.2 1.1
v -3.7 0.3 1.1
v -3.7 0.4 1.1
v -3.7 2.3 1.1
v -3.7 2.6 1.1
v -3.7 2.7 1.1
v -3.7 2.8 1.1
v -3.7 2.9 1.1
v -3.7 3 1.1
v -3.6 0.1 1.1
v -3.6 0.2 1.1
v -3.6 0.3 1.1
v -3.6 0.4 1.1
v -3.6 2.6 1.1
v -3.6 2.8 1.1
v -3.6 2.9 1.1
v -3.6 3.2 1.1
v -3.5 0.1 1.1
v -3.5 0.2 1.1
v -3.4 0.2 1.1
v -3.4 0.3 1.1
v -3.4 0.5 1.1
v -3.4 3 1.1
v -3.4 3.1 1.1
v -3.4 3.2 1.1
v -3.4 3.3 1.1
v -3.3 0.2 1.1
v -3.3 0.3 1.1
v -3.3 0.4 1.1
v -3.3 0.5 1.1
v -3.3 0.6 1.1
v -3.3 0.8 1.1
v -3.3 3 1.1
v -3.3 3.1 1.1
v -3.3 3.2 1.1
v -3.2 0.2 1.1
v -3.2 0.3 1.1
v -3.2 0.4 1.1
v -3.2 0.5 1.1
v -3.2 0.6 1.1
v -3.2 0.8 1.1
v -3.2 3 1.1
v -3.2 3.1 1.1
v -3.2 3.2 1.1
v -3.1 0.2 1.1
v -3.1 0.3 1.1
v -3.1 3.2 1.1
v -3 0.2 1.1
v -3 0.3 1.1
v -2.9 0.2 1.1
v -2.9 0.3 1.1
v -2.9 0.4 1.1
v -2.9 2.8 1.1
v -2.9 2.9 1.1
v -2.9 3.1 1.1
v -2.9 3.2 1.1
v -2.8 0.2 1.1
v -2.8 0.3 1.1
v -2.8 0.4 1.1
v -2.8 2.8 1.1
v -2.8 2.9 1.1
v -2.8 3.1 1.1
v -2.8 3.2 1.1
v -2.6 0.2 1.1
v -2.6 0.3 1.1
v -2.6 3.1 1.1
v -2.6 3.2 1.1
v -2.5 0.2 1.1
v -2.5 0.3 1.1
v -2.5 0.4 1.1
v -2.4 0.2 1.1
v -2.4 0.3 1.1
v -2.4 0.4 1.1
v -2.4 3.1 1.1
v -2.4 3.2 1.1
v -2.2 0.2 1.1
v -2.2 3.1 1.1
v -2.2 3.2 1.1
v -2 0.2 1.1
v -2 3.1 1.1
v -2 3.2 1.1
v -1.8 0.2 1.1
v -1.8 0.3 1.1
v -1.8 0.4 1.1
v -1.8 0.5 1.1
v -1.8 0.6 1.1
v -1.8 2.3 1.1
v -1.8 3.2 1.1
v -1.7 0.3 1.1
v -1.7 0.4 1.1
v -1.7 0.5 1.1
v -1.7 0.6 1.1
v -1.7 2.3 1.1
v -1.7 3 1.1
v -1.6 0.2 1.1
v -1.6 0.3 1.1
v -1.6 3 1.1
v -1.6 3.2 1.1
v -1.4 0.2 1.1
v -1.4 0.4 1.1
v -1.4 3 1.1
v -1.4 3.2 1.1
v -1.3 3 1.1
v -1.3 3.1 1.1
v -1.2 0.2 1.1
v -1.2 0.4 1.1
v -1.2 3.1 1.1
v -1.2 3.2 1.1
v -1.1 0.1 1.1
v -1.1 0.2 1.1
v -1.1 3.2 1.1
v -1.1 3.3 1.1
v -1 0.2 1.1
v -1 0.3 1.1
v -1 0.4 1.1
v -1 0.5 1.1
v -1 0.6 1.1
v -1 0.7 1.1
v -1 3 1.1
v -1 3.2 1.1
v -0.9 0.1 1.1
v -0.9 0.2 1.1
v -0.9 0.5 1.1
v -0.9 0.6 1.1
v -0.9 0.7 1.1
v -0.9 2.9 1.1
v -0.9 3 1.1
v -0.8 0.2 1.1
v -0.8 0.3 1.1
v -0.8 0.4 1.1
v -0.8 0.5 1.1
v -0.8 2.9 1.1
v -0.8 3.2 1.1
v -0.8 3.3 1.1
v -0.6 0.2 1.1
v -0.6 0.4 1.1
v -0.6 0.5 1.1
v -0.6 3.1 1.1
v -0.6 3.2 1.1
v -0.5 0.4 1.1
v -0.5 0.5 1.1
v -0.5 1.1 1.1
v -0.4 0.2 1.1
v -0.4 0.5 1.1
v -0.4 1.1 1.1
v -0.4 3.1 1.1
v -0.4 3.2 1.1
v -0.3 0.2 1.1
v -0.3 0.3 1.1
v -0.3 3.2 1.1
v -0.2 0.2 1.1
v -0.2 0.3 1.1
v -0.0999998 0.2 1.1
v -0.0999998 3.2 1.1
v 1.86265e-007 0.2 1.1
v 1.86265e-007 0.9 1.1
v 1.86265e-007 3.1 1.1
v 1.86265e-007 3.2 1.1
v 0.1 0.4 1.1
v 0.1 0.9 1.1
v 0.1 3 1.1
v 0.1 3.1 1.1
v 0.2 0.1 1.1
v 0.2 0.2 1.1
v 0.2 0.4 1.1
v 0.2 3 1.1
v 0.2 3.2 1.1
v 0.3 0.1 1.1
v 0.3 0.2 1.1
v 0.4 0.2 1.1
v 0.4 2.8 1.1
v 0.4 2.9 1.1
v 0.4 3 1.1
v 0.4 3.2 1.1
v 0.5 2.8 1.1
v 0.5 2.9 1.1
v 0.5 3 1.1
v 0.6 0.2 1.1
v 0.6 2.9 1.1
v 0.6 3.2 1.1
v 0.8 0.2 1.1
v 0.8 2.9 1.1
v 0.8 3 1.1
v 0.8 3.2 1.1
v 0.9 2.8 1.1
v 0.9 2.9 1.1
v 0.9 3 1.1
v 0.9 3.1 1.1
v 0.9 3.2 1.1
v 1 0.2 1.1
v 1 2.8 1.1
v 1 3.1 1.1
v 1 3.2 1.1
v 1.2 0.2 1.1
v 1.2 2.3 1.1
v 1.2 2.7 1.1
v 1.2 2.8 1.1
v 1.2 3 1.1
v 1.2 3.1 1.1
v 1.2 3.2 1.1
v 1.3 2.1 1.1
v 1.3 2.3 1.1
v 1.3 2.5 1.1
v 1.3 2.7 1.1
v 1.3 2.8 1.1
v 1.3 2.9 1.1
v 1.3 3 1.1
v 1.3 3.1 1.1
v 1.3 3.2 1.1
v 1.4 0.2 1.1
v 1.4 2.1 1.1
v 1.4 2.5 1.1
v 1.4 2.9 1.1
v 1.4 3.1 1.1
v 1.4 3.2 1.1
v 1.6 0.2 1.1
v 1.6 0.3 1.1
v 1.6 2.9 1.1
v 1.6 3.2 1.1
v 1.7 3 1.1
v 1.7 3.1 1.1
v 1.8 0.2 1.1
v 1.8 0.3 1.1
v 1.8 2.9 1.1
v 1.8 3 1.1
v 1.8 3.1 1.1
v 1.8 3.2 1.1
v 2 0.2 1.1
v 2 0.4 1.1
v 2 3 1.1
v 2 3.2 1.1
v 2.1 3 1.1
v 2.1 3.1 1.1
v 2.2 0.2 1.1
v 2.2 0.4 1.1
v 2.2 3.1 1.1
v 2.2 3.2 1.1
v 2.4 0.2 1.1
v 2.4 3 1.1
v 2.4 3.2 1.1
v 2.5 3 1.1
v 2.5 3.1 1.1
v 2.6 0.2 1.1
v 2.6 0.3 1.1
v 2.6 3.1 1.1
v 2.6 3.2 1.1
v 2.7 0.2 1.1
v 2.7 0.3 1.1
v 2.8 0.2 1.1
v 2.8 3.2 1.1
v 3 0.2 1.1
v 3 3.2 1.1
v 3.2 0.2 1.1
v 3.2 3.2 1.1
v 3.3 3 1.1
v 3.3 3.2 1.1
v 3.4 0.2 1.1
v 3.4 3 1.1
v 3.4 3.2 1.1
v 3.6 0.2 1.1
v 3.6 3.2 1.1
v 3.8 0.2 1.1
v 3.8 3.2 1.1
v 4 0.2 1.1
v 4 3.2 1.1
v 4.2 0.2 1.1
v 4.2 3.2 1.1
v 4.4 0.2 1.1
v 4.4 0.3 1.1
v 4.4 3.2 1.1
v 4.5 3.1 1.1
v 4.5 3.2 1.1
v 4.6 0.2 1.1
v 4.6 0.3 1.1
v 4.6 3.1 1.1
v 4.6 3.2 1.1
v 4.8 0.2 1.1
v 4.8 0.3 1.1
v 4.8 3 1.1
v 4.8 3.2 1.1
v 4.9 0.3 1.1
v 4.9 0.4 1.1
v 4.9 3 1.1
v 4.9 3.1 1.1
v 5 0.2 1.1
v 5 0.4 1.1
v 5 3.1 1.1
v 5 3.2 1.1
v 5.2 0.2 1.1
v 5.2 0.5 1.1
v 5.2 2.9 1.1
v 5.2 3.2 1.1
v 5.3 0.5 1.1
v 5.3 1 1.1
v 5.3 2.8 1.1
v 5.3 2.9 1.1
v 5.4 0.2 1.1
v 5.4 0.4 1.1
v 5.4 0.5 1.1
v 5.4 1 1.1
v 5.4 2.8 1.1
v 5.4 3.2 1.1
v 5.5 0.4 1.1
v 5.5 0.5 1.1
v 5.6 0 1.1
v 5.6 3.4 1.1
v -5.6 0.2 1
v -5.6 0.3 1
v -5.6 0.4 1
v -5.6 0.5 1
v -5.6 2.7 1
v -5.6 2.9 1
v -5.6 3 1
v -5.6 3.2 1
v -5.5 0.2 1
v -5.5 0.3 1
v -5.5 0.4 1
v -5.5 0.5 1
v -5.5 0.6 1
v -5.5 2.9 1
v -5.5 3 1
v -5.5 3.2 1
v -5.4 0.2 1
v -5.4 0.3 1
v -5.4 0.4 1
v -5.4 0.5 1
v -5.4 0.6 1
v -5.4 2.7 1
v -5.4 2.9 1
v -5.4 3 1
v -5.4 3.1 1
v -5.4 3.2 1
v -5.2 0.2 1
v -5.2 0.3 1
v -5.2 0.4 1
v -5.2 0.5 1
v -5.2 2.9 1
v -5.2 3 1
v -5.2 3.1 1
v -5.2 3.2 1
v -5.1 0.3 1
v -5.1 0.4 1
v -5.1 2.5 1
v -5.1 2.7 1
v -5 0.2 1
v -5 0.3 1
v -5 0.4 1
v -5 0.5 1
v -5 2.5 1
v -5 2.6 1
v -5 2.7 1
v -5 3 1
v -5 3.1 1
v -5 3.2 1
v -4.8 0.2 1
v -4.8 0.4 1
v -4.8 0.5 1
v -4.8 3 1
v -4.8 3.1 1
v -4.8 3.2 1
v -4.7 0.2 1
v -4.7 0.3 1
v -4.6 0.2 1
v -4.6 0.3 1
v -4.6 0.4 1
v -4.6 0.5 1
v -4.6 3 1
v -4.6 3.2 1
v -4.4 0.2 1
v -4.4 0.4 1
v -4.4 0.5 1
v -4.4 2.7 1
v -4.4 2.8 1
v -4.4 3 1
v -4.4 3.2 1
v -4.3 0.2 1
v -4.3 0.3 1
v -4.3 2.7 1
v -4.3 3.1 1
v -4.2 0.2 1
v -4.2 0.3 1
v -4.2 0.4 1
v -4.2 0.5 1
v -4.2 3 1
v -4.2 3.1 1
v -4.2 3.2 1
v -4 0.2 1
v -4 0.3 1
v -4 0.4 1
v -4 2.6 1
v -4 2.7 1
v -4 2.8 1
v -4 2.9 1
v -4 3 1
v -4 3.1 1
v -4 3.2 1
v -3.9 2.1 1
v -3.9 2.6 1
v -3.9 2.7 1
v -3.9 2.8 1
v -3.9 2.9 1
v -3.9 3.1 1
v -3.9 3.2 1
v -3.8 0.2 1
v -3.8 0.4 1
v -3.8 2.1 1
v -3.8 2.3 1
v -3.8 2.6 1
v -3.8 2.7 1
v -3.8 2.8 1
v -3.8 2.9 1
v -3.8 3 1
v -3.8 3.1 1
v -3.8 3.2 1
v -3.6 0.2 1
v -3.6 0.3 1
v -3.6 0.4 1
v -3.6 2.6 1
v -3.6 2.8 1
v -3.6 2.9 1
v -3.6 3 1
v -3.6 3.2 1
v -3.5 0.2 1
v -3.4 0.2 1
v -3.4 0.3 1
v -3.4 0.4 1
v -3.4 0.5 1
v -3.4 3 1
v -3.4 3.1 1
v -3.4 3.2 1
v -3.2 0.2 1
v -3.2 0.3 1
v -3.2 0.4 1
v -3.2 0.5 1
v -3.2 0.6 1
v -3.2 0.8 1
v -3.2 3 1
v -3.2 3.1 1
v -3.2 3.2 1
v -3.1 0.2 1
v -3.1 0.3 1
v -3.1 0.4 1
v -3.1 3 1
v -3.1 3.2 1
v -2.8 0.2 1
v -2.8 0.3 1
v -2.8 0.4 1
v -2.8 2.8 1
v -2.8 2.9 1
v -2.8 3 1
v -2.8 3.1 1
v -2.8 3.2 1
v -2.7 0.2 1
v -2.7 0.3 1
v -2.7 2.9 1
v -2.7 3 1
v -2.6 0.2 1
v -2.6 0.3 1
v -2.6 2.9 1
v -2.6 3.1 1
v -2.6 3.2 1
v -2.4 0.2 1
v -2.4 0.3 1
v -2.4 0.4 1
v -2.4 3.1 1
v -2.4 3.2 1
v -2.2 0.2 1
v -2.2 0.3 1
v -2.2 0.4 1
v -2.2 3.1 1
v -2.2 3.2 1
v -2 0.2 1
v -2 3.1 1
v -2 3.2 1
v -1.8 0.2 1
v -1.8 0.3 1
v -1.8 0.4 1
v -1.8 0.5 1
v -1.8 0.6 1
v -1.8 2.3 1
v -1.8 3.1 1
v -1.8 3.2 1
v -1.6 0.2 1
v -1.6 0.3 1
v -1.6 2.8 1
v -1.6 3 1
v -1.6 3.2 1
v -1.5 0.3 1
v -1.5 0.4 1
v -1.5 2.8 1
v -1.5 2.9 1
v -1.4 0.2 1
v -1.4 0.4 1
v -1.4 2.9 1
v -1.4 3 1
v -1.4 3.2 1
v -1.2 0.2 1
v -1.2 0.4 1
v -1.2 0.6 1
v -1.2 0.7 1
v -1.2 3.1 1
v -1.2 3.2 1
v -1.1 0.2 1
v -1.1 0.6 1
v -1.1 0.7 1
v -1.1 0.8 1
v -1.1 3.2 1
v -1 0.2 1
v -1 0.3 1
v -1 0.4 1
v -1 0.5 1
v -1 0.6 1
v -1 0.7 1
v -1 0.8 1
v -1 3 1
v -1 3.1 1
v -1 3.2 1
v -0.8 0.2 1
v -0.8 0.3 1
v -0.8 0.4 1
v -0.8 0.5 1
v -0.8 2.9 1
v -0.8 3 1
v -0.8 3.2 1
v -0.7 0.2 1
v -0.7 0.3 1
v -0.7 3 1
v -0.7 3.1 1
v -0.6 0.2 1
v -0.6 0.3 1
v -0.6 0.4 1
v -0.6 0.5 1
v -0.6 3.1 1
v -0.6 3.2 1
v -0.4 0.2 1
v -0.4 0.5 1
v -0.4 0.8 1
v -0.4 1.1 1
v -0.4 3.1 1
v -0.4 3.2 1
v -0.3 0.2 1
v -0.3 0.3 1
v -0.3 0.8 1
v -0.3 3.2 1
v -0.0999998 0.2 1
v -0.0999998 0.8 1
v -0.0999998 3.2 1
v 1.86265e-007 0.2 1
v 1.86265e-007 0.8 1
v 1.86265e-007 0.9 1
v 1.86265e-007 3.1 1
v 1.86265e-007 3.2 1
v 0.2 0.2 1
v 0.2 0.3 1
v 0.2 0.4 1
v 0.2 3 1
v 0.2 3.2 1
v 0.3 0.2 1
v 0.3 0.3 1
v 0.4 0.2 1
v 0.4 2.8 1
v 0.4 2.9 1
v 0.4 3 1
v 0.4 3.2 1
v 0.6 0.2 1
v 0.6 2.9 1
v 0.6 3.1 1
v 0.6 3.2 1
v 0.7 2.8 1
v 0.7 2.9 1
v 0.7 3.1 1
v 0.7 3.2 1
v 0.8 0.2 1
v 0.8 2.8 1
v 0.8 2.9 1
v 0.8 3 1
v 0.8 3.2 1
v 1 0.2 1
v 1 2.8 1
v 1 2.9 1
v 1 3 1
v 1 3.1 1
v 1 3.2 1
v 1.1 3 1
v 1.1 3.1 1
v 1.1 3.2 1
v 1.2 0.2 1
v 1.2 2.3 1
v 1.2 2.7 1
v 1.2 2.8 1
v 1.2 2.9 1
v 1.2 3 1
v 1.2 3.1 1
v 1.2 3.2 1
v 1.4 0.2 1
v 1.4 2.1 1
v 1.4 2.5 1
v 1.4 2.9 1
v 1.4 3 1
v 1.4 3.1 1
v 1.4 3.2 1
v 1.5 0.2 1
v 1.5 0.3 1
v 1.5 2.8 1
v 1.5 2.9 1
v 1.5 3 1
v 1.5 3.1 1
v 1.5 3.2 1
v 1.6 0.2 1
v 1.6 0.3 1
v 1.6 2.8 1
v 1.6 2.9 1
v 1.6 3.2 1
v 1.8 0.2 1
v 1.8 0.3 1
v 1.8 0.4 1
v 1.8 2.9 1
v 1.8 3 1
v 1.8 3.1 1
v 1.8 3.2 1
v 1.9 0.3 1
v 1.9 0.4 1
v 2 0.2 1
v 2 0.3 1
v 2 0.4 1
v 2 3 1
v 2 3.2 1
v 2.2 0.2 1
v 2.2 0.4 1
v 2.2 3.1 1
v 2.2 3.2 1
v 2.3 0.2 1
v 2.3 0.3 1
v 2.3 3 1
v 2.3 3.1 1
v 2.4 0.2 1
v 2.4 0.3 1
v 2.4 0.4 1
v 2.4 3 1
v 2.4 3.1 1
v 2.4 3.2 1
v 3 0.2 1
v 3 3.2 1
v 3.2 0.2 1
v 3.2 3.2 1
v 3.4 0.2 1
v 3.4 2.6 1
v 3.4 3 1
v 3.4 3.2 1
v 3.5 2 1
v 3.5 2.6 1
v 3.5 2.9 1
v 3.5 3 1
v 3.5 3.1 1
v 3.5 3.2 1
v 3.6 0.2 1
v 3.6 2 1
v 3.6 2.9 1
v 3.6 3 1
v 3.6 3.1 1
v 3.6 3.2 1
v 3.8 0.2 1
v 3.8 3.2 1
v 4 0.2 1
v 4 3.2 1
v 4.2 0.2 1
v 4.2 3.2 1
v 4.4 0.2 1
v 4.4 0.3 1
v 4.4 3.2 1
v 4.6 0.2 1
v 4.6 0.3 1
v 4.6 3.1 1
v 4.6 3.2 1
v 4.7 3 1
v 4.7 3.1 1
v 4.8 0.2 1
v 4.8 0.3 1
v 4.8 3 1
v 4.8 3.1 1
v 4.8 3.2 1
v 5 0.2 1
v 5 0.4 1
v 5 3.1 1
v 5 3.2 1
v 5.1 3 1
v 5.1 3.1 1
v 5.2 0.2 1
v 5.2 0.4 1
v 5.2 0.5 1
v 5.2 2.9 1
v 5.2 3 1
v 5.2 3.1 1
v 5.2 3.2 1
v -6 0 0.9
v -6 3.4 0.9
v -5.9 0.2 0.9
v -5.9 3.2 0.9
v -5.6 0.2 0.9
v -5.6 0.3 0.9
v -5.6 0.4 0.9
v -5.6 0.5 0.9
v -5.6 2.7 0.9
v -5.6 2.9 0.9
v -5.6 3 0.9
v -5.6 3.2 0.9
v -5.5 0.3 0.9
v -5.5 0.4 0.9
v -5.5 0.5 0.9
v -5.5 0.6 0.9
v -5.5 2.9 0.9
v -5.5 3 0.9
v -5.5 3.2 0.9
v -5.4 0.2 0.9
v -5.4 0.4 0.9
v -5.4 0.5 0.9
v -5.4 0.6 0.9
v -5.4 2.7 0.9
v -5.4 3 0.9
v -5.4 3.2 0.9
v -5.2 0.2 0.9
v -5.2 0.3 0.9
v -5.2 3 0.9
v -5.2 3.1 0.9
v -5.2 3.2 0.9
v -5.1 0.3 0.9
v -5.1 0.4 0.9
v -5.1 2.5 0.9
v -5.1 2.7 0.9
v -5 0.2 0.9
v -5 0.4 0.9
v -5 2.5 0.9
v -5 2.7 0.9
v -5 3 0.9
v -5 3.1 0.9
v -5 3.2 0.9
v -4.8 0.2 0.9
v -4.8 0.4 0.9
v -4.8 3 0.9
v -4.8 3.2 0.9
v -4.7 0.2 0.9
v -4.7 0.3 0.9
v -4.6 0.2 0.9
v -4.6 0.3 0.9
v -4.6 0.4 0.9
v -4.6 3 0.9
v -4.6 3.2 0.9
v -4.4 0.2 0.9
v -4.4 0.4 0.9
v -4.4 2.7 0.9
v -4.4 3.2 0.9
v -4.3 0.2 0.9
v -4.3 0.3 0.9
v -4.3 2.7 0.9
v -4.3 3.1 0.9
v -4.2 0.3 0.9
v -4.2 0.4 0.9
v -4.2 3.1 0.9
v -4.2 3.2 0.9
v -4 0.2 0.9
v -4 0.4 0.9
v -4 2.6 0.9
v -4 2.8 0.9
v -4 2.9 0.9
v -4 3.2 0.9
v -3.9 2.1 0.9
v -3.9 2.6 0.9
v -3.9 2.7 0.9
v -3.9 2.8 0.9
v -3.9 2.9 0.9
v -3.9 3.1 0.9
v -3.9 3.2 0.9
v -3.8 0.2 0.9
v -3.8 0.4 0.9
v -3.8 2.1 0.9
v -3.8 2.6 0.9
v -3.8 2.7 0.9
v -3.8 2.8 0.9
v -3.8 2.9 0.9
v -3.8 3.1 0.9
v -3.8 3.2 0.9
v -3.6 0.2 0.9
v -3.6 0.4 0.9
v -3.6 3 0.9
v -3.6 3.2 0.9
v -3.4 0.2 0.9
v -3.4 0.4 0.9
v -3.4 3 0.9
v -3.4 3.2 0.9
v -3.3 3.3 0.9
v -3.3 3.4 0.9
v -3.2 0.3 0.9
v -3.2 0.4 0.9
v -3.2 3 0.9
v -3.2 3.2 0.9
v -3.1 0.2 0.9
v -3.1 0.3 0.9
v -3.1 0.4 0.9
v -3.1 3 0.9
v -3.1 3.2 0.9
v -3.1 3.3 0.9
v -3.1 3.4 0.9
v -3 2.3 0.9
v -3 2.8 0.9
v -2.9 0.2 0.9
v -2.9 2.3 0.9
v -2.9 2.8 0.9
v -2.9 3.2 0.9
v -2.9 3.3 0.9
v -2.9 3.4 0.9
v -2.8 3 0.9
v -2.8 3.2 0.9
v -2.7 0.2 0.9
v -2.7 0.3 0.9
v -2.7 2.9 0.9
v -2.7 3 0.9
v -2.6 0.2 0.9
v -2.6 0.3 0.9
v -2.6 2.9 0.9
v -2.6 3.2 0.9
v -2.5 3.3 0.9
v -2.5 3.4 0.9
v -2.4 0.3 0.9
v -2.4 0.4 0.9
v -2.4 3.1 0.9
v -2.4 3.2 0.9
v -2.2 0.3 0.9
v -2.2 0.4 0.9
v -2.2 3.1 0.9
v -2.2 3.2 0.9
v -2 3.1 0.9
v -2 3.2 0.9
v -1.8 3.1 0.9
v -1.8 3.2 0.9
v -1.6 0.2 0.9
v -1.6 0.3 0.9
v -1.6 2.8 0.9
v -1.6 3.2 0.9
v -1.5 0.3 0.9
v -1.5 0.4 0.9
v -1.5 2.8 0.9
v -1.5 2.9 0.9
v -1.4 0.2 0.9
v -1.4 0.4 0.9
v -1.4 2.9 0.9
v -1.4 3.2 0.9
v -1.2 0.2 0.9
v -1.2 0.4 0.9
v -1.2 0.6 0.9
v -1.2 0.7 0.9
v -1.2 3.1 0.9
v -1.2 3.2 0.9
v -1.1 0.6 0.9
v -1.1 0.7 0.9
v -1.1 0.8 0.9
v -1 0.2 0.9
v -1 0.4 0.9
v -1 0.7 0.9
v -1 0.8 0.9
v -1 3.1 0.9
v -1 3.2 0.9
v -0.8 0.2 0.9
v -0.8 0.5 0.9
v -0.8 3 0.9
v -0.8 3.2 0.9
v -0.7 0.2 0.9
v -0.7 0.3 0.9
v -0.7 3 0.9
v -0.7 3.1 0.9
v -0.6 0.2 0.9
v -0.6 0.3 0.9
v -0.6 0.5 0.9
v -0.6 3.1 0.9
v -0.6 3.2 0.9
v -0.4 0.2 0.9
v -0.4 0.8 0.9
v -0.3 0.2 0.9
v -0.3 0.8 0.9
v -0.3 3.2 0.9
v -0.2 2.3 0.9
v -0.2 2.8 0.9
v -0.0999998 0.2 0.9
v -0.0999998 0.8 0.9
v -0.0999998 2.3 0.9
v -0.0999998 2.8 0.9
v -0.0999998 3.2 0.9
v 1.86265e-007 0.2 0.9
v 1.86265e-007 0.8 0.9
v 1.86265e-007 3.3 0.9
v 1.86265e-007 3.4 0.9
v 0.1 3.3 0.9
v 0.1 3.4 0.9
v 0.2 0.2 0.9
v 0.2 0.3 0.9
v 0.2 3 0.9
v 0.2 3.2 0.9
v 0.2 3.3 0.9
v 0.2 3.4 0.9
v 0.3 0.2 0.9
v 0.3 0.3 0.9
v 0.4 3 0.9
v 0.4 3.2 0.9
v 0.4 3.3 0.9
v 0.4 3.4 0.9
v 0.6 2.9 0.9
v 0.6 3.1 0.9
v 0.7 2.8 0.9
v 0.7 2.9 0.9
v 0.7 3.1 0.9
v 0.7 3.2 0.9
v 0.8 2.8 0.9
v 0.8 3.2 0.9
v 1 2.9 0.9
v 1 3 0.9
v 1 3.1 0.9
v 1 3.2 0.9
v 1.1 3 0.9
v 1.1 3.1 0.9
v 1.1 3.2 0.9
v 1.2 2.9 0.9
v 1.2 3.1 0.9
v 1.2 3.2 0.9
v 1.4 2.9 0.9
v 1.4 3 0.9
v 1.4 3.1 0.9
v 1.5 0.2 0.9
v 1.5 0.3 0.9
v 1.5 2.8 0.9
v 1.5 2.9 0.9
v 1.5 3 0.9
v 1.5 3.1 0.9
v 1.5 3.2 0.9
v 1.6 0.2 0.9
v 1.6 0.3 0.9
v 1.6 2.8 0.9
v 1.6 3.2 0.9
v 1.8 0.2 0.9
v 1.8 0.4 0.9
v 1.9 0.3 0.9
v 1.9 0.4 0.9
v 2 0.2 0.9
v 2 0.3 0.9
v 2.2 0.2 0.9
v 2.2 0.4 0.9
v 2.3 0.2 0.9
v 2.3 0.3 0.9
v 2.3 3 0.9
v 2.3 3.1 0.9
v 2.4 0.3 0.9
v 2.4 0.4 0.9
v 2.4 3 0.9
v 2.4 3.1 0.9
v 2.6 0.2 0.9
v 2.6 3.2 0.9
v 2.7 2.3 0.9
v 2.7 2.8 0.9
v 2.8 0.2 0.9
v 2.8 2.3 0.9
v 2.8 2.8 0.9
v 2.8 3.2 0.9
v 3.4 2.6 0.9
v 3.4 3.2 0.9
v 3.4 3.3 0.9
v 3.4 3.4 0.9
v 3.5 2 0.9
v 3.5 2.6 0.9
v 3.5 2.9 0.9
v 3.5 3 0.9
v 3.5 3.1 0.9
v 3.5 3.2 0.9
v 3.6 2 0.9
v 3.6 2.9 0.9
v 3.6 3 0.9
v 3.6 3.1 0.9
v 3.6 3.2 0.9
v 3.6 3.3 0.9
v 3.6 3.4 0.9
v 4.3 3.3 0.9
v 4.3 3.4 0.9
v 4.4 3.3 0.9
v 4.4 3.4 0.9
v 4.6 0.2 0.9
v 4.6 0.3 0.9
v 4.6 3.3 0.9
v 4.6 3.4 0.9
v 4.7 3 0.9
v 4.7 3.1 0.9
v 4.8 0.2 0.9
v 4.8 0.3 0.9
v 4.8 3 0.9
v 4.8 3.1 0.9
v 4.8 3.3 0.9
v 4.8 3.4 0.9
v 5 0.2 0.9
v 5 0.4 0.9
v 5 3.3 0.9
v 5 3.4 0.9
v 5.1 3 0.9
v 5.1 3.1 0.9
v 5.2 0.2 0.9
v 5.2 0.4 0.9
v 5.2 3 0.9
v 5.2 3.1 0.9
v 5.2 3.3 0.9
v 5.2 3.4 0.9
v 5.5 0.2 0.9
v 5.5 0.6 0.9
v 5.5 3.2 0.9
v 5.6 0 0.9
v 5.6 0.2 0.9
v 5.6 0.6 0.9
v 5.6 3.4 0.9
v -6 0 1.1
v 5.6 0 1.1
v -6 0 0.9
v 5.6 0 0.9
v -5.6 3.2 1.1
v -5.4 3.2 1.1
v -5.2 3.2 1.1
v -5 3.2 1.1
v -4.8 3.2 1.1
v -4.6 3.2 1.1
v -4.4 3.2 1.1
v -4.2 3.2 1.1
v -4 3.2 1.1
v -3.8 3.2 1.1
v -3.6 3.2 1.1
v -3.4 3.2 1.1
v -3.2 3.2 1.1
v -3.1 3.2 1.1
v -2.8 3.2 1.1
v -2.6 3.2 1.1
v -2.4 3.2 1.1
v -2.2 3.2 1.1
v -2 3.2 1.1
v -1.8 3.2 1.1
v -1.6 3.2 1.1
v -1.4 3.2 1.1
v -1.2 3.2 1.1
v -1.1 3.2 1.1
v -1 3.2 1.1
v -0.8 3.2 1.1
v -0.6 3.2 1.1
v -0.4 3.2 1.1
v -0.3 3.2 1.1
v -0.0999998 3.2 1.1
v 1.86265e-007 3.2 1.1
v 0.2 3.2 1.1
v 0.4 3.2 1.1
v 0.6 3.2 1.1
v 0.8 3.2 1.1
v 1 3.2 1.1
v 1.2 3.2 1.1
v 1.4 3.2 1.1
v 1.6 3.2 1.1
v 1.8 3.2 1.1
v 2 3.2 1.1
v 2.2 3.2 1.1
v 2.4 3.2 1.1
v 3 3.2 1.1
v 3.2 3.2 1.1
v 3.4 3.2 1.1
v 3.6 3.2 1.1
v 3.8 3.2 1.1
v 4 3.2 1.1
v 4.2 3.2 1.1
v 4.4 3.2 1.1
v 4.6 3.2 1.1
v 4.8 3.2 1.1
v 5 3.2 1.1
v 5.2 3.2 1.1
v -5.6 3.2 1
v -5.5 3.2 1
v -5.4 3.2 1
v -5.2 3.2 1
v -5 3.2 1
v -4.8 3.2 1
v -4.6 3.2 1
v -4.4 3.2 1
v -4.2 3.2 1
v -4 3.2 1
v -3.9 3.2 1
v -3.8 3.2 1
v -3.6 3.2 1
v -3.4 3.2 1
v -3.2 3.2 1
v -3.1 3.2 1
v -2.8 3.2 1
v -2.6 3.2 1
v -2.4 3.2 1
v -2.2 3.2 1
v -2 3.2 1
v -1.8 3.2 1
v -1.6 3.2 1
v -1.4 3.2 1
v -1.2 3.2 1
v -1.1 3.2 1
v -1 3.2 1
v -0.8 3.2 1
v -0.6 3.2 1
v -0.4 3.2 1
v -0.3 3.2 1
v -0.0999998 3.2 1
v 1.86265e-007 3.2 1
v 0.2 3.2 1
v 0.4 3.2 1
v 0.6 3.2 1
v 0.7 3.2 1
v 0.8 3.2 1
v 1 3.2 1
v 1.1 3.2 1
v 1.2 3.2 1
v 1.4 3.2 1
v 1.5 3.2 1
v 1.6 3.2 1
v 1.8 3.2 1
v 2 3.2 1
v 2.2 3.2 1
v 2.4 3.2 1
v 3 3.2 1
v 3.2 3.2 1
v 3.4 3.2 1
v 3.5 3.2 1
v 3.6 3.2 1
v 3.8 3.2 1
v 4 3.2 1
v 4.2 3.2 1
v 4.4 3.2 1
v 4.6 3.2 1
v 4.8 3.2 1
v 5 3.2 1
v 5.2 3.2 1
v -5.6 0.2 1.1
v -5.5 0.2 1.1
v -5.4 0.2 1.1
v -5.2 0.2 1.1
v -5 0.2 1.1
v -4.8 0.2 1.1
v -4.6 0.2 1.1
v -4.4 0.2 1.1
v -4.2 0.2 1.1
v -4 0.2 1.1
v -3.8 0.2 1.1
v -3.6 0.2 1.1
v -3.5 0.2 1.1
v -3.4 0.2 1.1
v -3.2 0.2 1.1
v -3.1 0.2 1.1
v -2.8 0.2 1.1
v -2.6 0.2 1.1
v -2.4 0.2 1.1
v -2.2 0.2 1.1
v -2 0.2 1.1
v -1.8 0.2 1.1
v -1.6 0.2 1.1
v -1.4 0.2 1.1
v -1.2 0.2 1.1
v -1.1 0.2 1.1
v -1 0.2 1.1
v -0.8 0.2 1.1
v -0.6 0.2 1.1
v -0.4 0.2 1.1
v -0.3 0.2 1.1
v -0.0999998 0.2 1.1
v 1.86265e-007 0.2 1.1
v 0.2 0.2 1.1
v 0.3 0.2 1.1
v 0.4 0.2 1.1
v 0.6 0.2 1.1
v 0.8 0.2 1.1
v 1 0.2 1.1
v 1.2 0.2 1.1
v 1.4 0.2 1.1
v 1.6 0.2 1.1
v 1.8 0.2 1.1
v 2 0.2 1.1
v 2.2 0.2 1.1
v 2.4 0.2 1.1
v 3 0.2 1.1
v 3.2 0.2 1.1
v 3.4 0.2 1.1
v 3.6 0.2 1.1
v 3.8 0.2 1.1
v 4 0.2 1.1
v 4.2 0.2 1.1
v 4.4 0.2 1.1
v 4.6 0.2 1.1
v 4.8 0.2 1.1
v 5 0.2 1.1
v 5.2 0.2 1.1
v -5.6 0.2 1
v -5.5 0.2 1
v -5.4 0.2 1
v -5.2 0.2 1
v -5 0.2 1
v -4.8 0.2 1
v -4.7 0.2 1
v -4.6 0.2 1
v -4.4 0.2 1
v -4.3 0.2 1
v -4.2 0.2 1
v -4 0.2 1
v -3.8 0.2 1
v -3.6 0.2 1
v -3.5 0.2 1
v -3.4 0.2 1
v -3.2 0.2 1
v -3.1 0.2 1
v -2.8 0.2 1
v -2.7 0.2 1
v -2.6 0.2 1
v -2.4 0.2 1
v -2.2 0.2 1
v -2 0.2 1
v -1.8 0.2 1
v -1.6 0.2 1
v -1.4 0.2 1
v -1.2 0.2 1
v -1.1 0.2 1
v -1 0.2 1
v -0.8 0.2 1
v -0.7 0.2 1
v -0.6 0.2 1
v -0.4 0.2 1
v -0.3 0.2 1
v -0.0999998 0.2 1
v 1.86265e-007 0.2 1
v 0.2 0.2 1
v 0.3 0.2 1
v 0.4 0.2 1
v 0.6 0.2 1
v 0.8 0.2 1
v 1 0.2 1
v 1.2 0.2 1
v 1.4 0.2 1
v 1.5 0.2 1
v 1.6 0.2 1
v 1.8 0.2 1
v 2 0.2 1
v 2.2 0.2 1
v 2.3 0.2 1
v 2.4 0.2 1
v 3 0.2 1
v 3.2 0.2 1
v 3.4 0.2 1
v 3.6 0.2 1
v 3.8 0.2 1
v 4 0.2 1
v 4.2 0.2 1
v 4.4 0.2 1
v 4.6 0.2 1
v 4.8 0.2 1
v 5 0.2 1
v 5.2 0.2 1
v -6 3.4 1.1
v -5.9 3.4 1.1
v -5.7 3.4 1.1
v -5.4 3.4 1.1
v -5.2 3.4 1.1
v 5.6 3.4 1.1
v -5.9 3.4 1
v -5.7 3.4 1
v -5.4 3.4 1
v -5.2 3.4 1
v -3.3 3.4 1
v -3.1 3.4 1
v -2.9 3.4 1
v -2.5 3.4 1
v 1.86265e-007 3.4 1
v 0.1 3.4 1
v 0.2 3.4 1
v 0.4 3.4 1
v 3.4 3.4 1
v 3.6 3.4 1
v 4.3 3.4 1
v 4.4 3.4 1
v 4.6 3.4 1
v 4.8 3.4 1
v 5 3.4 1
v 5.2 3.4 1
v -6 3.4 0.9
v -3.3 3.4 0.9
v -3.1 3.4 0.9
v -2.9 3.4 0.9
v -2.5 3.4 0.9
v 1.86265e-007 3.4 0.9
v 0.1 3.4 0.9
v 0.2 3.4 0.9
v 0.4 3.4 0.9
v 3.4 3.4 0.9
v 3.6 3.4 0.9
v 4.3 3.4 0.9
v 4.4 3.4 0.9
v 4.6 3.4 0.9
v 4.8 3.4 0.9
v 5 3.4 0.9
v 5.2 3.4 0.9
v 5.6 3.4 0.9

# faces
f 3/1/1 2/1/1 1/1/1
f 4/1/1 2/1/1 3/1/1
f 7/3/1 6/3/1 5/3/1
f 8/3/1 6/3/1 7/3/1
f 9/4/1 8/4/1 7/4/1
f 10/4/1 8/4/1 9/4/1
f 11/3/1 10/3/1 9/3/1
f 12/3/1 10/3/1 11/3/1
f 13/2/1 12/2/1 11/2/1
f 14/2/1 13/2/1 11/2/1
f 15/2/1 14/2/1 11/2/1
f 16/2/1 14/2/1 15/2/1
f 17/3/1 16/3/1 15/3/1
f 18/3/1 16/3/1 17/3/1
f 19/4/1 18/4/1 17/4/1
f 20/4/1 18/4/1 19/4/1
f 21/5/1 20/5/1 19/5/1
f 22/5/1 20/5/1 21/5/1
f 25/4/1 24/4/1 23/4/1
f 26/4/1 24/4/1 25/4/1
f 27/3/1 26/3/1 25/3/1
f 28/3/1 27/3/1 25/3/1
f 29/3/1 27/3/1 28/3/1
f 30/2/1 29/2/1 28/2/1
f 31/2/1 30/2/1 28/2/1
f 32/2/1 30/2/1 31/2/1
f 33/3/1 32/3/1 31/3/1
f 34/3/1 33/3/1 31/3/1
f 35/3/1 34/3/1 31/3/1
f 36/3/1 34/3/1 35/3/1
f 37/4/1 36/4/1 35/4/1
f 38/4/1 36/4/1 37/4/1
f 41/4/1 40/4/1 39/4/1
f 42/4/1 41/4/1 39/4/1
f 43/4/1 41/4/1 42/4/1
f 44/3/1 43/3/1 42/3/1
f 45/3/1 43/3/1 44/3/1
f 46/2/1 45/2/1 44/2/1
f 47/2/1 45/2/1 46/2/1
f 48/3/1 47/3/1 46/3/1
f 49/3/1 47/3/1 48/3/1
f 52/4/1 51/4/1 50/4/1
f 53/4/1 52/4/1 50/4/1
f 54/4/1 52/4/1 53/4/1
f 55/3/1 54/3/1 53/3/1
f 56/3/1 54/3/1 55/3/1
f 57/2/1 56/2/1 55/2/1
f 58/2/1 56/2/1 57/2/1
f 59/3/1 58/3/1 57/3/1
f 60/3/1 59/3/1 57/3/1
f 61/3/1 59/3/1 60/3/1
f 64/3/1 63/3/1 62/3/1
f 65/3/1 63/3/1 64/3/1
f 66/2/1 65/2/1 64/2/1
f 67/2/1 66/2/1 64/2/1
f 68/2/1 66/2/1 67/2/1
f 69/3/1 68/3/1 67/3/1
f 70/3/1 69/3/1 67/3/1
f 71/3/1 69/3/1 70/3/1
f 72/4/1 71/4/1 70/4/1
f 73/4/1 71/4/1 72/4/1
f 74/3/1 73/3/1 72/3/1
f 75/3/1 73/3/1 74/3/1
f 76/4/1 75/4/1 74/4/1
f 77/4/1 75/4/1 76/4/1
f 78/3/1 77/3/1 76/3/1
f 79/3/1 78/3/1 76/3/1
f 80/3/1 78/3/1 79/3/1
f 83/4/1 82/4/1 81/4/1
f 84/4/1 82/4/1 83/4/1
f 85/3/1 84/3/1 83/3/1
f 86/3/1 85/3/1 83/3/1
f 87/3/1 85/3/1 86/3/1
f 88/2/1 87/2/1 86/2/1
f 89/2/1 87/2/1 88/2/1
f 90/3/1 89/3/1 88/3/1
f 91/3/1 89/3/1 90/3/1
f 92/4/1 91/4/1 90/4/1
f 93/4/1 91/4/1 92/4/1
f 96/4/1 95/4/1 94/4/1
f 97/4/1 95/4/1 96/4/1
f 98/1/1 97/1/1 96/1/1
f 99/1/1 98/1/1 96/1/1
f 100/1/1 99/1/1 96/1/1
f 101/1/1 99/1/1 100/1/1
f 104/3/1 103/3/1 102/3/1
f 105/3/1 103/3/1 104/3/1
f 106/2/1 105/2/1 104/2/1
f 107/2/1 106/2/1 104/2/1
f 108/2/1 106/2/1 107/2/1
f 109/3/1 108/3/1 107/3/1
f 110/3/1 108/3/1 109/3/1
f 113/2/1 112/2/1 111/2/1
f 114/2/1 113/2/1 111/2/1
f 115/2/1 114/2/1 111/2/1
f 116/2/1 114/2/1 115/2/1
f 117/3/1 116/3/1 115/3/1
f 118/3/1 116/3/1 117/3/1
f 121/3/1 120/3/1 119/3/1
f 122/3/1 120/3/1 121/3/1
f 123/4/1 122/4/1 121/4/1
f 124/4/1 122/4/1 123/4/1
f 125/3/1 124/3/1 123/3/1
f 126/3/1 124/3/1 125/3/1
f 127/4/1 126/4/1 125/4/1
f 128/4/1 126/4/1 127/4/1
f 129/2/1 128/2/1 127/2/1
f 130/2/1 128/2/1 129/2/1
f 131/3/1 130/3/1 129/3/1
f 132/3/1 131/3/1 129/3/1
f 133/3/1 131/3/1 132/3/1
f 136/3/1 135/3/1 134/3/1
f 137/3/1 135/3/1 136/3/1
f 138/2/1 137/2/1 136/2/1
f 139/2/1 138/2/1 136/2/1
f 140/2/1 138/2/1 139/2/1
f 141/3/1 140/3/1 139/3/1
f 142/3/1 140/3/1 141/3/1
f 145/3/1 144/3/1 143/3/1
f 146/3/1 144/3/1 145/3/1
f 147/4/1 146/4/1 145/4/1
f 148/4/1 146/4/1 147/4/1
f 149/3/1 148/3/1 147/3/1
f 150/3/1 148/3/1 149/3/1
f 151/4/1 150/4/1 149/4/1
f 152/4/1 150/4/1 151/4/1
f 153/3/1 152/3/1 151/3/1
f 154/3/1 152/3/1 153/3/1
f 155/2/1 154/2/1 153/2/1
f 156/2/1 155/2/1 153/2/1
f 157/2/1 155/2/1 156/2/1
f 158/3/1 157/3/1 156/3/1
f 159/3/1 158/3/1 156/3/1
f 160/3/1 158/3/1 159/3/1
f 163/4/1 162/4/1 161/4/1
f 164/4/1 163/4/1 161/4/1
f 165/4/1 163/4/1 164/4/1
f 166/3/1 165/3/1 164/3/1
f 167/3/1 165/3/1 166/3/1
f 168/2/1 167/2/1 166/2/1
f 169/2/1 167/2/1 168/2/1
f 170/3/1 169/3/1 168/3/1
f 171/3/1 169/3/1 170/3/1
f 174/4/1 173/4/1 172/4/1
f 175/4/1 173/4/1 174/4/1
f 176/1/1 175/1/1 174/1/1
f 177/1/1 176/1/1 174/1/1
f 178/1/1 176/1/1 177/1/1
f 181/3/1 180/3/1 179/3/1
f 182/3/1 181/3/1 179/3/1
f 183/3/1 181/3/1 182/3/1
f 184/2/1 183/2/1 182/2/1
f 185/2/1 183/2/1 184/2/1
f 186/3/1 185/3/1 184/3/1
f 187/3/1 185/3/1 186/3/1
f 190/2/1 189/2/1 188/2/1
f 191/2/1 189/2/1 190/2/1
f 192/3/1 191/3/1 190/3/1
f 193/3/1 191/3/1 192/3/1
f 194/2/1 193/2/1 192/2/1
f 195/2/1 193/2/1 194/2/1
f 196/3/1 195/3/1 194/3/1
f 197/3/1 195/3/1 196/3/1
f 200/2/1 199/2/1 198/2/1
f 201/2/1 200/2/1 198/2/1
f 202/2/1 200/2/1 201/2/1
f 203/4/1 202/4/1 201/4/1
f 204/4/1 202/4/1 203/4/1
f 205/3/1 204/3/1 203/3/1
f 206/3/1 204/3/1 205/3/1
f 209/2/1 208/2/1 207/2/1
f 210/2/1 208/2/1 209/2/1
f 211/3/1 210/3/1 209/3/1
f 212/3/1 210/3/1 211/3/1
f 213/5/1 212/5/1 211/5/1
f 214/5/1 212/5/1 213/5/1
f 215/3/1 214/3/1 213/3/1
f 216/3/1 215/3/1 213/3/1
f 217/3/1 215/3/1 216/3/1
f 218/4/1 217/4/1 216/4/1
f 219/4/1 217/4/1 218/4/1
f 220/3/1 219/3/1 218/3/1
f 221/3/1 219/3/1 220/3/1
f 224/3/1 223/3/1 222/3/1
f 225/3/1 223/3/1 224/3/1
f 226/2/1 225/2/1 224/2/1
f 227/2/1 226/2/1 224/2/1
f 228/2/1 226/2/1 227/2/1
f 229/3/1 228/3/1 227/3/1
f 230/3/1 228/3/1 229/3/1
f 233/3/1 232/3/1 231/3/1
f 234/3/1 233/3/1 231/3/1
f 235/3/1 233/3/1 234/3/1
f 236/2/1 235/2/1 234/2/1
f 237/2/1 235/2/1 236/2/1
f 238/3/1 237/3/1 236/3/1
f 239/3/1 237/3/1 238/3/1
f 242/2/1 241/2/1 240/2/1
f 243/2/1 242/2/1 240/2/1
f 244/2/1 243/2/1 240/2/1
f 245/2/1 243/2/1 244/2/1
f 246/3/1 245/3/1 244/3/1
f 247/3/1 246/3/1 244/3/1
f 248/3/1 246/3/1 247/3/1
f 251/2/1 250/2/1 249/2/1
f 252/2/1 250/2/1 251/2/1
f 255/2/1 254/2/1 253/2/1
f 256/2/1 255/2/1 253/2/1
f 257/2/1 256/2/1 253/2/1
f 258/2/1 257/2/1 253/2/1
f 259/2/1 258/2/1 253/2/1
f 260/2/1 258/2/1 259/2/1
f 263/2/1 262/2/1 261/2/1
f 264/2/1 262/2/1 263/2/1
f 267/3/1 266/3/1 265/3/1
f 268/3/1 266/3/1 267/3/1
f 269/2/1 268/2/1 267/2/1
f 270/2/1 268/2/1 269/2/1
f 273/3/1 272/3/1 271/3/1
f 274/3/1 272/3/1 273/3/1
f 275/2/1 274/2/1 273/2/1
f 276/2/1 274/2/1 275/2/1
f 277/3/1 276/3/1 275/3/1
f 278/3/1 277/3/1 275/3/1
f 279/3/1 277/3/1 278/3/1
f 282/3/1 281/3/1 280/3/1
f 283/3/1 282/3/1 280/3/1
f 284/3/1 282/3/1 283/3/1
f 285/2/1 284/2/1 283/2/1
f 286/2/1 284/2/1 285/2/1
f 287/3/1 286/3/1 285/3/1
f 288/3/1 287/3/1 285/3/1
f 289/3/1 288/3/1 285/3/1
f 290/3/1 288/3/1 289/3/1
f 291/4/2 292/4/2 293/4/2
f 293/4/2 292/4/2 294/4/2
f 293/3/2 294/3/2 295/3/2
f 295/3/2 294/3/2 296/3/2
f 295/2/2 296/2/2 297/2/2
f 295/2/2 297/2/2 298/2/2
f 295/2/2 298/2/2 299/2/2
f 295/2/2 299/2/2 300/2/2
f 300/2/2 299/2/2 301/2/2
f 300/4/2 301/4/2 302/4/2
f 302/4/2 301/4/2 303/4/2
f 304/3/2 305/3/2 306/3/2
f 306/3/2 305/3/2 307/3/2
f 306/4/2 307/4/2 308/4/2
f 308/4/2 307/4/2 309/4/2
f 308/3/2 309/3/2 310/3/2
f 310/3/2 309/3/2 311/3/2
f 310/2/2 311/2/2 312/2/2
f 312/2/2 311/2/2 313/2/2
f 312/3/2 313/3/2 314/3/2
f 314/3/2 313/3/2 315/3/2
f 314/5/2 315/5/2 316/5/2
f 316/5/2 315/5/2 317/5/2
f 316/4/2 317/4/2 318/4/2
f 318/4/2 317/4/2 319/4/2
f 320/3/2 321/3/2 322/3/2
f 322/3/2 321/3/2 323/3/2
f 322/4/2 323/4/2 324/4/2
f 324/4/2 323/4/2 325/4/2
f 324/2/2 325/2/2 326/2/2
f 326/2/2 325/2/2 327/2/2
f 326/3/2 327/3/2 328/3/2
f 328/3/2 327/3/2 329/3/2
f 328/4/2 329/4/2 330/4/2
f 330/4/2 329/4/2 331/4/2
f 332/3/2 333/3/2 334/3/2
f 332/3/2 334/3/2 335/3/2
f 335/3/2 334/3/2 336/3/2
f 335/2/2 336/2/2 337/2/2
f 337/2/2 336/2/2 338/2/2
f 337/3/2 338/3/2 339/3/2
f 339/3/2 338/3/2 340/3/2
f 339/2/2 340/2/2 341/2/2
f 341/2/2 340/2/2 342/2/2
f 341/3/2 342/3/2 343/3/2
f 343/3/2 342/3/2 344/3/2
f 345/4/2 346/4/2 347/4/2
f 347/4/2 346/4/2 348/4/2
f 347/3/2 348/3/2 349/3/2
f 349/3/2 348/3/2 350/3/2
f 349/2/2 350/2/2 351/2/2
f 349/2/2 351/2/2 352/2/2
f 352/2/2 351/2/2 353/2/2
f 352/3/2 353/3/2 354/3/2
f 352/3/2 354/3/2 355/3/2
f 352/3/2 355/3/2 356/3/2
f 356/3/2 355/3/2 357/3/2
f 356/2/2 357/2/2 358/2/2
f 358/2/2 357/2/2 359/2/2
f 358/3/2 359/3/2 360/3/2
f 360/3/2 359/3/2 361/3/2
f 362/3/2 363/3/2 364/3/2
f 364/3/2 363/3/2 365/3/2
f 364/4/2 365/4/2 366/4/2
f 366/4/2 365/4/2 367/4/2
f 366/2/2 367/2/2 368/2/2
f 368/2/2 367/2/2 369/2/2
f 368/3/2 369/3/2 370/3/2
f 370/3/2 369/3/2 371/3/2
f 370/5/2 371/5/2 372/5/2
f 372/5/2 371/5/2 373/5/2
f 372/3/2 373/3/2 374/3/2
f 372/3/2 374/3/2 375/3/2
f 375/3/2 374/3/2 376/3/2
f 377/3/2 378/3/2 379/3/2
f 379/3/2 378/3/2 380/3/2
f 379/4/2 380/4/2 381/4/2
f 381/4/2 380/4/2 382/4/2
f 381/3/2 382/3/2 383/3/2
f 383/3/2 382/3/2 384/3/2
f 383/4/2 384/4/2 385/4/2
f 385/4/2 384/4/2 386/4/2
f 385/3/2 386/3/2 387/3/2
f 387/3/2 386/3/2 388/3/2
f 387/2/2 388/2/2 389/2/2
f 389/2/2 388/2/2 390/2/2
f 389/4/2 390/4/2 391/4/2
f 391/4/2 390/4/2 392/4/2
f 391/3/2 392/3/2 393/3/2
f 393/3/2 392/3/2 394/3/2
f 395/2/2 396/2/2 397/2/2
f 397/2/2 396/2/2 398/2/2
f 397/3/2 398/3/2 399/3/2
f 399/3/2 398/3/2 400/3/2
f 399/2/2 400/2/2 401/2/2
f 401/2/2 400/2/2 402/2/2
f 401/3/2 402/3/2 403/3/2
f 403/3/2 402/3/2 404/3/2
f 403/2/2 404/2/2 405/2/2
f 403/2/2 405/2/2 406/2/2
f 406/2/2 405/2/2 407/2/2
f 406/3/2 407/3/2 408/3/2
f 408/3/2 407/3/2 409/3/2
f 410/4/2 411/4/2 412/4/2
f 412/4/2 411/4/2 413/4/2
f 412/3/2 413/3/2 414/3/2
f 414/3/2 413/3/2 415/3/2
f 414/2/2 415/2/2 416/2/2
f 416/2/2 415/2/2 417/2/2
f 416/3/2 417/3/2 418/3/2
f 418/3/2 417/3/2 419/3/2
f 420/2/2 421/2/2 422/2/2
f 422/2/2 421/2/2 423/2/2
f 422/3/2 423/3/2 424/3/2
f 424/3/2 423/3/2 425/3/2
f 426/3/2 427/3/2 428/3/2
f 428/3/2 427/3/2 429/3/2
f 428/2/2 429/2/2 430/2/2
f 428/2/2 430/2/2 431/2/2
f 431/2/2 430/2/2 432/2/2
f 431/3/2 432/3/2 433/3/2
f 433/3/2 432/3/2 434/3/2
f 435/3/2 436/3/2 437/3/2
f 437/3/2 436/3/2 438/3/2
f 437/2/2 438/2/2 439/2/2
f 437/2/2 439/2/2 440/2/2
f 437/2/2 440/2/2 441/2/2
f 441/2/2 440/2/2 442/2/2
f 441/3/2 442/3/2 443/3/2
f 443/3/2 442/3/2 444/3/2
f 445/3/2 446/3/2 447/3/2
f 447/3/2 446/3/2 448/3/2
f 447/4/2 448/4/2 449/4/2
f 449/4/2 448/4/2 450/4/2
f 449/3/2 450/3/2 451/3/2
f 451/3/2 450/3/2 452/3/2
f 451/2/2 452/2/2 453/2/2
f 453/2/2 452/2/2 454/2/2
f 453/3/2 454/3/2 455/3/2
f 453/3/2 455/3/2 456/3/2
f 456/3/2 455/3/2 457/3/2
f 458/4/2 459/4/2 460/4/2
f 460/4/2 459/4/2 461/4/2
f 460/3/2 461/3/2 462/3/2
f 460/3/2 462/3/2 463/3/2
f 463/3/2 462/3/2 464/3/2
f 463/2/2 464/2/2 465/2/2
f 465/2/2 464/2/2 466/2/2
f 465/3/2 466/3/2 467/3/2
f 467/3/2 466/3/2 468/3/2
f 469/1/2 470/1/2 471/1/2
f 469/1/2 471/1/2 472/1/2
f 472/1/2 471/1/2 473/1/2
f 474/3/2 475/3/2 476/3/2
f 474/3/2 476/3/2 477/3/2
f 477/3/2 476/3/2 478/3/2
f 477/2/2 478/2/2 479/2/2
f 479/2/2 478/2/2 480/2/2
f 479/3/2 480/3/2 481/3/2
f 481/3/2 480/3/2 482/3/2
f 483/2/2 484/2/2 485/2/2
f 485/2/2 484/2/2 486/2/2
f 485/3/2 486/3/2 487/3/2
f 485/3/2 487/3/2 488/3/2
f 488/3/2 487/3/2 489/3/2
f 490/2/2 491/2/2 492/2/2
f 492/2/2 491/2/2 493/2/2
f 492/3/2 493/3/2 494/3/2
f 492/3/2 494/3/2 495/3/2
f 492/3/2 495/3/2 496/3/2
f 496/3/2 495/3/2 497/3/2
f 496/4/2 497/4/2 498/4/2
f 498/4/2 497/4/2 499/4/2
f 500/2/2 501/2/2 502/2/2
f 502/2/2 501/2/2 503/2/2
f 502/3/2 503/3/2 504/3/2
f 504/3/2 503/3/2 505/3/2
f 504/2/2 505/2/2 506/2/2
f 506/2/2 505/2/2 507/2/2
f 506/3/2 507/3/2 508/3/2
f 506/3/2 508/3/2 509/3/2
f 509/3/2 508/3/2 510/3/2
f 509/4/2 510/4/2 511/4/2
f 511/4/2 510/4/2 512/4/2
f 513/3/2 514/3/2 515/3/2
f 515/3/2 514/3/2 516/3/2
f 515/2/2 516/2/2 517/2/2
f 515/2/2 517/2/2 518/2/2
f 518/2/2 517/2/2 519/2/2
f 518/3/2 519/3/2 520/3/2
f 520/3/2 519/3/2 521/3/2
f 520/2/2 521/2/2 522/2/2
f 522/2/2 521/2/2 523/2/2
f 522/3/2 523/3/2 524/3/2
f 524/3/2 523/3/2 525/3/2
f 526/3/2 527/3/2 528/3/2
f 528/3/2 527/3/2 529/3/2
f 528/2/2 529/2/2 530/2/2
f 530/2/2 529/2/2 531/2/2
f 530/3/2 531/3/2 532/3/2
f 532/3/2 531/3/2 533/3/2
f 534/2/2 535/2/2 536/2/2
f 536/2/2 535/2/2 537/2/2
f 538/2/2 539/2/2 540/2/2
f 538/2/2 540/2/2 541/2/2
f 541/2/2 540/2/2 542/2/2
f 541/3/2 542/3/2 543/3/2
f 543/3/2 542/3/2 544/3/2
f 545/2/2 546/2/2 547/2/2
f 547/2/2 546/2/2 548/2/2
f 549/2/2 550/2/2 551/2/2
f 551/2/2 550/2/2 552/2/2
f 553/3/2 554/3/2 555/3/2
f 555/3/2 554/3/2 556/3/2
f 555/2/2 556/2/2 557/2/2
f 557/2/2 556/2/2 558/2/2
f 557/3/2 558/3/2 559/3/2
f 559/3/2 558/3/2 560/3/2
f 561/3/2 562/3/2 563/3/2
f 563/3/2 562/3/2 564/3/2
f 563/2/2 564/2/2 565/2/2
f 565/2/2 564/2/2 566/2/2
f 565/3/2 566/3/2 567/3/2
f 567/3/2 566/3/2 568/3/2
f 569/1/2 570/1/2 571/1/2
f 571/1/2 570/1/2 572/1/2
f 569/1/2 571/1/2 573/1/2
f 571/3/2 572/3/2 573/3/2
f 573/3/2 572/3/2 574/3/2
f 569/1/2 573/1/2 575/1/2
f 573/1/2 574/1/2 575/1/2
f 575/1/2 574/1/2 576/1/2
f 579/1/3 578/1/3 577/1/3
f 580/1/3 578/1/3 579/1/3
f 581/1/3 579/1/3 577/1/3
f 582/1/3 579/1/3 581/1/3
f 583/1/3 579/1/3 582/1/3
f 584/1/3 579/1/3 583/1/3
f 585/1/3 579/1/3 584/1/3
f 586/1/3 579/1/3 585/1/3
f 587/1/3 579/1/3 586/1/3
f 588/1/3 579/1/3 587/1/3
f 589/1/3 579/1/3 588/1/3
f 590/1/3 579/1/3 589/1/3
f 591/1/3 579/1/3 590/1/3
f 592/1/3 579/1/3 591/1/3
f 593/3/3 580/3/3 579/3/3
f 593/1/3 579/1/3 592/1/3
f 594/1/3 581/1/3 577/1/3
f 594/3/3 582/3/3 581/3/3
f 595/4/3 583/4/3 582/4/3
f 595/3/3 582/3/3 594/3/3
f 596/3/3 584/3/3 583/3/3
f 596/4/3 583/4/3 595/4/3
f 597/4/3 585/4/3 584/4/3
f 597/3/3 584/3/3 596/3/3
f 598/3/3 586/3/3 585/3/3
f 598/4/3 585/4/3 597/4/3
f 599/4/3 587/4/3 586/4/3
f 599/3/3 586/3/3 598/3/3
f 600/3/3 588/3/3 587/3/3
f 600/4/3 587/4/3 599/4/3
f 601/2/3 589/2/3 588/2/3
f 601/3/3 588/3/3 600/3/3
f 602/3/3 590/3/3 589/3/3
f 602/2/3 589/2/3 601/2/3
f 603/4/3 591/4/3 590/4/3
f 603/3/3 590/3/3 602/3/3
f 604/3/3 592/3/3 591/3/3
f 604/4/3 591/4/3 603/4/3
f 605/3/3 592/3/3 604/3/3
f 606/4/3 593/4/3 592/4/3
f 606/3/3 592/3/3 605/3/3
f 607/3/3 580/3/3 593/3/3
f 608/3/3 580/3/3 607/3/3
f 609/1/3 594/1/3 577/1/3
f 610/4/3 595/4/3 594/4/3
f 610/1/3 594/1/3 609/1/3
f 611/3/3 596/3/3 595/3/3
f 611/4/3 595/4/3 610/4/3
f 612/2/3 603/2/3 602/2/3
f 612/3/3 596/3/3 611/3/3
f 612/2/3 605/2/3 604/2/3
f 612/2/3 597/2/3 596/2/3
f 612/2/3 598/2/3 597/2/3
f 612/2/3 599/2/3 598/2/3
f 612/2/3 604/2/3 603/2/3
f 612/2/3 602/2/3 601/2/3
f 612/2/3 601/2/3 600/2/3
f 612/2/3 600/2/3 599/2/3
f 613/4/3 606/4/3 605/4/3
f 613/2/3 605/2/3 612/2/3
f 614/4/3 593/4/3 606/4/3
f 614/4/3 606/4/3 613/4/3
f 614/3/3 607/3/3 593/3/3
f 615/1/3 608/1/3 607/1/3
f 615/3/3 607/3/3 614/3/3
f 616/3/3 610/3/3 609/3/3
f 616/1/3 609/1/3 577/1/3
f 617/3/3 610/3/3 616/3/3
f 618/1/3 616/1/3 577/1/3
f 618/4/3 617/4/3 616/4/3
f 619/4/3 617/4/3 618/4/3
f 626/1/3 615/1/3 614/1/3
f 627/1/3 608/1/3 615/1/3
f 627/1/3 615/1/3 626/1/3
f 628/1/3 608/1/3 627/1/3
f 629/4/3 625/4/3 624/4/3
f 629/3/3 624/3/3 623/3/3
f 630/5/3 626/5/3 625/5/3
f 630/4/3 625/4/3 629/4/3
f 631/1/3 627/1/3 626/1/3
f 631/5/3 626/5/3 630/5/3
f 632/3/3 628/3/3 627/3/3
f 632/1/3 627/1/3 631/1/3
f 633/1/3 619/1/3 618/1/3
f 633/3/3 620/3/3 619/3/3
f 634/4/3 621/4/3 620/4/3
f 634/3/3 620/3/3 633/3/3
f 635/3/3 622/3/3 621/3/3
f 635/4/3 621/4/3 634/4/3
f 636/2/3 623/2/3 622/2/3
f 636/3/3 622/3/3 635/3/3
f 637/3/3 629/3/3 623/3/3
f 637/2/3 623/2/3 636/2/3
f 638/5/3 630/5/3 629/5/3
f 638/3/3 629/3/3 637/3/3
f 639/4/3 631/4/3 630/4/3
f 639/5/3 630/5/3 638/5/3
f 640/3/3 632/3/3 631/3/3
f 640/4/3 631/4/3 639/4/3
f 641/3/3 628/3/3 632/3/3
f 641/3/3 632/3/3 640/3/3
f 642/1/3 633/1/3 618/1/3
f 647/1/3 641/1/3 640/1/3
f 648/1/3 642/1/3 618/1/3
f 648/4/3 643/4/3 642/4/3
f 649/3/3 644/3/3 643/3/3
f 649/4/3 643/4/3 648/4/3
f 650/3/3 644/3/3 649/3/3
f 651/2/3 645/2/3 644/2/3
f 651/3/3 644/3/3 650/3/3
f 652/3/3 646/3/3 645/3/3
f 652/2/3 645/2/3 651/2/3
f 653/3/3 646/3/3 652/3/3
f 654/1/3 648/1/3 618/1/3
f 654/3/3 650/3/3 649/3/3
f 654/3/3 649/3/3 648/3/3
f 655/4/3 651/4/3 650/4/3
f 655/3/3 650/3/3 654/3/3
f 656/2/3 653/2/3 652/2/3
f 656/4/3 651/4/3 655/4/3
f 656/2/3 652/2/3 651/2/3
f 657/3/3 646/3/3 653/3/3
f 657/2/3 653/2/3 656/2/3
f 658/4/3 647/4/3 646/4/3
f 658/3/3 646/3/3 657/3/3
f 659/1/3 641/1/3 647/1/3
f 659/4/3 647/4/3 658/4/3
f 660/1/3 654/1/3 618/1/3
f 664/1/3 641/1/3 659/1/3
f 665/1/3 660/1/3 618/1/3
f 665/4/3 661/4/3 660/4/3
f 666/3/3 662/3/3 661/3/3
f 666/4/3 661/4/3 665/4/3
f 667/2/3 663/2/3 662/2/3
f 668/2/3 663/2/3 667/2/3
f 669/1/3 618/1/3 577/1/3
f 669/1/3 665/1/3 618/1/3
f 670/3/3 666/3/3 665/3/3
f 670/1/3 665/1/3 669/1/3
f 671/3/3 662/3/3 666/3/3
f 671/3/3 666/3/3 670/3/3
f 671/2/3 667/2/3 662/2/3
f 672/3/3 668/3/3 667/3/3
f 672/2/3 667/2/3 671/2/3
f 673/2/3 663/2/3 668/2/3
f 673/3/3 668/3/3 672/3/3
f 674/3/3 664/3/3 663/3/3
f 674/2/3 663/2/3 673/2/3
f 675/1/3 641/1/3 664/1/3
f 675/3/3 664/3/3 674/3/3
f 676/3/3 670/3/3 669/3/3
f 676/1/3 669/1/3 577/1/3
f 677/3/3 670/3/3 676/3/3
f 681/1/3 641/1/3 675/1/3
f 682/1/3 641/1/3 681/1/3
f 683/4/3 678/4/3 677/4/3
f 684/3/3 679/3/3 678/3/3
f 684/4/3 678/4/3 683/4/3
f 685/2/3 680/2/3 679/2/3
f 685/3/3 679/3/3 684/3/3
f 686/2/3 680/2/3 685/2/3
f 687/3/3 681/3/3 680/3/3
f 687/2/3 680/2/3 686/2/3
f 687/3/3 682/3/3 681/3/3
f 688/3/3 682/3/3 687/3/3
f 689/1/3 676/1/3 577/1/3
f 689/1/3 677/1/3 676/1/3
f 690/4/3 683/4/3 677/4/3
f 690/1/3 677/1/3 689/1/3
f 691/3/3 684/3/3 683/3/3
f 691/4/3 683/4/3 690/4/3
f 692/2/3 686/2/3 685/2/3
f 692/3/3 684/3/3 691/3/3
f 692/2/3 685/2/3 684/2/3
f 693/3/3 687/3/3 686/3/3
f 693/2/3 686/2/3 692/2/3
f 694/2/3 688/2/3 687/2/3
f 694/3/3 687/3/3 693/3/3
f 695/3/3 682/3/3 688/3/3
f 695/2/3 688/2/3 694/2/3
f 696/3/3 682/3/3 695/3/3
f 697/3/3 690/3/3 689/3/3
f 697/1/3 689/1/3 577/1/3
f 698/3/3 690/3/3 697/3/3
f 705/3/3 682/3/3 696/3/3
f 706/3/3 699/3/3 698/3/3
f 707/2/3 700/2/3 699/2/3
f 707/3/3 699/3/3 706/3/3
f 708/3/3 701/3/3 700/3/3
f 708/2/3 700/2/3 707/2/3
f 709/3/3 701/3/3 708/3/3
f 710/4/3 702/4/3 701/4/3
f 710/3/3 701/3/3 709/3/3
f 711/3/3 703/3/3 702/3/3
f 711/4/3 702/4/3 710/4/3
f 712/4/3 704/4/3 703/4/3
f 712/3/3 703/3/3 711/3/3
f 713/3/3 705/3/3 704/3/3
f 713/4/3 704/4/3 712/4/3
f 714/1/3 697/1/3 577/1/3
f 714/1/3 698/1/3 697/1/3
f 715/3/3 706/3/3 698/3/3
f 715/1/3 698/1/3 714/1/3
f 716/4/3 707/4/3 706/4/3
f 716/3/3 706/3/3 715/3/3
f 717/2/3 709/2/3 708/2/3
f 717/4/3 707/4/3 716/4/3
f 717/2/3 708/2/3 707/2/3
f 718/3/3 711/3/3 710/3/3
f 718/2/3 709/2/3 717/2/3
f 718/3/3 710/3/3 709/3/3
f 719/5/3 712/5/3 711/5/3
f 719/3/3 711/3/3 718/3/3
f 720/3/3 713/3/3 712/3/3
f 720/5/3 712/5/3 719/5/3
f 721/3/3 705/3/3 713/3/3
f 721/3/3 713/3/3 720/3/3
f 721/3/3 682/3/3 705/3/3
f 722/3/3 715/3/3 714/3/3
f 722/1/3 714/1/3 577/1/3
f 723/3/3 715/3/3 722/3/3
f 724/1/3 723/1/3 722/1/3
f 729/3/3 682/3/3 721/3/3
f 730/1/3 641/1/3 682/1/3
f 730/3/3 682/3/3 729/3/3
f 731/1/3 724/1/3 722/1/3
f 731/4/3 725/4/3 724/4/3
f 732/3/3 726/3/3 725/3/3
f 732/4/3 725/4/3 731/4/3
f 733/3/3 726/3/3 732/3/3
f 734/2/3 727/2/3 726/2/3
f 734/3/3 726/3/3 733/3/3
f 735/2/3 727/2/3 734/2/3
f 736/2/3 727/2/3 735/2/3
f 737/3/3 728/3/3 727/3/3
f 737/2/3 727/2/3 736/2/3
f 738/4/3 729/4/3 728/4/3
f 738/3/3 728/3/3 737/3/3
f 739/1/3 730/1/3 729/1/3
f 739/4/3 729/4/3 738/4/3
f 740/1/3 731/1/3 722/1/3
f 740/3/3 732/3/3 731/3/3
f 741/4/3 733/4/3 732/4/3
f 741/3/3 732/3/3 740/3/3
f 742/3/3 734/3/3 733/3/3
f 742/4/3 733/4/3 741/4/3
f 743/4/3 735/4/3 734/4/3
f 743/3/3 734/3/3 742/3/3
f 744/3/3 736/3/3 735/3/3
f 744/4/3 735/4/3 743/4/3
f 745/2/3 737/2/3 736/2/3
f 745/3/3 736/3/3 744/3/3
f 746/4/3 738/4/3 737/4/3
f 746/2/3 737/2/3 745/2/3
f 747/3/3 739/3/3 738/3/3
f 747/4/3 738/4/3 746/4/3
f 748/1/3 730/1/3 739/1/3
f 748/3/3 739/3/3 747/3/3
f 749/1/3 740/1/3 722/1/3
f 751/1/3 730/1/3 748/1/3
f 752/4/3 750/4/3 749/4/3
f 752/1/3 749/1/3 722/1/3
f 753/1/3 751/1/3 750/1/3
f 753/4/3 750/4/3 752/4/3
f 754/1/3 752/1/3 722/1/3
f 754/1/3 753/1/3 752/1/3
f 755/1/3 751/1/3 753/1/3
f 755/1/3 753/1/3 754/1/3
f 756/1/3 751/1/3 755/1/3
f 757/1/3 751/1/3 756/1/3
f 758/1/3 751/1/3 757/1/3
f 759/1/3 751/1/3 758/1/3
f 760/1/3 730/1/3 751/1/3
f 760/1/3 751/1/3 759/1/3
f 761/1/3 754/1/3 722/1/3
f 761/2/3 755/2/3 754/2/3
f 762/3/3 756/3/3 755/3/3
f 762/2/3 755/2/3 761/2/3
f 763/2/3 757/2/3 756/2/3
f 763/3/3 756/3/3 762/3/3
f 764/3/3 758/3/3 757/3/3
f 764/2/3 757/2/3 763/2/3
f 765/2/3 759/2/3 758/2/3
f 765/3/3 758/3/3 764/3/3
f 766/3/3 760/3/3 759/3/3
f 766/2/3 759/2/3 765/2/3
f 767/1/3 730/1/3 760/1/3
f 767/3/3 760/3/3 766/3/3
f 768/1/3 761/1/3 722/1/3
f 771/1/3 730/1/3 767/1/3
f 772/1/3 768/1/3 722/1/3
f 772/3/3 769/3/3 768/3/3
f 773/2/3 770/2/3 769/2/3
f 773/3/3 769/3/3 772/3/3
f 774/2/3 770/2/3 773/2/3
f 775/1/3 772/1/3 722/1/3
f 775/4/3 773/4/3 772/4/3
f 776/3/3 774/3/3 773/3/3
f 776/4/3 773/4/3 775/4/3
f 777/2/3 770/2/3 774/2/3
f 777/3/3 774/3/3 776/3/3
f 778/3/3 771/3/3 770/3/3
f 778/2/3 770/2/3 777/2/3
f 779/1/3 730/1/3 771/1/3
f 779/3/3 771/3/3 778/3/3
f 780/1/3 775/1/3 722/1/3
f 782/1/3 730/1/3 779/1/3
f 783/2/3 781/2/3 780/2/3
f 783/1/3 780/1/3 722/1/3
f 784/3/3 782/3/3 781/3/3
f 784/2/3 781/2/3 783/2/3
f 785/1/3 730/1/3 782/1/3
f 785/3/3 782/3/3 784/3/3
f 786/1/3 783/1/3 722/1/3
f 792/1/3 730/1/3 785/1/3
f 793/3/3 787/3/3 786/3/3
f 793/4/3 788/4/3 787/4/3
f 794/3/3 789/3/3 788/3/3
f 794/4/3 788/4/3 793/4/3
f 795/4/3 790/4/3 789/4/3
f 795/3/3 789/3/3 794/3/3
f 796/2/3 791/2/3 790/2/3
f 796/4/3 790/4/3 795/4/3
f 797/3/3 792/3/3 791/3/3
f 797/2/3 791/2/3 796/2/3
f 798/3/3 792/3/3 797/3/3
f 799/1/3 786/1/3 722/1/3
f 799/3/3 793/3/3 786/3/3
f 800/2/3 795/2/3 794/2/3
f 800/3/3 793/3/3 799/3/3
f 800/2/3 796/2/3 795/2/3
f 800/2/3 797/2/3 796/2/3
f 800/2/3 798/2/3 797/2/3
f 800/2/3 794/2/3 793/2/3
f 801/3/3 792/3/3 798/3/3
f 801/2/3 798/2/3 800/2/3
f 802/1/3 730/1/3 792/1/3
f 802/3/3 792/3/3 801/3/3
f 803/1/3 799/1/3 722/1/3
f 806/1/3 730/1/3 802/1/3
f 807/2/3 805/2/3 804/2/3
f 807/3/3 806/3/3 805/3/3
f 808/3/3 806/3/3 807/3/3
f 809/1/3 803/1/3 722/1/3
f 809/3/3 804/3/3 803/3/3
f 810/2/3 808/2/3 807/2/3
f 810/3/3 804/3/3 809/3/3
f 810/2/3 807/2/3 804/2/3
f 811/3/3 806/3/3 808/3/3
f 811/2/3 808/2/3 810/2/3
f 812/1/3 730/1/3 806/1/3
f 812/3/3 806/3/3 811/3/3
f 813/1/3 722/1/3 577/1/3
f 813/1/3 809/1/3 722/1/3
f 814/1/3 809/1/3 813/1/3
f 815/1/3 730/1/3 812/1/3
f 816/1/3 641/1/3 730/1/3
f 816/1/3 730/1/3 815/1/3
f 817/3/3 814/3/3 813/3/3
f 824/3/3 816/3/3 815/3/3
f 825/1/3 813/1/3 577/1/3
f 825/3/3 817/3/3 813/3/3
f 825/3/3 818/3/3 817/3/3
f 826/3/3 818/3/3 825/3/3
f 827/3/3 820/3/3 819/3/3
f 827/4/3 821/4/3 820/4/3
f 828/3/3 822/3/3 821/3/3
f 828/4/3 821/4/3 827/4/3
f 829/2/3 823/2/3 822/2/3
f 829/3/3 822/3/3 828/3/3
f 830/2/3 823/2/3 829/2/3
f 831/3/3 824/3/3 823/3/3
f 831/2/3 823/2/3 830/2/3
f 832/3/3 818/3/3 826/3/3
f 832/1/3 826/1/3 825/1/3
f 833/4/3 819/4/3 818/4/3
f 833/3/3 818/3/3 832/3/3
f 834/3/3 827/3/3 819/3/3
f 834/4/3 819/4/3 833/4/3
f 835/2/3 830/2/3 829/2/3
f 835/3/3 827/3/3 834/3/3
f 835/2/3 828/2/3 827/2/3
f 835/2/3 829/2/3 828/2/3
f 836/3/3 831/3/3 830/3/3
f 836/2/3 830/2/3 835/2/3
f 837/3/3 816/3/3 824/3/3
f 837/3/3 831/3/3 836/3/3
f 837/3/3 824/3/3 831/3/3
f 838/1/3 641/1/3 816/1/3
f 838/3/3 816/3/3 837/3/3
f 839/1/3 832/1/3 825/1/3
f 843/1/3 838/1/3 837/1/3
f 844/4/3 840/4/3 839/4/3
f 844/3/3 841/3/3 840/3/3
f 845/2/3 842/2/3 841/2/3
f 845/3/3 841/3/3 844/3/3
f 846/2/3 842/2/3 845/2/3
f 847/4/3 844/4/3 839/4/3
f 847/1/3 839/1/3 825/1/3
f 847/4/3 845/4/3 844/4/3
f 848/3/3 846/3/3 845/3/3
f 848/4/3 845/4/3 847/4/3
f 849/2/3 842/2/3 846/2/3
f 849/3/3 846/3/3 848/3/3
f 850/3/3 843/3/3 842/3/3
f 850/2/3 842/2/3 849/2/3
f 851/1/3 838/1/3 843/1/3
f 851/3/3 843/3/3 850/3/3
f 852/1/3 847/1/3 825/1/3
f 854/1/3 838/1/3 851/1/3
f 855/4/3 853/4/3 852/4/3
f 855/1/3 852/1/3 825/1/3
f 856/1/3 854/1/3 853/1/3
f 856/4/3 853/4/3 855/4/3
f 857/1/3 855/1/3 825/1/3
f 857/1/3 856/1/3 855/1/3
f 858/1/3 854/1/3 856/1/3
f 858/1/3 856/1/3 857/1/3
f 858/1/3 838/1/3 854/1/3
f 859/1/3 857/1/3 825/1/3
f 862/1/3 838/1/3 858/1/3
f 863/3/3 860/3/3 859/3/3
f 864/2/3 861/2/3 860/2/3
f 864/3/3 860/3/3 863/3/3
f 865/2/3 861/2/3 864/2/3
f 866/3/3 862/3/3 861/3/3
f 866/2/3 861/2/3 865/2/3
f 867/1/3 825/1/3 577/1/3
f 867/1/3 859/1/3 825/1/3
f 868/3/3 863/3/3 859/3/3
f 868/1/3 859/1/3 867/1/3
f 869/2/3 865/2/3 864/2/3
f 869/3/3 863/3/3 868/3/3
f 869/2/3 864/2/3 863/2/3
f 870/3/3 866/3/3 865/3/3
f 870/2/3 865/2/3 869/2/3
f 871/3/3 862/3/3 866/3/3
f 871/3/3 866/3/3 870/3/3
f 871/1/3 838/1/3 862/1/3
f 872/1/3 867/1/3 577/1/3
f 872/3/3 868/3/3 867/3/3
f 873/3/3 868/3/3 872/3/3
f 874/1/3 873/1/3 872/1/3
f 878/1/3 838/1/3 871/1/3
f 879/2/3 875/2/3 874/2/3
f 879/3/3 876/3/3 875/3/3
f 880/2/3 877/2/3 876/2/3
f 880/3/3 876/3/3 879/3/3
f 881/3/3 878/3/3 877/3/3
f 881/2/3 877/2/3 880/2/3
f 882/2/3 879/2/3 874/2/3
f 882/1/3 874/1/3 872/1/3
f 882/2/3 880/2/3 879/2/3
f 883/3/3 881/3/3 880/3/3
f 883/2/3 880/2/3 882/2/3
f 884/3/3 878/3/3 881/3/3
f 884/3/3 881/3/3 883/3/3
f 884/1/3 838/1/3 878/1/3
f 885/1/3 882/1/3 872/1/3
f 888/1/3 838/1/3 884/1/3
f 889/2/3 886/2/3 885/2/3
f 890/4/3 887/4/3 886/4/3
f 890/2/3 886/2/3 889/2/3
f 891/3/3 888/3/3 887/3/3
f 891/4/3 887/4/3 890/4/3
f 892/3/3 888/3/3 891/3/3
f 893/1/3 838/1/3 888/1/3
f 893/3/3 888/3/3 892/3/3
f 894/2/3 889/2/3 885/2/3
f 894/1/3 885/1/3 872/1/3
f 895/3/3 890/3/3 889/3/3
f 895/2/3 889/2/3 894/2/3
f 895/3/3 892/3/3 891/3/3
f 895/3/3 891/3/3 890/3/3
f 896/4/3 893/4/3 892/4/3
f 896/3/3 892/3/3 895/3/3
f 897/1/3 838/1/3 893/1/3
f 897/4/3 893/4/3 896/4/3
f 898/1/3 894/1/3 872/1/3
f 904/1/3 838/1/3 897/1/3
f 905/2/3 899/2/3 898/2/3
f 906/3/3 900/3/3 899/3/3
f 906/2/3 899/2/3 905/2/3
f 907/3/3 900/3/3 906/3/3
f 908/5/3 901/5/3 900/5/3
f 908/3/3 900/3/3 907/3/3
f 909/3/3 902/3/3 901/3/3
f 909/5/3 901/5/3 908/5/3
f 910/3/3 902/3/3 909/3/3
f 911/4/3 903/4/3 902/4/3
f 911/3/3 902/3/3 910/3/3
f 912/3/3 904/3/3 903/3/3
f 912/4/3 903/4/3 911/4/3
f 913/1/3 838/1/3 904/1/3
f 913/3/3 904/3/3 912/3/3
f 914/1/3 898/1/3 872/1/3
f 914/2/3 905/2/3 898/2/3
f 915/3/3 907/3/3 906/3/3
f 915/2/3 905/2/3 914/2/3
f 915/3/3 906/3/3 905/3/3
f 916/2/3 910/2/3 909/2/3
f 916/3/3 907/3/3 915/3/3
f 916/2/3 908/2/3 907/2/3
f 916/2/3 909/2/3 908/2/3
f 917/3/3 911/3/3 910/3/3
f 917/2/3 910/2/3 916/2/3
f 917/3/3 912/3/3 911/3/3
f 918/4/3 913/4/3 912/4/3
f 918/3/3 912/3/3 917/3/3
f 919/1/3 838/1/3 913/1/3
f 919/4/3 913/4/3 918/4/3
f 920/1/3 914/1/3 872/1/3
f 923/1/3 838/1/3 919/1/3
f 924/3/3 923/3/3 922/3/3
f 925/3/3 923/3/3 924/3/3
f 926/1/3 920/1/3 872/1/3
f 926/3/3 921/3/3 920/3/3
f 927/2/3 922/2/3 921/2/3
f 927/3/3 921/3/3 926/3/3
f 928/3/3 924/3/3 922/3/3
f 928/2/3 922/2/3 927/2/3
f 929/2/3 925/2/3 924/2/3
f 929/3/3 924/3/3 928/3/3
f 930/3/3 923/3/3 925/3/3
f 930/2/3 925/2/3 929/2/3
f 931/1/3 838/1/3 923/1/3
f 931/3/3 923/3/3 930/3/3
f 932/1/3 926/1/3 872/1/3
f 935/1/3 838/1/3 931/1/3
f 936/2/3 934/2/3 933/2/3
f 936/3/3 935/3/3 934/3/3
f 937/3/3 935/3/3 936/3/3
f 938/1/3 932/1/3 872/1/3
f 938/3/3 933/3/3 932/3/3
f 939/2/3 937/2/3 936/2/3
f 939/3/3 933/3/3 938/3/3
f 939/2/3 936/2/3 933/2/3
f 940/3/3 935/3/3 937/3/3
f 940/2/3 937/2/3 939/2/3
f 941/1/3 838/1/3 935/1/3
f 941/3/3 935/3/3 940/3/3
f 942/1/3 938/1/3 872/1/3
f 944/1/3 838/1/3 941/1/3
f 945/2/3 943/2/3 942/2/3
f 945/3/3 944/3/3 943/3/3
f 946/3/3 944/3/3 945/3/3
f 947/1/3 942/1/3 872/1/3
f 947/2/3 945/2/3 942/2/3
f 947/2/3 946/2/3 945/2/3
f 948/2/3 946/2/3 947/2/3
f 949/3/3 944/3/3 946/3/3
f 949/2/3 946/2/3 948/2/3
f 950/1/3 838/1/3 944/1/3
f 950/3/3 944/3/3 949/3/3
f 951/4/3 948/4/3 947/4/3
f 951/1/3 947/1/3 872/1/3
f 952/1/3 949/1/3 948/1/3
f 952/4/3 948/4/3 951/4/3
f 952/1/3 950/1/3 949/1/3
f 953/1/3 951/1/3 872/1/3
f 953/1/3 952/1/3 951/1/3
f 954/1/3 950/1/3 952/1/3
f 954/1/3 952/1/3 953/1/3
f 954/1/3 838/1/3 950/1/3
f 955/1/3 953/1/3 872/1/3
f 955/2/3 954/2/3 953/2/3
f 956/1/3 838/1/3 954/1/3
f 956/2/3 954/2/3 955/2/3
f 957/1/3 955/1/3 872/1/3
f 958/1/3 838/1/3 956/1/3
f 959/2/3 958/2/3 957/2/3
f 960/1/3 838/1/3 958/1/3
f 960/2/3 958/2/3 959/2/3
f 961/1/3 957/1/3 872/1/3
f 961/2/3 959/2/3 957/2/3
f 962/3/3 960/3/3 959/3/3
f 962/2/3 959/2/3 961/2/3
f 963/1/3 838/1/3 960/1/3
f 963/3/3 960/3/3 962/3/3
f 964/1/3 961/1/3 872/1/3
f 965/1/3 838/1/3 963/1/3
f 966/1/3 964/1/3 872/1/3
f 966/2/3 965/2/3 964/2/3
f 967/1/3 838/1/3 965/1/3
f 967/2/3 965/2/3 966/2/3
f 968/1/3 966/1/3 872/1/3
f 969/1/3 838/1/3 967/1/3
f 970/1/3 968/1/3 872/1/3
f 970/2/3 969/2/3 968/2/3
f 971/1/3 838/1/3 969/1/3
f 971/2/3 969/2/3 970/2/3
f 972/1/3 970/1/3 872/1/3
f 974/1/3 838/1/3 971/1/3
f 975/2/3 974/2/3 973/2/3
f 976/1/3 838/1/3 974/1/3
f 976/2/3 974/2/3 975/2/3
f 977/3/3 973/3/3 972/3/3
f 977/1/3 972/1/3 872/1/3
f 978/2/3 975/2/3 973/2/3
f 978/3/3 973/3/3 977/3/3
f 979/3/3 976/3/3 975/3/3
f 979/2/3 975/2/3 978/2/3
f 980/1/3 838/1/3 976/1/3
f 980/3/3 976/3/3 979/3/3
f 981/1/3 977/1/3 872/1/3
f 984/1/3 838/1/3 980/1/3
f 985/2/3 983/2/3 982/2/3
f 985/3/3 982/3/3 981/3/3
f 986/2/3 983/2/3 985/2/3
f 987/3/3 984/3/3 983/3/3
f 987/2/3 983/2/3 986/2/3
f 988/3/3 984/3/3 987/3/3
f 989/3/3 986/3/3 985/3/3
f 989/1/3 981/1/3 872/1/3
f 989/3/3 985/3/3 981/3/3
f 990/2/3 988/2/3 987/2/3
f 990/3/3 986/3/3 989/3/3
f 990/2/3 987/2/3 986/2/3
f 991/3/3 984/3/3 988/3/3
f 991/2/3 988/2/3 990/2/3
f 992/1/3 838/1/3 984/1/3
f 992/3/3 984/3/3 991/3/3
f 993/1/3 989/1/3 872/1/3
f 996/1/3 838/1/3 992/1/3
f 997/2/3 995/2/3 994/2/3
f 997/3/3 994/3/3 993/3/3
f 998/2/3 995/2/3 997/2/3
f 999/2/3 995/2/3 998/2/3
f 1000/3/3 996/3/3 995/3/3
f 1000/2/3 995/2/3 999/2/3
f 1001/1/3 993/1/3 872/1/3
f 1001/3/3 997/3/3 993/3/3
f 1001/3/3 998/3/3 997/3/3
f 1002/3/3 998/3/3 1001/3/3
f 1003/3/3 998/3/3 1002/3/3
f 1004/2/3 999/2/3 998/2/3
f 1004/3/3 998/3/3 1003/3/3
f 1005/3/3 1000/3/3 999/3/3
f 1005/2/3 999/2/3 1004/2/3
f 1006/3/3 996/3/3 1000/3/3
f 1006/3/3 1000/3/3 1005/3/3
f 1006/1/3 838/1/3 996/1/3
f 1007/3/3 1003/3/3 1002/3/3
f 1007/1/3 1002/1/3 1001/1/3
f 1008/1/3 1005/1/3 1004/1/3
f 1008/3/3 1003/3/3 1007/3/3
f 1008/1/3 1006/1/3 1005/1/3
f 1008/1/3 1004/1/3 1003/1/3
f 1009/1/3 872/1/3 577/1/3
f 1009/1/3 1007/1/3 1001/1/3
f 1009/1/3 1008/1/3 1007/1/3
f 1009/1/3 1001/1/3 872/1/3
f 1010/1/3 641/1/3 838/1/3
f 1010/1/3 1008/1/3 1009/1/3
f 1010/1/3 838/1/3 1006/1/3
f 1010/1/3 1006/1/3 1008/1/3
f 1019/3/3 1012/3/3 1011/3/3
f 1020/4/3 1013/4/3 1012/4/3
f 1020/3/3 1012/3/3 1019/3/3
f 1021/3/3 1014/3/3 1013/3/3
f 1021/4/3 1013/4/3 1020/4/3
f 1022/2/3 1015/2/3 1014/2/3
f 1022/3/3 1014/3/3 1021/3/3
f 1023/2/3 1015/2/3 1022/2/3
f 1024/3/3 1016/3/3 1015/3/3
f 1024/2/3 1017/2/3 1016/2/3
f 1025/3/3 1018/3/3 1017/3/3
f 1025/2/3 1017/2/3 1024/2/3
f 1026/3/3 1018/3/3 1025/3/3
f 1027/3/3 1020/3/3 1019/3/3
f 1027/3/3 1021/3/3 1020/3/3
f 1028/3/3 1021/3/3 1027/3/3
f 1029/4/3 1022/4/3 1021/4/3
f 1029/3/3 1021/3/3 1028/3/3
f 1030/3/3 1023/3/3 1022/3/3
f 1030/4/3 1022/4/3 1029/4/3
f 1031/2/3 1015/2/3 1023/2/3
f 1031/3/3 1023/3/3 1030/3/3
f 1032/3/3 1024/3/3 1015/3/3
f 1032/2/3 1015/2/3 1031/2/3
f 1032/3/3 1025/3/3 1024/3/3
f 1033/3/3 1025/3/3 1032/3/3
f 1034/4/3 1026/4/3 1025/4/3
f 1034/3/3 1025/3/3 1033/3/3
f 1035/4/3 1026/4/3 1034/4/3
f 1036/4/3 1026/4/3 1035/4/3
f 1045/3/3 1038/3/3 1037/3/3
f 1045/2/3 1039/2/3 1038/2/3
f 1045/2/3 1040/2/3 1039/2/3
f 1045/2/3 1042/2/3 1041/2/3
f 1045/2/3 1041/2/3 1040/2/3
f 1046/2/3 1042/2/3 1045/2/3
f 1047/2/3 1042/2/3 1046/2/3
f 1048/2/3 1042/2/3 1047/2/3
f 1049/3/3 1045/3/3 1037/3/3
f 1049/3/3 1046/3/3 1045/3/3
f 1050/3/3 1046/3/3 1049/3/3
f 1051/2/3 1047/2/3 1046/2/3
f 1051/3/3 1046/3/3 1050/3/3
f 1052/2/3 1047/2/3 1051/2/3
f 1053/3/3 1048/3/3 1047/3/3
f 1053/2/3 1047/2/3 1052/2/3
f 1054/3/3 1048/3/3 1053/3/3
f 1055/2/3 1042/2/3 1048/2/3
f 1055/3/3 1048/3/3 1054/3/3
f 1056/3/3 1043/3/3 1042/3/3
f 1056/2/3 1042/2/3 1055/2/3
f 1057/4/3 1044/4/3 1043/4/3
f 1057/3/3 1043/3/3 1056/3/3
f 1058/4/3 1044/4/3 1057/4/3
f 1065/3/3 1060/3/3 1059/3/3
f 1066/3/3 1060/3/3 1065/3/3
f 1067/4/3 1066/4/3 1065/4/3
f 1068/3/3 1060/3/3 1066/3/3
f 1068/4/3 1066/4/3 1067/4/3
f 1069/2/3 1061/2/3 1060/2/3
f 1069/3/3 1060/3/3 1068/3/3
f 1069/2/3 1062/2/3 1061/2/3
f 1070/2/3 1062/2/3 1069/2/3
f 1071/3/3 1064/3/3 1063/3/3
f 1071/2/3 1062/2/3 1070/2/3
f 1071/3/3 1063/3/3 1062/3/3
f 1072/3/3 1064/3/3 1071/3/3
f 1080/3/3 1074/3/3 1073/3/3
f 1081/3/3 1074/3/3 1080/3/3
f 1082/3/3 1079/3/3 1078/3/3
f 1082/2/3 1075/2/3 1074/2/3
f 1082/2/3 1076/2/3 1075/2/3
f 1082/3/3 1077/3/3 1076/3/3
f 1082/3/3 1078/3/3 1077/3/3
f 1083/3/3 1079/3/3 1082/3/3
f 1084/2/3 1081/2/3 1080/2/3
f 1085/3/3 1074/3/3 1081/3/3
f 1085/2/3 1081/2/3 1084/2/3
f 1086/2/3 1082/2/3 1074/2/3
f 1086/3/3 1074/3/3 1085/3/3
f 1086/2/3 1083/2/3 1082/2/3
f 1087/2/3 1083/2/3 1086/2/3
f 1088/2/3 1083/2/3 1087/2/3
f 1089/3/3 1079/3/3 1083/3/3
f 1089/2/3 1083/2/3 1088/2/3
f 1090/3/3 1079/3/3 1089/3/3
f 1101/2/3 1094/2/3 1093/2/3
f 1102/3/3 1095/3/3 1094/3/3
f 1102/2/3 1094/2/3 1101/2/3
f 1102/3/3 1096/3/3 1095/3/3
f 1103/3/3 1096/3/3 1102/3/3
f 1104/2/3 1097/2/3 1096/2/3
f 1104/3/3 1096/3/3 1103/3/3
f 1105/3/3 1100/3/3 1099/3/3
f 1105/2/3 1097/2/3 1104/2/3
f 1105/3/3 1099/3/3 1098/3/3
f 1105/3/3 1098/3/3 1097/3/3
f 1106/3/3 1100/3/3 1105/3/3
f 1107/3/3 1100/3/3 1106/3/3
f 1108/3/3 1092/3/3 1091/3/3
f 1108/3/3 1093/3/3 1092/3/3
f 1109/2/3 1101/2/3 1093/2/3
f 1109/3/3 1093/3/3 1108/3/3
f 1110/3/3 1102/3/3 1101/3/3
f 1110/2/3 1101/2/3 1109/2/3
f 1111/3/3 1102/3/3 1110/3/3
f 1112/4/3 1103/4/3 1102/4/3
f 1112/3/3 1102/3/3 1111/3/3
f 1113/3/3 1104/3/3 1103/3/3
f 1113/4/3 1103/4/3 1112/4/3
f 1114/4/3 1105/4/3 1104/4/3
f 1114/3/3 1104/3/3 1113/3/3
f 1115/3/3 1106/3/3 1105/3/3
f 1115/4/3 1105/4/3 1114/4/3
f 1116/3/3 1106/3/3 1115/3/3
f 1117/4/3 1107/4/3 1106/4/3
f 1117/3/3 1106/3/3 1116/3/3
f 1118/4/3 1107/4/3 1117/4/3
f 1127/3/3 1120/3/3 1119/3/3
f 1127/3/3 1121/3/3 1120/3/3
f 1128/3/3 1121/3/3 1127/3/3
f 1129/3/3 1121/3/3 1128/3/3
f 1130/2/3 1125/2/3 1124/2/3
f 1130/3/3 1121/3/3 1129/3/3
f 1130/2/3 1122/2/3 1121/2/3
f 1130/2/3 1123/2/3 1122/2/3
f 1130/2/3 1124/2/3 1123/2/3
f 1131/2/3 1125/2/3 1130/2/3
f 1132/3/3 1126/3/3 1125/3/3
f 1132/2/3 1125/2/3 1131/2/3
f 1133/3/3 1126/3/3 1132/3/3
f 1134/3/3 1126/3/3 1133/3/3
f 1144/2/3 1136/2/3 1135/2/3
f 1145/3/3 1137/3/3 1136/3/3
f 1145/2/3 1136/2/3 1144/2/3
f 1146/2/3 1138/2/3 1137/2/3
f 1146/3/3 1137/3/3 1145/3/3
f 1146/2/3 1139/2/3 1138/2/3
f 1146/2/3 1140/2/3 1139/2/3
f 1146/2/3 1141/2/3 1140/2/3
f 1147/3/3 1143/3/3 1142/3/3
f 1147/2/3 1141/2/3 1146/2/3
f 1147/3/3 1142/3/3 1141/3/3
f 1148/3/3 1143/3/3 1147/3/3
f 1157/2/3 1150/2/3 1149/2/3
f 1157/2/3 1151/2/3 1150/2/3
f 1157/2/3 1152/2/3 1151/2/3
f 1157/2/3 1154/2/3 1153/2/3
f 1157/2/3 1153/2/3 1152/2/3
f 1158/2/3 1154/2/3 1157/2/3
f 1159/2/3 1154/2/3 1158/2/3
f 1160/3/3 1156/3/3 1155/3/3
f 1160/2/3 1154/2/3 1159/2/3
f 1160/3/3 1155/3/3 1154/3/3
f 1161/3/3 1158/3/3 1157/3/3
f 1162/2/3 1159/2/3 1158/2/3
f 1162/3/3 1158/3/3 1161/3/3
f 1163/3/3 1160/3/3 1159/3/3
f 1163/2/3 1159/2/3 1162/2/3
f 1164/3/3 1156/3/3 1160/3/3
f 1164/3/3 1160/3/3 1163/3/3
f 1165/3/3 1156/3/3 1164/3/3
f 1171/2/3 1167/2/3 1166/2/3
f 1172/3/3 1168/3/3 1167/3/3
f 1172/2/3 1167/2/3 1171/2/3
f 1173/2/3 1169/2/3 1168/2/3
f 1173/3/3 1168/3/3 1172/3/3
f 1174/3/3 1170/3/3 1169/3/3
f 1174/2/3 1169/2/3 1173/2/3
f 1175/3/3 1170/3/3 1174/3/3
f 1179/2/3 1177/2/3 1176/2/3
f 1180/2/3 1177/2/3 1179/2/3
f 1181/2/3 1177/2/3 1180/2/3
f 1182/2/3 1177/2/3 1181/2/3
f 1183/2/3 1177/2/3 1182/2/3
f 1184/2/3 1177/2/3 1183/2/3
f 1185/3/3 1178/3/3 1177/3/3
f 1185/2/3 1177/2/3 1184/2/3
f 1186/3/3 1178/3/3 1185/3/3
f 1192/3/3 1188/3/3 1187/3/3
f 1192/2/3 1189/2/3 1188/2/3
f 1193/2/3 1189/2/3 1192/2/3
f 1194/3/3 1191/3/3 1190/3/3
f 1194/2/3 1189/2/3 1193/2/3
f 1194/3/3 1190/3/3 1189/3/3
f 1195/3/3 1191/3/3 1194/3/3
f 1196/3/3 1193/3/3 1192/3/3
f 1196/3/3 1192/3/3 1187/3/3
f 1197/2/3 1195/2/3 1194/2/3
f 1197/3/3 1193/3/3 1196/3/3
f 1197/2/3 1194/2/3 1193/2/3
f 1198/3/3 1191/3/3 1195/3/3
f 1198/2/3 1195/2/3 1197/2/3
f 1199/3/3 1191/3/3 1198/3/3
f 1200/3/3 1191/3/3 1199/3/3
f 1207/3/3 1202/3/3 1201/3/3
f 1208/2/3 1203/2/3 1202/2/3
f 1208/3/3 1204/3/3 1203/3/3
f 1209/2/3 1205/2/3 1204/2/3
f 1209/3/3 1204/3/3 1208/3/3
f 1210/2/3 1205/2/3 1209/2/3
f 1211/3/3 1206/3/3 1205/3/3
f 1212/3/3 1202/3/3 1207/3/3
f 1213/3/3 1202/3/3 1212/3/3
f 1214/2/3 1208/2/3 1202/2/3
f 1214/3/3 1202/3/3 1213/3/3
f 1214/2/3 1209/2/3 1208/2/3
f 1215/2/3 1209/2/3 1214/2/3
f 1216/2/3 1209/2/3 1215/2/3
f 1217/3/3 1210/3/3 1209/3/3
f 1217/2/3 1209/2/3 1216/2/3
f 1218/2/3 1205/2/3 1210/2/3
f 1218/3/3 1210/3/3 1217/3/3
f 1219/2/3 1205/2/3 1218/2/3
f 1220/3/3 1211/3/3 1205/3/3
f 1220/2/3 1205/2/3 1219/2/3
f 1221/3/3 1211/3/3 1220/3/3
f 1229/3/3 1223/3/3 1222/3/3
f 1229/3/3 1224/3/3 1223/3/3
f 1229/3/3 1225/3/3 1224/3/3
f 1230/3/3 1225/3/3 1229/3/3
f 1231/3/3 1228/3/3 1227/3/3
f 1231/2/3 1227/2/3 1226/2/3
f 1231/2/3 1226/2/3 1225/2/3
f 1232/3/3 1228/3/3 1231/3/3
f 1233/4/3 1230/4/3 1229/4/3
f 1234/3/3 1225/3/3 1230/3/3
f 1234/4/3 1230/4/3 1233/4/3
f 1235/3/3 1225/3/3 1234/3/3
f 1236/2/3 1231/2/3 1225/2/3
f 1236/3/3 1225/3/3 1235/3/3
f 1236/2/3 1232/2/3 1231/2/3
f 1237/3/3 1228/3/3 1232/3/3
f 1237/2/3 1232/2/3 1236/2/3
f 1238/3/3 1228/3/3 1237/3/3
f 1245/3/3 1240/3/3 1239/3/3
f 1245/3/3 1241/3/3 1240/3/3
f 1246/3/3 1241/3/3 1245/3/3
f 1247/2/3 1244/2/3 1243/2/3
f 1247/3/3 1241/3/3 1246/3/3
f 1247/2/3 1243/2/3 1242/2/3
f 1247/2/3 1242/2/3 1241/2/3
f 1248/2/3 1244/2/3 1247/2/3
f 1252/3/3 1250/3/3 1249/3/3
f 1253/2/3 1251/2/3 1250/2/3
f 1253/3/3 1250/3/3 1252/3/3
f 1254/2/3 1251/2/3 1253/2/3
f 1255/2/3 1251/2/3 1254/2/3
f 1256/2/3 1251/2/3 1255/2/3
f 1262/3/3 1258/3/3 1257/3/3
f 1263/2/3 1259/2/3 1258/2/3
f 1263/3/3 1258/3/3 1262/3/3
f 1263/2/3 1260/2/3 1259/2/3
f 1264/2/3 1263/2/3 1262/2/3
f 1265/2/3 1260/2/3 1263/2/3
f 1265/2/3 1263/2/3 1264/2/3
f 1266/2/3 1260/2/3 1265/2/3
f 1267/3/3 1261/3/3 1260/3/3
f 1267/2/3 1260/2/3 1266/2/3
f 1268/3/3 1261/3/3 1267/3/3
f 1273/2/3 1270/2/3 1269/2/3
f 1274/3/3 1271/3/3 1270/3/3
f 1274/2/3 1270/2/3 1273/2/3
f 1275/2/3 1272/2/3 1271/2/3
f 1275/3/3 1271/3/3 1274/3/3
f 1276/2/3 1272/2/3 1275/2/3
f 1277/2/3 1273/2/3 1269/2/3
f 1278/3/3 1274/3/3 1273/3/3
f 1278/2/3 1273/2/3 1277/2/3
f 1278/3/3 1275/3/3 1274/3/3
f 1278/3/3 1276/3/3 1275/3/3
f 1279/3/3 1276/3/3 1278/3/3
f 1280/3/3 1276/3/3 1279/3/3
f 1281/3/3 1276/3/3 1280/3/3
f 1288/3/3 1285/3/3 1284/3/3
f 1288/4/3 1286/4/3 1285/4/3
f 1289/3/3 1287/3/3 1286/3/3
f 1289/4/3 1286/4/3 1288/4/3
f 1290/3/3 1287/3/3 1289/3/3
f 1291/2/3 1283/2/3 1282/2/3
f 1291/2/3 1284/2/3 1283/2/3
f 1292/2/3 1284/2/3 1291/2/3
f 1293/2/3 1284/2/3 1292/2/3
f 1294/2/3 1284/2/3 1293/2/3
f 1295/3/3 1288/3/3 1284/3/3
f 1295/2/3 1284/2/3 1294/2/3
f 1295/3/3 1289/3/3 1288/3/3
f 1296/3/3 1289/3/3 1295/3/3
f 1297/4/3 1290/4/3 1289/4/3
f 1297/3/3 1289/3/3 1296/3/3
f 1298/4/3 1290/4/3 1297/4/3
f 1306/2/3 1300/2/3 1299/2/3
f 1306/2/3 1301/2/3 1300/2/3
f 1306/2/3 1302/2/3 1301/2/3
f 1307/2/3 1302/2/3 1306/2/3
f 1308/2/3 1302/2/3 1307/2/3
f 1309/3/3 1303/3/3 1302/3/3
f 1309/2/3 1302/2/3 1308/2/3
f 1310/4/3 1304/4/3 1303/4/3
f 1310/3/3 1303/3/3 1309/3/3
f 1311/2/3 1305/2/3 1304/2/3
f 1311/4/3 1304/4/3 1310/4/3
f 1312/2/3 1305/2/3 1311/2/3
f 1313/3/3 1307/3/3 1306/3/3
f 1314/2/3 1308/2/3 1307/2/3
f 1314/3/3 1307/3/3 1313/3/3
f 1315/3/3 1310/3/3 1309/3/3
f 1315/2/3 1308/2/3 1314/2/3
f 1315/3/3 1309/3/3 1308/3/3
f 1315/3/3 1312/3/3 1311/3/3
f 1315/3/3 1311/3/3 1310/3/3
f 1316/3/3 1312/3/3 1315/3/3
f 1317/3/3 1312/3/3 1316/3/3
f 1325/3/3 1319/3/3 1318/3/3
f 1325/3/3 1320/3/3 1319/3/3
f 1326/2/3 1324/2/3 1323/2/3
f 1326/3/3 1320/3/3 1325/3/3
f 1326/2/3 1323/2/3 1322/2/3
f 1326/2/3 1322/2/3 1321/2/3
f 1326/2/3 1321/2/3 1320/2/3
f 1327/3/3 1325/3/3 1318/3/3
f 1328/2/3 1326/2/3 1325/2/3
f 1328/3/3 1325/3/3 1327/3/3
f 1329/2/3 1324/2/3 1326/2/3
f 1329/2/3 1326/2/3 1328/2/3
f 1330/2/3 1324/2/3 1329/2/3
f 1331/2/3 1324/2/3 1330/2/3
f 1336/3/3 1333/3/3 1332/3/3
f 1337/3/3 1333/3/3 1336/3/3
f 1338/2/3 1335/2/3 1334/2/3
f 1338/2/3 1334/2/3 1333/2/3
f 1339/2/3 1335/2/3 1338/2/3
f 1340/2/3 1337/2/3 1336/2/3
f 1341/3/3 1333/3/3 1337/3/3
f 1341/2/3 1337/2/3 1340/2/3
f 1342/2/3 1338/2/3 1333/2/3
f 1342/3/3 1333/3/3 1341/3/3
f 1343/3/3 1339/3/3 1338/3/3
f 1343/2/3 1338/2/3 1342/2/3
f 1344/2/3 1335/2/3 1339/2/3
f 1344/3/3 1339/3/3 1343/3/3
f 1345/2/3 1335/2/3 1344/2/3
f 1348/2/3 1347/2/3 1346/2/3
f 1349/2/3 1347/2/3 1348/2/3
f 1354/2/3 1351/2/3 1350/2/3
f 1355/3/3 1353/3/3 1352/3/3
f 1355/2/3 1351/2/3 1354/2/3
f 1355/3/3 1352/3/3 1351/3/3
f 1356/3/3 1353/3/3 1355/3/3
f 1357/3/3 1353/3/3 1356/3/3
f 1358/3/3 1353/3/3 1357/3/3
f 1359/3/3 1353/3/3 1358/3/3
f 1360/2/3 1354/2/3 1350/2/3
f 1361/3/3 1355/3/3 1354/3/3
f 1361/2/3 1354/2/3 1360/2/3
f 1361/3/3 1356/3/3 1355/3/3
f 1362/4/3 1357/4/3 1356/4/3
f 1362/3/3 1356/3/3 1361/3/3
f 1363/3/3 1358/3/3 1357/3/3
f 1363/4/3 1357/4/3 1362/4/3
f 1364/4/3 1359/4/3 1358/4/3
f 1364/3/3 1358/3/3 1363/3/3
f 1365/4/3 1359/4/3 1364/4/3
f 1368/2/3 1367/2/3 1366/2/3
f 1369/2/3 1367/2/3 1368/2/3
f 1372/2/3 1371/2/3 1370/2/3
f 1373/2/3 1371/2/3 1372/2/3
f 1374/2/3 1371/2/3 1373/2/3
f 1379/2/3 1377/2/3 1376/2/3
f 1379/2/3 1378/2/3 1377/2/3
f 1380/2/3 1378/2/3 1379/2/3
f 1381/3/3 1376/3/3 1375/3/3
f 1382/2/3 1379/2/3 1376/2/3
f 1382/3/3 1376/3/3 1381/3/3
f 1383/3/3 1380/3/3 1379/3/3
f 1383/2/3 1379/2/3 1382/2/3
f 1384/2/3 1378/2/3 1380/2/3
f 1384/3/3 1380/3/3 1383/3/3
f 1385/2/3 1378/2/3 1384/2/3
f 1390/2/3 1388/2/3 1387/2/3
f 1390/2/3 1389/2/3 1388/2/3
f 1391/2/3 1389/2/3 1390/2/3
f 1392/3/3 1387/3/3 1386/3/3
f 1393/2/3 1390/2/3 1387/2/3
f 1393/3/3 1387/3/3 1392/3/3
f 1394/2/3 1390/2/3 1393/2/3
f 1395/2/3 1390/2/3 1394/2/3
f 1396/3/3 1391/3/3 1390/3/3
f 1396/2/3 1390/2/3 1395/2/3
f 1397/2/3 1389/2/3 1391/2/3
f 1397/3/3 1391/3/3 1396/3/3
f 1398/2/3 1389/2/3 1397/2/3
f 1399/1/4 1400/1/4 1401/1/4
f 1401/1/4 1400/1/4 1402/1/4
f 1399/1/4 1401/1/4 1403/1/4
f 1401/2/4 1402/2/4 1403/2/4
f 1403/2/4 1402/2/4 1404/2/4
f 1404/2/4 1402/2/4 1405/2/4
f 1405/2/4 1402/2/4 1406/2/4
f 1406/2/4 1402/2/4 1407/2/4
f 1407/2/4 1402/2/4 1408/2/4
f 1408/2/4 1402/2/4 1409/2/4
f 1402/1/4 1400/1/4 1410/1/4
f 1409/2/4 1402/2/4 1410/2/4
f 1403/3/4 1404/3/4 1411/3/4
f 1404/4/4 1405/4/4 1411/4/4
f 1405/3/4 1406/3/4 1412/3/4
f 1411/4/4 1405/4/4 1412/4/4
f 1406/2/4 1407/2/4 1413/2/4
f 1412/3/4 1406/3/4 1413/3/4
f 1413/2/4 1407/2/4 1414/2/4
f 1408/2/4 1409/2/4 1415/2/4
f 1407/3/4 1408/3/4 1415/3/4
f 1409/3/4 1410/3/4 1416/3/4
f 1415/2/4 1409/2/4 1416/2/4
f 1410/1/4 1400/1/4 1417/1/4
f 1416/3/4 1410/3/4 1417/3/4
f 1399/1/4 1403/1/4 1418/1/4
f 1403/3/4 1411/3/4 1418/3/4
f 1411/3/4 1412/3/4 1418/3/4
f 1412/4/4 1413/4/4 1419/4/4
f 1418/3/4 1412/3/4 1419/3/4
f 1413/3/4 1414/3/4 1420/3/4
f 1419/4/4 1413/4/4 1420/4/4
f 1414/2/4 1407/2/4 1421/2/4
f 1420/3/4 1414/3/4 1421/3/4
f 1415/3/4 1416/3/4 1422/3/4
f 1421/2/4 1407/2/4 1422/2/4
f 1407/3/4 1415/3/4 1422/3/4
f 1416/4/4 1417/4/4 1423/4/4
f 1422/3/4 1416/3/4 1423/3/4
f 1417/1/4 1400/1/4 1424/1/4
f 1423/4/4 1417/4/4 1424/4/4
f 1419/2/4 1420/2/4 1425/2/4
f 1422/2/4 1423/2/4 1425/2/4
f 1423/2/4 1424/2/4 1425/2/4
f 1399/1/4 1418/1/4 1425/1/4
f 1421/2/4 1422/2/4 1425/2/4
f 1418/2/4 1419/2/4 1425/2/4
f 1420/2/4 1421/2/4 1425/2/4
f 1425/2/4 1424/2/4 1426/2/4
f 1426/2/4 1424/2/4 1427/2/4
f 1427/2/4 1424/2/4 1428/2/4
f 1424/1/4 1400/1/4 1429/1/4
f 1428/2/4 1424/2/4 1429/2/4
f 1425/3/4 1426/3/4 1430/3/4
f 1426/2/4 1427/2/4 1430/2/4
f 1430/2/4 1427/2/4 1431/2/4
f 1431/2/4 1427/2/4 1432/2/4
f 1432/2/4 1427/2/4 1433/2/4
f 1399/1/4 1425/1/4 1434/1/4
f 1425/3/4 1430/3/4 1434/3/4
f 1430/3/4 1431/3/4 1434/3/4
f 1431/2/4 1432/2/4 1435/2/4
f 1434/3/4 1431/3/4 1435/3/4
f 1432/3/4 1433/3/4 1436/3/4
f 1435/2/4 1432/2/4 1436/2/4
f 1433/2/4 1427/2/4 1437/2/4
f 1436/3/4 1433/3/4 1437/3/4
f 1427/3/4 1428/3/4 1438/3/4
f 1437/2/4 1427/2/4 1438/2/4
f 1428/4/4 1429/4/4 1439/4/4
f 1438/3/4 1428/3/4 1439/3/4
f 1429/1/4 1400/1/4 1440/1/4
f 1439/4/4 1429/4/4 1440/4/4
f 1436/2/4 1437/2/4 1441/2/4
f 1435/2/4 1436/2/4 1441/2/4
f 1439/2/4 1440/2/4 1441/2/4
f 1399/1/4 1434/1/4 1441/1/4
f 1434/2/4 1435/2/4 1441/2/4
f 1437/2/4 1438/2/4 1441/2/4
f 1438/2/4 1439/2/4 1441/2/4
f 1441/2/4 1440/2/4 1442/2/4
f 1442/2/4 1440/2/4 1443/2/4
f 1440/1/4 1400/1/4 1444/1/4
f 1443/2/4 1440/2/4 1444/2/4
f 1399/1/4 1441/1/4 1445/1/4
f 1441/3/4 1442/3/4 1445/3/4
f 1445/3/4 1442/3/4 1446/3/4
f 1399/1/4 1445/1/4 1447/1/4
f 1445/4/4 1446/4/4 1447/4/4
f 1446/3/4 1442/3/4 1448/3/4
f 1447/4/4 1446/4/4 1448/4/4
f 1442/2/4 1443/2/4 1449/2/4
f 1448/3/4 1442/3/4 1449/3/4
f 1443/3/4 1444/3/4 1450/3/4
f 1449/2/4 1443/2/4 1450/2/4
f 1444/1/4 1400/1/4 1451/1/4
f 1450/3/4 1444/3/4 1451/3/4
f 1447/2/4 1448/2/4 1452/2/4
f 1449/2/4 1450/2/4 1452/2/4
f 1450/2/4 1451/2/4 1452/2/4
f 1399/1/4 1447/1/4 1452/1/4
f 1448/2/4 1449/2/4 1452/2/4
f 1452/2/4 1451/2/4 1453/2/4
f 1453/2/4 1451/2/4 1454/2/4
f 1451/1/4 1400/1/4 1455/1/4
f 1454/2/4 1451/2/4 1455/2/4
f 1399/1/4 1452/1/4 1456/1/4
f 1452/3/4 1453/3/4 1456/3/4
f 1456/3/4 1453/3/4 1457/3/4
f 1453/2/4 1454/2/4 1458/2/4
f 1454/3/4 1455/3/4 1458/3/4
f 1458/3/4 1455/3/4 1459/3/4
f 1457/3/4 1453/3/4 1460/3/4
f 1456/2/4 1457/2/4 1460/2/4
f 1458/2/4 1459/2/4 1461/2/4
f 1460/3/4 1453/3/4 1461/3/4
f 1453/2/4 1458/2/4 1461/2/4
f 1459/3/4 1455/3/4 1462/3/4
f 1461/2/4 1459/2/4 1462/2/4
f 1455/1/4 1400/1/4 1463/1/4
f 1462/3/4 1455/3/4 1463/3/4
f 1460/2/4 1461/2/4 1464/2/4
f 1461/2/4 1462/2/4 1464/2/4
f 1462/2/4 1463/2/4 1464/2/4
f 1399/1/4 1456/1/4 1464/1/4
f 1456/2/4 1460/2/4 1464/2/4
f 1464/2/4 1463/2/4 1465/2/4
f 1465/2/4 1463/2/4 1466/2/4
f 1466/2/4 1463/2/4 1467/2/4
f 1467/2/4 1463/2/4 1468/2/4
f 1463/1/4 1400/1/4 1469/1/4
f 1468/2/4 1463/2/4 1469/2/4
f 1465/2/4 1466/2/4 1470/2/4
f 1466/3/4 1467/3/4 1471/3/4
f 1470/2/4 1466/2/4 1471/2/4
f 1471/3/4 1467/3/4 1472/3/4
f 1467/2/4 1468/2/4 1473/2/4
f 1472/3/4 1467/3/4 1473/3/4
f 1468/3/4 1469/3/4 1474/3/4
f 1473/2/4 1468/2/4 1474/2/4
f 1474/3/4 1469/3/4 1475/3/4
f 1469/1/4 1400/1/4 1476/1/4
f 1475/3/4 1469/3/4 1476/3/4
f 1399/1/4 1464/1/4 1477/1/4
f 1464/3/4 1465/3/4 1477/3/4
f 1465/2/4 1470/2/4 1478/2/4
f 1477/3/4 1465/3/4 1478/3/4
f 1470/3/4 1471/3/4 1479/3/4
f 1478/2/4 1470/2/4 1479/2/4
f 1471/4/4 1472/4/4 1480/4/4
f 1479/3/4 1471/3/4 1480/3/4
f 1472/3/4 1473/3/4 1481/3/4
f 1480/4/4 1472/4/4 1481/4/4
f 1473/4/4 1474/4/4 1482/4/4
f 1481/3/4 1473/3/4 1482/3/4
f 1474/3/4 1475/3/4 1483/3/4
f 1482/4/4 1474/4/4 1483/4/4
f 1475/4/4 1476/4/4 1484/4/4
f 1483/3/4 1475/3/4 1484/3/4
f 1476/1/4 1400/1/4 1485/1/4
f 1484/4/4 1476/4/4 1485/4/4
f 1478/2/4 1479/2/4 1486/2/4
f 1483/2/4 1484/2/4 1486/2/4
f 1484/2/4 1485/2/4 1486/2/4
f 1480/2/4 1481/2/4 1486/2/4
f 1477/2/4 1478/2/4 1486/2/4
f 1479/2/4 1480/2/4 1486/2/4
f 1399/1/4 1477/1/4 1486/1/4
f 1481/2/4 1482/2/4 1486/2/4
f 1482/2/4 1483/2/4 1486/2/4
f 1486/2/4 1485/2/4 1487/2/4
f 1487/2/4 1485/2/4 1488/2/4
f 1485/1/4 1400/1/4 1489/1/4
f 1488/2/4 1485/2/4 1489/2/4
f 1399/1/4 1486/1/4 1490/1/4
f 1486/3/4 1487/3/4 1490/3/4
f 1487/2/4 1488/2/4 1491/2/4
f 1490/3/4 1487/3/4 1491/3/4
f 1488/3/4 1489/3/4 1492/3/4
f 1491/2/4 1488/2/4 1492/2/4
f 1489/1/4 1400/1/4 1493/1/4
f 1492/3/4 1489/3/4 1493/3/4
f 1493/1/4 1400/1/4 1494/1/4
f 1494/1/4 1400/1/4 1495/1/4
f 1491/2/4 1492/2/4 1496/2/4
f 1490/2/4 1491/2/4 1496/2/4
f 1492/2/4 1493/2/4 1496/2/4
f 1496/2/4 1493/2/4 1497/2/4
f 1497/2/4 1493/2/4 1498/2/4
f 1493/1/4 1494/1/4 1499/1/4
f 1498/2/4 1493/2/4 1499/2/4
f 1399/1/4 1490/1/4 1500/1/4
f 1490/2/4 1496/2/4 1500/2/4
f 1496/3/4 1497/3/4 1501/3/4
f 1500/2/4 1496/2/4 1501/2/4
f 1497/2/4 1498/2/4 1502/2/4
f 1501/3/4 1497/3/4 1502/3/4
f 1498/3/4 1499/3/4 1503/3/4
f 1502/2/4 1498/2/4 1503/2/4
f 1499/1/4 1494/1/4 1504/1/4
f 1503/3/4 1499/3/4 1504/3/4
f 1494/3/4 1495/3/4 1505/3/4
f 1504/1/4 1494/1/4 1505/1/4
f 1505/3/4 1495/3/4 1506/3/4
f 1502/1/4 1503/1/4 1507/1/4
f 1503/1/4 1504/1/4 1507/1/4
f 1505/1/4 1506/1/4 1507/1/4
f 1504/1/4 1505/1/4 1507/1/4
f 1500/1/4 1501/1/4 1507/1/4
f 1501/1/4 1502/1/4 1507/1/4
f 1507/1/4 1506/1/4 1508/1/4
f 1399/1/4 1500/1/4 1509/1/4
f 1500/1/4 1507/1/4 1509/1/4
f 1507/3/4 1508/3/4 1510/3/4
f 1509/1/4 1507/1/4 1510/1/4
f 1508/1/4 1506/1/4 1511/1/4
f 1510/3/4 1508/3/4 1511/3/4
f 1511/1/4 1506/1/4 1512/1/4
f 1512/1/4 1506/1/4 1513/1/4
f 1513/1/4 1506/1/4 1514/1/4
f 1509/2/4 1510/2/4 1515/2/4
f 1510/2/4 1511/2/4 1515/2/4
f 1511/2/4 1512/2/4 1515/2/4
f 1512/1/4 1513/1/4 1516/1/4
f 1515/2/4 1512/2/4 1516/2/4
f 1399/1/4 1509/1/4 1517/1/4
f 1509/2/4 1515/2/4 1517/2/4
f 1517/2/4 1515/2/4 1518/2/4
f 1518/2/4 1515/2/4 1519/2/4
f 1515/3/4 1516/3/4 1520/3/4
f 1519/2/4 1515/2/4 1520/2/4
f 1399/1/4 1517/1/4 1521/1/4
f 1517/3/4 1518/3/4 1521/3/4
f 1518/2/4 1519/2/4 1522/2/4
f 1521/3/4 1518/3/4 1522/3/4
f 1519/3/4 1520/3/4 1523/3/4
f 1522/2/4 1519/2/4 1523/2/4
f 1516/1/4 1513/1/4 1524/1/4
f 1523/3/4 1520/3/4 1524/3/4
f 1520/3/4 1516/3/4 1524/3/4
f 1513/3/4 1514/3/4 1525/3/4
f 1524/1/4 1513/1/4 1525/1/4
f 1525/3/4 1514/3/4 1526/3/4
f 1522/2/4 1523/2/4 1527/2/4
f 1523/2/4 1524/2/4 1527/2/4
f 1521/2/4 1522/2/4 1527/2/4
f 1527/2/4 1524/2/4 1528/2/4
f 1528/2/4 1524/2/4 1529/2/4
f 1525/1/4 1526/1/4 1530/1/4
f 1529/2/4 1524/2/4 1530/2/4
f 1524/1/4 1525/1/4 1530/1/4
f 1527/3/4 1528/3/4 1531/3/4
f 1521/2/4 1527/2/4 1531/2/4
f 1528/2/4 1529/2/4 1532/2/4
f 1531/3/4 1528/3/4 1532/3/4
f 1529/3/4 1530/3/4 1533/3/4
f 1532/2/4 1529/2/4 1533/2/4
f 1530/1/4 1526/1/4 1534/1/4
f 1533/3/4 1530/3/4 1534/3/4
f 1532/2/4 1533/2/4 1535/2/4
f 1531/2/4 1532/2/4 1535/2/4
f 1533/2/4 1534/2/4 1535/2/4
f 1534/1/4 1526/1/4 1536/1/4
f 1535/2/4 1534/2/4 1536/2/4
f 1531/2/4 1535/2/4 1537/2/4
f 1535/3/4 1536/3/4 1537/3/4
f 1536/1/4 1526/1/4 1538/1/4
f 1537/3/4 1536/3/4 1538/3/4
f 1521/2/4 1531/2/4 1539/2/4
f 1399/1/4 1521/1/4 1539/1/4
f 1537/2/4 1538/2/4 1539/2/4
f 1531/2/4 1537/2/4 1539/2/4
f 1539/2/4 1538/2/4 1540/2/4
f 1540/2/4 1538/2/4 1541/2/4
f 1538/1/4 1526/1/4 1542/1/4
f 1541/2/4 1538/2/4 1542/2/4
f 1540/2/4 1541/2/4 1543/2/4
f 1539/3/4 1540/3/4 1543/3/4
f 1543/2/4 1541/2/4 1544/2/4
f 1541/3/4 1542/3/4 1545/3/4
f 1544/2/4 1541/2/4 1545/2/4
f 1545/3/4 1542/3/4 1546/3/4
f 1399/1/4 1539/1/4 1547/1/4
f 1543/3/4 1544/3/4 1547/3/4
f 1539/3/4 1543/3/4 1547/3/4
f 1545/2/4 1546/2/4 1548/2/4
f 1547/3/4 1544/3/4 1548/3/4
f 1544/2/4 1545/2/4 1548/2/4
f 1546/3/4 1542/3/4 1549/3/4
f 1548/2/4 1546/2/4 1549/2/4
f 1542/1/4 1526/1/4 1550/1/4
f 1549/3/4 1542/3/4 1550/3/4
f 1548/2/4 1549/2/4 1551/2/4
f 1547/2/4 1548/2/4 1551/2/4
f 1549/2/4 1550/2/4 1551/2/4
f 1399/1/4 1547/1/4 1551/1/4
f 1551/2/4 1550/2/4 1552/2/4
f 1552/2/4 1550/2/4 1553/2/4
f 1553/2/4 1550/2/4 1554/2/4
f 1554/2/4 1550/2/4 1555/2/4
f 1550/1/4 1526/1/4 1556/1/4
f 1555/2/4 1550/2/4 1556/2/4
f 1552/2/4 1553/2/4 1557/2/4
f 1553/3/4 1554/3/4 1557/3/4
f 1554/2/4 1555/2/4 1558/2/4
f 1557/3/4 1554/3/4 1558/3/4
f 1558/2/4 1555/2/4 1559/2/4
f 1399/1/4 1551/1/4 1560/1/4
f 1551/3/4 1552/3/4 1560/3/4
f 1552/2/4 1557/2/4 1561/2/4
f 1560/3/4 1552/3/4 1561/3/4
f 1557/2/4 1558/2/4 1561/2/4
f 1558/3/4 1559/3/4 1562/3/4
f 1561/2/4 1558/2/4 1562/2/4
f 1559/2/4 1555/2/4 1563/2/4
f 1562/3/4 1559/3/4 1563/3/4
f 1555/3/4 1556/3/4 1564/3/4
f 1563/2/4 1555/2/4 1564/2/4
f 1556/1/4 1526/1/4 1565/1/4
f 1564/3/4 1556/3/4 1565/3/4
f 1399/1/4 1560/1/4 1566/1/4
f 1561/2/4 1562/2/4 1566/2/4
f 1564/2/4 1565/2/4 1566/2/4
f 1562/2/4 1563/2/4 1566/2/4
f 1563/2/4 1564/2/4 1566/2/4
f 1560/2/4 1561/2/4 1566/2/4
f 1566/2/4 1565/2/4 1567/2/4
f 1567/2/4 1565/2/4 1568/2/4
f 1565/1/4 1526/1/4 1569/1/4
f 1568/2/4 1565/2/4 1569/2/4
f 1399/1/4 1566/1/4 1570/1/4
f 1566/3/4 1567/3/4 1570/3/4
f 1570/3/4 1567/3/4 1571/3/4
f 1567/2/4 1568/2/4 1572/2/4
f 1568/3/4 1569/3/4 1572/3/4
f 1572/3/4 1569/3/4 1573/3/4
f 1570/4/4 1571/4/4 1574/4/4
f 1399/1/4 1570/1/4 1574/1/4
f 1571/3/4 1567/3/4 1575/3/4
f 1574/4/4 1571/4/4 1575/4/4
f 1572/2/4 1573/2/4 1576/2/4
f 1575/3/4 1567/3/4 1576/3/4
f 1567/2/4 1572/2/4 1576/2/4
f 1573/3/4 1569/3/4 1577/3/4
f 1576/2/4 1573/2/4 1577/2/4
f 1569/1/4 1526/1/4 1578/1/4
f 1577/3/4 1569/3/4 1578/3/4
f 1399/1/4 1574/1/4 1579/1/4
f 1576/2/4 1577/2/4 1579/2/4
f 1577/2/4 1578/2/4 1579/2/4
f 1574/2/4 1575/2/4 1579/2/4
f 1575/2/4 1576/2/4 1579/2/4
f 1579/2/4 1578/2/4 1580/2/4
f 1399/1/4 1579/1/4 1581/1/4
f 1579/3/4 1580/3/4 1581/3/4
f 1580/2/4 1578/2/4 1582/2/4
f 1581/3/4 1580/3/4 1582/3/4
f 1578/1/4 1526/1/4 1583/1/4
f 1582/2/4 1578/2/4 1583/2/4
f 1581/1/4 1582/1/4 1584/1/4
f 1582/1/4 1583/1/4 1584/1/4
f 1584/1/4 1583/1/4 1585/1/4
f 1399/1/4 1581/1/4 1586/1/4
f 1581/1/4 1584/1/4 1586/1/4
f 1586/1/4 1584/1/4 1587/1/4
f 1584/3/4 1585/3/4 1588/3/4
f 1587/1/4 1584/1/4 1588/1/4
f 1585/1/4 1583/1/4 1589/1/4
f 1588/3/4 1585/3/4 1589/3/4
f 1583/1/4 1526/1/4 1590/1/4
f 1589/1/4 1583/1/4 1590/1/4
f 1586/3/4 1587/3/4 1591/3/4
f 1399/1/4 1586/1/4 1591/1/4
f 1588/2/4 1589/2/4 1592/2/4
f 1591/3/4 1587/3/4 1592/3/4
f 1587/2/4 1588/2/4 1592/2/4
f 1589/2/4 1590/2/4 1592/2/4
f 1590/1/4 1526/1/4 1593/1/4
f 1593/1/4 1526/1/4 1594/1/4
f 1590/1/4 1593/1/4 1595/1/4
f 1593/3/4 1594/3/4 1595/3/4
f 1595/3/4 1594/3/4 1596/3/4
f 1399/1/4 1591/1/4 1597/1/4
f 1591/2/4 1592/2/4 1597/2/4
f 1597/2/4 1592/2/4 1598/2/4
f 1592/2/4 1590/2/4 1599/2/4
f 1598/2/4 1592/2/4 1599/2/4
f 1595/1/4 1596/1/4 1600/1/4
f 1599/2/4 1590/2/4 1600/2/4
f 1590/1/4 1595/1/4 1600/1/4
f 1600/1/4 1596/1/4 1601/1/4
f 1601/1/4 1596/1/4 1602/1/4
f 1597/3/4 1598/3/4 1603/3/4
f 1399/1/4 1597/1/4 1603/1/4
f 1598/2/4 1599/2/4 1604/2/4
f 1603/3/4 1598/3/4 1604/3/4
f 1599/3/4 1600/3/4 1605/3/4
f 1604/2/4 1599/2/4 1605/2/4
f 1603/2/4 1604/2/4 1605/2/4
f 1600/1/4 1601/1/4 1606/1/4
f 1605/3/4 1600/3/4 1606/3/4
f 1601/3/4 1602/3/4 1607/3/4
f 1606/1/4 1601/1/4 1607/1/4
f 1607/3/4 1602/3/4 1608/3/4
f 1605/2/4 1606/2/4 1609/2/4
f 1603/2/4 1605/2/4 1609/2/4
f 1609/2/4 1606/2/4 1610/2/4
f 1603/2/4 1609/2/4 1611/2/4
f 1609/3/4 1610/3/4 1612/3/4
f 1611/2/4 1609/2/4 1612/2/4
f 1610/2/4 1606/2/4 1613/2/4
f 1612/3/4 1610/3/4 1613/3/4
f 1607/1/4 1608/1/4 1614/1/4
f 1613/2/4 1606/2/4 1614/2/4
f 1606/1/4 1607/1/4 1614/1/4
f 1612/3/4 1613/3/4 1615/3/4
f 1603/2/4 1611/2/4 1615/2/4
f 1613/3/4 1614/3/4 1615/3/4
f 1611/3/4 1612/3/4 1615/3/4
f 1614/1/4 1608/1/4 1616/1/4
f 1615/3/4 1614/3/4 1616/3/4
f 1615/2/4 1616/2/4 1617/2/4
f 1617/2/4 1616/2/4 1618/2/4
f 1618/2/4 1616/2/4 1619/2/4
f 1616/1/4 1608/1/4 1620/1/4
f 1619/2/4 1616/2/4 1620/2/4
f 1618/4/4 1619/4/4 1621/4/4
f 1617/3/4 1618/3/4 1621/3/4
f 1619/3/4 1620/3/4 1622/3/4
f 1621/4/4 1619/4/4 1622/4/4
f 1620/1/4 1608/1/4 1623/1/4
f 1622/3/4 1620/3/4 1623/3/4
f 1621/3/4 1622/3/4 1624/3/4
f 1615/2/4 1617/2/4 1624/2/4
f 1617/3/4 1621/3/4 1624/3/4
f 1622/4/4 1623/4/4 1625/4/4
f 1624/3/4 1622/3/4 1625/3/4
f 1623/1/4 1608/1/4 1626/1/4
f 1625/4/4 1623/4/4 1626/4/4
f 1624/2/4 1625/2/4 1627/2/4
f 1615/2/4 1624/2/4 1627/2/4
f 1625/2/4 1626/2/4 1627/2/4
f 1627/2/4 1626/2/4 1628/2/4
f 1628/2/4 1626/2/4 1629/2/4
f 1399/1/4 1603/1/4 1630/1/4
f 1603/2/4 1615/2/4 1630/2/4
f 1615/2/4 1627/2/4 1630/2/4
f 1630/2/4 1627/2/4 1631/2/4
f 1631/2/4 1627/2/4 1632/2/4
f 1627/3/4 1628/3/4 1633/3/4
f 1632/2/4 1627/2/4 1633/2/4
f 1628/4/4 1629/4/4 1634/4/4
f 1633/3/4 1628/3/4 1634/3/4
f 1629/2/4 1626/2/4 1635/2/4
f 1634/4/4 1629/4/4 1635/4/4
f 1626/1/4 1608/1/4 1636/1/4
f 1635/2/4 1626/2/4 1636/2/4
f 1399/1/4 1630/1/4 1637/1/4
f 1630/3/4 1631/3/4 1637/3/4
f 1631/2/4 1632/2/4 1638/2/4
f 1637/3/4 1631/3/4 1638/3/4
f 1633/3/4 1634/3/4 1639/3/4
f 1638/2/4 1632/2/4 1639/2/4
f 1632/3/4 1633/3/4 1639/3/4
f 1635/3/4 1636/3/4 1639/3/4
f 1634/3/4 1635/3/4 1639/3/4
f 1636/1/4 1608/1/4 1640/1/4
f 1639/3/4 1636/3/4 1640/3/4
f 1637/2/4 1638/2/4 1641/2/4
f 1638/2/4 1639/2/4 1641/2/4
f 1639/2/4 1640/2/4 1641/2/4
f 1399/1/4 1637/1/4 1641/1/4
f 1641/2/4 1640/2/4 1642/2/4
f 1641/3/4 1642/3/4 1643/3/4
f 1642/2/4 1640/2/4 1644/2/4
f 1643/3/4 1642/3/4 1644/3/4
f 1399/1/4 1641/1/4 1645/1/4
f 1641/3/4 1643/3/4 1645/3/4
f 1643/2/4 1644/2/4 1646/2/4
f 1645/3/4 1643/3/4 1646/3/4
f 1399/1/4 1645/1/4 1647/1/4
f 1645/2/4 1646/2/4 1647/2/4
f 1644/2/4 1640/2/4 1648/2/4
f 1647/2/4 1646/2/4 1648/2/4
f 1646/2/4 1644/2/4 1648/2/4
f 1399/1/4 1647/1/4 1649/1/4
f 1647/3/4 1648/3/4 1649/3/4
f 1649/3/4 1648/3/4 1650/3/4
f 1648/2/4 1640/2/4 1651/2/4
f 1651/2/4 1640/2/4 1652/2/4
f 1650/3/4 1648/3/4 1653/3/4
f 1649/2/4 1650/2/4 1653/2/4
f 1648/2/4 1651/2/4 1654/2/4
f 1653/3/4 1648/3/4 1654/3/4
f 1651/3/4 1652/3/4 1655/3/4
f 1654/2/4 1651/2/4 1655/2/4
f 1652/2/4 1640/2/4 1656/2/4
f 1655/3/4 1652/3/4 1656/3/4
f 1654/2/4 1655/2/4 1657/2/4
f 1399/1/4 1649/1/4 1657/1/4
f 1655/2/4 1656/2/4 1657/2/4
f 1649/2/4 1653/2/4 1657/2/4
f 1653/2/4 1654/2/4 1657/2/4
f 1640/1/4 1608/1/4 1658/1/4
f 1657/2/4 1656/2/4 1658/2/4
f 1656/2/4 1640/2/4 1658/2/4
f 1657/1/4 1658/1/4 1659/1/4
f 1659/1/4 1658/1/4 1660/1/4
f 1399/1/4 1657/1/4 1661/1/4
f 1657/1/4 1659/1/4 1661/1/4
f 1659/3/4 1660/3/4 1662/3/4
f 1661/1/4 1659/1/4 1662/1/4
f 1660/1/4 1658/1/4 1663/1/4
f 1662/3/4 1660/3/4 1663/3/4
f 1658/1/4 1608/1/4 1664/1/4
f 1663/1/4 1658/1/4 1664/1/4
f 1661/2/4 1662/2/4 1665/2/4
f 1662/2/4 1663/2/4 1665/2/4
f 1663/2/4 1664/2/4 1665/2/4
f 1664/1/4 1608/1/4 1666/1/4
f 1665/2/4 1664/2/4 1666/2/4
f 1666/1/4 1608/1/4 1667/1/4
f 1667/1/4 1608/1/4 1668/1/4
f 1661/2/4 1665/2/4 1669/2/4
f 1665/3/4 1666/3/4 1670/3/4
f 1669/2/4 1665/2/4 1670/2/4
f 1670/3/4 1666/3/4 1671/3/4
f 1671/3/4 1666/3/4 1672/3/4
f 1672/3/4 1666/3/4 1673/3/4
f 1666/1/4 1667/1/4 1674/1/4
f 1673/3/4 1666/3/4 1674/3/4
f 1661/2/4 1669/2/4 1675/2/4
f 1669/3/4 1670/3/4 1675/3/4
f 1670/3/4 1671/3/4 1675/3/4
f 1671/4/4 1672/4/4 1676/4/4
f 1675/3/4 1671/3/4 1676/3/4
f 1672/3/4 1673/3/4 1677/3/4
f 1676/4/4 1672/4/4 1677/4/4
f 1673/4/4 1674/4/4 1678/4/4
f 1677/3/4 1673/3/4 1678/3/4
f 1674/1/4 1667/1/4 1679/1/4
f 1678/4/4 1674/4/4 1679/4/4
f 1667/3/4 1668/3/4 1680/3/4
f 1679/1/4 1667/1/4 1680/1/4
f 1680/3/4 1668/3/4 1681/3/4
f 1679/1/4 1680/1/4 1682/1/4
f 1680/1/4 1681/1/4 1682/1/4
f 1682/1/4 1681/1/4 1683/1/4
f 1679/1/4 1682/1/4 1684/1/4
f 1682/3/4 1683/3/4 1684/3/4
f 1684/3/4 1683/3/4 1685/3/4
f 1399/1/4 1661/1/4 1686/1/4
f 1677/2/4 1678/2/4 1686/2/4
f 1675/2/4 1676/2/4 1686/2/4
f 1678/2/4 1679/2/4 1686/2/4
f 1676/2/4 1677/2/4 1686/2/4
f 1661/2/4 1675/2/4 1686/2/4
f 1686/2/4 1679/2/4 1687/2/4
f 1684/1/4 1685/1/4 1688/1/4
f 1679/1/4 1684/1/4 1688/1/4
f 1688/1/4 1685/1/4 1689/1/4
f 1687/2/4 1679/2/4 1690/2/4
f 1690/2/4 1679/2/4 1691/2/4
f 1686/3/4 1687/3/4 1692/3/4
f 1399/1/4 1686/1/4 1692/1/4
f 1687/2/4 1690/2/4 1693/2/4
f 1692/3/4 1687/3/4 1693/3/4
f 1690/3/4 1691/3/4 1694/3/4
f 1693/2/4 1690/2/4 1694/2/4
f 1691/2/4 1679/2/4 1695/2/4
f 1694/3/4 1691/3/4 1695/3/4
f 1679/1/4 1688/1/4 1696/1/4
f 1688/3/4 1689/3/4 1696/3/4
f 1696/3/4 1689/3/4 1697/3/4
f 1693/2/4 1694/2/4 1698/2/4
f 1692/2/4 1693/2/4 1698/2/4
f 1694/2/4 1695/2/4 1698/2/4
f 1399/1/4 1692/1/4 1698/1/4
f 1698/2/4 1695/2/4 1699/2/4
f 1696/1/4 1697/1/4 1700/1/4
f 1679/1/4 1696/1/4 1700/1/4
f 1700/1/4 1697/1/4 1701/1/4
f 1699/2/4 1695/2/4 1702/2/4
f 1695/2/4 1679/2/4 1703/2/4
f 1702/2/4 1695/2/4 1703/2/4
f 1698/3/4 1699/3/4 1704/3/4
f 1399/1/4 1698/1/4 1704/1/4
f 1699/2/4 1702/2/4 1705/2/4
f 1704/3/4 1699/3/4 1705/3/4
f 1702/3/4 1703/3/4 1706/3/4
f 1705/2/4 1702/2/4 1706/2/4
f 1703/2/4 1679/2/4 1707/2/4
f 1706/3/4 1703/3/4 1707/3/4
f 1679/1/4 1700/1/4 1708/1/4
f 1700/3/4 1701/3/4 1708/3/4
f 1708/3/4 1701/3/4 1709/3/4
f 1399/1/4 1704/1/4 1710/1/4
f 1705/2/4 1706/2/4 1710/2/4
f 1704/2/4 1705/2/4 1710/2/4
f 1706/2/4 1707/2/4 1710/2/4
f 1710/2/4 1707/2/4 1711/2/4
f 1708/1/4 1709/1/4 1712/1/4
f 1711/2/4 1707/2/4 1712/2/4
f 1679/1/4 1708/1/4 1712/1/4
f 1707/2/4 1679/2/4 1712/2/4
f 1399/1/4 1710/1/4 1713/1/4
f 1710/3/4 1711/3/4 1714/3/4
f 1713/1/4 1710/1/4 1714/1/4
f 1711/1/4 1712/1/4 1715/1/4
f 1714/3/4 1711/3/4 1715/3/4
f 1712/1/4 1709/1/4 1716/1/4
f 1715/1/4 1712/1/4 1716/1/4
f 1719/1/5 1718/1/5 1717/1/5
f 1720/1/5 1718/1/5 1719/1/5
f 1776/1/5 1722/1/5 1721/1/5
f 1777/1/5 1722/1/5 1776/1/5
f 1778/1/5 1722/1/5 1777/1/5
f 1779/1/5 1724/1/5 1723/1/5
f 1780/1/5 1724/1/5 1779/1/5
f 1781/1/5 1726/1/5 1725/1/5
f 1782/1/5 1726/1/5 1781/1/5
f 1783/1/5 1728/1/5 1727/1/5
f 1784/1/5 1728/1/5 1783/1/5
f 1785/3/5 1730/3/5 1729/3/5
f 1786/3/5 1730/3/5 1785/3/5
f 1787/3/5 1730/3/5 1786/3/5
f 1788/3/5 1732/3/5 1731/3/5
f 1789/3/5 1732/3/5 1788/3/5
f 1790/1/5 1734/1/5 1733/1/5
f 1791/1/5 1734/1/5 1790/1/5
f 1792/1/5 1736/1/5 1735/1/5
f 1793/1/5 1736/1/5 1792/1/5
f 1794/1/5 1738/1/5 1737/1/5
f 1795/1/5 1738/1/5 1794/1/5
f 1796/1/5 1740/1/5 1739/1/5
f 1797/1/5 1740/1/5 1796/1/5
f 1798/1/5 1742/1/5 1741/1/5
f 1799/1/5 1742/1/5 1798/1/5
f 1800/1/5 1744/1/5 1743/1/5
f 1801/3/5 1745/3/5 1744/3/5
f 1801/1/5 1744/1/5 1800/1/5
f 1802/3/5 1745/3/5 1801/3/5
f 1803/1/5 1747/1/5 1746/1/5
f 1804/1/5 1747/1/5 1803/1/5
f 1805/1/5 1749/1/5 1748/1/5
f 1806/1/5 1749/1/5 1805/1/5
f 1807/1/5 1751/1/5 1750/1/5
f 1808/1/5 1751/1/5 1807/1/5
f 1809/1/5 1753/1/5 1752/1/5
f 1810/1/5 1753/1/5 1809/1/5
f 1811/1/5 1755/1/5 1754/1/5
f 1812/1/5 1755/1/5 1811/1/5
f 1813/1/5 1755/1/5 1812/1/5
f 1814/1/5 1757/1/5 1756/1/5
f 1815/1/5 1757/1/5 1814/1/5
f 1816/1/5 1757/1/5 1815/1/5
f 1817/1/5 1759/1/5 1758/1/5
f 1818/1/5 1759/1/5 1817/1/5
f 1819/1/5 1759/1/5 1818/1/5
f 1820/1/5 1761/1/5 1760/1/5
f 1821/1/5 1761/1/5 1820/1/5
f 1822/1/5 1763/1/5 1762/1/5
f 1823/1/5 1763/1/5 1822/1/5
f 1824/1/5 1765/1/5 1764/1/5
f 1825/1/5 1765/1/5 1824/1/5
f 1826/1/5 1767/1/5 1766/1/5
f 1827/1/5 1767/1/5 1826/1/5
f 1828/1/5 1767/1/5 1827/1/5
f 1829/1/5 1769/1/5 1768/1/5
f 1830/1/5 1769/1/5 1829/1/5
f 1831/1/5 1771/1/5 1770/1/5
f 1832/1/5 1771/1/5 1831/1/5
f 1833/1/5 1773/1/5 1772/1/5
f 1834/1/5 1773/1/5 1833/1/5
f 1835/1/5 1775/1/5 1774/1/5
f 1836/1/5 1775/1/5 1835/1/5
f 1837/3/6 1838/3/6 1895/3/6
f 1838/4/6 1839/4/6 1896/4/6
f 1895/3/6 1838/3/6 1896/3/6
f 1896/4/6 1839/4/6 1897/4/6
f 1840/1/6 1841/1/6 1898/1/6
f 1898/1/6 1841/1/6 1899/1/6
f 1842/1/6 1843/1/6 1900/1/6
f 1900/1/6 1843/1/6 1901/1/6
f 1901/1/6 1843/1/6 1902/1/6
f 1844/3/6 1845/3/6 1903/3/6
f 1903/3/6 1845/3/6 1904/3/6
f 1904/3/6 1845/3/6 1905/3/6
f 1846/3/6 1847/3/6 1906/3/6
f 1906/3/6 1847/3/6 1907/3/6
f 1848/3/6 1849/3/6 1908/3/6
f 1849/1/6 1850/1/6 1909/1/6
f 1908/3/6 1849/3/6 1909/3/6
f 1909/1/6 1850/1/6 1910/1/6
f 1851/1/6 1852/1/6 1911/1/6
f 1911/1/6 1852/1/6 1912/1/6
f 1853/1/6 1854/1/6 1913/1/6
f 1913/1/6 1854/1/6 1914/1/6
f 1914/1/6 1854/1/6 1915/1/6
f 1855/1/6 1856/1/6 1916/1/6
f 1916/1/6 1856/1/6 1917/1/6
f 1857/1/6 1858/1/6 1918/1/6
f 1918/1/6 1858/1/6 1919/1/6
f 1859/1/6 1860/1/6 1920/1/6
f 1920/1/6 1860/1/6 1921/1/6
f 1861/1/6 1862/1/6 1922/1/6
f 1862/3/6 1863/3/6 1923/3/6
f 1922/1/6 1862/1/6 1923/1/6
f 1923/3/6 1863/3/6 1924/3/6
f 1864/1/6 1865/1/6 1925/1/6
f 1925/1/6 1865/1/6 1926/1/6
f 1926/1/6 1865/1/6 1927/1/6
f 1866/1/6 1867/1/6 1928/1/6
f 1928/1/6 1867/1/6 1929/1/6
f 1868/1/6 1869/1/6 1930/1/6
f 1930/1/6 1869/1/6 1931/1/6
f 1870/3/6 1871/3/6 1932/3/6
f 1871/1/6 1872/1/6 1933/1/6
f 1932/3/6 1871/3/6 1933/3/6
f 1933/1/6 1872/1/6 1934/1/6
f 1873/1/6 1874/1/6 1935/1/6
f 1935/1/6 1874/1/6 1936/1/6
f 1875/1/6 1876/1/6 1937/1/6
f 1937/1/6 1876/1/6 1938/1/6
f 1877/1/6 1878/1/6 1939/1/6
f 1939/1/6 1878/1/6 1940/1/6
f 1940/1/6 1878/1/6 1941/1/6
f 1879/1/6 1880/1/6 1942/1/6
f 1942/1/6 1880/1/6 1943/1/6
f 1881/1/6 1882/1/6 1944/1/6
f 1944/1/6 1882/1/6 1945/1/6
f 1945/1/6 1882/1/6 1946/1/6
f 1883/1/6 1884/1/6 1947/1/6
f 1947/1/6 1884/1/6 1948/1/6
f 1885/1/6 1886/1/6 1949/1/6
f 1949/1/6 1886/1/6 1950/1/6
f 1887/1/6 1888/1/6 1951/1/6
f 1951/1/6 1888/1/6 1952/1/6
f 1889/1/6 1890/1/6 1953/1/6
f 1953/1/6 1890/1/6 1954/1/6
f 1891/1/6 1892/1/6 1955/1/6
f 1955/1/6 1892/1/6 1956/1/6
f 1893/1/6 1894/1/6 1957/1/6
f 1957/1/6 1894/1/6 1958/1/6
f 1959/1/6 1960/1/6 1965/1/6
f 1960/3/6 1961/3/6 1965/3/6
f 1961/1/6 1962/1/6 1966/1/6
f 1965/3/6 1961/3/6 1966/3/6
f 1962/3/6 1963/3/6 1967/3/6
f 1966/1/6 1962/1/6 1967/1/6
f 1963/1/6 1964/1/6 1968/1/6
f 1967/3/6 1963/3/6 1968/3/6
f 1968/1/6 1964/1/6 1969/1/6
f 1969/1/6 1964/1/6 1970/1/6
f 1970/1/6 1964/1/6 1971/1/6
f 1971/1/6 1964/1/6 1972/1/6
f 1972/1/6 1964/1/6 1973/1/6
f 1973/1/6 1964/1/6 1974/1/6
f 1974/1/6 1964/1/6 1975/1/6
f 1975/1/6 1964/1/6 1976/1/6
f 1976/1/6 1964/1/6 1977/1/6
f 1977/1/6 1964/1/6 1978/1/6
f 1978/1/6 1964/1/6 1979/1/6
f 1979/1/6 1964/1/6 1980/1/6
f 1980/1/6 1964/1/6 1981/1/6
f 1981/1/6 1964/1/6 1982/1/6
f 1982/1/6 1964/1/6 1983/1/6
f 1983/1/6 1964/1/6 1984/1/6
f 1966/1/6 1967/1/6 1985/1/6
f 1965/1/6 1966/1/6 1985/1/6
f 1959/1/6 1965/1/6 1985/1/6
f 1967/1/6 1968/1/6 1985/1/6
f 1968/1/6 1969/1/6 1985/1/6
f 1969/3/6 1970/3/6 1986/3/6
f 1985/1/6 1969/1/6 1986/1/6
f 1970/1/6 1971/1/6 1987/1/6
f 1986/3/6 1970/3/6 1987/3/6
f 1971/3/6 1972/3/6 1988/3/6
f 1987/1/6 1971/1/6 1988/1/6
f 1972/1/6 1973/1/6 1989/1/6
f 1988/3/6 1972/3/6 1989/3/6
f 1973/3/6 1974/3/6 1990/3/6
f 1989/1/6 1973/1/6 1990/1/6
f 1974/1/6 1975/1/6 1991/1/6
f 1990/3/6 1974/3/6 1991/3/6
f 1975/3/6 1976/3/6 1992/3/6
f 1991/1/6 1975/1/6 1992/1/6
f 1976/1/6 1977/1/6 1993/1/6
f 1992/3/6 1976/3/6 1993/3/6
f 1977/3/6 1978/3/6 1994/3/6
f 1993/1/6 1977/1/6 1994/1/6
f 1978/1/6 1979/1/6 1995/1/6
f 1994/3/6 1978/3/6 1995/3/6
f 1979/3/6 1980/3/6 1996/3/6
f 1995/1/6 1979/1/6 1996/1/6
f 1980/1/6 1981/1/6 1997/1/6
f 1996/3/6 1980/3/6 1997/3/6
f 1981/3/6 1982/3/6 1998/3/6
f 1997/1/6 1981/1/6 1998/1/6
f 1982/1/6 1983/1/6 1999/1/6
f 1998/3/6 1982/3/6 1999/3/6
f 1983/3/6 1984/3/6 2000/3/6
f 1999/1/6 1983/1/6 2000/1/6
f 1984/1/6 1964/1/6 2001/1/6
f 2000/3/6 1984/3/6 2001/3/6
f 2001/1/6 1964/1/6 2002/1/6
