# MagicaVoxel @ Ephtracy

# group
o arch-brick-50x45x7

# material
mtllib components-18-arch-brick-50x45x7.mtl
usemtl palette

# normals
vn -1 0 0
vn 1 0 0
vn 0 0 1
vn 0 0 -1
vn 0 -1 0
vn 0 1 0

# texcoords
vt 0.345703 0.5
vt 0.376953 0.5
vt 0.380859 0.5
vt 0.384766 0.5
vt 0.994141 0.5

# verts
v -2.5 0 4.2
v -2.5 0 3.5
v -2.5 0.2 4.2
v -2.5 0.2 4.1
v -2.5 0.2 3.6
v -2.5 0.2 3.5
v -2.5 0.3 4.2
v -2.5 0.3 4.1
v -2.5 0.3 3.6
v -2.5 0.3 3.5
v -2.5 0.5 4.2
v -2.5 0.5 4.1
v -2.5 0.5 3.6
v -2.5 0.5 3.5
v -2.5 0.6 4.2
v -2.5 0.6 4.1
v -2.5 0.6 3.6
v -2.5 0.6 3.5
v -2.5 0.8 4.2
v -2.5 0.8 4.1
v -2.5 0.8 3.6
v -2.5 0.8 3.5
v -2.5 0.9 4.2
v -2.5 0.9 4.1
v -2.5 0.9 3.6
v -2.5 0.9 3.5
v -2.5 1.1 4.2
v -2.5 1.1 4.1
v -2.5 1.1 3.6
v -2.5 1.1 3.5
v -2.5 1.2 4.2
v -2.5 1.2 4.1
v -2.5 1.2 3.6
v -2.5 1.2 3.5
v -2.5 1.4 4.2
v -2.5 1.4 4.1
v -2.5 1.4 3.6
v -2.5 1.4 3.5
v -2.5 1.5 4.2
v -2.5 1.5 4.1
v -2.5 1.5 3.6
v -2.5 1.5 3.5
v -2.5 1.7 4.2
v -2.5 1.7 4.1
v -2.5 1.7 3.6
v -2.5 1.7 3.5
v -2.5 1.8 4.2
v -2.5 1.8 4.1
v -2.5 1.8 3.6
v -2.5 1.8 3.5
v -2.5 2 4.2
v -2.5 2 4.1
v -2.5 2 3.6
v -2.5 2 3.5
v -2.5 2.1 4.2
v -2.5 2.1 4.1
v -2.5 2.1 3.6
v -2.5 2.1 3.5
v -2.5 2.3 4.2
v -2.5 2.3 4.1
v -2.5 2.3 3.6
v -2.5 2.3 3.5
v -2.5 2.4 4.2
v -2.5 2.4 4.1
v -2.5 2.4 3.6
v -2.5 2.4 3.5
v -2.5 2.6 4.2
v -2.5 2.6 4.1
v -2.5 2.6 3.6
v -2.5 2.6 3.5
v -2.5 2.7 4.2
v -2.5 2.7 4.1
v -2.5 2.7 3.6
v -2.5 2.7 3.5
v -2.5 2.9 4.2
v -2.5 2.9 4.1
v -2.5 2.9 3.6
v -2.5 2.9 3.5
v -2.5 3 4.2
v -2.5 3 4.1
v -2.5 3 3.6
v -2.5 3 3.5
v -2.5 3.2 4.2
v -2.5 3.2 4.1
v -2.5 3.2 3.6
v -2.5 3.2 3.5
v -2.5 3.3 4.2
v -2.5 3.3 4.1
v -2.5 3.3 3.6
v -2.5 3.3 3.5
v -2.5 3.6 4.2
v -2.5 3.6 3.5
v -2.3 3.6 4.1
v -2.3 3.6 3.6
v -2.3 3.8 4.1
v -2.3 3.8 3.6
v -2.2 3.6 4.2
v -2.2 3.6 4.1
v -2.2 3.6 3.6
v -2.2 3.6 3.5
v -2.2 3.8 4.2
v -2.2 3.8 4.1
v -2.2 3.8 3.6
v -2.2 3.8 3.5
v -2 3.8 4.1
v -2 3.8 3.6
v -2 4 4.1
v -2 4 3.6
v -1.9 3.8 4.2
v -1.9 3.8 4.1
v -1.9 3.8 3.6
v -1.9 3.8 3.5
v -1.9 4 4.2
v -1.9 4 4.1
v -1.9 4 3.6
v -1.9 4 3.5
v -1.7 4 4.1
v -1.7 4 3.6
v -1.7 4.1 4.1
v -1.7 4.1 3.6
v -1.6 4 4.2
v -1.6 4 4.1
v -1.6 4 3.6
v -1.6 4 3.5
v -1.6 4.1 4.2
v -1.6 4.1 4.1
v -1.6 4.1 3.6
v -1.6 4.1 3.5
v -1.4 3.8 4.2
v -1.4 3.8 4.1
v -1.4 3.9 4.2
v -1.4 3.9 4.1
v -1.4 4.1 4.1
v -1.4 4.1 3.6
v -1.4 4.2 4.1
v -1.4 4.2 3.6
v -1.3 4.1 4.2
v -1.3 4.1 4.1
v -1.3 4.1 3.6
v -1.3 4.1 3.5
v -1.3 4.2 4.2
v -1.3 4.2 4.1
v -1.3 4.2 3.6
v -1.3 4.2 3.5
v -1.1 4.2 4.1
v -1.1 4.2 3.6
v -1.1 4.3 4.1
v -1.1 4.3 3.6
v -1 4.2 4.2
v -1 4.2 4.1
v -1 4.2 3.6
v -1 4.2 3.5
v -1 4.3 4.2
v -1 4.3 4.1
v -1 4.3 3.6
v -1 4.3 3.5
v -0.7 4.3 4.1
v -0.7 4.3 3.7
v -0.7 4.3 3.6
v -0.7 4.4 4.1
v -0.7 4.4 3.6
v -0.6 4.3 4.2
v -0.6 4.3 4.1
v -0.6 4.3 3.6
v -0.6 4.3 3.5
v -0.6 4.4 4.2
v -0.6 4.4 4.1
v -0.6 4.4 3.6
v -0.6 4.4 3.5
v -1.5 3.8 4.2
v -1.5 3.8 4.1
v -1.5 3.9 4.2
v -1.5 3.9 4.1
v 0.6 4.3 4.2
v 0.6 4.3 4.1
v 0.6 4.3 3.6
v 0.6 4.3 3.5
v 0.6 4.4 4.2
v 0.6 4.4 4.1
v 0.6 4.4 3.6
v 0.6 4.4 3.5
v 0.7 4.3 4.1
v 0.7 4.3 3.6
v 0.7 4.4 4.1
v 0.7 4.4 3.6
v 1 4.2 4.2
v 1 4.2 4.1
v 1 4.2 3.6
v 1 4.2 3.5
v 1 4.3 4.2
v 1 4.3 4.1
v 1 4.3 3.6
v 1 4.3 3.5
v 1.1 4.2 4.1
v 1.1 4.2 3.6
v 1.1 4.3 4.1
v 1.1 4.3 3.6
v 1.3 4.1 4.2
v 1.3 4.1 4.1
v 1.3 4.1 3.6
v 1.3 4.1 3.5
v 1.3 4.2 4.2
v 1.3 4.2 4.1
v 1.3 4.2 3.6
v 1.3 4.2 3.5
v 1.4 4.1 4.1
v 1.4 4.1 3.6
v 1.4 4.2 4.1
v 1.4 4.2 3.6
v 1.6 4 4.2
v 1.6 4 4.1
v 1.6 4 3.6
v 1.6 4 3.5
v 1.6 4.1 4.2
v 1.6 4.1 4.1
v 1.6 4.1 3.6
v 1.6 4.1 3.5
v 1.7 4 4.1
v 1.7 4 3.6
v 1.7 4.1 4.1
v 1.7 4.1 3.6
v 1.9 3.8 4.2
v 1.9 3.8 4.1
v 1.9 3.8 3.6
v 1.9 3.8 3.5
v 1.9 4 4.2
v 1.9 4 4.1
v 1.9 4 3.6
v 1.9 4 3.5
v 2 3.8 4.1
v 2 3.8 3.6
v 2 4 4.1
v 2 4 3.6
v 2.2 3.6 4.2
v 2.2 3.6 4.1
v 2.2 3.6 3.6
v 2.2 3.6 3.5
v 2.2 3.8 4.2
v 2.2 3.8 4.1
v 2.2 3.8 3.6
v 2.2 3.8 3.5
v 2.3 3.6 4.1
v 2.3 3.6 3.6
v 2.3 3.8 4.1
v 2.3 3.8 3.6
v 2.5 0 4.2
v 2.5 0 3.5
v 2.5 0.2 4.2
v 2.5 0.2 4.1
v 2.5 0.2 3.6
v 2.5 0.2 3.5
v 2.5 0.3 4.2
v 2.5 0.3 4.1
v 2.5 0.3 3.6
v 2.5 0.3 3.5
v 2.5 0.5 4.2
v 2.5 0.5 4.1
v 2.5 0.5 3.6
v 2.5 0.5 3.5
v 2.5 0.6 4.2
v 2.5 0.6 4.1
v 2.5 0.6 3.6
v 2.5 0.6 3.5
v 2.5 0.8 4.2
v 2.5 0.8 4.1
v 2.5 0.8 3.6
v 2.5 0.8 3.5
v 2.5 0.9 4.2
v 2.5 0.9 4.1
v 2.5 0.9 3.6
v 2.5 0.9 3.5
v 2.5 1.1 4.2
v 2.5 1.1 4.1
v 2.5 1.1 3.6
v 2.5 1.1 3.5
v 2.5 1.2 4.2
v 2.5 1.2 4.1
v 2.5 1.2 3.6
v 2.5 1.2 3.5
v 2.5 1.4 4.2
v 2.5 1.4 4.1
v 2.5 1.4 3.6
v 2.5 1.4 3.5
v 2.5 1.5 4.2
v 2.5 1.5 4.1
v 2.5 1.5 3.6
v 2.5 1.5 3.5
v 2.5 1.7 4.2
v 2.5 1.7 4.1
v 2.5 1.7 3.6
v 2.5 1.7 3.5
v 2.5 1.8 4.2
v 2.5 1.8 4.1
v 2.5 1.8 3.6
v 2.5 1.8 3.5
v 2.5 2 4.2
v 2.5 2 4.1
v 2.5 2 3.6
v 2.5 2 3.5
v 2.5 2.1 4.2
v 2.5 2.1 4.1
v 2.5 2.1 3.6
v 2.5 2.1 3.5
v 2.5 2.3 4.2
v 2.5 2.3 4.1
v 2.5 2.3 3.6
v 2.5 2.3 3.5
v 2.5 2.4 4.2
v 2.5 2.4 4.1
v 2.5 2.4 3.6
v 2.5 2.4 3.5
v 2.5 2.6 4.2
v 2.5 2.6 4.1
v 2.5 2.6 3.6
v 2.5 2.6 3.5
v 2.5 2.7 4.2
v 2.5 2.7 4.1
v 2.5 2.7 3.6
v 2.5 2.7 3.5
v 2.5 2.9 4.2
v 2.5 2.9 4.1
v 2.5 2.9 3.6
v 2.5 2.9 3.5
v 2.5 3 4.2
v 2.5 3 4.1
v 2.5 3 3.6
v 2.5 3 3.5
v 2.5 3.2 4.2
v 2.5 3.2 4.1
v 2.5 3.2 3.6
v 2.5 3.2 3.5
v 2.5 3.3 4.2
v 2.5 3.3 4.1
v 2.5 3.3 3.6
v 2.5 3.3 3.5
v 2.5 3.6 4.2
v 2.5 3.6 3.5
v -2.5 0 4.2
v -2.5 0.2 4.2
v -2.5 0.3 4.2
v -2.5 0.5 4.2
v -2.5 0.6 4.2
v -2.5 0.8 4.2
v -2.5 0.9 4.2
v -2.5 1.1 4.2
v -2.5 1.2 4.2
v -2.5 1.4 4.2
v -2.5 1.5 4.2
v -2.5 1.7 4.2
v -2.5 1.8 4.2
v -2.5 2 4.2
v -2.5 2.1 4.2
v -2.5 2.3 4.2
v -2.5 2.4 4.2
v -2.5 2.6 4.2
v -2.5 2.7 4.2
v -2.5 2.9 4.2
v -2.5 3 4.2
v -2.5 3.2 4.2
v -2.5 3.3 4.2
v -2.5 3.6 4.2
v -2.3 3.3 4.2
v -2.3 3.6 4.2
v -2.2 0 4.2
v -2.2 0.2 4.2
v -2.2 0.3 4.2
v -2.2 0.5 4.2
v -2.2 0.6 4.2
v -2.2 0.8 4.2
v -2.2 0.9 4.2
v -2.2 1.1 4.2
v -2.2 1.2 4.2
v -2.2 1.4 4.2
v -2.2 1.5 4.2
v -2.2 1.7 4.2
v -2.2 1.8 4.2
v -2.2 2 4.2
v -2.2 2.1 4.2
v -2.2 2.3 4.2
v -2.2 2.4 4.2
v -2.2 2.6 4.2
v -2.2 2.7 4.2
v -2.2 2.9 4.2
v -2.2 3 4.2
v -2.2 3.2 4.2
v -2.2 3.5 4.2
v -2.2 3.6 4.2
v -2.2 3.8 4.2
v -2 3.5 4.2
v -2 3.8 4.2
v -1.9 3.7 4.2
v -1.9 3.8 4.2
v -1.9 4 4.2
v -1.7 3.7 4.2
v -1.7 4 4.2
v -1.6 3.8 4.2
v -1.6 4 4.2
v -1.6 4.1 4.2
v -1.5 3.8 4.2
v -1.5 3.9 4.2
v -1.4 3.8 4.2
v -1.4 3.9 4.2
v -1.4 4.1 4.2
v -1.3 3.9 4.2
v -1.3 4.1 4.2
v -1.3 4.2 4.2
v -1.1 3.9 4.2
v -1.1 4.2 4.2
v -1 4 4.2
v -1 4.2 4.2
v -1 4.3 4.2
v -0.8 4 4.2
v -0.8 4.3 4.2
v -0.7 4.1 4.2
v -0.7 4.3 4.2
v -0.6 4.3 4.2
v -0.6 4.4 4.2
v -0.5 4.1 4.2
v -0.5 4.4 4.2
v -0.4 4.1 4.2
v -0.4 4.4 4.2
v -0.2 4.1 4.2
v -0.2 4.4 4.2
v -0.0999999 4.1 4.2
v -0.0999999 4.4 4.2
v 0.1 4.1 4.2
v 0.1 4.4 4.2
v 0.2 4.1 4.2
v 0.2 4.4 4.2
v 0.4 4.1 4.2
v 0.4 4.4 4.2
v 0.5 4.1 4.2
v 0.5 4.4 4.2
v 0.6 4.3 4.2
v 0.6 4.4 4.2
v 0.7 4.1 4.2
v 0.7 4.3 4.2
v 0.8 4 4.2
v 0.8 4.3 4.2
v 1 4 4.2
v 1 4.2 4.2
v 1 4.3 4.2
v 1.1 3.9 4.2
v 1.1 4.2 4.2
v 1.3 3.9 4.2
v 1.3 4.1 4.2
v 1.3 4.2 4.2
v 1.4 3.9 4.2
v 1.4 4.1 4.2
v 1.5 3.8 4.2
v 1.5 3.9 4.2
v 1.6 3.8 4.2
v 1.6 4 4.2
v 1.6 4.1 4.2
v 1.7 3.7 4.2
v 1.7 4 4.2
v 1.9 3.7 4.2
v 1.9 3.8 4.2
v 1.9 4 4.2
v 2 3.5 4.2
v 2 3.8 4.2
v 2.2 0 4.2
v 2.2 0.2 4.2
v 2.2 0.3 4.2
v 2.2 0.5 4.2
v 2.2 0.6 4.2
v 2.2 0.8 4.2
v 2.2 0.9 4.2
v 2.2 1.1 4.2
v 2.2 1.2 4.2
v 2.2 1.4 4.2
v 2.2 1.5 4.2
v 2.2 1.7 4.2
v 2.2 1.8 4.2
v 2.2 2 4.2
v 2.2 2.1 4.2
v 2.2 2.3 4.2
v 2.2 2.4 4.2
v 2.2 2.6 4.2
v 2.2 2.7 4.2
v 2.2 2.9 4.2
v 2.2 3 4.2
v 2.2 3.2 4.2
v 2.2 3.5 4.2
v 2.2 3.6 4.2
v 2.2 3.8 4.2
v 2.3 3.3 4.2
v 2.3 3.6 4.2
v 2.5 0 4.2
v 2.5 0.2 4.2
v 2.5 0.3 4.2
v 2.5 0.5 4.2
v 2.5 0.6 4.2
v 2.5 0.8 4.2
v 2.5 0.9 4.2
v 2.5 1.1 4.2
v 2.5 1.2 4.2
v 2.5 1.4 4.2
v 2.5 1.5 4.2
v 2.5 1.7 4.2
v 2.5 1.8 4.2
v 2.5 2 4.2
v 2.5 2.1 4.2
v 2.5 2.3 4.2
v 2.5 2.4 4.2
v 2.5 2.6 4.2
v 2.5 2.7 4.2
v 2.5 2.9 4.2
v 2.5 3 4.2
v 2.5 3.2 4.2
v 2.5 3.3 4.2
v 2.5 3.6 4.2
v -2.3 3.6 4.1
v -2.3 3.8 4.1
v -2.2 3.6 4.1
v -2.2 3.8 4.1
v -2 3.8 4.1
v -2 4 4.1
v -1.9 3.8 4.1
v -1.9 4 4.1
v -1.7 4 4.1
v -1.7 4.1 4.1
v -1.6 4 4.1
v -1.6 4.1 4.1
v -1.5 3.8 4.1
v -1.5 3.9 4.1
v -1.4 3.8 4.1
v -1.4 3.9 4.1
v -1.4 4.1 4.1
v -1.4 4.2 4.1
v -1.3 4.1 4.1
v -1.3 4.2 4.1
v -1.1 4.2 4.1
v -1.1 4.3 4.1
v -1 4.2 4.1
v -1 4.3 4.1
v -0.7 4.3 4.1
v -0.7 4.4 4.1
v -0.6 4.3 4.1
v -0.6 4.4 4.1
v 0.6 4.3 4.1
v 0.6 4.4 4.1
v 0.7 4.3 4.1
v 0.7 4.4 4.1
v 1 4.2 4.1
v 1 4.3 4.1
v 1.1 4.2 4.1
v 1.1 4.3 4.1
v 1.3 4.1 4.1
v 1.3 4.2 4.1
v 1.4 4.1 4.1
v 1.4 4.2 4.1
v 1.6 4 4.1
v 1.6 4.1 4.1
v 1.7 4 4.1
v 1.7 4.1 4.1
v 1.9 3.8 4.1
v 1.9 4 4.1
v 2 3.8 4.1
v 2 4 4.1
v 2.2 3.6 4.1
v 2.2 3.8 4.1
v 2.3 3.6 4.1
v 2.3 3.8 4.1
v -2.3 3.6 3.6
v -2.3 3.8 3.6
v -2.2 3.6 3.6
v -2.2 3.8 3.6
v -2 3.8 3.6
v -2 4 3.6
v -1.9 3.8 3.6
v -1.9 4 3.6
v -1.7 4 3.6
v -1.7 4.1 3.6
v -1.6 4 3.6
v -1.6 4.1 3.6
v -1.4 4.1 3.6
v -1.4 4.2 3.6
v -1.3 4.1 3.6
v -1.3 4.2 3.6
v -1.1 4.2 3.6
v -1.1 4.3 3.6
v -1 4.2 3.6
v -1 4.3 3.6
v -0.7 4.3 3.6
v -0.7 4.4 3.6
v -0.6 4.3 3.6
v -0.6 4.4 3.6
v 0.6 4.3 3.6
v 0.6 4.4 3.6
v 0.7 4.3 3.6
v 0.7 4.4 3.6
v 1 4.2 3.6
v 1 4.3 3.6
v 1.1 4.2 3.6
v 1.1 4.3 3.6
v 1.3 4.1 3.6
v 1.3 4.2 3.6
v 1.4 4.1 3.6
v 1.4 4.2 3.6
v 1.6 4 3.6
v 1.6 4.1 3.6
v 1.7 4 3.6
v 1.7 4.1 3.6
v 1.9 3.8 3.6
v 1.9 4 3.6
v 2 3.8 3.6
v 2 4 3.6
v 2.2 3.6 3.6
v 2.2 3.8 3.6
v 2.3 3.6 3.6
v 2.3 3.8 3.6
v -2.5 0 3.5
v -2.5 0.2 3.5
v -2.5 0.3 3.5
v -2.5 0.5 3.5
v -2.5 0.6 3.5
v -2.5 0.8 3.5
v -2.5 0.9 3.5
v -2.5 1.1 3.5
v -2.5 1.2 3.5
v -2.5 1.4 3.5
v -2.5 1.5 3.5
v -2.5 1.7 3.5
v -2.5 1.8 3.5
v -2.5 2 3.5
v -2.5 2.1 3.5
v -2.5 2.3 3.5
v -2.5 2.4 3.5
v -2.5 2.6 3.5
v -2.5 2.7 3.5
v -2.5 2.9 3.5
v -2.5 3 3.5
v -2.5 3.2 3.5
v -2.5 3.3 3.5
v -2.5 3.6 3.5
v -2.3 3.3 3.5
v -2.3 3.6 3.5
v -2.2 0 3.5
v -2.2 0.2 3.5
v -2.2 0.3 3.5
v -2.2 0.5 3.5
v -2.2 0.6 3.5
v -2.2 0.8 3.5
v -2.2 0.9 3.5
v -2.2 1.1 3.5
v -2.2 1.2 3.5
v -2.2 1.4 3.5
v -2.2 1.5 3.5
v -2.2 1.7 3.5
v -2.2 1.8 3.5
v -2.2 2 3.5
v -2.2 2.1 3.5
v -2.2 2.3 3.5
v -2.2 2.4 3.5
v -2.2 2.6 3.5
v -2.2 2.7 3.5
v -2.2 2.9 3.5
v -2.2 3 3.5
v -2.2 3.2 3.5
v -2.2 3.5 3.5
v -2.2 3.6 3.5
v -2.2 3.8 3.5
v -2 3.5 3.5
v -2 3.8 3.5
v -1.9 3.7 3.5
v -1.9 3.8 3.5
v -1.9 4 3.5
v -1.7 3.7 3.5
v -1.7 4 3.5
v -1.6 3.8 3.5
v -1.6 4 3.5
v -1.6 4.1 3.5
v -1.5 3.8 3.5
v -1.5 3.9 3.5
v -1.4 3.8 3.5
v -1.4 3.9 3.5
v -1.4 4.1 3.5
v -1.3 3.9 3.5
v -1.3 4.1 3.5
v -1.3 4.2 3.5
v -1.1 3.9 3.5
v -1.1 4.2 3.5
v -1 4 3.5
v -1 4.2 3.5
v -1 4.3 3.5
v -0.8 4 3.5
v -0.8 4.3 3.5
v -0.7 4.1 3.5
v -0.7 4.3 3.5
v -0.6 4.3 3.5
v -0.6 4.4 3.5
v -0.5 4.1 3.5
v -0.5 4.4 3.5
v -0.4 4.1 3.5
v -0.4 4.4 3.5
v -0.2 4.1 3.5
v -0.2 4.4 3.5
v -0.0999999 4.1 3.5
v -0.0999999 4.4 3.5
v 0.1 4.1 3.5
v 0.1 4.4 3.5
v 0.2 4.1 3.5
v 0.2 4.4 3.5
v 0.4 4.1 3.5
v 0.4 4.4 3.5
v 0.5 4.1 3.5
v 0.5 4.4 3.5
v 0.6 4.3 3.5
v 0.6 4.4 3.5
v 0.7 4.1 3.5
v 0.7 4.3 3.5
v 0.8 4 3.5
v 0.8 4.3 3.5
v 1 4 3.5
v 1 4.2 3.5
v 1 4.3 3.5
v 1.1 3.9 3.5
v 1.1 4.2 3.5
v 1.3 3.9 3.5
v 1.3 4.1 3.5
v 1.3 4.2 3.5
v 1.4 3.9 3.5
v 1.4 4.1 3.5
v 1.5 3.8 3.5
v 1.5 3.9 3.5
v 1.6 3.8 3.5
v 1.6 4 3.5
v 1.6 4.1 3.5
v 1.7 3.7 3.5
v 1.7 4 3.5
v 1.9 3.7 3.5
v 1.9 3.8 3.5
v 1.9 4 3.5
v 2 3.5 3.5
v 2 3.8 3.5
v 2.2 0 3.5
v 2.2 0.2 3.5
v 2.2 0.3 3.5
v 2.2 0.5 3.5
v 2.2 0.6 3.5
v 2.2 0.8 3.5
v 2.2 0.9 3.5
v 2.2 1.1 3.5
v 2.2 1.2 3.5
v 2.2 1.4 3.5
v 2.2 1.5 3.5
v 2.2 1.7 3.5
v 2.2 1.8 3.5
v 2.2 2 3.5
v 2.2 2.1 3.5
v 2.2 2.3 3.5
v 2.2 2.4 3.5
v 2.2 2.6 3.5
v 2.2 2.7 3.5
v 2.2 2.9 3.5
v 2.2 3 3.5
v 2.2 3.2 3.5
v 2.2 3.5 3.5
v 2.2 3.6 3.5
v 2.2 3.8 3.5
v 2.3 3.3 3.5
v 2.3 3.6 3.5
v 2.5 0 3.5
v 2.5 0.2 3.5
v 2.5 0.3 3.5
v 2.5 0.5 3.5
v 2.5 0.6 3.5
v 2.5 0.8 3.5
v 2.5 0.9 3.5
v 2.5 1.1 3.5
v 2.5 1.2 3.5
v 2.5 1.4 3.5
v 2.5 1.5 3.5
v 2.5 1.7 3.5
v 2.5 1.8 3.5
v 2.5 2 3.5
v 2.5 2.1 3.5
v 2.5 2.3 3.5
v 2.5 2.4 3.5
v 2.5 2.6 3.5
v 2.5 2.7 3.5
v 2.5 2.9 3.5
v 2.5 3 3.5
v 2.5 3.2 3.5
v 2.5 3.3 3.5
v 2.5 3.6 3.5
v -2.5 0 4.2
v -2.2 0 4.2
v 2.2 0 4.2
v 2.5 0 4.2
v -2.5 0 3.5
v -2.2 0 3.5
v 2.2 0 3.5
v 2.5 0 3.5
v -1.5 3.9 4.2
v -1.4 3.9 4.2
v -1.5 3.9 4.1
v -1.4 3.9 4.1
v -2.5 3.6 4.2
v -2.3 3.6 4.2
v -2.2 3.6 4.2
v 2.2 3.6 4.2
v 2.3 3.6 4.2
v 2.5 3.6 4.2
v -2.3 3.6 4.1
v -2.2 3.6 4.1
v 2.2 3.6 4.1
v 2.3 3.6 4.1
v -2.3 3.6 3.6
v -2.2 3.6 3.6
v 2.2 3.6 3.6
v 2.3 3.6 3.6
v -2.5 3.6 3.5
v -2.3 3.6 3.5
v -2.2 3.6 3.5
v 2.2 3.6 3.5
v 2.3 3.6 3.5
v 2.5 3.6 3.5
v -2.2 3.8 4.2
v -2 3.8 4.2
v -1.9 3.8 4.2
v -1.5 3.8 4.2
v -1.4 3.8 4.2
v 1.9 3.8 4.2
v 2 3.8 4.2
v 2.2 3.8 4.2
v -2.3 3.8 4.1
v -2.2 3.8 4.1
v -2 3.8 4.1
v -1.9 3.8 4.1
v -1.5 3.8 4.1
v -1.4 3.8 4.1
v 1.9 3.8 4.1
v 2 3.8 4.1
v 2.2 3.8 4.1
v 2.3 3.8 4.1
v -2.3 3.8 3.6
v -2.2 3.8 3.6
v -2 3.8 3.6
v -1.9 3.8 3.6
v 1.9 3.8 3.6
v 2 3.8 3.6
v 2.2 3.8 3.6
v 2.3 3.8 3.6
v -2.2 3.8 3.5
v -2 3.8 3.5
v -1.9 3.8 3.5
v 1.9 3.8 3.5
v 2 3.8 3.5
v 2.2 3.8 3.5
v -1.9 4 4.2
v -1.7 4 4.2
v -1.6 4 4.2
v 1.6 4 4.2
v 1.7 4 4.2
v 1.9 4 4.2
v -2 4 4.1
v -1.9 4 4.1
v -1.7 4 4.1
v -1.6 4 4.1
v 1.6 4 4.1
v 1.7 4 4.1
v 1.9 4 4.1
v 2 4 4.1
v -2 4 3.6
v -1.9 4 3.6
v -1.7 4 3.6
v -1.6 4 3.6
v 1.6 4 3.6
v 1.7 4 3.6
v 1.9 4 3.6
v 2 4 3.6
v -1.9 4 3.5
v -1.7 4 3.5
v -1.6 4 3.5
v 1.6 4 3.5
v 1.7 4 3.5
v 1.9 4 3.5
v -1.6 4.1 4.2
v -1.4 4.1 4.2
v -1.3 4.1 4.2
v 1.3 4.1 4.2
v 1.4 4.1 4.2
v 1.6 4.1 4.2
v -1.7 4.1 4.1
v -1.6 4.1 4.1
v -1.4 4.1 4.1
v -1.3 4.1 4.1
v 1.3 4.1 4.1
v 1.4 4.1 4.1
v 1.6 4.1 4.1
v 1.7 4.1 4.1
v -1.7 4.1 3.6
v -1.6 4.1 3.6
v -1.4 4.1 3.6
v -1.3 4.1 3.6
v 1.3 4.1 3.6
v 1.4 4.1 3.6
v 1.6 4.1 3.6
v 1.7 4.1 3.6
v -1.6 4.1 3.5
v -1.4 4.1 3.5
v -1.3 4.1 3.5
v 1.3 4.1 3.5
v 1.4 4.1 3.5
v 1.6 4.1 3.5
v -1.3 4.2 4.2
v -1.1 4.2 4.2
v -1 4.2 4.2
v 1 4.2 4.2
v 1.1 4.2 4.2
v 1.3 4.2 4.2
v -1.4 4.2 4.1
v -1.3 4.2 4.1
v -1.1 4.2 4.1
v -1 4.2 4.1
v 1 4.2 4.1
v 1.1 4.2 4.1
v 1.3 4.2 4.1
v 1.4 4.2 4.1
v -1.4 4.2 3.6
v -1.3 4.2 3.6
v -1.1 4.2 3.6
v -1 4.2 3.6
v 1 4.2 3.6
v 1.1 4.2 3.6
v 1.3 4.2 3.6
v 1.4 4.2 3.6
v -1.3 4.2 3.5
v -1.1 4.2 3.5
v -1 4.2 3.5
v 1 4.2 3.5
v 1.1 4.2 3.5
v 1.3 4.2 3.5
v -1 4.3 4.2
v -0.8 4.3 4.2
v -0.7 4.3 4.2
v -0.6 4.3 4.2
v 0.6 4.3 4.2
v 0.7 4.3 4.2
v 0.8 4.3 4.2
v 1 4.3 4.2
v -1.1 4.3 4.1
v -1 4.3 4.1
v -0.8 4.3 4.1
v -0.7 4.3 4.1
v -0.6 4.3 4.1
v 0.6 4.3 4.1
v 0.7 4.3 4.1
v 0.8 4.3 4.1
v 1 4.3 4.1
v 1.1 4.3 4.1
v -0.8 4.3 3.7
v -0.7 4.3 3.7
v -1.1 4.3 3.6
v -1 4.3 3.6
v -0.7 4.3 3.6
v -0.6 4.3 3.6
v 0.6 4.3 3.6
v 0.7 4.3 3.6
v 0.8 4.3 3.6
v 1 4.3 3.6
v 1.1 4.3 3.6
v -1 4.3 3.5
v -0.8 4.3 3.5
v -0.7 4.3 3.5
v -0.6 4.3 3.5
v 0.6 4.3 3.5
v 0.7 4.3 3.5
v 0.8 4.3 3.5
v 1 4.3 3.5
v -0.6 4.4 4.2
v -0.5 4.4 4.2
v -0.4 4.4 4.2
v -0.2 4.4 4.2
v -0.0999999 4.4 4.2
v 0.1 4.4 4.2
v 0.2 4.4 4.2
v 0.4 4.4 4.2
v 0.5 4.4 4.2
v 0.6 4.4 4.2
v -0.7 4.4 4.1
v -0.6 4.4 4.1
v -0.5 4.4 4.1
v -0.4 4.4 4.1
v -0.2 4.4 4.1
v -0.0999999 4.4 4.1
v 0.1 4.4 4.1
v 0.2 4.4 4.1
v 0.4 4.4 4.1
v 0.5 4.4 4.1
v 0.6 4.4 4.1
v 0.7 4.4 4.1
v -0.7 4.4 3.6
v -0.6 4.4 3.6
v -0.5 4.4 3.6
v -0.4 4.4 3.6
v -0.2 4.4 3.6
v -0.0999999 4.4 3.6
v 0.1 4.4 3.6
v 0.2 4.4 3.6
v 0.4 4.4 3.6
v 0.5 4.4 3.6
v 0.6 4.4 3.6
v 0.7 4.4 3.6
v -0.6 4.4 3.5
v -0.5 4.4 3.5
v -0.4 4.4 3.5
v -0.2 4.4 3.5
v -0.0999999 4.4 3.5
v 0.1 4.4 3.5
v 0.2 4.4 3.5
v 0.4 4.4 3.5
v 0.5 4.4 3.5
v 0.6 4.4 3.5

# faces
f 3/3/1 2/3/1 1/3/1
f 4/3/1 2/3/1 3/3/1
f 5/3/1 2/3/1 4/3/1
f 6/3/1 2/3/1 5/3/1
f 7/5/1 4/5/1 3/5/1
f 8/1/1 5/1/1 4/1/1
f 8/5/1 4/5/1 7/5/1
f 9/5/1 6/5/1 5/5/1
f 9/1/1 5/1/1 8/1/1
f 10/5/1 6/5/1 9/5/1
f 11/2/1 8/2/1 7/2/1
f 11/2/1 9/2/1 8/2/1
f 11/2/1 10/2/1 9/2/1
f 12/2/1 10/2/1 11/2/1
f 13/2/1 10/2/1 12/2/1
f 14/2/1 10/2/1 13/2/1
f 15/5/1 12/5/1 11/5/1
f 16/1/1 13/1/1 12/1/1
f 16/5/1 12/5/1 15/5/1
f 17/5/1 14/5/1 13/5/1
f 17/1/1 13/1/1 16/1/1
f 18/5/1 14/5/1 17/5/1
f 19/4/1 16/4/1 15/4/1
f 19/4/1 17/4/1 16/4/1
f 19/4/1 18/4/1 17/4/1
f 20/4/1 18/4/1 19/4/1
f 21/4/1 18/4/1 20/4/1
f 22/4/1 18/4/1 21/4/1
f 23/5/1 20/5/1 19/5/1
f 24/1/1 21/1/1 20/1/1
f 24/5/1 20/5/1 23/5/1
f 25/5/1 22/5/1 21/5/1
f 25/1/1 21/1/1 24/1/1
f 26/5/1 22/5/1 25/5/1
f 27/2/1 24/2/1 23/2/1
f 27/2/1 25/2/1 24/2/1
f 27/2/1 26/2/1 25/2/1
f 28/2/1 26/2/1 27/2/1
f 29/2/1 26/2/1 28/2/1
f 30/2/1 26/2/1 29/2/1
f 31/5/1 28/5/1 27/5/1
f 32/1/1 29/1/1 28/1/1
f 32/5/1 28/5/1 31/5/1
f 33/5/1 30/5/1 29/5/1
f 33/1/1 29/1/1 32/1/1
f 34/5/1 30/5/1 33/5/1
f 35/3/1 32/3/1 31/3/1
f 35/3/1 33/3/1 32/3/1
f 35/3/1 34/3/1 33/3/1
f 36/3/1 34/3/1 35/3/1
f 37/3/1 34/3/1 36/3/1
f 38/3/1 34/3/1 37/3/1
f 39/5/1 36/5/1 35/5/1
f 40/1/1 37/1/1 36/1/1
f 40/5/1 36/5/1 39/5/1
f 41/5/1 38/5/1 37/5/1
f 41/1/1 37/1/1 40/1/1
f 42/5/1 38/5/1 41/5/1
f 43/2/1 40/2/1 39/2/1
f 43/2/1 41/2/1 40/2/1
f 43/2/1 42/2/1 41/2/1
f 44/2/1 42/2/1 43/2/1
f 45/2/1 42/2/1 44/2/1
f 46/2/1 42/2/1 45/2/1
f 47/5/1 44/5/1 43/5/1
f 48/1/1 45/1/1 44/1/1
f 48/5/1 44/5/1 47/5/1
f 49/5/1 46/5/1 45/5/1
f 49/1/1 45/1/1 48/1/1
f 50/5/1 46/5/1 49/5/1
f 51/2/1 48/2/1 47/2/1
f 51/2/1 49/2/1 48/2/1
f 51/2/1 50/2/1 49/2/1
f 52/2/1 50/2/1 51/2/1
f 53/2/1 50/2/1 52/2/1
f 54/2/1 50/2/1 53/2/1
f 55/5/1 52/5/1 51/5/1
f 56/1/1 53/1/1 52/1/1
f 56/5/1 52/5/1 55/5/1
f 57/5/1 54/5/1 53/5/1
f 57/1/1 53/1/1 56/1/1
f 58/5/1 54/5/1 57/5/1
f 59/3/1 56/3/1 55/3/1
f 59/3/1 57/3/1 56/3/1
f 59/3/1 58/3/1 57/3/1
f 60/3/1 58/3/1 59/3/1
f 61/3/1 58/3/1 60/3/1
f 62/3/1 58/3/1 61/3/1
f 63/5/1 60/5/1 59/5/1
f 64/1/1 61/1/1 60/1/1
f 64/5/1 60/5/1 63/5/1
f 65/5/1 62/5/1 61/5/1
f 65/1/1 61/1/1 64/1/1
f 66/5/1 62/5/1 65/5/1
f 67/2/1 64/2/1 63/2/1
f 67/2/1 65/2/1 64/2/1
f 67/2/1 66/2/1 65/2/1
f 68/2/1 66/2/1 67/2/1
f 69/2/1 66/2/1 68/2/1
f 70/2/1 66/2/1 69/2/1
f 71/5/1 68/5/1 67/5/1
f 72/1/1 69/1/1 68/1/1
f 72/5/1 68/5/1 71/5/1
f 73/5/1 70/5/1 69/5/1
f 73/1/1 69/1/1 72/1/1
f 74/5/1 70/5/1 73/5/1
f 75/4/1 72/4/1 71/4/1
f 75/4/1 73/4/1 72/4/1
f 75/4/1 74/4/1 73/4/1
f 76/4/1 74/4/1 75/4/1
f 77/4/1 74/4/1 76/4/1
f 78/4/1 74/4/1 77/4/1
f 79/5/1 76/5/1 75/5/1
f 80/1/1 77/1/1 76/1/1
f 80/5/1 76/5/1 79/5/1
f 81/5/1 78/5/1 77/5/1
f 81/1/1 77/1/1 80/1/1
f 82/5/1 78/5/1 81/5/1
f 83/2/1 80/2/1 79/2/1
f 83/2/1 81/2/1 80/2/1
f 83/2/1 82/2/1 81/2/1
f 84/2/1 82/2/1 83/2/1
f 85/2/1 82/2/1 84/2/1
f 86/2/1 82/2/1 85/2/1
f 87/5/1 84/5/1 83/5/1
f 88/1/1 85/1/1 84/1/1
f 88/5/1 84/5/1 87/5/1
f 89/5/1 86/5/1 85/5/1
f 89/1/1 85/1/1 88/1/1
f 90/5/1 86/5/1 89/5/1
f 91/2/1 88/2/1 87/2/1
f 91/2/1 89/2/1 88/2/1
f 91/2/1 90/2/1 89/2/1
f 92/2/1 90/2/1 91/2/1
f 95/1/1 94/1/1 93/1/1
f 96/1/1 94/1/1 95/1/1
f 101/2/1 98/2/1 97/2/1
f 102/2/1 98/2/1 101/2/1
f 103/2/1 100/2/1 99/2/1
f 104/2/1 100/2/1 103/2/1
f 107/1/1 106/1/1 105/1/1
f 108/1/1 106/1/1 107/1/1
f 113/2/1 110/2/1 109/2/1
f 114/2/1 110/2/1 113/2/1
f 115/2/1 112/2/1 111/2/1
f 116/2/1 112/2/1 115/2/1
f 119/1/1 118/1/1 117/1/1
f 120/1/1 118/1/1 119/1/1
f 125/3/1 122/3/1 121/3/1
f 126/3/1 122/3/1 125/3/1
f 127/3/1 124/3/1 123/3/1
f 128/3/1 124/3/1 127/3/1
f 131/5/1 130/5/1 129/5/1
f 132/5/1 130/5/1 131/5/1
f 135/1/1 134/1/1 133/1/1
f 136/1/1 134/1/1 135/1/1
f 141/3/1 138/3/1 137/3/1
f 142/3/1 138/3/1 141/3/1
f 143/3/1 140/3/1 139/3/1
f 144/3/1 140/3/1 143/3/1
f 147/1/1 146/1/1 145/1/1
f 148/1/1 146/1/1 147/1/1
f 153/4/1 150/4/1 149/4/1
f 154/4/1 150/4/1 153/4/1
f 155/4/1 152/4/1 151/4/1
f 156/4/1 152/4/1 155/4/1
f 160/1/1 158/1/1 157/1/1
f 160/1/1 159/1/1 158/1/1
f 161/1/1 159/1/1 160/1/1
f 166/2/1 163/2/1 162/2/1
f 167/2/1 163/2/1 166/2/1
f 168/2/1 165/2/1 164/2/1
f 169/2/1 165/2/1 168/2/1
f 170/3/2 171/3/2 172/3/2
f 172/3/2 171/3/2 173/3/2
f 174/3/2 175/3/2 178/3/2
f 178/3/2 175/3/2 179/3/2
f 176/3/2 177/3/2 180/3/2
f 180/3/2 177/3/2 181/3/2
f 182/1/2 183/1/2 184/1/2
f 184/1/2 183/1/2 185/1/2
f 186/2/2 187/2/2 190/2/2
f 190/2/2 187/2/2 191/2/2
f 188/2/2 189/2/2 192/2/2
f 192/2/2 189/2/2 193/2/2
f 194/1/2 195/1/2 196/1/2
f 196/1/2 195/1/2 197/1/2
f 198/3/2 199/3/2 202/3/2
f 202/3/2 199/3/2 203/3/2
f 200/3/2 201/3/2 204/3/2
f 204/3/2 201/3/2 205/3/2
f 206/1/2 207/1/2 208/1/2
f 208/1/2 207/1/2 209/1/2
f 210/4/2 211/4/2 214/4/2
f 214/4/2 211/4/2 215/4/2
f 212/4/2 213/4/2 216/4/2
f 216/4/2 213/4/2 217/4/2
f 218/1/2 219/1/2 220/1/2
f 220/1/2 219/1/2 221/1/2
f 222/4/2 223/4/2 226/4/2
f 226/4/2 223/4/2 227/4/2
f 224/4/2 225/4/2 228/4/2
f 228/4/2 225/4/2 229/4/2
f 230/1/2 231/1/2 232/1/2
f 232/1/2 231/1/2 233/1/2
f 234/2/2 235/2/2 238/2/2
f 238/2/2 235/2/2 239/2/2
f 236/2/2 237/2/2 240/2/2
f 240/2/2 237/2/2 241/2/2
f 242/1/2 243/1/2 244/1/2
f 244/1/2 243/1/2 245/1/2
f 246/2/2 247/2/2 248/2/2
f 248/2/2 247/2/2 249/2/2
f 249/2/2 247/2/2 250/2/2
f 250/2/2 247/2/2 251/2/2
f 248/5/2 249/5/2 252/5/2
f 249/1/2 250/1/2 253/1/2
f 252/5/2 249/5/2 253/5/2
f 250/5/2 251/5/2 254/5/2
f 253/1/2 250/1/2 254/1/2
f 254/5/2 251/5/2 255/5/2
f 252/2/2 253/2/2 256/2/2
f 253/2/2 254/2/2 256/2/2
f 254/2/2 255/2/2 256/2/2
f 256/2/2 255/2/2 257/2/2
f 257/2/2 255/2/2 258/2/2
f 258/2/2 255/2/2 259/2/2
f 256/5/2 257/5/2 260/5/2
f 257/1/2 258/1/2 261/1/2
f 260/5/2 257/5/2 261/5/2
f 258/5/2 259/5/2 262/5/2
f 261/1/2 258/1/2 262/1/2
f 262/5/2 259/5/2 263/5/2
f 260/3/2 261/3/2 264/3/2
f 261/3/2 262/3/2 264/3/2
f 262/3/2 263/3/2 264/3/2
f 264/3/2 263/3/2 265/3/2
f 265/3/2 263/3/2 266/3/2
f 266/3/2 263/3/2 267/3/2
f 264/5/2 265/5/2 268/5/2
f 265/1/2 266/1/2 269/1/2
f 268/5/2 265/5/2 269/5/2
f 266/5/2 267/5/2 270/5/2
f 269/1/2 266/1/2 270/1/2
f 270/5/2 267/5/2 271/5/2
f 268/2/2 269/2/2 272/2/2
f 269/2/2 270/2/2 272/2/2
f 270/2/2 271/2/2 272/2/2
f 272/2/2 271/2/2 273/2/2
f 273/2/2 271/2/2 274/2/2
f 274/2/2 271/2/2 275/2/2
f 272/5/2 273/5/2 276/5/2
f 273/1/2 274/1/2 277/1/2
f 276/5/2 273/5/2 277/5/2
f 274/5/2 275/5/2 278/5/2
f 277/1/2 274/1/2 278/1/2
f 278/5/2 275/5/2 279/5/2
f 276/4/2 277/4/2 280/4/2
f 277/4/2 278/4/2 280/4/2
f 278/4/2 279/4/2 280/4/2
f 280/4/2 279/4/2 281/4/2
f 281/4/2 279/4/2 282/4/2
f 282/4/2 279/4/2 283/4/2
f 280/5/2 281/5/2 284/5/2
f 281/1/2 282/1/2 285/1/2
f 284/5/2 281/5/2 285/5/2
f 282/5/2 283/5/2 286/5/2
f 285/1/2 282/1/2 286/1/2
f 286/5/2 283/5/2 287/5/2
f 284/2/2 285/2/2 288/2/2
f 285/2/2 286/2/2 288/2/2
f 286/2/2 287/2/2 288/2/2
f 288/2/2 287/2/2 289/2/2
f 289/2/2 287/2/2 290/2/2
f 290/2/2 287/2/2 291/2/2
f 288/5/2 289/5/2 292/5/2
f 289/1/2 290/1/2 293/1/2
f 292/5/2 289/5/2 293/5/2
f 290/5/2 291/5/2 294/5/2
f 293/1/2 290/1/2 294/1/2
f 294/5/2 291/5/2 295/5/2
f 292/2/2 293/2/2 296/2/2
f 293/2/2 294/2/2 296/2/2
f 294/2/2 295/2/2 296/2/2
f 296/2/2 295/2/2 297/2/2
f 297/2/2 295/2/2 298/2/2
f 298/2/2 295/2/2 299/2/2
f 296/5/2 297/5/2 300/5/2
f 297/1/2 298/1/2 301/1/2
f 300/5/2 297/5/2 301/5/2
f 298/5/2 299/5/2 302/5/2
f 301/1/2 298/1/2 302/1/2
f 302/5/2 299/5/2 303/5/2
f 300/2/2 301/2/2 304/2/2
f 301/2/2 302/2/2 304/2/2
f 302/2/2 303/2/2 304/2/2
f 304/2/2 303/2/2 305/2/2
f 305/2/2 303/2/2 306/2/2
f 306/2/2 303/2/2 307/2/2
f 304/5/2 305/5/2 308/5/2
f 305/1/2 306/1/2 309/1/2
f 308/5/2 305/5/2 309/5/2
f 306/5/2 307/5/2 310/5/2
f 309/1/2 306/1/2 310/1/2
f 310/5/2 307/5/2 311/5/2
f 308/3/2 309/3/2 312/3/2
f 309/3/2 310/3/2 312/3/2
f 310/3/2 311/3/2 312/3/2
f 312/3/2 311/3/2 313/3/2
f 313/3/2 311/3/2 314/3/2
f 314/3/2 311/3/2 315/3/2
f 312/5/2 313/5/2 316/5/2
f 313/1/2 314/1/2 317/1/2
f 316/5/2 313/5/2 317/5/2
f 314/5/2 315/5/2 318/5/2
f 317/1/2 314/1/2 318/1/2
f 318/5/2 315/5/2 319/5/2
f 316/2/2 317/2/2 320/2/2
f 317/2/2 318/2/2 320/2/2
f 318/2/2 319/2/2 320/2/2
f 320/2/2 319/2/2 321/2/2
f 321/2/2 319/2/2 322/2/2
f 322/2/2 319/2/2 323/2/2
f 320/5/2 321/5/2 324/5/2
f 321/1/2 322/1/2 325/1/2
f 324/5/2 321/5/2 325/5/2
f 322/5/2 323/5/2 326/5/2
f 325/1/2 322/1/2 326/1/2
f 326/5/2 323/5/2 327/5/2
f 324/3/2 325/3/2 328/3/2
f 325/3/2 326/3/2 328/3/2
f 326/3/2 327/3/2 328/3/2
f 328/3/2 327/3/2 329/3/2
f 329/3/2 327/3/2 330/3/2
f 330/3/2 327/3/2 331/3/2
f 328/5/2 329/5/2 332/5/2
f 329/1/2 330/1/2 333/1/2
f 332/5/2 329/5/2 333/5/2
f 330/5/2 331/5/2 334/5/2
f 333/1/2 330/1/2 334/1/2
f 334/5/2 331/5/2 335/5/2
f 332/2/2 333/2/2 336/2/2
f 333/2/2 334/2/2 336/2/2
f 334/2/2 335/2/2 336/2/2
f 336/2/2 335/2/2 337/2/2
f 362/5/3 360/5/3 359/5/3
f 362/2/3 361/2/3 360/2/3
f 363/2/3 361/2/3 362/2/3
f 364/3/3 339/3/3 338/3/3
f 365/5/3 340/5/3 339/5/3
f 365/3/3 339/3/3 364/3/3
f 366/2/3 341/2/3 340/2/3
f 366/5/3 340/5/3 365/5/3
f 367/5/3 342/5/3 341/5/3
f 367/2/3 341/2/3 366/2/3
f 368/4/3 343/4/3 342/4/3
f 368/5/3 342/5/3 367/5/3
f 369/5/3 344/5/3 343/5/3
f 369/4/3 343/4/3 368/4/3
f 370/2/3 345/2/3 344/2/3
f 370/5/3 344/5/3 369/5/3
f 371/5/3 346/5/3 345/5/3
f 371/2/3 345/2/3 370/2/3
f 372/3/3 347/3/3 346/3/3
f 372/5/3 346/5/3 371/5/3
f 373/5/3 348/5/3 347/5/3
f 373/3/3 347/3/3 372/3/3
f 374/2/3 349/2/3 348/2/3
f 374/5/3 348/5/3 373/5/3
f 375/5/3 350/5/3 349/5/3
f 375/2/3 349/2/3 374/2/3
f 376/2/3 351/2/3 350/2/3
f 376/5/3 350/5/3 375/5/3
f 377/5/3 352/5/3 351/5/3
f 377/2/3 351/2/3 376/2/3
f 378/3/3 353/3/3 352/3/3
f 378/5/3 352/5/3 377/5/3
f 379/5/3 354/5/3 353/5/3
f 379/3/3 353/3/3 378/3/3
f 380/2/3 355/2/3 354/2/3
f 380/5/3 354/5/3 379/5/3
f 381/5/3 356/5/3 355/5/3
f 381/2/3 355/2/3 380/2/3
f 382/4/3 357/4/3 356/4/3
f 382/5/3 356/5/3 381/5/3
f 383/5/3 358/5/3 357/5/3
f 383/4/3 357/4/3 382/4/3
f 384/2/3 359/2/3 358/2/3
f 384/5/3 358/5/3 383/5/3
f 385/5/3 362/5/3 359/5/3
f 385/2/3 359/2/3 384/2/3
f 385/5/3 363/5/3 362/5/3
f 386/5/3 363/5/3 385/5/3
f 387/5/3 363/5/3 386/5/3
f 389/2/3 387/2/3 386/2/3
f 389/2/3 388/2/3 387/2/3
f 389/5/3 386/5/3 385/5/3
f 389/5/3 385/5/3 384/5/3
f 389/5/3 384/5/3 383/5/3
f 389/5/3 383/5/3 382/5/3
f 389/5/3 382/5/3 381/5/3
f 389/5/3 381/5/3 380/5/3
f 389/5/3 380/5/3 379/5/3
f 389/5/3 379/5/3 378/5/3
f 389/5/3 378/5/3 377/5/3
f 389/5/3 377/5/3 376/5/3
f 389/5/3 376/5/3 375/5/3
f 389/5/3 375/5/3 374/5/3
f 389/5/3 374/5/3 373/5/3
f 389/5/3 373/5/3 372/5/3
f 389/5/3 372/5/3 371/5/3
f 389/5/3 371/5/3 370/5/3
f 389/5/3 370/5/3 369/5/3
f 389/5/3 369/5/3 368/5/3
f 389/5/3 368/5/3 367/5/3
f 389/5/3 367/5/3 366/5/3
f 389/5/3 366/5/3 365/5/3
f 389/5/3 365/5/3 364/5/3
f 390/2/3 388/2/3 389/2/3
f 391/5/3 390/5/3 389/5/3
f 392/5/3 390/5/3 391/5/3
f 394/2/3 392/2/3 391/2/3
f 394/2/3 393/2/3 392/2/3
f 394/5/3 391/5/3 389/5/3
f 395/2/3 393/2/3 394/2/3
f 396/5/3 395/5/3 394/5/3
f 397/5/3 395/5/3 396/5/3
f 399/3/3 397/3/3 396/3/3
f 399/3/3 398/3/3 397/3/3
f 399/5/3 396/5/3 394/5/3
f 400/3/3 398/3/3 399/3/3
f 401/5/3 399/5/3 394/5/3
f 402/3/3 398/3/3 400/3/3
f 403/3/3 398/3/3 402/3/3
f 404/5/3 402/5/3 401/5/3
f 404/5/3 403/5/3 402/5/3
f 405/5/3 403/5/3 404/5/3
f 407/3/3 405/3/3 404/3/3
f 407/3/3 406/3/3 405/3/3
f 407/5/3 404/5/3 401/5/3
f 408/3/3 406/3/3 407/3/3
f 409/5/3 408/5/3 407/5/3
f 410/5/3 408/5/3 409/5/3
f 412/4/3 410/4/3 409/4/3
f 412/4/3 411/4/3 410/4/3
f 412/5/3 409/5/3 407/5/3
f 413/4/3 411/4/3 412/4/3
f 414/5/3 413/5/3 412/5/3
f 415/5/3 413/5/3 414/5/3
f 416/2/3 415/2/3 414/2/3
f 418/2/3 416/2/3 414/2/3
f 418/2/3 417/2/3 416/2/3
f 418/5/3 414/5/3 412/5/3
f 419/2/3 417/2/3 418/2/3
f 420/5/3 418/5/3 412/5/3
f 420/5/3 419/5/3 418/5/3
f 421/5/3 419/5/3 420/5/3
f 422/5/3 420/5/3 412/5/3
f 422/2/3 421/2/3 420/2/3
f 423/2/3 421/2/3 422/2/3
f 424/5/3 422/5/3 412/5/3
f 424/5/3 423/5/3 422/5/3
f 425/5/3 423/5/3 424/5/3
f 426/5/3 424/5/3 412/5/3
f 426/2/3 425/2/3 424/2/3
f 427/2/3 425/2/3 426/2/3
f 428/5/3 426/5/3 412/5/3
f 428/5/3 427/5/3 426/5/3
f 429/5/3 427/5/3 428/5/3
f 430/5/3 428/5/3 412/5/3
f 430/2/3 429/2/3 428/2/3
f 431/2/3 429/2/3 430/2/3
f 432/5/3 430/5/3 412/5/3
f 432/5/3 431/5/3 430/5/3
f 433/5/3 431/5/3 432/5/3
f 434/3/3 433/3/3 432/3/3
f 435/3/3 433/3/3 434/3/3
f 436/5/3 432/5/3 412/5/3
f 436/3/3 434/3/3 432/3/3
f 437/3/3 434/3/3 436/3/3
f 438/5/3 412/5/3 407/5/3
f 438/5/3 436/5/3 412/5/3
f 438/5/3 437/5/3 436/5/3
f 439/5/3 437/5/3 438/5/3
f 440/5/3 438/5/3 407/5/3
f 440/2/3 439/2/3 438/2/3
f 441/2/3 439/2/3 440/2/3
f 442/2/3 439/2/3 441/2/3
f 443/5/3 407/5/3 401/5/3
f 443/5/3 440/5/3 407/5/3
f 443/5/3 441/5/3 440/5/3
f 444/5/3 441/5/3 443/5/3
f 445/5/3 443/5/3 401/5/3
f 445/3/3 444/3/3 443/3/3
f 446/3/3 444/3/3 445/3/3
f 447/3/3 444/3/3 446/3/3
f 448/5/3 445/5/3 401/5/3
f 448/5/3 446/5/3 445/5/3
f 449/5/3 446/5/3 448/5/3
f 450/5/3 401/5/3 394/5/3
f 450/5/3 448/5/3 401/5/3
f 451/4/3 449/4/3 448/4/3
f 451/5/3 448/5/3 450/5/3
f 452/5/3 450/5/3 394/5/3
f 452/4/3 451/4/3 450/4/3
f 453/4/3 449/4/3 451/4/3
f 453/4/3 451/4/3 452/4/3
f 454/4/3 449/4/3 453/4/3
f 455/5/3 394/5/3 389/5/3
f 455/5/3 452/5/3 394/5/3
f 455/5/3 453/5/3 452/5/3
f 456/5/3 453/5/3 455/5/3
f 457/5/3 455/5/3 389/5/3
f 457/4/3 456/4/3 455/4/3
f 458/4/3 456/4/3 457/4/3
f 459/4/3 456/4/3 458/4/3
f 460/5/3 389/5/3 364/5/3
f 460/5/3 457/5/3 389/5/3
f 460/5/3 458/5/3 457/5/3
f 461/5/3 458/5/3 460/5/3
f 462/5/3 460/5/3 364/5/3
f 463/5/3 460/5/3 462/5/3
f 464/5/3 460/5/3 463/5/3
f 465/5/3 460/5/3 464/5/3
f 466/5/3 460/5/3 465/5/3
f 467/5/3 460/5/3 466/5/3
f 468/5/3 460/5/3 467/5/3
f 469/5/3 460/5/3 468/5/3
f 470/5/3 460/5/3 469/5/3
f 471/5/3 460/5/3 470/5/3
f 472/5/3 460/5/3 471/5/3
f 473/5/3 460/5/3 472/5/3
f 474/5/3 460/5/3 473/5/3
f 475/5/3 460/5/3 474/5/3
f 476/5/3 460/5/3 475/5/3
f 477/5/3 460/5/3 476/5/3
f 478/5/3 460/5/3 477/5/3
f 479/5/3 460/5/3 478/5/3
f 480/5/3 460/5/3 479/5/3
f 481/5/3 460/5/3 480/5/3
f 482/5/3 460/5/3 481/5/3
f 483/5/3 460/5/3 482/5/3
f 484/2/3 461/2/3 460/2/3
f 484/5/3 460/5/3 483/5/3
f 485/2/3 461/2/3 484/2/3
f 486/2/3 461/2/3 485/2/3
f 487/5/3 484/5/3 483/5/3
f 487/5/3 485/5/3 484/5/3
f 488/5/3 485/5/3 487/5/3
f 489/2/3 463/2/3 462/2/3
f 490/5/3 464/5/3 463/5/3
f 490/2/3 463/2/3 489/2/3
f 491/2/3 465/2/3 464/2/3
f 491/5/3 464/5/3 490/5/3
f 492/5/3 466/5/3 465/5/3
f 492/2/3 465/2/3 491/2/3
f 493/3/3 467/3/3 466/3/3
f 493/5/3 466/5/3 492/5/3
f 494/5/3 468/5/3 467/5/3
f 494/3/3 467/3/3 493/3/3
f 495/2/3 469/2/3 468/2/3
f 495/5/3 468/5/3 494/5/3
f 496/5/3 470/5/3 469/5/3
f 496/2/3 469/2/3 495/2/3
f 497/4/3 471/4/3 470/4/3
f 497/5/3 470/5/3 496/5/3
f 498/5/3 472/5/3 471/5/3
f 498/4/3 471/4/3 497/4/3
f 499/2/3 473/2/3 472/2/3
f 499/5/3 472/5/3 498/5/3
f 500/5/3 474/5/3 473/5/3
f 500/2/3 473/2/3 499/2/3
f 501/2/3 475/2/3 474/2/3
f 501/5/3 474/5/3 500/5/3
f 502/5/3 476/5/3 475/5/3
f 502/2/3 475/2/3 501/2/3
f 503/2/3 477/2/3 476/2/3
f 503/5/3 476/5/3 502/5/3
f 504/5/3 478/5/3 477/5/3
f 504/2/3 477/2/3 503/2/3
f 505/3/3 479/3/3 478/3/3
f 505/5/3 478/5/3 504/5/3
f 506/5/3 480/5/3 479/5/3
f 506/3/3 479/3/3 505/3/3
f 507/2/3 481/2/3 480/2/3
f 507/5/3 480/5/3 506/5/3
f 508/5/3 482/5/3 481/5/3
f 508/2/3 481/2/3 507/2/3
f 509/3/3 483/3/3 482/3/3
f 509/5/3 482/5/3 508/5/3
f 510/5/3 487/5/3 483/5/3
f 510/3/3 483/3/3 509/3/3
f 511/2/3 488/2/3 487/2/3
f 511/5/3 487/5/3 510/5/3
f 512/2/3 488/2/3 511/2/3
f 515/1/3 514/1/3 513/1/3
f 516/1/3 514/1/3 515/1/3
f 519/1/3 518/1/3 517/1/3
f 520/1/3 518/1/3 519/1/3
f 523/1/3 522/1/3 521/1/3
f 524/1/3 522/1/3 523/1/3
f 527/1/3 526/1/3 525/1/3
f 528/1/3 526/1/3 527/1/3
f 531/1/3 530/1/3 529/1/3
f 532/1/3 530/1/3 531/1/3
f 535/1/3 534/1/3 533/1/3
f 536/1/3 534/1/3 535/1/3
f 539/1/3 538/1/3 537/1/3
f 540/1/3 538/1/3 539/1/3
f 543/1/3 542/1/3 541/1/3
f 544/1/3 542/1/3 543/1/3
f 547/1/3 546/1/3 545/1/3
f 548/1/3 546/1/3 547/1/3
f 551/1/3 550/1/3 549/1/3
f 552/1/3 550/1/3 551/1/3
f 555/1/3 554/1/3 553/1/3
f 556/1/3 554/1/3 555/1/3
f 559/1/3 558/1/3 557/1/3
f 560/1/3 558/1/3 559/1/3
f 563/1/3 562/1/3 561/1/3
f 564/1/3 562/1/3 563/1/3
f 565/1/4 566/1/4 567/1/4
f 567/1/4 566/1/4 568/1/4
f 569/1/4 570/1/4 571/1/4
f 571/1/4 570/1/4 572/1/4
f 573/1/4 574/1/4 575/1/4
f 575/1/4 574/1/4 576/1/4
f 577/1/4 578/1/4 579/1/4
f 579/1/4 578/1/4 580/1/4
f 581/1/4 582/1/4 583/1/4
f 583/1/4 582/1/4 584/1/4
f 585/1/4 586/1/4 587/1/4
f 587/1/4 586/1/4 588/1/4
f 589/1/4 590/1/4 591/1/4
f 591/1/4 590/1/4 592/1/4
f 593/1/4 594/1/4 595/1/4
f 595/1/4 594/1/4 596/1/4
f 597/1/4 598/1/4 599/1/4
f 599/1/4 598/1/4 600/1/4
f 601/1/4 602/1/4 603/1/4
f 603/1/4 602/1/4 604/1/4
f 605/1/4 606/1/4 607/1/4
f 607/1/4 606/1/4 608/1/4
f 609/1/4 610/1/4 611/1/4
f 611/1/4 610/1/4 612/1/4
f 634/5/4 635/5/4 637/5/4
f 635/2/4 636/2/4 637/2/4
f 637/2/4 636/2/4 638/2/4
f 613/3/4 614/3/4 639/3/4
f 614/5/4 615/5/4 640/5/4
f 639/3/4 614/3/4 640/3/4
f 615/2/4 616/2/4 641/2/4
f 640/5/4 615/5/4 641/5/4
f 616/5/4 617/5/4 642/5/4
f 641/2/4 616/2/4 642/2/4
f 617/4/4 618/4/4 643/4/4
f 642/5/4 617/5/4 643/5/4
f 618/5/4 619/5/4 644/5/4
f 643/4/4 618/4/4 644/4/4
f 619/2/4 620/2/4 645/2/4
f 644/5/4 619/5/4 645/5/4
f 620/5/4 621/5/4 646/5/4
f 645/2/4 620/2/4 646/2/4
f 621/3/4 622/3/4 647/3/4
f 646/5/4 621/5/4 647/5/4
f 622/5/4 623/5/4 648/5/4
f 647/3/4 622/3/4 648/3/4
f 623/2/4 624/2/4 649/2/4
f 648/5/4 623/5/4 649/5/4
f 624/5/4 625/5/4 650/5/4
f 649/2/4 624/2/4 650/2/4
f 625/2/4 626/2/4 651/2/4
f 650/5/4 625/5/4 651/5/4
f 626/5/4 627/5/4 652/5/4
f 651/2/4 626/2/4 652/2/4
f 627/3/4 628/3/4 653/3/4
f 652/5/4 627/5/4 653/5/4
f 628/5/4 629/5/4 654/5/4
f 653/3/4 628/3/4 654/3/4
f 629/2/4 630/2/4 655/2/4
f 654/5/4 629/5/4 655/5/4
f 630/5/4 631/5/4 656/5/4
f 655/2/4 630/2/4 656/2/4
f 631/4/4 632/4/4 657/4/4
f 656/5/4 631/5/4 657/5/4
f 632/5/4 633/5/4 658/5/4
f 657/4/4 632/4/4 658/4/4
f 633/2/4 634/2/4 659/2/4
f 658/5/4 633/5/4 659/5/4
f 634/5/4 637/5/4 660/5/4
f 659/2/4 634/2/4 660/2/4
f 637/5/4 638/5/4 660/5/4
f 660/5/4 638/5/4 661/5/4
f 661/5/4 638/5/4 662/5/4
f 661/2/4 662/2/4 664/2/4
f 662/2/4 663/2/4 664/2/4
f 660/5/4 661/5/4 664/5/4
f 659/5/4 660/5/4 664/5/4
f 658/5/4 659/5/4 664/5/4
f 657/5/4 658/5/4 664/5/4
f 656/5/4 657/5/4 664/5/4
f 655/5/4 656/5/4 664/5/4
f 654/5/4 655/5/4 664/5/4
f 653/5/4 654/5/4 664/5/4
f 652/5/4 653/5/4 664/5/4
f 651/5/4 652/5/4 664/5/4
f 650/5/4 651/5/4 664/5/4
f 649/5/4 650/5/4 664/5/4
f 648/5/4 649/5/4 664/5/4
f 647/5/4 648/5/4 664/5/4
f 646/5/4 647/5/4 664/5/4
f 645/5/4 646/5/4 664/5/4
f 644/5/4 645/5/4 664/5/4
f 643/5/4 644/5/4 664/5/4
f 642/5/4 643/5/4 664/5/4
f 641/5/4 642/5/4 664/5/4
f 640/5/4 641/5/4 664/5/4
f 639/5/4 640/5/4 664/5/4
f 664/2/4 663/2/4 665/2/4
f 664/5/4 665/5/4 666/5/4
f 666/5/4 665/5/4 667/5/4
f 666/2/4 667/2/4 669/2/4
f 667/2/4 668/2/4 669/2/4
f 664/5/4 666/5/4 669/5/4
f 669/2/4 668/2/4 670/2/4
f 669/5/4 670/5/4 671/5/4
f 671/5/4 670/5/4 672/5/4
f 671/3/4 672/3/4 674/3/4
f 672/3/4 673/3/4 674/3/4
f 669/5/4 671/5/4 674/5/4
f 674/3/4 673/3/4 675/3/4
f 669/5/4 674/5/4 676/5/4
f 674/1/4 675/1/4 676/1/4
f 675/3/4 673/3/4 677/3/4
f 676/1/4 675/1/4 677/1/4
f 677/3/4 673/3/4 678/3/4
f 676/5/4 677/5/4 679/5/4
f 677/5/4 678/5/4 679/5/4
f 679/5/4 678/5/4 680/5/4
f 679/3/4 680/3/4 682/3/4
f 680/3/4 681/3/4 682/3/4
f 676/5/4 679/5/4 682/5/4
f 682/3/4 681/3/4 683/3/4
f 682/5/4 683/5/4 684/5/4
f 684/5/4 683/5/4 685/5/4
f 684/4/4 685/4/4 687/4/4
f 685/4/4 686/4/4 687/4/4
f 682/5/4 684/5/4 687/5/4
f 687/4/4 686/4/4 688/4/4
f 687/5/4 688/5/4 689/5/4
f 689/5/4 688/5/4 690/5/4
f 689/2/4 690/2/4 691/2/4
f 689/2/4 691/2/4 693/2/4
f 691/2/4 692/2/4 693/2/4
f 687/5/4 689/5/4 693/5/4
f 693/2/4 692/2/4 694/2/4
f 687/5/4 693/5/4 695/5/4
f 693/5/4 694/5/4 695/5/4
f 695/5/4 694/5/4 696/5/4
f 687/5/4 695/5/4 697/5/4
f 695/2/4 696/2/4 697/2/4
f 697/2/4 696/2/4 698/2/4
f 687/5/4 697/5/4 699/5/4
f 697/5/4 698/5/4 699/5/4
f 699/5/4 698/5/4 700/5/4
f 687/5/4 699/5/4 701/5/4
f 699/2/4 700/2/4 701/2/4
f 701/2/4 700/2/4 702/2/4
f 687/5/4 701/5/4 703/5/4
f 701/5/4 702/5/4 703/5/4
f 703/5/4 702/5/4 704/5/4
f 687/5/4 703/5/4 705/5/4
f 703/2/4 704/2/4 705/2/4
f 705/2/4 704/2/4 706/2/4
f 687/5/4 705/5/4 707/5/4
f 705/5/4 706/5/4 707/5/4
f 707/5/4 706/5/4 708/5/4
f 707/3/4 708/3/4 709/3/4
f 709/3/4 708/3/4 710/3/4
f 687/5/4 707/5/4 711/5/4
f 707/3/4 709/3/4 711/3/4
f 711/3/4 709/3/4 712/3/4
f 682/5/4 687/5/4 713/5/4
f 687/5/4 711/5/4 713/5/4
f 711/5/4 712/5/4 713/5/4
f 713/5/4 712/5/4 714/5/4
f 682/5/4 713/5/4 715/5/4
f 713/2/4 714/2/4 715/2/4
f 715/2/4 714/2/4 716/2/4
f 716/2/4 714/2/4 717/2/4
f 676/5/4 682/5/4 718/5/4
f 682/5/4 715/5/4 718/5/4
f 715/5/4 716/5/4 718/5/4
f 718/5/4 716/5/4 719/5/4
f 676/5/4 718/5/4 720/5/4
f 718/3/4 719/3/4 720/3/4
f 720/3/4 719/3/4 721/3/4
f 721/3/4 719/3/4 722/3/4
f 676/5/4 720/5/4 723/5/4
f 720/5/4 721/5/4 723/5/4
f 723/5/4 721/5/4 724/5/4
f 669/5/4 676/5/4 725/5/4
f 676/5/4 723/5/4 725/5/4
f 723/4/4 724/4/4 726/4/4
f 725/5/4 723/5/4 726/5/4
f 669/5/4 725/5/4 727/5/4
f 725/4/4 726/4/4 727/4/4
f 726/4/4 724/4/4 728/4/4
f 727/4/4 726/4/4 728/4/4
f 728/4/4 724/4/4 729/4/4
f 664/5/4 669/5/4 730/5/4
f 669/5/4 727/5/4 730/5/4
f 727/5/4 728/5/4 730/5/4
f 730/5/4 728/5/4 731/5/4
f 664/5/4 730/5/4 732/5/4
f 730/4/4 731/4/4 732/4/4
f 732/4/4 731/4/4 733/4/4
f 733/4/4 731/4/4 734/4/4
f 639/5/4 664/5/4 735/5/4
f 664/5/4 732/5/4 735/5/4
f 732/5/4 733/5/4 735/5/4
f 735/5/4 733/5/4 736/5/4
f 639/5/4 735/5/4 737/5/4
f 737/5/4 735/5/4 738/5/4
f 738/5/4 735/5/4 739/5/4
f 739/5/4 735/5/4 740/5/4
f 740/5/4 735/5/4 741/5/4
f 741/5/4 735/5/4 742/5/4
f 742/5/4 735/5/4 743/5/4
f 743/5/4 735/5/4 744/5/4
f 744/5/4 735/5/4 745/5/4
f 745/5/4 735/5/4 746/5/4
f 746/5/4 735/5/4 747/5/4
f 747/5/4 735/5/4 748/5/4
f 748/5/4 735/5/4 749/5/4
f 749/5/4 735/5/4 750/5/4
f 750/5/4 735/5/4 751/5/4
f 751/5/4 735/5/4 752/5/4
f 752/5/4 735/5/4 753/5/4
f 753/5/4 735/5/4 754/5/4
f 754/5/4 735/5/4 755/5/4
f 755/5/4 735/5/4 756/5/4
f 756/5/4 735/5/4 757/5/4
f 757/5/4 735/5/4 758/5/4
f 735/2/4 736/2/4 759/2/4
f 758/5/4 735/5/4 759/5/4
f 759/2/4 736/2/4 760/2/4
f 760/2/4 736/2/4 761/2/4
f 758/5/4 759/5/4 762/5/4
f 759/5/4 760/5/4 762/5/4
f 762/5/4 760/5/4 763/5/4
f 737/2/4 738/2/4 764/2/4
f 738/5/4 739/5/4 765/5/4
f 764/2/4 738/2/4 765/2/4
f 739/2/4 740/2/4 766/2/4
f 765/5/4 739/5/4 766/5/4
f 740/5/4 741/5/4 767/5/4
f 766/2/4 740/2/4 767/2/4
f 741/3/4 742/3/4 768/3/4
f 767/5/4 741/5/4 768/5/4
f 742/5/4 743/5/4 769/5/4
f 768/3/4 742/3/4 769/3/4
f 743/2/4 744/2/4 770/2/4
f 769/5/4 743/5/4 770/5/4
f 744/5/4 745/5/4 771/5/4
f 770/2/4 744/2/4 771/2/4
f 745/4/4 746/4/4 772/4/4
f 771/5/4 745/5/4 772/5/4
f 746/5/4 747/5/4 773/5/4
f 772/4/4 746/4/4 773/4/4
f 747/2/4 748/2/4 774/2/4
f 773/5/4 747/5/4 774/5/4
f 748/5/4 749/5/4 775/5/4
f 774/2/4 748/2/4 775/2/4
f 749/2/4 750/2/4 776/2/4
f 775/5/4 749/5/4 776/5/4
f 750/5/4 751/5/4 777/5/4
f 776/2/4 750/2/4 777/2/4
f 751/2/4 752/2/4 778/2/4
f 777/5/4 751/5/4 778/5/4
f 752/5/4 753/5/4 779/5/4
f 778/2/4 752/2/4 779/2/4
f 753/3/4 754/3/4 780/3/4
f 779/5/4 753/5/4 780/5/4
f 754/5/4 755/5/4 781/5/4
f 780/3/4 754/3/4 781/3/4
f 755/2/4 756/2/4 782/2/4
f 781/5/4 755/5/4 782/5/4
f 756/5/4 757/5/4 783/5/4
f 782/2/4 756/2/4 783/2/4
f 757/3/4 758/3/4 784/3/4
f 783/5/4 757/5/4 784/5/4
f 758/5/4 762/5/4 785/5/4
f 784/3/4 758/3/4 785/3/4
f 762/2/4 763/2/4 786/2/4
f 785/5/4 762/5/4 786/5/4
f 786/2/4 763/2/4 787/2/4
f 792/3/5 789/3/5 788/3/5
f 793/5/5 790/5/5 789/5/5
f 793/3/5 789/3/5 792/3/5
f 794/2/5 791/2/5 790/2/5
f 794/5/5 790/5/5 793/5/5
f 795/2/5 791/2/5 794/2/5
f 798/3/5 797/3/5 796/3/5
f 799/3/5 797/3/5 798/3/5
f 800/2/6 801/2/6 806/2/6
f 801/5/6 802/5/6 806/5/6
f 806/5/6 802/5/6 807/5/6
f 803/5/6 804/5/6 808/5/6
f 804/2/6 805/2/6 809/2/6
f 808/5/6 804/5/6 809/5/6
f 800/2/6 806/2/6 810/2/6
f 809/2/6 805/2/6 813/2/6
f 800/2/6 810/2/6 814/2/6
f 810/5/6 811/5/6 815/5/6
f 814/2/6 810/2/6 815/2/6
f 815/5/6 811/5/6 816/5/6
f 812/5/6 813/5/6 817/5/6
f 813/2/6 805/2/6 818/2/6
f 817/5/6 813/5/6 818/5/6
f 818/2/6 805/2/6 819/2/6
f 820/2/6 821/2/6 829/2/6
f 821/5/6 822/5/6 830/5/6
f 829/2/6 821/2/6 830/2/6
f 830/5/6 822/5/6 831/5/6
f 823/5/6 824/5/6 832/5/6
f 832/5/6 824/5/6 833/5/6
f 825/5/6 826/5/6 834/5/6
f 826/2/6 827/2/6 835/2/6
f 834/5/6 826/5/6 835/5/6
f 835/2/6 827/2/6 836/2/6
f 828/1/6 829/1/6 838/1/6
f 829/2/6 830/2/6 839/2/6
f 838/1/6 829/1/6 839/1/6
f 839/2/6 830/2/6 840/2/6
f 835/2/6 836/2/6 843/2/6
f 836/1/6 837/1/6 844/1/6
f 843/2/6 836/2/6 844/2/6
f 844/1/6 837/1/6 845/1/6
f 839/2/6 840/2/6 846/2/6
f 840/5/6 841/5/6 847/5/6
f 846/2/6 840/2/6 847/2/6
f 847/5/6 841/5/6 848/5/6
f 842/5/6 843/5/6 849/5/6
f 843/2/6 844/2/6 850/2/6
f 849/5/6 843/5/6 850/5/6
f 850/2/6 844/2/6 851/2/6
f 852/2/6 853/2/6 859/2/6
f 853/5/6 854/5/6 860/5/6
f 859/2/6 853/2/6 860/2/6
f 860/5/6 854/5/6 861/5/6
f 855/5/6 856/5/6 862/5/6
f 856/4/6 857/4/6 863/4/6
f 862/5/6 856/5/6 863/5/6
f 863/4/6 857/4/6 864/4/6
f 858/1/6 859/1/6 866/1/6
f 859/2/6 860/2/6 867/2/6
f 866/1/6 859/1/6 867/1/6
f 867/2/6 860/2/6 868/2/6
f 863/4/6 864/4/6 871/4/6
f 864/1/6 865/1/6 872/1/6
f 871/4/6 864/4/6 872/4/6
f 872/1/6 865/1/6 873/1/6
f 867/2/6 868/2/6 874/2/6
f 868/5/6 869/5/6 875/5/6
f 874/2/6 868/2/6 875/2/6
f 875/5/6 869/5/6 876/5/6
f 870/5/6 871/5/6 877/5/6
f 871/4/6 872/4/6 878/4/6
f 877/5/6 871/5/6 878/5/6
f 878/4/6 872/4/6 879/4/6
f 880/3/6 881/3/6 887/3/6
f 881/5/6 882/5/6 888/5/6
f 887/3/6 881/3/6 888/3/6
f 888/5/6 882/5/6 889/5/6
f 883/5/6 884/5/6 890/5/6
f 884/4/6 885/4/6 891/4/6
f 890/5/6 884/5/6 891/5/6
f 891/4/6 885/4/6 892/4/6
f 886/1/6 887/1/6 894/1/6
f 887/3/6 888/3/6 895/3/6
f 894/1/6 887/1/6 895/1/6
f 895/3/6 888/3/6 896/3/6
f 891/4/6 892/4/6 899/4/6
f 892/1/6 893/1/6 900/1/6
f 899/4/6 892/4/6 900/4/6
f 900/1/6 893/1/6 901/1/6
f 895/3/6 896/3/6 902/3/6
f 896/5/6 897/5/6 903/5/6
f 902/3/6 896/3/6 903/3/6
f 903/5/6 897/5/6 904/5/6
f 898/5/6 899/5/6 905/5/6
f 899/4/6 900/4/6 906/4/6
f 905/5/6 899/5/6 906/5/6
f 906/4/6 900/4/6 907/4/6
f 908/3/6 909/3/6 915/3/6
f 909/5/6 910/5/6 916/5/6
f 915/3/6 909/3/6 916/3/6
f 916/5/6 910/5/6 917/5/6
f 911/5/6 912/5/6 918/5/6
f 912/3/6 913/3/6 919/3/6
f 918/5/6 912/5/6 919/5/6
f 919/3/6 913/3/6 920/3/6
f 914/1/6 915/1/6 922/1/6
f 915/3/6 916/3/6 923/3/6
f 922/1/6 915/1/6 923/1/6
f 923/3/6 916/3/6 924/3/6
f 919/3/6 920/3/6 927/3/6
f 920/1/6 921/1/6 928/1/6
f 927/3/6 920/3/6 928/3/6
f 928/1/6 921/1/6 929/1/6
f 923/3/6 924/3/6 930/3/6
f 924/5/6 925/5/6 931/5/6
f 930/3/6 924/3/6 931/3/6
f 931/5/6 925/5/6 932/5/6
f 926/5/6 927/5/6 933/5/6
f 927/3/6 928/3/6 934/3/6
f 933/5/6 927/5/6 934/5/6
f 934/3/6 928/3/6 935/3/6
f 936/4/6 937/4/6 945/4/6
f 937/5/6 938/5/6 946/5/6
f 945/4/6 937/4/6 946/4/6
f 938/2/6 939/2/6 947/2/6
f 946/5/6 938/5/6 947/5/6
f 947/2/6 939/2/6 948/2/6
f 940/3/6 941/3/6 949/3/6
f 941/5/6 942/5/6 950/5/6
f 949/3/6 941/3/6 950/3/6
f 942/2/6 943/2/6 951/2/6
f 950/5/6 942/5/6 951/5/6
f 951/2/6 943/2/6 952/2/6
f 945/4/6 946/4/6 954/4/6
f 946/1/6 947/1/6 954/1/6
f 954/1/6 947/1/6 955/1/6
f 944/1/6 945/1/6 956/1/6
f 945/4/6 954/4/6 957/4/6
f 956/1/6 945/1/6 957/1/6
f 954/5/6 955/5/6 958/5/6
f 950/1/6 951/1/6 961/1/6
f 951/2/6 952/2/6 962/2/6
f 961/1/6 951/1/6 962/1/6
f 952/1/6 953/1/6 963/1/6
f 962/2/6 952/2/6 963/2/6
f 963/1/6 953/1/6 964/1/6
f 957/4/6 954/4/6 965/4/6
f 954/5/6 958/5/6 966/5/6
f 965/4/6 954/4/6 966/4/6
f 958/2/6 959/2/6 967/2/6
f 966/5/6 958/5/6 967/5/6
f 967/2/6 959/2/6 968/2/6
f 960/3/6 961/3/6 969/3/6
f 961/5/6 962/5/6 970/5/6
f 969/3/6 961/3/6 970/3/6
f 962/2/6 963/2/6 971/2/6
f 970/5/6 962/5/6 971/5/6
f 971/2/6 963/2/6 972/2/6
f 973/2/6 974/2/6 984/2/6
f 974/5/6 975/5/6 985/5/6
f 984/2/6 974/2/6 985/2/6
f 975/2/6 976/2/6 986/2/6
f 985/5/6 975/5/6 986/5/6
f 976/5/6 977/5/6 987/5/6
f 986/2/6 976/2/6 987/2/6
f 977/2/6 978/2/6 988/2/6
f 987/5/6 977/5/6 988/5/6
f 978/5/6 979/5/6 989/5/6
f 988/2/6 978/2/6 989/2/6
f 979/2/6 980/2/6 990/2/6
f 989/5/6 979/5/6 990/5/6
f 980/5/6 981/5/6 991/5/6
f 990/2/6 980/2/6 991/2/6
f 981/3/6 982/3/6 992/3/6
f 991/5/6 981/5/6 992/5/6
f 992/3/6 982/3/6 993/3/6
f 983/1/6 984/1/6 995/1/6
f 984/2/6 985/2/6 996/2/6
f 995/1/6 984/1/6 996/1/6
f 985/1/6 986/1/6 997/1/6
f 996/2/6 985/2/6 997/2/6
f 986/2/6 987/2/6 998/2/6
f 997/1/6 986/1/6 998/1/6
f 987/1/6 988/1/6 999/1/6
f 998/2/6 987/2/6 999/2/6
f 988/2/6 989/2/6 1000/2/6
f 999/1/6 988/1/6 1000/1/6
f 989/1/6 990/1/6 1001/1/6
f 1000/2/6 989/2/6 1001/2/6
f 990/2/6 991/2/6 1002/2/6
f 1001/1/6 990/1/6 1002/1/6
f 991/1/6 992/1/6 1003/1/6
f 1002/2/6 991/2/6 1003/2/6
f 992/3/6 993/3/6 1004/3/6
f 1003/1/6 992/1/6 1004/1/6
f 993/1/6 994/1/6 1005/1/6
f 1004/3/6 993/3/6 1005/3/6
f 1005/1/6 994/1/6 1006/1/6
f 996/2/6 997/2/6 1007/2/6
f 997/5/6 998/5/6 1008/5/6
f 1007/2/6 997/2/6 1008/2/6
f 998/2/6 999/2/6 1009/2/6
f 1008/5/6 998/5/6 1009/5/6
f 999/5/6 1000/5/6 1010/5/6
f 1009/2/6 999/2/6 1010/2/6
f 1000/2/6 1001/2/6 1011/2/6
f 1010/5/6 1000/5/6 1011/5/6
f 1001/5/6 1002/5/6 1012/5/6
f 1011/2/6 1001/2/6 1012/2/6
f 1002/2/6 1003/2/6 1013/2/6
f 1012/5/6 1002/5/6 1013/5/6
f 1003/5/6 1004/5/6 1014/5/6
f 1013/2/6 1003/2/6 1014/2/6
f 1004/3/6 1005/3/6 1015/3/6
f 1014/5/6 1004/5/6 1015/5/6
f 1015/3/6 1005/3/6 1016/3/6
