# MagicaVoxel @ Ephtracy

# group
o bars-rusty-small

# material
mtllib components-6-bars-rusty-small.mtl
usemtl palette

# normals
vn -1 0 0
vn 1 0 0
vn 0 0 1
vn 0 0 -1
vn 0 -1 0
vn 0 1 0

# texcoords
vt 0.595703 0.5
vt 0.599609 0.5
vt 0.603516 0.5
vt 0.607422 0.5
vt 0.611328 0.5
vt 0.615234 0.5
vt 0.619141 0.5
vt 0.623047 0.5

# verts
v -1.7 0.6 21
v -1.7 0.6 20.8
v -1.7 0.6 20.6
v -1.7 0.7 21
v -1.7 0.7 20.8
v -1.7 0.7 20.6
v -1.7 1.2 21
v -1.7 1.2 20.9
v -1.7 1.2 20.7
v -1.7 1.2 20.6
v -1.7 1.3 21
v -1.7 1.3 20.9
v -1.7 1.3 20.7
v -1.7 1.3 20.6
v -1.7 1.8 21
v -1.7 1.8 20.8
v -1.7 1.8 20.6
v -1.7 1.9 21
v -1.7 1.9 20.8
v -1.7 1.9 20.6
v -1 0 21.1
v -1 0 21
v -1 0 20.8
v -1 0 20.7
v -1 0 20.6
v -1 0.1 21
v -1 0.1 20.8
v -1 0.1 20.7
v -1 0.1 20.6
v -1 0.3 21.1
v -1 0.3 21
v -1 0.4 21.1
v -1 0.4 21
v -1 0.6 21.1
v -1 0.6 21
v -1 0.7 21.1
v -1 0.7 21
v -1 0.8 21.1
v -1 0.8 21
v -1 0.9 21.1
v -1 0.9 21
v -1 1 21.1
v -1 1 21
v -1 1.2 21.1
v -1 1.2 21
v -1 1.3 21.1
v -1 1.3 21
v -1 1.4 21.1
v -1 1.4 21
v -1 1.5 21.1
v -1 1.5 21
v -1 1.6 21.1
v -1 1.6 21
v -1 1.7 21.1
v -1 1.7 21
v -1 1.8 21.1
v -1 1.8 21
v -1 1.9 21.1
v -1 1.9 21
v -1 2 21.1
v -1 2 21
v -1 2.1 21.1
v -1 2.1 21
v -1 2.2 21.1
v -1 2.2 21
v -1 2.3 21
v -1 2.3 20.9
v -1 2.3 20.7
v -1 2.3 20.6
v -1 2.4 21.1
v -1 2.4 21
v -1 2.4 20.9
v -1 2.4 20.7
v -1 2.4 20.6
v -0.1 0 21.1
v -0.1 0 20.9
v -0.1 0 20.8
v -0.1 0 20.6
v -0.1 0.1 21.1
v -0.1 0.1 21
v -0.1 0.1 20.9
v -0.1 0.1 20.8
v -0.1 0.1 20.6
v -0.1 0.4 21.1
v -0.1 0.4 21
v -0.1 0.6 21.1
v -0.1 0.6 21
v -0.1 0.7 21.1
v -0.1 0.7 21
v -0.1 0.8 21.1
v -0.1 0.8 21
v -0.1 0.9 21.1
v -0.1 0.9 21
v -0.1 1 21.1
v -0.1 1 21
v -0.1 1.1 21.1
v -0.1 1.1 21
v -0.1 1.2 21.1
v -0.1 1.2 21
v -0.1 1.3 21.1
v -0.1 1.3 21
v -0.1 1.4 21.1
v -0.1 1.4 21
v -0.1 1.5 21.1
v -0.1 1.5 21
v -0.1 1.6 21.1
v -0.1 1.6 21
v -0.1 1.7 21.1
v -0.1 1.7 21
v -0.1 1.8 21.1
v -0.1 1.8 21
v -0.1 1.9 21.1
v -0.1 1.9 21
v -0.1 2 21.1
v -0.1 2 21
v -0.1 2.1 21.1
v -0.1 2.1 21
v -0.1 2.2 21.1
v -0.1 2.2 21
v -0.1 2.3 21.1
v -0.1 2.3 21
v -0.1 2.3 20.9
v -0.1 2.3 20.8
v -0.1 2.3 20.6
v -0.1 2.4 21.1
v -0.1 2.4 21
v -0.1 2.4 20.9
v -0.1 2.4 20.8
v -0.1 2.4 20.6
v 0.9 0 21.1
v 0.9 0 21
v 0.9 0 20.9
v 0.9 0 20.7
v 0.9 0 20.6
v 0.9 0.1 21
v 0.9 0.1 20.9
v 0.9 0.1 20.7
v 0.9 0.1 20.6
v 0.9 0.2 21.1
v 0.9 0.2 21
v 0.9 0.4 21.1
v 0.9 0.4 21
v 0.9 0.5 21.1
v 0.9 0.5 21
v 0.9 0.6 21.1
v 0.9 0.6 21
v 0.9 0.7 21.1
v 0.9 0.7 21
v 0.9 1 21.1
v 0.9 1 21
v 0.9 1.1 21.1
v 0.9 1.1 21
v 0.9 1.2 21.1
v 0.9 1.2 21
v 0.9 1.3 21.1
v 0.9 1.3 21
v 0.9 1.4 21.1
v 0.9 1.4 21
v 0.9 1.5 21.1
v 0.9 1.5 21
v 0.9 1.6 21.1
v 0.9 1.6 21
v 0.9 1.8 21.1
v 0.9 1.8 21
v 0.9 1.9 21.1
v 0.9 1.9 21
v 0.9 2.2 21.1
v 0.9 2.2 21
v 0.9 2.3 21.1
v 0.9 2.3 21
v 0.9 2.3 20.9
v 0.9 2.3 20.8
v 0.9 2.3 20.7
v 0.9 2.3 20.6
v 0.9 2.4 21.1
v 0.9 2.4 21
v 0.9 2.4 20.9
v 0.9 2.4 20.8
v 0.9 2.4 20.7
v 0.9 2.4 20.6
v 1.6 0.6 20.9
v 1.6 0.6 20.7
v 1.6 0.6 20.6
v 1.6 0.7 20.9
v 1.6 0.7 20.7
v 1.6 0.7 20.6
v 1.6 1.2 20.9
v 1.6 1.2 20.8
v 1.6 1.2 20.7
v 1.6 1.2 20.6
v 1.6 1.3 20.9
v 1.6 1.3 20.8
v 1.6 1.3 20.7
v 1.6 1.3 20.6
v 1.6 1.8 20.9
v 1.6 1.8 20.7
v 1.6 1.8 20.6
v 1.6 1.9 20.9
v 1.6 1.9 20.7
v 1.6 1.9 20.6
v -1.6 0.6 20.9
v -1.6 0.6 20.8
v -1.6 0.6 20.6
v -1.6 0.7 20.9
v -1.6 0.7 20.8
v -1.6 0.7 20.6
v -1.6 1.2 20.9
v -1.6 1.2 20.7
v -1.6 1.2 20.6
v -1.6 1.3 20.9
v -1.6 1.3 20.7
v -1.6 1.3 20.6
v -1.6 1.8 20.9
v -1.6 1.8 20.8
v -1.6 1.8 20.6
v -1.6 1.9 20.9
v -1.6 1.9 20.8
v -1.6 1.9 20.6
v -0.9 0 21.1
v -0.9 0 21
v -0.9 0 20.8
v -0.9 0 20.7
v -0.9 0 20.6
v -0.9 0.1 21
v -0.9 0.1 20.8
v -0.9 0.1 20.7
v -0.9 0.1 20.6
v -0.9 0.3 21.1
v -0.9 0.3 21
v -0.9 0.4 21.1
v -0.9 0.4 21
v -0.9 0.6 21.1
v -0.9 0.6 21
v -0.9 0.7 21.1
v -0.9 0.7 21
v -0.9 0.8 21.1
v -0.9 0.8 21
v -0.9 0.9 21.1
v -0.9 0.9 21
v -0.9 1 21.1
v -0.9 1 21
v -0.9 1.2 21.1
v -0.9 1.2 21
v -0.9 1.3 21.1
v -0.9 1.3 21
v -0.9 1.4 21.1
v -0.9 1.4 21
v -0.9 1.5 21.1
v -0.9 1.5 21
v -0.9 1.6 21.1
v -0.9 1.6 21
v -0.9 1.7 21.1
v -0.9 1.7 21
v -0.9 1.8 21.1
v -0.9 1.8 21
v -0.9 1.9 21.1
v -0.9 1.9 21
v -0.9 2 21.1
v -0.9 2 21
v -0.9 2.1 21.1
v -0.9 2.1 21
v -0.9 2.2 21.1
v -0.9 2.2 21
v -0.9 2.3 21
v -0.9 2.3 20.9
v -0.9 2.3 20.7
v -0.9 2.3 20.6
v -0.9 2.4 21.1
v -0.9 2.4 21
v -0.9 2.4 20.9
v -0.9 2.4 20.7
v -0.9 2.4 20.6
v -4.47035e-008 0 21.1
v -4.47035e-008 0 20.9
v -4.47035e-008 0 20.8
v -4.47035e-008 0 20.6
v -4.47035e-008 0.1 21.1
v -4.47035e-008 0.1 21
v -4.47035e-008 0.1 20.9
v -4.47035e-008 0.1 20.8
v -4.47035e-008 0.1 20.6
v -4.47035e-008 0.4 21.1
v -4.47035e-008 0.4 21
v -4.47035e-008 0.6 21.1
v -4.47035e-008 0.6 21
v -4.47035e-008 0.7 21.1
v -4.47035e-008 0.7 21
v -4.47035e-008 0.8 21.1
v -4.47035e-008 0.8 21
v -4.47035e-008 0.9 21.1
v -4.47035e-008 0.9 21
v -4.47035e-008 1 21.1
v -4.47035e-008 1 21
v -4.47035e-008 1.1 21.1
v -4.47035e-008 1.1 21
v -4.47035e-008 1.2 21.1
v -4.47035e-008 1.2 21
v -4.47035e-008 1.3 21.1
v -4.47035e-008 1.3 21
v -4.47035e-008 1.4 21.1
v -4.47035e-008 1.4 21
v -4.47035e-008 1.5 21.1
v -4.47035e-008 1.5 21
v -4.47035e-008 1.6 21.1
v -4.47035e-008 1.6 21
v -4.47035e-008 1.7 21.1
v -4.47035e-008 1.7 21
v -4.47035e-008 1.8 21.1
v -4.47035e-008 1.8 21
v -4.47035e-008 1.9 21.1
v -4.47035e-008 1.9 21
v -4.47035e-008 2 21.1
v -4.47035e-008 2 21
v -4.47035e-008 2.1 21.1
v -4.47035e-008 2.1 21
v -4.47035e-008 2.2 21.1
v -4.47035e-008 2.2 21
v -4.47035e-008 2.3 21.1
v -4.47035e-008 2.3 21
v -4.47035e-008 2.3 20.9
v -4.47035e-008 2.3 20.8
v -4.47035e-008 2.3 20.6
v -4.47035e-008 2.4 21.1
v -4.47035e-008 2.4 21
v -4.47035e-008 2.4 20.9
v -4.47035e-008 2.4 20.8
v -4.47035e-008 2.4 20.6
v 1 0 21.1
v 1 0 21
v 1 0 20.9
v 1 0 20.7
v 1 0 20.6
v 1 0.1 21
v 1 0.1 20.9
v 1 0.1 20.7
v 1 0.1 20.6
v 1 0.2 21.1
v 1 0.2 21
v 1 0.4 21.1
v 1 0.4 21
v 1 0.5 21.1
v 1 0.5 21
v 1 0.6 21.1
v 1 0.6 21
v 1 0.7 21.1
v 1 0.7 21
v 1 1 21.1
v 1 1 21
v 1 1.1 21.1
v 1 1.1 21
v 1 1.2 21.1
v 1 1.2 21
v 1 1.3 21.1
v 1 1.3 21
v 1 1.4 21.1
v 1 1.4 21
v 1 1.5 21.1
v 1 1.5 21
v 1 1.6 21.1
v 1 1.6 21
v 1 1.8 21.1
v 1 1.8 21
v 1 1.9 21.1
v 1 1.9 21
v 1 2.2 21.1
v 1 2.2 21
v 1 2.3 21.1
v 1 2.3 21
v 1 2.3 20.9
v 1 2.3 20.8
v 1 2.3 20.7
v 1 2.3 20.6
v 1 2.4 21.1
v 1 2.4 21
v 1 2.4 20.9
v 1 2.4 20.8
v 1 2.4 20.7
v 1 2.4 20.6
v 1.7 0.6 21
v 1.7 0.6 20.9
v 1.7 0.6 20.7
v 1.7 0.6 20.6
v 1.7 0.7 21
v 1.7 0.7 20.9
v 1.7 0.7 20.7
v 1.7 0.7 20.6
v 1.7 1.2 21
v 1.7 1.2 20.8
v 1.7 1.2 20.7
v 1.7 1.2 20.6
v 1.7 1.3 21
v 1.7 1.3 20.8
v 1.7 1.3 20.7
v 1.7 1.3 20.6
v 1.7 1.8 21
v 1.7 1.8 20.9
v 1.7 1.8 20.7
v 1.7 1.8 20.6
v 1.7 1.9 21
v 1.7 1.9 20.9
v 1.7 1.9 20.7
v 1.7 1.9 20.6
v -1 0 21.1
v -1 0.3 21.1
v -1 0.4 21.1
v -1 0.6 21.1
v -1 0.7 21.1
v -1 0.8 21.1
v -1 0.9 21.1
v -1 1 21.1
v -1 1.2 21.1
v -1 1.3 21.1
v -1 1.4 21.1
v -1 1.5 21.1
v -1 1.6 21.1
v -1 1.7 21.1
v -1 1.8 21.1
v -1 1.9 21.1
v -1 2 21.1
v -1 2.1 21.1
v -1 2.2 21.1
v -1 2.4 21.1
v -0.9 0 21.1
v -0.9 0.3 21.1
v -0.9 0.4 21.1
v -0.9 0.6 21.1
v -0.9 0.7 21.1
v -0.9 0.8 21.1
v -0.9 0.9 21.1
v -0.9 1 21.1
v -0.9 1.2 21.1
v -0.9 1.3 21.1
v -0.9 1.4 21.1
v -0.9 1.5 21.1
v -0.9 1.6 21.1
v -0.9 1.7 21.1
v -0.9 1.8 21.1
v -0.9 1.9 21.1
v -0.9 2 21.1
v -0.9 2.1 21.1
v -0.9 2.2 21.1
v -0.9 2.4 21.1
v -0.1 0 21.1
v -0.1 0.1 21.1
v -0.1 0.4 21.1
v -0.1 0.6 21.1
v -0.1 0.7 21.1
v -0.1 0.8 21.1
v -0.1 0.9 21.1
v -0.1 1 21.1
v -0.1 1.1 21.1
v -0.1 1.2 21.1
v -0.1 1.3 21.1
v -0.1 1.4 21.1
v -0.1 1.5 21.1
v -0.1 1.6 21.1
v -0.1 1.7 21.1
v -0.1 1.8 21.1
v -0.1 1.9 21.1
v -0.1 2 21.1
v -0.1 2.1 21.1
v -0.1 2.2 21.1
v -0.1 2.3 21.1
v -0.1 2.4 21.1
v -4.47035e-008 0 21.1
v -4.47035e-008 0.1 21.1
v -4.47035e-008 0.4 21.1
v -4.47035e-008 0.6 21.1
v -4.47035e-008 0.7 21.1
v -4.47035e-008 0.8 21.1
v -4.47035e-008 0.9 21.1
v -4.47035e-008 1 21.1
v -4.47035e-008 1.1 21.1
v -4.47035e-008 1.2 21.1
v -4.47035e-008 1.3 21.1
v -4.47035e-008 1.4 21.1
v -4.47035e-008 1.5 21.1
v -4.47035e-008 1.6 21.1
v -4.47035e-008 1.7 21.1
v -4.47035e-008 1.8 21.1
v -4.47035e-008 1.9 21.1
v -4.47035e-008 2 21.1
v -4.47035e-008 2.1 21.1
v -4.47035e-008 2.2 21.1
v -4.47035e-008 2.3 21.1
v -4.47035e-008 2.4 21.1
v 0.9 0 21.1
v 0.9 0.2 21.1
v 0.9 0.4 21.1
v 0.9 0.5 21.1
v 0.9 0.6 21.1
v 0.9 0.7 21.1
v 0.9 1 21.1
v 0.9 1.1 21.1
v 0.9 1.2 21.1
v 0.9 1.3 21.1
v 0.9 1.4 21.1
v 0.9 1.5 21.1
v 0.9 1.6 21.1
v 0.9 1.8 21.1
v 0.9 1.9 21.1
v 0.9 2.2 21.1
v 0.9 2.3 21.1
v 0.9 2.4 21.1
v 1 0 21.1
v 1 0.2 21.1
v 1 0.4 21.1
v 1 0.5 21.1
v 1 0.6 21.1
v 1 0.7 21.1
v 1 1 21.1
v 1 1.1 21.1
v 1 1.2 21.1
v 1 1.3 21.1
v 1 1.4 21.1
v 1 1.5 21.1
v 1 1.6 21.1
v 1 1.8 21.1
v 1 1.9 21.1
v 1 2.2 21.1
v 1 2.3 21.1
v 1 2.4 21.1
v -1.7 0.6 21
v -1.7 0.7 21
v -1.7 1.2 21
v -1.7 1.3 21
v -1.7 1.8 21
v -1.7 1.9 21
v -1.6 0.6 21
v -1.6 0.7 21
v -1.6 1.2 21
v -1.6 1.3 21
v -1.6 1.8 21
v -1.6 1.9 21
v -1.5 1.2 21
v -1.5 1.3 21
v -1.4 0.6 21
v -1.4 0.7 21
v -1.4 1.8 21
v -1.4 1.9 21
v -1.3 0.6 21
v -1.3 0.7 21
v -1.3 1.2 21
v -1.3 1.3 21
v -1.3 1.8 21
v -1.3 1.9 21
v -1.2 0.6 21
v -1.2 0.7 21
v -1.2 1.2 21
v -1.2 1.3 21
v -1.2 1.8 21
v -1.2 1.9 21
v -1.1 0.6 21
v -1.1 0.7 21
v -1.1 1.2 21
v -1.1 1.3 21
v -1.1 1.8 21
v -1.1 1.9 21
v -1 0.6 21
v -1 0.7 21
v -1 1.2 21
v -1 1.3 21
v -1 1.8 21
v -1 1.9 21
v -0.9 0.6 21
v -0.9 0.7 21
v -0.9 1.2 21
v -0.9 1.3 21
v -0.9 1.8 21
v -0.9 1.9 21
v -0.8 0.6 21
v -0.8 0.7 21
v -0.8 1.2 21
v -0.8 1.3 21
v -0.8 1.8 21
v -0.8 1.9 21
v -0.7 0.6 21
v -0.7 0.7 21
v -0.7 1.8 21
v -0.7 1.9 21
v -0.6 0.6 21
v -0.6 0.7 21
v -0.6 1.2 21
v -0.6 1.3 21
v -0.5 1.8 21
v -0.5 1.9 21
v -0.4 0.6 21
v -0.4 0.7 21
v -0.4 1.2 21
v -0.4 1.3 21
v -0.4 1.8 21
v -0.4 1.9 21
v -0.3 0.6 21
v -0.3 0.7 21
v -0.3 1.2 21
v -0.3 1.3 21
v -0.3 1.8 21
v -0.3 1.9 21
v -0.2 0.6 21
v -0.2 0.7 21
v -0.2 1.2 21
v -0.2 1.3 21
v -0.2 1.8 21
v -0.2 1.9 21
v -0.1 0.6 21
v -0.1 0.7 21
v -0.1 1.2 21
v -0.1 1.3 21
v -0.1 1.8 21
v -0.1 1.9 21
v -4.47035e-008 0.6 21
v -4.47035e-008 0.7 21
v -4.47035e-008 1.2 21
v -4.47035e-008 1.3 21
v -4.47035e-008 1.8 21
v -4.47035e-008 1.9 21
v 0.1 0.6 21
v 0.1 0.7 21
v 0.1 1.2 21
v 0.1 1.3 21
v 0.1 1.8 21
v 0.1 1.9 21
v 0.2 0.6 21
v 0.2 0.7 21
v 0.2 1.2 21
v 0.2 1.3 21
v 0.2 1.8 21
v 0.2 1.9 21
v 0.4 0.6 21
v 0.4 0.7 21
v 0.4 1.8 21
v 0.4 1.9 21
v 0.5 0.6 21
v 0.5 0.7 21
v 0.6 0.6 21
v 0.6 0.7 21
v 0.6 1.8 21
v 0.6 1.9 21
v 0.7 0.6 21
v 0.7 0.7 21
v 0.7 1.2 21
v 0.7 1.3 21
v 0.7 1.8 21
v 0.7 1.9 21
v 0.8 0.6 21
v 0.8 0.7 21
v 0.8 1.2 21
v 0.8 1.3 21
v 0.8 1.8 21
v 0.8 1.9 21
v 0.9 0.6 21
v 0.9 0.7 21
v 0.9 1.2 21
v 0.9 1.3 21
v 0.9 1.8 21
v 0.9 1.9 21
v 1 0.6 21
v 1 0.7 21
v 1 1.2 21
v 1 1.3 21
v 1 1.8 21
v 1 1.9 21
v 1.1 0.6 21
v 1.1 0.7 21
v 1.1 1.2 21
v 1.1 1.3 21
v 1.1 1.8 21
v 1.1 1.9 21
v 1.2 0.6 21
v 1.2 0.7 21
v 1.2 1.2 21
v 1.2 1.3 21
v 1.2 1.8 21
v 1.2 1.9 21
v 1.3 0.6 21
v 1.3 0.7 21
v 1.3 1.8 21
v 1.3 1.9 21
v 1.4 0.6 21
v 1.4 0.7 21
v 1.4 1.2 21
v 1.4 1.3 21
v 1.4 1.8 21
v 1.4 1.9 21
v 1.5 0.6 21
v 1.5 0.7 21
v 1.5 1.8 21
v 1.5 1.9 21
v 1.6 1.2 21
v 1.6 1.3 21
v 1.6 1.8 21
v 1.6 1.9 21
v 1.7 0.6 21
v 1.7 0.7 21
v 1.7 1.2 21
v 1.7 1.3 21
v 1.7 1.8 21
v 1.7 1.9 21
v -1 0.1 21
v -1 0.3 21
v -1 0.4 21
v -1 0.6 21
v -1 0.7 21
v -1 0.8 21
v -1 0.9 21
v -1 1 21
v -1 1.2 21
v -1 1.3 21
v -1 1.4 21
v -1 1.5 21
v -1 1.6 21
v -1 1.7 21
v -1 1.8 21
v -1 1.9 21
v -1 2 21
v -1 2.1 21
v -1 2.2 21
v -1 2.3 21
v -0.9 0.1 21
v -0.9 0.3 21
v -0.9 0.4 21
v -0.9 0.6 21
v -0.9 0.7 21
v -0.9 0.8 21
v -0.9 0.9 21
v -0.9 1 21
v -0.9 1.2 21
v -0.9 1.3 21
v -0.9 1.4 21
v -0.9 1.5 21
v -0.9 1.6 21
v -0.9 1.7 21
v -0.9 1.8 21
v -0.9 1.9 21
v -0.9 2 21
v -0.9 2.1 21
v -0.9 2.2 21
v -0.9 2.3 21
v -0.1 0.1 21
v -0.1 0.4 21
v -0.1 0.6 21
v -0.1 0.7 21
v -0.1 0.8 21
v -0.1 0.9 21
v -0.1 1 21
v -0.1 1.1 21
v -0.1 1.2 21
v -0.1 1.3 21
v -0.1 1.4 21
v -0.1 1.5 21
v -0.1 1.6 21
v -0.1 1.7 21
v -0.1 1.8 21
v -0.1 1.9 21
v -0.1 2 21
v -0.1 2.1 21
v -0.1 2.2 21
v -0.1 2.3 21
v -4.47035e-008 0.1 21
v -4.47035e-008 0.4 21
v -4.47035e-008 0.6 21
v -4.47035e-008 0.7 21
v -4.47035e-008 0.8 21
v -4.47035e-008 0.9 21
v -4.47035e-008 1 21
v -4.47035e-008 1.1 21
v -4.47035e-008 1.2 21
v -4.47035e-008 1.3 21
v -4.47035e-008 1.4 21
v -4.47035e-008 1.5 21
v -4.47035e-008 1.6 21
v -4.47035e-008 1.7 21
v -4.47035e-008 1.8 21
v -4.47035e-008 1.9 21
v -4.47035e-008 2 21
v -4.47035e-008 2.1 21
v -4.47035e-008 2.2 21
v -4.47035e-008 2.3 21
v 0.9 0.1 21
v 0.9 0.2 21
v 0.9 0.4 21
v 0.9 0.5 21
v 0.9 0.6 21
v 0.9 0.7 21
v 0.9 1 21
v 0.9 1.1 21
v 0.9 1.2 21
v 0.9 1.3 21
v 0.9 1.4 21
v 0.9 1.5 21
v 0.9 1.6 21
v 0.9 1.8 21
v 0.9 1.9 21
v 0.9 2.2 21
v 0.9 2.3 21
v 1 0.1 21
v 1 0.2 21
v 1 0.4 21
v 1 0.5 21
v 1 0.6 21
v 1 0.7 21
v 1 1 21
v 1 1.1 21
v 1 1.2 21
v 1 1.3 21
v 1 1.4 21
v 1 1.5 21
v 1 1.6 21
v 1 1.8 21
v 1 1.9 21
v 1 2.2 21
v 1 2.3 21
v -1.6 0.6 20.9
v -1.6 0.7 20.9
v -1.6 1.2 20.9
v -1.6 1.3 20.9
v -1.6 1.8 20.9
v -1.6 1.9 20.9
v -1.5 1.2 20.9
v -1.5 1.3 20.9
v -1.4 0.6 20.9
v -1.4 0.7 20.9
v -1.4 1.8 20.9
v -1.4 1.9 20.9
v -1.3 0.6 20.9
v -1.3 0.7 20.9
v -1.3 1.2 20.9
v -1.3 1.3 20.9
v -1.3 1.8 20.9
v -1.3 1.9 20.9
v -1.2 0.6 20.9
v -1.2 0.7 20.9
v -1.2 1.2 20.9
v -1.2 1.3 20.9
v -1.2 1.8 20.9
v -1.2 1.9 20.9
v -1.1 0.6 20.9
v -1.1 0.7 20.9
v -1.1 1.2 20.9
v -1.1 1.3 20.9
v -1.1 1.8 20.9
v -1.1 1.9 20.9
v -1 0.6 20.9
v -1 0.7 20.9
v -1 1.2 20.9
v -1 1.3 20.9
v -0.9 0.6 20.9
v -0.9 0.7 20.9
v -0.8 0.6 20.9
v -0.8 0.7 20.9
v -0.8 1.2 20.9
v -0.8 1.3 20.9
v -0.8 1.8 20.9
v -0.8 1.9 20.9
v -0.7 0.6 20.9
v -0.7 0.7 20.9
v -0.7 1.8 20.9
v -0.7 1.9 20.9
v -0.6 0.6 20.9
v -0.6 0.7 20.9
v -0.6 1.2 20.9
v -0.6 1.3 20.9
v -0.5 1.8 20.9
v -0.5 1.9 20.9
v -0.4 0.6 20.9
v -0.4 0.7 20.9
v -0.4 1.2 20.9
v -0.4 1.3 20.9
v -0.4 1.8 20.9
v -0.4 1.9 20.9
v -0.3 0.6 20.9
v -0.3 0.7 20.9
v -0.3 1.2 20.9
v -0.3 1.3 20.9
v -0.3 1.8 20.9
v -0.3 1.9 20.9
v -0.2 0.6 20.9
v -0.2 0.7 20.9
v -0.2 1.2 20.9
v -0.2 1.3 20.9
v -0.2 1.8 20.9
v -0.2 1.9 20.9
v -0.1 0.6 20.9
v -0.1 0.7 20.9
v 0.1 0.6 20.9
v 0.1 0.7 20.9
v 0.1 1.2 20.9
v 0.1 1.3 20.9
v 0.1 1.8 20.9
v 0.1 1.9 20.9
v 0.2 0.6 20.9
v 0.2 0.7 20.9
v 0.2 1.2 20.9
v 0.2 1.3 20.9
v 0.2 1.8 20.9
v 0.2 1.9 20.9
v 0.4 0.6 20.9
v 0.4 0.7 20.9
v 0.4 1.8 20.9
v 0.4 1.9 20.9
v 0.5 0.6 20.9
v 0.5 0.7 20.9
v 0.6 0.6 20.9
v 0.6 0.7 20.9
v 0.6 1.8 20.9
v 0.6 1.9 20.9
v 0.7 0.6 20.9
v 0.7 0.7 20.9
v 0.7 1.2 20.9
v 0.7 1.3 20.9
v 0.7 1.8 20.9
v 0.7 1.9 20.9
v 0.8 0.6 20.9
v 0.8 0.7 20.9
v 0.8 1.2 20.9
v 0.8 1.3 20.9
v 0.8 1.8 20.9
v 0.8 1.9 20.9
v 0.9 1.2 20.9
v 0.9 1.3 20.9
v 1 0.6 20.9
v 1 0.7 20.9
v 1 1.2 20.9
v 1 1.3 20.9
v 1 1.8 20.9
v 1 1.9 20.9
v 1.1 0.6 20.9
v 1.1 0.7 20.9
v 1.1 1.2 20.9
v 1.1 1.3 20.9
v 1.1 1.8 20.9
v 1.1 1.9 20.9
v 1.2 0.6 20.9
v 1.2 0.7 20.9
v 1.2 1.2 20.9
v 1.2 1.3 20.9
v 1.2 1.8 20.9
v 1.2 1.9 20.9
v 1.3 0.6 20.9
v 1.3 0.7 20.9
v 1.3 1.8 20.9
v 1.3 1.9 20.9
v 1.4 0.6 20.9
v 1.4 0.7 20.9
v 1.4 1.2 20.9
v 1.4 1.3 20.9
v 1.4 1.8 20.9
v 1.4 1.9 20.9
v 1.5 0.6 20.9
v 1.5 0.7 20.9
v 1.5 1.8 20.9
v 1.5 1.9 20.9
v 1.6 0.6 20.9
v 1.6 0.7 20.9
v 1.6 1.2 20.9
v 1.6 1.3 20.9
v 1.6 1.8 20.9
v 1.6 1.9 20.9
v -1.7 0.6 20.6
v -1.7 0.7 20.6
v -1.7 1.2 20.6
v -1.7 1.3 20.6
v -1.7 1.8 20.6
v -1.7 1.9 20.6
v -1.6 0.6 20.6
v -1.6 0.7 20.6
v -1.6 1.2 20.6
v -1.6 1.3 20.6
v -1.6 1.8 20.6
v -1.6 1.9 20.6
v -1 0 20.6
v -1 0.1 20.6
v -1 2.3 20.6
v -1 2.4 20.6
v -0.9 0 20.6
v -0.9 0.1 20.6
v -0.9 2.3 20.6
v -0.9 2.4 20.6
v -0.1 0 20.6
v -0.1 0.1 20.6
v -0.1 2.3 20.6
v -0.1 2.4 20.6
v -4.47035e-008 0 20.6
v -4.47035e-008 0.1 20.6
v -4.47035e-008 2.3 20.6
v -4.47035e-008 2.4 20.6
v 0.9 0 20.6
v 0.9 0.1 20.6
v 0.9 2.3 20.6
v 0.9 2.4 20.6
v 1 0 20.6
v 1 0.1 20.6
v 1 2.3 20.6
v 1 2.4 20.6
v 1.6 0.6 20.6
v 1.6 0.7 20.6
v 1.6 1.2 20.6
v 1.6 1.3 20.6
v 1.6 1.8 20.6
v 1.6 1.9 20.6
v 1.7 0.6 20.6
v 1.7 0.7 20.6
v 1.7 1.2 20.6
v 1.7 1.3 20.6
v 1.7 1.8 20.6
v 1.7 1.9 20.6
v -1 0 21.1
v -0.9 0 21.1
v -0.1 0 21.1
v -4.47035e-008 0 21.1
v 0.9 0 21.1
v 1 0 21.1
v -1 0 21
v -0.9 0 21
v 0.9 0 21
v 1 0 21
v -0.1 0 20.9
v -4.47035e-008 0 20.9
v 0.9 0 20.9
v 1 0 20.9
v -1 0 20.8
v -0.9 0 20.8
v -0.1 0 20.8
v -4.47035e-008 0 20.8
v -1 0 20.7
v -0.9 0 20.7
v 0.9 0 20.7
v 1 0 20.7
v -1 0 20.6
v -0.9 0 20.6
v -0.1 0 20.6
v -4.47035e-008 0 20.6
v 0.9 0 20.6
v 1 0 20.6
v -1.7 0.6 21
v -1.6 0.6 21
v -1.4 0.6 21
v -1.3 0.6 21
v -1.2 0.6 21
v -1.1 0.6 21
v -1 0.6 21
v -0.9 0.6 21
v -0.8 0.6 21
v -0.7 0.6 21
v -0.6 0.6 21
v -0.4 0.6 21
v -0.3 0.6 21
v -0.2 0.6 21
v -0.1 0.6 21
v -4.47035e-008 0.6 21
v 0.1 0.6 21
v 0.2 0.6 21
v 0.4 0.6 21
v 0.5 0.6 21
v 0.6 0.6 21
v 0.7 0.6 21
v 0.8 0.6 21
v 0.9 0.6 21
v 1 0.6 21
v 1.1 0.6 21
v 1.2 0.6 21
v 1.3 0.6 21
v 1.4 0.6 21
v 1.5 0.6 21
v 1.7 0.6 21
v -1.6 0.6 20.9
v -1.4 0.6 20.9
v -1.3 0.6 20.9
v -1.2 0.6 20.9
v -1.1 0.6 20.9
v -1 0.6 20.9
v -0.9 0.6 20.9
v -0.8 0.6 20.9
v -0.7 0.6 20.9
v -0.6 0.6 20.9
v -0.4 0.6 20.9
v -0.3 0.6 20.9
v -0.2 0.6 20.9
v -0.1 0.6 20.9
v 0.1 0.6 20.9
v 0.2 0.6 20.9
v 0.4 0.6 20.9
v 0.5 0.6 20.9
v 0.6 0.6 20.9
v 0.7 0.6 20.9
v 0.8 0.6 20.9
v 1 0.6 20.9
v 1.1 0.6 20.9
v 1.2 0.6 20.9
v 1.3 0.6 20.9
v 1.4 0.6 20.9
v 1.5 0.6 20.9
v 1.6 0.6 20.9
v 1.7 0.6 20.9
v -1.7 0.6 20.8
v -1.6 0.6 20.8
v 1.6 0.6 20.7
v 1.7 0.6 20.7
v -1.7 0.6 20.6
v -1.6 0.6 20.6
v 1.6 0.6 20.6
v 1.7 0.6 20.6
v -1.7 1.2 21
v -1.6 1.2 21
v -1.5 1.2 21
v -1.3 1.2 21
v -1.2 1.2 21
v -1.1 1.2 21
v -1 1.2 21
v -0.9 1.2 21
v -0.8 1.2 21
v -0.6 1.2 21
v -0.4 1.2 21
v -0.3 1.2 21
v -0.2 1.2 21
v -0.1 1.2 21
v -4.47035e-008 1.2 21
v 0.1 1.2 21
v 0.2 1.2 21
v 0.7 1.2 21
v 0.8 1.2 21
v 0.9 1.2 21
v 1 1.2 21
v 1.1 1.2 21
v 1.2 1.2 21
v 1.4 1.2 21
v 1.6 1.2 21
v 1.7 1.2 21
v -1.7 1.2 20.9
v -1.6 1.2 20.9
v -1.5 1.2 20.9
v -1.3 1.2 20.9
v -1.2 1.2 20.9
v -1.1 1.2 20.9
v -1 1.2 20.9
v -0.8 1.2 20.9
v -0.6 1.2 20.9
v -0.4 1.2 20.9
v -0.3 1.2 20.9
v -0.2 1.2 20.9
v 0.1 1.2 20.9
v 0.2 1.2 20.9
v 0.7 1.2 20.9
v 0.8 1.2 20.9
v 0.9 1.2 20.9
v 1 1.2 20.9
v 1.1 1.2 20.9
v 1.2 1.2 20.9
v 1.4 1.2 20.9
v 1.6 1.2 20.9
v 1.6 1.2 20.8
v 1.7 1.2 20.8
v -1.7 1.2 20.7
v -1.6 1.2 20.7
v 1.6 1.2 20.7
v 1.7 1.2 20.7
v -1.7 1.2 20.6
v -1.6 1.2 20.6
v 1.6 1.2 20.6
v 1.7 1.2 20.6
v -1.7 1.8 21
v -1.6 1.8 21
v -1.4 1.8 21
v -1.3 1.8 21
v -1.2 1.8 21
v -1.1 1.8 21
v -1 1.8 21
v -0.9 1.8 21
v -0.8 1.8 21
v -0.7 1.8 21
v -0.5 1.8 21
v -0.4 1.8 21
v -0.3 1.8 21
v -0.2 1.8 21
v -0.1 1.8 21
v -4.47035e-008 1.8 21
v 0.1 1.8 21
v 0.2 1.8 21
v 0.4 1.8 21
v 0.6 1.8 21
v 0.7 1.8 21
v 0.8 1.8 21
v 0.9 1.8 21
v 1 1.8 21
v 1.1 1.8 21
v 1.2 1.8 21
v 1.3 1.8 21
v 1.4 1.8 21
v 1.5 1.8 21
v 1.6 1.8 21
v 1.7 1.8 21
v -1.6 1.8 20.9
v -1.4 1.8 20.9
v -1.3 1.8 20.9
v -1.2 1.8 20.9
v -1.1 1.8 20.9
v -0.8 1.8 20.9
v -0.7 1.8 20.9
v -0.5 1.8 20.9
v -0.4 1.8 20.9
v -0.3 1.8 20.9
v -0.2 1.8 20.9
v 0.1 1.8 20.9
v 0.2 1.8 20.9
v 0.4 1.8 20.9
v 0.6 1.8 20.9
v 0.7 1.8 20.9
v 0.8 1.8 20.9
v 1 1.8 20.9
v 1.1 1.8 20.9
v 1.2 1.8 20.9
v 1.3 1.8 20.9
v 1.4 1.8 20.9
v 1.5 1.8 20.9
v 1.6 1.8 20.9
v 1.7 1.8 20.9
v -1.7 1.8 20.8
v -1.6 1.8 20.8
v 1.6 1.8 20.7
v 1.7 1.8 20.7
v -1.7 1.8 20.6
v -1.6 1.8 20.6
v 1.6 1.8 20.6
v 1.7 1.8 20.6
v -1 2.3 21
v -0.9 2.3 21
v -0.1 2.3 21
v -4.47035e-008 2.3 21
v 0.9 2.3 21
v 1 2.3 21
v -1 2.3 20.9
v -0.9 2.3 20.9
v -0.1 2.3 20.9
v -4.47035e-008 2.3 20.9
v 0.9 2.3 20.9
v 1 2.3 20.9
v -0.1 2.3 20.8
v -4.47035e-008 2.3 20.8
v 0.9 2.3 20.8
v 1 2.3 20.8
v -1 2.3 20.7
v -0.9 2.3 20.7
v 0.9 2.3 20.7
v 1 2.3 20.7
v -1 2.3 20.6
v -0.9 2.3 20.6
v -0.1 2.3 20.6
v -4.47035e-008 2.3 20.6
v 0.9 2.3 20.6
v 1 2.3 20.6
v -1 0.1 21
v -0.9 0.1 21
v -0.1 0.1 21
v -4.47035e-008 0.1 21
v 0.9 0.1 21
v 1 0.1 21
v -0.1 0.1 20.9
v -4.47035e-008 0.1 20.9
v 0.9 0.1 20.9
v 1 0.1 20.9
v -1 0.1 20.8
v -0.9 0.1 20.8
v -0.1 0.1 20.8
v -4.47035e-008 0.1 20.8
v -1 0.1 20.7
v -0.9 0.1 20.7
v 0.9 0.1 20.7
v 1 0.1 20.7
v -1 0.1 20.6
v -0.9 0.1 20.6
v -0.1 0.1 20.6
v -4.47035e-008 0.1 20.6
v 0.9 0.1 20.6
v 1 0.1 20.6
v -1.7 0.7 21
v -1.6 0.7 21
v -1.4 0.7 21
v -1.3 0.7 21
v -1.2 0.7 21
v -1.1 0.7 21
v -1 0.7 21
v -0.9 0.7 21
v -0.8 0.7 21
v -0.7 0.7 21
v -0.6 0.7 21
v -0.4 0.7 21
v -0.3 0.7 21
v -0.2 0.7 21
v -0.1 0.7 21
v -4.47035e-008 0.7 21
v 0.1 0.7 21
v 0.2 0.7 21
v 0.4 0.7 21
v 0.5 0.7 21
v 0.6 0.7 21
v 0.7 0.7 21
v 0.8 0.7 21
v 0.9 0.7 21
v 1 0.7 21
v 1.1 0.7 21
v 1.2 0.7 21
v 1.3 0.7 21
v 1.4 0.7 21
v 1.5 0.7 21
v 1.7 0.7 21
v -1.6 0.7 20.9
v -1.4 0.7 20.9
v -1.3 0.7 20.9
v -1.2 0.7 20.9
v -1.1 0.7 20.9
v -1 0.7 20.9
v -0.9 0.7 20.9
v -0.8 0.7 20.9
v -0.7 0.7 20.9
v -0.6 0.7 20.9
v -0.4 0.7 20.9
v -0.3 0.7 20.9
v -0.2 0.7 20.9
v -0.1 0.7 20.9
v 0.1 0.7 20.9
v 0.2 0.7 20.9
v 0.4 0.7 20.9
v 0.5 0.7 20.9
v 0.6 0.7 20.9
v 0.7 0.7 20.9
v 0.8 0.7 20.9
v 1 0.7 20.9
v 1.1 0.7 20.9
v 1.2 0.7 20.9
v 1.3 0.7 20.9
v 1.4 0.7 20.9
v 1.5 0.7 20.9
v 1.6 0.7 20.9
v 1.7 0.7 20.9
v -1.7 0.7 20.8
v -1.6 0.7 20.8
v 1.6 0.7 20.7
v 1.7 0.7 20.7
v -1.7 0.7 20.6
v -1.6 0.7 20.6
v 1.6 0.7 20.6
v 1.7 0.7 20.6
v -1.7 1.3 21
v -1.6 1.3 21
v -1.5 1.3 21
v -1.3 1.3 21
v -1.2 1.3 21
v -1.1 1.3 21
v -1 1.3 21
v -0.9 1.3 21
v -0.8 1.3 21
v -0.6 1.3 21
v -0.4 1.3 21
v -0.3 1.3 21
v -0.2 1.3 21
v -0.1 1.3 21
v -4.47035e-008 1.3 21
v 0.1 1.3 21
v 0.2 1.3 21
v 0.7 1.3 21
v 0.8 1.3 21
v 0.9 1.3 21
v 1 1.3 21
v 1.1 1.3 21
v 1.2 1.3 21
v 1.4 1.3 21
v 1.6 1.3 21
v 1.7 1.3 21
v -1.7 1.3 20.9
v -1.6 1.3 20.9
v -1.5 1.3 20.9
v -1.3 1.3 20.9
v -1.2 1.3 20.9
v -1.1 1.3 20.9
v -1 1.3 20.9
v -0.8 1.3 20.9
v -0.6 1.3 20.9
v -0.4 1.3 20.9
v -0.3 1.3 20.9
v -0.2 1.3 20.9
v 0.1 1.3 20.9
v 0.2 1.3 20.9
v 0.7 1.3 20.9
v 0.8 1.3 20.9
v 0.9 1.3 20.9
v 1 1.3 20.9
v 1.1 1.3 20.9
v 1.2 1.3 20.9
v 1.4 1.3 20.9
v 1.6 1.3 20.9
v 1.6 1.3 20.8
v 1.7 1.3 20.8
v -1.7 1.3 20.7
v -1.6 1.3 20.7
v 1.6 1.3 20.7
v 1.7 1.3 20.7
v -1.7 1.3 20.6
v -1.6 1.3 20.6
v 1.6 1.3 20.6
v 1.7 1.3 20.6
v -1.7 1.9 21
v -1.6 1.9 21
v -1.4 1.9 21
v -1.3 1.9 21
v -1.2 1.9 21
v -1.1 1.9 21
v -1 1.9 21
v -0.9 1.9 21
v -0.8 1.9 21
v -0.7 1.9 21
v -0.5 1.9 21
v -0.4 1.9 21
v -0.3 1.9 21
v -0.2 1.9 21
v -0.1 1.9 21
v -4.47035e-008 1.9 21
v 0.1 1.9 21
v 0.2 1.9 21
v 0.4 1.9 21
v 0.6 1.9 21
v 0.7 1.9 21
v 0.8 1.9 21
v 0.9 1.9 21
v 1 1.9 21
v 1.1 1.9 21
v 1.2 1.9 21
v 1.3 1.9 21
v 1.4 1.9 21
v 1.5 1.9 21
v 1.6 1.9 21
v 1.7 1.9 21
v -1.6 1.9 20.9
v -1.4 1.9 20.9
v -1.3 1.9 20.9
v -1.2 1.9 20.9
v -1.1 1.9 20.9
v -0.8 1.9 20.9
v -0.7 1.9 20.9
v -0.5 1.9 20.9
v -0.4 1.9 20.9
v -0.3 1.9 20.9
v -0.2 1.9 20.9
v 0.1 1.9 20.9
v 0.2 1.9 20.9
v 0.4 1.9 20.9
v 0.6 1.9 20.9
v 0.7 1.9 20.9
v 0.8 1.9 20.9
v 1 1.9 20.9
v 1.1 1.9 20.9
v 1.2 1.9 20.9
v 1.3 1.9 20.9
v 1.4 1.9 20.9
v 1.5 1.9 20.9
v 1.6 1.9 20.9
v 1.7 1.9 20.9
v -1.7 1.9 20.8
v -1.6 1.9 20.8
v 1.6 1.9 20.7
v 1.7 1.9 20.7
v -1.7 1.9 20.6
v -1.6 1.9 20.6
v 1.6 1.9 20.6
v 1.7 1.9 20.6
v -1 2.4 21.1
v -0.9 2.4 21.1
v -0.1 2.4 21.1
v -4.47035e-008 2.4 21.1
v 0.9 2.4 21.1
v 1 2.4 21.1
v -1 2.4 21
v -0.9 2.4 21
v -0.1 2.4 21
v -4.47035e-008 2.4 21
v 0.9 2.4 21
v 1 2.4 21
v -1 2.4 20.9
v -0.9 2.4 20.9
v -0.1 2.4 20.9
v -4.47035e-008 2.4 20.9
v 0.9 2.4 20.9
v 1 2.4 20.9
v -0.1 2.4 20.8
v -4.47035e-008 2.4 20.8
v 0.9 2.4 20.8
v 1 2.4 20.8
v -1 2.4 20.7
v -0.9 2.4 20.7
v 0.9 2.4 20.7
v 1 2.4 20.7
v -1 2.4 20.6
v -0.9 2.4 20.6
v -0.1 2.4 20.6
v -4.47035e-008 2.4 20.6
v 0.9 2.4 20.6
v 1 2.4 20.6

# faces
f 4/8/1 2/8/1 1/8/1
f 5/2/1 3/2/1 2/2/1
f 5/8/1 2/8/1 4/8/1
f 6/2/1 3/2/1 5/2/1
f 11/6/1 8/6/1 7/6/1
f 12/2/1 9/2/1 8/2/1
f 12/6/1 8/6/1 11/6/1
f 13/8/1 10/8/1 9/8/1
f 13/2/1 9/2/1 12/2/1
f 14/8/1 10/8/1 13/8/1
f 18/6/1 16/6/1 15/6/1
f 19/8/1 17/8/1 16/8/1
f 19/6/1 16/6/1 18/6/1
f 20/8/1 17/8/1 19/8/1
f 26/4/1 22/4/1 21/4/1
f 26/6/1 23/6/1 22/6/1
f 27/8/1 24/8/1 23/8/1
f 27/6/1 23/6/1 26/6/1
f 28/2/1 25/2/1 24/2/1
f 28/8/1 24/8/1 27/8/1
f 29/2/1 25/2/1 28/2/1
f 30/4/1 26/4/1 21/4/1
f 31/4/1 26/4/1 30/4/1
f 32/3/1 31/3/1 30/3/1
f 33/3/1 31/3/1 32/3/1
f 34/5/1 33/5/1 32/5/1
f 35/5/1 33/5/1 34/5/1
f 36/6/1 35/6/1 34/6/1
f 37/6/1 35/6/1 36/6/1
f 38/4/1 37/4/1 36/4/1
f 39/4/1 37/4/1 38/4/1
f 40/3/1 39/3/1 38/3/1
f 41/3/1 39/3/1 40/3/1
f 42/4/1 41/4/1 40/4/1
f 43/4/1 41/4/1 42/4/1
f 44/5/1 43/5/1 42/5/1
f 45/5/1 43/5/1 44/5/1
f 46/6/1 45/6/1 44/6/1
f 47/6/1 45/6/1 46/6/1
f 48/5/1 47/5/1 46/5/1
f 49/5/1 47/5/1 48/5/1
f 50/7/1 49/7/1 48/7/1
f 51/7/1 49/7/1 50/7/1
f 52/4/1 51/4/1 50/4/1
f 53/4/1 51/4/1 52/4/1
f 54/3/1 53/3/1 52/3/1
f 55/3/1 53/3/1 54/3/1
f 56/5/1 55/5/1 54/5/1
f 57/5/1 55/5/1 56/5/1
f 58/6/1 57/6/1 56/6/1
f 59/6/1 57/6/1 58/6/1
f 60/5/1 59/5/1 58/5/1
f 61/5/1 59/5/1 60/5/1
f 62/7/1 61/7/1 60/7/1
f 63/7/1 61/7/1 62/7/1
f 64/5/1 63/5/1 62/5/1
f 65/5/1 63/5/1 64/5/1
f 66/7/1 65/7/1 64/7/1
f 70/7/1 66/7/1 64/7/1
f 71/6/1 67/6/1 66/6/1
f 71/7/1 66/7/1 70/7/1
f 72/8/1 68/8/1 67/8/1
f 72/6/1 67/6/1 71/6/1
f 73/2/1 69/2/1 68/2/1
f 73/8/1 68/8/1 72/8/1
f 74/2/1 69/2/1 73/2/1
f 79/6/1 76/6/1 75/6/1
f 80/6/1 76/6/1 79/6/1
f 81/2/1 77/2/1 76/2/1
f 81/6/1 76/6/1 80/6/1
f 82/8/1 78/8/1 77/8/1
f 82/2/1 77/2/1 81/2/1
f 83/8/1 78/8/1 82/8/1
f 84/4/1 80/4/1 79/4/1
f 85/4/1 80/4/1 84/4/1
f 86/3/1 85/3/1 84/3/1
f 87/3/1 85/3/1 86/3/1
f 88/7/1 87/7/1 86/7/1
f 89/7/1 87/7/1 88/7/1
f 90/3/1 89/3/1 88/3/1
f 91/3/1 89/3/1 90/3/1
f 92/1/1 91/1/1 90/1/1
f 93/1/1 91/1/1 92/1/1
f 94/4/1 93/4/1 92/4/1
f 95/4/1 93/4/1 94/4/1
f 96/7/1 95/7/1 94/7/1
f 97/7/1 95/7/1 96/7/1
f 98/4/1 97/4/1 96/4/1
f 99/4/1 97/4/1 98/4/1
f 100/6/1 99/6/1 98/6/1
f 101/6/1 99/6/1 100/6/1
f 102/5/1 101/5/1 100/5/1
f 103/5/1 101/5/1 102/5/1
f 104/4/1 103/4/1 102/4/1
f 105/4/1 103/4/1 104/4/1
f 106/3/1 105/3/1 104/3/1
f 107/3/1 105/3/1 106/3/1
f 108/7/1 107/7/1 106/7/1
f 109/7/1 107/7/1 108/7/1
f 110/4/1 109/4/1 108/4/1
f 111/4/1 109/4/1 110/4/1
f 112/6/1 111/6/1 110/6/1
f 113/6/1 111/6/1 112/6/1
f 114/5/1 113/5/1 112/5/1
f 115/5/1 113/5/1 114/5/1
f 116/7/1 115/7/1 114/7/1
f 117/7/1 115/7/1 116/7/1
f 118/3/1 117/3/1 116/3/1
f 119/3/1 117/3/1 118/3/1
f 120/4/1 119/4/1 118/4/1
f 121/4/1 119/4/1 120/4/1
f 125/5/1 121/5/1 120/5/1
f 126/6/1 122/6/1 121/6/1
f 126/5/1 121/5/1 125/5/1
f 127/7/1 123/7/1 122/7/1
f 127/6/1 122/6/1 126/6/1
f 128/8/1 124/8/1 123/8/1
f 128/7/1 123/7/1 127/7/1
f 129/8/1 124/8/1 128/8/1
f 135/4/1 131/4/1 130/4/1
f 135/6/1 132/6/1 131/6/1
f 136/8/1 133/8/1 132/8/1
f 136/6/1 132/6/1 135/6/1
f 137/2/1 134/2/1 133/2/1
f 137/8/1 133/8/1 136/8/1
f 138/2/1 134/2/1 137/2/1
f 139/4/1 135/4/1 130/4/1
f 140/4/1 135/4/1 139/4/1
f 141/1/1 140/1/1 139/1/1
f 142/1/1 140/1/1 141/1/1
f 143/3/1 142/3/1 141/3/1
f 144/3/1 142/3/1 143/3/1
f 145/1/1 144/1/1 143/1/1
f 146/1/1 144/1/1 145/1/1
f 147/8/1 146/8/1 145/8/1
f 148/8/1 146/8/1 147/8/1
f 149/4/1 148/4/1 147/4/1
f 150/4/1 148/4/1 149/4/1
f 151/7/1 150/7/1 149/7/1
f 152/7/1 150/7/1 151/7/1
f 153/5/1 152/5/1 151/5/1
f 154/5/1 152/5/1 153/5/1
f 155/6/1 154/6/1 153/6/1
f 156/6/1 154/6/1 155/6/1
f 157/4/1 156/4/1 155/4/1
f 158/4/1 156/4/1 157/4/1
f 159/1/1 158/1/1 157/1/1
f 160/1/1 158/1/1 159/1/1
f 161/3/1 160/3/1 159/3/1
f 162/3/1 160/3/1 161/3/1
f 163/5/1 162/5/1 161/5/1
f 164/5/1 162/5/1 163/5/1
f 165/6/1 164/6/1 163/6/1
f 166/6/1 164/6/1 165/6/1
f 167/5/1 166/5/1 165/5/1
f 168/5/1 166/5/1 167/5/1
f 169/6/1 168/6/1 167/6/1
f 170/6/1 168/6/1 169/6/1
f 175/7/1 170/7/1 169/7/1
f 176/8/1 171/8/1 170/8/1
f 176/7/1 170/7/1 175/7/1
f 177/2/1 172/2/1 171/2/1
f 177/8/1 171/8/1 176/8/1
f 178/8/1 173/8/1 172/8/1
f 178/2/1 172/2/1 177/2/1
f 179/2/1 174/2/1 173/2/1
f 179/8/1 173/8/1 178/8/1
f 180/2/1 174/2/1 179/2/1
f 184/8/1 182/8/1 181/8/1
f 185/2/1 183/2/1 182/2/1
f 185/8/1 182/8/1 184/8/1
f 186/2/1 183/2/1 185/2/1
f 191/6/1 188/6/1 187/6/1
f 192/2/1 189/2/1 188/2/1
f 192/6/1 188/6/1 191/6/1
f 193/8/1 190/8/1 189/8/1
f 193/2/1 189/2/1 192/2/1
f 194/8/1 190/8/1 193/8/1
f 198/2/1 196/2/1 195/2/1
f 199/8/1 197/8/1 196/8/1
f 199/2/1 196/2/1 198/2/1
f 200/8/1 197/8/1 199/8/1
f 201/8/2 202/8/2 204/8/2
f 202/2/2 203/2/2 205/2/2
f 204/8/2 202/8/2 205/8/2
f 205/2/2 203/2/2 206/2/2
f 207/2/2 208/2/2 210/2/2
f 208/8/2 209/8/2 211/8/2
f 210/2/2 208/2/2 211/2/2
f 211/8/2 209/8/2 212/8/2
f 213/6/2 214/6/2 216/6/2
f 214/8/2 215/8/2 217/8/2
f 216/6/2 214/6/2 217/6/2
f 217/8/2 215/8/2 218/8/2
f 219/4/2 220/4/2 224/4/2
f 220/6/2 221/6/2 224/6/2
f 221/8/2 222/8/2 225/8/2
f 224/6/2 221/6/2 225/6/2
f 222/2/2 223/2/2 226/2/2
f 225/8/2 222/8/2 226/8/2
f 226/2/2 223/2/2 227/2/2
f 219/4/2 224/4/2 228/4/2
f 228/4/2 224/4/2 229/4/2
f 228/3/2 229/3/2 230/3/2
f 230/3/2 229/3/2 231/3/2
f 230/5/2 231/5/2 232/5/2
f 232/5/2 231/5/2 233/5/2
f 232/6/2 233/6/2 234/6/2
f 234/6/2 233/6/2 235/6/2
f 234/4/2 235/4/2 236/4/2
f 236/4/2 235/4/2 237/4/2
f 236/3/2 237/3/2 238/3/2
f 238/3/2 237/3/2 239/3/2
f 238/4/2 239/4/2 240/4/2
f 240/4/2 239/4/2 241/4/2
f 240/5/2 241/5/2 242/5/2
f 242/5/2 241/5/2 243/5/2
f 242/6/2 243/6/2 244/6/2
f 244/6/2 243/6/2 245/6/2
f 244/5/2 245/5/2 246/5/2
f 246/5/2 245/5/2 247/5/2
f 246/7/2 247/7/2 248/7/2
f 248/7/2 247/7/2 249/7/2
f 248/4/2 249/4/2 250/4/2
f 250/4/2 249/4/2 251/4/2
f 250/3/2 251/3/2 252/3/2
f 252/3/2 251/3/2 253/3/2
f 252/5/2 253/5/2 254/5/2
f 254/5/2 253/5/2 255/5/2
f 254/6/2 255/6/2 256/6/2
f 256/6/2 255/6/2 257/6/2
f 256/5/2 257/5/2 258/5/2
f 258/5/2 257/5/2 259/5/2
f 258/7/2 259/7/2 260/7/2
f 260/7/2 259/7/2 261/7/2
f 260/5/2 261/5/2 262/5/2
f 262/5/2 261/5/2 263/5/2
f 262/7/2 263/7/2 264/7/2
f 262/7/2 264/7/2 268/7/2
f 264/6/2 265/6/2 269/6/2
f 268/7/2 264/7/2 269/7/2
f 265/8/2 266/8/2 270/8/2
f 269/6/2 265/6/2 270/6/2
f 266/2/2 267/2/2 271/2/2
f 270/8/2 266/8/2 271/8/2
f 271/2/2 267/2/2 272/2/2
f 273/6/2 274/6/2 277/6/2
f 277/6/2 274/6/2 278/6/2
f 274/2/2 275/2/2 279/2/2
f 278/6/2 274/6/2 279/6/2
f 275/8/2 276/8/2 280/8/2
f 279/2/2 275/2/2 280/2/2
f 280/8/2 276/8/2 281/8/2
f 277/4/2 278/4/2 282/4/2
f 282/4/2 278/4/2 283/4/2
f 282/3/2 283/3/2 284/3/2
f 284/3/2 283/3/2 285/3/2
f 284/7/2 285/7/2 286/7/2
f 286/7/2 285/7/2 287/7/2
f 286/3/2 287/3/2 288/3/2
f 288/3/2 287/3/2 289/3/2
f 288/1/2 289/1/2 290/1/2
f 290/1/2 289/1/2 291/1/2
f 290/4/2 291/4/2 292/4/2
f 292/4/2 291/4/2 293/4/2
f 292/7/2 293/7/2 294/7/2
f 294/7/2 293/7/2 295/7/2
f 294/4/2 295/4/2 296/4/2
f 296/4/2 295/4/2 297/4/2
f 296/6/2 297/6/2 298/6/2
f 298/6/2 297/6/2 299/6/2
f 298/5/2 299/5/2 300/5/2
f 300/5/2 299/5/2 301/5/2
f 300/4/2 301/4/2 302/4/2
f 302/4/2 301/4/2 303/4/2
f 302/3/2 303/3/2 304/3/2
f 304/3/2 303/3/2 305/3/2
f 304/7/2 305/7/2 306/7/2
f 306/7/2 305/7/2 307/7/2
f 306/4/2 307/4/2 308/4/2
f 308/4/2 307/4/2 309/4/2
f 308/6/2 309/6/2 310/6/2
f 310/6/2 309/6/2 311/6/2
f 310/5/2 311/5/2 312/5/2
f 312/5/2 311/5/2 313/5/2
f 312/7/2 313/7/2 314/7/2
f 314/7/2 313/7/2 315/7/2
f 314/3/2 315/3/2 316/3/2
f 316/3/2 315/3/2 317/3/2
f 316/4/2 317/4/2 318/4/2
f 318/4/2 317/4/2 319/4/2
f 318/5/2 319/5/2 323/5/2
f 319/6/2 320/6/2 324/6/2
f 323/5/2 319/5/2 324/5/2
f 320/7/2 321/7/2 325/7/2
f 324/6/2 320/6/2 325/6/2
f 321/8/2 322/8/2 326/8/2
f 325/7/2 321/7/2 326/7/2
f 326/8/2 322/8/2 327/8/2
f 328/4/2 329/4/2 333/4/2
f 329/6/2 330/6/2 333/6/2
f 330/8/2 331/8/2 334/8/2
f 333/6/2 330/6/2 334/6/2
f 331/2/2 332/2/2 335/2/2
f 334/8/2 331/8/2 335/8/2
f 335/2/2 332/2/2 336/2/2
f 328/4/2 333/4/2 337/4/2
f 337/4/2 333/4/2 338/4/2
f 337/1/2 338/1/2 339/1/2
f 339/1/2 338/1/2 340/1/2
f 339/3/2 340/3/2 341/3/2
f 341/3/2 340/3/2 342/3/2
f 341/1/2 342/1/2 343/1/2
f 343/1/2 342/1/2 344/1/2
f 343/8/2 344/8/2 345/8/2
f 345/8/2 344/8/2 346/8/2
f 345/4/2 346/4/2 347/4/2
f 347/4/2 346/4/2 348/4/2
f 347/7/2 348/7/2 349/7/2
f 349/7/2 348/7/2 350/7/2
f 349/5/2 350/5/2 351/5/2
f 351/5/2 350/5/2 352/5/2
f 351/6/2 352/6/2 353/6/2
f 353/6/2 352/6/2 354/6/2
f 353/4/2 354/4/2 355/4/2
f 355/4/2 354/4/2 356/4/2
f 355/1/2 356/1/2 357/1/2
f 357/1/2 356/1/2 358/1/2
f 357/3/2 358/3/2 359/3/2
f 359/3/2 358/3/2 360/3/2
f 359/5/2 360/5/2 361/5/2
f 361/5/2 360/5/2 362/5/2
f 361/6/2 362/6/2 363/6/2
f 363/6/2 362/6/2 364/6/2
f 363/5/2 364/5/2 365/5/2
f 365/5/2 364/5/2 366/5/2
f 365/6/2 366/6/2 367/6/2
f 367/6/2 366/6/2 368/6/2
f 367/7/2 368/7/2 373/7/2
f 368/8/2 369/8/2 374/8/2
f 373/7/2 368/7/2 374/7/2
f 369/2/2 370/2/2 375/2/2
f 374/8/2 369/8/2 375/8/2
f 370/8/2 371/8/2 376/8/2
f 375/2/2 370/2/2 376/2/2
f 371/2/2 372/2/2 377/2/2
f 376/8/2 371/8/2 377/8/2
f 377/2/2 372/2/2 378/2/2
f 379/6/2 380/6/2 383/6/2
f 380/8/2 381/8/2 384/8/2
f 383/6/2 380/6/2 384/6/2
f 381/2/2 382/2/2 385/2/2
f 384/8/2 381/8/2 385/8/2
f 385/2/2 382/2/2 386/2/2
f 387/6/2 388/6/2 391/6/2
f 388/2/2 389/2/2 392/2/2
f 391/6/2 388/6/2 392/6/2
f 389/8/2 390/8/2 393/8/2
f 392/2/2 389/2/2 393/2/2
f 393/8/2 390/8/2 394/8/2
f 395/7/2 396/7/2 399/7/2
f 396/2/2 397/2/2 400/2/2
f 399/7/2 396/7/2 400/7/2
f 397/8/2 398/8/2 401/8/2
f 400/2/2 397/2/2 401/2/2
f 401/8/2 398/8/2 402/8/2
f 423/4/3 404/4/3 403/4/3
f 424/3/3 405/3/3 404/3/3
f 424/4/3 404/4/3 423/4/3
f 425/5/3 406/5/3 405/5/3
f 425/3/3 405/3/3 424/3/3
f 426/6/3 407/6/3 406/6/3
f 426/5/3 406/5/3 425/5/3
f 427/4/3 408/4/3 407/4/3
f 427/6/3 407/6/3 426/6/3
f 428/3/3 409/3/3 408/3/3
f 428/4/3 408/4/3 427/4/3
f 429/4/3 410/4/3 409/4/3
f 429/3/3 409/3/3 428/3/3
f 430/5/3 411/5/3 410/5/3
f 430/4/3 410/4/3 429/4/3
f 431/6/3 412/6/3 411/6/3
f 431/5/3 411/5/3 430/5/3
f 432/5/3 413/5/3 412/5/3
f 432/6/3 412/6/3 431/6/3
f 433/7/3 414/7/3 413/7/3
f 433/5/3 413/5/3 432/5/3
f 434/4/3 415/4/3 414/4/3
f 434/7/3 414/7/3 433/7/3
f 435/3/3 416/3/3 415/3/3
f 435/4/3 415/4/3 434/4/3
f 436/5/3 417/5/3 416/5/3
f 436/3/3 416/3/3 435/3/3
f 437/6/3 418/6/3 417/6/3
f 437/5/3 417/5/3 436/5/3
f 438/5/3 419/5/3 418/5/3
f 438/6/3 418/6/3 437/6/3
f 439/7/3 420/7/3 419/7/3
f 439/5/3 419/5/3 438/5/3
f 440/5/3 421/5/3 420/5/3
f 440/7/3 420/7/3 439/7/3
f 441/7/3 422/7/3 421/7/3
f 441/5/3 421/5/3 440/5/3
f 442/7/3 422/7/3 441/7/3
f 465/6/3 444/6/3 443/6/3
f 466/4/3 445/4/3 444/4/3
f 466/6/3 444/6/3 465/6/3
f 467/3/3 446/3/3 445/3/3
f 467/4/3 445/4/3 466/4/3
f 468/7/3 447/7/3 446/7/3
f 468/3/3 446/3/3 467/3/3
f 469/3/3 448/3/3 447/3/3
f 469/7/3 447/7/3 468/7/3
f 470/1/3 449/1/3 448/1/3
f 470/3/3 448/3/3 469/3/3
f 471/4/3 450/4/3 449/4/3
f 471/1/3 449/1/3 470/1/3
f 472/7/3 451/7/3 450/7/3
f 472/4/3 450/4/3 471/4/3
f 473/4/3 452/4/3 451/4/3
f 473/7/3 451/7/3 472/7/3
f 474/6/3 453/6/3 452/6/3
f 474/4/3 452/4/3 473/4/3
f 475/5/3 454/5/3 453/5/3
f 475/6/3 453/6/3 474/6/3
f 476/4/3 455/4/3 454/4/3
f 476/5/3 454/5/3 475/5/3
f 477/3/3 456/3/3 455/3/3
f 477/4/3 455/4/3 476/4/3
f 478/7/3 457/7/3 456/7/3
f 478/3/3 456/3/3 477/3/3
f 479/4/3 458/4/3 457/4/3
f 479/7/3 457/7/3 478/7/3
f 480/6/3 459/6/3 458/6/3
f 480/4/3 458/4/3 479/4/3
f 481/5/3 460/5/3 459/5/3
f 481/6/3 459/6/3 480/6/3
f 482/7/3 461/7/3 460/7/3
f 482/5/3 460/5/3 481/5/3
f 483/3/3 462/3/3 461/3/3
f 483/7/3 461/7/3 482/7/3
f 484/4/3 463/4/3 462/4/3
f 484/3/3 462/3/3 483/3/3
f 485/5/3 464/5/3 463/5/3
f 485/4/3 463/4/3 484/4/3
f 486/5/3 464/5/3 485/5/3
f 505/4/3 488/4/3 487/4/3
f 506/1/3 489/1/3 488/1/3
f 506/4/3 488/4/3 505/4/3
f 507/3/3 490/3/3 489/3/3
f 507/1/3 489/1/3 506/1/3
f 508/1/3 491/1/3 490/1/3
f 508/3/3 490/3/3 507/3/3
f 509/8/3 492/8/3 491/8/3
f 509/1/3 491/1/3 508/1/3
f 510/4/3 493/4/3 492/4/3
f 510/8/3 492/8/3 509/8/3
f 511/7/3 494/7/3 493/7/3
f 511/4/3 493/4/3 510/4/3
f 512/5/3 495/5/3 494/5/3
f 512/7/3 494/7/3 511/7/3
f 513/6/3 496/6/3 495/6/3
f 513/5/3 495/5/3 512/5/3
f 514/4/3 497/4/3 496/4/3
f 514/6/3 496/6/3 513/6/3
f 515/1/3 498/1/3 497/1/3
f 515/4/3 497/4/3 514/4/3
f 516/3/3 499/3/3 498/3/3
f 516/1/3 498/1/3 515/1/3
f 517/5/3 500/5/3 499/5/3
f 517/3/3 499/3/3 516/3/3
f 518/6/3 501/6/3 500/6/3
f 518/5/3 500/5/3 517/5/3
f 519/5/3 502/5/3 501/5/3
f 519/6/3 501/6/3 518/6/3
f 520/6/3 503/6/3 502/6/3
f 520/5/3 502/5/3 519/5/3
f 521/7/3 504/7/3 503/7/3
f 521/6/3 503/6/3 520/6/3
f 522/7/3 504/7/3 521/7/3
f 529/8/3 524/8/3 523/8/3
f 530/8/3 524/8/3 529/8/3
f 531/6/3 526/6/3 525/6/3
f 532/6/3 526/6/3 531/6/3
f 533/6/3 528/6/3 527/6/3
f 534/6/3 528/6/3 533/6/3
f 535/8/3 532/8/3 531/8/3
f 536/8/3 532/8/3 535/8/3
f 537/4/3 530/4/3 529/4/3
f 538/4/3 530/4/3 537/4/3
f 539/7/3 534/7/3 533/7/3
f 540/7/3 534/7/3 539/7/3
f 541/1/3 538/1/3 537/1/3
f 542/1/3 538/1/3 541/1/3
f 543/5/3 536/5/3 535/5/3
f 544/5/3 536/5/3 543/5/3
f 545/1/3 540/1/3 539/1/3
f 546/1/3 540/1/3 545/1/3
f 547/3/3 542/3/3 541/3/3
f 548/3/3 542/3/3 547/3/3
f 549/1/3 544/1/3 543/1/3
f 550/1/3 544/1/3 549/1/3
f 551/3/3 546/3/3 545/3/3
f 552/3/3 546/3/3 551/3/3
f 553/5/3 548/5/3 547/5/3
f 554/5/3 548/5/3 553/5/3
f 555/5/3 550/5/3 549/5/3
f 556/5/3 550/5/3 555/5/3
f 557/5/3 552/5/3 551/5/3
f 558/5/3 552/5/3 557/5/3
f 559/8/3 554/8/3 553/8/3
f 560/8/3 554/8/3 559/8/3
f 561/8/3 556/8/3 555/8/3
f 562/8/3 556/8/3 561/8/3
f 563/2/3 558/2/3 557/2/3
f 564/2/3 558/2/3 563/2/3
f 571/8/3 566/8/3 565/8/3
f 572/8/3 566/8/3 571/8/3
f 573/2/3 568/2/3 567/2/3
f 574/2/3 568/2/3 573/2/3
f 575/2/3 570/2/3 569/2/3
f 576/2/3 570/2/3 575/2/3
f 577/5/3 572/5/3 571/5/3
f 578/5/3 572/5/3 577/5/3
f 579/5/3 576/5/3 575/5/3
f 580/5/3 576/5/3 579/5/3
f 581/3/3 578/3/3 577/3/3
f 582/3/3 578/3/3 581/3/3
f 583/4/3 574/4/3 573/4/3
f 584/4/3 574/4/3 583/4/3
f 585/4/3 580/4/3 579/4/3
f 586/4/3 580/4/3 585/4/3
f 587/1/3 582/1/3 581/1/3
f 588/1/3 582/1/3 587/1/3
f 589/3/3 584/3/3 583/3/3
f 590/3/3 584/3/3 589/3/3
f 591/1/3 586/1/3 585/1/3
f 592/1/3 586/1/3 591/1/3
f 593/4/3 588/4/3 587/4/3
f 594/4/3 588/4/3 593/4/3
f 595/4/3 590/4/3 589/4/3
f 596/4/3 590/4/3 595/4/3
f 597/3/3 592/3/3 591/3/3
f 598/3/3 592/3/3 597/3/3
f 599/7/3 594/7/3 593/7/3
f 600/7/3 594/7/3 599/7/3
f 601/7/3 596/7/3 595/7/3
f 602/7/3 596/7/3 601/7/3
f 603/7/3 598/7/3 597/7/3
f 604/7/3 598/7/3 603/7/3
f 605/2/3 600/2/3 599/2/3
f 606/2/3 600/2/3 605/2/3
f 607/2/3 602/2/3 601/2/3
f 608/2/3 602/2/3 607/2/3
f 609/8/3 604/8/3 603/8/3
f 610/8/3 604/8/3 609/8/3
f 617/8/3 612/8/3 611/8/3
f 618/8/3 612/8/3 617/8/3
f 619/2/3 614/2/3 613/2/3
f 620/2/3 614/2/3 619/2/3
f 621/8/3 616/8/3 615/8/3
f 622/8/3 616/8/3 621/8/3
f 623/5/3 618/5/3 617/5/3
f 624/5/3 618/5/3 623/5/3
f 625/4/3 620/4/3 619/4/3
f 626/4/3 620/4/3 625/4/3
f 627/5/3 622/5/3 621/5/3
f 628/5/3 622/5/3 627/5/3
f 629/1/3 624/1/3 623/1/3
f 630/1/3 624/1/3 629/1/3
f 631/4/3 628/4/3 627/4/3
f 632/4/3 628/4/3 631/4/3
f 633/3/3 630/3/3 629/3/3
f 634/3/3 630/3/3 633/3/3
f 635/4/3 634/4/3 633/4/3
f 636/4/3 634/4/3 635/4/3
f 637/3/3 632/3/3 631/3/3
f 638/3/3 632/3/3 637/3/3
f 639/1/3 636/1/3 635/1/3
f 640/1/3 636/1/3 639/1/3
f 641/3/3 626/3/3 625/3/3
f 642/3/3 626/3/3 641/3/3
f 643/4/3 638/4/3 637/4/3
f 644/4/3 638/4/3 643/4/3
f 645/7/3 640/7/3 639/7/3
f 646/7/3 640/7/3 645/7/3
f 647/7/3 642/7/3 641/7/3
f 648/7/3 642/7/3 647/7/3
f 649/5/3 644/5/3 643/5/3
f 650/5/3 644/5/3 649/5/3
f 651/8/3 646/8/3 645/8/3
f 652/8/3 646/8/3 651/8/3
f 653/2/3 648/2/3 647/2/3
f 654/2/3 648/2/3 653/2/3
f 655/8/3 650/8/3 649/8/3
f 656/8/3 650/8/3 655/8/3
f 663/2/3 658/2/3 657/2/3
f 664/2/3 658/2/3 663/2/3
f 665/2/3 660/2/3 659/2/3
f 666/2/3 660/2/3 665/2/3
f 667/2/3 662/2/3 661/2/3
f 668/2/3 662/2/3 667/2/3
f 669/5/3 664/5/3 663/5/3
f 670/5/3 664/5/3 669/5/3
f 671/5/3 666/5/3 665/5/3
f 672/5/3 666/5/3 671/5/3
f 673/4/3 668/4/3 667/4/3
f 674/4/3 668/4/3 673/4/3
f 675/4/3 670/4/3 669/4/3
f 676/4/3 670/4/3 675/4/3
f 677/3/3 674/3/3 673/3/3
f 678/3/3 674/3/3 677/3/3
f 679/1/3 676/1/3 675/1/3
f 680/1/3 676/1/3 679/1/3
f 681/3/3 672/3/3 671/3/3
f 682/3/3 672/3/3 681/3/3
f 683/7/3 678/7/3 677/7/3
f 684/7/3 678/7/3 683/7/3
f 685/4/3 680/4/3 679/4/3
f 686/4/3 680/4/3 685/4/3
f 687/5/3 684/5/3 683/5/3
f 688/5/3 684/5/3 687/5/3
f 689/5/3 682/5/3 681/5/3
f 690/5/3 682/5/3 689/5/3
f 691/8/3 688/8/3 687/8/3
f 692/8/3 688/8/3 691/8/3
f 693/6/3 686/6/3 685/6/3
f 694/6/3 686/6/3 693/6/3
f 695/6/3 690/6/3 689/6/3
f 696/6/3 690/6/3 695/6/3
f 697/7/3 692/7/3 691/7/3
f 698/7/3 692/7/3 697/7/3
f 699/4/4 700/4/4 719/4/4
f 700/3/4 701/3/4 720/3/4
f 719/4/4 700/4/4 720/4/4
f 701/5/4 702/5/4 721/5/4
f 720/3/4 701/3/4 721/3/4
f 721/5/4 702/5/4 722/5/4
f 703/4/4 704/4/4 723/4/4
f 704/3/4 705/3/4 724/3/4
f 723/4/4 704/4/4 724/4/4
f 705/4/4 706/4/4 725/4/4
f 724/3/4 705/3/4 725/3/4
f 706/5/4 707/5/4 726/5/4
f 725/4/4 706/4/4 726/4/4
f 726/5/4 707/5/4 727/5/4
f 708/5/4 709/5/4 728/5/4
f 709/7/4 710/7/4 729/7/4
f 728/5/4 709/5/4 729/5/4
f 710/4/4 711/4/4 730/4/4
f 729/7/4 710/7/4 730/7/4
f 711/3/4 712/3/4 731/3/4
f 730/4/4 711/4/4 731/4/4
f 712/5/4 713/5/4 732/5/4
f 731/3/4 712/3/4 732/3/4
f 732/5/4 713/5/4 733/5/4
f 714/5/4 715/5/4 734/5/4
f 715/7/4 716/7/4 735/7/4
f 734/5/4 715/5/4 735/5/4
f 716/5/4 717/5/4 736/5/4
f 735/7/4 716/7/4 736/7/4
f 717/7/4 718/7/4 737/7/4
f 736/5/4 717/5/4 737/5/4
f 737/7/4 718/7/4 738/7/4
f 739/4/4 740/4/4 759/4/4
f 740/3/4 741/3/4 760/3/4
f 759/4/4 740/4/4 760/4/4
f 760/3/4 741/3/4 761/3/4
f 742/3/4 743/3/4 762/3/4
f 743/1/4 744/1/4 763/1/4
f 762/3/4 743/3/4 763/3/4
f 744/4/4 745/4/4 764/4/4
f 763/1/4 744/1/4 764/1/4
f 745/7/4 746/7/4 765/7/4
f 764/4/4 745/4/4 765/4/4
f 746/4/4 747/4/4 766/4/4
f 765/7/4 746/7/4 766/7/4
f 766/4/4 747/4/4 767/4/4
f 748/5/4 749/5/4 768/5/4
f 749/4/4 750/4/4 769/4/4
f 768/5/4 749/5/4 769/5/4
f 750/3/4 751/3/4 770/3/4
f 769/4/4 750/4/4 770/4/4
f 751/7/4 752/7/4 771/7/4
f 770/3/4 751/3/4 771/3/4
f 752/4/4 753/4/4 772/4/4
f 771/7/4 752/7/4 772/7/4
f 772/4/4 753/4/4 773/4/4
f 754/5/4 755/5/4 774/5/4
f 755/7/4 756/7/4 775/7/4
f 774/5/4 755/5/4 775/5/4
f 756/3/4 757/3/4 776/3/4
f 775/7/4 756/7/4 776/7/4
f 757/4/4 758/4/4 777/4/4
f 776/3/4 757/3/4 777/3/4
f 777/4/4 758/4/4 778/4/4
f 779/4/4 780/4/4 796/4/4
f 780/1/4 781/1/4 797/1/4
f 796/4/4 780/4/4 797/4/4
f 781/3/4 782/3/4 798/3/4
f 797/1/4 781/1/4 798/1/4
f 782/1/4 783/1/4 799/1/4
f 798/3/4 782/3/4 799/3/4
f 799/1/4 783/1/4 800/1/4
f 784/4/4 785/4/4 801/4/4
f 785/7/4 786/7/4 802/7/4
f 801/4/4 785/4/4 802/4/4
f 786/5/4 787/5/4 803/5/4
f 802/7/4 786/7/4 803/7/4
f 803/5/4 787/5/4 804/5/4
f 788/4/4 789/4/4 805/4/4
f 789/1/4 790/1/4 806/1/4
f 805/4/4 789/4/4 806/4/4
f 790/3/4 791/3/4 807/3/4
f 806/1/4 790/1/4 807/1/4
f 791/5/4 792/5/4 808/5/4
f 807/3/4 791/3/4 808/3/4
f 808/5/4 792/5/4 809/5/4
f 793/5/4 794/5/4 810/5/4
f 794/6/4 795/6/4 811/6/4
f 810/5/4 794/5/4 811/5/4
f 811/6/4 795/6/4 812/6/4
f 815/8/4 816/8/4 819/8/4
f 819/8/4 816/8/4 820/8/4
f 813/4/4 814/4/4 821/4/4
f 821/4/4 814/4/4 822/4/4
f 817/7/4 818/7/4 823/7/4
f 823/7/4 818/7/4 824/7/4
f 821/1/4 822/1/4 825/1/4
f 825/1/4 822/1/4 826/1/4
f 819/5/4 820/5/4 827/5/4
f 827/5/4 820/5/4 828/5/4
f 823/1/4 824/1/4 829/1/4
f 829/1/4 824/1/4 830/1/4
f 825/3/4 826/3/4 831/3/4
f 831/3/4 826/3/4 832/3/4
f 827/1/4 828/1/4 833/1/4
f 833/1/4 828/1/4 834/1/4
f 829/3/4 830/3/4 835/3/4
f 835/3/4 830/3/4 836/3/4
f 831/5/4 832/5/4 837/5/4
f 837/5/4 832/5/4 838/5/4
f 833/5/4 834/5/4 839/5/4
f 839/5/4 834/5/4 840/5/4
f 835/5/4 836/5/4 841/5/4
f 841/5/4 836/5/4 842/5/4
f 837/8/4 838/8/4 843/8/4
f 843/8/4 838/8/4 844/8/4
f 839/8/4 840/8/4 845/8/4
f 845/8/4 840/8/4 846/8/4
f 843/2/4 844/2/4 847/2/4
f 847/2/4 844/2/4 848/2/4
f 847/8/4 848/8/4 849/8/4
f 849/8/4 848/8/4 850/8/4
f 845/2/4 846/2/4 851/2/4
f 851/2/4 846/2/4 852/2/4
f 841/2/4 842/2/4 853/2/4
f 853/2/4 842/2/4 854/2/4
f 849/5/4 850/5/4 855/5/4
f 855/5/4 850/5/4 856/5/4
f 853/5/4 854/5/4 857/5/4
f 857/5/4 854/5/4 858/5/4
f 855/3/4 856/3/4 859/3/4
f 859/3/4 856/3/4 860/3/4
f 851/4/4 852/4/4 861/4/4
f 861/4/4 852/4/4 862/4/4
f 857/4/4 858/4/4 863/4/4
f 863/4/4 858/4/4 864/4/4
f 859/1/4 860/1/4 865/1/4
f 865/1/4 860/1/4 866/1/4
f 861/3/4 862/3/4 867/3/4
f 867/3/4 862/3/4 868/3/4
f 863/1/4 864/1/4 869/1/4
f 869/1/4 864/1/4 870/1/4
f 865/4/4 866/4/4 871/4/4
f 871/4/4 866/4/4 872/4/4
f 867/4/4 868/4/4 873/4/4
f 873/4/4 868/4/4 874/4/4
f 869/3/4 870/3/4 875/3/4
f 875/3/4 870/3/4 876/3/4
f 871/7/4 872/7/4 877/7/4
f 877/7/4 872/7/4 878/7/4
f 873/7/4 874/7/4 879/7/4
f 879/7/4 874/7/4 880/7/4
f 875/7/4 876/7/4 881/7/4
f 881/7/4 876/7/4 882/7/4
f 877/2/4 878/2/4 883/2/4
f 883/2/4 878/2/4 884/2/4
f 883/8/4 884/8/4 885/8/4
f 885/8/4 884/8/4 886/8/4
f 879/2/4 880/2/4 887/2/4
f 887/2/4 880/2/4 888/2/4
f 881/8/4 882/8/4 889/8/4
f 889/8/4 882/8/4 890/8/4
f 885/5/4 886/5/4 891/5/4
f 891/5/4 886/5/4 892/5/4
f 887/4/4 888/4/4 893/4/4
f 893/4/4 888/4/4 894/4/4
f 889/5/4 890/5/4 895/5/4
f 895/5/4 890/5/4 896/5/4
f 891/1/4 892/1/4 897/1/4
f 897/1/4 892/1/4 898/1/4
f 895/4/4 896/4/4 899/4/4
f 899/4/4 896/4/4 900/4/4
f 897/3/4 898/3/4 901/3/4
f 901/3/4 898/3/4 902/3/4
f 901/4/4 902/4/4 903/4/4
f 903/4/4 902/4/4 904/4/4
f 899/3/4 900/3/4 905/3/4
f 905/3/4 900/3/4 906/3/4
f 903/1/4 904/1/4 907/1/4
f 907/1/4 904/1/4 908/1/4
f 893/3/4 894/3/4 909/3/4
f 909/3/4 894/3/4 910/3/4
f 905/4/4 906/4/4 911/4/4
f 911/4/4 906/4/4 912/4/4
f 907/7/4 908/7/4 913/7/4
f 913/7/4 908/7/4 914/7/4
f 909/7/4 910/7/4 915/7/4
f 915/7/4 910/7/4 916/7/4
f 911/5/4 912/5/4 917/5/4
f 917/5/4 912/5/4 918/5/4
f 915/2/4 916/2/4 919/2/4
f 919/2/4 916/2/4 920/2/4
f 913/8/4 914/8/4 921/8/4
f 921/8/4 914/8/4 922/8/4
f 919/8/4 920/8/4 923/8/4
f 923/8/4 920/8/4 924/8/4
f 917/8/4 918/8/4 925/8/4
f 925/8/4 918/8/4 926/8/4
f 921/2/4 922/2/4 927/2/4
f 927/2/4 922/2/4 928/2/4
f 923/2/4 924/2/4 929/2/4
f 929/2/4 924/2/4 930/2/4
f 925/2/4 926/2/4 931/2/4
f 931/2/4 926/2/4 932/2/4
f 927/5/4 928/5/4 933/5/4
f 933/5/4 928/5/4 934/5/4
f 929/5/4 930/5/4 935/5/4
f 935/5/4 930/5/4 936/5/4
f 931/4/4 932/4/4 937/4/4
f 937/4/4 932/4/4 938/4/4
f 933/4/4 934/4/4 939/4/4
f 939/4/4 934/4/4 940/4/4
f 937/3/4 938/3/4 941/3/4
f 941/3/4 938/3/4 942/3/4
f 939/1/4 940/1/4 943/1/4
f 943/1/4 940/1/4 944/1/4
f 935/3/4 936/3/4 945/3/4
f 945/3/4 936/3/4 946/3/4
f 941/7/4 942/7/4 947/7/4
f 947/7/4 942/7/4 948/7/4
f 943/4/4 944/4/4 949/4/4
f 949/4/4 944/4/4 950/4/4
f 947/5/4 948/5/4 951/5/4
f 951/5/4 948/5/4 952/5/4
f 949/6/4 950/6/4 953/6/4
f 953/6/4 950/6/4 954/6/4
f 945/5/4 946/5/4 955/5/4
f 955/5/4 946/5/4 956/5/4
f 951/8/4 952/8/4 957/8/4
f 957/8/4 952/8/4 958/8/4
f 959/2/4 960/2/4 965/2/4
f 965/2/4 960/2/4 966/2/4
f 961/8/4 962/8/4 967/8/4
f 967/8/4 962/8/4 968/8/4
f 963/8/4 964/8/4 969/8/4
f 969/8/4 964/8/4 970/8/4
f 971/2/4 972/2/4 975/2/4
f 975/2/4 972/2/4 976/2/4
f 973/2/4 974/2/4 977/2/4
f 977/2/4 974/2/4 978/2/4
f 979/8/4 980/8/4 983/8/4
f 983/8/4 980/8/4 984/8/4
f 981/8/4 982/8/4 985/8/4
f 985/8/4 982/8/4 986/8/4
f 987/2/4 988/2/4 991/2/4
f 991/2/4 988/2/4 992/2/4
f 989/2/4 990/2/4 993/2/4
f 993/2/4 990/2/4 994/2/4
f 995/2/4 996/2/4 1001/2/4
f 1001/2/4 996/2/4 1002/2/4
f 997/8/4 998/8/4 1003/8/4
f 1003/8/4 998/8/4 1004/8/4
f 999/8/4 1000/8/4 1005/8/4
f 1005/8/4 1000/8/4 1006/8/4
f 1013/4/5 1008/4/5 1007/4/5
f 1014/4/5 1008/4/5 1013/4/5
f 1015/4/5 1012/4/5 1011/4/5
f 1016/4/5 1012/4/5 1015/4/5
f 1017/6/5 1010/6/5 1009/6/5
f 1018/6/5 1010/6/5 1017/6/5
f 1019/6/5 1016/6/5 1015/6/5
f 1020/6/5 1016/6/5 1019/6/5
f 1021/6/5 1014/6/5 1013/6/5
f 1022/6/5 1014/6/5 1021/6/5
f 1023/2/5 1018/2/5 1017/2/5
f 1024/2/5 1018/2/5 1023/2/5
f 1025/8/5 1022/8/5 1021/8/5
f 1026/8/5 1022/8/5 1025/8/5
f 1027/8/5 1020/8/5 1019/8/5
f 1028/8/5 1020/8/5 1027/8/5
f 1029/2/5 1026/2/5 1025/2/5
f 1030/2/5 1026/2/5 1029/2/5
f 1031/8/5 1024/8/5 1023/8/5
f 1032/8/5 1024/8/5 1031/8/5
f 1033/2/5 1028/2/5 1027/2/5
f 1034/2/5 1028/2/5 1033/2/5
f 1066/8/5 1036/8/5 1035/8/5
f 1066/4/5 1037/4/5 1036/4/5
f 1067/1/5 1038/1/5 1037/1/5
f 1067/4/5 1037/4/5 1066/4/5
f 1068/3/5 1039/3/5 1038/3/5
f 1068/1/5 1038/1/5 1067/1/5
f 1069/5/5 1040/5/5 1039/5/5
f 1069/3/5 1039/3/5 1068/3/5
f 1070/8/5 1041/8/5 1040/8/5
f 1070/5/5 1040/5/5 1069/5/5
f 1071/2/5 1042/2/5 1041/2/5
f 1071/8/5 1041/8/5 1070/8/5
f 1072/8/5 1043/8/5 1042/8/5
f 1072/2/5 1042/2/5 1071/2/5
f 1073/5/5 1044/5/5 1043/5/5
f 1073/8/5 1043/8/5 1072/8/5
f 1074/3/5 1045/3/5 1044/3/5
f 1074/5/5 1044/5/5 1073/5/5
f 1075/1/5 1046/1/5 1045/1/5
f 1075/3/5 1045/3/5 1074/3/5
f 1076/4/5 1047/4/5 1046/4/5
f 1076/1/5 1046/1/5 1075/1/5
f 1077/7/5 1048/7/5 1047/7/5
f 1077/4/5 1047/4/5 1076/4/5
f 1078/2/5 1049/2/5 1048/2/5
f 1078/7/5 1048/7/5 1077/7/5
f 1079/8/5 1050/8/5 1049/8/5
f 1079/2/5 1049/2/5 1078/2/5
f 1079/8/5 1051/8/5 1050/8/5
f 1080/5/5 1052/5/5 1051/5/5
f 1080/8/5 1051/8/5 1079/8/5
f 1081/1/5 1053/1/5 1052/1/5
f 1081/5/5 1052/5/5 1080/5/5
f 1082/3/5 1054/3/5 1053/3/5
f 1082/1/5 1053/1/5 1081/1/5
f 1083/4/5 1055/4/5 1054/4/5
f 1083/3/5 1054/3/5 1082/3/5
f 1084/1/5 1056/1/5 1055/1/5
f 1084/4/5 1055/4/5 1083/4/5
f 1085/7/5 1057/7/5 1056/7/5
f 1085/1/5 1056/1/5 1084/1/5
f 1086/8/5 1058/8/5 1057/8/5
f 1086/7/5 1057/7/5 1085/7/5
f 1086/8/5 1059/8/5 1058/8/5
f 1087/2/5 1060/2/5 1059/2/5
f 1087/8/5 1059/8/5 1086/8/5
f 1088/5/5 1061/5/5 1060/5/5
f 1088/2/5 1060/2/5 1087/2/5
f 1089/4/5 1062/4/5 1061/4/5
f 1089/5/5 1061/5/5 1088/5/5
f 1090/1/5 1063/1/5 1062/1/5
f 1090/4/5 1062/4/5 1089/4/5
f 1091/4/5 1064/4/5 1063/4/5
f 1091/1/5 1063/1/5 1090/1/5
f 1092/6/5 1065/6/5 1064/6/5
f 1092/4/5 1064/4/5 1091/4/5
f 1093/6/5 1065/6/5 1092/6/5
f 1094/6/5 1065/6/5 1093/6/5
f 1095/8/5 1066/8/5 1035/8/5
f 1096/8/5 1066/8/5 1095/8/5
f 1097/8/5 1094/8/5 1093/8/5
f 1098/8/5 1094/8/5 1097/8/5
f 1099/2/5 1096/2/5 1095/2/5
f 1100/2/5 1096/2/5 1099/2/5
f 1101/2/5 1098/2/5 1097/2/5
f 1102/2/5 1098/2/5 1101/2/5
f 1129/6/5 1104/6/5 1103/6/5
f 1130/8/5 1105/8/5 1104/8/5
f 1130/6/5 1104/6/5 1129/6/5
f 1131/5/5 1106/5/5 1105/5/5
f 1131/8/5 1105/8/5 1130/8/5
f 1132/1/5 1107/1/5 1106/1/5
f 1132/5/5 1106/5/5 1131/5/5
f 1133/5/5 1108/5/5 1107/5/5
f 1133/1/5 1107/1/5 1132/1/5
f 1134/8/5 1109/8/5 1108/8/5
f 1134/5/5 1108/5/5 1133/5/5
f 1135/2/5 1110/2/5 1109/2/5
f 1135/8/5 1109/8/5 1134/8/5
f 1135/2/5 1111/2/5 1110/2/5
f 1136/4/5 1112/4/5 1111/4/5
f 1136/2/5 1111/2/5 1135/2/5
f 1137/3/5 1113/3/5 1112/3/5
f 1137/4/5 1112/4/5 1136/4/5
f 1138/4/5 1114/4/5 1113/4/5
f 1138/3/5 1113/3/5 1137/3/5
f 1139/7/5 1115/7/5 1114/7/5
f 1139/4/5 1114/4/5 1138/4/5
f 1140/2/5 1116/2/5 1115/2/5
f 1140/7/5 1115/7/5 1139/7/5
f 1140/2/5 1117/2/5 1116/2/5
f 1140/2/5 1118/2/5 1117/2/5
f 1141/4/5 1119/4/5 1118/4/5
f 1141/2/5 1118/2/5 1140/2/5
f 1142/3/5 1120/3/5 1119/3/5
f 1142/4/5 1119/4/5 1141/4/5
f 1143/7/5 1121/7/5 1120/7/5
f 1143/3/5 1120/3/5 1142/3/5
f 1144/2/5 1122/2/5 1121/2/5
f 1144/7/5 1121/7/5 1143/7/5
f 1145/8/5 1123/8/5 1122/8/5
f 1145/2/5 1122/2/5 1144/2/5
f 1146/2/5 1124/2/5 1123/2/5
f 1146/8/5 1123/8/5 1145/8/5
f 1147/5/5 1125/5/5 1124/5/5
f 1147/2/5 1124/2/5 1146/2/5
f 1148/3/5 1126/3/5 1125/3/5
f 1148/5/5 1125/5/5 1147/5/5
f 1149/5/5 1127/5/5 1126/5/5
f 1149/3/5 1126/3/5 1148/3/5
f 1150/6/5 1128/6/5 1127/6/5
f 1150/5/5 1127/5/5 1149/5/5
f 1151/6/5 1128/6/5 1150/6/5
f 1152/6/5 1128/6/5 1151/6/5
f 1153/2/5 1130/2/5 1129/2/5
f 1154/2/5 1130/2/5 1153/2/5
f 1155/2/5 1152/2/5 1151/2/5
f 1156/2/5 1152/2/5 1155/2/5
f 1157/8/5 1154/8/5 1153/8/5
f 1158/8/5 1154/8/5 1157/8/5
f 1159/8/5 1156/8/5 1155/8/5
f 1160/8/5 1156/8/5 1159/8/5
f 1192/6/5 1162/6/5 1161/6/5
f 1192/7/5 1163/7/5 1162/7/5
f 1193/1/5 1164/1/5 1163/1/5
f 1193/7/5 1163/7/5 1192/7/5
f 1194/3/5 1165/3/5 1164/3/5
f 1194/1/5 1164/1/5 1193/1/5
f 1195/5/5 1166/5/5 1165/5/5
f 1195/3/5 1165/3/5 1194/3/5
f 1196/2/5 1167/2/5 1166/2/5
f 1196/5/5 1166/5/5 1195/5/5
f 1196/2/5 1168/2/5 1167/2/5
f 1196/2/5 1169/2/5 1168/2/5
f 1197/5/5 1170/5/5 1169/5/5
f 1197/2/5 1169/2/5 1196/2/5
f 1198/4/5 1171/4/5 1170/4/5
f 1198/5/5 1170/5/5 1197/5/5
f 1199/1/5 1172/1/5 1171/1/5
f 1199/4/5 1171/4/5 1198/4/5
f 1200/3/5 1173/3/5 1172/3/5
f 1200/1/5 1172/1/5 1199/1/5
f 1201/7/5 1174/7/5 1173/7/5
f 1201/3/5 1173/3/5 1200/3/5
f 1202/8/5 1175/8/5 1174/8/5
f 1202/7/5 1174/7/5 1201/7/5
f 1202/8/5 1176/8/5 1175/8/5
f 1202/8/5 1177/8/5 1176/8/5
f 1203/5/5 1178/5/5 1177/5/5
f 1203/8/5 1177/8/5 1202/8/5
f 1204/4/5 1179/4/5 1178/4/5
f 1204/5/5 1178/5/5 1203/5/5
f 1205/3/5 1180/3/5 1179/3/5
f 1205/4/5 1179/4/5 1204/4/5
f 1206/4/5 1181/4/5 1180/4/5
f 1206/3/5 1180/3/5 1205/3/5
f 1207/5/5 1182/5/5 1181/5/5
f 1207/4/5 1181/4/5 1206/4/5
f 1208/8/5 1183/8/5 1182/8/5
f 1208/5/5 1182/5/5 1207/5/5
f 1208/8/5 1184/8/5 1183/8/5
f 1209/2/5 1185/2/5 1184/2/5
f 1209/8/5 1184/8/5 1208/8/5
f 1210/4/5 1186/4/5 1185/4/5
f 1210/2/5 1185/2/5 1209/2/5
f 1211/3/5 1187/3/5 1186/3/5
f 1211/4/5 1186/4/5 1210/4/5
f 1212/7/5 1188/7/5 1187/7/5
f 1212/3/5 1187/3/5 1211/3/5
f 1213/5/5 1189/5/5 1188/5/5
f 1213/7/5 1188/7/5 1212/7/5
f 1214/8/5 1190/8/5 1189/8/5
f 1214/5/5 1189/5/5 1213/5/5
f 1215/7/5 1191/7/5 1190/7/5
f 1215/8/5 1190/8/5 1214/8/5
f 1216/7/5 1191/7/5 1215/7/5
f 1217/6/5 1192/6/5 1161/6/5
f 1218/6/5 1192/6/5 1217/6/5
f 1219/2/5 1216/2/5 1215/2/5
f 1220/2/5 1216/2/5 1219/2/5
f 1221/8/5 1218/8/5 1217/8/5
f 1222/8/5 1218/8/5 1221/8/5
f 1223/8/5 1220/8/5 1219/8/5
f 1224/8/5 1220/8/5 1223/8/5
f 1231/6/5 1226/6/5 1225/6/5
f 1232/6/5 1226/6/5 1231/6/5
f 1233/6/5 1228/6/5 1227/6/5
f 1234/6/5 1228/6/5 1233/6/5
f 1235/8/5 1230/8/5 1229/8/5
f 1236/8/5 1230/8/5 1235/8/5
f 1237/7/5 1234/7/5 1233/7/5
f 1238/7/5 1234/7/5 1237/7/5
f 1239/2/5 1236/2/5 1235/2/5
f 1240/2/5 1236/2/5 1239/2/5
f 1241/8/5 1232/8/5 1231/8/5
f 1242/8/5 1232/8/5 1241/8/5
f 1243/8/5 1240/8/5 1239/8/5
f 1244/8/5 1240/8/5 1243/8/5
f 1245/2/5 1242/2/5 1241/2/5
f 1246/2/5 1242/2/5 1245/2/5
f 1247/8/5 1238/8/5 1237/8/5
f 1248/8/5 1238/8/5 1247/8/5
f 1249/2/5 1244/2/5 1243/2/5
f 1250/2/5 1244/2/5 1249/2/5
f 1253/6/6 1254/6/6 1257/6/6
f 1257/6/6 1254/6/6 1258/6/6
f 1255/6/6 1256/6/6 1259/6/6
f 1259/6/6 1256/6/6 1260/6/6
f 1251/6/6 1252/6/6 1261/6/6
f 1261/6/6 1252/6/6 1262/6/6
f 1257/2/6 1258/2/6 1263/2/6
f 1263/2/6 1258/2/6 1264/2/6
f 1261/8/6 1262/8/6 1265/8/6
f 1265/8/6 1262/8/6 1266/8/6
f 1259/8/6 1260/8/6 1267/8/6
f 1267/8/6 1260/8/6 1268/8/6
f 1265/2/6 1266/2/6 1269/2/6
f 1269/2/6 1266/2/6 1270/2/6
f 1263/8/6 1264/8/6 1271/8/6
f 1271/8/6 1264/8/6 1272/8/6
f 1267/2/6 1268/2/6 1273/2/6
f 1273/2/6 1268/2/6 1274/2/6
f 1275/8/6 1276/8/6 1306/8/6
f 1276/4/6 1277/4/6 1306/4/6
f 1277/1/6 1278/1/6 1307/1/6
f 1306/4/6 1277/4/6 1307/4/6
f 1278/3/6 1279/3/6 1308/3/6
f 1307/1/6 1278/1/6 1308/1/6
f 1279/5/6 1280/5/6 1309/5/6
f 1308/3/6 1279/3/6 1309/3/6
f 1280/8/6 1281/8/6 1310/8/6
f 1309/5/6 1280/5/6 1310/5/6
f 1281/2/6 1282/2/6 1311/2/6
f 1310/8/6 1281/8/6 1311/8/6
f 1282/8/6 1283/8/6 1312/8/6
f 1311/2/6 1282/2/6 1312/2/6
f 1283/5/6 1284/5/6 1313/5/6
f 1312/8/6 1283/8/6 1313/8/6
f 1284/3/6 1285/3/6 1314/3/6
f 1313/5/6 1284/5/6 1314/5/6
f 1285/1/6 1286/1/6 1315/1/6
f 1314/3/6 1285/3/6 1315/3/6
f 1286/4/6 1287/4/6 1316/4/6
f 1315/1/6 1286/1/6 1316/1/6
f 1287/7/6 1288/7/6 1317/7/6
f 1316/4/6 1287/4/6 1317/4/6
f 1288/2/6 1289/2/6 1318/2/6
f 1317/7/6 1288/7/6 1318/7/6
f 1289/8/6 1290/8/6 1319/8/6
f 1318/2/6 1289/2/6 1319/2/6
f 1290/8/6 1291/8/6 1319/8/6
f 1291/5/6 1292/5/6 1320/5/6
f 1319/8/6 1291/8/6 1320/8/6
f 1292/1/6 1293/1/6 1321/1/6
f 1320/5/6 1292/5/6 1321/5/6
f 1293/3/6 1294/3/6 1322/3/6
f 1321/1/6 1293/1/6 1322/1/6
f 1294/4/6 1295/4/6 1323/4/6
f 1322/3/6 1294/3/6 1323/3/6
f 1295/1/6 1296/1/6 1324/1/6
f 1323/4/6 1295/4/6 1324/4/6
f 1296/7/6 1297/7/6 1325/7/6
f 1324/1/6 1296/1/6 1325/1/6
f 1297/8/6 1298/8/6 1326/8/6
f 1325/7/6 1297/7/6 1326/7/6
f 1298/8/6 1299/8/6 1326/8/6
f 1299/2/6 1300/2/6 1327/2/6
f 1326/8/6 1299/8/6 1327/8/6
f 1300/5/6 1301/5/6 1328/5/6
f 1327/2/6 1300/2/6 1328/2/6
f 1301/4/6 1302/4/6 1329/4/6
f 1328/5/6 1301/5/6 1329/5/6
f 1302/1/6 1303/1/6 1330/1/6
f 1329/4/6 1302/4/6 1330/4/6
f 1303/4/6 1304/4/6 1331/4/6
f 1330/1/6 1303/1/6 1331/1/6
f 1304/6/6 1305/6/6 1332/6/6
f 1331/4/6 1304/4/6 1332/4/6
f 1332/6/6 1305/6/6 1333/6/6
f 1333/6/6 1305/6/6 1334/6/6
f 1275/8/6 1306/8/6 1335/8/6
f 1335/8/6 1306/8/6 1336/8/6
f 1333/8/6 1334/8/6 1337/8/6
f 1337/8/6 1334/8/6 1338/8/6
f 1335/2/6 1336/2/6 1339/2/6
f 1339/2/6 1336/2/6 1340/2/6
f 1337/2/6 1338/2/6 1341/2/6
f 1341/2/6 1338/2/6 1342/2/6
f 1343/6/6 1344/6/6 1369/6/6
f 1344/8/6 1345/8/6 1370/8/6
f 1369/6/6 1344/6/6 1370/6/6
f 1345/5/6 1346/5/6 1371/5/6
f 1370/8/6 1345/8/6 1371/8/6
f 1346/1/6 1347/1/6 1372/1/6
f 1371/5/6 1346/5/6 1372/5/6
f 1347/5/6 1348/5/6 1373/5/6
f 1372/1/6 1347/1/6 1373/1/6
f 1348/8/6 1349/8/6 1374/8/6
f 1373/5/6 1348/5/6 1374/5/6
f 1349/2/6 1350/2/6 1375/2/6
f 1374/8/6 1349/8/6 1375/8/6
f 1350/2/6 1351/2/6 1375/2/6
f 1351/4/6 1352/4/6 1376/4/6
f 1375/2/6 1351/2/6 1376/2/6
f 1352/3/6 1353/3/6 1377/3/6
f 1376/4/6 1352/4/6 1377/4/6
f 1353/4/6 1354/4/6 1378/4/6
f 1377/3/6 1353/3/6 1378/3/6
f 1354/7/6 1355/7/6 1379/7/6
f 1378/4/6 1354/4/6 1379/4/6
f 1355/2/6 1356/2/6 1380/2/6
f 1379/7/6 1355/7/6 1380/7/6
f 1356/2/6 1357/2/6 1380/2/6
f 1357/2/6 1358/2/6 1380/2/6
f 1358/4/6 1359/4/6 1381/4/6
f 1380/2/6 1358/2/6 1381/2/6
f 1359/3/6 1360/3/6 1382/3/6
f 1381/4/6 1359/4/6 1382/4/6
f 1360/7/6 1361/7/6 1383/7/6
f 1382/3/6 1360/3/6 1383/3/6
f 1361/2/6 1362/2/6 1384/2/6
f 1383/7/6 1361/7/6 1384/7/6
f 1362/8/6 1363/8/6 1385/8/6
f 1384/2/6 1362/2/6 1385/2/6
f 1363/2/6 1364/2/6 1386/2/6
f 1385/8/6 1363/8/6 1386/8/6
f 1364/5/6 1365/5/6 1387/5/6
f 1386/2/6 1364/2/6 1387/2/6
f 1365/3/6 1366/3/6 1388/3/6
f 1387/5/6 1365/5/6 1388/5/6
f 1366/5/6 1367/5/6 1389/5/6
f 1388/3/6 1366/3/6 1389/3/6
f 1367/6/6 1368/6/6 1390/6/6
f 1389/5/6 1367/5/6 1390/5/6
f 1390/6/6 1368/6/6 1391/6/6
f 1391/6/6 1368/6/6 1392/6/6
f 1369/2/6 1370/2/6 1393/2/6
f 1393/2/6 1370/2/6 1394/2/6
f 1391/2/6 1392/2/6 1395/2/6
f 1395/2/6 1392/2/6 1396/2/6
f 1393/8/6 1394/8/6 1397/8/6
f 1397/8/6 1394/8/6 1398/8/6
f 1395/8/6 1396/8/6 1399/8/6
f 1399/8/6 1396/8/6 1400/8/6
f 1401/6/6 1402/6/6 1432/6/6
f 1402/7/6 1403/7/6 1432/7/6
f 1403/1/6 1404/1/6 1433/1/6
f 1432/7/6 1403/7/6 1433/7/6
f 1404/3/6 1405/3/6 1434/3/6
f 1433/1/6 1404/1/6 1434/1/6
f 1405/5/6 1406/5/6 1435/5/6
f 1434/3/6 1405/3/6 1435/3/6
f 1406/2/6 1407/2/6 1436/2/6
f 1435/5/6 1406/5/6 1436/5/6
f 1407/2/6 1408/2/6 1436/2/6
f 1408/2/6 1409/2/6 1436/2/6
f 1409/5/6 1410/5/6 1437/5/6
f 1436/2/6 1409/2/6 1437/2/6
f 1410/4/6 1411/4/6 1438/4/6
f 1437/5/6 1410/5/6 1438/5/6
f 1411/1/6 1412/1/6 1439/1/6
f 1438/4/6 1411/4/6 1439/4/6
f 1412/3/6 1413/3/6 1440/3/6
f 1439/1/6 1412/1/6 1440/1/6
f 1413/7/6 1414/7/6 1441/7/6
f 1440/3/6 1413/3/6 1441/3/6
f 1414/8/6 1415/8/6 1442/8/6
f 1441/7/6 1414/7/6 1442/7/6
f 1415/8/6 1416/8/6 1442/8/6
f 1416/8/6 1417/8/6 1442/8/6
f 1417/5/6 1418/5/6 1443/5/6
f 1442/8/6 1417/8/6 1443/8/6
f 1418/4/6 1419/4/6 1444/4/6
f 1443/5/6 1418/5/6 1444/5/6
f 1419/3/6 1420/3/6 1445/3/6
f 1444/4/6 1419/4/6 1445/4/6
f 1420/4/6 1421/4/6 1446/4/6
f 1445/3/6 1420/3/6 1446/3/6
f 1421/5/6 1422/5/6 1447/5/6
f 1446/4/6 1421/4/6 1447/4/6
f 1422/8/6 1423/8/6 1448/8/6
f 1447/5/6 1422/5/6 1448/5/6
f 1423/8/6 1424/8/6 1448/8/6
f 1424/2/6 1425/2/6 1449/2/6
f 1448/8/6 1424/8/6 1449/8/6
f 1425/4/6 1426/4/6 1450/4/6
f 1449/2/6 1425/2/6 1450/2/6
f 1426/3/6 1427/3/6 1451/3/6
f 1450/4/6 1426/4/6 1451/4/6
f 1427/7/6 1428/7/6 1452/7/6
f 1451/3/6 1427/3/6 1452/3/6
f 1428/5/6 1429/5/6 1453/5/6
f 1452/7/6 1428/7/6 1453/7/6
f 1429/8/6 1430/8/6 1454/8/6
f 1453/5/6 1429/5/6 1454/5/6
f 1430/7/6 1431/7/6 1455/7/6
f 1454/8/6 1430/8/6 1455/8/6
f 1455/7/6 1431/7/6 1456/7/6
f 1401/6/6 1432/6/6 1457/6/6
f 1457/6/6 1432/6/6 1458/6/6
f 1455/2/6 1456/2/6 1459/2/6
f 1459/2/6 1456/2/6 1460/2/6
f 1457/8/6 1458/8/6 1461/8/6
f 1461/8/6 1458/8/6 1462/8/6
f 1459/8/6 1460/8/6 1463/8/6
f 1463/8/6 1460/8/6 1464/8/6
f 1465/7/6 1466/7/6 1471/7/6
f 1471/7/6 1466/7/6 1472/7/6
f 1467/5/6 1468/5/6 1473/5/6
f 1473/5/6 1468/5/6 1474/5/6
f 1469/7/6 1470/7/6 1475/7/6
f 1475/7/6 1470/7/6 1476/7/6
f 1471/6/6 1472/6/6 1477/6/6
f 1477/6/6 1472/6/6 1478/6/6
f 1473/6/6 1474/6/6 1479/6/6
f 1479/6/6 1474/6/6 1480/6/6
f 1475/8/6 1476/8/6 1481/8/6
f 1481/8/6 1476/8/6 1482/8/6
f 1479/7/6 1480/7/6 1483/7/6
f 1483/7/6 1480/7/6 1484/7/6
f 1481/2/6 1482/2/6 1485/2/6
f 1485/2/6 1482/2/6 1486/2/6
f 1477/8/6 1478/8/6 1487/8/6
f 1487/8/6 1478/8/6 1488/8/6
f 1485/8/6 1486/8/6 1489/8/6
f 1489/8/6 1486/8/6 1490/8/6
f 1487/2/6 1488/2/6 1491/2/6
f 1491/2/6 1488/2/6 1492/2/6
f 1483/8/6 1484/8/6 1493/8/6
f 1493/8/6 1484/8/6 1494/8/6
f 1489/2/6 1490/2/6 1495/2/6
f 1495/2/6 1490/2/6 1496/2/6
