# MagicaVoxel @ Ephtracy

# group
o archfence-metal-58x50x6

# material
mtllib components-17-archfence-metal-58x50x6.mtl
usemtl palette

# normals
vn -1 0 0
vn 1 0 0
vn 0 0 1
vn 0 0 -1
vn 0 -1 0
vn 0 1 0

# texcoords
vt 0.490234 0.5
vt 0.494141 0.5

# verts
v -2.9 0 3.1
v -2.9 0 2.7
v -2.9 4.6 2.7
v -2.9 4.6 2.6
v -2.9 4.7 2.6
v -2.9 4.7 2.5
v -2.9 4.9 2.6
v -2.9 4.9 2.5
v -2.9 5 3.1
v -2.9 5 2.6
v -2 0.1 2.9
v -2 0.1 2.8
v -2 0.3 2.9
v -2 0.5 2.9
v -2 0.6 2.9
v -2 0.8 2.9
v -2 0.9 2.9
v -2 1.1 2.9
v -2 1.2 2.9
v -2 1.4 2.9
v -2 1.5 2.9
v -2 1.7 2.9
v -2 1.8 2.9
v -2 2 2.9
v -2 2.1 2.9
v -2 2.3 2.9
v -2 2.4 2.9
v -2 2.6 2.9
v -2 2.7 2.9
v -2 2.9 2.9
v -2 3 2.9
v -2 3.2 2.9
v -2 3.3 2.9
v -2 3.5 2.9
v -2 3.6 2.9
v -2 3.8 2.9
v -2 3.9 2.9
v -2 4.1 2.9
v -2 4.2 2.9
v -2 4.4 2.9
v -2 4.5 2.9
v -2 4.7 2.9
v -2 4.7 2.8
v -1.2 0.1 2.9
v -1.2 0.1 2.8
v -1.2 0.3 2.9
v -1.2 0.5 2.9
v -1.2 0.6 2.9
v -1.2 0.8 2.9
v -1.2 0.9 2.9
v -1.2 1.1 2.9
v -1.2 1.2 2.9
v -1.2 1.4 2.9
v -1.2 1.5 2.9
v -1.2 1.7 2.9
v -1.2 1.8 2.9
v -1.2 2 2.9
v -1.2 2.1 2.9
v -1.2 2.3 2.9
v -1.2 2.4 2.9
v -1.2 2.6 2.9
v -1.2 2.7 2.9
v -1.2 2.9 2.9
v -1.2 3 2.9
v -1.2 3.2 2.9
v -1.2 3.3 2.9
v -1.2 3.5 2.9
v -1.2 3.6 2.9
v -1.2 3.8 2.9
v -1.2 3.9 2.9
v -1.2 4.1 2.9
v -1.2 4.2 2.9
v -1.2 4.4 2.9
v -1.2 4.5 2.9
v -1.2 4.7 2.9
v -1.2 4.7 2.8
v -0.4 0.1 2.9
v -0.4 0.1 2.8
v -0.4 0.3 2.9
v -0.4 0.5 2.9
v -0.4 0.6 2.9
v -0.4 0.8 2.9
v -0.4 0.9 2.9
v -0.4 1.1 2.9
v -0.4 1.2 2.9
v -0.4 1.4 2.9
v -0.4 1.5 2.9
v -0.4 1.7 2.9
v -0.4 1.8 2.9
v -0.4 2 2.9
v -0.4 2.1 2.9
v -0.4 2.3 2.9
v -0.4 2.4 2.9
v -0.4 2.6 2.9
v -0.4 2.7 2.9
v -0.4 2.9 2.9
v -0.4 3 2.9
v -0.4 3.2 2.9
v -0.4 3.3 2.9
v -0.4 3.5 2.9
v -0.4 3.6 2.9
v -0.4 3.8 2.9
v -0.4 3.9 2.9
v -0.4 4.1 2.9
v -0.4 4.2 2.9
v -0.4 4.4 2.9
v -0.4 4.5 2.9
v -0.4 4.7 2.9
v -0.4 4.7 2.8
v 0.4 0.1 2.9
v 0.4 0.1 2.8
v 0.4 0.3 2.9
v 0.4 0.5 2.9
v 0.4 0.6 2.9
v 0.4 0.8 2.9
v 0.4 0.9 2.9
v 0.4 1.1 2.9
v 0.4 1.2 2.9
v 0.4 1.4 2.9
v 0.4 1.5 2.9
v 0.4 1.7 2.9
v 0.4 1.8 2.9
v 0.4 2 2.9
v 0.4 2.1 2.9
v 0.4 2.3 2.9
v 0.4 2.4 2.9
v 0.4 2.6 2.9
v 0.4 2.7 2.9
v 0.4 2.9 2.9
v 0.4 3 2.9
v 0.4 3.2 2.9
v 0.4 3.3 2.9
v 0.4 3.5 2.9
v 0.4 3.6 2.9
v 0.4 3.8 2.9
v 0.4 3.9 2.9
v 0.4 4.1 2.9
v 0.4 4.2 2.9
v 0.4 4.4 2.9
v 0.4 4.5 2.9
v 0.4 4.7 2.9
v 0.4 4.7 2.8
v 1.2 0.1 2.9
v 1.2 0.1 2.8
v 1.2 0.3 2.9
v 1.2 0.5 2.9
v 1.2 0.6 2.9
v 1.2 0.8 2.9
v 1.2 0.9 2.9
v 1.2 1.1 2.9
v 1.2 1.2 2.9
v 1.2 1.4 2.9
v 1.2 1.5 2.9
v 1.2 1.7 2.9
v 1.2 1.8 2.9
v 1.2 2 2.9
v 1.2 2.1 2.9
v 1.2 2.3 2.9
v 1.2 2.4 2.9
v 1.2 2.6 2.9
v 1.2 2.7 2.9
v 1.2 2.9 2.9
v 1.2 3 2.9
v 1.2 3.2 2.9
v 1.2 3.3 2.9
v 1.2 3.5 2.9
v 1.2 3.6 2.9
v 1.2 3.8 2.9
v 1.2 3.9 2.9
v 1.2 4.1 2.9
v 1.2 4.2 2.9
v 1.2 4.4 2.9
v 1.2 4.5 2.9
v 1.2 4.7 2.9
v 1.2 4.7 2.8
v 2 0.1 2.9
v 2 0.1 2.8
v 2 0.3 2.9
v 2 0.5 2.9
v 2 0.6 2.9
v 2 0.8 2.9
v 2 0.9 2.9
v 2 1.1 2.9
v 2 1.2 2.9
v 2 1.4 2.9
v 2 1.5 2.9
v 2 1.7 2.9
v 2 1.8 2.9
v 2 2 2.9
v 2 2.1 2.9
v 2 2.3 2.9
v 2 2.4 2.9
v 2 2.6 2.9
v 2 2.7 2.9
v 2 2.9 2.9
v 2 3 2.9
v 2 3.2 2.9
v 2 3.3 2.9
v 2 3.5 2.9
v 2 3.6 2.9
v 2 3.8 2.9
v 2 3.9 2.9
v 2 4.1 2.9
v 2 4.2 2.9
v 2 4.4 2.9
v 2 4.5 2.9
v 2 4.7 2.9
v 2 4.7 2.8
v 2.6 0 3.1
v 2.6 0 3
v 2.6 0.1 3
v 2.6 0.3 3
v 2.6 0.5 3
v 2.6 0.6 3
v 2.6 0.8 3
v 2.6 0.9 3
v 2.6 1.1 3
v 2.6 1.2 3
v 2.6 1.4 3
v 2.6 1.5 3
v 2.6 1.7 3
v 2.6 1.8 3
v 2.6 2 3
v 2.6 2.1 3
v 2.6 2.3 3
v 2.6 2.4 3
v 2.6 2.6 3
v 2.6 2.7 3
v 2.6 2.9 3
v 2.6 3 3
v 2.6 3.2 3
v 2.6 3.3 3
v 2.6 3.5 3
v 2.6 3.6 3
v 2.6 3.8 3
v 2.6 3.9 3
v 2.6 4.1 3
v 2.6 4.2 3
v 2.6 4.4 3
v 2.6 4.5 3
v 2.6 4.7 3
v 2.6 4.8 3.1
v 2.6 4.8 3
v 2.7 0 2.8
v 2.7 0 2.7
v 2.7 0.1 2.9
v 2.7 0.1 2.8
v 2.7 0.3 2.9
v 2.7 0.5 2.9
v 2.7 0.6 2.9
v 2.7 0.8 2.9
v 2.7 0.9 2.9
v 2.7 1.1 2.9
v 2.7 1.2 2.9
v 2.7 1.4 2.9
v 2.7 1.5 2.9
v 2.7 1.7 2.9
v 2.7 1.8 2.9
v 2.7 2 2.9
v 2.7 2.1 2.9
v 2.7 2.3 2.9
v 2.7 2.4 2.9
v 2.7 2.6 2.9
v 2.7 2.7 2.9
v 2.7 2.9 2.9
v 2.7 3 2.9
v 2.7 3.2 2.9
v 2.7 3.3 2.9
v 2.7 3.5 2.9
v 2.7 3.6 2.9
v 2.7 3.8 2.9
v 2.7 3.9 2.9
v 2.7 4.1 2.9
v 2.7 4.2 2.9
v 2.7 4.4 2.9
v 2.7 4.5 2.9
v 2.7 4.6 2.7
v 2.7 4.7 2.9
v 2.7 4.7 2.8
v 2.7 4.8 2.8
v 2.7 4.8 2.7
v 2.8 0 3
v 2.8 0 2.8
v 2.8 0.1 3
v 2.8 0.1 2.8
v 2.8 0.3 3
v 2.8 0.3 2.9
v 2.8 0.5 3
v 2.8 0.5 2.9
v 2.8 0.6 3
v 2.8 0.6 2.9
v 2.8 0.8 3
v 2.8 0.8 2.9
v 2.8 0.9 3
v 2.8 0.9 2.9
v 2.8 1.1 3
v 2.8 1.1 2.9
v 2.8 1.2 3
v 2.8 1.2 2.9
v 2.8 1.4 3
v 2.8 1.4 2.9
v 2.8 1.5 3
v 2.8 1.5 2.9
v 2.8 1.7 3
v 2.8 1.7 2.9
v 2.8 1.8 3
v 2.8 1.8 2.9
v 2.8 2 3
v 2.8 2 2.9
v 2.8 2.1 3
v 2.8 2.1 2.9
v 2.8 2.3 3
v 2.8 2.3 2.9
v 2.8 2.4 3
v 2.8 2.4 2.9
v 2.8 2.6 3
v 2.8 2.6 2.9
v 2.8 2.7 3
v 2.8 2.7 2.9
v 2.8 2.9 3
v 2.8 2.9 2.9
v 2.8 3 3
v 2.8 3 2.9
v 2.8 3.2 3
v 2.8 3.2 2.9
v 2.8 3.3 3
v 2.8 3.3 2.9
v 2.8 3.5 3
v 2.8 3.5 2.9
v 2.8 3.6 3
v 2.8 3.6 2.9
v 2.8 3.8 3
v 2.8 3.8 2.9
v 2.8 3.9 3
v 2.8 3.9 2.9
v 2.8 4.1 3
v 2.8 4.1 2.9
v 2.8 4.2 3
v 2.8 4.2 2.9
v 2.8 4.4 3
v 2.8 4.4 2.9
v 2.8 4.5 3
v 2.8 4.5 2.9
v 2.8 4.7 3
v 2.8 4.7 2.9
v -2.8 0 3
v -2.8 0 2.8
v -2.8 0.1 3
v -2.8 0.1 2.8
v -2.8 0.3 3
v -2.8 0.3 2.9
v -2.8 0.5 3
v -2.8 0.5 2.9
v -2.8 0.6 3
v -2.8 0.6 2.9
v -2.8 0.8 3
v -2.8 0.8 2.9
v -2.8 0.9 3
v -2.8 0.9 2.9
v -2.8 1.1 3
v -2.8 1.1 2.9
v -2.8 1.2 3
v -2.8 1.2 2.9
v -2.8 1.4 3
v -2.8 1.4 2.9
v -2.8 1.5 3
v -2.8 1.5 2.9
v -2.8 1.7 3
v -2.8 1.7 2.9
v -2.8 1.8 3
v -2.8 1.8 2.9
v -2.8 2 3
v -2.8 2 2.9
v -2.8 2.1 3
v -2.8 2.1 2.9
v -2.8 2.3 3
v -2.8 2.3 2.9
v -2.8 2.4 3
v -2.8 2.4 2.9
v -2.8 2.6 3
v -2.8 2.6 2.9
v -2.8 2.7 3
v -2.8 2.7 2.9
v -2.8 2.9 3
v -2.8 2.9 2.9
v -2.8 3 3
v -2.8 3 2.9
v -2.8 3.2 3
v -2.8 3.2 2.9
v -2.8 3.3 3
v -2.8 3.3 2.9
v -2.8 3.5 3
v -2.8 3.5 2.9
v -2.8 3.6 3
v -2.8 3.6 2.9
v -2.8 3.8 3
v -2.8 3.8 2.9
v -2.8 3.9 3
v -2.8 3.9 2.9
v -2.8 4.1 3
v -2.8 4.1 2.9
v -2.8 4.2 3
v -2.8 4.2 2.9
v -2.8 4.4 3
v -2.8 4.4 2.9
v -2.8 4.5 3
v -2.8 4.5 2.9
v -2.8 4.7 3
v -2.8 4.7 2.9
v -2.7 0 3.1
v -2.7 0 3
v -2.7 0 2.8
v -2.7 0 2.7
v -2.7 0.1 3
v -2.7 0.1 2.9
v -2.7 0.1 2.8
v -2.7 0.3 3
v -2.7 0.3 2.9
v -2.7 0.5 3
v -2.7 0.5 2.9
v -2.7 0.6 3
v -2.7 0.6 2.9
v -2.7 0.8 3
v -2.7 0.8 2.9
v -2.7 0.9 3
v -2.7 0.9 2.9
v -2.7 1.1 3
v -2.7 1.1 2.9
v -2.7 1.2 3
v -2.7 1.2 2.9
v -2.7 1.4 3
v -2.7 1.4 2.9
v -2.7 1.5 3
v -2.7 1.5 2.9
v -2.7 1.7 3
v -2.7 1.7 2.9
v -2.7 1.8 3
v -2.7 1.8 2.9
v -2.7 2 3
v -2.7 2 2.9
v -2.7 2.1 3
v -2.7 2.1 2.9
v -2.7 2.3 3
v -2.7 2.3 2.9
v -2.7 2.4 3
v -2.7 2.4 2.9
v -2.7 2.6 3
v -2.7 2.6 2.9
v -2.7 2.7 3
v -2.7 2.7 2.9
v -2.7 2.9 3
v -2.7 2.9 2.9
v -2.7 3 3
v -2.7 3 2.9
v -2.7 3.2 3
v -2.7 3.2 2.9
v -2.7 3.3 3
v -2.7 3.3 2.9
v -2.7 3.5 3
v -2.7 3.5 2.9
v -2.7 3.6 3
v -2.7 3.6 2.9
v -2.7 3.8 3
v -2.7 3.8 2.9
v -2.7 3.9 3
v -2.7 3.9 2.9
v -2.7 4.1 3
v -2.7 4.1 2.9
v -2.7 4.2 3
v -2.7 4.2 2.9
v -2.7 4.4 3
v -2.7 4.4 2.9
v -2.7 4.5 3
v -2.7 4.5 2.9
v -2.7 4.6 2.7
v -2.7 4.7 3
v -2.7 4.7 2.9
v -2.7 4.7 2.8
v -2.7 4.8 3.1
v -2.7 4.8 3
v -2.7 4.8 2.8
v -2.7 4.8 2.7
v -1.9 0.1 2.9
v -1.9 0.1 2.8
v -1.9 0.3 2.9
v -1.9 0.5 2.9
v -1.9 0.6 2.9
v -1.9 0.8 2.9
v -1.9 0.9 2.9
v -1.9 1.1 2.9
v -1.9 1.2 2.9
v -1.9 1.4 2.9
v -1.9 1.5 2.9
v -1.9 1.7 2.9
v -1.9 1.8 2.9
v -1.9 2 2.9
v -1.9 2.1 2.9
v -1.9 2.3 2.9
v -1.9 2.4 2.9
v -1.9 2.6 2.9
v -1.9 2.7 2.9
v -1.9 2.9 2.9
v -1.9 3 2.9
v -1.9 3.2 2.9
v -1.9 3.3 2.9
v -1.9 3.5 2.9
v -1.9 3.6 2.9
v -1.9 3.8 2.9
v -1.9 3.9 2.9
v -1.9 4.1 2.9
v -1.9 4.2 2.9
v -1.9 4.4 2.9
v -1.9 4.5 2.9
v -1.9 4.7 2.9
v -1.9 4.7 2.8
v -1.1 0.1 2.9
v -1.1 0.1 2.8
v -1.1 0.3 2.9
v -1.1 0.5 2.9
v -1.1 0.6 2.9
v -1.1 0.8 2.9
v -1.1 0.9 2.9
v -1.1 1.1 2.9
v -1.1 1.2 2.9
v -1.1 1.4 2.9
v -1.1 1.5 2.9
v -1.1 1.7 2.9
v -1.1 1.8 2.9
v -1.1 2 2.9
v -1.1 2.1 2.9
v -1.1 2.3 2.9
v -1.1 2.4 2.9
v -1.1 2.6 2.9
v -1.1 2.7 2.9
v -1.1 2.9 2.9
v -1.1 3 2.9
v -1.1 3.2 2.9
v -1.1 3.3 2.9
v -1.1 3.5 2.9
v -1.1 3.6 2.9
v -1.1 3.8 2.9
v -1.1 3.9 2.9
v -1.1 4.1 2.9
v -1.1 4.2 2.9
v -1.1 4.4 2.9
v -1.1 4.5 2.9
v -1.1 4.7 2.9
v -1.1 4.7 2.8
v -0.3 0.1 2.9
v -0.3 0.1 2.8
v -0.3 0.3 2.9
v -0.3 0.5 2.9
v -0.3 0.6 2.9
v -0.3 0.8 2.9
v -0.3 0.9 2.9
v -0.3 1.1 2.9
v -0.3 1.2 2.9
v -0.3 1.4 2.9
v -0.3 1.5 2.9
v -0.3 1.7 2.9
v -0.3 1.8 2.9
v -0.3 2 2.9
v -0.3 2.1 2.9
v -0.3 2.3 2.9
v -0.3 2.4 2.9
v -0.3 2.6 2.9
v -0.3 2.7 2.9
v -0.3 2.9 2.9
v -0.3 3 2.9
v -0.3 3.2 2.9
v -0.3 3.3 2.9
v -0.3 3.5 2.9
v -0.3 3.6 2.9
v -0.3 3.8 2.9
v -0.3 3.9 2.9
v -0.3 4.1 2.9
v -0.3 4.2 2.9
v -0.3 4.4 2.9
v -0.3 4.5 2.9
v -0.3 4.7 2.9
v -0.3 4.7 2.8
v 0.5 0.1 2.9
v 0.5 0.1 2.8
v 0.5 0.3 2.9
v 0.5 0.5 2.9
v 0.5 0.6 2.9
v 0.5 0.8 2.9
v 0.5 0.9 2.9
v 0.5 1.1 2.9
v 0.5 1.2 2.9
v 0.5 1.4 2.9
v 0.5 1.5 2.9
v 0.5 1.7 2.9
v 0.5 1.8 2.9
v 0.5 2 2.9
v 0.5 2.1 2.9
v 0.5 2.3 2.9
v 0.5 2.4 2.9
v 0.5 2.6 2.9
v 0.5 2.7 2.9
v 0.5 2.9 2.9
v 0.5 3 2.9
v 0.5 3.2 2.9
v 0.5 3.3 2.9
v 0.5 3.5 2.9
v 0.5 3.6 2.9
v 0.5 3.8 2.9
v 0.5 3.9 2.9
v 0.5 4.1 2.9
v 0.5 4.2 2.9
v 0.5 4.4 2.9
v 0.5 4.5 2.9
v 0.5 4.7 2.9
v 0.5 4.7 2.8
v 1.3 0.1 2.9
v 1.3 0.1 2.8
v 1.3 0.3 2.9
v 1.3 0.5 2.9
v 1.3 0.6 2.9
v 1.3 0.8 2.9
v 1.3 0.9 2.9
v 1.3 1.1 2.9
v 1.3 1.2 2.9
v 1.3 1.4 2.9
v 1.3 1.5 2.9
v 1.3 1.7 2.9
v 1.3 1.8 2.9
v 1.3 2 2.9
v 1.3 2.1 2.9
v 1.3 2.3 2.9
v 1.3 2.4 2.9
v 1.3 2.6 2.9
v 1.3 2.7 2.9
v 1.3 2.9 2.9
v 1.3 3 2.9
v 1.3 3.2 2.9
v 1.3 3.3 2.9
v 1.3 3.5 2.9
v 1.3 3.6 2.9
v 1.3 3.8 2.9
v 1.3 3.9 2.9
v 1.3 4.1 2.9
v 1.3 4.2 2.9
v 1.3 4.4 2.9
v 1.3 4.5 2.9
v 1.3 4.7 2.9
v 1.3 4.7 2.8
v 2.1 0.1 2.9
v 2.1 0.1 2.8
v 2.1 0.3 2.9
v 2.1 0.5 2.9
v 2.1 0.6 2.9
v 2.1 0.8 2.9
v 2.1 0.9 2.9
v 2.1 1.1 2.9
v 2.1 1.2 2.9
v 2.1 1.4 2.9
v 2.1 1.5 2.9
v 2.1 1.7 2.9
v 2.1 1.8 2.9
v 2.1 2 2.9
v 2.1 2.1 2.9
v 2.1 2.3 2.9
v 2.1 2.4 2.9
v 2.1 2.6 2.9
v 2.1 2.7 2.9
v 2.1 2.9 2.9
v 2.1 3 2.9
v 2.1 3.2 2.9
v 2.1 3.3 2.9
v 2.1 3.5 2.9
v 2.1 3.6 2.9
v 2.1 3.8 2.9
v 2.1 3.9 2.9
v 2.1 4.1 2.9
v 2.1 4.2 2.9
v 2.1 4.4 2.9
v 2.1 4.5 2.9
v 2.1 4.7 2.9
v 2.1 4.7 2.8
v 2.9 0 3.1
v 2.9 0 2.7
v 2.9 4.6 2.7
v 2.9 4.6 2.6
v 2.9 4.7 2.6
v 2.9 4.7 2.5
v 2.9 4.9 2.6
v 2.9 4.9 2.5
v 2.9 5 3.1
v 2.9 5 2.6
v -2.9 0 3.1
v -2.9 5 3.1
v -2.7 0 3.1
v -2.7 4.8 3.1
v 2.6 0 3.1
v 2.6 4.8 3.1
v 2.9 0 3.1
v 2.9 5 3.1
v -2.7 0.1 3
v -2.7 0.3 3
v -2.7 0.5 3
v -2.7 0.6 3
v -2.7 0.8 3
v -2.7 0.9 3
v -2.7 1.1 3
v -2.7 1.2 3
v -2.7 1.4 3
v -2.7 1.5 3
v -2.7 1.7 3
v -2.7 1.8 3
v -2.7 2 3
v -2.7 2.1 3
v -2.7 2.3 3
v -2.7 2.4 3
v -2.7 2.6 3
v -2.7 2.7 3
v -2.7 2.9 3
v -2.7 3 3
v -2.7 3.2 3
v -2.7 3.3 3
v -2.7 3.5 3
v -2.7 3.6 3
v -2.7 3.8 3
v -2.7 3.9 3
v -2.7 4.1 3
v -2.7 4.2 3
v -2.7 4.4 3
v -2.7 4.5 3
v -2.7 4.7 3
v -2.7 4.8 3
v 2.6 0.1 3
v 2.6 0.3 3
v 2.6 0.5 3
v 2.6 0.6 3
v 2.6 0.8 3
v 2.6 0.9 3
v 2.6 1.1 3
v 2.6 1.2 3
v 2.6 1.4 3
v 2.6 1.5 3
v 2.6 1.7 3
v 2.6 1.8 3
v 2.6 2 3
v 2.6 2.1 3
v 2.6 2.3 3
v 2.6 2.4 3
v 2.6 2.6 3
v 2.6 2.7 3
v 2.6 2.9 3
v 2.6 3 3
v 2.6 3.2 3
v 2.6 3.3 3
v 2.6 3.5 3
v 2.6 3.6 3
v 2.6 3.8 3
v 2.6 3.9 3
v 2.6 4.1 3
v 2.6 4.2 3
v 2.6 4.4 3
v 2.6 4.5 3
v 2.6 4.7 3
v 2.6 4.8 3
v -2.8 0.3 2.9
v -2.8 0.5 2.9
v -2.8 0.6 2.9
v -2.8 0.8 2.9
v -2.8 0.9 2.9
v -2.8 1.1 2.9
v -2.8 1.2 2.9
v -2.8 1.4 2.9
v -2.8 1.5 2.9
v -2.8 1.7 2.9
v -2.8 1.8 2.9
v -2.8 2 2.9
v -2.8 2.1 2.9
v -2.8 2.3 2.9
v -2.8 2.4 2.9
v -2.8 2.6 2.9
v -2.8 2.7 2.9
v -2.8 2.9 2.9
v -2.8 3 2.9
v -2.8 3.2 2.9
v -2.8 3.3 2.9
v -2.8 3.5 2.9
v -2.8 3.6 2.9
v -2.8 3.8 2.9
v -2.8 3.9 2.9
v -2.8 4.1 2.9
v -2.8 4.2 2.9
v -2.8 4.4 2.9
v -2.8 4.5 2.9
v -2.8 4.7 2.9
v -2.7 0.3 2.9
v -2.7 0.5 2.9
v -2.7 0.6 2.9
v -2.7 0.8 2.9
v -2.7 0.9 2.9
v -2.7 1.1 2.9
v -2.7 1.2 2.9
v -2.7 1.4 2.9
v -2.7 1.5 2.9
v -2.7 1.7 2.9
v -2.7 1.8 2.9
v -2.7 2 2.9
v -2.7 2.1 2.9
v -2.7 2.3 2.9
v -2.7 2.4 2.9
v -2.7 2.6 2.9
v -2.7 2.7 2.9
v -2.7 2.9 2.9
v -2.7 3 2.9
v -2.7 3.2 2.9
v -2.7 3.3 2.9
v -2.7 3.5 2.9
v -2.7 3.6 2.9
v -2.7 3.8 2.9
v -2.7 3.9 2.9
v -2.7 4.1 2.9
v -2.7 4.2 2.9
v -2.7 4.4 2.9
v -2.7 4.5 2.9
v -2.7 4.7 2.9
v -2 0.3 2.9
v -2 0.5 2.9
v -2 0.6 2.9
v -2 0.8 2.9
v -2 0.9 2.9
v -2 1.1 2.9
v -2 1.2 2.9
v -2 1.4 2.9
v -2 1.5 2.9
v -2 1.7 2.9
v -2 1.8 2.9
v -2 2 2.9
v -2 2.1 2.9
v -2 2.3 2.9
v -2 2.4 2.9
v -2 2.6 2.9
v -2 2.7 2.9
v -2 2.9 2.9
v -2 3 2.9
v -2 3.2 2.9
v -2 3.3 2.9
v -2 3.5 2.9
v -2 3.6 2.9
v -2 3.8 2.9
v -2 3.9 2.9
v -2 4.1 2.9
v -2 4.2 2.9
v -2 4.4 2.9
v -2 4.5 2.9
v -2 4.7 2.9
v -1.9 0.3 2.9
v -1.9 0.5 2.9
v -1.9 0.6 2.9
v -1.9 0.8 2.9
v -1.9 0.9 2.9
v -1.9 1.1 2.9
v -1.9 1.2 2.9
v -1.9 1.4 2.9
v -1.9 1.5 2.9
v -1.9 1.7 2.9
v -1.9 1.8 2.9
v -1.9 2 2.9
v -1.9 2.1 2.9
v -1.9 2.3 2.9
v -1.9 2.4 2.9
v -1.9 2.6 2.9
v -1.9 2.7 2.9
v -1.9 2.9 2.9
v -1.9 3 2.9
v -1.9 3.2 2.9
v -1.9 3.3 2.9
v -1.9 3.5 2.9
v -1.9 3.6 2.9
v -1.9 3.8 2.9
v -1.9 3.9 2.9
v -1.9 4.1 2.9
v -1.9 4.2 2.9
v -1.9 4.4 2.9
v -1.9 4.5 2.9
v -1.9 4.7 2.9
v -1.2 0.3 2.9
v -1.2 0.5 2.9
v -1.2 0.6 2.9
v -1.2 0.8 2.9
v -1.2 0.9 2.9
v -1.2 1.1 2.9
v -1.2 1.2 2.9
v -1.2 1.4 2.9
v -1.2 1.5 2.9
v -1.2 1.7 2.9
v -1.2 1.8 2.9
v -1.2 2 2.9
v -1.2 2.1 2.9
v -1.2 2.3 2.9
v -1.2 2.4 2.9
v -1.2 2.6 2.9
v -1.2 2.7 2.9
v -1.2 2.9 2.9
v -1.2 3 2.9
v -1.2 3.2 2.9
v -1.2 3.3 2.9
v -1.2 3.5 2.9
v -1.2 3.6 2.9
v -1.2 3.8 2.9
v -1.2 3.9 2.9
v -1.2 4.1 2.9
v -1.2 4.2 2.9
v -1.2 4.4 2.9
v -1.2 4.5 2.9
v -1.2 4.7 2.9
v -1.1 0.3 2.9
v -1.1 0.5 2.9
v -1.1 0.6 2.9
v -1.1 0.8 2.9
v -1.1 0.9 2.9
v -1.1 1.1 2.9
v -1.1 1.2 2.9
v -1.1 1.4 2.9
v -1.1 1.5 2.9
v -1.1 1.7 2.9
v -1.1 1.8 2.9
v -1.1 2 2.9
v -1.1 2.1 2.9
v -1.1 2.3 2.9
v -1.1 2.4 2.9
v -1.1 2.6 2.9
v -1.1 2.7 2.9
v -1.1 2.9 2.9
v -1.1 3 2.9
v -1.1 3.2 2.9
v -1.1 3.3 2.9
v -1.1 3.5 2.9
v -1.1 3.6 2.9
v -1.1 3.8 2.9
v -1.1 3.9 2.9
v -1.1 4.1 2.9
v -1.1 4.2 2.9
v -1.1 4.4 2.9
v -1.1 4.5 2.9
v -1.1 4.7 2.9
v -0.4 0.3 2.9
v -0.4 0.5 2.9
v -0.4 0.6 2.9
v -0.4 0.8 2.9
v -0.4 0.9 2.9
v -0.4 1.1 2.9
v -0.4 1.2 2.9
v -0.4 1.4 2.9
v -0.4 1.5 2.9
v -0.4 1.7 2.9
v -0.4 1.8 2.9
v -0.4 2 2.9
v -0.4 2.1 2.9
v -0.4 2.3 2.9
v -0.4 2.4 2.9
v -0.4 2.6 2.9
v -0.4 2.7 2.9
v -0.4 2.9 2.9
v -0.4 3 2.9
v -0.4 3.2 2.9
v -0.4 3.3 2.9
v -0.4 3.5 2.9
v -0.4 3.6 2.9
v -0.4 3.8 2.9
v -0.4 3.9 2.9
v -0.4 4.1 2.9
v -0.4 4.2 2.9
v -0.4 4.4 2.9
v -0.4 4.5 2.9
v -0.4 4.7 2.9
v -0.3 0.3 2.9
v -0.3 0.5 2.9
v -0.3 0.6 2.9
v -0.3 0.8 2.9
v -0.3 0.9 2.9
v -0.3 1.1 2.9
v -0.3 1.2 2.9
v -0.3 1.4 2.9
v -0.3 1.5 2.9
v -0.3 1.7 2.9
v -0.3 1.8 2.9
v -0.3 2 2.9
v -0.3 2.1 2.9
v -0.3 2.3 2.9
v -0.3 2.4 2.9
v -0.3 2.6 2.9
v -0.3 2.7 2.9
v -0.3 2.9 2.9
v -0.3 3 2.9
v -0.3 3.2 2.9
v -0.3 3.3 2.9
v -0.3 3.5 2.9
v -0.3 3.6 2.9
v -0.3 3.8 2.9
v -0.3 3.9 2.9
v -0.3 4.1 2.9
v -0.3 4.2 2.9
v -0.3 4.4 2.9
v -0.3 4.5 2.9
v -0.3 4.7 2.9
v 0.4 0.3 2.9
v 0.4 0.5 2.9
v 0.4 0.6 2.9
v 0.4 0.8 2.9
v 0.4 0.9 2.9
v 0.4 1.1 2.9
v 0.4 1.2 2.9
v 0.4 1.4 2.9
v 0.4 1.5 2.9
v 0.4 1.7 2.9
v 0.4 1.8 2.9
v 0.4 2 2.9
v 0.4 2.1 2.9
v 0.4 2.3 2.9
v 0.4 2.4 2.9
v 0.4 2.6 2.9
v 0.4 2.7 2.9
v 0.4 2.9 2.9
v 0.4 3 2.9
v 0.4 3.2 2.9
v 0.4 3.3 2.9
v 0.4 3.5 2.9
v 0.4 3.6 2.9
v 0.4 3.8 2.9
v 0.4 3.9 2.9
v 0.4 4.1 2.9
v 0.4 4.2 2.9
v 0.4 4.4 2.9
v 0.4 4.5 2.9
v 0.4 4.7 2.9
v 0.5 0.3 2.9
v 0.5 0.5 2.9
v 0.5 0.6 2.9
v 0.5 0.8 2.9
v 0.5 0.9 2.9
v 0.5 1.1 2.9
v 0.5 1.2 2.9
v 0.5 1.4 2.9
v 0.5 1.5 2.9
v 0.5 1.7 2.9
v 0.5 1.8 2.9
v 0.5 2 2.9
v 0.5 2.1 2.9
v 0.5 2.3 2.9
v 0.5 2.4 2.9
v 0.5 2.6 2.9
v 0.5 2.7 2.9
v 0.5 2.9 2.9
v 0.5 3 2.9
v 0.5 3.2 2.9
v 0.5 3.3 2.9
v 0.5 3.5 2.9
v 0.5 3.6 2.9
v 0.5 3.8 2.9
v 0.5 3.9 2.9
v 0.5 4.1 2.9
v 0.5 4.2 2.9
v 0.5 4.4 2.9
v 0.5 4.5 2.9
v 0.5 4.7 2.9
v 1.2 0.3 2.9
v 1.2 0.5 2.9
v 1.2 0.6 2.9
v 1.2 0.8 2.9
v 1.2 0.9 2.9
v 1.2 1.1 2.9
v 1.2 1.2 2.9
v 1.2 1.4 2.9
v 1.2 1.5 2.9
v 1.2 1.7 2.9
v 1.2 1.8 2.9
v 1.2 2 2.9
v 1.2 2.1 2.9
v 1.2 2.3 2.9
v 1.2 2.4 2.9
v 1.2 2.6 2.9
v 1.2 2.7 2.9
v 1.2 2.9 2.9
v 1.2 3 2.9
v 1.2 3.2 2.9
v 1.2 3.3 2.9
v 1.2 3.5 2.9
v 1.2 3.6 2.9
v 1.2 3.8 2.9
v 1.2 3.9 2.9
v 1.2 4.1 2.9
v 1.2 4.2 2.9
v 1.2 4.4 2.9
v 1.2 4.5 2.9
v 1.2 4.7 2.9
v 1.3 0.3 2.9
v 1.3 0.5 2.9
v 1.3 0.6 2.9
v 1.3 0.8 2.9
v 1.3 0.9 2.9
v 1.3 1.1 2.9
v 1.3 1.2 2.9
v 1.3 1.4 2.9
v 1.3 1.5 2.9
v 1.3 1.7 2.9
v 1.3 1.8 2.9
v 1.3 2 2.9
v 1.3 2.1 2.9
v 1.3 2.3 2.9
v 1.3 2.4 2.9
v 1.3 2.6 2.9
v 1.3 2.7 2.9
v 1.3 2.9 2.9
v 1.3 3 2.9
v 1.3 3.2 2.9
v 1.3 3.3 2.9
v 1.3 3.5 2.9
v 1.3 3.6 2.9
v 1.3 3.8 2.9
v 1.3 3.9 2.9
v 1.3 4.1 2.9
v 1.3 4.2 2.9
v 1.3 4.4 2.9
v 1.3 4.5 2.9
v 1.3 4.7 2.9
v 2 0.3 2.9
v 2 0.5 2.9
v 2 0.6 2.9
v 2 0.8 2.9
v 2 0.9 2.9
v 2 1.1 2.9
v 2 1.2 2.9
v 2 1.4 2.9
v 2 1.5 2.9
v 2 1.7 2.9
v 2 1.8 2.9
v 2 2 2.9
v 2 2.1 2.9
v 2 2.3 2.9
v 2 2.4 2.9
v 2 2.6 2.9
v 2 2.7 2.9
v 2 2.9 2.9
v 2 3 2.9
v 2 3.2 2.9
v 2 3.3 2.9
v 2 3.5 2.9
v 2 3.6 2.9
v 2 3.8 2.9
v 2 3.9 2.9
v 2 4.1 2.9
v 2 4.2 2.9
v 2 4.4 2.9
v 2 4.5 2.9
v 2 4.7 2.9
v 2.1 0.3 2.9
v 2.1 0.5 2.9
v 2.1 0.6 2.9
v 2.1 0.8 2.9
v 2.1 0.9 2.9
v 2.1 1.1 2.9
v 2.1 1.2 2.9
v 2.1 1.4 2.9
v 2.1 1.5 2.9
v 2.1 1.7 2.9
v 2.1 1.8 2.9
v 2.1 2 2.9
v 2.1 2.1 2.9
v 2.1 2.3 2.9
v 2.1 2.4 2.9
v 2.1 2.6 2.9
v 2.1 2.7 2.9
v 2.1 2.9 2.9
v 2.1 3 2.9
v 2.1 3.2 2.9
v 2.1 3.3 2.9
v 2.1 3.5 2.9
v 2.1 3.6 2.9
v 2.1 3.8 2.9
v 2.1 3.9 2.9
v 2.1 4.1 2.9
v 2.1 4.2 2.9
v 2.1 4.4 2.9
v 2.1 4.5 2.9
v 2.1 4.7 2.9
v 2.7 0.3 2.9
v 2.7 0.5 2.9
v 2.7 0.6 2.9
v 2.7 0.8 2.9
v 2.7 0.9 2.9
v 2.7 1.1 2.9
v 2.7 1.2 2.9
v 2.7 1.4 2.9
v 2.7 1.5 2.9
v 2.7 1.7 2.9
v 2.7 1.8 2.9
v 2.7 2 2.9
v 2.7 2.1 2.9
v 2.7 2.3 2.9
v 2.7 2.4 2.9
v 2.7 2.6 2.9
v 2.7 2.7 2.9
v 2.7 2.9 2.9
v 2.7 3 2.9
v 2.7 3.2 2.9
v 2.7 3.3 2.9
v 2.7 3.5 2.9
v 2.7 3.6 2.9
v 2.7 3.8 2.9
v 2.7 3.9 2.9
v 2.7 4.1 2.9
v 2.7 4.2 2.9
v 2.7 4.4 2.9
v 2.7 4.5 2.9
v 2.7 4.7 2.9
v 2.8 0.3 2.9
v 2.8 0.5 2.9
v 2.8 0.6 2.9
v 2.8 0.8 2.9
v 2.8 0.9 2.9
v 2.8 1.1 2.9
v 2.8 1.2 2.9
v 2.8 1.4 2.9
v 2.8 1.5 2.9
v 2.8 1.7 2.9
v 2.8 1.8 2.9
v 2.8 2 2.9
v 2.8 2.1 2.9
v 2.8 2.3 2.9
v 2.8 2.4 2.9
v 2.8 2.6 2.9
v 2.8 2.7 2.9
v 2.8 2.9 2.9
v 2.8 3 2.9
v 2.8 3.2 2.9
v 2.8 3.3 2.9
v 2.8 3.5 2.9
v 2.8 3.6 2.9
v 2.8 3.8 2.9
v 2.8 3.9 2.9
v 2.8 4.1 2.9
v 2.8 4.2 2.9
v 2.8 4.4 2.9
v 2.8 4.5 2.9
v 2.8 4.7 2.9
v -2.8 0 2.8
v -2.8 0.1 2.8
v -2.7 0 2.8
v -2.7 0.1 2.8
v 2.7 0 2.8
v 2.7 0.1 2.8
v 2.8 0 2.8
v 2.8 0.1 2.8
v -2.7 4.6 2.7
v -2.7 4.8 2.7
v 2.7 4.6 2.7
v 2.7 4.8 2.7
v -2.8 0 3
v -2.8 0.1 3
v -2.8 0.3 3
v -2.8 0.5 3
v -2.8 0.6 3
v -2.8 0.8 3
v -2.8 0.9 3
v -2.8 1.1 3
v -2.8 1.2 3
v -2.8 1.4 3
v -2.8 1.5 3
v -2.8 1.7 3
v -2.8 1.8 3
v -2.8 2 3
v -2.8 2.1 3
v -2.8 2.3 3
v -2.8 2.4 3
v -2.8 2.6 3
v -2.8 2.7 3
v -2.8 2.9 3
v -2.8 3 3
v -2.8 3.2 3
v -2.8 3.3 3
v -2.8 3.5 3
v -2.8 3.6 3
v -2.8 3.8 3
v -2.8 3.9 3
v -2.8 4.1 3
v -2.8 4.2 3
v -2.8 4.4 3
v -2.8 4.5 3
v -2.8 4.7 3
v -2.7 0 3
v -2.7 0.1 3
v -2.7 0.3 3
v -2.7 0.5 3
v -2.7 0.6 3
v -2.7 0.8 3
v -2.7 0.9 3
v -2.7 1.1 3
v -2.7 1.2 3
v -2.7 1.4 3
v -2.7 1.5 3
v -2.7 1.7 3
v -2.7 1.8 3
v -2.7 2 3
v -2.7 2.1 3
v -2.7 2.3 3
v -2.7 2.4 3
v -2.7 2.6 3
v -2.7 2.7 3
v -2.7 2.9 3
v -2.7 3 3
v -2.7 3.2 3
v -2.7 3.3 3
v -2.7 3.5 3
v -2.7 3.6 3
v -2.7 3.8 3
v -2.7 3.9 3
v -2.7 4.1 3
v -2.7 4.2 3
v -2.7 4.4 3
v -2.7 4.5 3
v -2.7 4.7 3
v 2.6 0 3
v 2.6 0.1 3
v 2.6 0.3 3
v 2.6 0.5 3
v 2.6 0.6 3
v 2.6 0.8 3
v 2.6 0.9 3
v 2.6 1.1 3
v 2.6 1.2 3
v 2.6 1.4 3
v 2.6 1.5 3
v 2.6 1.7 3
v 2.6 1.8 3
v 2.6 2 3
v 2.6 2.1 3
v 2.6 2.3 3
v 2.6 2.4 3
v 2.6 2.6 3
v 2.6 2.7 3
v 2.6 2.9 3
v 2.6 3 3
v 2.6 3.2 3
v 2.6 3.3 3
v 2.6 3.5 3
v 2.6 3.6 3
v 2.6 3.8 3
v 2.6 3.9 3
v 2.6 4.1 3
v 2.6 4.2 3
v 2.6 4.4 3
v 2.6 4.5 3
v 2.6 4.7 3
v 2.8 0 3
v 2.8 0.1 3
v 2.8 0.3 3
v 2.8 0.5 3
v 2.8 0.6 3
v 2.8 0.8 3
v 2.8 0.9 3
v 2.8 1.1 3
v 2.8 1.2 3
v 2.8 1.4 3
v 2.8 1.5 3
v 2.8 1.7 3
v 2.8 1.8 3
v 2.8 2 3
v 2.8 2.1 3
v 2.8 2.3 3
v 2.8 2.4 3
v 2.8 2.6 3
v 2.8 2.7 3
v 2.8 2.9 3
v 2.8 3 3
v 2.8 3.2 3
v 2.8 3.3 3
v 2.8 3.5 3
v 2.8 3.6 3
v 2.8 3.8 3
v 2.8 3.9 3
v 2.8 4.1 3
v 2.8 4.2 3
v 2.8 4.4 3
v 2.8 4.5 3
v 2.8 4.7 3
v -2.7 0.1 2.9
v -2.7 0.3 2.9
v -2.7 0.5 2.9
v -2.7 0.6 2.9
v -2.7 0.8 2.9
v -2.7 0.9 2.9
v -2.7 1.1 2.9
v -2.7 1.2 2.9
v -2.7 1.4 2.9
v -2.7 1.5 2.9
v -2.7 1.7 2.9
v -2.7 1.8 2.9
v -2.7 2 2.9
v -2.7 2.1 2.9
v -2.7 2.3 2.9
v -2.7 2.4 2.9
v -2.7 2.6 2.9
v -2.7 2.7 2.9
v -2.7 2.9 2.9
v -2.7 3 2.9
v -2.7 3.2 2.9
v -2.7 3.3 2.9
v -2.7 3.5 2.9
v -2.7 3.6 2.9
v -2.7 3.8 2.9
v -2.7 3.9 2.9
v -2.7 4.1 2.9
v -2.7 4.2 2.9
v -2.7 4.4 2.9
v -2.7 4.5 2.9
v -2 0.1 2.9
v -2 0.3 2.9
v -2 0.5 2.9
v -2 0.6 2.9
v -2 0.8 2.9
v -2 0.9 2.9
v -2 1.1 2.9
v -2 1.2 2.9
v -2 1.4 2.9
v -2 1.5 2.9
v -2 1.7 2.9
v -2 1.8 2.9
v -2 2 2.9
v -2 2.1 2.9
v -2 2.3 2.9
v -2 2.4 2.9
v -2 2.6 2.9
v -2 2.7 2.9
v -2 2.9 2.9
v -2 3 2.9
v -2 3.2 2.9
v -2 3.3 2.9
v -2 3.5 2.9
v -2 3.6 2.9
v -2 3.8 2.9
v -2 3.9 2.9
v -2 4.1 2.9
v -2 4.2 2.9
v -2 4.4 2.9
v -2 4.5 2.9
v -1.9 0.1 2.9
v -1.9 0.3 2.9
v -1.9 0.5 2.9
v -1.9 0.6 2.9
v -1.9 0.8 2.9
v -1.9 0.9 2.9
v -1.9 1.1 2.9
v -1.9 1.2 2.9
v -1.9 1.4 2.9
v -1.9 1.5 2.9
v -1.9 1.7 2.9
v -1.9 1.8 2.9
v -1.9 2 2.9
v -1.9 2.1 2.9
v -1.9 2.3 2.9
v -1.9 2.4 2.9
v -1.9 2.6 2.9
v -1.9 2.7 2.9
v -1.9 2.9 2.9
v -1.9 3 2.9
v -1.9 3.2 2.9
v -1.9 3.3 2.9
v -1.9 3.5 2.9
v -1.9 3.6 2.9
v -1.9 3.8 2.9
v -1.9 3.9 2.9
v -1.9 4.1 2.9
v -1.9 4.2 2.9
v -1.9 4.4 2.9
v -1.9 4.5 2.9
v -1.2 0.1 2.9
v -1.2 0.3 2.9
v -1.2 0.5 2.9
v -1.2 0.6 2.9
v -1.2 0.8 2.9
v -1.2 0.9 2.9
v -1.2 1.1 2.9
v -1.2 1.2 2.9
v -1.2 1.4 2.9
v -1.2 1.5 2.9
v -1.2 1.7 2.9
v -1.2 1.8 2.9
v -1.2 2 2.9
v -1.2 2.1 2.9
v -1.2 2.3 2.9
v -1.2 2.4 2.9
v -1.2 2.6 2.9
v -1.2 2.7 2.9
v -1.2 2.9 2.9
v -1.2 3 2.9
v -1.2 3.2 2.9
v -1.2 3.3 2.9
v -1.2 3.5 2.9
v -1.2 3.6 2.9
v -1.2 3.8 2.9
v -1.2 3.9 2.9
v -1.2 4.1 2.9
v -1.2 4.2 2.9
v -1.2 4.4 2.9
v -1.2 4.5 2.9
v -1.1 0.1 2.9
v -1.1 0.3 2.9
v -1.1 0.5 2.9
v -1.1 0.6 2.9
v -1.1 0.8 2.9
v -1.1 0.9 2.9
v -1.1 1.1 2.9
v -1.1 1.2 2.9
v -1.1 1.4 2.9
v -1.1 1.5 2.9
v -1.1 1.7 2.9
v -1.1 1.8 2.9
v -1.1 2 2.9
v -1.1 2.1 2.9
v -1.1 2.3 2.9
v -1.1 2.4 2.9
v -1.1 2.6 2.9
v -1.1 2.7 2.9
v -1.1 2.9 2.9
v -1.1 3 2.9
v -1.1 3.2 2.9
v -1.1 3.3 2.9
v -1.1 3.5 2.9
v -1.1 3.6 2.9
v -1.1 3.8 2.9
v -1.1 3.9 2.9
v -1.1 4.1 2.9
v -1.1 4.2 2.9
v -1.1 4.4 2.9
v -1.1 4.5 2.9
v -0.4 0.1 2.9
v -0.4 0.3 2.9
v -0.4 0.5 2.9
v -0.4 0.6 2.9
v -0.4 0.8 2.9
v -0.4 0.9 2.9
v -0.4 1.1 2.9
v -0.4 1.2 2.9
v -0.4 1.4 2.9
v -0.4 1.5 2.9
v -0.4 1.7 2.9
v -0.4 1.8 2.9
v -0.4 2 2.9
v -0.4 2.1 2.9
v -0.4 2.3 2.9
v -0.4 2.4 2.9
v -0.4 2.6 2.9
v -0.4 2.7 2.9
v -0.4 2.9 2.9
v -0.4 3 2.9
v -0.4 3.2 2.9
v -0.4 3.3 2.9
v -0.4 3.5 2.9
v -0.4 3.6 2.9
v -0.4 3.8 2.9
v -0.4 3.9 2.9
v -0.4 4.1 2.9
v -0.4 4.2 2.9
v -0.4 4.4 2.9
v -0.4 4.5 2.9
v -0.3 0.1 2.9
v -0.3 0.3 2.9
v -0.3 0.5 2.9
v -0.3 0.6 2.9
v -0.3 0.8 2.9
v -0.3 0.9 2.9
v -0.3 1.1 2.9
v -0.3 1.2 2.9
v -0.3 1.4 2.9
v -0.3 1.5 2.9
v -0.3 1.7 2.9
v -0.3 1.8 2.9
v -0.3 2 2.9
v -0.3 2.1 2.9
v -0.3 2.3 2.9
v -0.3 2.4 2.9
v -0.3 2.6 2.9
v -0.3 2.7 2.9
v -0.3 2.9 2.9
v -0.3 3 2.9
v -0.3 3.2 2.9
v -0.3 3.3 2.9
v -0.3 3.5 2.9
v -0.3 3.6 2.9
v -0.3 3.8 2.9
v -0.3 3.9 2.9
v -0.3 4.1 2.9
v -0.3 4.2 2.9
v -0.3 4.4 2.9
v -0.3 4.5 2.9
v 0.4 0.1 2.9
v 0.4 0.3 2.9
v 0.4 0.5 2.9
v 0.4 0.6 2.9
v 0.4 0.8 2.9
v 0.4 0.9 2.9
v 0.4 1.1 2.9
v 0.4 1.2 2.9
v 0.4 1.4 2.9
v 0.4 1.5 2.9
v 0.4 1.7 2.9
v 0.4 1.8 2.9
v 0.4 2 2.9
v 0.4 2.1 2.9
v 0.4 2.3 2.9
v 0.4 2.4 2.9
v 0.4 2.6 2.9
v 0.4 2.7 2.9
v 0.4 2.9 2.9
v 0.4 3 2.9
v 0.4 3.2 2.9
v 0.4 3.3 2.9
v 0.4 3.5 2.9
v 0.4 3.6 2.9
v 0.4 3.8 2.9
v 0.4 3.9 2.9
v 0.4 4.1 2.9
v 0.4 4.2 2.9
v 0.4 4.4 2.9
v 0.4 4.5 2.9
v 0.5 0.1 2.9
v 0.5 0.3 2.9
v 0.5 0.5 2.9
v 0.5 0.6 2.9
v 0.5 0.8 2.9
v 0.5 0.9 2.9
v 0.5 1.1 2.9
v 0.5 1.2 2.9
v 0.5 1.4 2.9
v 0.5 1.5 2.9
v 0.5 1.7 2.9
v 0.5 1.8 2.9
v 0.5 2 2.9
v 0.5 2.1 2.9
v 0.5 2.3 2.9
v 0.5 2.4 2.9
v 0.5 2.6 2.9
v 0.5 2.7 2.9
v 0.5 2.9 2.9
v 0.5 3 2.9
v 0.5 3.2 2.9
v 0.5 3.3 2.9
v 0.5 3.5 2.9
v 0.5 3.6 2.9
v 0.5 3.8 2.9
v 0.5 3.9 2.9
v 0.5 4.1 2.9
v 0.5 4.2 2.9
v 0.5 4.4 2.9
v 0.5 4.5 2.9
v 1.2 0.1 2.9
v 1.2 0.3 2.9
v 1.2 0.5 2.9
v 1.2 0.6 2.9
v 1.2 0.8 2.9
v 1.2 0.9 2.9
v 1.2 1.1 2.9
v 1.2 1.2 2.9
v 1.2 1.4 2.9
v 1.2 1.5 2.9
v 1.2 1.7 2.9
v 1.2 1.8 2.9
v 1.2 2 2.9
v 1.2 2.1 2.9
v 1.2 2.3 2.9
v 1.2 2.4 2.9
v 1.2 2.6 2.9
v 1.2 2.7 2.9
v 1.2 2.9 2.9
v 1.2 3 2.9
v 1.2 3.2 2.9
v 1.2 3.3 2.9
v 1.2 3.5 2.9
v 1.2 3.6 2.9
v 1.2 3.8 2.9
v 1.2 3.9 2.9
v 1.2 4.1 2.9
v 1.2 4.2 2.9
v 1.2 4.4 2.9
v 1.2 4.5 2.9
v 1.3 0.1 2.9
v 1.3 0.3 2.9
v 1.3 0.5 2.9
v 1.3 0.6 2.9
v 1.3 0.8 2.9
v 1.3 0.9 2.9
v 1.3 1.1 2.9
v 1.3 1.2 2.9
v 1.3 1.4 2.9
v 1.3 1.5 2.9
v 1.3 1.7 2.9
v 1.3 1.8 2.9
v 1.3 2 2.9
v 1.3 2.1 2.9
v 1.3 2.3 2.9
v 1.3 2.4 2.9
v 1.3 2.6 2.9
v 1.3 2.7 2.9
v 1.3 2.9 2.9
v 1.3 3 2.9
v 1.3 3.2 2.9
v 1.3 3.3 2.9
v 1.3 3.5 2.9
v 1.3 3.6 2.9
v 1.3 3.8 2.9
v 1.3 3.9 2.9
v 1.3 4.1 2.9
v 1.3 4.2 2.9
v 1.3 4.4 2.9
v 1.3 4.5 2.9
v 2 0.1 2.9
v 2 0.3 2.9
v 2 0.5 2.9
v 2 0.6 2.9
v 2 0.8 2.9
v 2 0.9 2.9
v 2 1.1 2.9
v 2 1.2 2.9
v 2 1.4 2.9
v 2 1.5 2.9
v 2 1.7 2.9
v 2 1.8 2.9
v 2 2 2.9
v 2 2.1 2.9
v 2 2.3 2.9
v 2 2.4 2.9
v 2 2.6 2.9
v 2 2.7 2.9
v 2 2.9 2.9
v 2 3 2.9
v 2 3.2 2.9
v 2 3.3 2.9
v 2 3.5 2.9
v 2 3.6 2.9
v 2 3.8 2.9
v 2 3.9 2.9
v 2 4.1 2.9
v 2 4.2 2.9
v 2 4.4 2.9
v 2 4.5 2.9
v 2.1 0.1 2.9
v 2.1 0.3 2.9
v 2.1 0.5 2.9
v 2.1 0.6 2.9
v 2.1 0.8 2.9
v 2.1 0.9 2.9
v 2.1 1.1 2.9
v 2.1 1.2 2.9
v 2.1 1.4 2.9
v 2.1 1.5 2.9
v 2.1 1.7 2.9
v 2.1 1.8 2.9
v 2.1 2 2.9
v 2.1 2.1 2.9
v 2.1 2.3 2.9
v 2.1 2.4 2.9
v 2.1 2.6 2.9
v 2.1 2.7 2.9
v 2.1 2.9 2.9
v 2.1 3 2.9
v 2.1 3.2 2.9
v 2.1 3.3 2.9
v 2.1 3.5 2.9
v 2.1 3.6 2.9
v 2.1 3.8 2.9
v 2.1 3.9 2.9
v 2.1 4.1 2.9
v 2.1 4.2 2.9
v 2.1 4.4 2.9
v 2.1 4.5 2.9
v 2.7 0.1 2.9
v 2.7 0.3 2.9
v 2.7 0.5 2.9
v 2.7 0.6 2.9
v 2.7 0.8 2.9
v 2.7 0.9 2.9
v 2.7 1.1 2.9
v 2.7 1.2 2.9
v 2.7 1.4 2.9
v 2.7 1.5 2.9
v 2.7 1.7 2.9
v 2.7 1.8 2.9
v 2.7 2 2.9
v 2.7 2.1 2.9
v 2.7 2.3 2.9
v 2.7 2.4 2.9
v 2.7 2.6 2.9
v 2.7 2.7 2.9
v 2.7 2.9 2.9
v 2.7 3 2.9
v 2.7 3.2 2.9
v 2.7 3.3 2.9
v 2.7 3.5 2.9
v 2.7 3.6 2.9
v 2.7 3.8 2.9
v 2.7 3.9 2.9
v 2.7 4.1 2.9
v 2.7 4.2 2.9
v 2.7 4.4 2.9
v 2.7 4.5 2.9
v -2.7 4.7 2.8
v -2.7 4.8 2.8
v -2 0.1 2.8
v -2 4.7 2.8
v -1.9 0.1 2.8
v -1.9 4.7 2.8
v -1.2 0.1 2.8
v -1.2 4.7 2.8
v -1.1 0.1 2.8
v -1.1 4.7 2.8
v -0.4 0.1 2.8
v -0.4 4.7 2.8
v -0.3 0.1 2.8
v -0.3 4.7 2.8
v 0.4 0.1 2.8
v 0.4 4.7 2.8
v 0.5 0.1 2.8
v 0.5 4.7 2.8
v 1.2 0.1 2.8
v 1.2 4.7 2.8
v 1.3 0.1 2.8
v 1.3 4.7 2.8
v 2 0.1 2.8
v 2 4.7 2.8
v 2.1 0.1 2.8
v 2.1 4.7 2.8
v 2.7 4.7 2.8
v 2.7 4.8 2.8
v -2.9 0 2.7
v -2.9 4.6 2.7
v -2.7 0 2.7
v -2.7 4.6 2.7
v 2.7 0 2.7
v 2.7 4.6 2.7
v 2.9 0 2.7
v 2.9 4.6 2.7
v -2.9 4.6 2.6
v -2.9 4.7 2.6
v -2.9 4.9 2.6
v -2.9 5 2.6
v 2.9 4.6 2.6
v 2.9 4.7 2.6
v 2.9 4.9 2.6
v 2.9 5 2.6
v -2.9 4.7 2.5
v -2.9 4.9 2.5
v 2.9 4.7 2.5
v 2.9 4.9 2.5
v -2.9 0 3.1
v -2.7 0 3.1
v 2.6 0 3.1
v 2.9 0 3.1
v -2.8 0 3
v -2.7 0 3
v 2.6 0 3
v 2.8 0 3
v -2.8 0 2.8
v -2.7 0 2.8
v 2.7 0 2.8
v 2.8 0 2.8
v -2.9 0 2.7
v -2.7 0 2.7
v 2.7 0 2.7
v 2.9 0 2.7
v -2.8 0.1 3
v -2.7 0.1 3
v 2.6 0.1 3
v 2.8 0.1 3
v -2.7 0.1 2.9
v -2 0.1 2.9
v -1.9 0.1 2.9
v -1.2 0.1 2.9
v -1.1 0.1 2.9
v -0.4 0.1 2.9
v -0.3 0.1 2.9
v 0.4 0.1 2.9
v 0.5 0.1 2.9
v 1.2 0.1 2.9
v 1.3 0.1 2.9
v 2 0.1 2.9
v 2.1 0.1 2.9
v 2.7 0.1 2.9
v -2.8 0.1 2.8
v -2.7 0.1 2.8
v -2 0.1 2.8
v -1.9 0.1 2.8
v -1.2 0.1 2.8
v -1.1 0.1 2.8
v -0.4 0.1 2.8
v -0.3 0.1 2.8
v 0.4 0.1 2.8
v 0.5 0.1 2.8
v 1.2 0.1 2.8
v 1.3 0.1 2.8
v 2 0.1 2.8
v 2.1 0.1 2.8
v 2.7 0.1 2.8
v 2.8 0.1 2.8
v -2.8 0.5 3
v -2.7 0.5 3
v 2.6 0.5 3
v 2.8 0.5 3
v -2.8 0.5 2.9
v -2.7 0.5 2.9
v -2 0.5 2.9
v -1.9 0.5 2.9
v -1.2 0.5 2.9
v -1.1 0.5 2.9
v -0.4 0.5 2.9
v -0.3 0.5 2.9
v 0.4 0.5 2.9
v 0.5 0.5 2.9
v 1.2 0.5 2.9
v 1.3 0.5 2.9
v 2 0.5 2.9
v 2.1 0.5 2.9
v 2.7 0.5 2.9
v 2.8 0.5 2.9
v -2.8 0.8 3
v -2.7 0.8 3
v 2.6 0.8 3
v 2.8 0.8 3
v -2.8 0.8 2.9
v -2.7 0.8 2.9
v -2 0.8 2.9
v -1.9 0.8 2.9
v -1.2 0.8 2.9
v -1.1 0.8 2.9
v -0.4 0.8 2.9
v -0.3 0.8 2.9
v 0.4 0.8 2.9
v 0.5 0.8 2.9
v 1.2 0.8 2.9
v 1.3 0.8 2.9
v 2 0.8 2.9
v 2.1 0.8 2.9
v 2.7 0.8 2.9
v 2.8 0.8 2.9
v -2.8 1.1 3
v -2.7 1.1 3
v 2.6 1.1 3
v 2.8 1.1 3
v -2.8 1.1 2.9
v -2.7 1.1 2.9
v -2 1.1 2.9
v -1.9 1.1 2.9
v -1.2 1.1 2.9
v -1.1 1.1 2.9
v -0.4 1.1 2.9
v -0.3 1.1 2.9
v 0.4 1.1 2.9
v 0.5 1.1 2.9
v 1.2 1.1 2.9
v 1.3 1.1 2.9
v 2 1.1 2.9
v 2.1 1.1 2.9
v 2.7 1.1 2.9
v 2.8 1.1 2.9
v -2.8 1.4 3
v -2.7 1.4 3
v 2.6 1.4 3
v 2.8 1.4 3
v -2.8 1.4 2.9
v -2.7 1.4 2.9
v -2 1.4 2.9
v -1.9 1.4 2.9
v -1.2 1.4 2.9
v -1.1 1.4 2.9
v -0.4 1.4 2.9
v -0.3 1.4 2.9
v 0.4 1.4 2.9
v 0.5 1.4 2.9
v 1.2 1.4 2.9
v 1.3 1.4 2.9
v 2 1.4 2.9
v 2.1 1.4 2.9
v 2.7 1.4 2.9
v 2.8 1.4 2.9
v -2.8 1.7 3
v -2.7 1.7 3
v 2.6 1.7 3
v 2.8 1.7 3
v -2.8 1.7 2.9
v -2.7 1.7 2.9
v -2 1.7 2.9
v -1.9 1.7 2.9
v -1.2 1.7 2.9
v -1.1 1.7 2.9
v -0.4 1.7 2.9
v -0.3 1.7 2.9
v 0.4 1.7 2.9
v 0.5 1.7 2.9
v 1.2 1.7 2.9
v 1.3 1.7 2.9
v 2 1.7 2.9
v 2.1 1.7 2.9
v 2.7 1.7 2.9
v 2.8 1.7 2.9
v -2.8 2 3
v -2.7 2 3
v 2.6 2 3
v 2.8 2 3
v -2.8 2 2.9
v -2.7 2 2.9
v -2 2 2.9
v -1.9 2 2.9
v -1.2 2 2.9
v -1.1 2 2.9
v -0.4 2 2.9
v -0.3 2 2.9
v 0.4 2 2.9
v 0.5 2 2.9
v 1.2 2 2.9
v 1.3 2 2.9
v 2 2 2.9
v 2.1 2 2.9
v 2.7 2 2.9
v 2.8 2 2.9
v -2.8 2.3 3
v -2.7 2.3 3
v 2.6 2.3 3
v 2.8 2.3 3
v -2.8 2.3 2.9
v -2.7 2.3 2.9
v -2 2.3 2.9
v -1.9 2.3 2.9
v -1.2 2.3 2.9
v -1.1 2.3 2.9
v -0.4 2.3 2.9
v -0.3 2.3 2.9
v 0.4 2.3 2.9
v 0.5 2.3 2.9
v 1.2 2.3 2.9
v 1.3 2.3 2.9
v 2 2.3 2.9
v 2.1 2.3 2.9
v 2.7 2.3 2.9
v 2.8 2.3 2.9
v -2.8 2.6 3
v -2.7 2.6 3
v 2.6 2.6 3
v 2.8 2.6 3
v -2.8 2.6 2.9
v -2.7 2.6 2.9
v -2 2.6 2.9
v -1.9 2.6 2.9
v -1.2 2.6 2.9
v -1.1 2.6 2.9
v -0.4 2.6 2.9
v -0.3 2.6 2.9
v 0.4 2.6 2.9
v 0.5 2.6 2.9
v 1.2 2.6 2.9
v 1.3 2.6 2.9
v 2 2.6 2.9
v 2.1 2.6 2.9
v 2.7 2.6 2.9
v 2.8 2.6 2.9
v -2.8 2.9 3
v -2.7 2.9 3
v 2.6 2.9 3
v 2.8 2.9 3
v -2.8 2.9 2.9
v -2.7 2.9 2.9
v -2 2.9 2.9
v -1.9 2.9 2.9
v -1.2 2.9 2.9
v -1.1 2.9 2.9
v -0.4 2.9 2.9
v -0.3 2.9 2.9
v 0.4 2.9 2.9
v 0.5 2.9 2.9
v 1.2 2.9 2.9
v 1.3 2.9 2.9
v 2 2.9 2.9
v 2.1 2.9 2.9
v 2.7 2.9 2.9
v 2.8 2.9 2.9
v -2.8 3.2 3
v -2.7 3.2 3
v 2.6 3.2 3
v 2.8 3.2 3
v -2.8 3.2 2.9
v -2.7 3.2 2.9
v -2 3.2 2.9
v -1.9 3.2 2.9
v -1.2 3.2 2.9
v -1.1 3.2 2.9
v -0.4 3.2 2.9
v -0.3 3.2 2.9
v 0.4 3.2 2.9
v 0.5 3.2 2.9
v 1.2 3.2 2.9
v 1.3 3.2 2.9
v 2 3.2 2.9
v 2.1 3.2 2.9
v 2.7 3.2 2.9
v 2.8 3.2 2.9
v -2.8 3.5 3
v -2.7 3.5 3
v 2.6 3.5 3
v 2.8 3.5 3
v -2.8 3.5 2.9
v -2.7 3.5 2.9
v -2 3.5 2.9
v -1.9 3.5 2.9
v -1.2 3.5 2.9
v -1.1 3.5 2.9
v -0.4 3.5 2.9
v -0.3 3.5 2.9
v 0.4 3.5 2.9
v 0.5 3.5 2.9
v 1.2 3.5 2.9
v 1.3 3.5 2.9
v 2 3.5 2.9
v 2.1 3.5 2.9
v 2.7 3.5 2.9
v 2.8 3.5 2.9
v -2.8 3.8 3
v -2.7 3.8 3
v 2.6 3.8 3
v 2.8 3.8 3
v -2.8 3.8 2.9
v -2.7 3.8 2.9
v -2 3.8 2.9
v -1.9 3.8 2.9
v -1.2 3.8 2.9
v -1.1 3.8 2.9
v -0.4 3.8 2.9
v -0.3 3.8 2.9
v 0.4 3.8 2.9
v 0.5 3.8 2.9
v 1.2 3.8 2.9
v 1.3 3.8 2.9
v 2 3.8 2.9
v 2.1 3.8 2.9
v 2.7 3.8 2.9
v 2.8 3.8 2.9
v -2.8 4.1 3
v -2.7 4.1 3
v 2.6 4.1 3
v 2.8 4.1 3
v -2.8 4.1 2.9
v -2.7 4.1 2.9
v -2 4.1 2.9
v -1.9 4.1 2.9
v -1.2 4.1 2.9
v -1.1 4.1 2.9
v -0.4 4.1 2.9
v -0.3 4.1 2.9
v 0.4 4.1 2.9
v 0.5 4.1 2.9
v 1.2 4.1 2.9
v 1.3 4.1 2.9
v 2 4.1 2.9
v 2.1 4.1 2.9
v 2.7 4.1 2.9
v 2.8 4.1 2.9
v -2.8 4.4 3
v -2.7 4.4 3
v 2.6 4.4 3
v 2.8 4.4 3
v -2.8 4.4 2.9
v -2.7 4.4 2.9
v -2 4.4 2.9
v -1.9 4.4 2.9
v -1.2 4.4 2.9
v -1.1 4.4 2.9
v -0.4 4.4 2.9
v -0.3 4.4 2.9
v 0.4 4.4 2.9
v 0.5 4.4 2.9
v 1.2 4.4 2.9
v 1.3 4.4 2.9
v 2 4.4 2.9
v 2.1 4.4 2.9
v 2.7 4.4 2.9
v 2.8 4.4 2.9
v -2.9 4.6 2.7
v -2.7 4.6 2.7
v 2.7 4.6 2.7
v 2.9 4.6 2.7
v -2.9 4.6 2.6
v 2.9 4.6 2.6
v -2.8 4.7 3
v -2.7 4.7 3
v 2.6 4.7 3
v 2.8 4.7 3
v -2.8 4.7 2.9
v -2.7 4.7 2.9
v -2 4.7 2.9
v -1.9 4.7 2.9
v -1.2 4.7 2.9
v -1.1 4.7 2.9
v -0.4 4.7 2.9
v -0.3 4.7 2.9
v 0.4 4.7 2.9
v 0.5 4.7 2.9
v 1.2 4.7 2.9
v 1.3 4.7 2.9
v 2 4.7 2.9
v 2.1 4.7 2.9
v 2.7 4.7 2.9
v 2.8 4.7 2.9
v -2.7 4.7 2.8
v -2 4.7 2.8
v -1.9 4.7 2.8
v -1.2 4.7 2.8
v -1.1 4.7 2.8
v -0.4 4.7 2.8
v -0.3 4.7 2.8
v 0.4 4.7 2.8
v 0.5 4.7 2.8
v 1.2 4.7 2.8
v 1.3 4.7 2.8
v 2 4.7 2.8
v 2.1 4.7 2.8
v 2.7 4.7 2.8
v -2.9 4.7 2.6
v 2.9 4.7 2.6
v -2.9 4.7 2.5
v 2.9 4.7 2.5
v -2.7 4.8 3.1
v 2.6 4.8 3.1
v -2.7 4.8 3
v 2.6 4.8 3
v -2.7 4.8 2.8
v 2.7 4.8 2.8
v -2.7 4.8 2.7
v 2.7 4.8 2.7
v -2.8 0.3 3
v -2.7 0.3 3
v 2.6 0.3 3
v 2.8 0.3 3
v -2.8 0.3 2.9
v -2.7 0.3 2.9
v -2 0.3 2.9
v -1.9 0.3 2.9
v -1.2 0.3 2.9
v -1.1 0.3 2.9
v -0.4 0.3 2.9
v -0.3 0.3 2.9
v 0.4 0.3 2.9
v 0.5 0.3 2.9
v 1.2 0.3 2.9
v 1.3 0.3 2.9
v 2 0.3 2.9
v 2.1 0.3 2.9
v 2.7 0.3 2.9
v 2.8 0.3 2.9
v -2.8 0.6 3
v -2.7 0.6 3
v 2.6 0.6 3
v 2.8 0.6 3
v -2.8 0.6 2.9
v -2.7 0.6 2.9
v -2 0.6 2.9
v -1.9 0.6 2.9
v -1.2 0.6 2.9
v -1.1 0.6 2.9
v -0.4 0.6 2.9
v -0.3 0.6 2.9
v 0.4 0.6 2.9
v 0.5 0.6 2.9
v 1.2 0.6 2.9
v 1.3 0.6 2.9
v 2 0.6 2.9
v 2.1 0.6 2.9
v 2.7 0.6 2.9
v 2.8 0.6 2.9
v -2.8 0.9 3
v -2.7 0.9 3
v 2.6 0.9 3
v 2.8 0.9 3
v -2.8 0.9 2.9
v -2.7 0.9 2.9
v -2 0.9 2.9
v -1.9 0.9 2.9
v -1.2 0.9 2.9
v -1.1 0.9 2.9
v -0.4 0.9 2.9
v -0.3 0.9 2.9
v 0.4 0.9 2.9
v 0.5 0.9 2.9
v 1.2 0.9 2.9
v 1.3 0.9 2.9
v 2 0.9 2.9
v 2.1 0.9 2.9
v 2.7 0.9 2.9
v 2.8 0.9 2.9
v -2.8 1.2 3
v -2.7 1.2 3
v 2.6 1.2 3
v 2.8 1.2 3
v -2.8 1.2 2.9
v -2.7 1.2 2.9
v -2 1.2 2.9
v -1.9 1.2 2.9
v -1.2 1.2 2.9
v -1.1 1.2 2.9
v -0.4 1.2 2.9
v -0.3 1.2 2.9
v 0.4 1.2 2.9
v 0.5 1.2 2.9
v 1.2 1.2 2.9
v 1.3 1.2 2.9
v 2 1.2 2.9
v 2.1 1.2 2.9
v 2.7 1.2 2.9
v 2.8 1.2 2.9
v -2.8 1.5 3
v -2.7 1.5 3
v 2.6 1.5 3
v 2.8 1.5 3
v -2.8 1.5 2.9
v -2.7 1.5 2.9
v -2 1.5 2.9
v -1.9 1.5 2.9
v -1.2 1.5 2.9
v -1.1 1.5 2.9
v -0.4 1.5 2.9
v -0.3 1.5 2.9
v 0.4 1.5 2.9
v 0.5 1.5 2.9
v 1.2 1.5 2.9
v 1.3 1.5 2.9
v 2 1.5 2.9
v 2.1 1.5 2.9
v 2.7 1.5 2.9
v 2.8 1.5 2.9
v -2.8 1.8 3
v -2.7 1.8 3
v 2.6 1.8 3
v 2.8 1.8 3
v -2.8 1.8 2.9
v -2.7 1.8 2.9
v -2 1.8 2.9
v -1.9 1.8 2.9
v -1.2 1.8 2.9
v -1.1 1.8 2.9
v -0.4 1.8 2.9
v -0.3 1.8 2.9
v 0.4 1.8 2.9
v 0.5 1.8 2.9
v 1.2 1.8 2.9
v 1.3 1.8 2.9
v 2 1.8 2.9
v 2.1 1.8 2.9
v 2.7 1.8 2.9
v 2.8 1.8 2.9
v -2.8 2.1 3
v -2.7 2.1 3
v 2.6 2.1 3
v 2.8 2.1 3
v -2.8 2.1 2.9
v -2.7 2.1 2.9
v -2 2.1 2.9
v -1.9 2.1 2.9
v -1.2 2.1 2.9
v -1.1 2.1 2.9
v -0.4 2.1 2.9
v -0.3 2.1 2.9
v 0.4 2.1 2.9
v 0.5 2.1 2.9
v 1.2 2.1 2.9
v 1.3 2.1 2.9
v 2 2.1 2.9
v 2.1 2.1 2.9
v 2.7 2.1 2.9
v 2.8 2.1 2.9
v -2.8 2.4 3
v -2.7 2.4 3
v 2.6 2.4 3
v 2.8 2.4 3
v -2.8 2.4 2.9
v -2.7 2.4 2.9
v -2 2.4 2.9
v -1.9 2.4 2.9
v -1.2 2.4 2.9
v -1.1 2.4 2.9
v -0.4 2.4 2.9
v -0.3 2.4 2.9
v 0.4 2.4 2.9
v 0.5 2.4 2.9
v 1.2 2.4 2.9
v 1.3 2.4 2.9
v 2 2.4 2.9
v 2.1 2.4 2.9
v 2.7 2.4 2.9
v 2.8 2.4 2.9
v -2.8 2.7 3
v -2.7 2.7 3
v 2.6 2.7 3
v 2.8 2.7 3
v -2.8 2.7 2.9
v -2.7 2.7 2.9
v -2 2.7 2.9
v -1.9 2.7 2.9
v -1.2 2.7 2.9
v -1.1 2.7 2.9
v -0.4 2.7 2.9
v -0.3 2.7 2.9
v 0.4 2.7 2.9
v 0.5 2.7 2.9
v 1.2 2.7 2.9
v 1.3 2.7 2.9
v 2 2.7 2.9
v 2.1 2.7 2.9
v 2.7 2.7 2.9
v 2.8 2.7 2.9
v -2.8 3 3
v -2.7 3 3
v 2.6 3 3
v 2.8 3 3
v -2.8 3 2.9
v -2.7 3 2.9
v -2 3 2.9
v -1.9 3 2.9
v -1.2 3 2.9
v -1.1 3 2.9
v -0.4 3 2.9
v -0.3 3 2.9
v 0.4 3 2.9
v 0.5 3 2.9
v 1.2 3 2.9
v 1.3 3 2.9
v 2 3 2.9
v 2.1 3 2.9
v 2.7 3 2.9
v 2.8 3 2.9
v -2.8 3.3 3
v -2.7 3.3 3
v 2.6 3.3 3
v 2.8 3.3 3
v -2.8 3.3 2.9
v -2.7 3.3 2.9
v -2 3.3 2.9
v -1.9 3.3 2.9
v -1.2 3.3 2.9
v -1.1 3.3 2.9
v -0.4 3.3 2.9
v -0.3 3.3 2.9
v 0.4 3.3 2.9
v 0.5 3.3 2.9
v 1.2 3.3 2.9
v 1.3 3.3 2.9
v 2 3.3 2.9
v 2.1 3.3 2.9
v 2.7 3.3 2.9
v 2.8 3.3 2.9
v -2.8 3.6 3
v -2.7 3.6 3
v 2.6 3.6 3
v 2.8 3.6 3
v -2.8 3.6 2.9
v -2.7 3.6 2.9
v -2 3.6 2.9
v -1.9 3.6 2.9
v -1.2 3.6 2.9
v -1.1 3.6 2.9
v -0.4 3.6 2.9
v -0.3 3.6 2.9
v 0.4 3.6 2.9
v 0.5 3.6 2.9
v 1.2 3.6 2.9
v 1.3 3.6 2.9
v 2 3.6 2.9
v 2.1 3.6 2.9
v 2.7 3.6 2.9
v 2.8 3.6 2.9
v -2.8 3.9 3
v -2.7 3.9 3
v 2.6 3.9 3
v 2.8 3.9 3
v -2.8 3.9 2.9
v -2.7 3.9 2.9
v -2 3.9 2.9
v -1.9 3.9 2.9
v -1.2 3.9 2.9
v -1.1 3.9 2.9
v -0.4 3.9 2.9
v -0.3 3.9 2.9
v 0.4 3.9 2.9
v 0.5 3.9 2.9
v 1.2 3.9 2.9
v 1.3 3.9 2.9
v 2 3.9 2.9
v 2.1 3.9 2.9
v 2.7 3.9 2.9
v 2.8 3.9 2.9
v -2.8 4.2 3
v -2.7 4.2 3
v 2.6 4.2 3
v 2.8 4.2 3
v -2.8 4.2 2.9
v -2.7 4.2 2.9
v -2 4.2 2.9
v -1.9 4.2 2.9
v -1.2 4.2 2.9
v -1.1 4.2 2.9
v -0.4 4.2 2.9
v -0.3 4.2 2.9
v 0.4 4.2 2.9
v 0.5 4.2 2.9
v 1.2 4.2 2.9
v 1.3 4.2 2.9
v 2 4.2 2.9
v 2.1 4.2 2.9
v 2.7 4.2 2.9
v 2.8 4.2 2.9
v -2.8 4.5 3
v -2.7 4.5 3
v 2.6 4.5 3
v 2.8 4.5 3
v -2.8 4.5 2.9
v -2.7 4.5 2.9
v -2 4.5 2.9
v -1.9 4.5 2.9
v -1.2 4.5 2.9
v -1.1 4.5 2.9
v -0.4 4.5 2.9
v -0.3 4.5 2.9
v 0.4 4.5 2.9
v 0.5 4.5 2.9
v 1.2 4.5 2.9
v 1.3 4.5 2.9
v 2 4.5 2.9
v 2.1 4.5 2.9
v 2.7 4.5 2.9
v 2.8 4.5 2.9
v -2.9 4.9 2.6
v 2.9 4.9 2.6
v -2.9 4.9 2.5
v 2.9 4.9 2.5
v -2.9 5 3.1
v 2.9 5 3.1
v -2.9 5 2.6
v 2.9 5 2.6

# faces
f 3/2/1 2/2/1 1/2/1
f 5/2/1 4/2/1 3/2/1
f 7/2/1 5/2/1 3/2/1
f 7/2/1 6/2/1 5/2/1
f 8/2/1 6/2/1 7/2/1
f 9/2/1 3/2/1 1/2/1
f 9/2/1 7/2/1 3/2/1
f 10/2/1 7/2/1 9/2/1
f 13/1/1 12/1/1 11/1/1
f 14/1/1 12/1/1 13/1/1
f 15/1/1 12/1/1 14/1/1
f 16/1/1 12/1/1 15/1/1
f 17/1/1 12/1/1 16/1/1
f 18/1/1 12/1/1 17/1/1
f 19/1/1 12/1/1 18/1/1
f 20/1/1 12/1/1 19/1/1
f 21/1/1 12/1/1 20/1/1
f 22/1/1 12/1/1 21/1/1
f 23/1/1 12/1/1 22/1/1
f 24/1/1 12/1/1 23/1/1
f 25/1/1 12/1/1 24/1/1
f 26/1/1 12/1/1 25/1/1
f 27/1/1 12/1/1 26/1/1
f 28/1/1 12/1/1 27/1/1
f 29/1/1 12/1/1 28/1/1
f 30/1/1 12/1/1 29/1/1
f 31/1/1 12/1/1 30/1/1
f 32/1/1 12/1/1 31/1/1
f 33/1/1 12/1/1 32/1/1
f 34/1/1 12/1/1 33/1/1
f 35/1/1 12/1/1 34/1/1
f 36/1/1 12/1/1 35/1/1
f 37/1/1 12/1/1 36/1/1
f 38/1/1 12/1/1 37/1/1
f 39/1/1 12/1/1 38/1/1
f 40/1/1 12/1/1 39/1/1
f 41/1/1 12/1/1 40/1/1
f 42/1/1 12/1/1 41/1/1
f 43/1/1 12/1/1 42/1/1
f 46/1/1 45/1/1 44/1/1
f 47/1/1 45/1/1 46/1/1
f 48/1/1 45/1/1 47/1/1
f 49/1/1 45/1/1 48/1/1
f 50/1/1 45/1/1 49/1/1
f 51/1/1 45/1/1 50/1/1
f 52/1/1 45/1/1 51/1/1
f 53/1/1 45/1/1 52/1/1
f 54/1/1 45/1/1 53/1/1
f 55/1/1 45/1/1 54/1/1
f 56/1/1 45/1/1 55/1/1
f 57/1/1 45/1/1 56/1/1
f 58/1/1 45/1/1 57/1/1
f 59/1/1 45/1/1 58/1/1
f 60/1/1 45/1/1 59/1/1
f 61/1/1 45/1/1 60/1/1
f 62/1/1 45/1/1 61/1/1
f 63/1/1 45/1/1 62/1/1
f 64/1/1 45/1/1 63/1/1
f 65/1/1 45/1/1 64/1/1
f 66/1/1 45/1/1 65/1/1
f 67/1/1 45/1/1 66/1/1
f 68/1/1 45/1/1 67/1/1
f 69/1/1 45/1/1 68/1/1
f 70/1/1 45/1/1 69/1/1
f 71/1/1 45/1/1 70/1/1
f 72/1/1 45/1/1 71/1/1
f 73/1/1 45/1/1 72/1/1
f 74/1/1 45/1/1 73/1/1
f 75/1/1 45/1/1 74/1/1
f 76/1/1 45/1/1 75/1/1
f 79/1/1 78/1/1 77/1/1
f 80/1/1 78/1/1 79/1/1
f 81/1/1 78/1/1 80/1/1
f 82/1/1 78/1/1 81/1/1
f 83/1/1 78/1/1 82/1/1
f 84/1/1 78/1/1 83/1/1
f 85/1/1 78/1/1 84/1/1
f 86/1/1 78/1/1 85/1/1
f 87/1/1 78/1/1 86/1/1
f 88/1/1 78/1/1 87/1/1
f 89/1/1 78/1/1 88/1/1
f 90/1/1 78/1/1 89/1/1
f 91/1/1 78/1/1 90/1/1
f 92/1/1 78/1/1 91/1/1
f 93/1/1 78/1/1 92/1/1
f 94/1/1 78/1/1 93/1/1
f 95/1/1 78/1/1 94/1/1
f 96/1/1 78/1/1 95/1/1
f 97/1/1 78/1/1 96/1/1
f 98/1/1 78/1/1 97/1/1
f 99/1/1 78/1/1 98/1/1
f 100/1/1 78/1/1 99/1/1
f 101/1/1 78/1/1 100/1/1
f 102/1/1 78/1/1 101/1/1
f 103/1/1 78/1/1 102/1/1
f 104/1/1 78/1/1 103/1/1
f 105/1/1 78/1/1 104/1/1
f 106/1/1 78/1/1 105/1/1
f 107/1/1 78/1/1 106/1/1
f 108/1/1 78/1/1 107/1/1
f 109/1/1 78/1/1 108/1/1
f 112/1/1 111/1/1 110/1/1
f 113/1/1 111/1/1 112/1/1
f 114/1/1 111/1/1 113/1/1
f 115/1/1 111/1/1 114/1/1
f 116/1/1 111/1/1 115/1/1
f 117/1/1 111/1/1 116/1/1
f 118/1/1 111/1/1 117/1/1
f 119/1/1 111/1/1 118/1/1
f 120/1/1 111/1/1 119/1/1
f 121/1/1 111/1/1 120/1/1
f 122/1/1 111/1/1 121/1/1
f 123/1/1 111/1/1 122/1/1
f 124/1/1 111/1/1 123/1/1
f 125/1/1 111/1/1 124/1/1
f 126/1/1 111/1/1 125/1/1
f 127/1/1 111/1/1 126/1/1
f 128/1/1 111/1/1 127/1/1
f 129/1/1 111/1/1 128/1/1
f 130/1/1 111/1/1 129/1/1
f 131/1/1 111/1/1 130/1/1
f 132/1/1 111/1/1 131/1/1
f 133/1/1 111/1/1 132/1/1
f 134/1/1 111/1/1 133/1/1
f 135/1/1 111/1/1 134/1/1
f 136/1/1 111/1/1 135/1/1
f 137/1/1 111/1/1 136/1/1
f 138/1/1 111/1/1 137/1/1
f 139/1/1 111/1/1 138/1/1
f 140/1/1 111/1/1 139/1/1
f 141/1/1 111/1/1 140/1/1
f 142/1/1 111/1/1 141/1/1
f 145/1/1 144/1/1 143/1/1
f 146/1/1 144/1/1 145/1/1
f 147/1/1 144/1/1 146/1/1
f 148/1/1 144/1/1 147/1/1
f 149/1/1 144/1/1 148/1/1
f 150/1/1 144/1/1 149/1/1
f 151/1/1 144/1/1 150/1/1
f 152/1/1 144/1/1 151/1/1
f 153/1/1 144/1/1 152/1/1
f 154/1/1 144/1/1 153/1/1
f 155/1/1 144/1/1 154/1/1
f 156/1/1 144/1/1 155/1/1
f 157/1/1 144/1/1 156/1/1
f 158/1/1 144/1/1 157/1/1
f 159/1/1 144/1/1 158/1/1
f 160/1/1 144/1/1 159/1/1
f 161/1/1 144/1/1 160/1/1
f 162/1/1 144/1/1 161/1/1
f 163/1/1 144/1/1 162/1/1
f 164/1/1 144/1/1 163/1/1
f 165/1/1 144/1/1 164/1/1
f 166/1/1 144/1/1 165/1/1
f 167/1/1 144/1/1 166/1/1
f 168/1/1 144/1/1 167/1/1
f 169/1/1 144/1/1 168/1/1
f 170/1/1 144/1/1 169/1/1
f 171/1/1 144/1/1 170/1/1
f 172/1/1 144/1/1 171/1/1
f 173/1/1 144/1/1 172/1/1
f 174/1/1 144/1/1 173/1/1
f 175/1/1 144/1/1 174/1/1
f 178/1/1 177/1/1 176/1/1
f 179/1/1 177/1/1 178/1/1
f 180/1/1 177/1/1 179/1/1
f 181/1/1 177/1/1 180/1/1
f 182/1/1 177/1/1 181/1/1
f 183/1/1 177/1/1 182/1/1
f 184/1/1 177/1/1 183/1/1
f 185/1/1 177/1/1 184/1/1
f 186/1/1 177/1/1 185/1/1
f 187/1/1 177/1/1 186/1/1
f 188/1/1 177/1/1 187/1/1
f 189/1/1 177/1/1 188/1/1
f 190/1/1 177/1/1 189/1/1
f 191/1/1 177/1/1 190/1/1
f 192/1/1 177/1/1 191/1/1
f 193/1/1 177/1/1 192/1/1
f 194/1/1 177/1/1 193/1/1
f 195/1/1 177/1/1 194/1/1
f 196/1/1 177/1/1 195/1/1
f 197/1/1 177/1/1 196/1/1
f 198/1/1 177/1/1 197/1/1
f 199/1/1 177/1/1 198/1/1
f 200/1/1 177/1/1 199/1/1
f 201/1/1 177/1/1 200/1/1
f 202/1/1 177/1/1 201/1/1
f 203/1/1 177/1/1 202/1/1
f 204/1/1 177/1/1 203/1/1
f 205/1/1 177/1/1 204/1/1
f 206/1/1 177/1/1 205/1/1
f 207/1/1 177/1/1 206/1/1
f 208/1/1 177/1/1 207/1/1
f 211/2/1 210/2/1 209/2/1
f 212/2/1 211/2/1 209/2/1
f 213/2/1 212/2/1 209/2/1
f 214/2/1 213/2/1 209/2/1
f 215/2/1 214/2/1 209/2/1
f 216/2/1 215/2/1 209/2/1
f 217/2/1 216/2/1 209/2/1
f 218/2/1 217/2/1 209/2/1
f 219/2/1 218/2/1 209/2/1
f 220/2/1 219/2/1 209/2/1
f 221/2/1 220/2/1 209/2/1
f 222/2/1 221/2/1 209/2/1
f 223/2/1 222/2/1 209/2/1
f 224/2/1 223/2/1 209/2/1
f 225/2/1 224/2/1 209/2/1
f 226/2/1 225/2/1 209/2/1
f 227/2/1 226/2/1 209/2/1
f 228/2/1 227/2/1 209/2/1
f 229/2/1 228/2/1 209/2/1
f 230/2/1 229/2/1 209/2/1
f 231/2/1 230/2/1 209/2/1
f 232/2/1 231/2/1 209/2/1
f 233/2/1 232/2/1 209/2/1
f 234/2/1 233/2/1 209/2/1
f 235/2/1 234/2/1 209/2/1
f 236/2/1 235/2/1 209/2/1
f 237/2/1 236/2/1 209/2/1
f 238/2/1 237/2/1 209/2/1
f 239/2/1 238/2/1 209/2/1
f 240/2/1 239/2/1 209/2/1
f 241/2/1 240/2/1 209/2/1
f 242/2/1 241/2/1 209/2/1
f 243/2/1 241/2/1 242/2/1
f 247/2/1 245/2/1 244/2/1
f 248/1/1 247/1/1 246/1/1
f 249/1/1 247/1/1 248/1/1
f 250/1/1 247/1/1 249/1/1
f 251/1/1 247/1/1 250/1/1
f 252/1/1 247/1/1 251/1/1
f 253/1/1 247/1/1 252/1/1
f 254/1/1 247/1/1 253/1/1
f 255/1/1 247/1/1 254/1/1
f 256/1/1 247/1/1 255/1/1
f 257/1/1 247/1/1 256/1/1
f 258/1/1 247/1/1 257/1/1
f 259/1/1 247/1/1 258/1/1
f 260/1/1 247/1/1 259/1/1
f 261/1/1 247/1/1 260/1/1
f 262/1/1 247/1/1 261/1/1
f 263/1/1 247/1/1 262/1/1
f 264/1/1 247/1/1 263/1/1
f 265/1/1 247/1/1 264/1/1
f 266/1/1 247/1/1 265/1/1
f 267/1/1 247/1/1 266/1/1
f 268/1/1 247/1/1 267/1/1
f 269/1/1 247/1/1 268/1/1
f 270/1/1 247/1/1 269/1/1
f 271/1/1 247/1/1 270/1/1
f 272/1/1 247/1/1 271/1/1
f 273/1/1 247/1/1 272/1/1
f 274/1/1 247/1/1 273/1/1
f 275/1/1 247/1/1 274/1/1
f 276/1/1 247/1/1 275/1/1
f 277/2/1 245/2/1 247/2/1
f 278/1/1 247/1/1 276/1/1
f 279/2/1 277/2/1 247/2/1
f 279/1/1 247/1/1 278/1/1
f 280/2/1 277/2/1 279/2/1
f 281/2/1 277/2/1 280/2/1
f 284/2/1 283/2/1 282/2/1
f 285/2/1 283/2/1 284/2/1
f 288/2/1 287/2/1 286/2/1
f 289/2/1 287/2/1 288/2/1
f 292/2/1 291/2/1 290/2/1
f 293/2/1 291/2/1 292/2/1
f 296/2/1 295/2/1 294/2/1
f 297/2/1 295/2/1 296/2/1
f 300/2/1 299/2/1 298/2/1
f 301/2/1 299/2/1 300/2/1
f 304/2/1 303/2/1 302/2/1
f 305/2/1 303/2/1 304/2/1
f 308/2/1 307/2/1 306/2/1
f 309/2/1 307/2/1 308/2/1
f 312/2/1 311/2/1 310/2/1
f 313/2/1 311/2/1 312/2/1
f 316/2/1 315/2/1 314/2/1
f 317/2/1 315/2/1 316/2/1
f 320/2/1 319/2/1 318/2/1
f 321/2/1 319/2/1 320/2/1
f 324/2/1 323/2/1 322/2/1
f 325/2/1 323/2/1 324/2/1
f 328/2/1 327/2/1 326/2/1
f 329/2/1 327/2/1 328/2/1
f 332/2/1 331/2/1 330/2/1
f 333/2/1 331/2/1 332/2/1
f 336/2/1 335/2/1 334/2/1
f 337/2/1 335/2/1 336/2/1
f 340/2/1 339/2/1 338/2/1
f 341/2/1 339/2/1 340/2/1
f 344/2/1 343/2/1 342/2/1
f 345/2/1 343/2/1 344/2/1
f 346/2/2 347/2/2 348/2/2
f 348/2/2 347/2/2 349/2/2
f 350/2/2 351/2/2 352/2/2
f 352/2/2 351/2/2 353/2/2
f 354/2/2 355/2/2 356/2/2
f 356/2/2 355/2/2 357/2/2
f 358/2/2 359/2/2 360/2/2
f 360/2/2 359/2/2 361/2/2
f 362/2/2 363/2/2 364/2/2
f 364/2/2 363/2/2 365/2/2
f 366/2/2 367/2/2 368/2/2
f 368/2/2 367/2/2 369/2/2
f 370/2/2 371/2/2 372/2/2
f 372/2/2 371/2/2 373/2/2
f 374/2/2 375/2/2 376/2/2
f 376/2/2 375/2/2 377/2/2
f 378/2/2 379/2/2 380/2/2
f 380/2/2 379/2/2 381/2/2
f 382/2/2 383/2/2 384/2/2
f 384/2/2 383/2/2 385/2/2
f 386/2/2 387/2/2 388/2/2
f 388/2/2 387/2/2 389/2/2
f 390/2/2 391/2/2 392/2/2
f 392/2/2 391/2/2 393/2/2
f 394/2/2 395/2/2 396/2/2
f 396/2/2 395/2/2 397/2/2
f 398/2/2 399/2/2 400/2/2
f 400/2/2 399/2/2 401/2/2
f 402/2/2 403/2/2 404/2/2
f 404/2/2 403/2/2 405/2/2
f 406/2/2 407/2/2 408/2/2
f 408/2/2 407/2/2 409/2/2
f 410/2/2 411/2/2 414/2/2
f 412/2/2 413/2/2 416/2/2
f 410/2/2 414/2/2 417/2/2
f 415/1/2 416/1/2 418/1/2
f 410/2/2 417/2/2 419/2/2
f 418/1/2 416/1/2 420/1/2
f 410/2/2 419/2/2 421/2/2
f 420/1/2 416/1/2 422/1/2
f 410/2/2 421/2/2 423/2/2
f 422/1/2 416/1/2 424/1/2
f 410/2/2 423/2/2 425/2/2
f 424/1/2 416/1/2 426/1/2
f 410/2/2 425/2/2 427/2/2
f 426/1/2 416/1/2 428/1/2
f 410/2/2 427/2/2 429/2/2
f 428/1/2 416/1/2 430/1/2
f 410/2/2 429/2/2 431/2/2
f 430/1/2 416/1/2 432/1/2
f 410/2/2 431/2/2 433/2/2
f 432/1/2 416/1/2 434/1/2
f 410/2/2 433/2/2 435/2/2
f 434/1/2 416/1/2 436/1/2
f 410/2/2 435/2/2 437/2/2
f 436/1/2 416/1/2 438/1/2
f 410/2/2 437/2/2 439/2/2
f 438/1/2 416/1/2 440/1/2
f 410/2/2 439/2/2 441/2/2
f 440/1/2 416/1/2 442/1/2
f 410/2/2 441/2/2 443/2/2
f 442/1/2 416/1/2 444/1/2
f 410/2/2 443/2/2 445/2/2
f 444/1/2 416/1/2 446/1/2
f 410/2/2 445/2/2 447/2/2
f 446/1/2 416/1/2 448/1/2
f 410/2/2 447/2/2 449/2/2
f 448/1/2 416/1/2 450/1/2
f 410/2/2 449/2/2 451/2/2
f 450/1/2 416/1/2 452/1/2
f 410/2/2 451/2/2 453/2/2
f 452/1/2 416/1/2 454/1/2
f 410/2/2 453/2/2 455/2/2
f 454/1/2 416/1/2 456/1/2
f 410/2/2 455/2/2 457/2/2
f 456/1/2 416/1/2 458/1/2
f 410/2/2 457/2/2 459/2/2
f 458/1/2 416/1/2 460/1/2
f 410/2/2 459/2/2 461/2/2
f 460/1/2 416/1/2 462/1/2
f 410/2/2 461/2/2 463/2/2
f 462/1/2 416/1/2 464/1/2
f 410/2/2 463/2/2 465/2/2
f 464/1/2 416/1/2 466/1/2
f 410/2/2 465/2/2 467/2/2
f 466/1/2 416/1/2 468/1/2
f 410/2/2 467/2/2 469/2/2
f 468/1/2 416/1/2 470/1/2
f 410/2/2 469/2/2 471/2/2
f 470/1/2 416/1/2 472/1/2
f 410/2/2 471/2/2 473/2/2
f 472/1/2 416/1/2 474/1/2
f 416/2/2 413/2/2 475/2/2
f 410/2/2 473/2/2 476/2/2
f 474/1/2 416/1/2 477/1/2
f 416/2/2 475/2/2 478/2/2
f 477/1/2 416/1/2 478/1/2
f 410/2/2 476/2/2 479/2/2
f 479/2/2 476/2/2 480/2/2
f 478/2/2 475/2/2 481/2/2
f 481/2/2 475/2/2 482/2/2
f 483/1/2 484/1/2 485/1/2
f 485/1/2 484/1/2 486/1/2
f 486/1/2 484/1/2 487/1/2
f 487/1/2 484/1/2 488/1/2
f 488/1/2 484/1/2 489/1/2
f 489/1/2 484/1/2 490/1/2
f 490/1/2 484/1/2 491/1/2
f 491/1/2 484/1/2 492/1/2
f 492/1/2 484/1/2 493/1/2
f 493/1/2 484/1/2 494/1/2
f 494/1/2 484/1/2 495/1/2
f 495/1/2 484/1/2 496/1/2
f 496/1/2 484/1/2 497/1/2
f 497/1/2 484/1/2 498/1/2
f 498/1/2 484/1/2 499/1/2
f 499/1/2 484/1/2 500/1/2
f 500/1/2 484/1/2 501/1/2
f 501/1/2 484/1/2 502/1/2
f 502/1/2 484/1/2 503/1/2
f 503/1/2 484/1/2 504/1/2
f 504/1/2 484/1/2 505/1/2
f 505/1/2 484/1/2 506/1/2
f 506/1/2 484/1/2 507/1/2
f 507/1/2 484/1/2 508/1/2
f 508/1/2 484/1/2 509/1/2
f 509/1/2 484/1/2 510/1/2
f 510/1/2 484/1/2 511/1/2
f 511/1/2 484/1/2 512/1/2
f 512/1/2 484/1/2 513/1/2
f 513/1/2 484/1/2 514/1/2
f 514/1/2 484/1/2 515/1/2
f 516/1/2 517/1/2 518/1/2
f 518/1/2 517/1/2 519/1/2
f 519/1/2 517/1/2 520/1/2
f 520/1/2 517/1/2 521/1/2
f 521/1/2 517/1/2 522/1/2
f 522/1/2 517/1/2 523/1/2
f 523/1/2 517/1/2 524/1/2
f 524/1/2 517/1/2 525/1/2
f 525/1/2 517/1/2 526/1/2
f 526/1/2 517/1/2 527/1/2
f 527/1/2 517/1/2 528/1/2
f 528/1/2 517/1/2 529/1/2
f 529/1/2 517/1/2 530/1/2
f 530/1/2 517/1/2 531/1/2
f 531/1/2 517/1/2 532/1/2
f 532/1/2 517/1/2 533/1/2
f 533/1/2 517/1/2 534/1/2
f 534/1/2 517/1/2 535/1/2
f 535/1/2 517/1/2 536/1/2
f 536/1/2 517/1/2 537/1/2
f 537/1/2 517/1/2 538/1/2
f 538/1/2 517/1/2 539/1/2
f 539/1/2 517/1/2 540/1/2
f 540/1/2 517/1/2 541/1/2
f 541/1/2 517/1/2 542/1/2
f 542/1/2 517/1/2 543/1/2
f 543/1/2 517/1/2 544/1/2
f 544/1/2 517/1/2 545/1/2
f 545/1/2 517/1/2 546/1/2
f 546/1/2 517/1/2 547/1/2
f 547/1/2 517/1/2 548/1/2
f 549/1/2 550/1/2 551/1/2
f 551/1/2 550/1/2 552/1/2
f 552/1/2 550/1/2 553/1/2
f 553/1/2 550/1/2 554/1/2
f 554/1/2 550/1/2 555/1/2
f 555/1/2 550/1/2 556/1/2
f 556/1/2 550/1/2 557/1/2
f 557/1/2 550/1/2 558/1/2
f 558/1/2 550/1/2 559/1/2
f 559/1/2 550/1/2 560/1/2
f 560/1/2 550/1/2 561/1/2
f 561/1/2 550/1/2 562/1/2
f 562/1/2 550/1/2 563/1/2
f 563/1/2 550/1/2 564/1/2
f 564/1/2 550/1/2 565/1/2
f 565/1/2 550/1/2 566/1/2
f 566/1/2 550/1/2 567/1/2
f 567/1/2 550/1/2 568/1/2
f 568/1/2 550/1/2 569/1/2
f 569/1/2 550/1/2 570/1/2
f 570/1/2 550/1/2 571/1/2
f 571/1/2 550/1/2 572/1/2
f 572/1/2 550/1/2 573/1/2
f 573/1/2 550/1/2 574/1/2
f 574/1/2 550/1/2 575/1/2
f 575/1/2 550/1/2 576/1/2
f 576/1/2 550/1/2 577/1/2
f 577/1/2 550/1/2 578/1/2
f 578/1/2 550/1/2 579/1/2
f 579/1/2 550/1/2 580/1/2
f 580/1/2 550/1/2 581/1/2
f 582/1/2 583/1/2 584/1/2
f 584/1/2 583/1/2 585/1/2
f 585/1/2 583/1/2 586/1/2
f 586/1/2 583/1/2 587/1/2
f 587/1/2 583/1/2 588/1/2
f 588/1/2 583/1/2 589/1/2
f 589/1/2 583/1/2 590/1/2
f 590/1/2 583/1/2 591/1/2
f 591/1/2 583/1/2 592/1/2
f 592/1/2 583/1/2 593/1/2
f 593/1/2 583/1/2 594/1/2
f 594/1/2 583/1/2 595/1/2
f 595/1/2 583/1/2 596/1/2
f 596/1/2 583/1/2 597/1/2
f 597/1/2 583/1/2 598/1/2
f 598/1/2 583/1/2 599/1/2
f 599/1/2 583/1/2 600/1/2
f 600/1/2 583/1/2 601/1/2
f 601/1/2 583/1/2 602/1/2
f 602/1/2 583/1/2 603/1/2
f 603/1/2 583/1/2 604/1/2
f 604/1/2 583/1/2 605/1/2
f 605/1/2 583/1/2 606/1/2
f 606/1/2 583/1/2 607/1/2
f 607/1/2 583/1/2 608/1/2
f 608/1/2 583/1/2 609/1/2
f 609/1/2 583/1/2 610/1/2
f 610/1/2 583/1/2 611/1/2
f 611/1/2 583/1/2 612/1/2
f 612/1/2 583/1/2 613/1/2
f 613/1/2 583/1/2 614/1/2
f 615/1/2 616/1/2 617/1/2
f 617/1/2 616/1/2 618/1/2
f 618/1/2 616/1/2 619/1/2
f 619/1/2 616/1/2 620/1/2
f 620/1/2 616/1/2 621/1/2
f 621/1/2 616/1/2 622/1/2
f 622/1/2 616/1/2 623/1/2
f 623/1/2 616/1/2 624/1/2
f 624/1/2 616/1/2 625/1/2
f 625/1/2 616/1/2 626/1/2
f 626/1/2 616/1/2 627/1/2
f 627/1/2 616/1/2 628/1/2
f 628/1/2 616/1/2 629/1/2
f 629/1/2 616/1/2 630/1/2
f 630/1/2 616/1/2 631/1/2
f 631/1/2 616/1/2 632/1/2
f 632/1/2 616/1/2 633/1/2
f 633/1/2 616/1/2 634/1/2
f 634/1/2 616/1/2 635/1/2
f 635/1/2 616/1/2 636/1/2
f 636/1/2 616/1/2 637/1/2
f 637/1/2 616/1/2 638/1/2
f 638/1/2 616/1/2 639/1/2
f 639/1/2 616/1/2 640/1/2
f 640/1/2 616/1/2 641/1/2
f 641/1/2 616/1/2 642/1/2
f 642/1/2 616/1/2 643/1/2
f 643/1/2 616/1/2 644/1/2
f 644/1/2 616/1/2 645/1/2
f 645/1/2 616/1/2 646/1/2
f 646/1/2 616/1/2 647/1/2
f 648/1/2 649/1/2 650/1/2
f 650/1/2 649/1/2 651/1/2
f 651/1/2 649/1/2 652/1/2
f 652/1/2 649/1/2 653/1/2
f 653/1/2 649/1/2 654/1/2
f 654/1/2 649/1/2 655/1/2
f 655/1/2 649/1/2 656/1/2
f 656/1/2 649/1/2 657/1/2
f 657/1/2 649/1/2 658/1/2
f 658/1/2 649/1/2 659/1/2
f 659/1/2 649/1/2 660/1/2
f 660/1/2 649/1/2 661/1/2
f 661/1/2 649/1/2 662/1/2
f 662/1/2 649/1/2 663/1/2
f 663/1/2 649/1/2 664/1/2
f 664/1/2 649/1/2 665/1/2
f 665/1/2 649/1/2 666/1/2
f 666/1/2 649/1/2 667/1/2
f 667/1/2 649/1/2 668/1/2
f 668/1/2 649/1/2 669/1/2
f 669/1/2 649/1/2 670/1/2
f 670/1/2 649/1/2 671/1/2
f 671/1/2 649/1/2 672/1/2
f 672/1/2 649/1/2 673/1/2
f 673/1/2 649/1/2 674/1/2
f 674/1/2 649/1/2 675/1/2
f 675/1/2 649/1/2 676/1/2
f 676/1/2 649/1/2 677/1/2
f 677/1/2 649/1/2 678/1/2
f 678/1/2 649/1/2 679/1/2
f 679/1/2 649/1/2 680/1/2
f 681/2/2 682/2/2 683/2/2
f 683/2/2 684/2/2 685/2/2
f 683/2/2 685/2/2 687/2/2
f 685/2/2 686/2/2 687/2/2
f 687/2/2 686/2/2 688/2/2
f 681/2/2 683/2/2 689/2/2
f 683/2/2 687/2/2 689/2/2
f 689/2/2 687/2/2 690/2/2
f 693/2/3 692/2/3 691/2/3
f 694/2/3 692/2/3 693/2/3
f 696/2/3 692/2/3 694/2/3
f 697/2/3 696/2/3 695/2/3
f 698/2/3 692/2/3 696/2/3
f 698/2/3 696/2/3 697/2/3
f 731/1/3 700/1/3 699/1/3
f 732/1/3 700/1/3 731/1/3
f 733/1/3 702/1/3 701/1/3
f 734/1/3 702/1/3 733/1/3
f 735/1/3 704/1/3 703/1/3
f 736/1/3 704/1/3 735/1/3
f 737/1/3 706/1/3 705/1/3
f 738/1/3 706/1/3 737/1/3
f 739/1/3 708/1/3 707/1/3
f 740/1/3 708/1/3 739/1/3
f 741/1/3 710/1/3 709/1/3
f 742/1/3 710/1/3 741/1/3
f 743/1/3 712/1/3 711/1/3
f 744/1/3 712/1/3 743/1/3
f 745/1/3 714/1/3 713/1/3
f 746/1/3 714/1/3 745/1/3
f 747/1/3 716/1/3 715/1/3
f 748/1/3 716/1/3 747/1/3
f 749/1/3 718/1/3 717/1/3
f 750/1/3 718/1/3 749/1/3
f 751/1/3 720/1/3 719/1/3
f 752/1/3 720/1/3 751/1/3
f 753/1/3 722/1/3 721/1/3
f 754/1/3 722/1/3 753/1/3
f 755/1/3 724/1/3 723/1/3
f 756/1/3 724/1/3 755/1/3
f 757/1/3 726/1/3 725/1/3
f 758/1/3 726/1/3 757/1/3
f 759/1/3 728/1/3 727/1/3
f 760/1/3 728/1/3 759/1/3
f 761/1/3 730/1/3 729/1/3
f 762/1/3 730/1/3 761/1/3
f 793/1/3 764/1/3 763/1/3
f 794/1/3 764/1/3 793/1/3
f 795/1/3 766/1/3 765/1/3
f 796/1/3 766/1/3 795/1/3
f 797/1/3 768/1/3 767/1/3
f 798/1/3 768/1/3 797/1/3
f 799/1/3 770/1/3 769/1/3
f 800/1/3 770/1/3 799/1/3
f 801/1/3 772/1/3 771/1/3
f 802/1/3 772/1/3 801/1/3
f 803/1/3 774/1/3 773/1/3
f 804/1/3 774/1/3 803/1/3
f 805/1/3 776/1/3 775/1/3
f 806/1/3 776/1/3 805/1/3
f 807/1/3 778/1/3 777/1/3
f 808/1/3 778/1/3 807/1/3
f 809/1/3 780/1/3 779/1/3
f 810/1/3 780/1/3 809/1/3
f 811/1/3 782/1/3 781/1/3
f 812/1/3 782/1/3 811/1/3
f 813/1/3 784/1/3 783/1/3
f 814/1/3 784/1/3 813/1/3
f 815/1/3 786/1/3 785/1/3
f 816/1/3 786/1/3 815/1/3
f 817/1/3 788/1/3 787/1/3
f 818/1/3 788/1/3 817/1/3
f 819/1/3 790/1/3 789/1/3
f 820/1/3 790/1/3 819/1/3
f 821/1/3 792/1/3 791/1/3
f 822/1/3 792/1/3 821/1/3
f 853/1/3 824/1/3 823/1/3
f 854/1/3 824/1/3 853/1/3
f 855/1/3 826/1/3 825/1/3
f 856/1/3 826/1/3 855/1/3
f 857/1/3 828/1/3 827/1/3
f 858/1/3 828/1/3 857/1/3
f 859/1/3 830/1/3 829/1/3
f 860/1/3 830/1/3 859/1/3
f 861/1/3 832/1/3 831/1/3
f 862/1/3 832/1/3 861/1/3
f 863/1/3 834/1/3 833/1/3
f 864/1/3 834/1/3 863/1/3
f 865/1/3 836/1/3 835/1/3
f 866/1/3 836/1/3 865/1/3
f 867/1/3 838/1/3 837/1/3
f 868/1/3 838/1/3 867/1/3
f 869/1/3 840/1/3 839/1/3
f 870/1/3 840/1/3 869/1/3
f 871/1/3 842/1/3 841/1/3
f 872/1/3 842/1/3 871/1/3
f 873/1/3 844/1/3 843/1/3
f 874/1/3 844/1/3 873/1/3
f 875/1/3 846/1/3 845/1/3
f 876/1/3 846/1/3 875/1/3
f 877/1/3 848/1/3 847/1/3
f 878/1/3 848/1/3 877/1/3
f 879/1/3 850/1/3 849/1/3
f 880/1/3 850/1/3 879/1/3
f 881/1/3 852/1/3 851/1/3
f 882/1/3 852/1/3 881/1/3
f 913/1/3 884/1/3 883/1/3
f 914/1/3 884/1/3 913/1/3
f 915/1/3 886/1/3 885/1/3
f 916/1/3 886/1/3 915/1/3
f 917/1/3 888/1/3 887/1/3
f 918/1/3 888/1/3 917/1/3
f 919/1/3 890/1/3 889/1/3
f 920/1/3 890/1/3 919/1/3
f 921/1/3 892/1/3 891/1/3
f 922/1/3 892/1/3 921/1/3
f 923/1/3 894/1/3 893/1/3
f 924/1/3 894/1/3 923/1/3
f 925/1/3 896/1/3 895/1/3
f 926/1/3 896/1/3 925/1/3
f 927/1/3 898/1/3 897/1/3
f 928/1/3 898/1/3 927/1/3
f 929/1/3 900/1/3 899/1/3
f 930/1/3 900/1/3 929/1/3
f 931/1/3 902/1/3 901/1/3
f 932/1/3 902/1/3 931/1/3
f 933/1/3 904/1/3 903/1/3
f 934/1/3 904/1/3 933/1/3
f 935/1/3 906/1/3 905/1/3
f 936/1/3 906/1/3 935/1/3
f 937/1/3 908/1/3 907/1/3
f 938/1/3 908/1/3 937/1/3
f 939/1/3 910/1/3 909/1/3
f 940/1/3 910/1/3 939/1/3
f 941/1/3 912/1/3 911/1/3
f 942/1/3 912/1/3 941/1/3
f 973/1/3 944/1/3 943/1/3
f 974/1/3 944/1/3 973/1/3
f 975/1/3 946/1/3 945/1/3
f 976/1/3 946/1/3 975/1/3
f 977/1/3 948/1/3 947/1/3
f 978/1/3 948/1/3 977/1/3
f 979/1/3 950/1/3 949/1/3
f 980/1/3 950/1/3 979/1/3
f 981/1/3 952/1/3 951/1/3
f 982/1/3 952/1/3 981/1/3
f 983/1/3 954/1/3 953/1/3
f 984/1/3 954/1/3 983/1/3
f 985/1/3 956/1/3 955/1/3
f 986/1/3 956/1/3 985/1/3
f 987/1/3 958/1/3 957/1/3
f 988/1/3 958/1/3 987/1/3
f 989/1/3 960/1/3 959/1/3
f 990/1/3 960/1/3 989/1/3
f 991/1/3 962/1/3 961/1/3
f 992/1/3 962/1/3 991/1/3
f 993/1/3 964/1/3 963/1/3
f 994/1/3 964/1/3 993/1/3
f 995/1/3 966/1/3 965/1/3
f 996/1/3 966/1/3 995/1/3
f 997/1/3 968/1/3 967/1/3
f 998/1/3 968/1/3 997/1/3
f 999/1/3 970/1/3 969/1/3
f 1000/1/3 970/1/3 999/1/3
f 1001/1/3 972/1/3 971/1/3
f 1002/1/3 972/1/3 1001/1/3
f 1033/1/3 1004/1/3 1003/1/3
f 1034/1/3 1004/1/3 1033/1/3
f 1035/1/3 1006/1/3 1005/1/3
f 1036/1/3 1006/1/3 1035/1/3
f 1037/1/3 1008/1/3 1007/1/3
f 1038/1/3 1008/1/3 1037/1/3
f 1039/1/3 1010/1/3 1009/1/3
f 1040/1/3 1010/1/3 1039/1/3
f 1041/1/3 1012/1/3 1011/1/3
f 1042/1/3 1012/1/3 1041/1/3
f 1043/1/3 1014/1/3 1013/1/3
f 1044/1/3 1014/1/3 1043/1/3
f 1045/1/3 1016/1/3 1015/1/3
f 1046/1/3 1016/1/3 1045/1/3
f 1047/1/3 1018/1/3 1017/1/3
f 1048/1/3 1018/1/3 1047/1/3
f 1049/1/3 1020/1/3 1019/1/3
f 1050/1/3 1020/1/3 1049/1/3
f 1051/1/3 1022/1/3 1021/1/3
f 1052/1/3 1022/1/3 1051/1/3
f 1053/1/3 1024/1/3 1023/1/3
f 1054/1/3 1024/1/3 1053/1/3
f 1055/1/3 1026/1/3 1025/1/3
f 1056/1/3 1026/1/3 1055/1/3
f 1057/1/3 1028/1/3 1027/1/3
f 1058/1/3 1028/1/3 1057/1/3
f 1059/1/3 1030/1/3 1029/1/3
f 1060/1/3 1030/1/3 1059/1/3
f 1061/1/3 1032/1/3 1031/1/3
f 1062/1/3 1032/1/3 1061/1/3
f 1093/1/3 1064/1/3 1063/1/3
f 1094/1/3 1064/1/3 1093/1/3
f 1095/1/3 1066/1/3 1065/1/3
f 1096/1/3 1066/1/3 1095/1/3
f 1097/1/3 1068/1/3 1067/1/3
f 1098/1/3 1068/1/3 1097/1/3
f 1099/1/3 1070/1/3 1069/1/3
f 1100/1/3 1070/1/3 1099/1/3
f 1101/1/3 1072/1/3 1071/1/3
f 1102/1/3 1072/1/3 1101/1/3
f 1103/1/3 1074/1/3 1073/1/3
f 1104/1/3 1074/1/3 1103/1/3
f 1105/1/3 1076/1/3 1075/1/3
f 1106/1/3 1076/1/3 1105/1/3
f 1107/1/3 1078/1/3 1077/1/3
f 1108/1/3 1078/1/3 1107/1/3
f 1109/1/3 1080/1/3 1079/1/3
f 1110/1/3 1080/1/3 1109/1/3
f 1111/1/3 1082/1/3 1081/1/3
f 1112/1/3 1082/1/3 1111/1/3
f 1113/1/3 1084/1/3 1083/1/3
f 1114/1/3 1084/1/3 1113/1/3
f 1115/1/3 1086/1/3 1085/1/3
f 1116/1/3 1086/1/3 1115/1/3
f 1117/1/3 1088/1/3 1087/1/3
f 1118/1/3 1088/1/3 1117/1/3
f 1119/1/3 1090/1/3 1089/1/3
f 1120/1/3 1090/1/3 1119/1/3
f 1121/1/3 1092/1/3 1091/1/3
f 1122/1/3 1092/1/3 1121/1/3
f 1153/1/3 1124/1/3 1123/1/3
f 1154/1/3 1124/1/3 1153/1/3
f 1155/1/3 1126/1/3 1125/1/3
f 1156/1/3 1126/1/3 1155/1/3
f 1157/1/3 1128/1/3 1127/1/3
f 1158/1/3 1128/1/3 1157/1/3
f 1159/1/3 1130/1/3 1129/1/3
f 1160/1/3 1130/1/3 1159/1/3
f 1161/1/3 1132/1/3 1131/1/3
f 1162/1/3 1132/1/3 1161/1/3
f 1163/1/3 1134/1/3 1133/1/3
f 1164/1/3 1134/1/3 1163/1/3
f 1165/1/3 1136/1/3 1135/1/3
f 1166/1/3 1136/1/3 1165/1/3
f 1167/1/3 1138/1/3 1137/1/3
f 1168/1/3 1138/1/3 1167/1/3
f 1169/1/3 1140/1/3 1139/1/3
f 1170/1/3 1140/1/3 1169/1/3
f 1171/1/3 1142/1/3 1141/1/3
f 1172/1/3 1142/1/3 1171/1/3
f 1173/1/3 1144/1/3 1143/1/3
f 1174/1/3 1144/1/3 1173/1/3
f 1175/1/3 1146/1/3 1145/1/3
f 1176/1/3 1146/1/3 1175/1/3
f 1177/1/3 1148/1/3 1147/1/3
f 1178/1/3 1148/1/3 1177/1/3
f 1179/1/3 1150/1/3 1149/1/3
f 1180/1/3 1150/1/3 1179/1/3
f 1181/1/3 1152/1/3 1151/1/3
f 1182/1/3 1152/1/3 1181/1/3
f 1213/1/3 1184/1/3 1183/1/3
f 1214/1/3 1184/1/3 1213/1/3
f 1215/1/3 1186/1/3 1185/1/3
f 1216/1/3 1186/1/3 1215/1/3
f 1217/1/3 1188/1/3 1187/1/3
f 1218/1/3 1188/1/3 1217/1/3
f 1219/1/3 1190/1/3 1189/1/3
f 1220/1/3 1190/1/3 1219/1/3
f 1221/1/3 1192/1/3 1191/1/3
f 1222/1/3 1192/1/3 1221/1/3
f 1223/1/3 1194/1/3 1193/1/3
f 1224/1/3 1194/1/3 1223/1/3
f 1225/1/3 1196/1/3 1195/1/3
f 1226/1/3 1196/1/3 1225/1/3
f 1227/1/3 1198/1/3 1197/1/3
f 1228/1/3 1198/1/3 1227/1/3
f 1229/1/3 1200/1/3 1199/1/3
f 1230/1/3 1200/1/3 1229/1/3
f 1231/1/3 1202/1/3 1201/1/3
f 1232/1/3 1202/1/3 1231/1/3
f 1233/1/3 1204/1/3 1203/1/3
f 1234/1/3 1204/1/3 1233/1/3
f 1235/1/3 1206/1/3 1205/1/3
f 1236/1/3 1206/1/3 1235/1/3
f 1237/1/3 1208/1/3 1207/1/3
f 1238/1/3 1208/1/3 1237/1/3
f 1239/1/3 1210/1/3 1209/1/3
f 1240/1/3 1210/1/3 1239/1/3
f 1241/1/3 1212/1/3 1211/1/3
f 1242/1/3 1212/1/3 1241/1/3
f 1245/2/3 1244/2/3 1243/2/3
f 1246/2/3 1244/2/3 1245/2/3
f 1249/2/3 1248/2/3 1247/2/3
f 1250/2/3 1248/2/3 1249/2/3
f 1253/2/3 1252/2/3 1251/2/3
f 1254/2/3 1252/2/3 1253/2/3
f 1255/2/4 1256/2/4 1287/2/4
f 1287/2/4 1256/2/4 1288/2/4
f 1257/2/4 1258/2/4 1289/2/4
f 1289/2/4 1258/2/4 1290/2/4
f 1259/2/4 1260/2/4 1291/2/4
f 1291/2/4 1260/2/4 1292/2/4
f 1261/2/4 1262/2/4 1293/2/4
f 1293/2/4 1262/2/4 1294/2/4
f 1263/2/4 1264/2/4 1295/2/4
f 1295/2/4 1264/2/4 1296/2/4
f 1265/2/4 1266/2/4 1297/2/4
f 1297/2/4 1266/2/4 1298/2/4
f 1267/2/4 1268/2/4 1299/2/4
f 1299/2/4 1268/2/4 1300/2/4
f 1269/2/4 1270/2/4 1301/2/4
f 1301/2/4 1270/2/4 1302/2/4
f 1271/2/4 1272/2/4 1303/2/4
f 1303/2/4 1272/2/4 1304/2/4
f 1273/2/4 1274/2/4 1305/2/4
f 1305/2/4 1274/2/4 1306/2/4
f 1275/2/4 1276/2/4 1307/2/4
f 1307/2/4 1276/2/4 1308/2/4
f 1277/2/4 1278/2/4 1309/2/4
f 1309/2/4 1278/2/4 1310/2/4
f 1279/2/4 1280/2/4 1311/2/4
f 1311/2/4 1280/2/4 1312/2/4
f 1281/2/4 1282/2/4 1313/2/4
f 1313/2/4 1282/2/4 1314/2/4
f 1283/2/4 1284/2/4 1315/2/4
f 1315/2/4 1284/2/4 1316/2/4
f 1285/2/4 1286/2/4 1317/2/4
f 1317/2/4 1286/2/4 1318/2/4
f 1319/2/4 1320/2/4 1351/2/4
f 1351/2/4 1320/2/4 1352/2/4
f 1321/2/4 1322/2/4 1353/2/4
f 1353/2/4 1322/2/4 1354/2/4
f 1323/2/4 1324/2/4 1355/2/4
f 1355/2/4 1324/2/4 1356/2/4
f 1325/2/4 1326/2/4 1357/2/4
f 1357/2/4 1326/2/4 1358/2/4
f 1327/2/4 1328/2/4 1359/2/4
f 1359/2/4 1328/2/4 1360/2/4
f 1329/2/4 1330/2/4 1361/2/4
f 1361/2/4 1330/2/4 1362/2/4
f 1331/2/4 1332/2/4 1363/2/4
f 1363/2/4 1332/2/4 1364/2/4
f 1333/2/4 1334/2/4 1365/2/4
f 1365/2/4 1334/2/4 1366/2/4
f 1335/2/4 1336/2/4 1367/2/4
f 1367/2/4 1336/2/4 1368/2/4
f 1337/2/4 1338/2/4 1369/2/4
f 1369/2/4 1338/2/4 1370/2/4
f 1339/2/4 1340/2/4 1371/2/4
f 1371/2/4 1340/2/4 1372/2/4
f 1341/2/4 1342/2/4 1373/2/4
f 1373/2/4 1342/2/4 1374/2/4
f 1343/2/4 1344/2/4 1375/2/4
f 1375/2/4 1344/2/4 1376/2/4
f 1345/2/4 1346/2/4 1377/2/4
f 1377/2/4 1346/2/4 1378/2/4
f 1347/2/4 1348/2/4 1379/2/4
f 1379/2/4 1348/2/4 1380/2/4
f 1349/2/4 1350/2/4 1381/2/4
f 1381/2/4 1350/2/4 1382/2/4
f 1383/1/4 1384/1/4 1413/1/4
f 1413/1/4 1384/1/4 1414/1/4
f 1385/1/4 1386/1/4 1415/1/4
f 1415/1/4 1386/1/4 1416/1/4
f 1387/1/4 1388/1/4 1417/1/4
f 1417/1/4 1388/1/4 1418/1/4
f 1389/1/4 1390/1/4 1419/1/4
f 1419/1/4 1390/1/4 1420/1/4
f 1391/1/4 1392/1/4 1421/1/4
f 1421/1/4 1392/1/4 1422/1/4
f 1393/1/4 1394/1/4 1423/1/4
f 1423/1/4 1394/1/4 1424/1/4
f 1395/1/4 1396/1/4 1425/1/4
f 1425/1/4 1396/1/4 1426/1/4
f 1397/1/4 1398/1/4 1427/1/4
f 1427/1/4 1398/1/4 1428/1/4
f 1399/1/4 1400/1/4 1429/1/4
f 1429/1/4 1400/1/4 1430/1/4
f 1401/1/4 1402/1/4 1431/1/4
f 1431/1/4 1402/1/4 1432/1/4
f 1403/1/4 1404/1/4 1433/1/4
f 1433/1/4 1404/1/4 1434/1/4
f 1405/1/4 1406/1/4 1435/1/4
f 1435/1/4 1406/1/4 1436/1/4
f 1407/1/4 1408/1/4 1437/1/4
f 1437/1/4 1408/1/4 1438/1/4
f 1409/1/4 1410/1/4 1439/1/4
f 1439/1/4 1410/1/4 1440/1/4
f 1411/1/4 1412/1/4 1441/1/4
f 1441/1/4 1412/1/4 1442/1/4
f 1443/1/4 1444/1/4 1473/1/4
f 1473/1/4 1444/1/4 1474/1/4
f 1445/1/4 1446/1/4 1475/1/4
f 1475/1/4 1446/1/4 1476/1/4
f 1447/1/4 1448/1/4 1477/1/4
f 1477/1/4 1448/1/4 1478/1/4
f 1449/1/4 1450/1/4 1479/1/4
f 1479/1/4 1450/1/4 1480/1/4
f 1451/1/4 1452/1/4 1481/1/4
f 1481/1/4 1452/1/4 1482/1/4
f 1453/1/4 1454/1/4 1483/1/4
f 1483/1/4 1454/1/4 1484/1/4
f 1455/1/4 1456/1/4 1485/1/4
f 1485/1/4 1456/1/4 1486/1/4
f 1457/1/4 1458/1/4 1487/1/4
f 1487/1/4 1458/1/4 1488/1/4
f 1459/1/4 1460/1/4 1489/1/4
f 1489/1/4 1460/1/4 1490/1/4
f 1461/1/4 1462/1/4 1491/1/4
f 1491/1/4 1462/1/4 1492/1/4
f 1463/1/4 1464/1/4 1493/1/4
f 1493/1/4 1464/1/4 1494/1/4
f 1465/1/4 1466/1/4 1495/1/4
f 1495/1/4 1466/1/4 1496/1/4
f 1467/1/4 1468/1/4 1497/1/4
f 1497/1/4 1468/1/4 1498/1/4
f 1469/1/4 1470/1/4 1499/1/4
f 1499/1/4 1470/1/4 1500/1/4
f 1471/1/4 1472/1/4 1501/1/4
f 1501/1/4 1472/1/4 1502/1/4
f 1503/1/4 1504/1/4 1533/1/4
f 1533/1/4 1504/1/4 1534/1/4
f 1505/1/4 1506/1/4 1535/1/4
f 1535/1/4 1506/1/4 1536/1/4
f 1507/1/4 1508/1/4 1537/1/4
f 1537/1/4 1508/1/4 1538/1/4
f 1509/1/4 1510/1/4 1539/1/4
f 1539/1/4 1510/1/4 1540/1/4
f 1511/1/4 1512/1/4 1541/1/4
f 1541/1/4 1512/1/4 1542/1/4
f 1513/1/4 1514/1/4 1543/1/4
f 1543/1/4 1514/1/4 1544/1/4
f 1515/1/4 1516/1/4 1545/1/4
f 1545/1/4 1516/1/4 1546/1/4
f 1517/1/4 1518/1/4 1547/1/4
f 1547/1/4 1518/1/4 1548/1/4
f 1519/1/4 1520/1/4 1549/1/4
f 1549/1/4 1520/1/4 1550/1/4
f 1521/1/4 1522/1/4 1551/1/4
f 1551/1/4 1522/1/4 1552/1/4
f 1523/1/4 1524/1/4 1553/1/4
f 1553/1/4 1524/1/4 1554/1/4
f 1525/1/4 1526/1/4 1555/1/4
f 1555/1/4 1526/1/4 1556/1/4
f 1527/1/4 1528/1/4 1557/1/4
f 1557/1/4 1528/1/4 1558/1/4
f 1529/1/4 1530/1/4 1559/1/4
f 1559/1/4 1530/1/4 1560/1/4
f 1531/1/4 1532/1/4 1561/1/4
f 1561/1/4 1532/1/4 1562/1/4
f 1563/1/4 1564/1/4 1593/1/4
f 1593/1/4 1564/1/4 1594/1/4
f 1565/1/4 1566/1/4 1595/1/4
f 1595/1/4 1566/1/4 1596/1/4
f 1567/1/4 1568/1/4 1597/1/4
f 1597/1/4 1568/1/4 1598/1/4
f 1569/1/4 1570/1/4 1599/1/4
f 1599/1/4 1570/1/4 1600/1/4
f 1571/1/4 1572/1/4 1601/1/4
f 1601/1/4 1572/1/4 1602/1/4
f 1573/1/4 1574/1/4 1603/1/4
f 1603/1/4 1574/1/4 1604/1/4
f 1575/1/4 1576/1/4 1605/1/4
f 1605/1/4 1576/1/4 1606/1/4
f 1577/1/4 1578/1/4 1607/1/4
f 1607/1/4 1578/1/4 1608/1/4
f 1579/1/4 1580/1/4 1609/1/4
f 1609/1/4 1580/1/4 1610/1/4
f 1581/1/4 1582/1/4 1611/1/4
f 1611/1/4 1582/1/4 1612/1/4
f 1583/1/4 1584/1/4 1613/1/4
f 1613/1/4 1584/1/4 1614/1/4
f 1585/1/4 1586/1/4 1615/1/4
f 1615/1/4 1586/1/4 1616/1/4
f 1587/1/4 1588/1/4 1617/1/4
f 1617/1/4 1588/1/4 1618/1/4
f 1589/1/4 1590/1/4 1619/1/4
f 1619/1/4 1590/1/4 1620/1/4
f 1591/1/4 1592/1/4 1621/1/4
f 1621/1/4 1592/1/4 1622/1/4
f 1623/1/4 1624/1/4 1653/1/4
f 1653/1/4 1624/1/4 1654/1/4
f 1625/1/4 1626/1/4 1655/1/4
f 1655/1/4 1626/1/4 1656/1/4
f 1627/1/4 1628/1/4 1657/1/4
f 1657/1/4 1628/1/4 1658/1/4
f 1629/1/4 1630/1/4 1659/1/4
f 1659/1/4 1630/1/4 1660/1/4
f 1631/1/4 1632/1/4 1661/1/4
f 1661/1/4 1632/1/4 1662/1/4
f 1633/1/4 1634/1/4 1663/1/4
f 1663/1/4 1634/1/4 1664/1/4
f 1635/1/4 1636/1/4 1665/1/4
f 1665/1/4 1636/1/4 1666/1/4
f 1637/1/4 1638/1/4 1667/1/4
f 1667/1/4 1638/1/4 1668/1/4
f 1639/1/4 1640/1/4 1669/1/4
f 1669/1/4 1640/1/4 1670/1/4
f 1641/1/4 1642/1/4 1671/1/4
f 1671/1/4 1642/1/4 1672/1/4
f 1643/1/4 1644/1/4 1673/1/4
f 1673/1/4 1644/1/4 1674/1/4
f 1645/1/4 1646/1/4 1675/1/4
f 1675/1/4 1646/1/4 1676/1/4
f 1647/1/4 1648/1/4 1677/1/4
f 1677/1/4 1648/1/4 1678/1/4
f 1649/1/4 1650/1/4 1679/1/4
f 1679/1/4 1650/1/4 1680/1/4
f 1651/1/4 1652/1/4 1681/1/4
f 1681/1/4 1652/1/4 1682/1/4
f 1683/1/4 1684/1/4 1713/1/4
f 1713/1/4 1684/1/4 1714/1/4
f 1685/1/4 1686/1/4 1715/1/4
f 1715/1/4 1686/1/4 1716/1/4
f 1687/1/4 1688/1/4 1717/1/4
f 1717/1/4 1688/1/4 1718/1/4
f 1689/1/4 1690/1/4 1719/1/4
f 1719/1/4 1690/1/4 1720/1/4
f 1691/1/4 1692/1/4 1721/1/4
f 1721/1/4 1692/1/4 1722/1/4
f 1693/1/4 1694/1/4 1723/1/4
f 1723/1/4 1694/1/4 1724/1/4
f 1695/1/4 1696/1/4 1725/1/4
f 1725/1/4 1696/1/4 1726/1/4
f 1697/1/4 1698/1/4 1727/1/4
f 1727/1/4 1698/1/4 1728/1/4
f 1699/1/4 1700/1/4 1729/1/4
f 1729/1/4 1700/1/4 1730/1/4
f 1701/1/4 1702/1/4 1731/1/4
f 1731/1/4 1702/1/4 1732/1/4
f 1703/1/4 1704/1/4 1733/1/4
f 1733/1/4 1704/1/4 1734/1/4
f 1705/1/4 1706/1/4 1735/1/4
f 1735/1/4 1706/1/4 1736/1/4
f 1707/1/4 1708/1/4 1737/1/4
f 1737/1/4 1708/1/4 1738/1/4
f 1709/1/4 1710/1/4 1739/1/4
f 1739/1/4 1710/1/4 1740/1/4
f 1711/1/4 1712/1/4 1741/1/4
f 1741/1/4 1712/1/4 1742/1/4
f 1743/1/4 1744/1/4 1773/1/4
f 1773/1/4 1744/1/4 1774/1/4
f 1745/1/4 1746/1/4 1775/1/4
f 1775/1/4 1746/1/4 1776/1/4
f 1747/1/4 1748/1/4 1777/1/4
f 1777/1/4 1748/1/4 1778/1/4
f 1749/1/4 1750/1/4 1779/1/4
f 1779/1/4 1750/1/4 1780/1/4
f 1751/1/4 1752/1/4 1781/1/4
f 1781/1/4 1752/1/4 1782/1/4
f 1753/1/4 1754/1/4 1783/1/4
f 1783/1/4 1754/1/4 1784/1/4
f 1755/1/4 1756/1/4 1785/1/4
f 1785/1/4 1756/1/4 1786/1/4
f 1757/1/4 1758/1/4 1787/1/4
f 1787/1/4 1758/1/4 1788/1/4
f 1759/1/4 1760/1/4 1789/1/4
f 1789/1/4 1760/1/4 1790/1/4
f 1761/1/4 1762/1/4 1791/1/4
f 1791/1/4 1762/1/4 1792/1/4
f 1763/1/4 1764/1/4 1793/1/4
f 1793/1/4 1764/1/4 1794/1/4
f 1765/1/4 1766/1/4 1795/1/4
f 1795/1/4 1766/1/4 1796/1/4
f 1767/1/4 1768/1/4 1797/1/4
f 1797/1/4 1768/1/4 1798/1/4
f 1769/1/4 1770/1/4 1799/1/4
f 1799/1/4 1770/1/4 1800/1/4
f 1771/1/4 1772/1/4 1801/1/4
f 1801/1/4 1772/1/4 1802/1/4
f 1803/1/4 1804/1/4 1806/1/4
f 1805/1/4 1806/1/4 1807/1/4
f 1806/1/4 1804/1/4 1808/1/4
f 1807/1/4 1806/1/4 1808/1/4
f 1808/1/4 1804/1/4 1810/1/4
f 1809/1/4 1810/1/4 1811/1/4
f 1810/1/4 1804/1/4 1812/1/4
f 1811/1/4 1810/1/4 1812/1/4
f 1812/1/4 1804/1/4 1814/1/4
f 1813/1/4 1814/1/4 1815/1/4
f 1814/1/4 1804/1/4 1816/1/4
f 1815/1/4 1814/1/4 1816/1/4
f 1816/1/4 1804/1/4 1818/1/4
f 1817/1/4 1818/1/4 1819/1/4
f 1818/1/4 1804/1/4 1820/1/4
f 1819/1/4 1818/1/4 1820/1/4
f 1820/1/4 1804/1/4 1822/1/4
f 1821/1/4 1822/1/4 1823/1/4
f 1822/1/4 1804/1/4 1824/1/4
f 1823/1/4 1822/1/4 1824/1/4
f 1824/1/4 1804/1/4 1826/1/4
f 1825/1/4 1826/1/4 1827/1/4
f 1826/1/4 1804/1/4 1828/1/4
f 1827/1/4 1826/1/4 1828/1/4
f 1828/1/4 1804/1/4 1829/1/4
f 1829/1/4 1804/1/4 1830/1/4
f 1831/2/4 1832/2/4 1833/2/4
f 1833/2/4 1832/2/4 1834/2/4
f 1835/2/4 1836/2/4 1837/2/4
f 1837/2/4 1836/2/4 1838/2/4
f 1839/2/4 1840/2/4 1843/2/4
f 1843/2/4 1840/2/4 1844/2/4
f 1841/2/4 1842/2/4 1845/2/4
f 1845/2/4 1842/2/4 1846/2/4
f 1847/2/4 1848/2/4 1849/2/4
f 1849/2/4 1848/2/4 1850/2/4
f 1855/2/5 1852/2/5 1851/2/5
f 1856/2/5 1852/2/5 1855/2/5
f 1857/2/5 1854/2/5 1853/2/5
f 1858/2/5 1854/2/5 1857/2/5
f 1859/2/5 1855/2/5 1851/2/5
f 1862/2/5 1854/2/5 1858/2/5
f 1863/2/5 1860/2/5 1859/2/5
f 1863/2/5 1859/2/5 1851/2/5
f 1864/2/5 1860/2/5 1863/2/5
f 1865/2/5 1862/2/5 1861/2/5
f 1866/2/5 1854/2/5 1862/2/5
f 1866/2/5 1862/2/5 1865/2/5
f 1871/1/5 1868/1/5 1867/1/5
f 1871/1/5 1870/1/5 1869/1/5
f 1871/1/5 1869/1/5 1868/1/5
f 1872/1/5 1870/1/5 1871/1/5
f 1873/1/5 1870/1/5 1872/1/5
f 1874/1/5 1870/1/5 1873/1/5
f 1875/1/5 1870/1/5 1874/1/5
f 1876/1/5 1870/1/5 1875/1/5
f 1877/1/5 1870/1/5 1876/1/5
f 1878/1/5 1870/1/5 1877/1/5
f 1879/1/5 1870/1/5 1878/1/5
f 1880/1/5 1870/1/5 1879/1/5
f 1881/1/5 1870/1/5 1880/1/5
f 1882/1/5 1870/1/5 1881/1/5
f 1883/1/5 1870/1/5 1882/1/5
f 1884/1/5 1870/1/5 1883/1/5
f 1885/1/5 1871/1/5 1867/1/5
f 1886/1/5 1871/1/5 1885/1/5
f 1887/1/5 1873/1/5 1872/1/5
f 1888/1/5 1873/1/5 1887/1/5
f 1889/1/5 1875/1/5 1874/1/5
f 1890/1/5 1875/1/5 1889/1/5
f 1891/1/5 1877/1/5 1876/1/5
f 1892/1/5 1877/1/5 1891/1/5
f 1893/1/5 1879/1/5 1878/1/5
f 1894/1/5 1879/1/5 1893/1/5
f 1895/1/5 1881/1/5 1880/1/5
f 1896/1/5 1881/1/5 1895/1/5
f 1897/1/5 1883/1/5 1882/1/5
f 1898/1/5 1883/1/5 1897/1/5
f 1899/1/5 1870/1/5 1884/1/5
f 1900/1/5 1870/1/5 1899/1/5
f 1905/1/5 1902/1/5 1901/1/5
f 1905/1/5 1904/1/5 1903/1/5
f 1905/1/5 1903/1/5 1902/1/5
f 1906/1/5 1904/1/5 1905/1/5
f 1907/1/5 1904/1/5 1906/1/5
f 1908/1/5 1904/1/5 1907/1/5
f 1909/1/5 1904/1/5 1908/1/5
f 1910/1/5 1904/1/5 1909/1/5
f 1911/1/5 1904/1/5 1910/1/5
f 1912/1/5 1904/1/5 1911/1/5
f 1913/1/5 1904/1/5 1912/1/5
f 1914/1/5 1904/1/5 1913/1/5
f 1915/1/5 1904/1/5 1914/1/5
f 1916/1/5 1904/1/5 1915/1/5
f 1917/1/5 1904/1/5 1916/1/5
f 1918/1/5 1904/1/5 1917/1/5
f 1919/1/5 1904/1/5 1918/1/5
f 1920/1/5 1904/1/5 1919/1/5
f 1925/1/5 1922/1/5 1921/1/5
f 1925/1/5 1924/1/5 1923/1/5
f 1925/1/5 1923/1/5 1922/1/5
f 1926/1/5 1924/1/5 1925/1/5
f 1927/1/5 1924/1/5 1926/1/5
f 1928/1/5 1924/1/5 1927/1/5
f 1929/1/5 1924/1/5 1928/1/5
f 1930/1/5 1924/1/5 1929/1/5
f 1931/1/5 1924/1/5 1930/1/5
f 1932/1/5 1924/1/5 1931/1/5
f 1933/1/5 1924/1/5 1932/1/5
f 1934/1/5 1924/1/5 1933/1/5
f 1935/1/5 1924/1/5 1934/1/5
f 1936/1/5 1924/1/5 1935/1/5
f 1937/1/5 1924/1/5 1936/1/5
f 1938/1/5 1924/1/5 1937/1/5
f 1939/1/5 1924/1/5 1938/1/5
f 1940/1/5 1924/1/5 1939/1/5
f 1945/1/5 1942/1/5 1941/1/5
f 1945/1/5 1944/1/5 1943/1/5
f 1945/1/5 1943/1/5 1942/1/5
f 1946/1/5 1944/1/5 1945/1/5
f 1947/1/5 1944/1/5 1946/1/5
f 1948/1/5 1944/1/5 1947/1/5
f 1949/1/5 1944/1/5 1948/1/5
f 1950/1/5 1944/1/5 1949/1/5
f 1951/1/5 1944/1/5 1950/1/5
f 1952/1/5 1944/1/5 1951/1/5
f 1953/1/5 1944/1/5 1952/1/5
f 1954/1/5 1944/1/5 1953/1/5
f 1955/1/5 1944/1/5 1954/1/5
f 1956/1/5 1944/1/5 1955/1/5
f 1957/1/5 1944/1/5 1956/1/5
f 1958/1/5 1944/1/5 1957/1/5
f 1959/1/5 1944/1/5 1958/1/5
f 1960/1/5 1944/1/5 1959/1/5
f 1965/1/5 1962/1/5 1961/1/5
f 1965/1/5 1964/1/5 1963/1/5
f 1965/1/5 1963/1/5 1962/1/5
f 1966/1/5 1964/1/5 1965/1/5
f 1967/1/5 1964/1/5 1966/1/5
f 1968/1/5 1964/1/5 1967/1/5
f 1969/1/5 1964/1/5 1968/1/5
f 1970/1/5 1964/1/5 1969/1/5
f 1971/1/5 1964/1/5 1970/1/5
f 1972/1/5 1964/1/5 1971/1/5
f 1973/1/5 1964/1/5 1972/1/5
f 1974/1/5 1964/1/5 1973/1/5
f 1975/1/5 1964/1/5 1974/1/5
f 1976/1/5 1964/1/5 1975/1/5
f 1977/1/5 1964/1/5 1976/1/5
f 1978/1/5 1964/1/5 1977/1/5
f 1979/1/5 1964/1/5 1978/1/5
f 1980/1/5 1964/1/5 1979/1/5
f 1985/1/5 1982/1/5 1981/1/5
f 1985/1/5 1984/1/5 1983/1/5
f 1985/1/5 1983/1/5 1982/1/5
f 1986/1/5 1984/1/5 1985/1/5
f 1987/1/5 1984/1/5 1986/1/5
f 1988/1/5 1984/1/5 1987/1/5
f 1989/1/5 1984/1/5 1988/1/5
f 1990/1/5 1984/1/5 1989/1/5
f 1991/1/5 1984/1/5 1990/1/5
f 1992/1/5 1984/1/5 1991/1/5
f 1993/1/5 1984/1/5 1992/1/5
f 1994/1/5 1984/1/5 1993/1/5
f 1995/1/5 1984/1/5 1994/1/5
f 1996/1/5 1984/1/5 1995/1/5
f 1997/1/5 1984/1/5 1996/1/5
f 1998/1/5 1984/1/5 1997/1/5
f 1999/1/5 1984/1/5 1998/1/5
f 2000/1/5 1984/1/5 1999/1/5
f 2005/1/5 2002/1/5 2001/1/5
f 2005/1/5 2004/1/5 2003/1/5
f 2005/1/5 2003/1/5 2002/1/5
f 2006/1/5 2004/1/5 2005/1/5
f 2007/1/5 2004/1/5 2006/1/5
f 2008/1/5 2004/1/5 2007/1/5
f 2009/1/5 2004/1/5 2008/1/5
f 2010/1/5 2004/1/5 2009/1/5
f 2011/1/5 2004/1/5 2010/1/5
f 2012/1/5 2004/1/5 2011/1/5
f 2013/1/5 2004/1/5 2012/1/5
f 2014/1/5 2004/1/5 2013/1/5
f 2015/1/5 2004/1/5 2014/1/5
f 2016/1/5 2004/1/5 2015/1/5
f 2017/1/5 2004/1/5 2016/1/5
f 2018/1/5 2004/1/5 2017/1/5
f 2019/1/5 2004/1/5 2018/1/5
f 2020/1/5 2004/1/5 2019/1/5
f 2025/1/5 2022/1/5 2021/1/5
f 2025/1/5 2024/1/5 2023/1/5
f 2025/1/5 2023/1/5 2022/1/5
f 2026/1/5 2024/1/5 2025/1/5
f 2027/1/5 2024/1/5 2026/1/5
f 2028/1/5 2024/1/5 2027/1/5
f 2029/1/5 2024/1/5 2028/1/5
f 2030/1/5 2024/1/5 2029/1/5
f 2031/1/5 2024/1/5 2030/1/5
f 2032/1/5 2024/1/5 2031/1/5
f 2033/1/5 2024/1/5 2032/1/5
f 2034/1/5 2024/1/5 2033/1/5
f 2035/1/5 2024/1/5 2034/1/5
f 2036/1/5 2024/1/5 2035/1/5
f 2037/1/5 2024/1/5 2036/1/5
f 2038/1/5 2024/1/5 2037/1/5
f 2039/1/5 2024/1/5 2038/1/5
f 2040/1/5 2024/1/5 2039/1/5
f 2045/1/5 2042/1/5 2041/1/5
f 2045/1/5 2044/1/5 2043/1/5
f 2045/1/5 2043/1/5 2042/1/5
f 2046/1/5 2044/1/5 2045/1/5
f 2047/1/5 2044/1/5 2046/1/5
f 2048/1/5 2044/1/5 2047/1/5
f 2049/1/5 2044/1/5 2048/1/5
f 2050/1/5 2044/1/5 2049/1/5
f 2051/1/5 2044/1/5 2050/1/5
f 2052/1/5 2044/1/5 2051/1/5
f 2053/1/5 2044/1/5 2052/1/5
f 2054/1/5 2044/1/5 2053/1/5
f 2055/1/5 2044/1/5 2054/1/5
f 2056/1/5 2044/1/5 2055/1/5
f 2057/1/5 2044/1/5 2056/1/5
f 2058/1/5 2044/1/5 2057/1/5
f 2059/1/5 2044/1/5 2058/1/5
f 2060/1/5 2044/1/5 2059/1/5
f 2065/1/5 2062/1/5 2061/1/5
f 2065/1/5 2064/1/5 2063/1/5
f 2065/1/5 2063/1/5 2062/1/5
f 2066/1/5 2064/1/5 2065/1/5
f 2067/1/5 2064/1/5 2066/1/5
f 2068/1/5 2064/1/5 2067/1/5
f 2069/1/5 2064/1/5 2068/1/5
f 2070/1/5 2064/1/5 2069/1/5
f 2071/1/5 2064/1/5 2070/1/5
f 2072/1/5 2064/1/5 2071/1/5
f 2073/1/5 2064/1/5 2072/1/5
f 2074/1/5 2064/1/5 2073/1/5
f 2075/1/5 2064/1/5 2074/1/5
f 2076/1/5 2064/1/5 2075/1/5
f 2077/1/5 2064/1/5 2076/1/5
f 2078/1/5 2064/1/5 2077/1/5
f 2079/1/5 2064/1/5 2078/1/5
f 2080/1/5 2064/1/5 2079/1/5
f 2085/1/5 2082/1/5 2081/1/5
f 2085/1/5 2084/1/5 2083/1/5
f 2085/1/5 2083/1/5 2082/1/5
f 2086/1/5 2084/1/5 2085/1/5
f 2087/1/5 2084/1/5 2086/1/5
f 2088/1/5 2084/1/5 2087/1/5
f 2089/1/5 2084/1/5 2088/1/5
f 2090/1/5 2084/1/5 2089/1/5
f 2091/1/5 2084/1/5 2090/1/5
f 2092/1/5 2084/1/5 2091/1/5
f 2093/1/5 2084/1/5 2092/1/5
f 2094/1/5 2084/1/5 2093/1/5
f 2095/1/5 2084/1/5 2094/1/5
f 2096/1/5 2084/1/5 2095/1/5
f 2097/1/5 2084/1/5 2096/1/5
f 2098/1/5 2084/1/5 2097/1/5
f 2099/1/5 2084/1/5 2098/1/5
f 2100/1/5 2084/1/5 2099/1/5
f 2105/1/5 2102/1/5 2101/1/5
f 2105/1/5 2104/1/5 2103/1/5
f 2105/1/5 2103/1/5 2102/1/5
f 2106/1/5 2104/1/5 2105/1/5
f 2107/1/5 2104/1/5 2106/1/5
f 2108/1/5 2104/1/5 2107/1/5
f 2109/1/5 2104/1/5 2108/1/5
f 2110/1/5 2104/1/5 2109/1/5
f 2111/1/5 2104/1/5 2110/1/5
f 2112/1/5 2104/1/5 2111/1/5
f 2113/1/5 2104/1/5 2112/1/5
f 2114/1/5 2104/1/5 2113/1/5
f 2115/1/5 2104/1/5 2114/1/5
f 2116/1/5 2104/1/5 2115/1/5
f 2117/1/5 2104/1/5 2116/1/5
f 2118/1/5 2104/1/5 2117/1/5
f 2119/1/5 2104/1/5 2118/1/5
f 2120/1/5 2104/1/5 2119/1/5
f 2125/1/5 2122/1/5 2121/1/5
f 2125/1/5 2124/1/5 2123/1/5
f 2125/1/5 2123/1/5 2122/1/5
f 2126/1/5 2124/1/5 2125/1/5
f 2127/1/5 2124/1/5 2126/1/5
f 2128/1/5 2124/1/5 2127/1/5
f 2129/1/5 2124/1/5 2128/1/5
f 2130/1/5 2124/1/5 2129/1/5
f 2131/1/5 2124/1/5 2130/1/5
f 2132/1/5 2124/1/5 2131/1/5
f 2133/1/5 2124/1/5 2132/1/5
f 2134/1/5 2124/1/5 2133/1/5
f 2135/1/5 2124/1/5 2134/1/5
f 2136/1/5 2124/1/5 2135/1/5
f 2137/1/5 2124/1/5 2136/1/5
f 2138/1/5 2124/1/5 2137/1/5
f 2139/1/5 2124/1/5 2138/1/5
f 2140/1/5 2124/1/5 2139/1/5
f 2145/1/5 2142/1/5 2141/1/5
f 2145/1/5 2144/1/5 2143/1/5
f 2145/1/5 2143/1/5 2142/1/5
f 2146/1/5 2144/1/5 2145/1/5
f 2147/1/5 2144/1/5 2146/1/5
f 2148/1/5 2144/1/5 2147/1/5
f 2149/1/5 2144/1/5 2148/1/5
f 2150/1/5 2144/1/5 2149/1/5
f 2151/1/5 2144/1/5 2150/1/5
f 2152/1/5 2144/1/5 2151/1/5
f 2153/1/5 2144/1/5 2152/1/5
f 2154/1/5 2144/1/5 2153/1/5
f 2155/1/5 2144/1/5 2154/1/5
f 2156/1/5 2144/1/5 2155/1/5
f 2157/1/5 2144/1/5 2156/1/5
f 2158/1/5 2144/1/5 2157/1/5
f 2159/1/5 2144/1/5 2158/1/5
f 2160/1/5 2144/1/5 2159/1/5
f 2165/1/5 2162/1/5 2161/1/5
f 2165/1/5 2164/1/5 2163/1/5
f 2165/1/5 2163/1/5 2162/1/5
f 2166/1/5 2164/1/5 2165/1/5
f 2167/1/5 2164/1/5 2166/1/5
f 2168/1/5 2164/1/5 2167/1/5
f 2169/1/5 2164/1/5 2168/1/5
f 2170/1/5 2164/1/5 2169/1/5
f 2171/1/5 2164/1/5 2170/1/5
f 2172/1/5 2164/1/5 2171/1/5
f 2173/1/5 2164/1/5 2172/1/5
f 2174/1/5 2164/1/5 2173/1/5
f 2175/1/5 2164/1/5 2174/1/5
f 2176/1/5 2164/1/5 2175/1/5
f 2177/1/5 2164/1/5 2176/1/5
f 2178/1/5 2164/1/5 2177/1/5
f 2179/1/5 2164/1/5 2178/1/5
f 2180/1/5 2164/1/5 2179/1/5
f 2185/2/5 2182/2/5 2181/2/5
f 2185/2/5 2184/2/5 2183/2/5
f 2185/2/5 2183/2/5 2182/2/5
f 2186/2/5 2184/2/5 2185/2/5
f 2191/1/5 2188/1/5 2187/1/5
f 2191/1/5 2190/1/5 2189/1/5
f 2191/1/5 2189/1/5 2188/1/5
f 2192/1/5 2190/1/5 2191/1/5
f 2193/1/5 2190/1/5 2192/1/5
f 2194/1/5 2190/1/5 2193/1/5
f 2195/1/5 2190/1/5 2194/1/5
f 2196/1/5 2190/1/5 2195/1/5
f 2197/1/5 2190/1/5 2196/1/5
f 2198/1/5 2190/1/5 2197/1/5
f 2199/1/5 2190/1/5 2198/1/5
f 2200/1/5 2190/1/5 2199/1/5
f 2201/1/5 2190/1/5 2200/1/5
f 2202/1/5 2190/1/5 2201/1/5
f 2203/1/5 2190/1/5 2202/1/5
f 2204/1/5 2190/1/5 2203/1/5
f 2205/1/5 2190/1/5 2204/1/5
f 2206/1/5 2190/1/5 2205/1/5
f 2207/1/5 2193/1/5 2192/1/5
f 2208/1/5 2193/1/5 2207/1/5
f 2209/1/5 2195/1/5 2194/1/5
f 2210/1/5 2195/1/5 2209/1/5
f 2211/1/5 2197/1/5 2196/1/5
f 2212/1/5 2197/1/5 2211/1/5
f 2213/1/5 2199/1/5 2198/1/5
f 2214/1/5 2199/1/5 2213/1/5
f 2215/1/5 2201/1/5 2200/1/5
f 2216/1/5 2201/1/5 2215/1/5
f 2217/1/5 2203/1/5 2202/1/5
f 2218/1/5 2203/1/5 2217/1/5
f 2219/1/5 2205/1/5 2204/1/5
f 2220/1/5 2205/1/5 2219/1/5
f 2223/2/5 2222/2/5 2221/2/5
f 2224/2/5 2222/2/5 2223/2/5
f 2227/2/5 2226/2/5 2225/2/5
f 2228/2/5 2226/2/5 2227/2/5
f 2231/2/5 2230/2/5 2229/2/5
f 2232/2/5 2230/2/5 2231/2/5
f 2233/1/6 2234/1/6 2237/1/6
f 2235/1/6 2236/1/6 2237/1/6
f 2234/1/6 2235/1/6 2237/1/6
f 2237/1/6 2236/1/6 2238/1/6
f 2238/1/6 2236/1/6 2239/1/6
f 2239/1/6 2236/1/6 2240/1/6
f 2240/1/6 2236/1/6 2241/1/6
f 2241/1/6 2236/1/6 2242/1/6
f 2242/1/6 2236/1/6 2243/1/6
f 2243/1/6 2236/1/6 2244/1/6
f 2244/1/6 2236/1/6 2245/1/6
f 2245/1/6 2236/1/6 2246/1/6
f 2246/1/6 2236/1/6 2247/1/6
f 2247/1/6 2236/1/6 2248/1/6
f 2248/1/6 2236/1/6 2249/1/6
f 2249/1/6 2236/1/6 2250/1/6
f 2250/1/6 2236/1/6 2251/1/6
f 2251/1/6 2236/1/6 2252/1/6
f 2253/1/6 2254/1/6 2257/1/6
f 2255/1/6 2256/1/6 2257/1/6
f 2254/1/6 2255/1/6 2257/1/6
f 2257/1/6 2256/1/6 2258/1/6
f 2258/1/6 2256/1/6 2259/1/6
f 2259/1/6 2256/1/6 2260/1/6
f 2260/1/6 2256/1/6 2261/1/6
f 2261/1/6 2256/1/6 2262/1/6
f 2262/1/6 2256/1/6 2263/1/6
f 2263/1/6 2256/1/6 2264/1/6
f 2264/1/6 2256/1/6 2265/1/6
f 2265/1/6 2256/1/6 2266/1/6
f 2266/1/6 2256/1/6 2267/1/6
f 2267/1/6 2256/1/6 2268/1/6
f 2268/1/6 2256/1/6 2269/1/6
f 2269/1/6 2256/1/6 2270/1/6
f 2270/1/6 2256/1/6 2271/1/6
f 2271/1/6 2256/1/6 2272/1/6
f 2273/1/6 2274/1/6 2277/1/6
f 2275/1/6 2276/1/6 2277/1/6
f 2274/1/6 2275/1/6 2277/1/6
f 2277/1/6 2276/1/6 2278/1/6
f 2278/1/6 2276/1/6 2279/1/6
f 2279/1/6 2276/1/6 2280/1/6
f 2280/1/6 2276/1/6 2281/1/6
f 2281/1/6 2276/1/6 2282/1/6
f 2282/1/6 2276/1/6 2283/1/6
f 2283/1/6 2276/1/6 2284/1/6
f 2284/1/6 2276/1/6 2285/1/6
f 2285/1/6 2276/1/6 2286/1/6
f 2286/1/6 2276/1/6 2287/1/6
f 2287/1/6 2276/1/6 2288/1/6
f 2288/1/6 2276/1/6 2289/1/6
f 2289/1/6 2276/1/6 2290/1/6
f 2290/1/6 2276/1/6 2291/1/6
f 2291/1/6 2276/1/6 2292/1/6
f 2293/1/6 2294/1/6 2297/1/6
f 2295/1/6 2296/1/6 2297/1/6
f 2294/1/6 2295/1/6 2297/1/6
f 2297/1/6 2296/1/6 2298/1/6
f 2298/1/6 2296/1/6 2299/1/6
f 2299/1/6 2296/1/6 2300/1/6
f 2300/1/6 2296/1/6 2301/1/6
f 2301/1/6 2296/1/6 2302/1/6
f 2302/1/6 2296/1/6 2303/1/6
f 2303/1/6 2296/1/6 2304/1/6
f 2304/1/6 2296/1/6 2305/1/6
f 2305/1/6 2296/1/6 2306/1/6
f 2306/1/6 2296/1/6 2307/1/6
f 2307/1/6 2296/1/6 2308/1/6
f 2308/1/6 2296/1/6 2309/1/6
f 2309/1/6 2296/1/6 2310/1/6
f 2310/1/6 2296/1/6 2311/1/6
f 2311/1/6 2296/1/6 2312/1/6
f 2313/1/6 2314/1/6 2317/1/6
f 2315/1/6 2316/1/6 2317/1/6
f 2314/1/6 2315/1/6 2317/1/6
f 2317/1/6 2316/1/6 2318/1/6
f 2318/1/6 2316/1/6 2319/1/6
f 2319/1/6 2316/1/6 2320/1/6
f 2320/1/6 2316/1/6 2321/1/6
f 2321/1/6 2316/1/6 2322/1/6
f 2322/1/6 2316/1/6 2323/1/6
f 2323/1/6 2316/1/6 2324/1/6
f 2324/1/6 2316/1/6 2325/1/6
f 2325/1/6 2316/1/6 2326/1/6
f 2326/1/6 2316/1/6 2327/1/6
f 2327/1/6 2316/1/6 2328/1/6
f 2328/1/6 2316/1/6 2329/1/6
f 2329/1/6 2316/1/6 2330/1/6
f 2330/1/6 2316/1/6 2331/1/6
f 2331/1/6 2316/1/6 2332/1/6
f 2333/1/6 2334/1/6 2337/1/6
f 2335/1/6 2336/1/6 2337/1/6
f 2334/1/6 2335/1/6 2337/1/6
f 2337/1/6 2336/1/6 2338/1/6
f 2338/1/6 2336/1/6 2339/1/6
f 2339/1/6 2336/1/6 2340/1/6
f 2340/1/6 2336/1/6 2341/1/6
f 2341/1/6 2336/1/6 2342/1/6
f 2342/1/6 2336/1/6 2343/1/6
f 2343/1/6 2336/1/6 2344/1/6
f 2344/1/6 2336/1/6 2345/1/6
f 2345/1/6 2336/1/6 2346/1/6
f 2346/1/6 2336/1/6 2347/1/6
f 2347/1/6 2336/1/6 2348/1/6
f 2348/1/6 2336/1/6 2349/1/6
f 2349/1/6 2336/1/6 2350/1/6
f 2350/1/6 2336/1/6 2351/1/6
f 2351/1/6 2336/1/6 2352/1/6
f 2353/1/6 2354/1/6 2357/1/6
f 2355/1/6 2356/1/6 2357/1/6
f 2354/1/6 2355/1/6 2357/1/6
f 2357/1/6 2356/1/6 2358/1/6
f 2358/1/6 2356/1/6 2359/1/6
f 2359/1/6 2356/1/6 2360/1/6
f 2360/1/6 2356/1/6 2361/1/6
f 2361/1/6 2356/1/6 2362/1/6
f 2362/1/6 2356/1/6 2363/1/6
f 2363/1/6 2356/1/6 2364/1/6
f 2364/1/6 2356/1/6 2365/1/6
f 2365/1/6 2356/1/6 2366/1/6
f 2366/1/6 2356/1/6 2367/1/6
f 2367/1/6 2356/1/6 2368/1/6
f 2368/1/6 2356/1/6 2369/1/6
f 2369/1/6 2356/1/6 2370/1/6
f 2370/1/6 2356/1/6 2371/1/6
f 2371/1/6 2356/1/6 2372/1/6
f 2373/1/6 2374/1/6 2377/1/6
f 2375/1/6 2376/1/6 2377/1/6
f 2374/1/6 2375/1/6 2377/1/6
f 2377/1/6 2376/1/6 2378/1/6
f 2378/1/6 2376/1/6 2379/1/6
f 2379/1/6 2376/1/6 2380/1/6
f 2380/1/6 2376/1/6 2381/1/6
f 2381/1/6 2376/1/6 2382/1/6
f 2382/1/6 2376/1/6 2383/1/6
f 2383/1/6 2376/1/6 2384/1/6
f 2384/1/6 2376/1/6 2385/1/6
f 2385/1/6 2376/1/6 2386/1/6
f 2386/1/6 2376/1/6 2387/1/6
f 2387/1/6 2376/1/6 2388/1/6
f 2388/1/6 2376/1/6 2389/1/6
f 2389/1/6 2376/1/6 2390/1/6
f 2390/1/6 2376/1/6 2391/1/6
f 2391/1/6 2376/1/6 2392/1/6
f 2393/1/6 2394/1/6 2397/1/6
f 2395/1/6 2396/1/6 2397/1/6
f 2394/1/6 2395/1/6 2397/1/6
f 2397/1/6 2396/1/6 2398/1/6
f 2398/1/6 2396/1/6 2399/1/6
f 2399/1/6 2396/1/6 2400/1/6
f 2400/1/6 2396/1/6 2401/1/6
f 2401/1/6 2396/1/6 2402/1/6
f 2402/1/6 2396/1/6 2403/1/6
f 2403/1/6 2396/1/6 2404/1/6
f 2404/1/6 2396/1/6 2405/1/6
f 2405/1/6 2396/1/6 2406/1/6
f 2406/1/6 2396/1/6 2407/1/6
f 2407/1/6 2396/1/6 2408/1/6
f 2408/1/6 2396/1/6 2409/1/6
f 2409/1/6 2396/1/6 2410/1/6
f 2410/1/6 2396/1/6 2411/1/6
f 2411/1/6 2396/1/6 2412/1/6
f 2413/1/6 2414/1/6 2417/1/6
f 2415/1/6 2416/1/6 2417/1/6
f 2414/1/6 2415/1/6 2417/1/6
f 2417/1/6 2416/1/6 2418/1/6
f 2418/1/6 2416/1/6 2419/1/6
f 2419/1/6 2416/1/6 2420/1/6
f 2420/1/6 2416/1/6 2421/1/6
f 2421/1/6 2416/1/6 2422/1/6
f 2422/1/6 2416/1/6 2423/1/6
f 2423/1/6 2416/1/6 2424/1/6
f 2424/1/6 2416/1/6 2425/1/6
f 2425/1/6 2416/1/6 2426/1/6
f 2426/1/6 2416/1/6 2427/1/6
f 2427/1/6 2416/1/6 2428/1/6
f 2428/1/6 2416/1/6 2429/1/6
f 2429/1/6 2416/1/6 2430/1/6
f 2430/1/6 2416/1/6 2431/1/6
f 2431/1/6 2416/1/6 2432/1/6
f 2433/1/6 2434/1/6 2437/1/6
f 2435/1/6 2436/1/6 2437/1/6
f 2434/1/6 2435/1/6 2437/1/6
f 2437/1/6 2436/1/6 2438/1/6
f 2438/1/6 2436/1/6 2439/1/6
f 2439/1/6 2436/1/6 2440/1/6
f 2440/1/6 2436/1/6 2441/1/6
f 2441/1/6 2436/1/6 2442/1/6
f 2442/1/6 2436/1/6 2443/1/6
f 2443/1/6 2436/1/6 2444/1/6
f 2444/1/6 2436/1/6 2445/1/6
f 2445/1/6 2436/1/6 2446/1/6
f 2446/1/6 2436/1/6 2447/1/6
f 2447/1/6 2436/1/6 2448/1/6
f 2448/1/6 2436/1/6 2449/1/6
f 2449/1/6 2436/1/6 2450/1/6
f 2450/1/6 2436/1/6 2451/1/6
f 2451/1/6 2436/1/6 2452/1/6
f 2453/1/6 2454/1/6 2457/1/6
f 2455/1/6 2456/1/6 2457/1/6
f 2454/1/6 2455/1/6 2457/1/6
f 2457/1/6 2456/1/6 2458/1/6
f 2458/1/6 2456/1/6 2459/1/6
f 2459/1/6 2456/1/6 2460/1/6
f 2460/1/6 2456/1/6 2461/1/6
f 2461/1/6 2456/1/6 2462/1/6
f 2462/1/6 2456/1/6 2463/1/6
f 2463/1/6 2456/1/6 2464/1/6
f 2464/1/6 2456/1/6 2465/1/6
f 2465/1/6 2456/1/6 2466/1/6
f 2466/1/6 2456/1/6 2467/1/6
f 2467/1/6 2456/1/6 2468/1/6
f 2468/1/6 2456/1/6 2469/1/6
f 2469/1/6 2456/1/6 2470/1/6
f 2470/1/6 2456/1/6 2471/1/6
f 2471/1/6 2456/1/6 2472/1/6
f 2473/1/6 2474/1/6 2477/1/6
f 2475/1/6 2476/1/6 2477/1/6
f 2474/1/6 2475/1/6 2477/1/6
f 2477/1/6 2476/1/6 2478/1/6
f 2478/1/6 2476/1/6 2479/1/6
f 2479/1/6 2476/1/6 2480/1/6
f 2480/1/6 2476/1/6 2481/1/6
f 2481/1/6 2476/1/6 2482/1/6
f 2482/1/6 2476/1/6 2483/1/6
f 2483/1/6 2476/1/6 2484/1/6
f 2484/1/6 2476/1/6 2485/1/6
f 2485/1/6 2476/1/6 2486/1/6
f 2486/1/6 2476/1/6 2487/1/6
f 2487/1/6 2476/1/6 2488/1/6
f 2488/1/6 2476/1/6 2489/1/6
f 2489/1/6 2476/1/6 2490/1/6
f 2490/1/6 2476/1/6 2491/1/6
f 2491/1/6 2476/1/6 2492/1/6
f 2493/1/6 2494/1/6 2497/1/6
f 2495/1/6 2496/1/6 2497/1/6
f 2494/1/6 2495/1/6 2497/1/6
f 2497/1/6 2496/1/6 2498/1/6
f 2498/1/6 2496/1/6 2499/1/6
f 2499/1/6 2496/1/6 2500/1/6
f 2500/1/6 2496/1/6 2501/1/6
f 2501/1/6 2496/1/6 2502/1/6
f 2502/1/6 2496/1/6 2503/1/6
f 2503/1/6 2496/1/6 2504/1/6
f 2504/1/6 2496/1/6 2505/1/6
f 2505/1/6 2496/1/6 2506/1/6
f 2506/1/6 2496/1/6 2507/1/6
f 2507/1/6 2496/1/6 2508/1/6
f 2508/1/6 2496/1/6 2509/1/6
f 2509/1/6 2496/1/6 2510/1/6
f 2510/1/6 2496/1/6 2511/1/6
f 2511/1/6 2496/1/6 2512/1/6
f 2513/1/6 2514/1/6 2517/1/6
f 2515/1/6 2516/1/6 2517/1/6
f 2514/1/6 2515/1/6 2517/1/6
f 2517/1/6 2516/1/6 2518/1/6
f 2518/1/6 2516/1/6 2519/1/6
f 2519/1/6 2516/1/6 2520/1/6
f 2520/1/6 2516/1/6 2521/1/6
f 2521/1/6 2516/1/6 2522/1/6
f 2522/1/6 2516/1/6 2523/1/6
f 2523/1/6 2516/1/6 2524/1/6
f 2524/1/6 2516/1/6 2525/1/6
f 2525/1/6 2516/1/6 2526/1/6
f 2526/1/6 2516/1/6 2527/1/6
f 2527/1/6 2516/1/6 2528/1/6
f 2528/1/6 2516/1/6 2529/1/6
f 2529/1/6 2516/1/6 2530/1/6
f 2530/1/6 2516/1/6 2531/1/6
f 2531/1/6 2516/1/6 2532/1/6
f 2533/2/6 2534/2/6 2535/2/6
f 2535/2/6 2534/2/6 2536/2/6
f 2537/2/6 2538/2/6 2539/2/6
f 2539/2/6 2538/2/6 2540/2/6
