# MagicaVoxel @ Ephtracy

# group
o window-brick-31x25x7

# material
mtllib components-25-window-brick-31x25x7.mtl
usemtl palette

# normals
vn -1 0 0
vn 1 0 0
vn 0 0 1
vn 0 0 -1
vn 0 -1 0
vn 0 1 0

# texcoords
vt 0.00195313 0.5
vt 0.251953 0.5
vt 0.345703 0.5
vt 0.376953 0.5
vt 0.380859 0.5
vt 0.384766 0.5
vt 0.994141 0.5

# verts
v -1.5 0 11.5
v -1.5 0 10.8
v -1.5 0.2 11.5
v -1.5 0.2 11.4
v -1.5 0.2 10.9
v -1.5 0.2 10.8
v -1.5 0.3 11.5
v -1.5 0.3 11.4
v -1.5 0.3 10.9
v -1.5 0.3 10.8
v -1.5 0.6 11.5
v -1.5 0.6 11.4
v -1.5 0.6 10.9
v -1.5 0.6 10.8
v -1.5 0.7 11.5
v -1.5 0.7 11.4
v -1.5 0.7 10.9
v -1.5 0.7 10.8
v -1.5 1 11.5
v -1.5 1 11.4
v -1.5 1 10.9
v -1.5 1 10.8
v -1.5 1.1 11.5
v -1.5 1.1 11.4
v -1.5 1.1 10.9
v -1.5 1.1 10.8
v -1.5 1.4 11.5
v -1.5 1.4 11.4
v -1.5 1.4 10.9
v -1.5 1.4 10.8
v -1.5 1.5 11.5
v -1.5 1.5 11.4
v -1.5 1.5 10.9
v -1.5 1.5 10.8
v -1.5 1.8 11.5
v -1.5 1.8 11.4
v -1.5 1.8 10.9
v -1.5 1.8 10.8
v -1.5 1.9 11.5
v -1.5 1.9 11.4
v -1.5 1.9 10.9
v -1.5 1.9 10.8
v -1.5 2.2 11.5
v -1.5 2.2 11.4
v -1.5 2.2 10.9
v -1.5 2.2 10.8
v -1.5 2.3 11.5
v -1.5 2.3 11.4
v -1.5 2.3 10.9
v -1.5 2.3 10.8
v -1.5 2.5 11.5
v -1.5 2.5 10.8
v -1.4 1.4 10.9
v -1.4 1.4 10.8
v -1.4 1.5 10.9
v -1.4 1.5 10.8
v 1.6 0 11.5
v 1.6 0 10.8
v 1.6 0.2 11.5
v 1.6 0.2 11.4
v 1.6 0.2 10.9
v 1.6 0.2 10.8
v 1.6 0.3 11.5
v 1.6 0.3 11.4
v 1.6 0.3 10.9
v 1.6 0.3 10.8
v 1.6 0.6 11.5
v 1.6 0.6 11.4
v 1.6 0.6 10.9
v 1.6 0.6 10.8
v 1.6 0.7 11.5
v 1.6 0.7 11.4
v 1.6 0.7 10.9
v 1.6 0.7 10.8
v 1.6 1 11.5
v 1.6 1 11.4
v 1.6 1 10.9
v 1.6 1 10.8
v 1.6 1.1 11.5
v 1.6 1.1 11.4
v 1.6 1.1 10.9
v 1.6 1.1 10.8
v 1.6 1.4 11.5
v 1.6 1.4 11.4
v 1.6 1.4 10.9
v 1.6 1.4 10.8
v 1.6 1.5 11.5
v 1.6 1.5 11.4
v 1.6 1.5 10.9
v 1.6 1.5 10.8
v 1.6 1.8 11.5
v 1.6 1.8 11.4
v 1.6 1.8 10.9
v 1.6 1.8 10.8
v 1.6 1.9 11.5
v 1.6 1.9 11.4
v 1.6 1.9 10.9
v 1.6 1.9 10.8
v 1.6 2.2 11.5
v 1.6 2.2 11.4
v 1.6 2.2 10.9
v 1.6 2.2 10.8
v 1.6 2.3 11.5
v 1.6 2.3 11.4
v 1.6 2.3 10.9
v 1.6 2.3 10.8
v 1.6 2.5 11.5
v 1.6 2.5 10.8
v -1.5 0 11.5
v -1.5 0.2 11.5
v -1.5 0.3 11.5
v -1.5 0.6 11.5
v -1.5 0.7 11.5
v -1.5 1 11.5
v -1.5 1.1 11.5
v -1.5 1.4 11.5
v -1.5 1.5 11.5
v -1.5 1.8 11.5
v -1.5 1.9 11.5
v -1.5 2.2 11.5
v -1.5 2.3 11.5
v -1.5 2.5 11.5
v -1.3 0.3 11.5
v -1.3 0.6 11.5
v -1.3 0.7 11.5
v -1.3 1 11.5
v -1.3 1.1 11.5
v -1.3 1.4 11.5
v -1.3 1.5 11.5
v -1.3 1.8 11.5
v -1.3 1.9 11.5
v -1.3 2.2 11.5
v -1.2 0 11.5
v -1.2 0.2 11.5
v -1.2 2.3 11.5
v -1.2 2.5 11.5
v -1.1 0 11.5
v -1.1 0.2 11.5
v -1.1 2.3 11.5
v -1.1 2.5 11.5
v -0.8 0 11.5
v -0.8 0.2 11.5
v -0.8 2.3 11.5
v -0.8 2.5 11.5
v -0.7 0 11.5
v -0.7 0.2 11.5
v -0.7 2.3 11.5
v -0.7 2.5 11.5
v -0.4 0 11.5
v -0.4 0.2 11.5
v -0.4 2.3 11.5
v -0.4 2.5 11.5
v -0.3 0 11.5
v -0.3 0.2 11.5
v -0.3 2.3 11.5
v -0.3 2.5 11.5
v 0 0 11.5
v 0 0.2 11.5
v 0 2.3 11.5
v 0 2.5 11.5
v 0.1 0 11.5
v 0.1 0.2 11.5
v 0.1 2.3 11.5
v 0.1 2.5 11.5
v 0.4 0 11.5
v 0.4 0.2 11.5
v 0.4 2.3 11.5
v 0.4 2.5 11.5
v 0.5 0 11.5
v 0.5 0.2 11.5
v 0.5 2.3 11.5
v 0.5 2.5 11.5
v 0.8 0 11.5
v 0.8 0.2 11.5
v 0.8 2.3 11.5
v 0.8 2.5 11.5
v 0.9 0 11.5
v 0.9 0.2 11.5
v 0.9 2.3 11.5
v 0.9 2.5 11.5
v 1.2 0 11.5
v 1.2 0.2 11.5
v 1.2 2.3 11.5
v 1.2 2.5 11.5
v 1.3 0 11.5
v 1.3 0.2 11.5
v 1.3 2.3 11.5
v 1.3 2.5 11.5
v 1.4 0.3 11.5
v 1.4 0.6 11.5
v 1.4 0.7 11.5
v 1.4 1 11.5
v 1.4 1.1 11.5
v 1.4 1.4 11.5
v 1.4 1.5 11.5
v 1.4 1.8 11.5
v 1.4 1.9 11.5
v 1.4 2.2 11.5
v 1.6 0 11.5
v 1.6 0.2 11.5
v 1.6 0.3 11.5
v 1.6 0.6 11.5
v 1.6 0.7 11.5
v 1.6 1 11.5
v 1.6 1.1 11.5
v 1.6 1.4 11.5
v 1.6 1.5 11.5
v 1.6 1.8 11.5
v 1.6 1.9 11.5
v 1.6 2.2 11.5
v 1.6 2.3 11.5
v 1.6 2.5 11.5
v -1.5 1.4 10.9
v -1.5 1.5 10.9
v -1.4 1.4 10.9
v -1.4 1.5 10.9
v -1.5 0 10.8
v -1.5 0.2 10.8
v -1.5 0.3 10.8
v -1.5 0.6 10.8
v -1.5 0.7 10.8
v -1.5 1 10.8
v -1.5 1.1 10.8
v -1.5 1.4 10.8
v -1.5 1.5 10.8
v -1.5 1.8 10.8
v -1.5 1.9 10.8
v -1.5 2.2 10.8
v -1.5 2.3 10.8
v -1.5 2.5 10.8
v -1.4 1.4 10.8
v -1.4 1.5 10.8
v -1.3 0.3 10.8
v -1.3 0.6 10.8
v -1.3 0.7 10.8
v -1.3 1 10.8
v -1.3 1.1 10.8
v -1.3 1.5 10.8
v -1.3 1.8 10.8
v -1.3 1.9 10.8
v -1.3 2.2 10.8
v -1.2 0 10.8
v -1.2 0.2 10.8
v -1.2 2.3 10.8
v -1.2 2.5 10.8
v -1.1 0 10.8
v -1.1 0.2 10.8
v -1.1 2.3 10.8
v -1.1 2.5 10.8
v -0.8 0 10.8
v -0.8 0.2 10.8
v -0.8 2.3 10.8
v -0.8 2.5 10.8
v -0.7 0 10.8
v -0.7 0.2 10.8
v -0.7 2.3 10.8
v -0.7 2.5 10.8
v -0.4 0 10.8
v -0.4 0.2 10.8
v -0.4 2.3 10.8
v -0.4 2.5 10.8
v -0.3 0 10.8
v -0.3 0.2 10.8
v -0.3 2.3 10.8
v -0.3 2.5 10.8
v 0 0 10.8
v 0 0.2 10.8
v 0 2.3 10.8
v 0 2.5 10.8
v 0.1 0 10.8
v 0.1 0.2 10.8
v 0.1 2.3 10.8
v 0.1 2.5 10.8
v 0.4 0 10.8
v 0.4 0.2 10.8
v 0.4 2.3 10.8
v 0.4 2.5 10.8
v 0.5 0 10.8
v 0.5 0.2 10.8
v 0.5 2.3 10.8
v 0.5 2.5 10.8
v 0.8 0 10.8
v 0.8 0.2 10.8
v 0.8 2.3 10.8
v 0.8 2.5 10.8
v 0.9 0 10.8
v 0.9 0.2 10.8
v 0.9 2.3 10.8
v 0.9 2.5 10.8
v 1.2 0 10.8
v 1.2 0.2 10.8
v 1.2 2.3 10.8
v 1.2 2.5 10.8
v 1.3 0 10.8
v 1.3 0.2 10.8
v 1.3 2.3 10.8
v 1.3 2.5 10.8
v 1.4 0.3 10.8
v 1.4 0.6 10.8
v 1.4 0.7 10.8
v 1.4 1 10.8
v 1.4 1.1 10.8
v 1.4 1.4 10.8
v 1.4 1.5 10.8
v 1.4 1.8 10.8
v 1.4 1.9 10.8
v 1.4 2.2 10.8
v 1.6 0 10.8
v 1.6 0.2 10.8
v 1.6 0.3 10.8
v 1.6 0.6 10.8
v 1.6 0.7 10.8
v 1.6 1 10.8
v 1.6 1.1 10.8
v 1.6 1.4 10.8
v 1.6 1.5 10.8
v 1.6 1.8 10.8
v 1.6 1.9 10.8
v 1.6 2.2 10.8
v 1.6 2.3 10.8
v 1.6 2.5 10.8
v -1.5 0 11.5
v -1.2 0 11.5
v -1.1 0 11.5
v -0.8 0 11.5
v -0.7 0 11.5
v -0.4 0 11.5
v -0.3 0 11.5
v 0 0 11.5
v 0.1 0 11.5
v 0.4 0 11.5
v 0.5 0 11.5
v 0.8 0 11.5
v 0.9 0 11.5
v 1.2 0 11.5
v 1.3 0 11.5
v 1.6 0 11.5
v -1.2 0 11.4
v -1.1 0 11.4
v -0.8 0 11.4
v -0.7 0 11.4
v -0.4 0 11.4
v -0.3 0 11.4
v 0 0 11.4
v 0.1 0 11.4
v 0.4 0 11.4
v 0.5 0 11.4
v 0.8 0 11.4
v 0.9 0 11.4
v 1.2 0 11.4
v 1.3 0 11.4
v -1.2 0 10.9
v -1.1 0 10.9
v -0.8 0 10.9
v -0.7 0 10.9
v -0.4 0 10.9
v -0.3 0 10.9
v 0 0 10.9
v 0.1 0 10.9
v 0.4 0 10.9
v 0.5 0 10.9
v 0.8 0 10.9
v 0.9 0 10.9
v 1.2 0 10.9
v 1.3 0 10.9
v -1.5 0 10.8
v -1.2 0 10.8
v -1.1 0 10.8
v -0.8 0 10.8
v -0.7 0 10.8
v -0.4 0 10.8
v -0.3 0 10.8
v 0 0 10.8
v 0.1 0 10.8
v 0.4 0 10.8
v 0.5 0 10.8
v 0.8 0 10.8
v 0.9 0 10.8
v 1.2 0 10.8
v 1.3 0 10.8
v 1.6 0 10.8
v -1.5 1.5 10.9
v -1.4 1.5 10.9
v -1.5 1.5 10.8
v -1.4 1.5 10.8
v -1.5 1.4 10.9
v -1.4 1.4 10.9
v -1.5 1.4 10.8
v -1.4 1.4 10.8
v -1.5 2.5 11.5
v -1.2 2.5 11.5
v -1.1 2.5 11.5
v -0.8 2.5 11.5
v -0.7 2.5 11.5
v -0.4 2.5 11.5
v -0.3 2.5 11.5
v 0 2.5 11.5
v 0.1 2.5 11.5
v 0.4 2.5 11.5
v 0.5 2.5 11.5
v 0.8 2.5 11.5
v 0.9 2.5 11.5
v 1.2 2.5 11.5
v 1.3 2.5 11.5
v 1.6 2.5 11.5
v -1.2 2.5 11.4
v -1.1 2.5 11.4
v -0.8 2.5 11.4
v -0.7 2.5 11.4
v -0.4 2.5 11.4
v -0.3 2.5 11.4
v 0 2.5 11.4
v 0.1 2.5 11.4
v 0.4 2.5 11.4
v 0.5 2.5 11.4
v 0.8 2.5 11.4
v 0.9 2.5 11.4
v 1.2 2.5 11.4
v 1.3 2.5 11.4
v -1.2 2.5 10.9
v -1.1 2.5 10.9
v -0.8 2.5 10.9
v -0.7 2.5 10.9
v -0.4 2.5 10.9
v -0.3 2.5 10.9
v 0 2.5 10.9
v 0.1 2.5 10.9
v 0.4 2.5 10.9
v 0.5 2.5 10.9
v 0.8 2.5 10.9
v 0.9 2.5 10.9
v 1.2 2.5 10.9
v 1.3 2.5 10.9
v -1.5 2.5 10.8
v -1.2 2.5 10.8
v -1.1 2.5 10.8
v -0.8 2.5 10.8
v -0.7 2.5 10.8
v -0.4 2.5 10.8
v -0.3 2.5 10.8
v 0 2.5 10.8
v 0.1 2.5 10.8
v 0.4 2.5 10.8
v 0.5 2.5 10.8
v 0.8 2.5 10.8
v 0.9 2.5 10.8
v 1.2 2.5 10.8
v 1.3 2.5 10.8
v 1.6 2.5 10.8

# faces
f 3/4/1 2/4/1 1/4/1
f 4/4/1 2/4/1 3/4/1
f 5/4/1 2/4/1 4/4/1
f 6/4/1 2/4/1 5/4/1
f 7/7/1 4/7/1 3/7/1
f 8/3/1 5/3/1 4/3/1
f 8/7/1 4/7/1 7/7/1
f 9/7/1 6/7/1 5/7/1
f 9/3/1 5/3/1 8/3/1
f 10/7/1 6/7/1 9/7/1
f 11/4/1 8/4/1 7/4/1
f 11/4/1 9/4/1 8/4/1
f 11/4/1 10/4/1 9/4/1
f 12/4/1 10/4/1 11/4/1
f 13/4/1 10/4/1 12/4/1
f 14/4/1 10/4/1 13/4/1
f 15/7/1 12/7/1 11/7/1
f 16/3/1 13/3/1 12/3/1
f 16/7/1 12/7/1 15/7/1
f 17/7/1 14/7/1 13/7/1
f 17/3/1 13/3/1 16/3/1
f 18/7/1 14/7/1 17/7/1
f 19/6/1 16/6/1 15/6/1
f 19/6/1 17/6/1 16/6/1
f 19/6/1 18/6/1 17/6/1
f 20/6/1 18/6/1 19/6/1
f 21/6/1 18/6/1 20/6/1
f 22/6/1 18/6/1 21/6/1
f 23/7/1 20/7/1 19/7/1
f 24/3/1 21/3/1 20/3/1
f 24/7/1 20/7/1 23/7/1
f 25/7/1 22/7/1 21/7/1
f 25/3/1 21/3/1 24/3/1
f 26/7/1 22/7/1 25/7/1
f 27/4/1 24/4/1 23/4/1
f 27/4/1 25/4/1 24/4/1
f 27/4/1 26/4/1 25/4/1
f 28/4/1 26/4/1 27/4/1
f 29/4/1 26/4/1 28/4/1
f 30/4/1 26/4/1 29/4/1
f 31/7/1 28/7/1 27/7/1
f 32/3/1 29/3/1 28/3/1
f 32/7/1 28/7/1 31/7/1
f 33/3/1 29/3/1 32/3/1
f 35/6/1 32/6/1 31/6/1
f 35/6/1 34/6/1 33/6/1
f 35/6/1 33/6/1 32/6/1
f 36/6/1 34/6/1 35/6/1
f 37/6/1 34/6/1 36/6/1
f 38/6/1 34/6/1 37/6/1
f 39/7/1 36/7/1 35/7/1
f 40/3/1 37/3/1 36/3/1
f 40/7/1 36/7/1 39/7/1
f 41/7/1 38/7/1 37/7/1
f 41/3/1 37/3/1 40/3/1
f 42/7/1 38/7/1 41/7/1
f 43/4/1 40/4/1 39/4/1
f 43/4/1 41/4/1 40/4/1
f 43/4/1 42/4/1 41/4/1
f 44/4/1 42/4/1 43/4/1
f 45/4/1 42/4/1 44/4/1
f 46/4/1 42/4/1 45/4/1
f 47/7/1 44/7/1 43/7/1
f 48/3/1 45/3/1 44/3/1
f 48/7/1 44/7/1 47/7/1
f 49/7/1 46/7/1 45/7/1
f 49/3/1 45/3/1 48/3/1
f 50/7/1 46/7/1 49/7/1
f 51/4/1 48/4/1 47/4/1
f 51/4/1 49/4/1 48/4/1
f 51/4/1 50/4/1 49/4/1
f 52/4/1 50/4/1 51/4/1
f 55/4/1 54/4/1 53/4/1
f 56/4/1 54/4/1 55/4/1
f 57/4/2 58/4/2 59/4/2
f 59/4/2 58/4/2 60/4/2
f 60/4/2 58/4/2 61/4/2
f 61/4/2 58/4/2 62/4/2
f 59/7/2 60/7/2 63/7/2
f 60/3/2 61/3/2 64/3/2
f 63/7/2 60/7/2 64/7/2
f 61/7/2 62/7/2 65/7/2
f 64/3/2 61/3/2 65/3/2
f 65/7/2 62/7/2 66/7/2
f 63/6/2 64/6/2 67/6/2
f 64/6/2 65/6/2 67/6/2
f 65/6/2 66/6/2 67/6/2
f 67/6/2 66/6/2 68/6/2
f 68/6/2 66/6/2 69/6/2
f 69/6/2 66/6/2 70/6/2
f 67/7/2 68/7/2 71/7/2
f 68/3/2 69/3/2 72/3/2
f 71/7/2 68/7/2 72/7/2
f 69/7/2 70/7/2 73/7/2
f 72/3/2 69/3/2 73/3/2
f 73/7/2 70/7/2 74/7/2
f 71/5/2 72/5/2 75/5/2
f 72/5/2 73/5/2 75/5/2
f 73/5/2 74/5/2 75/5/2
f 75/5/2 74/5/2 76/5/2
f 76/5/2 74/5/2 77/5/2
f 77/5/2 74/5/2 78/5/2
f 75/7/2 76/7/2 79/7/2
f 76/3/2 77/3/2 80/3/2
f 79/7/2 76/7/2 80/7/2
f 77/7/2 78/7/2 81/7/2
f 80/3/2 77/3/2 81/3/2
f 81/7/2 78/7/2 82/7/2
f 79/4/2 80/4/2 83/4/2
f 80/4/2 81/4/2 83/4/2
f 81/4/2 82/4/2 83/4/2
f 83/4/2 82/4/2 84/4/2
f 84/4/2 82/4/2 85/4/2
f 85/4/2 82/4/2 86/4/2
f 83/7/2 84/7/2 87/7/2
f 84/3/2 85/3/2 88/3/2
f 87/7/2 84/7/2 88/7/2
f 85/7/2 86/7/2 89/7/2
f 88/3/2 85/3/2 89/3/2
f 89/7/2 86/7/2 90/7/2
f 87/5/2 88/5/2 91/5/2
f 88/5/2 89/5/2 91/5/2
f 89/5/2 90/5/2 91/5/2
f 91/5/2 90/5/2 92/5/2
f 92/5/2 90/5/2 93/5/2
f 93/5/2 90/5/2 94/5/2
f 91/7/2 92/7/2 95/7/2
f 92/3/2 93/3/2 96/3/2
f 95/7/2 92/7/2 96/7/2
f 93/7/2 94/7/2 97/7/2
f 96/3/2 93/3/2 97/3/2
f 97/7/2 94/7/2 98/7/2
f 95/4/2 96/4/2 99/4/2
f 96/4/2 97/4/2 99/4/2
f 97/4/2 98/4/2 99/4/2
f 99/4/2 98/4/2 100/4/2
f 100/4/2 98/4/2 101/4/2
f 101/4/2 98/4/2 102/4/2
f 99/7/2 100/7/2 103/7/2
f 100/3/2 101/3/2 104/3/2
f 103/7/2 100/7/2 104/7/2
f 101/7/2 102/7/2 105/7/2
f 104/3/2 101/3/2 105/3/2
f 105/7/2 102/7/2 106/7/2
f 103/4/2 104/4/2 107/4/2
f 104/4/2 105/4/2 107/4/2
f 105/4/2 106/4/2 107/4/2
f 107/4/2 106/4/2 108/4/2
f 123/7/3 111/7/3 110/7/3
f 123/4/3 112/4/3 111/4/3
f 124/7/3 113/7/3 112/7/3
f 124/4/3 112/4/3 123/4/3
f 125/6/3 114/6/3 113/6/3
f 125/7/3 113/7/3 124/7/3
f 126/7/3 115/7/3 114/7/3
f 126/6/3 114/6/3 125/6/3
f 127/4/3 116/4/3 115/4/3
f 127/7/3 115/7/3 126/7/3
f 128/7/3 117/7/3 116/7/3
f 128/4/3 116/4/3 127/4/3
f 129/6/3 118/6/3 117/6/3
f 129/7/3 117/7/3 128/7/3
f 130/7/3 119/7/3 118/7/3
f 130/6/3 118/6/3 129/6/3
f 131/4/3 120/4/3 119/4/3
f 131/7/3 119/7/3 130/7/3
f 132/7/3 121/7/3 120/7/3
f 132/4/3 120/4/3 131/4/3
f 133/4/3 110/4/3 109/4/3
f 134/7/3 131/7/3 130/7/3
f 134/4/3 110/4/3 133/4/3
f 134/7/3 123/7/3 110/7/3
f 134/7/3 132/7/3 131/7/3
f 134/7/3 130/7/3 129/7/3
f 134/7/3 129/7/3 128/7/3
f 134/7/3 128/7/3 127/7/3
f 134/7/3 127/7/3 126/7/3
f 134/7/3 126/7/3 125/7/3
f 134/7/3 125/7/3 124/7/3
f 134/7/3 124/7/3 123/7/3
f 135/7/3 121/7/3 132/7/3
f 135/7/3 132/7/3 134/7/3
f 135/4/3 122/4/3 121/4/3
f 136/4/3 122/4/3 135/4/3
f 137/7/3 134/7/3 133/7/3
f 137/7/3 135/7/3 134/7/3
f 137/7/3 136/7/3 135/7/3
f 138/7/3 136/7/3 137/7/3
f 139/7/3 136/7/3 138/7/3
f 140/7/3 136/7/3 139/7/3
f 141/5/3 138/5/3 137/5/3
f 142/7/3 139/7/3 138/7/3
f 142/5/3 138/5/3 141/5/3
f 143/5/3 140/5/3 139/5/3
f 143/7/3 139/7/3 142/7/3
f 144/5/3 140/5/3 143/5/3
f 145/7/3 142/7/3 141/7/3
f 145/7/3 143/7/3 142/7/3
f 145/7/3 144/7/3 143/7/3
f 146/7/3 144/7/3 145/7/3
f 147/7/3 144/7/3 146/7/3
f 148/7/3 144/7/3 147/7/3
f 149/4/3 146/4/3 145/4/3
f 150/7/3 147/7/3 146/7/3
f 150/4/3 146/4/3 149/4/3
f 151/6/3 148/6/3 147/6/3
f 151/7/3 147/7/3 150/7/3
f 152/6/3 148/6/3 151/6/3
f 153/7/3 150/7/3 149/7/3
f 153/7/3 151/7/3 150/7/3
f 153/7/3 152/7/3 151/7/3
f 154/7/3 152/7/3 153/7/3
f 155/7/3 152/7/3 154/7/3
f 156/7/3 152/7/3 155/7/3
f 157/4/3 154/4/3 153/4/3
f 158/7/3 155/7/3 154/7/3
f 158/4/3 154/4/3 157/4/3
f 159/4/3 156/4/3 155/4/3
f 159/7/3 155/7/3 158/7/3
f 160/4/3 156/4/3 159/4/3
f 161/7/3 158/7/3 157/7/3
f 161/7/3 159/7/3 158/7/3
f 161/7/3 160/7/3 159/7/3
f 162/7/3 160/7/3 161/7/3
f 163/7/3 160/7/3 162/7/3
f 164/7/3 160/7/3 163/7/3
f 165/5/3 162/5/3 161/5/3
f 166/7/3 163/7/3 162/7/3
f 166/5/3 162/5/3 165/5/3
f 167/4/3 164/4/3 163/4/3
f 167/7/3 163/7/3 166/7/3
f 168/4/3 164/4/3 167/4/3
f 169/7/3 166/7/3 165/7/3
f 169/7/3 167/7/3 166/7/3
f 169/7/3 168/7/3 167/7/3
f 170/7/3 168/7/3 169/7/3
f 171/7/3 168/7/3 170/7/3
f 172/7/3 168/7/3 171/7/3
f 173/4/3 170/4/3 169/4/3
f 174/7/3 171/7/3 170/7/3
f 174/4/3 170/4/3 173/4/3
f 175/5/3 172/5/3 171/5/3
f 175/7/3 171/7/3 174/7/3
f 176/5/3 172/5/3 175/5/3
f 177/7/3 174/7/3 173/7/3
f 177/7/3 175/7/3 174/7/3
f 177/7/3 176/7/3 175/7/3
f 178/7/3 176/7/3 177/7/3
f 179/7/3 176/7/3 178/7/3
f 180/7/3 176/7/3 179/7/3
f 181/4/3 178/4/3 177/4/3
f 182/7/3 179/7/3 178/7/3
f 182/4/3 178/4/3 181/4/3
f 183/4/3 180/4/3 179/4/3
f 183/7/3 179/7/3 182/7/3
f 184/4/3 180/4/3 183/4/3
f 185/7/3 182/7/3 181/7/3
f 185/7/3 183/7/3 182/7/3
f 185/7/3 184/7/3 183/7/3
f 186/7/3 184/7/3 185/7/3
f 187/7/3 184/7/3 186/7/3
f 188/7/3 184/7/3 187/7/3
f 189/7/3 187/7/3 186/7/3
f 190/7/3 187/7/3 189/7/3
f 191/7/3 187/7/3 190/7/3
f 192/7/3 187/7/3 191/7/3
f 193/7/3 187/7/3 192/7/3
f 194/7/3 187/7/3 193/7/3
f 195/7/3 187/7/3 194/7/3
f 196/7/3 187/7/3 195/7/3
f 197/7/3 187/7/3 196/7/3
f 198/7/3 187/7/3 197/7/3
f 199/4/3 186/4/3 185/4/3
f 200/7/3 189/7/3 186/7/3
f 200/4/3 186/4/3 199/4/3
f 201/6/3 190/6/3 189/6/3
f 201/7/3 189/7/3 200/7/3
f 202/7/3 191/7/3 190/7/3
f 202/6/3 190/6/3 201/6/3
f 203/5/3 192/5/3 191/5/3
f 203/7/3 191/7/3 202/7/3
f 204/7/3 193/7/3 192/7/3
f 204/5/3 192/5/3 203/5/3
f 205/4/3 194/4/3 193/4/3
f 205/7/3 193/7/3 204/7/3
f 206/7/3 195/7/3 194/7/3
f 206/4/3 194/4/3 205/4/3
f 207/5/3 196/5/3 195/5/3
f 207/7/3 195/7/3 206/7/3
f 208/7/3 197/7/3 196/7/3
f 208/5/3 196/5/3 207/5/3
f 209/4/3 198/4/3 197/4/3
f 209/7/3 197/7/3 208/7/3
f 210/7/3 187/7/3 198/7/3
f 210/4/3 198/4/3 209/4/3
f 211/4/3 188/4/3 187/4/3
f 211/7/3 187/7/3 210/7/3
f 212/4/3 188/4/3 211/4/3
f 213/3/4 214/3/4 215/3/4
f 215/3/4 214/3/4 216/3/4
f 223/4/4 224/4/4 231/4/4
f 225/6/4 226/6/4 232/6/4
f 218/7/4 219/7/4 233/7/4
f 219/4/4 220/4/4 233/4/4
f 220/7/4 221/7/4 234/7/4
f 233/4/4 220/4/4 234/4/4
f 221/6/4 222/6/4 235/6/4
f 234/7/4 221/7/4 235/7/4
f 222/7/4 223/7/4 236/7/4
f 235/6/4 222/6/4 236/6/4
f 231/4/4 232/4/4 237/4/4
f 236/7/4 223/7/4 237/7/4
f 223/4/4 231/4/4 237/4/4
f 232/6/4 226/6/4 238/6/4
f 237/4/4 232/4/4 238/4/4
f 226/7/4 227/7/4 239/7/4
f 238/6/4 226/6/4 239/6/4
f 227/4/4 228/4/4 240/4/4
f 239/7/4 227/7/4 240/7/4
f 228/7/4 229/7/4 241/7/4
f 240/4/4 228/4/4 241/4/4
f 217/4/4 218/4/4 242/4/4
f 235/7/4 236/7/4 243/7/4
f 242/4/4 218/4/4 243/4/4
f 236/7/4 237/7/4 243/7/4
f 240/7/4 241/7/4 243/7/4
f 239/7/4 240/7/4 243/7/4
f 238/7/4 239/7/4 243/7/4
f 237/7/4 238/7/4 243/7/4
f 218/7/4 233/7/4 243/7/4
f 233/7/4 234/7/4 243/7/4
f 234/7/4 235/7/4 243/7/4
f 241/7/4 229/7/4 244/7/4
f 243/7/4 241/7/4 244/7/4
f 229/4/4 230/4/4 244/4/4
f 244/4/4 230/4/4 245/4/4
f 242/7/4 243/7/4 246/7/4
f 243/7/4 244/7/4 246/7/4
f 244/7/4 245/7/4 246/7/4
f 246/7/4 245/7/4 247/7/4
f 247/7/4 245/7/4 248/7/4
f 248/7/4 245/7/4 249/7/4
f 246/5/4 247/5/4 250/5/4
f 247/7/4 248/7/4 251/7/4
f 250/5/4 247/5/4 251/5/4
f 248/5/4 249/5/4 252/5/4
f 251/7/4 248/7/4 252/7/4
f 252/5/4 249/5/4 253/5/4
f 250/7/4 251/7/4 254/7/4
f 251/7/4 252/7/4 254/7/4
f 252/7/4 253/7/4 254/7/4
f 254/7/4 253/7/4 255/7/4
f 255/7/4 253/7/4 256/7/4
f 256/7/4 253/7/4 257/7/4
f 254/4/4 255/4/4 258/4/4
f 255/7/4 256/7/4 259/7/4
f 258/4/4 255/4/4 259/4/4
f 256/6/4 257/6/4 260/6/4
f 259/7/4 256/7/4 260/7/4
f 260/6/4 257/6/4 261/6/4
f 258/7/4 259/7/4 262/7/4
f 259/7/4 260/7/4 262/7/4
f 260/7/4 261/7/4 262/7/4
f 262/7/4 261/7/4 263/7/4
f 263/7/4 261/7/4 264/7/4
f 264/7/4 261/7/4 265/7/4
f 262/4/4 263/4/4 266/4/4
f 263/7/4 264/7/4 267/7/4
f 266/4/4 263/4/4 267/4/4
f 264/4/4 265/4/4 268/4/4
f 267/7/4 264/7/4 268/7/4
f 268/4/4 265/4/4 269/4/4
f 266/7/4 267/7/4 270/7/4
f 267/7/4 268/7/4 270/7/4
f 268/7/4 269/7/4 270/7/4
f 270/7/4 269/7/4 271/7/4
f 271/7/4 269/7/4 272/7/4
f 272/7/4 269/7/4 273/7/4
f 270/5/4 271/5/4 274/5/4
f 271/7/4 272/7/4 275/7/4
f 274/5/4 271/5/4 275/5/4
f 272/4/4 273/4/4 276/4/4
f 275/7/4 272/7/4 276/7/4
f 276/4/4 273/4/4 277/4/4
f 274/7/4 275/7/4 278/7/4
f 275/7/4 276/7/4 278/7/4
f 276/7/4 277/7/4 278/7/4
f 278/7/4 277/7/4 279/7/4
f 279/7/4 277/7/4 280/7/4
f 280/7/4 277/7/4 281/7/4
f 278/4/4 279/4/4 282/4/4
f 279/7/4 280/7/4 283/7/4
f 282/4/4 279/4/4 283/4/4
f 280/5/4 281/5/4 284/5/4
f 283/7/4 280/7/4 284/7/4
f 284/5/4 281/5/4 285/5/4
f 282/7/4 283/7/4 286/7/4
f 283/7/4 284/7/4 286/7/4
f 284/7/4 285/7/4 286/7/4
f 286/7/4 285/7/4 287/7/4
f 287/7/4 285/7/4 288/7/4
f 288/7/4 285/7/4 289/7/4
f 286/4/4 287/4/4 290/4/4
f 287/7/4 288/7/4 291/7/4
f 290/4/4 287/4/4 291/4/4
f 288/4/4 289/4/4 292/4/4
f 291/7/4 288/7/4 292/7/4
f 292/4/4 289/4/4 293/4/4
f 290/7/4 291/7/4 294/7/4
f 291/7/4 292/7/4 294/7/4
f 292/7/4 293/7/4 294/7/4
f 294/7/4 293/7/4 295/7/4
f 295/7/4 293/7/4 296/7/4
f 296/7/4 293/7/4 297/7/4
f 295/7/4 296/7/4 298/7/4
f 298/7/4 296/7/4 299/7/4
f 299/7/4 296/7/4 300/7/4
f 300/7/4 296/7/4 301/7/4
f 301/7/4 296/7/4 302/7/4
f 302/7/4 296/7/4 303/7/4
f 303/7/4 296/7/4 304/7/4
f 304/7/4 296/7/4 305/7/4
f 305/7/4 296/7/4 306/7/4
f 306/7/4 296/7/4 307/7/4
f 294/4/4 295/4/4 308/4/4
f 295/7/4 298/7/4 309/7/4
f 308/4/4 295/4/4 309/4/4
f 298/6/4 299/6/4 310/6/4
f 309/7/4 298/7/4 310/7/4
f 299/7/4 300/7/4 311/7/4
f 310/6/4 299/6/4 311/6/4
f 300/5/4 301/5/4 312/5/4
f 311/7/4 300/7/4 312/7/4
f 301/7/4 302/7/4 313/7/4
f 312/5/4 301/5/4 313/5/4
f 302/4/4 303/4/4 314/4/4
f 313/7/4 302/7/4 314/7/4
f 303/7/4 304/7/4 315/7/4
f 314/4/4 303/4/4 315/4/4
f 304/5/4 305/5/4 316/5/4
f 315/7/4 304/7/4 316/7/4
f 305/7/4 306/7/4 317/7/4
f 316/5/4 305/5/4 317/5/4
f 306/4/4 307/4/4 318/4/4
f 317/7/4 306/7/4 318/7/4
f 307/7/4 296/7/4 319/7/4
f 318/4/4 307/4/4 319/4/4
f 296/4/4 297/4/4 320/4/4
f 319/7/4 296/7/4 320/7/4
f 320/4/4 297/4/4 321/4/4
f 338/4/5 323/4/5 322/4/5
f 338/7/5 324/7/5 323/7/5
f 339/5/5 325/5/5 324/5/5
f 339/7/5 324/7/5 338/7/5
f 340/7/5 326/7/5 325/7/5
f 340/5/5 325/5/5 339/5/5
f 341/4/5 327/4/5 326/4/5
f 341/7/5 326/7/5 340/7/5
f 342/7/5 328/7/5 327/7/5
f 342/4/5 327/4/5 341/4/5
f 343/4/5 329/4/5 328/4/5
f 343/7/5 328/7/5 342/7/5
f 344/7/5 330/7/5 329/7/5
f 344/4/5 329/4/5 343/4/5
f 345/5/5 331/5/5 330/5/5
f 345/7/5 330/7/5 344/7/5
f 346/7/5 332/7/5 331/7/5
f 346/5/5 331/5/5 345/5/5
f 347/4/5 333/4/5 332/4/5
f 347/7/5 332/7/5 346/7/5
f 348/7/5 334/7/5 333/7/5
f 348/4/5 333/4/5 347/4/5
f 349/4/5 335/4/5 334/4/5
f 349/7/5 334/7/5 348/7/5
f 350/7/5 336/7/5 335/7/5
f 350/4/5 335/4/5 349/4/5
f 351/4/5 337/4/5 336/4/5
f 351/7/5 336/7/5 350/7/5
f 352/4/5 338/4/5 322/4/5
f 352/3/5 339/3/5 338/3/5
f 353/5/5 340/5/5 339/5/5
f 353/3/5 339/3/5 352/3/5
f 354/3/5 341/3/5 340/3/5
f 354/5/5 340/5/5 353/5/5
f 355/4/5 342/4/5 341/4/5
f 355/3/5 341/3/5 354/3/5
f 356/3/5 343/3/5 342/3/5
f 356/4/5 342/4/5 355/4/5
f 357/4/5 344/4/5 343/4/5
f 357/3/5 343/3/5 356/3/5
f 358/3/5 345/3/5 344/3/5
f 358/4/5 344/4/5 357/4/5
f 359/5/5 346/5/5 345/5/5
f 359/3/5 345/3/5 358/3/5
f 360/3/5 347/3/5 346/3/5
f 360/5/5 346/5/5 359/5/5
f 361/4/5 348/4/5 347/4/5
f 361/3/5 347/3/5 360/3/5
f 362/3/5 349/3/5 348/3/5
f 362/4/5 348/4/5 361/4/5
f 363/4/5 350/4/5 349/4/5
f 363/3/5 349/3/5 362/3/5
f 364/3/5 351/3/5 350/3/5
f 364/4/5 350/4/5 363/4/5
f 365/4/5 337/4/5 351/4/5
f 365/3/5 351/3/5 364/3/5
f 366/4/5 352/4/5 322/4/5
f 367/7/5 353/7/5 352/7/5
f 367/4/5 352/4/5 366/4/5
f 368/5/5 354/5/5 353/5/5
f 368/7/5 353/7/5 367/7/5
f 369/7/5 355/7/5 354/7/5
f 369/5/5 354/5/5 368/5/5
f 370/4/5 356/4/5 355/4/5
f 370/7/5 355/7/5 369/7/5
f 371/7/5 357/7/5 356/7/5
f 371/4/5 356/4/5 370/4/5
f 372/4/5 358/4/5 357/4/5
f 372/7/5 357/7/5 371/7/5
f 373/7/5 359/7/5 358/7/5
f 373/4/5 358/4/5 372/4/5
f 374/5/5 360/5/5 359/5/5
f 374/7/5 359/7/5 373/7/5
f 375/7/5 361/7/5 360/7/5
f 375/5/5 360/5/5 374/5/5
f 376/4/5 362/4/5 361/4/5
f 376/7/5 361/7/5 375/7/5
f 377/7/5 363/7/5 362/7/5
f 377/4/5 362/4/5 376/4/5
f 378/4/5 364/4/5 363/4/5
f 378/7/5 363/7/5 377/7/5
f 379/7/5 365/7/5 364/7/5
f 379/4/5 364/4/5 378/4/5
f 380/4/5 337/4/5 365/4/5
f 380/7/5 365/7/5 379/7/5
f 381/4/5 337/4/5 380/4/5
f 384/6/5 383/6/5 382/6/5
f 385/6/5 383/6/5 384/6/5
f 386/4/6 387/4/6 388/4/6
f 388/4/6 387/4/6 389/4/6
f 390/4/6 391/4/6 406/4/6
f 391/7/6 392/7/6 406/7/6
f 392/5/6 393/5/6 407/5/6
f 406/7/6 392/7/6 407/7/6
f 393/7/6 394/7/6 408/7/6
f 407/5/6 393/5/6 408/5/6
f 394/6/6 395/6/6 409/6/6
f 408/7/6 394/7/6 409/7/6
f 395/7/6 396/7/6 410/7/6
f 409/6/6 395/6/6 410/6/6
f 396/4/6 397/4/6 411/4/6
f 410/7/6 396/7/6 411/7/6
f 397/7/6 398/7/6 412/7/6
f 411/4/6 397/4/6 412/4/6
f 398/4/6 399/4/6 413/4/6
f 412/7/6 398/7/6 413/7/6
f 399/7/6 400/7/6 414/7/6
f 413/4/6 399/4/6 414/4/6
f 400/5/6 401/5/6 415/5/6
f 414/7/6 400/7/6 415/7/6
f 401/7/6 402/7/6 416/7/6
f 415/5/6 401/5/6 416/5/6
f 402/4/6 403/4/6 417/4/6
f 416/7/6 402/7/6 417/7/6
f 403/7/6 404/7/6 418/7/6
f 417/4/6 403/4/6 418/4/6
f 404/4/6 405/4/6 419/4/6
f 418/7/6 404/7/6 419/7/6
f 390/4/6 406/4/6 420/4/6
f 406/3/6 407/3/6 420/3/6
f 407/5/6 408/5/6 421/5/6
f 420/3/6 407/3/6 421/3/6
f 408/3/6 409/3/6 422/3/6
f 421/5/6 408/5/6 422/5/6
f 409/6/6 410/6/6 423/6/6
f 422/3/6 409/3/6 423/3/6
f 410/3/6 411/3/6 424/3/6
f 423/6/6 410/6/6 424/6/6
f 411/4/6 412/4/6 425/4/6
f 424/3/6 411/3/6 425/3/6
f 412/3/6 413/3/6 426/3/6
f 425/4/6 412/4/6 426/4/6
f 413/4/6 414/4/6 427/4/6
f 426/3/6 413/3/6 427/3/6
f 414/3/6 415/3/6 428/3/6
f 427/4/6 414/4/6 428/4/6
f 415/5/6 416/5/6 429/5/6
f 428/3/6 415/3/6 429/3/6
f 416/3/6 417/3/6 430/3/6
f 429/5/6 416/5/6 430/5/6
f 417/4/6 418/4/6 431/4/6
f 430/3/6 417/3/6 431/3/6
f 418/3/6 419/3/6 432/3/6
f 431/4/6 418/4/6 432/4/6
f 419/4/6 405/4/6 433/4/6
f 432/3/6 419/3/6 433/3/6
f 390/4/6 420/4/6 434/4/6
f 420/7/6 421/7/6 435/7/6
f 434/4/6 420/4/6 435/4/6
f 421/5/6 422/5/6 436/5/6
f 435/7/6 421/7/6 436/7/6
f 422/7/6 423/7/6 437/7/6
f 436/5/6 422/5/6 437/5/6
f 423/6/6 424/6/6 438/6/6
f 437/7/6 423/7/6 438/7/6
f 424/7/6 425/7/6 439/7/6
f 438/6/6 424/6/6 439/6/6
f 425/4/6 426/4/6 440/4/6
f 439/7/6 425/7/6 440/7/6
f 426/7/6 427/7/6 441/7/6
f 440/4/6 426/4/6 441/4/6
f 427/4/6 428/4/6 442/4/6
f 441/7/6 427/7/6 442/7/6
f 428/7/6 429/7/6 443/7/6
f 442/4/6 428/4/6 443/4/6
f 429/5/6 430/5/6 444/5/6
f 443/7/6 429/7/6 444/7/6
f 430/7/6 431/7/6 445/7/6
f 444/5/6 430/5/6 445/5/6
f 431/4/6 432/4/6 446/4/6
f 445/7/6 431/7/6 446/7/6
f 432/7/6 433/7/6 447/7/6
f 446/4/6 432/4/6 447/4/6
f 433/4/6 405/4/6 448/4/6
f 447/7/6 433/7/6 448/7/6
f 448/4/6 405/4/6 449/4/6
