# MagicaVoxel @ Ephtracy

# group
o arch-brick-50x36x7

# material
mtllib components-16-arch-brick-50x36x7.mtl
usemtl palette

# normals
vn -1 0 0
vn 1 0 0
vn 0 0 1
vn 0 0 -1
vn 0 -1 0
vn 0 1 0

# texcoords
vt 0.345703 0.5
vt 0.376953 0.5
vt 0.380859 0.5
vt 0.384766 0.5
vt 0.994141 0.5

# verts
v -2.5 0 6
v -2.5 0 5.3
v -2.5 0.2 6
v -2.5 0.2 5.9
v -2.5 0.2 5.4
v -2.5 0.2 5.3
v -2.5 0.3 6
v -2.5 0.3 5.9
v -2.5 0.3 5.4
v -2.5 0.3 5.3
v -2.5 0.5 6
v -2.5 0.5 5.9
v -2.5 0.5 5.4
v -2.5 0.5 5.3
v -2.5 0.6 6
v -2.5 0.6 5.9
v -2.5 0.6 5.4
v -2.5 0.6 5.3
v -2.5 0.8 6
v -2.5 0.8 5.9
v -2.5 0.8 5.4
v -2.5 0.8 5.3
v -2.5 0.9 6
v -2.5 0.9 5.9
v -2.5 0.9 5.4
v -2.5 0.9 5.3
v -2.5 1.1 6
v -2.5 1.1 5.9
v -2.5 1.1 5.4
v -2.5 1.1 5.3
v -2.5 1.2 6
v -2.5 1.2 5.9
v -2.5 1.2 5.4
v -2.5 1.2 5.3
v -2.5 1.4 6
v -2.5 1.4 5.9
v -2.5 1.4 5.4
v -2.5 1.4 5.3
v -2.5 1.5 6
v -2.5 1.5 5.9
v -2.5 1.5 5.4
v -2.5 1.5 5.3
v -2.5 1.7 6
v -2.5 1.7 5.9
v -2.5 1.7 5.4
v -2.5 1.7 5.3
v -2.5 1.8 6
v -2.5 1.8 5.9
v -2.5 1.8 5.4
v -2.5 1.8 5.3
v -2.5 2 6
v -2.5 2 5.9
v -2.5 2 5.4
v -2.5 2 5.3
v -2.5 2.1 6
v -2.5 2.1 5.9
v -2.5 2.1 5.4
v -2.5 2.1 5.3
v -2.5 2.3 6
v -2.5 2.3 5.9
v -2.5 2.3 5.4
v -2.5 2.3 5.3
v -2.5 2.4 6
v -2.5 2.4 5.9
v -2.5 2.4 5.4
v -2.5 2.4 5.3
v -2.5 2.6 6
v -2.5 2.6 5.9
v -2.5 2.6 5.4
v -2.5 2.6 5.3
v -2.5 2.7 6
v -2.5 2.7 5.9
v -2.5 2.7 5.4
v -2.5 2.7 5.3
v -2.5 2.9 6
v -2.5 2.9 5.9
v -2.5 2.9 5.4
v -2.5 2.9 5.3
v -2.5 3 6
v -2.5 3 5.9
v -2.5 3 5.4
v -2.5 3 5.3
v -2.5 3.2 6
v -2.5 3.2 5.9
v -2.5 3.2 5.4
v -2.5 3.2 5.3
v -2.5 3.3 6
v -2.5 3.3 5.9
v -2.5 3.3 5.4
v -2.5 3.3 5.3
v -2.5 3.6 6
v -2.5 3.6 5.3
v 2.5 0 6
v 2.5 0 5.3
v 2.5 0.2 6
v 2.5 0.2 5.9
v 2.5 0.2 5.4
v 2.5 0.2 5.3
v 2.5 0.3 6
v 2.5 0.3 5.9
v 2.5 0.3 5.4
v 2.5 0.3 5.3
v 2.5 0.5 6
v 2.5 0.5 5.9
v 2.5 0.5 5.4
v 2.5 0.5 5.3
v 2.5 0.6 6
v 2.5 0.6 5.9
v 2.5 0.6 5.4
v 2.5 0.6 5.3
v 2.5 0.8 6
v 2.5 0.8 5.9
v 2.5 0.8 5.4
v 2.5 0.8 5.3
v 2.5 0.9 6
v 2.5 0.9 5.9
v 2.5 0.9 5.4
v 2.5 0.9 5.3
v 2.5 1.1 6
v 2.5 1.1 5.9
v 2.5 1.1 5.4
v 2.5 1.1 5.3
v 2.5 1.2 6
v 2.5 1.2 5.9
v 2.5 1.2 5.4
v 2.5 1.2 5.3
v 2.5 1.4 6
v 2.5 1.4 5.9
v 2.5 1.4 5.4
v 2.5 1.4 5.3
v 2.5 1.5 6
v 2.5 1.5 5.9
v 2.5 1.5 5.4
v 2.5 1.5 5.3
v 2.5 1.7 6
v 2.5 1.7 5.9
v 2.5 1.7 5.4
v 2.5 1.7 5.3
v 2.5 1.8 6
v 2.5 1.8 5.9
v 2.5 1.8 5.4
v 2.5 1.8 5.3
v 2.5 2 6
v 2.5 2 5.9
v 2.5 2 5.4
v 2.5 2 5.3
v 2.5 2.1 6
v 2.5 2.1 5.9
v 2.5 2.1 5.4
v 2.5 2.1 5.3
v 2.5 2.3 6
v 2.5 2.3 5.9
v 2.5 2.3 5.4
v 2.5 2.3 5.3
v 2.5 2.4 6
v 2.5 2.4 5.9
v 2.5 2.4 5.4
v 2.5 2.4 5.3
v 2.5 2.6 6
v 2.5 2.6 5.9
v 2.5 2.6 5.4
v 2.5 2.6 5.3
v 2.5 2.7 6
v 2.5 2.7 5.9
v 2.5 2.7 5.4
v 2.5 2.7 5.3
v 2.5 2.9 6
v 2.5 2.9 5.9
v 2.5 2.9 5.4
v 2.5 2.9 5.3
v 2.5 3 6
v 2.5 3 5.9
v 2.5 3 5.4
v 2.5 3 5.3
v 2.5 3.2 6
v 2.5 3.2 5.9
v 2.5 3.2 5.4
v 2.5 3.2 5.3
v 2.5 3.3 6
v 2.5 3.3 5.9
v 2.5 3.3 5.4
v 2.5 3.3 5.3
v 2.5 3.6 6
v 2.5 3.6 5.3
v -2.5 0 6
v -2.5 0.2 6
v -2.5 0.3 6
v -2.5 0.5 6
v -2.5 0.6 6
v -2.5 0.8 6
v -2.5 0.9 6
v -2.5 1.1 6
v -2.5 1.2 6
v -2.5 1.4 6
v -2.5 1.5 6
v -2.5 1.7 6
v -2.5 1.8 6
v -2.5 2 6
v -2.5 2.1 6
v -2.5 2.3 6
v -2.5 2.4 6
v -2.5 2.6 6
v -2.5 2.7 6
v -2.5 2.9 6
v -2.5 3 6
v -2.5 3.2 6
v -2.5 3.3 6
v -2.5 3.6 6
v -2.3 3.3 6
v -2.3 3.6 6
v -2.2 0 6
v -2.2 0.2 6
v -2.2 0.3 6
v -2.2 0.5 6
v -2.2 0.6 6
v -2.2 0.8 6
v -2.2 0.9 6
v -2.2 1.1 6
v -2.2 1.2 6
v -2.2 1.4 6
v -2.2 1.5 6
v -2.2 1.7 6
v -2.2 1.8 6
v -2.2 2 6
v -2.2 2.1 6
v -2.2 2.3 6
v -2.2 2.4 6
v -2.2 2.6 6
v -2.2 2.7 6
v -2.2 2.9 6
v -2.2 3 6
v -2.2 3.2 6
v -2.2 3.3 6
v -2.2 3.6 6
v -2 3.3 6
v -2 3.6 6
v -1.9 3.3 6
v -1.9 3.6 6
v -1.7 3.3 6
v -1.7 3.6 6
v -1.6 3.3 6
v -1.6 3.6 6
v -1.4 3.3 6
v -1.4 3.6 6
v -1.3 3.3 6
v -1.3 3.6 6
v -1.1 3.3 6
v -1.1 3.6 6
v -1 3.3 6
v -1 3.6 6
v -0.8 3.3 6
v -0.8 3.6 6
v -0.7 3.3 6
v -0.7 3.6 6
v -0.5 3.3 6
v -0.5 3.6 6
v -0.4 3.3 6
v -0.4 3.6 6
v -0.2 3.3 6
v -0.2 3.6 6
v -0.0999999 3.3 6
v -0.0999999 3.6 6
v 0.1 3.3 6
v 0.1 3.6 6
v 0.2 3.3 6
v 0.2 3.6 6
v 0.4 3.3 6
v 0.4 3.6 6
v 0.5 3.3 6
v 0.5 3.6 6
v 0.7 3.3 6
v 0.7 3.6 6
v 0.8 3.3 6
v 0.8 3.6 6
v 1 3.3 6
v 1 3.6 6
v 1.1 3.3 6
v 1.1 3.6 6
v 1.3 3.3 6
v 1.3 3.6 6
v 1.4 3.3 6
v 1.4 3.6 6
v 1.6 3.3 6
v 1.6 3.6 6
v 1.7 3.3 6
v 1.7 3.6 6
v 1.9 3.3 6
v 1.9 3.6 6
v 2 3.3 6
v 2 3.6 6
v 2.2 0 6
v 2.2 0.2 6
v 2.2 0.3 6
v 2.2 0.5 6
v 2.2 0.6 6
v 2.2 0.8 6
v 2.2 0.9 6
v 2.2 1.1 6
v 2.2 1.2 6
v 2.2 1.4 6
v 2.2 1.5 6
v 2.2 1.7 6
v 2.2 1.8 6
v 2.2 2 6
v 2.2 2.1 6
v 2.2 2.3 6
v 2.2 2.4 6
v 2.2 2.6 6
v 2.2 2.7 6
v 2.2 2.9 6
v 2.2 3 6
v 2.2 3.2 6
v 2.2 3.3 6
v 2.2 3.6 6
v 2.3 3.3 6
v 2.3 3.6 6
v 2.5 0 6
v 2.5 0.2 6
v 2.5 0.3 6
v 2.5 0.5 6
v 2.5 0.6 6
v 2.5 0.8 6
v 2.5 0.9 6
v 2.5 1.1 6
v 2.5 1.2 6
v 2.5 1.4 6
v 2.5 1.5 6
v 2.5 1.7 6
v 2.5 1.8 6
v 2.5 2 6
v 2.5 2.1 6
v 2.5 2.3 6
v 2.5 2.4 6
v 2.5 2.6 6
v 2.5 2.7 6
v 2.5 2.9 6
v 2.5 3 6
v 2.5 3.2 6
v 2.5 3.3 6
v 2.5 3.6 6
v -2.5 0 5.3
v -2.5 0.2 5.3
v -2.5 0.3 5.3
v -2.5 0.5 5.3
v -2.5 0.6 5.3
v -2.5 0.8 5.3
v -2.5 0.9 5.3
v -2.5 1.1 5.3
v -2.5 1.2 5.3
v -2.5 1.4 5.3
v -2.5 1.5 5.3
v -2.5 1.7 5.3
v -2.5 1.8 5.3
v -2.5 2 5.3
v -2.5 2.1 5.3
v -2.5 2.3 5.3
v -2.5 2.4 5.3
v -2.5 2.6 5.3
v -2.5 2.7 5.3
v -2.5 2.9 5.3
v -2.5 3 5.3
v -2.5 3.2 5.3
v -2.5 3.3 5.3
v -2.5 3.6 5.3
v -2.3 3.3 5.3
v -2.3 3.6 5.3
v -2.2 0 5.3
v -2.2 0.2 5.3
v -2.2 0.3 5.3
v -2.2 0.5 5.3
v -2.2 0.6 5.3
v -2.2 0.8 5.3
v -2.2 0.9 5.3
v -2.2 1.1 5.3
v -2.2 1.2 5.3
v -2.2 1.4 5.3
v -2.2 1.5 5.3
v -2.2 1.7 5.3
v -2.2 1.8 5.3
v -2.2 2 5.3
v -2.2 2.1 5.3
v -2.2 2.3 5.3
v -2.2 2.4 5.3
v -2.2 2.6 5.3
v -2.2 2.7 5.3
v -2.2 2.9 5.3
v -2.2 3 5.3
v -2.2 3.2 5.3
v -2.2 3.3 5.3
v -2.2 3.6 5.3
v -2 3.3 5.3
v -2 3.6 5.3
v -1.9 3.3 5.3
v -1.9 3.6 5.3
v -1.7 3.3 5.3
v -1.7 3.6 5.3
v -1.6 3.3 5.3
v -1.6 3.6 5.3
v -1.4 3.3 5.3
v -1.4 3.6 5.3
v -1.3 3.3 5.3
v -1.3 3.6 5.3
v -1.1 3.3 5.3
v -1.1 3.6 5.3
v -1 3.3 5.3
v -1 3.6 5.3
v -0.8 3.3 5.3
v -0.8 3.6 5.3
v -0.7 3.3 5.3
v -0.7 3.6 5.3
v -0.5 3.3 5.3
v -0.5 3.6 5.3
v -0.4 3.3 5.3
v -0.4 3.6 5.3
v -0.2 3.3 5.3
v -0.2 3.6 5.3
v -0.0999999 3.3 5.3
v -0.0999999 3.6 5.3
v 0.1 3.3 5.3
v 0.1 3.6 5.3
v 0.2 3.3 5.3
v 0.2 3.6 5.3
v 0.4 3.3 5.3
v 0.4 3.6 5.3
v 0.5 3.3 5.3
v 0.5 3.6 5.3
v 0.7 3.3 5.3
v 0.7 3.6 5.3
v 0.8 3.3 5.3
v 0.8 3.6 5.3
v 1 3.3 5.3
v 1 3.6 5.3
v 1.1 3.3 5.3
v 1.1 3.6 5.3
v 1.3 3.3 5.3
v 1.3 3.6 5.3
v 1.4 3.3 5.3
v 1.4 3.6 5.3
v 1.6 3.3 5.3
v 1.6 3.6 5.3
v 1.7 3.3 5.3
v 1.7 3.6 5.3
v 1.9 3.3 5.3
v 1.9 3.6 5.3
v 2 3.3 5.3
v 2 3.6 5.3
v 2.2 0 5.3
v 2.2 0.2 5.3
v 2.2 0.3 5.3
v 2.2 0.5 5.3
v 2.2 0.6 5.3
v 2.2 0.8 5.3
v 2.2 0.9 5.3
v 2.2 1.1 5.3
v 2.2 1.2 5.3
v 2.2 1.4 5.3
v 2.2 1.5 5.3
v 2.2 1.7 5.3
v 2.2 1.8 5.3
v 2.2 2 5.3
v 2.2 2.1 5.3
v 2.2 2.3 5.3
v 2.2 2.4 5.3
v 2.2 2.6 5.3
v 2.2 2.7 5.3
v 2.2 2.9 5.3
v 2.2 3 5.3
v 2.2 3.2 5.3
v 2.2 3.3 5.3
v 2.2 3.6 5.3
v 2.3 3.3 5.3
v 2.3 3.6 5.3
v 2.5 0 5.3
v 2.5 0.2 5.3
v 2.5 0.3 5.3
v 2.5 0.5 5.3
v 2.5 0.6 5.3
v 2.5 0.8 5.3
v 2.5 0.9 5.3
v 2.5 1.1 5.3
v 2.5 1.2 5.3
v 2.5 1.4 5.3
v 2.5 1.5 5.3
v 2.5 1.7 5.3
v 2.5 1.8 5.3
v 2.5 2 5.3
v 2.5 2.1 5.3
v 2.5 2.3 5.3
v 2.5 2.4 5.3
v 2.5 2.6 5.3
v 2.5 2.7 5.3
v 2.5 2.9 5.3
v 2.5 3 5.3
v 2.5 3.2 5.3
v 2.5 3.3 5.3
v 2.5 3.6 5.3
v -2.5 0 6
v -2.2 0 6
v 2.2 0 6
v 2.5 0 6
v -2.5 0 5.3
v -2.2 0 5.3
v 2.2 0 5.3
v 2.5 0 5.3
v -2.5 3.6 6
v -2.3 3.6 6
v -2.2 3.6 6
v -2 3.6 6
v -1.9 3.6 6
v -1.7 3.6 6
v -1.6 3.6 6
v -1.4 3.6 6
v -1.3 3.6 6
v -1.1 3.6 6
v -1 3.6 6
v -0.8 3.6 6
v -0.7 3.6 6
v -0.5 3.6 6
v -0.4 3.6 6
v -0.2 3.6 6
v -0.0999999 3.6 6
v 0.1 3.6 6
v 0.2 3.6 6
v 0.4 3.6 6
v 0.5 3.6 6
v 0.7 3.6 6
v 0.8 3.6 6
v 1 3.6 6
v 1.1 3.6 6
v 1.3 3.6 6
v 1.4 3.6 6
v 1.6 3.6 6
v 1.7 3.6 6
v 1.9 3.6 6
v 2 3.6 6
v 2.2 3.6 6
v 2.3 3.6 6
v 2.5 3.6 6
v -2.3 3.6 5.9
v -2.2 3.6 5.9
v -2 3.6 5.9
v -1.9 3.6 5.9
v -1.7 3.6 5.9
v -1.6 3.6 5.9
v -1.4 3.6 5.9
v -1.3 3.6 5.9
v -1.1 3.6 5.9
v -1 3.6 5.9
v -0.8 3.6 5.9
v -0.7 3.6 5.9
v -0.5 3.6 5.9
v -0.4 3.6 5.9
v -0.2 3.6 5.9
v -0.0999999 3.6 5.9
v 0.1 3.6 5.9
v 0.2 3.6 5.9
v 0.4 3.6 5.9
v 0.5 3.6 5.9
v 0.7 3.6 5.9
v 0.8 3.6 5.9
v 1 3.6 5.9
v 1.1 3.6 5.9
v 1.3 3.6 5.9
v 1.4 3.6 5.9
v 1.6 3.6 5.9
v 1.7 3.6 5.9
v 1.9 3.6 5.9
v 2 3.6 5.9
v 2.2 3.6 5.9
v 2.3 3.6 5.9
v -2.3 3.6 5.4
v -2.2 3.6 5.4
v -2 3.6 5.4
v -1.9 3.6 5.4
v -1.7 3.6 5.4
v -1.6 3.6 5.4
v -1.4 3.6 5.4
v -1.3 3.6 5.4
v -1.1 3.6 5.4
v -1 3.6 5.4
v -0.8 3.6 5.4
v -0.7 3.6 5.4
v -0.5 3.6 5.4
v -0.4 3.6 5.4
v -0.2 3.6 5.4
v -0.0999999 3.6 5.4
v 0.1 3.6 5.4
v 0.2 3.6 5.4
v 0.4 3.6 5.4
v 0.5 3.6 5.4
v 0.7 3.6 5.4
v 0.8 3.6 5.4
v 1 3.6 5.4
v 1.1 3.6 5.4
v 1.3 3.6 5.4
v 1.4 3.6 5.4
v 1.6 3.6 5.4
v 1.7 3.6 5.4
v 1.9 3.6 5.4
v 2 3.6 5.4
v 2.2 3.6 5.4
v 2.3 3.6 5.4
v -2.5 3.6 5.3
v -2.3 3.6 5.3
v -2.2 3.6 5.3
v -2 3.6 5.3
v -1.9 3.6 5.3
v -1.7 3.6 5.3
v -1.6 3.6 5.3
v -1.4 3.6 5.3
v -1.3 3.6 5.3
v -1.1 3.6 5.3
v -1 3.6 5.3
v -0.8 3.6 5.3
v -0.7 3.6 5.3
v -0.5 3.6 5.3
v -0.4 3.6 5.3
v -0.2 3.6 5.3
v -0.0999999 3.6 5.3
v 0.1 3.6 5.3
v 0.2 3.6 5.3
v 0.4 3.6 5.3
v 0.5 3.6 5.3
v 0.7 3.6 5.3
v 0.8 3.6 5.3
v 1 3.6 5.3
v 1.1 3.6 5.3
v 1.3 3.6 5.3
v 1.4 3.6 5.3
v 1.6 3.6 5.3
v 1.7 3.6 5.3
v 1.9 3.6 5.3
v 2 3.6 5.3
v 2.2 3.6 5.3
v 2.3 3.6 5.3
v 2.5 3.6 5.3

# faces
f 3/3/1 2/3/1 1/3/1
f 4/3/1 2/3/1 3/3/1
f 5/3/1 2/3/1 4/3/1
f 6/3/1 2/3/1 5/3/1
f 7/5/1 4/5/1 3/5/1
f 8/1/1 5/1/1 4/1/1
f 8/5/1 4/5/1 7/5/1
f 9/5/1 6/5/1 5/5/1
f 9/1/1 5/1/1 8/1/1
f 10/5/1 6/5/1 9/5/1
f 11/2/1 8/2/1 7/2/1
f 11/2/1 9/2/1 8/2/1
f 11/2/1 10/2/1 9/2/1
f 12/2/1 10/2/1 11/2/1
f 13/2/1 10/2/1 12/2/1
f 14/2/1 10/2/1 13/2/1
f 15/5/1 12/5/1 11/5/1
f 16/1/1 13/1/1 12/1/1
f 16/5/1 12/5/1 15/5/1
f 17/5/1 14/5/1 13/5/1
f 17/1/1 13/1/1 16/1/1
f 18/5/1 14/5/1 17/5/1
f 19/4/1 16/4/1 15/4/1
f 19/4/1 17/4/1 16/4/1
f 19/4/1 18/4/1 17/4/1
f 20/4/1 18/4/1 19/4/1
f 21/4/1 18/4/1 20/4/1
f 22/4/1 18/4/1 21/4/1
f 23/5/1 20/5/1 19/5/1
f 24/1/1 21/1/1 20/1/1
f 24/5/1 20/5/1 23/5/1
f 25/5/1 22/5/1 21/5/1
f 25/1/1 21/1/1 24/1/1
f 26/5/1 22/5/1 25/5/1
f 27/2/1 24/2/1 23/2/1
f 27/2/1 25/2/1 24/2/1
f 27/2/1 26/2/1 25/2/1
f 28/2/1 26/2/1 27/2/1
f 29/2/1 26/2/1 28/2/1
f 30/2/1 26/2/1 29/2/1
f 31/5/1 28/5/1 27/5/1
f 32/1/1 29/1/1 28/1/1
f 32/5/1 28/5/1 31/5/1
f 33/5/1 30/5/1 29/5/1
f 33/1/1 29/1/1 32/1/1
f 34/5/1 30/5/1 33/5/1
f 35/3/1 32/3/1 31/3/1
f 35/3/1 33/3/1 32/3/1
f 35/3/1 34/3/1 33/3/1
f 36/3/1 34/3/1 35/3/1
f 37/3/1 34/3/1 36/3/1
f 38/3/1 34/3/1 37/3/1
f 39/5/1 36/5/1 35/5/1
f 40/1/1 37/1/1 36/1/1
f 40/5/1 36/5/1 39/5/1
f 41/5/1 38/5/1 37/5/1
f 41/1/1 37/1/1 40/1/1
f 42/5/1 38/5/1 41/5/1
f 43/2/1 40/2/1 39/2/1
f 43/2/1 41/2/1 40/2/1
f 43/2/1 42/2/1 41/2/1
f 44/2/1 42/2/1 43/2/1
f 45/2/1 42/2/1 44/2/1
f 46/2/1 42/2/1 45/2/1
f 47/5/1 44/5/1 43/5/1
f 48/1/1 45/1/1 44/1/1
f 48/5/1 44/5/1 47/5/1
f 49/5/1 46/5/1 45/5/1
f 49/1/1 45/1/1 48/1/1
f 50/5/1 46/5/1 49/5/1
f 51/2/1 48/2/1 47/2/1
f 51/2/1 49/2/1 48/2/1
f 51/2/1 50/2/1 49/2/1
f 52/2/1 50/2/1 51/2/1
f 53/2/1 50/2/1 52/2/1
f 54/2/1 50/2/1 53/2/1
f 55/5/1 52/5/1 51/5/1
f 56/1/1 53/1/1 52/1/1
f 56/5/1 52/5/1 55/5/1
f 57/5/1 54/5/1 53/5/1
f 57/1/1 53/1/1 56/1/1
f 58/5/1 54/5/1 57/5/1
f 59/3/1 56/3/1 55/3/1
f 59/3/1 57/3/1 56/3/1
f 59/3/1 58/3/1 57/3/1
f 60/3/1 58/3/1 59/3/1
f 61/3/1 58/3/1 60/3/1
f 62/3/1 58/3/1 61/3/1
f 63/5/1 60/5/1 59/5/1
f 64/1/1 61/1/1 60/1/1
f 64/5/1 60/5/1 63/5/1
f 65/5/1 62/5/1 61/5/1
f 65/1/1 61/1/1 64/1/1
f 66/5/1 62/5/1 65/5/1
f 67/2/1 64/2/1 63/2/1
f 67/2/1 65/2/1 64/2/1
f 67/2/1 66/2/1 65/2/1
f 68/2/1 66/2/1 67/2/1
f 69/2/1 66/2/1 68/2/1
f 70/2/1 66/2/1 69/2/1
f 71/5/1 68/5/1 67/5/1
f 72/1/1 69/1/1 68/1/1
f 72/5/1 68/5/1 71/5/1
f 73/5/1 70/5/1 69/5/1
f 73/1/1 69/1/1 72/1/1
f 74/5/1 70/5/1 73/5/1
f 75/4/1 72/4/1 71/4/1
f 75/4/1 73/4/1 72/4/1
f 75/4/1 74/4/1 73/4/1
f 76/4/1 74/4/1 75/4/1
f 77/4/1 74/4/1 76/4/1
f 78/4/1 74/4/1 77/4/1
f 79/5/1 76/5/1 75/5/1
f 80/1/1 77/1/1 76/1/1
f 80/5/1 76/5/1 79/5/1
f 81/5/1 78/5/1 77/5/1
f 81/1/1 77/1/1 80/1/1
f 82/5/1 78/5/1 81/5/1
f 83/2/1 80/2/1 79/2/1
f 83/2/1 81/2/1 80/2/1
f 83/2/1 82/2/1 81/2/1
f 84/2/1 82/2/1 83/2/1
f 85/2/1 82/2/1 84/2/1
f 86/2/1 82/2/1 85/2/1
f 87/5/1 84/5/1 83/5/1
f 88/1/1 85/1/1 84/1/1
f 88/5/1 84/5/1 87/5/1
f 89/5/1 86/5/1 85/5/1
f 89/1/1 85/1/1 88/1/1
f 90/5/1 86/5/1 89/5/1
f 91/2/1 88/2/1 87/2/1
f 91/2/1 89/2/1 88/2/1
f 91/2/1 90/2/1 89/2/1
f 92/2/1 90/2/1 91/2/1
f 93/2/2 94/2/2 95/2/2
f 95/2/2 94/2/2 96/2/2
f 96/2/2 94/2/2 97/2/2
f 97/2/2 94/2/2 98/2/2
f 95/5/2 96/5/2 99/5/2
f 96/1/2 97/1/2 100/1/2
f 99/5/2 96/5/2 100/5/2
f 97/5/2 98/5/2 101/5/2
f 100/1/2 97/1/2 101/1/2
f 101/5/2 98/5/2 102/5/2
f 99/2/2 100/2/2 103/2/2
f 100/2/2 101/2/2 103/2/2
f 101/2/2 102/2/2 103/2/2
f 103/2/2 102/2/2 104/2/2
f 104/2/2 102/2/2 105/2/2
f 105/2/2 102/2/2 106/2/2
f 103/5/2 104/5/2 107/5/2
f 104/1/2 105/1/2 108/1/2
f 107/5/2 104/5/2 108/5/2
f 105/5/2 106/5/2 109/5/2
f 108/1/2 105/1/2 109/1/2
f 109/5/2 106/5/2 110/5/2
f 107/3/2 108/3/2 111/3/2
f 108/3/2 109/3/2 111/3/2
f 109/3/2 110/3/2 111/3/2
f 111/3/2 110/3/2 112/3/2
f 112/3/2 110/3/2 113/3/2
f 113/3/2 110/3/2 114/3/2
f 111/5/2 112/5/2 115/5/2
f 112/1/2 113/1/2 116/1/2
f 115/5/2 112/5/2 116/5/2
f 113/5/2 114/5/2 117/5/2
f 116/1/2 113/1/2 117/1/2
f 117/5/2 114/5/2 118/5/2
f 115/2/2 116/2/2 119/2/2
f 116/2/2 117/2/2 119/2/2
f 117/2/2 118/2/2 119/2/2
f 119/2/2 118/2/2 120/2/2
f 120/2/2 118/2/2 121/2/2
f 121/2/2 118/2/2 122/2/2
f 119/5/2 120/5/2 123/5/2
f 120/1/2 121/1/2 124/1/2
f 123/5/2 120/5/2 124/5/2
f 121/5/2 122/5/2 125/5/2
f 124/1/2 121/1/2 125/1/2
f 125/5/2 122/5/2 126/5/2
f 123/4/2 124/4/2 127/4/2
f 124/4/2 125/4/2 127/4/2
f 125/4/2 126/4/2 127/4/2
f 127/4/2 126/4/2 128/4/2
f 128/4/2 126/4/2 129/4/2
f 129/4/2 126/4/2 130/4/2
f 127/5/2 128/5/2 131/5/2
f 128/1/2 129/1/2 132/1/2
f 131/5/2 128/5/2 132/5/2
f 129/5/2 130/5/2 133/5/2
f 132/1/2 129/1/2 133/1/2
f 133/5/2 130/5/2 134/5/2
f 131/2/2 132/2/2 135/2/2
f 132/2/2 133/2/2 135/2/2
f 133/2/2 134/2/2 135/2/2
f 135/2/2 134/2/2 136/2/2
f 136/2/2 134/2/2 137/2/2
f 137/2/2 134/2/2 138/2/2
f 135/5/2 136/5/2 139/5/2
f 136/1/2 137/1/2 140/1/2
f 139/5/2 136/5/2 140/5/2
f 137/5/2 138/5/2 141/5/2
f 140/1/2 137/1/2 141/1/2
f 141/5/2 138/5/2 142/5/2
f 139/2/2 140/2/2 143/2/2
f 140/2/2 141/2/2 143/2/2
f 141/2/2 142/2/2 143/2/2
f 143/2/2 142/2/2 144/2/2
f 144/2/2 142/2/2 145/2/2
f 145/2/2 142/2/2 146/2/2
f 143/5/2 144/5/2 147/5/2
f 144/1/2 145/1/2 148/1/2
f 147/5/2 144/5/2 148/5/2
f 145/5/2 146/5/2 149/5/2
f 148/1/2 145/1/2 149/1/2
f 149/5/2 146/5/2 150/5/2
f 147/2/2 148/2/2 151/2/2
f 148/2/2 149/2/2 151/2/2
f 149/2/2 150/2/2 151/2/2
f 151/2/2 150/2/2 152/2/2
f 152/2/2 150/2/2 153/2/2
f 153/2/2 150/2/2 154/2/2
f 151/5/2 152/5/2 155/5/2
f 152/1/2 153/1/2 156/1/2
f 155/5/2 152/5/2 156/5/2
f 153/5/2 154/5/2 157/5/2
f 156/1/2 153/1/2 157/1/2
f 157/5/2 154/5/2 158/5/2
f 155/3/2 156/3/2 159/3/2
f 156/3/2 157/3/2 159/3/2
f 157/3/2 158/3/2 159/3/2
f 159/3/2 158/3/2 160/3/2
f 160/3/2 158/3/2 161/3/2
f 161/3/2 158/3/2 162/3/2
f 159/5/2 160/5/2 163/5/2
f 160/1/2 161/1/2 164/1/2
f 163/5/2 160/5/2 164/5/2
f 161/5/2 162/5/2 165/5/2
f 164/1/2 161/1/2 165/1/2
f 165/5/2 162/5/2 166/5/2
f 163/2/2 164/2/2 167/2/2
f 164/2/2 165/2/2 167/2/2
f 165/2/2 166/2/2 167/2/2
f 167/2/2 166/2/2 168/2/2
f 168/2/2 166/2/2 169/2/2
f 169/2/2 166/2/2 170/2/2
f 167/5/2 168/5/2 171/5/2
f 168/1/2 169/1/2 172/1/2
f 171/5/2 168/5/2 172/5/2
f 169/5/2 170/5/2 173/5/2
f 172/1/2 169/1/2 173/1/2
f 173/5/2 170/5/2 174/5/2
f 171/3/2 172/3/2 175/3/2
f 172/3/2 173/3/2 175/3/2
f 173/3/2 174/3/2 175/3/2
f 175/3/2 174/3/2 176/3/2
f 176/3/2 174/3/2 177/3/2
f 177/3/2 174/3/2 178/3/2
f 175/5/2 176/5/2 179/5/2
f 176/1/2 177/1/2 180/1/2
f 179/5/2 176/5/2 180/5/2
f 177/5/2 178/5/2 181/5/2
f 180/1/2 177/1/2 181/1/2
f 181/5/2 178/5/2 182/5/2
f 179/2/2 180/2/2 183/2/2
f 180/2/2 181/2/2 183/2/2
f 181/2/2 182/2/2 183/2/2
f 183/2/2 182/2/2 184/2/2
f 209/5/3 207/5/3 206/5/3
f 209/2/3 208/2/3 207/2/3
f 210/2/3 208/2/3 209/2/3
f 211/3/3 186/3/3 185/3/3
f 212/5/3 187/5/3 186/5/3
f 212/3/3 186/3/3 211/3/3
f 213/2/3 188/2/3 187/2/3
f 213/5/3 187/5/3 212/5/3
f 214/5/3 189/5/3 188/5/3
f 214/2/3 188/2/3 213/2/3
f 215/4/3 190/4/3 189/4/3
f 215/5/3 189/5/3 214/5/3
f 216/5/3 191/5/3 190/5/3
f 216/4/3 190/4/3 215/4/3
f 217/2/3 192/2/3 191/2/3
f 217/5/3 191/5/3 216/5/3
f 218/5/3 193/5/3 192/5/3
f 218/2/3 192/2/3 217/2/3
f 219/3/3 194/3/3 193/3/3
f 219/5/3 193/5/3 218/5/3
f 220/5/3 195/5/3 194/5/3
f 220/3/3 194/3/3 219/3/3
f 221/2/3 196/2/3 195/2/3
f 221/5/3 195/5/3 220/5/3
f 222/5/3 197/5/3 196/5/3
f 222/2/3 196/2/3 221/2/3
f 223/2/3 198/2/3 197/2/3
f 223/5/3 197/5/3 222/5/3
f 224/5/3 199/5/3 198/5/3
f 224/2/3 198/2/3 223/2/3
f 225/3/3 200/3/3 199/3/3
f 225/5/3 199/5/3 224/5/3
f 226/5/3 201/5/3 200/5/3
f 226/3/3 200/3/3 225/3/3
f 227/2/3 202/2/3 201/2/3
f 227/5/3 201/5/3 226/5/3
f 228/5/3 203/5/3 202/5/3
f 228/2/3 202/2/3 227/2/3
f 229/4/3 204/4/3 203/4/3
f 229/5/3 203/5/3 228/5/3
f 230/5/3 205/5/3 204/5/3
f 230/4/3 204/4/3 229/4/3
f 231/2/3 206/2/3 205/2/3
f 231/5/3 205/5/3 230/5/3
f 232/5/3 209/5/3 206/5/3
f 232/2/3 206/2/3 231/2/3
f 232/5/3 210/5/3 209/5/3
f 233/5/3 210/5/3 232/5/3
f 234/5/3 210/5/3 233/5/3
f 235/5/3 212/5/3 211/5/3
f 235/5/3 213/5/3 212/5/3
f 235/2/3 234/2/3 233/2/3
f 235/5/3 233/5/3 232/5/3
f 235/5/3 232/5/3 231/5/3
f 235/5/3 231/5/3 230/5/3
f 235/5/3 230/5/3 229/5/3
f 235/5/3 229/5/3 228/5/3
f 235/5/3 228/5/3 227/5/3
f 235/5/3 227/5/3 226/5/3
f 235/5/3 226/5/3 225/5/3
f 235/5/3 225/5/3 224/5/3
f 235/5/3 224/5/3 223/5/3
f 235/5/3 223/5/3 222/5/3
f 235/5/3 222/5/3 221/5/3
f 235/5/3 221/5/3 220/5/3
f 235/5/3 220/5/3 219/5/3
f 235/5/3 219/5/3 218/5/3
f 235/5/3 218/5/3 217/5/3
f 235/5/3 217/5/3 216/5/3
f 235/5/3 216/5/3 215/5/3
f 235/5/3 215/5/3 214/5/3
f 235/5/3 214/5/3 213/5/3
f 236/2/3 234/2/3 235/2/3
f 237/5/3 235/5/3 211/5/3
f 237/5/3 236/5/3 235/5/3
f 238/5/3 236/5/3 237/5/3
f 239/5/3 237/5/3 211/5/3
f 239/2/3 238/2/3 237/2/3
f 240/2/3 238/2/3 239/2/3
f 241/5/3 239/5/3 211/5/3
f 241/5/3 240/5/3 239/5/3
f 242/5/3 240/5/3 241/5/3
f 243/5/3 241/5/3 211/5/3
f 243/2/3 242/2/3 241/2/3
f 244/2/3 242/2/3 243/2/3
f 245/5/3 243/5/3 211/5/3
f 245/5/3 244/5/3 243/5/3
f 246/5/3 244/5/3 245/5/3
f 247/5/3 245/5/3 211/5/3
f 247/2/3 246/2/3 245/2/3
f 248/2/3 246/2/3 247/2/3
f 249/5/3 247/5/3 211/5/3
f 249/5/3 248/5/3 247/5/3
f 250/5/3 248/5/3 249/5/3
f 251/5/3 249/5/3 211/5/3
f 251/2/3 250/2/3 249/2/3
f 252/2/3 250/2/3 251/2/3
f 253/5/3 251/5/3 211/5/3
f 253/5/3 252/5/3 251/5/3
f 254/5/3 252/5/3 253/5/3
f 255/5/3 253/5/3 211/5/3
f 255/2/3 254/2/3 253/2/3
f 256/2/3 254/2/3 255/2/3
f 257/5/3 255/5/3 211/5/3
f 257/5/3 256/5/3 255/5/3
f 258/5/3 256/5/3 257/5/3
f 259/5/3 257/5/3 211/5/3
f 259/2/3 258/2/3 257/2/3
f 260/2/3 258/2/3 259/2/3
f 261/5/3 259/5/3 211/5/3
f 261/5/3 260/5/3 259/5/3
f 262/5/3 260/5/3 261/5/3
f 263/5/3 261/5/3 211/5/3
f 263/2/3 262/2/3 261/2/3
f 264/2/3 262/2/3 263/2/3
f 265/5/3 263/5/3 211/5/3
f 265/5/3 264/5/3 263/5/3
f 266/5/3 264/5/3 265/5/3
f 267/5/3 265/5/3 211/5/3
f 267/2/3 266/2/3 265/2/3
f 268/2/3 266/2/3 267/2/3
f 269/5/3 267/5/3 211/5/3
f 269/5/3 268/5/3 267/5/3
f 270/5/3 268/5/3 269/5/3
f 271/5/3 269/5/3 211/5/3
f 271/2/3 270/2/3 269/2/3
f 272/2/3 270/2/3 271/2/3
f 273/5/3 271/5/3 211/5/3
f 273/5/3 272/5/3 271/5/3
f 274/5/3 272/5/3 273/5/3
f 275/5/3 273/5/3 211/5/3
f 275/2/3 274/2/3 273/2/3
f 276/2/3 274/2/3 275/2/3
f 277/5/3 275/5/3 211/5/3
f 277/5/3 276/5/3 275/5/3
f 278/5/3 276/5/3 277/5/3
f 279/5/3 277/5/3 211/5/3
f 279/2/3 278/2/3 277/2/3
f 280/2/3 278/2/3 279/2/3
f 281/5/3 279/5/3 211/5/3
f 281/5/3 280/5/3 279/5/3
f 282/5/3 280/5/3 281/5/3
f 283/5/3 281/5/3 211/5/3
f 283/2/3 282/2/3 281/2/3
f 284/2/3 282/2/3 283/2/3
f 285/5/3 283/5/3 211/5/3
f 285/5/3 284/5/3 283/5/3
f 286/5/3 284/5/3 285/5/3
f 287/5/3 285/5/3 211/5/3
f 287/2/3 286/2/3 285/2/3
f 288/2/3 286/2/3 287/2/3
f 289/5/3 287/5/3 211/5/3
f 289/5/3 288/5/3 287/5/3
f 290/5/3 288/5/3 289/5/3
f 291/5/3 289/5/3 211/5/3
f 292/5/3 289/5/3 291/5/3
f 293/5/3 289/5/3 292/5/3
f 294/5/3 289/5/3 293/5/3
f 295/5/3 289/5/3 294/5/3
f 296/5/3 289/5/3 295/5/3
f 297/5/3 289/5/3 296/5/3
f 298/5/3 289/5/3 297/5/3
f 299/5/3 289/5/3 298/5/3
f 300/5/3 289/5/3 299/5/3
f 301/5/3 289/5/3 300/5/3
f 302/5/3 289/5/3 301/5/3
f 303/5/3 289/5/3 302/5/3
f 304/5/3 289/5/3 303/5/3
f 305/5/3 289/5/3 304/5/3
f 306/5/3 289/5/3 305/5/3
f 307/5/3 289/5/3 306/5/3
f 308/5/3 289/5/3 307/5/3
f 309/5/3 289/5/3 308/5/3
f 310/5/3 289/5/3 309/5/3
f 311/5/3 289/5/3 310/5/3
f 312/5/3 289/5/3 311/5/3
f 313/2/3 290/2/3 289/2/3
f 313/5/3 289/5/3 312/5/3
f 314/2/3 290/2/3 313/2/3
f 315/5/3 313/5/3 312/5/3
f 315/5/3 314/5/3 313/5/3
f 316/5/3 314/5/3 315/5/3
f 317/2/3 292/2/3 291/2/3
f 318/5/3 293/5/3 292/5/3
f 318/2/3 292/2/3 317/2/3
f 319/2/3 294/2/3 293/2/3
f 319/5/3 293/5/3 318/5/3
f 320/5/3 295/5/3 294/5/3
f 320/2/3 294/2/3 319/2/3
f 321/3/3 296/3/3 295/3/3
f 321/5/3 295/5/3 320/5/3
f 322/5/3 297/5/3 296/5/3
f 322/3/3 296/3/3 321/3/3
f 323/2/3 298/2/3 297/2/3
f 323/5/3 297/5/3 322/5/3
f 324/5/3 299/5/3 298/5/3
f 324/2/3 298/2/3 323/2/3
f 325/4/3 300/4/3 299/4/3
f 325/5/3 299/5/3 324/5/3
f 326/5/3 301/5/3 300/5/3
f 326/4/3 300/4/3 325/4/3
f 327/2/3 302/2/3 301/2/3
f 327/5/3 301/5/3 326/5/3
f 328/5/3 303/5/3 302/5/3
f 328/2/3 302/2/3 327/2/3
f 329/2/3 304/2/3 303/2/3
f 329/5/3 303/5/3 328/5/3
f 330/5/3 305/5/3 304/5/3
f 330/2/3 304/2/3 329/2/3
f 331/2/3 306/2/3 305/2/3
f 331/5/3 305/5/3 330/5/3
f 332/5/3 307/5/3 306/5/3
f 332/2/3 306/2/3 331/2/3
f 333/3/3 308/3/3 307/3/3
f 333/5/3 307/5/3 332/5/3
f 334/5/3 309/5/3 308/5/3
f 334/3/3 308/3/3 333/3/3
f 335/2/3 310/2/3 309/2/3
f 335/5/3 309/5/3 334/5/3
f 336/5/3 311/5/3 310/5/3
f 336/2/3 310/2/3 335/2/3
f 337/3/3 312/3/3 311/3/3
f 337/5/3 311/5/3 336/5/3
f 338/5/3 315/5/3 312/5/3
f 338/3/3 312/3/3 337/3/3
f 339/2/3 316/2/3 315/2/3
f 339/5/3 315/5/3 338/5/3
f 340/2/3 316/2/3 339/2/3
f 362/5/4 363/5/4 365/5/4
f 363/2/4 364/2/4 365/2/4
f 365/2/4 364/2/4 366/2/4
f 341/3/4 342/3/4 367/3/4
f 342/5/4 343/5/4 368/5/4
f 367/3/4 342/3/4 368/3/4
f 343/2/4 344/2/4 369/2/4
f 368/5/4 343/5/4 369/5/4
f 344/5/4 345/5/4 370/5/4
f 369/2/4 344/2/4 370/2/4
f 345/4/4 346/4/4 371/4/4
f 370/5/4 345/5/4 371/5/4
f 346/5/4 347/5/4 372/5/4
f 371/4/4 346/4/4 372/4/4
f 347/2/4 348/2/4 373/2/4
f 372/5/4 347/5/4 373/5/4
f 348/5/4 349/5/4 374/5/4
f 373/2/4 348/2/4 374/2/4
f 349/3/4 350/3/4 375/3/4
f 374/5/4 349/5/4 375/5/4
f 350/5/4 351/5/4 376/5/4
f 375/3/4 350/3/4 376/3/4
f 351/2/4 352/2/4 377/2/4
f 376/5/4 351/5/4 377/5/4
f 352/5/4 353/5/4 378/5/4
f 377/2/4 352/2/4 378/2/4
f 353/2/4 354/2/4 379/2/4
f 378/5/4 353/5/4 379/5/4
f 354/5/4 355/5/4 380/5/4
f 379/2/4 354/2/4 380/2/4
f 355/3/4 356/3/4 381/3/4
f 380/5/4 355/5/4 381/5/4
f 356/5/4 357/5/4 382/5/4
f 381/3/4 356/3/4 382/3/4
f 357/2/4 358/2/4 383/2/4
f 382/5/4 357/5/4 383/5/4
f 358/5/4 359/5/4 384/5/4
f 383/2/4 358/2/4 384/2/4
f 359/4/4 360/4/4 385/4/4
f 384/5/4 359/5/4 385/5/4
f 360/5/4 361/5/4 386/5/4
f 385/4/4 360/4/4 386/4/4
f 361/2/4 362/2/4 387/2/4
f 386/5/4 361/5/4 387/5/4
f 362/5/4 365/5/4 388/5/4
f 387/2/4 362/2/4 388/2/4
f 365/5/4 366/5/4 388/5/4
f 388/5/4 366/5/4 389/5/4
f 389/5/4 366/5/4 390/5/4
f 367/5/4 368/5/4 391/5/4
f 368/5/4 369/5/4 391/5/4
f 389/2/4 390/2/4 391/2/4
f 388/5/4 389/5/4 391/5/4
f 387/5/4 388/5/4 391/5/4
f 386/5/4 387/5/4 391/5/4
f 385/5/4 386/5/4 391/5/4
f 384/5/4 385/5/4 391/5/4
f 383/5/4 384/5/4 391/5/4
f 382/5/4 383/5/4 391/5/4
f 381/5/4 382/5/4 391/5/4
f 380/5/4 381/5/4 391/5/4
f 379/5/4 380/5/4 391/5/4
f 378/5/4 379/5/4 391/5/4
f 377/5/4 378/5/4 391/5/4
f 376/5/4 377/5/4 391/5/4
f 375/5/4 376/5/4 391/5/4
f 374/5/4 375/5/4 391/5/4
f 373/5/4 374/5/4 391/5/4
f 372/5/4 373/5/4 391/5/4
f 371/5/4 372/5/4 391/5/4
f 370/5/4 371/5/4 391/5/4
f 369/5/4 370/5/4 391/5/4
f 391/2/4 390/2/4 392/2/4
f 367/5/4 391/5/4 393/5/4
f 391/5/4 392/5/4 393/5/4
f 393/5/4 392/5/4 394/5/4
f 367/5/4 393/5/4 395/5/4
f 393/2/4 394/2/4 395/2/4
f 395/2/4 394/2/4 396/2/4
f 367/5/4 395/5/4 397/5/4
f 395/5/4 396/5/4 397/5/4
f 397/5/4 396/5/4 398/5/4
f 367/5/4 397/5/4 399/5/4
f 397/2/4 398/2/4 399/2/4
f 399/2/4 398/2/4 400/2/4
f 367/5/4 399/5/4 401/5/4
f 399/5/4 400/5/4 401/5/4
f 401/5/4 400/5/4 402/5/4
f 367/5/4 401/5/4 403/5/4
f 401/2/4 402/2/4 403/2/4
f 403/2/4 402/2/4 404/2/4
f 367/5/4 403/5/4 405/5/4
f 403/5/4 404/5/4 405/5/4
f 405/5/4 404/5/4 406/5/4
f 367/5/4 405/5/4 407/5/4
f 405/2/4 406/2/4 407/2/4
f 407/2/4 406/2/4 408/2/4
f 367/5/4 407/5/4 409/5/4
f 407/5/4 408/5/4 409/5/4
f 409/5/4 408/5/4 410/5/4
f 367/5/4 409/5/4 411/5/4
f 409/2/4 410/2/4 411/2/4
f 411/2/4 410/2/4 412/2/4
f 367/5/4 411/5/4 413/5/4
f 411/5/4 412/5/4 413/5/4
f 413/5/4 412/5/4 414/5/4
f 367/5/4 413/5/4 415/5/4
f 413/2/4 414/2/4 415/2/4
f 415/2/4 414/2/4 416/2/4
f 367/5/4 415/5/4 417/5/4
f 415/5/4 416/5/4 417/5/4
f 417/5/4 416/5/4 418/5/4
f 367/5/4 417/5/4 419/5/4
f 417/2/4 418/2/4 419/2/4
f 419/2/4 418/2/4 420/2/4
f 367/5/4 419/5/4 421/5/4
f 419/5/4 420/5/4 421/5/4
f 421/5/4 420/5/4 422/5/4
f 367/5/4 421/5/4 423/5/4
f 421/2/4 422/2/4 423/2/4
f 423/2/4 422/2/4 424/2/4
f 367/5/4 423/5/4 425/5/4
f 423/5/4 424/5/4 425/5/4
f 425/5/4 424/5/4 426/5/4
f 367/5/4 425/5/4 427/5/4
f 425/2/4 426/2/4 427/2/4
f 427/2/4 426/2/4 428/2/4
f 367/5/4 427/5/4 429/5/4
f 427/5/4 428/5/4 429/5/4
f 429/5/4 428/5/4 430/5/4
f 367/5/4 429/5/4 431/5/4
f 429/2/4 430/2/4 431/2/4
f 431/2/4 430/2/4 432/2/4
f 367/5/4 431/5/4 433/5/4
f 431/5/4 432/5/4 433/5/4
f 433/5/4 432/5/4 434/5/4
f 367/5/4 433/5/4 435/5/4
f 433/2/4 434/2/4 435/2/4
f 435/2/4 434/2/4 436/2/4
f 367/5/4 435/5/4 437/5/4
f 435/5/4 436/5/4 437/5/4
f 437/5/4 436/5/4 438/5/4
f 367/5/4 437/5/4 439/5/4
f 437/2/4 438/2/4 439/2/4
f 439/2/4 438/2/4 440/2/4
f 367/5/4 439/5/4 441/5/4
f 439/5/4 440/5/4 441/5/4
f 441/5/4 440/5/4 442/5/4
f 367/5/4 441/5/4 443/5/4
f 441/2/4 442/2/4 443/2/4
f 443/2/4 442/2/4 444/2/4
f 367/5/4 443/5/4 445/5/4
f 443/5/4 444/5/4 445/5/4
f 445/5/4 444/5/4 446/5/4
f 367/5/4 445/5/4 447/5/4
f 447/5/4 445/5/4 448/5/4
f 448/5/4 445/5/4 449/5/4
f 449/5/4 445/5/4 450/5/4
f 450/5/4 445/5/4 451/5/4
f 451/5/4 445/5/4 452/5/4
f 452/5/4 445/5/4 453/5/4
f 453/5/4 445/5/4 454/5/4
f 454/5/4 445/5/4 455/5/4
f 455/5/4 445/5/4 456/5/4
f 456/5/4 445/5/4 457/5/4
f 457/5/4 445/5/4 458/5/4
f 458/5/4 445/5/4 459/5/4
f 459/5/4 445/5/4 460/5/4
f 460/5/4 445/5/4 461/5/4
f 461/5/4 445/5/4 462/5/4
f 462/5/4 445/5/4 463/5/4
f 463/5/4 445/5/4 464/5/4
f 464/5/4 445/5/4 465/5/4
f 465/5/4 445/5/4 466/5/4
f 466/5/4 445/5/4 467/5/4
f 467/5/4 445/5/4 468/5/4
f 445/2/4 446/2/4 469/2/4
f 468/5/4 445/5/4 469/5/4
f 469/2/4 446/2/4 470/2/4
f 468/5/4 469/5/4 471/5/4
f 469/5/4 470/5/4 471/5/4
f 471/5/4 470/5/4 472/5/4
f 447/2/4 448/2/4 473/2/4
f 448/5/4 449/5/4 474/5/4
f 473/2/4 448/2/4 474/2/4
f 449/2/4 450/2/4 475/2/4
f 474/5/4 449/5/4 475/5/4
f 450/5/4 451/5/4 476/5/4
f 475/2/4 450/2/4 476/2/4
f 451/3/4 452/3/4 477/3/4
f 476/5/4 451/5/4 477/5/4
f 452/5/4 453/5/4 478/5/4
f 477/3/4 452/3/4 478/3/4
f 453/2/4 454/2/4 479/2/4
f 478/5/4 453/5/4 479/5/4
f 454/5/4 455/5/4 480/5/4
f 479/2/4 454/2/4 480/2/4
f 455/4/4 456/4/4 481/4/4
f 480/5/4 455/5/4 481/5/4
f 456/5/4 457/5/4 482/5/4
f 481/4/4 456/4/4 482/4/4
f 457/2/4 458/2/4 483/2/4
f 482/5/4 457/5/4 483/5/4
f 458/5/4 459/5/4 484/5/4
f 483/2/4 458/2/4 484/2/4
f 459/2/4 460/2/4 485/2/4
f 484/5/4 459/5/4 485/5/4
f 460/5/4 461/5/4 486/5/4
f 485/2/4 460/2/4 486/2/4
f 461/2/4 462/2/4 487/2/4
f 486/5/4 461/5/4 487/5/4
f 462/5/4 463/5/4 488/5/4
f 487/2/4 462/2/4 488/2/4
f 463/3/4 464/3/4 489/3/4
f 488/5/4 463/5/4 489/5/4
f 464/5/4 465/5/4 490/5/4
f 489/3/4 464/3/4 490/3/4
f 465/2/4 466/2/4 491/2/4
f 490/5/4 465/5/4 491/5/4
f 466/5/4 467/5/4 492/5/4
f 491/2/4 466/2/4 492/2/4
f 467/3/4 468/3/4 493/3/4
f 492/5/4 467/5/4 493/5/4
f 468/5/4 471/5/4 494/5/4
f 493/3/4 468/3/4 494/3/4
f 471/2/4 472/2/4 495/2/4
f 494/5/4 471/5/4 495/5/4
f 495/2/4 472/2/4 496/2/4
f 501/3/5 498/3/5 497/3/5
f 502/5/5 499/5/5 498/5/5
f 502/3/5 498/3/5 501/3/5
f 503/2/5 500/2/5 499/2/5
f 503/5/5 499/5/5 502/5/5
f 504/2/5 500/2/5 503/2/5
f 505/2/6 506/2/6 539/2/6
f 506/5/6 507/5/6 539/5/6
f 507/2/6 508/2/6 540/2/6
f 539/5/6 507/5/6 540/5/6
f 508/5/6 509/5/6 541/5/6
f 540/2/6 508/2/6 541/2/6
f 509/2/6 510/2/6 542/2/6
f 541/5/6 509/5/6 542/5/6
f 510/5/6 511/5/6 543/5/6
f 542/2/6 510/2/6 543/2/6
f 511/2/6 512/2/6 544/2/6
f 543/5/6 511/5/6 544/5/6
f 512/5/6 513/5/6 545/5/6
f 544/2/6 512/2/6 545/2/6
f 513/2/6 514/2/6 546/2/6
f 545/5/6 513/5/6 546/5/6
f 514/5/6 515/5/6 547/5/6
f 546/2/6 514/2/6 547/2/6
f 515/2/6 516/2/6 548/2/6
f 547/5/6 515/5/6 548/5/6
f 516/5/6 517/5/6 549/5/6
f 548/2/6 516/2/6 549/2/6
f 517/2/6 518/2/6 550/2/6
f 549/5/6 517/5/6 550/5/6
f 518/5/6 519/5/6 551/5/6
f 550/2/6 518/2/6 551/2/6
f 519/2/6 520/2/6 552/2/6
f 551/5/6 519/5/6 552/5/6
f 520/5/6 521/5/6 553/5/6
f 552/2/6 520/2/6 553/2/6
f 521/2/6 522/2/6 554/2/6
f 553/5/6 521/5/6 554/5/6
f 522/5/6 523/5/6 555/5/6
f 554/2/6 522/2/6 555/2/6
f 523/2/6 524/2/6 556/2/6
f 555/5/6 523/5/6 556/5/6
f 524/5/6 525/5/6 557/5/6
f 556/2/6 524/2/6 557/2/6
f 525/2/6 526/2/6 558/2/6
f 557/5/6 525/5/6 558/5/6
f 526/5/6 527/5/6 559/5/6
f 558/2/6 526/2/6 559/2/6
f 527/2/6 528/2/6 560/2/6
f 559/5/6 527/5/6 560/5/6
f 528/5/6 529/5/6 561/5/6
f 560/2/6 528/2/6 561/2/6
f 529/2/6 530/2/6 562/2/6
f 561/5/6 529/5/6 562/5/6
f 530/5/6 531/5/6 563/5/6
f 562/2/6 530/2/6 563/2/6
f 531/2/6 532/2/6 564/2/6
f 563/5/6 531/5/6 564/5/6
f 532/5/6 533/5/6 565/5/6
f 564/2/6 532/2/6 565/2/6
f 533/2/6 534/2/6 566/2/6
f 565/5/6 533/5/6 566/5/6
f 534/5/6 535/5/6 567/5/6
f 566/2/6 534/2/6 567/2/6
f 535/2/6 536/2/6 568/2/6
f 567/5/6 535/5/6 568/5/6
f 536/5/6 537/5/6 569/5/6
f 568/2/6 536/2/6 569/2/6
f 537/2/6 538/2/6 570/2/6
f 569/5/6 537/5/6 570/5/6
f 505/2/6 539/2/6 571/2/6
f 539/1/6 540/1/6 571/1/6
f 540/2/6 541/2/6 572/2/6
f 571/1/6 540/1/6 572/1/6
f 541/1/6 542/1/6 573/1/6
f 572/2/6 541/2/6 573/2/6
f 542/2/6 543/2/6 574/2/6
f 573/1/6 542/1/6 574/1/6
f 543/1/6 544/1/6 575/1/6
f 574/2/6 543/2/6 575/2/6
f 544/2/6 545/2/6 576/2/6
f 575/1/6 544/1/6 576/1/6
f 545/1/6 546/1/6 577/1/6
f 576/2/6 545/2/6 577/2/6
f 546/2/6 547/2/6 578/2/6
f 577/1/6 546/1/6 578/1/6
f 547/1/6 548/1/6 579/1/6
f 578/2/6 547/2/6 579/2/6
f 548/2/6 549/2/6 580/2/6
f 579/1/6 548/1/6 580/1/6
f 549/1/6 550/1/6 581/1/6
f 580/2/6 549/2/6 581/2/6
f 550/2/6 551/2/6 582/2/6
f 581/1/6 550/1/6 582/1/6
f 551/1/6 552/1/6 583/1/6
f 582/2/6 551/2/6 583/2/6
f 552/2/6 553/2/6 584/2/6
f 583/1/6 552/1/6 584/1/6
f 553/1/6 554/1/6 585/1/6
f 584/2/6 553/2/6 585/2/6
f 554/2/6 555/2/6 586/2/6
f 585/1/6 554/1/6 586/1/6
f 555/1/6 556/1/6 587/1/6
f 586/2/6 555/2/6 587/2/6
f 556/2/6 557/2/6 588/2/6
f 587/1/6 556/1/6 588/1/6
f 557/1/6 558/1/6 589/1/6
f 588/2/6 557/2/6 589/2/6
f 558/2/6 559/2/6 590/2/6
f 589/1/6 558/1/6 590/1/6
f 559/1/6 560/1/6 591/1/6
f 590/2/6 559/2/6 591/2/6
f 560/2/6 561/2/6 592/2/6
f 591/1/6 560/1/6 592/1/6
f 561/1/6 562/1/6 593/1/6
f 592/2/6 561/2/6 593/2/6
f 562/2/6 563/2/6 594/2/6
f 593/1/6 562/1/6 594/1/6
f 563/1/6 564/1/6 595/1/6
f 594/2/6 563/2/6 595/2/6
f 564/2/6 565/2/6 596/2/6
f 595/1/6 564/1/6 596/1/6
f 565/1/6 566/1/6 597/1/6
f 596/2/6 565/2/6 597/2/6
f 566/2/6 567/2/6 598/2/6
f 597/1/6 566/1/6 598/1/6
f 567/1/6 568/1/6 599/1/6
f 598/2/6 567/2/6 599/2/6
f 568/2/6 569/2/6 600/2/6
f 599/1/6 568/1/6 600/1/6
f 569/1/6 570/1/6 601/1/6
f 600/2/6 569/2/6 601/2/6
f 570/2/6 538/2/6 602/2/6
f 601/1/6 570/1/6 602/1/6
f 505/2/6 571/2/6 603/2/6
f 571/5/6 572/5/6 604/5/6
f 603/2/6 571/2/6 604/2/6
f 572/2/6 573/2/6 605/2/6
f 604/5/6 572/5/6 605/5/6
f 573/5/6 574/5/6 606/5/6
f 605/2/6 573/2/6 606/2/6
f 574/2/6 575/2/6 607/2/6
f 606/5/6 574/5/6 607/5/6
f 575/5/6 576/5/6 608/5/6
f 607/2/6 575/2/6 608/2/6
f 576/2/6 577/2/6 609/2/6
f 608/5/6 576/5/6 609/5/6
f 577/5/6 578/5/6 610/5/6
f 609/2/6 577/2/6 610/2/6
f 578/2/6 579/2/6 611/2/6
f 610/5/6 578/5/6 611/5/6
f 579/5/6 580/5/6 612/5/6
f 611/2/6 579/2/6 612/2/6
f 580/2/6 581/2/6 613/2/6
f 612/5/6 580/5/6 613/5/6
f 581/5/6 582/5/6 614/5/6
f 613/2/6 581/2/6 614/2/6
f 582/2/6 583/2/6 615/2/6
f 614/5/6 582/5/6 615/5/6
f 583/5/6 584/5/6 616/5/6
f 615/2/6 583/2/6 616/2/6
f 584/2/6 585/2/6 617/2/6
f 616/5/6 584/5/6 617/5/6
f 585/5/6 586/5/6 618/5/6
f 617/2/6 585/2/6 618/2/6
f 586/2/6 587/2/6 619/2/6
f 618/5/6 586/5/6 619/5/6
f 587/5/6 588/5/6 620/5/6
f 619/2/6 587/2/6 620/2/6
f 588/2/6 589/2/6 621/2/6
f 620/5/6 588/5/6 621/5/6
f 589/5/6 590/5/6 622/5/6
f 621/2/6 589/2/6 622/2/6
f 590/2/6 591/2/6 623/2/6
f 622/5/6 590/5/6 623/5/6
f 591/5/6 592/5/6 624/5/6
f 623/2/6 591/2/6 624/2/6
f 592/2/6 593/2/6 625/2/6
f 624/5/6 592/5/6 625/5/6
f 593/5/6 594/5/6 626/5/6
f 625/2/6 593/2/6 626/2/6
f 594/2/6 595/2/6 627/2/6
f 626/5/6 594/5/6 627/5/6
f 595/5/6 596/5/6 628/5/6
f 627/2/6 595/2/6 628/2/6
f 596/2/6 597/2/6 629/2/6
f 628/5/6 596/5/6 629/5/6
f 597/5/6 598/5/6 630/5/6
f 629/2/6 597/2/6 630/2/6
f 598/2/6 599/2/6 631/2/6
f 630/5/6 598/5/6 631/5/6
f 599/5/6 600/5/6 632/5/6
f 631/2/6 599/2/6 632/2/6
f 600/2/6 601/2/6 633/2/6
f 632/5/6 600/5/6 633/5/6
f 601/5/6 602/5/6 634/5/6
f 633/2/6 601/2/6 634/2/6
f 602/2/6 538/2/6 635/2/6
f 634/5/6 602/5/6 635/5/6
f 635/2/6 538/2/6 636/2/6
