# MagicaVoxel @ Ephtracy

# group
o wall-metal-corugated

# material
mtllib components-8-wall-metal-corugated.mtl
usemtl palette

# normals
vn -1 0 0
vn 1 0 0
vn 0 0 1
vn 0 0 -1
vn 0 -1 0
vn 0 1 0

# texcoords
vt 0.501953 0.5
vt 0.505859 0.5
vt 0.509766 0.5
vt 0.513672 0.5

# verts
v -1.4 0 19.3
v -1.4 0 19.2
v -1.4 0.1 19.3
v -1.4 0.1 19.2
v -1.4 0.2 19.3
v -1.4 0.2 19.2
v -1.4 0.3 19.3
v -1.4 0.3 19.2
v -1.4 0.4 19.3
v -1.4 0.4 19.2
v -1.4 0.5 19.3
v -1.4 0.5 19.2
v -1.4 0.6 19.3
v -1.4 0.6 19.2
v -1.4 0.7 19.3
v -1.4 0.7 19.2
v -1.4 0.8 19.3
v -1.4 0.8 19.2
v -1.4 0.9 19.3
v -1.4 0.9 19.2
v -1.4 1 19.3
v -1.4 1 19.2
v -1.4 1.1 19.3
v -1.4 1.1 19.2
v -1.4 1.2 19.3
v -1.4 1.2 19.2
v -1.4 1.3 19.3
v -1.4 1.3 19.2
v -1.4 1.5 19.3
v -1.4 1.5 19.2
v -1.4 1.6 19.3
v -1.4 1.6 19.2
v -1.4 1.7 19.3
v -1.4 1.7 19.2
v -1.4 1.8 19.3
v -1.4 1.8 19.2
v -1.4 1.9 19.3
v -1.4 1.9 19.2
v -1.4 2 19.3
v -1.4 2 19.2
v -1.4 2.1 19.3
v -1.4 2.1 19.2
v -1.4 2.2 19.3
v -1.4 2.2 19.2
v -1.4 2.5 19.3
v -1.4 2.5 19.2
v -1.4 2.6 19.3
v -1.4 2.6 19.2
v -1.4 2.7 19.3
v -1.4 2.7 19.2
v -1.4 2.8 19.3
v -1.4 2.8 19.2
v -1.4 2.9 19.3
v -1.4 2.9 19.2
v -1.4 3 19.3
v -1.4 3 19.2
v -1.4 3.3 19.3
v -1.4 3.3 19.2
v 1.4 0 19.3
v 1.4 0 19.2
v 1.4 0.1 19.3
v 1.4 0.1 19.2
v 1.4 0.2 19.3
v 1.4 0.2 19.2
v 1.4 0.4 19.3
v 1.4 0.4 19.2
v 1.4 0.5 19.3
v 1.4 0.5 19.2
v 1.4 0.8 19.3
v 1.4 0.8 19.2
v 1.4 0.9 19.3
v 1.4 0.9 19.2
v 1.4 1 19.3
v 1.4 1 19.2
v 1.4 1.1 19.3
v 1.4 1.1 19.2
v 1.4 1.2 19.3
v 1.4 1.2 19.2
v 1.4 1.3 19.3
v 1.4 1.3 19.2
v 1.4 1.5 19.3
v 1.4 1.5 19.2
v 1.4 1.6 19.3
v 1.4 1.6 19.2
v 1.4 1.7 19.3
v 1.4 1.7 19.2
v 1.4 1.8 19.3
v 1.4 1.8 19.2
v 1.4 2.1 19.3
v 1.4 2.1 19.2
v 1.4 2.2 19.3
v 1.4 2.2 19.2
v 1.4 2.4 19.3
v 1.4 2.4 19.2
v 1.4 2.5 19.3
v 1.4 2.5 19.2
v 1.4 2.6 19.3
v 1.4 2.6 19.2
v 1.4 2.7 19.3
v 1.4 2.7 19.2
v 1.4 2.8 19.3
v 1.4 2.8 19.2
v 1.4 2.9 19.3
v 1.4 2.9 19.2
v 1.4 3 19.3
v 1.4 3 19.2
v 1.4 3.3 19.3
v 1.4 3.3 19.2
v -1.4 0 19.3
v -1.4 0.1 19.3
v -1.4 0.2 19.3
v -1.4 0.3 19.3
v -1.4 0.4 19.3
v -1.4 0.5 19.3
v -1.4 0.6 19.3
v -1.4 0.7 19.3
v -1.4 0.8 19.3
v -1.4 0.9 19.3
v -1.4 1 19.3
v -1.4 1.1 19.3
v -1.4 1.2 19.3
v -1.4 1.3 19.3
v -1.4 1.5 19.3
v -1.4 1.6 19.3
v -1.4 1.7 19.3
v -1.4 1.8 19.3
v -1.4 1.9 19.3
v -1.4 2 19.3
v -1.4 2.1 19.3
v -1.4 2.2 19.3
v -1.4 2.5 19.3
v -1.4 2.6 19.3
v -1.4 2.7 19.3
v -1.4 2.8 19.3
v -1.4 2.9 19.3
v -1.4 3 19.3
v -1.4 3.3 19.3
v -1.3 0.1 19.3
v -1.3 0.2 19.3
v -1.3 0.5 19.3
v -1.3 0.6 19.3
v -1.3 0.7 19.3
v -1.3 0.8 19.3
v -1.3 0.9 19.3
v -1.3 1.3 19.3
v -1.3 1.4 19.3
v -1.3 1.5 19.3
v -1.3 1.6 19.3
v -1.3 1.7 19.3
v -1.3 1.8 19.3
v -1.3 1.9 19.3
v -1.3 2.2 19.3
v -1.3 2.3 19.3
v -1.3 2.5 19.3
v -1.3 2.6 19.3
v -1.3 2.8 19.3
v -1.3 2.9 19.3
v -1.3 3 19.3
v -1.3 3.1 19.3
v -1.3 3.2 19.3
v -1.2 0 19.3
v -1.2 0.1 19.3
v -1.2 0.2 19.3
v -1.2 0.3 19.3
v -1.2 0.4 19.3
v -1.2 0.9 19.3
v -1.2 1 19.3
v -1.2 1.1 19.3
v -1.2 1.3 19.3
v -1.2 1.4 19.3
v -1.2 1.6 19.3
v -1.2 2.5 19.3
v -1.2 2.6 19.3
v -1.2 2.7 19.3
v -1.2 2.8 19.3
v -1.2 2.9 19.3
v -1.2 3 19.3
v -1.1 0 19.3
v -1.1 0.1 19.3
v -1.1 0.2 19.3
v -1.1 0.3 19.3
v -1.1 0.6 19.3
v -1.1 0.7 19.3
v -1.1 0.8 19.3
v -1.1 0.9 19.3
v -1.1 1 19.3
v -1.1 1.1 19.3
v -1.1 1.2 19.3
v -1.1 1.3 19.3
v -1.1 1.6 19.3
v -1.1 1.7 19.3
v -1.1 1.9 19.3
v -1.1 2 19.3
v -1.1 2.4 19.3
v -1.1 2.5 19.3
v -1.1 2.8 19.3
v -1.1 2.9 19.3
v -1.1 3 19.3
v -1.1 3.1 19.3
v -1.1 3.2 19.3
v -1.1 3.3 19.3
v -1 0 19.3
v -1 0.1 19.3
v -1 0.2 19.3
v -1 0.3 19.3
v -1 0.4 19.3
v -1 0.5 19.3
v -1 0.6 19.3
v -1 0.8 19.3
v -1 1.3 19.3
v -1 1.4 19.3
v -1 1.5 19.3
v -1 1.6 19.3
v -1 1.7 19.3
v -1 1.9 19.3
v -1 2 19.3
v -1 2.1 19.3
v -1 2.2 19.3
v -1 2.3 19.3
v -1 2.5 19.3
v -1 2.6 19.3
v -1 2.8 19.3
v -1 2.9 19.3
v -1 3 19.3
v -1 3.1 19.3
v -1 3.2 19.3
v -1 3.3 19.3
v -0.9 0 19.3
v -0.9 0.1 19.3
v -0.9 0.3 19.3
v -0.9 0.4 19.3
v -0.9 0.5 19.3
v -0.9 0.6 19.3
v -0.9 0.8 19.3
v -0.9 0.9 19.3
v -0.9 1 19.3
v -0.9 1.1 19.3
v -0.9 1.2 19.3
v -0.9 1.3 19.3
v -0.9 1.4 19.3
v -0.9 1.5 19.3
v -0.9 1.6 19.3
v -0.9 2.3 19.3
v -0.9 2.4 19.3
v -0.9 2.5 19.3
v -0.9 2.6 19.3
v -0.9 2.7 19.3
v -0.9 2.9 19.3
v -0.9 3 19.3
v -0.9 3.1 19.3
v -0.9 3.2 19.3
v -0.8 0.1 19.3
v -0.8 0.2 19.3
v -0.8 0.3 19.3
v -0.8 0.4 19.3
v -0.8 0.6 19.3
v -0.8 0.8 19.3
v -0.8 0.9 19.3
v -0.8 1 19.3
v -0.8 1.2 19.3
v -0.8 1.3 19.3
v -0.8 1.4 19.3
v -0.8 1.5 19.3
v -0.8 1.6 19.3
v -0.8 1.7 19.3
v -0.8 1.8 19.3
v -0.8 2 19.3
v -0.8 2.1 19.3
v -0.8 2.2 19.3
v -0.8 2.3 19.3
v -0.8 2.4 19.3
v -0.8 2.9 19.3
v -0.8 3 19.3
v -0.8 3.1 19.3
v -0.8 3.3 19.3
v -0.7 0 19.3
v -0.7 0.1 19.3
v -0.7 0.2 19.3
v -0.7 0.3 19.3
v -0.7 0.8 19.3
v -0.7 0.9 19.3
v -0.7 1 19.3
v -0.7 1.1 19.3
v -0.7 1.2 19.3
v -0.7 1.4 19.3
v -0.7 1.6 19.3
v -0.7 2.2 19.3
v -0.7 2.4 19.3
v -0.7 2.7 19.3
v -0.7 2.8 19.3
v -0.7 2.9 19.3
v -0.7 3 19.3
v -0.7 3.3 19.3
v -0.6 0.3 19.3
v -0.6 0.4 19.3
v -0.6 0.6 19.3
v -0.6 0.8 19.3
v -0.6 1 19.3
v -0.6 1.1 19.3
v -0.6 1.2 19.3
v -0.6 1.3 19.3
v -0.6 1.4 19.3
v -0.6 1.5 19.3
v -0.6 1.6 19.3
v -0.6 1.7 19.3
v -0.6 1.8 19.3
v -0.6 2.2 19.3
v -0.6 2.3 19.3
v -0.6 2.4 19.3
v -0.6 2.5 19.3
v -0.6 2.8 19.3
v -0.6 2.9 19.3
v -0.6 3 19.3
v -0.6 3.2 19.3
v -0.5 0 19.3
v -0.5 0.1 19.3
v -0.5 0.2 19.3
v -0.5 0.3 19.3
v -0.5 0.4 19.3
v -0.5 0.5 19.3
v -0.5 0.6 19.3
v -0.5 0.8 19.3
v -0.5 0.9 19.3
v -0.5 1 19.3
v -0.5 1.1 19.3
v -0.5 1.2 19.3
v -0.5 1.3 19.3
v -0.5 1.4 19.3
v -0.5 1.5 19.3
v -0.5 1.6 19.3
v -0.5 1.7 19.3
v -0.5 1.8 19.3
v -0.5 2 19.3
v -0.5 2.2 19.3
v -0.5 2.3 19.3
v -0.5 2.4 19.3
v -0.5 2.5 19.3
v -0.5 2.6 19.3
v -0.5 2.7 19.3
v -0.5 2.9 19.3
v -0.5 3 19.3
v -0.5 3.1 19.3
v -0.4 0.4 19.3
v -0.4 0.5 19.3
v -0.4 0.6 19.3
v -0.4 0.8 19.3
v -0.4 1 19.3
v -0.4 1.2 19.3
v -0.4 1.5 19.3
v -0.4 1.6 19.3
v -0.4 1.7 19.3
v -0.4 1.9 19.3
v -0.4 2 19.3
v -0.4 2.4 19.3
v -0.4 2.5 19.3
v -0.4 2.6 19.3
v -0.4 2.7 19.3
v -0.4 3.1 19.3
v -0.4 3.2 19.3
v -0.4 3.3 19.3
v -0.3 0.2 19.3
v -0.3 0.3 19.3
v -0.3 0.4 19.3
v -0.3 0.5 19.3
v -0.3 0.6 19.3
v -0.3 0.8 19.3
v -0.3 1 19.3
v -0.3 1.2 19.3
v -0.3 1.3 19.3
v -0.3 1.4 19.3
v -0.3 1.5 19.3
v -0.3 1.6 19.3
v -0.3 1.7 19.3
v -0.3 1.8 19.3
v -0.3 1.9 19.3
v -0.3 2.3 19.3
v -0.3 2.4 19.3
v -0.3 2.6 19.3
v -0.3 2.7 19.3
v -0.3 2.8 19.3
v -0.3 2.9 19.3
v -0.3 3.2 19.3
v -0.3 3.3 19.3
v -0.2 0.1 19.3
v -0.2 0.2 19.3
v -0.2 0.7 19.3
v -0.2 0.8 19.3
v -0.2 0.9 19.3
v -0.2 1 19.3
v -0.2 1.2 19.3
v -0.2 1.4 19.3
v -0.2 1.5 19.3
v -0.2 1.6 19.3
v -0.2 1.7 19.3
v -0.2 1.8 19.3
v -0.2 2 19.3
v -0.2 2.1 19.3
v -0.2 2.2 19.3
v -0.2 2.9 19.3
v -0.2 3 19.3
v -0.2 3.1 19.3
v -0.2 3.3 19.3
v -0.1 0.1 19.3
v -0.1 0.2 19.3
v -0.1 0.4 19.3
v -0.1 0.5 19.3
v -0.1 0.6 19.3
v -0.1 0.7 19.3
v -0.1 0.8 19.3
v -0.1 0.9 19.3
v -0.1 1 19.3
v -0.1 1.1 19.3
v -0.1 1.2 19.3
v -0.1 1.3 19.3
v -0.1 1.4 19.3
v -0.1 1.5 19.3
v -0.1 1.9 19.3
v -0.1 2 19.3
v -0.1 2.1 19.3
v -0.1 2.2 19.3
v -0.1 2.3 19.3
v -0.1 2.4 19.3
v -0.1 2.5 19.3
v -0.1 2.6 19.3
v -0.1 2.7 19.3
v -0.1 2.8 19.3
v -0.1 2.9 19.3
v -0.1 3 19.3
v -0.1 3.1 19.3
v -0.1 3.3 19.3
v 2.23517e-008 0 19.3
v 2.23517e-008 0.1 19.3
v 2.23517e-008 0.2 19.3
v 2.23517e-008 0.3 19.3
v 2.23517e-008 0.4 19.3
v 2.23517e-008 0.5 19.3
v 2.23517e-008 0.6 19.3
v 2.23517e-008 0.7 19.3
v 2.23517e-008 0.8 19.3
v 2.23517e-008 0.9 19.3
v 2.23517e-008 1 19.3
v 2.23517e-008 1.1 19.3
v 2.23517e-008 1.2 19.3
v 2.23517e-008 1.3 19.3
v 2.23517e-008 1.4 19.3
v 2.23517e-008 1.8 19.3
v 2.23517e-008 1.9 19.3
v 2.23517e-008 2.2 19.3
v 2.23517e-008 2.3 19.3
v 2.23517e-008 2.4 19.3
v 2.23517e-008 2.5 19.3
v 2.23517e-008 2.6 19.3
v 2.23517e-008 2.7 19.3
v 2.23517e-008 2.8 19.3
v 2.23517e-008 2.9 19.3
v 2.23517e-008 3 19.3
v 2.23517e-008 3.1 19.3
v 2.23517e-008 3.3 19.3
v 0.1 0 19.3
v 0.1 0.1 19.3
v 0.1 0.2 19.3
v 0.1 0.3 19.3
v 0.1 0.4 19.3
v 0.1 0.5 19.3
v 0.1 0.6 19.3
v 0.1 0.7 19.3
v 0.1 1 19.3
v 0.1 1.1 19.3
v 0.1 1.6 19.3
v 0.1 1.7 19.3
v 0.1 1.9 19.3
v 0.1 2 19.3
v 0.1 2.1 19.3
v 0.1 2.2 19.3
v 0.1 2.3 19.3
v 0.1 2.4 19.3
v 0.1 2.5 19.3
v 0.1 2.6 19.3
v 0.1 2.7 19.3
v 0.1 2.8 19.3
v 0.1 2.9 19.3
v 0.1 3 19.3
v 0.1 3.2 19.3
v 0.1 3.3 19.3
v 0.2 0.1 19.3
v 0.2 0.2 19.3
v 0.2 0.4 19.3
v 0.2 0.5 19.3
v 0.2 0.6 19.3
v 0.2 0.8 19.3
v 0.2 0.9 19.3
v 0.2 1 19.3
v 0.2 1.2 19.3
v 0.2 1.3 19.3
v 0.2 1.4 19.3
v 0.2 1.5 19.3
v 0.2 1.7 19.3
v 0.2 1.8 19.3
v 0.2 1.9 19.3
v 0.2 2.2 19.3
v 0.2 2.3 19.3
v 0.2 2.4 19.3
v 0.2 2.5 19.3
v 0.2 2.7 19.3
v 0.2 2.8 19.3
v 0.2 2.9 19.3
v 0.2 3 19.3
v 0.2 3.1 19.3
v 0.2 3.2 19.3
v 0.2 3.3 19.3
v 0.3 0.1 19.3
v 0.3 0.2 19.3
v 0.3 0.3 19.3
v 0.3 0.4 19.3
v 0.3 0.7 19.3
v 0.3 0.8 19.3
v 0.3 1 19.3
v 0.3 1.2 19.3
v 0.3 1.4 19.3
v 0.3 1.5 19.3
v 0.3 2 19.3
v 0.3 2.1 19.3
v 0.3 2.2 19.3
v 0.3 2.3 19.3
v 0.3 2.4 19.3
v 0.3 2.5 19.3
v 0.3 2.6 19.3
v 0.3 2.7 19.3
v 0.3 2.8 19.3
v 0.3 2.9 19.3
v 0.3 3 19.3
v 0.3 3.1 19.3
v 0.3 3.2 19.3
v 0.3 3.3 19.3
v 0.4 0 19.3
v 0.4 0.1 19.3
v 0.4 0.2 19.3
v 0.4 0.3 19.3
v 0.4 0.6 19.3
v 0.4 0.7 19.3
v 0.4 0.8 19.3
v 0.4 0.9 19.3
v 0.4 1 19.3
v 0.4 1.1 19.3
v 0.4 1.2 19.3
v 0.4 1.7 19.3
v 0.4 1.8 19.3
v 0.4 2 19.3
v 0.4 2.1 19.3
v 0.4 2.2 19.3
v 0.4 2.4 19.3
v 0.4 2.5 19.3
v 0.4 2.6 19.3
v 0.4 2.7 19.3
v 0.4 2.8 19.3
v 0.4 2.9 19.3
v 0.4 3 19.3
v 0.4 3.1 19.3
v 0.5 0.1 19.3
v 0.5 0.2 19.3
v 0.5 0.4 19.3
v 0.5 0.5 19.3
v 0.5 0.6 19.3
v 0.5 0.7 19.3
v 0.5 0.8 19.3
v 0.5 0.9 19.3
v 0.5 1 19.3
v 0.5 1.1 19.3
v 0.5 1.2 19.3
v 0.5 1.3 19.3
v 0.5 1.4 19.3
v 0.5 1.6 19.3
v 0.5 1.7 19.3
v 0.5 1.8 19.3
v 0.5 2 19.3
v 0.5 2.1 19.3
v 0.5 2.2 19.3
v 0.5 2.4 19.3
v 0.5 2.5 19.3
v 0.5 2.7 19.3
v 0.5 2.8 19.3
v 0.5 3 19.3
v 0.5 3.1 19.3
v 0.5 3.2 19.3
v 0.5 3.3 19.3
v 0.6 0 19.3
v 0.6 0.1 19.3
v 0.6 0.2 19.3
v 0.6 0.3 19.3
v 0.6 0.4 19.3
v 0.6 0.5 19.3
v 0.6 0.6 19.3
v 0.6 0.7 19.3
v 0.6 0.8 19.3
v 0.6 0.9 19.3
v 0.6 1.1 19.3
v 0.6 1.2 19.3
v 0.6 1.3 19.3
v 0.6 1.4 19.3
v 0.6 1.5 19.3
v 0.6 1.9 19.3
v 0.6 2 19.3
v 0.6 2.2 19.3
v 0.6 2.4 19.3
v 0.6 2.5 19.3
v 0.6 2.6 19.3
v 0.6 2.9 19.3
v 0.6 3 19.3
v 0.6 3.1 19.3
v 0.7 0.5 19.3
v 0.7 0.6 19.3
v 0.7 0.7 19.3
v 0.7 0.8 19.3
v 0.7 0.9 19.3
v 0.7 1 19.3
v 0.7 1.4 19.3
v 0.7 1.5 19.3
v 0.7 1.6 19.3
v 0.7 1.7 19.3
v 0.7 1.8 19.3
v 0.7 1.9 19.3
v 0.7 2 19.3
v 0.7 2.3 19.3
v 0.7 2.4 19.3
v 0.7 2.6 19.3
v 0.7 2.7 19.3
v 0.7 2.8 19.3
v 0.7 2.9 19.3
v 0.7 3 19.3
v 0.8 0.1 19.3
v 0.8 0.2 19.3
v 0.8 0.3 19.3
v 0.8 0.4 19.3
v 0.8 0.6 19.3
v 0.8 0.7 19.3
v 0.8 0.8 19.3
v 0.8 0.9 19.3
v 0.8 1.3 19.3
v 0.8 1.4 19.3
v 0.8 1.5 19.3
v 0.8 1.6 19.3
v 0.8 1.8 19.3
v 0.8 1.9 19.3
v 0.8 2.2 19.3
v 0.8 2.3 19.3
v 0.8 2.4 19.3
v 0.8 2.5 19.3
v 0.8 2.6 19.3
v 0.8 3.1 19.3
v 0.8 3.2 19.3
v 0.8 3.3 19.3
v 0.9 0.7 19.3
v 0.9 0.8 19.3
v 0.9 0.9 19.3
v 0.9 1 19.3
v 0.9 1.1 19.3
v 0.9 1.2 19.3
v 0.9 1.3 19.3
v 0.9 1.4 19.3
v 0.9 1.5 19.3
v 0.9 1.6 19.3
v 0.9 1.7 19.3
v 0.9 1.9 19.3
v 0.9 2 19.3
v 0.9 2.1 19.3
v 0.9 2.2 19.3
v 0.9 2.4 19.3
v 0.9 2.5 19.3
v 0.9 2.6 19.3
v 0.9 2.7 19.3
v 0.9 3 19.3
v 0.9 3.1 19.3
v 0.9 3.2 19.3
v 1 0.1 19.3
v 1 0.2 19.3
v 1 0.3 19.3
v 1 0.4 19.3
v 1 0.8 19.3
v 1 0.9 19.3
v 1 1 19.3
v 1 1.1 19.3
v 1 1.2 19.3
v 1 1.4 19.3
v 1 1.5 19.3
v 1 1.6 19.3
v 1 1.7 19.3
v 1 1.8 19.3
v 1 1.9 19.3
v 1 2 19.3
v 1 2.3 19.3
v 1 2.4 19.3
v 1 2.6 19.3
v 1 2.7 19.3
v 1 2.8 19.3
v 1 2.9 19.3
v 1 3 19.3
v 1 3.1 19.3
v 1 3.2 19.3
v 1.1 0 19.3
v 1.1 0.1 19.3
v 1.1 0.3 19.3
v 1.1 0.4 19.3
v 1.1 0.5 19.3
v 1.1 0.8 19.3
v 1.1 0.9 19.3
v 1.1 1 19.3
v 1.1 1.1 19.3
v 1.1 1.4 19.3
v 1.1 1.5 19.3
v 1.1 1.6 19.3
v 1.1 1.7 19.3
v 1.1 1.8 19.3
v 1.1 2 19.3
v 1.1 2.3 19.3
v 1.1 2.4 19.3
v 1.1 2.5 19.3
v 1.1 2.7 19.3
v 1.1 2.8 19.3
v 1.1 2.9 19.3
v 1.1 3 19.3
v 1.1 3.1 19.3
v 1.2 0 19.3
v 1.2 0.1 19.3
v 1.2 0.3 19.3
v 1.2 0.4 19.3
v 1.2 0.7 19.3
v 1.2 0.8 19.3
v 1.2 0.9 19.3
v 1.2 1.2 19.3
v 1.2 1.3 19.3
v 1.2 1.4 19.3
v 1.2 1.5 19.3
v 1.2 1.9 19.3
v 1.2 2 19.3
v 1.2 2.1 19.3
v 1.2 2.2 19.3
v 1.2 2.3 19.3
v 1.2 2.4 19.3
v 1.2 2.5 19.3
v 1.2 2.7 19.3
v 1.2 2.8 19.3
v 1.2 2.9 19.3
v 1.2 3.1 19.3
v 1.2 3.2 19.3
v 1.2 3.3 19.3
v 1.3 0.3 19.3
v 1.3 0.4 19.3
v 1.3 0.5 19.3
v 1.3 0.6 19.3
v 1.3 0.8 19.3
v 1.3 1.1 19.3
v 1.3 1.2 19.3
v 1.3 1.3 19.3
v 1.3 1.5 19.3
v 1.3 1.6 19.3
v 1.3 1.8 19.3
v 1.3 1.9 19.3
v 1.3 2 19.3
v 1.3 2.1 19.3
v 1.3 2.4 19.3
v 1.3 2.5 19.3
v 1.3 2.8 19.3
v 1.3 2.9 19.3
v 1.3 3.2 19.3
v 1.3 3.3 19.3
v 1.4 0 19.3
v 1.4 0.1 19.3
v 1.4 0.2 19.3
v 1.4 0.4 19.3
v 1.4 0.5 19.3
v 1.4 0.8 19.3
v 1.4 0.9 19.3
v 1.4 1 19.3
v 1.4 1.1 19.3
v 1.4 1.2 19.3
v 1.4 1.3 19.3
v 1.4 1.5 19.3
v 1.4 1.6 19.3
v 1.4 1.7 19.3
v 1.4 1.8 19.3
v 1.4 2.1 19.3
v 1.4 2.2 19.3
v 1.4 2.4 19.3
v 1.4 2.5 19.3
v 1.4 2.6 19.3
v 1.4 2.7 19.3
v 1.4 2.8 19.3
v 1.4 2.9 19.3
v 1.4 3 19.3
v 1.4 3.3 19.3
v -1.4 0 19.2
v -1.4 0.1 19.2
v -1.4 0.2 19.2
v -1.4 0.3 19.2
v -1.4 0.4 19.2
v -1.4 0.5 19.2
v -1.4 0.6 19.2
v -1.4 0.7 19.2
v -1.4 0.8 19.2
v -1.4 0.9 19.2
v -1.4 1 19.2
v -1.4 1.1 19.2
v -1.4 1.2 19.2
v -1.4 1.3 19.2
v -1.4 1.5 19.2
v -1.4 1.6 19.2
v -1.4 1.7 19.2
v -1.4 1.8 19.2
v -1.4 1.9 19.2
v -1.4 2 19.2
v -1.4 2.1 19.2
v -1.4 2.2 19.2
v -1.4 2.5 19.2
v -1.4 2.6 19.2
v -1.4 2.7 19.2
v -1.4 2.8 19.2
v -1.4 2.9 19.2
v -1.4 3 19.2
v -1.4 3.3 19.2
v -1.3 0.1 19.2
v -1.3 0.2 19.2
v -1.3 0.5 19.2
v -1.3 0.6 19.2
v -1.3 0.7 19.2
v -1.3 0.8 19.2
v -1.3 0.9 19.2
v -1.3 1.3 19.2
v -1.3 1.4 19.2
v -1.3 1.5 19.2
v -1.3 1.6 19.2
v -1.3 1.7 19.2
v -1.3 1.8 19.2
v -1.3 1.9 19.2
v -1.3 2.2 19.2
v -1.3 2.3 19.2
v -1.3 2.5 19.2
v -1.3 2.6 19.2
v -1.3 2.8 19.2
v -1.3 2.9 19.2
v -1.3 3 19.2
v -1.3 3.1 19.2
v -1.3 3.2 19.2
v -1.2 0 19.2
v -1.2 0.1 19.2
v -1.2 0.2 19.2
v -1.2 0.3 19.2
v -1.2 0.4 19.2
v -1.2 0.9 19.2
v -1.2 1 19.2
v -1.2 1.1 19.2
v -1.2 1.3 19.2
v -1.2 1.4 19.2
v -1.2 1.6 19.2
v -1.2 2.5 19.2
v -1.2 2.6 19.2
v -1.2 2.7 19.2
v -1.2 2.8 19.2
v -1.2 2.9 19.2
v -1.2 3 19.2
v -1.1 0 19.2
v -1.1 0.1 19.2
v -1.1 0.2 19.2
v -1.1 0.3 19.2
v -1.1 0.6 19.2
v -1.1 0.7 19.2
v -1.1 0.8 19.2
v -1.1 0.9 19.2
v -1.1 1 19.2
v -1.1 1.1 19.2
v -1.1 1.2 19.2
v -1.1 1.3 19.2
v -1.1 1.6 19.2
v -1.1 1.7 19.2
v -1.1 1.9 19.2
v -1.1 2 19.2
v -1.1 2.4 19.2
v -1.1 2.5 19.2
v -1.1 2.8 19.2
v -1.1 2.9 19.2
v -1.1 3 19.2
v -1.1 3.1 19.2
v -1.1 3.2 19.2
v -1.1 3.3 19.2
v -1 0 19.2
v -1 0.1 19.2
v -1 0.2 19.2
v -1 0.3 19.2
v -1 0.4 19.2
v -1 0.5 19.2
v -1 0.6 19.2
v -1 0.8 19.2
v -1 1.3 19.2
v -1 1.4 19.2
v -1 1.5 19.2
v -1 1.6 19.2
v -1 1.7 19.2
v -1 1.9 19.2
v -1 2 19.2
v -1 2.1 19.2
v -1 2.2 19.2
v -1 2.3 19.2
v -1 2.5 19.2
v -1 2.6 19.2
v -1 2.8 19.2
v -1 2.9 19.2
v -1 3 19.2
v -1 3.1 19.2
v -1 3.2 19.2
v -1 3.3 19.2
v -0.9 0 19.2
v -0.9 0.1 19.2
v -0.9 0.3 19.2
v -0.9 0.4 19.2
v -0.9 0.5 19.2
v -0.9 0.6 19.2
v -0.9 0.8 19.2
v -0.9 0.9 19.2
v -0.9 1 19.2
v -0.9 1.1 19.2
v -0.9 1.2 19.2
v -0.9 1.3 19.2
v -0.9 1.4 19.2
v -0.9 1.5 19.2
v -0.9 1.6 19.2
v -0.9 2.3 19.2
v -0.9 2.4 19.2
v -0.9 2.5 19.2
v -0.9 2.6 19.2
v -0.9 2.7 19.2
v -0.9 2.9 19.2
v -0.9 3 19.2
v -0.9 3.1 19.2
v -0.9 3.2 19.2
v -0.8 0.1 19.2
v -0.8 0.2 19.2
v -0.8 0.3 19.2
v -0.8 0.4 19.2
v -0.8 0.6 19.2
v -0.8 0.8 19.2
v -0.8 0.9 19.2
v -0.8 1 19.2
v -0.8 1.2 19.2
v -0.8 1.3 19.2
v -0.8 1.4 19.2
v -0.8 1.5 19.2
v -0.8 1.6 19.2
v -0.8 1.7 19.2
v -0.8 1.8 19.2
v -0.8 2 19.2
v -0.8 2.1 19.2
v -0.8 2.2 19.2
v -0.8 2.3 19.2
v -0.8 2.4 19.2
v -0.8 2.9 19.2
v -0.8 3 19.2
v -0.8 3.1 19.2
v -0.8 3.3 19.2
v -0.7 0 19.2
v -0.7 0.1 19.2
v -0.7 0.2 19.2
v -0.7 0.3 19.2
v -0.7 0.8 19.2
v -0.7 0.9 19.2
v -0.7 1 19.2
v -0.7 1.1 19.2
v -0.7 1.2 19.2
v -0.7 1.4 19.2
v -0.7 1.6 19.2
v -0.7 2.2 19.2
v -0.7 2.4 19.2
v -0.7 2.7 19.2
v -0.7 2.8 19.2
v -0.7 2.9 19.2
v -0.7 3 19.2
v -0.7 3.3 19.2
v -0.6 0.3 19.2
v -0.6 0.4 19.2
v -0.6 0.6 19.2
v -0.6 0.8 19.2
v -0.6 1 19.2
v -0.6 1.1 19.2
v -0.6 1.2 19.2
v -0.6 1.3 19.2
v -0.6 1.4 19.2
v -0.6 1.5 19.2
v -0.6 1.6 19.2
v -0.6 1.7 19.2
v -0.6 1.8 19.2
v -0.6 2.2 19.2
v -0.6 2.3 19.2
v -0.6 2.4 19.2
v -0.6 2.5 19.2
v -0.6 2.8 19.2
v -0.6 2.9 19.2
v -0.6 3 19.2
v -0.6 3.2 19.2
v -0.5 0 19.2
v -0.5 0.1 19.2
v -0.5 0.2 19.2
v -0.5 0.3 19.2
v -0.5 0.4 19.2
v -0.5 0.5 19.2
v -0.5 0.6 19.2
v -0.5 0.8 19.2
v -0.5 0.9 19.2
v -0.5 1 19.2
v -0.5 1.1 19.2
v -0.5 1.2 19.2
v -0.5 1.3 19.2
v -0.5 1.4 19.2
v -0.5 1.5 19.2
v -0.5 1.6 19.2
v -0.5 1.7 19.2
v -0.5 1.8 19.2
v -0.5 2 19.2
v -0.5 2.2 19.2
v -0.5 2.3 19.2
v -0.5 2.4 19.2
v -0.5 2.5 19.2
v -0.5 2.6 19.2
v -0.5 2.7 19.2
v -0.5 2.9 19.2
v -0.5 3 19.2
v -0.5 3.1 19.2
v -0.4 0.4 19.2
v -0.4 0.5 19.2
v -0.4 0.6 19.2
v -0.4 0.8 19.2
v -0.4 1 19.2
v -0.4 1.2 19.2
v -0.4 1.5 19.2
v -0.4 1.6 19.2
v -0.4 1.7 19.2
v -0.4 1.9 19.2
v -0.4 2 19.2
v -0.4 2.4 19.2
v -0.4 2.5 19.2
v -0.4 2.6 19.2
v -0.4 2.7 19.2
v -0.4 3.1 19.2
v -0.4 3.2 19.2
v -0.4 3.3 19.2
v -0.3 0.2 19.2
v -0.3 0.3 19.2
v -0.3 0.4 19.2
v -0.3 0.5 19.2
v -0.3 0.6 19.2
v -0.3 0.8 19.2
v -0.3 1 19.2
v -0.3 1.2 19.2
v -0.3 1.3 19.2
v -0.3 1.4 19.2
v -0.3 1.5 19.2
v -0.3 1.6 19.2
v -0.3 1.7 19.2
v -0.3 1.8 19.2
v -0.3 1.9 19.2
v -0.3 2.3 19.2
v -0.3 2.4 19.2
v -0.3 2.6 19.2
v -0.3 2.7 19.2
v -0.3 2.8 19.2
v -0.3 2.9 19.2
v -0.3 3.2 19.2
v -0.3 3.3 19.2
v -0.2 0.1 19.2
v -0.2 0.2 19.2
v -0.2 0.7 19.2
v -0.2 0.8 19.2
v -0.2 0.9 19.2
v -0.2 1 19.2
v -0.2 1.2 19.2
v -0.2 1.4 19.2
v -0.2 1.5 19.2
v -0.2 1.6 19.2
v -0.2 1.7 19.2
v -0.2 1.8 19.2
v -0.2 2 19.2
v -0.2 2.1 19.2
v -0.2 2.2 19.2
v -0.2 2.9 19.2
v -0.2 3 19.2
v -0.2 3.1 19.2
v -0.2 3.3 19.2
v -0.1 0.1 19.2
v -0.1 0.2 19.2
v -0.1 0.4 19.2
v -0.1 0.5 19.2
v -0.1 0.6 19.2
v -0.1 0.7 19.2
v -0.1 0.8 19.2
v -0.1 0.9 19.2
v -0.1 1 19.2
v -0.1 1.1 19.2
v -0.1 1.2 19.2
v -0.1 1.3 19.2
v -0.1 1.4 19.2
v -0.1 1.5 19.2
v -0.1 1.9 19.2
v -0.1 2 19.2
v -0.1 2.1 19.2
v -0.1 2.2 19.2
v -0.1 2.3 19.2
v -0.1 2.4 19.2
v -0.1 2.5 19.2
v -0.1 2.6 19.2
v -0.1 2.7 19.2
v -0.1 2.8 19.2
v -0.1 2.9 19.2
v -0.1 3 19.2
v -0.1 3.1 19.2
v -0.1 3.3 19.2
v 2.23517e-008 0 19.2
v 2.23517e-008 0.1 19.2
v 2.23517e-008 0.2 19.2
v 2.23517e-008 0.3 19.2
v 2.23517e-008 0.4 19.2
v 2.23517e-008 0.5 19.2
v 2.23517e-008 0.6 19.2
v 2.23517e-008 0.7 19.2
v 2.23517e-008 0.8 19.2
v 2.23517e-008 0.9 19.2
v 2.23517e-008 1 19.2
v 2.23517e-008 1.1 19.2
v 2.23517e-008 1.2 19.2
v 2.23517e-008 1.3 19.2
v 2.23517e-008 1.4 19.2
v 2.23517e-008 1.8 19.2
v 2.23517e-008 1.9 19.2
v 2.23517e-008 2.2 19.2
v 2.23517e-008 2.3 19.2
v 2.23517e-008 2.4 19.2
v 2.23517e-008 2.5 19.2
v 2.23517e-008 2.6 19.2
v 2.23517e-008 2.7 19.2
v 2.23517e-008 2.8 19.2
v 2.23517e-008 2.9 19.2
v 2.23517e-008 3 19.2
v 2.23517e-008 3.1 19.2
v 2.23517e-008 3.3 19.2
v 0.1 0 19.2
v 0.1 0.1 19.2
v 0.1 0.2 19.2
v 0.1 0.3 19.2
v 0.1 0.4 19.2
v 0.1 0.5 19.2
v 0.1 0.6 19.2
v 0.1 0.7 19.2
v 0.1 1 19.2
v 0.1 1.1 19.2
v 0.1 1.6 19.2
v 0.1 1.7 19.2
v 0.1 1.9 19.2
v 0.1 2 19.2
v 0.1 2.1 19.2
v 0.1 2.2 19.2
v 0.1 2.3 19.2
v 0.1 2.4 19.2
v 0.1 2.5 19.2
v 0.1 2.6 19.2
v 0.1 2.7 19.2
v 0.1 2.8 19.2
v 0.1 2.9 19.2
v 0.1 3 19.2
v 0.1 3.2 19.2
v 0.1 3.3 19.2
v 0.2 0.1 19.2
v 0.2 0.2 19.2
v 0.2 0.4 19.2
v 0.2 0.5 19.2
v 0.2 0.6 19.2
v 0.2 0.8 19.2
v 0.2 0.9 19.2
v 0.2 1 19.2
v 0.2 1.2 19.2
v 0.2 1.3 19.2
v 0.2 1.4 19.2
v 0.2 1.5 19.2
v 0.2 1.7 19.2
v 0.2 1.8 19.2
v 0.2 1.9 19.2
v 0.2 2.2 19.2
v 0.2 2.3 19.2
v 0.2 2.4 19.2
v 0.2 2.5 19.2
v 0.2 2.7 19.2
v 0.2 2.8 19.2
v 0.2 2.9 19.2
v 0.2 3 19.2
v 0.2 3.1 19.2
v 0.2 3.2 19.2
v 0.2 3.3 19.2
v 0.3 0.1 19.2
v 0.3 0.2 19.2
v 0.3 0.3 19.2
v 0.3 0.4 19.2
v 0.3 0.7 19.2
v 0.3 0.8 19.2
v 0.3 1 19.2
v 0.3 1.2 19.2
v 0.3 1.4 19.2
v 0.3 1.5 19.2
v 0.3 2 19.2
v 0.3 2.1 19.2
v 0.3 2.2 19.2
v 0.3 2.3 19.2
v 0.3 2.4 19.2
v 0.3 2.5 19.2
v 0.3 2.6 19.2
v 0.3 2.7 19.2
v 0.3 2.8 19.2
v 0.3 2.9 19.2
v 0.3 3 19.2
v 0.3 3.1 19.2
v 0.3 3.2 19.2
v 0.3 3.3 19.2
v 0.4 0 19.2
v 0.4 0.1 19.2
v 0.4 0.2 19.2
v 0.4 0.3 19.2
v 0.4 0.6 19.2
v 0.4 0.7 19.2
v 0.4 0.8 19.2
v 0.4 0.9 19.2
v 0.4 1 19.2
v 0.4 1.1 19.2
v 0.4 1.2 19.2
v 0.4 1.7 19.2
v 0.4 1.8 19.2
v 0.4 2 19.2
v 0.4 2.1 19.2
v 0.4 2.2 19.2
v 0.4 2.4 19.2
v 0.4 2.5 19.2
v 0.4 2.6 19.2
v 0.4 2.7 19.2
v 0.4 2.8 19.2
v 0.4 2.9 19.2
v 0.4 3 19.2
v 0.4 3.1 19.2
v 0.5 0.1 19.2
v 0.5 0.2 19.2
v 0.5 0.4 19.2
v 0.5 0.5 19.2
v 0.5 0.6 19.2
v 0.5 0.7 19.2
v 0.5 0.8 19.2
v 0.5 0.9 19.2
v 0.5 1 19.2
v 0.5 1.1 19.2
v 0.5 1.2 19.2
v 0.5 1.3 19.2
v 0.5 1.4 19.2
v 0.5 1.6 19.2
v 0.5 1.7 19.2
v 0.5 1.8 19.2
v 0.5 2 19.2
v 0.5 2.1 19.2
v 0.5 2.2 19.2
v 0.5 2.4 19.2
v 0.5 2.5 19.2
v 0.5 2.7 19.2
v 0.5 2.8 19.2
v 0.5 3 19.2
v 0.5 3.1 19.2
v 0.5 3.2 19.2
v 0.5 3.3 19.2
v 0.6 0 19.2
v 0.6 0.1 19.2
v 0.6 0.2 19.2
v 0.6 0.3 19.2
v 0.6 0.4 19.2
v 0.6 0.5 19.2
v 0.6 0.6 19.2
v 0.6 0.7 19.2
v 0.6 0.8 19.2
v 0.6 0.9 19.2
v 0.6 1.1 19.2
v 0.6 1.2 19.2
v 0.6 1.3 19.2
v 0.6 1.4 19.2
v 0.6 1.5 19.2
v 0.6 1.9 19.2
v 0.6 2 19.2
v 0.6 2.2 19.2
v 0.6 2.4 19.2
v 0.6 2.5 19.2
v 0.6 2.6 19.2
v 0.6 2.9 19.2
v 0.6 3 19.2
v 0.6 3.1 19.2
v 0.7 0.5 19.2
v 0.7 0.6 19.2
v 0.7 0.7 19.2
v 0.7 0.8 19.2
v 0.7 0.9 19.2
v 0.7 1 19.2
v 0.7 1.4 19.2
v 0.7 1.5 19.2
v 0.7 1.6 19.2
v 0.7 1.7 19.2
v 0.7 1.8 19.2
v 0.7 1.9 19.2
v 0.7 2 19.2
v 0.7 2.3 19.2
v 0.7 2.4 19.2
v 0.7 2.6 19.2
v 0.7 2.7 19.2
v 0.7 2.8 19.2
v 0.7 2.9 19.2
v 0.7 3 19.2
v 0.8 0.1 19.2
v 0.8 0.2 19.2
v 0.8 0.3 19.2
v 0.8 0.4 19.2
v 0.8 0.6 19.2
v 0.8 0.7 19.2
v 0.8 0.8 19.2
v 0.8 0.9 19.2
v 0.8 1.3 19.2
v 0.8 1.4 19.2
v 0.8 1.5 19.2
v 0.8 1.6 19.2
v 0.8 1.8 19.2
v 0.8 1.9 19.2
v 0.8 2.2 19.2
v 0.8 2.3 19.2
v 0.8 2.4 19.2
v 0.8 2.5 19.2
v 0.8 2.6 19.2
v 0.8 3.1 19.2
v 0.8 3.2 19.2
v 0.8 3.3 19.2
v 0.9 0.7 19.2
v 0.9 0.8 19.2
v 0.9 0.9 19.2
v 0.9 1 19.2
v 0.9 1.1 19.2
v 0.9 1.2 19.2
v 0.9 1.3 19.2
v 0.9 1.4 19.2
v 0.9 1.5 19.2
v 0.9 1.6 19.2
v 0.9 1.7 19.2
v 0.9 1.9 19.2
v 0.9 2 19.2
v 0.9 2.1 19.2
v 0.9 2.2 19.2
v 0.9 2.4 19.2
v 0.9 2.5 19.2
v 0.9 2.6 19.2
v 0.9 2.7 19.2
v 0.9 3 19.2
v 0.9 3.1 19.2
v 0.9 3.2 19.2
v 1 0.1 19.2
v 1 0.2 19.2
v 1 0.3 19.2
v 1 0.4 19.2
v 1 0.8 19.2
v 1 0.9 19.2
v 1 1 19.2
v 1 1.1 19.2
v 1 1.2 19.2
v 1 1.4 19.2
v 1 1.5 19.2
v 1 1.6 19.2
v 1 1.7 19.2
v 1 1.8 19.2
v 1 1.9 19.2
v 1 2 19.2
v 1 2.3 19.2
v 1 2.4 19.2
v 1 2.6 19.2
v 1 2.7 19.2
v 1 2.8 19.2
v 1 2.9 19.2
v 1 3 19.2
v 1 3.1 19.2
v 1 3.2 19.2
v 1.1 0 19.2
v 1.1 0.1 19.2
v 1.1 0.3 19.2
v 1.1 0.4 19.2
v 1.1 0.5 19.2
v 1.1 0.8 19.2
v 1.1 0.9 19.2
v 1.1 1 19.2
v 1.1 1.1 19.2
v 1.1 1.4 19.2
v 1.1 1.5 19.2
v 1.1 1.6 19.2
v 1.1 1.7 19.2
v 1.1 1.8 19.2
v 1.1 2 19.2
v 1.1 2.3 19.2
v 1.1 2.4 19.2
v 1.1 2.5 19.2
v 1.1 2.7 19.2
v 1.1 2.8 19.2
v 1.1 2.9 19.2
v 1.1 3 19.2
v 1.1 3.1 19.2
v 1.2 0 19.2
v 1.2 0.1 19.2
v 1.2 0.3 19.2
v 1.2 0.4 19.2
v 1.2 0.7 19.2
v 1.2 0.8 19.2
v 1.2 0.9 19.2
v 1.2 1.2 19.2
v 1.2 1.3 19.2
v 1.2 1.4 19.2
v 1.2 1.5 19.2
v 1.2 1.9 19.2
v 1.2 2 19.2
v 1.2 2.1 19.2
v 1.2 2.2 19.2
v 1.2 2.3 19.2
v 1.2 2.4 19.2
v 1.2 2.5 19.2
v 1.2 2.7 19.2
v 1.2 2.8 19.2
v 1.2 2.9 19.2
v 1.2 3.1 19.2
v 1.2 3.2 19.2
v 1.2 3.3 19.2
v 1.3 0.3 19.2
v 1.3 0.4 19.2
v 1.3 0.5 19.2
v 1.3 0.6 19.2
v 1.3 0.8 19.2
v 1.3 1.1 19.2
v 1.3 1.2 19.2
v 1.3 1.3 19.2
v 1.3 1.5 19.2
v 1.3 1.6 19.2
v 1.3 1.8 19.2
v 1.3 1.9 19.2
v 1.3 2 19.2
v 1.3 2.1 19.2
v 1.3 2.4 19.2
v 1.3 2.5 19.2
v 1.3 2.8 19.2
v 1.3 2.9 19.2
v 1.3 3.2 19.2
v 1.3 3.3 19.2
v 1.4 0 19.2
v 1.4 0.1 19.2
v 1.4 0.2 19.2
v 1.4 0.4 19.2
v 1.4 0.5 19.2
v 1.4 0.8 19.2
v 1.4 0.9 19.2
v 1.4 1 19.2
v 1.4 1.1 19.2
v 1.4 1.2 19.2
v 1.4 1.3 19.2
v 1.4 1.5 19.2
v 1.4 1.6 19.2
v 1.4 1.7 19.2
v 1.4 1.8 19.2
v 1.4 2.1 19.2
v 1.4 2.2 19.2
v 1.4 2.4 19.2
v 1.4 2.5 19.2
v 1.4 2.6 19.2
v 1.4 2.7 19.2
v 1.4 2.8 19.2
v 1.4 2.9 19.2
v 1.4 3 19.2
v 1.4 3.3 19.2
v -1.4 0 19.3
v -1.2 0 19.3
v -1.1 0 19.3
v -1 0 19.3
v -0.9 0 19.3
v -0.7 0 19.3
v -0.5 0 19.3
v 2.23517e-008 0 19.3
v 0.1 0 19.3
v 0.4 0 19.3
v 0.6 0 19.3
v 1.1 0 19.3
v 1.2 0 19.3
v 1.4 0 19.3
v -1.4 0 19.2
v -1.2 0 19.2
v -1.1 0 19.2
v -1 0 19.2
v -0.9 0 19.2
v -0.7 0 19.2
v -0.5 0 19.2
v 2.23517e-008 0 19.2
v 0.1 0 19.2
v 0.4 0 19.2
v 0.6 0 19.2
v 1.1 0 19.2
v 1.2 0 19.2
v 1.4 0 19.2
v -1.4 3.3 19.3
v -1.1 3.3 19.3
v -1 3.3 19.3
v -0.8 3.3 19.3
v -0.7 3.3 19.3
v -0.4 3.3 19.3
v -0.3 3.3 19.3
v -0.2 3.3 19.3
v -0.1 3.3 19.3
v 2.23517e-008 3.3 19.3
v 0.1 3.3 19.3
v 0.2 3.3 19.3
v 0.3 3.3 19.3
v 0.5 3.3 19.3
v 0.8 3.3 19.3
v 1.2 3.3 19.3
v 1.3 3.3 19.3
v 1.4 3.3 19.3
v -1.4 3.3 19.2
v -1.1 3.3 19.2
v -1 3.3 19.2
v -0.8 3.3 19.2
v -0.7 3.3 19.2
v -0.4 3.3 19.2
v -0.3 3.3 19.2
v -0.2 3.3 19.2
v -0.1 3.3 19.2
v 2.23517e-008 3.3 19.2
v 0.1 3.3 19.2
v 0.2 3.3 19.2
v 0.3 3.3 19.2
v 0.5 3.3 19.2
v 0.8 3.3 19.2
v 1.2 3.3 19.2
v 1.3 3.3 19.2
v 1.4 3.3 19.2

# faces
f 3/1/1 2/1/1 1/1/1
f 4/1/1 2/1/1 3/1/1
f 5/4/1 4/4/1 3/4/1
f 6/4/1 4/4/1 5/4/1
f 7/2/1 6/2/1 5/2/1
f 8/2/1 6/2/1 7/2/1
f 9/3/1 8/3/1 7/3/1
f 10/3/1 8/3/1 9/3/1
f 11/2/1 10/2/1 9/2/1
f 12/2/1 10/2/1 11/2/1
f 13/4/1 12/4/1 11/4/1
f 14/4/1 12/4/1 13/4/1
f 15/2/1 14/2/1 13/2/1
f 16/2/1 14/2/1 15/2/1
f 17/3/1 16/3/1 15/3/1
f 18/3/1 16/3/1 17/3/1
f 19/1/1 18/1/1 17/1/1
f 20/1/1 18/1/1 19/1/1
f 21/4/1 20/4/1 19/4/1
f 22/4/1 20/4/1 21/4/1
f 23/2/1 22/2/1 21/2/1
f 24/2/1 22/2/1 23/2/1
f 25/3/1 24/3/1 23/3/1
f 26/3/1 24/3/1 25/3/1
f 27/1/1 26/1/1 25/1/1
f 28/1/1 26/1/1 27/1/1
f 29/3/1 28/3/1 27/3/1
f 30/3/1 28/3/1 29/3/1
f 31/2/1 30/2/1 29/2/1
f 32/2/1 30/2/1 31/2/1
f 33/1/1 32/1/1 31/1/1
f 34/1/1 32/1/1 33/1/1
f 35/4/1 34/4/1 33/4/1
f 36/4/1 34/4/1 35/4/1
f 37/3/1 36/3/1 35/3/1
f 38/3/1 36/3/1 37/3/1
f 39/2/1 38/2/1 37/2/1
f 40/2/1 38/2/1 39/2/1
f 41/1/1 40/1/1 39/1/1
f 42/1/1 40/1/1 41/1/1
f 43/3/1 42/3/1 41/3/1
f 44/3/1 42/3/1 43/3/1
f 45/2/1 44/2/1 43/2/1
f 46/2/1 44/2/1 45/2/1
f 47/3/1 46/3/1 45/3/1
f 48/3/1 46/3/1 47/3/1
f 49/2/1 48/2/1 47/2/1
f 50/2/1 48/2/1 49/2/1
f 51/3/1 50/3/1 49/3/1
f 52/3/1 50/3/1 51/3/1
f 53/1/1 52/1/1 51/1/1
f 54/1/1 52/1/1 53/1/1
f 55/4/1 54/4/1 53/4/1
f 56/4/1 54/4/1 55/4/1
f 57/2/1 56/2/1 55/2/1
f 58/2/1 56/2/1 57/2/1
f 59/1/2 60/1/2 61/1/2
f 61/1/2 60/1/2 62/1/2
f 61/3/2 62/3/2 63/3/2
f 63/3/2 62/3/2 64/3/2
f 63/2/2 64/2/2 65/2/2
f 65/2/2 64/2/2 66/2/2
f 65/1/2 66/1/2 67/1/2
f 67/1/2 66/1/2 68/1/2
f 67/3/2 68/3/2 69/3/2
f 69/3/2 68/3/2 70/3/2
f 69/2/2 70/2/2 71/2/2
f 71/2/2 70/2/2 72/2/2
f 71/4/2 72/4/2 73/4/2
f 73/4/2 72/4/2 74/4/2
f 73/2/2 74/2/2 75/2/2
f 75/2/2 74/2/2 76/2/2
f 75/3/2 76/3/2 77/3/2
f 77/3/2 76/3/2 78/3/2
f 77/1/2 78/1/2 79/1/2
f 79/1/2 78/1/2 80/1/2
f 79/3/2 80/3/2 81/3/2
f 81/3/2 80/3/2 82/3/2
f 81/2/2 82/2/2 83/2/2
f 83/2/2 82/2/2 84/2/2
f 83/1/2 84/1/2 85/1/2
f 85/1/2 84/1/2 86/1/2
f 85/3/2 86/3/2 87/3/2
f 87/3/2 86/3/2 88/3/2
f 87/2/2 88/2/2 89/2/2
f 89/2/2 88/2/2 90/2/2
f 89/4/2 90/4/2 91/4/2
f 91/4/2 90/4/2 92/4/2
f 91/2/2 92/2/2 93/2/2
f 93/2/2 92/2/2 94/2/2
f 93/1/2 94/1/2 95/1/2
f 95/1/2 94/1/2 96/1/2
f 95/3/2 96/3/2 97/3/2
f 97/3/2 96/3/2 98/3/2
f 97/2/2 98/2/2 99/2/2
f 99/2/2 98/2/2 100/2/2
f 99/3/2 100/3/2 101/3/2
f 101/3/2 100/3/2 102/3/2
f 101/2/2 102/2/2 103/2/2
f 103/2/2 102/2/2 104/2/2
f 103/3/2 104/3/2 105/3/2
f 105/3/2 104/3/2 106/3/2
f 105/2/2 106/2/2 107/2/2
f 107/2/2 106/2/2 108/2/2
f 138/1/3 110/1/3 109/1/3
f 138/4/3 111/4/3 110/4/3
f 139/2/3 112/2/3 111/2/3
f 139/4/3 111/4/3 138/4/3
f 140/2/3 114/2/3 113/2/3
f 140/4/3 115/4/3 114/4/3
f 141/2/3 116/2/3 115/2/3
f 141/4/3 115/4/3 140/4/3
f 142/3/3 117/3/3 116/3/3
f 142/2/3 116/2/3 141/2/3
f 143/1/3 118/1/3 117/1/3
f 143/3/3 117/3/3 142/3/3
f 144/4/3 119/4/3 118/4/3
f 144/1/3 118/1/3 143/1/3
f 145/1/3 122/1/3 121/1/3
f 145/3/3 123/3/3 122/3/3
f 146/3/3 123/3/3 145/3/3
f 147/2/3 124/2/3 123/2/3
f 147/3/3 123/3/3 146/3/3
f 148/1/3 125/1/3 124/1/3
f 148/2/3 124/2/3 147/2/3
f 149/4/3 126/4/3 125/4/3
f 149/1/3 125/1/3 148/1/3
f 150/3/3 127/3/3 126/3/3
f 150/4/3 126/4/3 149/4/3
f 151/2/3 128/2/3 127/2/3
f 151/3/3 127/3/3 150/3/3
f 152/3/3 130/3/3 129/3/3
f 152/2/3 131/2/3 130/2/3
f 153/2/3 131/2/3 152/2/3
f 154/3/3 132/3/3 131/3/3
f 154/2/3 131/2/3 153/2/3
f 155/2/3 133/2/3 132/2/3
f 155/3/3 132/3/3 154/3/3
f 156/3/3 134/3/3 133/3/3
f 156/1/3 135/1/3 134/1/3
f 157/4/3 136/4/3 135/4/3
f 157/1/3 135/1/3 156/1/3
f 158/2/3 137/2/3 136/2/3
f 158/4/3 136/4/3 157/4/3
f 159/2/3 137/2/3 158/2/3
f 160/2/3 137/2/3 159/2/3
f 161/1/3 138/1/3 109/1/3
f 162/3/3 139/3/3 138/3/3
f 162/1/3 138/1/3 161/1/3
f 163/2/3 112/2/3 139/2/3
f 163/3/3 139/3/3 162/3/3
f 164/3/3 113/3/3 112/3/3
f 164/2/3 112/2/3 163/2/3
f 165/2/3 140/2/3 113/2/3
f 165/3/3 113/3/3 164/3/3
f 166/2/3 143/2/3 142/2/3
f 166/4/3 119/4/3 144/4/3
f 166/2/3 144/2/3 143/2/3
f 167/2/3 120/2/3 119/2/3
f 167/4/3 119/4/3 166/4/3
f 168/3/3 121/3/3 120/3/3
f 168/2/3 120/2/3 167/2/3
f 169/4/3 146/4/3 145/4/3
f 169/1/3 145/1/3 121/1/3
f 170/2/3 147/2/3 146/2/3
f 170/4/3 146/4/3 169/4/3
f 170/2/3 148/2/3 147/2/3
f 170/2/3 149/2/3 148/2/3
f 171/2/3 149/2/3 170/2/3
f 172/2/3 154/2/3 153/2/3
f 172/4/3 155/4/3 154/4/3
f 173/2/3 133/2/3 155/2/3
f 173/4/3 155/4/3 172/4/3
f 174/3/3 156/3/3 133/3/3
f 174/2/3 133/2/3 173/2/3
f 175/2/3 157/2/3 156/2/3
f 175/3/3 156/3/3 174/3/3
f 176/3/3 158/3/3 157/3/3
f 176/2/3 157/2/3 175/2/3
f 177/2/3 159/2/3 158/2/3
f 177/3/3 158/3/3 176/3/3
f 178/2/3 162/2/3 161/2/3
f 179/4/3 163/4/3 162/4/3
f 179/2/3 162/2/3 178/2/3
f 180/2/3 164/2/3 163/2/3
f 180/4/3 163/4/3 179/4/3
f 180/2/3 165/2/3 164/2/3
f 181/2/3 165/2/3 180/2/3
f 182/3/3 141/3/3 140/3/3
f 182/3/3 142/3/3 141/3/3
f 183/2/3 166/2/3 142/2/3
f 183/3/3 142/3/3 182/3/3
f 184/2/3 166/2/3 183/2/3
f 185/3/3 167/3/3 166/3/3
f 185/2/3 166/2/3 184/2/3
f 185/3/3 168/3/3 167/3/3
f 186/3/3 168/3/3 185/3/3
f 187/3/3 121/3/3 168/3/3
f 187/3/3 168/3/3 186/3/3
f 188/1/3 169/1/3 121/1/3
f 188/3/3 121/3/3 187/3/3
f 189/3/3 171/3/3 170/3/3
f 189/1/3 169/1/3 188/1/3
f 189/3/3 170/3/3 169/3/3
f 190/2/3 149/2/3 171/2/3
f 190/3/3 171/3/3 189/3/3
f 191/4/3 150/4/3 149/4/3
f 191/2/3 149/2/3 190/2/3
f 192/2/3 128/2/3 151/2/3
f 192/2/3 151/2/3 150/2/3
f 193/1/3 129/1/3 128/1/3
f 193/2/3 128/2/3 192/2/3
f 194/2/3 172/2/3 153/2/3
f 195/3/3 174/3/3 173/3/3
f 195/2/3 172/2/3 194/2/3
f 195/3/3 173/3/3 172/3/3
f 195/3/3 175/3/3 174/3/3
f 196/1/3 176/1/3 175/1/3
f 196/3/3 175/3/3 195/3/3
f 197/4/3 177/4/3 176/4/3
f 197/1/3 176/1/3 196/1/3
f 198/2/3 159/2/3 177/2/3
f 198/4/3 177/4/3 197/4/3
f 199/3/3 160/3/3 159/3/3
f 199/2/3 159/2/3 198/2/3
f 200/2/3 137/2/3 160/2/3
f 200/3/3 160/3/3 199/3/3
f 201/2/3 137/2/3 200/2/3
f 202/1/3 179/1/3 178/1/3
f 203/3/3 181/3/3 180/3/3
f 203/1/3 179/1/3 202/1/3
f 203/3/3 180/3/3 179/3/3
f 204/3/3 181/3/3 203/3/3
f 205/2/3 165/2/3 181/2/3
f 205/3/3 181/3/3 204/3/3
f 206/2/3 140/2/3 165/2/3
f 206/2/3 165/2/3 205/2/3
f 207/3/3 182/3/3 140/3/3
f 207/2/3 140/2/3 206/2/3
f 208/2/3 184/2/3 183/2/3
f 208/3/3 182/3/3 207/3/3
f 208/2/3 183/2/3 182/2/3
f 209/1/3 185/1/3 184/1/3
f 209/2/3 184/2/3 208/2/3
f 210/3/3 190/3/3 189/3/3
f 210/2/3 189/2/3 188/2/3
f 211/3/3 190/3/3 210/3/3
f 212/3/3 190/3/3 211/3/3
f 213/1/3 191/1/3 190/1/3
f 213/3/3 190/3/3 212/3/3
f 214/4/3 150/4/3 191/4/3
f 214/1/3 191/1/3 213/1/3
f 215/3/3 193/3/3 192/3/3
f 215/2/3 192/2/3 150/2/3
f 216/1/3 129/1/3 193/1/3
f 216/3/3 193/3/3 215/3/3
f 217/3/3 153/3/3 152/3/3
f 217/1/3 129/1/3 216/1/3
f 217/3/3 152/3/3 129/3/3
f 218/3/3 153/3/3 217/3/3
f 219/2/3 194/2/3 153/2/3
f 219/3/3 153/3/3 218/3/3
f 220/3/3 196/3/3 195/3/3
f 220/1/3 195/1/3 194/1/3
f 221/3/3 196/3/3 220/3/3
f 222/2/3 197/2/3 196/2/3
f 222/3/3 196/3/3 221/3/3
f 223/4/3 198/4/3 197/4/3
f 223/2/3 197/2/3 222/2/3
f 224/3/3 199/3/3 198/3/3
f 224/4/3 198/4/3 223/4/3
f 225/2/3 200/2/3 199/2/3
f 225/3/3 199/3/3 224/3/3
f 226/3/3 201/3/3 200/3/3
f 226/2/3 200/2/3 225/2/3
f 227/3/3 201/3/3 226/3/3
f 228/2/3 203/2/3 202/2/3
f 229/3/3 204/3/3 203/3/3
f 229/2/3 203/2/3 228/2/3
f 230/2/3 205/2/3 204/2/3
f 230/3/3 206/3/3 205/3/3
f 231/1/3 207/1/3 206/1/3
f 231/3/3 206/3/3 230/3/3
f 232/3/3 209/3/3 208/3/3
f 232/1/3 207/1/3 231/1/3
f 232/3/3 208/3/3 207/3/3
f 233/3/3 209/3/3 232/3/3
f 234/1/3 185/1/3 209/1/3
f 234/3/3 209/3/3 233/3/3
f 235/4/3 186/4/3 185/4/3
f 235/1/3 185/1/3 234/1/3
f 236/2/3 187/2/3 186/2/3
f 236/4/3 186/4/3 235/4/3
f 237/3/3 188/3/3 187/3/3
f 237/2/3 187/2/3 236/2/3
f 238/2/3 210/2/3 188/2/3
f 238/3/3 188/3/3 237/3/3
f 239/4/3 211/4/3 210/4/3
f 239/2/3 210/2/3 238/2/3
f 240/3/3 212/3/3 211/3/3
f 240/4/3 211/4/3 239/4/3
f 241/2/3 214/2/3 213/2/3
f 241/3/3 212/3/3 240/3/3
f 241/2/3 213/2/3 212/2/3
f 242/2/3 214/2/3 241/2/3
f 243/2/3 194/2/3 219/2/3
f 243/2/3 219/2/3 218/2/3
f 244/1/3 220/1/3 194/1/3
f 244/2/3 194/2/3 243/2/3
f 245/4/3 221/4/3 220/4/3
f 245/1/3 220/1/3 244/1/3
f 246/2/3 222/2/3 221/2/3
f 246/4/3 221/4/3 245/4/3
f 247/2/3 222/2/3 246/2/3
f 248/1/3 223/1/3 222/1/3
f 248/3/3 224/3/3 223/3/3
f 249/2/3 225/2/3 224/2/3
f 249/3/3 224/3/3 248/3/3
f 250/3/3 226/3/3 225/3/3
f 250/2/3 225/2/3 249/2/3
f 251/2/3 227/2/3 226/2/3
f 251/3/3 226/3/3 250/3/3
f 252/3/3 204/3/3 229/3/3
f 252/1/3 229/1/3 228/1/3
f 253/2/3 230/2/3 204/2/3
f 253/3/3 204/3/3 252/3/3
f 253/2/3 231/2/3 230/2/3
f 254/2/3 231/2/3 253/2/3
f 255/1/3 232/1/3 231/1/3
f 255/2/3 231/2/3 254/2/3
f 256/2/3 234/2/3 233/2/3
f 256/2/3 235/2/3 234/2/3
f 256/4/3 233/4/3 232/4/3
f 257/2/3 235/2/3 256/2/3
f 258/4/3 236/4/3 235/4/3
f 258/2/3 235/2/3 257/2/3
f 259/3/3 237/3/3 236/3/3
f 259/4/3 236/4/3 258/4/3
f 260/2/3 239/2/3 238/2/3
f 260/2/3 238/2/3 237/2/3
f 261/3/3 240/3/3 239/3/3
f 261/2/3 239/2/3 260/2/3
f 262/2/3 241/2/3 240/2/3
f 262/3/3 240/3/3 261/3/3
f 263/3/3 242/3/3 241/3/3
f 263/2/3 241/2/3 262/2/3
f 264/2/3 214/2/3 242/2/3
f 264/3/3 242/3/3 263/3/3
f 265/4/3 150/4/3 214/4/3
f 265/2/3 214/2/3 264/2/3
f 266/2/3 216/2/3 215/2/3
f 266/4/3 150/4/3 265/4/3
f 266/2/3 215/2/3 150/2/3
f 266/2/3 217/2/3 216/2/3
f 267/2/3 217/2/3 266/2/3
f 268/4/3 218/4/3 217/4/3
f 268/2/3 217/2/3 267/2/3
f 269/2/3 243/2/3 218/2/3
f 269/4/3 218/4/3 268/4/3
f 270/3/3 244/3/3 243/3/3
f 270/2/3 243/2/3 269/2/3
f 271/1/3 245/1/3 244/1/3
f 271/3/3 244/3/3 270/3/3
f 272/1/3 248/1/3 222/1/3
f 272/4/3 249/4/3 248/4/3
f 273/3/3 250/3/3 249/3/3
f 273/4/3 249/4/3 272/4/3
f 274/2/3 251/2/3 250/2/3
f 274/3/3 250/3/3 273/3/3
f 275/2/3 227/2/3 251/2/3
f 275/2/3 251/2/3 274/2/3
f 276/1/3 252/1/3 228/1/3
f 277/4/3 253/4/3 252/4/3
f 277/1/3 252/1/3 276/1/3
f 278/2/3 254/2/3 253/2/3
f 278/4/3 253/4/3 277/4/3
f 279/3/3 255/3/3 254/3/3
f 279/2/3 254/2/3 278/2/3
f 280/3/3 257/3/3 256/3/3
f 280/2/3 258/2/3 257/2/3
f 281/3/3 259/3/3 258/3/3
f 281/2/3 258/2/3 280/2/3
f 282/3/3 237/3/3 259/3/3
f 282/3/3 259/3/3 281/3/3
f 283/2/3 260/2/3 237/2/3
f 283/3/3 237/3/3 282/3/3
f 284/1/3 261/1/3 260/1/3
f 284/2/3 260/2/3 283/2/3
f 285/3/3 264/3/3 263/3/3
f 285/3/3 263/3/3 262/3/3
f 285/3/3 262/3/3 261/3/3
f 286/1/3 265/1/3 264/1/3
f 286/3/3 264/3/3 285/3/3
f 287/3/3 269/3/3 268/3/3
f 287/2/3 270/2/3 269/2/3
f 287/2/3 271/2/3 270/2/3
f 288/1/3 245/1/3 271/1/3
f 288/2/3 271/2/3 287/2/3
f 289/2/3 222/2/3 247/2/3
f 289/3/3 246/3/3 245/3/3
f 289/3/3 247/3/3 246/3/3
f 290/1/3 272/1/3 222/1/3
f 290/2/3 222/2/3 289/2/3
f 291/3/3 274/3/3 273/3/3
f 291/1/3 272/1/3 290/1/3
f 291/3/3 273/3/3 272/3/3
f 291/3/3 275/3/3 274/3/3
f 292/3/3 275/3/3 291/3/3
f 293/3/3 275/3/3 292/3/3
f 294/3/3 278/3/3 277/3/3
f 294/3/3 255/3/3 279/3/3
f 294/3/3 279/3/3 278/3/3
f 295/1/3 232/1/3 255/1/3
f 295/3/3 255/3/3 294/3/3
f 296/4/3 256/4/3 232/4/3
f 296/3/3 280/3/3 256/3/3
f 297/1/3 281/1/3 280/1/3
f 297/3/3 280/3/3 296/3/3
f 298/2/3 283/2/3 282/2/3
f 298/4/3 282/4/3 281/4/3
f 299/3/3 284/3/3 283/3/3
f 299/2/3 283/2/3 298/2/3
f 300/1/3 261/1/3 284/1/3
f 300/3/3 284/3/3 299/3/3
f 301/3/3 285/3/3 261/3/3
f 301/1/3 261/1/3 300/1/3
f 302/2/3 286/2/3 285/2/3
f 302/3/3 285/3/3 301/3/3
f 303/2/3 286/2/3 302/2/3
f 304/1/3 265/1/3 286/1/3
f 304/2/3 286/2/3 303/2/3
f 305/4/3 266/4/3 265/4/3
f 305/1/3 265/1/3 304/1/3
f 306/3/3 267/3/3 266/3/3
f 306/4/3 266/4/3 305/4/3
f 307/3/3 287/3/3 268/3/3
f 307/3/3 288/3/3 287/3/3
f 308/3/3 288/3/3 307/3/3
f 309/1/3 245/1/3 288/1/3
f 309/3/3 288/3/3 308/3/3
f 310/3/3 290/3/3 289/3/3
f 310/1/3 245/1/3 309/1/3
f 310/3/3 289/3/3 245/3/3
f 311/2/3 291/2/3 290/2/3
f 311/3/3 290/3/3 310/3/3
f 312/3/3 292/3/3 291/3/3
f 312/2/3 291/2/3 311/2/3
f 313/2/3 293/2/3 292/2/3
f 313/3/3 292/3/3 312/3/3
f 314/2/3 293/2/3 313/2/3
f 315/2/3 277/2/3 276/2/3
f 316/3/3 294/3/3 277/3/3
f 316/2/3 277/2/3 315/2/3
f 317/3/3 294/3/3 316/3/3
f 318/2/3 295/2/3 294/2/3
f 318/3/3 294/3/3 317/3/3
f 319/1/3 232/1/3 295/1/3
f 319/2/3 295/2/3 318/2/3
f 320/4/3 296/4/3 232/4/3
f 320/1/3 232/1/3 319/1/3
f 321/2/3 297/2/3 296/2/3
f 321/4/3 296/4/3 320/4/3
f 322/1/3 281/1/3 297/1/3
f 322/2/3 297/2/3 321/2/3
f 323/4/3 298/4/3 281/4/3
f 323/1/3 281/1/3 322/1/3
f 324/3/3 299/3/3 298/3/3
f 324/4/3 298/4/3 323/4/3
f 325/2/3 301/2/3 300/2/3
f 325/3/3 299/3/3 324/3/3
f 325/2/3 300/2/3 299/2/3
f 326/2/3 301/2/3 325/2/3
f 327/4/3 302/4/3 301/4/3
f 327/2/3 301/2/3 326/2/3
f 328/2/3 303/2/3 302/2/3
f 328/4/3 302/4/3 327/4/3
f 329/3/3 304/3/3 303/3/3
f 329/2/3 303/2/3 328/2/3
f 330/2/3 305/2/3 304/2/3
f 330/3/3 304/3/3 329/3/3
f 331/3/3 306/3/3 305/3/3
f 331/2/3 305/2/3 330/2/3
f 332/3/3 267/3/3 306/3/3
f 332/3/3 306/3/3 331/3/3
f 333/1/3 268/1/3 267/1/3
f 333/3/3 267/3/3 332/3/3
f 334/2/3 308/2/3 307/2/3
f 334/3/3 307/3/3 268/3/3
f 335/3/3 309/3/3 308/3/3
f 335/2/3 308/2/3 334/2/3
f 336/2/3 310/2/3 309/2/3
f 336/3/3 309/3/3 335/3/3
f 337/3/3 311/3/3 310/3/3
f 337/2/3 310/2/3 336/2/3
f 338/3/3 311/3/3 337/3/3
f 339/3/3 311/3/3 338/3/3
f 340/1/3 312/1/3 311/1/3
f 340/4/3 313/4/3 312/4/3
f 341/3/3 314/3/3 313/3/3
f 341/4/3 313/4/3 340/4/3
f 342/3/3 314/3/3 341/3/3
f 343/1/3 320/1/3 319/1/3
f 343/3/3 319/3/3 318/3/3
f 344/3/3 321/3/3 320/3/3
f 344/1/3 320/1/3 343/1/3
f 345/2/3 323/2/3 322/2/3
f 345/3/3 321/3/3 344/3/3
f 345/2/3 322/2/3 321/2/3
f 346/2/3 323/2/3 345/2/3
f 347/3/3 324/3/3 323/3/3
f 347/2/3 326/2/3 325/2/3
f 347/2/3 325/2/3 324/2/3
f 348/1/3 327/1/3 326/1/3
f 348/2/3 326/2/3 347/2/3
f 349/3/3 329/3/3 328/3/3
f 349/3/3 330/3/3 329/3/3
f 350/1/3 331/1/3 330/1/3
f 350/3/3 330/3/3 349/3/3
f 351/3/3 332/3/3 331/3/3
f 351/1/3 331/1/3 350/1/3
f 352/2/3 333/2/3 332/2/3
f 353/1/3 268/1/3 333/1/3
f 353/2/3 333/2/3 352/2/3
f 354/3/3 336/3/3 335/3/3
f 354/3/3 335/3/3 334/3/3
f 354/1/3 337/1/3 336/1/3
f 355/4/3 338/4/3 337/4/3
f 355/1/3 337/1/3 354/1/3
f 356/2/3 339/2/3 338/2/3
f 356/4/3 338/4/3 355/4/3
f 357/3/3 311/3/3 339/3/3
f 357/2/3 339/2/3 356/2/3
f 358/3/3 314/3/3 342/3/3
f 358/2/3 342/2/3 341/2/3
f 359/2/3 293/2/3 314/2/3
f 359/3/3 314/3/3 358/3/3
f 360/2/3 293/2/3 359/2/3
f 361/2/3 318/2/3 317/2/3
f 361/3/3 317/3/3 316/3/3
f 362/3/3 343/3/3 318/3/3
f 362/2/3 318/2/3 361/2/3
f 363/2/3 344/2/3 343/2/3
f 363/3/3 343/3/3 362/3/3
f 364/3/3 346/3/3 345/3/3
f 364/2/3 344/2/3 363/2/3
f 364/3/3 345/3/3 344/3/3
f 365/3/3 346/3/3 364/3/3
f 366/2/3 323/2/3 346/2/3
f 366/3/3 346/3/3 365/3/3
f 367/3/3 347/3/3 323/3/3
f 367/3/3 348/3/3 347/3/3
f 368/1/3 327/1/3 348/1/3
f 368/3/3 348/3/3 367/3/3
f 369/4/3 328/4/3 327/4/3
f 369/1/3 327/1/3 368/1/3
f 370/3/3 349/3/3 328/3/3
f 370/4/3 328/4/3 369/4/3
f 371/2/3 350/2/3 349/2/3
f 371/3/3 349/3/3 370/3/3
f 371/2/3 351/2/3 350/2/3
f 372/2/3 351/2/3 371/2/3
f 373/3/3 332/3/3 351/3/3
f 373/2/3 351/2/3 372/2/3
f 374/2/3 352/2/3 332/2/3
f 374/3/3 332/3/3 373/3/3
f 375/3/3 353/3/3 352/3/3
f 375/2/3 352/2/3 374/2/3
f 376/3/3 354/3/3 334/3/3
f 377/2/3 355/2/3 354/2/3
f 377/3/3 354/3/3 376/3/3
f 378/3/3 357/3/3 356/3/3
f 378/4/3 356/4/3 355/4/3
f 379/3/3 311/3/3 357/3/3
f 379/3/3 357/3/3 378/3/3
f 380/1/3 340/1/3 311/1/3
f 380/3/3 311/3/3 379/3/3
f 381/3/3 341/3/3 340/3/3
f 381/1/3 340/1/3 380/1/3
f 382/3/3 360/3/3 359/3/3
f 382/2/3 359/2/3 358/2/3
f 383/3/3 360/3/3 382/3/3
f 384/3/3 362/3/3 361/3/3
f 384/3/3 361/3/3 316/3/3
f 384/1/3 316/1/3 315/1/3
f 384/3/3 363/3/3 362/3/3
f 385/3/3 363/3/3 384/3/3
f 386/2/3 366/2/3 365/2/3
f 387/2/3 323/2/3 366/2/3
f 387/2/3 366/2/3 386/2/3
f 388/3/3 367/3/3 323/3/3
f 388/2/3 323/2/3 387/2/3
f 389/2/3 368/2/3 367/2/3
f 389/3/3 367/3/3 388/3/3
f 390/1/3 369/1/3 368/1/3
f 390/2/3 368/2/3 389/2/3
f 391/3/3 370/3/3 369/3/3
f 391/2/3 371/2/3 370/2/3
f 392/3/3 372/3/3 371/3/3
f 392/2/3 371/2/3 391/2/3
f 393/1/3 373/1/3 372/1/3
f 393/3/3 372/3/3 392/3/3
f 394/4/3 374/4/3 373/4/3
f 394/1/3 373/1/3 393/1/3
f 395/3/3 375/3/3 374/3/3
f 395/4/3 374/4/3 394/4/3
f 396/1/3 268/1/3 353/1/3
f 396/3/3 375/3/3 395/3/3
f 396/3/3 353/3/3 375/3/3
f 397/3/3 334/3/3 268/3/3
f 397/1/3 268/1/3 396/1/3
f 397/3/3 376/3/3 334/3/3
f 398/3/3 376/3/3 397/3/3
f 399/3/3 341/3/3 381/3/3
f 399/2/3 381/2/3 380/2/3
f 400/2/3 383/2/3 382/2/3
f 400/3/3 341/3/3 399/3/3
f 400/2/3 358/2/3 341/2/3
f 400/2/3 382/2/3 358/2/3
f 401/2/3 383/2/3 400/2/3
f 402/2/3 383/2/3 401/2/3
f 403/1/3 384/1/3 315/1/3
f 403/4/3 385/4/3 384/4/3
f 404/3/3 363/3/3 385/3/3
f 404/4/3 385/4/3 403/4/3
f 405/1/3 364/1/3 363/1/3
f 405/3/3 363/3/3 404/3/3
f 406/3/3 365/3/3 364/3/3
f 406/1/3 364/1/3 405/1/3
f 407/2/3 386/2/3 365/2/3
f 407/3/3 365/3/3 406/3/3
f 408/3/3 387/3/3 386/3/3
f 408/2/3 386/2/3 407/2/3
f 409/1/3 388/1/3 387/1/3
f 409/3/3 387/3/3 408/3/3
f 410/3/3 389/3/3 388/3/3
f 410/1/3 388/1/3 409/1/3
f 410/3/3 390/3/3 389/3/3
f 411/3/3 390/3/3 410/3/3
f 412/3/3 390/3/3 411/3/3
f 413/1/3 369/1/3 390/1/3
f 413/3/3 390/3/3 412/3/3
f 414/3/3 392/3/3 391/3/3
f 414/1/3 369/1/3 413/1/3
f 414/3/3 391/3/3 369/3/3
f 415/3/3 392/3/3 414/3/3
f 416/2/3 393/2/3 392/2/3
f 416/3/3 392/3/3 415/3/3
f 417/2/3 396/2/3 395/2/3
f 417/2/3 397/2/3 396/2/3
f 418/2/3 397/2/3 417/2/3
f 419/4/3 398/4/3 397/4/3
f 419/2/3 397/2/3 418/2/3
f 420/3/3 376/3/3 398/3/3
f 420/4/3 398/4/3 419/4/3
f 421/2/3 377/2/3 376/2/3
f 421/3/3 376/3/3 420/3/3
f 422/2/3 355/2/3 377/2/3
f 422/2/3 377/2/3 421/2/3
f 423/4/3 378/4/3 355/4/3
f 423/2/3 355/2/3 422/2/3
f 424/2/3 379/2/3 378/2/3
f 424/4/3 378/4/3 423/4/3
f 425/3/3 380/3/3 379/3/3
f 425/2/3 379/2/3 424/2/3
f 426/2/3 399/2/3 380/2/3
f 426/3/3 380/3/3 425/3/3
f 427/4/3 400/4/3 399/4/3
f 427/2/3 399/2/3 426/2/3
f 428/2/3 401/2/3 400/2/3
f 428/4/3 400/4/3 427/4/3
f 429/3/3 402/3/3 401/3/3
f 429/2/3 401/2/3 428/2/3
f 430/3/3 402/3/3 429/3/3
f 431/1/3 403/1/3 315/1/3
f 432/3/3 404/3/3 403/3/3
f 432/1/3 403/1/3 431/1/3
f 433/2/3 406/2/3 405/2/3
f 433/3/3 404/3/3 432/3/3
f 433/2/3 405/2/3 404/2/3
f 434/2/3 406/2/3 433/2/3
f 435/2/3 406/2/3 434/2/3
f 436/4/3 407/4/3 406/4/3
f 436/2/3 406/2/3 435/2/3
f 437/3/3 408/3/3 407/3/3
f 437/4/3 407/4/3 436/4/3
f 438/2/3 409/2/3 408/2/3
f 438/3/3 408/3/3 437/3/3
f 439/1/3 410/1/3 409/1/3
f 439/2/3 409/2/3 438/2/3
f 440/4/3 411/4/3 410/4/3
f 440/1/3 410/1/3 439/1/3
f 441/3/3 412/3/3 411/3/3
f 441/4/3 411/4/3 440/4/3
f 442/2/3 413/2/3 412/2/3
f 442/3/3 412/3/3 441/3/3
f 443/1/3 414/1/3 413/1/3
f 443/2/3 413/2/3 442/2/3
f 444/4/3 415/4/3 414/4/3
f 444/1/3 414/1/3 443/1/3
f 445/2/3 416/2/3 415/2/3
f 445/4/3 415/4/3 444/4/3
f 446/3/3 395/3/3 394/3/3
f 446/2/3 417/2/3 395/2/3
f 447/3/3 418/3/3 417/3/3
f 447/2/3 417/2/3 446/2/3
f 448/2/3 421/2/3 420/2/3
f 448/4/3 420/4/3 419/4/3
f 449/3/3 422/3/3 421/3/3
f 449/2/3 421/2/3 448/2/3
f 450/2/3 423/2/3 422/2/3
f 450/3/3 422/3/3 449/3/3
f 451/3/3 424/3/3 423/3/3
f 451/2/3 423/2/3 450/2/3
f 451/3/3 425/3/3 424/3/3
f 452/3/3 425/3/3 451/3/3
f 453/2/3 427/2/3 426/2/3
f 453/3/3 425/3/3 452/3/3
f 453/2/3 426/2/3 425/2/3
f 454/2/3 427/2/3 453/2/3
f 455/3/3 428/3/3 427/3/3
f 455/2/3 427/2/3 454/2/3
f 455/3/3 429/3/3 428/3/3
f 456/3/3 429/3/3 455/3/3
f 457/2/3 430/2/3 429/2/3
f 457/3/3 429/3/3 456/3/3
f 458/2/3 430/2/3 457/2/3
f 459/2/3 432/2/3 431/2/3
f 460/4/3 433/4/3 432/4/3
f 460/2/3 432/2/3 459/2/3
f 461/2/3 434/2/3 433/2/3
f 461/4/3 433/4/3 460/4/3
f 462/3/3 435/3/3 434/3/3
f 462/2/3 434/2/3 461/2/3
f 463/1/3 436/1/3 435/1/3
f 463/3/3 435/3/3 462/3/3
f 464/3/3 437/3/3 436/3/3
f 464/1/3 436/1/3 463/1/3
f 465/2/3 438/2/3 437/2/3
f 465/3/3 437/3/3 464/3/3
f 466/3/3 439/3/3 438/3/3
f 466/2/3 438/2/3 465/2/3
f 467/4/3 441/4/3 440/4/3
f 467/2/3 442/2/3 441/2/3
f 468/3/3 443/3/3 442/3/3
f 468/2/3 442/2/3 467/2/3
f 469/2/3 393/2/3 416/2/3
f 469/2/3 416/2/3 445/2/3
f 469/1/3 394/1/3 393/1/3
f 470/3/3 447/3/3 446/3/3
f 470/1/3 394/1/3 469/1/3
f 470/3/3 446/3/3 394/3/3
f 471/3/3 418/3/3 447/3/3
f 471/3/3 447/3/3 470/3/3
f 472/1/3 419/1/3 418/1/3
f 472/3/3 418/3/3 471/3/3
f 473/4/3 448/4/3 419/4/3
f 473/1/3 419/1/3 472/1/3
f 474/3/3 450/3/3 449/3/3
f 474/4/3 448/4/3 473/4/3
f 474/3/3 449/3/3 448/3/3
f 475/3/3 450/3/3 474/3/3
f 476/1/3 451/1/3 450/1/3
f 476/3/3 450/3/3 475/3/3
f 477/3/3 452/3/3 451/3/3
f 477/1/3 451/1/3 476/1/3
f 478/2/3 453/2/3 452/2/3
f 478/3/3 452/3/3 477/3/3
f 479/3/3 454/3/3 453/3/3
f 479/2/3 453/2/3 478/2/3
f 480/2/3 455/2/3 454/2/3
f 480/3/3 454/3/3 479/3/3
f 481/4/3 456/4/3 455/4/3
f 481/2/3 455/2/3 480/2/3
f 482/3/3 458/3/3 457/3/3
f 482/4/3 456/4/3 481/4/3
f 482/3/3 457/3/3 456/3/3
f 483/3/3 458/3/3 482/3/3
f 484/3/3 458/3/3 483/3/3
f 485/4/3 461/4/3 460/4/3
f 485/1/3 460/1/3 459/1/3
f 486/3/3 463/3/3 462/3/3
f 486/4/3 461/4/3 485/4/3
f 486/3/3 462/3/3 461/3/3
f 487/2/3 464/2/3 463/2/3
f 487/3/3 463/3/3 486/3/3
f 488/3/3 465/3/3 464/3/3
f 488/2/3 464/2/3 487/2/3
f 488/3/3 466/3/3 465/3/3
f 489/3/3 466/3/3 488/3/3
f 490/3/3 439/3/3 466/3/3
f 490/3/3 466/3/3 489/3/3
f 490/2/3 440/2/3 439/2/3
f 491/4/3 467/4/3 440/4/3
f 491/2/3 440/2/3 490/2/3
f 492/3/3 468/3/3 467/3/3
f 492/4/3 467/4/3 491/4/3
f 493/3/3 443/3/3 468/3/3
f 493/3/3 468/3/3 492/3/3
f 493/2/3 444/2/3 443/2/3
f 494/3/3 445/3/3 444/3/3
f 494/2/3 444/2/3 493/2/3
f 495/2/3 470/2/3 469/2/3
f 495/3/3 445/3/3 494/3/3
f 495/2/3 469/2/3 445/2/3
f 496/2/3 470/2/3 495/2/3
f 497/3/3 471/3/3 470/3/3
f 497/2/3 470/2/3 496/2/3
f 498/3/3 471/3/3 497/3/3
f 499/2/3 473/2/3 472/2/3
f 499/3/3 471/3/3 498/3/3
f 499/2/3 472/2/3 471/2/3
f 500/3/3 474/3/3 473/3/3
f 500/2/3 475/2/3 474/2/3
f 501/3/3 476/3/3 475/3/3
f 501/2/3 475/2/3 500/2/3
f 502/2/3 477/2/3 476/2/3
f 502/3/3 476/3/3 501/3/3
f 503/3/3 479/3/3 478/3/3
f 503/2/3 477/2/3 502/2/3
f 503/3/3 478/3/3 477/3/3
f 504/2/3 480/2/3 479/2/3
f 504/3/3 479/3/3 503/3/3
f 504/2/3 481/2/3 480/2/3
f 505/2/3 481/2/3 504/2/3
f 506/3/3 483/3/3 482/3/3
f 506/2/3 481/2/3 505/2/3
f 506/3/3 482/3/3 481/3/3
f 507/3/3 483/3/3 506/3/3
f 508/3/3 483/3/3 507/3/3
f 509/2/3 484/2/3 483/2/3
f 509/3/3 483/3/3 508/3/3
f 510/2/3 484/2/3 509/2/3
f 511/1/3 485/1/3 459/1/3
f 511/3/3 487/3/3 486/3/3
f 511/3/3 486/3/3 485/3/3
f 512/3/3 487/3/3 511/3/3
f 513/3/3 487/3/3 512/3/3
f 514/1/3 488/1/3 487/1/3
f 514/3/3 487/3/3 513/3/3
f 515/2/3 490/2/3 489/2/3
f 516/1/3 491/1/3 490/1/3
f 516/2/3 490/2/3 515/2/3
f 517/3/3 492/3/3 491/3/3
f 517/3/3 493/3/3 492/3/3
f 518/1/3 494/1/3 493/1/3
f 518/3/3 493/3/3 517/3/3
f 519/3/3 496/3/3 495/3/3
f 519/4/3 495/4/3 494/4/3
f 520/2/3 497/2/3 496/2/3
f 520/3/3 496/3/3 519/3/3
f 521/2/3 473/2/3 499/2/3
f 521/2/3 499/2/3 498/2/3
f 522/3/3 500/3/3 473/3/3
f 522/2/3 473/2/3 521/2/3
f 522/3/3 501/3/3 500/3/3
f 523/3/3 501/3/3 522/3/3
f 524/2/3 502/2/3 501/2/3
f 524/3/3 501/3/3 523/3/3
f 525/1/3 503/1/3 502/1/3
f 525/2/3 502/2/3 524/2/3
f 526/3/3 505/3/3 504/3/3
f 526/1/3 503/1/3 525/1/3
f 526/3/3 504/3/3 503/3/3
f 527/3/3 505/3/3 526/3/3
f 528/3/3 505/3/3 527/3/3
f 529/1/3 506/1/3 505/1/3
f 529/3/3 505/3/3 528/3/3
f 530/3/3 507/3/3 506/3/3
f 530/1/3 506/1/3 529/1/3
f 531/2/3 508/2/3 507/2/3
f 531/3/3 507/3/3 530/3/3
f 532/3/3 510/3/3 509/3/3
f 532/2/3 508/2/3 531/2/3
f 532/3/3 509/3/3 508/3/3
f 533/3/3 510/3/3 532/3/3
f 534/3/3 510/3/3 533/3/3
f 535/1/3 511/1/3 459/1/3
f 536/4/3 512/4/3 511/4/3
f 536/1/3 511/1/3 535/1/3
f 537/3/3 513/3/3 512/3/3
f 537/4/3 512/4/3 536/4/3
f 538/2/3 514/2/3 513/2/3
f 538/3/3 513/3/3 537/3/3
f 539/4/3 489/4/3 488/4/3
f 539/2/3 515/2/3 489/2/3
f 540/3/3 516/3/3 515/3/3
f 540/2/3 515/2/3 539/2/3
f 541/1/3 491/1/3 516/1/3
f 541/3/3 516/3/3 540/3/3
f 542/3/3 517/3/3 491/3/3
f 542/1/3 491/1/3 541/1/3
f 543/2/3 518/2/3 517/2/3
f 543/3/3 517/3/3 542/3/3
f 544/2/3 518/2/3 543/2/3
f 545/1/3 494/1/3 518/1/3
f 545/2/3 518/2/3 544/2/3
f 546/4/3 498/4/3 497/4/3
f 546/2/3 497/2/3 520/2/3
f 546/2/3 520/2/3 519/2/3
f 547/2/3 521/2/3 498/2/3
f 547/4/3 498/4/3 546/4/3
f 548/1/3 522/1/3 521/1/3
f 548/2/3 521/2/3 547/2/3
f 549/4/3 523/4/3 522/4/3
f 549/1/3 522/1/3 548/1/3
f 550/2/3 524/2/3 523/2/3
f 550/4/3 523/4/3 549/4/3
f 550/2/3 525/2/3 524/2/3
f 550/2/3 526/2/3 525/2/3
f 551/2/3 526/2/3 550/2/3
f 552/3/3 527/3/3 526/3/3
f 552/2/3 526/2/3 551/2/3
f 553/2/3 528/2/3 527/2/3
f 553/3/3 527/3/3 552/3/3
f 554/3/3 529/3/3 528/3/3
f 554/2/3 528/2/3 553/2/3
f 555/2/3 530/2/3 529/2/3
f 555/3/3 529/3/3 554/3/3
f 556/3/3 531/3/3 530/3/3
f 556/2/3 530/2/3 555/2/3
f 556/3/3 533/3/3 532/3/3
f 556/3/3 532/3/3 531/3/3
f 557/3/3 533/3/3 556/3/3
f 558/3/3 533/3/3 557/3/3
f 559/2/3 536/2/3 535/2/3
f 559/4/3 537/4/3 536/4/3
f 560/2/3 538/2/3 537/2/3
f 560/4/3 537/4/3 559/4/3
f 561/2/3 514/2/3 538/2/3
f 561/2/3 538/2/3 560/2/3
f 561/1/3 488/1/3 514/1/3
f 562/4/3 539/4/3 488/4/3
f 562/1/3 488/1/3 561/1/3
f 563/3/3 540/3/3 539/3/3
f 563/4/3 539/4/3 562/4/3
f 564/2/3 541/2/3 540/2/3
f 564/3/3 540/3/3 563/3/3
f 565/1/3 542/1/3 541/1/3
f 565/2/3 541/2/3 564/2/3
f 566/4/3 543/4/3 542/4/3
f 566/1/3 542/1/3 565/1/3
f 567/2/3 544/2/3 543/2/3
f 567/4/3 543/4/3 566/4/3
f 568/3/3 545/3/3 544/3/3
f 568/2/3 544/2/3 567/2/3
f 569/1/3 494/1/3 545/1/3
f 569/3/3 545/3/3 568/3/3
f 570/4/3 519/4/3 494/4/3
f 570/1/3 494/1/3 569/1/3
f 571/2/3 546/2/3 519/2/3
f 571/4/3 519/4/3 570/4/3
f 572/2/3 546/2/3 571/2/3
f 573/3/3 547/3/3 546/3/3
f 573/2/3 546/2/3 572/2/3
f 574/2/3 549/2/3 548/2/3
f 574/3/3 547/3/3 573/3/3
f 574/2/3 548/2/3 547/2/3
f 575/2/3 549/2/3 574/2/3
f 576/3/3 550/3/3 549/3/3
f 576/2/3 549/2/3 575/2/3
f 577/2/3 551/2/3 550/2/3
f 577/3/3 550/3/3 576/3/3
f 578/1/3 552/1/3 551/1/3
f 578/2/3 551/2/3 577/2/3
f 579/3/3 554/3/3 553/3/3
f 579/1/3 552/1/3 578/1/3
f 579/3/3 555/3/3 554/3/3
f 579/3/3 553/3/3 552/3/3
f 580/3/3 555/3/3 579/3/3
f 581/1/3 556/1/3 555/1/3
f 581/3/3 555/3/3 580/3/3
f 582/2/3 558/2/3 557/2/3
f 582/4/3 557/4/3 556/4/3
f 583/3/3 533/3/3 558/3/3
f 583/2/3 558/2/3 582/2/3
f 584/2/3 534/2/3 533/2/3
f 584/3/3 533/3/3 583/3/3
f 585/2/3 534/2/3 584/2/3
f 586/2/3 559/2/3 535/2/3
f 587/3/3 560/3/3 559/3/3
f 587/2/3 559/2/3 586/2/3
f 587/3/3 561/3/3 560/3/3
f 588/3/3 561/3/3 587/3/3
f 589/3/3 561/3/3 588/3/3
f 590/2/3 562/2/3 561/2/3
f 590/3/3 561/3/3 589/3/3
f 591/3/3 563/3/3 562/3/3
f 591/2/3 562/2/3 590/2/3
f 591/3/3 564/3/3 563/3/3
f 591/3/3 565/3/3 564/3/3
f 592/3/3 565/3/3 591/3/3
f 593/3/3 565/3/3 592/3/3
f 594/1/3 566/1/3 565/1/3
f 594/3/3 565/3/3 593/3/3
f 595/3/3 568/3/3 567/3/3
f 595/1/3 566/1/3 594/1/3
f 595/3/3 569/3/3 568/3/3
f 595/3/3 567/3/3 566/3/3
f 596/3/3 569/3/3 595/3/3
f 597/2/3 570/2/3 569/2/3
f 597/3/3 569/3/3 596/3/3
f 598/3/3 571/3/3 570/3/3
f 598/2/3 570/2/3 597/2/3
f 598/3/3 572/3/3 571/3/3
f 599/3/3 572/3/3 598/3/3
f 600/3/3 572/3/3 599/3/3
f 601/2/3 575/2/3 574/2/3
f 602/1/3 576/1/3 575/1/3
f 602/2/3 575/2/3 601/2/3
f 603/2/3 578/2/3 577/2/3
f 603/4/3 577/4/3 576/4/3
f 603/2/3 579/2/3 578/2/3
f 604/2/3 579/2/3 603/2/3
f 605/3/3 580/3/3 579/3/3
f 605/2/3 579/2/3 604/2/3
f 606/3/3 580/3/3 605/3/3
f 607/4/3 582/4/3 556/4/3
f 607/1/3 556/1/3 581/1/3
f 608/3/3 583/3/3 582/3/3
f 608/4/3 582/4/3 607/4/3
f 609/2/3 584/2/3 583/2/3
f 609/3/3 583/3/3 608/3/3
f 610/4/3 592/4/3 591/4/3
f 610/1/3 591/1/3 590/1/3
f 611/2/3 593/2/3 592/2/3
f 611/4/3 592/4/3 610/4/3
f 612/3/3 594/3/3 593/3/3
f 612/2/3 593/2/3 611/2/3
f 613/2/3 595/2/3 594/2/3
f 613/3/3 594/3/3 612/3/3
f 614/3/3 596/3/3 595/3/3
f 614/2/3 595/2/3 613/2/3
f 615/3/3 596/3/3 614/3/3
f 616/2/3 600/2/3 599/2/3
f 616/3/3 599/3/3 598/3/3
f 617/3/3 572/3/3 600/3/3
f 617/2/3 600/2/3 616/2/3
f 618/1/3 573/1/3 572/1/3
f 618/3/3 572/3/3 617/3/3
f 619/4/3 574/4/3 573/4/3
f 619/1/3 573/1/3 618/1/3
f 620/2/3 601/2/3 574/2/3
f 620/4/3 574/4/3 619/4/3
f 621/3/3 602/3/3 601/3/3
f 621/2/3 601/2/3 620/2/3
f 622/1/3 576/1/3 602/1/3
f 622/3/3 602/3/3 621/3/3
f 623/3/3 604/3/3 603/3/3
f 624/2/3 605/2/3 604/2/3
f 624/3/3 604/3/3 623/3/3
f 625/3/3 580/3/3 606/3/3
f 625/4/3 606/4/3 605/4/3
f 626/2/3 581/2/3 580/2/3
f 626/3/3 580/3/3 625/3/3
f 627/1/3 607/1/3 581/1/3
f 627/2/3 581/2/3 626/2/3
f 628/3/3 608/3/3 607/3/3
f 628/1/3 607/1/3 627/1/3
f 629/2/3 609/2/3 608/2/3
f 629/3/3 608/3/3 628/3/3
f 630/3/3 588/3/3 587/3/3
f 630/1/3 587/1/3 586/1/3
f 631/2/3 589/2/3 588/2/3
f 631/3/3 588/3/3 630/3/3
f 632/3/3 590/3/3 589/3/3
f 632/2/3 589/2/3 631/2/3
f 633/1/3 610/1/3 590/1/3
f 633/3/3 590/3/3 632/3/3
f 634/3/3 611/3/3 610/3/3
f 634/3/3 612/3/3 611/3/3
f 635/2/3 613/2/3 612/2/3
f 635/3/3 612/3/3 634/3/3
f 636/1/3 614/1/3 613/1/3
f 636/2/3 613/2/3 635/2/3
f 637/4/3 615/4/3 614/4/3
f 637/1/3 614/1/3 636/1/3
f 638/3/3 617/3/3 616/3/3
f 638/3/3 616/3/3 598/3/3
f 638/1/3 598/1/3 597/1/3
f 639/3/3 617/3/3 638/3/3
f 640/2/3 618/2/3 617/2/3
f 640/3/3 617/3/3 639/3/3
f 640/2/3 619/2/3 618/2/3
f 641/2/3 619/2/3 640/2/3
f 642/3/3 621/3/3 620/3/3
f 642/3/3 620/3/3 619/3/3
f 643/2/3 622/2/3 621/2/3
f 643/3/3 621/3/3 642/3/3
f 644/4/3 603/4/3 576/4/3
f 644/3/3 623/3/3 603/3/3
f 645/2/3 624/2/3 623/2/3
f 645/3/3 623/3/3 644/3/3
f 646/2/3 605/2/3 624/2/3
f 646/2/3 624/2/3 645/2/3
f 647/4/3 625/4/3 605/4/3
f 647/2/3 605/2/3 646/2/3
f 648/2/3 626/2/3 625/2/3
f 648/4/3 625/4/3 647/4/3
f 648/2/3 628/2/3 627/2/3
f 648/2/3 627/2/3 626/2/3
f 649/2/3 584/2/3 609/2/3
f 649/2/3 609/2/3 629/2/3
f 650/3/3 585/3/3 584/3/3
f 650/2/3 584/2/3 649/2/3
f 651/3/3 585/3/3 650/3/3
f 652/2/3 637/2/3 636/2/3
f 652/2/3 635/2/3 634/2/3
f 652/2/3 636/2/3 635/2/3
f 653/2/3 637/2/3 652/2/3
f 654/4/3 615/4/3 637/4/3
f 654/2/3 637/2/3 653/2/3
f 655/3/3 596/3/3 615/3/3
f 655/4/3 615/4/3 654/4/3
f 656/2/3 597/2/3 596/2/3
f 656/3/3 596/3/3 655/3/3
f 657/1/3 638/1/3 597/1/3
f 657/2/3 597/2/3 656/2/3
f 658/4/3 639/4/3 638/4/3
f 658/1/3 638/1/3 657/1/3
f 659/3/3 640/3/3 639/3/3
f 659/4/3 639/4/3 658/4/3
f 659/3/3 641/3/3 640/3/3
f 660/3/3 641/3/3 659/3/3
f 661/2/3 619/2/3 641/2/3
f 661/3/3 641/3/3 660/3/3
f 662/3/3 642/3/3 619/3/3
f 662/2/3 619/2/3 661/2/3
f 663/2/3 622/2/3 643/2/3
f 663/2/3 643/2/3 642/2/3
f 664/1/3 576/1/3 622/1/3
f 664/2/3 622/2/3 663/2/3
f 665/4/3 644/4/3 576/4/3
f 665/1/3 576/1/3 664/1/3
f 666/2/3 645/2/3 644/2/3
f 666/4/3 644/4/3 665/4/3
f 667/1/3 647/1/3 646/1/3
f 667/3/3 646/3/3 645/3/3
f 668/3/3 648/3/3 647/3/3
f 668/1/3 647/1/3 667/1/3
f 669/2/3 628/2/3 648/2/3
f 669/3/3 648/3/3 668/3/3
f 670/2/3 628/2/3 669/2/3
f 671/2/3 649/2/3 629/2/3
f 671/4/3 629/4/3 628/4/3
f 672/3/3 650/3/3 649/3/3
f 672/2/3 649/2/3 671/2/3
f 673/2/3 651/2/3 650/2/3
f 673/3/3 650/3/3 672/3/3
f 674/1/3 630/1/3 586/1/3
f 674/4/3 631/4/3 630/4/3
f 675/2/3 632/2/3 631/2/3
f 675/4/3 631/4/3 674/4/3
f 675/2/3 633/2/3 632/2/3
f 676/2/3 633/2/3 675/2/3
f 677/1/3 610/1/3 633/1/3
f 677/2/3 633/2/3 676/2/3
f 678/3/3 653/3/3 652/3/3
f 678/1/3 654/1/3 653/1/3
f 679/3/3 657/3/3 656/3/3
f 679/1/3 654/1/3 678/1/3
f 679/3/3 655/3/3 654/3/3
f 679/3/3 656/3/3 655/3/3
f 680/3/3 657/3/3 679/3/3
f 681/3/3 657/3/3 680/3/3
f 682/1/3 658/1/3 657/1/3
f 682/3/3 657/3/3 681/3/3
f 683/2/3 660/2/3 659/2/3
f 683/3/3 659/3/3 658/3/3
f 684/3/3 661/3/3 660/3/3
f 684/2/3 660/2/3 683/2/3
f 685/1/3 662/1/3 661/1/3
f 685/3/3 661/3/3 684/3/3
f 686/3/3 642/3/3 662/3/3
f 686/1/3 662/1/3 685/1/3
f 687/2/3 663/2/3 642/2/3
f 687/3/3 642/3/3 686/3/3
f 688/3/3 664/3/3 663/3/3
f 688/2/3 663/2/3 687/2/3
f 689/1/3 665/1/3 664/1/3
f 689/3/3 664/3/3 688/3/3
f 690/2/3 645/2/3 666/2/3
f 690/3/3 667/3/3 645/3/3
f 691/2/3 668/2/3 667/2/3
f 691/3/3 667/3/3 690/3/3
f 692/3/3 670/3/3 669/3/3
f 692/3/3 669/3/3 668/3/3
f 693/2/3 628/2/3 670/2/3
f 693/3/3 670/3/3 692/3/3
f 694/2/3 628/2/3 693/2/3
f 695/4/3 671/4/3 628/4/3
f 695/2/3 628/2/3 694/2/3
f 696/3/3 672/3/3 671/3/3
f 696/4/3 671/4/3 695/4/3
f 697/2/3 673/2/3 672/2/3
f 697/3/3 672/3/3 696/3/3
f 698/2/3 651/2/3 673/2/3
f 698/2/3 673/2/3 697/2/3
f 699/1/3 674/1/3 586/1/3
f 700/3/3 675/3/3 674/3/3
f 700/1/3 674/1/3 699/1/3
f 701/2/3 676/2/3 675/2/3
f 701/3/3 677/3/3 676/3/3
f 702/1/3 610/1/3 677/1/3
f 702/3/3 677/3/3 701/3/3
f 703/3/3 634/3/3 610/3/3
f 703/1/3 610/1/3 702/1/3
f 704/3/3 678/3/3 652/3/3
f 704/2/3 679/2/3 678/2/3
f 705/4/3 680/4/3 679/4/3
f 705/2/3 679/2/3 704/2/3
f 706/3/3 681/3/3 680/3/3
f 706/4/3 680/4/3 705/4/3
f 707/2/3 682/2/3 681/2/3
f 707/3/3 681/3/3 706/3/3
f 708/3/3 683/3/3 658/3/3
f 708/3/3 685/3/3 684/3/3
f 708/3/3 684/3/3 683/3/3
f 709/3/3 685/3/3 708/3/3
f 710/2/3 686/2/3 685/2/3
f 710/3/3 685/3/3 709/3/3
f 711/4/3 687/4/3 686/4/3
f 711/2/3 686/2/3 710/2/3
f 712/2/3 688/2/3 687/2/3
f 712/4/3 687/4/3 711/4/3
f 712/2/3 689/2/3 688/2/3
f 713/1/3 665/1/3 689/1/3
f 713/2/3 689/2/3 712/2/3
f 714/2/3 690/2/3 666/2/3
f 714/2/3 691/2/3 690/2/3
f 715/2/3 668/2/3 691/2/3
f 715/2/3 691/2/3 714/2/3
f 716/3/3 692/3/3 668/3/3
f 716/2/3 668/2/3 715/2/3
f 717/3/3 694/3/3 693/3/3
f 717/2/3 693/2/3 692/2/3
f 718/1/3 695/1/3 694/1/3
f 718/3/3 694/3/3 717/3/3
f 719/3/3 697/3/3 696/3/3
f 719/1/3 695/1/3 718/1/3
f 719/3/3 696/3/3 695/3/3
f 719/3/3 698/3/3 697/3/3
f 720/3/3 698/3/3 719/3/3
f 721/3/3 698/3/3 720/3/3
f 722/2/3 700/2/3 699/2/3
f 723/3/3 675/3/3 700/3/3
f 723/2/3 700/2/3 722/2/3
f 724/2/3 701/2/3 675/2/3
f 724/2/3 702/2/3 701/2/3
f 724/2/3 703/2/3 702/2/3
f 725/2/3 703/2/3 724/2/3
f 726/2/3 652/2/3 634/2/3
f 726/3/3 704/3/3 652/3/3
f 727/1/3 705/1/3 704/1/3
f 727/3/3 704/3/3 726/3/3
f 728/4/3 706/4/3 705/4/3
f 728/1/3 705/1/3 727/1/3
f 729/1/3 658/1/3 682/1/3
f 729/2/3 682/2/3 707/2/3
f 729/2/3 707/2/3 706/2/3
f 730/3/3 708/3/3 658/3/3
f 730/1/3 658/1/3 729/1/3
f 731/2/3 709/2/3 708/2/3
f 731/3/3 708/3/3 730/3/3
f 732/3/3 710/3/3 709/3/3
f 732/2/3 709/2/3 731/2/3
f 733/3/3 712/3/3 711/3/3
f 733/3/3 713/3/3 712/3/3
f 734/1/3 665/1/3 713/1/3
f 734/3/3 713/3/3 733/3/3
f 735/3/3 666/3/3 665/3/3
f 735/1/3 665/1/3 734/1/3
f 736/2/3 714/2/3 666/2/3
f 736/3/3 666/3/3 735/3/3
f 737/3/3 715/3/3 714/3/3
f 737/2/3 714/2/3 736/2/3
f 738/1/3 716/1/3 715/1/3
f 738/3/3 715/3/3 737/3/3
f 739/3/3 692/3/3 716/3/3
f 739/1/3 716/1/3 738/1/3
f 740/2/3 718/2/3 717/2/3
f 740/2/3 717/2/3 692/2/3
f 740/2/3 719/2/3 718/2/3
f 741/2/3 719/2/3 740/2/3
f 742/3/3 720/3/3 719/3/3
f 742/2/3 719/2/3 741/2/3
f 743/3/3 698/3/3 721/3/3
f 743/2/3 721/2/3 720/2/3
f 744/2/3 651/2/3 698/2/3
f 744/3/3 698/3/3 743/3/3
f 745/2/3 651/2/3 744/2/3
f 746/2/3 724/2/3 675/2/3
f 746/3/3 725/3/3 724/3/3
f 747/2/3 703/2/3 725/2/3
f 747/3/3 725/3/3 746/3/3
f 748/3/3 634/3/3 703/3/3
f 748/2/3 703/2/3 747/2/3
f 749/2/3 726/2/3 634/2/3
f 749/3/3 634/3/3 748/3/3
f 749/2/3 727/2/3 726/2/3
f 749/2/3 728/2/3 727/2/3
f 750/2/3 728/2/3 749/2/3
f 751/2/3 729/2/3 706/2/3
f 751/2/3 730/2/3 729/2/3
f 752/2/3 730/2/3 751/2/3
f 753/3/3 731/3/3 730/3/3
f 753/2/3 730/2/3 752/2/3
f 753/3/3 732/3/3 731/3/3
f 754/3/3 710/3/3 732/3/3
f 754/3/3 732/3/3 753/3/3
f 755/1/3 711/1/3 710/1/3
f 755/3/3 710/3/3 754/3/3
f 756/3/3 733/3/3 711/3/3
f 757/2/3 734/2/3 733/2/3
f 757/3/3 733/3/3 756/3/3
f 758/1/3 735/1/3 734/1/3
f 758/2/3 734/2/3 757/2/3
f 759/4/3 736/4/3 735/4/3
f 759/1/3 735/1/3 758/1/3
f 760/2/3 737/2/3 736/2/3
f 760/2/3 739/2/3 738/2/3
f 760/2/3 738/2/3 737/2/3
f 761/3/3 692/3/3 739/3/3
f 761/2/3 739/2/3 760/2/3
f 762/1/3 742/1/3 741/1/3
f 762/3/3 741/3/3 740/3/3
f 763/3/3 720/3/3 742/3/3
f 763/1/3 742/1/3 762/1/3
f 764/2/3 744/2/3 743/2/3
f 764/3/3 745/3/3 744/3/3
f 765/3/3 745/3/3 764/3/3
f 766/1/3 723/1/3 722/1/3
f 767/3/3 675/3/3 723/3/3
f 767/1/3 723/1/3 766/1/3
f 768/2/3 747/2/3 746/2/3
f 768/3/3 675/3/3 767/3/3
f 768/2/3 746/2/3 675/2/3
f 769/1/3 748/1/3 747/1/3
f 769/2/3 747/2/3 768/2/3
f 770/3/3 750/3/3 749/3/3
f 770/1/3 748/1/3 769/1/3
f 770/3/3 749/3/3 748/3/3
f 771/2/3 728/2/3 750/2/3
f 771/3/3 750/3/3 770/3/3
f 772/4/3 706/4/3 728/4/3
f 772/2/3 728/2/3 771/2/3
f 773/2/3 751/2/3 706/2/3
f 773/4/3 706/4/3 772/4/3
f 774/3/3 752/3/3 751/3/3
f 774/2/3 751/2/3 773/2/3
f 775/1/3 753/1/3 752/1/3
f 775/3/3 752/3/3 774/3/3
f 776/3/3 754/3/3 753/3/3
f 776/1/3 753/1/3 775/1/3
f 777/2/3 755/2/3 754/2/3
f 777/3/3 754/3/3 776/3/3
f 778/1/3 711/1/3 755/1/3
f 778/2/3 755/2/3 777/2/3
f 779/3/3 756/3/3 711/3/3
f 779/1/3 711/1/3 778/1/3
f 780/2/3 758/2/3 757/2/3
f 780/3/3 756/3/3 779/3/3
f 780/2/3 757/2/3 756/2/3
f 780/2/3 759/2/3 758/2/3
f 781/4/3 736/4/3 759/4/3
f 781/2/3 759/2/3 780/2/3
f 782/2/3 760/2/3 736/2/3
f 782/4/3 736/4/3 781/4/3
f 783/1/3 761/1/3 760/1/3
f 783/2/3 760/2/3 782/2/3
f 784/3/3 692/3/3 761/3/3
f 784/1/3 761/1/3 783/1/3
f 785/2/3 740/2/3 692/2/3
f 785/3/3 692/3/3 784/3/3
f 786/3/3 762/3/3 740/3/3
f 786/2/3 740/2/3 785/2/3
f 787/2/3 763/2/3 762/2/3
f 787/3/3 762/3/3 786/3/3
f 788/3/3 720/3/3 763/3/3
f 788/2/3 763/2/3 787/2/3
f 789/2/3 743/2/3 720/2/3
f 789/3/3 720/3/3 788/3/3
f 789/2/3 764/2/3 743/2/3
f 789/2/3 765/2/3 764/2/3
f 790/2/3 765/2/3 789/2/3
f 791/1/4 792/1/4 820/1/4
f 792/4/4 793/4/4 820/4/4
f 793/2/4 794/2/4 821/2/4
f 820/4/4 793/4/4 821/4/4
f 795/2/4 796/2/4 822/2/4
f 796/4/4 797/4/4 822/4/4
f 797/2/4 798/2/4 823/2/4
f 822/4/4 797/4/4 823/4/4
f 798/3/4 799/3/4 824/3/4
f 823/2/4 798/2/4 824/2/4
f 799/1/4 800/1/4 825/1/4
f 824/3/4 799/3/4 825/3/4
f 800/4/4 801/4/4 826/4/4
f 825/1/4 800/1/4 826/1/4
f 803/1/4 804/1/4 827/1/4
f 804/3/4 805/3/4 827/3/4
f 827/3/4 805/3/4 828/3/4
f 805/2/4 806/2/4 829/2/4
f 828/3/4 805/3/4 829/3/4
f 806/1/4 807/1/4 830/1/4
f 829/2/4 806/2/4 830/2/4
f 807/4/4 808/4/4 831/4/4
f 830/1/4 807/1/4 831/1/4
f 808/3/4 809/3/4 832/3/4
f 831/4/4 808/4/4 832/4/4
f 809/2/4 810/2/4 833/2/4
f 832/3/4 809/3/4 833/3/4
f 811/3/4 812/3/4 834/3/4
f 812/2/4 813/2/4 834/2/4
f 834/2/4 813/2/4 835/2/4
f 813/3/4 814/3/4 836/3/4
f 835/2/4 813/2/4 836/2/4
f 814/2/4 815/2/4 837/2/4
f 836/3/4 814/3/4 837/3/4
f 815/3/4 816/3/4 838/3/4
f 816/1/4 817/1/4 838/1/4
f 817/4/4 818/4/4 839/4/4
f 838/1/4 817/1/4 839/1/4
f 818/2/4 819/2/4 840/2/4
f 839/4/4 818/4/4 840/4/4
f 840/2/4 819/2/4 841/2/4
f 841/2/4 819/2/4 842/2/4
f 791/1/4 820/1/4 843/1/4
f 820/3/4 821/3/4 844/3/4
f 843/1/4 820/1/4 844/1/4
f 821/2/4 794/2/4 845/2/4
f 844/3/4 821/3/4 845/3/4
f 794/3/4 795/3/4 846/3/4
f 845/2/4 794/2/4 846/2/4
f 795/2/4 822/2/4 847/2/4
f 846/3/4 795/3/4 847/3/4
f 824/2/4 825/2/4 848/2/4
f 826/4/4 801/4/4 848/4/4
f 825/2/4 826/2/4 848/2/4
f 801/2/4 802/2/4 849/2/4
f 848/4/4 801/4/4 849/4/4
f 802/3/4 803/3/4 850/3/4
f 849/2/4 802/2/4 850/2/4
f 827/4/4 828/4/4 851/4/4
f 803/1/4 827/1/4 851/1/4
f 828/2/4 829/2/4 852/2/4
f 851/4/4 828/4/4 852/4/4
f 829/2/4 830/2/4 852/2/4
f 830/2/4 831/2/4 852/2/4
f 852/2/4 831/2/4 853/2/4
f 835/2/4 836/2/4 854/2/4
f 836/4/4 837/4/4 854/4/4
f 837/2/4 815/2/4 855/2/4
f 854/4/4 837/4/4 855/4/4
f 815/3/4 838/3/4 856/3/4
f 855/2/4 815/2/4 856/2/4
f 838/2/4 839/2/4 857/2/4
f 856/3/4 838/3/4 857/3/4
f 839/3/4 840/3/4 858/3/4
f 857/2/4 839/2/4 858/2/4
f 840/2/4 841/2/4 859/2/4
f 858/3/4 840/3/4 859/3/4
f 843/2/4 844/2/4 860/2/4
f 844/4/4 845/4/4 861/4/4
f 860/2/4 844/2/4 861/2/4
f 845/2/4 846/2/4 862/2/4
f 861/4/4 845/4/4 862/4/4
f 846/2/4 847/2/4 862/2/4
f 862/2/4 847/2/4 863/2/4
f 822/3/4 823/3/4 864/3/4
f 823/3/4 824/3/4 864/3/4
f 824/2/4 848/2/4 865/2/4
f 864/3/4 824/3/4 865/3/4
f 865/2/4 848/2/4 866/2/4
f 848/3/4 849/3/4 867/3/4
f 866/2/4 848/2/4 867/2/4
f 849/3/4 850/3/4 867/3/4
f 867/3/4 850/3/4 868/3/4
f 850/3/4 803/3/4 869/3/4
f 868/3/4 850/3/4 869/3/4
f 803/1/4 851/1/4 870/1/4
f 869/3/4 803/3/4 870/3/4
f 852/3/4 853/3/4 871/3/4
f 870/1/4 851/1/4 871/1/4
f 851/3/4 852/3/4 871/3/4
f 853/2/4 831/2/4 872/2/4
f 871/3/4 853/3/4 872/3/4
f 831/4/4 832/4/4 873/4/4
f 872/2/4 831/2/4 873/2/4
f 833/2/4 810/2/4 874/2/4
f 832/2/4 833/2/4 874/2/4
f 810/1/4 811/1/4 875/1/4
f 874/2/4 810/2/4 875/2/4
f 835/2/4 854/2/4 876/2/4
f 855/3/4 856/3/4 877/3/4
f 876/2/4 854/2/4 877/2/4
f 854/3/4 855/3/4 877/3/4
f 856/3/4 857/3/4 877/3/4
f 857/1/4 858/1/4 878/1/4
f 877/3/4 857/3/4 878/3/4
f 858/4/4 859/4/4 879/4/4
f 878/1/4 858/1/4 879/1/4
f 859/2/4 841/2/4 880/2/4
f 879/4/4 859/4/4 880/4/4
f 841/3/4 842/3/4 881/3/4
f 880/2/4 841/2/4 881/2/4
f 842/2/4 819/2/4 882/2/4
f 881/3/4 842/3/4 882/3/4
f 882/2/4 819/2/4 883/2/4
f 860/1/4 861/1/4 884/1/4
f 862/3/4 863/3/4 885/3/4
f 884/1/4 861/1/4 885/1/4
f 861/3/4 862/3/4 885/3/4
f 885/3/4 863/3/4 886/3/4
f 863/2/4 847/2/4 887/2/4
f 886/3/4 863/3/4 887/3/4
f 847/2/4 822/2/4 888/2/4
f 887/2/4 847/2/4 888/2/4
f 822/3/4 864/3/4 889/3/4
f 888/2/4 822/2/4 889/2/4
f 865/2/4 866/2/4 890/2/4
f 889/3/4 864/3/4 890/3/4
f 864/2/4 865/2/4 890/2/4
f 866/1/4 867/1/4 891/1/4
f 890/2/4 866/2/4 891/2/4
f 871/3/4 872/3/4 892/3/4
f 870/2/4 871/2/4 892/2/4
f 892/3/4 872/3/4 893/3/4
f 893/3/4 872/3/4 894/3/4
f 872/1/4 873/1/4 895/1/4
f 894/3/4 872/3/4 895/3/4
f 873/4/4 832/4/4 896/4/4
f 895/1/4 873/1/4 896/1/4
f 874/3/4 875/3/4 897/3/4
f 832/2/4 874/2/4 897/2/4
f 875/1/4 811/1/4 898/1/4
f 897/3/4 875/3/4 898/3/4
f 834/3/4 835/3/4 899/3/4
f 898/1/4 811/1/4 899/1/4
f 811/3/4 834/3/4 899/3/4
f 899/3/4 835/3/4 900/3/4
f 835/2/4 876/2/4 901/2/4
f 900/3/4 835/3/4 901/3/4
f 877/3/4 878/3/4 902/3/4
f 876/1/4 877/1/4 902/1/4
f 902/3/4 878/3/4 903/3/4
f 878/2/4 879/2/4 904/2/4
f 903/3/4 878/3/4 904/3/4
f 879/4/4 880/4/4 905/4/4
f 904/2/4 879/2/4 905/2/4
f 880/3/4 881/3/4 906/3/4
f 905/4/4 880/4/4 906/4/4
f 881/2/4 882/2/4 907/2/4
f 906/3/4 881/3/4 907/3/4
f 882/3/4 883/3/4 908/3/4
f 907/2/4 882/2/4 908/2/4
f 908/3/4 883/3/4 909/3/4
f 884/2/4 885/2/4 910/2/4
f 885/3/4 886/3/4 911/3/4
f 910/2/4 885/2/4 911/2/4
f 886/2/4 887/2/4 912/2/4
f 887/3/4 888/3/4 912/3/4
f 888/1/4 889/1/4 913/1/4
f 912/3/4 888/3/4 913/3/4
f 890/3/4 891/3/4 914/3/4
f 913/1/4 889/1/4 914/1/4
f 889/3/4 890/3/4 914/3/4
f 914/3/4 891/3/4 915/3/4
f 891/1/4 867/1/4 916/1/4
f 915/3/4 891/3/4 916/3/4
f 867/4/4 868/4/4 917/4/4
f 916/1/4 867/1/4 917/1/4
f 868/2/4 869/2/4 918/2/4
f 917/4/4 868/4/4 918/4/4
f 869/3/4 870/3/4 919/3/4
f 918/2/4 869/2/4 919/2/4
f 870/2/4 892/2/4 920/2/4
f 919/3/4 870/3/4 920/3/4
f 892/4/4 893/4/4 921/4/4
f 920/2/4 892/2/4 921/2/4
f 893/3/4 894/3/4 922/3/4
f 921/4/4 893/4/4 922/4/4
f 895/2/4 896/2/4 923/2/4
f 922/3/4 894/3/4 923/3/4
f 894/2/4 895/2/4 923/2/4
f 923/2/4 896/2/4 924/2/4
f 901/2/4 876/2/4 925/2/4
f 900/2/4 901/2/4 925/2/4
f 876/1/4 902/1/4 926/1/4
f 925/2/4 876/2/4 926/2/4
f 902/4/4 903/4/4 927/4/4
f 926/1/4 902/1/4 927/1/4
f 903/2/4 904/2/4 928/2/4
f 927/4/4 903/4/4 928/4/4
f 928/2/4 904/2/4 929/2/4
f 904/1/4 905/1/4 930/1/4
f 905/3/4 906/3/4 930/3/4
f 906/2/4 907/2/4 931/2/4
f 930/3/4 906/3/4 931/3/4
f 907/3/4 908/3/4 932/3/4
f 931/2/4 907/2/4 932/2/4
f 908/2/4 909/2/4 933/2/4
f 932/3/4 908/3/4 933/3/4
f 911/3/4 886/3/4 934/3/4
f 910/1/4 911/1/4 934/1/4
f 886/2/4 912/2/4 935/2/4
f 934/3/4 886/3/4 935/3/4
f 912/2/4 913/2/4 935/2/4
f 935/2/4 913/2/4 936/2/4
f 913/1/4 914/1/4 937/1/4
f 936/2/4 913/2/4 937/2/4
f 915/2/4 916/2/4 938/2/4
f 916/2/4 917/2/4 938/2/4
f 914/4/4 915/4/4 938/4/4
f 938/2/4 917/2/4 939/2/4
f 917/4/4 918/4/4 940/4/4
f 939/2/4 917/2/4 940/2/4
f 918/3/4 919/3/4 941/3/4
f 940/4/4 918/4/4 941/4/4
f 920/2/4 921/2/4 942/2/4
f 919/2/4 920/2/4 942/2/4
f 921/3/4 922/3/4 943/3/4
f 942/2/4 921/2/4 943/2/4
f 922/2/4 923/2/4 944/2/4
f 943/3/4 922/3/4 944/3/4
f 923/3/4 924/3/4 945/3/4
f 944/2/4 923/2/4 945/2/4
f 924/2/4 896/2/4 946/2/4
f 945/3/4 924/3/4 946/3/4
f 896/4/4 832/4/4 947/4/4
f 946/2/4 896/2/4 947/2/4
f 897/2/4 898/2/4 948/2/4
f 947/4/4 832/4/4 948/4/4
f 832/2/4 897/2/4 948/2/4
f 898/2/4 899/2/4 948/2/4
f 948/2/4 899/2/4 949/2/4
f 899/4/4 900/4/4 950/4/4
f 949/2/4 899/2/4 950/2/4
f 900/2/4 925/2/4 951/2/4
f 950/4/4 900/4/4 951/4/4
f 925/3/4 926/3/4 952/3/4
f 951/2/4 925/2/4 952/2/4
f 926/1/4 927/1/4 953/1/4
f 952/3/4 926/3/4 953/3/4
f 904/1/4 930/1/4 954/1/4
f 930/4/4 931/4/4 954/4/4
f 931/3/4 932/3/4 955/3/4
f 954/4/4 931/4/4 955/4/4
f 932/2/4 933/2/4 956/2/4
f 955/3/4 932/3/4 956/3/4
f 933/2/4 909/2/4 957/2/4
f 956/2/4 933/2/4 957/2/4
f 910/1/4 934/1/4 958/1/4
f 934/4/4 935/4/4 959/4/4
f 958/1/4 934/1/4 959/1/4
f 935/2/4 936/2/4 960/2/4
f 959/4/4 935/4/4 960/4/4
f 936/3/4 937/3/4 961/3/4
f 960/2/4 936/2/4 961/2/4
f 938/3/4 939/3/4 962/3/4
f 939/2/4 940/2/4 962/2/4
f 940/3/4 941/3/4 963/3/4
f 962/2/4 940/2/4 963/2/4
f 941/3/4 919/3/4 964/3/4
f 963/3/4 941/3/4 964/3/4
f 919/2/4 942/2/4 965/2/4
f 964/3/4 919/3/4 965/3/4
f 942/1/4 943/1/4 966/1/4
f 965/2/4 942/2/4 966/2/4
f 945/3/4 946/3/4 967/3/4
f 944/3/4 945/3/4 967/3/4
f 943/3/4 944/3/4 967/3/4
f 946/1/4 947/1/4 968/1/4
f 967/3/4 946/3/4 968/3/4
f 950/3/4 951/3/4 969/3/4
f 951/2/4 952/2/4 969/2/4
f 952/2/4 953/2/4 969/2/4
f 953/1/4 927/1/4 970/1/4
f 969/2/4 953/2/4 970/2/4
f 929/2/4 904/2/4 971/2/4
f 927/3/4 928/3/4 971/3/4
f 928/3/4 929/3/4 971/3/4
f 904/1/4 954/1/4 972/1/4
f 971/2/4 904/2/4 972/2/4
f 955/3/4 956/3/4 973/3/4
f 972/1/4 954/1/4 973/1/4
f 954/3/4 955/3/4 973/3/4
f 956/3/4 957/3/4 973/3/4
f 973/3/4 957/3/4 974/3/4
f 974/3/4 957/3/4 975/3/4
f 959/3/4 960/3/4 976/3/4
f 961/3/4 937/3/4 976/3/4
f 960/3/4 961/3/4 976/3/4
f 937/1/4 914/1/4 977/1/4
f 976/3/4 937/3/4 977/3/4
f 914/4/4 938/4/4 978/4/4
f 938/3/4 962/3/4 978/3/4
f 962/1/4 963/1/4 979/1/4
f 978/3/4 962/3/4 979/3/4
f 964/2/4 965/2/4 980/2/4
f 963/4/4 964/4/4 980/4/4
f 965/3/4 966/3/4 981/3/4
f 980/2/4 965/2/4 981/2/4
f 966/1/4 943/1/4 982/1/4
f 981/3/4 966/3/4 982/3/4
f 943/3/4 967/3/4 983/3/4
f 982/1/4 943/1/4 983/1/4
f 967/2/4 968/2/4 984/2/4
f 983/3/4 967/3/4 984/3/4
f 984/2/4 968/2/4 985/2/4
f 968/1/4 947/1/4 986/1/4
f 985/2/4 968/2/4 986/2/4
f 947/4/4 948/4/4 987/4/4
f 986/1/4 947/1/4 987/1/4
f 948/3/4 949/3/4 988/3/4
f 987/4/4 948/4/4 988/4/4
f 950/3/4 969/3/4 989/3/4
f 969/3/4 970/3/4 989/3/4
f 989/3/4 970/3/4 990/3/4
f 970/1/4 927/1/4 991/1/4
f 990/3/4 970/3/4 991/3/4
f 971/3/4 972/3/4 992/3/4
f 991/1/4 927/1/4 992/1/4
f 927/3/4 971/3/4 992/3/4
f 972/2/4 973/2/4 993/2/4
f 992/3/4 972/3/4 993/3/4
f 973/3/4 974/3/4 994/3/4
f 993/2/4 973/2/4 994/2/4
f 974/2/4 975/2/4 995/2/4
f 994/3/4 974/3/4 995/3/4
f 995/2/4 975/2/4 996/2/4
f 958/2/4 959/2/4 997/2/4
f 959/3/4 976/3/4 998/3/4
f 997/2/4 959/2/4 998/2/4
f 998/3/4 976/3/4 999/3/4
f 976/2/4 977/2/4 1000/2/4
f 999/3/4 976/3/4 1000/3/4
f 977/1/4 914/1/4 1001/1/4
f 1000/2/4 977/2/4 1001/2/4
f 914/4/4 978/4/4 1002/4/4
f 1001/1/4 914/1/4 1002/1/4
f 978/2/4 979/2/4 1003/2/4
f 1002/4/4 978/4/4 1003/4/4
f 979/1/4 963/1/4 1004/1/4
f 1003/2/4 979/2/4 1004/2/4
f 963/4/4 980/4/4 1005/4/4
f 1004/1/4 963/1/4 1005/1/4
f 980/3/4 981/3/4 1006/3/4
f 1005/4/4 980/4/4 1006/4/4
f 982/2/4 983/2/4 1007/2/4
f 1006/3/4 981/3/4 1007/3/4
f 981/2/4 982/2/4 1007/2/4
f 1007/2/4 983/2/4 1008/2/4
f 983/4/4 984/4/4 1009/4/4
f 1008/2/4 983/2/4 1009/2/4
f 984/2/4 985/2/4 1010/2/4
f 1009/4/4 984/4/4 1010/4/4
f 985/3/4 986/3/4 1011/3/4
f 1010/2/4 985/2/4 1011/2/4
f 986/2/4 987/2/4 1012/2/4
f 1011/3/4 986/3/4 1012/3/4
f 987/3/4 988/3/4 1013/3/4
f 1012/2/4 987/2/4 1013/2/4
f 988/3/4 949/3/4 1014/3/4
f 1013/3/4 988/3/4 1014/3/4
f 949/1/4 950/1/4 1015/1/4
f 1014/3/4 949/3/4 1015/3/4
f 989/2/4 990/2/4 1016/2/4
f 950/3/4 989/3/4 1016/3/4
f 990/3/4 991/3/4 1017/3/4
f 1016/2/4 990/2/4 1017/2/4
f 991/2/4 992/2/4 1018/2/4
f 1017/3/4 991/3/4 1018/3/4
f 992/3/4 993/3/4 1019/3/4
f 1018/2/4 992/2/4 1019/2/4
f 1019/3/4 993/3/4 1020/3/4
f 1020/3/4 993/3/4 1021/3/4
f 993/1/4 994/1/4 1022/1/4
f 994/4/4 995/4/4 1022/4/4
f 995/3/4 996/3/4 1023/3/4
f 1022/4/4 995/4/4 1023/4/4
f 1023/3/4 996/3/4 1024/3/4
f 1001/1/4 1002/1/4 1025/1/4
f 1000/3/4 1001/3/4 1025/3/4
f 1002/3/4 1003/3/4 1026/3/4
f 1025/1/4 1002/1/4 1026/1/4
f 1004/2/4 1005/2/4 1027/2/4
f 1026/3/4 1003/3/4 1027/3/4
f 1003/2/4 1004/2/4 1027/2/4
f 1027/2/4 1005/2/4 1028/2/4
f 1005/3/4 1006/3/4 1029/3/4
f 1007/2/4 1008/2/4 1029/2/4
f 1006/2/4 1007/2/4 1029/2/4
f 1008/1/4 1009/1/4 1030/1/4
f 1029/2/4 1008/2/4 1030/2/4
f 1010/3/4 1011/3/4 1031/3/4
f 1011/3/4 1012/3/4 1031/3/4
f 1012/1/4 1013/1/4 1032/1/4
f 1031/3/4 1012/3/4 1032/3/4
f 1013/3/4 1014/3/4 1033/3/4
f 1032/1/4 1013/1/4 1033/1/4
f 1014/2/4 1015/2/4 1034/2/4
f 1015/1/4 950/1/4 1035/1/4
f 1034/2/4 1015/2/4 1035/2/4
f 1017/3/4 1018/3/4 1036/3/4
f 1016/3/4 1017/3/4 1036/3/4
f 1018/1/4 1019/1/4 1036/1/4
f 1019/4/4 1020/4/4 1037/4/4
f 1036/1/4 1019/1/4 1037/1/4
f 1020/2/4 1021/2/4 1038/2/4
f 1037/4/4 1020/4/4 1038/4/4
f 1021/3/4 993/3/4 1039/3/4
f 1038/2/4 1021/2/4 1039/2/4
f 1024/3/4 996/3/4 1040/3/4
f 1023/2/4 1024/2/4 1040/2/4
f 996/2/4 975/2/4 1041/2/4
f 1040/3/4 996/3/4 1041/3/4
f 1041/2/4 975/2/4 1042/2/4
f 999/2/4 1000/2/4 1043/2/4
f 998/3/4 999/3/4 1043/3/4
f 1000/3/4 1025/3/4 1044/3/4
f 1043/2/4 1000/2/4 1044/2/4
f 1025/2/4 1026/2/4 1045/2/4
f 1044/3/4 1025/3/4 1045/3/4
f 1027/3/4 1028/3/4 1046/3/4
f 1045/2/4 1026/2/4 1046/2/4
f 1026/3/4 1027/3/4 1046/3/4
f 1046/3/4 1028/3/4 1047/3/4
f 1028/2/4 1005/2/4 1048/2/4
f 1047/3/4 1028/3/4 1048/3/4
f 1005/3/4 1029/3/4 1049/3/4
f 1029/3/4 1030/3/4 1049/3/4
f 1030/1/4 1009/1/4 1050/1/4
f 1049/3/4 1030/3/4 1050/3/4
f 1009/4/4 1010/4/4 1051/4/4
f 1050/1/4 1009/1/4 1051/1/4
f 1010/3/4 1031/3/4 1052/3/4
f 1051/4/4 1010/4/4 1052/4/4
f 1031/2/4 1032/2/4 1053/2/4
f 1052/3/4 1031/3/4 1053/3/4
f 1032/2/4 1033/2/4 1053/2/4
f 1053/2/4 1033/2/4 1054/2/4
f 1033/3/4 1014/3/4 1055/3/4
f 1054/2/4 1033/2/4 1055/2/4
f 1014/2/4 1034/2/4 1056/2/4
f 1055/3/4 1014/3/4 1056/3/4
f 1034/3/4 1035/3/4 1057/3/4
f 1056/2/4 1034/2/4 1057/2/4
f 1016/3/4 1036/3/4 1058/3/4
f 1036/2/4 1037/2/4 1059/2/4
f 1058/3/4 1036/3/4 1059/3/4
f 1038/3/4 1039/3/4 1060/3/4
f 1037/4/4 1038/4/4 1060/4/4
f 1039/3/4 993/3/4 1061/3/4
f 1060/3/4 1039/3/4 1061/3/4
f 993/1/4 1022/1/4 1062/1/4
f 1061/3/4 993/3/4 1062/3/4
f 1022/3/4 1023/3/4 1063/3/4
f 1062/1/4 1022/1/4 1063/1/4
f 1041/3/4 1042/3/4 1064/3/4
f 1040/2/4 1041/2/4 1064/2/4
f 1064/3/4 1042/3/4 1065/3/4
f 1043/3/4 1044/3/4 1066/3/4
f 998/3/4 1043/3/4 1066/3/4
f 997/1/4 998/1/4 1066/1/4
f 1044/3/4 1045/3/4 1066/3/4
f 1066/3/4 1045/3/4 1067/3/4
f 1047/2/4 1048/2/4 1068/2/4
f 1048/2/4 1005/2/4 1069/2/4
f 1068/2/4 1048/2/4 1069/2/4
f 1005/3/4 1049/3/4 1070/3/4
f 1069/2/4 1005/2/4 1070/2/4
f 1049/2/4 1050/2/4 1071/2/4
f 1070/3/4 1049/3/4 1071/3/4
f 1050/1/4 1051/1/4 1072/1/4
f 1071/2/4 1050/2/4 1072/2/4
f 1051/3/4 1052/3/4 1073/3/4
f 1052/2/4 1053/2/4 1073/2/4
f 1053/3/4 1054/3/4 1074/3/4
f 1073/2/4 1053/2/4 1074/2/4
f 1054/1/4 1055/1/4 1075/1/4
f 1074/3/4 1054/3/4 1075/3/4
f 1055/4/4 1056/4/4 1076/4/4
f 1075/1/4 1055/1/4 1076/1/4
f 1056/3/4 1057/3/4 1077/3/4
f 1076/4/4 1056/4/4 1077/4/4
f 1035/1/4 950/1/4 1078/1/4
f 1077/3/4 1057/3/4 1078/3/4
f 1057/3/4 1035/3/4 1078/3/4
f 950/3/4 1016/3/4 1079/3/4
f 1078/1/4 950/1/4 1079/1/4
f 1016/3/4 1058/3/4 1079/3/4
f 1079/3/4 1058/3/4 1080/3/4
f 1063/3/4 1023/3/4 1081/3/4
f 1062/2/4 1063/2/4 1081/2/4
f 1064/2/4 1065/2/4 1082/2/4
f 1081/3/4 1023/3/4 1082/3/4
f 1023/2/4 1040/2/4 1082/2/4
f 1040/2/4 1064/2/4 1082/2/4
f 1082/2/4 1065/2/4 1083/2/4
f 1083/2/4 1065/2/4 1084/2/4
f 997/1/4 1066/1/4 1085/1/4
f 1066/4/4 1067/4/4 1085/4/4
f 1067/3/4 1045/3/4 1086/3/4
f 1085/4/4 1067/4/4 1086/4/4
f 1045/1/4 1046/1/4 1087/1/4
f 1086/3/4 1045/3/4 1087/3/4
f 1046/3/4 1047/3/4 1088/3/4
f 1087/1/4 1046/1/4 1088/1/4
f 1047/2/4 1068/2/4 1089/2/4
f 1088/3/4 1047/3/4 1089/3/4
f 1068/3/4 1069/3/4 1090/3/4
f 1089/2/4 1068/2/4 1090/2/4
f 1069/1/4 1070/1/4 1091/1/4
f 1090/3/4 1069/3/4 1091/3/4
f 1070/3/4 1071/3/4 1092/3/4
f 1091/1/4 1070/1/4 1092/1/4
f 1071/3/4 1072/3/4 1092/3/4
f 1092/3/4 1072/3/4 1093/3/4
f 1093/3/4 1072/3/4 1094/3/4
f 1072/1/4 1051/1/4 1095/1/4
f 1094/3/4 1072/3/4 1095/3/4
f 1073/3/4 1074/3/4 1096/3/4
f 1095/1/4 1051/1/4 1096/1/4
f 1051/3/4 1073/3/4 1096/3/4
f 1096/3/4 1074/3/4 1097/3/4
f 1074/2/4 1075/2/4 1098/2/4
f 1097/3/4 1074/3/4 1098/3/4
f 1077/2/4 1078/2/4 1099/2/4
f 1078/2/4 1079/2/4 1099/2/4
f 1099/2/4 1079/2/4 1100/2/4
f 1079/4/4 1080/4/4 1101/4/4
f 1100/2/4 1079/2/4 1101/2/4
f 1080/3/4 1058/3/4 1102/3/4
f 1101/4/4 1080/4/4 1102/4/4
f 1058/2/4 1059/2/4 1103/2/4
f 1102/3/4 1058/3/4 1103/3/4
f 1059/2/4 1037/2/4 1104/2/4
f 1103/2/4 1059/2/4 1104/2/4
f 1037/4/4 1060/4/4 1105/4/4
f 1104/2/4 1037/2/4 1105/2/4
f 1060/2/4 1061/2/4 1106/2/4
f 1105/4/4 1060/4/4 1106/4/4
f 1061/3/4 1062/3/4 1107/3/4
f 1106/2/4 1061/2/4 1107/2/4
f 1062/2/4 1081/2/4 1108/2/4
f 1107/3/4 1062/3/4 1108/3/4
f 1081/4/4 1082/4/4 1109/4/4
f 1108/2/4 1081/2/4 1109/2/4
f 1082/2/4 1083/2/4 1110/2/4
f 1109/4/4 1082/4/4 1110/4/4
f 1083/3/4 1084/3/4 1111/3/4
f 1110/2/4 1083/2/4 1111/2/4
f 1111/3/4 1084/3/4 1112/3/4
f 997/1/4 1085/1/4 1113/1/4
f 1085/3/4 1086/3/4 1114/3/4
f 1113/1/4 1085/1/4 1114/1/4
f 1087/2/4 1088/2/4 1115/2/4
f 1114/3/4 1086/3/4 1115/3/4
f 1086/2/4 1087/2/4 1115/2/4
f 1115/2/4 1088/2/4 1116/2/4
f 1116/2/4 1088/2/4 1117/2/4
f 1088/4/4 1089/4/4 1118/4/4
f 1117/2/4 1088/2/4 1118/2/4
f 1089/3/4 1090/3/4 1119/3/4
f 1118/4/4 1089/4/4 1119/4/4
f 1090/2/4 1091/2/4 1120/2/4
f 1119/3/4 1090/3/4 1120/3/4
f 1091/1/4 1092/1/4 1121/1/4
f 1120/2/4 1091/2/4 1121/2/4
f 1092/4/4 1093/4/4 1122/4/4
f 1121/1/4 1092/1/4 1122/1/4
f 1093/3/4 1094/3/4 1123/3/4
f 1122/4/4 1093/4/4 1123/4/4
f 1094/2/4 1095/2/4 1124/2/4
f 1123/3/4 1094/3/4 1124/3/4
f 1095/1/4 1096/1/4 1125/1/4
f 1124/2/4 1095/2/4 1125/2/4
f 1096/4/4 1097/4/4 1126/4/4
f 1125/1/4 1096/1/4 1126/1/4
f 1097/2/4 1098/2/4 1127/2/4
f 1126/4/4 1097/4/4 1127/4/4
f 1076/3/4 1077/3/4 1128/3/4
f 1077/2/4 1099/2/4 1128/2/4
f 1099/3/4 1100/3/4 1129/3/4
f 1128/2/4 1099/2/4 1129/2/4
f 1102/2/4 1103/2/4 1130/2/4
f 1101/4/4 1102/4/4 1130/4/4
f 1103/3/4 1104/3/4 1131/3/4
f 1130/2/4 1103/2/4 1131/2/4
f 1104/2/4 1105/2/4 1132/2/4
f 1131/3/4 1104/3/4 1132/3/4
f 1105/3/4 1106/3/4 1133/3/4
f 1132/2/4 1105/2/4 1133/2/4
f 1106/3/4 1107/3/4 1133/3/4
f 1133/3/4 1107/3/4 1134/3/4
f 1108/2/4 1109/2/4 1135/2/4
f 1134/3/4 1107/3/4 1135/3/4
f 1107/2/4 1108/2/4 1135/2/4
f 1135/2/4 1109/2/4 1136/2/4
f 1109/3/4 1110/3/4 1137/3/4
f 1136/2/4 1109/2/4 1137/2/4
f 1110/3/4 1111/3/4 1137/3/4
f 1137/3/4 1111/3/4 1138/3/4
f 1111/2/4 1112/2/4 1139/2/4
f 1138/3/4 1111/3/4 1139/3/4
f 1139/2/4 1112/2/4 1140/2/4
f 1113/2/4 1114/2/4 1141/2/4
f 1114/4/4 1115/4/4 1142/4/4
f 1141/2/4 1114/2/4 1142/2/4
f 1115/2/4 1116/2/4 1143/2/4
f 1142/4/4 1115/4/4 1143/4/4
f 1116/3/4 1117/3/4 1144/3/4
f 1143/2/4 1116/2/4 1144/2/4
f 1117/1/4 1118/1/4 1145/1/4
f 1144/3/4 1117/3/4 1145/3/4
f 1118/3/4 1119/3/4 1146/3/4
f 1145/1/4 1118/1/4 1146/1/4
f 1119/2/4 1120/2/4 1147/2/4
f 1146/3/4 1119/3/4 1147/3/4
f 1120/3/4 1121/3/4 1148/3/4
f 1147/2/4 1120/2/4 1148/2/4
f 1122/4/4 1123/4/4 1149/4/4
f 1123/2/4 1124/2/4 1149/2/4
f 1124/3/4 1125/3/4 1150/3/4
f 1149/2/4 1124/2/4 1150/2/4
f 1098/2/4 1075/2/4 1151/2/4
f 1127/2/4 1098/2/4 1151/2/4
f 1075/1/4 1076/1/4 1151/1/4
f 1128/3/4 1129/3/4 1152/3/4
f 1151/1/4 1076/1/4 1152/1/4
f 1076/3/4 1128/3/4 1152/3/4
f 1129/3/4 1100/3/4 1153/3/4
f 1152/3/4 1129/3/4 1153/3/4
f 1100/1/4 1101/1/4 1154/1/4
f 1153/3/4 1100/3/4 1154/3/4
f 1101/4/4 1130/4/4 1155/4/4
f 1154/1/4 1101/1/4 1155/1/4
f 1131/3/4 1132/3/4 1156/3/4
f 1155/4/4 1130/4/4 1156/4/4
f 1130/3/4 1131/3/4 1156/3/4
f 1156/3/4 1132/3/4 1157/3/4
f 1132/1/4 1133/1/4 1158/1/4
f 1157/3/4 1132/3/4 1158/3/4
f 1133/3/4 1134/3/4 1159/3/4
f 1158/1/4 1133/1/4 1159/1/4
f 1134/2/4 1135/2/4 1160/2/4
f 1159/3/4 1134/3/4 1160/3/4
f 1135/3/4 1136/3/4 1161/3/4
f 1160/2/4 1135/2/4 1161/2/4
f 1136/2/4 1137/2/4 1162/2/4
f 1161/3/4 1136/3/4 1162/3/4
f 1137/4/4 1138/4/4 1163/4/4
f 1162/2/4 1137/2/4 1163/2/4
f 1139/3/4 1140/3/4 1164/3/4
f 1163/4/4 1138/4/4 1164/4/4
f 1138/3/4 1139/3/4 1164/3/4
f 1164/3/4 1140/3/4 1165/3/4
f 1165/3/4 1140/3/4 1166/3/4
f 1142/4/4 1143/4/4 1167/4/4
f 1141/1/4 1142/1/4 1167/1/4
f 1144/3/4 1145/3/4 1168/3/4
f 1167/4/4 1143/4/4 1168/4/4
f 1143/3/4 1144/3/4 1168/3/4
f 1145/2/4 1146/2/4 1169/2/4
f 1168/3/4 1145/3/4 1169/3/4
f 1146/3/4 1147/3/4 1170/3/4
f 1169/2/4 1146/2/4 1170/2/4
f 1147/3/4 1148/3/4 1170/3/4
f 1170/3/4 1148/3/4 1171/3/4
f 1148/3/4 1121/3/4 1172/3/4
f 1171/3/4 1148/3/4 1172/3/4
f 1121/2/4 1122/2/4 1172/2/4
f 1122/4/4 1149/4/4 1173/4/4
f 1172/2/4 1122/2/4 1173/2/4
f 1149/3/4 1150/3/4 1174/3/4
f 1173/4/4 1149/4/4 1174/4/4
f 1150/3/4 1125/3/4 1175/3/4
f 1174/3/4 1150/3/4 1175/3/4
f 1125/2/4 1126/2/4 1175/2/4
f 1126/3/4 1127/3/4 1176/3/4
f 1175/2/4 1126/2/4 1176/2/4
f 1151/2/4 1152/2/4 1177/2/4
f 1176/3/4 1127/3/4 1177/3/4
f 1127/2/4 1151/2/4 1177/2/4
f 1177/2/4 1152/2/4 1178/2/4
f 1152/3/4 1153/3/4 1179/3/4
f 1178/2/4 1152/2/4 1179/2/4
f 1179/3/4 1153/3/4 1180/3/4
f 1154/2/4 1155/2/4 1181/2/4
f 1180/3/4 1153/3/4 1181/3/4
f 1153/2/4 1154/2/4 1181/2/4
f 1155/3/4 1156/3/4 1182/3/4
f 1156/2/4 1157/2/4 1182/2/4
f 1157/3/4 1158/3/4 1183/3/4
f 1182/2/4 1157/2/4 1183/2/4
f 1158/2/4 1159/2/4 1184/2/4
f 1183/3/4 1158/3/4 1184/3/4
f 1160/3/4 1161/3/4 1185/3/4
f 1184/2/4 1159/2/4 1185/2/4
f 1159/3/4 1160/3/4 1185/3/4
f 1161/2/4 1162/2/4 1186/2/4
f 1185/3/4 1161/3/4 1186/3/4
f 1162/2/4 1163/2/4 1186/2/4
f 1186/2/4 1163/2/4 1187/2/4
f 1164/3/4 1165/3/4 1188/3/4
f 1187/2/4 1163/2/4 1188/2/4
f 1163/3/4 1164/3/4 1188/3/4
f 1188/3/4 1165/3/4 1189/3/4
f 1189/3/4 1165/3/4 1190/3/4
f 1165/2/4 1166/2/4 1191/2/4
f 1190/3/4 1165/3/4 1191/3/4
f 1191/2/4 1166/2/4 1192/2/4
f 1141/1/4 1167/1/4 1193/1/4
f 1168/3/4 1169/3/4 1193/3/4
f 1167/3/4 1168/3/4 1193/3/4
f 1193/3/4 1169/3/4 1194/3/4
f 1194/3/4 1169/3/4 1195/3/4
f 1169/1/4 1170/1/4 1196/1/4
f 1195/3/4 1169/3/4 1196/3/4
f 1171/2/4 1172/2/4 1197/2/4
f 1172/1/4 1173/1/4 1198/1/4
f 1197/2/4 1172/2/4 1198/2/4
f 1173/3/4 1174/3/4 1199/3/4
f 1174/3/4 1175/3/4 1199/3/4
f 1175/1/4 1176/1/4 1200/1/4
f 1199/3/4 1175/3/4 1200/3/4
f 1177/3/4 1178/3/4 1201/3/4
f 1176/4/4 1177/4/4 1201/4/4
f 1178/2/4 1179/2/4 1202/2/4
f 1201/3/4 1178/3/4 1202/3/4
f 1181/2/4 1155/2/4 1203/2/4
f 1180/2/4 1181/2/4 1203/2/4
f 1155/3/4 1182/3/4 1204/3/4
f 1203/2/4 1155/2/4 1204/2/4
f 1182/3/4 1183/3/4 1204/3/4
f 1204/3/4 1183/3/4 1205/3/4
f 1183/2/4 1184/2/4 1206/2/4
f 1205/3/4 1183/3/4 1206/3/4
f 1184/1/4 1185/1/4 1207/1/4
f 1206/2/4 1184/2/4 1207/2/4
f 1186/3/4 1187/3/4 1208/3/4
f 1207/1/4 1185/1/4 1208/1/4
f 1185/3/4 1186/3/4 1208/3/4
f 1208/3/4 1187/3/4 1209/3/4
f 1209/3/4 1187/3/4 1210/3/4
f 1187/1/4 1188/1/4 1211/1/4
f 1210/3/4 1187/3/4 1211/3/4
f 1188/3/4 1189/3/4 1212/3/4
f 1211/1/4 1188/1/4 1212/1/4
f 1189/2/4 1190/2/4 1213/2/4
f 1212/3/4 1189/3/4 1213/3/4
f 1191/3/4 1192/3/4 1214/3/4
f 1213/2/4 1190/2/4 1214/2/4
f 1190/3/4 1191/3/4 1214/3/4
f 1214/3/4 1192/3/4 1215/3/4
f 1215/3/4 1192/3/4 1216/3/4
f 1141/1/4 1193/1/4 1217/1/4
f 1193/4/4 1194/4/4 1218/4/4
f 1217/1/4 1193/1/4 1218/1/4
f 1194/3/4 1195/3/4 1219/3/4
f 1218/4/4 1194/4/4 1219/4/4
f 1195/2/4 1196/2/4 1220/2/4
f 1219/3/4 1195/3/4 1220/3/4
f 1170/4/4 1171/4/4 1221/4/4
f 1171/2/4 1197/2/4 1221/2/4
f 1197/3/4 1198/3/4 1222/3/4
f 1221/2/4 1197/2/4 1222/2/4
f 1198/1/4 1173/1/4 1223/1/4
f 1222/3/4 1198/3/4 1223/3/4
f 1173/3/4 1199/3/4 1224/3/4
f 1223/1/4 1173/1/4 1224/1/4
f 1199/2/4 1200/2/4 1225/2/4
f 1224/3/4 1199/3/4 1225/3/4
f 1225/2/4 1200/2/4 1226/2/4
f 1200/1/4 1176/1/4 1227/1/4
f 1226/2/4 1200/2/4 1227/2/4
f 1179/4/4 1180/4/4 1228/4/4
f 1202/2/4 1179/2/4 1228/2/4
f 1201/2/4 1202/2/4 1228/2/4
f 1180/2/4 1203/2/4 1229/2/4
f 1228/4/4 1180/4/4 1229/4/4
f 1203/1/4 1204/1/4 1230/1/4
f 1229/2/4 1203/2/4 1230/2/4
f 1204/4/4 1205/4/4 1231/4/4
f 1230/1/4 1204/1/4 1231/1/4
f 1205/2/4 1206/2/4 1232/2/4
f 1231/4/4 1205/4/4 1232/4/4
f 1206/2/4 1207/2/4 1232/2/4
f 1207/2/4 1208/2/4 1232/2/4
f 1232/2/4 1208/2/4 1233/2/4
f 1208/3/4 1209/3/4 1234/3/4
f 1233/2/4 1208/2/4 1234/2/4
f 1209/2/4 1210/2/4 1235/2/4
f 1234/3/4 1209/3/4 1235/3/4
f 1210/3/4 1211/3/4 1236/3/4
f 1235/2/4 1210/2/4 1236/2/4
f 1211/2/4 1212/2/4 1237/2/4
f 1236/3/4 1211/3/4 1237/3/4
f 1212/3/4 1213/3/4 1238/3/4
f 1237/2/4 1212/2/4 1238/2/4
f 1214/3/4 1215/3/4 1238/3/4
f 1213/3/4 1214/3/4 1238/3/4
f 1238/3/4 1215/3/4 1239/3/4
f 1239/3/4 1215/3/4 1240/3/4
f 1217/2/4 1218/2/4 1241/2/4
f 1218/4/4 1219/4/4 1241/4/4
f 1219/2/4 1220/2/4 1242/2/4
f 1241/4/4 1219/4/4 1242/4/4
f 1220/2/4 1196/2/4 1243/2/4
f 1242/2/4 1220/2/4 1243/2/4
f 1196/1/4 1170/1/4 1243/1/4
f 1170/4/4 1221/4/4 1244/4/4
f 1243/1/4 1170/1/4 1244/1/4
f 1221/3/4 1222/3/4 1245/3/4
f 1244/4/4 1221/4/4 1245/4/4
f 1222/2/4 1223/2/4 1246/2/4
f 1245/3/4 1222/3/4 1246/3/4
f 1223/1/4 1224/1/4 1247/1/4
f 1246/2/4 1223/2/4 1247/2/4
f 1224/4/4 1225/4/4 1248/4/4
f 1247/1/4 1224/1/4 1248/1/4
f 1225/2/4 1226/2/4 1249/2/4
f 1248/4/4 1225/4/4 1249/4/4
f 1226/3/4 1227/3/4 1250/3/4
f 1249/2/4 1226/2/4 1250/2/4
f 1227/1/4 1176/1/4 1251/1/4
f 1250/3/4 1227/3/4 1251/3/4
f 1176/4/4 1201/4/4 1252/4/4
f 1251/1/4 1176/1/4 1252/1/4
f 1201/2/4 1228/2/4 1253/2/4
f 1252/4/4 1201/4/4 1253/4/4
f 1253/2/4 1228/2/4 1254/2/4
f 1228/3/4 1229/3/4 1255/3/4
f 1254/2/4 1228/2/4 1255/2/4
f 1230/2/4 1231/2/4 1256/2/4
f 1255/3/4 1229/3/4 1256/3/4
f 1229/2/4 1230/2/4 1256/2/4
f 1256/2/4 1231/2/4 1257/2/4
f 1231/3/4 1232/3/4 1258/3/4
f 1257/2/4 1231/2/4 1258/2/4
f 1232/2/4 1233/2/4 1259/2/4
f 1258/3/4 1232/3/4 1259/3/4
f 1233/1/4 1234/1/4 1260/1/4
f 1259/2/4 1233/2/4 1260/2/4
f 1235/3/4 1236/3/4 1261/3/4
f 1260/1/4 1234/1/4 1261/1/4
f 1236/3/4 1237/3/4 1261/3/4
f 1234/3/4 1235/3/4 1261/3/4
f 1261/3/4 1237/3/4 1262/3/4
f 1237/1/4 1238/1/4 1263/1/4
f 1262/3/4 1237/3/4 1263/3/4
f 1239/2/4 1240/2/4 1264/2/4
f 1238/4/4 1239/4/4 1264/4/4
f 1240/3/4 1215/3/4 1265/3/4
f 1264/2/4 1240/2/4 1265/2/4
f 1215/2/4 1216/2/4 1266/2/4
f 1265/3/4 1215/3/4 1266/3/4
f 1266/2/4 1216/2/4 1267/2/4
f 1217/2/4 1241/2/4 1268/2/4
f 1241/3/4 1242/3/4 1269/3/4
f 1268/2/4 1241/2/4 1269/2/4
f 1242/3/4 1243/3/4 1269/3/4
f 1269/3/4 1243/3/4 1270/3/4
f 1270/3/4 1243/3/4 1271/3/4
f 1243/2/4 1244/2/4 1272/2/4
f 1271/3/4 1243/3/4 1272/3/4
f 1244/3/4 1245/3/4 1273/3/4
f 1272/2/4 1244/2/4 1273/2/4
f 1245/3/4 1246/3/4 1273/3/4
f 1246/3/4 1247/3/4 1273/3/4
f 1273/3/4 1247/3/4 1274/3/4
f 1274/3/4 1247/3/4 1275/3/4
f 1247/1/4 1248/1/4 1276/1/4
f 1275/3/4 1247/3/4 1276/3/4
f 1249/3/4 1250/3/4 1277/3/4
f 1276/1/4 1248/1/4 1277/1/4
f 1250/3/4 1251/3/4 1277/3/4
f 1248/3/4 1249/3/4 1277/3/4
f 1277/3/4 1251/3/4 1278/3/4
f 1251/2/4 1252/2/4 1279/2/4
f 1278/3/4 1251/3/4 1279/3/4
f 1252/3/4 1253/3/4 1280/3/4
f 1279/2/4 1252/2/4 1280/2/4
f 1253/3/4 1254/3/4 1280/3/4
f 1280/3/4 1254/3/4 1281/3/4
f 1281/3/4 1254/3/4 1282/3/4
f 1256/2/4 1257/2/4 1283/2/4
f 1257/1/4 1258/1/4 1284/1/4
f 1283/2/4 1257/2/4 1284/2/4
f 1259/2/4 1260/2/4 1285/2/4
f 1258/4/4 1259/4/4 1285/4/4
f 1260/2/4 1261/2/4 1285/2/4
f 1285/2/4 1261/2/4 1286/2/4
f 1261/3/4 1262/3/4 1287/3/4
f 1286/2/4 1261/2/4 1287/2/4
f 1287/3/4 1262/3/4 1288/3/4
f 1238/4/4 1264/4/4 1289/4/4
f 1263/1/4 1238/1/4 1289/1/4
f 1264/3/4 1265/3/4 1290/3/4
f 1289/4/4 1264/4/4 1290/4/4
f 1265/2/4 1266/2/4 1291/2/4
f 1290/3/4 1265/3/4 1291/3/4
f 1273/4/4 1274/4/4 1292/4/4
f 1272/1/4 1273/1/4 1292/1/4
f 1274/2/4 1275/2/4 1293/2/4
f 1292/4/4 1274/4/4 1293/4/4
f 1275/3/4 1276/3/4 1294/3/4
f 1293/2/4 1275/2/4 1294/2/4
f 1276/2/4 1277/2/4 1295/2/4
f 1294/3/4 1276/3/4 1295/3/4
f 1277/3/4 1278/3/4 1296/3/4
f 1295/2/4 1277/2/4 1296/2/4
f 1296/3/4 1278/3/4 1297/3/4
f 1281/2/4 1282/2/4 1298/2/4
f 1280/3/4 1281/3/4 1298/3/4
f 1282/3/4 1254/3/4 1299/3/4
f 1298/2/4 1282/2/4 1299/2/4
f 1254/1/4 1255/1/4 1300/1/4
f 1299/3/4 1254/3/4 1300/3/4
f 1255/4/4 1256/4/4 1301/4/4
f 1300/1/4 1255/1/4 1301/1/4
f 1256/2/4 1283/2/4 1302/2/4
f 1301/4/4 1256/4/4 1302/4/4
f 1283/3/4 1284/3/4 1303/3/4
f 1302/2/4 1283/2/4 1303/2/4
f 1284/1/4 1258/1/4 1304/1/4
f 1303/3/4 1284/3/4 1304/3/4
f 1285/3/4 1286/3/4 1305/3/4
f 1286/2/4 1287/2/4 1306/2/4
f 1305/3/4 1286/3/4 1306/3/4
f 1288/3/4 1262/3/4 1307/3/4
f 1287/4/4 1288/4/4 1307/4/4
f 1262/2/4 1263/2/4 1308/2/4
f 1307/3/4 1262/3/4 1308/3/4
f 1263/1/4 1289/1/4 1309/1/4
f 1308/2/4 1263/2/4 1309/2/4
f 1289/3/4 1290/3/4 1310/3/4
f 1309/1/4 1289/1/4 1310/1/4
f 1290/2/4 1291/2/4 1311/2/4
f 1310/3/4 1290/3/4 1311/3/4
f 1269/3/4 1270/3/4 1312/3/4
f 1268/1/4 1269/1/4 1312/1/4
f 1270/2/4 1271/2/4 1313/2/4
f 1312/3/4 1270/3/4 1313/3/4
f 1271/3/4 1272/3/4 1314/3/4
f 1313/2/4 1271/2/4 1314/2/4
f 1272/1/4 1292/1/4 1315/1/4
f 1314/3/4 1272/3/4 1315/3/4
f 1292/3/4 1293/3/4 1316/3/4
f 1293/3/4 1294/3/4 1316/3/4
f 1294/2/4 1295/2/4 1317/2/4
f 1316/3/4 1294/3/4 1317/3/4
f 1295/1/4 1296/1/4 1318/1/4
f 1317/2/4 1295/2/4 1318/2/4
f 1296/4/4 1297/4/4 1319/4/4
f 1318/1/4 1296/1/4 1319/1/4
f 1298/3/4 1299/3/4 1320/3/4
f 1280/3/4 1298/3/4 1320/3/4
f 1279/1/4 1280/1/4 1320/1/4
f 1320/3/4 1299/3/4 1321/3/4
f 1299/2/4 1300/2/4 1322/2/4
f 1321/3/4 1299/3/4 1322/3/4
f 1300/2/4 1301/2/4 1322/2/4
f 1322/2/4 1301/2/4 1323/2/4
f 1302/3/4 1303/3/4 1324/3/4
f 1301/3/4 1302/3/4 1324/3/4
f 1303/2/4 1304/2/4 1325/2/4
f 1324/3/4 1303/3/4 1325/3/4
f 1258/4/4 1285/4/4 1326/4/4
f 1285/3/4 1305/3/4 1326/3/4
f 1305/2/4 1306/2/4 1327/2/4
f 1326/3/4 1305/3/4 1327/3/4
f 1306/2/4 1287/2/4 1328/2/4
f 1327/2/4 1306/2/4 1328/2/4
f 1287/4/4 1307/4/4 1329/4/4
f 1328/2/4 1287/2/4 1329/2/4
f 1307/2/4 1308/2/4 1330/2/4
f 1329/4/4 1307/4/4 1330/4/4
f 1309/2/4 1310/2/4 1330/2/4
f 1308/2/4 1309/2/4 1330/2/4
f 1291/2/4 1266/2/4 1331/2/4
f 1311/2/4 1291/2/4 1331/2/4
f 1266/3/4 1267/3/4 1332/3/4
f 1331/2/4 1266/2/4 1332/2/4
f 1332/3/4 1267/3/4 1333/3/4
f 1318/2/4 1319/2/4 1334/2/4
f 1316/2/4 1317/2/4 1334/2/4
f 1317/2/4 1318/2/4 1334/2/4
f 1334/2/4 1319/2/4 1335/2/4
f 1319/4/4 1297/4/4 1336/4/4
f 1335/2/4 1319/2/4 1336/2/4
f 1297/3/4 1278/3/4 1337/3/4
f 1336/4/4 1297/4/4 1337/4/4
f 1278/2/4 1279/2/4 1338/2/4
f 1337/3/4 1278/3/4 1338/3/4
f 1279/1/4 1320/1/4 1339/1/4
f 1338/2/4 1279/2/4 1339/2/4
f 1320/4/4 1321/4/4 1340/4/4
f 1339/1/4 1320/1/4 1340/1/4
f 1321/3/4 1322/3/4 1341/3/4
f 1340/4/4 1321/4/4 1341/4/4
f 1322/3/4 1323/3/4 1341/3/4
f 1341/3/4 1323/3/4 1342/3/4
f 1323/2/4 1301/2/4 1343/2/4
f 1342/3/4 1323/3/4 1343/3/4
f 1301/3/4 1324/3/4 1344/3/4
f 1343/2/4 1301/2/4 1344/2/4
f 1325/2/4 1304/2/4 1345/2/4
f 1324/2/4 1325/2/4 1345/2/4
f 1304/1/4 1258/1/4 1346/1/4
f 1345/2/4 1304/2/4 1346/2/4
f 1258/4/4 1326/4/4 1347/4/4
f 1346/1/4 1258/1/4 1347/1/4
f 1326/2/4 1327/2/4 1348/2/4
f 1347/4/4 1326/4/4 1348/4/4
f 1328/1/4 1329/1/4 1349/1/4
f 1327/3/4 1328/3/4 1349/3/4
f 1329/3/4 1330/3/4 1350/3/4
f 1349/1/4 1329/1/4 1350/1/4
f 1330/2/4 1310/2/4 1351/2/4
f 1350/3/4 1330/3/4 1351/3/4
f 1351/2/4 1310/2/4 1352/2/4
f 1311/2/4 1331/2/4 1353/2/4
f 1310/4/4 1311/4/4 1353/4/4
f 1331/3/4 1332/3/4 1354/3/4
f 1353/2/4 1331/2/4 1354/2/4
f 1332/2/4 1333/2/4 1355/2/4
f 1354/3/4 1332/3/4 1355/3/4
f 1268/1/4 1312/1/4 1356/1/4
f 1312/4/4 1313/4/4 1356/4/4
f 1313/2/4 1314/2/4 1357/2/4
f 1356/4/4 1313/4/4 1357/4/4
f 1314/2/4 1315/2/4 1357/2/4
f 1357/2/4 1315/2/4 1358/2/4
f 1315/1/4 1292/1/4 1359/1/4
f 1358/2/4 1315/2/4 1359/2/4
f 1334/3/4 1335/3/4 1360/3/4
f 1335/1/4 1336/1/4 1360/1/4
f 1338/3/4 1339/3/4 1361/3/4
f 1360/1/4 1336/1/4 1361/1/4
f 1336/3/4 1337/3/4 1361/3/4
f 1337/3/4 1338/3/4 1361/3/4
f 1361/3/4 1339/3/4 1362/3/4
f 1362/3/4 1339/3/4 1363/3/4
f 1339/1/4 1340/1/4 1364/1/4
f 1363/3/4 1339/3/4 1364/3/4
f 1341/2/4 1342/2/4 1365/2/4
f 1340/3/4 1341/3/4 1365/3/4
f 1342/3/4 1343/3/4 1366/3/4
f 1365/2/4 1342/2/4 1366/2/4
f 1343/1/4 1344/1/4 1367/1/4
f 1366/3/4 1343/3/4 1367/3/4
f 1344/3/4 1324/3/4 1368/3/4
f 1367/1/4 1344/1/4 1368/1/4
f 1324/2/4 1345/2/4 1369/2/4
f 1368/3/4 1324/3/4 1369/3/4
f 1345/3/4 1346/3/4 1370/3/4
f 1369/2/4 1345/2/4 1370/2/4
f 1346/1/4 1347/1/4 1371/1/4
f 1370/3/4 1346/3/4 1371/3/4
f 1348/2/4 1327/2/4 1372/2/4
f 1327/3/4 1349/3/4 1372/3/4
f 1349/2/4 1350/2/4 1373/2/4
f 1372/3/4 1349/3/4 1373/3/4
f 1351/3/4 1352/3/4 1374/3/4
f 1350/3/4 1351/3/4 1374/3/4
f 1352/2/4 1310/2/4 1375/2/4
f 1374/3/4 1352/3/4 1375/3/4
f 1375/2/4 1310/2/4 1376/2/4
f 1310/4/4 1353/4/4 1377/4/4
f 1376/2/4 1310/2/4 1377/2/4
f 1353/3/4 1354/3/4 1378/3/4
f 1377/4/4 1353/4/4 1378/4/4
f 1354/2/4 1355/2/4 1379/2/4
f 1378/3/4 1354/3/4 1379/3/4
f 1355/2/4 1333/2/4 1380/2/4
f 1379/2/4 1355/2/4 1380/2/4
f 1268/1/4 1356/1/4 1381/1/4
f 1356/3/4 1357/3/4 1382/3/4
f 1381/1/4 1356/1/4 1382/1/4
f 1357/2/4 1358/2/4 1383/2/4
f 1358/3/4 1359/3/4 1383/3/4
f 1359/1/4 1292/1/4 1384/1/4
f 1383/3/4 1359/3/4 1384/3/4
f 1292/3/4 1316/3/4 1385/3/4
f 1384/1/4 1292/1/4 1385/1/4
f 1334/3/4 1360/3/4 1386/3/4
f 1360/2/4 1361/2/4 1386/2/4
f 1361/4/4 1362/4/4 1387/4/4
f 1386/2/4 1361/2/4 1387/2/4
f 1362/3/4 1363/3/4 1388/3/4
f 1387/4/4 1362/4/4 1388/4/4
f 1363/2/4 1364/2/4 1389/2/4
f 1388/3/4 1363/3/4 1389/3/4
f 1340/3/4 1365/3/4 1390/3/4
f 1366/3/4 1367/3/4 1390/3/4
f 1365/3/4 1366/3/4 1390/3/4
f 1390/3/4 1367/3/4 1391/3/4
f 1367/2/4 1368/2/4 1392/2/4
f 1391/3/4 1367/3/4 1392/3/4
f 1368/4/4 1369/4/4 1393/4/4
f 1392/2/4 1368/2/4 1393/2/4
f 1369/2/4 1370/2/4 1394/2/4
f 1393/4/4 1369/4/4 1394/4/4
f 1370/2/4 1371/2/4 1394/2/4
f 1371/1/4 1347/1/4 1395/1/4
f 1394/2/4 1371/2/4 1395/2/4
f 1348/2/4 1372/2/4 1396/2/4
f 1372/2/4 1373/2/4 1396/2/4
f 1373/2/4 1350/2/4 1397/2/4
f 1396/2/4 1373/2/4 1397/2/4
f 1350/3/4 1374/3/4 1398/3/4
f 1397/2/4 1350/2/4 1398/2/4
f 1375/3/4 1376/3/4 1399/3/4
f 1374/2/4 1375/2/4 1399/2/4
f 1376/1/4 1377/1/4 1400/1/4
f 1399/3/4 1376/3/4 1400/3/4
f 1378/3/4 1379/3/4 1401/3/4
f 1400/1/4 1377/1/4 1401/1/4
f 1377/3/4 1378/3/4 1401/3/4
f 1379/3/4 1380/3/4 1401/3/4
f 1401/3/4 1380/3/4 1402/3/4
f 1402/3/4 1380/3/4 1403/3/4
f 1381/2/4 1382/2/4 1404/2/4
f 1382/3/4 1357/3/4 1405/3/4
f 1404/2/4 1382/2/4 1405/2/4
f 1357/2/4 1383/2/4 1406/2/4
f 1383/2/4 1384/2/4 1406/2/4
f 1384/2/4 1385/2/4 1406/2/4
f 1406/2/4 1385/2/4 1407/2/4
f 1316/2/4 1334/2/4 1408/2/4
f 1334/3/4 1386/3/4 1408/3/4
f 1386/1/4 1387/1/4 1409/1/4
f 1408/3/4 1386/3/4 1409/3/4
f 1387/4/4 1388/4/4 1410/4/4
f 1409/1/4 1387/1/4 1410/1/4
f 1364/1/4 1340/1/4 1411/1/4
f 1389/2/4 1364/2/4 1411/2/4
f 1388/2/4 1389/2/4 1411/2/4
f 1340/3/4 1390/3/4 1412/3/4
f 1411/1/4 1340/1/4 1412/1/4
f 1390/2/4 1391/2/4 1413/2/4
f 1412/3/4 1390/3/4 1413/3/4
f 1391/3/4 1392/3/4 1414/3/4
f 1413/2/4 1391/2/4 1414/2/4
f 1393/3/4 1394/3/4 1415/3/4
f 1394/3/4 1395/3/4 1415/3/4
f 1395/1/4 1347/1/4 1416/1/4
f 1415/3/4 1395/3/4 1416/3/4
f 1347/3/4 1348/3/4 1417/3/4
f 1416/1/4 1347/1/4 1417/1/4
f 1348/2/4 1396/2/4 1418/2/4
f 1417/3/4 1348/3/4 1418/3/4
f 1396/3/4 1397/3/4 1419/3/4
f 1418/2/4 1396/2/4 1419/2/4
f 1397/1/4 1398/1/4 1420/1/4
f 1419/3/4 1397/3/4 1420/3/4
f 1398/3/4 1374/3/4 1421/3/4
f 1420/1/4 1398/1/4 1421/1/4
f 1399/2/4 1400/2/4 1422/2/4
f 1374/2/4 1399/2/4 1422/2/4
f 1400/2/4 1401/2/4 1422/2/4
f 1422/2/4 1401/2/4 1423/2/4
f 1401/3/4 1402/3/4 1424/3/4
f 1423/2/4 1401/2/4 1424/2/4
f 1403/3/4 1380/3/4 1425/3/4
f 1402/2/4 1403/2/4 1425/2/4
f 1380/2/4 1333/2/4 1426/2/4
f 1425/3/4 1380/3/4 1426/3/4
f 1426/2/4 1333/2/4 1427/2/4
f 1357/2/4 1406/2/4 1428/2/4
f 1406/3/4 1407/3/4 1428/3/4
f 1407/2/4 1385/2/4 1429/2/4
f 1428/3/4 1407/3/4 1429/3/4
f 1385/3/4 1316/3/4 1430/3/4
f 1429/2/4 1385/2/4 1430/2/4
f 1316/2/4 1408/2/4 1431/2/4
f 1430/3/4 1316/3/4 1431/3/4
f 1408/2/4 1409/2/4 1431/2/4
f 1409/2/4 1410/2/4 1431/2/4
f 1431/2/4 1410/2/4 1432/2/4
f 1388/2/4 1411/2/4 1433/2/4
f 1411/2/4 1412/2/4 1433/2/4
f 1433/2/4 1412/2/4 1434/2/4
f 1412/3/4 1413/3/4 1435/3/4
f 1434/2/4 1412/2/4 1435/2/4
f 1413/3/4 1414/3/4 1435/3/4
f 1414/3/4 1392/3/4 1436/3/4
f 1435/3/4 1414/3/4 1436/3/4
f 1392/1/4 1393/1/4 1437/1/4
f 1436/3/4 1392/3/4 1437/3/4
f 1393/3/4 1415/3/4 1438/3/4
f 1415/2/4 1416/2/4 1439/2/4
f 1438/3/4 1415/3/4 1439/3/4
f 1416/1/4 1417/1/4 1440/1/4
f 1439/2/4 1416/2/4 1440/2/4
f 1417/4/4 1418/4/4 1441/4/4
f 1440/1/4 1417/1/4 1441/1/4
f 1418/2/4 1419/2/4 1442/2/4
f 1420/2/4 1421/2/4 1442/2/4
f 1419/2/4 1420/2/4 1442/2/4
f 1421/3/4 1374/3/4 1443/3/4
f 1442/2/4 1421/2/4 1443/2/4
f 1423/1/4 1424/1/4 1444/1/4
f 1422/3/4 1423/3/4 1444/3/4
f 1424/3/4 1402/3/4 1445/3/4
f 1444/1/4 1424/1/4 1445/1/4
f 1425/2/4 1426/2/4 1446/2/4
f 1426/3/4 1427/3/4 1446/3/4
f 1446/3/4 1427/3/4 1447/3/4
f 1404/1/4 1405/1/4 1448/1/4
f 1405/3/4 1357/3/4 1449/3/4
f 1448/1/4 1405/1/4 1449/1/4
f 1428/2/4 1429/2/4 1450/2/4
f 1449/3/4 1357/3/4 1450/3/4
f 1357/2/4 1428/2/4 1450/2/4
f 1429/1/4 1430/1/4 1451/1/4
f 1450/2/4 1429/2/4 1451/2/4
f 1431/3/4 1432/3/4 1452/3/4
f 1451/1/4 1430/1/4 1452/1/4
f 1430/3/4 1431/3/4 1452/3/4
f 1432/2/4 1410/2/4 1453/2/4
f 1452/3/4 1432/3/4 1453/3/4
f 1410/4/4 1388/4/4 1454/4/4
f 1453/2/4 1410/2/4 1454/2/4
f 1388/2/4 1433/2/4 1455/2/4
f 1454/4/4 1388/4/4 1455/4/4
f 1433/3/4 1434/3/4 1456/3/4
f 1455/2/4 1433/2/4 1456/2/4
f 1434/1/4 1435/1/4 1457/1/4
f 1456/3/4 1434/3/4 1457/3/4
f 1435/3/4 1436/3/4 1458/3/4
f 1457/1/4 1435/1/4 1458/1/4
f 1436/2/4 1437/2/4 1459/2/4
f 1458/3/4 1436/3/4 1459/3/4
f 1437/1/4 1393/1/4 1460/1/4
f 1459/2/4 1437/2/4 1460/2/4
f 1393/3/4 1438/3/4 1461/3/4
f 1460/1/4 1393/1/4 1461/1/4
f 1439/2/4 1440/2/4 1462/2/4
f 1461/3/4 1438/3/4 1462/3/4
f 1438/2/4 1439/2/4 1462/2/4
f 1440/2/4 1441/2/4 1462/2/4
f 1441/4/4 1418/4/4 1463/4/4
f 1462/2/4 1441/2/4 1463/2/4
f 1418/2/4 1442/2/4 1464/2/4
f 1463/4/4 1418/4/4 1464/4/4
f 1442/1/4 1443/1/4 1465/1/4
f 1464/2/4 1442/2/4 1465/2/4
f 1443/3/4 1374/3/4 1466/3/4
f 1465/1/4 1443/1/4 1466/1/4
f 1374/2/4 1422/2/4 1467/2/4
f 1466/3/4 1374/3/4 1467/3/4
f 1422/3/4 1444/3/4 1468/3/4
f 1467/2/4 1422/2/4 1468/2/4
f 1444/2/4 1445/2/4 1469/2/4
f 1468/3/4 1444/3/4 1469/3/4
f 1445/3/4 1402/3/4 1470/3/4
f 1469/2/4 1445/2/4 1470/2/4
f 1402/2/4 1425/2/4 1471/2/4
f 1470/3/4 1402/3/4 1471/3/4
f 1425/2/4 1446/2/4 1471/2/4
f 1446/2/4 1447/2/4 1471/2/4
f 1471/2/4 1447/2/4 1472/2/4
f 1487/1/5 1474/1/5 1473/1/5
f 1488/2/5 1475/2/5 1474/2/5
f 1488/1/5 1474/1/5 1487/1/5
f 1489/1/5 1476/1/5 1475/1/5
f 1489/2/5 1475/2/5 1488/2/5
f 1490/2/5 1477/2/5 1476/2/5
f 1490/1/5 1476/1/5 1489/1/5
f 1491/1/5 1478/1/5 1477/1/5
f 1491/2/5 1477/2/5 1490/2/5
f 1492/2/5 1479/2/5 1478/2/5
f 1492/1/5 1478/1/5 1491/1/5
f 1493/1/5 1480/1/5 1479/1/5
f 1493/2/5 1479/2/5 1492/2/5
f 1494/2/5 1481/2/5 1480/2/5
f 1494/1/5 1480/1/5 1493/1/5
f 1495/1/5 1482/1/5 1481/1/5
f 1495/2/5 1481/2/5 1494/2/5
f 1496/2/5 1483/2/5 1482/2/5
f 1496/1/5 1482/1/5 1495/1/5
f 1497/1/5 1484/1/5 1483/1/5
f 1497/2/5 1483/2/5 1496/2/5
f 1498/2/5 1485/2/5 1484/2/5
f 1498/1/5 1484/1/5 1497/1/5
f 1499/1/5 1486/1/5 1485/1/5
f 1499/2/5 1485/2/5 1498/2/5
f 1500/1/5 1486/1/5 1499/1/5
f 1501/2/6 1502/2/6 1519/2/6
f 1502/3/6 1503/3/6 1520/3/6
f 1519/2/6 1502/2/6 1520/2/6
f 1503/2/6 1504/2/6 1521/2/6
f 1520/3/6 1503/3/6 1521/3/6
f 1504/3/6 1505/3/6 1522/3/6
f 1521/2/6 1504/2/6 1522/2/6
f 1505/2/6 1506/2/6 1523/2/6
f 1522/3/6 1505/3/6 1523/3/6
f 1506/3/6 1507/3/6 1524/3/6
f 1523/2/6 1506/2/6 1524/2/6
f 1507/2/6 1508/2/6 1525/2/6
f 1524/3/6 1507/3/6 1525/3/6
f 1508/3/6 1509/3/6 1526/3/6
f 1525/2/6 1508/2/6 1526/2/6
f 1509/2/6 1510/2/6 1527/2/6
f 1526/3/6 1509/3/6 1527/3/6
f 1510/3/6 1511/3/6 1528/3/6
f 1527/2/6 1510/2/6 1528/2/6
f 1511/2/6 1512/2/6 1529/2/6
f 1528/3/6 1511/3/6 1529/3/6
f 1512/3/6 1513/3/6 1530/3/6
f 1529/2/6 1512/2/6 1530/2/6
f 1513/2/6 1514/2/6 1531/2/6
f 1530/3/6 1513/3/6 1531/3/6
f 1514/3/6 1515/3/6 1532/3/6
f 1531/2/6 1514/2/6 1532/2/6
f 1515/2/6 1516/2/6 1533/2/6
f 1532/3/6 1515/3/6 1533/3/6
f 1516/3/6 1517/3/6 1534/3/6
f 1533/2/6 1516/2/6 1534/2/6
f 1517/2/6 1518/2/6 1535/2/6
f 1534/3/6 1517/3/6 1535/3/6
f 1535/2/6 1518/2/6 1536/2/6
