# MagicaVoxel @ Ephtracy

# group
o window-brick-19x29x7

# material
mtllib components-22-window-brick-19x29x7.mtl
usemtl palette

# normals
vn -1 0 0
vn 1 0 0
vn 0 0 1
vn 0 0 -1
vn 0 -1 0
vn 0 1 0

# texcoords
vt 0.00195313 0.5
vt 0.251953 0.5
vt 0.345703 0.5
vt 0.376953 0.5
vt 0.380859 0.5
vt 0.384766 0.5
vt 0.994141 0.5

# verts
v -0.9 0 13.7
v -0.9 0 13
v -0.9 0.2 13.7
v -0.9 0.2 13.6
v -0.9 0.2 13.1
v -0.9 0.2 13
v -0.9 0.3 13.7
v -0.9 0.3 13.6
v -0.9 0.3 13.1
v -0.9 0.3 13
v -0.9 0.6 13.7
v -0.9 0.6 13.6
v -0.9 0.6 13.1
v -0.9 0.6 13
v -0.9 0.7 13.7
v -0.9 0.7 13.6
v -0.9 0.7 13.1
v -0.9 0.7 13
v -0.9 1 13.7
v -0.9 1 13.6
v -0.9 1 13.1
v -0.9 1 13
v -0.9 1.1 13.7
v -0.9 1.1 13.6
v -0.9 1.1 13.1
v -0.9 1.1 13
v -0.9 1.4 13.7
v -0.9 1.4 13.6
v -0.9 1.4 13.1
v -0.9 1.4 13
v -0.9 1.5 13.7
v -0.9 1.5 13.6
v -0.9 1.5 13.1
v -0.9 1.5 13
v -0.9 1.8 13.7
v -0.9 1.8 13.6
v -0.9 1.8 13.1
v -0.9 1.8 13
v -0.9 1.9 13.7
v -0.9 1.9 13.6
v -0.9 1.9 13.1
v -0.9 1.9 13
v -0.9 2.2 13.7
v -0.9 2.2 13.6
v -0.9 2.2 13.1
v -0.9 2.2 13
v -0.9 2.3 13.7
v -0.9 2.3 13.6
v -0.9 2.3 13.1
v -0.9 2.3 13
v -0.9 2.6 13.7
v -0.9 2.6 13.6
v -0.9 2.6 13.1
v -0.9 2.6 13
v -0.9 2.7 13.7
v -0.9 2.7 13.6
v -0.9 2.7 13.1
v -0.9 2.7 13
v -0.9 2.9 13.7
v -0.9 2.9 13
v -0.8 1.4 13.1
v -0.8 1.4 13
v -0.8 1.5 13.1
v -0.8 1.5 13
v -0.8 1.8 13.1
v -0.8 1.8 13
v -0.8 1.9 13.1
v -0.8 1.9 13
v 1 0 13.7
v 1 0 13
v 1 0.2 13.7
v 1 0.2 13.6
v 1 0.2 13.1
v 1 0.2 13
v 1 0.3 13.7
v 1 0.3 13.6
v 1 0.3 13.1
v 1 0.3 13
v 1 0.6 13.7
v 1 0.6 13.6
v 1 0.6 13.1
v 1 0.6 13
v 1 0.7 13.7
v 1 0.7 13.6
v 1 0.7 13.1
v 1 0.7 13
v 1 1 13.7
v 1 1 13.6
v 1 1 13.1
v 1 1 13
v 1 1.1 13.7
v 1 1.1 13.6
v 1 1.1 13.1
v 1 1.1 13
v 1 1.4 13.7
v 1 1.4 13.6
v 1 1.4 13.1
v 1 1.4 13
v 1 1.5 13.7
v 1 1.5 13.6
v 1 1.5 13.1
v 1 1.5 13
v 1 1.8 13.7
v 1 1.8 13.6
v 1 1.8 13.1
v 1 1.8 13
v 1 1.9 13.7
v 1 1.9 13.6
v 1 1.9 13.1
v 1 1.9 13
v 1 2.2 13.7
v 1 2.2 13.6
v 1 2.2 13.1
v 1 2.2 13
v 1 2.3 13.7
v 1 2.3 13.6
v 1 2.3 13.1
v 1 2.3 13
v 1 2.6 13.7
v 1 2.6 13.6
v 1 2.6 13.1
v 1 2.6 13
v 1 2.7 13.7
v 1 2.7 13.6
v 1 2.7 13.1
v 1 2.7 13
v 1 2.9 13.7
v 1 2.9 13
v -0.9 0 13.7
v -0.9 0.2 13.7
v -0.9 0.3 13.7
v -0.9 0.6 13.7
v -0.9 0.7 13.7
v -0.9 1 13.7
v -0.9 1.1 13.7
v -0.9 1.4 13.7
v -0.9 1.5 13.7
v -0.9 1.8 13.7
v -0.9 1.9 13.7
v -0.9 2.2 13.7
v -0.9 2.3 13.7
v -0.9 2.6 13.7
v -0.9 2.7 13.7
v -0.9 2.9 13.7
v -0.7 0.3 13.7
v -0.7 0.6 13.7
v -0.7 0.7 13.7
v -0.7 1 13.7
v -0.7 1.1 13.7
v -0.7 1.4 13.7
v -0.7 1.5 13.7
v -0.7 1.8 13.7
v -0.7 1.9 13.7
v -0.7 2.2 13.7
v -0.7 2.3 13.7
v -0.7 2.6 13.7
v -0.6 0 13.7
v -0.6 0.2 13.7
v -0.6 2.7 13.7
v -0.6 2.9 13.7
v -0.5 0 13.7
v -0.5 0.2 13.7
v -0.5 2.7 13.7
v -0.5 2.9 13.7
v -0.2 0 13.7
v -0.2 0.2 13.7
v -0.2 2.7 13.7
v -0.2 2.9 13.7
v -0.1 0 13.7
v -0.1 0.2 13.7
v -0.1 2.7 13.7
v -0.1 2.9 13.7
v 0.2 0 13.7
v 0.2 0.2 13.7
v 0.2 2.7 13.7
v 0.2 2.9 13.7
v 0.3 0 13.7
v 0.3 0.2 13.7
v 0.3 2.7 13.7
v 0.3 2.9 13.7
v 0.6 0 13.7
v 0.6 0.2 13.7
v 0.6 2.7 13.7
v 0.6 2.9 13.7
v 0.7 0 13.7
v 0.7 0.2 13.7
v 0.7 2.7 13.7
v 0.7 2.9 13.7
v 0.8 0.3 13.7
v 0.8 0.6 13.7
v 0.8 0.7 13.7
v 0.8 1 13.7
v 0.8 1.1 13.7
v 0.8 1.4 13.7
v 0.8 1.5 13.7
v 0.8 1.8 13.7
v 0.8 1.9 13.7
v 0.8 2.2 13.7
v 0.8 2.3 13.7
v 0.8 2.6 13.7
v 1 0 13.7
v 1 0.2 13.7
v 1 0.3 13.7
v 1 0.6 13.7
v 1 0.7 13.7
v 1 1 13.7
v 1 1.1 13.7
v 1 1.4 13.7
v 1 1.5 13.7
v 1 1.8 13.7
v 1 1.9 13.7
v 1 2.2 13.7
v 1 2.3 13.7
v 1 2.6 13.7
v 1 2.7 13.7
v 1 2.9 13.7
v -0.9 1.4 13.1
v -0.9 1.5 13.1
v -0.9 1.8 13.1
v -0.9 1.9 13.1
v -0.8 1.4 13.1
v -0.8 1.5 13.1
v -0.8 1.8 13.1
v -0.8 1.9 13.1
v -0.9 0 13
v -0.9 0.2 13
v -0.9 0.3 13
v -0.9 0.6 13
v -0.9 0.7 13
v -0.9 1 13
v -0.9 1.1 13
v -0.9 1.4 13
v -0.9 1.5 13
v -0.9 1.8 13
v -0.9 1.9 13
v -0.9 2.2 13
v -0.9 2.3 13
v -0.9 2.6 13
v -0.9 2.7 13
v -0.9 2.9 13
v -0.8 1.4 13
v -0.8 1.5 13
v -0.8 1.8 13
v -0.8 1.9 13
v -0.7 0.3 13
v -0.7 0.6 13
v -0.7 0.7 13
v -0.7 1 13
v -0.7 1.1 13
v -0.7 1.9 13
v -0.7 2.2 13
v -0.7 2.3 13
v -0.7 2.6 13
v -0.6 0 13
v -0.6 0.2 13
v -0.6 2.7 13
v -0.6 2.9 13
v -0.5 0 13
v -0.5 0.2 13
v -0.5 2.7 13
v -0.5 2.9 13
v -0.2 0 13
v -0.2 0.2 13
v -0.2 2.7 13
v -0.2 2.9 13
v -0.1 0 13
v -0.1 0.2 13
v -0.1 2.7 13
v -0.1 2.9 13
v 0.2 0 13
v 0.2 0.2 13
v 0.2 2.7 13
v 0.2 2.9 13
v 0.3 0 13
v 0.3 0.2 13
v 0.3 2.7 13
v 0.3 2.9 13
v 0.6 0 13
v 0.6 0.2 13
v 0.6 2.7 13
v 0.6 2.9 13
v 0.7 0 13
v 0.7 0.2 13
v 0.7 2.7 13
v 0.7 2.9 13
v 0.8 0.3 13
v 0.8 0.6 13
v 0.8 0.7 13
v 0.8 1 13
v 0.8 1.1 13
v 0.8 1.4 13
v 0.8 1.5 13
v 0.8 1.8 13
v 0.8 1.9 13
v 0.8 2.2 13
v 0.8 2.3 13
v 0.8 2.6 13
v 1 0 13
v 1 0.2 13
v 1 0.3 13
v 1 0.6 13
v 1 0.7 13
v 1 1 13
v 1 1.1 13
v 1 1.4 13
v 1 1.5 13
v 1 1.8 13
v 1 1.9 13
v 1 2.2 13
v 1 2.3 13
v 1 2.6 13
v 1 2.7 13
v 1 2.9 13
v -0.9 0 13.7
v -0.6 0 13.7
v -0.5 0 13.7
v -0.2 0 13.7
v -0.1 0 13.7
v 0.2 0 13.7
v 0.3 0 13.7
v 0.6 0 13.7
v 0.7 0 13.7
v 1 0 13.7
v -0.6 0 13.6
v -0.5 0 13.6
v -0.2 0 13.6
v -0.1 0 13.6
v 0.2 0 13.6
v 0.3 0 13.6
v 0.6 0 13.6
v 0.7 0 13.6
v -0.6 0 13.1
v -0.5 0 13.1
v -0.2 0 13.1
v -0.1 0 13.1
v 0.2 0 13.1
v 0.3 0 13.1
v 0.6 0 13.1
v 0.7 0 13.1
v -0.9 0 13
v -0.6 0 13
v -0.5 0 13
v -0.2 0 13
v -0.1 0 13
v 0.2 0 13
v 0.3 0 13
v 0.6 0 13
v 0.7 0 13
v 1 0 13
v -0.9 1.5 13.1
v -0.8 1.5 13.1
v -0.9 1.5 13
v -0.8 1.5 13
v -0.9 1.9 13.1
v -0.8 1.9 13.1
v -0.9 1.9 13
v -0.8 1.9 13
v -0.9 1.4 13.1
v -0.8 1.4 13.1
v -0.9 1.4 13
v -0.8 1.4 13
v -0.9 1.8 13.1
v -0.8 1.8 13.1
v -0.9 1.8 13
v -0.8 1.8 13
v -0.9 2.9 13.7
v -0.6 2.9 13.7
v -0.5 2.9 13.7
v -0.2 2.9 13.7
v -0.1 2.9 13.7
v 0.2 2.9 13.7
v 0.3 2.9 13.7
v 0.6 2.9 13.7
v 0.7 2.9 13.7
v 1 2.9 13.7
v -0.6 2.9 13.6
v -0.5 2.9 13.6
v -0.2 2.9 13.6
v -0.1 2.9 13.6
v 0.2 2.9 13.6
v 0.3 2.9 13.6
v 0.6 2.9 13.6
v 0.7 2.9 13.6
v -0.6 2.9 13.1
v -0.5 2.9 13.1
v -0.2 2.9 13.1
v -0.1 2.9 13.1
v 0.2 2.9 13.1
v 0.3 2.9 13.1
v 0.6 2.9 13.1
v 0.7 2.9 13.1
v -0.9 2.9 13
v -0.6 2.9 13
v -0.5 2.9 13
v -0.2 2.9 13
v -0.1 2.9 13
v 0.2 2.9 13
v 0.3 2.9 13
v 0.6 2.9 13
v 0.7 2.9 13
v 1 2.9 13

# faces
f 3/4/1 2/4/1 1/4/1
f 4/4/1 2/4/1 3/4/1
f 5/4/1 2/4/1 4/4/1
f 6/4/1 2/4/1 5/4/1
f 7/7/1 4/7/1 3/7/1
f 8/3/1 5/3/1 4/3/1
f 8/7/1 4/7/1 7/7/1
f 9/7/1 6/7/1 5/7/1
f 9/3/1 5/3/1 8/3/1
f 10/7/1 6/7/1 9/7/1
f 11/4/1 8/4/1 7/4/1
f 11/4/1 9/4/1 8/4/1
f 11/4/1 10/4/1 9/4/1
f 12/4/1 10/4/1 11/4/1
f 13/4/1 10/4/1 12/4/1
f 14/4/1 10/4/1 13/4/1
f 15/7/1 12/7/1 11/7/1
f 16/3/1 13/3/1 12/3/1
f 16/7/1 12/7/1 15/7/1
f 17/7/1 14/7/1 13/7/1
f 17/3/1 13/3/1 16/3/1
f 18/7/1 14/7/1 17/7/1
f 19/6/1 16/6/1 15/6/1
f 19/6/1 17/6/1 16/6/1
f 19/6/1 18/6/1 17/6/1
f 20/6/1 18/6/1 19/6/1
f 21/6/1 18/6/1 20/6/1
f 22/6/1 18/6/1 21/6/1
f 23/7/1 20/7/1 19/7/1
f 24/3/1 21/3/1 20/3/1
f 24/7/1 20/7/1 23/7/1
f 25/7/1 22/7/1 21/7/1
f 25/3/1 21/3/1 24/3/1
f 26/7/1 22/7/1 25/7/1
f 27/4/1 24/4/1 23/4/1
f 27/4/1 25/4/1 24/4/1
f 27/4/1 26/4/1 25/4/1
f 28/4/1 26/4/1 27/4/1
f 29/4/1 26/4/1 28/4/1
f 30/4/1 26/4/1 29/4/1
f 31/7/1 28/7/1 27/7/1
f 32/3/1 29/3/1 28/3/1
f 32/7/1 28/7/1 31/7/1
f 33/3/1 29/3/1 32/3/1
f 35/4/1 32/4/1 31/4/1
f 35/4/1 34/4/1 33/4/1
f 35/4/1 33/4/1 32/4/1
f 36/4/1 34/4/1 35/4/1
f 37/4/1 34/4/1 36/4/1
f 38/4/1 34/4/1 37/4/1
f 39/7/1 36/7/1 35/7/1
f 40/3/1 37/3/1 36/3/1
f 40/7/1 36/7/1 39/7/1
f 41/3/1 37/3/1 40/3/1
f 43/6/1 40/6/1 39/6/1
f 43/6/1 42/6/1 41/6/1
f 43/6/1 41/6/1 40/6/1
f 44/6/1 42/6/1 43/6/1
f 45/6/1 42/6/1 44/6/1
f 46/6/1 42/6/1 45/6/1
f 47/7/1 44/7/1 43/7/1
f 48/3/1 45/3/1 44/3/1
f 48/7/1 44/7/1 47/7/1
f 49/7/1 46/7/1 45/7/1
f 49/3/1 45/3/1 48/3/1
f 50/7/1 46/7/1 49/7/1
f 51/4/1 48/4/1 47/4/1
f 51/4/1 49/4/1 48/4/1
f 51/4/1 50/4/1 49/4/1
f 52/4/1 50/4/1 51/4/1
f 53/4/1 50/4/1 52/4/1
f 54/4/1 50/4/1 53/4/1
f 55/7/1 52/7/1 51/7/1
f 56/3/1 53/3/1 52/3/1
f 56/7/1 52/7/1 55/7/1
f 57/7/1 54/7/1 53/7/1
f 57/3/1 53/3/1 56/3/1
f 58/7/1 54/7/1 57/7/1
f 59/4/1 56/4/1 55/4/1
f 59/4/1 57/4/1 56/4/1
f 59/4/1 58/4/1 57/4/1
f 60/4/1 58/4/1 59/4/1
f 63/4/1 62/4/1 61/4/1
f 64/4/1 62/4/1 63/4/1
f 67/4/1 66/4/1 65/4/1
f 68/4/1 66/4/1 67/4/1
f 69/4/2 70/4/2 71/4/2
f 71/4/2 70/4/2 72/4/2
f 72/4/2 70/4/2 73/4/2
f 73/4/2 70/4/2 74/4/2
f 71/7/2 72/7/2 75/7/2
f 72/3/2 73/3/2 76/3/2
f 75/7/2 72/7/2 76/7/2
f 73/7/2 74/7/2 77/7/2
f 76/3/2 73/3/2 77/3/2
f 77/7/2 74/7/2 78/7/2
f 75/6/2 76/6/2 79/6/2
f 76/6/2 77/6/2 79/6/2
f 77/6/2 78/6/2 79/6/2
f 79/6/2 78/6/2 80/6/2
f 80/6/2 78/6/2 81/6/2
f 81/6/2 78/6/2 82/6/2
f 79/7/2 80/7/2 83/7/2
f 80/3/2 81/3/2 84/3/2
f 83/7/2 80/7/2 84/7/2
f 81/7/2 82/7/2 85/7/2
f 84/3/2 81/3/2 85/3/2
f 85/7/2 82/7/2 86/7/2
f 83/5/2 84/5/2 87/5/2
f 84/5/2 85/5/2 87/5/2
f 85/5/2 86/5/2 87/5/2
f 87/5/2 86/5/2 88/5/2
f 88/5/2 86/5/2 89/5/2
f 89/5/2 86/5/2 90/5/2
f 87/7/2 88/7/2 91/7/2
f 88/3/2 89/3/2 92/3/2
f 91/7/2 88/7/2 92/7/2
f 89/7/2 90/7/2 93/7/2
f 92/3/2 89/3/2 93/3/2
f 93/7/2 90/7/2 94/7/2
f 91/4/2 92/4/2 95/4/2
f 92/4/2 93/4/2 95/4/2
f 93/4/2 94/4/2 95/4/2
f 95/4/2 94/4/2 96/4/2
f 96/4/2 94/4/2 97/4/2
f 97/4/2 94/4/2 98/4/2
f 95/7/2 96/7/2 99/7/2
f 96/3/2 97/3/2 100/3/2
f 99/7/2 96/7/2 100/7/2
f 97/7/2 98/7/2 101/7/2
f 100/3/2 97/3/2 101/3/2
f 101/7/2 98/7/2 102/7/2
f 99/4/2 100/4/2 103/4/2
f 100/4/2 101/4/2 103/4/2
f 101/4/2 102/4/2 103/4/2
f 103/4/2 102/4/2 104/4/2
f 104/4/2 102/4/2 105/4/2
f 105/4/2 102/4/2 106/4/2
f 103/7/2 104/7/2 107/7/2
f 104/3/2 105/3/2 108/3/2
f 107/7/2 104/7/2 108/7/2
f 105/7/2 106/7/2 109/7/2
f 108/3/2 105/3/2 109/3/2
f 109/7/2 106/7/2 110/7/2
f 107/5/2 108/5/2 111/5/2
f 108/5/2 109/5/2 111/5/2
f 109/5/2 110/5/2 111/5/2
f 111/5/2 110/5/2 112/5/2
f 112/5/2 110/5/2 113/5/2
f 113/5/2 110/5/2 114/5/2
f 111/7/2 112/7/2 115/7/2
f 112/3/2 113/3/2 116/3/2
f 115/7/2 112/7/2 116/7/2
f 113/7/2 114/7/2 117/7/2
f 116/3/2 113/3/2 117/3/2
f 117/7/2 114/7/2 118/7/2
f 115/4/2 116/4/2 119/4/2
f 116/4/2 117/4/2 119/4/2
f 117/4/2 118/4/2 119/4/2
f 119/4/2 118/4/2 120/4/2
f 120/4/2 118/4/2 121/4/2
f 121/4/2 118/4/2 122/4/2
f 119/7/2 120/7/2 123/7/2
f 120/3/2 121/3/2 124/3/2
f 123/7/2 120/7/2 124/7/2
f 121/7/2 122/7/2 125/7/2
f 124/3/2 121/3/2 125/3/2
f 125/7/2 122/7/2 126/7/2
f 123/4/2 124/4/2 127/4/2
f 124/4/2 125/4/2 127/4/2
f 125/4/2 126/4/2 127/4/2
f 127/4/2 126/4/2 128/4/2
f 145/7/3 131/7/3 130/7/3
f 145/4/3 132/4/3 131/4/3
f 146/7/3 133/7/3 132/7/3
f 146/4/3 132/4/3 145/4/3
f 147/6/3 134/6/3 133/6/3
f 147/7/3 133/7/3 146/7/3
f 148/7/3 135/7/3 134/7/3
f 148/6/3 134/6/3 147/6/3
f 149/4/3 136/4/3 135/4/3
f 149/7/3 135/7/3 148/7/3
f 150/7/3 137/7/3 136/7/3
f 150/4/3 136/4/3 149/4/3
f 151/4/3 138/4/3 137/4/3
f 151/7/3 137/7/3 150/7/3
f 152/7/3 139/7/3 138/7/3
f 152/4/3 138/4/3 151/4/3
f 153/6/3 140/6/3 139/6/3
f 153/7/3 139/7/3 152/7/3
f 154/7/3 141/7/3 140/7/3
f 154/6/3 140/6/3 153/6/3
f 155/4/3 142/4/3 141/4/3
f 155/7/3 141/7/3 154/7/3
f 156/7/3 143/7/3 142/7/3
f 156/4/3 142/4/3 155/4/3
f 157/4/3 130/4/3 129/4/3
f 158/7/3 155/7/3 154/7/3
f 158/4/3 130/4/3 157/4/3
f 158/7/3 145/7/3 130/7/3
f 158/7/3 156/7/3 155/7/3
f 158/7/3 154/7/3 153/7/3
f 158/7/3 153/7/3 152/7/3
f 158/7/3 152/7/3 151/7/3
f 158/7/3 151/7/3 150/7/3
f 158/7/3 150/7/3 149/7/3
f 158/7/3 149/7/3 148/7/3
f 158/7/3 148/7/3 147/7/3
f 158/7/3 147/7/3 146/7/3
f 158/7/3 146/7/3 145/7/3
f 159/7/3 143/7/3 156/7/3
f 159/7/3 156/7/3 158/7/3
f 159/4/3 144/4/3 143/4/3
f 160/4/3 144/4/3 159/4/3
f 161/7/3 158/7/3 157/7/3
f 161/7/3 159/7/3 158/7/3
f 161/7/3 160/7/3 159/7/3
f 162/7/3 160/7/3 161/7/3
f 163/7/3 160/7/3 162/7/3
f 164/7/3 160/7/3 163/7/3
f 165/5/3 162/5/3 161/5/3
f 166/7/3 163/7/3 162/7/3
f 166/5/3 162/5/3 165/5/3
f 167/4/3 164/4/3 163/4/3
f 167/7/3 163/7/3 166/7/3
f 168/4/3 164/4/3 167/4/3
f 169/7/3 166/7/3 165/7/3
f 169/7/3 167/7/3 166/7/3
f 169/7/3 168/7/3 167/7/3
f 170/7/3 168/7/3 169/7/3
f 171/7/3 168/7/3 170/7/3
f 172/7/3 168/7/3 171/7/3
f 173/4/3 170/4/3 169/4/3
f 174/7/3 171/7/3 170/7/3
f 174/4/3 170/4/3 173/4/3
f 175/5/3 172/5/3 171/5/3
f 175/7/3 171/7/3 174/7/3
f 176/5/3 172/5/3 175/5/3
f 177/7/3 174/7/3 173/7/3
f 177/7/3 175/7/3 174/7/3
f 177/7/3 176/7/3 175/7/3
f 178/7/3 176/7/3 177/7/3
f 179/7/3 176/7/3 178/7/3
f 180/7/3 176/7/3 179/7/3
f 181/4/3 178/4/3 177/4/3
f 182/7/3 179/7/3 178/7/3
f 182/4/3 178/4/3 181/4/3
f 183/4/3 180/4/3 179/4/3
f 183/7/3 179/7/3 182/7/3
f 184/4/3 180/4/3 183/4/3
f 185/7/3 182/7/3 181/7/3
f 185/7/3 183/7/3 182/7/3
f 185/7/3 184/7/3 183/7/3
f 186/7/3 184/7/3 185/7/3
f 187/7/3 184/7/3 186/7/3
f 188/7/3 184/7/3 187/7/3
f 189/7/3 187/7/3 186/7/3
f 190/7/3 187/7/3 189/7/3
f 191/7/3 187/7/3 190/7/3
f 192/7/3 187/7/3 191/7/3
f 193/7/3 187/7/3 192/7/3
f 194/7/3 187/7/3 193/7/3
f 195/7/3 187/7/3 194/7/3
f 196/7/3 187/7/3 195/7/3
f 197/7/3 187/7/3 196/7/3
f 198/7/3 187/7/3 197/7/3
f 199/7/3 187/7/3 198/7/3
f 200/7/3 187/7/3 199/7/3
f 201/4/3 186/4/3 185/4/3
f 202/7/3 189/7/3 186/7/3
f 202/4/3 186/4/3 201/4/3
f 203/6/3 190/6/3 189/6/3
f 203/7/3 189/7/3 202/7/3
f 204/7/3 191/7/3 190/7/3
f 204/6/3 190/6/3 203/6/3
f 205/5/3 192/5/3 191/5/3
f 205/7/3 191/7/3 204/7/3
f 206/7/3 193/7/3 192/7/3
f 206/5/3 192/5/3 205/5/3
f 207/4/3 194/4/3 193/4/3
f 207/7/3 193/7/3 206/7/3
f 208/7/3 195/7/3 194/7/3
f 208/4/3 194/4/3 207/4/3
f 209/4/3 196/4/3 195/4/3
f 209/7/3 195/7/3 208/7/3
f 210/7/3 197/7/3 196/7/3
f 210/4/3 196/4/3 209/4/3
f 211/5/3 198/5/3 197/5/3
f 211/7/3 197/7/3 210/7/3
f 212/7/3 199/7/3 198/7/3
f 212/5/3 198/5/3 211/5/3
f 213/4/3 200/4/3 199/4/3
f 213/7/3 199/7/3 212/7/3
f 214/7/3 187/7/3 200/7/3
f 214/4/3 200/4/3 213/4/3
f 215/4/3 188/4/3 187/4/3
f 215/7/3 187/7/3 214/7/3
f 216/4/3 188/4/3 215/4/3
f 217/3/4 218/3/4 221/3/4
f 221/3/4 218/3/4 222/3/4
f 219/3/4 220/3/4 223/3/4
f 223/3/4 220/3/4 224/3/4
f 231/4/4 232/4/4 241/4/4
f 233/4/4 234/4/4 242/4/4
f 242/4/4 234/4/4 243/4/4
f 235/6/4 236/6/4 244/6/4
f 226/7/4 227/7/4 245/7/4
f 227/4/4 228/4/4 245/4/4
f 228/7/4 229/7/4 246/7/4
f 245/4/4 228/4/4 246/4/4
f 229/6/4 230/6/4 247/6/4
f 246/7/4 229/7/4 247/7/4
f 230/7/4 231/7/4 248/7/4
f 247/6/4 230/6/4 248/6/4
f 243/4/4 244/4/4 249/4/4
f 248/7/4 231/7/4 249/7/4
f 231/4/4 241/4/4 249/4/4
f 242/4/4 243/4/4 249/4/4
f 241/4/4 242/4/4 249/4/4
f 244/6/4 236/6/4 250/6/4
f 249/4/4 244/4/4 250/4/4
f 236/7/4 237/7/4 251/7/4
f 250/6/4 236/6/4 251/6/4
f 237/4/4 238/4/4 252/4/4
f 251/7/4 237/7/4 252/7/4
f 238/7/4 239/7/4 253/7/4
f 252/4/4 238/4/4 253/4/4
f 225/4/4 226/4/4 254/4/4
f 247/7/4 248/7/4 255/7/4
f 254/4/4 226/4/4 255/4/4
f 248/7/4 249/7/4 255/7/4
f 252/7/4 253/7/4 255/7/4
f 251/7/4 252/7/4 255/7/4
f 250/7/4 251/7/4 255/7/4
f 249/7/4 250/7/4 255/7/4
f 226/7/4 245/7/4 255/7/4
f 245/7/4 246/7/4 255/7/4
f 246/7/4 247/7/4 255/7/4
f 253/7/4 239/7/4 256/7/4
f 255/7/4 253/7/4 256/7/4
f 239/4/4 240/4/4 256/4/4
f 256/4/4 240/4/4 257/4/4
f 254/7/4 255/7/4 258/7/4
f 255/7/4 256/7/4 258/7/4
f 256/7/4 257/7/4 258/7/4
f 258/7/4 257/7/4 259/7/4
f 259/7/4 257/7/4 260/7/4
f 260/7/4 257/7/4 261/7/4
f 258/5/4 259/5/4 262/5/4
f 259/7/4 260/7/4 263/7/4
f 262/5/4 259/5/4 263/5/4
f 260/4/4 261/4/4 264/4/4
f 263/7/4 260/7/4 264/7/4
f 264/4/4 261/4/4 265/4/4
f 262/7/4 263/7/4 266/7/4
f 263/7/4 264/7/4 266/7/4
f 264/7/4 265/7/4 266/7/4
f 266/7/4 265/7/4 267/7/4
f 267/7/4 265/7/4 268/7/4
f 268/7/4 265/7/4 269/7/4
f 266/4/4 267/4/4 270/4/4
f 267/7/4 268/7/4 271/7/4
f 270/4/4 267/4/4 271/4/4
f 268/5/4 269/5/4 272/5/4
f 271/7/4 268/7/4 272/7/4
f 272/5/4 269/5/4 273/5/4
f 270/7/4 271/7/4 274/7/4
f 271/7/4 272/7/4 274/7/4
f 272/7/4 273/7/4 274/7/4
f 274/7/4 273/7/4 275/7/4
f 275/7/4 273/7/4 276/7/4
f 276/7/4 273/7/4 277/7/4
f 274/4/4 275/4/4 278/4/4
f 275/7/4 276/7/4 279/7/4
f 278/4/4 275/4/4 279/4/4
f 276/4/4 277/4/4 280/4/4
f 279/7/4 276/7/4 280/7/4
f 280/4/4 277/4/4 281/4/4
f 278/7/4 279/7/4 282/7/4
f 279/7/4 280/7/4 282/7/4
f 280/7/4 281/7/4 282/7/4
f 282/7/4 281/7/4 283/7/4
f 283/7/4 281/7/4 284/7/4
f 284/7/4 281/7/4 285/7/4
f 283/7/4 284/7/4 286/7/4
f 286/7/4 284/7/4 287/7/4
f 287/7/4 284/7/4 288/7/4
f 288/7/4 284/7/4 289/7/4
f 289/7/4 284/7/4 290/7/4
f 290/7/4 284/7/4 291/7/4
f 291/7/4 284/7/4 292/7/4
f 292/7/4 284/7/4 293/7/4
f 293/7/4 284/7/4 294/7/4
f 294/7/4 284/7/4 295/7/4
f 295/7/4 284/7/4 296/7/4
f 296/7/4 284/7/4 297/7/4
f 282/4/4 283/4/4 298/4/4
f 283/7/4 286/7/4 299/7/4
f 298/4/4 283/4/4 299/4/4
f 286/6/4 287/6/4 300/6/4
f 299/7/4 286/7/4 300/7/4
f 287/7/4 288/7/4 301/7/4
f 300/6/4 287/6/4 301/6/4
f 288/5/4 289/5/4 302/5/4
f 301/7/4 288/7/4 302/7/4
f 289/7/4 290/7/4 303/7/4
f 302/5/4 289/5/4 303/5/4
f 290/4/4 291/4/4 304/4/4
f 303/7/4 290/7/4 304/7/4
f 291/7/4 292/7/4 305/7/4
f 304/4/4 291/4/4 305/4/4
f 292/4/4 293/4/4 306/4/4
f 305/7/4 292/7/4 306/7/4
f 293/7/4 294/7/4 307/7/4
f 306/4/4 293/4/4 307/4/4
f 294/5/4 295/5/4 308/5/4
f 307/7/4 294/7/4 308/7/4
f 295/7/4 296/7/4 309/7/4
f 308/5/4 295/5/4 309/5/4
f 296/4/4 297/4/4 310/4/4
f 309/7/4 296/7/4 310/7/4
f 297/7/4 284/7/4 311/7/4
f 310/4/4 297/4/4 311/4/4
f 284/4/4 285/4/4 312/4/4
f 311/7/4 284/7/4 312/7/4
f 312/4/4 285/4/4 313/4/4
f 324/4/5 315/4/5 314/4/5
f 324/7/5 316/7/5 315/7/5
f 325/5/5 317/5/5 316/5/5
f 325/7/5 316/7/5 324/7/5
f 326/7/5 318/7/5 317/7/5
f 326/5/5 317/5/5 325/5/5
f 327/4/5 319/4/5 318/4/5
f 327/7/5 318/7/5 326/7/5
f 328/7/5 320/7/5 319/7/5
f 328/4/5 319/4/5 327/4/5
f 329/4/5 321/4/5 320/4/5
f 329/7/5 320/7/5 328/7/5
f 330/7/5 322/7/5 321/7/5
f 330/4/5 321/4/5 329/4/5
f 331/4/5 323/4/5 322/4/5
f 331/7/5 322/7/5 330/7/5
f 332/4/5 324/4/5 314/4/5
f 332/3/5 325/3/5 324/3/5
f 333/5/5 326/5/5 325/5/5
f 333/3/5 325/3/5 332/3/5
f 334/3/5 327/3/5 326/3/5
f 334/5/5 326/5/5 333/5/5
f 335/4/5 328/4/5 327/4/5
f 335/3/5 327/3/5 334/3/5
f 336/3/5 329/3/5 328/3/5
f 336/4/5 328/4/5 335/4/5
f 337/4/5 330/4/5 329/4/5
f 337/3/5 329/3/5 336/3/5
f 338/3/5 331/3/5 330/3/5
f 338/4/5 330/4/5 337/4/5
f 339/4/5 323/4/5 331/4/5
f 339/3/5 331/3/5 338/3/5
f 340/4/5 332/4/5 314/4/5
f 341/7/5 333/7/5 332/7/5
f 341/4/5 332/4/5 340/4/5
f 342/5/5 334/5/5 333/5/5
f 342/7/5 333/7/5 341/7/5
f 343/7/5 335/7/5 334/7/5
f 343/5/5 334/5/5 342/5/5
f 344/4/5 336/4/5 335/4/5
f 344/7/5 335/7/5 343/7/5
f 345/7/5 337/7/5 336/7/5
f 345/4/5 336/4/5 344/4/5
f 346/4/5 338/4/5 337/4/5
f 346/7/5 337/7/5 345/7/5
f 347/7/5 339/7/5 338/7/5
f 347/4/5 338/4/5 346/4/5
f 348/4/5 323/4/5 339/4/5
f 348/7/5 339/7/5 347/7/5
f 349/4/5 323/4/5 348/4/5
f 352/4/5 351/4/5 350/4/5
f 353/4/5 351/4/5 352/4/5
f 356/6/5 355/6/5 354/6/5
f 357/6/5 355/6/5 356/6/5
f 358/4/6 359/4/6 360/4/6
f 360/4/6 359/4/6 361/4/6
f 362/4/6 363/4/6 364/4/6
f 364/4/6 363/4/6 365/4/6
f 366/4/6 367/4/6 376/4/6
f 367/7/6 368/7/6 376/7/6
f 368/4/6 369/4/6 377/4/6
f 376/7/6 368/7/6 377/7/6
f 369/7/6 370/7/6 378/7/6
f 377/4/6 369/4/6 378/4/6
f 370/5/6 371/5/6 379/5/6
f 378/7/6 370/7/6 379/7/6
f 371/7/6 372/7/6 380/7/6
f 379/5/6 371/5/6 380/5/6
f 372/4/6 373/4/6 381/4/6
f 380/7/6 372/7/6 381/7/6
f 373/7/6 374/7/6 382/7/6
f 381/4/6 373/4/6 382/4/6
f 374/4/6 375/4/6 383/4/6
f 382/7/6 374/7/6 383/7/6
f 366/4/6 376/4/6 384/4/6
f 376/3/6 377/3/6 384/3/6
f 377/4/6 378/4/6 385/4/6
f 384/3/6 377/3/6 385/3/6
f 378/3/6 379/3/6 386/3/6
f 385/4/6 378/4/6 386/4/6
f 379/5/6 380/5/6 387/5/6
f 386/3/6 379/3/6 387/3/6
f 380/3/6 381/3/6 388/3/6
f 387/5/6 380/5/6 388/5/6
f 381/4/6 382/4/6 389/4/6
f 388/3/6 381/3/6 389/3/6
f 382/3/6 383/3/6 390/3/6
f 389/4/6 382/4/6 390/4/6
f 383/4/6 375/4/6 391/4/6
f 390/3/6 383/3/6 391/3/6
f 366/4/6 384/4/6 392/4/6
f 384/7/6 385/7/6 393/7/6
f 392/4/6 384/4/6 393/4/6
f 385/4/6 386/4/6 394/4/6
f 393/7/6 385/7/6 394/7/6
f 386/7/6 387/7/6 395/7/6
f 394/4/6 386/4/6 395/4/6
f 387/5/6 388/5/6 396/5/6
f 395/7/6 387/7/6 396/7/6
f 388/7/6 389/7/6 397/7/6
f 396/5/6 388/5/6 397/5/6
f 389/4/6 390/4/6 398/4/6
f 397/7/6 389/7/6 398/7/6
f 390/7/6 391/7/6 399/7/6
f 398/4/6 390/4/6 399/4/6
f 391/4/6 375/4/6 400/4/6
f 399/7/6 391/7/6 400/7/6
f 400/4/6 375/4/6 401/4/6
