# MagicaVoxel @ Ephtracy

# group
o sideboard

# material
mtllib diningroom_dark-2-sideboard.mtl
usemtl palette

# normals
vn -1 0 0
vn 1 0 0
vn 0 0 1
vn 0 0 -1
vn 0 -1 0
vn 0 1 0

# texcoords
vt 0.220703 0.5
vt 0.224609 0.5
vt 0.228516 0.5
vt 0.470703 0.5
vt 0.599609 0.5
vt 0.603516 0.5

# verts
v -0.8 0 0.5
v -0.8 0 0.4
v -0.8 0 0.1
v -0.8 0 3.72529e-008
v -0.8 0.1 0.4
v -0.8 0.1 0.1
v -0.8 0.2 0.5
v -0.8 0.2 3.72529e-008
v -0.8 0.7 0.6
v -0.8 0.7 3.72529e-008
v -0.8 0.8 0.6
v -0.8 0.8 3.72529e-008
v -0.7 0 0.6
v -0.7 0 0.5
v -0.7 0.2 0.6
v -0.7 0.2 0.5
v -0.7 0.2 3.72529e-008
v -0.7 0.7 0.5
v -0.7 0.7 3.72529e-008
v -0.4 0.4 0.6
v -0.4 0.4 0.5
v -0.4 0.5 0.6
v -0.4 0.5 0.5
v -0.3 0.3 0.4
v -0.3 0.3 0.3
v -0.3 0.4 0.3
v -0.3 0.5 0.3
v -0.3 0.5 0.1
v -0.3 0.6 0.4
v -0.3 0.6 0.1
v -0.1 0.3 0.6
v -0.1 0.3 0.5
v -0.1 0.4 0.6
v -0.1 0.4 0.5
v -0.1 0.5 0.6
v -0.1 0.5 0.5
v -0.1 0.6 0.6
v -0.1 0.6 0.5
v 0.2 0.3 0.4
v 0.2 0.3 0.1
v 0.2 0.4 0.4
v 0.2 0.4 0.1
v 0.2 0.5 0.4
v 0.2 0.5 0.1
v 0.2 0.6 0.4
v 0.2 0.6 0.1
v 0.3 0.4 0.6
v 0.3 0.4 0.5
v 0.3 0.5 0.6
v 0.3 0.5 0.5
v 0.5 0.3 0.4
v 0.5 0.3 0.1
v 0.5 0.6 0.4
v 0.5 0.6 0.1
v 0.6 0 0.6
v 0.6 0 0.5
v 0.6 0.1 0.6
v 0.6 0.1 0.5
v 0.6 0.1 0.4
v 0.6 0.1 0.2
v 0.6 0.1 0.1
v 0.6 0.2 0.5
v 0.6 0.2 0.4
v 0.6 0.2 0.2
v 0.6 0.2 0.1
v 0.7 0 0.5
v 0.7 0 0.4
v 0.7 0 0.1
v 0.7 0 3.72529e-008
v 0.7 0.1 0.5
v 0.7 0.1 0.4
v 0.7 0.1 0.2
v 0.7 0.1 0.1
v 0.7 0.1 3.72529e-008
v 0.7 0.2 0.4
v 0.7 0.2 0.2
v -0.7 0 0.5
v -0.7 0 0.4
v -0.7 0 0.1
v -0.7 0 3.72529e-008
v -0.7 0.1 0.5
v -0.7 0.1 0.4
v -0.7 0.1 0.2
v -0.7 0.1 0.1
v -0.7 0.1 3.72529e-008
v -0.7 0.2 0.4
v -0.7 0.2 0.2
v -0.6 0 0.6
v -0.6 0 0.5
v -0.6 0.1 0.6
v -0.6 0.1 0.5
v -0.6 0.1 0.4
v -0.6 0.1 0.2
v -0.6 0.1 0.1
v -0.6 0.2 0.5
v -0.6 0.2 0.4
v -0.6 0.2 0.2
v -0.6 0.2 0.1
v -0.5 0.3 0.4
v -0.5 0.3 0.3
v -0.5 0.4 0.3
v -0.5 0.5 0.3
v -0.5 0.5 0.1
v -0.5 0.6 0.4
v -0.5 0.6 0.1
v -0.3 0.4 0.6
v -0.3 0.4 0.5
v -0.3 0.5 0.6
v -0.3 0.5 0.5
v -0.2 0.3 0.4
v -0.2 0.3 0.1
v -0.2 0.4 0.4
v -0.2 0.4 0.1
v -0.2 0.5 0.4
v -0.2 0.5 0.1
v -0.2 0.6 0.4
v -0.2 0.6 0.1
v 0.1 0.3 0.6
v 0.1 0.3 0.5
v 0.1 0.4 0.6
v 0.1 0.4 0.5
v 0.1 0.5 0.6
v 0.1 0.5 0.5
v 0.1 0.6 0.6
v 0.1 0.6 0.5
v 0.3 0.3 0.4
v 0.3 0.3 0.1
v 0.3 0.6 0.4
v 0.3 0.6 0.1
v 0.4 0.4 0.6
v 0.4 0.4 0.5
v 0.4 0.5 0.6
v 0.4 0.5 0.5
v 0.7 0 0.6
v 0.7 0 0.5
v 0.7 0.2 0.6
v 0.7 0.2 0.5
v 0.7 0.2 3.72529e-008
v 0.7 0.7 0.5
v 0.7 0.7 3.72529e-008
v 0.8 0 0.5
v 0.8 0 0.4
v 0.8 0 0.1
v 0.8 0 3.72529e-008
v 0.8 0.1 0.4
v 0.8 0.1 0.1
v 0.8 0.2 0.5
v 0.8 0.2 3.72529e-008
v 0.8 0.7 0.6
v 0.8 0.7 3.72529e-008
v 0.8 0.8 0.6
v 0.8 0.8 3.72529e-008
v -0.8 0.7 0.6
v -0.8 0.8 0.6
v -0.7 0 0.6
v -0.7 0.2 0.6
v -0.6 0 0.6
v -0.6 0.1 0.6
v -0.4 0.4 0.6
v -0.4 0.5 0.6
v -0.3 0.4 0.6
v -0.3 0.5 0.6
v -0.1 0.3 0.6
v -0.1 0.4 0.6
v -0.1 0.5 0.6
v -0.1 0.6 0.6
v 0.1 0.3 0.6
v 0.1 0.4 0.6
v 0.1 0.5 0.6
v 0.1 0.6 0.6
v 0.3 0.4 0.6
v 0.3 0.5 0.6
v 0.4 0.4 0.6
v 0.4 0.5 0.6
v 0.6 0 0.6
v 0.6 0.1 0.6
v 0.7 0 0.6
v 0.7 0.2 0.6
v 0.8 0.7 0.6
v 0.8 0.8 0.6
v -0.8 0 0.5
v -0.8 0.2 0.5
v -0.7 0 0.5
v -0.7 0.2 0.5
v -0.7 0.7 0.5
v -0.6 0.2 0.5
v -0.6 0.7 0.5
v -0.5 0.3 0.5
v -0.5 0.6 0.5
v -0.4 0.4 0.5
v -0.4 0.5 0.5
v -0.3 0.3 0.5
v -0.3 0.4 0.5
v -0.3 0.5 0.5
v -0.3 0.6 0.5
v -0.2 0.3 0.5
v -0.2 0.4 0.5
v -0.2 0.5 0.5
v -0.2 0.6 0.5
v -0.1 0.3 0.5
v -0.1 0.4 0.5
v -0.1 0.5 0.5
v -0.1 0.6 0.5
v 0.1 0.3 0.5
v 0.1 0.4 0.5
v 0.1 0.5 0.5
v 0.1 0.6 0.5
v 0.2 0.3 0.5
v 0.2 0.4 0.5
v 0.2 0.5 0.5
v 0.2 0.6 0.5
v 0.3 0.3 0.5
v 0.3 0.4 0.5
v 0.3 0.5 0.5
v 0.3 0.6 0.5
v 0.4 0.4 0.5
v 0.4 0.5 0.5
v 0.5 0.3 0.5
v 0.5 0.6 0.5
v 0.6 0.2 0.5
v 0.6 0.7 0.5
v 0.7 0 0.5
v 0.7 0.2 0.5
v 0.7 0.7 0.5
v 0.8 0 0.5
v 0.8 0.2 0.5
v -0.5 0.3 0.3
v -0.5 0.4 0.3
v -0.5 0.5 0.3
v -0.3 0.3 0.3
v -0.3 0.4 0.3
v -0.3 0.5 0.3
v -0.7 0.1 0.2
v -0.7 0.2 0.2
v -0.6 0.1 0.2
v -0.6 0.2 0.2
v 0.6 0.1 0.2
v 0.6 0.2 0.2
v 0.7 0.1 0.2
v 0.7 0.2 0.2
v -0.8 0 0.1
v -0.8 0.1 0.1
v -0.7 0 0.1
v -0.7 0.1 0.1
v -0.6 0.1 0.1
v -0.6 0.2 0.1
v -0.5 0.5 0.1
v -0.5 0.6 0.1
v -0.3 0.5 0.1
v -0.3 0.6 0.1
v -0.2 0.3 0.1
v -0.2 0.4 0.1
v -0.2 0.5 0.1
v -0.2 0.6 0.1
v 0.2 0.3 0.1
v 0.2 0.4 0.1
v 0.2 0.5 0.1
v 0.2 0.6 0.1
v 0.3 0.3 0.1
v 0.3 0.6 0.1
v 0.5 0.3 0.1
v 0.5 0.6 0.1
v 0.6 0.1 0.1
v 0.6 0.2 0.1
v 0.7 0 0.1
v 0.7 0.1 0.1
v 0.8 0 0.1
v 0.8 0.1 0.1
v -0.7 0 0.5
v -0.7 0.1 0.5
v -0.6 0 0.5
v -0.6 0.1 0.5
v -0.6 0.2 0.5
v 0.6 0 0.5
v 0.6 0.1 0.5
v 0.6 0.2 0.5
v 0.7 0 0.5
v 0.7 0.1 0.5
v -0.8 0 0.4
v -0.8 0.1 0.4
v -0.7 0 0.4
v -0.7 0.1 0.4
v -0.7 0.2 0.4
v -0.6 0.1 0.4
v -0.6 0.2 0.4
v -0.5 0.3 0.4
v -0.5 0.6 0.4
v -0.3 0.3 0.4
v -0.3 0.6 0.4
v -0.2 0.3 0.4
v -0.2 0.4 0.4
v -0.2 0.5 0.4
v -0.2 0.6 0.4
v 0.2 0.3 0.4
v 0.2 0.4 0.4
v 0.2 0.5 0.4
v 0.2 0.6 0.4
v 0.3 0.3 0.4
v 0.3 0.6 0.4
v 0.5 0.3 0.4
v 0.5 0.6 0.4
v 0.6 0.1 0.4
v 0.6 0.2 0.4
v 0.7 0 0.4
v 0.7 0.1 0.4
v 0.7 0.2 0.4
v 0.8 0 0.4
v 0.8 0.1 0.4
v -0.8 0 3.72529e-008
v -0.8 0.2 3.72529e-008
v -0.8 0.7 3.72529e-008
v -0.8 0.8 3.72529e-008
v -0.7 0 3.72529e-008
v -0.7 0.1 3.72529e-008
v -0.7 0.2 3.72529e-008
v -0.7 0.7 3.72529e-008
v 0.7 0 3.72529e-008
v 0.7 0.1 3.72529e-008
v 0.7 0.2 3.72529e-008
v 0.7 0.7 3.72529e-008
v 0.8 0 3.72529e-008
v 0.8 0.2 3.72529e-008
v 0.8 0.7 3.72529e-008
v 0.8 0.8 3.72529e-008
v -0.7 0 0.6
v -0.6 0 0.6
v 0.6 0 0.6
v 0.7 0 0.6
v -0.8 0 0.5
v -0.7 0 0.5
v -0.6 0 0.5
v 0.6 0 0.5
v 0.7 0 0.5
v 0.8 0 0.5
v -0.8 0 0.4
v -0.7 0 0.4
v 0.7 0 0.4
v 0.8 0 0.4
v -0.8 0 0.1
v -0.7 0 0.1
v 0.7 0 0.1
v 0.8 0 0.1
v -0.8 0 3.72529e-008
v -0.7 0 3.72529e-008
v 0.7 0 3.72529e-008
v 0.8 0 3.72529e-008
v -0.6 0.1 0.6
v 0.6 0.1 0.6
v -0.7 0.1 0.5
v -0.6 0.1 0.5
v 0.6 0.1 0.5
v 0.7 0.1 0.5
v -0.8 0.1 0.4
v -0.7 0.1 0.4
v -0.6 0.1 0.4
v 0.6 0.1 0.4
v 0.7 0.1 0.4
v 0.8 0.1 0.4
v -0.7 0.1 0.2
v -0.6 0.1 0.2
v 0.6 0.1 0.2
v 0.7 0.1 0.2
v -0.8 0.1 0.1
v -0.7 0.1 0.1
v -0.6 0.1 0.1
v 0.6 0.1 0.1
v 0.7 0.1 0.1
v 0.8 0.1 0.1
v -0.7 0.1 3.72529e-008
v 0.7 0.1 3.72529e-008
v -0.6 0.2 0.5
v 0.6 0.2 0.5
v -0.7 0.2 0.4
v -0.6 0.2 0.4
v 0.6 0.2 0.4
v 0.7 0.2 0.4
v -0.7 0.2 0.2
v -0.6 0.2 0.2
v 0.6 0.2 0.2
v 0.7 0.2 0.2
v -0.6 0.2 0.1
v 0.6 0.2 0.1
v -0.1 0.3 0.6
v 0.1 0.3 0.6
v -0.1 0.3 0.5
v 0.1 0.3 0.5
v -0.4 0.4 0.6
v -0.3 0.4 0.6
v 0.3 0.4 0.6
v 0.4 0.4 0.6
v -0.4 0.4 0.5
v -0.3 0.4 0.5
v 0.3 0.4 0.5
v 0.4 0.4 0.5
v -0.2 0.4 0.4
v 0.2 0.4 0.4
v -0.2 0.4 0.1
v 0.2 0.4 0.1
v -0.1 0.5 0.6
v 0.1 0.5 0.6
v -0.1 0.5 0.5
v 0.1 0.5 0.5
v -0.5 0.6 0.4
v -0.3 0.6 0.4
v -0.2 0.6 0.4
v 0.2 0.6 0.4
v 0.3 0.6 0.4
v 0.5 0.6 0.4
v -0.5 0.6 0.1
v -0.3 0.6 0.1
v -0.2 0.6 0.1
v 0.2 0.6 0.1
v 0.3 0.6 0.1
v 0.5 0.6 0.1
v -0.8 0.7 0.6
v 0.8 0.7 0.6
v -0.7 0.7 0.5
v -0.6 0.7 0.5
v 0.6 0.7 0.5
v 0.7 0.7 0.5
v -0.8 0.7 3.72529e-008
v -0.7 0.7 3.72529e-008
v 0.7 0.7 3.72529e-008
v 0.8 0.7 3.72529e-008
v -0.7 0.2 0.6
v 0.7 0.2 0.6
v -0.8 0.2 0.5
v -0.7 0.2 0.5
v -0.6 0.2 0.5
v 0.6 0.2 0.5
v 0.7 0.2 0.5
v 0.8 0.2 0.5
v -0.8 0.2 3.72529e-008
v -0.7 0.2 3.72529e-008
v 0.7 0.2 3.72529e-008
v 0.8 0.2 3.72529e-008
v -0.5 0.3 0.4
v -0.3 0.3 0.4
v -0.2 0.3 0.4
v 0.2 0.3 0.4
v 0.3 0.3 0.4
v 0.5 0.3 0.4
v -0.5 0.3 0.3
v -0.3 0.3 0.3
v -0.2 0.3 0.1
v 0.2 0.3 0.1
v 0.3 0.3 0.1
v 0.5 0.3 0.1
v -0.1 0.4 0.6
v 0.1 0.4 0.6
v -0.1 0.4 0.5
v 0.1 0.4 0.5
v -0.4 0.5 0.6
v -0.3 0.5 0.6
v 0.3 0.5 0.6
v 0.4 0.5 0.6
v -0.4 0.5 0.5
v -0.3 0.5 0.5
v 0.3 0.5 0.5
v 0.4 0.5 0.5
v -0.2 0.5 0.4
v 0.2 0.5 0.4
v -0.5 0.5 0.3
v -0.3 0.5 0.3
v -0.5 0.5 0.1
v -0.3 0.5 0.1
v -0.2 0.5 0.1
v 0.2 0.5 0.1
v -0.1 0.6 0.6
v 0.1 0.6 0.6
v -0.1 0.6 0.5
v 0.1 0.6 0.5
v -0.8 0.8 0.6
v 0.8 0.8 0.6
v -0.8 0.8 3.72529e-008
v 0.8 0.8 3.72529e-008

# faces
f 5/2/1 2/2/1 1/2/1
f 6/2/1 4/2/1 3/2/1
f 7/2/1 5/2/1 1/2/1
f 7/2/1 6/2/1 5/2/1
f 8/2/1 4/2/1 6/2/1
f 8/2/1 6/2/1 7/2/1
f 11/2/1 10/2/1 9/2/1
f 12/2/1 10/2/1 11/2/1
f 15/2/1 14/2/1 13/2/1
f 16/2/1 14/2/1 15/2/1
f 18/1/1 17/1/1 16/1/1
f 19/1/1 17/1/1 18/1/1
f 22/4/1 21/4/1 20/4/1
f 23/4/1 21/4/1 22/4/1
f 26/1/1 25/1/1 24/1/1
f 27/1/1 26/1/1 24/1/1
f 29/1/1 27/1/1 24/1/1
f 29/1/1 28/1/1 27/1/1
f 30/1/1 28/1/1 29/1/1
f 33/4/1 32/4/1 31/4/1
f 34/4/1 32/4/1 33/4/1
f 37/4/1 36/4/1 35/4/1
f 38/4/1 36/4/1 37/4/1
f 41/1/1 40/1/1 39/1/1
f 42/1/1 40/1/1 41/1/1
f 45/1/1 44/1/1 43/1/1
f 46/1/1 44/1/1 45/1/1
f 49/4/1 48/4/1 47/4/1
f 50/4/1 48/4/1 49/4/1
f 53/1/1 52/1/1 51/1/1
f 54/1/1 52/1/1 53/1/1
f 57/2/1 56/2/1 55/2/1
f 58/2/1 56/2/1 57/2/1
f 62/2/1 59/2/1 58/2/1
f 63/2/1 59/2/1 62/2/1
f 64/2/1 61/2/1 60/2/1
f 65/2/1 61/2/1 64/2/1
f 70/2/1 67/2/1 66/2/1
f 71/2/1 67/2/1 70/2/1
f 73/2/1 69/2/1 68/2/1
f 74/2/1 69/2/1 73/2/1
f 75/2/1 72/2/1 71/2/1
f 76/2/1 72/2/1 75/2/1
f 77/2/2 78/2/2 81/2/2
f 81/2/2 78/2/2 82/2/2
f 79/2/2 80/2/2 84/2/2
f 84/2/2 80/2/2 85/2/2
f 82/2/2 83/2/2 86/2/2
f 86/2/2 83/2/2 87/2/2
f 88/2/2 89/2/2 90/2/2
f 90/2/2 89/2/2 91/2/2
f 91/2/2 92/2/2 95/2/2
f 95/2/2 92/2/2 96/2/2
f 93/2/2 94/2/2 97/2/2
f 97/2/2 94/2/2 98/2/2
f 99/1/2 100/1/2 101/1/2
f 99/1/2 101/1/2 102/1/2
f 99/1/2 102/1/2 104/1/2
f 102/1/2 103/1/2 104/1/2
f 104/1/2 103/1/2 105/1/2
f 106/4/2 107/4/2 108/4/2
f 108/4/2 107/4/2 109/4/2
f 110/1/2 111/1/2 112/1/2
f 112/1/2 111/1/2 113/1/2
f 114/1/2 115/1/2 116/1/2
f 116/1/2 115/1/2 117/1/2
f 118/4/2 119/4/2 120/4/2
f 120/4/2 119/4/2 121/4/2
f 122/4/2 123/4/2 124/4/2
f 124/4/2 123/4/2 125/4/2
f 126/1/2 127/1/2 128/1/2
f 128/1/2 127/1/2 129/1/2
f 130/4/2 131/4/2 132/4/2
f 132/4/2 131/4/2 133/4/2
f 134/2/2 135/2/2 136/2/2
f 136/2/2 135/2/2 137/2/2
f 137/1/2 138/1/2 139/1/2
f 139/1/2 138/1/2 140/1/2
f 141/2/2 142/2/2 145/2/2
f 143/2/2 144/2/2 146/2/2
f 141/2/2 145/2/2 147/2/2
f 145/2/2 146/2/2 147/2/2
f 146/2/2 144/2/2 148/2/2
f 147/2/2 146/2/2 148/2/2
f 149/2/2 150/2/2 151/2/2
f 151/2/2 150/2/2 152/2/2
f 157/2/3 156/2/3 155/2/3
f 158/2/3 156/2/3 157/2/3
f 161/4/3 160/4/3 159/4/3
f 162/4/3 160/4/3 161/4/3
f 167/4/3 164/4/3 163/4/3
f 168/4/3 164/4/3 167/4/3
f 169/4/3 166/4/3 165/4/3
f 170/4/3 166/4/3 169/4/3
f 173/4/3 172/4/3 171/4/3
f 174/4/3 172/4/3 173/4/3
f 176/2/3 156/2/3 158/2/3
f 177/2/3 176/2/3 175/2/3
f 178/2/3 156/2/3 176/2/3
f 178/2/3 176/2/3 177/2/3
f 179/2/3 154/2/3 153/2/3
f 180/2/3 154/2/3 179/2/3
f 183/2/3 182/2/3 181/2/3
f 184/2/3 182/2/3 183/2/3
f 186/1/3 185/1/3 184/1/3
f 187/1/3 185/1/3 186/1/3
f 188/3/3 187/3/3 186/3/3
f 189/3/3 187/3/3 188/3/3
f 190/1/3 189/1/3 188/1/3
f 191/1/3 189/1/3 190/1/3
f 192/3/3 188/3/3 186/3/3
f 192/1/3 190/1/3 188/1/3
f 193/1/3 190/1/3 192/1/3
f 194/1/3 189/1/3 191/1/3
f 195/3/3 187/3/3 189/3/3
f 195/1/3 189/1/3 194/1/3
f 196/3/3 193/3/3 192/3/3
f 196/3/3 194/3/3 193/3/3
f 196/3/3 195/3/3 194/3/3
f 196/3/3 192/3/3 186/3/3
f 197/3/3 195/3/3 196/3/3
f 198/3/3 195/3/3 197/3/3
f 199/3/3 187/3/3 195/3/3
f 199/3/3 195/3/3 198/3/3
f 200/3/3 196/3/3 186/3/3
f 200/1/3 197/1/3 196/1/3
f 201/3/3 198/3/3 197/3/3
f 201/1/3 197/1/3 200/1/3
f 202/1/3 199/1/3 198/1/3
f 202/3/3 198/3/3 201/3/3
f 203/3/3 187/3/3 199/3/3
f 203/1/3 199/1/3 202/1/3
f 204/3/3 200/3/3 186/3/3
f 205/3/3 202/3/3 201/3/3
f 206/3/3 202/3/3 205/3/3
f 207/3/3 187/3/3 203/3/3
f 208/3/3 204/3/3 186/3/3
f 208/1/3 205/1/3 204/1/3
f 209/3/3 206/3/3 205/3/3
f 209/1/3 205/1/3 208/1/3
f 210/1/3 207/1/3 206/1/3
f 210/3/3 206/3/3 209/3/3
f 211/3/3 187/3/3 207/3/3
f 211/1/3 207/1/3 210/1/3
f 212/3/3 208/3/3 186/3/3
f 212/3/3 209/3/3 208/3/3
f 212/3/3 211/3/3 210/3/3
f 212/3/3 210/3/3 209/3/3
f 213/3/3 211/3/3 212/3/3
f 214/3/3 211/3/3 213/3/3
f 215/3/3 187/3/3 211/3/3
f 215/3/3 211/3/3 214/3/3
f 216/1/3 213/1/3 212/1/3
f 217/1/3 215/1/3 214/1/3
f 218/3/3 212/3/3 186/3/3
f 218/1/3 217/1/3 216/1/3
f 218/1/3 216/1/3 212/1/3
f 219/3/3 187/3/3 215/3/3
f 219/1/3 217/1/3 218/1/3
f 219/1/3 215/1/3 217/1/3
f 220/3/3 218/3/3 186/3/3
f 220/3/3 219/3/3 218/3/3
f 221/3/3 187/3/3 219/3/3
f 221/3/3 219/3/3 220/3/3
f 223/1/3 221/1/3 220/1/3
f 224/1/3 221/1/3 223/1/3
f 225/2/3 223/2/3 222/2/3
f 226/2/3 223/2/3 225/2/3
f 230/5/3 228/5/3 227/5/3
f 231/6/3 229/6/3 228/6/3
f 231/5/3 228/5/3 230/5/3
f 232/6/3 229/6/3 231/6/3
f 235/2/3 234/2/3 233/2/3
f 236/2/3 234/2/3 235/2/3
f 239/2/3 238/2/3 237/2/3
f 240/2/3 238/2/3 239/2/3
f 243/2/3 242/2/3 241/2/3
f 244/2/3 242/2/3 243/2/3
f 249/1/3 248/1/3 247/1/3
f 250/1/3 248/1/3 249/1/3
f 255/1/3 252/1/3 251/1/3
f 256/1/3 252/1/3 255/1/3
f 257/1/3 254/1/3 253/1/3
f 258/1/3 254/1/3 257/1/3
f 261/1/3 260/1/3 259/1/3
f 262/1/3 260/1/3 261/1/3
f 263/2/3 246/2/3 245/2/3
f 264/2/3 246/2/3 263/2/3
f 267/2/3 266/2/3 265/2/3
f 268/2/3 266/2/3 267/2/3
f 269/2/4 270/2/4 271/2/4
f 271/2/4 270/2/4 272/2/4
f 272/2/4 273/2/4 275/2/4
f 275/2/4 273/2/4 276/2/4
f 274/2/4 275/2/4 277/2/4
f 277/2/4 275/2/4 278/2/4
f 279/2/4 280/2/4 281/2/4
f 281/2/4 280/2/4 282/2/4
f 282/2/4 283/2/4 284/2/4
f 284/2/4 283/2/4 285/2/4
f 286/1/4 287/1/4 288/1/4
f 288/1/4 287/1/4 289/1/4
f 290/1/4 291/1/4 294/1/4
f 294/1/4 291/1/4 295/1/4
f 292/1/4 293/1/4 296/1/4
f 296/1/4 293/1/4 297/1/4
f 298/1/4 299/1/4 300/1/4
f 300/1/4 299/1/4 301/1/4
f 302/2/4 303/2/4 305/2/4
f 305/2/4 303/2/4 306/2/4
f 304/2/4 305/2/4 307/2/4
f 307/2/4 305/2/4 308/2/4
f 309/2/4 310/2/4 313/2/4
f 313/2/4 310/2/4 314/2/4
f 314/2/4 310/2/4 315/2/4
f 311/2/4 312/2/4 316/2/4
f 314/2/4 315/2/4 318/2/4
f 315/1/4 316/1/4 319/1/4
f 318/2/4 315/2/4 319/2/4
f 316/2/4 312/2/4 320/2/4
f 319/1/4 316/1/4 320/1/4
f 318/2/4 319/2/4 321/2/4
f 317/2/4 318/2/4 321/2/4
f 321/2/4 319/2/4 322/2/4
f 320/2/4 312/2/4 323/2/4
f 323/2/4 312/2/4 324/2/4
f 330/2/5 326/2/5 325/2/5
f 331/2/5 326/2/5 330/2/5
f 332/2/5 328/2/5 327/2/5
f 333/2/5 328/2/5 332/2/5
f 335/2/5 330/2/5 329/2/5
f 336/2/5 330/2/5 335/2/5
f 337/2/5 334/2/5 333/2/5
f 338/2/5 334/2/5 337/2/5
f 343/2/5 340/2/5 339/2/5
f 344/2/5 340/2/5 343/2/5
f 345/2/5 342/2/5 341/2/5
f 346/2/5 342/2/5 345/2/5
f 350/2/5 348/2/5 347/2/5
f 351/2/5 348/2/5 350/2/5
f 354/2/5 350/2/5 349/2/5
f 355/2/5 350/2/5 354/2/5
f 356/2/5 352/2/5 351/2/5
f 357/2/5 352/2/5 356/2/5
f 359/2/5 354/2/5 353/2/5
f 362/2/5 358/2/5 357/2/5
f 363/2/5 360/2/5 359/2/5
f 363/2/5 359/2/5 353/2/5
f 364/2/5 360/2/5 363/2/5
f 365/2/5 360/2/5 364/2/5
f 366/2/5 362/2/5 361/2/5
f 367/2/5 358/2/5 362/2/5
f 367/2/5 362/2/5 366/2/5
f 368/2/5 358/2/5 367/2/5
f 369/2/5 365/2/5 364/2/5
f 369/2/5 366/2/5 365/2/5
f 369/2/5 367/2/5 366/2/5
f 370/2/5 367/2/5 369/2/5
f 374/3/5 372/3/5 371/3/5
f 375/3/5 372/3/5 374/3/5
f 377/1/5 374/1/5 373/1/5
f 377/1/5 376/1/5 375/1/5
f 377/1/5 375/1/5 374/1/5
f 378/1/5 376/1/5 377/1/5
f 379/1/5 376/1/5 378/1/5
f 380/1/5 376/1/5 379/1/5
f 381/1/5 379/1/5 378/1/5
f 382/1/5 379/1/5 381/1/5
f 385/4/5 384/4/5 383/4/5
f 386/4/5 384/4/5 385/4/5
f 391/4/5 388/4/5 387/4/5
f 392/4/5 388/4/5 391/4/5
f 393/4/5 390/4/5 389/4/5
f 394/4/5 390/4/5 393/4/5
f 397/1/5 396/1/5 395/1/5
f 398/1/5 396/1/5 397/1/5
f 401/4/5 400/4/5 399/4/5
f 402/4/5 400/4/5 401/4/5
f 409/1/5 404/1/5 403/1/5
f 410/1/5 404/1/5 409/1/5
f 411/1/5 406/1/5 405/1/5
f 412/1/5 406/1/5 411/1/5
f 413/1/5 408/1/5 407/1/5
f 414/1/5 408/1/5 413/1/5
f 417/2/5 416/2/5 415/2/5
f 418/2/5 416/2/5 417/2/5
f 419/2/5 416/2/5 418/2/5
f 420/2/5 416/2/5 419/2/5
f 421/2/5 417/2/5 415/2/5
f 422/2/5 417/2/5 421/2/5
f 423/2/5 416/2/5 420/2/5
f 424/2/5 416/2/5 423/2/5
f 425/2/6 426/2/6 428/2/6
f 428/2/6 426/2/6 429/2/6
f 429/2/6 426/2/6 430/2/6
f 430/2/6 426/2/6 431/2/6
f 427/2/6 428/2/6 433/2/6
f 433/2/6 428/2/6 434/2/6
f 431/2/6 432/2/6 435/2/6
f 435/2/6 432/2/6 436/2/6
f 437/1/6 438/1/6 443/1/6
f 443/1/6 438/1/6 444/1/6
f 439/1/6 440/1/6 445/1/6
f 445/1/6 440/1/6 446/1/6
f 441/1/6 442/1/6 447/1/6
f 447/1/6 442/1/6 448/1/6
f 449/4/6 450/4/6 451/4/6
f 451/4/6 450/4/6 452/4/6
f 453/4/6 454/4/6 457/4/6
f 457/4/6 454/4/6 458/4/6
f 455/4/6 456/4/6 459/4/6
f 459/4/6 456/4/6 460/4/6
f 463/6/6 464/6/6 465/6/6
f 465/6/6 464/6/6 466/6/6
f 461/1/6 462/1/6 467/1/6
f 467/1/6 462/1/6 468/1/6
f 469/4/6 470/4/6 471/4/6
f 471/4/6 470/4/6 472/4/6
f 473/2/6 474/2/6 475/2/6
f 475/2/6 474/2/6 476/2/6
