# MagicaVoxel @ Ephtracy

# group
o display_cabinet

# material
mtllib diningroom_dark-0-display_cabinet.mtl
usemtl palette

# normals
vn -1 0 0
vn 1 0 0
vn 0 0 1
vn 0 0 -1
vn 0 -1 0
vn 0 1 0

# texcoords
vt 0.00195313 0.5
vt 0.220703 0.5
vt 0.224609 0.5
vt 0.228516 0.5
vt 0.470703 0.5
vt 0.599609 0.5
vt 0.607422 0.5
vt 0.611328 0.5

# verts
v -0.5 0 3.9
v -0.5 0 3.8
v -0.5 0 3.6
v -0.5 0 3.5
v -0.5 0.1 3.8
v -0.5 0.1 3.6
v -0.5 0.2 3.9
v -0.5 0.2 3.5
v -0.5 1.9 4
v -0.5 1.9 3.5
v -0.5 2 4
v -0.5 2 3.5
v -0.4 0 4
v -0.4 0 3.9
v -0.4 0.2 4
v -0.4 0.2 3.9
v -0.4 0.2 3.5
v -0.4 1.9 3.9
v -0.4 1.9 3.5
v -0.1 0.3 4
v -0.1 0.3 3.9
v -0.1 0.4 4
v -0.1 0.4 3.9
v -0.1 0.6 4
v -0.1 0.6 3.9
v -0.1 0.7 4
v -0.1 0.7 3.9
v -0.1 0.8 3.8
v -0.1 0.8 3.7
v -0.1 0.9 3.8
v -0.1 0.9 3.7
v 0.1 0.3 4
v 0.1 0.3 3.9
v 0.1 0.4 4
v 0.1 0.4 3.9
v 0.1 0.6 4
v 0.1 0.6 3.9
v 0.1 0.7 4
v 0.1 0.7 3.9
v 0.1 1.2 3.8
v 0.1 1.2 3.6
v 0.1 1.3 3.8
v 0.1 1.3 3.6
v 0.1 1.6 3.7
v 0.1 1.6 3.6
v 0.1 1.7 3.7
v 0.1 1.7 3.6
v 0.3 0.3 3.8
v 0.3 0.3 3.6
v 0.3 0.4 3.8
v 0.3 0.4 3.6
v 0.3 0.5 3.8
v 0.3 0.5 3.6
v 0.3 0.7 3.8
v 0.3 0.7 3.6
v 0.3 0.8 3.8
v 0.3 0.8 3.6
v 0.3 1.1 3.8
v 0.3 1.1 3.6
v 0.3 1.3 3.8
v 0.3 1.3 3.6
v 0.3 1.5 3.8
v 0.3 1.5 3.6
v 0.3 1.6 3.8
v 0.3 1.6 3.6
v 0.3 1.8 3.8
v 0.3 1.8 3.6
v 0.4 0 4
v 0.4 0 3.9
v 0.4 0 3.6
v 0.4 0 3.5
v 0.4 0.1 4
v 0.4 0.1 3.9
v 0.4 0.1 3.7
v 0.4 0.1 3.6
v 0.4 0.1 3.5
v 0.4 0.2 3.7
v 0.4 0.2 3.6
v 0.5 0 3.9
v 0.5 0 3.8
v 0.5 0.1 3.8
v 0.5 0.1 3.7
v 0.5 0.2 3.9
v 0.5 0.2 3.7
v -0.4 0 3.9
v -0.4 0 3.8
v -0.4 0.1 3.8
v -0.4 0.1 3.7
v -0.4 0.2 3.9
v -0.4 0.2 3.7
v -0.3 0 4
v -0.3 0 3.9
v -0.3 0 3.6
v -0.3 0 3.5
v -0.3 0.1 4
v -0.3 0.1 3.9
v -0.3 0.1 3.7
v -0.3 0.1 3.6
v -0.3 0.1 3.5
v -0.3 0.2 3.7
v -0.3 0.2 3.6
v -0.2 0.3 3.8
v -0.2 0.3 3.6
v -0.2 0.4 3.8
v -0.2 0.4 3.6
v -0.2 0.5 3.8
v -0.2 0.5 3.6
v -0.2 0.7 3.8
v -0.2 0.7 3.6
v -0.2 0.8 3.8
v -0.2 0.8 3.7
v -0.2 0.9 3.7
v -0.2 0.9 3.6
v -0.2 1.1 3.8
v -0.2 1.1 3.6
v -0.2 1.2 3.8
v -0.2 1.2 3.6
v -0.2 1.5 3.8
v -0.2 1.5 3.6
v -0.2 1.6 3.8
v -0.2 1.6 3.7
v -0.2 1.7 3.7
v -0.2 1.7 3.6
v -0.2 1.8 3.8
v -0.2 1.8 3.6
v -0.1 0.8 3.7
v -0.1 0.8 3.6
v -0.1 0.9 3.7
v -0.1 0.9 3.6
v -0.1 1.6 3.7
v -0.1 1.6 3.6
v -0.1 1.7 3.7
v -0.1 1.7 3.6
v -1.49012e-008 0.3 4
v -1.49012e-008 0.3 3.9
v -1.49012e-008 0.4 4
v -1.49012e-008 0.4 3.9
v -1.49012e-008 0.6 4
v -1.49012e-008 0.6 3.9
v -1.49012e-008 0.7 4
v -1.49012e-008 0.7 3.9
v -1.49012e-008 0.8 3.8
v -1.49012e-008 0.8 3.7
v -1.49012e-008 0.9 3.8
v -1.49012e-008 0.9 3.7
v 0.2 0.3 4
v 0.2 0.3 3.9
v 0.2 0.4 4
v 0.2 0.4 3.9
v 0.2 0.6 4
v 0.2 0.6 3.9
v 0.2 0.7 4
v 0.2 0.7 3.9
v 0.2 1.6 3.7
v 0.2 1.6 3.6
v 0.2 1.7 3.7
v 0.2 1.7 3.6
v 0.5 0 4
v 0.5 0 3.9
v 0.5 0.2 4
v 0.5 0.2 3.9
v 0.5 0.2 3.5
v 0.5 1.9 3.9
v 0.5 1.9 3.5
v 0.6 0 3.9
v 0.6 0 3.8
v 0.6 0 3.6
v 0.6 0 3.5
v 0.6 0.1 3.8
v 0.6 0.1 3.6
v 0.6 0.2 3.9
v 0.6 0.2 3.5
v 0.6 1.9 4
v 0.6 1.9 3.5
v 0.6 2 4
v 0.6 2 3.5
v -0.5 1.9 4
v -0.5 2 4
v -0.4 0 4
v -0.4 0.2 4
v -0.3 0 4
v -0.3 0.1 4
v -0.1 0.3 4
v -0.1 0.4 4
v -0.1 0.6 4
v -0.1 0.7 4
v -1.49012e-008 0.3 4
v -1.49012e-008 0.4 4
v -1.49012e-008 0.6 4
v -1.49012e-008 0.7 4
v 0.1 0.3 4
v 0.1 0.4 4
v 0.1 0.6 4
v 0.1 0.7 4
v 0.2 0.3 4
v 0.2 0.4 4
v 0.2 0.6 4
v 0.2 0.7 4
v 0.4 0 4
v 0.4 0.1 4
v 0.5 0 4
v 0.5 0.2 4
v 0.6 1.9 4
v 0.6 2 4
v -0.5 0 3.9
v -0.5 0.2 3.9
v -0.4 0 3.9
v -0.4 0.2 3.9
v -0.4 1.9 3.9
v -0.3 0.2 3.9
v -0.3 1.9 3.9
v -0.2 0.2 3.9
v -0.2 0.4 3.9
v -0.2 0.5 3.9
v -0.2 0.7 3.9
v -0.2 0.8 3.9
v -0.2 1.8 3.9
v -0.1 0.3 3.9
v -0.1 0.4 3.9
v -0.1 0.6 3.9
v -0.1 0.7 3.9
v -0.1 1.1 3.9
v -0.1 1.2 3.9
v -1.49012e-008 0.3 3.9
v -1.49012e-008 0.4 3.9
v -1.49012e-008 0.6 3.9
v -1.49012e-008 0.7 3.9
v -1.49012e-008 0.8 3.9
v -1.49012e-008 1.1 3.9
v -1.49012e-008 1.2 3.9
v -1.49012e-008 1.8 3.9
v 0.1 0.3 3.9
v 0.1 0.4 3.9
v 0.1 0.6 3.9
v 0.1 0.7 3.9
v 0.1 0.8 3.9
v 0.1 1.1 3.9
v 0.1 1.2 3.9
v 0.1 1.8 3.9
v 0.2 0.3 3.9
v 0.2 0.4 3.9
v 0.2 0.6 3.9
v 0.2 0.7 3.9
v 0.2 1.1 3.9
v 0.2 1.2 3.9
v 0.3 0.2 3.9
v 0.3 0.4 3.9
v 0.3 0.5 3.9
v 0.3 0.7 3.9
v 0.3 0.8 3.9
v 0.3 1.8 3.9
v 0.4 0.2 3.9
v 0.4 1.9 3.9
v 0.5 0 3.9
v 0.5 0.2 3.9
v 0.5 1.9 3.9
v 0.6 0 3.9
v 0.6 0.2 3.9
v -0.4 0.1 3.7
v -0.4 0.2 3.7
v -0.3 0.1 3.7
v -0.3 0.2 3.7
v -0.2 0.8 3.7
v -0.2 0.9 3.7
v -0.2 1.6 3.7
v -0.2 1.7 3.7
v -0.1 0.8 3.7
v -0.1 0.9 3.7
v -0.1 1.6 3.7
v -0.1 1.7 3.7
v 0.1 1.6 3.7
v 0.1 1.7 3.7
v 0.2 1.6 3.7
v 0.2 1.7 3.7
v 0.4 0.1 3.7
v 0.4 0.2 3.7
v 0.5 0.1 3.7
v 0.5 0.2 3.7
v -0.5 0 3.6
v -0.5 0.1 3.6
v -0.3 0 3.6
v -0.3 0.1 3.6
v -0.3 0.2 3.6
v -0.2 0.3 3.6
v -0.2 0.4 3.6
v -0.2 0.5 3.6
v -0.2 0.7 3.6
v -0.2 0.9 3.6
v -0.2 1.1 3.6
v -0.2 1.2 3.6
v -0.2 1.5 3.6
v -0.2 1.7 3.6
v -0.2 1.8 3.6
v -0.1 0.8 3.6
v -0.1 0.9 3.6
v -0.1 1.6 3.6
v -0.1 1.7 3.6
v 0.1 1.2 3.6
v 0.1 1.3 3.6
v 0.1 1.6 3.6
v 0.1 1.7 3.6
v 0.2 1.6 3.6
v 0.2 1.7 3.6
v 0.3 0.3 3.6
v 0.3 0.4 3.6
v 0.3 0.5 3.6
v 0.3 0.7 3.6
v 0.3 0.8 3.6
v 0.3 1.1 3.6
v 0.3 1.3 3.6
v 0.3 1.5 3.6
v 0.3 1.6 3.6
v 0.3 1.8 3.6
v 0.4 0 3.6
v 0.4 0.1 3.6
v 0.4 0.2 3.6
v 0.6 0 3.6
v 0.6 0.1 3.6
v -0.4 0 3.9
v -0.4 0.2 3.9
v -0.3 0 3.9
v -0.3 0.1 3.9
v -0.3 0.2 3.9
v -0.2 0.2 3.9
v 0.3 0.2 3.9
v 0.4 0 3.9
v 0.4 0.1 3.9
v 0.4 0.2 3.9
v 0.5 0 3.9
v 0.5 0.2 3.9
v -0.5 0 3.8
v -0.5 0.1 3.8
v -0.4 0 3.8
v -0.4 0.1 3.8
v -0.2 0.3 3.8
v -0.2 0.4 3.8
v -0.2 0.5 3.8
v -0.2 0.7 3.8
v -0.2 0.8 3.8
v -0.2 1.1 3.8
v -0.2 1.2 3.8
v -0.2 1.5 3.8
v -0.2 1.6 3.8
v -0.2 1.8 3.8
v -0.1 0.8 3.8
v -0.1 0.9 3.8
v -1.49012e-008 0.8 3.8
v -1.49012e-008 0.9 3.8
v -1.49012e-008 1.1 3.8
v -1.49012e-008 1.2 3.8
v -1.49012e-008 1.5 3.8
v -1.49012e-008 1.6 3.8
v -1.49012e-008 1.8 3.8
v 0.1 0.8 3.8
v 0.1 1.1 3.8
v 0.1 1.2 3.8
v 0.1 1.3 3.8
v 0.1 1.5 3.8
v 0.1 1.6 3.8
v 0.1 1.8 3.8
v 0.3 0.3 3.8
v 0.3 0.4 3.8
v 0.3 0.5 3.8
v 0.3 0.7 3.8
v 0.3 0.8 3.8
v 0.3 1.1 3.8
v 0.3 1.3 3.8
v 0.3 1.5 3.8
v 0.3 1.6 3.8
v 0.3 1.8 3.8
v 0.5 0 3.8
v 0.5 0.1 3.8
v 0.6 0 3.8
v 0.6 0.1 3.8
v -0.1 0.8 3.7
v -0.1 0.9 3.7
v -1.49012e-008 0.8 3.7
v -1.49012e-008 0.9 3.7
v -0.5 0 3.5
v -0.5 0.2 3.5
v -0.5 1.9 3.5
v -0.5 2 3.5
v -0.4 0.2 3.5
v -0.4 1.9 3.5
v -0.3 0 3.5
v -0.3 0.1 3.5
v 0.4 0 3.5
v 0.4 0.1 3.5
v 0.5 0.2 3.5
v 0.5 1.9 3.5
v 0.6 0 3.5
v 0.6 0.2 3.5
v 0.6 1.9 3.5
v 0.6 2 3.5
v -0.4 0 4
v -0.3 0 4
v 0.4 0 4
v 0.5 0 4
v -0.5 0 3.9
v -0.4 0 3.9
v -0.3 0 3.9
v 0.4 0 3.9
v 0.5 0 3.9
v 0.6 0 3.9
v -0.5 0 3.8
v -0.4 0 3.8
v 0.5 0 3.8
v 0.6 0 3.8
v -0.5 0 3.6
v -0.3 0 3.6
v 0.4 0 3.6
v 0.6 0 3.6
v -0.5 0 3.5
v -0.3 0 3.5
v 0.4 0 3.5
v 0.6 0 3.5
v -0.3 0.1 4
v 0.4 0.1 4
v -0.3 0.1 3.9
v 0.4 0.1 3.9
v -0.5 0.1 3.8
v -0.4 0.1 3.8
v 0.5 0.1 3.8
v 0.6 0.1 3.8
v -0.4 0.1 3.7
v -0.3 0.1 3.7
v 0.4 0.1 3.7
v 0.5 0.1 3.7
v -0.5 0.1 3.6
v -0.3 0.1 3.6
v 0.4 0.1 3.6
v 0.6 0.1 3.6
v -0.3 0.1 3.5
v 0.4 0.1 3.5
v -0.4 0.2 3.9
v -0.3 0.2 3.9
v -0.2 0.2 3.9
v 0.3 0.2 3.9
v 0.4 0.2 3.9
v 0.5 0.2 3.9
v -0.3 0.2 3.8
v -0.2 0.2 3.8
v 0.3 0.2 3.8
v 0.4 0.2 3.8
v -0.4 0.2 3.7
v -0.3 0.2 3.7
v 0.4 0.2 3.7
v 0.5 0.2 3.7
v -0.3 0.2 3.6
v 0.4 0.2 3.6
v -0.1 0.3 4
v -1.49012e-008 0.3 4
v 0.1 0.3 4
v 0.2 0.3 4
v -0.1 0.3 3.9
v -1.49012e-008 0.3 3.9
v 0.1 0.3 3.9
v 0.2 0.3 3.9
v -0.2 0.4 3.8
v 0.3 0.4 3.8
v -0.2 0.4 3.6
v 0.3 0.4 3.6
v -0.1 0.6 4
v -1.49012e-008 0.6 4
v 0.1 0.6 4
v 0.2 0.6 4
v -0.1 0.6 3.9
v -1.49012e-008 0.6 3.9
v 0.1 0.6 3.9
v 0.2 0.6 3.9
v -0.2 0.7 3.8
v 0.3 0.7 3.8
v -0.2 0.7 3.6
v 0.3 0.7 3.6
v -0.2 1.1 3.8
v -1.49012e-008 1.1 3.8
v 0.1 1.1 3.8
v 0.3 1.1 3.8
v -0.2 1.1 3.6
v 0.3 1.1 3.6
v -0.2 1.5 3.8
v -1.49012e-008 1.5 3.8
v 0.1 1.5 3.8
v 0.3 1.5 3.8
v -0.2 1.5 3.6
v 0.3 1.5 3.6
v -0.2 1.8 3.8
v -1.49012e-008 1.8 3.8
v 0.1 1.8 3.8
v 0.3 1.8 3.8
v -0.2 1.8 3.6
v 0.3 1.8 3.6
v -0.5 1.9 4
v 0.6 1.9 4
v -0.4 1.9 3.9
v -0.3 1.9 3.9
v 0.4 1.9 3.9
v 0.5 1.9 3.9
v -0.5 1.9 3.5
v -0.4 1.9 3.5
v 0.5 1.9 3.5
v 0.6 1.9 3.5
v -0.4 0.2 4
v 0.5 0.2 4
v -0.5 0.2 3.9
v -0.4 0.2 3.9
v -0.3 0.2 3.9
v -0.2 0.2 3.9
v 0.3 0.2 3.9
v 0.4 0.2 3.9
v 0.5 0.2 3.9
v 0.6 0.2 3.9
v -0.5 0.2 3.5
v -0.4 0.2 3.5
v 0.5 0.2 3.5
v 0.6 0.2 3.5
v -0.2 0.3 3.8
v 0.3 0.3 3.8
v -0.2 0.3 3.6
v 0.3 0.3 3.6
v -0.1 0.4 4
v -1.49012e-008 0.4 4
v 0.1 0.4 4
v 0.2 0.4 4
v -0.1 0.4 3.9
v -1.49012e-008 0.4 3.9
v 0.1 0.4 3.9
v 0.2 0.4 3.9
v -0.2 0.5 3.8
v 0.3 0.5 3.8
v -0.2 0.5 3.6
v 0.3 0.5 3.6
v -0.1 0.7 4
v -1.49012e-008 0.7 4
v 0.1 0.7 4
v 0.2 0.7 4
v -0.1 0.7 3.9
v -1.49012e-008 0.7 3.9
v 0.1 0.7 3.9
v 0.2 0.7 3.9
v -0.2 0.8 3.8
v -0.1 0.8 3.8
v -1.49012e-008 0.8 3.8
v 0.1 0.8 3.8
v 0.3 0.8 3.8
v -0.2 0.8 3.7
v -0.1 0.8 3.7
v -1.49012e-008 0.8 3.7
v -0.1 0.8 3.6
v 0.3 0.8 3.6
v -0.1 0.9 3.8
v -1.49012e-008 0.9 3.8
v -0.2 0.9 3.7
v -0.1 0.9 3.7
v -1.49012e-008 0.9 3.7
v -0.2 0.9 3.6
v -0.1 0.9 3.6
v -0.2 1.2 3.8
v -1.49012e-008 1.2 3.8
v 0.1 1.2 3.8
v -0.2 1.2 3.6
v 0.1 1.2 3.6
v 0.1 1.3 3.8
v 0.3 1.3 3.8
v 0.1 1.3 3.6
v 0.3 1.3 3.6
v -0.2 1.6 3.8
v -1.49012e-008 1.6 3.8
v 0.1 1.6 3.8
v 0.3 1.6 3.8
v -0.2 1.6 3.7
v -0.1 1.6 3.7
v 0.1 1.6 3.7
v 0.2 1.6 3.7
v -0.1 1.6 3.6
v 0.1 1.6 3.6
v 0.2 1.6 3.6
v 0.3 1.6 3.6
v -0.2 1.7 3.7
v -0.1 1.7 3.7
v 0.1 1.7 3.7
v 0.2 1.7 3.7
v -0.2 1.7 3.6
v -0.1 1.7 3.6
v 0.1 1.7 3.6
v 0.2 1.7 3.6
v -0.5 2 4
v 0.6 2 4
v -0.5 2 3.5
v 0.6 2 3.5

# faces
f 5/3/1 2/3/1 1/3/1
f 6/3/1 4/3/1 3/3/1
f 7/3/1 5/3/1 1/3/1
f 7/3/1 6/3/1 5/3/1
f 8/3/1 4/3/1 6/3/1
f 8/3/1 6/3/1 7/3/1
f 11/3/1 10/3/1 9/3/1
f 12/3/1 10/3/1 11/3/1
f 15/3/1 14/3/1 13/3/1
f 16/3/1 14/3/1 15/3/1
f 18/2/1 17/2/1 16/2/1
f 19/2/1 17/2/1 18/2/1
f 22/5/1 21/5/1 20/5/1
f 23/5/1 21/5/1 22/5/1
f 26/5/1 25/5/1 24/5/1
f 27/5/1 25/5/1 26/5/1
f 30/7/1 29/7/1 28/7/1
f 31/7/1 29/7/1 30/7/1
f 34/5/1 33/5/1 32/5/1
f 35/5/1 33/5/1 34/5/1
f 38/5/1 37/5/1 36/5/1
f 39/5/1 37/5/1 38/5/1
f 42/6/1 41/6/1 40/6/1
f 43/6/1 41/6/1 42/6/1
f 46/8/1 45/8/1 44/8/1
f 47/8/1 45/8/1 46/8/1
f 50/2/1 49/2/1 48/2/1
f 51/2/1 49/2/1 50/2/1
f 54/2/1 53/2/1 52/2/1
f 55/2/1 53/2/1 54/2/1
f 58/2/1 57/2/1 56/2/1
f 59/2/1 57/2/1 58/2/1
f 62/2/1 61/2/1 60/2/1
f 63/2/1 61/2/1 62/2/1
f 66/2/1 65/2/1 64/2/1
f 67/2/1 65/2/1 66/2/1
f 72/3/1 69/3/1 68/3/1
f 73/3/1 69/3/1 72/3/1
f 75/3/1 71/3/1 70/3/1
f 76/3/1 71/3/1 75/3/1
f 77/3/1 75/3/1 74/3/1
f 78/3/1 75/3/1 77/3/1
f 81/3/1 80/3/1 79/3/1
f 83/3/1 81/3/1 79/3/1
f 83/3/1 82/3/1 81/3/1
f 84/3/1 82/3/1 83/3/1
f 85/3/2 86/3/2 87/3/2
f 85/3/2 87/3/2 89/3/2
f 87/3/2 88/3/2 89/3/2
f 89/3/2 88/3/2 90/3/2
f 91/3/2 92/3/2 95/3/2
f 95/3/2 92/3/2 96/3/2
f 93/3/2 94/3/2 98/3/2
f 98/3/2 94/3/2 99/3/2
f 97/3/2 98/3/2 100/3/2
f 100/3/2 98/3/2 101/3/2
f 102/2/2 103/2/2 104/2/2
f 104/2/2 103/2/2 105/2/2
f 106/2/2 107/2/2 108/2/2
f 108/2/2 107/2/2 109/2/2
f 110/2/2 111/2/2 112/2/2
f 110/2/2 112/2/2 114/2/2
f 112/2/2 113/2/2 114/2/2
f 114/2/2 113/2/2 115/2/2
f 116/2/2 117/2/2 118/2/2
f 118/2/2 117/2/2 119/2/2
f 120/2/2 121/2/2 122/2/2
f 120/2/2 122/2/2 124/2/2
f 122/2/2 123/2/2 124/2/2
f 124/2/2 123/2/2 125/2/2
f 126/7/2 127/7/2 128/7/2
f 128/7/2 127/7/2 129/7/2
f 130/8/2 131/8/2 132/8/2
f 132/8/2 131/8/2 133/8/2
f 134/5/2 135/5/2 136/5/2
f 136/5/2 135/5/2 137/5/2
f 138/5/2 139/5/2 140/5/2
f 140/5/2 139/5/2 141/5/2
f 142/7/2 143/7/2 144/7/2
f 144/7/2 143/7/2 145/7/2
f 146/5/2 147/5/2 148/5/2
f 148/5/2 147/5/2 149/5/2
f 150/5/2 151/5/2 152/5/2
f 152/5/2 151/5/2 153/5/2
f 154/8/2 155/8/2 156/8/2
f 156/8/2 155/8/2 157/8/2
f 158/3/2 159/3/2 160/3/2
f 160/3/2 159/3/2 161/3/2
f 161/2/2 162/2/2 163/2/2
f 163/2/2 162/2/2 164/2/2
f 165/3/2 166/3/2 169/3/2
f 167/3/2 168/3/2 170/3/2
f 165/3/2 169/3/2 171/3/2
f 169/3/2 170/3/2 171/3/2
f 170/3/2 168/3/2 172/3/2
f 171/3/2 170/3/2 172/3/2
f 173/3/2 174/3/2 175/3/2
f 175/3/2 174/3/2 176/3/2
f 181/3/3 180/3/3 179/3/3
f 182/3/3 180/3/3 181/3/3
f 187/5/3 184/5/3 183/5/3
f 188/5/3 184/5/3 187/5/3
f 189/5/3 186/5/3 185/5/3
f 190/5/3 186/5/3 189/5/3
f 195/5/3 192/5/3 191/5/3
f 196/5/3 192/5/3 195/5/3
f 197/5/3 194/5/3 193/5/3
f 198/5/3 194/5/3 197/5/3
f 200/3/3 180/3/3 182/3/3
f 201/3/3 200/3/3 199/3/3
f 202/3/3 180/3/3 200/3/3
f 202/3/3 200/3/3 201/3/3
f 203/3/3 178/3/3 177/3/3
f 204/3/3 178/3/3 203/3/3
f 207/3/3 206/3/3 205/3/3
f 208/3/3 206/3/3 207/3/3
f 210/2/3 209/2/3 208/2/3
f 211/2/3 209/2/3 210/2/3
f 212/4/3 211/4/3 210/4/3
f 213/4/3 211/4/3 212/4/3
f 214/4/3 211/4/3 213/4/3
f 215/4/3 211/4/3 214/4/3
f 216/4/3 211/4/3 215/4/3
f 217/4/3 211/4/3 216/4/3
f 218/2/3 213/2/3 212/2/3
f 219/4/3 214/4/3 213/4/3
f 219/2/3 213/2/3 218/2/3
f 220/2/3 215/2/3 214/2/3
f 221/4/3 216/4/3 215/4/3
f 221/2/3 215/2/3 220/2/3
f 222/1/3 217/1/3 216/1/3
f 223/1/3 217/1/3 222/1/3
f 224/2/3 218/2/3 212/2/3
f 225/4/3 214/4/3 219/4/3
f 226/2/3 220/2/3 214/2/3
f 227/4/3 216/4/3 221/4/3
f 228/1/3 222/1/3 216/1/3
f 228/4/3 216/4/3 227/4/3
f 229/5/3 223/5/3 222/5/3
f 229/1/3 222/1/3 228/1/3
f 230/1/3 217/1/3 223/1/3
f 230/5/3 223/5/3 229/5/3
f 231/4/3 211/4/3 217/4/3
f 231/1/3 217/1/3 230/1/3
f 232/2/3 224/2/3 212/2/3
f 232/2/3 225/2/3 224/2/3
f 233/4/3 214/4/3 225/4/3
f 233/2/3 225/2/3 232/2/3
f 234/2/3 226/2/3 214/2/3
f 234/2/3 227/2/3 226/2/3
f 235/4/3 230/4/3 229/4/3
f 235/2/3 227/2/3 234/2/3
f 235/4/3 229/4/3 228/4/3
f 235/4/3 231/4/3 230/4/3
f 235/4/3 228/4/3 227/4/3
f 236/4/3 231/4/3 235/4/3
f 237/4/3 231/4/3 236/4/3
f 238/4/3 231/4/3 237/4/3
f 239/4/3 211/4/3 231/4/3
f 239/4/3 231/4/3 238/4/3
f 240/2/3 232/2/3 212/2/3
f 241/4/3 214/4/3 233/4/3
f 242/2/3 234/2/3 214/2/3
f 243/4/3 236/4/3 235/4/3
f 244/5/3 238/5/3 237/5/3
f 244/1/3 237/1/3 236/1/3
f 245/1/3 239/1/3 238/1/3
f 245/5/3 238/5/3 244/5/3
f 246/2/3 241/2/3 240/2/3
f 246/2/3 240/2/3 212/2/3
f 247/4/3 214/4/3 241/4/3
f 247/2/3 241/2/3 246/2/3
f 248/2/3 243/2/3 242/2/3
f 248/4/3 214/4/3 247/4/3
f 248/2/3 242/2/3 214/2/3
f 249/4/3 236/4/3 243/4/3
f 249/2/3 243/2/3 248/2/3
f 250/1/3 245/1/3 244/1/3
f 250/4/3 236/4/3 249/4/3
f 250/1/3 244/1/3 236/1/3
f 251/1/3 239/1/3 245/1/3
f 251/1/3 245/1/3 250/1/3
f 251/4/3 211/4/3 239/4/3
f 252/4/3 250/4/3 249/4/3
f 252/4/3 247/4/3 246/4/3
f 252/4/3 251/4/3 250/4/3
f 252/4/3 249/4/3 248/4/3
f 252/4/3 248/4/3 247/4/3
f 253/4/3 211/4/3 251/4/3
f 253/4/3 251/4/3 252/4/3
f 255/2/3 253/2/3 252/2/3
f 256/2/3 253/2/3 255/2/3
f 257/3/3 255/3/3 254/3/3
f 258/3/3 255/3/3 257/3/3
f 261/3/3 260/3/3 259/3/3
f 262/3/3 260/3/3 261/3/3
f 267/7/3 264/7/3 263/7/3
f 268/7/3 264/7/3 267/7/3
f 269/8/3 266/8/3 265/8/3
f 270/8/3 266/8/3 269/8/3
f 273/8/3 272/8/3 271/8/3
f 274/8/3 272/8/3 273/8/3
f 277/3/3 276/3/3 275/3/3
f 278/3/3 276/3/3 277/3/3
f 281/3/3 280/3/3 279/3/3
f 282/3/3 280/3/3 281/3/3
f 295/2/3 289/2/3 288/2/3
f 297/2/3 293/2/3 292/2/3
f 298/2/3 291/2/3 290/2/3
f 299/2/3 291/2/3 298/2/3
f 300/2/3 297/2/3 296/2/3
f 301/2/3 293/2/3 297/2/3
f 301/2/3 297/2/3 300/2/3
f 303/2/3 293/2/3 301/2/3
f 304/2/3 285/2/3 284/2/3
f 305/2/3 285/2/3 304/2/3
f 306/2/3 287/2/3 286/2/3
f 307/2/3 287/2/3 306/2/3
f 308/2/3 295/2/3 294/2/3
f 309/2/3 289/2/3 295/2/3
f 309/2/3 295/2/3 308/2/3
f 310/2/3 291/2/3 299/2/3
f 311/2/3 291/2/3 310/2/3
f 312/2/3 303/2/3 302/2/3
f 313/2/3 293/2/3 303/2/3
f 313/2/3 303/2/3 312/2/3
f 315/3/3 283/3/3 282/3/3
f 316/3/3 283/3/3 315/3/3
f 317/3/3 315/3/3 314/3/3
f 318/3/3 315/3/3 317/3/3
f 319/3/4 320/3/4 321/3/4
f 321/3/4 320/3/4 322/3/4
f 322/3/4 320/3/4 323/3/4
f 322/3/4 323/3/4 324/3/4
f 322/3/4 324/3/4 325/3/4
f 322/3/4 325/3/4 327/3/4
f 327/3/4 325/3/4 328/3/4
f 326/3/4 327/3/4 329/3/4
f 327/3/4 328/3/4 329/3/4
f 329/3/4 328/3/4 330/3/4
f 331/3/4 332/3/4 333/3/4
f 333/3/4 332/3/4 334/3/4
f 339/1/4 340/1/4 345/1/4
f 345/1/4 340/1/4 346/1/4
f 346/1/4 340/1/4 348/1/4
f 348/1/4 340/1/4 349/1/4
f 341/1/4 342/1/4 350/1/4
f 350/1/4 342/1/4 351/1/4
f 343/1/4 344/1/4 352/1/4
f 352/1/4 344/1/4 353/1/4
f 348/4/4 349/4/4 354/4/4
f 347/4/4 348/4/4 354/4/4
f 354/4/4 349/4/4 355/4/4
f 350/4/4 351/4/4 356/4/4
f 356/4/4 351/4/4 357/4/4
f 357/4/4 351/4/4 358/4/4
f 352/4/4 353/4/4 359/4/4
f 359/4/4 353/4/4 360/4/4
f 335/2/4 336/2/4 361/2/4
f 361/2/4 336/2/4 362/2/4
f 337/2/4 338/2/4 363/2/4
f 363/2/4 338/2/4 364/2/4
f 354/1/4 355/1/4 365/1/4
f 365/1/4 355/1/4 366/1/4
f 357/1/4 358/1/4 367/1/4
f 367/1/4 358/1/4 368/1/4
f 359/1/4 360/1/4 369/1/4
f 369/1/4 360/1/4 370/1/4
f 371/3/4 372/3/4 373/3/4
f 373/3/4 372/3/4 374/3/4
f 375/7/4 376/7/4 377/7/4
f 377/7/4 376/7/4 378/7/4
f 379/3/4 380/3/4 383/3/4
f 381/3/4 382/3/4 384/3/4
f 379/3/4 383/3/4 385/3/4
f 385/3/4 383/3/4 386/3/4
f 386/3/4 383/3/4 388/3/4
f 383/2/4 384/2/4 389/2/4
f 387/3/4 388/3/4 389/3/4
f 388/3/4 383/3/4 389/3/4
f 384/3/4 382/3/4 390/3/4
f 389/2/4 384/2/4 390/2/4
f 387/3/4 389/3/4 391/3/4
f 391/3/4 389/3/4 392/3/4
f 390/3/4 382/3/4 393/3/4
f 393/3/4 382/3/4 394/3/4
f 400/3/5 396/3/5 395/3/5
f 401/3/5 396/3/5 400/3/5
f 402/3/5 398/3/5 397/3/5
f 403/3/5 398/3/5 402/3/5
f 405/3/5 400/3/5 399/3/5
f 406/3/5 400/3/5 405/3/5
f 407/3/5 404/3/5 403/3/5
f 408/3/5 404/3/5 407/3/5
f 413/3/5 410/3/5 409/3/5
f 414/3/5 410/3/5 413/3/5
f 415/3/5 412/3/5 411/3/5
f 416/3/5 412/3/5 415/3/5
f 419/3/5 418/3/5 417/3/5
f 420/3/5 418/3/5 419/3/5
f 425/3/5 422/3/5 421/3/5
f 428/3/5 424/3/5 423/3/5
f 429/3/5 426/3/5 425/3/5
f 429/3/5 425/3/5 421/3/5
f 430/3/5 426/3/5 429/3/5
f 431/3/5 428/3/5 427/3/5
f 432/3/5 424/3/5 428/3/5
f 432/3/5 428/3/5 431/3/5
f 433/3/5 431/3/5 430/3/5
f 434/3/5 431/3/5 433/3/5
f 441/2/5 436/2/5 435/2/5
f 441/4/5 437/4/5 436/4/5
f 442/2/5 438/2/5 437/2/5
f 442/4/5 437/4/5 441/4/5
f 443/4/5 439/4/5 438/4/5
f 443/2/5 438/2/5 442/2/5
f 444/2/5 440/2/5 439/2/5
f 444/4/5 439/4/5 443/4/5
f 445/2/5 443/2/5 442/2/5
f 445/2/5 442/2/5 441/2/5
f 445/2/5 444/2/5 443/2/5
f 445/2/5 441/2/5 435/2/5
f 446/2/5 444/2/5 445/2/5
f 447/2/5 440/2/5 444/2/5
f 447/2/5 444/2/5 446/2/5
f 448/2/5 440/2/5 447/2/5
f 449/2/5 447/2/5 446/2/5
f 450/2/5 447/2/5 449/2/5
f 455/5/5 452/5/5 451/5/5
f 456/5/5 452/5/5 455/5/5
f 457/5/5 454/5/5 453/5/5
f 458/5/5 454/5/5 457/5/5
f 461/2/5 460/2/5 459/2/5
f 462/2/5 460/2/5 461/2/5
f 467/5/5 464/5/5 463/5/5
f 468/5/5 464/5/5 467/5/5
f 469/5/5 466/5/5 465/5/5
f 470/5/5 466/5/5 469/5/5
f 473/2/5 472/2/5 471/2/5
f 474/2/5 472/2/5 473/2/5
f 479/2/5 476/2/5 475/2/5
f 479/2/5 478/2/5 477/2/5
f 479/2/5 477/2/5 476/2/5
f 480/2/5 478/2/5 479/2/5
f 485/2/5 482/2/5 481/2/5
f 485/2/5 484/2/5 483/2/5
f 485/2/5 483/2/5 482/2/5
f 486/2/5 484/2/5 485/2/5
f 491/2/5 488/2/5 487/2/5
f 491/2/5 490/2/5 489/2/5
f 491/2/5 489/2/5 488/2/5
f 492/2/5 490/2/5 491/2/5
f 495/3/5 494/3/5 493/3/5
f 496/3/5 494/3/5 495/3/5
f 497/3/5 494/3/5 496/3/5
f 498/3/5 494/3/5 497/3/5
f 499/3/5 495/3/5 493/3/5
f 500/3/5 495/3/5 499/3/5
f 501/3/5 494/3/5 498/3/5
f 502/3/5 494/3/5 501/3/5
f 503/3/6 504/3/6 506/3/6
f 506/3/6 504/3/6 507/3/6
f 507/3/6 504/3/6 508/3/6
f 508/3/6 504/3/6 509/3/6
f 509/3/6 504/3/6 510/3/6
f 510/3/6 504/3/6 511/3/6
f 505/3/6 506/3/6 513/3/6
f 513/3/6 506/3/6 514/3/6
f 511/3/6 512/3/6 515/3/6
f 515/3/6 512/3/6 516/3/6
f 517/2/6 518/2/6 519/2/6
f 519/2/6 518/2/6 520/2/6
f 521/5/6 522/5/6 525/5/6
f 525/5/6 522/5/6 526/5/6
f 523/5/6 524/5/6 527/5/6
f 527/5/6 524/5/6 528/5/6
f 529/2/6 530/2/6 531/2/6
f 531/2/6 530/2/6 532/2/6
f 533/5/6 534/5/6 537/5/6
f 537/5/6 534/5/6 538/5/6
f 535/5/6 536/5/6 539/5/6
f 539/5/6 536/5/6 540/5/6
f 541/2/6 542/2/6 546/2/6
f 546/2/6 542/2/6 547/2/6
f 544/2/6 545/2/6 548/2/6
f 543/2/6 544/2/6 548/2/6
f 547/2/6 548/2/6 549/2/6
f 548/2/6 545/2/6 550/2/6
f 549/2/6 548/2/6 550/2/6
f 551/7/6 552/7/6 554/7/6
f 554/7/6 552/7/6 555/7/6
f 553/7/6 554/7/6 556/7/6
f 556/7/6 554/7/6 557/7/6
f 558/2/6 559/2/6 561/2/6
f 559/2/6 560/2/6 561/2/6
f 561/2/6 560/2/6 562/2/6
f 563/6/6 564/6/6 565/6/6
f 565/6/6 564/6/6 566/6/6
f 567/2/6 568/2/6 571/2/6
f 569/2/6 570/2/6 571/2/6
f 568/2/6 569/2/6 571/2/6
f 571/2/6 570/2/6 572/2/6
f 572/2/6 570/2/6 573/2/6
f 573/2/6 570/2/6 574/2/6
f 572/2/6 573/2/6 575/2/6
f 575/2/6 573/2/6 576/2/6
f 574/2/6 570/2/6 577/2/6
f 577/2/6 570/2/6 578/2/6
f 579/8/6 580/8/6 583/8/6
f 583/8/6 580/8/6 584/8/6
f 581/8/6 582/8/6 585/8/6
f 585/8/6 582/8/6 586/8/6
f 587/3/6 588/3/6 589/3/6
f 589/3/6 588/3/6 590/3/6
