# MagicaVoxel @ Ephtracy

# group
o sideboard_top

# material
mtllib diningroom_dark-1-sideboard_top.mtl
usemtl palette

# normals
vn -1 0 0
vn 1 0 0
vn 0 0 1
vn 0 0 -1
vn 0 -1 0
vn 0 1 0

# texcoords
vt 0.00195313 0.5
vt 0.220703 0.5
vt 0.224609 0.5
vt 0.228516 0.5
vt 0.607422 0.5
vt 0.611328 0.5
vt 0.615234 0.5

# verts
v -0.8 1.6 0.5
v -0.8 1.6 1.49012e-008
v -0.8 1.7 0.5
v -0.8 1.7 1.49012e-008
v -0.7 0.8 0.4
v -0.7 0.8 1.49012e-008
v -0.7 1.6 0.4
v -0.7 1.6 1.49012e-008
v -0.3 1 0.3
v -0.3 1 0.1
v -0.3 1.1 0.3
v -0.3 1.1 0.1
v -0.3 1.2 0.3
v -0.3 1.2 0.1
v -0.3 1.4 0.3
v -0.3 1.4 0.1
v -0.1 1.2 0.3
v -0.1 1.2 0.2
v -0.1 1.3 0.3
v -0.1 1.3 0.2
v -2.23517e-008 1 0.3
v -2.23517e-008 1 0.1
v -2.23517e-008 1.1 0.3
v -2.23517e-008 1.1 0.1
v 0.1 1.2 0.2
v 0.1 1.2 0.1
v 0.1 1.3 0.2
v 0.1 1.3 0.1
v 0.2 1.2 0.3
v 0.2 1.2 0.2
v 0.2 1.3 0.2
v 0.2 1.3 0.1
v 0.2 1.4 0.3
v 0.2 1.4 0.1
v 0.5 1 0.3
v 0.5 1 0.1
v 0.5 1.1 0.3
v 0.5 1.1 0.1
v 0.5 1.2 0.3
v 0.5 1.2 0.1
v 0.5 1.4 0.3
v 0.5 1.4 0.1
v -0.5 1 0.3
v -0.5 1 0.1
v -0.5 1.1 0.3
v -0.5 1.1 0.1
v -0.5 1.2 0.3
v -0.5 1.2 0.2
v -0.5 1.3 0.2
v -0.5 1.3 0.1
v -0.5 1.4 0.3
v -0.5 1.4 0.1
v -0.4 1.2 0.2
v -0.4 1.2 0.1
v -0.4 1.3 0.2
v -0.4 1.3 0.1
v -0.2 1 0.3
v -0.2 1 0.2
v -0.2 1.1 0.3
v -0.2 1.1 0.2
v -0.2 1.2 0.3
v -0.2 1.2 0.1
v -0.2 1.4 0.3
v -0.2 1.4 0.1
v -0.1 1 0.2
v -0.1 1 0.1
v -0.1 1.1 0.2
v -0.1 1.1 0.1
v -2.23517e-008 1.2 0.3
v -2.23517e-008 1.2 0.2
v -2.23517e-008 1.3 0.3
v -2.23517e-008 1.3 0.2
v 0.3 1 0.3
v 0.3 1 0.1
v 0.3 1.1 0.3
v 0.3 1.1 0.1
v 0.3 1.2 0.3
v 0.3 1.2 0.1
v 0.3 1.4 0.3
v 0.3 1.4 0.1
v 0.7 0.8 0.4
v 0.7 0.8 1.49012e-008
v 0.7 1.6 0.4
v 0.7 1.6 1.49012e-008
v 0.8 1.6 0.5
v 0.8 1.6 1.49012e-008
v 0.8 1.7 0.5
v 0.8 1.7 1.49012e-008
v -0.8 1.6 0.5
v -0.8 1.7 0.5
v 0.8 1.6 0.5
v 0.8 1.7 0.5
v -0.7 0.8 0.4
v -0.7 1.6 0.4
v -0.6 0.9 0.4
v -0.6 1.5 0.4
v -0.5 1 0.4
v -0.5 1.4 0.4
v -0.3 1 0.4
v -0.3 1.4 0.4
v -0.2 1 0.4
v -0.2 1.4 0.4
v 0.2 1 0.4
v 0.2 1.4 0.4
v 0.3 1 0.4
v 0.3 1.4 0.4
v 0.5 1 0.4
v 0.5 1.4 0.4
v 0.6 0.9 0.4
v 0.6 1.5 0.4
v 0.7 0.8 0.4
v 0.7 1.6 0.4
v -0.5 1.2 0.2
v -0.5 1.3 0.2
v -0.4 1.2 0.2
v -0.4 1.3 0.2
v -0.2 1 0.2
v -0.2 1.1 0.2
v -0.1 1 0.2
v -0.1 1.1 0.2
v 0.1 1.2 0.2
v 0.1 1.3 0.2
v 0.2 1.2 0.2
v 0.2 1.3 0.2
v -0.5 1 0.1
v -0.5 1.1 0.1
v -0.5 1.3 0.1
v -0.5 1.4 0.1
v -0.4 1.2 0.1
v -0.4 1.3 0.1
v -0.3 1 0.1
v -0.3 1.1 0.1
v -0.3 1.2 0.1
v -0.3 1.4 0.1
v -0.2 1.2 0.1
v -0.2 1.4 0.1
v -0.1 1 0.1
v -0.1 1.1 0.1
v -2.23517e-008 1 0.1
v -2.23517e-008 1.1 0.1
v 0.1 1.2 0.1
v 0.1 1.3 0.1
v 0.2 1.3 0.1
v 0.2 1.4 0.1
v 0.3 1 0.1
v 0.3 1.1 0.1
v 0.3 1.2 0.1
v 0.3 1.4 0.1
v 0.5 1 0.1
v 0.5 1.1 0.1
v 0.5 1.2 0.1
v 0.5 1.4 0.1
v -0.5 1 0.3
v -0.5 1.1 0.3
v -0.5 1.2 0.3
v -0.5 1.4 0.3
v -0.3 1 0.3
v -0.3 1.1 0.3
v -0.3 1.2 0.3
v -0.3 1.4 0.3
v -0.2 1 0.3
v -0.2 1.1 0.3
v -0.2 1.2 0.3
v -0.2 1.4 0.3
v -0.1 1.2 0.3
v -0.1 1.3 0.3
v -2.23517e-008 1 0.3
v -2.23517e-008 1.1 0.3
v -2.23517e-008 1.2 0.3
v -2.23517e-008 1.3 0.3
v 0.2 1.2 0.3
v 0.2 1.4 0.3
v 0.3 1 0.3
v 0.3 1.1 0.3
v 0.3 1.2 0.3
v 0.3 1.4 0.3
v 0.5 1 0.3
v 0.5 1.1 0.3
v 0.5 1.2 0.3
v 0.5 1.4 0.3
v -0.1 1.2 0.2
v -0.1 1.3 0.2
v -2.23517e-008 1.2 0.2
v -2.23517e-008 1.3 0.2
v -0.8 1.6 1.49012e-008
v -0.8 1.7 1.49012e-008
v -0.7 0.8 1.49012e-008
v -0.7 1.6 1.49012e-008
v 0.7 0.8 1.49012e-008
v 0.7 1.6 1.49012e-008
v 0.8 1.6 1.49012e-008
v 0.8 1.7 1.49012e-008
v -0.7 0.8 0.4
v 0.7 0.8 0.4
v -0.7 0.8 1.49012e-008
v 0.7 0.8 1.49012e-008
v -0.5 1.1 0.3
v -0.3 1.1 0.3
v -0.2 1.1 0.3
v -2.23517e-008 1.1 0.3
v 0.3 1.1 0.3
v 0.5 1.1 0.3
v -0.2 1.1 0.2
v -0.1 1.1 0.2
v -0.5 1.1 0.1
v -0.3 1.1 0.1
v -0.1 1.1 0.1
v -2.23517e-008 1.1 0.1
v 0.3 1.1 0.1
v 0.5 1.1 0.1
v -0.5 1.4 0.3
v -0.3 1.4 0.3
v -0.2 1.4 0.3
v 0.2 1.4 0.3
v 0.3 1.4 0.3
v 0.5 1.4 0.3
v -0.5 1.4 0.1
v -0.3 1.4 0.1
v -0.2 1.4 0.1
v 0.2 1.4 0.1
v 0.3 1.4 0.1
v 0.5 1.4 0.1
v -0.8 1.6 0.5
v 0.8 1.6 0.5
v -0.7 1.6 0.4
v 0.7 1.6 0.4
v -0.8 1.6 1.49012e-008
v -0.7 1.6 1.49012e-008
v 0.7 1.6 1.49012e-008
v 0.8 1.6 1.49012e-008
v -0.5 1 0.3
v -0.3 1 0.3
v -0.2 1 0.3
v -2.23517e-008 1 0.3
v 0.3 1 0.3
v 0.5 1 0.3
v -0.2 1 0.2
v -0.1 1 0.2
v -0.5 1 0.1
v -0.3 1 0.1
v -0.1 1 0.1
v -2.23517e-008 1 0.1
v 0.3 1 0.1
v 0.5 1 0.1
v -0.5 1.2 0.3
v -0.3 1.2 0.3
v -0.2 1.2 0.3
v -0.1 1.2 0.3
v -2.23517e-008 1.2 0.3
v 0.2 1.2 0.3
v 0.3 1.2 0.3
v 0.5 1.2 0.3
v -0.5 1.2 0.2
v -0.4 1.2 0.2
v -0.1 1.2 0.2
v -2.23517e-008 1.2 0.2
v 0.1 1.2 0.2
v 0.2 1.2 0.2
v -0.4 1.2 0.1
v -0.3 1.2 0.1
v -0.2 1.2 0.1
v 0.1 1.2 0.1
v 0.3 1.2 0.1
v 0.5 1.2 0.1
v -0.1 1.3 0.3
v -2.23517e-008 1.3 0.3
v -0.5 1.3 0.2
v -0.4 1.3 0.2
v -0.1 1.3 0.2
v -2.23517e-008 1.3 0.2
v 0.1 1.3 0.2
v 0.2 1.3 0.2
v -0.5 1.3 0.1
v -0.4 1.3 0.1
v 0.1 1.3 0.1
v 0.2 1.3 0.1
v -0.8 1.7 0.5
v 0.8 1.7 0.5
v -0.8 1.7 1.49012e-008
v 0.8 1.7 1.49012e-008

# faces
f 3/3/1 2/3/1 1/3/1
f 4/3/1 2/3/1 3/3/1
f 7/2/1 6/2/1 5/2/1
f 8/2/1 6/2/1 7/2/1
f 11/2/1 10/2/1 9/2/1
f 12/2/1 10/2/1 11/2/1
f 15/2/1 14/2/1 13/2/1
f 16/2/1 14/2/1 15/2/1
f 19/7/1 18/7/1 17/7/1
f 20/7/1 18/7/1 19/7/1
f 23/6/1 22/6/1 21/6/1
f 24/6/1 22/6/1 23/6/1
f 27/7/1 26/7/1 25/7/1
f 28/7/1 26/7/1 27/7/1
f 31/2/1 30/2/1 29/2/1
f 33/2/1 31/2/1 29/2/1
f 33/2/1 32/2/1 31/2/1
f 34/2/1 32/2/1 33/2/1
f 37/2/1 36/2/1 35/2/1
f 38/2/1 36/2/1 37/2/1
f 41/2/1 40/2/1 39/2/1
f 42/2/1 40/2/1 41/2/1
f 43/2/2 44/2/2 45/2/2
f 45/2/2 44/2/2 46/2/2
f 47/2/2 48/2/2 49/2/2
f 47/2/2 49/2/2 51/2/2
f 49/2/2 50/2/2 51/2/2
f 51/2/2 50/2/2 52/2/2
f 53/5/2 54/5/2 55/5/2
f 55/5/2 54/5/2 56/5/2
f 57/2/2 58/2/2 59/2/2
f 59/2/2 58/2/2 60/2/2
f 61/2/2 62/2/2 63/2/2
f 63/2/2 62/2/2 64/2/2
f 65/6/2 66/6/2 67/6/2
f 67/6/2 66/6/2 68/6/2
f 69/7/2 70/7/2 71/7/2
f 71/7/2 70/7/2 72/7/2
f 73/2/2 74/2/2 75/2/2
f 75/2/2 74/2/2 76/2/2
f 77/2/2 78/2/2 79/2/2
f 79/2/2 78/2/2 80/2/2
f 81/2/2 82/2/2 83/2/2
f 83/2/2 82/2/2 84/2/2
f 85/3/2 86/3/2 87/3/2
f 87/3/2 86/3/2 88/3/2
f 91/3/3 90/3/3 89/3/3
f 92/3/3 90/3/3 91/3/3
f 95/2/3 94/2/3 93/2/3
f 96/2/3 94/2/3 95/2/3
f 97/4/3 96/4/3 95/4/3
f 98/4/3 96/4/3 97/4/3
f 99/4/3 97/4/3 95/4/3
f 99/1/3 98/1/3 97/1/3
f 100/4/3 96/4/3 98/4/3
f 100/1/3 98/1/3 99/1/3
f 101/4/3 99/4/3 95/4/3
f 101/4/3 100/4/3 99/4/3
f 102/4/3 96/4/3 100/4/3
f 102/4/3 100/4/3 101/4/3
f 103/4/3 101/4/3 95/4/3
f 103/1/3 102/1/3 101/1/3
f 104/4/3 96/4/3 102/4/3
f 104/1/3 102/1/3 103/1/3
f 105/4/3 103/4/3 95/4/3
f 105/4/3 104/4/3 103/4/3
f 106/4/3 96/4/3 104/4/3
f 106/4/3 104/4/3 105/4/3
f 107/4/3 105/4/3 95/4/3
f 107/1/3 106/1/3 105/1/3
f 108/4/3 96/4/3 106/4/3
f 108/1/3 106/1/3 107/1/3
f 109/2/3 95/2/3 93/2/3
f 109/4/3 107/4/3 95/4/3
f 109/4/3 108/4/3 107/4/3
f 110/4/3 96/4/3 108/4/3
f 110/4/3 108/4/3 109/4/3
f 110/2/3 94/2/3 96/2/3
f 111/2/3 109/2/3 93/2/3
f 111/2/3 110/2/3 109/2/3
f 112/2/3 94/2/3 110/2/3
f 112/2/3 110/2/3 111/2/3
f 115/5/3 114/5/3 113/5/3
f 116/5/3 114/5/3 115/5/3
f 119/6/3 118/6/3 117/6/3
f 120/6/3 118/6/3 119/6/3
f 123/7/3 122/7/3 121/7/3
f 124/7/3 122/7/3 123/7/3
f 130/2/3 128/2/3 127/2/3
f 131/2/3 126/2/3 125/2/3
f 132/2/3 126/2/3 131/2/3
f 133/2/3 130/2/3 129/2/3
f 134/2/3 128/2/3 130/2/3
f 134/2/3 130/2/3 133/2/3
f 139/2/3 138/2/3 137/2/3
f 140/2/3 138/2/3 139/2/3
f 141/2/3 136/2/3 135/2/3
f 142/2/3 136/2/3 141/2/3
f 143/2/3 136/2/3 142/2/3
f 144/2/3 136/2/3 143/2/3
f 149/2/3 146/2/3 145/2/3
f 150/2/3 146/2/3 149/2/3
f 151/2/3 148/2/3 147/2/3
f 152/2/3 148/2/3 151/2/3
f 153/1/4 154/1/4 157/1/4
f 157/1/4 154/1/4 158/1/4
f 155/1/4 156/1/4 159/1/4
f 159/1/4 156/1/4 160/1/4
f 163/1/4 164/1/4 165/1/4
f 165/1/4 164/1/4 166/1/4
f 161/1/4 162/1/4 167/1/4
f 167/1/4 162/1/4 168/1/4
f 166/1/4 164/1/4 170/1/4
f 169/1/4 170/1/4 171/1/4
f 170/1/4 164/1/4 172/1/4
f 171/1/4 170/1/4 172/1/4
f 173/1/4 174/1/4 177/1/4
f 177/1/4 174/1/4 178/1/4
f 175/1/4 176/1/4 179/1/4
f 179/1/4 176/1/4 180/1/4
f 181/7/4 182/7/4 183/7/4
f 183/7/4 182/7/4 184/7/4
f 185/3/4 186/3/4 188/3/4
f 187/2/4 188/2/4 189/2/4
f 188/3/4 186/3/4 190/3/4
f 189/2/4 188/2/4 190/2/4
f 190/3/4 186/3/4 191/3/4
f 191/3/4 186/3/4 192/3/4
f 195/2/5 194/2/5 193/2/5
f 196/2/5 194/2/5 195/2/5
f 203/2/5 200/2/5 199/2/5
f 204/2/5 200/2/5 203/2/5
f 205/2/5 198/2/5 197/2/5
f 206/2/5 198/2/5 205/2/5
f 207/2/5 200/2/5 204/2/5
f 208/2/5 200/2/5 207/2/5
f 209/2/5 202/2/5 201/2/5
f 210/2/5 202/2/5 209/2/5
f 217/2/5 212/2/5 211/2/5
f 218/2/5 212/2/5 217/2/5
f 219/2/5 214/2/5 213/2/5
f 220/2/5 214/2/5 219/2/5
f 221/2/5 216/2/5 215/2/5
f 222/2/5 216/2/5 221/2/5
f 225/3/5 224/3/5 223/3/5
f 226/3/5 224/3/5 225/3/5
f 227/3/5 225/3/5 223/3/5
f 228/3/5 225/3/5 227/3/5
f 229/3/5 224/3/5 226/3/5
f 230/3/5 224/3/5 229/3/5
f 233/2/6 234/2/6 237/2/6
f 237/2/6 234/2/6 238/2/6
f 231/2/6 232/2/6 239/2/6
f 239/2/6 232/2/6 240/2/6
f 238/2/6 234/2/6 241/2/6
f 241/2/6 234/2/6 242/2/6
f 235/2/6 236/2/6 243/2/6
f 243/2/6 236/2/6 244/2/6
f 245/2/6 246/2/6 253/2/6
f 253/2/6 246/2/6 254/2/6
f 247/2/6 248/2/6 255/2/6
f 249/2/6 250/2/6 256/2/6
f 256/2/6 250/2/6 257/2/6
f 257/2/6 250/2/6 258/2/6
f 254/2/6 246/2/6 259/2/6
f 259/2/6 246/2/6 260/2/6
f 247/2/6 255/2/6 261/2/6
f 256/2/6 257/2/6 261/2/6
f 255/2/6 256/2/6 261/2/6
f 261/2/6 257/2/6 262/2/6
f 251/2/6 252/2/6 263/2/6
f 263/2/6 252/2/6 264/2/6
f 265/7/6 266/7/6 269/7/6
f 269/7/6 266/7/6 270/7/6
f 267/5/6 268/5/6 273/5/6
f 273/5/6 268/5/6 274/5/6
f 271/7/6 272/7/6 275/7/6
f 275/7/6 272/7/6 276/7/6
f 277/3/6 278/3/6 279/3/6
f 279/3/6 278/3/6 280/3/6
