# MagicaVoxel @ Ephtracy

# group
o couch

# material
mtllib livingroom_oldie-4-couch.mtl
usemtl palette

# normals
vn -1 0 0
vn 1 0 0
vn 0 0 1
vn 0 0 -1
vn 0 -1 0
vn 0 1 0

# texcoords
vt 0.220703 0.5
vt 0.626953 0.5
vt 0.630859 0.5

# verts
v -1.4 0.1 2.1
v -1.4 0.1 1.2
v -1.4 0.3 2.1
v -1.4 0.3 2
v -1.4 0.4 2.1
v -1.4 0.4 2
v -1.4 0.5 2.1
v -1.4 0.5 2
v -1.4 0.5 1.3
v -1.4 0.5 1.2
v -1.4 0.6 2
v -1.4 0.6 1.3
v -1.3 0 2
v -1.3 0 1.9
v -1.3 0 1.3
v -1.3 0 1.2
v -1.3 0.1 2
v -1.3 0.1 1.9
v -1.3 0.1 1.3
v -1.3 0.1 1.2
v -1.3 0.1 1.1
v -1.3 0.5 2.1
v -1.3 0.5 2
v -1.3 0.5 1.3
v -1.3 0.5 1.2
v -1.3 0.6 2.1
v -1.3 0.6 2
v -1.3 0.6 1.4
v -1.3 0.6 1.3
v -1.3 1 1.4
v -1.3 1 1.3
v -1.3 1 1.2
v -1.3 1 1.1
v -1.3 1.1 1.3
v -1.3 1.1 1.2
v -1.2 1 1.4
v -1.2 1 1.3
v -1.2 1 1.2
v -1.2 1 1.1
v -1.2 1.1 1.4
v -1.2 1.1 1.3
v -1.2 1.1 1.2
v -1.2 1.1 1.1
v -1.2 1.2 1.3
v -1.2 1.2 1.2
v -1.1 1.1 1.4
v -1.1 1.1 1.3
v -1.1 1.1 1.2
v -1.1 1.1 1.1
v -1.1 1.2 1.4
v -1.1 1.2 1.3
v -1.1 1.2 1.2
v -1.1 1.2 1.1
v 0.1 0.4 2.1
v 0.1 0.4 2
v 0.1 0.5 2.1
v 0.1 0.5 2
v 0.1 0.5 1.4
v 0.1 0.6 2
v 0.1 0.6 1.4
v 0.1 0.6 1.3
v 0.1 1.1 1.4
v 0.1 1.1 1.3
v 0.1 1.1 1.2
v 0.1 1.2 1.3
v 0.1 1.2 1.2
v 0.2 0.5 2.1
v 0.2 0.5 2
v 0.2 0.6 2.1
v 0.2 0.6 2
v 0.2 1.1 1.4
v 0.2 1.1 1.3
v 0.2 1.1 1.2
v 0.2 1.1 1.1
v 0.2 1.2 1.4
v 0.2 1.2 1.3
v 0.2 1.2 1.2
v 0.2 1.2 1.1
v 1.3 0 2
v 1.3 0 1.9
v 1.3 0 1.3
v 1.3 0 1.2
v 1.3 0.1 2
v 1.3 0.1 1.9
v 1.3 0.1 1.3
v 1.3 0.1 1.2
v 1.3 0.2 1.9
v 1.3 0.2 1.3
v -1.2 0 2
v -1.2 0 1.9
v -1.2 0 1.3
v -1.2 0 1.2
v -1.2 0.1 2
v -1.2 0.1 1.9
v -1.2 0.1 1.3
v -1.2 0.1 1.2
v -1.2 0.2 1.9
v -1.2 0.2 1.3
v -0.1 0.5 2.1
v -0.1 0.5 2
v -0.1 0.6 2.1
v -0.1 0.6 2
v -0.1 1.1 1.4
v -0.1 1.1 1.3
v -0.1 1.1 1.2
v -0.1 1.1 1.1
v -0.1 1.2 1.4
v -0.1 1.2 1.3
v -0.1 1.2 1.2
v -0.1 1.2 1.1
v 2.23517e-008 0.4 2.1
v 2.23517e-008 0.4 2
v 2.23517e-008 0.5 2.1
v 2.23517e-008 0.5 2
v 2.23517e-008 0.5 1.4
v 2.23517e-008 0.6 2
v 2.23517e-008 0.6 1.4
v 2.23517e-008 0.6 1.3
v 2.23517e-008 1.1 1.4
v 2.23517e-008 1.1 1.3
v 2.23517e-008 1.1 1.2
v 2.23517e-008 1.2 1.3
v 2.23517e-008 1.2 1.2
v 1.2 1.1 1.4
v 1.2 1.1 1.3
v 1.2 1.1 1.2
v 1.2 1.1 1.1
v 1.2 1.2 1.4
v 1.2 1.2 1.3
v 1.2 1.2 1.2
v 1.2 1.2 1.1
v 1.3 1 1.4
v 1.3 1 1.3
v 1.3 1 1.2
v 1.3 1 1.1
v 1.3 1.1 1.4
v 1.3 1.1 1.3
v 1.3 1.1 1.2
v 1.3 1.1 1.1
v 1.3 1.2 1.3
v 1.3 1.2 1.2
v 1.4 0 2
v 1.4 0 1.9
v 1.4 0 1.3
v 1.4 0 1.2
v 1.4 0.1 2
v 1.4 0.1 1.9
v 1.4 0.1 1.3
v 1.4 0.1 1.2
v 1.4 0.1 1.1
v 1.4 0.5 2.1
v 1.4 0.5 2
v 1.4 0.5 1.3
v 1.4 0.5 1.2
v 1.4 0.6 2.1
v 1.4 0.6 2
v 1.4 0.6 1.4
v 1.4 0.6 1.3
v 1.4 1 1.4
v 1.4 1 1.3
v 1.4 1 1.2
v 1.4 1 1.1
v 1.4 1.1 1.3
v 1.4 1.1 1.2
v 1.5 0.1 2.1
v 1.5 0.1 1.2
v 1.5 0.3 2.1
v 1.5 0.3 2
v 1.5 0.4 2.1
v 1.5 0.4 2
v 1.5 0.5 2.1
v 1.5 0.5 2
v 1.5 0.5 1.3
v 1.5 0.5 1.2
v 1.5 0.6 2
v 1.5 0.6 1.3
v -1.4 0.1 2.1
v -1.4 0.3 2.1
v -1.4 0.4 2.1
v -1.4 0.5 2.1
v -1.3 0.5 2.1
v -1.3 0.6 2.1
v -0.1 0.5 2.1
v -0.1 0.6 2.1
v 2.23517e-008 0.4 2.1
v 2.23517e-008 0.5 2.1
v 0.1 0.4 2.1
v 0.1 0.5 2.1
v 0.2 0.5 2.1
v 0.2 0.6 2.1
v 1.4 0.5 2.1
v 1.4 0.6 2.1
v 1.5 0.1 2.1
v 1.5 0.3 2.1
v 1.5 0.4 2.1
v 1.5 0.5 2.1
v -1.4 0.3 2
v -1.4 0.4 2
v -1.4 0.5 2
v -1.4 0.6 2
v -1.3 0 2
v -1.3 0.1 2
v -1.3 0.5 2
v -1.3 0.6 2
v -1.2 0 2
v -1.2 0.1 2
v -0.1 0.5 2
v -0.1 0.6 2
v 2.23517e-008 0.4 2
v 2.23517e-008 0.5 2
v 2.23517e-008 0.6 2
v 0.1 0.4 2
v 0.1 0.5 2
v 0.1 0.6 2
v 0.2 0.5 2
v 0.2 0.6 2
v 1.3 0 2
v 1.3 0.1 2
v 1.4 0 2
v 1.4 0.1 2
v 1.4 0.5 2
v 1.4 0.6 2
v 1.5 0.3 2
v 1.5 0.4 2
v 1.5 0.5 2
v 1.5 0.6 2
v -1.3 0.6 1.4
v -1.3 1 1.4
v -1.2 1 1.4
v -1.2 1.1 1.4
v -1.1 1.1 1.4
v -1.1 1.2 1.4
v -0.1 1.1 1.4
v -0.1 1.2 1.4
v 2.23517e-008 0.5 1.4
v 2.23517e-008 0.6 1.4
v 2.23517e-008 1.1 1.4
v 0.1 0.5 1.4
v 0.1 0.6 1.4
v 0.1 1.1 1.4
v 0.2 1.1 1.4
v 0.2 1.2 1.4
v 1.2 1.1 1.4
v 1.2 1.2 1.4
v 1.3 1 1.4
v 1.3 1.1 1.4
v 1.4 0.6 1.4
v 1.4 1 1.4
v -1.3 0 1.3
v -1.3 0.1 1.3
v -1.3 1 1.3
v -1.3 1.1 1.3
v -1.2 0 1.3
v -1.2 0.1 1.3
v -1.2 0.2 1.3
v -1.2 1 1.3
v -1.2 1.1 1.3
v -1.2 1.2 1.3
v -1.1 1.1 1.3
v -1.1 1.2 1.3
v -0.1 1.1 1.3
v -0.1 1.2 1.3
v 2.23517e-008 0.6 1.3
v 2.23517e-008 1.1 1.3
v 2.23517e-008 1.2 1.3
v 0.1 0.6 1.3
v 0.1 1.1 1.3
v 0.1 1.2 1.3
v 0.2 1.1 1.3
v 0.2 1.2 1.3
v 1.2 1.1 1.3
v 1.2 1.2 1.3
v 1.3 0 1.3
v 1.3 0.1 1.3
v 1.3 0.2 1.3
v 1.3 1 1.3
v 1.3 1.1 1.3
v 1.3 1.2 1.3
v 1.4 0 1.3
v 1.4 0.1 1.3
v 1.4 1 1.3
v 1.4 1.1 1.3
v -1.3 0 1.9
v -1.3 0.1 1.9
v -1.2 0 1.9
v -1.2 0.1 1.9
v -1.2 0.2 1.9
v 1.3 0 1.9
v 1.3 0.1 1.9
v 1.3 0.2 1.9
v 1.4 0 1.9
v 1.4 0.1 1.9
v -1.4 0.5 1.3
v -1.4 0.6 1.3
v -1.3 0.5 1.3
v -1.3 0.6 1.3
v 1.4 0.5 1.3
v 1.4 0.6 1.3
v 1.5 0.5 1.3
v 1.5 0.6 1.3
v -1.4 0.1 1.2
v -1.4 0.5 1.2
v -1.3 0 1.2
v -1.3 0.1 1.2
v -1.3 0.5 1.2
v -1.3 1 1.2
v -1.3 1.1 1.2
v -1.2 0 1.2
v -1.2 0.1 1.2
v -1.2 1 1.2
v -1.2 1.1 1.2
v -1.2 1.2 1.2
v -1.1 1.1 1.2
v -1.1 1.2 1.2
v -0.1 1.1 1.2
v -0.1 1.2 1.2
v 2.23517e-008 1.1 1.2
v 2.23517e-008 1.2 1.2
v 0.1 1.1 1.2
v 0.1 1.2 1.2
v 0.2 1.1 1.2
v 0.2 1.2 1.2
v 1.2 1.1 1.2
v 1.2 1.2 1.2
v 1.3 0 1.2
v 1.3 0.1 1.2
v 1.3 1 1.2
v 1.3 1.1 1.2
v 1.3 1.2 1.2
v 1.4 0 1.2
v 1.4 0.1 1.2
v 1.4 0.5 1.2
v 1.4 1 1.2
v 1.4 1.1 1.2
v 1.5 0.1 1.2
v 1.5 0.5 1.2
v -1.3 0.1 1.1
v -1.3 1 1.1
v -1.2 1 1.1
v -1.2 1.1 1.1
v -1.1 1.1 1.1
v -1.1 1.2 1.1
v -0.1 1.1 1.1
v -0.1 1.2 1.1
v 0.2 1.1 1.1
v 0.2 1.2 1.1
v 1.2 1.1 1.1
v 1.2 1.2 1.1
v 1.3 1 1.1
v 1.3 1.1 1.1
v 1.4 0.1 1.1
v 1.4 1 1.1
v -1.3 0 2
v -1.2 0 2
v 1.3 0 2
v 1.4 0 2
v -1.3 0 1.9
v -1.2 0 1.9
v 1.3 0 1.9
v 1.4 0 1.9
v -1.3 0 1.3
v -1.2 0 1.3
v 1.3 0 1.3
v 1.4 0 1.3
v -1.3 0 1.2
v -1.2 0 1.2
v 1.3 0 1.2
v 1.4 0 1.2
v -1.4 0.1 2.1
v 1.5 0.1 2.1
v -1.3 0.1 2
v -1.2 0.1 2
v 1.3 0.1 2
v 1.4 0.1 2
v -1.3 0.1 1.9
v -1.2 0.1 1.9
v 1.3 0.1 1.9
v 1.4 0.1 1.9
v -1.3 0.1 1.3
v -1.2 0.1 1.3
v 1.3 0.1 1.3
v 1.4 0.1 1.3
v -1.4 0.1 1.2
v -1.3 0.1 1.2
v -1.2 0.1 1.2
v 1.3 0.1 1.2
v 1.4 0.1 1.2
v 1.5 0.1 1.2
v -1.3 0.1 1.1
v 1.4 0.1 1.1
v -1.2 0.2 1.9
v 1.3 0.2 1.9
v -1.2 0.2 1.3
v 1.3 0.2 1.3
v -1.4 0.4 2.1
v 2.23517e-008 0.4 2.1
v 0.1 0.4 2.1
v 1.5 0.4 2.1
v -1.4 0.4 2
v 2.23517e-008 0.4 2
v 0.1 0.4 2
v 1.5 0.4 2
v -1.4 0.3 2.1
v 1.5 0.3 2.1
v -1.4 0.3 2
v 1.5 0.3 2
v -1.4 0.5 2.1
v -1.3 0.5 2.1
v -0.1 0.5 2.1
v 2.23517e-008 0.5 2.1
v 0.1 0.5 2.1
v 0.2 0.5 2.1
v 1.4 0.5 2.1
v 1.5 0.5 2.1
v -1.4 0.5 2
v -1.3 0.5 2
v -0.1 0.5 2
v 2.23517e-008 0.5 2
v 0.1 0.5 2
v 0.2 0.5 2
v 1.4 0.5 2
v 1.5 0.5 2
v 2.23517e-008 0.5 1.4
v 0.1 0.5 1.4
v -1.4 0.5 1.3
v -1.3 0.5 1.3
v 1.4 0.5 1.3
v 1.5 0.5 1.3
v -1.4 0.5 1.2
v -1.3 0.5 1.2
v 1.4 0.5 1.2
v 1.5 0.5 1.2
v -1.3 0.6 2.1
v -0.1 0.6 2.1
v 0.2 0.6 2.1
v 1.4 0.6 2.1
v -1.4 0.6 2
v -1.3 0.6 2
v -0.1 0.6 2
v 2.23517e-008 0.6 2
v 0.1 0.6 2
v 0.2 0.6 2
v 1.4 0.6 2
v 1.5 0.6 2
v -1.3 0.6 1.4
v 2.23517e-008 0.6 1.4
v 0.1 0.6 1.4
v 1.4 0.6 1.4
v -1.4 0.6 1.3
v -1.3 0.6 1.3
v 2.23517e-008 0.6 1.3
v 0.1 0.6 1.3
v 1.4 0.6 1.3
v 1.5 0.6 1.3
v -1.3 1 1.4
v -1.2 1 1.4
v 1.3 1 1.4
v 1.4 1 1.4
v -1.3 1 1.3
v -1.2 1 1.3
v 1.3 1 1.3
v 1.4 1 1.3
v -1.3 1 1.2
v -1.2 1 1.2
v 1.3 1 1.2
v 1.4 1 1.2
v -1.3 1 1.1
v -1.2 1 1.1
v 1.3 1 1.1
v 1.4 1 1.1
v -1.2 1.1 1.4
v -1.1 1.1 1.4
v -0.1 1.1 1.4
v 2.23517e-008 1.1 1.4
v 0.1 1.1 1.4
v 0.2 1.1 1.4
v 1.2 1.1 1.4
v 1.3 1.1 1.4
v -1.3 1.1 1.3
v -1.2 1.1 1.3
v -1.1 1.1 1.3
v -0.1 1.1 1.3
v 2.23517e-008 1.1 1.3
v 0.1 1.1 1.3
v 0.2 1.1 1.3
v 1.2 1.1 1.3
v 1.3 1.1 1.3
v 1.4 1.1 1.3
v -1.3 1.1 1.2
v -1.2 1.1 1.2
v -1.1 1.1 1.2
v -0.1 1.1 1.2
v 2.23517e-008 1.1 1.2
v 0.1 1.1 1.2
v 0.2 1.1 1.2
v 1.2 1.1 1.2
v 1.3 1.1 1.2
v 1.4 1.1 1.2
v -1.2 1.1 1.1
v -1.1 1.1 1.1
v -0.1 1.1 1.1
v 0.2 1.1 1.1
v 1.2 1.1 1.1
v 1.3 1.1 1.1
v -1.1 1.2 1.4
v -0.1 1.2 1.4
v 0.2 1.2 1.4
v 1.2 1.2 1.4
v -1.2 1.2 1.3
v -1.1 1.2 1.3
v -0.1 1.2 1.3
v 2.23517e-008 1.2 1.3
v 0.1 1.2 1.3
v 0.2 1.2 1.3
v 1.2 1.2 1.3
v 1.3 1.2 1.3
v -1.2 1.2 1.2
v -1.1 1.2 1.2
v -0.1 1.2 1.2
v 2.23517e-008 1.2 1.2
v 0.1 1.2 1.2
v 0.2 1.2 1.2
v 1.2 1.2 1.2
v 1.3 1.2 1.2
v -1.1 1.2 1.1
v -0.1 1.2 1.1
v 0.2 1.2 1.1
v 1.2 1.2 1.1

# faces
f 3/2/1 2/2/1 1/2/1
f 4/2/1 2/2/1 3/2/1
f 6/2/1 2/2/1 4/2/1
f 7/2/1 6/2/1 5/2/1
f 8/2/1 2/2/1 6/2/1
f 8/2/1 6/2/1 7/2/1
f 9/2/1 2/2/1 8/2/1
f 10/2/1 2/2/1 9/2/1
f 11/2/1 9/2/1 8/2/1
f 12/2/1 9/2/1 11/2/1
f 17/1/1 14/1/1 13/1/1
f 18/1/1 14/1/1 17/1/1
f 19/1/1 16/1/1 15/1/1
f 20/1/1 16/1/1 19/1/1
f 25/2/1 21/2/1 20/2/1
f 26/2/1 23/2/1 22/2/1
f 27/2/1 23/2/1 26/2/1
f 29/2/1 25/2/1 24/2/1
f 30/2/1 29/2/1 28/2/1
f 31/2/1 25/2/1 29/2/1
f 31/2/1 29/2/1 30/2/1
f 32/2/1 21/2/1 25/2/1
f 32/2/1 25/2/1 31/2/1
f 33/2/1 21/2/1 32/2/1
f 34/2/1 32/2/1 31/2/1
f 35/2/1 32/2/1 34/2/1
f 40/2/1 37/2/1 36/2/1
f 41/2/1 37/2/1 40/2/1
f 42/2/1 39/2/1 38/2/1
f 43/2/1 39/2/1 42/2/1
f 44/2/1 42/2/1 41/2/1
f 45/2/1 42/2/1 44/2/1
f 50/2/1 47/2/1 46/2/1
f 51/2/1 47/2/1 50/2/1
f 52/2/1 49/2/1 48/2/1
f 53/2/1 49/2/1 52/2/1
f 56/2/1 55/2/1 54/2/1
f 57/2/1 55/2/1 56/2/1
f 59/2/1 58/2/1 57/2/1
f 60/2/1 58/2/1 59/2/1
f 62/2/1 61/2/1 60/2/1
f 63/2/1 61/2/1 62/2/1
f 65/2/1 64/2/1 63/2/1
f 66/2/1 64/2/1 65/2/1
f 69/2/1 68/2/1 67/2/1
f 70/2/1 68/2/1 69/2/1
f 75/2/1 72/2/1 71/2/1
f 76/2/1 72/2/1 75/2/1
f 77/2/1 74/2/1 73/2/1
f 78/2/1 74/2/1 77/2/1
f 83/1/1 80/1/1 79/1/1
f 84/1/1 80/1/1 83/1/1
f 85/1/1 82/1/1 81/1/1
f 86/1/1 82/1/1 85/1/1
f 87/1/1 85/1/1 84/1/1
f 88/1/1 85/1/1 87/1/1
f 89/1/2 90/1/2 93/1/2
f 93/1/2 90/1/2 94/1/2
f 91/1/2 92/1/2 95/1/2
f 95/1/2 92/1/2 96/1/2
f 94/1/2 95/1/2 97/1/2
f 97/1/2 95/1/2 98/1/2
f 99/2/2 100/2/2 101/2/2
f 101/2/2 100/2/2 102/2/2
f 103/2/2 104/2/2 107/2/2
f 107/2/2 104/2/2 108/2/2
f 105/2/2 106/2/2 109/2/2
f 109/2/2 106/2/2 110/2/2
f 111/2/2 112/2/2 113/2/2
f 113/2/2 112/2/2 114/2/2
f 114/2/2 115/2/2 116/2/2
f 116/2/2 115/2/2 117/2/2
f 117/2/2 118/2/2 119/2/2
f 119/2/2 118/2/2 120/2/2
f 120/2/2 121/2/2 122/2/2
f 122/2/2 121/2/2 123/2/2
f 124/2/2 125/2/2 128/2/2
f 128/2/2 125/2/2 129/2/2
f 126/2/2 127/2/2 130/2/2
f 130/2/2 127/2/2 131/2/2
f 132/2/2 133/2/2 136/2/2
f 136/2/2 133/2/2 137/2/2
f 134/2/2 135/2/2 138/2/2
f 138/2/2 135/2/2 139/2/2
f 137/2/2 138/2/2 140/2/2
f 140/2/2 138/2/2 141/2/2
f 142/1/2 143/1/2 146/1/2
f 146/1/2 143/1/2 147/1/2
f 144/1/2 145/1/2 148/1/2
f 148/1/2 145/1/2 149/1/2
f 149/2/2 150/2/2 154/2/2
f 151/2/2 152/2/2 155/2/2
f 155/2/2 152/2/2 156/2/2
f 153/2/2 154/2/2 158/2/2
f 157/2/2 158/2/2 159/2/2
f 158/2/2 154/2/2 160/2/2
f 159/2/2 158/2/2 160/2/2
f 154/2/2 150/2/2 161/2/2
f 160/2/2 154/2/2 161/2/2
f 161/2/2 150/2/2 162/2/2
f 160/2/2 161/2/2 163/2/2
f 163/2/2 161/2/2 164/2/2
f 165/2/2 166/2/2 167/2/2
f 167/2/2 166/2/2 168/2/2
f 168/2/2 166/2/2 170/2/2
f 169/2/2 170/2/2 171/2/2
f 170/2/2 166/2/2 172/2/2
f 171/2/2 170/2/2 172/2/2
f 172/2/2 166/2/2 173/2/2
f 173/2/2 166/2/2 174/2/2
f 172/2/2 173/2/2 175/2/2
f 175/2/2 173/2/2 176/2/2
f 181/2/3 180/2/3 179/2/3
f 183/2/3 181/2/3 179/2/3
f 183/2/3 182/2/3 181/2/3
f 184/2/3 182/2/3 183/2/3
f 185/2/3 183/2/3 179/2/3
f 186/2/3 183/2/3 185/2/3
f 189/2/3 188/2/3 187/2/3
f 191/2/3 189/2/3 187/2/3
f 191/2/3 190/2/3 189/2/3
f 192/2/3 190/2/3 191/2/3
f 193/2/3 178/2/3 177/2/3
f 194/2/3 178/2/3 193/2/3
f 195/2/3 191/2/3 187/2/3
f 196/2/3 191/2/3 195/2/3
f 203/2/3 200/2/3 199/2/3
f 204/2/3 200/2/3 203/2/3
f 205/1/3 202/1/3 201/1/3
f 206/1/3 202/1/3 205/1/3
f 209/2/3 198/2/3 197/2/3
f 210/2/3 208/2/3 207/2/3
f 211/2/3 208/2/3 210/2/3
f 212/2/3 209/2/3 197/2/3
f 212/2/3 210/2/3 209/2/3
f 213/2/3 210/2/3 212/2/3
f 215/2/3 214/2/3 213/2/3
f 216/2/3 214/2/3 215/2/3
f 219/1/3 218/1/3 217/1/3
f 220/1/3 218/1/3 219/1/3
f 223/2/3 212/2/3 197/2/3
f 224/2/3 212/2/3 223/2/3
f 225/2/3 222/2/3 221/2/3
f 226/2/3 222/2/3 225/2/3
f 229/2/3 228/2/3 227/2/3
f 231/2/3 230/2/3 229/2/3
f 233/2/3 231/2/3 229/2/3
f 233/2/3 232/2/3 231/2/3
f 234/2/3 232/2/3 233/2/3
f 236/2/3 229/2/3 227/2/3
f 236/2/3 233/2/3 229/2/3
f 237/2/3 233/2/3 236/2/3
f 238/2/3 236/2/3 235/2/3
f 239/2/3 236/2/3 238/2/3
f 241/2/3 240/2/3 239/2/3
f 243/2/3 241/2/3 239/2/3
f 243/2/3 242/2/3 241/2/3
f 244/2/3 242/2/3 243/2/3
f 245/2/3 243/2/3 239/2/3
f 246/2/3 243/2/3 245/2/3
f 247/2/3 245/2/3 239/2/3
f 248/2/3 245/2/3 247/2/3
f 253/1/3 250/1/3 249/1/3
f 254/1/3 250/1/3 253/1/3
f 256/2/3 252/2/3 251/2/3
f 257/2/3 252/2/3 256/2/3
f 259/2/3 258/2/3 257/2/3
f 260/2/3 258/2/3 259/2/3
f 264/2/3 262/2/3 261/2/3
f 265/2/3 262/2/3 264/2/3
f 266/2/3 264/2/3 263/2/3
f 267/2/3 264/2/3 266/2/3
f 269/2/3 268/2/3 267/2/3
f 270/2/3 268/2/3 269/2/3
f 274/1/3 255/1/3 254/1/3
f 275/1/3 255/1/3 274/1/3
f 277/2/3 272/2/3 271/2/3
f 278/2/3 272/2/3 277/2/3
f 279/1/3 274/1/3 273/1/3
f 280/1/3 274/1/3 279/1/3
f 281/2/3 277/2/3 276/2/3
f 282/2/3 277/2/3 281/2/3
f 283/1/4 284/1/4 285/1/4
f 285/1/4 284/1/4 286/1/4
f 286/1/4 287/1/4 289/1/4
f 289/1/4 287/1/4 290/1/4
f 288/1/4 289/1/4 291/1/4
f 291/1/4 289/1/4 292/1/4
f 293/2/4 294/2/4 295/2/4
f 295/2/4 294/2/4 296/2/4
f 297/2/4 298/2/4 299/2/4
f 299/2/4 298/2/4 300/2/4
f 301/2/4 302/2/4 304/2/4
f 304/2/4 302/2/4 305/2/4
f 303/1/4 304/1/4 308/1/4
f 308/1/4 304/1/4 309/1/4
f 306/2/4 307/2/4 310/2/4
f 310/2/4 307/2/4 311/2/4
f 311/2/4 312/2/4 313/2/4
f 313/2/4 312/2/4 314/2/4
f 315/2/4 316/2/4 317/2/4
f 317/2/4 316/2/4 318/2/4
f 319/2/4 320/2/4 321/2/4
f 321/2/4 320/2/4 322/2/4
f 323/2/4 324/2/4 328/2/4
f 328/2/4 324/2/4 329/2/4
f 325/1/4 326/1/4 330/1/4
f 330/1/4 326/1/4 331/1/4
f 327/2/4 328/2/4 333/2/4
f 333/2/4 328/2/4 334/2/4
f 331/2/4 332/2/4 335/2/4
f 335/2/4 332/2/4 336/2/4
f 337/2/4 338/2/4 339/2/4
f 339/2/4 340/2/4 341/2/4
f 339/2/4 341/2/4 343/2/4
f 341/2/4 342/2/4 343/2/4
f 343/2/4 342/2/4 344/2/4
f 339/2/4 343/2/4 345/2/4
f 339/2/4 345/2/4 347/2/4
f 345/2/4 346/2/4 347/2/4
f 347/2/4 346/2/4 348/2/4
f 337/2/4 339/2/4 349/2/4
f 339/2/4 347/2/4 349/2/4
f 349/2/4 347/2/4 350/2/4
f 337/2/4 349/2/4 351/2/4
f 351/2/4 349/2/4 352/2/4
f 357/1/5 354/1/5 353/1/5
f 358/1/5 354/1/5 357/1/5
f 359/1/5 356/1/5 355/1/5
f 360/1/5 356/1/5 359/1/5
f 365/1/5 362/1/5 361/1/5
f 366/1/5 362/1/5 365/1/5
f 367/1/5 364/1/5 363/1/5
f 368/1/5 364/1/5 367/1/5
f 371/2/5 370/2/5 369/2/5
f 372/2/5 370/2/5 371/2/5
f 373/2/5 370/2/5 372/2/5
f 374/2/5 370/2/5 373/2/5
f 375/2/5 371/2/5 369/2/5
f 376/1/5 373/1/5 372/1/5
f 377/1/5 373/1/5 376/1/5
f 378/2/5 370/2/5 374/2/5
f 379/2/5 375/2/5 369/2/5
f 379/1/5 376/1/5 375/1/5
f 380/1/5 376/1/5 379/1/5
f 381/1/5 378/1/5 377/1/5
f 382/2/5 370/2/5 378/2/5
f 382/1/5 378/1/5 381/1/5
f 383/2/5 379/2/5 369/2/5
f 384/2/5 379/2/5 383/2/5
f 385/1/5 381/1/5 380/1/5
f 386/1/5 381/1/5 385/1/5
f 387/2/5 370/2/5 382/2/5
f 388/2/5 370/2/5 387/2/5
f 389/2/5 386/2/5 385/2/5
f 389/2/5 387/2/5 386/2/5
f 389/2/5 385/2/5 384/2/5
f 390/2/5 387/2/5 389/2/5
f 393/2/5 392/2/5 391/2/5
f 394/2/5 392/2/5 393/2/5
f 399/2/5 396/2/5 395/2/5
f 400/2/5 396/2/5 399/2/5
f 401/2/5 398/2/5 397/2/5
f 402/2/5 398/2/5 401/2/5
f 403/2/6 404/2/6 405/2/6
f 405/2/6 404/2/6 406/2/6
f 407/2/6 408/2/6 415/2/6
f 415/2/6 408/2/6 416/2/6
f 409/2/6 410/2/6 417/2/6
f 417/2/6 410/2/6 418/2/6
f 411/2/6 412/2/6 419/2/6
f 419/2/6 412/2/6 420/2/6
f 413/2/6 414/2/6 421/2/6
f 421/2/6 414/2/6 422/2/6
f 418/2/6 419/2/6 423/2/6
f 423/2/6 419/2/6 424/2/6
f 425/2/6 426/2/6 429/2/6
f 429/2/6 426/2/6 430/2/6
f 427/2/6 428/2/6 431/2/6
f 431/2/6 428/2/6 432/2/6
f 433/2/6 434/2/6 438/2/6
f 438/2/6 434/2/6 439/2/6
f 435/2/6 436/2/6 442/2/6
f 442/2/6 436/2/6 443/2/6
f 439/2/6 440/2/6 445/2/6
f 437/2/6 438/2/6 445/2/6
f 438/2/6 439/2/6 445/2/6
f 445/2/6 440/2/6 446/2/6
f 443/2/6 444/2/6 447/2/6
f 442/2/6 443/2/6 447/2/6
f 441/2/6 442/2/6 447/2/6
f 447/2/6 444/2/6 448/2/6
f 437/2/6 445/2/6 449/2/6
f 449/2/6 445/2/6 450/2/6
f 446/2/6 447/2/6 451/2/6
f 451/2/6 447/2/6 452/2/6
f 448/2/6 444/2/6 453/2/6
f 453/2/6 444/2/6 454/2/6
f 455/2/6 456/2/6 459/2/6
f 459/2/6 456/2/6 460/2/6
f 457/2/6 458/2/6 461/2/6
f 461/2/6 458/2/6 462/2/6
f 463/2/6 464/2/6 467/2/6
f 467/2/6 464/2/6 468/2/6
f 465/2/6 466/2/6 469/2/6
f 469/2/6 466/2/6 470/2/6
f 471/2/6 472/2/6 480/2/6
f 480/2/6 472/2/6 481/2/6
f 473/2/6 474/2/6 482/2/6
f 482/2/6 474/2/6 483/2/6
f 475/2/6 476/2/6 484/2/6
f 484/2/6 476/2/6 485/2/6
f 477/2/6 478/2/6 486/2/6
f 486/2/6 478/2/6 487/2/6
f 479/2/6 480/2/6 489/2/6
f 489/2/6 480/2/6 490/2/6
f 483/2/6 484/2/6 493/2/6
f 493/2/6 484/2/6 494/2/6
f 487/2/6 488/2/6 497/2/6
f 497/2/6 488/2/6 498/2/6
f 490/2/6 491/2/6 499/2/6
f 499/2/6 491/2/6 500/2/6
f 494/2/6 495/2/6 501/2/6
f 492/2/6 493/2/6 501/2/6
f 493/2/6 494/2/6 501/2/6
f 501/2/6 495/2/6 502/2/6
f 496/2/6 497/2/6 503/2/6
f 503/2/6 497/2/6 504/2/6
f 505/2/6 506/2/6 510/2/6
f 510/2/6 506/2/6 511/2/6
f 507/2/6 508/2/6 514/2/6
f 514/2/6 508/2/6 515/2/6
f 511/2/6 512/2/6 517/2/6
f 509/2/6 510/2/6 517/2/6
f 510/2/6 511/2/6 517/2/6
f 517/2/6 512/2/6 518/2/6
f 518/2/6 512/2/6 519/2/6
f 519/2/6 512/2/6 520/2/6
f 515/2/6 516/2/6 521/2/6
f 514/2/6 515/2/6 521/2/6
f 513/2/6 514/2/6 521/2/6
f 521/2/6 516/2/6 522/2/6
f 522/2/6 516/2/6 523/2/6
f 523/2/6 516/2/6 524/2/6
f 518/2/6 519/2/6 525/2/6
f 525/2/6 519/2/6 526/2/6
f 522/2/6 523/2/6 527/2/6
f 527/2/6 523/2/6 528/2/6
