# MagicaVoxel @ Ephtracy

# group
o chair_1

# material
mtllib livingroom_oldie-1-chair_1.mtl
usemtl palette

# normals
vn -1 0 0
vn 1 0 0
vn 0 0 1
vn 0 0 -1
vn 0 -1 0
vn 0 1 0

# texcoords
vt 0.220703 0.5
vt 0.595703 0.5
vt 0.599609 0.5
vt 0.603516 0.5

# verts
v -0.4 1.1 7.6
v -0.4 1.1 7.4
v -0.4 1.2 7.6
v -0.4 1.2 7.4
v -0.3 0 8.1
v -0.3 0 8
v -0.3 0 7.5
v -0.3 0 7.4
v -0.3 0.1 8
v -0.3 0.1 7.5
v -0.3 0.2 8
v -0.3 0.2 7.5
v -0.3 0.3 8
v -0.3 0.3 7.5
v -0.3 0.4 8
v -0.3 0.4 7.9
v -0.3 0.4 7.8
v -0.3 0.4 7.7
v -0.3 0.4 7.6
v -0.3 0.4 7.5
v -0.3 0.5 8
v -0.3 0.5 7.9
v -0.3 0.5 7.8
v -0.3 0.5 7.7
v -0.3 0.5 7.6
v -0.3 0.5 7.5
v -0.3 0.6 8
v -0.3 0.6 7.9
v -0.3 0.7 8.1
v -0.3 0.7 8
v -0.3 0.7 7.9
v -0.3 0.7 7.8
v -0.3 0.8 8
v -0.3 0.8 7.8
v -0.3 0.8 7.5
v -0.3 0.9 7.8
v -0.3 0.9 7.5
v -0.3 1.1 7.5
v -0.3 1.1 7.4
v -0.2 0.5 8
v -0.2 0.5 7.9
v -0.2 0.5 7.8
v -0.2 0.5 7.7
v -0.2 0.5 7.6
v -0.2 0.5 7.5
v -0.2 0.6 8
v -0.2 0.6 7.9
v -0.2 0.6 7.8
v -0.2 0.6 7.7
v -0.2 0.6 7.5
v 0.3 0 8.1
v 0.3 0 8
v 0.3 0 7.5
v 0.3 0 7.4
v 0.3 0.1 8.1
v 0.3 0.1 8
v 0.3 0.1 7.5
v 0.3 0.1 7.4
v 0.3 0.2 8.1
v 0.3 0.2 8
v 0.3 0.2 7.5
v 0.3 0.2 7.4
v 0.3 0.3 8.1
v 0.3 0.3 8
v 0.3 0.3 7.5
v 0.3 0.3 7.4
v 0.3 0.5 8.1
v 0.3 0.5 8
v 0.3 0.5 7.5
v 0.3 0.5 7.4
v 0.3 0.6 8
v 0.3 0.6 7.9
v 0.3 0.6 7.5
v 0.3 0.6 7.4
v 0.3 0.7 8.1
v 0.3 0.7 8
v 0.3 0.7 7.9
v 0.3 0.7 7.8
v 0.3 0.7 7.5
v 0.3 0.7 7.4
v 0.3 0.8 8
v 0.3 0.8 7.8
v 0.3 0.8 7.5
v 0.3 0.8 7.4
v 0.3 0.9 7.8
v 0.3 0.9 7.5
v 0.3 0.9 7.4
v 0.3 1.1 7.5
v 0.3 1.1 7.4
v 0.4 1.1 7.6
v 0.4 1.1 7.5
v 0.4 1.2 7.6
v 0.4 1.2 7.5
v -0.3 1.1 7.6
v -0.3 1.1 7.5
v -0.3 1.2 7.6
v -0.3 1.2 7.5
v -0.2 0 8.1
v -0.2 0 8
v -0.2 0 7.5
v -0.2 0 7.4
v -0.2 0.1 8.1
v -0.2 0.1 8
v -0.2 0.1 7.5
v -0.2 0.1 7.4
v -0.2 0.2 8.1
v -0.2 0.2 8
v -0.2 0.2 7.5
v -0.2 0.2 7.4
v -0.2 0.3 8.1
v -0.2 0.3 8
v -0.2 0.3 7.5
v -0.2 0.3 7.4
v -0.2 0.5 8.1
v -0.2 0.5 8
v -0.2 0.5 7.5
v -0.2 0.5 7.4
v -0.2 0.6 8
v -0.2 0.6 7.9
v -0.2 0.6 7.5
v -0.2 0.6 7.4
v -0.2 0.7 8.1
v -0.2 0.7 8
v -0.2 0.7 7.9
v -0.2 0.7 7.8
v -0.2 0.7 7.5
v -0.2 0.7 7.4
v -0.2 0.8 8
v -0.2 0.8 7.8
v -0.2 0.8 7.5
v -0.2 0.8 7.4
v -0.2 0.9 7.8
v -0.2 0.9 7.5
v -0.2 0.9 7.4
v -0.2 1.1 7.5
v -0.2 1.1 7.4
v 0.3 0.5 8
v 0.3 0.5 7.9
v 0.3 0.5 7.8
v 0.3 0.5 7.7
v 0.3 0.5 7.6
v 0.3 0.5 7.5
v 0.3 0.6 8
v 0.3 0.6 7.9
v 0.3 0.6 7.8
v 0.3 0.6 7.7
v 0.3 0.6 7.6
v 0.3 0.6 7.5
v 0.4 0 8.1
v 0.4 0 8
v 0.4 0 7.5
v 0.4 0 7.4
v 0.4 0.1 8
v 0.4 0.1 7.5
v 0.4 0.2 8
v 0.4 0.2 7.5
v 0.4 0.3 8
v 0.4 0.3 7.5
v 0.4 0.4 8
v 0.4 0.4 7.9
v 0.4 0.4 7.8
v 0.4 0.4 7.7
v 0.4 0.4 7.6
v 0.4 0.4 7.5
v 0.4 0.5 8
v 0.4 0.5 7.9
v 0.4 0.5 7.8
v 0.4 0.5 7.7
v 0.4 0.5 7.6
v 0.4 0.5 7.5
v 0.4 0.6 8
v 0.4 0.6 7.9
v 0.4 0.7 8.1
v 0.4 0.7 8
v 0.4 0.7 7.9
v 0.4 0.7 7.8
v 0.4 0.8 8
v 0.4 0.8 7.8
v 0.4 0.8 7.5
v 0.4 0.9 7.8
v 0.4 0.9 7.5
v 0.4 1.1 7.5
v 0.4 1.1 7.4
v 0.5 1.1 7.6
v 0.5 1.1 7.4
v 0.5 1.2 7.6
v 0.5 1.2 7.4
v -0.3 0 8.1
v -0.3 0.7 8.1
v -0.2 0 8.1
v -0.2 0.1 8.1
v -0.2 0.2 8.1
v -0.2 0.3 8.1
v -0.2 0.4 8.1
v -0.2 0.5 8.1
v -0.2 0.7 8.1
v -0.1 0.4 8.1
v -0.1 0.5 8.1
v 7.45058e-009 0.4 8.1
v 7.45058e-009 0.5 8.1
v 0.1 0.4 8.1
v 0.1 0.5 8.1
v 0.2 0.4 8.1
v 0.2 0.5 8.1
v 0.3 0 8.1
v 0.3 0.1 8.1
v 0.3 0.2 8.1
v 0.3 0.3 8.1
v 0.3 0.4 8.1
v 0.3 0.5 8.1
v 0.3 0.7 8.1
v 0.4 0 8.1
v 0.4 0.7 8.1
v -0.3 0.7 8
v -0.3 0.8 8
v -0.2 0.5 8
v -0.2 0.6 8
v -0.2 0.7 8
v -0.2 0.8 8
v -0.1 0.5 8
v -0.1 0.6 8
v 7.45058e-009 0.5 8
v 0.1 0.5 8
v 0.1 0.6 8
v 0.2 0.5 8
v 0.3 0.5 8
v 0.3 0.6 8
v 0.3 0.7 8
v 0.3 0.8 8
v 0.4 0.7 8
v 0.4 0.8 8
v -0.3 0.8 7.8
v -0.3 0.9 7.8
v -0.2 0.8 7.8
v -0.2 0.9 7.8
v 0.3 0.8 7.8
v 0.3 0.9 7.8
v 0.4 0.8 7.8
v 0.4 0.9 7.8
v -0.4 1.1 7.6
v -0.4 1.2 7.6
v -0.3 1.1 7.6
v -0.3 1.2 7.6
v 0.4 1.1 7.6
v 0.4 1.2 7.6
v 0.5 1.1 7.6
v 0.5 1.2 7.6
v -0.3 0 7.5
v -0.3 0.1 7.5
v -0.3 0.2 7.5
v -0.3 0.3 7.5
v -0.3 0.5 7.5
v -0.3 0.8 7.5
v -0.3 0.9 7.5
v -0.3 1.1 7.5
v -0.3 1.2 7.5
v -0.2 0 7.5
v -0.2 0.1 7.5
v -0.2 0.2 7.5
v -0.2 0.3 7.5
v -0.2 0.5 7.5
v -0.2 0.6 7.5
v -0.2 0.7 7.5
v -0.2 0.8 7.5
v -0.2 0.9 7.5
v -0.2 1.1 7.5
v -0.1 0.6 7.5
v 7.45058e-009 0.6 7.5
v 0.1 0.6 7.5
v 0.3 0 7.5
v 0.3 0.1 7.5
v 0.3 0.2 7.5
v 0.3 0.3 7.5
v 0.3 0.5 7.5
v 0.3 0.6 7.5
v 0.3 0.7 7.5
v 0.3 0.8 7.5
v 0.3 0.9 7.5
v 0.3 1.1 7.5
v 0.4 0 7.5
v 0.4 0.1 7.5
v 0.4 0.2 7.5
v 0.4 0.3 7.5
v 0.4 0.5 7.5
v 0.4 0.8 7.5
v 0.4 0.9 7.5
v 0.4 1.1 7.5
v 0.4 1.2 7.5
v -0.3 0 8
v -0.3 0.1 8
v -0.3 0.2 8
v -0.3 0.3 8
v -0.3 0.5 8
v -0.3 0.6 8
v -0.2 0 8
v -0.2 0.1 8
v -0.2 0.2 8
v -0.2 0.3 8
v -0.2 0.5 8
v -0.2 0.6 8
v 0.3 0 8
v 0.3 0.1 8
v 0.3 0.2 8
v 0.3 0.3 8
v 0.3 0.5 8
v 0.3 0.6 8
v 0.4 0 8
v 0.4 0.1 8
v 0.4 0.2 8
v 0.4 0.3 8
v 0.4 0.5 8
v 0.4 0.6 8
v -0.3 0.6 7.9
v -0.3 0.7 7.9
v -0.2 0.6 7.9
v -0.2 0.7 7.9
v 0.3 0.6 7.9
v 0.3 0.7 7.9
v 0.4 0.6 7.9
v 0.4 0.7 7.9
v -0.3 0.7 7.8
v -0.3 0.8 7.8
v -0.2 0.7 7.8
v -0.2 0.8 7.8
v 0.3 0.7 7.8
v 0.3 0.8 7.8
v 0.4 0.7 7.8
v 0.4 0.8 7.8
v -0.2 0.5 7.5
v -0.2 0.6 7.5
v -0.1 0.5 7.5
v -0.1 0.6 7.5
v 7.45058e-009 0.5 7.5
v 7.45058e-009 0.6 7.5
v 0.1 0.5 7.5
v 0.1 0.6 7.5
v 0.3 0.5 7.5
v 0.3 0.6 7.5
v -0.4 1.1 7.4
v -0.4 1.2 7.4
v -0.3 0 7.4
v -0.3 1.1 7.4
v -0.2 0 7.4
v -0.2 0.1 7.4
v -0.2 0.2 7.4
v -0.2 0.3 7.4
v -0.2 0.4 7.4
v -0.2 0.5 7.4
v -0.2 0.6 7.4
v -0.2 0.7 7.4
v -0.2 0.8 7.4
v -0.2 0.9 7.4
v -0.2 1.1 7.4
v 0.3 0 7.4
v 0.3 0.1 7.4
v 0.3 0.2 7.4
v 0.3 0.3 7.4
v 0.3 0.4 7.4
v 0.3 0.5 7.4
v 0.3 0.6 7.4
v 0.3 0.7 7.4
v 0.3 0.8 7.4
v 0.3 0.9 7.4
v 0.3 1.1 7.4
v 0.4 0 7.4
v 0.4 1.1 7.4
v 0.5 1.1 7.4
v 0.5 1.2 7.4
v -0.3 0 8.1
v -0.2 0 8.1
v 0.3 0 8.1
v 0.4 0 8.1
v -0.3 0 8
v -0.2 0 8
v 0.3 0 8
v 0.4 0 8
v -0.3 0 7.5
v -0.2 0 7.5
v 0.3 0 7.5
v 0.4 0 7.5
v -0.3 0 7.4
v -0.2 0 7.4
v 0.3 0 7.4
v 0.4 0 7.4
v -0.2 0.1 8.1
v 0.3 0.1 8.1
v -0.3 0.1 8
v -0.2 0.1 8
v 0.3 0.1 8
v 0.4 0.1 8
v -0.3 0.1 7.5
v -0.2 0.1 7.5
v 0.3 0.1 7.5
v 0.4 0.1 7.5
v -0.2 0.1 7.4
v 0.3 0.1 7.4
v -0.2 0.3 8.1
v 0.3 0.3 8.1
v -0.3 0.3 8
v -0.2 0.3 8
v 0.3 0.3 8
v 0.4 0.3 8
v -0.3 0.3 7.5
v -0.2 0.3 7.5
v 0.3 0.3 7.5
v 0.4 0.3 7.5
v -0.2 0.3 7.4
v 0.3 0.3 7.4
v -0.3 0.6 8
v -0.2 0.6 8
v 0.3 0.6 8
v 0.4 0.6 8
v -0.3 0.6 7.9
v -0.2 0.6 7.9
v 0.3 0.6 7.9
v 0.4 0.6 7.9
v -0.2 0.6 7.5
v -0.1 0.6 7.5
v 7.45058e-009 0.6 7.5
v 0.1 0.6 7.5
v 0.3 0.6 7.5
v -0.2 0.6 7.4
v 0.3 0.6 7.4
v -0.3 0.7 7.9
v -0.2 0.7 7.9
v 0.3 0.7 7.9
v 0.4 0.7 7.9
v -0.3 0.7 7.8
v -0.2 0.7 7.8
v 0.3 0.7 7.8
v 0.4 0.7 7.8
v -0.3 0.8 7.8
v -0.2 0.8 7.8
v 0.3 0.8 7.8
v 0.4 0.8 7.8
v -0.3 0.8 7.5
v -0.2 0.8 7.5
v 0.3 0.8 7.5
v 0.4 0.8 7.5
v -0.2 0.8 7.4
v 0.3 0.8 7.4
v -0.4 1.1 7.6
v -0.3 1.1 7.6
v 0.4 1.1 7.6
v 0.5 1.1 7.6
v -0.3 1.1 7.5
v -0.2 1.1 7.5
v 0.3 1.1 7.5
v 0.4 1.1 7.5
v -0.4 1.1 7.4
v -0.3 1.1 7.4
v -0.2 1.1 7.4
v 0.3 1.1 7.4
v 0.4 1.1 7.4
v 0.5 1.1 7.4
v -0.2 0.2 8.1
v 0.3 0.2 8.1
v -0.3 0.2 8
v -0.2 0.2 8
v 0.3 0.2 8
v 0.4 0.2 8
v -0.3 0.2 7.5
v -0.2 0.2 7.5
v 0.3 0.2 7.5
v 0.4 0.2 7.5
v -0.2 0.2 7.4
v 0.3 0.2 7.4
v -0.2 0.5 8.1
v -0.1 0.5 8.1
v 7.45058e-009 0.5 8.1
v 0.1 0.5 8.1
v 0.2 0.5 8.1
v 0.3 0.5 8.1
v -0.3 0.5 8
v -0.2 0.5 8
v -0.1 0.5 8
v 7.45058e-009 0.5 8
v 0.1 0.5 8
v 0.2 0.5 8
v 0.3 0.5 8
v 0.4 0.5 8
v -0.3 0.5 7.9
v -0.2 0.5 7.9
v 0.3 0.5 7.9
v 0.4 0.5 7.9
v -0.3 0.5 7.8
v -0.2 0.5 7.8
v 0.3 0.5 7.8
v 0.4 0.5 7.8
v -0.3 0.5 7.7
v -0.2 0.5 7.7
v 0.3 0.5 7.7
v 0.4 0.5 7.7
v -0.3 0.5 7.6
v -0.2 0.5 7.6
v 0.3 0.5 7.6
v 0.4 0.5 7.6
v -0.3 0.5 7.5
v -0.2 0.5 7.5
v -0.1 0.5 7.5
v 7.45058e-009 0.5 7.5
v 0.1 0.5 7.5
v 0.3 0.5 7.5
v 0.4 0.5 7.5
v -0.2 0.5 7.4
v 0.3 0.5 7.4
v -0.2 0.6 8
v -0.1 0.6 8
v 0.1 0.6 8
v 0.3 0.6 8
v -0.2 0.6 7.9
v -0.1 0.6 7.9
v 7.45058e-009 0.6 7.9
v 0.1 0.6 7.9
v 0.2 0.6 7.9
v 0.3 0.6 7.9
v -0.2 0.6 7.8
v -0.1 0.6 7.8
v 7.45058e-009 0.6 7.8
v 0.1 0.6 7.8
v 0.2 0.6 7.8
v 0.3 0.6 7.8
v -0.2 0.6 7.7
v -0.1 0.6 7.7
v 7.45058e-009 0.6 7.7
v 0.1 0.6 7.7
v 0.2 0.6 7.7
v 0.3 0.6 7.7
v 7.45058e-009 0.6 7.6
v 0.1 0.6 7.6
v 0.3 0.6 7.6
v -0.2 0.6 7.5
v -0.1 0.6 7.5
v 7.45058e-009 0.6 7.5
v 0.1 0.6 7.5
v 0.3 0.6 7.5
v -0.3 0.7 8.1
v -0.2 0.7 8.1
v 0.3 0.7 8.1
v 0.4 0.7 8.1
v -0.3 0.7 8
v -0.2 0.7 8
v 0.3 0.7 8
v 0.4 0.7 8
v -0.2 0.7 7.5
v 0.3 0.7 7.5
v -0.2 0.7 7.4
v 0.3 0.7 7.4
v -0.3 0.8 8
v -0.2 0.8 8
v 0.3 0.8 8
v 0.4 0.8 8
v -0.3 0.8 7.8
v -0.2 0.8 7.8
v 0.3 0.8 7.8
v 0.4 0.8 7.8
v -0.3 0.9 7.8
v -0.2 0.9 7.8
v 0.3 0.9 7.8
v 0.4 0.9 7.8
v -0.3 0.9 7.5
v -0.2 0.9 7.5
v 0.3 0.9 7.5
v 0.4 0.9 7.5
v -0.2 0.9 7.4
v 0.3 0.9 7.4
v -0.4 1.2 7.6
v -0.3 1.2 7.6
v 0.4 1.2 7.6
v 0.5 1.2 7.6
v -0.3 1.2 7.5
v 0.4 1.2 7.5
v -0.4 1.2 7.4
v 0.5 1.2 7.4

# faces
f 3/1/1 2/1/1 1/1/1
f 4/1/1 2/1/1 3/1/1
f 9/1/1 6/1/1 5/1/1
f 10/1/1 8/1/1 7/1/1
f 11/1/1 9/1/1 5/1/1
f 11/1/1 10/1/1 9/1/1
f 12/1/1 8/1/1 10/1/1
f 12/1/1 10/1/1 11/1/1
f 13/1/1 11/1/1 5/1/1
f 14/1/1 8/1/1 12/1/1
f 15/1/1 13/1/1 5/1/1
f 15/1/1 14/1/1 13/1/1
f 16/1/1 14/1/1 15/1/1
f 17/1/1 14/1/1 16/1/1
f 18/1/1 14/1/1 17/1/1
f 19/1/1 14/1/1 18/1/1
f 20/1/1 8/1/1 14/1/1
f 20/1/1 14/1/1 19/1/1
f 21/1/1 15/1/1 5/1/1
f 21/2/1 16/2/1 15/2/1
f 22/3/1 17/3/1 16/3/1
f 22/2/1 16/2/1 21/2/1
f 23/2/1 18/2/1 17/2/1
f 23/3/1 17/3/1 22/3/1
f 24/4/1 19/4/1 18/4/1
f 24/2/1 18/2/1 23/2/1
f 25/2/1 20/2/1 19/2/1
f 25/4/1 19/4/1 24/4/1
f 26/1/1 8/1/1 20/1/1
f 26/2/1 20/2/1 25/2/1
f 27/1/1 21/1/1 5/1/1
f 29/1/1 27/1/1 5/1/1
f 29/1/1 28/1/1 27/1/1
f 30/1/1 28/1/1 29/1/1
f 31/1/1 28/1/1 30/1/1
f 33/1/1 32/1/1 31/1/1
f 33/1/1 31/1/1 30/1/1
f 34/1/1 32/1/1 33/1/1
f 35/1/1 8/1/1 26/1/1
f 36/1/1 35/1/1 34/1/1
f 37/1/1 8/1/1 35/1/1
f 37/1/1 35/1/1 36/1/1
f 38/1/1 8/1/1 37/1/1
f 39/1/1 8/1/1 38/1/1
f 46/2/1 41/2/1 40/2/1
f 47/4/1 42/4/1 41/4/1
f 47/2/1 41/2/1 46/2/1
f 48/2/1 43/2/1 42/2/1
f 48/4/1 42/4/1 47/4/1
f 49/3/1 45/3/1 44/3/1
f 49/2/1 43/2/1 48/2/1
f 49/3/1 44/3/1 43/3/1
f 50/3/1 45/3/1 49/3/1
f 55/1/1 52/1/1 51/1/1
f 56/1/1 52/1/1 55/1/1
f 57/1/1 54/1/1 53/1/1
f 58/1/1 54/1/1 57/1/1
f 60/1/1 57/1/1 56/1/1
f 61/1/1 57/1/1 60/1/1
f 63/1/1 60/1/1 59/1/1
f 64/1/1 60/1/1 63/1/1
f 65/1/1 62/1/1 61/1/1
f 66/1/1 62/1/1 65/1/1
f 71/1/1 68/1/1 67/1/1
f 73/1/1 70/1/1 69/1/1
f 74/1/1 70/1/1 73/1/1
f 75/1/1 72/1/1 71/1/1
f 75/1/1 71/1/1 67/1/1
f 76/1/1 72/1/1 75/1/1
f 77/1/1 72/1/1 76/1/1
f 81/1/1 77/1/1 76/1/1
f 81/1/1 78/1/1 77/1/1
f 82/1/1 78/1/1 81/1/1
f 83/1/1 80/1/1 79/1/1
f 84/1/1 80/1/1 83/1/1
f 85/1/1 83/1/1 82/1/1
f 86/1/1 83/1/1 85/1/1
f 88/1/1 87/1/1 86/1/1
f 89/1/1 87/1/1 88/1/1
f 92/1/1 91/1/1 90/1/1
f 93/1/1 91/1/1 92/1/1
f 94/1/2 95/1/2 96/1/2
f 96/1/2 95/1/2 97/1/2
f 98/1/2 99/1/2 102/1/2
f 102/1/2 99/1/2 103/1/2
f 100/1/2 101/1/2 104/1/2
f 104/1/2 101/1/2 105/1/2
f 103/1/2 104/1/2 107/1/2
f 107/1/2 104/1/2 108/1/2
f 106/1/2 107/1/2 110/1/2
f 110/1/2 107/1/2 111/1/2
f 108/1/2 109/1/2 112/1/2
f 112/1/2 109/1/2 113/1/2
f 114/1/2 115/1/2 118/1/2
f 116/1/2 117/1/2 120/1/2
f 120/1/2 117/1/2 121/1/2
f 118/1/2 119/1/2 122/1/2
f 114/1/2 118/1/2 122/1/2
f 122/1/2 119/1/2 123/1/2
f 123/1/2 119/1/2 124/1/2
f 123/1/2 124/1/2 128/1/2
f 124/1/2 125/1/2 128/1/2
f 128/1/2 125/1/2 129/1/2
f 126/1/2 127/1/2 130/1/2
f 130/1/2 127/1/2 131/1/2
f 129/1/2 130/1/2 132/1/2
f 132/1/2 130/1/2 133/1/2
f 133/1/2 134/1/2 135/1/2
f 135/1/2 134/1/2 136/1/2
f 137/4/2 138/4/2 143/4/2
f 138/3/2 139/3/2 144/3/2
f 143/4/2 138/4/2 144/4/2
f 139/4/2 140/4/2 145/4/2
f 144/3/2 139/3/2 145/3/2
f 140/2/2 141/2/2 146/2/2
f 145/4/2 140/4/2 146/4/2
f 141/3/2 142/3/2 147/3/2
f 146/2/2 141/2/2 147/2/2
f 147/3/2 142/3/2 148/3/2
f 149/1/2 150/1/2 153/1/2
f 151/1/2 152/1/2 154/1/2
f 149/1/2 153/1/2 155/1/2
f 153/1/2 154/1/2 155/1/2
f 154/1/2 152/1/2 156/1/2
f 155/1/2 154/1/2 156/1/2
f 149/1/2 155/1/2 157/1/2
f 156/1/2 152/1/2 158/1/2
f 149/1/2 157/1/2 159/1/2
f 157/1/2 158/1/2 159/1/2
f 159/1/2 158/1/2 160/1/2
f 160/1/2 158/1/2 161/1/2
f 161/1/2 158/1/2 162/1/2
f 162/1/2 158/1/2 163/1/2
f 158/1/2 152/1/2 164/1/2
f 163/1/2 158/1/2 164/1/2
f 149/1/2 159/1/2 165/1/2
f 159/2/2 160/2/2 165/2/2
f 160/4/2 161/4/2 166/4/2
f 165/2/2 160/2/2 166/2/2
f 161/3/2 162/3/2 167/3/2
f 166/4/2 161/4/2 167/4/2
f 162/2/2 163/2/2 168/2/2
f 167/3/2 162/3/2 168/3/2
f 163/4/2 164/4/2 169/4/2
f 168/2/2 163/2/2 169/2/2
f 164/1/2 152/1/2 170/1/2
f 169/4/2 164/4/2 170/4/2
f 149/1/2 165/1/2 171/1/2
f 149/1/2 171/1/2 173/1/2
f 171/1/2 172/1/2 173/1/2
f 173/1/2 172/1/2 174/1/2
f 174/1/2 172/1/2 175/1/2
f 175/1/2 176/1/2 177/1/2
f 174/1/2 175/1/2 177/1/2
f 177/1/2 176/1/2 178/1/2
f 170/1/2 152/1/2 179/1/2
f 178/1/2 179/1/2 180/1/2
f 179/1/2 152/1/2 181/1/2
f 180/1/2 179/1/2 181/1/2
f 181/1/2 152/1/2 182/1/2
f 182/1/2 152/1/2 183/1/2
f 184/1/2 185/1/2 186/1/2
f 186/1/2 185/1/2 187/1/2
f 190/1/3 189/1/3 188/1/3
f 191/1/3 189/1/3 190/1/3
f 192/1/3 189/1/3 191/1/3
f 193/1/3 189/1/3 192/1/3
f 194/1/3 189/1/3 193/1/3
f 195/1/3 189/1/3 194/1/3
f 196/1/3 189/1/3 195/1/3
f 197/3/3 195/3/3 194/3/3
f 197/1/3 194/1/3 193/1/3
f 198/3/3 195/3/3 197/3/3
f 199/1/3 197/1/3 193/1/3
f 199/4/3 198/4/3 197/4/3
f 200/4/3 198/4/3 199/4/3
f 201/1/3 199/1/3 193/1/3
f 201/2/3 200/2/3 199/2/3
f 202/2/3 200/2/3 201/2/3
f 203/1/3 201/1/3 193/1/3
f 203/3/3 202/3/3 201/3/3
f 204/3/3 202/3/3 203/3/3
f 206/1/3 192/1/3 191/1/3
f 207/1/3 192/1/3 206/1/3
f 208/1/3 203/1/3 193/1/3
f 209/2/3 204/2/3 203/2/3
f 209/1/3 203/1/3 208/1/3
f 210/2/3 204/2/3 209/2/3
f 212/1/3 210/1/3 209/1/3
f 212/1/3 211/1/3 210/1/3
f 212/1/3 209/1/3 208/1/3
f 212/1/3 208/1/3 207/1/3
f 212/1/3 207/1/3 206/1/3
f 212/1/3 206/1/3 205/1/3
f 213/1/3 211/1/3 212/1/3
f 218/1/3 215/1/3 214/1/3
f 219/1/3 215/1/3 218/1/3
f 220/2/3 217/2/3 216/2/3
f 221/2/3 217/2/3 220/2/3
f 222/3/3 221/3/3 220/3/3
f 223/3/3 221/3/3 222/3/3
f 224/3/3 221/3/3 223/3/3
f 225/4/3 224/4/3 223/4/3
f 226/4/3 224/4/3 225/4/3
f 227/4/3 224/4/3 226/4/3
f 230/1/3 229/1/3 228/1/3
f 231/1/3 229/1/3 230/1/3
f 234/1/3 233/1/3 232/1/3
f 235/1/3 233/1/3 234/1/3
f 238/1/3 237/1/3 236/1/3
f 239/1/3 237/1/3 238/1/3
f 242/1/3 241/1/3 240/1/3
f 243/1/3 241/1/3 242/1/3
f 246/1/3 245/1/3 244/1/3
f 247/1/3 245/1/3 246/1/3
f 257/1/3 249/1/3 248/1/3
f 258/1/3 249/1/3 257/1/3
f 259/1/3 251/1/3 250/1/3
f 260/1/3 251/1/3 259/1/3
f 261/1/3 253/1/3 252/1/3
f 262/1/3 253/1/3 261/1/3
f 263/1/3 253/1/3 262/1/3
f 264/1/3 253/1/3 263/1/3
f 265/1/3 256/1/3 255/1/3
f 265/1/3 255/1/3 254/1/3
f 266/1/3 256/1/3 265/1/3
f 267/1/3 263/1/3 262/1/3
f 268/1/3 263/1/3 267/1/3
f 269/1/3 263/1/3 268/1/3
f 271/1/3 259/1/3 258/1/3
f 272/1/3 259/1/3 271/1/3
f 275/1/3 263/1/3 269/1/3
f 276/1/3 263/1/3 275/1/3
f 277/1/3 265/1/3 264/1/3
f 278/1/3 265/1/3 277/1/3
f 279/1/3 256/1/3 266/1/3
f 280/1/3 271/1/3 270/1/3
f 281/1/3 271/1/3 280/1/3
f 282/1/3 273/1/3 272/1/3
f 283/1/3 273/1/3 282/1/3
f 284/1/3 276/1/3 275/1/3
f 284/1/3 275/1/3 274/1/3
f 284/1/3 277/1/3 276/1/3
f 285/1/3 277/1/3 284/1/3
f 286/1/3 279/1/3 278/1/3
f 287/1/3 256/1/3 279/1/3
f 287/1/3 279/1/3 286/1/3
f 288/1/3 256/1/3 287/1/3
f 289/1/4 290/1/4 295/1/4
f 295/1/4 290/1/4 296/1/4
f 291/1/4 292/1/4 297/1/4
f 297/1/4 292/1/4 298/1/4
f 293/1/4 294/1/4 299/1/4
f 299/1/4 294/1/4 300/1/4
f 296/1/4 297/1/4 302/1/4
f 302/1/4 297/1/4 303/1/4
f 301/1/4 302/1/4 307/1/4
f 307/1/4 302/1/4 308/1/4
f 303/1/4 304/1/4 309/1/4
f 309/1/4 304/1/4 310/1/4
f 305/1/4 306/1/4 311/1/4
f 311/1/4 306/1/4 312/1/4
f 313/1/4 314/1/4 315/1/4
f 315/1/4 314/1/4 316/1/4
f 317/1/4 318/1/4 319/1/4
f 319/1/4 318/1/4 320/1/4
f 321/1/4 322/1/4 323/1/4
f 323/1/4 322/1/4 324/1/4
f 325/1/4 326/1/4 327/1/4
f 327/1/4 326/1/4 328/1/4
f 329/3/4 330/3/4 331/3/4
f 331/3/4 330/3/4 332/3/4
f 331/4/4 332/4/4 333/4/4
f 333/4/4 332/4/4 334/4/4
f 333/2/4 334/2/4 335/2/4
f 335/2/4 334/2/4 336/2/4
f 335/3/4 336/3/4 337/3/4
f 337/3/4 336/3/4 338/3/4
f 339/1/4 340/1/4 342/1/4
f 341/1/4 342/1/4 343/1/4
f 343/1/4 342/1/4 344/1/4
f 344/1/4 342/1/4 345/1/4
f 345/1/4 342/1/4 346/1/4
f 346/1/4 342/1/4 347/1/4
f 347/1/4 342/1/4 348/1/4
f 348/1/4 342/1/4 349/1/4
f 349/1/4 342/1/4 350/1/4
f 350/1/4 342/1/4 351/1/4
f 351/1/4 342/1/4 352/1/4
f 342/1/4 340/1/4 353/1/4
f 352/1/4 342/1/4 353/1/4
f 344/1/4 345/1/4 355/1/4
f 355/1/4 345/1/4 356/1/4
f 346/1/4 347/1/4 357/1/4
f 347/2/4 348/2/4 358/2/4
f 357/1/4 347/1/4 358/1/4
f 358/2/4 348/2/4 359/2/4
f 349/1/4 350/1/4 360/1/4
f 360/1/4 350/1/4 361/1/4
f 351/1/4 352/1/4 362/1/4
f 362/1/4 352/1/4 363/1/4
f 353/1/4 340/1/4 364/1/4
f 360/1/4 361/1/4 365/1/4
f 363/1/4 364/1/4 365/1/4
f 362/1/4 363/1/4 365/1/4
f 356/1/4 357/1/4 365/1/4
f 361/1/4 362/1/4 365/1/4
f 358/1/4 359/1/4 365/1/4
f 359/1/4 360/1/4 365/1/4
f 355/1/4 356/1/4 365/1/4
f 357/1/4 358/1/4 365/1/4
f 354/1/4 355/1/4 365/1/4
f 364/1/4 340/1/4 366/1/4
f 365/1/4 364/1/4 366/1/4
f 366/1/4 340/1/4 367/1/4
f 367/1/4 340/1/4 368/1/4
f 373/1/5 370/1/5 369/1/5
f 374/1/5 370/1/5 373/1/5
f 375/1/5 372/1/5 371/1/5
f 376/1/5 372/1/5 375/1/5
f 381/1/5 378/1/5 377/1/5
f 382/1/5 378/1/5 381/1/5
f 383/1/5 380/1/5 379/1/5
f 384/1/5 380/1/5 383/1/5
f 388/1/5 386/1/5 385/1/5
f 389/1/5 386/1/5 388/1/5
f 391/1/5 388/1/5 387/1/5
f 392/1/5 388/1/5 391/1/5
f 393/1/5 390/1/5 389/1/5
f 394/1/5 390/1/5 393/1/5
f 395/1/5 393/1/5 392/1/5
f 396/1/5 393/1/5 395/1/5
f 400/1/5 398/1/5 397/1/5
f 401/1/5 398/1/5 400/1/5
f 403/1/5 400/1/5 399/1/5
f 404/2/5 401/2/5 400/2/5
f 404/1/5 400/1/5 403/1/5
f 405/1/5 402/1/5 401/1/5
f 405/2/5 401/2/5 404/2/5
f 406/1/5 402/1/5 405/1/5
f 407/1/5 405/1/5 404/1/5
f 408/1/5 405/1/5 407/1/5
f 413/1/5 410/1/5 409/1/5
f 414/1/5 410/1/5 413/1/5
f 415/1/5 412/1/5 411/1/5
f 416/1/5 412/1/5 415/1/5
f 422/1/5 418/1/5 417/1/5
f 422/1/5 421/1/5 420/1/5
f 422/1/5 420/1/5 419/1/5
f 422/1/5 419/1/5 418/1/5
f 423/1/5 421/1/5 422/1/5
f 428/1/5 425/1/5 424/1/5
f 429/1/5 425/1/5 428/1/5
f 430/1/5 427/1/5 426/1/5
f 431/1/5 427/1/5 430/1/5
f 436/1/5 433/1/5 432/1/5
f 437/1/5 433/1/5 436/1/5
f 438/1/5 435/1/5 434/1/5
f 439/1/5 435/1/5 438/1/5
f 440/1/5 438/1/5 437/1/5
f 441/1/5 438/1/5 440/1/5
f 446/1/5 443/1/5 442/1/5
f 449/1/5 445/1/5 444/1/5
f 450/1/5 446/1/5 442/1/5
f 451/1/5 446/1/5 450/1/5
f 452/1/5 448/1/5 447/1/5
f 453/1/5 448/1/5 452/1/5
f 454/1/5 445/1/5 449/1/5
f 455/1/5 445/1/5 454/1/5
f 456/1/6 457/1/6 459/1/6
f 459/1/6 457/1/6 460/1/6
f 458/1/6 459/1/6 462/1/6
f 462/1/6 459/1/6 463/1/6
f 460/1/6 461/1/6 464/1/6
f 464/1/6 461/1/6 465/1/6
f 463/1/6 464/1/6 466/1/6
f 466/1/6 464/1/6 467/1/6
f 468/3/6 469/3/6 475/3/6
f 469/4/6 470/4/6 476/4/6
f 475/3/6 469/3/6 476/3/6
f 470/2/6 471/2/6 477/2/6
f 476/4/6 470/4/6 477/4/6
f 471/3/6 472/3/6 478/3/6
f 477/2/6 471/2/6 478/2/6
f 472/2/6 473/2/6 479/2/6
f 478/3/6 472/3/6 479/3/6
f 479/2/6 473/2/6 480/2/6
f 474/2/6 475/2/6 482/2/6
f 482/2/6 475/2/6 483/2/6
f 480/2/6 481/2/6 484/2/6
f 484/2/6 481/2/6 485/2/6
f 482/3/6 483/3/6 486/3/6
f 486/3/6 483/3/6 487/3/6
f 484/4/6 485/4/6 488/4/6
f 488/4/6 485/4/6 489/4/6
f 486/2/6 487/2/6 490/2/6
f 490/2/6 487/2/6 491/2/6
f 488/3/6 489/3/6 492/3/6
f 492/3/6 489/3/6 493/3/6
f 490/4/6 491/4/6 494/4/6
f 494/4/6 491/4/6 495/4/6
f 492/2/6 493/2/6 496/2/6
f 496/2/6 493/2/6 497/2/6
f 494/2/6 495/2/6 498/2/6
f 498/2/6 495/2/6 499/2/6
f 496/4/6 497/4/6 503/4/6
f 503/4/6 497/4/6 504/4/6
f 501/2/6 502/2/6 505/2/6
f 502/2/6 503/2/6 505/2/6
f 499/2/6 500/2/6 505/2/6
f 500/2/6 501/2/6 505/2/6
f 505/2/6 503/2/6 506/2/6
f 507/2/6 508/2/6 511/2/6
f 508/3/6 509/3/6 512/3/6
f 511/2/6 508/2/6 512/2/6
f 512/3/6 509/3/6 513/3/6
f 509/4/6 510/4/6 514/4/6
f 513/3/6 509/3/6 514/3/6
f 514/4/6 510/4/6 515/4/6
f 515/4/6 510/4/6 516/4/6
f 511/4/6 512/4/6 517/4/6
f 512/3/6 513/3/6 518/3/6
f 517/4/6 512/4/6 518/4/6
f 513/2/6 514/2/6 519/2/6
f 518/3/6 513/3/6 519/3/6
f 514/4/6 515/4/6 520/4/6
f 519/2/6 514/2/6 520/2/6
f 515/3/6 516/3/6 521/3/6
f 520/4/6 515/4/6 521/4/6
f 521/3/6 516/3/6 522/3/6
f 517/2/6 518/2/6 523/2/6
f 518/2/6 519/2/6 523/2/6
f 523/2/6 519/2/6 524/2/6
f 519/4/6 520/4/6 525/4/6
f 524/2/6 519/2/6 525/2/6
f 520/2/6 521/2/6 526/2/6
f 525/4/6 520/4/6 526/4/6
f 521/4/6 522/4/6 527/4/6
f 526/2/6 521/2/6 527/2/6
f 527/4/6 522/4/6 528/4/6
f 525/3/6 526/3/6 529/3/6
f 524/4/6 525/4/6 529/4/6
f 527/2/6 528/2/6 530/2/6
f 529/3/6 526/3/6 530/3/6
f 526/2/6 527/2/6 530/2/6
f 530/2/6 528/2/6 531/2/6
f 523/3/6 524/3/6 532/3/6
f 524/4/6 529/4/6 533/4/6
f 532/3/6 524/3/6 533/3/6
f 529/2/6 530/2/6 534/2/6
f 533/4/6 529/4/6 534/4/6
f 530/3/6 531/3/6 535/3/6
f 534/2/6 530/2/6 535/2/6
f 535/3/6 531/3/6 536/3/6
f 537/1/6 538/1/6 541/1/6
f 541/1/6 538/1/6 542/1/6
f 539/1/6 540/1/6 543/1/6
f 543/1/6 540/1/6 544/1/6
f 545/1/6 546/1/6 547/1/6
f 547/1/6 546/1/6 548/1/6
f 549/1/6 550/1/6 553/1/6
f 553/1/6 550/1/6 554/1/6
f 551/1/6 552/1/6 555/1/6
f 555/1/6 552/1/6 556/1/6
f 557/1/6 558/1/6 561/1/6
f 561/1/6 558/1/6 562/1/6
f 559/1/6 560/1/6 563/1/6
f 563/1/6 560/1/6 564/1/6
f 562/1/6 563/1/6 565/1/6
f 565/1/6 563/1/6 566/1/6
f 567/1/6 568/1/6 571/1/6
f 569/1/6 570/1/6 572/1/6
f 567/1/6 571/1/6 573/1/6
f 571/1/6 572/1/6 573/1/6
f 572/1/6 570/1/6 574/1/6
f 573/1/6 572/1/6 574/1/6
