# MagicaVoxel @ Ephtracy

# group
o chair_2

# material
mtllib livingroom_oldie-2-chair_2.mtl
usemtl palette

# normals
vn -1 0 0
vn 1 0 0
vn 0 0 1
vn 0 0 -1
vn 0 -1 0
vn 0 1 0

# texcoords
vt 0.220703 0.5
vt 0.634766 0.5
vt 0.638672 0.5

# verts
v -0.3 0 7
v -0.3 0 6.9
v -0.3 0 6.4
v -0.3 0 6.3
v -0.3 0.2 6.9
v -0.3 0.2 6.4
v -0.3 0.3 6.9
v -0.3 0.3 6.4
v -0.3 0.7 7
v -0.3 0.7 6.9
v -0.3 0.7 6.4
v -0.3 0.8 6.9
v -0.3 0.8 6.4
v -0.3 1.1 6.4
v -0.3 1.1 6.3
v -0.2 0.8 6.5
v -0.2 0.8 6.4
v -0.2 1.1 6.5
v -0.2 1.1 6.4
v -0.2 1.1 6.3
v -0.2 1.2 6.4
v -0.2 1.2 6.3
v 0.3 0 7
v 0.3 0 6.9
v 0.3 0 6.4
v 0.3 0 6.3
v 0.3 0.2 7
v 0.3 0.2 6.9
v 0.3 0.2 6.4
v 0.3 0.3 7
v 0.3 0.3 6.9
v 0.3 0.3 6.4
v 0.3 0.3 6.3
v 0.3 0.4 7
v 0.3 0.4 6.9
v 0.3 0.4 6.4
v 0.3 0.4 6.3
v 0.3 0.5 6.4
v 0.3 0.5 6.3
v 0.3 0.6 7
v 0.3 0.6 6.9
v 0.3 0.6 6.5
v 0.3 0.6 6.4
v 0.3 0.6 6.3
v 0.3 0.7 7
v 0.3 0.7 6.9
v 0.3 0.7 6.5
v 0.3 0.7 6.4
v 0.3 0.7 6.3
v 0.3 0.8 6.9
v 0.3 0.8 6.5
v 0.3 0.8 6.4
v 0.3 0.8 6.3
v 0.3 0.9 6.4
v 0.3 0.9 6.3
v 0.3 1 6.4
v 0.3 1 6.3
v 0.3 1.1 6.4
v 0.3 1.1 6.3
v -0.2 0 7
v -0.2 0 6.9
v -0.2 0 6.4
v -0.2 0 6.3
v -0.2 0.2 7
v -0.2 0.2 6.9
v -0.2 0.2 6.4
v -0.2 0.3 7
v -0.2 0.3 6.9
v -0.2 0.3 6.4
v -0.2 0.3 6.3
v -0.2 0.4 7
v -0.2 0.4 6.9
v -0.2 0.4 6.4
v -0.2 0.4 6.3
v -0.2 0.5 6.4
v -0.2 0.5 6.3
v -0.2 0.6 7
v -0.2 0.6 6.9
v -0.2 0.6 6.5
v -0.2 0.6 6.4
v -0.2 0.6 6.3
v -0.2 0.7 7
v -0.2 0.7 6.9
v -0.2 0.7 6.5
v -0.2 0.7 6.4
v -0.2 0.7 6.3
v -0.2 0.8 6.9
v -0.2 0.8 6.5
v -0.2 0.8 6.4
v -0.2 0.8 6.3
v -0.2 0.9 6.4
v -0.2 0.9 6.3
v -0.2 1 6.4
v -0.2 1 6.3
v -0.2 1.1 6.4
v -0.2 1.1 6.3
v 0.3 0.8 6.5
v 0.3 0.8 6.4
v 0.3 1.1 6.5
v 0.3 1.1 6.4
v 0.3 1.1 6.3
v 0.3 1.2 6.4
v 0.3 1.2 6.3
v 0.4 0 7
v 0.4 0 6.9
v 0.4 0 6.4
v 0.4 0 6.3
v 0.4 0.2 6.9
v 0.4 0.2 6.4
v 0.4 0.3 6.9
v 0.4 0.3 6.4
v 0.4 0.7 7
v 0.4 0.7 6.9
v 0.4 0.7 6.4
v 0.4 0.8 6.9
v 0.4 0.8 6.4
v 0.4 1.1 6.4
v 0.4 1.1 6.3
v -0.3 0 7
v -0.3 0.7 7
v -0.2 0 7
v -0.2 0.2 7
v -0.2 0.3 7
v -0.2 0.4 7
v -0.2 0.5 7
v -0.2 0.6 7
v -0.2 0.7 7
v 0.3 0 7
v 0.3 0.2 7
v 0.3 0.3 7
v 0.3 0.4 7
v 0.3 0.5 7
v 0.3 0.6 7
v 0.3 0.7 7
v 0.4 0 7
v 0.4 0.7 7
v -0.3 0.7 6.9
v -0.3 0.8 6.9
v -0.2 0.3 6.9
v -0.2 0.4 6.9
v -0.2 0.7 6.9
v -0.2 0.8 6.9
v 0.3 0.3 6.9
v 0.3 0.4 6.9
v 0.3 0.7 6.9
v 0.3 0.8 6.9
v 0.4 0.7 6.9
v 0.4 0.8 6.9
v -0.2 0.6 6.5
v -0.2 0.7 6.5
v -0.2 0.8 6.5
v -0.2 1.1 6.5
v 0.3 0.6 6.5
v 0.3 0.7 6.5
v 0.3 0.8 6.5
v 0.3 1.1 6.5
v -0.3 0 6.4
v -0.3 0.2 6.4
v -0.3 0.8 6.4
v -0.3 1.1 6.4
v -0.2 0 6.4
v -0.2 0.2 6.4
v -0.2 0.8 6.4
v -0.2 1.1 6.4
v -0.2 1.2 6.4
v 0.3 0 6.4
v 0.3 0.2 6.4
v 0.3 0.8 6.4
v 0.3 1.1 6.4
v 0.3 1.2 6.4
v 0.4 0 6.4
v 0.4 0.2 6.4
v 0.4 0.8 6.4
v 0.4 1.1 6.4
v -0.3 0 6.9
v -0.3 0.2 6.9
v -0.2 0 6.9
v -0.2 0.2 6.9
v -0.2 0.3 6.9
v 0.3 0 6.9
v 0.3 0.2 6.9
v 0.3 0.3 6.9
v 0.4 0 6.9
v 0.4 0.2 6.9
v -0.2 0.4 6.4
v -0.2 0.5 6.4
v -0.2 0.6 6.4
v -0.2 0.7 6.4
v -0.2 0.8 6.4
v -0.2 0.9 6.4
v -0.2 1 6.4
v -0.2 1.1 6.4
v 0.3 0.4 6.4
v 0.3 0.5 6.4
v 0.3 0.6 6.4
v 0.3 0.7 6.4
v 0.3 0.8 6.4
v 0.3 0.9 6.4
v 0.3 1 6.4
v 0.3 1.1 6.4
v -0.3 0 6.3
v -0.3 1.1 6.3
v -0.2 0 6.3
v -0.2 0.3 6.3
v -0.2 0.4 6.3
v -0.2 0.5 6.3
v -0.2 0.6 6.3
v -0.2 0.7 6.3
v -0.2 0.8 6.3
v -0.2 0.9 6.3
v -0.2 1 6.3
v -0.2 1.1 6.3
v -0.2 1.2 6.3
v 0.3 0 6.3
v 0.3 0.3 6.3
v 0.3 0.4 6.3
v 0.3 0.5 6.3
v 0.3 0.6 6.3
v 0.3 0.7 6.3
v 0.3 0.8 6.3
v 0.3 0.9 6.3
v 0.3 1 6.3
v 0.3 1.1 6.3
v 0.3 1.2 6.3
v 0.4 0 6.3
v 0.4 1.1 6.3
v -0.3 0 7
v -0.2 0 7
v 0.3 0 7
v 0.4 0 7
v -0.3 0 6.9
v -0.2 0 6.9
v 0.3 0 6.9
v 0.4 0 6.9
v -0.3 0 6.4
v -0.2 0 6.4
v 0.3 0 6.4
v 0.4 0 6.4
v -0.3 0 6.3
v -0.2 0 6.3
v 0.3 0 6.3
v 0.4 0 6.3
v -0.2 0.2 7
v 0.3 0.2 7
v -0.3 0.2 6.9
v -0.2 0.2 6.9
v 0.3 0.2 6.9
v 0.4 0.2 6.9
v -0.3 0.2 6.4
v -0.2 0.2 6.4
v 0.3 0.2 6.4
v 0.4 0.2 6.4
v -0.2 0.3 6.9
v 0.3 0.3 6.9
v -0.2 0.3 6.4
v 0.3 0.3 6.4
v -0.2 0.3 6.3
v 0.3 0.3 6.3
v -0.2 0.4 7
v 0.3 0.4 7
v -0.2 0.4 6.9
v 0.3 0.4 6.9
v -0.2 0.5 6.4
v 0.3 0.5 6.4
v -0.2 0.5 6.3
v 0.3 0.5 6.3
v -0.2 0.7 6.4
v 0.3 0.7 6.4
v -0.2 0.7 6.3
v 0.3 0.7 6.3
v -0.2 0.9 6.4
v 0.3 0.9 6.4
v -0.2 0.9 6.3
v 0.3 0.9 6.3
v -0.2 1.1 6.4
v 0.3 1.1 6.4
v -0.2 1.1 6.3
v 0.3 1.1 6.3
v -0.2 0.3 7
v 0.3 0.3 7
v -0.2 0.3 6.9
v 0.3 0.3 6.9
v -0.2 0.4 6.4
v 0.3 0.4 6.4
v -0.2 0.4 6.3
v 0.3 0.4 6.3
v -0.2 0.6 7
v 0.3 0.6 7
v -0.2 0.6 6.9
v 0.3 0.6 6.9
v -0.2 0.6 6.5
v 0.3 0.6 6.5
v -0.2 0.6 6.4
v 0.3 0.6 6.4
v -0.2 0.6 6.3
v 0.3 0.6 6.3
v -0.3 0.7 7
v -0.2 0.7 7
v 0.3 0.7 7
v 0.4 0.7 7
v -0.3 0.7 6.9
v -0.2 0.7 6.9
v 0.3 0.7 6.9
v 0.4 0.7 6.9
v -0.3 0.8 6.9
v -0.2 0.8 6.9
v 0.3 0.8 6.9
v 0.4 0.8 6.9
v -0.2 0.8 6.5
v 0.3 0.8 6.5
v -0.3 0.8 6.4
v -0.2 0.8 6.4
v 0.3 0.8 6.4
v 0.4 0.8 6.4
v -0.2 0.8 6.3
v 0.3 0.8 6.3
v -0.2 1 6.4
v 0.3 1 6.4
v -0.2 1 6.3
v 0.3 1 6.3
v -0.2 1.1 6.5
v 0.3 1.1 6.5
v -0.3 1.1 6.4
v -0.2 1.1 6.4
v 0.3 1.1 6.4
v 0.4 1.1 6.4
v -0.3 1.1 6.3
v -0.2 1.1 6.3
v 0.3 1.1 6.3
v 0.4 1.1 6.3
v -0.2 1.2 6.4
v 0.3 1.2 6.4
v -0.2 1.2 6.3
v 0.3 1.2 6.3

# faces
f 5/1/1 2/1/1 1/1/1
f 6/1/1 4/1/1 3/1/1
f 7/1/1 5/1/1 1/1/1
f 7/1/1 6/1/1 5/1/1
f 8/1/1 4/1/1 6/1/1
f 8/1/1 6/1/1 7/1/1
f 9/1/1 7/1/1 1/1/1
f 10/2/1 8/2/1 7/2/1
f 10/1/1 7/1/1 9/1/1
f 11/1/1 4/1/1 8/1/1
f 11/2/1 8/2/1 10/2/1
f 12/1/1 11/1/1 10/1/1
f 13/1/1 4/1/1 11/1/1
f 13/1/1 11/1/1 12/1/1
f 14/1/1 4/1/1 13/1/1
f 15/1/1 4/1/1 14/1/1
f 18/2/1 17/2/1 16/2/1
f 19/2/1 17/2/1 18/2/1
f 21/1/1 20/1/1 19/1/1
f 22/1/1 20/1/1 21/1/1
f 27/1/1 24/1/1 23/1/1
f 28/1/1 24/1/1 27/1/1
f 29/1/1 26/1/1 25/1/1
f 31/1/1 29/1/1 28/1/1
f 32/1/1 26/1/1 29/1/1
f 32/1/1 29/1/1 31/1/1
f 33/1/1 26/1/1 32/1/1
f 34/1/1 31/1/1 30/1/1
f 35/1/1 31/1/1 34/1/1
f 38/1/1 37/1/1 36/1/1
f 39/1/1 37/1/1 38/1/1
f 45/1/1 41/1/1 40/1/1
f 46/2/1 42/2/1 41/2/1
f 46/1/1 41/1/1 45/1/1
f 47/2/1 42/2/1 46/2/1
f 48/1/1 44/1/1 43/1/1
f 49/1/1 44/1/1 48/1/1
f 50/1/1 47/1/1 46/1/1
f 51/1/1 47/1/1 50/1/1
f 54/1/1 53/1/1 52/1/1
f 55/1/1 53/1/1 54/1/1
f 58/1/1 57/1/1 56/1/1
f 59/1/1 57/1/1 58/1/1
f 60/1/2 61/1/2 64/1/2
f 64/1/2 61/1/2 65/1/2
f 62/1/2 63/1/2 66/1/2
f 65/1/2 66/1/2 68/1/2
f 66/1/2 63/1/2 69/1/2
f 68/1/2 66/1/2 69/1/2
f 69/1/2 63/1/2 70/1/2
f 67/1/2 68/1/2 71/1/2
f 71/1/2 68/1/2 72/1/2
f 73/1/2 74/1/2 75/1/2
f 75/1/2 74/1/2 76/1/2
f 77/1/2 78/1/2 82/1/2
f 78/2/2 79/2/2 83/2/2
f 82/1/2 78/1/2 83/1/2
f 83/2/2 79/2/2 84/2/2
f 80/1/2 81/1/2 85/1/2
f 85/1/2 81/1/2 86/1/2
f 83/1/2 84/1/2 87/1/2
f 87/1/2 84/1/2 88/1/2
f 89/1/2 90/1/2 91/1/2
f 91/1/2 90/1/2 92/1/2
f 93/1/2 94/1/2 95/1/2
f 95/1/2 94/1/2 96/1/2
f 97/2/2 98/2/2 99/2/2
f 99/2/2 98/2/2 100/2/2
f 100/1/2 101/1/2 102/1/2
f 102/1/2 101/1/2 103/1/2
f 104/1/2 105/1/2 108/1/2
f 106/1/2 107/1/2 109/1/2
f 104/1/2 108/1/2 110/1/2
f 108/1/2 109/1/2 110/1/2
f 109/1/2 107/1/2 111/1/2
f 110/1/2 109/1/2 111/1/2
f 104/1/2 110/1/2 112/1/2
f 110/2/2 111/2/2 113/2/2
f 112/1/2 110/1/2 113/1/2
f 111/1/2 107/1/2 114/1/2
f 113/2/2 111/2/2 114/2/2
f 113/1/2 114/1/2 115/1/2
f 114/1/2 107/1/2 116/1/2
f 115/1/2 114/1/2 116/1/2
f 116/1/2 107/1/2 117/1/2
f 117/1/2 107/1/2 118/1/2
f 121/1/3 120/1/3 119/1/3
f 122/1/3 120/1/3 121/1/3
f 123/1/3 120/1/3 122/1/3
f 124/1/3 120/1/3 123/1/3
f 125/1/3 120/1/3 124/1/3
f 126/1/3 120/1/3 125/1/3
f 127/1/3 120/1/3 126/1/3
f 129/1/3 123/1/3 122/1/3
f 130/1/3 123/1/3 129/1/3
f 131/1/3 125/1/3 124/1/3
f 132/2/3 126/2/3 125/2/3
f 132/1/3 125/1/3 131/1/3
f 133/2/3 126/2/3 132/2/3
f 135/1/3 130/1/3 129/1/3
f 135/1/3 134/1/3 133/1/3
f 135/1/3 133/1/3 132/1/3
f 135/1/3 132/1/3 131/1/3
f 135/1/3 131/1/3 130/1/3
f 135/1/3 129/1/3 128/1/3
f 136/1/3 134/1/3 135/1/3
f 141/1/3 138/1/3 137/1/3
f 142/1/3 138/1/3 141/1/3
f 143/2/3 140/2/3 139/2/3
f 144/2/3 140/2/3 143/2/3
f 147/1/3 146/1/3 145/1/3
f 148/1/3 146/1/3 147/1/3
f 153/2/3 150/2/3 149/2/3
f 153/2/3 152/2/3 151/2/3
f 153/2/3 151/2/3 150/2/3
f 154/2/3 152/2/3 153/2/3
f 155/2/3 152/2/3 154/2/3
f 156/2/3 152/2/3 155/2/3
f 161/1/3 158/1/3 157/1/3
f 162/1/3 158/1/3 161/1/3
f 163/1/3 160/1/3 159/1/3
f 164/1/3 160/1/3 163/1/3
f 169/1/3 165/1/3 164/1/3
f 170/1/3 165/1/3 169/1/3
f 171/1/3 167/1/3 166/1/3
f 172/1/3 167/1/3 171/1/3
f 173/1/3 169/1/3 168/1/3
f 174/1/3 169/1/3 173/1/3
f 175/1/4 176/1/4 177/1/4
f 177/1/4 176/1/4 178/1/4
f 178/1/4 179/1/4 181/1/4
f 181/1/4 179/1/4 182/1/4
f 180/1/4 181/1/4 183/1/4
f 183/1/4 181/1/4 184/1/4
f 185/2/4 186/2/4 193/2/4
f 193/2/4 186/2/4 194/2/4
f 187/2/4 188/2/4 195/2/4
f 195/2/4 188/2/4 196/2/4
f 189/2/4 190/2/4 197/2/4
f 197/2/4 190/2/4 198/2/4
f 191/2/4 192/2/4 199/2/4
f 199/2/4 192/2/4 200/2/4
f 201/1/4 202/1/4 203/1/4
f 203/1/4 202/1/4 204/1/4
f 204/1/4 202/1/4 205/1/4
f 205/1/4 202/1/4 206/1/4
f 206/1/4 202/1/4 207/1/4
f 207/1/4 202/1/4 208/1/4
f 208/1/4 202/1/4 209/1/4
f 209/1/4 202/1/4 210/1/4
f 210/1/4 202/1/4 211/1/4
f 211/1/4 202/1/4 212/1/4
f 204/1/4 205/1/4 215/1/4
f 215/1/4 205/1/4 216/1/4
f 206/1/4 207/1/4 217/1/4
f 217/1/4 207/1/4 218/1/4
f 208/1/4 209/1/4 219/1/4
f 219/1/4 209/1/4 220/1/4
f 210/1/4 211/1/4 221/1/4
f 221/1/4 211/1/4 222/1/4
f 212/1/4 213/1/4 223/1/4
f 223/1/4 213/1/4 224/1/4
f 221/1/4 222/1/4 225/1/4
f 217/1/4 218/1/4 225/1/4
f 222/1/4 223/1/4 225/1/4
f 219/1/4 220/1/4 225/1/4
f 220/1/4 221/1/4 225/1/4
f 215/1/4 216/1/4 225/1/4
f 218/1/4 219/1/4 225/1/4
f 214/1/4 215/1/4 225/1/4
f 216/1/4 217/1/4 225/1/4
f 225/1/4 223/1/4 226/1/4
f 231/1/5 228/1/5 227/1/5
f 232/1/5 228/1/5 231/1/5
f 233/1/5 230/1/5 229/1/5
f 234/1/5 230/1/5 233/1/5
f 239/1/5 236/1/5 235/1/5
f 240/1/5 236/1/5 239/1/5
f 241/1/5 238/1/5 237/1/5
f 242/1/5 238/1/5 241/1/5
f 246/1/5 244/1/5 243/1/5
f 247/1/5 244/1/5 246/1/5
f 249/1/5 246/1/5 245/1/5
f 250/1/5 246/1/5 249/1/5
f 251/1/5 248/1/5 247/1/5
f 252/1/5 248/1/5 251/1/5
f 255/2/5 254/2/5 253/2/5
f 256/2/5 254/2/5 255/2/5
f 257/1/5 256/1/5 255/1/5
f 258/1/5 256/1/5 257/1/5
f 261/1/5 260/1/5 259/1/5
f 262/1/5 260/1/5 261/1/5
f 265/1/5 264/1/5 263/1/5
f 266/1/5 264/1/5 265/1/5
f 269/1/5 268/1/5 267/1/5
f 270/1/5 268/1/5 269/1/5
f 273/1/5 272/1/5 271/1/5
f 274/1/5 272/1/5 273/1/5
f 277/1/5 276/1/5 275/1/5
f 278/1/5 276/1/5 277/1/5
f 279/1/6 280/1/6 281/1/6
f 281/1/6 280/1/6 282/1/6
f 283/1/6 284/1/6 285/1/6
f 285/1/6 284/1/6 286/1/6
f 287/2/6 288/2/6 289/2/6
f 289/2/6 288/2/6 290/2/6
f 289/2/6 290/2/6 291/2/6
f 291/2/6 290/2/6 292/2/6
f 293/1/6 294/1/6 295/1/6
f 295/1/6 294/1/6 296/1/6
f 297/1/6 298/1/6 301/1/6
f 301/1/6 298/1/6 302/1/6
f 299/1/6 300/1/6 303/1/6
f 303/1/6 300/1/6 304/1/6
f 305/1/6 306/1/6 309/1/6
f 307/1/6 308/1/6 310/1/6
f 305/1/6 309/1/6 311/1/6
f 311/1/6 309/1/6 312/1/6
f 310/1/6 308/1/6 313/1/6
f 313/1/6 308/1/6 314/1/6
f 312/1/6 313/1/6 315/1/6
f 315/1/6 313/1/6 316/1/6
f 317/1/6 318/1/6 319/1/6
f 319/1/6 318/1/6 320/1/6
f 321/2/6 322/2/6 324/2/6
f 324/2/6 322/2/6 325/2/6
f 323/1/6 324/1/6 327/1/6
f 327/1/6 324/1/6 328/1/6
f 325/1/6 326/1/6 329/1/6
f 329/1/6 326/1/6 330/1/6
f 331/1/6 332/1/6 333/1/6
f 333/1/6 332/1/6 334/1/6
