# MagicaVoxel @ Ephtracy

# group
o fireplace

# material
mtllib livingroom_oldie-5-fireplace.mtl
usemtl palette

# normals
vn -1 0 0
vn 1 0 0
vn 0 0 1
vn 0 0 -1
vn 0 -1 0
vn 0 1 0

# texcoords
vt 0.00195313 0.5
vt 0.232422 0.5
vt 0.236328 0.5
vt 0.345703 0.5
vt 0.349609 0.5
vt 0.353516 0.5
vt 0.357422 0.5
vt 0.361328 0.5
vt 0.365234 0.5
vt 0.490234 0.5

# verts
v -1.5 1.4 0.7
v -1.5 1.4 0
v -1.5 1.5 0.7
v -1.5 1.5 0
v -1.5 2.1 0.7
v -1.5 2.1 0
v -1.5 2.2 0.7
v -1.5 2.2 0
v -1.4 0 0.6
v -1.4 0 0
v -1.4 1.4 0.6
v -1.4 1.4 0
v -1.4 1.5 0.6
v -1.4 1.5 0
v -1.4 2.1 0.6
v -1.4 2.1 0
v -0.6 0.2 0.3
v -0.6 0.2 0.1
v -0.6 0.3 0.3
v -0.6 0.3 0.1
v -0.4 0.2 0.4
v -0.4 0.2 0.3
v -0.4 0.2 0.2
v -0.4 0.2 0.1
v -0.4 0.3 0.4
v -0.4 0.3 0.3
v -0.4 0.3 0.2
v -0.4 0.3 0.1
v -0.2 0.3 0.3
v -0.2 0.3 0.2
v -0.2 0.4 0.3
v -0.2 0.4 0.2
v 0.1 0.2 0.4
v 0.1 0.2 0.3
v 0.1 0.3 0.4
v 0.1 0.3 0.3
v 0.1 0.3 0.2
v 0.1 0.3 0.1
v 0.1 0.4 0.2
v 0.1 0.4 0.1
v 0.5 0.2 0.3
v 0.5 0.2 0.2
v 0.5 0.3 0.3
v 0.5 0.3 0.2
v 0.8 0.2 0.4
v 0.8 0.2 0.1
v 0.8 1.1 0.4
v 0.8 1.1 0.1
v 0.9 0 0.6
v 0.9 0 0.5
v 0.9 0.1 0.5
v 0.9 0.2 0.5
v 0.9 0.3 0.5
v 0.9 0.4 0.5
v 0.9 0.5 0.5
v 0.9 0.6 0.5
v 0.9 0.7 0.5
v 0.9 0.8 0.5
v 0.9 0.9 0.5
v 0.9 1 0.5
v 0.9 1.1 0.5
v 0.9 1.2 0.5
v 0.9 1.3 0.5
v 0.9 1.4 0.6
v 0.9 1.4 0.5
v 0.9 1.5 0.6
v 0.9 1.5 0.5
v 0.9 2.1 0.6
v 0.9 2.1 0.5
v -0.8 0 0.6
v -0.8 0 0.5
v -0.8 0.1 0.5
v -0.8 0.2 0.5
v -0.8 0.3 0.5
v -0.8 0.4 0.5
v -0.8 0.5 0.5
v -0.8 0.6 0.5
v -0.8 0.7 0.5
v -0.8 0.8 0.5
v -0.8 0.9 0.5
v -0.8 1 0.5
v -0.8 1.1 0.5
v -0.8 1.2 0.5
v -0.8 1.3 0.5
v -0.8 1.4 0.6
v -0.8 1.4 0.5
v -0.8 1.5 0.6
v -0.8 1.5 0.5
v -0.8 2.1 0.6
v -0.8 2.1 0.5
v -0.7 0.2 0.4
v -0.7 0.2 0.1
v -0.7 1.1 0.4
v -0.7 1.1 0.1
v -0.5 0.2 0.2
v -0.5 0.2 0.1
v -0.5 0.3 0.2
v -0.5 0.3 0.1
v -0.1 0.2 0.4
v -0.1 0.2 0.3
v -0.1 0.3 0.4
v -0.1 0.3 0.3
v 0 0.3 0.3
v 0 0.3 0.2
v 0 0.4 0.3
v 0 0.4 0.2
v 0.4 0.2 0.4
v 0.4 0.2 0.2
v 0.4 0.3 0.4
v 0.4 0.3 0.2
v 0.5 0.2 0.2
v 0.5 0.2 0.1
v 0.5 0.3 0.2
v 0.5 0.4 0.2
v 0.5 0.4 0.1
v 0.6 0.2 0.3
v 0.6 0.2 0.2
v 0.6 0.3 0.3
v 0.6 0.3 0.2
v 1.5 0 0.6
v 1.5 0 0
v 1.5 1.4 0.6
v 1.5 1.4 0
v 1.5 1.5 0.6
v 1.5 1.5 0
v 1.5 2.1 0.6
v 1.5 2.1 0
v 1.6 1.4 0.7
v 1.6 1.4 0
v 1.6 1.5 0.7
v 1.6 1.5 0
v 1.6 2.1 0.7
v 1.6 2.1 0
v 1.6 2.2 0.7
v 1.6 2.2 0
v -1.5 1.4 0.7
v -1.5 1.5 0.7
v -1.5 2.1 0.7
v -1.5 2.2 0.7
v 1.6 1.4 0.7
v 1.6 1.5 0.7
v 1.6 2.1 0.7
v 1.6 2.2 0.7
v -1.4 0 0.6
v -1.4 1.4 0.6
v -1.4 1.5 0.6
v -1.4 2.1 0.6
v -1.2 0.2 0.6
v -1.2 0.3 0.6
v -1.2 1.2 0.6
v -1.2 1.7 0.6
v -1.2 1.8 0.6
v -1.2 1.9 0.6
v -1.1 0.3 0.6
v -1.1 1.2 0.6
v -1.1 1.8 0.6
v -1.1 1.9 0.6
v -1 0.2 0.6
v -1 1.2 0.6
v -1 1.7 0.6
v -1 1.9 0.6
v -0.8 0 0.6
v -0.8 1.4 0.6
v -0.8 1.5 0.6
v -0.8 2.1 0.6
v 0.9 0 0.6
v 0.9 1.4 0.6
v 0.9 1.5 0.6
v 0.9 2.1 0.6
v 1.1 0.2 0.6
v 1.1 0.3 0.6
v 1.1 1.2 0.6
v 1.1 1.7 0.6
v 1.1 1.8 0.6
v 1.1 1.9 0.6
v 1.2 0.3 0.6
v 1.2 1.2 0.6
v 1.2 1.8 0.6
v 1.2 1.9 0.6
v 1.3 0.2 0.6
v 1.3 1.2 0.6
v 1.3 1.7 0.6
v 1.3 1.9 0.6
v 1.5 0 0.6
v 1.5 1.4 0.6
v 1.5 1.5 0.6
v 1.5 2.1 0.6
v -0.8 0 0.5
v -0.8 0.1 0.5
v -0.8 0.2 0.5
v -0.8 0.3 0.5
v -0.8 0.4 0.5
v -0.8 0.5 0.5
v -0.8 0.6 0.5
v -0.8 0.7 0.5
v -0.8 0.8 0.5
v -0.8 0.9 0.5
v -0.8 1 0.5
v -0.8 1.1 0.5
v -0.8 1.2 0.5
v -0.8 1.3 0.5
v -0.8 1.4 0.5
v -0.8 1.5 0.5
v -0.8 2.1 0.5
v -0.7 0 0.5
v -0.7 0.1 0.5
v -0.7 0.2 0.5
v -0.7 0.3 0.5
v -0.7 0.4 0.5
v -0.7 0.5 0.5
v -0.7 0.6 0.5
v -0.7 0.7 0.5
v -0.7 0.8 0.5
v -0.7 0.9 0.5
v -0.7 1 0.5
v -0.7 1.1 0.5
v -0.7 1.2 0.5
v -0.7 1.3 0.5
v -0.7 1.4 0.5
v -0.6 0 0.5
v -0.6 0.1 0.5
v -0.6 0.2 0.5
v -0.6 0.3 0.5
v -0.6 1 0.5
v -0.6 1.1 0.5
v -0.6 1.2 0.5
v -0.6 1.3 0.5
v -0.6 1.4 0.5
v -0.6 1.7 0.5
v -0.6 1.8 0.5
v -0.6 1.9 0.5
v -0.5 0 0.5
v -0.5 0.1 0.5
v -0.5 0.2 0.5
v -0.5 1.1 0.5
v -0.5 1.2 0.5
v -0.5 1.3 0.5
v -0.5 1.4 0.5
v -0.4 0 0.5
v -0.4 0.1 0.5
v -0.4 0.2 0.5
v -0.4 1.1 0.5
v -0.4 1.2 0.5
v -0.4 1.3 0.5
v -0.4 1.4 0.5
v -0.3 0 0.5
v -0.3 0.1 0.5
v -0.3 0.2 0.5
v -0.3 1.1 0.5
v -0.3 1.2 0.5
v -0.3 1.3 0.5
v -0.3 1.4 0.5
v -0.2 0 0.5
v -0.2 0.1 0.5
v -0.2 0.2 0.5
v -0.2 1.1 0.5
v -0.2 1.2 0.5
v -0.2 1.3 0.5
v -0.2 1.4 0.5
v -0.1 0 0.5
v -0.1 0.1 0.5
v -0.1 0.2 0.5
v -0.1 1.1 0.5
v -0.1 1.2 0.5
v -0.1 1.3 0.5
v -0.1 1.4 0.5
v 0 0 0.5
v 0 0.1 0.5
v 0 0.2 0.5
v 0 0.3 0.5
v 0 1 0.5
v 0 1.1 0.5
v 0 1.2 0.5
v 0 1.3 0.5
v 0 1.4 0.5
v 0.1 0 0.5
v 0.1 0.1 0.5
v 0.1 0.2 0.5
v 0.1 0.3 0.5
v 0.1 1 0.5
v 0.1 1.1 0.5
v 0.1 1.2 0.5
v 0.1 1.3 0.5
v 0.1 1.4 0.5
v 0.2 0 0.5
v 0.2 0.1 0.5
v 0.2 0.2 0.5
v 0.2 1.1 0.5
v 0.2 1.2 0.5
v 0.2 1.3 0.5
v 0.2 1.4 0.5
v 0.3 0 0.5
v 0.3 0.1 0.5
v 0.3 0.2 0.5
v 0.3 1.1 0.5
v 0.3 1.2 0.5
v 0.3 1.3 0.5
v 0.3 1.4 0.5
v 0.4 0 0.5
v 0.4 0.1 0.5
v 0.4 0.2 0.5
v 0.4 1.1 0.5
v 0.4 1.2 0.5
v 0.4 1.3 0.5
v 0.4 1.4 0.5
v 0.5 0 0.5
v 0.5 0.1 0.5
v 0.5 0.2 0.5
v 0.5 1.1 0.5
v 0.5 1.2 0.5
v 0.5 1.3 0.5
v 0.5 1.4 0.5
v 0.6 0 0.5
v 0.6 0.1 0.5
v 0.6 0.2 0.5
v 0.6 1.1 0.5
v 0.6 1.2 0.5
v 0.6 1.3 0.5
v 0.6 1.4 0.5
v 0.6 1.8 0.5
v 0.6 1.9 0.5
v 0.7 0 0.5
v 0.7 0.1 0.5
v 0.7 0.2 0.5
v 0.7 0.3 0.5
v 0.7 1 0.5
v 0.7 1.1 0.5
v 0.7 1.2 0.5
v 0.7 1.3 0.5
v 0.7 1.4 0.5
v 0.7 1.7 0.5
v 0.7 1.9 0.5
v 0.8 0 0.5
v 0.8 0.1 0.5
v 0.8 0.2 0.5
v 0.8 0.3 0.5
v 0.8 0.4 0.5
v 0.8 0.5 0.5
v 0.8 0.6 0.5
v 0.8 0.7 0.5
v 0.8 0.8 0.5
v 0.8 0.9 0.5
v 0.8 1 0.5
v 0.8 1.1 0.5
v 0.8 1.2 0.5
v 0.8 1.3 0.5
v 0.8 1.4 0.5
v 0.9 0 0.5
v 0.9 0.1 0.5
v 0.9 0.2 0.5
v 0.9 0.3 0.5
v 0.9 0.4 0.5
v 0.9 0.5 0.5
v 0.9 0.6 0.5
v 0.9 0.7 0.5
v 0.9 0.8 0.5
v 0.9 0.9 0.5
v 0.9 1 0.5
v 0.9 1.1 0.5
v 0.9 1.2 0.5
v 0.9 1.3 0.5
v 0.9 1.4 0.5
v 0.9 1.5 0.5
v 0.9 2.1 0.5
v -0.6 0.2 0.3
v -0.6 0.3 0.3
v -0.4 0.2 0.3
v -0.4 0.3 0.3
v -0.2 0.3 0.3
v -0.2 0.4 0.3
v -0.1 0.2 0.3
v -0.1 0.3 0.3
v 0 0.3 0.3
v 0 0.4 0.3
v 0.1 0.2 0.3
v 0.1 0.3 0.3
v 0.5 0.2 0.3
v 0.5 0.3 0.3
v 0.6 0.2 0.3
v 0.6 0.3 0.3
v 0.1 0.3 0.2
v 0.1 0.4 0.2
v 0.4 0.2 0.2
v 0.4 0.3 0.2
v 0.5 0.2 0.2
v 0.5 0.3 0.2
v 0.5 0.4 0.2
v -0.7 0.2 0.1
v -0.7 1.1 0.1
v -0.6 0.2 0.1
v -0.6 0.3 0.1
v -0.5 0.2 0.1
v -0.5 0.3 0.1
v -0.4 0.2 0.1
v -0.4 0.3 0.1
v 0.1 0.3 0.1
v 0.1 0.4 0.1
v 0.5 0.2 0.1
v 0.5 0.4 0.1
v 0.8 0.2 0.1
v 0.8 1.1 0.1
v -0.7 0.2 0.4
v -0.7 1.1 0.4
v -0.6 0.3 0.4
v -0.6 1 0.4
v -0.4 0.2 0.4
v -0.4 0.3 0.4
v -0.1 0.2 0.4
v -0.1 0.3 0.4
v 0 0.3 0.4
v 0 1 0.4
v 0.1 0.2 0.4
v 0.1 0.3 0.4
v 0.1 1 0.4
v 0.4 0.2 0.4
v 0.4 0.3 0.4
v 0.7 0.3 0.4
v 0.7 1 0.4
v 0.8 0.2 0.4
v 0.8 1.1 0.4
v -0.5 0.2 0.2
v -0.5 0.3 0.2
v -0.4 0.2 0.2
v -0.4 0.3 0.2
v -0.2 0.3 0.2
v -0.2 0.4 0.2
v 0 0.3 0.2
v 0 0.4 0.2
v 0.5 0.2 0.2
v 0.5 0.3 0.2
v 0.6 0.2 0.2
v 0.6 0.3 0.2
v -1.5 1.4 0
v -1.5 1.5 0
v -1.5 2.1 0
v -1.5 2.2 0
v -1.4 0 0
v -1.4 1.4 0
v -1.4 1.5 0
v -1.4 2.1 0
v 1.5 0 0
v 1.5 1.4 0
v 1.5 1.5 0
v 1.5 2.1 0
v 1.6 1.4 0
v 1.6 1.5 0
v 1.6 2.1 0
v 1.6 2.2 0
v -1.4 0 0.6
v -0.8 0 0.6
v 0.9 0 0.6
v 1.5 0 0.6
v -1.3 0 0.5
v -0.8 0 0.5
v -0.7 0 0.5
v -0.6 0 0.5
v -0.5 0 0.5
v -0.4 0 0.5
v -0.3 0 0.5
v -0.2 0 0.5
v -0.1 0 0.5
v 0 0 0.5
v 0.1 0 0.5
v 0.2 0 0.5
v 0.3 0 0.5
v 0.4 0 0.5
v 0.5 0 0.5
v 0.6 0 0.5
v 0.7 0 0.5
v 0.8 0 0.5
v 0.9 0 0.5
v 1.4 0 0.5
v -0.7 0 0.4
v -0.6 0 0.4
v -0.5 0 0.4
v -0.4 0 0.4
v -0.3 0 0.4
v -0.2 0 0.4
v -0.1 0 0.4
v 0 0 0.4
v 0.1 0 0.4
v 0.2 0 0.4
v 0.3 0 0.4
v 0.4 0 0.4
v 0.5 0 0.4
v 0.6 0 0.4
v 0.7 0 0.4
v 0.8 0 0.4
v -1.3 0 0.1
v 1.4 0 0.1
v -1.4 0 0
v 1.5 0 0
v -0.7 1.1 0.4
v 0.8 1.1 0.4
v -0.7 1.1 0.1
v 0.8 1.1 0.1
v -1.5 1.4 0.7
v 1.6 1.4 0.7
v -1.4 1.4 0.6
v -0.8 1.4 0.6
v 0.9 1.4 0.6
v 1.5 1.4 0.6
v -0.8 1.4 0.5
v -0.7 1.4 0.5
v -0.6 1.4 0.5
v -0.5 1.4 0.5
v -0.4 1.4 0.5
v -0.3 1.4 0.5
v -0.2 1.4 0.5
v -0.1 1.4 0.5
v 0 1.4 0.5
v 0.1 1.4 0.5
v 0.2 1.4 0.5
v 0.3 1.4 0.5
v 0.4 1.4 0.5
v 0.5 1.4 0.5
v 0.6 1.4 0.5
v 0.7 1.4 0.5
v 0.8 1.4 0.5
v 0.9 1.4 0.5
v -1.5 1.4 0
v -1.4 1.4 0
v 1.5 1.4 0
v 1.6 1.4 0
v -1.5 2.1 0.7
v 1.6 2.1 0.7
v -1.4 2.1 0.6
v -0.8 2.1 0.6
v 0.9 2.1 0.6
v 1.5 2.1 0.6
v -0.8 2.1 0.5
v 0.9 2.1 0.5
v -1.5 2.1 0
v -1.4 2.1 0
v 1.5 2.1 0
v 1.6 2.1 0
v -0.7 0.2 0.4
v -0.4 0.2 0.4
v -0.1 0.2 0.4
v 0.1 0.2 0.4
v 0.4 0.2 0.4
v 0.8 0.2 0.4
v -0.6 0.2 0.3
v -0.4 0.2 0.3
v -0.1 0.2 0.3
v 0.1 0.2 0.3
v 0.5 0.2 0.3
v 0.6 0.2 0.3
v -0.5 0.2 0.2
v -0.4 0.2 0.2
v 0.4 0.2 0.2
v 0.5 0.2 0.2
v 0.6 0.2 0.2
v -0.7 0.2 0.1
v -0.6 0.2 0.1
v -0.5 0.2 0.1
v -0.4 0.2 0.1
v 0.5 0.2 0.1
v 0.8 0.2 0.1
v -0.4 0.3 0.4
v -0.1 0.3 0.4
v 0.1 0.3 0.4
v 0.4 0.3 0.4
v -0.6 0.3 0.3
v -0.4 0.3 0.3
v -0.2 0.3 0.3
v -0.1 0.3 0.3
v 0 0.3 0.3
v 0.1 0.3 0.3
v 0.5 0.3 0.3
v 0.6 0.3 0.3
v -0.5 0.3 0.2
v -0.4 0.3 0.2
v -0.2 0.3 0.2
v 0 0.3 0.2
v 0.1 0.3 0.2
v 0.4 0.3 0.2
v 0.5 0.3 0.2
v 0.6 0.3 0.2
v -0.6 0.3 0.1
v -0.5 0.3 0.1
v -0.4 0.3 0.1
v 0.1 0.3 0.1
v -0.2 0.4 0.3
v 0 0.4 0.3
v -0.2 0.4 0.2
v 0 0.4 0.2
v 0.1 0.4 0.2
v 0.5 0.4 0.2
v 0.1 0.4 0.1
v 0.5 0.4 0.1
v -1.5 1.5 0.7
v 1.6 1.5 0.7
v -1.4 1.5 0.6
v -0.8 1.5 0.6
v 0.9 1.5 0.6
v 1.5 1.5 0.6
v -0.8 1.5 0.5
v 0.9 1.5 0.5
v -1.5 1.5 0
v -1.4 1.5 0
v 1.5 1.5 0
v 1.6 1.5 0
v -1.5 2.2 0.7
v 1.6 2.2 0.7
v -1.5 2.2 0
v 1.6 2.2 0

# faces
f 3/2/1 2/2/1 1/2/1
f 4/2/1 2/2/1 3/2/1
f 7/7/1 6/7/1 5/7/1
f 8/7/1 6/7/1 7/7/1
f 11/7/1 10/7/1 9/7/1
f 12/7/1 10/7/1 11/7/1
f 15/7/1 14/7/1 13/7/1
f 16/7/1 14/7/1 15/7/1
f 19/3/1 18/3/1 17/3/1
f 20/3/1 18/3/1 19/3/1
f 25/3/1 22/3/1 21/3/1
f 26/3/1 22/3/1 25/3/1
f 27/3/1 24/3/1 23/3/1
f 28/3/1 24/3/1 27/3/1
f 31/3/1 30/3/1 29/3/1
f 32/3/1 30/3/1 31/3/1
f 35/3/1 34/3/1 33/3/1
f 36/3/1 34/3/1 35/3/1
f 39/3/1 38/3/1 37/3/1
f 40/3/1 38/3/1 39/3/1
f 43/3/1 42/3/1 41/3/1
f 44/3/1 42/3/1 43/3/1
f 47/4/1 46/4/1 45/4/1
f 48/4/1 46/4/1 47/4/1
f 51/7/1 50/7/1 49/7/1
f 52/7/1 51/7/1 49/7/1
f 53/7/1 52/7/1 49/7/1
f 54/7/1 53/7/1 49/7/1
f 55/7/1 54/7/1 49/7/1
f 56/7/1 55/7/1 49/7/1
f 57/7/1 56/7/1 49/7/1
f 58/7/1 57/7/1 49/7/1
f 59/7/1 58/7/1 49/7/1
f 60/7/1 59/7/1 49/7/1
f 61/7/1 60/7/1 49/7/1
f 62/7/1 61/7/1 49/7/1
f 63/7/1 62/7/1 49/7/1
f 64/7/1 63/7/1 49/7/1
f 65/7/1 63/7/1 64/7/1
f 68/7/1 67/7/1 66/7/1
f 69/7/1 67/7/1 68/7/1
f 70/7/2 71/7/2 72/7/2
f 70/7/2 72/7/2 73/7/2
f 70/7/2 73/7/2 74/7/2
f 70/7/2 74/7/2 75/7/2
f 70/7/2 75/7/2 76/7/2
f 70/7/2 76/7/2 77/7/2
f 70/7/2 77/7/2 78/7/2
f 70/7/2 78/7/2 79/7/2
f 70/7/2 79/7/2 80/7/2
f 70/7/2 80/7/2 81/7/2
f 70/7/2 81/7/2 82/7/2
f 70/7/2 82/7/2 83/7/2
f 70/7/2 83/7/2 84/7/2
f 70/7/2 84/7/2 85/7/2
f 85/7/2 84/7/2 86/7/2
f 87/7/2 88/7/2 89/7/2
f 89/7/2 88/7/2 90/7/2
f 91/4/2 92/4/2 93/4/2
f 93/4/2 92/4/2 94/4/2
f 95/3/2 96/3/2 97/3/2
f 97/3/2 96/3/2 98/3/2
f 99/3/2 100/3/2 101/3/2
f 101/3/2 100/3/2 102/3/2
f 103/3/2 104/3/2 105/3/2
f 105/3/2 104/3/2 106/3/2
f 107/3/2 108/3/2 109/3/2
f 109/3/2 108/3/2 110/3/2
f 111/3/2 112/3/2 113/3/2
f 113/3/2 112/3/2 114/3/2
f 114/3/2 112/3/2 115/3/2
f 116/3/2 117/3/2 118/3/2
f 118/3/2 117/3/2 119/3/2
f 120/7/2 121/7/2 122/7/2
f 122/7/2 121/7/2 123/7/2
f 124/7/2 125/7/2 126/7/2
f 126/7/2 125/7/2 127/7/2
f 128/2/2 129/2/2 130/2/2
f 130/2/2 129/2/2 131/2/2
f 132/7/2 133/7/2 134/7/2
f 134/7/2 133/7/2 135/7/2
f 140/2/3 137/2/3 136/2/3
f 141/2/3 137/2/3 140/2/3
f 142/7/3 139/7/3 138/7/3
f 143/7/3 139/7/3 142/7/3
f 148/7/3 145/7/3 144/7/3
f 149/7/3 145/7/3 148/7/3
f 150/7/3 145/7/3 149/7/3
f 151/7/3 147/7/3 146/7/3
f 152/7/3 147/7/3 151/7/3
f 153/7/3 147/7/3 152/7/3
f 154/9/3 149/9/3 148/9/3
f 154/8/3 150/8/3 149/8/3
f 155/7/3 145/7/3 150/7/3
f 155/8/3 150/8/3 154/8/3
f 156/8/3 153/8/3 152/8/3
f 156/9/3 152/9/3 151/9/3
f 157/7/3 147/7/3 153/7/3
f 157/8/3 153/8/3 156/8/3
f 158/9/3 154/9/3 148/9/3
f 158/7/3 148/7/3 144/7/3
f 158/9/3 155/9/3 154/9/3
f 159/7/3 145/7/3 155/7/3
f 159/9/3 155/9/3 158/9/3
f 160/9/3 157/9/3 156/9/3
f 160/9/3 156/9/3 151/9/3
f 160/7/3 151/7/3 146/7/3
f 161/7/3 147/7/3 157/7/3
f 161/9/3 157/9/3 160/9/3
f 162/7/3 159/7/3 158/7/3
f 162/7/3 158/7/3 144/7/3
f 163/7/3 145/7/3 159/7/3
f 163/7/3 159/7/3 162/7/3
f 164/7/3 160/7/3 146/7/3
f 164/7/3 161/7/3 160/7/3
f 165/7/3 147/7/3 161/7/3
f 165/7/3 161/7/3 164/7/3
f 170/7/3 167/7/3 166/7/3
f 171/7/3 167/7/3 170/7/3
f 172/7/3 167/7/3 171/7/3
f 173/7/3 169/7/3 168/7/3
f 174/7/3 169/7/3 173/7/3
f 175/7/3 169/7/3 174/7/3
f 176/9/3 171/9/3 170/9/3
f 176/8/3 172/8/3 171/8/3
f 177/7/3 167/7/3 172/7/3
f 177/8/3 172/8/3 176/8/3
f 178/8/3 175/8/3 174/8/3
f 178/9/3 174/9/3 173/9/3
f 179/7/3 169/7/3 175/7/3
f 179/8/3 175/8/3 178/8/3
f 180/9/3 176/9/3 170/9/3
f 180/7/3 170/7/3 166/7/3
f 180/9/3 177/9/3 176/9/3
f 181/7/3 167/7/3 177/7/3
f 181/9/3 177/9/3 180/9/3
f 182/9/3 179/9/3 178/9/3
f 182/9/3 178/9/3 173/9/3
f 182/7/3 173/7/3 168/7/3
f 183/7/3 169/7/3 179/7/3
f 183/9/3 179/9/3 182/9/3
f 184/7/3 181/7/3 180/7/3
f 184/7/3 180/7/3 166/7/3
f 185/7/3 167/7/3 181/7/3
f 185/7/3 181/7/3 184/7/3
f 186/7/3 182/7/3 168/7/3
f 186/7/3 183/7/3 182/7/3
f 187/7/3 169/7/3 183/7/3
f 187/7/3 183/7/3 186/7/3
f 205/4/3 189/4/3 188/4/3
f 206/5/3 190/5/3 189/5/3
f 206/4/3 189/4/3 205/4/3
f 207/4/3 191/4/3 190/4/3
f 207/5/3 190/5/3 206/5/3
f 208/5/3 192/5/3 191/5/3
f 208/4/3 191/4/3 207/4/3
f 209/4/3 193/4/3 192/4/3
f 209/5/3 192/5/3 208/5/3
f 210/5/3 194/5/3 193/5/3
f 210/4/3 193/4/3 209/4/3
f 211/4/3 195/4/3 194/4/3
f 211/5/3 194/5/3 210/5/3
f 212/5/3 196/5/3 195/5/3
f 212/4/3 195/4/3 211/4/3
f 213/4/3 197/4/3 196/4/3
f 213/5/3 196/5/3 212/5/3
f 214/5/3 198/5/3 197/5/3
f 214/4/3 197/4/3 213/4/3
f 215/4/3 199/4/3 198/4/3
f 215/5/3 198/5/3 214/5/3
f 216/5/3 200/5/3 199/5/3
f 216/4/3 199/4/3 215/4/3
f 217/4/3 201/4/3 200/4/3
f 217/5/3 200/5/3 216/5/3
f 218/5/3 202/5/3 201/5/3
f 218/4/3 201/4/3 217/4/3
f 219/5/3 202/5/3 218/5/3
f 220/5/3 206/5/3 205/5/3
f 221/4/3 207/4/3 206/4/3
f 221/5/3 206/5/3 220/5/3
f 222/10/3 208/10/3 207/10/3
f 222/4/3 207/4/3 221/4/3
f 222/10/3 209/10/3 208/10/3
f 222/10/3 210/10/3 209/10/3
f 222/10/3 211/10/3 210/10/3
f 222/10/3 212/10/3 211/10/3
f 222/10/3 216/10/3 215/10/3
f 222/10/3 215/10/3 214/10/3
f 222/10/3 214/10/3 213/10/3
f 222/10/3 213/10/3 212/10/3
f 223/10/3 216/10/3 222/10/3
f 224/10/3 216/10/3 223/10/3
f 225/4/3 217/4/3 216/4/3
f 225/10/3 216/10/3 224/10/3
f 226/5/3 218/5/3 217/5/3
f 226/4/3 217/4/3 225/4/3
f 227/4/3 219/4/3 218/4/3
f 227/5/3 218/5/3 226/5/3
f 228/4/3 219/4/3 227/4/3
f 229/7/3 204/7/3 203/7/3
f 230/7/3 204/7/3 229/7/3
f 231/7/3 204/7/3 230/7/3
f 232/6/3 221/6/3 220/6/3
f 233/5/3 222/5/3 221/5/3
f 233/6/3 221/6/3 232/6/3
f 234/10/3 223/10/3 222/10/3
f 234/5/3 222/5/3 233/5/3
f 235/5/3 226/5/3 225/5/3
f 235/10/3 225/10/3 224/10/3
f 236/6/3 227/6/3 226/6/3
f 236/5/3 226/5/3 235/5/3
f 237/5/3 228/5/3 227/5/3
f 237/6/3 227/6/3 236/6/3
f 238/5/3 228/5/3 237/5/3
f 239/5/3 233/5/3 232/5/3
f 240/4/3 234/4/3 233/4/3
f 240/5/3 233/5/3 239/5/3
f 241/10/3 223/10/3 234/10/3
f 241/4/3 234/4/3 240/4/3
f 242/4/3 236/4/3 235/4/3
f 242/10/3 235/10/3 224/10/3
f 243/5/3 237/5/3 236/5/3
f 243/4/3 236/4/3 242/4/3
f 244/4/3 238/4/3 237/4/3
f 244/5/3 237/5/3 243/5/3
f 245/4/3 238/4/3 244/4/3
f 246/4/3 240/4/3 239/4/3
f 247/5/3 241/5/3 240/5/3
f 247/4/3 240/4/3 246/4/3
f 248/10/3 223/10/3 241/10/3
f 248/5/3 241/5/3 247/5/3
f 249/10/3 242/10/3 224/10/3
f 249/5/3 243/5/3 242/5/3
f 250/4/3 244/4/3 243/4/3
f 250/5/3 243/5/3 249/5/3
f 251/5/3 245/5/3 244/5/3
f 251/4/3 244/4/3 250/4/3
f 252/5/3 245/5/3 251/5/3
f 253/5/3 247/5/3 246/5/3
f 254/4/3 248/4/3 247/4/3
f 254/5/3 247/5/3 253/5/3
f 255/10/3 223/10/3 248/10/3
f 255/4/3 248/4/3 254/4/3
f 256/10/3 249/10/3 224/10/3
f 256/4/3 250/4/3 249/4/3
f 257/5/3 251/5/3 250/5/3
f 257/4/3 250/4/3 256/4/3
f 258/4/3 252/4/3 251/4/3
f 258/5/3 251/5/3 257/5/3
f 259/4/3 252/4/3 258/4/3
f 260/6/3 254/6/3 253/6/3
f 261/5/3 255/5/3 254/5/3
f 261/6/3 254/6/3 260/6/3
f 262/10/3 223/10/3 255/10/3
f 262/5/3 255/5/3 261/5/3
f 263/10/3 256/10/3 224/10/3
f 263/5/3 257/5/3 256/5/3
f 264/6/3 258/6/3 257/6/3
f 264/5/3 257/5/3 263/5/3
f 265/5/3 259/5/3 258/5/3
f 265/6/3 258/6/3 264/6/3
f 266/5/3 259/5/3 265/5/3
f 267/5/3 261/5/3 260/5/3
f 268/4/3 262/4/3 261/4/3
f 268/5/3 261/5/3 267/5/3
f 269/10/3 223/10/3 262/10/3
f 269/4/3 262/4/3 268/4/3
f 270/1/3 224/1/3 223/1/3
f 270/10/3 223/10/3 269/10/3
f 271/10/3 263/10/3 224/10/3
f 271/1/3 224/1/3 270/1/3
f 272/4/3 264/4/3 263/4/3
f 272/10/3 263/10/3 271/10/3
f 273/5/3 265/5/3 264/5/3
f 273/4/3 264/4/3 272/4/3
f 274/4/3 266/4/3 265/4/3
f 274/5/3 265/5/3 273/5/3
f 275/4/3 266/4/3 274/4/3
f 276/4/3 268/4/3 267/4/3
f 277/5/3 269/5/3 268/5/3
f 277/4/3 268/4/3 276/4/3
f 278/10/3 270/10/3 269/10/3
f 278/5/3 269/5/3 277/5/3
f 278/10/3 271/10/3 270/10/3
f 278/10/3 272/10/3 271/10/3
f 279/10/3 272/10/3 278/10/3
f 280/10/3 272/10/3 279/10/3
f 281/5/3 273/5/3 272/5/3
f 281/10/3 272/10/3 280/10/3
f 282/4/3 274/4/3 273/4/3
f 282/5/3 273/5/3 281/5/3
f 283/5/3 275/5/3 274/5/3
f 283/4/3 274/4/3 282/4/3
f 284/5/3 275/5/3 283/5/3
f 285/5/3 277/5/3 276/5/3
f 286/4/3 278/4/3 277/4/3
f 286/5/3 277/5/3 285/5/3
f 287/10/3 279/10/3 278/10/3
f 287/4/3 278/4/3 286/4/3
f 288/4/3 282/4/3 281/4/3
f 288/10/3 281/10/3 280/10/3
f 289/5/3 283/5/3 282/5/3
f 289/4/3 282/4/3 288/4/3
f 290/4/3 284/4/3 283/4/3
f 290/5/3 283/5/3 289/5/3
f 291/4/3 284/4/3 290/4/3
f 292/6/3 286/6/3 285/6/3
f 293/5/3 287/5/3 286/5/3
f 293/6/3 286/6/3 292/6/3
f 294/10/3 279/10/3 287/10/3
f 294/5/3 287/5/3 293/5/3
f 295/10/3 288/10/3 280/10/3
f 295/5/3 289/5/3 288/5/3
f 296/6/3 290/6/3 289/6/3
f 296/5/3 289/5/3 295/5/3
f 297/5/3 291/5/3 290/5/3
f 297/6/3 290/6/3 296/6/3
f 298/5/3 291/5/3 297/5/3
f 299/5/3 293/5/3 292/5/3
f 300/4/3 294/4/3 293/4/3
f 300/5/3 293/5/3 299/5/3
f 301/10/3 279/10/3 294/10/3
f 301/4/3 294/4/3 300/4/3
f 302/10/3 295/10/3 280/10/3
f 302/4/3 296/4/3 295/4/3
f 303/5/3 297/5/3 296/5/3
f 303/4/3 296/4/3 302/4/3
f 304/4/3 298/4/3 297/4/3
f 304/5/3 297/5/3 303/5/3
f 305/4/3 298/4/3 304/4/3
f 306/4/3 300/4/3 299/4/3
f 307/5/3 301/5/3 300/5/3
f 307/4/3 300/4/3 306/4/3
f 308/10/3 279/10/3 301/10/3
f 308/5/3 301/5/3 307/5/3
f 309/10/3 302/10/3 280/10/3
f 309/5/3 303/5/3 302/5/3
f 310/4/3 304/4/3 303/4/3
f 310/5/3 303/5/3 309/5/3
f 311/5/3 305/5/3 304/5/3
f 311/4/3 304/4/3 310/4/3
f 312/5/3 305/5/3 311/5/3
f 313/5/3 307/5/3 306/5/3
f 314/4/3 308/4/3 307/4/3
f 314/5/3 307/5/3 313/5/3
f 315/10/3 279/10/3 308/10/3
f 315/4/3 308/4/3 314/4/3
f 316/10/3 309/10/3 280/10/3
f 316/4/3 310/4/3 309/4/3
f 317/5/3 311/5/3 310/5/3
f 317/4/3 310/4/3 316/4/3
f 318/4/3 312/4/3 311/4/3
f 318/5/3 311/5/3 317/5/3
f 319/4/3 312/4/3 318/4/3
f 320/9/3 230/9/3 229/9/3
f 320/8/3 231/8/3 230/8/3
f 321/7/3 204/7/3 231/7/3
f 321/8/3 231/8/3 320/8/3
f 322/6/3 314/6/3 313/6/3
f 323/5/3 315/5/3 314/5/3
f 323/6/3 314/6/3 322/6/3
f 324/10/3 279/10/3 315/10/3
f 324/5/3 315/5/3 323/5/3
f 325/1/3 280/1/3 279/1/3
f 325/10/3 279/10/3 324/10/3
f 326/10/3 316/10/3 280/10/3
f 326/1/3 280/1/3 325/1/3
f 327/5/3 317/5/3 316/5/3
f 327/10/3 316/10/3 326/10/3
f 328/6/3 318/6/3 317/6/3
f 328/5/3 317/5/3 327/5/3
f 329/5/3 319/5/3 318/5/3
f 329/6/3 318/6/3 328/6/3
f 330/5/3 319/5/3 329/5/3
f 331/9/3 320/9/3 229/9/3
f 331/7/3 229/7/3 203/7/3
f 331/9/3 321/9/3 320/9/3
f 332/7/3 204/7/3 321/7/3
f 332/9/3 321/9/3 331/9/3
f 333/5/3 323/5/3 322/5/3
f 334/4/3 324/4/3 323/4/3
f 334/5/3 323/5/3 333/5/3
f 335/10/3 327/10/3 326/10/3
f 335/4/3 324/4/3 334/4/3
f 335/10/3 326/10/3 325/10/3
f 335/10/3 325/10/3 324/10/3
f 336/10/3 327/10/3 335/10/3
f 337/10/3 327/10/3 336/10/3
f 338/10/3 327/10/3 337/10/3
f 339/10/3 327/10/3 338/10/3
f 340/10/3 327/10/3 339/10/3
f 341/10/3 327/10/3 340/10/3
f 342/10/3 327/10/3 341/10/3
f 343/10/3 327/10/3 342/10/3
f 344/4/3 328/4/3 327/4/3
f 344/10/3 327/10/3 343/10/3
f 345/5/3 329/5/3 328/5/3
f 345/4/3 328/4/3 344/4/3
f 346/4/3 330/4/3 329/4/3
f 346/5/3 329/5/3 345/5/3
f 347/4/3 330/4/3 346/4/3
f 348/4/3 334/4/3 333/4/3
f 349/5/3 335/5/3 334/5/3
f 349/4/3 334/4/3 348/4/3
f 350/4/3 336/4/3 335/4/3
f 350/5/3 335/5/3 349/5/3
f 351/5/3 337/5/3 336/5/3
f 351/4/3 336/4/3 350/4/3
f 352/4/3 338/4/3 337/4/3
f 352/5/3 337/5/3 351/5/3
f 353/5/3 339/5/3 338/5/3
f 353/4/3 338/4/3 352/4/3
f 354/4/3 340/4/3 339/4/3
f 354/5/3 339/5/3 353/5/3
f 355/5/3 341/5/3 340/5/3
f 355/4/3 340/4/3 354/4/3
f 356/4/3 342/4/3 341/4/3
f 356/5/3 341/5/3 355/5/3
f 357/5/3 343/5/3 342/5/3
f 357/4/3 342/4/3 356/4/3
f 358/4/3 344/4/3 343/4/3
f 358/5/3 343/5/3 357/5/3
f 359/5/3 345/5/3 344/5/3
f 359/4/3 344/4/3 358/4/3
f 360/4/3 346/4/3 345/4/3
f 360/5/3 345/5/3 359/5/3
f 361/5/3 347/5/3 346/5/3
f 361/4/3 346/4/3 360/4/3
f 362/5/3 347/5/3 361/5/3
f 363/7/3 332/7/3 331/7/3
f 363/7/3 331/7/3 203/7/3
f 364/7/3 204/7/3 332/7/3
f 364/7/3 332/7/3 363/7/3
f 367/3/3 366/3/3 365/3/3
f 368/3/3 366/3/3 367/3/3
f 372/3/3 370/3/3 369/3/3
f 373/3/3 370/3/3 372/3/3
f 373/3/3 372/3/3 371/3/3
f 374/3/3 370/3/3 373/3/3
f 375/3/3 373/3/3 371/3/3
f 376/3/3 373/3/3 375/3/3
f 379/3/3 378/3/3 377/3/3
f 380/3/3 378/3/3 379/3/3
f 384/3/3 382/3/3 381/3/3
f 385/3/3 384/3/3 383/3/3
f 386/3/3 382/3/3 384/3/3
f 386/3/3 384/3/3 385/3/3
f 387/3/3 382/3/3 386/3/3
f 390/7/3 389/7/3 388/7/3
f 391/7/3 389/7/3 390/7/3
f 393/7/3 389/7/3 391/7/3
f 394/7/3 393/7/3 392/7/3
f 395/7/3 389/7/3 393/7/3
f 395/7/3 393/7/3 394/7/3
f 396/7/3 389/7/3 395/7/3
f 397/7/3 389/7/3 396/7/3
f 399/7/3 389/7/3 397/7/3
f 400/7/3 399/7/3 398/7/3
f 401/7/3 389/7/3 399/7/3
f 401/7/3 399/7/3 400/7/3
f 402/10/4 403/10/4 404/10/4
f 404/10/4 403/10/4 405/10/4
f 402/10/4 404/10/4 406/10/4
f 404/1/4 405/1/4 407/1/4
f 406/10/4 404/10/4 407/10/4
f 407/1/4 405/1/4 409/1/4
f 409/1/4 405/1/4 410/1/4
f 408/10/4 409/10/4 410/10/4
f 405/10/4 403/10/4 411/10/4
f 410/1/4 405/1/4 411/1/4
f 408/10/4 410/10/4 412/10/4
f 410/10/4 411/10/4 412/10/4
f 412/10/4 411/10/4 413/10/4
f 411/10/4 403/10/4 414/10/4
f 413/10/4 411/10/4 414/10/4
f 413/1/4 414/1/4 416/1/4
f 416/1/4 414/1/4 417/1/4
f 415/10/4 416/10/4 417/10/4
f 414/10/4 403/10/4 418/10/4
f 417/1/4 414/1/4 418/1/4
f 415/10/4 417/10/4 419/10/4
f 417/10/4 418/10/4 419/10/4
f 418/10/4 403/10/4 420/10/4
f 419/10/4 418/10/4 420/10/4
f 421/3/4 422/3/4 423/3/4
f 423/3/4 422/3/4 424/3/4
f 425/3/4 426/3/4 427/3/4
f 427/3/4 426/3/4 428/3/4
f 429/3/4 430/3/4 431/3/4
f 431/3/4 430/3/4 432/3/4
f 433/2/4 434/2/4 438/2/4
f 438/2/4 434/2/4 439/2/4
f 435/7/4 436/7/4 440/7/4
f 437/7/4 438/7/4 441/7/4
f 438/2/4 439/2/4 442/2/4
f 441/7/4 438/7/4 442/7/4
f 439/7/4 440/7/4 443/7/4
f 442/2/4 439/2/4 443/2/4
f 440/7/4 436/7/4 444/7/4
f 443/7/4 440/7/4 444/7/4
f 442/2/4 443/2/4 445/2/4
f 445/2/4 443/2/4 446/2/4
f 444/7/4 436/7/4 447/7/4
f 447/7/4 436/7/4 448/7/4
f 453/7/5 450/7/5 449/7/5
f 454/7/5 450/7/5 453/7/5
f 471/7/5 452/7/5 451/7/5
f 472/7/5 452/7/5 471/7/5
f 473/4/5 454/4/5 453/4/5
f 473/4/5 455/4/5 454/4/5
f 473/5/5 456/5/5 455/5/5
f 474/6/5 457/6/5 456/6/5
f 474/5/5 456/5/5 473/5/5
f 475/5/5 458/5/5 457/5/5
f 475/6/5 457/6/5 474/6/5
f 476/4/5 459/4/5 458/4/5
f 476/5/5 458/5/5 475/5/5
f 477/5/5 460/5/5 459/5/5
f 477/4/5 459/4/5 476/4/5
f 478/6/5 461/6/5 460/6/5
f 478/5/5 460/5/5 477/5/5
f 479/5/5 462/5/5 461/5/5
f 479/6/5 461/6/5 478/6/5
f 480/4/5 463/4/5 462/4/5
f 480/5/5 462/5/5 479/5/5
f 481/5/5 464/5/5 463/5/5
f 481/4/5 463/4/5 480/4/5
f 482/6/5 465/6/5 464/6/5
f 482/5/5 464/5/5 481/5/5
f 483/5/5 466/5/5 465/5/5
f 483/6/5 465/6/5 482/6/5
f 484/4/5 467/4/5 466/4/5
f 484/5/5 466/5/5 483/5/5
f 485/5/5 468/5/5 467/5/5
f 485/4/5 467/4/5 484/4/5
f 486/6/5 469/6/5 468/6/5
f 486/5/5 468/5/5 485/5/5
f 487/5/5 470/5/5 469/5/5
f 487/6/5 469/6/5 486/6/5
f 488/4/5 472/4/5 471/4/5
f 488/5/5 470/5/5 487/5/5
f 488/4/5 471/4/5 470/4/5
f 489/4/5 486/4/5 485/4/5
f 489/7/5 453/7/5 449/7/5
f 489/4/5 488/4/5 487/4/5
f 489/4/5 485/4/5 484/4/5
f 489/4/5 484/4/5 483/4/5
f 489/4/5 483/4/5 482/4/5
f 489/4/5 482/4/5 481/4/5
f 489/4/5 481/4/5 480/4/5
f 489/4/5 480/4/5 479/4/5
f 489/4/5 479/4/5 478/4/5
f 489/4/5 478/4/5 477/4/5
f 489/4/5 477/4/5 476/4/5
f 489/4/5 476/4/5 475/4/5
f 489/4/5 475/4/5 474/4/5
f 489/4/5 474/4/5 473/4/5
f 489/4/5 473/4/5 453/4/5
f 489/4/5 487/4/5 486/4/5
f 490/4/5 472/4/5 488/4/5
f 490/4/5 488/4/5 489/4/5
f 490/7/5 452/7/5 472/7/5
f 491/7/5 489/7/5 449/7/5
f 491/7/5 490/7/5 489/7/5
f 492/7/5 452/7/5 490/7/5
f 492/7/5 490/7/5 491/7/5
f 495/4/5 494/4/5 493/4/5
f 496/4/5 494/4/5 495/4/5
f 499/2/5 498/2/5 497/2/5
f 500/2/5 498/2/5 499/2/5
f 501/2/5 498/2/5 500/2/5
f 502/2/5 498/2/5 501/2/5
f 503/2/5 501/2/5 500/2/5
f 504/2/5 501/2/5 503/2/5
f 505/2/5 501/2/5 504/2/5
f 506/2/5 501/2/5 505/2/5
f 507/2/5 501/2/5 506/2/5
f 508/2/5 501/2/5 507/2/5
f 509/2/5 501/2/5 508/2/5
f 510/2/5 501/2/5 509/2/5
f 511/2/5 501/2/5 510/2/5
f 512/2/5 501/2/5 511/2/5
f 513/2/5 501/2/5 512/2/5
f 514/2/5 501/2/5 513/2/5
f 515/2/5 501/2/5 514/2/5
f 516/2/5 501/2/5 515/2/5
f 517/2/5 501/2/5 516/2/5
f 518/2/5 501/2/5 517/2/5
f 519/2/5 501/2/5 518/2/5
f 520/2/5 501/2/5 519/2/5
f 521/2/5 499/2/5 497/2/5
f 522/2/5 499/2/5 521/2/5
f 523/2/5 498/2/5 502/2/5
f 524/2/5 498/2/5 523/2/5
f 527/7/5 526/7/5 525/7/5
f 528/7/5 526/7/5 527/7/5
f 529/7/5 526/7/5 528/7/5
f 530/7/5 526/7/5 529/7/5
f 531/7/5 529/7/5 528/7/5
f 532/7/5 529/7/5 531/7/5
f 533/7/5 527/7/5 525/7/5
f 534/7/5 527/7/5 533/7/5
f 535/7/5 526/7/5 530/7/5
f 536/7/5 526/7/5 535/7/5
f 537/4/6 538/4/6 543/4/6
f 543/4/6 538/4/6 544/4/6
f 539/4/6 540/4/6 545/4/6
f 545/4/6 540/4/6 546/4/6
f 541/4/6 542/4/6 547/4/6
f 547/4/6 542/4/6 548/4/6
f 541/4/6 547/4/6 551/4/6
f 551/4/6 547/4/6 552/4/6
f 548/4/6 542/4/6 553/4/6
f 537/4/6 543/4/6 554/4/6
f 554/4/6 543/4/6 555/4/6
f 549/4/6 550/4/6 556/4/6
f 556/4/6 550/4/6 557/4/6
f 552/4/6 553/4/6 558/4/6
f 553/4/6 542/4/6 559/4/6
f 558/4/6 553/4/6 559/4/6
f 560/3/6 561/3/6 565/3/6
f 565/3/6 561/3/6 566/3/6
f 566/3/6 561/3/6 567/3/6
f 562/3/6 563/3/6 569/3/6
f 564/3/6 565/3/6 572/3/6
f 565/3/6 566/3/6 572/3/6
f 572/3/6 566/3/6 573/3/6
f 573/3/6 566/3/6 574/3/6
f 568/3/6 569/3/6 575/3/6
f 569/3/6 563/3/6 576/3/6
f 575/3/6 569/3/6 576/3/6
f 576/3/6 563/3/6 577/3/6
f 570/3/6 571/3/6 578/3/6
f 578/3/6 571/3/6 579/3/6
f 564/3/6 572/3/6 580/3/6
f 580/3/6 572/3/6 581/3/6
f 573/3/6 574/3/6 582/3/6
f 574/3/6 575/3/6 582/3/6
f 575/3/6 576/3/6 582/3/6
f 582/3/6 576/3/6 583/3/6
f 584/3/6 585/3/6 586/3/6
f 586/3/6 585/3/6 587/3/6
f 588/3/6 589/3/6 590/3/6
f 590/3/6 589/3/6 591/3/6
f 592/2/6 593/2/6 594/2/6
f 594/2/6 593/2/6 595/2/6
f 595/2/6 593/2/6 596/2/6
f 596/2/6 593/2/6 597/2/6
f 595/2/6 596/2/6 598/2/6
f 598/2/6 596/2/6 599/2/6
f 592/2/6 594/2/6 600/2/6
f 600/2/6 594/2/6 601/2/6
f 597/2/6 593/2/6 602/2/6
f 602/2/6 593/2/6 603/2/6
f 604/7/6 605/7/6 606/7/6
f 606/7/6 605/7/6 607/7/6
