# MagicaVoxel @ Ephtracy

# group
o table_2

# material
mtllib livingroom_oldie-9-table_2.mtl
usemtl palette

# normals
vn -1 0 0
vn 1 0 0
vn 0 0 1
vn 0 0 -1
vn 0 -1 0
vn 0 1 0

# texcoords
vt 0.220703 0.5
vt 0.224609 0.5
vt 0.228516 0.5

# verts
v -0.9 0.4 11.7
v -0.9 0.4 10.7
v -0.9 0.5 11.7
v -0.9 0.5 10.7
v -0.8 0 11.6
v -0.8 0 11.5
v -0.8 0 10.9
v -0.8 0 10.8
v -0.8 0.1 11.6
v -0.8 0.1 11.5
v -0.8 0.1 10.9
v -0.8 0.1 10.8
v -0.8 0.2 11.6
v -0.8 0.2 11.5
v -0.8 0.2 10.9
v -0.8 0.2 10.8
v -0.8 0.3 11.6
v -0.8 0.3 11.5
v -0.8 0.3 10.9
v -0.8 0.3 10.8
v -0.8 0.4 11.6
v -0.8 0.4 11.5
v -0.8 0.4 10.9
v -0.8 0.4 10.8
v 0.7 0 11.6
v 0.7 0 11.5
v 0.7 0 10.9
v 0.7 0 10.8
v 0.7 0.1 11.6
v 0.7 0.1 11.5
v 0.7 0.1 10.9
v 0.7 0.1 10.8
v 0.7 0.2 11.6
v 0.7 0.2 11.5
v 0.7 0.2 10.9
v 0.7 0.2 10.8
v 0.7 0.3 11.6
v 0.7 0.3 11.5
v 0.7 0.3 10.9
v 0.7 0.3 10.8
v -0.7 0 11.6
v -0.7 0 11.5
v -0.7 0 10.9
v -0.7 0 10.8
v -0.7 0.1 11.6
v -0.7 0.1 11.5
v -0.7 0.1 10.9
v -0.7 0.1 10.8
v -0.7 0.2 11.6
v -0.7 0.2 11.5
v -0.7 0.2 10.9
v -0.7 0.2 10.8
v -0.7 0.3 11.6
v -0.7 0.3 11.5
v -0.7 0.3 10.9
v -0.7 0.3 10.8
v 0.8 0 11.6
v 0.8 0 11.5
v 0.8 0 10.9
v 0.8 0 10.8
v 0.8 0.1 11.6
v 0.8 0.1 11.5
v 0.8 0.1 10.9
v 0.8 0.1 10.8
v 0.8 0.2 11.6
v 0.8 0.2 11.5
v 0.8 0.2 10.9
v 0.8 0.2 10.8
v 0.8 0.3 11.6
v 0.8 0.3 11.5
v 0.8 0.3 10.9
v 0.8 0.3 10.8
v 0.8 0.4 11.6
v 0.8 0.4 11.5
v 0.8 0.4 10.9
v 0.8 0.4 10.8
v 0.9 0.4 11.7
v 0.9 0.4 10.7
v 0.9 0.5 11.7
v 0.9 0.5 10.7
v -0.9 0.4 11.7
v -0.9 0.5 11.7
v 0.9 0.4 11.7
v 0.9 0.5 11.7
v -0.8 0 11.6
v -0.8 0.1 11.6
v -0.8 0.2 11.6
v -0.8 0.3 11.6
v -0.8 0.4 11.6
v -0.7 0 11.6
v -0.7 0.1 11.6
v -0.7 0.2 11.6
v -0.7 0.3 11.6
v -0.7 0.4 11.6
v 0.7 0 11.6
v 0.7 0.1 11.6
v 0.7 0.2 11.6
v 0.7 0.3 11.6
v 0.7 0.4 11.6
v 0.8 0 11.6
v 0.8 0.1 11.6
v 0.8 0.2 11.6
v 0.8 0.3 11.6
v 0.8 0.4 11.6
v -0.8 0 10.9
v -0.8 0.1 10.9
v -0.8 0.2 10.9
v -0.8 0.3 10.9
v -0.7 0 10.9
v -0.7 0.1 10.9
v -0.7 0.2 10.9
v -0.7 0.3 10.9
v 0.7 0 10.9
v 0.7 0.1 10.9
v 0.7 0.2 10.9
v 0.7 0.3 10.9
v 0.8 0 10.9
v 0.8 0.1 10.9
v 0.8 0.2 10.9
v 0.8 0.3 10.9
v -0.8 0 11.5
v -0.8 0.1 11.5
v -0.8 0.2 11.5
v -0.8 0.3 11.5
v -0.7 0 11.5
v -0.7 0.1 11.5
v -0.7 0.2 11.5
v -0.7 0.3 11.5
v 0.7 0 11.5
v 0.7 0.1 11.5
v 0.7 0.2 11.5
v 0.7 0.3 11.5
v 0.8 0 11.5
v 0.8 0.1 11.5
v 0.8 0.2 11.5
v 0.8 0.3 11.5
v -0.8 0 10.8
v -0.8 0.1 10.8
v -0.8 0.2 10.8
v -0.8 0.3 10.8
v -0.8 0.4 10.8
v -0.7 0 10.8
v -0.7 0.1 10.8
v -0.7 0.2 10.8
v -0.7 0.3 10.8
v -0.7 0.4 10.8
v 0.7 0 10.8
v 0.7 0.1 10.8
v 0.7 0.2 10.8
v 0.7 0.3 10.8
v 0.7 0.4 10.8
v 0.8 0 10.8
v 0.8 0.1 10.8
v 0.8 0.2 10.8
v 0.8 0.3 10.8
v 0.8 0.4 10.8
v -0.9 0.4 10.7
v -0.9 0.5 10.7
v 0.9 0.4 10.7
v 0.9 0.5 10.7
v -0.8 0 11.6
v -0.7 0 11.6
v 0.7 0 11.6
v 0.8 0 11.6
v -0.8 0 11.5
v -0.7 0 11.5
v 0.7 0 11.5
v 0.8 0 11.5
v -0.8 0 10.9
v -0.7 0 10.9
v 0.7 0 10.9
v 0.8 0 10.9
v -0.8 0 10.8
v -0.7 0 10.8
v 0.7 0 10.8
v 0.8 0 10.8
v -0.7 0.3 11.6
v 0.7 0.3 11.6
v -0.8 0.3 11.5
v -0.7 0.3 11.5
v 0.7 0.3 11.5
v 0.8 0.3 11.5
v -0.8 0.3 10.9
v -0.7 0.3 10.9
v 0.7 0.3 10.9
v 0.8 0.3 10.9
v -0.7 0.3 10.8
v 0.7 0.3 10.8
v -0.9 0.4 11.7
v 0.9 0.4 11.7
v -0.8 0.4 11.6
v -0.7 0.4 11.6
v 0.7 0.4 11.6
v 0.8 0.4 11.6
v -0.8 0.4 11.5
v 0.8 0.4 11.5
v -0.8 0.4 10.9
v 0.8 0.4 10.9
v -0.8 0.4 10.8
v -0.7 0.4 10.8
v 0.7 0.4 10.8
v 0.8 0.4 10.8
v -0.9 0.4 10.7
v 0.9 0.4 10.7
v -0.9 0.5 11.7
v 0.9 0.5 11.7
v -0.9 0.5 10.7
v 0.9 0.5 10.7

# faces
f 3/1/1 2/1/1 1/1/1
f 4/1/1 2/1/1 3/1/1
f 9/2/1 6/2/1 5/2/1
f 10/2/1 6/2/1 9/2/1
f 11/2/1 8/2/1 7/2/1
f 12/2/1 8/2/1 11/2/1
f 13/1/1 10/1/1 9/1/1
f 14/1/1 10/1/1 13/1/1
f 15/1/1 12/1/1 11/1/1
f 16/1/1 12/1/1 15/1/1
f 17/3/1 14/3/1 13/3/1
f 18/3/1 14/3/1 17/3/1
f 19/3/1 16/3/1 15/3/1
f 20/3/1 16/3/1 19/3/1
f 21/2/1 18/2/1 17/2/1
f 22/1/1 19/1/1 18/1/1
f 22/2/1 18/2/1 21/2/1
f 23/2/1 20/2/1 19/2/1
f 23/1/1 19/1/1 22/1/1
f 24/2/1 20/2/1 23/2/1
f 29/2/1 26/2/1 25/2/1
f 30/2/1 26/2/1 29/2/1
f 31/2/1 28/2/1 27/2/1
f 32/2/1 28/2/1 31/2/1
f 33/1/1 30/1/1 29/1/1
f 34/1/1 30/1/1 33/1/1
f 35/1/1 32/1/1 31/1/1
f 36/1/1 32/1/1 35/1/1
f 37/3/1 34/3/1 33/3/1
f 38/3/1 34/3/1 37/3/1
f 39/3/1 36/3/1 35/3/1
f 40/3/1 36/3/1 39/3/1
f 41/2/2 42/2/2 45/2/2
f 45/2/2 42/2/2 46/2/2
f 43/2/2 44/2/2 47/2/2
f 47/2/2 44/2/2 48/2/2
f 45/1/2 46/1/2 49/1/2
f 49/1/2 46/1/2 50/1/2
f 47/1/2 48/1/2 51/1/2
f 51/1/2 48/1/2 52/1/2
f 49/3/2 50/3/2 53/3/2
f 53/3/2 50/3/2 54/3/2
f 51/3/2 52/3/2 55/3/2
f 55/3/2 52/3/2 56/3/2
f 57/2/2 58/2/2 61/2/2
f 61/2/2 58/2/2 62/2/2
f 59/2/2 60/2/2 63/2/2
f 63/2/2 60/2/2 64/2/2
f 61/1/2 62/1/2 65/1/2
f 65/1/2 62/1/2 66/1/2
f 63/1/2 64/1/2 67/1/2
f 67/1/2 64/1/2 68/1/2
f 65/3/2 66/3/2 69/3/2
f 69/3/2 66/3/2 70/3/2
f 67/3/2 68/3/2 71/3/2
f 71/3/2 68/3/2 72/3/2
f 69/2/2 70/2/2 73/2/2
f 70/1/2 71/1/2 74/1/2
f 73/2/2 70/2/2 74/2/2
f 71/2/2 72/2/2 75/2/2
f 74/1/2 71/1/2 75/1/2
f 75/2/2 72/2/2 76/2/2
f 77/1/2 78/1/2 79/1/2
f 79/1/2 78/1/2 80/1/2
f 83/1/3 82/1/3 81/1/3
f 84/1/3 82/1/3 83/1/3
f 90/2/3 86/2/3 85/2/3
f 91/1/3 87/1/3 86/1/3
f 91/2/3 86/2/3 90/2/3
f 92/3/3 88/3/3 87/3/3
f 92/1/3 87/1/3 91/1/3
f 93/2/3 89/2/3 88/2/3
f 93/3/3 88/3/3 92/3/3
f 94/2/3 89/2/3 93/2/3
f 98/1/3 94/1/3 93/1/3
f 99/1/3 94/1/3 98/1/3
f 100/2/3 96/2/3 95/2/3
f 101/1/3 97/1/3 96/1/3
f 101/2/3 96/2/3 100/2/3
f 102/3/3 98/3/3 97/3/3
f 102/1/3 97/1/3 101/1/3
f 103/2/3 99/2/3 98/2/3
f 103/3/3 98/3/3 102/3/3
f 104/2/3 99/2/3 103/2/3
f 109/2/3 106/2/3 105/2/3
f 110/1/3 107/1/3 106/1/3
f 110/2/3 106/2/3 109/2/3
f 111/3/3 108/3/3 107/3/3
f 111/1/3 107/1/3 110/1/3
f 112/3/3 108/3/3 111/3/3
f 117/2/3 114/2/3 113/2/3
f 118/1/3 115/1/3 114/1/3
f 118/2/3 114/2/3 117/2/3
f 119/3/3 116/3/3 115/3/3
f 119/1/3 115/1/3 118/1/3
f 120/3/3 116/3/3 119/3/3
f 121/2/4 122/2/4 125/2/4
f 122/1/4 123/1/4 126/1/4
f 125/2/4 122/2/4 126/2/4
f 123/3/4 124/3/4 127/3/4
f 126/1/4 123/1/4 127/1/4
f 127/3/4 124/3/4 128/3/4
f 129/2/4 130/2/4 133/2/4
f 130/1/4 131/1/4 134/1/4
f 133/2/4 130/2/4 134/2/4
f 131/3/4 132/3/4 135/3/4
f 134/1/4 131/1/4 135/1/4
f 135/3/4 132/3/4 136/3/4
f 137/2/4 138/2/4 142/2/4
f 138/1/4 139/1/4 143/1/4
f 142/2/4 138/2/4 143/2/4
f 139/3/4 140/3/4 144/3/4
f 143/1/4 139/1/4 144/1/4
f 140/2/4 141/2/4 145/2/4
f 144/3/4 140/3/4 145/3/4
f 145/2/4 141/2/4 146/2/4
f 145/1/4 146/1/4 150/1/4
f 150/1/4 146/1/4 151/1/4
f 147/2/4 148/2/4 152/2/4
f 148/1/4 149/1/4 153/1/4
f 152/2/4 148/2/4 153/2/4
f 149/3/4 150/3/4 154/3/4
f 153/1/4 149/1/4 154/1/4
f 150/2/4 151/2/4 155/2/4
f 154/3/4 150/3/4 155/3/4
f 155/2/4 151/2/4 156/2/4
f 157/1/4 158/1/4 159/1/4
f 159/1/4 158/1/4 160/1/4
f 165/2/5 162/2/5 161/2/5
f 166/2/5 162/2/5 165/2/5
f 167/2/5 164/2/5 163/2/5
f 168/2/5 164/2/5 167/2/5
f 173/2/5 170/2/5 169/2/5
f 174/2/5 170/2/5 173/2/5
f 175/2/5 172/2/5 171/2/5
f 176/2/5 172/2/5 175/2/5
f 180/1/5 178/1/5 177/1/5
f 181/1/5 178/1/5 180/1/5
f 183/1/5 180/1/5 179/1/5
f 183/1/5 182/1/5 181/1/5
f 183/1/5 181/1/5 180/1/5
f 184/1/5 182/1/5 183/1/5
f 185/1/5 182/1/5 184/1/5
f 186/1/5 182/1/5 185/1/5
f 187/1/5 185/1/5 184/1/5
f 188/1/5 185/1/5 187/1/5
f 191/1/5 190/1/5 189/1/5
f 192/1/5 190/1/5 191/1/5
f 193/1/5 190/1/5 192/1/5
f 194/1/5 190/1/5 193/1/5
f 195/1/5 191/1/5 189/1/5
f 196/1/5 190/1/5 194/1/5
f 197/1/5 195/1/5 189/1/5
f 198/1/5 190/1/5 196/1/5
f 199/1/5 197/1/5 189/1/5
f 202/1/5 190/1/5 198/1/5
f 203/1/5 201/1/5 200/1/5
f 203/1/5 202/1/5 201/1/5
f 203/1/5 199/1/5 189/1/5
f 203/1/5 200/1/5 199/1/5
f 204/1/5 190/1/5 202/1/5
f 204/1/5 202/1/5 203/1/5
f 205/1/6 206/1/6 207/1/6
f 207/1/6 206/1/6 208/1/6
