# MagicaVoxel @ Ephtracy

# group
o metal-blue

# material
mtllib wall-metal-blue.mtl
usemtl palette

# normals
vn -1 0 0
vn 1 0 0
vn 0 0 1
vn 0 0 -1
vn 0 -1 0
vn 0 1 0

# texcoords
vt 0.486328 0.5
vt 0.490234 0.5
vt 0.494141 0.5
vt 0.498047 0.5

# verts
v 0 1.5 0
v 0 1.5 -0.2
v 0 1.8 -0.2
v 0 1.8 -0.4
v 0 1.9 -0.3
v 0 1.9 -0.4
v 0 2 -0.3
v 0 2 -0.4
v 0 2.1 -0.2
v 0 2.1 -0.4
v 0 4.5 0
v 0 4.5 -0.1
v 0 4.6 0
v 0 4.6 -0.1
v 0 4.8 0
v 0 4.8 -0.2
v 0.2 1.5 -0.1
v 0.2 1.5 -0.2
v 0.2 1.6 -0.1
v 0.2 1.6 -0.2
v 0.2 1.8 -0.1
v 0.2 1.8 -0.2
v 0.2 2.1 -0.1
v 0.2 2.1 -0.2
v 0.2 2.5 -0.1
v 0.2 2.5 -0.2
v 0.2 4 -0.1
v 0.2 4.1 -0.1
v 0.2 4.7 -0.1
v 0.2 4.7 -0.2
v 0.2 4.8 -0.1
v 0.2 4.8 -0.2
v 0.4 1.5 0
v 0.4 1.5 -0.1
v 0.4 2 -0.1
v 0.4 2.4 -0.1
v 0.4 4.6 -0.1
v 0.4 4.8 0
v 0.4 4.8 -0.1
v 0.6 1.5 -0.1
v 0.6 1.5 -0.2
v 0.6 1.8 -0.1
v 0.6 1.8 -0.2
v 0.6 2.1 -0.1
v 0.6 2.1 -0.2
v 0.6 4.8 -0.1
v 0.6 4.8 -0.2
v 0.8 1.5 0
v 0.8 1.5 -0.1
v 0.8 1.7 -0.1
v 0.8 3 0
v 0.8 3 -0.1
v 0.8 3.6 0
v 0.8 3.6 -0.1
v 0.8 4.2 0
v 0.8 4.2 -0.1
v 0.8 4.4 0
v 0.8 4.4 -0.1
v 0.8 4.7 -0.1
v 0.8 4.8 0
v 0.8 4.8 -0.1
v 1 1.5 -0.1
v 1 1.5 -0.2
v 1 1.8 -0.1
v 1 1.8 -0.2
v 1 2.1 -0.1
v 1 2.1 -0.2
v 1 2.5 -0.1
v 1 3.1 -0.1
v 1 3.7 -0.1
v 1 3.9 -0.1
v 1 4.8 -0.1
v 1 4.8 -0.2
v 1.2 1.5 0
v 1.2 1.5 -0.1
v 1.2 1.7 -0.1
v 1.2 4.7 -0.1
v 1.2 4.8 0
v 1.2 4.8 -0.1
v 1.4 1.5 -0.1
v 1.4 1.5 -0.2
v 1.4 1.8 -0.1
v 1.4 1.8 -0.2
v 1.4 2.1 -0.1
v 1.4 2.1 -0.2
v 1.4 2.3 -0.1
v 1.4 2.3 -0.2
v 1.4 2.6 -0.1
v 1.4 2.6 -0.2
v 1.4 3.4 -0.1
v 1.4 3.4 -0.2
v 1.4 3.5 -0.1
v 1.4 3.5 -0.2
v 1.4 3.6 -0.1
v 1.4 3.6 -0.2
v 1.4 4.4 -0.1
v 1.4 4.4 -0.2
v 1.4 4.5 -0.1
v 1.4 4.5 -0.2
v 1.4 4.8 -0.1
v 1.4 4.8 -0.2
v 1.6 1.5 0
v 1.6 1.5 -0.1
v 1.6 1.9 -0.1
v 1.6 1.9 -0.3
v 1.6 1.9 -0.4
v 1.6 2 -0.3
v 1.6 2 -0.4
v 1.6 2.2 -0.1
v 1.6 2.5 -0.1
v 1.6 3.3 -0.1
v 1.6 3.4 -0.1
v 1.6 3.5 -0.1
v 1.6 4.3 -0.1
v 1.6 4.4 -0.1
v 1.6 4.6 0
v 1.6 4.6 -0.1
v 1.6 4.8 0
v 1.6 4.8 -0.1
v 1.8 1.5 -0.1
v 1.8 1.5 -0.2
v 1.8 1.8 -0.1
v 1.8 1.8 -0.2
v 1.8 2.1 -0.1
v 1.8 2.1 -0.2
v 1.8 2.3 -0.1
v 1.8 2.3 -0.2
v 1.8 2.8 -0.1
v 1.8 2.8 -0.2
v 1.8 3 -0.1
v 1.8 3 -0.2
v 1.8 4.1 -0.1
v 1.8 4.3 -0.1
v 1.8 4.8 -0.1
v 1.8 4.8 -0.2
v 2 1.5 0
v 2 1.5 -0.1
v 2 1.9 -0.1
v 2 2.2 -0.1
v 2 2.7 -0.1
v 2 2.9 -0.1
v 2 4.8 0
v 2 4.8 -0.1
v 2.2 1.5 -0.1
v 2.2 1.5 -0.2
v 2.2 1.8 -0.1
v 2.2 1.8 -0.2
v 2.2 2.1 -0.1
v 2.2 2.1 -0.2
v 2.2 3.2 -0.1
v 2.2 3.2 -0.2
v 2.2 3.3 -0.1
v 2.2 3.3 -0.2
v 2.2 4.1 -0.1
v 2.2 4.1 -0.2
v 2.2 4.2 -0.1
v 2.2 4.2 -0.2
v 2.2 4.8 -0.1
v 2.2 4.8 -0.2
v 2.4 1.5 0
v 2.4 1.5 -0.1
v 2.4 3.1 -0.1
v 2.4 3.2 -0.1
v 2.4 4 -0.1
v 2.4 4.1 0
v 2.4 4.1 -0.1
v 2.4 4.4 0
v 2.4 4.4 -0.1
v 2.4 4.8 0
v 2.4 4.8 -0.1
v 2.6 1.5 -0.1
v 2.6 1.5 -0.2
v 2.6 1.8 -0.1
v 2.6 1.8 -0.2
v 2.6 2.1 -0.1
v 2.6 2.1 -0.2
v 2.6 2.2 -0.1
v 2.6 2.2 -0.2
v 2.6 2.7 -0.1
v 2.6 2.7 -0.2
v 2.6 2.8 -0.1
v 2.6 2.8 -0.2
v 2.6 2.9 -0.1
v 2.6 2.9 -0.2
v 2.6 3.3 -0.1
v 2.6 3.3 -0.2
v 2.6 3.4 -0.1
v 2.6 3.4 -0.2
v 2.6 3.6 -0.1
v 2.6 3.9 -0.1
v 2.6 4 -0.1
v 2.6 4 -0.2
v 2.6 4.3 -0.1
v 2.6 4.3 -0.2
v 2.6 4.6 -0.1
v 2.6 4.6 -0.2
v 2.6 4.8 -0.1
v 2.6 4.8 -0.2
v 2.8 1.5 0
v 2.8 1.5 -0.1
v 2.8 2.1 -0.1
v 2.8 2.6 -0.1
v 2.8 2.7 -0.1
v 2.8 2.8 -0.1
v 2.8 3.2 -0.1
v 2.8 3.3 -0.1
v 2.8 3.9 -0.1
v 2.8 4.2 -0.1
v 2.8 4.5 -0.1
v 2.8 4.7 -0.1
v 2.8 4.8 0
v 2.8 4.8 -0.1
v 3 1.5 -0.1
v 3 1.5 -0.2
v 3 1.6 -0.1
v 3 1.6 -0.2
v 3 1.8 -0.1
v 3 1.8 -0.2
v 3 2.1 -0.1
v 3 2.1 -0.2
v 3 4.8 -0.1
v 3 4.8 -0.2
v 3.2 1.5 0
v 3.2 1.5 -0.1
v 3.2 4.7 -0.1
v 3.2 4.8 0
v 3.2 4.8 -0.1
v 3.4 1.5 -0.1
v 3.4 1.5 -0.2
v 3.4 1.8 -0.1
v 3.4 1.8 -0.2
v 3.4 2.1 -0.1
v 3.4 2.1 -0.2
v 3.4 2.2 -0.1
v 3.4 2.2 -0.2
v 3.4 2.4 -0.1
v 3.4 2.4 -0.2
v 3.4 2.6 -0.1
v 3.4 2.6 -0.2
v 3.4 2.7 -0.1
v 3.4 2.7 -0.2
v 3.4 3.7 -0.1
v 3.4 3.7 -0.2
v 3.4 3.9 -0.1
v 3.4 3.9 -0.2
v 3.4 4.2 -0.1
v 3.4 4.2 -0.2
v 3.4 4.8 -0.1
v 3.4 4.8 -0.2
v 3.6 1.5 0
v 3.6 1.5 -0.1
v 3.6 1.9 -0.3
v 3.6 1.9 -0.4
v 3.6 2 -0.1
v 3.6 2 -0.3
v 3.6 2 -0.4
v 3.6 2.1 -0.1
v 3.6 2.3 -0.1
v 3.6 2.5 -0.1
v 3.6 2.6 -0.1
v 3.6 3.6 -0.1
v 3.6 3.8 -0.1
v 3.6 4.1 -0.1
v 3.6 4.8 0
v 3.6 4.8 -0.1
v 3.8 1.5 -0.1
v 3.8 1.5 -0.2
v 3.8 1.8 -0.1
v 3.8 1.8 -0.2
v 3.8 2.1 -0.1
v 3.8 2.1 -0.2
v 3.8 4.4 -0.1
v 3.8 4.4 -0.2
v 3.8 4.7 -0.1
v 3.8 4.7 -0.2
v 3.8 4.8 -0.1
v 3.8 4.8 -0.2
v 0.1 1.5 -0.1
v 0.1 1.5 -0.2
v 0.1 1.8 -0.1
v 0.1 1.8 -0.2
v 0.1 2.1 -0.1
v 0.1 2.1 -0.2
v 0.1 4 -0.1
v 0.1 4.1 -0.1
v 0.1 4.8 -0.1
v 0.1 4.8 -0.2
v 0.3 1.5 0
v 0.3 1.5 -0.1
v 0.3 2 -0.1
v 0.3 2.1 0
v 0.3 2.1 -0.1
v 0.3 2.4 -0.1
v 0.3 2.8 0
v 0.3 2.8 -0.1
v 0.3 4.6 -0.1
v 0.3 4.8 0
v 0.3 4.8 -0.1
v 0.5 1.5 -0.1
v 0.5 1.5 -0.2
v 0.5 1.8 -0.1
v 0.5 1.8 -0.2
v 0.5 2.1 -0.1
v 0.5 2.1 -0.2
v 0.5 4.8 -0.1
v 0.5 4.8 -0.2
v 0.7 1.5 0
v 0.7 1.5 -0.1
v 0.7 1.7 0
v 0.7 1.7 -0.1
v 0.7 2.4 0
v 0.7 2.4 -0.1
v 0.7 2.6 0
v 0.7 2.6 -0.1
v 0.7 4.7 0
v 0.7 4.7 -0.1
v 0.7 4.8 0
v 0.7 4.8 -0.1
v 0.9 1.5 -0.1
v 0.9 1.5 -0.2
v 0.9 1.8 -0.1
v 0.9 1.8 -0.2
v 0.9 2.1 -0.1
v 0.9 2.1 -0.2
v 0.9 2.5 -0.1
v 0.9 3.1 -0.1
v 0.9 3.7 -0.1
v 0.9 3.9 -0.1
v 0.9 4.8 -0.1
v 0.9 4.8 -0.2
v 1.1 1.5 0
v 1.1 1.5 -0.1
v 1.1 1.7 -0.1
v 1.1 4.7 -0.1
v 1.1 4.8 0
v 1.1 4.8 -0.1
v 1.3 1.5 -0.1
v 1.3 1.5 -0.2
v 1.3 1.8 -0.1
v 1.3 1.8 -0.2
v 1.3 2.1 -0.1
v 1.3 2.1 -0.2
v 1.3 4.1 -0.1
v 1.3 4.1 -0.2
v 1.3 4.2 -0.1
v 1.3 4.2 -0.2
v 1.3 4.6 -0.1
v 1.3 4.6 -0.2
v 1.3 4.8 -0.1
v 1.3 4.8 -0.2
v 1.5 1.5 0
v 1.5 1.5 -0.1
v 1.5 1.9 -0.1
v 1.5 2.2 -0.1
v 1.5 2.5 -0.1
v 1.5 3.3 -0.1
v 1.5 3.4 -0.1
v 1.5 3.5 -0.1
v 1.5 4.2 0
v 1.5 4.2 -0.1
v 1.5 4.3 0
v 1.5 4.3 -0.1
v 1.5 4.4 -0.1
v 1.5 4.8 0
v 1.5 4.8 -0.1
v 1.7 1.5 -0.1
v 1.7 1.5 -0.2
v 1.7 1.8 -0.1
v 1.7 1.8 -0.2
v 1.7 1.9 -0.3
v 1.7 1.9 -0.4
v 1.7 2 -0.3
v 1.7 2 -0.4
v 1.7 2.1 -0.1
v 1.7 2.1 -0.2
v 1.7 4 -0.1
v 1.7 4 -0.2
v 1.7 4.1 -0.1
v 1.7 4.3 -0.1
v 1.7 4.3 -0.2
v 1.7 4.6 -0.1
v 1.7 4.6 -0.2
v 1.7 4.7 -0.1
v 1.7 4.7 -0.2
v 1.7 4.8 -0.1
v 1.7 4.8 -0.2
v 1.9 1.5 0
v 1.9 1.5 -0.1
v 1.9 1.9 -0.1
v 1.9 2.2 -0.1
v 1.9 2.7 -0.1
v 1.9 2.9 -0.1
v 1.9 4.2 0
v 1.9 4.2 -0.1
v 1.9 4.3 0
v 1.9 4.3 -0.1
v 1.9 4.8 0
v 1.9 4.8 -0.1
v 2.1 1.5 -0.1
v 2.1 1.5 -0.2
v 2.1 1.8 -0.1
v 2.1 1.8 -0.2
v 2.1 2.1 -0.1
v 2.1 2.1 -0.2
v 2.1 2.6 -0.1
v 2.1 2.6 -0.2
v 2.1 3 -0.1
v 2.1 3 -0.2
v 2.1 4.8 -0.1
v 2.1 4.8 -0.2
v 2.3 1.5 0
v 2.3 1.5 -0.1
v 2.3 3.1 -0.1
v 2.3 3.2 -0.1
v 2.3 4 -0.1
v 2.3 4.1 -0.1
v 2.3 4.8 0
v 2.3 4.8 -0.1
v 2.5 1.5 -0.1
v 2.5 1.5 -0.2
v 2.5 1.8 -0.1
v 2.5 1.8 -0.2
v 2.5 2.1 -0.1
v 2.5 2.1 -0.2
v 2.5 2.3 -0.1
v 2.5 2.3 -0.2
v 2.5 2.5 -0.1
v 2.5 2.5 -0.2
v 2.5 2.8 -0.1
v 2.5 2.8 -0.2
v 2.5 2.9 -0.1
v 2.5 2.9 -0.2
v 2.5 3.1 -0.1
v 2.5 3.1 -0.2
v 2.5 3.6 -0.1
v 2.5 3.9 -0.1
v 2.5 4.3 -0.1
v 2.5 4.3 -0.2
v 2.5 4.4 -0.1
v 2.5 4.4 -0.2
v 2.5 4.8 -0.1
v 2.5 4.8 -0.2
v 2.7 1.5 0
v 2.7 1.5 -0.1
v 2.7 2.1 -0.1
v 2.7 2.5 0
v 2.7 2.5 -0.1
v 2.7 2.6 0
v 2.7 2.6 -0.1
v 2.7 2.7 -0.1
v 2.7 2.8 -0.1
v 2.7 3.2 -0.1
v 2.7 3.3 -0.1
v 2.7 3.9 -0.1
v 2.7 4.2 -0.1
v 2.7 4.3 0
v 2.7 4.3 -0.1
v 2.7 4.4 0
v 2.7 4.4 -0.1
v 2.7 4.5 0
v 2.7 4.5 -0.1
v 2.7 4.7 0
v 2.7 4.7 -0.1
v 2.7 4.8 0
v 2.7 4.8 -0.1
v 2.9 1.5 -0.1
v 2.9 1.5 -0.2
v 2.9 1.8 -0.1
v 2.9 1.8 -0.2
v 2.9 2.1 -0.1
v 2.9 2.1 -0.2
v 2.9 2.3 -0.1
v 2.9 2.3 -0.2
v 2.9 2.8 -0.1
v 2.9 2.8 -0.2
v 2.9 3.2 -0.1
v 2.9 3.2 -0.2
v 2.9 3.3 -0.1
v 2.9 3.3 -0.2
v 2.9 3.9 -0.1
v 2.9 3.9 -0.2
v 2.9 4.2 -0.1
v 2.9 4.2 -0.2
v 2.9 4.8 -0.1
v 2.9 4.8 -0.2
v 3.1 1.5 0
v 3.1 1.5 -0.1
v 3.1 4.7 -0.1
v 3.1 4.8 0
v 3.1 4.8 -0.1
v 3.3 1.5 -0.1
v 3.3 1.5 -0.2
v 3.3 1.8 -0.1
v 3.3 1.8 -0.2
v 3.3 2.1 -0.1
v 3.3 2.1 -0.2
v 3.3 2.7 -0.1
v 3.3 2.7 -0.2
v 3.3 4.8 -0.1
v 3.3 4.8 -0.2
v 3.5 1.5 0
v 3.5 1.5 -0.1
v 3.5 1.9 0
v 3.5 1.9 -0.1
v 3.5 2 -0.1
v 3.5 2.1 0
v 3.5 2.1 -0.1
v 3.5 2.3 -0.1
v 3.5 2.5 -0.1
v 3.5 2.6 -0.1
v 3.5 3.6 -0.1
v 3.5 3.8 -0.1
v 3.5 4.1 -0.1
v 3.5 4.8 0
v 3.5 4.8 -0.1
v 3.7 1.5 -0.1
v 3.7 1.5 -0.2
v 3.7 1.8 -0.1
v 3.7 1.8 -0.2
v 3.7 1.9 -0.3
v 3.7 1.9 -0.4
v 3.7 2 -0.3
v 3.7 2 -0.4
v 3.7 2.1 -0.1
v 3.7 2.1 -0.2
v 3.7 2.6 -0.1
v 3.7 2.6 -0.2
v 3.7 3.3 -0.1
v 3.7 3.3 -0.2
v 3.7 3.8 -0.1
v 3.7 3.8 -0.2
v 3.7 4.1 -0.1
v 3.7 4.1 -0.2
v 3.7 4.8 -0.1
v 3.7 4.8 -0.2
v 3.9 1.5 0
v 3.9 1.5 -0.1
v 3.9 4.3 -0.1
v 3.9 4.6 -0.1
v 3.9 4.8 0
v 3.9 4.8 -0.1
v 4 1.5 -0.1
v 4 1.5 -0.2
v 4 1.8 -0.2
v 4 1.8 -0.4
v 4 1.9 -0.3
v 4 1.9 -0.4
v 4 2 -0.3
v 4 2 -0.4
v 4 2.1 -0.2
v 4 2.1 -0.4
v 4 4.3 -0.1
v 4 4.3 -0.2
v 4 4.6 -0.1
v 4 4.6 -0.2
v 4 4.8 -0.1
v 4 4.8 -0.2
v 0 1.5 0
v 0 4.5 0
v 0 4.6 0
v 0 4.8 0
v 0.1 4 0
v 0.1 4.1 0
v 0.1 4.5 0
v 0.1 4.6 0
v 0.2 2.1 0
v 0.2 2.8 0
v 0.2 4 0
v 0.2 4.1 0
v 0.3 1.5 0
v 0.3 2.1 0
v 0.3 2.8 0
v 0.3 4.8 0
v 0.4 1.5 0
v 0.4 4.8 0
v 0.6 1.5 0
v 0.6 1.7 0
v 0.6 2.4 0
v 0.6 2.6 0
v 0.6 4.7 0
v 0.6 4.8 0
v 0.7 1.5 0
v 0.7 1.7 0
v 0.7 2.4 0
v 0.7 2.6 0
v 0.7 4.7 0
v 0.7 4.8 0
v 0.8 1.5 0
v 0.8 3 0
v 0.8 3.6 0
v 0.8 4.2 0
v 0.8 4.4 0
v 0.8 4.8 0
v 0.9 2.5 0
v 0.9 3 0
v 0.9 3.1 0
v 0.9 3.6 0
v 0.9 3.7 0
v 0.9 3.9 0
v 0.9 4.2 0
v 0.9 4.4 0
v 1 2.5 0
v 1 3.1 0
v 1 3.7 0
v 1 3.9 0
v 1.1 1.5 0
v 1.1 4.8 0
v 1.2 1.5 0
v 1.2 4.8 0
v 1.4 4.2 0
v 1.4 4.3 0
v 1.5 1.5 0
v 1.5 4.2 0
v 1.5 4.3 0
v 1.5 4.8 0
v 1.6 1.5 0
v 1.6 4.6 0
v 1.6 4.8 0
v 1.7 4.1 0
v 1.7 4.3 0
v 1.7 4.6 0
v 1.7 4.8 0
v 1.8 4.1 0
v 1.8 4.2 0
v 1.9 1.5 0
v 1.9 4.2 0
v 1.9 4.3 0
v 1.9 4.8 0
v 2 1.5 0
v 2 4.8 0
v 2.3 1.5 0
v 2.3 4.8 0
v 2.4 1.5 0
v 2.4 4.1 0
v 2.4 4.4 0
v 2.4 4.8 0
v 2.5 3.6 0
v 2.5 3.9 0
v 2.5 4.1 0
v 2.5 4.4 0
v 2.6 2.5 0
v 2.6 2.6 0
v 2.6 3.6 0
v 2.6 3.9 0
v 2.6 4.3 0
v 2.6 4.4 0
v 2.6 4.5 0
v 2.6 4.7 0
v 2.7 1.5 0
v 2.7 2.5 0
v 2.7 2.6 0
v 2.7 4.3 0
v 2.7 4.4 0
v 2.7 4.5 0
v 2.7 4.7 0
v 2.7 4.8 0
v 2.8 1.5 0
v 2.8 4.8 0
v 3.1 1.5 0
v 3.1 4.8 0
v 3.2 1.5 0
v 3.2 4.8 0
v 3.4 1.9 0
v 3.4 2.1 0
v 3.5 1.5 0
v 3.5 1.9 0
v 3.5 2.1 0
v 3.5 4.8 0
v 3.6 1.5 0
v 3.6 4.8 0
v 3.9 1.5 0
v 3.9 4.8 0
v 0.3 1.5 -0.1
v 0.3 2 -0.1
v 0.3 2.1 -0.1
v 0.3 2.4 -0.1
v 0.3 2.8 -0.1
v 0.3 4.6 -0.1
v 0.3 4.8 -0.1
v 0.4 1.5 -0.1
v 0.4 2 -0.1
v 0.4 2.4 -0.1
v 0.4 4.6 -0.1
v 0.4 4.8 -0.1
v 0.7 1.5 -0.1
v 0.7 1.7 -0.1
v 0.7 2.4 -0.1
v 0.7 2.6 -0.1
v 0.7 4.7 -0.1
v 0.7 4.8 -0.1
v 0.8 1.5 -0.1
v 0.8 1.7 -0.1
v 0.8 3 -0.1
v 0.8 3.6 -0.1
v 0.8 4.2 -0.1
v 0.8 4.4 -0.1
v 0.8 4.7 -0.1
v 0.8 4.8 -0.1
v 1.1 1.5 -0.1
v 1.1 1.7 -0.1
v 1.1 4.7 -0.1
v 1.1 4.8 -0.1
v 1.2 1.5 -0.1
v 1.2 1.7 -0.1
v 1.2 4.7 -0.1
v 1.2 4.8 -0.1
v 1.5 1.5 -0.1
v 1.5 1.9 -0.1
v 1.5 2.2 -0.1
v 1.5 2.5 -0.1
v 1.5 3.3 -0.1
v 1.5 3.4 -0.1
v 1.5 3.5 -0.1
v 1.5 4.2 -0.1
v 1.5 4.3 -0.1
v 1.5 4.4 -0.1
v 1.5 4.8 -0.1
v 1.6 1.5 -0.1
v 1.6 1.9 -0.1
v 1.6 2.2 -0.1
v 1.6 2.5 -0.1
v 1.6 3.3 -0.1
v 1.6 3.4 -0.1
v 1.6 3.5 -0.1
v 1.6 4.3 -0.1
v 1.6 4.4 -0.1
v 1.6 4.6 -0.1
v 1.6 4.8 -0.1
v 1.9 1.5 -0.1
v 1.9 1.9 -0.1
v 1.9 2.2 -0.1
v 1.9 2.7 -0.1
v 1.9 2.9 -0.1
v 1.9 4.2 -0.1
v 1.9 4.3 -0.1
v 1.9 4.8 -0.1
v 2 1.5 -0.1
v 2 1.9 -0.1
v 2 2.2 -0.1
v 2 2.7 -0.1
v 2 2.9 -0.1
v 2 4.8 -0.1
v 2.3 1.5 -0.1
v 2.3 3.1 -0.1
v 2.3 3.2 -0.1
v 2.3 4 -0.1
v 2.3 4.1 -0.1
v 2.3 4.8 -0.1
v 2.4 1.5 -0.1
v 2.4 3.1 -0.1
v 2.4 3.2 -0.1
v 2.4 4 -0.1
v 2.4 4.1 -0.1
v 2.4 4.4 -0.1
v 2.4 4.8 -0.1
v 2.7 1.5 -0.1
v 2.7 2.1 -0.1
v 2.7 2.5 -0.1
v 2.7 2.6 -0.1
v 2.7 2.7 -0.1
v 2.7 2.8 -0.1
v 2.7 3.2 -0.1
v 2.7 3.3 -0.1
v 2.7 3.9 -0.1
v 2.7 4.2 -0.1
v 2.7 4.3 -0.1
v 2.7 4.4 -0.1
v 2.7 4.5 -0.1
v 2.7 4.7 -0.1
v 2.7 4.8 -0.1
v 2.8 1.5 -0.1
v 2.8 2.1 -0.1
v 2.8 2.6 -0.1
v 2.8 2.7 -0.1
v 2.8 2.8 -0.1
v 2.8 3.2 -0.1
v 2.8 3.3 -0.1
v 2.8 3.9 -0.1
v 2.8 4.2 -0.1
v 2.8 4.5 -0.1
v 2.8 4.7 -0.1
v 2.8 4.8 -0.1
v 3.1 1.5 -0.1
v 3.1 4.7 -0.1
v 3.1 4.8 -0.1
v 3.2 1.5 -0.1
v 3.2 4.7 -0.1
v 3.2 4.8 -0.1
v 3.5 1.5 -0.1
v 3.5 1.9 -0.1
v 3.5 2 -0.1
v 3.5 2.1 -0.1
v 3.5 2.3 -0.1
v 3.5 2.5 -0.1
v 3.5 2.6 -0.1
v 3.5 3.6 -0.1
v 3.5 3.8 -0.1
v 3.5 4.1 -0.1
v 3.5 4.8 -0.1
v 3.6 1.5 -0.1
v 3.6 2 -0.1
v 3.6 2.1 -0.1
v 3.6 2.3 -0.1
v 3.6 2.5 -0.1
v 3.6 2.6 -0.1
v 3.6 3.6 -0.1
v 3.6 3.8 -0.1
v 3.6 4.1 -0.1
v 3.6 4.8 -0.1
v 3.9 1.5 -0.1
v 3.9 4.3 -0.1
v 3.9 4.6 -0.1
v 3.9 4.8 -0.1
v 4 1.5 -0.1
v 4 4.3 -0.1
v 4 4.6 -0.1
v 4 4.8 -0.1
v 0.1 1.5 -0.1
v 0.1 1.8 -0.1
v 0.1 2.1 -0.1
v 0.1 4 -0.1
v 0.1 4.1 -0.1
v 0.1 4.8 -0.1
v 0.2 1.5 -0.1
v 0.2 1.6 -0.1
v 0.2 1.8 -0.1
v 0.2 2.1 -0.1
v 0.2 2.5 -0.1
v 0.2 4 -0.1
v 0.2 4.1 -0.1
v 0.2 4.7 -0.1
v 0.2 4.8 -0.1
v 0.5 1.5 -0.1
v 0.5 1.8 -0.1
v 0.5 2.1 -0.1
v 0.5 4.8 -0.1
v 0.6 1.5 -0.1
v 0.6 1.8 -0.1
v 0.6 2.1 -0.1
v 0.6 4.8 -0.1
v 0.9 1.5 -0.1
v 0.9 1.8 -0.1
v 0.9 2.1 -0.1
v 0.9 2.5 -0.1
v 0.9 3.1 -0.1
v 0.9 3.7 -0.1
v 0.9 3.9 -0.1
v 0.9 4.8 -0.1
v 1 1.5 -0.1
v 1 1.8 -0.1
v 1 2.1 -0.1
v 1 2.5 -0.1
v 1 3.1 -0.1
v 1 3.7 -0.1
v 1 3.9 -0.1
v 1 4.8 -0.1
v 1.3 1.5 -0.1
v 1.3 1.8 -0.1
v 1.3 2.1 -0.1
v 1.3 4.1 -0.1
v 1.3 4.2 -0.1
v 1.3 4.6 -0.1
v 1.3 4.8 -0.1
v 1.4 1.5 -0.1
v 1.4 1.8 -0.1
v 1.4 2.1 -0.1
v 1.4 2.3 -0.1
v 1.4 2.6 -0.1
v 1.4 3.4 -0.1
v 1.4 3.5 -0.1
v 1.4 3.6 -0.1
v 1.4 4.4 -0.1
v 1.4 4.5 -0.1
v 1.4 4.8 -0.1
v 1.7 1.5 -0.1
v 1.7 1.8 -0.1
v 1.7 2.1 -0.1
v 1.7 4 -0.1
v 1.7 4.1 -0.1
v 1.7 4.3 -0.1
v 1.7 4.6 -0.1
v 1.7 4.7 -0.1
v 1.7 4.8 -0.1
v 1.8 1.5 -0.1
v 1.8 1.8 -0.1
v 1.8 2.1 -0.1
v 1.8 2.3 -0.1
v 1.8 2.8 -0.1
v 1.8 3 -0.1
v 1.8 4.1 -0.1
v 1.8 4.3 -0.1
v 1.8 4.8 -0.1
v 2.1 1.5 -0.1
v 2.1 1.8 -0.1
v 2.1 2.1 -0.1
v 2.1 2.6 -0.1
v 2.1 3 -0.1
v 2.1 4.8 -0.1
v 2.2 1.5 -0.1
v 2.2 1.8 -0.1
v 2.2 2.1 -0.1
v 2.2 3.2 -0.1
v 2.2 3.3 -0.1
v 2.2 4.1 -0.1
v 2.2 4.2 -0.1
v 2.2 4.8 -0.1
v 2.5 1.5 -0.1
v 2.5 1.8 -0.1
v 2.5 2.1 -0.1
v 2.5 2.3 -0.1
v 2.5 2.5 -0.1
v 2.5 2.8 -0.1
v 2.5 2.9 -0.1
v 2.5 3.1 -0.1
v 2.5 3.6 -0.1
v 2.5 3.9 -0.1
v 2.5 4.3 -0.1
v 2.5 4.4 -0.1
v 2.5 4.8 -0.1
v 2.6 1.5 -0.1
v 2.6 1.8 -0.1
v 2.6 2.1 -0.1
v 2.6 2.2 -0.1
v 2.6 2.7 -0.1
v 2.6 2.8 -0.1
v 2.6 2.9 -0.1
v 2.6 3.3 -0.1
v 2.6 3.4 -0.1
v 2.6 3.6 -0.1
v 2.6 3.9 -0.1
v 2.6 4 -0.1
v 2.6 4.3 -0.1
v 2.6 4.6 -0.1
v 2.6 4.8 -0.1
v 2.9 1.5 -0.1
v 2.9 1.8 -0.1
v 2.9 2.1 -0.1
v 2.9 2.3 -0.1
v 2.9 2.8 -0.1
v 2.9 3.2 -0.1
v 2.9 3.3 -0.1
v 2.9 3.9 -0.1
v 2.9 4.2 -0.1
v 2.9 4.8 -0.1
v 3 1.5 -0.1
v 3 1.6 -0.1
v 3 1.8 -0.1
v 3 2.1 -0.1
v 3 4.8 -0.1
v 3.3 1.5 -0.1
v 3.3 1.8 -0.1
v 3.3 2.1 -0.1
v 3.3 2.7 -0.1
v 3.3 4.8 -0.1
v 3.4 1.5 -0.1
v 3.4 1.8 -0.1
v 3.4 2.1 -0.1
v 3.4 2.2 -0.1
v 3.4 2.4 -0.1
v 3.4 2.6 -0.1
v 3.4 2.7 -0.1
v 3.4 3.7 -0.1
v 3.4 3.9 -0.1
v 3.4 4.2 -0.1
v 3.4 4.8 -0.1
v 3.7 1.5 -0.1
v 3.7 1.8 -0.1
v 3.7 2.1 -0.1
v 3.7 2.6 -0.1
v 3.7 3.3 -0.1
v 3.7 3.8 -0.1
v 3.7 4.1 -0.1
v 3.7 4.8 -0.1
v 3.8 1.5 -0.1
v 3.8 1.8 -0.1
v 3.8 2.1 -0.1
v 3.8 4.4 -0.1
v 3.8 4.7 -0.1
v 3.8 4.8 -0.1
v 0 1.5 -0.2
v 0 1.8 -0.2
v 0 2.1 -0.2
v 0 4.8 -0.2
v 0.1 1.5 -0.2
v 0.1 1.8 -0.2
v 0.1 2.1 -0.2
v 0.1 4.8 -0.2
v 0.2 1.5 -0.2
v 0.2 1.6 -0.2
v 0.2 1.8 -0.2
v 0.2 2.1 -0.2
v 0.2 2.5 -0.2
v 0.2 4.7 -0.2
v 0.2 4.8 -0.2
v 0.3 1.5 -0.2
v 0.3 1.6 -0.2
v 0.3 2.4 -0.2
v 0.3 2.5 -0.2
v 0.3 4.6 -0.2
v 0.3 4.7 -0.2
v 0.4 1.5 -0.2
v 0.4 1.8 -0.2
v 0.4 2.4 -0.2
v 0.4 4.6 -0.2
v 0.5 1.5 -0.2
v 0.5 1.8 -0.2
v 0.5 2.1 -0.2
v 0.5 4.8 -0.2
v 0.6 1.5 -0.2
v 0.6 1.8 -0.2
v 0.6 2.1 -0.2
v 0.6 4.8 -0.2
v 0.7 1.7 -0.2
v 0.7 1.8 -0.2
v 0.7 4.7 -0.2
v 0.7 4.8 -0.2
v 0.8 1.5 -0.2
v 0.8 1.7 -0.2
v 0.8 4.7 -0.2
v 0.8 4.8 -0.2
v 0.9 1.5 -0.2
v 0.9 1.8 -0.2
v 0.9 2.1 -0.2
v 0.9 4.8 -0.2
v 1 1.5 -0.2
v 1 1.8 -0.2
v 1 2.1 -0.2
v 1 4.8 -0.2
v 1.1 1.7 -0.2
v 1.1 1.8 -0.2
v 1.1 4.7 -0.2
v 1.1 4.8 -0.2
v 1.2 1.5 -0.2
v 1.2 1.7 -0.2
v 1.2 4.1 -0.2
v 1.2 4.2 -0.2
v 1.2 4.6 -0.2
v 1.2 4.7 -0.2
v 1.3 1.5 -0.2
v 1.3 1.8 -0.2
v 1.3 2.1 -0.2
v 1.3 4.1 -0.2
v 1.3 4.2 -0.2
v 1.3 4.6 -0.2
v 1.3 4.8 -0.2
v 1.4 1.5 -0.2
v 1.4 1.8 -0.2
v 1.4 2.1 -0.2
v 1.4 2.3 -0.2
v 1.4 2.6 -0.2
v 1.4 3.4 -0.2
v 1.4 3.5 -0.2
v 1.4 3.6 -0.2
v 1.4 4.4 -0.2
v 1.4 4.5 -0.2
v 1.4 4.8 -0.2
v 1.5 2.2 -0.2
v 1.5 2.3 -0.2
v 1.5 2.5 -0.2
v 1.5 2.6 -0.2
v 1.5 3.3 -0.2
v 1.5 3.4 -0.2
v 1.5 3.5 -0.2
v 1.5 3.6 -0.2
v 1.5 4.3 -0.2
v 1.5 4.4 -0.2
v 1.5 4.5 -0.2
v 1.6 2.1 -0.2
v 1.6 2.2 -0.2
v 1.6 2.5 -0.2
v 1.6 3.3 -0.2
v 1.6 3.4 -0.2
v 1.6 3.5 -0.2
v 1.6 4 -0.2
v 1.6 4.3 -0.2
v 1.6 4.4 -0.2
v 1.6 4.6 -0.2
v 1.6 4.7 -0.2
v 1.7 1.5 -0.2
v 1.7 1.8 -0.2
v 1.7 2.1 -0.2
v 1.7 4 -0.2
v 1.7 4.3 -0.2
v 1.7 4.6 -0.2
v 1.7 4.7 -0.2
v 1.7 4.8 -0.2
v 1.8 1.5 -0.2
v 1.8 1.8 -0.2
v 1.8 2.1 -0.2
v 1.8 2.3 -0.2
v 1.8 2.8 -0.2
v 1.8 3 -0.2
v 1.8 4.8 -0.2
v 1.9 2.2 -0.2
v 1.9 2.3 -0.2
v 1.9 2.7 -0.2
v 1.9 2.8 -0.2
v 1.9 2.9 -0.2
v 1.9 3 -0.2
v 2 2.1 -0.2
v 2 2.2 -0.2
v 2 2.6 -0.2
v 2 2.7 -0.2
v 2 2.9 -0.2
v 2 3 -0.2
v 2.1 1.5 -0.2
v 2.1 1.8 -0.2
v 2.1 2.1 -0.2
v 2.1 2.6 -0.2
v 2.1 3 -0.2
v 2.1 4.8 -0.2
v 2.2 1.5 -0.2
v 2.2 1.8 -0.2
v 2.2 2.1 -0.2
v 2.2 3.2 -0.2
v 2.2 3.3 -0.2
v 2.2 4.1 -0.2
v 2.2 4.2 -0.2
v 2.2 4.8 -0.2
v 2.3 3.1 -0.2
v 2.3 3.2 -0.2
v 2.3 3.3 -0.2
v 2.3 4 -0.2
v 2.3 4.1 -0.2
v 2.3 4.2 -0.2
v 2.4 2.1 -0.2
v 2.4 2.3 -0.2
v 2.4 2.5 -0.2
v 2.4 2.8 -0.2
v 2.4 2.9 -0.2
v 2.4 3.1 -0.2
v 2.4 3.2 -0.2
v 2.4 4 -0.2
v 2.4 4.1 -0.2
v 2.4 4.3 -0.2
v 2.4 4.4 -0.2
v 2.5 1.5 -0.2
v 2.5 1.8 -0.2
v 2.5 2.1 -0.2
v 2.5 2.3 -0.2
v 2.5 2.5 -0.2
v 2.5 2.8 -0.2
v 2.5 2.9 -0.2
v 2.5 3.1 -0.2
v 2.5 4.3 -0.2
v 2.5 4.4 -0.2
v 2.5 4.8 -0.2
v 2.6 1.5 -0.2
v 2.6 1.8 -0.2
v 2.6 2.1 -0.2
v 2.6 2.2 -0.2
v 2.6 2.7 -0.2
v 2.6 2.8 -0.2
v 2.6 2.9 -0.2
v 2.6 3.3 -0.2
v 2.6 3.4 -0.2
v 2.6 4 -0.2
v 2.6 4.3 -0.2
v 2.6 4.6 -0.2
v 2.6 4.8 -0.2
v 2.7 2.1 -0.2
v 2.7 2.2 -0.2
v 2.7 2.6 -0.2
v 2.7 2.7 -0.2
v 2.7 2.8 -0.2
v 2.7 2.9 -0.2
v 2.7 3.2 -0.2
v 2.7 3.3 -0.2
v 2.7 3.4 -0.2
v 2.7 3.9 -0.2
v 2.7 4 -0.2
v 2.7 4.2 -0.2
v 2.7 4.3 -0.2
v 2.7 4.5 -0.2
v 2.7 4.6 -0.2
v 2.7 4.7 -0.2
v 2.7 4.8 -0.2
v 2.8 2.1 -0.2
v 2.8 2.3 -0.2
v 2.8 2.6 -0.2
v 2.8 2.7 -0.2
v 2.8 4.5 -0.2
v 2.8 4.7 -0.2
v 2.9 1.5 -0.2
v 2.9 1.8 -0.2
v 2.9 2.1 -0.2
v 2.9 2.3 -0.2
v 2.9 2.8 -0.2
v 2.9 3.2 -0.2
v 2.9 3.3 -0.2
v 2.9 3.9 -0.2
v 2.9 4.2 -0.2
v 2.9 4.8 -0.2
v 3 1.5 -0.2
v 3 1.6 -0.2
v 3 1.8 -0.2
v 3 2.1 -0.2
v 3 4.8 -0.2
v 3.1 1.5 -0.2
v 3.1 1.6 -0.2
v 3.1 4.7 -0.2
v 3.1 4.8 -0.2
v 3.2 2.1 -0.2
v 3.2 2.7 -0.2
v 3.2 4.7 -0.2
v 3.2 4.8 -0.2
v 3.3 1.5 -0.2
v 3.3 1.8 -0.2
v 3.3 2.1 -0.2
v 3.3 2.7 -0.2
v 3.3 4.8 -0.2
v 3.4 1.5 -0.2
v 3.4 1.8 -0.2
v 3.4 2.1 -0.2
v 3.4 2.2 -0.2
v 3.4 2.4 -0.2
v 3.4 2.6 -0.2
v 3.4 2.7 -0.2
v 3.4 3.7 -0.2
v 3.4 3.9 -0.2
v 3.4 4.2 -0.2
v 3.4 4.8 -0.2
v 3.5 2.1 -0.2
v 3.5 2.2 -0.2
v 3.5 2.3 -0.2
v 3.5 2.4 -0.2
v 3.5 2.5 -0.2
v 3.5 2.6 -0.2
v 3.5 2.7 -0.2
v 3.5 3.6 -0.2
v 3.5 3.7 -0.2
v 3.5 3.8 -0.2
v 3.5 3.9 -0.2
v 3.5 4.1 -0.2
v 3.5 4.2 -0.2
v 3.6 2.3 -0.2
v 3.6 2.5 -0.2
v 3.6 3.3 -0.2
v 3.6 3.6 -0.2
v 3.7 1.5 -0.2
v 3.7 1.8 -0.2
v 3.7 2.1 -0.2
v 3.7 2.6 -0.2
v 3.7 3.3 -0.2
v 3.7 3.8 -0.2
v 3.7 4.1 -0.2
v 3.7 4.8 -0.2
v 3.8 1.5 -0.2
v 3.8 1.8 -0.2
v 3.8 2.1 -0.2
v 3.8 4.4 -0.2
v 3.8 4.7 -0.2
v 3.8 4.8 -0.2
v 3.9 4.3 -0.2
v 3.9 4.4 -0.2
v 3.9 4.6 -0.2
v 3.9 4.7 -0.2
v 4 1.5 -0.2
v 4 1.8 -0.2
v 4 2.1 -0.2
v 4 4.3 -0.2
v 4 4.6 -0.2
v 4 4.8 -0.2
v 0 1.9 -0.3
v 0 2 -0.3
v 1.6 1.9 -0.3
v 1.6 2 -0.3
v 1.7 1.9 -0.3
v 1.7 2 -0.3
v 3.6 1.9 -0.3
v 3.6 2 -0.3
v 3.7 1.9 -0.3
v 3.7 2 -0.3
v 4 1.9 -0.3
v 4 2 -0.3
v 0 1.8 -0.4
v 0 1.9 -0.4
v 0 2 -0.4
v 0 2.1 -0.4
v 1.6 1.9 -0.4
v 1.6 2 -0.4
v 1.7 1.9 -0.4
v 1.7 2 -0.4
v 3.6 1.9 -0.4
v 3.6 2 -0.4
v 3.7 1.9 -0.4
v 3.7 2 -0.4
v 4 1.8 -0.4
v 4 1.9 -0.4
v 4 2 -0.4
v 4 2.1 -0.4
v 0 1.5 0
v 0.3 1.5 0
v 0.4 1.5 0
v 0.6 1.5 0
v 0.7 1.5 0
v 0.8 1.5 0
v 1.1 1.5 0
v 1.2 1.5 0
v 1.5 1.5 0
v 1.6 1.5 0
v 1.9 1.5 0
v 2 1.5 0
v 2.3 1.5 0
v 2.4 1.5 0
v 2.7 1.5 0
v 2.8 1.5 0
v 3.1 1.5 0
v 3.2 1.5 0
v 3.5 1.5 0
v 3.6 1.5 0
v 3.9 1.5 0
v 0.1 1.5 -0.1
v 0.2 1.5 -0.1
v 0.3 1.5 -0.1
v 0.4 1.5 -0.1
v 0.5 1.5 -0.1
v 0.6 1.5 -0.1
v 0.7 1.5 -0.1
v 0.8 1.5 -0.1
v 0.9 1.5 -0.1
v 1 1.5 -0.1
v 1.1 1.5 -0.1
v 1.2 1.5 -0.1
v 1.3 1.5 -0.1
v 1.4 1.5 -0.1
v 1.5 1.5 -0.1
v 1.6 1.5 -0.1
v 1.7 1.5 -0.1
v 1.8 1.5 -0.1
v 1.9 1.5 -0.1
v 2 1.5 -0.1
v 2.1 1.5 -0.1
v 2.2 1.5 -0.1
v 2.3 1.5 -0.1
v 2.4 1.5 -0.1
v 2.5 1.5 -0.1
v 2.6 1.5 -0.1
v 2.7 1.5 -0.1
v 2.8 1.5 -0.1
v 2.9 1.5 -0.1
v 3 1.5 -0.1
v 3.1 1.5 -0.1
v 3.2 1.5 -0.1
v 3.3 1.5 -0.1
v 3.4 1.5 -0.1
v 3.5 1.5 -0.1
v 3.6 1.5 -0.1
v 3.7 1.5 -0.1
v 3.8 1.5 -0.1
v 3.9 1.5 -0.1
v 4 1.5 -0.1
v 0 1.5 -0.2
v 0.1 1.5 -0.2
v 0.2 1.5 -0.2
v 0.3 1.5 -0.2
v 0.4 1.5 -0.2
v 0.5 1.5 -0.2
v 0.6 1.5 -0.2
v 0.8 1.5 -0.2
v 0.9 1.5 -0.2
v 1 1.5 -0.2
v 1.2 1.5 -0.2
v 1.3 1.5 -0.2
v 1.4 1.5 -0.2
v 1.7 1.5 -0.2
v 1.8 1.5 -0.2
v 2.1 1.5 -0.2
v 2.2 1.5 -0.2
v 2.5 1.5 -0.2
v 2.6 1.5 -0.2
v 2.9 1.5 -0.2
v 3 1.5 -0.2
v 3.1 1.5 -0.2
v 3.3 1.5 -0.2
v 3.4 1.5 -0.2
v 3.7 1.5 -0.2
v 3.8 1.5 -0.2
v 4 1.5 -0.2
v 0.1 1.8 -0.1
v 0.2 1.8 -0.1
v 0.5 1.8 -0.1
v 0.6 1.8 -0.1
v 0.9 1.8 -0.1
v 1 1.8 -0.1
v 1.3 1.8 -0.1
v 1.4 1.8 -0.1
v 1.7 1.8 -0.1
v 1.8 1.8 -0.1
v 2.1 1.8 -0.1
v 2.2 1.8 -0.1
v 2.5 1.8 -0.1
v 2.6 1.8 -0.1
v 2.9 1.8 -0.1
v 3 1.8 -0.1
v 3.3 1.8 -0.1
v 3.4 1.8 -0.1
v 3.7 1.8 -0.1
v 3.8 1.8 -0.1
v 0 1.8 -0.2
v 0.1 1.8 -0.2
v 0.2 1.8 -0.2
v 0.4 1.8 -0.2
v 0.5 1.8 -0.2
v 0.6 1.8 -0.2
v 0.7 1.8 -0.2
v 0.9 1.8 -0.2
v 1 1.8 -0.2
v 1.1 1.8 -0.2
v 1.3 1.8 -0.2
v 1.4 1.8 -0.2
v 1.7 1.8 -0.2
v 1.8 1.8 -0.2
v 2.1 1.8 -0.2
v 2.2 1.8 -0.2
v 2.5 1.8 -0.2
v 2.6 1.8 -0.2
v 2.9 1.8 -0.2
v 3 1.8 -0.2
v 3.3 1.8 -0.2
v 3.4 1.8 -0.2
v 3.7 1.8 -0.2
v 3.8 1.8 -0.2
v 4 1.8 -0.2
v 0 1.8 -0.4
v 4 1.8 -0.4
v 0 2 -0.3
v 1.6 2 -0.3
v 1.7 2 -0.3
v 3.6 2 -0.3
v 3.7 2 -0.3
v 4 2 -0.3
v 0 2 -0.4
v 1.6 2 -0.4
v 1.7 2 -0.4
v 3.6 2 -0.4
v 3.7 2 -0.4
v 4 2 -0.4
v 0 1.9 -0.3
v 1.6 1.9 -0.3
v 1.7 1.9 -0.3
v 3.6 1.9 -0.3
v 3.7 1.9 -0.3
v 4 1.9 -0.3
v 0 1.9 -0.4
v 1.6 1.9 -0.4
v 1.7 1.9 -0.4
v 3.6 1.9 -0.4
v 3.7 1.9 -0.4
v 4 1.9 -0.4
v 0.1 2.1 -0.1
v 0.2 2.1 -0.1
v 0.5 2.1 -0.1
v 0.6 2.1 -0.1
v 0.9 2.1 -0.1
v 1 2.1 -0.1
v 1.3 2.1 -0.1
v 1.4 2.1 -0.1
v 1.7 2.1 -0.1
v 1.8 2.1 -0.1
v 2.1 2.1 -0.1
v 2.2 2.1 -0.1
v 2.5 2.1 -0.1
v 2.6 2.1 -0.1
v 2.9 2.1 -0.1
v 3 2.1 -0.1
v 3.3 2.1 -0.1
v 3.4 2.1 -0.1
v 3.7 2.1 -0.1
v 3.8 2.1 -0.1
v 0 2.1 -0.2
v 0.1 2.1 -0.2
v 0.2 2.1 -0.2
v 0.5 2.1 -0.2
v 0.6 2.1 -0.2
v 0.9 2.1 -0.2
v 1 2.1 -0.2
v 1.3 2.1 -0.2
v 1.4 2.1 -0.2
v 1.6 2.1 -0.2
v 1.7 2.1 -0.2
v 1.8 2.1 -0.2
v 2 2.1 -0.2
v 2.1 2.1 -0.2
v 2.2 2.1 -0.2
v 2.4 2.1 -0.2
v 2.5 2.1 -0.2
v 2.6 2.1 -0.2
v 2.7 2.1 -0.2
v 2.8 2.1 -0.2
v 2.9 2.1 -0.2
v 3 2.1 -0.2
v 3.2 2.1 -0.2
v 3.3 2.1 -0.2
v 3.4 2.1 -0.2
v 3.5 2.1 -0.2
v 3.7 2.1 -0.2
v 3.8 2.1 -0.2
v 4 2.1 -0.2
v 0 2.1 -0.4
v 4 2.1 -0.4
v 0 4.8 0
v 0.3 4.8 0
v 0.4 4.8 0
v 0.6 4.8 0
v 0.7 4.8 0
v 0.8 4.8 0
v 1.1 4.8 0
v 1.2 4.8 0
v 1.5 4.8 0
v 1.6 4.8 0
v 1.7 4.8 0
v 1.9 4.8 0
v 2 4.8 0
v 2.3 4.8 0
v 2.4 4.8 0
v 2.7 4.8 0
v 2.8 4.8 0
v 3.1 4.8 0
v 3.2 4.8 0
v 3.5 4.8 0
v 3.6 4.8 0
v 3.9 4.8 0
v 0.1 4.8 -0.1
v 0.2 4.8 -0.1
v 0.3 4.8 -0.1
v 0.4 4.8 -0.1
v 0.5 4.8 -0.1
v 0.6 4.8 -0.1
v 0.7 4.8 -0.1
v 0.8 4.8 -0.1
v 0.9 4.8 -0.1
v 1 4.8 -0.1
v 1.1 4.8 -0.1
v 1.2 4.8 -0.1
v 1.3 4.8 -0.1
v 1.4 4.8 -0.1
v 1.5 4.8 -0.1
v 1.6 4.8 -0.1
v 1.7 4.8 -0.1
v 1.8 4.8 -0.1
v 1.9 4.8 -0.1
v 2 4.8 -0.1
v 2.1 4.8 -0.1
v 2.2 4.8 -0.1
v 2.3 4.8 -0.1
v 2.4 4.8 -0.1
v 2.5 4.8 -0.1
v 2.6 4.8 -0.1
v 2.7 4.8 -0.1
v 2.8 4.8 -0.1
v 2.9 4.8 -0.1
v 3 4.8 -0.1
v 3.1 4.8 -0.1
v 3.2 4.8 -0.1
v 3.3 4.8 -0.1
v 3.4 4.8 -0.1
v 3.5 4.8 -0.1
v 3.6 4.8 -0.1
v 3.7 4.8 -0.1
v 3.8 4.8 -0.1
v 3.9 4.8 -0.1
v 4 4.8 -0.1
v 0 4.8 -0.2
v 0.1 4.8 -0.2
v 0.2 4.8 -0.2
v 0.5 4.8 -0.2
v 0.6 4.8 -0.2
v 0.7 4.8 -0.2
v 0.8 4.8 -0.2
v 0.9 4.8 -0.2
v 1 4.8 -0.2
v 1.1 4.8 -0.2
v 1.3 4.8 -0.2
v 1.4 4.8 -0.2
v 1.7 4.8 -0.2
v 1.8 4.8 -0.2
v 2.1 4.8 -0.2
v 2.2 4.8 -0.2
v 2.5 4.8 -0.2
v 2.6 4.8 -0.2
v 2.7 4.8 -0.2
v 2.9 4.8 -0.2
v 3 4.8 -0.2
v 3.1 4.8 -0.2
v 3.2 4.8 -0.2
v 3.3 4.8 -0.2
v 3.4 4.8 -0.2
v 3.7 4.8 -0.2
v 3.8 4.8 -0.2
v 4 4.8 -0.2

# faces
f 3/1/1 2/1/1 1/1/1
f 5/4/1 4/4/1 3/4/1
f 6/4/1 4/4/1 5/4/1
f 7/4/1 5/4/1 3/4/1
f 9/1/1 3/1/1 1/1/1
f 9/4/1 8/4/1 7/4/1
f 9/4/1 7/4/1 3/4/1
f 10/4/1 8/4/1 9/4/1
f 11/1/1 9/1/1 1/1/1
f 12/1/1 9/1/1 11/1/1
f 13/2/1 12/2/1 11/2/1
f 14/1/1 9/1/1 12/1/1
f 14/2/1 12/2/1 13/2/1
f 15/1/1 14/1/1 13/1/1
f 16/1/1 9/1/1 14/1/1
f 16/1/1 14/1/1 15/1/1
f 19/1/1 18/1/1 17/1/1
f 20/1/1 18/1/1 19/1/1
f 21/2/1 20/2/1 19/2/1
f 22/2/1 20/2/1 21/2/1
f 25/1/1 24/1/1 23/1/1
f 26/1/1 24/1/1 25/1/1
f 27/2/1 26/2/1 25/2/1
f 28/2/1 26/2/1 27/2/1
f 29/2/1 26/2/1 28/2/1
f 30/2/1 26/2/1 29/2/1
f 31/1/1 30/1/1 29/1/1
f 32/1/1 30/1/1 31/1/1
f 35/1/1 34/1/1 33/1/1
f 36/1/1 35/1/1 33/1/1
f 37/1/1 36/1/1 33/1/1
f 38/1/1 37/1/1 33/1/1
f 39/1/1 37/1/1 38/1/1
f 42/2/1 41/2/1 40/2/1
f 43/2/1 41/2/1 42/2/1
f 46/1/1 45/1/1 44/1/1
f 47/1/1 45/1/1 46/1/1
f 50/1/1 49/1/1 48/1/1
f 51/1/1 50/1/1 48/1/1
f 52/1/1 50/1/1 51/1/1
f 53/2/1 52/2/1 51/2/1
f 54/2/1 52/2/1 53/2/1
f 55/1/1 54/1/1 53/1/1
f 56/1/1 54/1/1 55/1/1
f 57/2/1 56/2/1 55/2/1
f 58/2/1 56/2/1 57/2/1
f 59/1/1 58/1/1 57/1/1
f 60/1/1 59/1/1 57/1/1
f 61/1/1 59/1/1 60/1/1
f 64/2/1 63/2/1 62/2/1
f 65/2/1 63/2/1 64/2/1
f 68/1/1 67/1/1 66/1/1
f 69/1/1 67/1/1 68/1/1
f 70/1/1 67/1/1 69/1/1
f 71/1/1 67/1/1 70/1/1
f 72/1/1 67/1/1 71/1/1
f 73/1/1 67/1/1 72/1/1
f 76/1/1 75/1/1 74/1/1
f 77/1/1 76/1/1 74/1/1
f 78/1/1 77/1/1 74/1/1
f 79/1/1 77/1/1 78/1/1
f 82/1/1 81/1/1 80/1/1
f 83/1/1 81/1/1 82/1/1
f 86/2/1 85/2/1 84/2/1
f 87/2/1 85/2/1 86/2/1
f 88/1/1 87/1/1 86/1/1
f 89/1/1 87/1/1 88/1/1
f 90/2/1 89/2/1 88/2/1
f 91/2/1 89/2/1 90/2/1
f 92/1/1 91/1/1 90/1/1
f 93/1/1 91/1/1 92/1/1
f 94/2/1 93/2/1 92/2/1
f 95/2/1 93/2/1 94/2/1
f 96/1/1 95/1/1 94/1/1
f 97/1/1 95/1/1 96/1/1
f 98/2/1 97/2/1 96/2/1
f 99/2/1 97/2/1 98/2/1
f 100/1/1 99/1/1 98/1/1
f 101/1/1 99/1/1 100/1/1
f 104/1/1 103/1/1 102/1/1
f 107/3/1 106/3/1 105/3/1
f 108/3/1 106/3/1 107/3/1
f 109/1/1 104/1/1 102/1/1
f 110/1/1 109/1/1 102/1/1
f 111/1/1 110/1/1 102/1/1
f 112/1/1 111/1/1 102/1/1
f 113/1/1 112/1/1 102/1/1
f 114/1/1 113/1/1 102/1/1
f 115/1/1 114/1/1 102/1/1
f 116/1/1 115/1/1 102/1/1
f 117/1/1 115/1/1 116/1/1
f 118/2/1 117/2/1 116/2/1
f 119/2/1 117/2/1 118/2/1
f 122/1/1 121/1/1 120/1/1
f 123/1/1 121/1/1 122/1/1
f 126/2/1 125/2/1 124/2/1
f 127/2/1 125/2/1 126/2/1
f 128/1/1 127/1/1 126/1/1
f 129/1/1 127/1/1 128/1/1
f 130/2/1 129/2/1 128/2/1
f 131/2/1 129/2/1 130/2/1
f 132/1/1 131/1/1 130/1/1
f 133/1/1 131/1/1 132/1/1
f 134/1/1 131/1/1 133/1/1
f 135/1/1 131/1/1 134/1/1
f 138/1/1 137/1/1 136/1/1
f 139/1/1 138/1/1 136/1/1
f 140/1/1 139/1/1 136/1/1
f 141/1/1 140/1/1 136/1/1
f 142/1/1 141/1/1 136/1/1
f 143/1/1 141/1/1 142/1/1
f 146/1/1 145/1/1 144/1/1
f 147/1/1 145/1/1 146/1/1
f 150/1/1 149/1/1 148/1/1
f 151/1/1 149/1/1 150/1/1
f 152/2/1 151/2/1 150/2/1
f 153/2/1 151/2/1 152/2/1
f 154/1/1 153/1/1 152/1/1
f 155/1/1 153/1/1 154/1/1
f 156/2/1 155/2/1 154/2/1
f 157/2/1 155/2/1 156/2/1
f 158/1/1 157/1/1 156/1/1
f 159/1/1 157/1/1 158/1/1
f 162/1/1 161/1/1 160/1/1
f 163/1/1 162/1/1 160/1/1
f 164/1/1 163/1/1 160/1/1
f 165/1/1 164/1/1 160/1/1
f 166/1/1 164/1/1 165/1/1
f 167/2/1 166/2/1 165/2/1
f 168/2/1 166/2/1 167/2/1
f 169/1/1 168/1/1 167/1/1
f 170/1/1 168/1/1 169/1/1
f 173/1/1 172/1/1 171/1/1
f 174/1/1 172/1/1 173/1/1
f 177/1/1 176/1/1 175/1/1
f 178/1/1 176/1/1 177/1/1
f 179/2/1 178/2/1 177/2/1
f 180/2/1 178/2/1 179/2/1
f 181/1/1 180/1/1 179/1/1
f 182/1/1 180/1/1 181/1/1
f 183/2/1 182/2/1 181/2/1
f 184/2/1 182/2/1 183/2/1
f 185/1/1 184/1/1 183/1/1
f 186/1/1 184/1/1 185/1/1
f 187/2/1 186/2/1 185/2/1
f 188/2/1 186/2/1 187/2/1
f 189/1/1 188/1/1 187/1/1
f 190/1/1 188/1/1 189/1/1
f 191/1/1 188/1/1 190/1/1
f 192/1/1 188/1/1 191/1/1
f 193/2/1 192/2/1 191/2/1
f 194/2/1 192/2/1 193/2/1
f 195/1/1 194/1/1 193/1/1
f 196/1/1 194/1/1 195/1/1
f 197/2/1 196/2/1 195/2/1
f 198/2/1 196/2/1 197/2/1
f 201/1/1 200/1/1 199/1/1
f 202/1/1 201/1/1 199/1/1
f 203/1/1 202/1/1 199/1/1
f 204/1/1 203/1/1 199/1/1
f 205/1/1 204/1/1 199/1/1
f 206/1/1 205/1/1 199/1/1
f 207/1/1 206/1/1 199/1/1
f 208/1/1 207/1/1 199/1/1
f 209/1/1 208/1/1 199/1/1
f 210/1/1 209/1/1 199/1/1
f 211/1/1 210/1/1 199/1/1
f 212/1/1 210/1/1 211/1/1
f 215/2/1 214/2/1 213/2/1
f 216/2/1 214/2/1 215/2/1
f 217/1/1 216/1/1 215/1/1
f 218/1/1 216/1/1 217/1/1
f 221/1/1 220/1/1 219/1/1
f 222/1/1 220/1/1 221/1/1
f 225/1/1 224/1/1 223/1/1
f 226/1/1 225/1/1 223/1/1
f 227/1/1 225/1/1 226/1/1
f 230/1/1 229/1/1 228/1/1
f 231/1/1 229/1/1 230/1/1
f 234/2/1 233/2/1 232/2/1
f 235/2/1 233/2/1 234/2/1
f 236/1/1 235/1/1 234/1/1
f 237/1/1 235/1/1 236/1/1
f 238/2/1 237/2/1 236/2/1
f 239/2/1 237/2/1 238/2/1
f 240/1/1 239/1/1 238/1/1
f 241/1/1 239/1/1 240/1/1
f 242/2/1 241/2/1 240/2/1
f 243/2/1 241/2/1 242/2/1
f 244/1/1 243/1/1 242/1/1
f 245/1/1 243/1/1 244/1/1
f 246/2/1 245/2/1 244/2/1
f 247/2/1 245/2/1 246/2/1
f 248/1/1 247/1/1 246/1/1
f 249/1/1 247/1/1 248/1/1
f 254/1/1 251/1/1 250/1/1
f 255/3/1 253/3/1 252/3/1
f 256/3/1 253/3/1 255/3/1
f 257/1/1 254/1/1 250/1/1
f 258/1/1 257/1/1 250/1/1
f 259/1/1 258/1/1 250/1/1
f 260/1/1 259/1/1 250/1/1
f 261/1/1 260/1/1 250/1/1
f 262/1/1 261/1/1 250/1/1
f 263/1/1 262/1/1 250/1/1
f 264/1/1 263/1/1 250/1/1
f 265/1/1 263/1/1 264/1/1
f 268/1/1 267/1/1 266/1/1
f 269/1/1 267/1/1 268/1/1
f 272/1/1 271/1/1 270/1/1
f 273/1/1 271/1/1 272/1/1
f 274/2/1 273/2/1 272/2/1
f 275/2/1 273/2/1 274/2/1
f 276/1/1 275/1/1 274/1/1
f 277/1/1 275/1/1 276/1/1
f 278/1/2 279/1/2 280/1/2
f 280/1/2 279/1/2 281/1/2
f 282/1/2 283/1/2 284/1/2
f 284/1/2 283/1/2 285/1/2
f 285/1/2 283/1/2 286/1/2
f 286/1/2 283/1/2 287/1/2
f 288/1/2 289/1/2 290/1/2
f 288/1/2 290/1/2 291/1/2
f 291/1/2 290/1/2 292/1/2
f 291/2/2 292/2/2 293/2/2
f 291/2/2 293/2/2 294/2/2
f 294/2/2 293/2/2 295/2/2
f 294/1/2 295/1/2 296/1/2
f 294/1/2 296/1/2 297/1/2
f 297/1/2 296/1/2 298/1/2
f 299/1/2 300/1/2 301/1/2
f 301/1/2 300/1/2 302/1/2
f 303/1/2 304/1/2 305/1/2
f 305/1/2 304/1/2 306/1/2
f 307/2/2 308/2/2 309/2/2
f 309/2/2 308/2/2 310/2/2
f 309/1/2 310/1/2 311/1/2
f 311/1/2 310/1/2 312/1/2
f 311/2/2 312/2/2 313/2/2
f 313/2/2 312/2/2 314/2/2
f 313/1/2 314/1/2 315/1/2
f 315/1/2 314/1/2 316/1/2
f 315/2/2 316/2/2 317/2/2
f 317/2/2 316/2/2 318/2/2
f 319/1/2 320/1/2 321/1/2
f 321/1/2 320/1/2 322/1/2
f 323/1/2 324/1/2 325/1/2
f 325/1/2 324/1/2 326/1/2
f 326/1/2 324/1/2 327/1/2
f 327/1/2 324/1/2 328/1/2
f 328/1/2 324/1/2 329/1/2
f 329/1/2 324/1/2 330/1/2
f 331/1/2 332/1/2 333/1/2
f 331/1/2 333/1/2 334/1/2
f 331/1/2 334/1/2 335/1/2
f 335/1/2 334/1/2 336/1/2
f 337/1/2 338/1/2 339/1/2
f 339/1/2 338/1/2 340/1/2
f 341/1/2 342/1/2 343/1/2
f 343/1/2 342/1/2 344/1/2
f 343/2/2 344/2/2 345/2/2
f 345/2/2 344/2/2 346/2/2
f 345/1/2 346/1/2 347/1/2
f 347/1/2 346/1/2 348/1/2
f 347/2/2 348/2/2 349/2/2
f 349/2/2 348/2/2 350/2/2
f 351/1/2 352/1/2 353/1/2
f 351/1/2 353/1/2 354/1/2
f 351/1/2 354/1/2 355/1/2
f 351/1/2 355/1/2 356/1/2
f 351/1/2 356/1/2 357/1/2
f 351/1/2 357/1/2 358/1/2
f 351/1/2 358/1/2 359/1/2
f 359/1/2 358/1/2 360/1/2
f 359/2/2 360/2/2 361/2/2
f 361/2/2 360/2/2 362/2/2
f 361/1/2 362/1/2 363/1/2
f 361/1/2 363/1/2 364/1/2
f 364/1/2 363/1/2 365/1/2
f 366/1/2 367/1/2 368/1/2
f 368/1/2 367/1/2 369/1/2
f 370/3/2 371/3/2 372/3/2
f 372/3/2 371/3/2 373/3/2
f 374/1/2 375/1/2 376/1/2
f 376/1/2 375/1/2 377/1/2
f 376/2/2 377/2/2 378/2/2
f 378/2/2 377/2/2 379/2/2
f 379/2/2 377/2/2 380/2/2
f 379/1/2 380/1/2 381/1/2
f 381/1/2 380/1/2 382/1/2
f 381/2/2 382/2/2 383/2/2
f 383/2/2 382/2/2 384/2/2
f 383/1/2 384/1/2 385/1/2
f 385/1/2 384/1/2 386/1/2
f 387/1/2 388/1/2 389/1/2
f 387/1/2 389/1/2 390/1/2
f 387/1/2 390/1/2 391/1/2
f 387/1/2 391/1/2 392/1/2
f 387/1/2 392/1/2 393/1/2
f 393/1/2 392/1/2 394/1/2
f 393/2/2 394/2/2 395/2/2
f 395/2/2 394/2/2 396/2/2
f 395/1/2 396/1/2 397/1/2
f 397/1/2 396/1/2 398/1/2
f 399/1/2 400/1/2 401/1/2
f 401/1/2 400/1/2 402/1/2
f 403/1/2 404/1/2 405/1/2
f 405/1/2 404/1/2 406/1/2
f 405/2/2 406/2/2 407/2/2
f 407/2/2 406/2/2 408/2/2
f 407/1/2 408/1/2 409/1/2
f 409/1/2 408/1/2 410/1/2
f 411/1/2 412/1/2 413/1/2
f 411/1/2 413/1/2 414/1/2
f 411/1/2 414/1/2 415/1/2
f 411/1/2 415/1/2 416/1/2
f 411/1/2 416/1/2 417/1/2
f 417/1/2 416/1/2 418/1/2
f 419/1/2 420/1/2 421/1/2
f 421/1/2 420/1/2 422/1/2
f 423/2/2 424/2/2 425/2/2
f 425/2/2 424/2/2 426/2/2
f 425/1/2 426/1/2 427/1/2
f 427/1/2 426/1/2 428/1/2
f 427/2/2 428/2/2 429/2/2
f 429/2/2 428/2/2 430/2/2
f 429/1/2 430/1/2 431/1/2
f 431/1/2 430/1/2 432/1/2
f 431/2/2 432/2/2 433/2/2
f 433/2/2 432/2/2 434/2/2
f 433/1/2 434/1/2 435/1/2
f 435/1/2 434/1/2 436/1/2
f 436/1/2 434/1/2 437/1/2
f 437/1/2 434/1/2 438/1/2
f 437/2/2 438/2/2 439/2/2
f 439/2/2 438/2/2 440/2/2
f 439/1/2 440/1/2 441/1/2
f 441/1/2 440/1/2 442/1/2
f 443/1/2 444/1/2 445/1/2
f 443/1/2 445/1/2 446/1/2
f 446/1/2 445/1/2 447/1/2
f 446/2/2 447/2/2 448/2/2
f 448/2/2 447/2/2 449/2/2
f 448/1/2 449/1/2 450/1/2
f 448/1/2 450/1/2 451/1/2
f 448/1/2 451/1/2 452/1/2
f 448/1/2 452/1/2 453/1/2
f 448/1/2 453/1/2 454/1/2
f 448/1/2 454/1/2 455/1/2
f 448/1/2 455/1/2 456/1/2
f 456/1/2 455/1/2 457/1/2
f 456/2/2 457/2/2 458/2/2
f 458/2/2 457/2/2 459/2/2
f 458/1/2 459/1/2 460/1/2
f 460/1/2 459/1/2 461/1/2
f 460/2/2 461/2/2 462/2/2
f 462/2/2 461/2/2 463/2/2
f 462/1/2 463/1/2 464/1/2
f 464/1/2 463/1/2 465/1/2
f 466/1/2 467/1/2 468/1/2
f 468/1/2 467/1/2 469/1/2
f 470/1/2 471/1/2 472/1/2
f 472/1/2 471/1/2 473/1/2
f 472/2/2 473/2/2 474/2/2
f 474/2/2 473/2/2 475/2/2
f 474/1/2 475/1/2 476/1/2
f 476/1/2 475/1/2 477/1/2
f 476/2/2 477/2/2 478/2/2
f 478/2/2 477/2/2 479/2/2
f 478/1/2 479/1/2 480/1/2
f 480/1/2 479/1/2 481/1/2
f 480/2/2 481/2/2 482/2/2
f 482/2/2 481/2/2 483/2/2
f 482/1/2 483/1/2 484/1/2
f 484/1/2 483/1/2 485/1/2
f 486/1/2 487/1/2 488/1/2
f 486/1/2 488/1/2 489/1/2
f 489/1/2 488/1/2 490/1/2
f 491/1/2 492/1/2 493/1/2
f 493/1/2 492/1/2 494/1/2
f 495/2/2 496/2/2 497/2/2
f 497/2/2 496/2/2 498/2/2
f 497/1/2 498/1/2 499/1/2
f 499/1/2 498/1/2 500/1/2
f 501/1/2 502/1/2 503/1/2
f 503/1/2 502/1/2 504/1/2
f 503/2/2 504/2/2 505/2/2
f 503/2/2 505/2/2 506/2/2
f 506/2/2 505/2/2 507/2/2
f 506/1/2 507/1/2 508/1/2
f 506/1/2 508/1/2 509/1/2
f 506/1/2 509/1/2 510/1/2
f 506/1/2 510/1/2 511/1/2
f 506/1/2 511/1/2 512/1/2
f 506/1/2 512/1/2 513/1/2
f 506/1/2 513/1/2 514/1/2
f 514/1/2 513/1/2 515/1/2
f 516/1/2 517/1/2 518/1/2
f 518/1/2 517/1/2 519/1/2
f 520/3/2 521/3/2 522/3/2
f 522/3/2 521/3/2 523/3/2
f 524/1/2 525/1/2 526/1/2
f 526/1/2 525/1/2 527/1/2
f 526/2/2 527/2/2 528/2/2
f 528/2/2 527/2/2 529/2/2
f 528/1/2 529/1/2 530/1/2
f 530/1/2 529/1/2 531/1/2
f 530/2/2 531/2/2 532/2/2
f 532/2/2 531/2/2 533/2/2
f 532/1/2 533/1/2 534/1/2
f 534/1/2 533/1/2 535/1/2
f 536/1/2 537/1/2 538/1/2
f 536/1/2 538/1/2 539/1/2
f 536/1/2 539/1/2 540/1/2
f 540/1/2 539/1/2 541/1/2
f 542/1/2 543/1/2 544/1/2
f 544/4/2 545/4/2 546/4/2
f 546/4/2 545/4/2 547/4/2
f 544/4/2 546/4/2 548/4/2
f 542/1/2 544/1/2 550/1/2
f 548/4/2 549/4/2 550/4/2
f 544/4/2 548/4/2 550/4/2
f 550/4/2 549/4/2 551/4/2
f 542/1/2 550/1/2 552/1/2
f 552/1/2 550/1/2 553/1/2
f 552/2/2 553/2/2 554/2/2
f 554/2/2 553/2/2 555/2/2
f 554/1/2 555/1/2 556/1/2
f 556/1/2 555/1/2 557/1/2
f 562/1/3 559/1/3 558/1/3
f 563/1/3 559/1/3 562/1/3
f 564/2/3 560/2/3 559/2/3
f 564/1/3 559/1/3 563/1/3
f 565/1/3 561/1/3 560/1/3
f 565/2/3 560/2/3 564/2/3
f 566/1/3 562/1/3 558/1/3
f 567/1/3 562/1/3 566/1/3
f 568/2/3 563/2/3 562/2/3
f 568/1/3 562/1/3 567/1/3
f 569/1/3 564/1/3 563/1/3
f 569/2/3 563/2/3 568/2/3
f 569/1/3 565/1/3 564/1/3
f 570/1/3 566/1/3 558/1/3
f 571/2/3 567/2/3 566/2/3
f 571/1/3 566/1/3 570/1/3
f 572/1/3 568/1/3 567/1/3
f 572/2/3 567/2/3 571/2/3
f 572/1/3 569/1/3 568/1/3
f 573/1/3 561/1/3 565/1/3
f 573/1/3 569/1/3 572/1/3
f 573/1/3 565/1/3 569/1/3
f 576/1/3 575/1/3 574/1/3
f 577/1/3 575/1/3 576/1/3
f 578/1/3 575/1/3 577/1/3
f 579/1/3 575/1/3 578/1/3
f 580/1/3 575/1/3 579/1/3
f 581/1/3 575/1/3 580/1/3
f 582/2/3 577/2/3 576/2/3
f 583/1/3 578/1/3 577/1/3
f 583/2/3 577/2/3 582/2/3
f 584/2/3 579/2/3 578/2/3
f 584/1/3 578/1/3 583/1/3
f 585/1/3 580/1/3 579/1/3
f 585/2/3 579/2/3 584/2/3
f 586/2/3 581/2/3 580/2/3
f 586/1/3 580/1/3 585/1/3
f 587/2/3 581/2/3 586/2/3
f 594/1/3 589/1/3 588/1/3
f 595/2/3 590/2/3 589/2/3
f 595/1/3 589/1/3 594/1/3
f 596/2/3 590/2/3 595/2/3
f 597/1/3 591/1/3 590/1/3
f 597/2/3 590/2/3 596/2/3
f 598/1/3 591/1/3 597/1/3
f 599/1/3 591/1/3 598/1/3
f 600/2/3 592/2/3 591/2/3
f 600/1/3 591/1/3 599/1/3
f 601/1/3 593/1/3 592/1/3
f 601/2/3 592/2/3 600/2/3
f 602/1/3 594/1/3 588/1/3
f 602/2/3 596/2/3 595/2/3
f 602/2/3 595/2/3 594/2/3
f 603/1/3 598/1/3 597/1/3
f 603/2/3 596/2/3 602/2/3
f 603/1/3 597/1/3 596/1/3
f 604/2/3 599/2/3 598/2/3
f 604/1/3 598/1/3 603/1/3
f 605/1/3 600/1/3 599/1/3
f 605/2/3 599/2/3 604/2/3
f 605/1/3 601/1/3 600/1/3
f 606/1/3 604/1/3 603/1/3
f 606/1/3 602/1/3 588/1/3
f 606/1/3 605/1/3 604/1/3
f 606/1/3 603/1/3 602/1/3
f 607/1/3 601/1/3 605/1/3
f 607/1/3 605/1/3 606/1/3
f 607/1/3 593/1/3 601/1/3
f 610/1/3 609/1/3 608/1/3
f 611/1/3 609/1/3 610/1/3
f 612/1/3 610/1/3 608/1/3
f 613/2/3 611/2/3 610/2/3
f 613/1/3 610/1/3 612/1/3
f 614/1/3 609/1/3 611/1/3
f 614/2/3 611/2/3 613/2/3
f 615/1/3 609/1/3 614/1/3
f 619/1/3 617/1/3 616/1/3
f 620/1/3 617/1/3 619/1/3
f 621/2/3 618/2/3 617/2/3
f 621/1/3 617/1/3 620/1/3
f 622/2/3 618/2/3 621/2/3
f 623/2/3 620/2/3 619/2/3
f 623/1/3 619/1/3 616/1/3
f 624/2/3 620/2/3 623/2/3
f 625/1/3 623/1/3 616/1/3
f 625/1/3 624/1/3 623/1/3
f 626/2/3 620/2/3 624/2/3
f 626/1/3 624/1/3 625/1/3
f 627/1/3 622/1/3 621/1/3
f 627/2/3 620/2/3 626/2/3
f 627/1/3 621/1/3 620/1/3
f 628/1/3 622/1/3 627/1/3
f 631/1/3 630/1/3 629/1/3
f 632/1/3 630/1/3 631/1/3
f 637/1/3 634/1/3 633/1/3
f 638/1/3 634/1/3 637/1/3
f 639/2/3 635/2/3 634/2/3
f 639/1/3 634/1/3 638/1/3
f 640/1/3 636/1/3 635/1/3
f 640/2/3 635/2/3 639/2/3
f 641/1/3 637/1/3 633/1/3
f 642/1/3 637/1/3 641/1/3
f 643/2/3 638/2/3 637/2/3
f 643/1/3 637/1/3 642/1/3
f 644/1/3 639/1/3 638/1/3
f 644/2/3 638/2/3 643/2/3
f 644/1/3 640/1/3 639/1/3
f 645/1/3 640/1/3 644/1/3
f 646/1/3 636/1/3 640/1/3
f 646/1/3 640/1/3 645/1/3
f 647/1/3 636/1/3 646/1/3
f 648/1/3 636/1/3 647/1/3
f 649/1/3 641/1/3 633/1/3
f 650/2/3 642/2/3 641/2/3
f 650/1/3 641/1/3 649/1/3
f 651/1/3 643/1/3 642/1/3
f 651/2/3 642/2/3 650/2/3
f 651/1/3 645/1/3 644/1/3
f 651/1/3 644/1/3 643/1/3
f 652/2/3 646/2/3 645/2/3
f 652/1/3 645/1/3 651/1/3
f 653/1/3 647/1/3 646/1/3
f 653/2/3 646/2/3 652/2/3
f 654/2/3 648/2/3 647/2/3
f 654/1/3 647/1/3 653/1/3
f 655/1/3 636/1/3 648/1/3
f 655/2/3 648/2/3 654/2/3
f 656/1/3 636/1/3 655/1/3
f 659/1/3 658/1/3 657/1/3
f 660/1/3 658/1/3 659/1/3
f 663/1/3 662/1/3 661/1/3
f 664/1/3 662/1/3 663/1/3
f 665/1/3 663/1/3 661/1/3
f 666/2/3 664/2/3 663/2/3
f 666/1/3 663/1/3 665/1/3
f 667/1/3 662/1/3 664/1/3
f 667/2/3 664/2/3 666/2/3
f 668/1/3 662/1/3 667/1/3
f 671/1/3 670/1/3 669/1/3
f 672/1/3 670/1/3 671/1/3
f 680/2/3 674/2/3 673/2/3
f 681/1/3 675/1/3 674/1/3
f 681/2/3 674/2/3 680/2/3
f 681/1/3 676/1/3 675/1/3
f 682/2/3 678/2/3 677/2/3
f 682/1/3 676/1/3 681/1/3
f 682/2/3 677/2/3 676/2/3
f 683/1/3 679/1/3 678/1/3
f 683/2/3 678/2/3 682/2/3
f 684/1/3 679/1/3 683/1/3
f 691/2/3 686/2/3 685/2/3
f 692/1/3 687/1/3 686/1/3
f 692/2/3 686/2/3 691/2/3
f 692/1/3 688/1/3 687/1/3
f 692/1/3 689/1/3 688/1/3
f 693/1/3 689/1/3 692/1/3
f 694/1/3 689/1/3 693/1/3
f 695/1/3 689/1/3 694/1/3
f 696/1/3 689/1/3 695/1/3
f 697/2/3 690/2/3 689/2/3
f 697/1/3 689/1/3 696/1/3
f 698/2/3 690/2/3 697/2/3
f 703/2/3 700/2/3 699/2/3
f 704/1/3 701/1/3 700/1/3
f 704/2/3 700/2/3 703/2/3
f 705/2/3 702/2/3 701/2/3
f 705/1/3 701/1/3 704/1/3
f 706/2/3 702/2/3 705/2/3
f 718/1/3 708/1/3 707/1/3
f 719/2/3 709/2/3 708/2/3
f 719/1/3 708/1/3 718/1/3
f 720/1/3 710/1/3 709/1/3
f 720/2/3 709/2/3 719/2/3
f 721/2/3 711/2/3 710/2/3
f 721/1/3 710/1/3 720/1/3
f 722/1/3 712/1/3 711/1/3
f 722/2/3 711/2/3 721/2/3
f 723/2/3 713/2/3 712/2/3
f 723/1/3 712/1/3 722/1/3
f 724/1/3 714/1/3 713/1/3
f 724/2/3 713/2/3 723/2/3
f 724/1/3 715/1/3 714/1/3
f 725/2/3 716/2/3 715/2/3
f 725/1/3 715/1/3 724/1/3
f 726/1/3 717/1/3 716/1/3
f 726/2/3 716/2/3 725/2/3
f 727/1/3 717/1/3 726/1/3
f 728/1/3 717/1/3 727/1/3
f 737/1/3 730/1/3 729/1/3
f 738/2/3 731/2/3 730/2/3
f 738/1/3 730/1/3 737/1/3
f 739/1/3 732/1/3 731/1/3
f 739/2/3 731/2/3 738/2/3
f 740/2/3 733/2/3 732/2/3
f 740/1/3 732/1/3 739/1/3
f 741/1/3 736/1/3 735/1/3
f 741/2/3 733/2/3 740/2/3
f 741/1/3 734/1/3 733/1/3
f 741/1/3 735/1/3 734/1/3
f 742/1/3 736/1/3 741/1/3
f 749/1/3 744/1/3 743/1/3
f 750/2/3 745/2/3 744/2/3
f 750/1/3 744/1/3 749/1/3
f 751/1/3 746/1/3 745/1/3
f 751/2/3 745/2/3 750/2/3
f 752/2/3 747/2/3 746/2/3
f 752/1/3 746/1/3 751/1/3
f 753/1/3 748/1/3 747/1/3
f 753/2/3 747/2/3 752/2/3
f 754/1/3 748/1/3 753/1/3
f 755/1/3 748/1/3 754/1/3
f 771/1/3 757/1/3 756/1/3
f 772/2/3 758/2/3 757/2/3
f 772/1/3 757/1/3 771/1/3
f 772/2/3 759/2/3 758/2/3
f 773/1/3 760/1/3 759/1/3
f 773/2/3 759/2/3 772/2/3
f 774/2/3 761/2/3 760/2/3
f 774/1/3 760/1/3 773/1/3
f 775/1/3 762/1/3 761/1/3
f 775/2/3 761/2/3 774/2/3
f 776/2/3 763/2/3 762/2/3
f 776/1/3 762/1/3 775/1/3
f 777/1/3 764/1/3 763/1/3
f 777/2/3 763/2/3 776/2/3
f 778/2/3 765/2/3 764/2/3
f 778/1/3 764/1/3 777/1/3
f 779/1/3 766/1/3 765/1/3
f 779/2/3 765/2/3 778/2/3
f 779/1/3 767/1/3 766/1/3
f 779/1/3 768/1/3 767/1/3
f 780/2/3 769/2/3 768/2/3
f 780/1/3 768/1/3 779/1/3
f 781/1/3 770/1/3 769/1/3
f 781/2/3 769/2/3 780/2/3
f 782/1/3 770/1/3 781/1/3
f 786/1/3 784/1/3 783/1/3
f 787/2/3 785/2/3 784/2/3
f 787/1/3 784/1/3 786/1/3
f 788/2/3 785/2/3 787/2/3
f 800/1/3 790/1/3 789/1/3
f 800/1/3 791/1/3 790/1/3
f 801/2/3 792/2/3 791/2/3
f 801/1/3 791/1/3 800/1/3
f 802/1/3 793/1/3 792/1/3
f 802/2/3 792/2/3 801/2/3
f 803/2/3 794/2/3 793/2/3
f 803/1/3 793/1/3 802/1/3
f 804/1/3 795/1/3 794/1/3
f 804/2/3 794/2/3 803/2/3
f 805/2/3 796/2/3 795/2/3
f 805/1/3 795/1/3 804/1/3
f 806/1/3 797/1/3 796/1/3
f 806/2/3 796/2/3 805/2/3
f 807/2/3 798/2/3 797/2/3
f 807/1/3 797/1/3 806/1/3
f 808/1/3 799/1/3 798/1/3
f 808/2/3 798/2/3 807/2/3
f 809/1/3 799/1/3 808/1/3
f 814/1/3 811/1/3 810/1/3
f 815/2/3 812/2/3 811/2/3
f 815/1/3 811/1/3 814/1/3
f 816/1/3 813/1/3 812/1/3
f 816/2/3 812/2/3 815/2/3
f 817/1/3 813/1/3 816/1/3
f 818/1/4 819/1/4 824/1/4
f 824/1/4 819/1/4 825/1/4
f 825/1/4 819/1/4 826/1/4
f 820/1/4 821/1/4 827/1/4
f 827/1/4 821/1/4 828/1/4
f 821/2/4 822/2/4 829/2/4
f 828/1/4 821/1/4 829/1/4
f 822/1/4 823/1/4 830/1/4
f 829/2/4 822/2/4 830/2/4
f 830/1/4 823/1/4 831/1/4
f 831/1/4 823/1/4 832/1/4
f 833/1/4 834/1/4 837/1/4
f 837/1/4 834/1/4 838/1/4
f 835/1/4 836/1/4 839/1/4
f 839/1/4 836/1/4 840/1/4
f 841/1/4 842/1/4 849/1/4
f 849/1/4 842/1/4 850/1/4
f 843/1/4 844/1/4 851/1/4
f 844/2/4 845/2/4 852/2/4
f 851/1/4 844/1/4 852/1/4
f 845/1/4 846/1/4 853/1/4
f 852/2/4 845/2/4 853/2/4
f 846/2/4 847/2/4 854/2/4
f 853/1/4 846/1/4 854/1/4
f 847/1/4 848/1/4 855/1/4
f 854/2/4 847/2/4 855/2/4
f 855/1/4 848/1/4 856/1/4
f 857/1/4 858/1/4 864/1/4
f 864/1/4 858/1/4 865/1/4
f 862/1/4 863/1/4 866/1/4
f 859/1/4 860/1/4 866/1/4
f 860/1/4 861/1/4 866/1/4
f 861/1/4 862/1/4 866/1/4
f 866/1/4 863/1/4 867/1/4
f 867/1/4 863/1/4 868/1/4
f 868/1/4 863/1/4 869/1/4
f 869/1/4 863/1/4 870/1/4
f 870/1/4 863/1/4 871/1/4
f 871/1/4 863/1/4 872/1/4
f 872/1/4 863/1/4 873/1/4
f 873/1/4 863/1/4 874/1/4
f 875/1/4 876/1/4 884/1/4
f 884/1/4 876/1/4 885/1/4
f 877/1/4 878/1/4 886/1/4
f 878/1/4 879/1/4 886/1/4
f 886/1/4 879/1/4 887/1/4
f 887/1/4 879/1/4 888/1/4
f 888/1/4 879/1/4 889/1/4
f 879/2/4 880/2/4 890/2/4
f 889/1/4 879/1/4 890/1/4
f 882/1/4 883/1/4 891/1/4
f 890/2/4 880/2/4 891/2/4
f 880/1/4 881/1/4 891/1/4
f 881/1/4 882/1/4 891/1/4
f 891/1/4 883/1/4 892/1/4
f 893/1/4 894/1/4 899/1/4
f 899/1/4 894/1/4 900/1/4
f 897/1/4 898/1/4 901/1/4
f 895/1/4 896/1/4 901/1/4
f 896/1/4 897/1/4 901/1/4
f 901/1/4 898/1/4 902/1/4
f 902/1/4 898/1/4 903/1/4
f 903/1/4 898/1/4 904/1/4
f 904/1/4 898/1/4 905/1/4
f 905/1/4 898/1/4 906/1/4
f 907/1/4 908/1/4 920/1/4
f 920/1/4 908/1/4 921/1/4
f 909/1/4 910/1/4 922/1/4
f 910/1/4 911/1/4 922/1/4
f 911/1/4 912/1/4 922/1/4
f 912/1/4 913/1/4 922/1/4
f 913/1/4 914/1/4 922/1/4
f 914/1/4 915/1/4 922/1/4
f 922/1/4 915/1/4 923/1/4
f 923/1/4 915/1/4 924/1/4
f 924/1/4 915/1/4 925/1/4
f 925/1/4 915/1/4 926/1/4
f 926/1/4 915/1/4 927/1/4
f 927/1/4 915/1/4 928/1/4
f 915/2/4 916/2/4 929/2/4
f 928/1/4 915/1/4 929/1/4
f 918/1/4 919/1/4 930/1/4
f 929/2/4 916/2/4 930/2/4
f 917/1/4 918/1/4 930/1/4
f 916/1/4 917/1/4 930/1/4
f 930/1/4 919/1/4 931/1/4
f 931/1/4 919/1/4 932/1/4
f 932/1/4 919/1/4 933/1/4
f 933/1/4 919/1/4 934/1/4
f 935/1/4 936/1/4 945/1/4
f 945/1/4 936/1/4 946/1/4
f 946/1/4 936/1/4 947/1/4
f 943/1/4 944/1/4 948/1/4
f 937/1/4 938/1/4 948/1/4
f 938/1/4 939/1/4 948/1/4
f 939/1/4 940/1/4 948/1/4
f 942/1/4 943/1/4 948/1/4
f 941/1/4 942/1/4 948/1/4
f 940/1/4 941/1/4 948/1/4
f 948/1/4 944/1/4 949/1/4
f 950/1/4 951/1/4 955/1/4
f 955/1/4 951/1/4 956/1/4
f 953/1/4 954/1/4 957/1/4
f 952/1/4 953/1/4 957/1/4
f 957/1/4 954/1/4 958/1/4
f 958/1/4 954/1/4 959/1/4
f 959/1/4 954/1/4 960/1/4
f 960/1/4 954/1/4 961/1/4
f 961/1/4 954/1/4 962/1/4
f 962/1/4 954/1/4 963/1/4
f 963/1/4 954/1/4 964/1/4
f 964/1/4 954/1/4 965/1/4
f 966/1/4 967/1/4 974/1/4
f 974/1/4 967/1/4 975/1/4
f 972/1/4 973/1/4 976/1/4
f 968/1/4 969/1/4 976/1/4
f 969/1/4 970/1/4 976/1/4
f 971/1/4 972/1/4 976/1/4
f 970/1/4 971/1/4 976/1/4
f 976/1/4 973/1/4 977/1/4
f 977/1/4 973/1/4 978/1/4
f 978/1/4 973/1/4 979/1/4
f 980/1/4 981/1/4 984/1/4
f 984/1/4 981/1/4 985/1/4
f 982/1/4 983/1/4 986/1/4
f 986/1/4 983/1/4 987/1/4
f 988/1/4 989/1/4 995/1/4
f 989/2/4 990/2/4 996/2/4
f 995/1/4 989/1/4 996/1/4
f 991/1/4 992/1/4 997/1/4
f 992/2/4 993/2/4 998/2/4
f 997/1/4 992/1/4 998/1/4
f 998/2/4 993/2/4 999/2/4
f 993/1/4 994/1/4 1000/1/4
f 999/2/4 993/2/4 1000/2/4
f 995/2/4 996/2/4 1001/2/4
f 996/2/4 990/2/4 1002/2/4
f 1001/2/4 996/2/4 1002/2/4
f 998/2/4 999/2/4 1003/2/4
f 991/1/4 997/1/4 1003/1/4
f 997/2/4 998/2/4 1003/2/4
f 999/1/4 1000/1/4 1004/1/4
f 1003/2/4 999/2/4 1004/2/4
f 1001/1/4 1002/1/4 1005/1/4
f 1005/1/4 1002/1/4 1006/1/4
f 991/1/4 1003/1/4 1007/1/4
f 1003/1/4 1004/1/4 1007/1/4
f 1004/1/4 1000/1/4 1008/1/4
f 1007/1/4 1004/1/4 1008/1/4
f 1000/1/4 994/1/4 1008/1/4
f 1009/2/4 1010/2/4 1013/2/4
f 1013/2/4 1010/2/4 1014/2/4
f 1011/1/4 1012/1/4 1015/1/4
f 1015/1/4 1012/1/4 1016/1/4
f 1009/2/4 1013/2/4 1017/2/4
f 1013/1/4 1014/1/4 1018/1/4
f 1017/2/4 1013/2/4 1018/2/4
f 1011/1/4 1015/1/4 1019/1/4
f 1015/2/4 1016/2/4 1019/2/4
f 1019/2/4 1016/2/4 1020/2/4
f 1017/1/4 1018/1/4 1021/1/4
f 1018/1/4 1014/1/4 1022/1/4
f 1021/1/4 1018/1/4 1022/1/4
f 1011/1/4 1019/1/4 1023/1/4
f 1019/1/4 1020/1/4 1023/1/4
f 1023/1/4 1020/1/4 1024/1/4
f 1025/2/4 1026/2/4 1029/2/4
f 1029/2/4 1026/2/4 1030/2/4
f 1027/1/4 1028/1/4 1031/1/4
f 1031/1/4 1028/1/4 1032/1/4
f 1025/2/4 1029/2/4 1033/2/4
f 1029/1/4 1030/1/4 1034/1/4
f 1033/2/4 1029/2/4 1034/2/4
f 1027/1/4 1031/1/4 1035/1/4
f 1035/1/4 1031/1/4 1036/1/4
f 1036/1/4 1031/1/4 1037/1/4
f 1031/2/4 1032/2/4 1038/2/4
f 1037/1/4 1031/1/4 1038/1/4
f 1033/1/4 1034/1/4 1039/1/4
f 1034/1/4 1030/1/4 1040/1/4
f 1039/1/4 1034/1/4 1040/1/4
f 1027/1/4 1035/1/4 1041/1/4
f 1035/2/4 1036/2/4 1042/2/4
f 1041/1/4 1035/1/4 1042/1/4
f 1036/1/4 1037/1/4 1043/1/4
f 1042/2/4 1036/2/4 1043/2/4
f 1037/2/4 1038/2/4 1044/2/4
f 1043/1/4 1037/1/4 1044/1/4
f 1038/2/4 1032/2/4 1045/2/4
f 1044/2/4 1038/2/4 1045/2/4
f 1048/2/4 1049/2/4 1057/2/4
f 1049/1/4 1050/1/4 1058/1/4
f 1057/2/4 1049/2/4 1058/2/4
f 1058/1/4 1050/1/4 1059/1/4
f 1050/2/4 1051/2/4 1060/2/4
f 1059/1/4 1050/1/4 1060/1/4
f 1060/2/4 1051/2/4 1061/2/4
f 1051/1/4 1052/1/4 1062/1/4
f 1061/2/4 1051/2/4 1062/2/4
f 1052/2/4 1053/2/4 1063/2/4
f 1062/1/4 1052/1/4 1063/1/4
f 1053/1/4 1054/1/4 1064/1/4
f 1063/2/4 1053/2/4 1064/2/4
f 1064/1/4 1054/1/4 1065/1/4
f 1054/2/4 1055/2/4 1066/2/4
f 1065/1/4 1054/1/4 1066/1/4
f 1055/1/4 1056/1/4 1067/1/4
f 1066/2/4 1055/2/4 1067/2/4
f 1048/2/4 1057/2/4 1068/2/4
f 1058/1/4 1059/1/4 1069/1/4
f 1068/2/4 1057/2/4 1069/2/4
f 1057/1/4 1058/1/4 1069/1/4
f 1060/2/4 1061/2/4 1070/2/4
f 1069/1/4 1059/1/4 1070/1/4
f 1059/2/4 1060/2/4 1070/2/4
f 1061/1/4 1062/1/4 1071/1/4
f 1070/2/4 1061/2/4 1071/2/4
f 1062/2/4 1063/2/4 1072/2/4
f 1071/1/4 1062/1/4 1072/1/4
f 1064/1/4 1065/1/4 1073/1/4
f 1072/2/4 1063/2/4 1073/2/4
f 1063/1/4 1064/1/4 1073/1/4
f 1073/1/4 1065/1/4 1074/1/4
f 1065/2/4 1066/2/4 1075/2/4
f 1074/1/4 1065/1/4 1075/1/4
f 1066/1/4 1067/1/4 1076/1/4
f 1075/2/4 1066/2/4 1076/2/4
f 1067/1/4 1056/1/4 1077/1/4
f 1076/1/4 1067/1/4 1077/1/4
f 1077/1/4 1056/1/4 1078/1/4
f 1046/1/4 1047/1/4 1079/1/4
f 1079/1/4 1047/1/4 1080/1/4
f 1073/1/4 1074/1/4 1081/1/4
f 1068/1/4 1069/1/4 1081/1/4
f 1069/1/4 1070/1/4 1081/1/4
f 1070/1/4 1071/1/4 1081/1/4
f 1071/1/4 1072/1/4 1081/1/4
f 1072/1/4 1073/1/4 1081/1/4
f 1074/2/4 1075/2/4 1082/2/4
f 1081/1/4 1074/1/4 1082/1/4
f 1075/1/4 1076/1/4 1083/1/4
f 1082/2/4 1075/2/4 1083/2/4
f 1076/1/4 1077/1/4 1083/1/4
f 1077/2/4 1078/2/4 1084/2/4
f 1083/1/4 1077/1/4 1084/1/4
f 1078/1/4 1056/1/4 1085/1/4
f 1084/2/4 1078/2/4 1085/2/4
f 1085/1/4 1056/1/4 1086/1/4
f 1089/2/4 1090/2/4 1094/2/4
f 1090/1/4 1091/1/4 1095/1/4
f 1094/2/4 1090/2/4 1095/2/4
f 1095/1/4 1091/1/4 1096/1/4
f 1091/2/4 1092/2/4 1097/2/4
f 1096/1/4 1091/1/4 1097/1/4
f 1097/2/4 1092/2/4 1098/2/4
f 1092/1/4 1093/1/4 1099/1/4
f 1098/2/4 1092/2/4 1099/2/4
f 1089/2/4 1094/2/4 1100/2/4
f 1095/1/4 1096/1/4 1101/1/4
f 1100/2/4 1094/2/4 1101/2/4
f 1094/1/4 1095/1/4 1101/1/4
f 1101/1/4 1096/1/4 1102/1/4
f 1097/2/4 1098/2/4 1103/2/4
f 1102/1/4 1096/1/4 1103/1/4
f 1096/2/4 1097/2/4 1103/2/4
f 1098/1/4 1099/1/4 1104/1/4
f 1103/2/4 1098/2/4 1104/2/4
f 1099/1/4 1093/1/4 1105/1/4
f 1104/1/4 1099/1/4 1105/1/4
f 1087/1/4 1088/1/4 1106/1/4
f 1106/1/4 1088/1/4 1107/1/4
f 1101/1/4 1102/1/4 1108/1/4
f 1100/1/4 1101/1/4 1108/1/4
f 1103/2/4 1104/2/4 1109/2/4
f 1108/1/4 1102/1/4 1109/1/4
f 1102/2/4 1103/2/4 1109/2/4
f 1104/2/4 1105/2/4 1109/2/4
f 1105/1/4 1093/1/4 1110/1/4
f 1109/2/4 1105/2/4 1110/2/4
f 1110/1/4 1093/1/4 1111/1/4
f 1114/1/4 1115/1/4 1120/1/4
f 1115/2/4 1116/2/4 1121/2/4
f 1120/1/4 1115/1/4 1121/1/4
f 1116/1/4 1117/1/4 1122/1/4
f 1121/2/4 1116/2/4 1122/2/4
f 1122/1/4 1117/1/4 1123/1/4
f 1117/2/4 1118/2/4 1124/2/4
f 1123/1/4 1117/1/4 1124/1/4
f 1118/1/4 1119/1/4 1125/1/4
f 1124/2/4 1118/2/4 1125/2/4
f 1114/1/4 1120/1/4 1126/1/4
f 1126/1/4 1120/1/4 1127/1/4
f 1127/1/4 1120/1/4 1128/1/4
f 1128/1/4 1120/1/4 1129/1/4
f 1129/1/4 1120/1/4 1130/1/4
f 1120/2/4 1121/2/4 1131/2/4
f 1130/1/4 1120/1/4 1131/1/4
f 1122/1/4 1123/1/4 1132/1/4
f 1131/2/4 1121/2/4 1132/2/4
f 1121/1/4 1122/1/4 1132/1/4
f 1123/2/4 1124/2/4 1133/2/4
f 1132/1/4 1123/1/4 1133/1/4
f 1124/1/4 1125/1/4 1134/1/4
f 1133/2/4 1124/2/4 1134/2/4
f 1125/1/4 1119/1/4 1135/1/4
f 1134/1/4 1125/1/4 1135/1/4
f 1135/1/4 1119/1/4 1136/1/4
f 1112/1/4 1113/1/4 1137/1/4
f 1137/1/4 1113/1/4 1138/1/4
f 1126/2/4 1127/2/4 1139/2/4
f 1127/1/4 1128/1/4 1140/1/4
f 1139/2/4 1127/2/4 1140/2/4
f 1128/2/4 1129/2/4 1141/2/4
f 1140/1/4 1128/1/4 1141/1/4
f 1129/1/4 1130/1/4 1142/1/4
f 1141/2/4 1129/2/4 1142/2/4
f 1130/2/4 1131/2/4 1143/2/4
f 1142/1/4 1130/1/4 1143/1/4
f 1131/1/4 1132/1/4 1144/1/4
f 1143/2/4 1131/2/4 1144/2/4
f 1133/1/4 1134/1/4 1144/1/4
f 1132/1/4 1133/1/4 1144/1/4
f 1134/1/4 1135/1/4 1144/1/4
f 1135/2/4 1136/2/4 1145/2/4
f 1144/1/4 1135/1/4 1145/1/4
f 1136/1/4 1119/1/4 1146/1/4
f 1145/2/4 1136/2/4 1146/2/4
f 1146/1/4 1119/1/4 1147/1/4
f 1150/1/4 1151/1/4 1161/1/4
f 1151/2/4 1152/2/4 1162/2/4
f 1161/1/4 1151/1/4 1162/1/4
f 1162/2/4 1152/2/4 1163/2/4
f 1152/1/4 1153/1/4 1164/1/4
f 1163/2/4 1152/2/4 1164/2/4
f 1153/2/4 1154/2/4 1165/2/4
f 1164/1/4 1153/1/4 1165/1/4
f 1154/1/4 1155/1/4 1166/1/4
f 1165/2/4 1154/2/4 1166/2/4
f 1166/1/4 1155/1/4 1167/1/4
f 1155/2/4 1156/2/4 1168/2/4
f 1167/1/4 1155/1/4 1168/1/4
f 1156/1/4 1157/1/4 1169/1/4
f 1168/2/4 1156/2/4 1169/2/4
f 1169/1/4 1157/1/4 1170/1/4
f 1157/2/4 1158/2/4 1171/2/4
f 1170/1/4 1157/1/4 1171/1/4
f 1171/2/4 1158/2/4 1172/2/4
f 1158/1/4 1159/1/4 1173/1/4
f 1172/2/4 1158/2/4 1173/2/4
f 1173/1/4 1159/1/4 1174/1/4
f 1159/2/4 1160/2/4 1175/2/4
f 1174/1/4 1159/1/4 1175/1/4
f 1175/2/4 1160/2/4 1176/2/4
f 1176/2/4 1160/2/4 1177/2/4
f 1162/2/4 1163/2/4 1178/2/4
f 1161/2/4 1162/2/4 1178/2/4
f 1178/2/4 1163/2/4 1179/2/4
f 1163/1/4 1164/1/4 1180/1/4
f 1179/2/4 1163/2/4 1180/2/4
f 1164/2/4 1165/2/4 1181/2/4
f 1180/1/4 1164/1/4 1181/1/4
f 1173/1/4 1174/1/4 1182/1/4
f 1172/1/4 1173/1/4 1182/1/4
f 1174/2/4 1175/2/4 1182/2/4
f 1175/2/4 1176/2/4 1182/2/4
f 1176/1/4 1177/1/4 1183/1/4
f 1182/2/4 1176/2/4 1183/2/4
f 1148/1/4 1149/1/4 1184/1/4
f 1184/1/4 1149/1/4 1185/1/4
f 1178/1/4 1179/1/4 1186/1/4
f 1179/2/4 1180/2/4 1187/2/4
f 1186/1/4 1179/1/4 1187/1/4
f 1180/2/4 1181/2/4 1187/2/4
f 1181/2/4 1165/2/4 1188/2/4
f 1187/2/4 1181/2/4 1188/2/4
f 1166/1/4 1167/1/4 1188/1/4
f 1165/1/4 1166/1/4 1188/1/4
f 1167/2/4 1168/2/4 1189/2/4
f 1188/1/4 1167/1/4 1189/1/4
f 1169/1/4 1170/1/4 1190/1/4
f 1189/2/4 1168/2/4 1190/2/4
f 1168/1/4 1169/1/4 1190/1/4
f 1171/2/4 1172/2/4 1191/2/4
f 1190/1/4 1170/1/4 1191/1/4
f 1170/2/4 1171/2/4 1191/2/4
f 1182/1/4 1183/1/4 1192/1/4
f 1191/2/4 1172/2/4 1192/2/4
f 1172/1/4 1182/1/4 1192/1/4
f 1183/1/4 1177/1/4 1193/1/4
f 1192/1/4 1183/1/4 1193/1/4
f 1194/2/4 1195/2/4 1199/2/4
f 1195/1/4 1196/1/4 1200/1/4
f 1199/2/4 1195/2/4 1200/2/4
f 1197/1/4 1198/1/4 1201/1/4
f 1201/1/4 1198/1/4 1202/1/4
f 1197/1/4 1201/1/4 1203/1/4
f 1203/1/4 1201/1/4 1204/1/4
f 1201/2/4 1202/2/4 1205/2/4
f 1204/1/4 1201/1/4 1205/1/4
f 1205/2/4 1202/2/4 1206/2/4
f 1199/1/4 1200/1/4 1207/1/4
f 1200/1/4 1196/1/4 1208/1/4
f 1207/1/4 1200/1/4 1208/1/4
f 1203/2/4 1204/2/4 1209/2/4
f 1204/1/4 1205/1/4 1210/1/4
f 1209/2/4 1204/2/4 1210/2/4
f 1205/1/4 1206/1/4 1210/1/4
f 1210/1/4 1206/1/4 1211/1/4
f 1214/2/4 1215/2/4 1223/2/4
f 1215/1/4 1216/1/4 1224/1/4
f 1223/2/4 1215/2/4 1224/2/4
f 1224/1/4 1216/1/4 1225/1/4
f 1216/2/4 1217/2/4 1226/2/4
f 1225/1/4 1216/1/4 1226/1/4
f 1226/2/4 1217/2/4 1227/2/4
f 1217/1/4 1218/1/4 1228/1/4
f 1227/2/4 1217/2/4 1228/2/4
f 1218/2/4 1219/2/4 1229/2/4
f 1228/1/4 1218/1/4 1229/1/4
f 1229/2/4 1219/2/4 1230/2/4
f 1219/1/4 1220/1/4 1231/1/4
f 1230/2/4 1219/2/4 1231/2/4
f 1231/1/4 1220/1/4 1232/1/4
f 1220/2/4 1221/2/4 1233/2/4
f 1232/1/4 1220/1/4 1233/1/4
f 1233/2/4 1221/2/4 1234/2/4
f 1221/1/4 1222/1/4 1235/1/4
f 1234/2/4 1221/2/4 1235/2/4
f 1224/1/4 1225/1/4 1236/1/4
f 1226/2/4 1227/2/4 1236/2/4
f 1223/1/4 1224/1/4 1236/1/4
f 1225/2/4 1226/2/4 1236/2/4
f 1227/1/4 1228/1/4 1237/1/4
f 1236/2/4 1227/2/4 1237/2/4
f 1229/2/4 1230/2/4 1238/2/4
f 1228/2/4 1229/2/4 1238/2/4
f 1231/1/4 1232/1/4 1239/1/4
f 1238/2/4 1230/2/4 1239/2/4
f 1230/1/4 1231/1/4 1239/1/4
f 1212/1/4 1213/1/4 1240/1/4
f 1240/1/4 1213/1/4 1241/1/4
f 1223/1/4 1236/1/4 1242/1/4
f 1236/1/4 1237/1/4 1242/1/4
f 1237/1/4 1228/1/4 1243/1/4
f 1242/1/4 1237/1/4 1243/1/4
f 1228/2/4 1238/2/4 1243/2/4
f 1238/1/4 1239/1/4 1244/1/4
f 1243/2/4 1238/2/4 1244/2/4
f 1239/1/4 1232/1/4 1245/1/4
f 1244/1/4 1239/1/4 1245/1/4
f 1233/2/4 1234/2/4 1245/2/4
f 1232/2/4 1233/2/4 1245/2/4
f 1234/1/4 1235/1/4 1246/1/4
f 1245/2/4 1234/2/4 1246/2/4
f 1235/1/4 1222/1/4 1247/1/4
f 1246/1/4 1235/1/4 1247/1/4
f 1250/1/4 1251/1/4 1254/1/4
f 1251/2/4 1252/2/4 1255/2/4
f 1254/1/4 1251/1/4 1255/1/4
f 1255/2/4 1252/2/4 1256/2/4
f 1252/1/4 1253/1/4 1257/1/4
f 1256/2/4 1252/2/4 1257/2/4
f 1248/1/4 1249/1/4 1258/1/4
f 1258/1/4 1249/1/4 1259/1/4
f 1250/1/4 1254/1/4 1260/1/4
f 1255/2/4 1256/2/4 1261/2/4
f 1260/1/4 1254/1/4 1261/1/4
f 1254/2/4 1255/2/4 1261/2/4
f 1256/1/4 1257/1/4 1262/1/4
f 1261/2/4 1256/2/4 1262/2/4
f 1257/1/4 1253/1/4 1263/1/4
f 1262/1/4 1257/1/4 1263/1/4
f 1264/4/4 1265/4/4 1266/4/4
f 1266/4/4 1265/4/4 1267/4/4
f 1268/4/4 1269/4/4 1270/4/4
f 1270/4/4 1269/4/4 1271/4/4
f 1272/4/4 1273/4/4 1274/4/4
f 1274/4/4 1273/4/4 1275/4/4
f 1276/4/4 1277/4/4 1280/4/4
f 1278/4/4 1279/4/4 1281/4/4
f 1276/4/4 1280/4/4 1282/4/4
f 1280/3/4 1281/3/4 1282/3/4
f 1281/4/4 1279/4/4 1283/4/4
f 1282/3/4 1281/3/4 1283/3/4
f 1276/4/4 1282/4/4 1284/4/4
f 1283/4/4 1279/4/4 1285/4/4
f 1276/4/4 1284/4/4 1286/4/4
f 1284/3/4 1285/3/4 1286/3/4
f 1285/4/4 1279/4/4 1287/4/4
f 1286/3/4 1285/3/4 1287/3/4
f 1276/4/4 1286/4/4 1288/4/4
f 1288/4/4 1286/4/4 1289/4/4
f 1287/4/4 1279/4/4 1290/4/4
f 1290/4/4 1279/4/4 1291/4/4
f 1313/1/5 1293/1/5 1292/1/5
f 1314/1/5 1293/1/5 1313/1/5
f 1315/1/5 1293/1/5 1314/1/5
f 1316/1/5 1295/1/5 1294/1/5
f 1317/1/5 1295/1/5 1316/1/5
f 1318/2/5 1296/2/5 1295/2/5
f 1318/1/5 1295/1/5 1317/1/5
f 1319/2/5 1296/2/5 1318/2/5
f 1320/1/5 1298/1/5 1297/1/5
f 1321/1/5 1298/1/5 1320/1/5
f 1322/1/5 1298/1/5 1321/1/5
f 1323/1/5 1298/1/5 1322/1/5
f 1324/1/5 1300/1/5 1299/1/5
f 1325/1/5 1300/1/5 1324/1/5
f 1326/1/5 1300/1/5 1325/1/5
f 1327/1/5 1300/1/5 1326/1/5
f 1328/1/5 1302/1/5 1301/1/5
f 1329/1/5 1302/1/5 1328/1/5
f 1330/1/5 1302/1/5 1329/1/5
f 1331/1/5 1302/1/5 1330/1/5
f 1332/1/5 1304/1/5 1303/1/5
f 1333/1/5 1304/1/5 1332/1/5
f 1334/1/5 1304/1/5 1333/1/5
f 1335/1/5 1304/1/5 1334/1/5
f 1336/1/5 1306/1/5 1305/1/5
f 1337/1/5 1306/1/5 1336/1/5
f 1338/1/5 1306/1/5 1337/1/5
f 1339/1/5 1306/1/5 1338/1/5
f 1340/1/5 1308/1/5 1307/1/5
f 1341/1/5 1308/1/5 1340/1/5
f 1342/1/5 1308/1/5 1341/1/5
f 1343/1/5 1308/1/5 1342/1/5
f 1344/1/5 1310/1/5 1309/1/5
f 1345/1/5 1310/1/5 1344/1/5
f 1346/1/5 1310/1/5 1345/1/5
f 1347/1/5 1310/1/5 1346/1/5
f 1348/1/5 1312/1/5 1311/1/5
f 1349/1/5 1312/1/5 1348/1/5
f 1350/1/5 1312/1/5 1349/1/5
f 1351/1/5 1312/1/5 1350/1/5
f 1353/1/5 1313/1/5 1292/1/5
f 1354/1/5 1313/1/5 1353/1/5
f 1355/1/5 1315/1/5 1314/1/5
f 1356/2/5 1316/2/5 1315/2/5
f 1356/1/5 1315/1/5 1355/1/5
f 1357/1/5 1317/1/5 1316/1/5
f 1357/2/5 1316/2/5 1356/2/5
f 1358/1/5 1317/1/5 1357/1/5
f 1359/2/5 1319/2/5 1318/2/5
f 1359/2/5 1320/2/5 1319/2/5
f 1360/1/5 1321/1/5 1320/1/5
f 1360/2/5 1320/2/5 1359/2/5
f 1361/1/5 1321/1/5 1360/1/5
f 1362/2/5 1323/2/5 1322/2/5
f 1362/2/5 1324/2/5 1323/2/5
f 1363/1/5 1325/1/5 1324/1/5
f 1363/2/5 1324/2/5 1362/2/5
f 1364/1/5 1325/1/5 1363/1/5
f 1365/1/5 1327/1/5 1326/1/5
f 1365/1/5 1328/1/5 1327/1/5
f 1365/1/5 1329/1/5 1328/1/5
f 1366/1/5 1329/1/5 1365/1/5
f 1367/1/5 1331/1/5 1330/1/5
f 1367/1/5 1332/1/5 1331/1/5
f 1367/1/5 1333/1/5 1332/1/5
f 1368/1/5 1333/1/5 1367/1/5
f 1369/1/5 1335/1/5 1334/1/5
f 1369/1/5 1336/1/5 1335/1/5
f 1369/1/5 1337/1/5 1336/1/5
f 1370/1/5 1337/1/5 1369/1/5
f 1371/1/5 1339/1/5 1338/1/5
f 1371/1/5 1341/1/5 1340/1/5
f 1371/1/5 1340/1/5 1339/1/5
f 1372/1/5 1341/1/5 1371/1/5
f 1373/2/5 1343/2/5 1342/2/5
f 1374/1/5 1345/1/5 1344/1/5
f 1374/2/5 1343/2/5 1373/2/5
f 1374/1/5 1344/1/5 1343/1/5
f 1375/1/5 1345/1/5 1374/1/5
f 1376/1/5 1347/1/5 1346/1/5
f 1376/1/5 1349/1/5 1348/1/5
f 1376/1/5 1348/1/5 1347/1/5
f 1377/1/5 1349/1/5 1376/1/5
f 1378/1/5 1352/1/5 1351/1/5
f 1378/1/5 1351/1/5 1350/1/5
f 1379/1/5 1352/1/5 1378/1/5
f 1401/4/5 1381/4/5 1380/4/5
f 1402/4/5 1381/4/5 1401/4/5
f 1404/4/5 1383/4/5 1382/4/5
f 1405/4/5 1383/4/5 1404/4/5
f 1407/4/5 1385/4/5 1384/4/5
f 1408/4/5 1385/4/5 1407/4/5
f 1410/4/5 1387/4/5 1386/4/5
f 1411/4/5 1387/4/5 1410/4/5
f 1412/4/5 1389/4/5 1388/4/5
f 1413/4/5 1389/4/5 1412/4/5
f 1414/4/5 1391/4/5 1390/4/5
f 1415/4/5 1391/4/5 1414/4/5
f 1416/4/5 1393/4/5 1392/4/5
f 1417/4/5 1393/4/5 1416/4/5
f 1418/4/5 1395/4/5 1394/4/5
f 1419/4/5 1395/4/5 1418/4/5
f 1420/4/5 1397/4/5 1396/4/5
f 1421/4/5 1397/4/5 1420/4/5
f 1422/4/5 1399/4/5 1398/4/5
f 1423/4/5 1399/4/5 1422/4/5
f 1425/4/5 1421/4/5 1420/4/5
f 1425/4/5 1424/4/5 1423/4/5
f 1425/4/5 1423/4/5 1422/4/5
f 1425/4/5 1422/4/5 1421/4/5
f 1425/4/5 1403/4/5 1402/4/5
f 1425/4/5 1420/4/5 1419/4/5
f 1425/4/5 1406/4/5 1405/4/5
f 1425/4/5 1418/4/5 1417/4/5
f 1425/4/5 1409/4/5 1408/4/5
f 1425/4/5 1416/4/5 1415/4/5
f 1425/4/5 1411/4/5 1410/4/5
f 1425/4/5 1414/4/5 1413/4/5
f 1425/4/5 1413/4/5 1412/4/5
f 1425/4/5 1412/4/5 1411/4/5
f 1425/4/5 1415/4/5 1414/4/5
f 1425/4/5 1410/4/5 1409/4/5
f 1425/4/5 1417/4/5 1416/4/5
f 1425/4/5 1408/4/5 1407/4/5
f 1425/4/5 1407/4/5 1406/4/5
f 1425/4/5 1419/4/5 1418/4/5
f 1425/4/5 1405/4/5 1404/4/5
f 1425/4/5 1404/4/5 1403/4/5
f 1425/4/5 1401/4/5 1400/4/5
f 1425/4/5 1402/4/5 1401/4/5
f 1426/4/5 1424/4/5 1425/4/5
f 1433/4/5 1428/4/5 1427/4/5
f 1434/4/5 1428/4/5 1433/4/5
f 1435/4/5 1430/4/5 1429/4/5
f 1436/4/5 1430/4/5 1435/4/5
f 1437/4/5 1432/4/5 1431/4/5
f 1438/4/5 1432/4/5 1437/4/5
f 1439/4/6 1440/4/6 1445/4/6
f 1445/4/6 1440/4/6 1446/4/6
f 1441/4/6 1442/4/6 1447/4/6
f 1447/4/6 1442/4/6 1448/4/6
f 1443/4/6 1444/4/6 1449/4/6
f 1449/4/6 1444/4/6 1450/4/6
f 1451/4/6 1452/4/6 1472/4/6
f 1472/4/6 1452/4/6 1473/4/6
f 1453/4/6 1454/4/6 1474/4/6
f 1474/4/6 1454/4/6 1475/4/6
f 1455/4/6 1456/4/6 1476/4/6
f 1476/4/6 1456/4/6 1477/4/6
f 1457/4/6 1458/4/6 1478/4/6
f 1478/4/6 1458/4/6 1479/4/6
f 1459/4/6 1460/4/6 1481/4/6
f 1481/4/6 1460/4/6 1482/4/6
f 1461/4/6 1462/4/6 1484/4/6
f 1484/4/6 1462/4/6 1485/4/6
f 1463/4/6 1464/4/6 1487/4/6
f 1487/4/6 1464/4/6 1488/4/6
f 1465/4/6 1466/4/6 1491/4/6
f 1491/4/6 1466/4/6 1492/4/6
f 1467/4/6 1468/4/6 1494/4/6
f 1494/4/6 1468/4/6 1495/4/6
f 1469/4/6 1470/4/6 1497/4/6
f 1497/4/6 1470/4/6 1498/4/6
f 1495/4/6 1496/4/6 1500/4/6
f 1498/4/6 1499/4/6 1500/4/6
f 1497/4/6 1498/4/6 1500/4/6
f 1496/4/6 1497/4/6 1500/4/6
f 1472/4/6 1473/4/6 1500/4/6
f 1494/4/6 1495/4/6 1500/4/6
f 1493/4/6 1494/4/6 1500/4/6
f 1474/4/6 1475/4/6 1500/4/6
f 1491/4/6 1492/4/6 1500/4/6
f 1490/4/6 1491/4/6 1500/4/6
f 1476/4/6 1477/4/6 1500/4/6
f 1488/4/6 1489/4/6 1500/4/6
f 1487/4/6 1488/4/6 1500/4/6
f 1486/4/6 1487/4/6 1500/4/6
f 1479/4/6 1480/4/6 1500/4/6
f 1484/4/6 1485/4/6 1500/4/6
f 1483/4/6 1484/4/6 1500/4/6
f 1482/4/6 1483/4/6 1500/4/6
f 1481/4/6 1482/4/6 1500/4/6
f 1480/4/6 1481/4/6 1500/4/6
f 1485/4/6 1486/4/6 1500/4/6
f 1478/4/6 1479/4/6 1500/4/6
f 1477/4/6 1478/4/6 1500/4/6
f 1489/4/6 1490/4/6 1500/4/6
f 1475/4/6 1476/4/6 1500/4/6
f 1492/4/6 1493/4/6 1500/4/6
f 1473/4/6 1474/4/6 1500/4/6
f 1471/4/6 1472/4/6 1500/4/6
f 1500/4/6 1499/4/6 1501/4/6
f 1502/1/6 1503/1/6 1524/1/6
f 1524/1/6 1503/1/6 1525/1/6
f 1525/1/6 1503/1/6 1526/1/6
f 1504/1/6 1505/1/6 1527/1/6
f 1527/1/6 1505/1/6 1528/1/6
f 1505/2/6 1506/2/6 1529/2/6
f 1528/1/6 1505/1/6 1529/1/6
f 1529/2/6 1506/2/6 1530/2/6
f 1507/1/6 1508/1/6 1531/1/6
f 1531/1/6 1508/1/6 1532/1/6
f 1532/1/6 1508/1/6 1533/1/6
f 1533/1/6 1508/1/6 1534/1/6
f 1509/1/6 1510/1/6 1535/1/6
f 1535/1/6 1510/1/6 1536/1/6
f 1536/1/6 1510/1/6 1537/1/6
f 1537/1/6 1510/1/6 1538/1/6
f 1511/2/6 1512/2/6 1539/2/6
f 1512/1/6 1513/1/6 1540/1/6
f 1539/2/6 1512/2/6 1540/2/6
f 1540/1/6 1513/1/6 1541/1/6
f 1541/1/6 1513/1/6 1542/1/6
f 1514/1/6 1515/1/6 1543/1/6
f 1543/1/6 1515/1/6 1544/1/6
f 1544/1/6 1515/1/6 1545/1/6
f 1545/1/6 1515/1/6 1546/1/6
f 1516/1/6 1517/1/6 1547/1/6
f 1547/1/6 1517/1/6 1548/1/6
f 1548/1/6 1517/1/6 1549/1/6
f 1549/1/6 1517/1/6 1550/1/6
f 1518/1/6 1519/1/6 1551/1/6
f 1551/1/6 1519/1/6 1552/1/6
f 1552/1/6 1519/1/6 1553/1/6
f 1553/1/6 1519/1/6 1554/1/6
f 1520/1/6 1521/1/6 1555/1/6
f 1555/1/6 1521/1/6 1556/1/6
f 1556/1/6 1521/1/6 1557/1/6
f 1557/1/6 1521/1/6 1558/1/6
f 1522/1/6 1523/1/6 1559/1/6
f 1559/1/6 1523/1/6 1560/1/6
f 1560/1/6 1523/1/6 1561/1/6
f 1561/1/6 1523/1/6 1562/1/6
f 1502/1/6 1524/1/6 1564/1/6
f 1564/1/6 1524/1/6 1565/1/6
f 1525/1/6 1526/1/6 1566/1/6
f 1527/1/6 1528/1/6 1566/1/6
f 1526/1/6 1527/1/6 1566/1/6
f 1566/1/6 1528/1/6 1567/1/6
f 1529/1/6 1530/1/6 1568/1/6
f 1530/2/6 1531/2/6 1569/2/6
f 1568/1/6 1530/1/6 1569/1/6
f 1531/1/6 1532/1/6 1570/1/6
f 1569/2/6 1531/2/6 1570/2/6
f 1570/1/6 1532/1/6 1571/1/6
f 1533/1/6 1534/1/6 1572/1/6
f 1534/2/6 1535/2/6 1573/2/6
f 1572/1/6 1534/1/6 1573/1/6
f 1535/2/6 1536/2/6 1573/2/6
f 1573/2/6 1536/2/6 1574/2/6
f 1537/1/6 1538/1/6 1575/1/6
f 1538/1/6 1539/1/6 1575/1/6
f 1539/1/6 1540/1/6 1575/1/6
f 1575/1/6 1540/1/6 1576/1/6
f 1541/1/6 1542/1/6 1577/1/6
f 1542/1/6 1543/1/6 1577/1/6
f 1543/1/6 1544/1/6 1577/1/6
f 1577/1/6 1544/1/6 1578/1/6
f 1545/1/6 1546/1/6 1579/1/6
f 1546/1/6 1547/1/6 1579/1/6
f 1547/1/6 1548/1/6 1579/1/6
f 1579/1/6 1548/1/6 1580/1/6
f 1549/2/6 1550/2/6 1581/2/6
f 1551/1/6 1552/1/6 1582/1/6
f 1581/2/6 1550/2/6 1582/2/6
f 1550/1/6 1551/1/6 1582/1/6
f 1582/1/6 1552/1/6 1583/1/6
f 1553/1/6 1554/1/6 1584/1/6
f 1554/2/6 1555/2/6 1585/2/6
f 1584/1/6 1554/1/6 1585/1/6
f 1555/1/6 1556/1/6 1586/1/6
f 1585/2/6 1555/2/6 1586/2/6
f 1586/1/6 1556/1/6 1587/1/6
f 1557/1/6 1558/1/6 1588/1/6
f 1559/1/6 1560/1/6 1588/1/6
f 1558/1/6 1559/1/6 1588/1/6
f 1588/1/6 1560/1/6 1589/1/6
f 1562/1/6 1563/1/6 1590/1/6
f 1561/1/6 1562/1/6 1590/1/6
f 1590/1/6 1563/1/6 1591/1/6
